<svg xmlns="http://www.w3.org/2000/svg" width="26" height="23"><path fill-rule="evenodd" fill="#131313" d="M1.312 10h23.219a1 1 0 0 1 1 1v.719a1 1 0 0 1-1 1H1.312a1 1 0 0 1-1-1V11a1 1 0 0 1 1-1z"/><path fill-rule="evenodd" fill="#131313" d="M.251 10.846c.352-.352 2.033-.352 2.385 0l10.346 10.346c.352.352-.76.922-1.111 1.274a.901.901 0 0 1-1.273 0L.251 12.119a.901.901 0 0 1 0-1.273z"/><path fill-rule="evenodd" fill="#131313" d="M.251 11.874c.352.352 2.033.352 2.385 0L12.982 1.527c.352-.351-.76-.921-1.111-1.273a.901.901 0 0 0-1.273 0L.251 10.601a.901.901 0 0 0 0 1.273z"/></svg>