<svg version="1.1" id="Capa_1" xmlns="http://www.w3.org/2000/svg" x="0" y="0" viewBox="0 0 512 512" xml:space="preserve"><style>.st0{fill:#131313}</style><path class="st0" d="M266 340.4l77.3-106.3c2.8-3.9 3.3-9.1 1.1-13.4-2.2-4.3-6.6-7-11.4-7H178.4c-4.8 0-9.3 2.7-11.4 7-.9 1.8-1.4 3.8-1.4 5.8 0 2.6.8 5.3 2.5 7.5l77.2 106.3c2.5 3.4 6.3 5.3 10.3 5.3 4.2.2 8-1.8 10.4-5.2z"/><path class="st0" d="M512 256C512 114.6 397.4 0 256 0S0 114.6 0 256s114.6 256 256 256 256-114.6 256-256zm-469.3 0c0-117.8 95.4-213.2 213.2-213.2 117.7 0 213.3 95.5 213.3 213.2 0 117.7-95.5 213.2-213.3 213.2-117.7 0-213.2-95.4-213.2-213.2z"/></svg>