<svg xmlns="http://www.w3.org/2000/svg" width="20" height="22"><path fill-rule="evenodd" fill="#131313" d="M16.117 8.265c-.835 0-1.567.313-2.089.835L6.612 4.818c.105-.209.105-.523.105-.732 0-1.775-1.358-3.133-3.133-3.133C1.808.953.45 2.311.45 4.086c0 1.776 1.358 3.134 3.134 3.134.835 0 1.566-.313 2.088-.836l7.416 4.283c-.104.209-.104.522-.104.731 0 .209 0 .523.104.732l-7.416 4.387c-.522-.523-1.253-.836-2.088-.836a3.032 3.032 0 0 0-3.03 3.029 3.032 3.032 0 0 0 3.03 3.03 3.03 3.03 0 0 0 3.028-3.03c0-.209 0-.417-.104-.731l7.416-4.387c.522.522 1.253.836 2.089.836 1.775 0 3.133-1.358 3.133-3.134 0-1.776-1.253-3.029-3.029-3.029z"/></svg>