<svg xmlns="http://www.w3.org/2000/svg" width="18" height="15"><path fill-rule="evenodd" fill="#131313" d="M16.74 3.51h-2.79a.93.93 0 0 1-.93-.93c0-.514.416-1.86.93-1.86h2.79c.514 0 .93 1.346.93 1.86a.93.93 0 0 1-.93.93zm-6.51 10.65H7.44a.93.93 0 0 1-.93-.93c0-.514.416-1.86.93-1.86h2.79c.514 0 .93 1.346.93 1.86a.93.93 0 0 1-.93.93zm0-5H7.44a.93.93 0 0 1-.93-.93c0-.514.416-1.86.93-1.86h2.79c.514 0 .93 1.346.93 1.86a.93.93 0 0 1-.93.93zm0-5.65H7.44a.93.93 0 0 1-.93-.93c0-.514.416-1.86.93-1.86h2.79c.514 0 .93 1.346.93 1.86a.93.93 0 0 1-.93.93zM3.72 14.16H.93a.93.93 0 0 1-.93-.93c0-.514.416-1.86.93-1.86h2.79c.514 0 .93 1.346.93 1.86a.93.93 0 0 1-.93.93zm0-5H.93A.93.93 0 0 1 0 8.23c0-.514.416-1.86.93-1.86h2.79c.514 0 .93 1.346.93 1.86a.93.93 0 0 1-.93.93zm0-5.65H.93A.93.93 0 0 1 0 2.58C0 2.066.416.72.93.72h2.79c.514 0 .93 1.346.93 1.86a.93.93 0 0 1-.93.93zm10.23 2.86h2.79c.514 0 .93 1.346.93 1.86a.93.93 0 0 1-.93.93h-2.79a.93.93 0 0 1-.93-.93c0-.514.416-1.86.93-1.86z"/></svg>