<?xml version="1.0" encoding="iso-8859-1"?>
<!-- Generator: Adobe Illustrator 19.0.0, SVG Export Plug-In . SVG Version: 6.00 Build 0)  -->
<svg version="1.1" id="Capa_1" xmlns="http://www.w3.org/2000/svg" xmlns:xlink="http://www.w3.org/1999/xlink" x="0px" y="0px"
	 viewBox="0 0 480 480" style="enable-background:new 0 0 480 480;" xml:space="preserve">
<g>
	<g>
		<g>
			<path d="M234.94,41.932c-0.572,0.44-1.084,0.952-1.524,1.524C228.136,51.104,104,231.64,104,304c0,75.111,60.889,136,136,136
				s136-60.889,136-136c0-72.36-124.136-252.896-129.416-260.544C243.789,39.82,238.576,39.138,234.94,41.932z M240,424
				c-66.243-0.075-119.925-53.757-120-120c0-58.4,94-202.88,120-241.728C266,101.12,360,245.6,360,304
				C359.925,370.243,306.243,423.925,240,424z"/>
			<path d="M240,408c57.41-0.066,103.934-46.59,104-104h-16c-0.057,48.577-39.423,87.943-88,88V408z"/>
			<path d="M240,0C107.452,0,0,107.452,0,240s107.452,240,240,240s240-107.452,240-240C479.85,107.514,372.486,0.15,240,0z M240,464
				C116.288,464,16,363.712,16,240S116.288,16,240,16s224,100.288,224,224C463.859,363.653,363.653,463.859,240,464z"/>
		</g>
	</g>
</g>
<g>
</g>
<g>
</g>
<g>
</g>
<g>
</g>
<g>
</g>
<g>
</g>
<g>
</g>
<g>
</g>
<g>
</g>
<g>
</g>
<g>
</g>
<g>
</g>
<g>
</g>
<g>
</g>
<g>
</g>
</svg>
