<svg 
 xmlns="http://www.w3.org/2000/svg"
 xmlns:xlink="http://www.w3.org/1999/xlink"
 width="1920px" height="630px">
 <defs>
 	<radialGradient id="rgrad1" cy="20%" fx="50%" fy="20%">
 		<stop offset="30%" style="stop-color:rgb(221,165,30);stop-opacity:1" />
 		<stop offset="100%" style="stop-color:rgb(184,127,27);stop-opacity:1" />
 	</radialGradient>
 </defs>
<path fill-rule="evenodd"  fill="url('#rgrad1')"
 d="M000.000,545.000 C176.674,574.000 450.000,621.000 618.000,628.000 C706.918,631.000 786.000,629.000 849.000,619.000 C976.148,598.000 1139.000,558.000 1311.000,536.000 C1518.975,510.000 1739.000,510.000 1920.000,601.000 C1921.000,520.000 1920.000,493.000 1920.000,446.000 C1843.425,366.000 1752.000,285.000 1648.000,215.000 C1437.985,74.000 1176.000,-25.000 878.000,5.000 C771.650,16.000 590.000,67.000 478.000,122.000 C139.882,287.000 000.000,302.000 000.000,302.000 C000.000,302.000 0.000,330.000 000.000,427.000 C000.000,494.000 000.000,526.000 000.000,545.000 Z"/>
</svg>