<svg width="18" height="22" viewBox="0 0 18 22" fill="none" xmlns="http://www.w3.org/2000/svg">
<mask id="mask0_97_171" style="mask-type:luminance" maskUnits="userSpaceOnUse" x="0" y="0" width="18" height="22">
<path d="M16 1H2C1.73478 1 1.48043 1.10536 1.29289 1.29289C1.10536 1.48043 1 1.73478 1 2V20C1 20.2652 1.10536 20.5196 1.29289 20.7071C1.48043 20.8946 1.73478 21 2 21H16C16.2652 21 16.5196 20.8946 16.7071 20.7071C16.8946 20.5196 17 20.2652 17 20V2C17 1.73478 16.8946 1.48043 16.7071 1.29289C16.5196 1.10536 16.2652 1 16 1Z" fill="white" stroke="white" stroke-width="2" stroke-linecap="round" stroke-linejoin="round"/>
<path d="M5.5 14H12.5M5.5 17H9M12 5.5L8 9.5L6 7.5" stroke="black" stroke-width="2" stroke-linecap="round" stroke-linejoin="round"/>
</mask>
<g mask="url(#mask0_97_171)">
<path d="M-3 -1H21V23H-3V-1Z" fill="white"/>
</g>
</svg>
