<svg width="30" height="30" viewBox="0 0 30 30" fill="none" xmlns="http://www.w3.org/2000/svg">
<path d="M14.5 16.1176C16.8137 16.1176 18.91 16.8835 20.4479 17.9545C21.9093 18.9736 23.1471 20.4881 23.1471 22.1175C23.1471 23.0118 22.7653 23.753 22.1638 24.3039C21.598 24.824 20.8593 25.1612 20.0983 25.391C18.5777 25.8518 16.5753 26 14.5 26C12.4247 26 10.4223 25.8518 8.90164 25.391C8.1407 25.1612 7.40199 24.824 6.83499 24.3039C6.23588 23.7542 5.85294 23.0131 5.85294 22.1187C5.85294 20.4894 7.0907 18.9749 8.55205 17.9558C10.09 16.8835 12.1863 16.1176 14.5 16.1176ZM23.1471 17.3529C24.4367 17.3529 25.6078 17.7791 26.4737 18.3819C27.2643 18.9341 28.0882 19.8519 28.0882 20.9711C28.0882 21.6098 27.8103 22.1397 27.3965 22.5189C27.0185 22.8661 26.5515 23.0699 26.1253 23.1984C25.5448 23.3738 24.8592 23.4639 24.1476 23.5035C24.2983 23.0773 24.3823 22.6141 24.3823 22.1175C24.3823 20.2213 23.1977 18.6105 21.8722 17.4925C22.2909 17.4 22.7183 17.3532 23.1471 17.3529ZM5.85294 17.3529C6.29517 17.3546 6.72011 17.4011 7.12776 17.4925C5.80352 18.6105 4.61764 20.2213 4.61764 22.1175C4.61764 22.6141 4.70164 23.0773 4.85235 23.5035C4.14082 23.4639 3.45646 23.3738 2.87464 23.1984C2.44846 23.0699 1.98152 22.8661 1.60229 22.5189C1.38491 22.3242 1.21105 22.0858 1.09206 21.8193C0.973076 21.5528 0.911638 21.2642 0.911759 20.9724C0.911759 19.8544 1.73446 18.9354 2.52629 18.3832C3.5057 17.7117 4.66546 17.3526 5.85294 17.3529ZM22.5294 9.94118C23.3485 9.94118 24.134 10.2665 24.7131 10.8457C25.2923 11.4249 25.6176 12.2104 25.6176 13.0294C25.6176 13.8485 25.2923 14.634 24.7131 15.2131C24.134 15.7923 23.3485 16.1176 22.5294 16.1176C21.7104 16.1176 20.9249 15.7923 20.3457 15.2131C19.7665 14.634 19.4412 13.8485 19.4412 13.0294C19.4412 12.2104 19.7665 11.4249 20.3457 10.8457C20.9249 10.2665 21.7104 9.94118 22.5294 9.94118ZM6.47058 9.94118C7.28963 9.94118 8.07514 10.2665 8.65429 10.8457C9.23345 11.4249 9.55882 12.2104 9.55882 13.0294C9.55882 13.8485 9.23345 14.634 8.65429 15.2131C8.07514 15.7923 7.28963 16.1176 6.47058 16.1176C5.65153 16.1176 4.86603 15.7923 4.28687 15.2131C3.70771 14.634 3.38235 13.8485 3.38235 13.0294C3.38235 12.2104 3.70771 11.4249 4.28687 10.8457C4.86603 10.2665 5.65153 9.94118 6.47058 9.94118ZM14.5 5C15.8105 5 17.0673 5.52059 17.9939 6.44724C18.9206 7.37389 19.4412 8.63069 19.4412 9.94118C19.4412 11.2517 18.9206 12.5085 17.9939 13.4351C17.0673 14.3618 15.8105 14.8824 14.5 14.8824C13.1895 14.8824 11.9327 14.3618 11.0061 13.4351C10.0794 12.5085 9.55882 11.2517 9.55882 9.94118C9.55882 8.63069 10.0794 7.37389 11.0061 6.44724C11.9327 5.52059 13.1895 5 14.5 5Z" fill="white"/>
</svg>
