<svg width="30" height="30" viewBox="0 0 30 30" fill="none" xmlns="http://www.w3.org/2000/svg">
<path d="M1.875 7.96875C1.875 6.675 2.925 5.625 4.21875 5.625H22.0312C23.325 5.625 24.375 6.675 24.375 7.96875V18.2812C24.375 19.575 23.325 20.625 22.0312 20.625H4.21875C2.925 20.625 1.875 19.575 1.875 18.2812V7.96875ZM7.5 8.4375V7.5H5.625V8.4375C5.625 8.68614 5.52623 8.9246 5.35041 9.10041C5.1746 9.27623 4.93614 9.375 4.6875 9.375H3.75V11.25H4.6875C5.43342 11.25 6.14879 10.9537 6.67624 10.4262C7.20368 9.89879 7.5 9.18342 7.5 8.4375ZM16.875 13.125C16.875 12.1304 16.4799 11.1766 15.7766 10.4733C15.0734 9.77009 14.1196 9.375 13.125 9.375C12.1304 9.375 11.1766 9.77009 10.4733 10.4733C9.77009 11.1766 9.375 12.1304 9.375 13.125C9.375 14.1196 9.77009 15.0734 10.4733 15.7766C11.1766 16.4799 12.1304 16.875 13.125 16.875C14.1196 16.875 15.0734 16.4799 15.7766 15.7766C16.4799 15.0734 16.875 14.1196 16.875 13.125ZM20.625 7.5H18.75V8.4375C18.75 9.18342 19.0463 9.89879 19.5738 10.4262C20.1012 10.9537 20.8166 11.25 21.5625 11.25H22.5V9.375H21.5625C21.3139 9.375 21.0754 9.27623 20.8996 9.10041C20.7238 8.9246 20.625 8.68614 20.625 8.4375V7.5ZM7.5 17.8125C7.5 17.0666 7.20368 16.3512 6.67624 15.8238C6.14879 15.2963 5.43342 15 4.6875 15H3.75V16.875H4.6875C4.93614 16.875 5.1746 16.9738 5.35041 17.1496C5.52623 17.3254 5.625 17.5639 5.625 17.8125V18.75H7.5V17.8125ZM20.625 18.75V17.8125C20.625 17.5639 20.7238 17.3254 20.8996 17.1496C21.0754 16.9738 21.3139 16.875 21.5625 16.875H22.5V15H21.5625C20.8166 15 20.1012 15.2963 19.5738 15.8238C19.0463 16.3512 18.75 17.0666 18.75 17.8125V18.75H20.625ZM8.4375 24.375C7.84354 24.3752 7.26475 24.1874 6.7841 23.8384C6.30344 23.4895 5.94561 22.9973 5.76187 22.4325C6.02187 22.4775 6.28875 22.5 6.5625 22.5H22.0312C23.1501 22.5 24.2232 22.0555 25.0144 21.2644C25.8055 20.4732 26.25 19.4001 26.25 18.2812V9.53438C26.7986 9.72833 27.2735 10.0877 27.6093 10.5628C27.9451 11.038 28.1253 11.6056 28.125 12.1875V18.2812C28.125 19.0815 27.9674 19.8739 27.6611 20.6132C27.3549 21.3526 26.906 22.0243 26.3402 22.5902C25.7743 23.156 25.1026 23.6049 24.3632 23.9111C23.6239 24.2174 22.8315 24.375 22.0312 24.375H8.4375Z" fill="white"/>
</svg>
