<svg width="30" height="30" viewBox="0 0 30 30" fill="none" xmlns="http://www.w3.org/2000/svg">
<path d="M14.0918 1.93359C12.1758 2.23242 10.4297 3.50391 9.5625 5.24414C9.26953 5.82422 9.05273 6.51562 8.9707 7.11328C8.93555 7.35937 8.90625 8.29102 8.90625 9.17578V10.7812H11.25H13.5938V9.28125C13.5938 8.27344 13.6172 7.69922 13.6641 7.53516C13.8164 7.03125 14.4609 6.5625 15 6.5625C15.5391 6.5625 16.1836 7.03125 16.3359 7.53516C16.3828 7.69922 16.4062 8.27344 16.4062 9.28125V10.7812H18.75H21.0938V9.15234C21.0938 6.95508 20.9883 6.33984 20.4082 5.18555C20.1211 4.61719 19.8105 4.20117 19.2891 3.67383C18.4863 2.85352 17.5957 2.34961 16.459 2.05664C15.8965 1.91016 14.666 1.8457 14.0918 1.93359Z" fill="white"/>
<path d="M8.91797 12.3515C8.93555 12.9492 8.94727 13.0019 9.10547 13.207C9.39258 13.5879 9.46875 13.5996 11.3379 13.582C12.9082 13.5644 13.0078 13.5586 13.1602 13.4414C13.5117 13.1836 13.5645 13.0488 13.582 12.3574L13.6055 11.7187H11.25H8.89453L8.91797 12.3515Z" fill="white"/>
<path d="M16.418 12.3515C16.4355 12.9492 16.4473 13.0019 16.6055 13.207C16.8926 13.5879 16.9687 13.5996 18.8379 13.582C20.4082 13.5644 20.5078 13.5586 20.6602 13.4414C21.0117 13.1836 21.0645 13.0488 21.082 12.3574L21.1055 11.7187H18.75H16.3945L16.418 12.3515Z" fill="white"/>
<path d="M11.2442 15.0586C11.1973 15.0879 10.9102 15.4746 10.6172 15.92C10.0313 16.8047 9.9844 16.9629 10.2246 17.1973C10.3418 17.3203 10.4239 17.3438 10.7227 17.3438H11.0742L10.8106 17.7364C10.6524 17.9707 10.5469 18.1993 10.5469 18.2989C10.5469 18.6211 10.9512 18.8496 11.2442 18.6973C11.2969 18.6621 11.5899 18.2754 11.8828 17.8301C12.4688 16.9453 12.5156 16.7871 12.2754 16.5528C12.1582 16.4297 12.0762 16.4063 11.7774 16.4063H11.4258L11.6895 16.0137C11.8477 15.7793 11.9531 15.5508 11.9531 15.4512C11.9531 15.1289 11.5313 14.8887 11.2442 15.0586Z" fill="white"/>
<path d="M18.7442 15.0586C18.6973 15.0879 18.4102 15.4746 18.1172 15.92C17.5313 16.8047 17.4844 16.9629 17.7246 17.1973C17.8418 17.3203 17.9239 17.3438 18.2227 17.3438H18.5742L18.3106 17.7364C18.1524 17.9707 18.0469 18.1993 18.0469 18.2989C18.0469 18.6211 18.4512 18.8496 18.7442 18.6973C18.7969 18.6621 19.0899 18.2754 19.3828 17.8301C19.9688 16.9453 20.0156 16.7871 19.7754 16.5528C19.6582 16.4297 19.5762 16.4063 19.2774 16.4063H18.9258L19.1895 16.0137C19.3477 15.7793 19.4531 15.5508 19.4531 15.4512C19.4531 15.1289 19.0313 14.8887 18.7442 15.0586Z" fill="white"/>
<path d="M7.44727 18.8379C6.94336 18.9785 6.46875 19.2715 6.11719 19.6406C5.55469 20.25 5.36719 20.7949 5.40234 21.6738C5.41992 22.1543 5.44922 22.2949 5.60742 22.6348C5.71875 22.8691 5.92969 23.1738 6.12305 23.373L6.44531 23.7129L6.05859 23.9414C5.51367 24.2578 4.93945 24.8906 4.64063 25.5C4.34766 26.1035 4.21875 26.7012 4.21875 27.5098V28.125H7.17773H10.1367V27.668C10.1367 26.6133 10.3359 25.7051 10.7227 24.9844L10.9453 24.5625L10.6992 24.3281C10.5703 24.1992 10.3066 24 10.125 23.8945L9.79102 23.6953L9.98438 23.543C10.2422 23.3379 10.582 22.8105 10.7344 22.3945C10.9102 21.9023 10.9043 21.1348 10.7285 20.6074C10.4707 19.8398 9.74414 19.1191 9.00586 18.8965C8.56055 18.7559 7.82813 18.7324 7.44727 18.8379Z" fill="white"/>
<path d="M14.3027 18.8438C13.834 18.9668 13.4297 19.207 13.0605 19.5703C11.9941 20.6191 11.9766 22.3125 13.0137 23.4082L13.3008 23.7129L12.9375 23.9355C12.1348 24.4277 11.4375 25.3711 11.2207 26.2559C11.168 26.4609 11.1152 26.9648 11.0918 27.375L11.0566 28.125H14.9883H18.9258V27.6621C18.9258 26.3027 18.5684 25.3242 17.7832 24.5215C17.5898 24.3223 17.2676 24.0586 17.0625 23.9355L16.6992 23.7129L16.9863 23.4082C18.0059 22.3359 18 20.6719 16.9863 19.5996C16.3242 18.8965 15.2344 18.5918 14.3027 18.8438Z" fill="white"/>
<path d="M21.2285 18.832C19.9453 19.1426 18.9844 20.4785 19.125 21.75C19.2012 22.4297 19.5762 23.1855 20.0156 23.543L20.209 23.7012L19.9277 23.8652C19.7695 23.9531 19.5117 24.1406 19.3477 24.2871L19.0547 24.5508L19.3066 25.0664C19.6641 25.7813 19.7988 26.3496 19.8457 27.3164L19.8809 28.125H22.8398H25.7988L25.7695 27.3164C25.7285 26.332 25.5762 25.7813 25.1426 25.1309C24.8027 24.6152 24.4805 24.293 23.9531 23.9473L23.5605 23.6895L23.8477 23.4082C24.4102 22.8574 24.6387 22.2129 24.5977 21.3164C24.5742 20.8066 24.5449 20.6953 24.3574 20.3145C23.7773 19.1426 22.4883 18.5273 21.2285 18.832Z" fill="white"/>
</svg>
