<svg width="24" height="24" viewBox="0 0 24 24" fill="none" xmlns="http://www.w3.org/2000/svg">
<path fill-rule="evenodd" clip-rule="evenodd" d="M11.9777 2.57149C11.2611 2.55854 10.5489 2.68705 9.88202 2.94965C9.21511 3.21224 8.60653 3.60378 8.09111 4.10185C7.57569 4.59991 7.16355 5.19473 6.87827 5.85226C6.59299 6.50979 6.44018 7.21712 6.42857 7.93377V15.4286C6.42857 15.8833 6.24796 16.3193 5.92647 16.6408C5.60498 16.9623 5.16894 17.1429 4.71429 17.1429H2.57143C1.88944 17.1429 1.23539 16.872 0.753154 16.3898C0.270918 15.9075 0 15.2535 0 14.5715L0 11.1429C0 10.4609 0.270918 9.80688 0.753154 9.32464C1.23539 8.8424 1.88944 8.57148 2.57143 8.57148H3.85714V7.90291C3.87278 6.8493 4.09583 5.80909 4.51353 4.84169C4.93123 3.87429 5.53542 2.99865 6.29158 2.26478C7.04774 1.53091 7.94105 0.953181 8.92052 0.564596C9.89998 0.176011 10.9464 -0.0158206 12 5.63314e-05C13.0536 -0.0158206 14.1 0.176011 15.0795 0.564596C16.0589 0.953181 16.9523 1.53091 17.7084 2.26478C18.4646 2.99865 19.0688 3.87429 19.4865 4.84169C19.9042 5.80909 20.1272 6.8493 20.1429 7.90291V8.57148H21.4286C22.1106 8.57148 22.7646 8.8424 23.2468 9.32464C23.7291 9.80688 24 10.4609 24 11.1429V14.5715C24 15.2535 23.7291 15.9075 23.2468 16.3898C22.7646 16.872 22.1106 17.1429 21.4286 17.1429H20.1429V18.0001C20.1431 19.1585 19.7168 20.2765 18.9452 21.1406C18.1737 22.0048 17.1111 22.5546 15.96 22.6852C15.7365 23.0843 15.4105 23.4166 15.0158 23.6477C14.621 23.8788 14.1717 24.0005 13.7143 24.0001H11.1429C10.4609 24.0001 9.80682 23.7291 9.32458 23.2469C8.84235 22.7647 8.57143 22.1106 8.57143 21.4286C8.57143 20.7466 8.84235 20.0926 9.32458 19.6104C9.80682 19.1281 10.4609 18.8572 11.1429 18.8572H13.7143C14.6434 18.8572 15.4577 19.3492 15.9086 20.0881C16.3811 19.9795 16.8028 19.7138 17.1048 19.3346C17.4068 18.9553 17.5713 18.4849 17.5714 18.0001V7.93206C17.5597 7.21171 17.4052 6.50084 17.1171 5.84055C16.8289 5.18025 16.4127 4.58362 15.8926 4.08514C15.3724 3.58667 14.7586 3.19625 14.0867 2.93644C13.4147 2.67663 12.6979 2.55259 11.9777 2.57149Z" fill="white"/>
</svg>
