<svg width="24" height="24" viewBox="0 0 24 24" fill="none" xmlns="http://www.w3.org/2000/svg">
<path fill-rule="evenodd" clip-rule="evenodd" d="M11.75 1.25C11.5511 1.25 11.3603 1.32902 11.2197 1.46967C11.079 1.61032 11 1.80109 11 2V7.125H9.36251L7.58501 5.3475C7.78047 4.86645 7.80354 4.3326 7.6503 3.83648C7.49706 3.34036 7.17694 2.91251 6.74423 2.62549C6.31152 2.33848 5.79286 2.20995 5.2762 2.26172C4.75954 2.31348 4.27669 2.54236 3.90952 2.90952C3.54236 3.27668 3.31349 3.75953 3.26172 4.27619C3.20996 4.79285 3.33848 5.31151 3.6255 5.74422C3.91252 6.17693 4.34037 6.49705 4.83649 6.65029C5.3326 6.80353 5.86645 6.78047 6.34751 6.585L8.38151 8.6185C8.54551 8.78262 8.76799 8.87488 9.00001 8.875H11V11.125H5.07351C4.87157 10.6465 4.51033 10.2525 4.05107 10.01C3.5918 9.76743 3.06277 9.69119 2.5537 9.79421C2.04464 9.89723 1.58688 10.1732 1.25805 10.5752C0.92922 10.9772 0.749573 11.4806 0.749573 12C0.749573 12.5194 0.92922 13.0228 1.25805 13.4248C1.58688 13.8268 2.04464 14.1028 2.5537 14.2058C3.06277 14.3088 3.5918 14.2326 4.05107 13.99C4.51033 13.7475 4.87157 13.3535 5.07351 12.875H11V15.625H8.50001C8.26801 15.625 8.04501 15.717 7.88151 15.8815L5.84751 17.915C5.36645 17.7195 4.8326 17.6965 4.33649 17.8497C3.84037 18.003 3.41252 18.3231 3.1255 18.7558C2.83848 19.1885 2.70996 19.7071 2.76172 20.2238C2.81349 20.7405 3.04236 21.2233 3.40952 21.5905C3.77669 21.9576 4.25954 22.1865 4.7762 22.2383C5.29286 22.29 5.81152 22.1615 6.24423 21.8745C6.67694 21.5875 6.99706 21.1596 7.1503 20.6635C7.30354 20.1674 7.28047 19.6336 7.08501 19.1525L8.86251 17.375H11V22.4335C11 22.6324 11.079 22.8232 11.2197 22.9638C11.3603 23.1045 11.5511 23.1835 11.75 23.1835H16C16.1989 23.1835 16.3897 23.1045 16.5303 22.9638C16.671 22.8232 16.75 22.6324 16.75 22.4335V20.555L18.209 20.8015C18.5159 20.8533 18.8302 20.8409 19.1321 20.765C19.4339 20.6891 19.7167 20.5514 19.9627 20.3606C20.2086 20.1698 20.4122 19.9301 20.5607 19.6565C20.7093 19.383 20.7994 19.0816 20.8255 18.7715L21.0675 15.8935C21.6767 15.7153 22.2578 15.452 22.7935 15.1115C23.613 14.5815 23.6185 13.571 23.182 12.9245L21.2225 10.0245C20.8525 5.117 16.753 1.25 11.75 1.25Z" fill="white"/>
</svg>
