<svg width="37" height="36" viewBox="0 0 37 36" fill="none" xmlns="http://www.w3.org/2000/svg">
<g filter="url(#filter0_d_1_1787)">
<path d="M7.23166 12.5898C12.0469 19.782 19.6718 23.4177 28.6083 24.4794C28.2692 24.768 27.8703 25.1739 27.4045 25.6378C24.8453 28.1857 20.2654 32.4878 12.4759 28.7298C3.2669 24.287 7.61257 14.7792 7.23166 12.5898Z" fill="url(#paint0_linear_1_1787)"/>
<mask id="mask0_1_1787" style="mask-type:luminance" maskUnits="userSpaceOnUse" x="6" y="12" width="23" height="19">
<path d="M7.23166 12.5898C12.0469 19.782 19.6718 23.4177 28.6083 24.4794C28.2692 24.768 27.8703 25.1739 27.4045 25.6378C24.8453 28.1857 20.2654 32.4878 12.4759 28.7298C3.2669 24.287 7.61257 14.7792 7.23166 12.5898Z" fill="white"/>
</mask>
<g mask="url(#mask0_1_1787)">
<path fill-rule="evenodd" clip-rule="evenodd" d="M7.5383 11.499L11.0759 16.7932C10.0719 18.1108 9.23275 19.5952 8.55752 21.2464C7.8823 22.8976 7.77155 24.4209 8.22469 25.8155L4.46643 23.4017L7.5383 11.499Z" fill="url(#paint1_linear_1_1787)"/>
</g>
<mask id="mask1_1_1787" style="mask-type:luminance" maskUnits="userSpaceOnUse" x="6" y="12" width="23" height="19">
<path d="M7.23166 12.5898C12.0469 19.782 19.6718 23.4177 28.6083 24.4794C28.2692 24.768 27.8703 25.1739 27.4045 25.6378C24.8453 28.1857 20.2654 32.4878 12.4759 28.7298C3.2669 24.287 7.61257 14.7792 7.23166 12.5898Z" fill="white"/>
</mask>
<g mask="url(#mask1_1_1787)">
<g filter="url(#filter1_d_1_1787)">
<path d="M23.8521 22.5545L27.8121 24.5723C26.5391 26.4177 25.0371 27.8971 23.3062 29.0103C21.5752 30.1236 19.3844 30.6699 16.7344 30.65L15.2475 30.1418C17.4368 29.7609 19.2002 28.7474 20.5379 27.101C21.8756 25.4547 22.9803 23.9395 23.8521 22.5545Z" fill="black"/>
</g>
<path d="M23.8521 22.5545L27.8121 24.5723C26.5391 26.4177 25.0371 27.8971 23.3062 29.0103C21.5752 30.1236 19.3844 30.6699 16.7344 30.65L15.2475 30.1418C17.4368 29.7609 19.2002 28.7474 20.5379 27.101C21.8756 25.4547 22.9803 23.9395 23.8521 22.5545Z" fill="url(#paint2_radial_1_1787)"/>
</g>
<mask id="mask2_1_1787" style="mask-type:luminance" maskUnits="userSpaceOnUse" x="6" y="12" width="23" height="19">
<path d="M7.23166 12.5898C12.0469 19.782 19.6718 23.4177 28.6083 24.4794C28.2692 24.768 27.8703 25.1739 27.4045 25.6378C24.8453 28.1857 20.2654 32.4878 12.4759 28.7298C3.2669 24.287 7.61257 14.7792 7.23166 12.5898Z" fill="white"/>
</mask>
<g mask="url(#mask2_1_1787)">
<g filter="url(#filter2_d_1_1787)">
<path d="M19.4469 21.5567L25.1342 23.9556C24.0481 25.4214 22.6699 26.7978 20.9987 28.0836C19.3274 29.3695 17.1824 29.8563 14.5646 29.544L11.8822 28.4267C14.8404 27.9387 16.7298 27.1556 17.5502 26.0771C18.3705 24.9987 19.0031 23.4919 19.4469 21.5567Z" fill="black"/>
</g>
<path d="M19.4469 21.5567L25.1342 23.9556C24.0481 25.4214 22.6699 26.7978 20.9987 28.0836C19.3274 29.3695 17.1824 29.8563 14.5646 29.544L11.8822 28.4267C14.8404 27.9387 16.7298 27.1556 17.5502 26.0771C18.3705 24.9987 19.0031 23.4919 19.4469 21.5567Z" fill="url(#paint3_radial_1_1787)"/>
</g>
<mask id="mask3_1_1787" style="mask-type:luminance" maskUnits="userSpaceOnUse" x="6" y="12" width="23" height="19">
<path d="M7.23166 12.5898C12.0469 19.782 19.6718 23.4177 28.6083 24.4794C28.2692 24.768 27.8703 25.1739 27.4045 25.6378C24.8453 28.1857 20.2654 32.4878 12.4759 28.7298C3.2669 24.287 7.61257 14.7792 7.23166 12.5898Z" fill="white"/>
</mask>
<g mask="url(#mask3_1_1787)">
<g filter="url(#filter3_d_1_1787)">
<path d="M19.8965 20.04L15.6338 18.6163L10.5895 28.5164L12.6666 29.8241C14.7268 29.0447 16.3259 27.8642 17.4639 26.2827C18.6023 24.7014 19.4132 22.6205 19.8965 20.04Z" fill="black"/>
</g>
<path d="M19.8965 20.04L15.6338 18.6163L10.5895 28.5164L12.6666 29.8241C14.7268 29.0447 16.3259 27.8642 17.4639 26.2827C18.6023 24.7014 19.4132 22.6205 19.8965 20.04Z" fill="url(#paint4_radial_1_1787)"/>
</g>
<mask id="mask4_1_1787" style="mask-type:luminance" maskUnits="userSpaceOnUse" x="6" y="12" width="23" height="19">
<path d="M7.23166 12.5898C12.0469 19.782 19.6718 23.4177 28.6083 24.4794C28.2692 24.768 27.8703 25.1739 27.4045 25.6378C24.8453 28.1857 20.2654 32.4878 12.4759 28.7298C3.2669 24.287 7.61257 14.7792 7.23166 12.5898Z" fill="white"/>
</mask>
<g mask="url(#mask4_1_1787)">
<g filter="url(#filter4_d_1_1787)">
<path d="M12.0766 15.8072L15.734 18.419L10.6896 28.319L8.41072 27.4073C7.75565 24.8319 7.77616 22.6809 8.47164 20.9538C9.16751 19.2268 10.3694 17.5112 12.0766 15.8072Z" fill="black"/>
</g>
<path d="M12.0766 15.8072L15.734 18.419L10.6896 28.319L8.41072 27.4073C7.75565 24.8319 7.77616 22.6809 8.47164 20.9538C9.16751 19.2268 10.3694 17.5112 12.0766 15.8072Z" fill="url(#paint5_radial_1_1787)"/>
</g>
<g opacity="0.491" filter="url(#filter5_f_1_1787)" style="mix-blend-mode:overlay">
<path fill-rule="evenodd" clip-rule="evenodd" d="M16.5353 21.2148L16.9362 21.4236C21.377 23.7107 25.7163 24.9595 28.6259 24.4582C28.4828 24.5863 28.329 24.7325 28.165 24.8928C28.0847 24.9037 27.6642 24.9419 27.5822 24.95C24.6312 25.2466 20.6828 23.8962 16.3335 21.6108C12.0805 19.376 8.65921 16.3039 7.22949 13.3956C7.22323 13.3824 7.22696 12.7868 7.30574 12.8035C7.31666 12.8055 7.37826 12.8863 7.3896 12.911C8.78667 15.8521 12.23 18.9523 16.5353 21.2148Z" fill="black"/>
</g>
<path d="M16.4345 21.4127C23.1382 24.9357 28.891 26.2368 31.5033 22.7134C34.1158 19.1896 30.8518 10.8209 23.472 7.14854C16.0924 3.47574 9.01004 4.69409 7.06333 8.51473C5.11662 12.3354 9.73058 17.8902 16.4345 21.4127Z" fill="url(#paint6_radial_1_1787)"/>
<path d="M16.4345 21.4127C23.1382 24.9357 28.891 26.2368 31.5033 22.7134C34.1158 19.1896 30.8518 10.8209 23.472 7.14854C16.0924 3.47574 9.01004 4.69409 7.06333 8.51473C5.11662 12.3354 9.73058 17.8902 16.4345 21.4127Z" fill="url(#paint7_radial_1_1787)" style="mix-blend-mode:overlay"/>
<path d="M16.4345 21.4127C23.1382 24.9357 28.891 26.2368 31.5033 22.7134C34.1158 19.1896 30.8518 10.8209 23.472 7.14854C16.0924 3.47574 9.01004 4.69409 7.06333 8.51473C5.11662 12.3354 9.73058 17.8902 16.4345 21.4127Z" fill="url(#paint8_radial_1_1787)"/>
<g filter="url(#filter6_d_1_1787)">
<path d="M28.1981 13.0477C29.0895 11.2981 27.1359 8.01715 24.074 6.45704C21.0121 4.89693 18.3207 5.02199 17.3118 7.00201C15.395 10.764 26.3822 16.6117 28.1981 13.0477Z" fill="black"/>
</g>
<path fill-rule="evenodd" clip-rule="evenodd" d="M24.0239 6.55601C25.5172 7.3169 26.7436 8.49198 27.4967 9.69527C28.2509 10.9006 28.5372 12.1379 28.0994 12.9972C27.9053 13.3782 27.5991 13.6442 27.2131 13.8126C26.7847 13.9993 26.259 14.0667 25.6763 14.0386C24.3595 13.9748 22.7563 13.4237 21.2991 12.6144C19.8759 11.8245 18.5918 10.7881 17.851 9.71229C17.5247 9.23873 17.3045 8.75843 17.2286 8.28777C17.1597 7.86208 17.2109 7.44526 17.4111 7.05242C17.8917 6.10914 18.7701 5.60597 19.8882 5.51627C21.0621 5.42103 22.4961 5.77757 24.0239 6.55601Z" fill="url(#paint9_radial_1_1787)" stroke="url(#paint10_linear_1_1787)" stroke-width="0.5"/>
</g>
<defs>
<filter id="filter0_d_1_1787" x="4.53439" y="3.93945" width="29.8604" height="29.2666" filterUnits="userSpaceOnUse" color-interpolation-filters="sRGB">
<feFlood flood-opacity="0" result="BackgroundImageFix"/>
<feColorMatrix in="SourceAlpha" type="matrix" values="0 0 0 0 0 0 0 0 0 0 0 0 0 0 0 0 0 0 127 0" result="hardAlpha"/>
<feOffset dy="1"/>
<feGaussianBlur stdDeviation="1"/>
<feColorMatrix type="matrix" values="0 0 0 0 0 0 0 0 0 0 0 0 0 0 0 0 0 0 0.25 0"/>
<feBlend mode="normal" in2="BackgroundImageFix" result="effect1_dropShadow_1_1787"/>
<feBlend mode="normal" in="SourceGraphic" in2="effect1_dropShadow_1_1787" result="shape"/>
</filter>
<filter id="filter1_d_1_1787" x="11.2473" y="20.5547" width="20.5645" height="16.0957" filterUnits="userSpaceOnUse" color-interpolation-filters="sRGB">
<feFlood flood-opacity="0" result="BackgroundImageFix"/>
<feColorMatrix in="SourceAlpha" type="matrix" values="0 0 0 0 0 0 0 0 0 0 0 0 0 0 0 0 0 0 127 0" result="hardAlpha"/>
<feOffset dy="2"/>
<feGaussianBlur stdDeviation="2"/>
<feColorMatrix type="matrix" values="0 0 0 0 0.780392 0 0 0 0 0.270588 0 0 0 0 0.00784314 0 0 0 1 0"/>
<feBlend mode="normal" in2="BackgroundImageFix" result="effect1_dropShadow_1_1787"/>
<feBlend mode="normal" in="SourceGraphic" in2="effect1_dropShadow_1_1787" result="shape"/>
</filter>
<filter id="filter2_d_1_1787" x="7.88205" y="19.5566" width="21.252" height="16.0791" filterUnits="userSpaceOnUse" color-interpolation-filters="sRGB">
<feFlood flood-opacity="0" result="BackgroundImageFix"/>
<feColorMatrix in="SourceAlpha" type="matrix" values="0 0 0 0 0 0 0 0 0 0 0 0 0 0 0 0 0 0 127 0" result="hardAlpha"/>
<feOffset dy="2"/>
<feGaussianBlur stdDeviation="2"/>
<feColorMatrix type="matrix" values="0 0 0 0 0.871207 0 0 0 0 0.296299 0 0 0 0 0 0 0 0 1 0"/>
<feBlend mode="normal" in2="BackgroundImageFix" result="effect1_dropShadow_1_1787"/>
<feBlend mode="normal" in="SourceGraphic" in2="effect1_dropShadow_1_1787" result="shape"/>
</filter>
<filter id="filter3_d_1_1787" x="2.58908" y="12.6162" width="25.3076" height="27.208" filterUnits="userSpaceOnUse" color-interpolation-filters="sRGB">
<feFlood flood-opacity="0" result="BackgroundImageFix"/>
<feColorMatrix in="SourceAlpha" type="matrix" values="0 0 0 0 0 0 0 0 0 0 0 0 0 0 0 0 0 0 127 0" result="hardAlpha"/>
<feOffset dy="2"/>
<feGaussianBlur stdDeviation="4"/>
<feColorMatrix type="matrix" values="0 0 0 0 0.780392 0 0 0 0 0.270588 0 0 0 0 0.00784314 0 0 0 1 0"/>
<feBlend mode="normal" in2="BackgroundImageFix" result="effect1_dropShadow_1_1787"/>
<feBlend mode="normal" in="SourceGraphic" in2="effect1_dropShadow_1_1787" result="shape"/>
</filter>
<filter id="filter4_d_1_1787" x="3.93381" y="13.8076" width="15.7998" height="20.5117" filterUnits="userSpaceOnUse" color-interpolation-filters="sRGB">
<feFlood flood-opacity="0" result="BackgroundImageFix"/>
<feColorMatrix in="SourceAlpha" type="matrix" values="0 0 0 0 0 0 0 0 0 0 0 0 0 0 0 0 0 0 127 0" result="hardAlpha"/>
<feOffset dy="2"/>
<feGaussianBlur stdDeviation="2"/>
<feColorMatrix type="matrix" values="0 0 0 0 0.8 0 0 0 0 0.301961 0 0 0 0 0.0313725 0 0 0 1 0"/>
<feBlend mode="normal" in2="BackgroundImageFix" result="effect1_dropShadow_1_1787"/>
<feBlend mode="normal" in="SourceGraphic" in2="effect1_dropShadow_1_1787" result="shape"/>
</filter>
<filter id="filter5_f_1_1787" x="6.22775" y="11.8027" width="23.3984" height="14.1875" filterUnits="userSpaceOnUse" color-interpolation-filters="sRGB">
<feFlood flood-opacity="0" result="BackgroundImageFix"/>
<feBlend mode="normal" in="SourceGraphic" in2="BackgroundImageFix" result="shape"/>
<feGaussianBlur stdDeviation="0.5" result="effect1_foregroundBlur_1_1787"/>
</filter>
<filter id="filter6_d_1_1787" x="15.0881" y="4.38965" width="15.3271" height="12.7666" filterUnits="userSpaceOnUse" color-interpolation-filters="sRGB">
<feFlood flood-opacity="0" result="BackgroundImageFix"/>
<feColorMatrix in="SourceAlpha" type="matrix" values="0 0 0 0 0 0 0 0 0 0 0 0 0 0 0 0 0 0 127 0" result="hardAlpha"/>
<feOffset dy="1"/>
<feGaussianBlur stdDeviation="1"/>
<feComposite in2="hardAlpha" operator="out"/>
<feColorMatrix type="matrix" values="0 0 0 0 0 0 0 0 0 0 0 0 0 0 0 0 0 0 0.25 0"/>
<feBlend mode="normal" in2="BackgroundImageFix" result="effect1_dropShadow_1_1787"/>
<feBlend mode="normal" in="SourceGraphic" in2="effect1_dropShadow_1_1787" result="shape"/>
</filter>
<linearGradient id="paint0_linear_1_1787" x1="79.7431" y1="629.31" x2="1158.05" y2="1837.37" gradientUnits="userSpaceOnUse">
<stop stop-color="#EA8D25"/>
<stop offset="0.41694" stop-color="#E57929"/>
<stop offset="1" stop-color="#DE5E30"/>
</linearGradient>
<linearGradient id="paint1_linear_1_1787" x1="166.756" y1="361.54" x2="110.661" y2="1193.64" gradientUnits="userSpaceOnUse">
<stop stop-color="#EF641D"/>
<stop offset="1" stop-color="#D66020"/>
</linearGradient>
<radialGradient id="paint2_radial_1_1787" cx="0" cy="0" r="1" gradientUnits="userSpaceOnUse" gradientTransform="translate(-365.345 420.5) rotate(117) scale(555.707 397.91)">
<stop stop-color="#F17733"/>
<stop offset="1" stop-color="#E35834"/>
</radialGradient>
<radialGradient id="paint3_radial_1_1787" cx="0" cy="0" r="1" gradientUnits="userSpaceOnUse" gradientTransform="translate(-441.416 589.279) rotate(117) scale(626.95 309.983)">
<stop stop-color="#F17733"/>
<stop offset="1" stop-color="#E35834"/>
</radialGradient>
<radialGradient id="paint4_radial_1_1787" cx="0" cy="0" r="1" gradientUnits="userSpaceOnUse" gradientTransform="translate(98.29 253.645) rotate(117) scale(335.864 833.23)">
<stop stop-color="#F17733"/>
<stop offset="1" stop-color="#E9471E"/>
</radialGradient>
<radialGradient id="paint5_radial_1_1787" cx="0" cy="0" r="1" gradientTransform="matrix(80.4593 451.118 -590.497 -196.442 -70.8165 41.1035)" gradientUnits="userSpaceOnUse">
<stop stop-color="#EC7027"/>
<stop offset="1" stop-color="#E84D0F"/>
</radialGradient>
<radialGradient id="paint6_radial_1_1787" cx="0" cy="0" r="1" gradientTransform="matrix(1605.37 2249.43 -565.833 768.806 -7.27998 246.535)" gradientUnits="userSpaceOnUse">
<stop stop-color="#FFE397"/>
<stop offset="1" stop-color="#F8A04F"/>
</radialGradient>
<radialGradient id="paint7_radial_1_1787" cx="0" cy="0" r="1" gradientUnits="userSpaceOnUse" gradientTransform="translate(-535.939 240.53) rotate(117) scale(2827.64 895.169)">
<stop stop-color="white" stop-opacity="0.24"/>
<stop offset="1" stop-opacity="0"/>
</radialGradient>
<radialGradient id="paint8_radial_1_1787" cx="0" cy="0" r="1" gradientTransform="matrix(-810.003 1126.82 -555.749 -732.798 -1495.15 1406.44)" gradientUnits="userSpaceOnUse">
<stop stop-color="white" stop-opacity="0.5"/>
<stop offset="1" stop-color="white" stop-opacity="0"/>
</radialGradient>
<radialGradient id="paint9_radial_1_1787" cx="0" cy="0" r="1" gradientTransform="matrix(364.84 811.079 -311.827 361.962 31.7081 256.163)" gradientUnits="userSpaceOnUse">
<stop stop-color="#FE774C"/>
<stop offset="1" stop-color="#C5501B"/>
</radialGradient>
<linearGradient id="paint10_linear_1_1787" x1="384.552" y1="480.451" x2="321.434" y2="650.727" gradientUnits="userSpaceOnUse">
<stop stop-color="#D55B28" stop-opacity="0"/>
<stop offset="0.19535" stop-color="#D0490F"/>
<stop offset="1" stop-color="#C03B01"/>
</linearGradient>
</defs>
</svg>
