<svg width="199" height="43" viewBox="0 0 199 43" fill="none" xmlns="http://www.w3.org/2000/svg">
<path fill-rule="evenodd" clip-rule="evenodd" d="M21.4062 0.741211C9.90125 0.741211 0.549805 10.1442 0.549805 21.7173C0.549805 33.2665 9.90125 42.6706 21.4062 42.6706C32.8852 42.6706 42.2344 33.2665 42.2344 21.7173C42.2344 10.1442 32.8852 0.741211 21.4062 0.741211ZM21.4062 41.6219C10.4802 41.6219 1.59181 32.6887 1.59181 21.7173C1.59181 10.7231 10.4768 1.7899 21.4062 1.7899C32.3136 1.7899 41.1924 10.7277 41.1924 21.7173C41.1924 32.6865 32.3102 41.6219 21.4062 41.6219ZM82.6351 18.0116C82.6351 19.3447 81.4042 19.7826 80.7303 19.7826H78.9482V23.66H80.6353C82.0572 23.66 82.7057 24.339 82.7057 25.3581C82.7057 26.0827 82.1777 27.0802 80.8275 27.0802C80.032 27.0802 79.2377 27.0335 78.0566 26.5206L77.9837 30.2831C78.3698 30.4947 78.7362 30.663 79.1037 30.7949C79.9523 31.0986 80.8094 31.2101 81.9357 31.226C84.9729 31.226 87.334 29.3356 87.334 25.9155C87.334 23.1493 85.6944 21.9652 84.4669 21.5728V21.4045C85.7418 20.8688 87.0456 19.4902 87.0456 17.2097C87.0456 14.8587 85.5276 12.4577 82.1025 12.4577C81.3929 12.4497 80.6851 12.4986 79.9851 12.6021C79.474 12.6783 78.9669 12.783 78.4665 12.9172L78.514 16.848C79.4067 16.4113 80.3215 16.3374 80.8021 16.3374C81.2143 16.3374 82.6351 16.4363 82.6351 18.0116ZM121.719 31.0816C126.658 31.0816 128.319 26.4227 128.319 21.7924C128.319 17.1631 126.658 12.5054 121.719 12.5054C116.779 12.5054 115.119 17.1631 115.119 21.7924C115.119 26.4227 116.779 31.0804 121.719 31.0816ZM121.719 26.69C120.246 26.69 119.503 24.9703 119.503 21.7924C119.503 18.6144 120.246 16.8935 121.719 16.8935C123.191 16.8935 123.934 18.6144 123.934 21.7924C123.934 24.9703 123.191 26.69 121.719 26.69ZM133.865 12.7727H130.322V30.8621H134.49V19.8281L136.993 22.9798L139.499 19.8281V30.8621H143.671V12.7716H140.153L136.993 17.0403L133.865 12.7727ZM146.489 30.8621H151.452C152.536 30.8621 157.044 30.4003 157.066 24.918C157.066 20.3171 153.574 19.5141 151.308 19.5141H150.561V17.1142H156.079V12.7727H146.489V30.8621ZM150.561 27.2246V23.1265H151.164C151.419 23.1265 151.88 23.1334 152.272 23.3813C152.654 23.6236 152.972 24.0956 152.972 25.0169C152.972 26.9118 151.668 27.2246 151.164 27.2246H150.561ZM172.056 12.7727H176.128V19.2957H179.044V12.7727H183.113V30.8632H179.044V23.6122H176.128V30.8632H172.056V12.7727ZM185.86 12.7727H189.958L189.934 19.2719H190.824L193.162 12.7727H197.595L194.414 21.359L198.054 30.8632H193.257L190.898 23.5872H189.934L189.958 30.8621H185.86V12.7727ZM162.104 30.8859H157.863L161.452 12.7977H166.706L170.272 30.8859H166.032L165.525 27.7581H162.611L162.104 30.8859ZM164.85 23.7805L164.079 18.2755L163.283 23.7805H164.85ZM107.212 30.8621H103.043V12.7716H108.612C112.537 12.7716 114.008 16.4568 114.008 18.7839C114.008 21.1634 112.729 24.8986 108.612 24.8986H107.212V30.8621ZM108.201 16.7491H107.212L107.213 20.9188H108.201C108.731 20.9188 109.744 20.7744 109.744 18.834C109.744 17.3314 109.141 16.7491 108.201 16.7491ZM89.2845 12.7727H100.657V30.8609H96.4881V17.1369H93.4542V30.8621H89.2845V12.7727ZM64.3483 30.8621H68.5632L69.0947 27.7319H72.0104L72.5153 30.8621H76.7296L73.1632 12.7716H67.9125L64.3483 30.8621ZM70.5387 18.2277L71.3353 23.7567H69.7432L70.5387 18.2277ZM64.826 12.7727H56.2763V30.8609H60.5144V17.2803H64.826V12.7727ZM27.3202 8.53701C24.0217 7.05724 17.8754 6.91051 12.8407 9.16599C13.4892 8.69966 14.1835 8.30384 14.9134 7.98195C16.4987 7.23922 19.0554 6.51924 22.2419 6.51924C22.3923 6.51924 22.5427 6.52038 22.6936 6.52379C25.4182 6.5727 28.6483 7.51903 30.6226 9.48333C30.8205 9.7256 30.9692 9.96786 31.0726 10.1908C31.145 10.3466 31.1953 10.4922 31.2247 10.623C32.7914 11.4237 33.7062 12.1744 34.2111 13.048C34.4299 13.5075 34.5017 13.9909 34.4033 14.5493C34.9172 14.8394 35.3628 15.2375 35.7093 15.7175C35.8201 15.9063 35.9185 16.1065 35.9949 16.3078C36.0661 16.4943 36.1175 16.6808 36.1413 16.8583C36.212 17.3394 36.2594 17.8967 35.7534 18.553C36.2838 18.8203 36.7157 19.5687 36.7677 19.8872C37.0329 21.0712 36.2594 22.2359 35.2729 23.1356C34.1149 24.1525 31.5605 25.365 29.4878 25.8995C25.3962 26.9414 21.7545 27.3793 18.8654 27.9139C20.1658 28.2278 21.9236 28.6418 24.7929 28.6418C30.9341 28.6418 36.3567 25.7289 36.3567 25.7289C36.3567 25.7289 36.2374 26.0952 36.1147 26.4353C32.2124 28.8102 26.0215 29.8031 23.3687 29.6814C20.6939 29.5586 18.4301 29.148 16.2126 28.4678C15.5353 28.66 14.8682 28.8864 14.214 29.148C17.5893 30.6994 20.1415 31.0406 23.0097 31.2567C25.9468 31.4774 30.8171 30.7711 34.9093 29.272C34.7171 29.4676 34.621 29.7565 34.4299 29.926C33.0334 30.6687 30.6022 31.4114 28.4719 31.8527C27.4027 32.0745 26.4093 32.2213 25.6602 32.2531C23.4416 32.3509 20.7436 32.2531 18.3814 31.8152C16.3574 31.4057 14.6923 30.7711 12.9588 29.9988C12.6485 30.2376 12.5037 30.5322 12.4285 30.8723C19.2035 34.4358 25.5126 34.5063 32.7207 32.2531L32.0677 32.8844C24.1399 36.1339 17.9472 34.8714 13.15 32.5431L12.9475 32.4556C12.8407 32.4089 12.735 32.3589 12.6485 32.3009C13.107 33.0777 16.7661 35.7688 20.8629 36.1089C23.6847 36.3512 27.1291 35.8655 29.1763 35.0432L27.9721 35.6721C26.9832 36.1578 24.3576 37.2759 20.6927 37.0314C15.8027 36.6901 13.055 34.5074 11.8253 33.37C11.2474 32.8332 10.9845 32.2292 10.8143 31.4774C10.0126 31.0565 9.4252 30.6221 8.94406 30.0659C8.75974 29.852 8.59069 29.6211 8.43126 29.3664C8.09316 28.8579 8.1627 28.2528 8.2345 27.7399L8.38489 27.3088C7.85117 26.9164 7.29766 26.5046 7.08112 26.0952C6.59602 25.2216 6.89002 24.4687 7.22586 23.8863C6.93525 23.5474 6.66895 23.2084 6.55362 22.8695C6.40718 22.4816 6.38457 22.0892 6.4281 21.6547C6.52648 20.9291 6.91207 20.2523 7.41809 19.6677C8.47649 18.4302 10.167 17.4611 13.0307 16.5159C15.8525 15.5673 16.9861 15.4217 19.1063 14.9349C20.0488 14.7154 21.0614 14.5516 22.0904 14.3844C23.7701 14.1126 25.494 13.8328 27.0318 13.2914C20.116 12.08 12.9368 13.1936 7.08112 17.2393L7.46558 16.1008C12.718 12.659 18.5262 10.623 28.3565 12.345C28.8868 12.0288 29.1995 11.7126 29.3465 11.0837C26.8871 10.1874 24.2139 9.87232 20.7691 9.91896C17.6832 10.0179 12.1147 11.1769 9.13177 12.9536L10.0432 11.8116C12.1147 10.5707 17.5362 8.94875 21.6121 8.87595C24.4769 8.8043 25.9468 8.97263 29.3697 9.89507C29.0751 9.35594 28.4498 9.06476 27.5282 8.63369L27.3202 8.53701ZM32.5726 13.5825C32.4787 12.9035 31.7075 12.2484 31.0313 11.8116C30.9352 12.1517 30.5773 12.5634 30.3342 12.8307C31.0811 13.0264 31.8523 13.313 32.5726 13.5825ZM29.2747 13.7987C28.7896 14.1876 28.2383 14.5255 27.4163 14.8439C28.1456 14.9725 28.7766 15.1442 29.3833 15.3262C29.9017 15.4809 30.4026 15.6424 30.9341 15.788C30.946 15.7937 30.9595 15.7959 30.9725 15.7948C31.2236 15.7948 32.049 15.0271 32.1915 14.8166C31.3672 14.4527 30.3551 14.0876 29.2747 13.7987ZM34.4299 17.3633C34.7414 16.7571 34.5492 16.3692 33.9007 15.8107C33.6344 16.1292 33.3449 16.3931 33.0322 16.6354C33.5371 16.8776 33.9979 17.0494 34.4299 17.3633ZM23.5886 16.0803C20.4078 16.4682 16.8877 17.1438 13.877 18.0423L13.7165 18.0912C12.2222 18.5485 6.57171 20.2728 8.28765 22.65C8.30518 22.65 9.37658 21.1634 13.4174 19.9816C16.0583 19.2013 18.7659 18.7054 21.5159 18.2016C23.9861 17.7489 26.4907 17.2894 29.0107 16.6126C26.9374 16.0575 25.7767 15.8107 23.5886 16.0803ZM27.0335 19.0137C25.3232 19.4493 21.1767 20.0555 16.7209 21.0246C15.3222 21.3397 11.4894 22.2359 9.61008 23.8374C9.85433 24.0399 10.0579 24.1695 10.2625 24.2833C10.5017 24.4164 10.7431 24.5278 11.0541 24.7109C11.8253 24.2003 12.887 23.7157 14.456 23.3017C17.1738 22.576 19.2267 22.2632 21.6839 21.8538C24.1178 21.483 28.7189 20.5139 31.2479 19.5926C31.8427 19.3902 32.3996 19.1376 32.8694 18.8442C33.0684 18.7202 33.2522 18.5894 33.4167 18.4518C33.2477 18.2607 31.6092 17.4611 31.5605 17.535C30.5519 18.0184 29.1056 18.5018 27.0335 19.0137ZM21.1026 23.8897C19.2595 24.1968 17.4836 24.4926 15.6094 24.9555C14.7664 25.1705 13.8991 25.4389 13.107 25.7767C13.8991 26.1896 14.7675 26.5547 15.6337 26.8948C17.3683 26.3852 18.1915 26.1668 20.6927 25.7551C21.6573 25.5822 24.5973 25.0499 26.7169 24.6177C30.5519 23.7896 36.1656 21.9948 34.6719 19.6677C34.5972 19.7314 34.5226 19.7894 34.448 19.8474C34.3535 19.9225 34.2597 19.9975 34.1658 20.0806C33.0322 20.9484 31.2247 21.6547 28.7444 22.311C25.8666 23.0947 23.4309 23.5007 21.1026 23.8897ZM9.52471 25.895C9.59708 25.8393 9.66775 25.7835 9.73164 25.7289C9.42124 25.5674 9.1883 25.4264 8.95141 25.2762L8.59804 25.0488C8.51324 25.2433 8.54094 25.4446 8.63084 25.6277C8.74561 25.8609 8.96215 26.0656 9.177 26.1896C9.28103 26.0849 9.40485 25.9883 9.52471 25.895ZM13.6571 27.5966C12.9588 27.2815 12.2131 26.9687 11.4894 26.6286C11.1524 26.847 10.8409 27.0631 10.5989 27.2815C11.1768 27.6216 11.7325 27.9344 12.3115 28.254C12.7372 27.9901 13.1878 27.7694 13.6571 27.5966ZM10.8409 29.8532C10.9105 29.6086 11.0332 29.4164 11.2022 29.1741C10.79 28.9523 10.3813 28.7362 9.97249 28.4678C9.94592 28.9307 10.2377 29.3425 10.8409 29.8532Z" fill="#989898"/>
</svg>
