<svg width="176" height="21" viewBox="0 0 176 21" fill="none" xmlns="http://www.w3.org/2000/svg">
<path fill-rule="evenodd" clip-rule="evenodd" d="M0.592773 10.7146V20.4758H2.51191H4.43105V12.4292V4.38239H14.1249H23.8188L23.7926 2.6921L23.7664 1.00181L12.1796 0.977621L0.592773 0.953433V10.7146ZM25.6376 10.715V20.4758H27.6047H29.5718V16.4822V12.4886L36.8885 12.4542C44.0765 12.4205 44.2188 12.4162 44.9729 12.2103C46.1677 11.8841 47.058 11.4032 47.8516 10.655C49.0085 9.56449 49.5376 8.32777 49.5445 6.69823C49.5512 5.15164 49.0593 3.9811 47.9444 2.8897C46.8888 1.85648 45.5525 1.26749 43.776 1.05256C43.2717 0.991619 39.6717 0.954195 34.3002 0.954195H25.6376V10.715ZM53.8002 1.07323C53.7768 1.13875 52.292 5.53112 50.5009 10.834L47.2443 20.4758H49.3399H51.4356L51.5693 20.0235C51.6428 19.7747 52.1965 17.975 52.7999 16.024L53.8969 12.4769H62.1252L70.3535 12.4767V16.4763V20.4758H72.2727H74.1918V10.715V0.954195H64.0174C55.9645 0.954195 53.834 0.979049 53.8002 1.07323ZM76.2705 1.01771C76.2357 1.05256 76.2068 5.44494 76.2068 10.7786V20.4758H78.1742H80.1409V16.4763V12.4767H88.1054H96.0698V16.4763V20.4758H97.9898H99.9091L99.8846 10.7389L99.8602 1.00181L97.9654 0.976002L96.0698 0.950195V4.99937V9.04857H88.1054H80.1409V5.00137V0.954195H78.2379C77.1913 0.954195 76.3061 0.982763 76.2705 1.01771ZM102.084 1.01733C102.048 1.05237 102.019 5.44494 102.019 10.7786V20.4758H113.342H124.665V18.8094V17.1429H115.309H105.953V14.8103V12.4777L115.285 12.4534L124.617 12.4292L124.643 10.7389L124.67 9.04857H115.311H105.953V7.15732C105.953 6.11705 105.981 5.06717 106.014 4.82425L106.076 4.38239H115.373H124.67L124.643 2.6921L124.617 1.00181L113.382 0.977621C107.204 0.964289 102.119 0.982192 102.084 1.01733ZM130.871 1.01724C130.836 1.05237 130.805 3.89159 130.805 7.32654C130.803 12.3235 130.776 13.6981 130.668 14.2033C130.274 16.0486 129.166 16.9303 127.025 17.1027L126.2 17.1691V18.8367V20.5044L127.232 20.4477C130.797 20.2515 133.303 18.3593 134.325 15.092L134.592 14.2384L134.623 9.31042L134.654 4.38239H140.455H146.256V12.4292V20.4758H148.175H150.095L150.071 10.7389L150.046 1.00181L140.491 0.977526C135.235 0.964194 130.906 0.982097 130.871 1.01724ZM152.109 10.713V20.4758H160.833C170.339 20.4758 170.272 20.4793 171.699 19.9292C173.93 19.0698 175.259 17.3302 175.395 15.0955C175.496 13.4195 174.986 12.1135 173.756 10.9014C172.911 10.0677 172.276 9.70168 171.013 9.31997C170.295 9.10323 170.271 9.10234 163.169 9.07153L156.045 9.04057L156.02 5.02117L155.995 1.00181L154.052 0.976002L152.109 0.950291V10.713ZM44.2 4.5996C44.8298 4.88167 45.2215 5.23934 45.4621 5.75205C45.9465 6.78451 45.636 7.902 44.6866 8.54212C43.9497 9.03908 43.7954 9.04857 36.4125 9.04857H29.5718V6.71204V4.37544L36.6966 4.40277C43.2885 4.428 43.8497 4.44267 44.2 4.5996ZM70.3535 6.71547V9.04857H62.6705C55.3993 9.04857 54.99 9.0396 55.0348 8.8819C55.0608 8.7902 55.3495 7.77249 55.6763 6.62024C56.0031 5.46799 56.2895 4.49314 56.3128 4.45381C56.3361 4.41448 59.5047 4.38239 63.3543 4.38239H70.3535V6.71547ZM170.149 12.7246C171.705 13.4466 172.024 15.4254 170.751 16.4698C170.041 17.0526 170.111 17.0477 162.742 17.0477H156.043V14.7598V12.4719L162.88 12.498C169.599 12.5239 169.725 12.5278 170.149 12.7246Z" fill="#989898"/>
</svg>
