<svg width="115" height="57" viewBox="0 0 115 57" fill="none" xmlns="http://www.w3.org/2000/svg">
<path d="M96.6944 34.4443C96.6944 36.054 96.6944 37.6551 96.6944 39.2648C96.6944 39.5448 96.6856 39.7811 97.0793 39.7723C98.173 39.7374 99.284 39.8073 100.378 39.7023C101.996 39.5448 103.308 38.81 103.991 37.2264C104.603 35.8091 104.638 34.3131 104.341 32.8082C103.921 30.7085 102.495 29.4049 100.395 29.2387C99.3365 29.1512 98.2691 29.195 97.2018 29.1425C96.7731 29.1249 96.6856 29.2825 96.6856 29.6849C96.7031 31.2772 96.6856 32.8608 96.6856 34.4531M93.1161 26.0279C93.1161 26.0279 93.1774 25.9928 93.1861 25.9928C96.1694 26.0191 99.1791 25.6429 102.127 26.2553C105.128 26.8765 107.263 28.915 107.919 32.1258C108.357 34.2693 108.252 36.3515 107.42 38.3812C106.581 40.4285 105.076 41.7845 103.02 42.4145C101.917 42.7556 100.736 42.9132 99.5815 42.9656C97.5605 43.0531 95.5221 42.9919 93.4923 42.9919C93.3785 42.9919 93.2561 42.9744 93.0986 42.9656V26.0191L93.1161 26.0279Z" fill="#989898"/>
<path d="M61.6223 33.9641C62.7858 33.9641 63.8795 33.9641 64.9731 33.9641C65.2617 33.9641 65.5592 33.9641 65.8392 33.9116C67.2653 33.6317 67.9914 32.7655 67.9302 31.4357C67.8777 30.1671 67.0727 29.3272 65.638 29.2223C64.4218 29.126 63.197 29.1785 61.981 29.1522C61.7097 29.1522 61.6135 29.2573 61.6223 29.5197C61.6223 30.1846 61.6223 30.8496 61.6223 31.5145V33.9729V33.9641ZM72.9432 42.9929C71.5259 42.9929 70.2398 42.9929 68.9625 42.9841C68.84 42.9841 68.6913 42.8529 68.6038 42.7392C67.2477 40.9632 65.9004 39.1697 64.5269 37.4024C64.3781 37.2099 64.0631 37.0612 63.8094 37.0349C63.2495 36.9825 61.6397 37.0087 61.6397 37.0087C61.6397 37.0087 61.6223 37.1487 61.6223 37.5249C61.6397 39.1172 61.6223 40.7007 61.6223 42.293V42.9492H58.0527V25.9939C58.1927 25.9764 58.3152 25.9502 58.4289 25.9502C60.8873 25.9502 63.3458 25.9414 65.8042 25.9764C67.0378 25.9939 68.2101 26.3263 69.2862 26.9738C70.7473 27.8487 71.4472 29.196 71.5609 30.8496C71.6134 31.5844 71.5609 32.3544 71.3947 33.0805C71.0447 34.664 70.0123 35.6876 68.5688 36.3176C68.3851 36.3963 68.2014 36.4838 67.9564 36.5975C69.6012 38.7147 71.2285 40.8057 72.9257 42.9929" fill="#989898"/>
<path d="M82.6872 29.6602C81.7948 32.0223 80.9112 34.367 80.0101 36.7555H85.3994C84.4895 34.367 83.5971 32.0223 82.696 29.6602M91.4623 42.9847C90.2637 42.9847 89.1264 42.9934 87.9978 42.9759C87.8753 42.9759 87.7003 42.7747 87.6391 42.6259C87.3154 41.8386 87.0092 41.0424 86.7292 40.2375C86.6242 39.9313 86.4755 39.8088 86.1343 39.8088C83.8596 39.8263 81.5936 39.8263 79.319 39.8088C78.969 39.8088 78.8027 39.9225 78.689 40.2637C78.4003 41.0774 78.0591 41.8823 77.7267 42.6871C77.6742 42.8097 77.508 42.9759 77.3942 42.9847C76.2568 43.0109 75.1283 42.9934 73.9209 42.9934C74.3058 42.0135 74.6645 41.0949 75.032 40.1762C76.878 35.5832 78.7415 30.99 80.5875 26.3881C80.7188 26.0644 80.8762 25.9419 81.2262 25.9506C82.241 25.9682 83.2559 25.9594 84.2708 25.9506C84.5332 25.9506 84.6994 25.9944 84.822 26.2831C87.0004 31.7424 89.1963 37.1929 91.3836 42.6434C91.4098 42.7222 91.4273 42.8009 91.4799 42.9759" fill="#989898"/>
<path d="M26.8302 43.0019H23.252V26.0029C24.3543 26.0029 25.4305 26.0029 26.5066 26.0117C26.6203 26.0117 26.7515 26.1779 26.839 26.3004C29.0699 29.4674 31.2922 32.6346 33.5231 35.8017C33.7943 36.1778 34.0656 36.5541 34.3981 37.0177V26.0205H37.9413V43.0194C36.8565 43.0194 35.7803 43.0282 34.7043 43.0019C34.5817 43.0019 34.433 42.8095 34.3368 42.6782C31.9483 39.2837 29.5599 35.8891 27.1802 32.4946C27.1015 32.3721 26.9965 32.2671 26.8302 32.0746V43.0019Z" fill="#989898"/>
<path d="M18.4202 26.0195H14.877V42.9749H18.4202V26.0195Z" fill="#989898"/>
<path d="M54.3772 33.6838C54.3772 33.5613 54.3508 33.3513 54.1234 33.3513C54.0271 33.3513 53.9396 33.3513 53.8521 33.3513H53.406C52.6099 33.3338 51.805 33.3426 50.9651 33.3426H48.0692V36.6409H50.9563C50.9563 37.4982 50.9563 38.3469 50.9738 39.1343C50.9563 40.0529 50.6239 40.0529 50.0552 40.1667C49.6352 40.2454 49.154 40.2454 48.4629 40.1929C47.0019 40.0704 45.6632 39.598 44.6659 38.4256C43.791 37.4021 43.5286 36.1509 43.4411 34.8299C43.2836 32.3014 44.6571 30.1842 47.0281 29.4318C49.294 28.7145 51.4638 29.0469 53.5547 30.1142C53.6685 30.1754 53.7822 30.2192 53.9747 30.3067C53.9747 29.3006 53.9572 28.3732 53.9834 27.4458C54.0009 27.0609 53.8784 26.8597 53.5197 26.7285C51.2188 25.8535 48.874 25.5561 46.4594 26.0985C44.6747 26.501 43.0824 27.2796 41.8576 28.6882C39.8191 31.0329 39.4516 33.8324 40.0115 36.7633C40.6502 40.1054 42.7674 42.1351 45.9694 43.01C48.7166 43.7624 52.0674 43.4474 54.0184 42.3976C54.1671 42.3364 54.3508 42.1177 54.3508 41.9689C54.3684 39.388 54.3684 36.2822 54.3508 33.7012" fill="#989898"/>
<path d="M37.9368 1.18164L6.78223 17.8919V51.0676H37.9368V47.5242H10.3255V20.0091L34.3936 7.1046V21.4789H37.9368V1.18164Z" fill="#989898"/>
</svg>
