<svg width="31" height="40" viewBox="0 0 31 40" fill="none" xmlns="http://www.w3.org/2000/svg">
<path d="M10.6316 15.1779C12.3995 15.1779 14.0596 14.4594 15.3061 13.1547C16.3813 12.0295 17.6355 9.94922 17.5048 6.42914C17.4273 4.33965 16.553 2.7777 15.3083 1.71261C15.101 1.53511 14.1619 0.917858 14.0004 0.83416C13.192 0.414718 12.3101 0.148944 11.43 0.0319764C11.1741 -0.00205567 10.1899 -0.00996788 9.98473 0.0132921C7.34942 0.312431 4.6603 1.94406 3.94083 5.04613C3.85999 5.39484 3.7469 6.90369 3.7504 7.13095C3.79834 10.2292 4.9554 12.1064 5.95711 13.1548C7.20361 14.4594 8.8637 15.1779 10.6316 15.1779ZM13.9441 11.832C13.0574 12.7602 11.8809 13.2713 10.6316 13.2713C9.38223 13.2713 8.20579 12.7602 7.31897 11.832C6.41144 10.8822 5.86179 9.56724 5.69538 7.98099C6.50921 8.33608 7.38535 8.51997 8.26716 8.51997C9.01735 8.51997 9.77142 8.38775 10.4932 8.11711C12.4292 7.39119 13.8735 5.81695 14.6025 3.69295C15.1901 4.40753 15.5717 5.33878 15.6149 6.50045C15.6987 8.75667 15.121 10.6003 13.9441 11.832ZM10.6316 1.87419C11.4441 1.90717 12.2632 2.09687 12.9966 2.45102C12.5258 4.34795 11.3969 5.74421 9.8342 6.3301C8.46251 6.84439 6.92685 6.64668 5.71561 5.82829C6.13903 3.22203 8.4106 1.96427 10.6316 1.87419ZM18.8112 32.0325C18.9763 32.5319 18.7088 33.0718 18.2133 33.2382L18.2129 33.2383C18.1137 33.2717 18.0129 33.2875 17.9138 33.2875C17.5179 33.2875 17.149 33.0349 17.0169 32.6353C16.8517 32.1359 17.1195 31.5961 17.615 31.4295C18.1102 31.2631 18.646 31.5331 18.8112 32.0325ZM19.2542 27.9731C19.4481 28.462 19.2124 29.0404 18.7275 29.2311H18.7273C18.6121 29.2311 18.4933 29.2807 18.3764 29.2807C18.0011 29.2807 17.6461 29.0351 17.4982 28.6624C17.3043 28.1735 17.5401 27.6187 18.025 27.4232C18.5098 27.2276 19.0601 27.4842 19.2542 27.9731ZM21.8838 34.7688C21.9971 35.2828 21.6759 35.8086 21.1661 35.9039H21.1658C21.0967 35.9039 21.0277 35.929 20.9597 35.929C20.5263 35.929 20.1355 35.6288 20.0376 35.1845C19.9244 34.6705 20.2458 34.1614 20.7555 34.0472C21.2653 33.9331 21.7705 34.2549 21.8838 34.7688ZM30.5841 18.8388C30.1514 18.544 29.5637 18.6584 29.2711 19.0945L25.375 24.9029C25.1156 24.8243 24.846 24.7823 24.5735 24.7823C23.981 24.7823 23.4407 24.9721 22.9869 25.3189C22.4415 24.3469 21.5028 23.6747 20.1368 23.2586C18.9731 22.904 17.8059 23.2517 16.7178 23.6802C14.7905 24.4393 13.3076 25.9865 12.5423 28.0368C11.7904 30.0514 11.8239 32.3157 12.6365 34.4126C13.9687 37.8505 17.0942 40.0001 20.2877 40C21.1493 40 22.016 39.8435 22.8536 39.5136C23.9413 39.085 25.033 38.5429 25.6506 37.4871C26.0277 36.8417 26.266 36.2402 26.379 35.6483C26.6741 34.103 26.0362 32.8905 25.2785 31.9888C25.8094 31.6762 26.2784 31.2543 26.6486 30.7423C27.6736 29.3238 27.8928 27.7793 27.2498 26.5053C27.1576 26.3224 27.0484 26.1516 26.9268 25.9929L30.8376 20.1625C31.1302 19.7263 31.0166 19.1338 30.5841 18.8388ZM24.522 35.2879C24.4515 35.657 24.283 36.0713 24.0214 36.519C23.6957 37.0759 22.9369 37.434 22.1655 37.738C19.1945 38.908 15.7102 37.1051 14.398 33.719C13.7556 32.0612 13.7251 30.2817 14.3124 28.7084C14.8862 27.171 15.985 26.0159 17.4061 25.4561C18.1778 25.1522 18.9763 24.8967 19.5899 25.0838C20.7802 25.4463 21.3801 25.983 21.5879 26.9488C21.6331 27.159 21.5338 28.1874 21.4908 28.3449C21.2942 29.0675 21.0336 29.7455 20.3768 30.3288C20.1572 30.5238 20.0395 30.8105 20.0582 31.105C20.0768 31.3994 20.2297 31.6686 20.4721 31.8338C21.0241 32.2101 21.6437 32.4557 22.293 32.5586C22.5244 32.5953 23.1622 32.611 23.2445 32.6065C24.5802 33.8598 24.6409 34.6652 24.522 35.2879ZM25.1203 29.6196C24.6279 30.3007 23.834 30.7072 22.9967 30.7072C22.8468 30.7072 22.6983 30.6944 22.5525 30.6691C23.069 29.8495 23.2797 29.005 23.4477 28.3314C23.515 28.0619 23.5785 27.8074 23.6514 27.5898C23.789 27.1788 24.0606 26.6889 24.5735 26.6889C24.9607 26.6889 25.3589 26.9626 25.5643 27.3698C25.8777 27.9907 25.7199 28.7897 25.1203 29.6196ZM4.11784 23.6628L2.09627 34.6648H9.64453C10.1668 34.6648 10.5901 35.0916 10.5901 35.6181C10.5901 36.1446 10.1668 36.5713 9.64453 36.5713H0.939306C0.418312 36.5713 -0.00169682 36.1402 5.15436e-06 35.6149C0.000383371 35.4995 0.18571 34.5956 0.18571 34.5956L2.25834 23.3156C2.76902 20.5351 4.76761 18.4381 7.74153 17.5624C9.35812 17.0864 11.1671 17.0242 12.8353 17.3872C14.6233 17.7763 16.1532 18.6129 17.2594 19.8068C17.616 20.1915 17.5956 20.7948 17.2141 21.1542C16.8325 21.5135 16.2341 21.4931 15.8776 21.1084C14.1821 19.2788 11.0544 18.5731 8.27179 19.3925C6.00798 20.0591 4.49388 21.6155 4.11784 23.6628Z" fill="#C4C4C4"/>
</svg>
