<svg width="181" height="111" fill="none" xmlns="http://www.w3.org/2000/svg"><g clip-path="url(#a)" fill="#fff"><path d="M51.2 99c-1.2-.1-2.5-.4-3.6-.9-.9-.5-1.8-1.1-2.5-1.8s-1.4-1.6-1.8-2.6c-.7-1.4-1-2.9-.9-4.5.1-2.6 1.3-5 3.3-6.7v3.9l.1 3.7c.2 2.5 1.9 4.5 4.3 5.2 1.6.4 3.2.2 4.6-.7 2.7-1.7 3.6-5.3 1.9-8-.2-.4-.5-.7-.8-1-1.1-1.1-2.5-1.7-4-1.8v1.6c1.1 0 2.1.5 2.9 1.3 1.7 1.6 1.7 4.3.1 6l-.1.1c-1.3 1.2-3.2 1.5-4.8.7-.4-.2-.8-.5-1.2-.9-.7-.8-1.2-1.8-1.2-2.9v-8.3c.3-.1.4-.2.7-.2v7.9c-.1 1.1.2 2.2.9 3 1.3 1.5 3.5 1.6 5 .3.3-.3.6-.7.8-1.1.5-1 .5-2.2 0-3.2l-.3-.6c-.1-.2-.2-.3-.3-.4-.6-.6-1.5-.9-2.4-1 0 1.6 0 1.6.3 1.6.2 0 .5 0 1 .5.8.8.8 2.1 0 2.9-.3.3-.8.5-1.2.6h-.5c-.8-.1-1.5-.7-1.7-1.5-.1-.4 0-8.6 0-9.5.6 0 1.3-.2 2-.2 1.9 0 3.8.6 5.3 1.7.3.2.7.5 1 .8.5.5 1 1 1.4 1.6 1.8 2.6 2.2 6 .8 9-.6 1.3-1.4 2.4-2.4 3.3-.2.2-.4.3-.6.5-1.5 1.1-3.2 1.7-5 1.7l-1.1-.1zM25.7 20.5 24 16.6c0-.1-.1-.1-.2-.1h-1.2c-.1 0-.2.1-.2.2v.1l2.6 5.5c-.2.6-.9 1-1.5 1-.1 0-.2.1-.2.2v1.1c0 .1.1.2.2.2 1.4 0 2.7-.9 3.1-2.3l2.4-5.7c0-.1 0-.2-.1-.3h-1.3c-.1 0-.2.1-.2.1l-1.7 3.9zm8.5-.4c-.5.2-1 .3-1.6.3-.7.1-1.2-.4-1.3-1.1v-2.7c0-.1-.1-.2-.2-.2h-1.2c-.1 0-.2.1-.2.2v2.8c0 .7.3 1.4.8 1.9.6.5 1.3.7 2.1.7.6 0 1.1-.1 1.6-.3v2.8c0 .1.1.2.2.2h1.2c.1 0 .2-.1.2-.2v-7.9c0-.1-.1-.2-.2-.2h-1.2c-.1 0-.2.1-.2.2v3.5zm10.2 4.4-2.8-7.9c0-.1-.1-.1-.2-.1h-1.7c-.1 0-.2.1-.2.1l-2.8 7.9c0 .1 0 .2.1.3H38.2c.1 0 .2-.1.2-.2l.4-1.3h3.3l.5 1.3c0 .1.1.1.2.2h1.3c.2 0 .3-.1.3-.3zm-3.9-6.2 1.1 3.4h-2.3l1.2-3.4zm8.3 6.6c1.4 0 2.7-.6 3.5-1.8.1-.1 0-.2-.1-.3l-1-.6c-.1 0-.2 0-.3.1-.5.7-1.2 1-2.1 1-.7 0-1.4-.2-2-.8-.5-.5-.8-1.2-.7-2 0-.7.2-1.4.7-2 .5-.5 1.2-.8 2-.8s1.6.3 2.1 1c.1.3.2.3.3.3l1-.6c.1-.1.1-.2.1-.3-.8-1.1-2.1-1.8-3.5-1.8-1.2 0-2.3.4-3.1 1.2-.8.8-1.3 1.9-1.2 3.1 0 1.2.4 2.3 1.2 3.1.9.8 2 1.3 3.1 1.2zm4-8.2v1.1c0 .1.1.2.2.2h2v6.5c0 .1.1.2.2.2h1.2c.1 0 .2-.1.2-.2V18h2c.1 0 .2-.1.2-.2v-1.1c0-.1-.1-.2-.2-.2H53c-.1 0-.2 0-.2.2zm11.7 3.1h-3.1v-3.1c0-.1-.1-.2-.2-.2H60c-.1 0-.2.1-.2.2v7.9c0 .1.1.2.2.2h1.2c.1 0 .2-.1.2-.2v-3.2h3.1v3.2c0 .1.1.2.2.2H66c.1 0 .2-.1.2-.2v-7.9c0-.1-.1-.2-.2-.2h-1.2c-.1 0-.2.1-.2.2v3.1h-.1zm9.7 4.8v-7.9c0-.1-.1-.2-.2-.2h-1c-.1 0-.1 0-.2.1l-3.5 5v-4.9c0-.1-.1-.2-.2-.2h-1.2c-.1 0-.2.1-.2.2v7.9c0 .1.1.2.2.2h.9c.1 0 .1 0 .2-.1l3.5-5v4.9c0 .1.1.2.2.2H74c.1 0 .2-.1.2-.2zm4.8-4.1 2.8-3.7c.1-.1.1-.2 0-.3 0 0-.1-.1-.2-.1h-1.4c-.1 0-.1 0-.2.1l-2.8 3.6v-3.5c0-.1-.1-.2-.2-.2h-1.2c-.1 0-.2.1-.2.2v7.9c0 .1.1.2.2.2H77c.1 0 .2-.1.2-.2v-3.7l2.9 3.8c0 .1.1.1.2.1h1.4c.1 0 .2-.1.2-.2v-.1L79 20.5zm7-3.8v7.9c0 .1.1.2.2.2h1.2c.1 0 .2-.1.2-.2V18h2.9v6.5c0 .1.1.2.2.2H92c.1 0 .2-.1.2-.2v-7.9c0-.1-.1-.2-.2-.2h-5.8c-.1.1-.2.1-.2.3zm7.8 0v7.9c0 .1.1.2.2.2h1.2c.1 0 .2-.1.2-.2V22h1.5c.8 0 1.5-.3 2-.8s.8-1.2.8-2c0-.7-.3-1.5-.8-2s-1.3-.8-2-.8H94c-.1.1-.2.2-.2.3zm1.6 3.8V18h1.5c.7 0 1.2.5 1.2 1.2v.1c0 .7-.5 1.2-1.2 1.3h-1.5v-.1zm12.3 3.2c.8-.8 1.3-1.9 1.3-3.1 0-1.2-.4-2.3-1.3-3.1-.8-.8-1.9-1.3-3.1-1.3-1.2 0-2.3.4-3.1 1.3-.8.8-1.3 1.9-1.2 3.1 0 1.2.4 2.3 1.2 3.1.8.8 1.9 1.3 3.1 1.2 1.2.1 2.3-.4 3.1-1.2zm-5-1.1c-.5-.5-.8-1.2-.8-2 0-.7.3-1.4.8-2 .5-.5 1.2-.8 1.9-.8s1.4.3 1.9.8.8 1.2.8 2c0 .7-.3 1.4-.8 2-.5.5-1.2.8-1.9.8s-1.4-.3-1.9-.8zm7.4-5.9v7.9c0 .1.1.2.2.2h1.2c.1 0 .2-.1.2-.2V18h2.9c.1 0 .2-.1.2-.2v-1.1c0-.1-.1-.2-.2-.2h-4.3c-.1 0-.2.1-.2.2zm5.7 0v7.9c0 .1.1.2.2.2h1.2c.1 0 .2-.1.2-.2V22h1.5c.8 0 1.5-.3 2-.8s.8-1.2.8-2c0-.7-.3-1.5-.8-2s-1.3-.8-2-.8H116c-.1.1-.2.2-.2.3zm1.6 3.8V18h1.5c.7 0 1.2.5 1.2 1.2v.1c0 .7-.5 1.2-1.2 1.3h-1.5v-.1zm11.5 4-2.8-7.9c0-.1-.1-.1-.2-.1h-1.7c-.1 0-.2.1-.2.1l-2.8 7.9c0 .1 0 .2.1.3H122.7c.1 0 .2-.1.2-.2l.4-1.3h3.3l.5 1.3c0 .1.1.1.2.2h1.3c.2 0 .3-.1.3-.3zm-3.8-6.2 1.1 3.4h-2.3l1.2-3.4zm11-1.7-2.3 3.8-2.3-3.8c0-.1-.1-.1-.2-.1h-1.4c-.1 0-.2.1-.2.2v7.9c0 .1.1.2.2.2h1.2c.1 0 .2-.1.2-.2v-5.2l2.3 3.7c0 .1.2.1.3.1l.1-.1 2.3-3.7v5.2c0 .1.1.2.2.2h1.2c.1 0 .2-.1.2-.2v-7.9c0-.1-.1-.2-.2-.2h-1.4c-.1 0-.1 0-.2.1zm9.7 0-2.3 3.8-2.3-3.8c0-.1-.1-.1-.2-.1h-1.4c-.1 0-.2.1-.2.2v7.9c0 .1.1.2.2.2h1.2c.1 0 .2-.1.2-.2v-5.2l2.3 3.7c0 .1.2.1.3.1l.1-.1 2.3-3.7v5.2c0 .1.1.2.2.2h1.2c.1 0 .2-.1.2-.2v-7.9c0-.1-.1-.2-.2-.2H146c-.1 0-.2 0-.2.1zm4.9 4.1h1.5c.7 0 1.2.5 1.2 1.2v.1c0 .7-.5 1.2-1.1 1.3h-1.6v-2.6zm0-1.5v-2.5c0-.1-.1-.2-.2-.2h-1.2c-.1 0-.2.1-.2.2v7.9c0 .1.1.2.2.2h2.9c.8 0 1.5-.3 2-.8s.8-1.2.8-2c0-.7-.3-1.5-.8-2s-1.3-.8-2-.8h-1.5zm5.3 5.6h1.2c.1 0 .2-.1.2-.2v-7.9c0-.1-.1-.2-.2-.2H156c-.1 0-.2.1-.2.2v7.9c0 .1.1.2.2.2zM63.6 35.4l2.8-3.7c.1-.1.1-.2 0-.3h-1.5c-.1 0-.1 0-.2.1L61.9 35v-3.5c0-.1-.1-.2-.2-.2h-1.2c-.1 0-.2.1-.2.2v7.9c0 .1.1.2.2.2h1.2c.1 0 .2-.1.2-.2v-3.7l2.9 3.8c0 .1.1.1.2.1h1.4c.1 0 .2-.1.2-.2v-.1l-3-3.9zm11.2 3.9L72 31.5c0-.1-.1-.1-.2-.1H70c-.1 0-.2.1-.2.1L67 39.4c0 .1 0 .2.1.3H68.5c.1 0 .2-.1.2-.2l.4-1.3h3.3l.5 1.3c0 .1.1.1.2.2h1.3c.3-.1.4-.2.4-.4 0 .1 0 .1 0 0zm-3.9-6.1 1.1 3.4h-2.3l1.2-3.4zm8.4 1.8c-.5.2-1 .3-1.6.3-.7.1-1.2-.4-1.3-1.1v-2.7c0-.1-.1-.2-.2-.2H75c-.1 0-.2.1-.2.2v2.8c0 .7.3 1.4.8 1.9.6.5 1.3.7 2.1.7.6 0 1.1-.1 1.6-.3v2.8c0 .1.1.2.2.2h1.2c.1 0 .2-.1.2-.2v-7.9c0-.1-.1-.2-.2-.2h-1.2c-.1 0-.2.1-.2.2V35zm4.8 1.2H87c.1 0 .2-.1.2-.2v-1.1c0-.1-.1-.2-.2-.2h-2.9v-1.8h3.2c.1 0 .2-.1.2-.2v-1.1c0-.1-.1-.2-.2-.2h-4.7c-.1 0-.2.1-.2.2v7.9c0 .1.1.2.2.2h4.7c.1 0 .2-.1.2-.2v-1.1c0-.1-.1-.2-.2-.2H84v-2h.1zm8.6 3.6c1.4 0 2.7-.6 3.5-1.8.1-.1 0-.2-.1-.3l-1-.6c-.1 0-.2 0-.3.1-.5.7-1.2 1-2.1 1-.7 0-1.4-.2-2-.8-.5-.5-.8-1.2-.7-2 0-.7.2-1.4.7-2 .5-.5 1.2-.8 2-.8s1.6.3 2.1 1c.1.1.2.1.3.1l1-.6c.1-.1.1-.2.1-.3-.8-1.1-2.1-1.8-3.5-1.8-2.3-.1-4.3 1.8-4.3 4.1v.2c-.1 2.3 1.8 4.3 4.1 4.3 0 .2.1.2.2.2zm3.9-8.3v1.1c0 .1.1.2.2.2h2v6.5c0 .1.1.2.2.2h1.2c.1 0 .2-.1.2-.2v-6.5h2c.1 0 .2-.1.2-.2v-1.1c0-.1-.1-.2-.2-.2h-5.7s-.1.1-.1.2zm12.1 3.8c.5-.4.8-1 .8-1.7 0-.6-.3-1.3-.7-1.7-.5-.4-1.1-.7-1.8-.7h-3.1c-.1 0-.2.1-.2.2v7.9c0 .1.1.2.2.2h3.3c.7 0 1.3-.2 1.8-.7.5-.4.8-1.1.7-1.7.1-.7-.3-1.4-1-1.8zm-1.8-2.5c.5 0 .9.4.9.9s-.4.9-.9.9h-1.6v-1.8h1.6zm-1.6 5.3v-2h1.9c.5 0 1 .4 1 1 0 .5-.4 1-1 1h-1.9zm12.5 1.2-2.8-7.9c0-.1-.1-.1-.2-.1h-1.7c-.1 0-.2.1-.2.1l-2.8 7.9c0 .1 0 .2.1.3H111.6c.1 0 .2-.1.2-.2l.4-1.3h3.3l.5 1.3c0 .1.1.1.2.2h1.3c.2 0 .3-.1.3-.3 0 .1 0 .1 0 0zm-3.8-6.1 1.1 3.4h-2.3l1.2-3.4zm-51.5 17c.5-.4.8-1 .8-1.7 0-.6-.3-1.3-.7-1.7-.5-.4-1.1-.7-1.8-.7h-3.1c-.1 0-.2.1-.2.2v7.9c0 .1.1.2.2.2H61c.7 0 1.3-.2 1.8-.7.5-.4.8-1.1.7-1.7.1-.7-.3-1.4-1-1.8zm-1.8-2.5c.5 0 .9.4.9.9v.1c0 .5-.4.9-.8.9h-1.6v-1.8l1.5-.1zM59.1 53v-2H61c.5 0 1 .4 1 .9v.1c0 .5-.4 1-.9 1h-2zm10.3-3.5h-3.1v-3.1c0-.1-.1-.2-.2-.2h-1.2c-.1 0-.2.1-.2.2v7.9c0 .1.1.2.2.2H66c.1 0 .2-.1.2-.2V51h3.1v3.2c0 .1.1.2.2.2h1.2c.1 0 .2-.1.2-.2v-7.9c0-.1-.1-.2-.2-.2h-1.2c-.1 0-.2.1-.2.2v3.2h.1zm4.8 1.6h2.9c.1 0 .2-.1.2-.2v-1.1c0-.1-.1-.2-.2-.2h-2.9v-1.8h3.2c.1 0 .2-.1.2-.2v-1.1c0-.1-.1-.2-.2-.2h-4.7c-.1 0-.2.1-.2.2v7.9c0 .1.1.2.2.2h4.7c.1 0 .2-.1.2-.2v-1.1c0-.1-.1-.2-.2-.2h-3.3v-2h.1zM85 46.2h-5.1c-.1 0-.2.1-.2.2v3.7c.1 1-.2 2-.7 2.8h-.6c-.1 0-.2.1-.2.2v2.7c0 .1.1.2.2.2h1.2c.1 0 .2-.1.2-.2v-1.4h4.6v1.4c0 .1.1.2.2.2h1.2c.1 0 .2-.1.2-.2v-2.7c0-.1-.1-.2-.2-.2h-.7v-6.5c.1-.1 0-.2-.1-.2zm-4.2 6.7c.4-.9.6-1.8.6-2.8v-2.4h2.2v5.2h-2.8zm6.4-6.5v7.9c0 .1.1.2.2.2h1.2c.1 0 .2-.1.2-.2v-2.5h1.5c.8 0 1.5-.3 2-.8 1.1-1.1 1.1-2.9 0-4-.5-.5-1.3-.8-2-.8h-2.9c-.1 0-.2.1-.2.2zm1.6 3.8v-2.5h1.5c.7 0 1.2.5 1.2 1.2v.1c0 .7-.5 1.2-1.2 1.3h-1.5v-.1zm7.1.9h2.9c.1 0 .2-.1.2-.2v-1.1c0-.1-.1-.2-.2-.2h-2.9v-1.8h3.2c.1 0 .2-.1.2-.2v-1.1c0-.1-.1-.2-.2-.2h-4.7c-.1 0-.2.1-.2.2v7.9c0 .1.1.2.2.2h4.7c.1 0 .2-.1.2-.2v-1.1c0-.1-.1-.2-.2-.2h-3.3l.1-2zm9.4-1.6h-3.1v-3.1c0-.1-.1-.2-.2-.2h-1.2c-.1 0-.2.1-.2.2v7.9c0 .1.1.2.2.2h1.2c.1 0 .2-.1.2-.2V51h3.1v3.2c0 .1.1.2.2.2h1.2c.1 0 .2-.1.2-.2v-7.9c0-.1-.1-.2-.2-.2h-1.2c-.1 0-.2.1-.2.2v3.2zm9.6 4.8v-7.9c0-.1-.1-.2-.2-.2h-.9c-.1 0-.1 0-.2.1l-3.5 5v-4.9c0-.1-.1-.2-.2-.2h-1.2c-.1 0-.2.1-.2.2v7.9c0 .1.1.2.2.2h.9c.1 0 .1 0 .2-.1l3.5-5v4.9c0 .1.1.2.2.2h1.2c.1 0 .2-.1.2-.2zm8 0v-7.9c0-.1-.1-.2-.2-.2h-.9c-.1 0-.1 0-.2.1l-3.5 5v-4.9c0-.1-.1-.2-.2-.2h-1.2c-.1 0-.2.1-.2.2v7.9c0 .1.1.2.2.2h.9c.1 0 .1 0 .2-.1l3.5-5v4.9c0 .1.1.2.2.2h1.2c.1 0 .2-.1.2-.2zm-1.5-9.1v-.9c0-.1-.1-.2-.2-.2h-3c-.1 0-.2.1-.2.2v.9c0 .1.1.2.2.2h3c.1 0 .2-.1.2-.2z"/><path d="M0 0v111h181V0H0zm179 2v67.3H2V2h177zM2 109V71.3h177V109H2zm79.2-18.2c-.1.6-.5 1.2-1.2 1.2h-.2c-.8 0-1.4-.7-1.4-1.4 0-.3.1-.6.3-.8.2-.3.6-.5.9-.5.1 0-.2-.1.3 0 .8 0 1.4.7 1.3 1.5zm6.1-1.1h-1.7v-1.3h3.8v-2.1h-6c-.2 0-.2.1-.2.2v8c0 .2.1.2.2.2h2.2c1.2.1 2.4-.1 3.5-.6.7-.5 1.1-1.4 1-2.3-.2-1.2-1.4-2.3-2.8-2.1zm-.8 3.4h-.9v-1.7h.7c.9 0 1.3.1 1.3 1 0 .6-.5.7-1.1.7zM65 86.3h3.5v8.5h-2.2v-6.5H65v-2zm9.2-.2c.9 0 1.7.2 2.4.7v2.5c-.5-.3-1.1-1.3-2.6-.9-2 .5-2.1 4 0 4.5 1 .2 1.9-.1 2.6-.8v2.5c-.3.2-.7.4-1 .5-.4.1-.8.2-1.2.2-1.4 0-2.8-.7-3.6-1.8-.5-.8-.8-1.8-.7-2.8-.2-2.6 1.7-4.6 4.1-4.6zm36.1.2H107v8.5h2.4V92c1.3 0 2.3.1 3.3-.7l.1-.1c1.1-1.2 1.1-3.1-.1-4.2-.7-.5-1.5-.7-2.4-.7zm.8 3c-.1.5-.6.9-1.1.8h-.7v-1.9h.2c.4 0 .8 0 1.2.2.3.2.5.6.4.9zm18.8 3.4c.6.7 1.1 1.4 1.6 2.2H128.8c-.2 0-.3-.1-.5-.3-.6-.8-1.7-2.6-2.2-3.3v3.6H124c-.2 0-.2-.1-.2-.2v-8.3h2.4v3.5l1.9-2.6c.7-1 .6-.9 1.3-.9h2.2l-.8 1c-.3.4-.5.7-.8 1l-1.6 2.1c.2.4.6.7.8 1.1.2.3.4.7.7 1.1zm7.3-.3c.2-.1.3-.3.5-.4v2.5c-.7.4-1.4.6-2.2.6-.4 0-.7 0-1.1-.1-.3-.1-.6-.2-.8-.3-1.6-.8-2.6-2.4-2.5-4.1-.1-1.7.9-3.3 2.5-4.1 1.3-.5 2.8-.4 4.1.3v2.5c-.2-.1-.1-.1-.2-.2-2.4-2.4-5.1.8-3.5 3 .3.4.6.6 1.1.7.8.2 1.5 0 2.1-.4zm-14.8-6.1v8.5c-2.7 0-2.3.2-2.3-1.1v-3.8l-.8 1.2c-.3.4-.5.7-.8 1.2-.2.4-1.5 2.2-1.6 2.5h-2c-.3 0-.5 0-.5-.3v-8c0-.2.1-.2.2-.2h2.1v4.9c.3-.2 2.1-3.2 2.5-3.8 1.1-1.4.4-1.1 3.2-1.1zm-23.4 0v8.5h-1.6c-.9 0-.7-.1-.7-1.1v-3.8l-2.4 3.8c-.2.2-.3.4-.4.6-.2.4-.2.6-.5.6h-2c-.2 0-.2-.1-.2-.2v-8c0-.2.1-.2.2-.2 2.5 0 2.2-.2 2.1 1v3.8c.2-.1 2.2-3.3 2.5-3.7.9-1.6.5-1.3 3-1.3zm7.1 2.1h-1.9v6.4h-2.4v-6.4H100v-2.1h5.9c.4 0 .2.9.2 2.1z"/></g><defs><clipPath id="a"><path fill="#fff" d="M0 0h181v111H0z"/></clipPath></defs></svg>