<svg width="181" height="52" fill="none" xmlns="http://www.w3.org/2000/svg"><g clip-path="url(#a)" fill="#fff"><path d="M-.3-.4v52h181.5v-52H-.3zm2.1 2h177.5V33H48.8L34.9 49.6H1.8v-48zm75.9 37.2H79l-2.8 2.8 2.9 3h-1.3l-2.7-2.8v2.8h-1v-5.9h1v2.6l2.6-2.5zm6.8 5.2c-.6.6-1.4.9-2.2.9-.8 0-1.6-.3-2.2-.9-.6-.6-.9-1.4-.9-2.2 0-.8.3-1.6.9-2.2.6-.6 1.4-.9 2.2-.9.8 0 1.6.3 2.2.9.6.6.9 1.4.9 2.2 0 .8-.3 1.6-.9 2.2zm5.1-.6h-.1l-1.9-3v4.3h-1v-5.9h1.1l1.8 3 1.9-3h1.1v5.9h-1v-4.3l-1.9 3zm5.5-3.6v4.9h-1v-5.9h5.1v5.9h-1v-4.9h-3.1zm8.4 4.1c.7.1 1.3-.3 1.7-.9l.9.5c-.6.9-1.5 1.4-2.6 1.3-.8 0-1.7-.3-2.3-.9-.6-.6-.9-1.4-.9-2.2 0-.8.3-1.6.9-2.2.6-.6 1.4-.9 2.2-.9.8 0 1.6.3 2.1.9.5.6.8 1.4.8 2.2v.5h-4.9c.2 1.1 1.1 1.8 2.1 1.7zm3.2-4.1v-1h5v1h-2v4.9h-1v-4.9h-2zm8.5 4.1c.7.1 1.3-.3 1.7-.9l.9.5c-.6.9-1.5 1.4-2.6 1.3-.8 0-1.7-.3-2.3-.9-.6-.6-.9-1.4-.9-2.2 0-.8.3-1.6.9-2.2.6-.6 1.4-.9 2.2-.9.8 0 1.6.3 2.1.9.5.6.8 1.4.8 2.2v.5h-4.9c.1 1.1 1.1 1.8 2.1 1.7zm8.1-2.6v-2.5h1v5.9h-1v-2.5h-3v2.5h-1v-5.9h1v2.5h3zm6.5 2.4v-4.9h1v4.9h1v2.6h-1v-1.6h-4.9v-5.9h1v4.9h2.9zm7.3-4.9h.8v5.9h-1v-4.1l-3.3 4.1h-.8v-5.9h1V43l3.3-4.2zm2.3 1.9c0-.5.2-1 .6-1.4.4-.4.9-.6 1.4-.5h2.5v5.9h-1v-2.1h-.9l-1.6 2.1h-1.2l1.7-2.2c-.9-.1-1.5-.9-1.5-1.8zm-55.6-.4c.4.4.6.9.6 1.5s-.2 1.1-.6 1.5c-.4.4-.9.6-1.5.6s-1.1-.2-1.5-.6c-.4-.4-.6-.9-.6-1.5s.2-1.1.6-1.5c.4-.4.9-.6 1.5-.6.5 0 1.1.2 1.5.6zm57.7 1.4c-.5 0-1-.4-1-.9v-.1c0-.5.5-1 1-1h1.6v1.9h-1.6v.1zm-24.5-.4h-3.9c.1-1 1-1.8 2-1.7 1 0 1.8.8 1.9 1.7zm-11.7 0h-3.9c.1-1 1-1.8 2-1.7 1 0 1.9.8 1.9 1.7zM75.4 11.7h.6c.9 0 1.6-.2 2-.6.4-.4.7-1 .7-1.8 0-.7-.2-1.3-.7-1.7-.5-.4-1.1-.6-2-.6h-2.3v7.1h1.5v-2.4h.2zm0-3.3h.7c.4 0 .7.1.9.3.2.2.3.4.3.8s-.1.6-.3.8c-.2.2-.6.3-1 .3h-.5V8.4h-.1zm8.8 5.9h-4.1V7.1h4.1v1.2h-2.6v1.6H84v1.2h-2.4V13h2.6v1.3zm10.4 0h-9V7.1h1.5V13h2.2V7.1h1.5V13H93V7.1h1.5v7.2h.1zm5.8 0h-4.1V7.1h4.1v1.2h-2.6v1.6h2.4v1.2h-2.4V13h2.6v1.3zm2.9 0h-1.5V7.1h1.5v2.8h2.8V7.1h1.5v7.1h-1.5v-3.1h-2.8v3.2zm7.8 0h-1.8V7.1h1.4v5.3L114 7h1.8v7.1h-1.3v-3.4c0-.5 0-1.1.1-2l-3.5 5.6zm7.1 0 1.7-2.7h.9v2.7h1.5V7.1H120c-.9 0-1.5.2-2 .5-.5.4-.7.9-.7 1.5 0 .5.1.9.3 1.2.2.3.5.6.9.8l-2 3.1h1.7v.1zm.9-5.7c.2-.1.5-.2.9-.2h.7v1.9h-.7c-.4 0-.7-.1-1-.3-.3-.2-.3-.4-.3-.7.1-.4.2-.6.4-.7zM74.5 27.3H79v2.1h1.5V26h-1v-5.9h-4.2c-.1 1.1-.3 2.1-.6 3-.3.9-.6 1.9-1.1 2.8H73v3.3h1.5v-1.9zm1.5-3.5c.2-.8.4-1.6.5-2.4H78V26h-2.8c.3-.7.6-1.4.8-2.2zm6.6-3.7h4.5v7.1h-1.5v-5.9h-1.7l-.2.7c-.2 1.7-.4 2.8-.5 3.5-.1.7-.4 1.1-.7 1.4-.3.3-.7.4-1.2.4-.3 0-.5 0-.7-.1V26c.2.1.4.1.5.1.2 0 .3-.1.4-.2.1-.1.2-.5.3-.9.1-.4.2-1.1.4-2.1s.3-1.9.4-2.8zm6.7.6c-.5.4-.7.9-.7 1.5 0 .5.1.9.3 1.2.2.3.5.6.9.8l-2 3.1h1.7l1.7-2.7h.9v2.7h1.5v-7.1h-2.3c-.9-.1-1.5.1-2 .5zm2.8.7v1.9h-.7c-.4 0-.7-.1-1-.3-.3-.2-.3-.4-.3-.7 0-.3.1-.6.3-.7.2-.1.5-.2.9-.2h.8zm7.8-1.3 1.7 5.5 1.8-5.5h2.1v7.1h-1.4v-4c0-.2 0-.8.1-1.7l-1.8 5.6H101l-1.7-5.6c.1 1.1.1 1.9.1 2.3v3.3H98V20h1.9v.1zm7.3 0h4.1v1.2h-2.6v1.6h2.4v1.2h-2.4V26h2.6v1.3h-4.1v-7.2zm11.1 0h-4.2c-.1 1.1-.3 2.1-.6 3-.3.9-.6 1.9-1.1 2.8h-.6v3.3h1.5v-2.1h4.5v2.1h1.5V26h-1v-5.9zm-1.6 5.9H114c.3-.7.6-1.4.8-2.3.2-.8.4-1.6.5-2.4h1.5V26h-.1zm4.8-.5 3.3-5.4h1.8v7.1h-1.3v-3.4c0-.5 0-1.1.1-2l-3.3 5.5h-1.8v-7.1h1.4v4.3l-.2 1zm12.1 1.8h-5.3v-7.1h1.5V26h2.6v-5.9h1.5V26h1.1v3.3h-1.5v-2h.1zm4.3 0H136v-7.1h1.4v5.3l3.3-5.4h1.8v7.1h-1.3v-3.4c0-.5 0-1.1.1-2l-3.4 5.5zm7.8 0h-1.5v-7.1h1.5V23h2.8v-2.8h1.5v7.1h-1.5v-3.1h-2.8v3.1zm13.3 0h-1.5v-7.1h1.5v7.1zm-3.1-.6c.5-.4.7-.9.7-1.7 0-.7-.3-1.2-.8-1.6-.5-.4-1.2-.6-2.1-.6h-.5v-2.7h-1.5v7.1h2c.9.1 1.7-.1 2.2-.5zm-2.7-.7v-1.9h.3c.6 0 1 .1 1.2.2.2.1.3.4.3.7 0 .3-.1.6-.3.7-.2.1-.6.2-1.1.2h-.4v.1z"/><path d="M21.2 14.8c0 1.1-.1 11.2 0 11.7.2 1 1.1 1.8 2.1 1.9h.7c1.4-.1 2.4-1.4 2.2-2.7-.1-.6-.3-1.1-.7-1.5-1.5-1.5-1.6.8-1.6-2.6 1.1 0 2.1.5 2.9 1.2.2.2.3.4.4.5.2.2.3.4.4.7.6 1.2.6 2.7 0 4-1.1 2.2-3.7 3-5.9 2-.5-.3-1-.6-1.3-1-.9-1-1.3-2.4-1.1-3.7v-9.7c-.4.1-.6.2-.9.3v10.3c.1 1.3.6 2.6 1.5 3.6.4.4.9.8 1.5 1.1 2.6 1.3 5.8.2 7.1-2.4 1-2 .6-4.5-1-6.1-.9-1-2.2-1.5-3.5-1.5V19c1.9.1 3.6.9 5 2.2 2.8 2.8 2.8 7.4-.1 10.2-.4.4-.8.7-1.3 1-1.7 1.1-3.7 1.4-5.6.9-3-.8-5.1-3.3-5.4-6.4l-.2-4.9v-4.8c-2.1 1.4-4.1 5.3-4.1 8.2-.1 1.9.2 3.8 1.1 5.5.6 1.2 1.3 2.2 2.2 3.1.9.9 1.9 1.6 3.1 2.2 1.4.7 2.9 1 4.4 1.1h1c2.2-.1 4.4-.8 6.2-2.1.3-.2.5-.4.8-.6 1.3-1.1 2.3-2.5 3-4.1 1.6-3.6 1.2-7.8-1-11-.5-.7-1-1.4-1.7-1.9-.4-.4-.8-.7-1.2-1-1.9-1.3-4.2-2-6.5-2.1-.9 0-1.7.2-2.5.3z"/></g><defs><clipPath id="a"><path fill="#fff" d="M0 0h181v51.2H0z"/></clipPath></defs></svg>