<svg width="181" height="111" fill="none" xmlns="http://www.w3.org/2000/svg"><g clip-path="url(#a)" fill="#fff"><path d="M51.2 99c-1.2-.1-2.5-.4-3.6-.9-.9-.5-1.8-1.1-2.5-1.8s-1.4-1.6-1.8-2.6c-.7-1.4-1-2.9-.9-4.5.1-2.6 1.3-5 3.3-6.7v3.9l.1 3.7c.2 2.5 1.9 4.5 4.3 5.2 1.6.4 3.2.2 4.6-.7 2.7-1.7 3.6-5.3 1.9-8-.2-.4-.5-.7-.8-1-1.1-1.1-2.5-1.7-4-1.8v1.6c1.1 0 2.1.5 2.9 1.3 1.7 1.6 1.7 4.3.1 6l-.1.1c-1.3 1.2-3.2 1.5-4.8.7-.4-.2-.8-.5-1.2-.9-.7-.8-1.2-1.8-1.2-2.9v-8.3c.3-.1.4-.2.7-.2v7.9c-.1 1.1.2 2.2.9 3 1.3 1.5 3.5 1.6 5 .3.3-.3.6-.7.8-1.1.5-1 .5-2.2 0-3.2l-.3-.6c-.1-.2-.2-.3-.3-.4-.6-.6-1.5-.9-2.4-1 0 1.6 0 1.6.3 1.6.2 0 .5 0 1 .5.8.8.8 2.1 0 2.9-.3.3-.8.5-1.2.6h-.5c-.8-.1-1.5-.7-1.7-1.5-.1-.4 0-8.6 0-9.5.6 0 1.3-.2 2-.2 1.9 0 3.8.6 5.3 1.7.3.2.7.5 1 .8.5.5 1 1 1.4 1.6 1.8 2.6 2.2 6 .8 9-.6 1.3-1.4 2.4-2.4 3.3-.2.2-.4.3-.6.5-1.5 1.1-3.2 1.7-5 1.7l-1.1-.1zM70.7 93.2c-.5-.8-.8-1.8-.7-2.8 0-2.3 1.9-4.3 4.2-4.3.9 0 1.7.2 2.4.7v2.5c-.5-.3-1.1-1.3-2.6-.9-2 .5-2.1 4 0 4.5 1 .2 1.9-.1 2.6-.8v2.5c-.3.2-.7.4-1 .5-.4.1-.8.2-1.2.2-1.5-.2-2.9-.9-3.7-2.1zm63.7 1.8c-.3-.1-.6-.2-.8-.3-1.6-.8-2.6-2.4-2.5-4.1-.1-1.7.9-3.3 2.5-4.1 1.3-.5 2.8-.4 4.1.3v2.5c-.2-.1-.1-.1-.2-.2-2.4-2.4-5.1.8-3.5 3 .3.4.6.6 1.1.7.7.2 1.5 0 2.1-.4.2-.1.3-.3.5-.4v2.5c-.7.4-1.4.6-2.2.6-.4 0-.7-.1-1.1-.1zm-51.1-.2c-.2 0-.2-.1-.2-.2v-8c0-.2.1-.2.2-.2h6v2.1h-3.8v1.3h1.7c1.4-.1 2.6.9 2.8 2.3.1.9-.3 1.8-1 2.3-1.1.5-2.3.7-3.5.6-.8-.1-1.6-.2-2.2-.2zm2.2-3.4v1.7h.9c.6 0 1.1-.1 1.1-.7 0-.9-.4-1-1.3-1-.2-.1-.4 0-.7 0zm29 3.2v-8c0-.2.1-.2.2-.2h2.1v4.9c.3-.2 2.1-3.2 2.5-3.8 1-1.5.2-1.2 3-1.2v8.5c-2.7 0-2.3.2-2.3-1.1v-3.8l-.8 1.2c-.3.4-.5.7-.8 1.2-.2.4-1.5 2.2-1.6 2.5h-2c-.1.1-.3 0-.3-.2zm-17.8-.9v-3.8l-2.4 3.8c-.2.2-.3.4-.4.6-.2.4-.2.6-.5.6h-2c-.2 0-.2-.1-.2-.2v-8c0-.2.1-.2.2-.2 2.5 0 2.2-.2 2.1 1v3.8c.2-.1 2.2-3.3 2.5-3.7.9-1.5.5-1.1 3-1.1V95h-1.6c-.9-.1-.7-.3-.7-1.3zm31.7.9c-.6-.8-1.7-2.6-2.2-3.3v3.6H124c-.2 0-.2-.1-.2-.2v-8.3h2.4v3.5l1.9-2.6c.7-1 .6-.9 1.3-.9h2.2l-.8 1c-.3.4-.5.7-.8 1l-1.6 2.1c.2.4.6.7.8 1.1.3.4.5.7.8 1.1.6.7 1.1 1.4 1.6 2.2H128.9c-.3 0-.4-.1-.5-.3zm-21.4.2v-8.5h3.3c.9-.1 1.7.2 2.4.7 1.2 1.1 1.2 3 .1 4.2l-.1.1c-1 .8-2 .7-3.3.7v2.8H107zm2.4-6.6v1.9h.7c.5.1 1-.3 1.1-.8.1-.4-.1-.7-.4-.9-.4-.2-.8-.2-1.2-.2h-.2zm-7.6 6.6v-6.4H100v-2.1h5.9c.4 0 .2.9.2 2.1h-1.9v6.4h-2.4zm-35.5 0v-6.5H65v-2h3.5v8.5h-2.2zm12.4-5c.2-.3.6-.5.9-.5.1 0-.2-.1.3 0 .8.1 1.3.8 1.3 1.5-.1.6-.5 1.2-1.2 1.2h-.2c-.8 0-1.4-.7-1.4-1.4 0-.3.1-.6.3-.8z"/><path d="M0 0v111h181V0H0zm179 2v67.3H2V2h177zM2 109V71.3h177V109H2zm67.8-88.3c.6-.4.9-1.1.9-1.7 0-.7-.3-1.3-.8-1.8-.6-.5-1.3-.7-2-.7-1.2-.1-2.2.5-2.8 1.6-.1.1 0 .2.1.3l1 .6c.1.1.2 0 .3-.1.3-.5.8-.9 1.4-.8.8 0 1.2.4 1.2 1s-.5 1-1.3 1h-.6c-.1 0-.2.1-.2.2v1c0 .1.1.2.2.2h.8c.9 0 1.3.4 1.3 1.1 0 .6-.5 1.1-1.4 1.1-.7.1-1.3-.3-1.6-1-.1-.1-.2-.2-.3-.1l-1 .6c-.1.1-.1.2-.1.3.5 1.2 1.7 1.9 3 1.8.8 0 1.5-.2 2.2-.7.5-.4.9-1.1.8-1.8.1-1-.4-1.8-1.1-2.1zm8.9 3.2c.8-.8 1.3-1.9 1.3-3.1 0-1.1-.4-2.3-1.3-3-.8-.8-1.9-1.3-3-1.3s-2.2.4-3 1.3c-.8.8-1.3 1.9-1.2 3 0 1.1.4 2.3 1.2 3.1.8.8 1.9 1.3 3 1.2 1.1 0 2.2-.4 3-1.2zm-4.9-1.1c-.5-.5-.8-1.2-.8-1.9a2.732 2.732 0 0 1 2.7-2.7 2.732 2.732 0 0 1 2.7 2.7 2.732 2.732 0 0 1-2.7 2.7c-.7-.1-1.4-.3-1.9-.8zm6 2c0 .1.1.2.2.2.7.1 1.4-.1 1.9-.5.7-.8 1.1-1.8 1-2.9v-3.3h2.4v6.5c0 .1.1.2.2.2h1.2c.1 0 .2-.1.2-.2V17c0-.1-.1-.2-.2-.2h-5.2c-.1 0-.2.1-.2.2v4.7c0 1.4-.4 1.9-1.2 1.9-.1 0-.2.1-.2.2l-.1 1zm15.3-.9c.8-.8 1.3-1.9 1.3-3.1 0-1.1-.4-2.3-1.3-3-.8-.8-1.9-1.3-3-1.3s-2.2.4-3 1.3c-.8.8-1.3 1.9-1.2 3 0 1.1.4 2.3 1.2 3.1.8.8 1.9 1.3 3 1.2 1.1 0 2.2-.4 3-1.2zm-5-1.1c-.5-.5-.8-1.2-.8-1.9a2.732 2.732 0 0 1 2.7-2.7 2.732 2.732 0 0 1 2.7 2.7 2.732 2.732 0 0 1-2.7 2.7c-.7 0-1.4-.3-1.9-.8zm6-5.9V18c0 .1.1.2.2.2h2v6.5c0 .1.1.2.2.2h1.2c.1 0 .2-.1.2-.2v-6.5h2c.1 0 .2-.1.2-.2v-1.1c0-.1-.1-.2-.2-.2h-5.7s-.1.1-.1.2zm13.2 7c.8-.8 1.3-1.9 1.3-3.1 0-1.1-.4-2.3-1.3-3-.8-.8-1.9-1.3-3-1.3s-2.2.4-3 1.3c-.8.8-1.3 1.9-1.2 3 0 1.1.4 2.3 1.2 3.1.8.8 1.9 1.3 3 1.2 1.1 0 2.2-.4 3-1.2zm-4.9-1.1c-.5-.5-.8-1.2-.8-1.9a2.732 2.732 0 0 1 2.7-2.7 2.732 2.732 0 0 1 2.7 2.7 2.732 2.732 0 0 1-2.7 2.7c-.7-.1-1.4-.3-1.9-.8zm13.5 1.9v-7.8c0-.1-.1-.2-.2-.2h-.9c-.1 0-.1 0-.2.1l-3.5 5V17c0-.1-.1-.2-.2-.2h-1.2c-.1 0-.2.1-.2.2v7.8c0 .1.1.2.2.2h.9c.1 0 .1 0 .2-.1l3.5-4.9v4.8c0 .1.1.2.2.2h1.2c.1 0 .2-.1.2-.3zm-1.5-9v-.9c0-.1-.1-.2-.2-.2h-3c-.1 0-.2.1-.2.2v.9c0 .1.1.2.2.2h3c.1 0 .2-.1.2-.2zm-85 24.2c1.4 0 2.7-.6 3.4-1.8.1-.1 0-.2-.1-.3l-1-.6c-.1 0-.2 0-.3.1-.5.7-1.2 1-2 1-.7 0-1.4-.2-1.9-.8-.5-.5-.8-1.2-.7-1.9 0-.7.2-1.4.7-2 .5-.5 1.2-.8 1.9-.8.8 0 1.6.3 2 1 .1.1.2.1.3.1l1-.6c.1-.1.1-.2.1-.3-.8-1.1-2.1-1.8-3.4-1.7-1.2 0-2.3.4-3.1 1.2-.8.8-1.2 1.9-1.2 3.1 0 1.1.4 2.2 1.2 3.1.8.8 1.9 1.2 3.1 1.2zm5.9-3.6h2.9c.1 0 .2-.1.2-.2V35c0-.1-.1-.2-.2-.2h-2.9V33h3.2c.1 0 .2-.1.2-.2v-1.1c0-.1-.1-.2-.2-.2h-4.6c-.1 0-.2.1-.2.2v7.8c0 .1.1.2.2.2h4.7c.1 0 .2-.1.2-.2v-1.1c0-.1-.1-.2-.2-.2h-3.3v-1.9zm4.4-4.6v7.8c0 .1.1.2.2.2h1.2c.1 0 .2-.1.2-.2V37h1.5c.7 0 1.5-.3 2-.8s.8-1.2.8-2c0-.7-.3-1.5-.8-2s-1.3-.8-2-.8h-2.9c-.1.1-.2.1-.2.3zm1.6 3.8V33h1.5c.7 0 1.2.5 1.2 1.2v.1c0 .7-.5 1.2-1.1 1.2h-1.6zm4.3-3.8v1.1c0 .1.1.2.2.2h2v6.5c0 .1.1.2.2.2h1.2c.1 0 .2-.1.2-.2V33h2c.1 0 .2-.1.2-.2v-1.1c0-.1-.1-.2-.2-.2h-5.7c0-.1-.1 0-.1.2zm13.1 7.8v-7.8c0-.1-.1-.2-.2-.2h-.9c-.1 0-.1 0-.2.1l-3.5 5v-4.8c0-.1-.1-.2-.2-.2h-1.2c-.1 0-.2.1-.2.2v7.8c0 .1.1.2.2.2h.9c.1 0 .1 0 .2-.1l3.5-4.9v4.8c0 .1.1.2.2.2h1.2c.1-.1.2-.2.2-.3zm6.2-.6c1-.1 2-.4 2.8-1.1.7-.6 1.1-1.4 1-2.3 0-.9-.4-1.7-1-2.3-.8-.6-1.7-1-2.8-1.1v-.7c0-.1-.1-.2-.2-.2h-1.2c-.1 0-.2.1-.2.2v.7c-1 .1-2 .4-2.8 1.1-.7.6-1 1.4-1 2.3 0 .9.3 1.7 1 2.3.8.6 1.7 1 2.8 1.1v.7c0 .1.1.2.2.2h1.2c.1 0 .2-.1.2-.2v-.7zm0-5.2c1.4.2 2.1.8 2.1 1.9 0 1.1-.7 1.7-2.1 1.9v-3.8zm-3.8 1.9c0-1.1.7-1.7 2.1-1.9v3.7c-1.3-.1-2.1-.7-2.1-1.8zm14.7 3.9v-7.8c0-.1-.1-.2-.2-.2h-.9c-.1 0-.1 0-.2.1l-3.5 5v-4.8c0-.1-.1-.2-.2-.2h-1.2c-.1 0-.2.1-.2.2v7.8c0 .1.1.2.2.2h.9c.1 0 .1 0 .2-.1l3.5-4.9v4.8c0 .1.1.2.2.2h1.2c.1-.1.2-.2.2-.3zm7.3-8.1h-1.2c-.1 0-.2.1-.2.2v6.5h-2.9v-6.5c0-.1-.1-.2-.2-.2h-1.2c-.1 0-.2.1-.2.2v7.8c0 .1.1.2.2.2h5.2V41c0 .1.1.2.2.2H86c.1 0 .2-.1.2-.2v-2.7c0-.1-.1-.2-.2-.2h-.7v-6.5c0-.1-.1-.2-.2-.2zm8.3 8.1v-7.8c0-.1-.1-.2-.2-.2h-.9c-.1 0-.1 0-.2.1l-3.5 5v-4.8c0-.1-.1-.2-.2-.2h-1.2c-.1 0-.2.1-.2.2v7.8c0 .1.1.2.2.2h.9c.1 0 .1 0 .2-.1l3.5-4.9v4.8c0 .1.1.2.2.2h1.2c.1-.1.2-.2.2-.3zm1.3-7.8v7.8c0 .1.1.2.2.2h1.2c.1 0 .2-.1.2-.2V37h1.5c.7 0 1.5-.3 2-.8s.8-1.2.8-2c0-.7-.3-1.5-.8-2s-1.3-.8-2-.8h-2.9c-.1.1-.2.1-.2.3zm1.6 3.8V33h1.4c.7 0 1.2.5 1.2 1.2v.1c0 .7-.5 1.2-1.1 1.2h-1.5zm12 3.1c.8-.8 1.3-1.9 1.3-3.1 0-2.4-1.9-4.3-4.2-4.3-2.3 0-4.3 1.9-4.3 4.2v.1c0 2.3 1.8 4.3 4.2 4.3h.1c1 .1 2.1-.4 2.9-1.2zm-5-1.1c-.5-.5-.8-1.2-.8-1.9s.3-1.4.8-1.9c1.1-1 2.7-1 3.8 0 .5.5.8 1.2.8 1.9a2.732 2.732 0 0 1-2.7 2.7c-.7 0-1.4-.3-1.9-.8zm12.1-2.1c.5-.4.8-1 .8-1.7 0-.6-.3-1.2-.7-1.7-.5-.4-1.1-.7-1.8-.7h-3c-.1 0-.2.1-.2.2v7.8c0 .1.1.2.2.2h3.3c.7 0 1.3-.2 1.8-.7.5-.4.8-1.1.7-1.7 0-.6-.4-1.3-1.1-1.7zm-1.7-2.4c.5 0 .9.4.9.9s-.4.9-.9.9H112V33h1.7zm-1.7 5.2v-1.9h1.9c.5 0 1 .4 1 1 0 .5-.4 1-1 1H112v-.1zm12.2 1.2-2.8-7.8c0-.1-.1-.1-.2-.1h-1.7c-.1 0-.2.1-.2.1l-2.7 7.8c0 .1 0 .2.1.3H118.1c.1 0 .2-.1.2-.2l.4-1.3h3.3l.4 1.3c0 .1.1.1.2.2h1.3c.2 0 .3-.1.3-.3zm-3.8-6.1 1.1 3.4h-2.3l1.2-3.4zm9 1.4h-3.1v-3.1c0-.1-.1-.2-.2-.2H125c-.1 0-.2.1-.2.2v7.8c0 .1.1.2.2.2h1.2c.1 0 .2-.1.2-.2v-3.2h3.1v3.2c0 .1.1.2.2.2h1.2c.1 0 .2-.1.2-.2v-7.8c0-.1-.1-.2-.2-.2h-1.2c-.1 0-.2.1-.2.2v3.1h-.1zm7.6 0h-3v-3.1c0-.1-.1-.2-.2-.2h-1.2c-.1 0-.2.1-.2.2v7.8c0 .1.1.2.2.2h1.2c.1 0 .2-.1.2-.2v-3.2h3.1v3.2c0 .1.1.2.2.2h1.2c.1 0 .2-.1.2-.2v-7.8c0-.1-.1-.2-.2-.2h-1.2c-.1 0-.2.1-.2.2v3.1h-.1zm4.6 1h1.5c.7 0 1.2.6 1.2 1.3 0 .7-.5 1.2-1.2 1.2h-1.5v-2.5zm0-1.5v-2.5c0-.1-.1-.2-.2-.2h-1.2c-.1 0-.2.1-.2.2v7.8c0 .1.1.2.2.2h2.9c.7 0 1.5-.3 2-.8 1.1-1.1 1.1-2.9 0-3.9-.5-.5-1.3-.8-2-.8h-1.5zm5.2 5.5h1.2c.1 0 .2-.1.2-.2v-7.8c0-.1-.1-.2-.2-.2h-1.2c-.1 0-.2.1-.2.2v7.8c0 .1.1.2.2.2zm9.1-.2v-7.8c0-.1-.1-.2-.2-.2h-.9c-.1 0-.1 0-.2.1l-3.5 5v-4.8c0-.1-.1-.2-.2-.2h-1.2c-.1 0-.2.1-.2.2v7.8c0 .1.1.2.2.2h.9c.1 0 .1 0 .2-.1l3.5-4.9v4.8c0 .1.1.2.2.2h1.2c.1-.1.2-.2.2-.3zm-1.5-9v-.9c0-.1-.1-.2-.2-.2h-3c-.1 0-.2.1-.2.2v.9c0 .1.1.2.2.2h3c.1 0 .2-.1.2-.2zm-86 15.9v7.8c0 .1.1.2.2.2h1.2c.1 0 .2-.1.2-.2v-6.5h2.9v6.5c0 .1.1.2.2.2h1.2c.1 0 .2-.1.2-.2v-7.8c0-.1-.1-.2-.2-.2h-5.7c-.1 0-.2.1-.2.2zm14.3 7.8L80 46.3c0-.1-.1-.1-.2-.1h-1.7c-.1 0-.2.1-.2.1l-2.7 7.8c0 .1 0 .2.1.3H76.7c.1 0 .2-.1.2-.2l.4-1.3h3.3l.4 1.3c0 .1.1.1.2.2h1.3c.1.1.2 0 .2-.2zm-3.8-6.1 1.1 3.4h-2.3l1.2-3.4zm4.4-1.7v7.8c0 .1.1.2.2.2h1.2c.1 0 .2-.1.2-.2v-2.5h1.5c.7 0 1.5-.3 2-.8s.8-1.2.8-2c0-.7-.3-1.5-.8-2s-1.3-.8-2-.8h-2.9c-.1.1-.2.2-.2.3zm1.6 3.8v-2.5h1.5c.7 0 1.2.5 1.2 1.2v.1c0 .7-.5 1.2-1.1 1.2h-1.6zm4.3-3.8v1.1c0 .1.1.2.2.2h2v6.5c0 .1.1.2.2.2h1.2c.1 0 .2-.1.2-.2v-6.5h2c.1 0 .2-.1.2-.2v-1.1c0-.1-.1-.2-.2-.2h-5.7s-.1.1-.1.2zm11.4 3.1h-3.1v-3.1c0-.1-.1-.2-.2-.2h-1.2c-.1 0-.2.1-.2.2v7.8c0 .1.1.2.2.2h1.2c.1 0 .2-.1.2-.2V51h3.1v3.2c0 .1.1.2.2.2h1.2c.1 0 .2-.1.2-.2v-7.8c0-.1-.1-.2-.2-.2h-1.2c-.1 0-.2.1-.2.2v3.1zm4.9-4.1c.3-.3.3-.8 0-1.1-.3-.3-.8-.3-1.1 0-.3.3-.3.8 0 1.1.3.3.8.3 1.1 0zm2.2 0c.3-.3.3-.8 0-1.1-.3-.3-.8-.3-1.1 0-.3.3-.3.8 0 1.1.3.3.8.3 1.1 0zm-2.5 5.7h2.9c.1 0 .2-.1.2-.2v-1.1c0-.1-.1-.2-.2-.2h-2.9v-1.8h3.2c.1 0 .2-.1.2-.2v-1.1c0-.1-.1-.2-.2-.2h-4.6c-.1 0-.2.1-.2.2v7.8c0 .1.1.2.2.2h4.7c.1 0 .2-.1.2-.2v-1.1c0-.1-.1-.2-.2-.2h-3.3v-1.9zm4.3-4.7v7.8c0 .1.1.2.2.2h1.2c.1 0 .2-.1.2-.2v-2.5h1.5c.7 0 1.5-.3 2-.8 1.1-1.1 1.1-2.9 0-3.9-.5-.5-1.3-.8-2-.8h-2.9c-.1 0-.2.1-.2.2zm1.7 3.8v-2.5h1.5c.7 0 1.2.6 1.2 1.3 0 .7-.5 1.2-1.2 1.2h-1.5z"/></g><defs><clipPath id="a"><path fill="#fff" d="M0 0h181v111H0z"/></clipPath></defs></svg>