<svg xmlns="http://www.w3.org/2000/svg">

	<symbol id="telegram" viewBox="0 0 18 15">
		<path d="M4.33109 8.69128L6.56982 13.9975L9.48436 11.2341L14.4815 15L18 0L0 7.10885L4.33109 8.69128ZM12.8565 4.30365L7.34697 9.06836L6.66074 11.5206L5.39305 8.5151L12.8565 4.30365Z" />
	</symbol>

	<symbol id="vk" viewBox="0 0 24 24">
		<path d="m23.456 5.784c-.27.849-.634 1.588-1.09 2.259l.019-.03q-.672 1.12-1.605 2.588-.8 1.159-.847 1.2c-.138.173-.234.385-.267.618l-.001.007c.027.212.125.397.268.535l.4.446q3.21 3.299 3.611 4.548c.035.092.055.198.055.309 0 .194-.062.373-.167.52l.002-.003c-.176.181-.422.293-.694.293-.03 0-.061-.001-.09-.004h.004-2.631c-.001 0-.003 0-.005 0-.337 0-.647-.118-.89-.314l.003.002c-.354-.291-.669-.606-.951-.948l-.009-.012q-.691-.781-1.226-1.315-1.782-1.694-2.63-1.694c-.021-.002-.045-.003-.07-.003-.165 0-.319.051-.446.138l.003-.002c-.104.13-.167.298-.167.479 0 .036.002.07.007.105v-.004c-.027.314-.043.679-.043 1.048 0 .119.002.237.005.355v-.017 1.159c.01.047.016.101.016.156 0 .242-.11.458-.282.601l-.001.001c-.387.177-.839.281-1.316.281-.102 0-.202-.005-.301-.014l.013.001c-1.574-.03-3.034-.491-4.275-1.268l.035.02c-1.511-.918-2.763-2.113-3.717-3.525l-.027-.042c-.906-1.202-1.751-2.56-2.471-3.992l-.07-.154c-.421-.802-.857-1.788-1.233-2.802l-.06-.185c-.153-.456-.264-.986-.31-1.535l-.002-.025q0-.758.892-.758h2.63c.024-.002.052-.003.081-.003.248 0 .477.085.658.228l-.002-.002c.2.219.348.488.421.788l.003.012c.484 1.367.997 2.515 1.587 3.615l-.067-.137c.482.97 1.015 1.805 1.623 2.576l-.023-.031q.8.982 1.248.982c.009.001.02.001.032.001.148 0 .277-.08.347-.2l.001-.002c.074-.19.117-.411.117-.641 0-.049-.002-.098-.006-.146v.006-3.879c-.021-.457-.133-.884-.32-1.267l.008.019c-.124-.264-.273-.492-.45-.695l.003.004c-.164-.164-.276-.379-.311-.619l-.001-.006c0-.17.078-.323.2-.423l.001-.001c.121-.111.283-.178.46-.178h.008 4.146c.022-.003.047-.004.073-.004.195 0 .37.088.486.226l.001.001c.103.188.164.413.164.651 0 .038-.002.075-.005.112v-.005 5.173c-.002.024-.003.052-.003.08 0 .184.051.357.139.504l-.002-.004c.073.108.195.178.333.178h.001c.176-.012.336-.07.471-.162l-.003.002c.272-.187.506-.4.709-.641l.004-.005c.607-.686 1.167-1.444 1.655-2.25l.039-.07c.344-.57.716-1.272 1.053-1.993l.062-.147.446-.892c.155-.446.571-.76 1.06-.76.019 0 .038 0 .057.001h-.003 2.631q1.066 0 .8.981z"/>
	</symbol>

	<symbol id="right-up" viewBox="0 0 12 12">
		<path d="M0.835559 0.836426H10.4375M10.4375 0.836426V10.4384M10.4375 0.836426L0.835559 10.4384" stroke-width="1.67306" stroke-linecap="round" stroke-linejoin="round"/>
	</symbol>

	<symbol id="circle-badge" viewBox="0 0 177 177">
		<path d="M81.711 2.07183C85.667 -0.690808 90.9267 -0.690808 94.8828 2.07183C97.9134 4.18827 101.777 4.71924 105.266 3.49895C109.821 1.90609 114.885 3.32515 117.949 7.05265C120.296 9.90827 123.873 11.4618 127.562 11.2282C132.378 10.9232 136.872 13.6561 138.816 18.072C140.306 21.455 143.331 23.916 146.947 24.6863C151.666 25.6919 155.256 29.5359 155.937 34.3127C156.459 37.9722 158.708 41.158 161.981 42.8752C166.254 45.1166 168.674 49.7867 168.041 54.5702C167.556 58.2347 168.862 61.9091 171.551 64.4458C175.06 67.757 176.13 72.9067 174.23 77.342C172.775 80.7399 173.041 84.6303 174.946 87.7983C177.432 91.9336 177.073 97.1811 174.047 100.939C171.729 103.819 170.935 107.636 171.914 111.201C173.193 115.854 171.431 120.81 167.504 123.612C164.494 125.759 162.7 129.221 162.682 132.918C162.657 137.743 159.624 142.04 155.086 143.679C151.609 144.934 148.947 147.784 147.932 151.338C146.607 155.978 142.527 159.297 137.715 159.651C134.028 159.922 130.696 161.948 128.76 165.097C126.232 169.207 121.408 171.302 116.678 170.344C113.055 169.611 109.301 170.663 106.586 173.172C103.043 176.448 97.8326 177.164 93.5373 174.966C90.2466 173.281 86.3471 173.281 83.0565 174.966C78.7612 177.164 73.5504 176.448 70.0074 173.172C67.2932 170.663 63.5383 169.611 59.9153 170.344C55.1862 171.302 50.3619 169.207 47.834 165.097C45.8975 161.948 42.5657 159.922 38.8791 159.651C34.0669 159.297 29.9869 155.978 28.6616 151.338C27.6463 147.784 24.9847 144.934 21.5079 143.679C16.9696 142.04 13.9364 137.743 13.9121 132.918C13.8934 129.221 12.0994 125.759 9.09022 123.612C5.16232 120.81 3.40094 115.854 4.67927 111.201C5.6586 107.636 4.86523 103.819 2.5469 100.939C-0.479259 97.1811 -0.838195 91.9336 1.64803 87.7983C3.55271 84.6303 3.81882 80.7399 2.36326 77.342C0.463286 72.9067 1.53341 67.757 5.04313 64.4458C7.73191 61.9091 9.03777 58.2348 8.55292 54.5702C7.92004 49.7867 10.3399 45.1166 14.6128 42.8752C17.8863 41.158 20.135 37.9722 20.6568 34.3127C21.338 29.5359 24.928 25.6919 29.6473 24.6863C33.2626 23.916 36.2875 21.455 37.7773 18.072C39.722 13.6561 44.216 10.9232 49.0315 11.2282C52.7206 11.4618 56.2973 9.90827 58.6446 7.05265C61.7085 3.32514 66.7732 1.90609 71.3279 3.49895C74.8172 4.71924 78.6803 4.18827 81.711 2.07183Z" />
	</symbol>

	<symbol id="ok-check" viewBox="0 0 31 28">
		<path d="M3 9.68245C3 10.4983 4.39437 15.1542 5.34507 18.6989C6.20363 21.9001 7.10563 23.6221 7.51585 24.8547C7.8684 25.914 9.21127 21.0691 13.831 15.221C18.9014 9.97784 23.6408 5.70873 26.2799 3.89243C27.2923 3.23659 27.6408 3.12054 28 3.00098" stroke-width="6" stroke-linecap="round"/>
	</symbol>


</svg>
