<svg xmlns="http://www.w3.org/2000/svg">

	<symbol id="i-tel" viewBox="0 0 12 12">
		<path d="M11.029,8.669 L9.531,7.184 C8.996,6.654 8.087,6.866 7.873,7.555 C7.712,8.033 7.178,8.298 6.696,8.192 C5.626,7.926 4.182,6.548 3.914,5.434 C3.754,4.957 4.075,4.427 4.556,4.268 C5.252,4.056 5.466,3.154 4.931,2.624 L3.433,1.139 C3.005,0.768 2.363,0.768 1.989,1.139 L0.972,2.147 C-0.044,3.207 1.079,6.018 3.593,8.510 C6.108,11.001 8.943,12.168 10.013,11.108 L11.029,10.100 C11.404,9.676 11.404,9.040 11.029,8.669 Z" />
	</symbol>

	<symbol id="svg-decorline" viewBox="0 0 81.5 32.5">
		<path d="M1.385,22.249 C28.648,37.989 63.508,28.648 79.249,1.385 "/>
	</symbol>

	<symbol id="i-comment" viewBox="-21 -47 682.66669 682">
		<path d="m552.011719-1.332031h-464.023438c-48.515625 0-87.988281 39.464843-87.988281 87.988281v283.972656c0 48.414063 39.300781 87.816406 87.675781 87.988282v128.863281l185.191407-128.863281h279.144531c48.515625 0 87.988281-39.472657 87.988281-87.988282v-283.972656c0-48.523438-39.472656-87.988281-87.988281-87.988281zm50.488281 371.960937c0 27.835938-22.648438 50.488282-50.488281 50.488282h-290.910157l-135.925781 94.585937v-94.585937h-37.1875c-27.839843 0-50.488281-22.652344-50.488281-50.488282v-283.972656c0-27.84375 22.648438-50.488281 50.488281-50.488281h464.023438c27.839843 0 50.488281 22.644531 50.488281 50.488281zm0 0"/>
		<path d="m171.292969 131.171875h297.414062v37.5h-297.414062zm0 0"/>
		<path d="m171.292969 211.171875h297.414062v37.5h-297.414062zm0 0"/>
		<path d="m171.292969 291.171875h297.414062v37.5h-297.414062zm0 0"/>
	</symbol>

	<symbol id="i-triangular" viewBox="0 0 128 128">
		<g transform="matrix(-1.8369701987210297e-16,-1,-1,1.8369701987210297e-16,127.99850090856208,127.99850090856202)">
			<path d="M127.487,125.01,2.987.51A1.749,1.749,0,0,0,0,1.747v124.5A1.751,1.751,0,0,0,1.75,128h124.5a1.749,1.749,0,0,0,1.237-2.987ZM3.5,124.5v-18.92H9.219a1.75,1.75,0,0,0,0-3.5H3.5V89.646H9.219a1.75,1.75,0,0,0,0-3.5H3.5V73.715H9.219a1.75,1.75,0,0,0,0-3.5H3.5V57.785H9.219a1.75,1.75,0,0,0,0-3.5H3.5V41.854H9.219a1.75,1.75,0,1,0,0-3.5H3.5V25.923H9.219a1.75,1.75,0,0,0,0-3.5H3.5V5.972L122.025,124.5Z" />
			<path d="M21.75,108H77.966A1.749,1.749,0,0,0,79.2,105.01L22.987,48.794A1.75,1.75,0,0,0,20,50.031v56.216A1.751,1.751,0,0,0,21.75,108ZM23.5,54.256,73.741,104.5H23.5Z" />
		</g>
	</symbol>

	<symbol id="i-phonecall" viewBox="0 0 51.512 51.512">
		<path transform="matrix(1,0,0,-1,0,51.512450218200684)" d="M49.202,5.582c-0.124-0.116-0.383-0.312-0.561-0.443c-3.229-2.435-8.193-5.345-12.984-5.127    c-8.022,0.37-18.684,11.196-21.761,14.506C10.82,17.829,0.801,29.253,1.019,37.273c0.033,1.337,0.314,2.754,0.836,4.21    c1.205,3.361,3.497,6.395,5.184,8.322c0,0,0.353,0.415,0.523,0.575c0.435,0.403,1.07,0.722,1.941,0.975    c0.445,0.129,0.914,0.157,1.228,0.157c0.35,0,1.028-0.035,1.645-0.265c0.844-0.315,1.448-0.676,1.854-1.108    c0.297-0.32,5.962-7.551,5.994-7.597l0.036-0.055c0.301-0.392,0.536-0.801,0.699-1.217c0.427-1.09,0.444-2.297,0.05-3.4    c-0.251-0.701-0.666-1.332-1.192-1.819l-2.66-2.485c-0.25-0.233-0.509-0.666-0.546-0.819c-0.03-0.161-0.038-0.273-0.04-0.345    L32.07,15.724c0.038-0.04,0.075-0.06,0.101-0.071c0.024,0.008,0.045,0.018,0.061,0.023c0.124,0.061,0.518,0.349,0.908,0.709    l2.662,2.459c1.399,1.301,3.575,1.624,5.272,0.796c0.605-0.295,1.057-0.699,1.27-0.886l0.12-0.097    c0.055-0.048,6.736-6.136,6.987-6.409c0.629-0.677,0.969-1.743,1.041-3.258c0.04-0.842-0.208-1.898-0.589-2.511    C49.656,6.085,49.426,5.79,49.202,5.582z M47.279,10.175c-0.346,0.341-6.415,5.882-6.733,6.172l-0.247,0.204    c-0.093,0.083-0.312,0.278-0.544,0.392c-0.608,0.296-1.4,0.18-1.917-0.3l-2.665-2.462c-0.311-0.288-1.107-0.988-1.77-1.266    c-0.442-0.184-0.827-0.271-1.274-0.272c-0.854,0.03-1.65,0.392-2.251,1.03L14.223,30.519c-0.595,0.641-0.785,1.573-0.564,2.771    c0.171,0.926,0.871,1.929,1.449,2.469l2.665,2.489c0.179,0.166,0.321,0.386,0.411,0.634c0.148,0.414,0.141,0.886-0.019,1.294    c-0.093,0.238-0.248,0.436-0.299,0.501c-0.048,0.062-0.083,0.112-0.111,0.157c-0.537,0.693-5.424,6.911-5.708,7.248    c-0.002,0.001-0.167,0.148-0.72,0.355c-0.078,0.029-0.308,0.075-0.595,0.075c-0.207,0-0.342-0.023-0.391-0.038    c-0.536-0.156-0.724-0.285-0.728-0.285c-0.097-0.097-0.264-0.299-0.293-0.333c-1.539-1.759-3.594-4.467-4.64-7.386    c-0.414-1.154-0.636-2.254-0.661-3.274c-0.149-5.479,6.413-14.541,12.076-20.635c5.662-6.095,14.221-13.3,19.7-13.552    c3.95-0.184,8.201,2.385,11.007,4.5L46.91,7.59c0.064,0.047,0.184,0.132,0.236,0.176c0.071,0.075,0.14,0.187,0.196,0.276    c0.068,0.133,0.164,0.546,0.151,0.804C47.45,9.732,47.291,10.142,47.279,10.175z" />
	</symbol>

	<symbol id="i-calculator" viewBox="-76 0 569 569.285">
		<path d="m.105469 47.417969v474.164062c.03125 26.175781 21.242187 47.386719 47.414062 47.417969h322.433594c26.175781-.03125 47.386719-21.242188 47.417969-47.417969v-474.164062c-.03125-26.175781-21.242188-47.386719-47.417969-47.417969h-322.433594c-26.171875.03125-47.382812 21.242188-47.414062 47.417969zm18.964843 0c0-15.714844 12.738282-28.453125 28.449219-28.453125h322.433594c15.710937 0 28.449219 12.738281 28.449219 28.453125v474.164062c0 15.714844-12.738282 28.449219-28.449219 28.449219h-322.433594c-15.710937 0-28.449219-12.734375-28.449219-28.449219zm0 0"/>
		<path d="m57.003906 180.183594h303.464844c5.238281 0 9.484375-4.246094 9.484375-9.484375v-104.316407c0-5.238281-4.246094-9.480468-9.484375-9.480468h-303.464844c-5.238281 0-9.484375 4.242187-9.484375 9.480468v104.316407c0 5.238281 4.246094 9.484375 9.484375 9.484375zm9.484375-104.316406h284.5v85.351562h-284.5zm0 0"/>
		<path d="m246.671875 199.148438h-75.867187c-5.238282 0-9.484376 4.246093-9.484376 9.484374v75.867188c0 5.238281 4.246094 9.484375 9.484376 9.484375h75.867187c5.234375 0 9.480469-4.246094 9.480469-9.484375v-75.867188c0-5.238281-4.242188-9.484374-9.480469-9.484374zm-9.484375 75.867187h-56.902344v-56.898437h56.902344zm0 0"/>
		<path d="m360.472656 199.148438h-75.867187c-5.238281 0-9.484375 4.246093-9.484375 9.484374v75.867188c0 5.238281 4.246094 9.484375 9.484375 9.484375h75.867187c5.234375 0 9.480469-4.246094 9.480469-9.484375v-75.867188c0-5.238281-4.246094-9.484374-9.480469-9.484374zm-9.484375 75.867187h-56.902343v-56.898437h56.902343zm0 0"/>
		<path d="m57.003906 293.984375h75.867188c5.238281 0 9.484375-4.246094 9.484375-9.484375v-75.867188c0-5.238281-4.246094-9.484374-9.484375-9.484374h-75.867188c-5.238281 0-9.484375 4.246093-9.484375 9.484374v75.867188c0 5.238281 4.246094 9.484375 9.484375 9.484375zm9.484375-75.867187h56.898438v56.898437h-56.898438zm0 0"/>
		<path d="m246.671875 312.949219h-75.867187c-5.238282 0-9.484376 4.246093-9.484376 9.484375v75.867187c0 5.238281 4.246094 9.480469 9.484376 9.480469h75.867187c5.234375 0 9.480469-4.242188 9.480469-9.480469v-75.867187c0-5.238282-4.242188-9.484375-9.480469-9.484375zm-9.484375 75.867187h-56.902344v-56.898437h56.902344zm0 0"/>
		<path d="m360.472656 312.949219h-75.867187c-5.238281 0-9.484375 4.246093-9.484375 9.484375v189.664062c0 5.238282 4.246094 9.484375 9.484375 9.484375h75.867187c5.234375 0 9.480469-4.246093 9.480469-9.484375v-189.664062c0-5.238282-4.246094-9.484375-9.480469-9.484375zm-9.484375 189.667969h-56.902343v-170.699219h56.902343zm0 0"/>
		<path d="m57.003906 407.78125h75.867188c5.238281 0 9.484375-4.242188 9.484375-9.480469v-75.867187c0-5.238282-4.246094-9.484375-9.484375-9.484375h-75.867188c-5.238281 0-9.484375 4.246093-9.484375 9.484375v75.867187c0 5.238281 4.246094 9.480469 9.484375 9.480469zm9.484375-75.863281h56.898438v56.898437h-56.898438zm0 0"/>
		<path d="m246.671875 426.75h-75.867187c-5.238282 0-9.484376 4.246094-9.484376 9.484375v75.863281c0 5.238282 4.246094 9.484375 9.484376 9.484375h75.867187c5.234375 0 9.480469-4.246093 9.480469-9.484375v-75.863281c0-5.238281-4.242188-9.484375-9.480469-9.484375zm-9.484375 75.867188h-56.902344v-56.902344h56.902344zm0 0"/>
		<path d="m57.003906 521.582031h75.867188c5.238281 0 9.484375-4.246093 9.484375-9.484375v-75.863281c0-5.238281-4.246094-9.484375-9.484375-9.484375h-75.867188c-5.238281 0-9.484375 4.246094-9.484375 9.484375v75.863281c0 5.238282 4.246094 9.484375 9.484375 9.484375zm9.484375-75.863281h56.898438v56.898438h-56.898438zm0 0"/>
		<path d="m313.054688 123.28125h18.964843v18.96875h-18.964843zm0 0"/>
		<path d="m275.121094 123.28125h18.964844v18.96875h-18.964844zm0 0"/>
		<path d="m237.1875 123.28125h18.964844v18.96875h-18.964844zm0 0"/>
	</symbol>

</svg>
