<svg width="152" height="37" viewBox="0 0 152 37" fill="none" xmlns="http://www.w3.org/2000/svg">
<path fill-rule="evenodd" clip-rule="evenodd" d="M148.034 36.9161H142.407C141.733 36.9429 141.059 36.8296 140.431 36.5835C139.802 36.3375 139.23 35.9638 138.75 35.4859C138.272 35.0079 137.896 34.436 137.647 33.8057C137.398 33.1755 137.282 32.5005 137.305 31.8229V8.22785H141.223V29.908C141.223 30.9597 141.375 32.0292 142.044 32.4125C142.674 32.6396 143.345 32.7213 144.01 32.6514H147.602V8.22785H151.519V36.9161H148.034ZM148.105 4.54049L146.16 4.5999H142.726L140.793 4.55057C140.725 4.52672 140.654 4.51532 140.582 4.51694C138.721 4.30842 138.929 2.19398 138.929 0.939453H149.895C149.898 2.22761 150.025 4.34765 148.105 4.54049ZM127.509 36.9161H122.778C122.104 36.9421 121.433 36.8284 120.804 36.5822C120.176 36.336 119.605 35.9627 119.127 35.4852C118.648 35.0079 118.273 34.4367 118.025 33.8074C117.776 33.1781 117.658 32.5041 117.68 31.8273V13.3446C117.658 12.6677 117.776 11.9934 118.024 11.3638C118.272 10.7343 118.648 10.1629 119.126 9.68527C119.604 9.20766 120.175 8.83406 120.804 8.58776C121.431 8.34145 122.104 8.22771 122.778 8.25363H127.509C128.183 8.22739 128.856 8.34089 129.484 8.58706C130.112 8.83323 130.683 9.20677 131.162 9.68442C131.64 10.1621 132.016 10.7336 132.265 11.3633C132.514 11.993 132.63 12.6675 132.609 13.3446V31.8285C132.63 32.5054 132.513 33.1795 132.263 33.8088C132.015 34.4381 131.639 35.0092 131.161 35.4864C130.682 35.9638 130.111 36.337 129.484 36.583C128.855 36.8289 128.183 36.9424 127.509 36.9161ZM128.692 15.2293C128.692 14.1799 128.54 13.1091 127.872 12.7258C127.242 12.4996 126.568 12.4189 125.903 12.4892H124.384C123.719 12.4189 123.047 12.4998 122.417 12.7258C121.747 13.1091 121.597 14.1832 121.597 15.2293V29.9013C121.597 30.9518 121.746 32.0213 122.417 32.4058C123.047 32.6297 123.719 32.7101 124.384 32.6413H125.903C126.568 32.7102 127.24 32.6298 127.872 32.4058C128.541 32.0213 128.692 30.9484 128.692 29.9013V15.2293ZM108.336 25.3003H103.145V36.9172H99.2266V8.25138H108.336C109.01 8.22531 109.682 8.33893 110.311 8.58517C110.939 8.83141 111.511 9.20497 111.989 9.6826C112.467 10.1602 112.842 10.7317 113.091 11.3613C113.34 11.991 113.457 12.6653 113.435 13.3423V20.2081C113.457 20.8853 113.34 21.5597 113.092 22.1895C112.843 22.8193 112.468 23.3909 111.989 23.8686C111.511 24.3464 110.94 24.7201 110.311 24.9664C109.683 25.2127 109.01 25.3264 108.336 25.3003ZM109.516 15.2326C109.516 14.1799 109.363 13.1103 108.698 12.7291C108.069 12.5015 107.397 12.4198 106.732 12.4903H103.145V21.0534H106.729C107.395 21.1237 108.068 21.0425 108.698 20.8158C109.368 20.4346 109.516 19.3639 109.516 18.3168V15.2337V15.2326ZM90.1092 36.9172H86.1885V12.4892H81.0387V8.22896H95.2601V12.4892H90.1092V36.9161V36.9172ZM73.2207 36.9172H69.2508C68.5772 36.943 67.9055 36.8292 67.2774 36.583C66.6495 36.3367 66.0787 35.9633 65.6007 35.486C65.1226 35.0086 64.7475 34.4375 64.4987 33.8083C64.2499 33.179 64.1328 32.5052 64.1546 31.8285V13.3502C64.133 12.6736 64.2502 11.9999 64.4991 11.3708C64.748 10.7417 65.123 10.1708 65.601 9.69351C66.0792 9.21629 66.6498 8.84297 67.2778 8.5968C67.9056 8.35062 68.5773 8.23686 69.2508 8.26259H73.2207C73.8943 8.23686 74.5658 8.35062 75.1938 8.5968C75.8216 8.84297 76.3924 9.21629 76.8704 9.69351C77.3484 10.1708 77.7236 10.7417 77.9724 11.3708C78.2213 11.9999 78.3385 12.6736 78.3169 13.3502V15.7416H74.4018V15.2293C74.4018 14.1788 74.2466 13.1091 73.5823 12.7258C72.9532 12.5007 72.2818 12.4202 71.6176 12.4903H70.8551C70.1913 12.4201 69.5201 12.5006 68.8914 12.7258C68.2215 13.1091 68.0731 14.1832 68.0731 15.2293V29.9035C68.0731 30.954 68.2204 32.0225 68.8914 32.407C69.5206 32.6303 70.1913 32.7102 70.8551 32.6413H71.6176C72.2817 32.7101 72.9528 32.63 73.5823 32.407C74.2522 32.0225 74.4018 30.9495 74.4018 29.9035V29.4271H78.3169V31.8273C78.3388 32.504 78.2215 33.178 77.9727 33.8072C77.724 34.4364 77.3489 35.0075 76.8709 35.4849C76.3928 35.9622 75.8221 36.3356 75.194 36.5818C74.5661 36.8281 73.8944 36.9418 73.2207 36.9161V36.9172ZM54.8563 25.1612H48.493V36.869H44.5499V8.22336H48.493V20.892H54.8563V8.22336H58.7725V36.8679H54.8563V25.1601V25.1612ZM34.0626 36.9172H29.3292C28.6556 36.943 27.9838 36.8292 27.3558 36.583C26.7279 36.3367 26.1571 35.9633 25.6791 35.486C25.2009 35.0086 24.8259 34.4375 24.5771 33.8083C24.3283 33.179 24.2112 32.5052 24.2329 31.8285V13.3446C24.2108 12.6678 24.3277 11.9936 24.5764 11.3641C24.8251 10.7346 25.2002 10.1633 25.6782 9.6857C26.1563 9.2081 26.7272 8.83448 27.3553 8.5881C27.9834 8.34173 28.6554 8.22787 29.3292 8.25363H34.0626C34.7367 8.22739 35.4091 8.34089 36.0376 8.58706C36.6662 8.83323 37.2375 9.20677 37.7159 9.68442C38.1943 10.1621 38.5697 10.7336 38.8185 11.3633C39.0673 11.993 39.1844 12.6675 39.1622 13.3446V31.8285C39.1839 32.5054 39.0665 33.1795 38.8175 33.8088C38.5685 34.4381 38.1931 35.0092 37.7146 35.4864C37.2362 35.9638 36.6651 36.337 36.0368 36.583C35.4085 36.8289 34.7365 36.9424 34.0626 36.9161V36.9172ZM35.2449 15.2326C35.2449 14.1799 35.0919 13.1103 34.4244 12.7291C33.7954 12.5015 33.1232 12.4199 32.4584 12.4903H30.9223C30.2575 12.4198 29.5853 12.5014 28.9563 12.7291C28.2865 13.1103 28.1359 14.1799 28.1359 15.2326V29.9013C28.1359 30.953 28.2865 32.0225 28.9563 32.4048C29.5859 32.63 30.2575 32.7113 30.9223 32.6424H32.4584C33.1232 32.7111 33.7948 32.6299 34.4244 32.4048C35.0942 32.0225 35.2449 30.9473 35.2449 29.9013V15.2314V15.2326ZM3.74856 32.6525H4.02096V13.3222C3.99833 12.6444 4.11511 11.9692 4.36402 11.3387C4.61292 10.7083 4.9886 10.1362 5.46759 9.65808C5.94659 9.18 6.51859 8.80625 7.14788 8.56016C7.77718 8.31408 8.45024 8.20095 9.12504 8.22785H18.238V32.6514H18.5462C21.0166 32.6514 22.181 34.5438 22.1308 36.9116H0.161645C0.112525 34.5438 1.27802 32.6514 3.74856 32.6514V32.6525ZM7.92716 32.6525H14.3162V12.4892H10.7125C10.0471 12.4182 9.37429 12.4991 8.74435 12.7258C8.07452 13.1091 7.92381 14.1832 7.92381 15.2314V32.6514L7.92716 32.6525Z" fill="#989898"/>
</svg>
