<svg width="113" height="27" viewBox="0 0 113 27" fill="none" xmlns="http://www.w3.org/2000/svg">
<path d="M4.78969 5.06056C4.79813 2.83398 6.34587 1.34109 9.06916 1.34109C10.6338 1.34109 12.1096 1.67614 13.5897 2.38016C14.6554 2.89333 15.2601 2.18083 15.6153 1.32412C13.5347 0.467416 11.4161 0.0390625 9.25947 0.0390625C4.78969 0.0390625 0.125376 1.53618 0.0957743 6.79942C0.0619444 13.9203 12.097 14.8236 12.3803 20.7527C12.5198 23.5816 10.507 25.1508 7.73712 25.1508C5.80882 25.1508 4.06658 24.7436 2.34547 23.8275C1.37708 23.3144 0.700484 23.9124 0.336813 24.7394C2.2482 25.8633 5.4409 26.4698 7.59335 26.4698C12.9173 26.4698 17.3448 24.311 17.1968 18.9757C16.9938 11.5792 4.7643 10.7352 4.79391 5.06479L4.78969 5.06056Z" fill="#989898"/>
<path d="M87.6308 26.4651C90.0624 26.4651 92.8449 25.6042 94.2321 24.3191C94.7648 23.8271 94.4899 23.1994 94.2279 22.9747C92.7013 24.1919 91.1197 24.7814 89.0856 24.7814C87.0515 24.7814 85.7534 24.1155 84.9204 22.7838C84.0872 21.4521 83.6433 19.3061 83.5713 16.3458H94.8832C94.9341 16.3458 94.972 16.3118 94.9804 16.261C95.0776 15.7859 95.1243 15.2728 95.1117 14.7172C95.0989 13.6527 94.9382 12.6815 94.638 11.8078C94.3377 10.9256 93.8896 10.1453 93.289 9.46668C92.6927 8.78385 91.9019 8.25794 90.9208 7.87626C89.9356 7.49455 88.794 7.30371 87.4956 7.30371C84.7892 7.30371 82.6623 8.19433 81.1229 9.97985C79.5751 11.7654 78.8268 14.1446 78.8731 17.1092C78.9069 19.48 79.4737 21.8296 80.979 23.7211C82.5902 25.7399 85.157 26.4651 87.6266 26.4651H87.6308ZM87.5845 8.34702C90.8066 8.35125 90.8999 12.4355 90.8829 14.9123L83.5458 15.4636C83.6433 12.8341 84.1506 8.34702 87.5845 8.34702Z" fill="#989898"/>
<path d="M105.248 15.4686L111.621 7.70312H109.435C109.236 7.70312 109.029 7.75402 108.898 7.95338L104.648 14.5738L103.574 13.0003C100.444 8.43685 100.711 7.70312 98.9136 7.70312H95.2557L102.009 17.5383L94.9893 26.0884H97.2052C97.4633 26.0884 97.6619 26.0078 97.7846 25.8212L102.622 18.4332L104.297 20.8379C107.316 25.1596 106.91 26.1181 109.181 26.0884H112.611L105.244 15.4686H105.248Z" fill="#989898"/>
<path d="M46.4934 23.9762V13.2165C46.4934 9.50126 45.102 7.30859 41.5542 7.30859C38.5561 7.30859 36.539 8.84389 34.9362 10.5743C34.3485 8.50882 32.9571 7.30859 30.2464 7.30859C27.7135 7.30859 25.6372 8.52157 23.9626 10.341V10.3155C23.9626 8.89476 23.73 7.71151 22.3599 7.71151H19.4717L19.6451 9.81087V23.9804L19.4717 26.0968H24.1698L23.9965 23.9804V11.3334C25.2989 10.218 26.8762 9.75571 28.1576 9.75571C30.623 9.75571 30.885 12.3471 30.885 14.298V23.9804L30.716 26.0968H35.4099L35.2365 23.9804V11.3334C36.3655 10.3368 37.9429 9.75571 39.4145 9.75571C41.9813 9.75571 42.1419 12.5803 42.1419 14.298V23.6072C42.1419 25.3631 42.6369 26.0925 43.7785 26.0925H46.6669L46.4934 23.9762Z" fill="#989898"/>
<path d="M71.6931 23.603C71.6931 25.1637 72.0568 26.0883 73.3297 26.0883H76.2177L76.0446 23.9889V13.2165C76.0446 9.53941 74.6574 7.30859 71.1054 7.30859C68.5891 7.30859 66.2212 8.50459 64.5211 10.3113C64.5211 8.89053 64.2885 7.70725 62.9183 7.70725H60.0303L60.2035 9.80661V23.9762L60.0303 26.0925H64.7239L64.5508 23.9762V11.3292C65.8955 10.2986 67.1472 9.75148 68.9612 9.75148C71.2406 9.75148 71.6889 11.8975 71.6889 14.2937V23.6072L71.6931 23.603Z" fill="#989898"/>
<path d="M53.1035 4.74673C54.3974 4.74673 55.4502 3.69067 55.4502 2.39289C55.4502 1.0951 54.4016 0.0390625 53.1035 0.0390625C51.8052 0.0390625 50.7607 1.09086 50.7607 2.39289C50.7607 3.6949 51.8136 4.74673 53.1035 4.74673Z" fill="#989898"/>
<path d="M50.9258 26.0881H55.6197L55.4463 23.9717V10.1881C55.4463 8.77154 55.1884 7.70703 53.8183 7.70703H50.93L51.1034 9.80639V23.976L50.93 26.0923L50.9258 26.0881Z" fill="#989898"/>
</svg>
