<svg xmlns="http://www.w3.org/2000/svg">

	<symbol id="i-sber" viewBox="0 0 201 21">
		<path d="M200.88 0.978516H0.879883V32.4071H200.88V0.978516Z" fill="white"/>
        <path d="M28.4109 7.03125C29.141 7.98787 29.7591 9.02717 30.2526 10.1283L16.2524 20.5875L10.4014 16.8704V12.3984L16.2524 16.1156L28.4109 7.03125Z"/>
        <path d="M4.43061 16.5546C4.43061 16.354 4.43544 16.1546 4.4451 15.9564L0.899195 15.7803C0.887126 16.0372 0.879887 16.2965 0.879887 16.5582C0.878379 18.6032 1.27527 20.6282 2.04779 22.5173C2.82032 24.4064 3.95327 26.1223 5.38166 27.5666L7.89686 25.0188C6.79734 23.909 5.92508 22.5899 5.33022 21.1373C4.73537 19.6847 4.42964 18.1273 4.43061 16.5546Z"/>
        <path d="M16.2501 4.57654C16.448 4.57654 16.6447 4.58389 16.8402 4.59367L17.0177 0.998826C16.7635 0.986595 16.5076 0.98048 16.2501 0.98048C14.2314 0.977985 12.2321 1.37964 10.367 2.16236C8.50194 2.9451 6.80779 4.0935 5.38184 5.54162L7.89704 8.09067C8.99218 6.97598 10.2939 6.09167 11.7275 5.48859C13.161 4.88552 14.6979 4.57555 16.2501 4.57654Z"/>
        <path d="M16.2501 28.5323C16.0522 28.5323 15.8555 28.5323 15.6588 28.5164L15.4814 32.1101C15.7364 32.1231 15.9927 32.1297 16.2501 32.1297C18.268 32.1318 20.2663 31.7299 22.1304 30.9469C23.9945 30.164 25.6876 29.0154 27.1124 27.5673L24.602 25.0195C23.5067 26.1336 22.2051 27.0174 20.7718 27.6202C19.3386 28.2231 17.8019 28.5331 16.2501 28.5323Z"/>
        <path d="M22.9122 6.66621L25.9005 4.43395C23.1691 2.19247 19.7597 0.972293 16.2451 0.978539V4.57583C18.625 4.57284 20.9497 5.30174 22.9122 6.66621Z"/>
        <path d="M31.6198 16.554C31.6217 15.6182 31.541 14.684 31.3784 13.7627L28.0703 16.2335C28.0703 16.34 28.0703 16.4464 28.0703 16.554C28.0712 18.2276 27.725 19.8827 27.0543 21.4121C26.3835 22.9414 25.4032 24.3108 24.1768 25.4316L26.5629 28.1043C28.1573 26.6455 29.4313 24.8635 30.3025 22.8738C31.1737 20.884 31.6225 18.7308 31.6198 16.554Z"/>
        <path d="M16.2494 28.5328C14.5979 28.5334 12.9647 28.1824 11.4554 27.5027C9.94625 26.823 8.59474 25.8295 7.48842 24.5869L4.85254 27.0038C6.29173 28.6199 8.05001 29.9114 10.0134 30.7945C11.9768 31.6775 14.1013 32.1326 16.2494 32.13V28.5328Z"/>
        <path d="M8.32412 7.6765L5.93926 5.00391C4.34441 6.46237 3.06986 8.24427 2.19826 10.2341C1.32668 12.2238 0.877507 14.3771 0.879892 16.5541H4.43062C4.42989 14.8806 4.77611 13.2255 5.44682 11.6961C6.11755 10.1668 7.09781 8.79737 8.32412 7.6765Z"/>
        <mask id="mask0_1_836" style="mask-type:luminance" maskUnits="userSpaceOnUse" x="39" y="6" width="162" height="21">
        <path d="M200.29 6.39746H39.8955V26.9886H200.29V6.39746Z" fill="white"/>
        </mask>
        <g mask="url(#mask0_1_836)">
        <path d="M89.5752 9.88595L93.9728 6.63965H79.2549V26.1471H93.9728V22.9008H83.4545V17.9039H92.4271V14.6576H83.4545V9.88595H89.5752Z"/>
        <path d="M69.3528 14.2395H64.2431V9.88507H72.398L76.793 6.62891H60.0459V26.1363H68.8123C73.7271 26.1363 76.5478 23.9044 76.5478 20.0118C76.5478 16.2879 73.993 14.2395 69.3528 14.2395ZM68.6233 22.889H64.2431V17.4838H68.6233C71.2815 17.4838 72.5279 18.3896 72.5279 20.1864C72.5279 21.9832 71.2017 22.889 68.6233 22.889Z"/>
        <path d="M104.792 6.6377H96.7803V26.145H100.979V20.6189H104.792C109.903 20.6189 113.065 17.924 113.065 13.6179C113.065 9.31193 109.903 6.6377 104.792 6.6377ZM104.703 17.3702H100.979V9.88647H104.703C107.392 9.88647 108.876 11.2162 108.876 13.6298C108.876 16.0434 107.392 17.3702 104.703 17.3702Z"/>
        <path d="M53.7438 21.5411C52.659 22.1297 51.4437 22.4344 50.2103 22.4272C46.5185 22.4272 43.8403 19.7863 43.8403 16.1499C43.8403 12.5133 46.5185 9.86668 50.2103 9.86668C51.5416 9.84402 52.8453 10.2485 53.9309 11.0212L56.8683 8.85364L56.6696 8.71222C54.9562 7.20277 52.6667 6.40332 50.0462 6.40332C47.2038 6.40332 44.6265 7.36151 42.7863 9.10474C41.8558 10.0023 41.12 11.0824 40.6245 12.2777C40.129 13.4729 39.8846 14.7576 39.9066 16.0517C39.8868 17.3589 40.1302 18.6567 40.622 19.8677C41.1138 21.0786 41.844 22.1778 42.769 23.0997C44.6178 24.9121 47.1894 25.9107 50.0116 25.9107C52.9605 25.9107 55.5379 24.8803 57.283 23.0044L54.6538 21.0419L53.7438 21.5411Z"/>
        <path d="M129.717 14.2395H124.609V9.88507H135.585V6.62891H120.409V26.1363H129.165C134.079 26.1363 136.9 23.9044 136.9 20.0118C136.911 16.2879 134.357 14.2395 129.717 14.2395ZM128.987 22.889H124.609V17.4838H128.987C131.645 17.4838 132.891 18.3896 132.891 20.1864C132.891 21.9832 131.577 22.889 128.987 22.889Z"/>
        <path d="M184.639 26.108H180.382V6.60059H184.639V14.7938H186.956L193.213 6.60059H198.038L190.616 15.8805L199.234 26.108H193.586L187.251 18.4359H184.639V26.108Z"/>
        <path d="M152.365 22.4009H143.359L141.832 26.189H137.302L145.749 6.68164H150.278L158.588 26.189H153.891L152.365 22.4009ZM150.954 18.8663L147.889 11.29L144.806 18.8663H150.954Z"/>
        <path d="M164.32 6.68164V14.8275H173.13V6.68164H177.519V26.189H173.13V18.5024H164.32V26.189H159.931V6.68164H164.32Z"/>
        </g>
	</symbol>

	<symbol id="i-pik" viewBox="0 0 79 25">
        <path d="M0.981445 24.3209V0.617188H23.9933V24.3209H17.3518V6.49571H7.62293V24.3209H0.981445ZM43.6081 10.6039L32.9829 24.3209H27.0822V0.617188H33.7237V14.3342L44.3489 0.617188H50.2496V24.3209H43.6081V10.6039ZM59.9785 14.7757V24.3209H53.3385V0.617188H59.98V10.4468L67.9177 0.617188H75.6703L66.2185 12.1209L78.0185 24.3209H69.0911L59.9785 14.7757Z"/>
	</symbol>

	<symbol id="i-samolet" viewBox="0 0 165 23">
        <path d="M47.1152 1.16113H54.4558L60.3734 16.7902L66.2426 1.16113H73.3245V21.9998H68.6194V6.06436L62.4915 21.9998H57.6571L51.5293 6.16113V21.9998H47.1314V1.16113H47.1152Z"/>
        <path d="M104.045 1.16113H120.229V21.9998H115.217V5.54823H108.62C108.572 8.48372 108.491 12.3869 108.41 14.5966C108.232 20.0644 106.648 21.9998 101.943 21.9998H99.6953V17.6127H100.94C103.058 17.6127 103.737 16.6611 103.883 13.6934C103.996 10.4998 104.045 4.17726 104.045 1.16113Z"/>
        <path d="M145.824 1.16113H164.855V5.54823H157.821V21.9998H152.858V5.54823H145.824V1.16113Z"/>
        <path d="M34.1486 0.725586H32.3539C28.053 0.725586 24.787 3.33849 24.0432 7.22559L28.6189 7.95139C29.2495 6.09655 30.6885 4.83849 32.4994 4.75784C33.0815 4.72559 32.9521 4.74171 33.5342 4.75784C36.2343 4.85462 37.4631 6.14494 37.4631 9.33849C32.3377 9.33849 28.8453 9.09655 26.2583 10.7901C24.1564 12.1772 23.251 13.7095 23.251 16.1288C23.251 19.6449 25.9835 22.4191 30.3975 22.4191C31.0927 22.4191 30.8017 22.4191 31.0119 22.4191C34.1324 22.4191 36.6547 21.2095 37.6733 19.7417V21.9837H42.2814V9.41913C42.2975 4.59655 39.6944 0.725586 34.1486 0.725586ZM31.3352 18.3546C29.3789 18.3062 28.2471 17.1611 28.2471 15.7417C28.2471 14.5643 28.7806 13.9837 29.492 13.5643C30.2358 13.1288 31.2059 12.9836 32.6934 12.9353C34.1324 12.8869 35.3127 12.8224 37.544 12.8224C37.544 16.3707 35.2965 18.1611 32.5156 18.3546C32.079 18.3869 31.8041 18.3707 31.3352 18.3546Z"/>
        <path d="M144.66 12.9836V11.0319C144.66 4.30614 140.424 0.822266 134.959 0.822266H133.892C128.006 0.822266 124.255 4.82227 124.061 10.4674C124.029 11.29 124.029 11.6448 124.061 12.7739C124.207 18.4029 128.152 22.1771 133.423 22.3223C134.393 22.3545 134.264 22.3545 135.185 22.3223C139.777 22.1932 143.253 19.5481 144.288 16.0965L139.842 15.3223C138.759 17.4836 136.689 18.3223 135.024 18.4029C134.506 18.4352 134.425 18.419 133.892 18.4029C131.289 18.29 128.977 16.2739 128.977 13.3223V12.9836H144.66ZM133.811 4.75775C134.328 4.72549 134.522 4.72549 135.04 4.75775C137.223 4.87065 139.518 6.27388 139.745 9.09646H128.993C129.251 6.58033 131.273 4.90291 133.811 4.75775Z"/>
        <path d="M98.3215 9.74209C98.2083 4.69371 94.1338 0.838867 88.7497 0.838867H86.7933C81.4092 0.838867 77.3347 4.69371 77.2215 9.77435C77.1892 11.1776 77.1892 12.0002 77.2215 13.4034C77.3347 18.4679 81.4092 22.3389 86.7933 22.3389H88.7497C94.1338 22.3389 98.2083 18.484 98.3215 13.4034C98.3376 11.984 98.3376 11.1453 98.3215 9.74209ZM93.3901 13.1453C93.3254 16.0969 91.1911 18.0969 88.297 18.2421C87.7472 18.2744 87.7796 18.2744 87.2298 18.2421C84.3195 18.0969 82.2014 16.0969 82.1368 13.1453C82.1044 11.9195 82.1044 11.226 82.1368 10.0002C82.2014 7.0808 84.3195 5.0808 87.2298 4.93564C87.7796 4.90338 87.7472 4.90338 88.297 4.93564C91.1911 5.0808 93.3254 7.0808 93.3901 10.0324C93.4224 11.2421 93.4224 11.9195 93.3901 13.1453Z"/>
        <path d="M15.4897 14.6453C14.9077 16.5808 13.3555 17.9034 11.2536 18.1937C10.6553 18.2744 10.0571 18.2582 9.57204 18.1937C6.96891 17.8227 5.14186 15.8873 5.07719 13.1453C5.04485 11.9195 5.04485 11.226 5.07719 10.0002C5.14186 7.24209 7.06592 5.22596 9.71756 4.93564C9.86308 4.91951 10.4451 4.87113 11.011 4.91951C13.2423 5.16145 14.9238 6.50016 15.5221 8.51629L20.3726 7.5808C19.3217 3.64532 15.7323 0.838867 11.1404 0.838867H9.7499C4.3496 0.838867 0.275128 4.69371 0.161948 9.75822C0.129611 11.1614 0.129611 11.984 0.161948 13.3873C0.275128 18.4518 4.3496 22.3227 9.73373 22.3227H11.1242C15.8131 22.3227 19.4349 19.4034 20.3888 15.3066L15.4897 14.6453Z"/>
	</symbol>


	<symbol id="i-fsk" viewBox="0 0 112 51">
        <path d="M82.0364 28.396C81.5555 28.9321 80.9684 29.3607 80.3131 29.6541C79.6578 29.9474 78.9487 30.0991 78.2316 30.0992C76.8812 30.0752 75.5941 29.5176 74.6475 28.5464C73.7008 27.5752 73.1704 26.268 73.1704 24.9065C73.1704 23.5449 73.7008 22.2378 74.6475 21.2666C75.5941 20.2954 76.8812 19.7377 78.2316 19.7137C79.342 19.7137 80.3692 20.0734 81.2124 20.6766L84.0204 16.696C82.3312 15.4801 80.3073 14.8266 78.2316 14.8266C75.5795 14.8266 73.0359 15.8887 71.1606 17.7792C69.2852 19.6697 68.2316 22.2337 68.2316 24.9073C68.2316 27.5808 69.2852 30.1449 71.1606 32.0354C73.0359 33.9259 75.5795 34.9879 78.2316 34.9879C80.6846 34.986 83.0508 34.073 84.878 32.4234L82.0364 28.396ZM59.2988 15.425L56.502 19.396C57.9073 19.5374 59.2047 20.2185 60.1252 21.2981C61.0458 22.3777 61.5189 23.773 61.4465 25.1947C61.3741 26.6165 60.7617 27.9556 59.7363 28.9345C58.7108 29.9134 57.3511 30.4569 55.9389 30.4524V10.4492H51.2812V14.8266C49.968 14.8266 48.6677 15.0874 47.4544 15.594C46.2412 16.1006 45.1388 16.8431 44.2102 17.7792C43.2816 18.7153 42.545 19.8265 42.0425 21.0496C41.5399 22.2726 41.2812 23.5835 41.2812 24.9073C41.2812 26.2311 41.5399 27.5419 42.0425 28.765C42.545 29.988 43.2816 31.0993 44.2102 32.0354C45.1388 32.9714 46.2412 33.714 47.4544 34.2206C48.6677 34.7272 49.968 34.9879 51.2812 34.9879V39.525H55.9389V34.9863C58.2958 34.9903 60.5782 34.1542 62.3827 32.6256C64.1872 31.0971 65.3975 28.9747 65.7996 26.6336C66.2017 24.2925 65.7698 21.8834 64.5802 19.8323C63.3906 17.7812 61.5199 16.2201 59.2988 15.425ZM45.7788 24.9073C45.7788 24.1794 45.9211 23.4586 46.1975 22.7861C46.4739 22.1136 46.879 21.5026 47.3896 20.988C47.9003 20.4733 48.5065 20.0652 49.1737 19.7867C49.8409 19.5083 50.556 19.3651 51.278 19.3653V30.4492C50.556 30.4494 49.8411 30.3062 49.174 30.0278C48.5069 29.7494 47.9007 29.3412 47.3902 28.8265C46.8796 28.3118 46.4747 27.7008 46.1985 27.0283C45.9223 26.3559 45.7802 25.6351 45.7805 24.9073H45.7788ZM92.8396 34.5831H87.75V15.2283H92.838L92.8396 34.5831ZM93.4844 24.9057L100.369 15.2283H105.665L98.7244 24.767L106.03 34.5831H100.66L93.4844 24.9057Z"/>
        <path d="M13.819 17.666H33.8622C32.8682 15.4183 31.4246 13.4017 29.6219 11.7423C27.8191 10.083 25.696 8.81658 23.3854 8.02246L13.8174 17.666H13.819Z"/>
        <path d="M34.856 20.5029H10.424C10.145 20.5033 9.87212 20.4202 9.64003 20.2641C9.40795 20.108 9.22711 19.8859 9.12048 19.626C9.01385 19.366 8.98623 19.08 9.04112 18.8043C9.09602 18.5285 9.23095 18.2754 9.4288 18.0771L20.176 7.2448C19.3554 7.12821 18.5279 7.06893 17.6992 7.06738C7.9232 7.06738 0 15.0545 0 24.9093C0 26.2271 0.1472 27.5109 0.416 28.7513H25.1088C25.3878 28.7508 25.6607 28.8339 25.8928 28.99C26.1249 29.1461 26.3057 29.3683 26.4123 29.6282C26.5189 29.8881 26.5466 30.1741 26.4917 30.4499C26.4368 30.7256 26.3019 30.9787 26.104 31.1771L14.8528 42.519C15.7808 42.6706 16.728 42.7529 17.696 42.7529C27.472 42.7529 35.3952 34.7658 35.3952 24.9125C35.4016 23.3884 35.2112 21.9125 34.856 20.5029Z"/>
        <path d="M21.7249 31.5947H1.30566C2.24054 33.9184 3.64949 36.018 5.44113 37.7574C7.23277 39.4968 9.36709 40.8371 11.7057 41.6915L21.7249 31.5947Z"/>
	</symbol>


	<symbol id="i-donstroy" viewBox="0 0 152 37">
        <path fill-rule="evenodd" clip-rule="evenodd" d="M148.034 36.9161H142.407C141.733 36.9429 141.059 36.8296 140.431 36.5835C139.802 36.3375 139.23 35.9638 138.75 35.4859C138.272 35.0079 137.896 34.436 137.647 33.8057C137.398 33.1755 137.282 32.5005 137.305 31.8229V8.22785H141.223V29.908C141.223 30.9597 141.375 32.0292 142.044 32.4125C142.674 32.6396 143.345 32.7213 144.01 32.6514H147.602V8.22785H151.519V36.9161H148.034ZM148.105 4.54049L146.16 4.5999H142.726L140.793 4.55057C140.725 4.52672 140.654 4.51532 140.582 4.51694C138.721 4.30842 138.929 2.19398 138.929 0.939453H149.895C149.898 2.22761 150.025 4.34765 148.105 4.54049ZM127.509 36.9161H122.778C122.104 36.9421 121.433 36.8284 120.804 36.5822C120.176 36.336 119.605 35.9627 119.127 35.4852C118.648 35.0079 118.273 34.4367 118.025 33.8074C117.776 33.1781 117.658 32.5041 117.68 31.8273V13.3446C117.658 12.6677 117.776 11.9934 118.024 11.3638C118.272 10.7343 118.648 10.1629 119.126 9.68527C119.604 9.20766 120.175 8.83406 120.804 8.58776C121.431 8.34145 122.104 8.22771 122.778 8.25363H127.509C128.183 8.22739 128.856 8.34089 129.484 8.58706C130.112 8.83323 130.683 9.20677 131.162 9.68442C131.64 10.1621 132.016 10.7336 132.265 11.3633C132.514 11.993 132.63 12.6675 132.609 13.3446V31.8285C132.63 32.5054 132.513 33.1795 132.263 33.8088C132.015 34.4381 131.639 35.0092 131.161 35.4864C130.682 35.9638 130.111 36.337 129.484 36.583C128.855 36.8289 128.183 36.9424 127.509 36.9161ZM128.692 15.2293C128.692 14.1799 128.54 13.1091 127.872 12.7258C127.242 12.4996 126.568 12.4189 125.903 12.4892H124.384C123.719 12.4189 123.047 12.4998 122.417 12.7258C121.747 13.1091 121.597 14.1832 121.597 15.2293V29.9013C121.597 30.9518 121.746 32.0213 122.417 32.4058C123.047 32.6297 123.719 32.7101 124.384 32.6413H125.903C126.568 32.7102 127.24 32.6298 127.872 32.4058C128.541 32.0213 128.692 30.9484 128.692 29.9013V15.2293ZM108.336 25.3003H103.145V36.9172H99.2266V8.25138H108.336C109.01 8.22531 109.682 8.33893 110.311 8.58517C110.939 8.83141 111.511 9.20497 111.989 9.6826C112.467 10.1602 112.842 10.7317 113.091 11.3613C113.34 11.991 113.457 12.6653 113.435 13.3423V20.2081C113.457 20.8853 113.34 21.5597 113.092 22.1895C112.843 22.8193 112.468 23.3909 111.989 23.8686C111.511 24.3464 110.94 24.7201 110.311 24.9664C109.683 25.2127 109.01 25.3264 108.336 25.3003ZM109.516 15.2326C109.516 14.1799 109.363 13.1103 108.698 12.7291C108.069 12.5015 107.397 12.4198 106.732 12.4903H103.145V21.0534H106.729C107.395 21.1237 108.068 21.0425 108.698 20.8158C109.368 20.4346 109.516 19.3639 109.516 18.3168V15.2337V15.2326ZM90.1092 36.9172H86.1885V12.4892H81.0387V8.22896H95.2601V12.4892H90.1092V36.9161V36.9172ZM73.2207 36.9172H69.2508C68.5772 36.943 67.9055 36.8292 67.2774 36.583C66.6495 36.3367 66.0787 35.9633 65.6007 35.486C65.1226 35.0086 64.7475 34.4375 64.4987 33.8083C64.2499 33.179 64.1328 32.5052 64.1546 31.8285V13.3502C64.133 12.6736 64.2502 11.9999 64.4991 11.3708C64.748 10.7417 65.123 10.1708 65.601 9.69351C66.0792 9.21629 66.6498 8.84297 67.2778 8.5968C67.9056 8.35062 68.5773 8.23686 69.2508 8.26259H73.2207C73.8943 8.23686 74.5658 8.35062 75.1938 8.5968C75.8216 8.84297 76.3924 9.21629 76.8704 9.69351C77.3484 10.1708 77.7236 10.7417 77.9724 11.3708C78.2213 11.9999 78.3385 12.6736 78.3169 13.3502V15.7416H74.4018V15.2293C74.4018 14.1788 74.2466 13.1091 73.5823 12.7258C72.9532 12.5007 72.2818 12.4202 71.6176 12.4903H70.8551C70.1913 12.4201 69.5201 12.5006 68.8914 12.7258C68.2215 13.1091 68.0731 14.1832 68.0731 15.2293V29.9035C68.0731 30.954 68.2204 32.0225 68.8914 32.407C69.5206 32.6303 70.1913 32.7102 70.8551 32.6413H71.6176C72.2817 32.7101 72.9528 32.63 73.5823 32.407C74.2522 32.0225 74.4018 30.9495 74.4018 29.9035V29.4271H78.3169V31.8273C78.3388 32.504 78.2215 33.178 77.9727 33.8072C77.724 34.4364 77.3489 35.0075 76.8709 35.4849C76.3928 35.9622 75.8221 36.3356 75.194 36.5818C74.5661 36.8281 73.8944 36.9418 73.2207 36.9161V36.9172ZM54.8563 25.1612H48.493V36.869H44.5499V8.22336H48.493V20.892H54.8563V8.22336H58.7725V36.8679H54.8563V25.1601V25.1612ZM34.0626 36.9172H29.3292C28.6556 36.943 27.9838 36.8292 27.3558 36.583C26.7279 36.3367 26.1571 35.9633 25.6791 35.486C25.2009 35.0086 24.8259 34.4375 24.5771 33.8083C24.3283 33.179 24.2112 32.5052 24.2329 31.8285V13.3446C24.2108 12.6678 24.3277 11.9936 24.5764 11.3641C24.8251 10.7346 25.2002 10.1633 25.6782 9.6857C26.1563 9.2081 26.7272 8.83448 27.3553 8.5881C27.9834 8.34173 28.6554 8.22787 29.3292 8.25363H34.0626C34.7367 8.22739 35.4091 8.34089 36.0376 8.58706C36.6662 8.83323 37.2375 9.20677 37.7159 9.68442C38.1943 10.1621 38.5697 10.7336 38.8185 11.3633C39.0673 11.993 39.1844 12.6675 39.1622 13.3446V31.8285C39.1839 32.5054 39.0665 33.1795 38.8175 33.8088C38.5685 34.4381 38.1931 35.0092 37.7146 35.4864C37.2362 35.9638 36.6651 36.337 36.0368 36.583C35.4085 36.8289 34.7365 36.9424 34.0626 36.9161V36.9172ZM35.2449 15.2326C35.2449 14.1799 35.0919 13.1103 34.4244 12.7291C33.7954 12.5015 33.1232 12.4199 32.4584 12.4903H30.9223C30.2575 12.4198 29.5853 12.5014 28.9563 12.7291C28.2865 13.1103 28.1359 14.1799 28.1359 15.2326V29.9013C28.1359 30.953 28.2865 32.0225 28.9563 32.4048C29.5859 32.63 30.2575 32.7113 30.9223 32.6424H32.4584C33.1232 32.7111 33.7948 32.6299 34.4244 32.4048C35.0942 32.0225 35.2449 30.9473 35.2449 29.9013V15.2314V15.2326ZM3.74856 32.6525H4.02096V13.3222C3.99833 12.6444 4.11511 11.9692 4.36402 11.3387C4.61292 10.7083 4.9886 10.1362 5.46759 9.65808C5.94659 9.18 6.51859 8.80625 7.14788 8.56016C7.77718 8.31408 8.45024 8.20095 9.12504 8.22785H18.238V32.6514H18.5462C21.0166 32.6514 22.181 34.5438 22.1308 36.9116H0.161645C0.112525 34.5438 1.27802 32.6514 3.74856 32.6514V32.6525ZM7.92716 32.6525H14.3162V12.4892H10.7125C10.0471 12.4182 9.37429 12.4991 8.74435 12.7258C8.07452 13.1091 7.92381 14.1832 7.92381 15.2314V32.6514L7.92716 32.6525Z"/>
	</symbol>

	<symbol id="i-etalon" viewBox="0 0 136 24">
        <path d="M6.09383 9.7178L6.14169 14.1873H13.6688L15.405 9.7178H6.09383ZM22.7008 0.457145V4.90268H28.5502V23.4825H32.9957V4.90268H38.8132V0.457145H22.7008ZM0.78418 3.88967L3.93487 7.04037C5.21376 5.72692 7.00049 4.91066 8.9813 4.91066C12.8711 4.91066 16.0245 8.06402 16.0245 11.9539C16.0245 15.8437 12.8711 18.9971 8.9813 18.9971C7.00314 18.9971 5.21376 18.1808 3.93487 16.8647L0.78418 20.0154C2.87135 22.1371 5.77211 23.4506 8.9813 23.4506C15.3305 23.4506 20.4807 18.3031 20.4807 11.9539C20.4807 5.60461 15.3332 0.457145 8.9813 0.457145C5.77211 0.457145 2.87135 1.77326 0.78418 3.89234M47.7548 0.438536L38.8132 23.4692H43.5645L45.314 18.9598H51.5968L53.333 14.4904H47.0502L50.2089 6.35705L56.8532 23.4692H61.6045L52.6629 0.438536H47.7548ZM72.7689 0.438536L63.8273 23.4692H68.5786L75.223 6.35705L81.8674 23.4692H86.6187L77.6771 0.438536H72.7689ZM115.419 0.438536V23.4692H119.918V14.1899H129.41L131.146 9.72045H119.918V0.441193H115.419V0.438536ZM131.223 0.438536L131.215 10.7866V23.4692H135.719V0.438536H131.223ZM92.4335 11.9166C92.4335 8.02679 95.5868 4.87344 99.4767 4.87344C103.367 4.87344 106.52 8.02679 106.52 11.9166C106.52 15.8065 103.367 18.9598 99.4767 18.9598C95.5868 18.9598 92.4335 15.8065 92.4335 11.9166ZM87.9773 11.9166C87.9773 18.2659 93.1248 23.4133 99.474 23.4133C105.823 23.4133 110.973 18.2659 110.973 11.9166C110.973 5.56739 105.826 0.419922 99.474 0.419922C93.1221 0.419922 87.9773 5.56739 87.9773 11.9166Z" qq/>
	</symbol>


	<symbol id="i-ingrad" viewBox="0 0 115 57">
        <path d="M96.6944 34.4443C96.6944 36.054 96.6944 37.6551 96.6944 39.2648C96.6944 39.5448 96.6856 39.7811 97.0793 39.7723C98.173 39.7374 99.284 39.8073 100.378 39.7023C101.996 39.5448 103.308 38.81 103.991 37.2264C104.603 35.8091 104.638 34.3131 104.341 32.8082C103.921 30.7085 102.495 29.4049 100.395 29.2387C99.3365 29.1512 98.2691 29.195 97.2018 29.1425C96.7731 29.1249 96.6856 29.2825 96.6856 29.6849C96.7031 31.2772 96.6856 32.8608 96.6856 34.4531M93.1161 26.0279C93.1161 26.0279 93.1774 25.9928 93.1861 25.9928C96.1694 26.0191 99.1791 25.6429 102.127 26.2553C105.128 26.8765 107.263 28.915 107.919 32.1258C108.357 34.2693 108.252 36.3515 107.42 38.3812C106.581 40.4285 105.076 41.7845 103.02 42.4145C101.917 42.7556 100.736 42.9132 99.5815 42.9656C97.5605 43.0531 95.5221 42.9919 93.4923 42.9919C93.3785 42.9919 93.2561 42.9744 93.0986 42.9656V26.0191L93.1161 26.0279Z"/>
        <path d="M61.6223 33.9641C62.7858 33.9641 63.8795 33.9641 64.9731 33.9641C65.2617 33.9641 65.5592 33.9641 65.8392 33.9116C67.2653 33.6317 67.9914 32.7655 67.9302 31.4357C67.8777 30.1671 67.0727 29.3272 65.638 29.2223C64.4218 29.126 63.197 29.1785 61.981 29.1522C61.7097 29.1522 61.6135 29.2573 61.6223 29.5197C61.6223 30.1846 61.6223 30.8496 61.6223 31.5145V33.9729V33.9641ZM72.9432 42.9929C71.5259 42.9929 70.2398 42.9929 68.9625 42.9841C68.84 42.9841 68.6913 42.8529 68.6038 42.7392C67.2477 40.9632 65.9004 39.1697 64.5269 37.4024C64.3781 37.2099 64.0631 37.0612 63.8094 37.0349C63.2495 36.9825 61.6397 37.0087 61.6397 37.0087C61.6397 37.0087 61.6223 37.1487 61.6223 37.5249C61.6397 39.1172 61.6223 40.7007 61.6223 42.293V42.9492H58.0527V25.9939C58.1927 25.9764 58.3152 25.9502 58.4289 25.9502C60.8873 25.9502 63.3458 25.9414 65.8042 25.9764C67.0378 25.9939 68.2101 26.3263 69.2862 26.9738C70.7473 27.8487 71.4472 29.196 71.5609 30.8496C71.6134 31.5844 71.5609 32.3544 71.3947 33.0805C71.0447 34.664 70.0123 35.6876 68.5688 36.3176C68.3851 36.3963 68.2014 36.4838 67.9564 36.5975C69.6012 38.7147 71.2285 40.8057 72.9257 42.9929"/>
        <path d="M82.6872 29.6602C81.7948 32.0223 80.9112 34.367 80.0101 36.7555H85.3994C84.4895 34.367 83.5971 32.0223 82.696 29.6602M91.4623 42.9847C90.2637 42.9847 89.1264 42.9934 87.9978 42.9759C87.8753 42.9759 87.7003 42.7747 87.6391 42.6259C87.3154 41.8386 87.0092 41.0424 86.7292 40.2375C86.6242 39.9313 86.4755 39.8088 86.1343 39.8088C83.8596 39.8263 81.5936 39.8263 79.319 39.8088C78.969 39.8088 78.8027 39.9225 78.689 40.2637C78.4003 41.0774 78.0591 41.8823 77.7267 42.6871C77.6742 42.8097 77.508 42.9759 77.3942 42.9847C76.2568 43.0109 75.1283 42.9934 73.9209 42.9934C74.3058 42.0135 74.6645 41.0949 75.032 40.1762C76.878 35.5832 78.7415 30.99 80.5875 26.3881C80.7188 26.0644 80.8762 25.9419 81.2262 25.9506C82.241 25.9682 83.2559 25.9594 84.2708 25.9506C84.5332 25.9506 84.6994 25.9944 84.822 26.2831C87.0004 31.7424 89.1963 37.1929 91.3836 42.6434C91.4098 42.7222 91.4273 42.8009 91.4799 42.9759"/>
        <path d="M26.8302 43.0019H23.252V26.0029C24.3543 26.0029 25.4305 26.0029 26.5066 26.0117C26.6203 26.0117 26.7515 26.1779 26.839 26.3004C29.0699 29.4674 31.2922 32.6346 33.5231 35.8017C33.7943 36.1778 34.0656 36.5541 34.3981 37.0177V26.0205H37.9413V43.0194C36.8565 43.0194 35.7803 43.0282 34.7043 43.0019C34.5817 43.0019 34.433 42.8095 34.3368 42.6782C31.9483 39.2837 29.5599 35.8891 27.1802 32.4946C27.1015 32.3721 26.9965 32.2671 26.8302 32.0746V43.0019Z"/>
        <path d="M18.4202 26.0195H14.877V42.9749H18.4202V26.0195Z"/>
        <path d="M54.3772 33.6838C54.3772 33.5613 54.3508 33.3513 54.1234 33.3513C54.0271 33.3513 53.9396 33.3513 53.8521 33.3513H53.406C52.6099 33.3338 51.805 33.3426 50.9651 33.3426H48.0692V36.6409H50.9563C50.9563 37.4982 50.9563 38.3469 50.9738 39.1343C50.9563 40.0529 50.6239 40.0529 50.0552 40.1667C49.6352 40.2454 49.154 40.2454 48.4629 40.1929C47.0019 40.0704 45.6632 39.598 44.6659 38.4256C43.791 37.4021 43.5286 36.1509 43.4411 34.8299C43.2836 32.3014 44.6571 30.1842 47.0281 29.4318C49.294 28.7145 51.4638 29.0469 53.5547 30.1142C53.6685 30.1754 53.7822 30.2192 53.9747 30.3067C53.9747 29.3006 53.9572 28.3732 53.9834 27.4458C54.0009 27.0609 53.8784 26.8597 53.5197 26.7285C51.2188 25.8535 48.874 25.5561 46.4594 26.0985C44.6747 26.501 43.0824 27.2796 41.8576 28.6882C39.8191 31.0329 39.4516 33.8324 40.0115 36.7633C40.6502 40.1054 42.7674 42.1351 45.9694 43.01C48.7166 43.7624 52.0674 43.4474 54.0184 42.3976C54.1671 42.3364 54.3508 42.1177 54.3508 41.9689C54.3684 39.388 54.3684 36.2822 54.3508 33.7012"/>
        <path d="M37.9368 1.18164L6.78223 17.8919V51.0676H37.9368V47.5242H10.3255V20.0091L34.3936 7.1046V21.4789H37.9368V1.18164Z"/>
	</symbol>

	<symbol id="i-composite" viewBox="0 0 292 33">
        <path d="M45.3584 25.3986H48.0813C48.7872 25.3986 49.4092 25.5331 49.9469 25.8188C50.4848 26.1046 50.905 26.4911 51.2076 26.9954C51.5101 27.4997 51.6614 28.071 51.6614 28.7266C51.6614 29.3821 51.5101 29.9536 51.2076 30.4578C50.905 30.9621 50.4848 31.3654 49.9469 31.6343C49.4092 31.9202 48.7872 32.0546 48.0813 32.0546H45.3584V25.3818V25.3986ZM48.0308 31.4663C48.6192 31.4663 49.1233 31.3487 49.5604 31.1133C49.9974 30.878 50.3335 30.5587 50.5857 30.1552C50.8209 29.7519 50.9555 29.2813 50.9555 28.7434C50.9555 28.2055 50.8378 27.7349 50.5857 27.3315C50.3504 26.9282 49.9974 26.6087 49.5604 26.3734C49.1233 26.1382 48.6023 26.0205 48.0308 26.0205H46.0643V31.4663H48.0308Z"/>
        <path d="M75.1098 31.4671V32.0721H70.3867V25.3994H74.9585V26.0045H71.0926V28.3744H74.5383V28.9795H71.0926V31.4503H75.1098V31.4671Z"/>
        <path d="M99.3791 25.3994L96.4209 32.0721H95.7317L92.7734 25.3994H93.5298L96.0847 31.1981L98.6564 25.3994H99.3791Z"/>
        <path d="M122.238 31.4671V32.0721H117.515V25.3994H122.086V26.0045H118.221V28.3744H121.666V28.9795H118.221V31.4503H122.238V31.4671Z"/>
        <path d="M141.046 25.3994H141.752V31.4671H145.483V32.0721H141.046V25.3994Z"/>
        <path d="M164.815 31.7015C164.276 31.399 163.856 30.9957 163.553 30.4914C163.251 29.9872 163.1 29.3989 163.1 28.7602C163.1 28.1215 163.251 27.5333 163.553 27.029C163.856 26.5247 164.276 26.1046 164.815 25.8188C165.351 25.5162 165.956 25.3818 166.612 25.3818C167.268 25.3818 167.873 25.5331 168.394 25.8188C168.915 26.1046 169.335 26.5079 169.655 27.029C169.958 27.55 170.109 28.1215 170.109 28.777C170.109 29.4325 169.958 30.0039 169.655 30.5251C169.353 31.0461 168.932 31.4495 168.394 31.7353C167.856 32.021 167.268 32.1722 166.612 32.1722C165.956 32.1722 165.351 32.021 164.815 31.7353V31.7015ZM168.041 31.1638C168.461 30.9285 168.797 30.5923 169.05 30.1721C169.284 29.7519 169.42 29.2813 169.42 28.7602C169.42 28.2391 169.302 27.7686 169.05 27.3484C168.797 26.9282 168.479 26.592 168.041 26.3567C167.62 26.1213 167.133 26.0037 166.612 26.0037C166.092 26.0037 165.604 26.1213 165.184 26.3567C164.746 26.592 164.41 26.9282 164.176 27.3484C163.94 27.7686 163.805 28.2391 163.805 28.7602C163.805 29.2813 163.923 29.7519 164.176 30.1721C164.428 30.5923 164.764 30.9285 165.184 31.1638C165.62 31.3991 166.092 31.5167 166.612 31.5167C167.133 31.5167 167.62 31.3991 168.041 31.1638Z"/>
        <path d="M193.369 26.0211C193.856 26.4245 194.092 26.9792 194.092 27.702C194.092 28.4247 193.856 28.9794 193.369 29.3827C192.882 29.7862 192.226 29.9878 191.369 29.9878H189.57V32.0889H188.864V25.416H191.369C192.226 25.416 192.882 25.6178 193.369 26.0211ZM192.864 28.9289C193.218 28.6432 193.385 28.2397 193.385 27.702C193.385 27.1641 193.218 26.7439 192.864 26.4582C192.511 26.1724 192.008 26.0211 191.352 26.0211H189.57V29.366H191.352C192.008 29.366 192.511 29.2147 192.864 28.9289Z"/>
        <path d="M219.709 25.3994V32.0721H219.037V26.7273L216.415 31.215H216.079L213.456 26.7609V32.0721H212.784V25.3994H213.373L216.263 30.3409L219.138 25.3994H219.727H219.709Z"/>
        <path d="M243.76 31.4671V32.0721H239.037V25.3994H243.609V26.0045H239.743V28.3744H243.188V28.9795H239.743V31.4503H243.76V31.4671Z"/>
        <path d="M268.166 25.3994V32.0721H267.578L263.291 26.6601V32.0721H262.586V25.3994H263.174L267.476 30.8116V25.3994H268.166Z"/>
        <path d="M288.789 26.0211H286.436V25.416H291.83V26.0211H289.478V32.0889H288.772V26.0211H288.789Z"/>
        <path d="M47.5095 16.2334C46.3329 15.5779 45.3917 14.6703 44.7194 13.5273C44.0471 12.3676 43.7109 11.0734 43.7109 9.64467C43.7109 8.21599 44.0471 6.92178 44.7194 5.76202C45.3917 4.60227 46.3329 3.69463 47.5264 3.05593C48.7197 2.40041 50.0475 2.08105 51.5266 2.08105C52.636 2.08105 53.6612 2.26595 54.5857 2.63573C55.5269 3.0055 56.3169 3.54335 56.9725 4.24928L55.964 5.25778C54.8042 4.08121 53.325 3.49292 51.5602 3.49292C50.3837 3.49292 49.308 3.76185 48.3499 4.2997C47.3918 4.83756 46.6354 5.57712 46.0808 6.51837C45.5262 7.45962 45.2573 8.50172 45.2573 9.66147C45.2573 10.8212 45.5262 11.8801 46.0808 12.8046C46.6187 13.7458 47.3751 14.4854 48.3499 15.0232C49.308 15.5611 50.3837 15.8301 51.5602 15.8301C53.3419 15.8301 54.821 15.2417 55.964 14.0484L56.9725 15.0569C56.3169 15.7627 55.5269 16.3175 54.5857 16.6872C53.6445 17.057 52.6192 17.2587 51.5098 17.2587C50.0306 17.2587 48.7029 16.9393 47.5264 16.2839L47.5095 16.2334Z"/>
        <path d="M64.6201 16.2333C63.4268 15.5777 62.4856 14.6701 61.8133 13.5271C61.1408 12.3842 60.8047 11.09 60.8047 9.66127C60.8047 8.23259 61.1408 6.93837 61.8133 5.79543C62.4856 4.65247 63.4268 3.74484 64.6201 3.08932C65.8136 2.43381 67.1581 2.09766 68.6373 2.09766C70.1164 2.09766 71.4443 2.41701 72.6208 3.07253C73.7974 3.72804 74.7387 4.63567 75.4277 5.77863C76.1168 6.93838 76.453 8.23259 76.453 9.66127C76.453 11.09 76.1168 12.3842 75.4277 13.5439C74.7387 14.7037 73.8141 15.6113 72.6208 16.25C71.4274 16.9056 70.0995 17.2248 68.6373 17.2248C67.175 17.2248 65.8303 16.8887 64.6201 16.2333ZM71.8309 15.023C72.7888 14.4852 73.5285 13.7456 74.0662 12.8044C74.6041 11.8631 74.8731 10.8042 74.8731 9.64447C74.8731 8.48472 74.6041 7.42581 74.0662 6.48456C73.5285 5.54331 72.7888 4.80376 71.8309 4.26592C70.8728 3.72805 69.8139 3.47592 68.6373 3.47592C67.4607 3.47592 66.3851 3.74485 65.4269 4.26592C64.4688 4.80376 63.7125 5.54331 63.1747 6.48456C62.62 7.42581 62.351 8.48472 62.351 9.64447C62.351 10.8042 62.62 11.8631 63.1747 12.8044C63.7125 13.7456 64.4688 14.4852 65.4269 15.023C66.3851 15.5608 67.4607 15.8131 68.6373 15.8131C69.8139 15.8131 70.8728 15.5441 71.8309 15.023Z"/>
        <path d="M97.563 2.18281V17.0748H96.0503V5.15784L90.2011 15.1754H89.4616L83.6123 5.20827V17.0579H82.0996V2.16602H83.3939L89.865 13.2089L96.2689 2.16602H97.563V2.18281Z"/>
        <path d="M114.575 3.54504C115.65 4.45268 116.188 5.69646 116.188 7.29323C116.188 8.88999 115.65 10.1338 114.575 11.0246C113.499 11.9323 112.003 12.3693 110.104 12.3693H106.103V17.0756H104.523V2.18359H110.104C112.003 2.18359 113.499 2.6374 114.575 3.54504ZM113.448 10.033C114.222 9.39425 114.625 8.4698 114.625 7.29323C114.625 6.11666 114.238 5.15861 113.448 4.51991C112.675 3.8812 111.532 3.54504 110.07 3.54504H106.103V10.991H110.07C111.549 10.991 112.675 10.6717 113.448 10.0162V10.033Z"/>
        <path d="M124.406 16.2333C123.213 15.5777 122.272 14.6701 121.599 13.5271C120.927 12.3842 120.591 11.09 120.591 9.66127C120.591 8.23259 120.927 6.93837 121.599 5.79543C122.272 4.65247 123.213 3.74484 124.406 3.08932C125.6 2.43381 126.944 2.09766 128.423 2.09766C129.903 2.09766 131.23 2.41701 132.407 3.07253C133.584 3.72804 134.525 4.63567 135.214 5.77863C135.903 6.93838 136.239 8.23259 136.239 9.66127C136.239 11.09 135.903 12.3842 135.214 13.5439C134.525 14.7037 133.6 15.6113 132.407 16.25C131.214 16.9056 129.886 17.2248 128.423 17.2248C126.961 17.2248 125.616 16.8887 124.406 16.2333ZM131.617 15.023C132.575 14.4852 133.315 13.7456 133.852 12.8044C134.39 11.8631 134.659 10.8042 134.659 9.64447C134.659 8.48472 134.39 7.42581 133.852 6.48456C133.315 5.54331 132.575 4.80376 131.617 4.26592C130.659 3.72805 129.6 3.47592 128.423 3.47592C127.247 3.47592 126.171 3.74485 125.213 4.26592C124.255 4.80376 123.499 5.54331 122.961 6.48456C122.406 7.42581 122.137 8.48472 122.137 9.64447C122.137 10.8042 122.406 11.8631 122.961 12.8044C123.499 13.7456 124.255 14.4852 125.213 15.023C126.171 15.5608 127.247 15.8131 128.423 15.8131C129.6 15.8131 130.659 15.5441 131.617 15.023Z"/>
        <path d="M142.811 16.6864C141.803 16.3335 141.013 15.8629 140.458 15.2746L141.08 14.0644C141.618 14.6023 142.341 15.0393 143.231 15.3754C144.122 15.7116 145.047 15.8797 146.005 15.8797C147.333 15.8797 148.341 15.6275 149.013 15.1401C149.686 14.6527 150.022 14.014 150.022 13.2408C150.022 12.6526 149.837 12.1651 149.484 11.8121C149.115 11.4592 148.677 11.1903 148.156 10.9886C147.635 10.8037 146.895 10.5852 145.971 10.3667C144.845 10.0809 143.954 9.81201 143.282 9.54308C142.609 9.27415 142.038 8.88756 141.567 8.33289C141.097 7.79503 140.861 7.05548 140.861 6.14785C140.861 5.39148 141.063 4.71916 141.45 4.09726C141.853 3.47537 142.458 2.98792 143.282 2.61815C144.105 2.24837 145.131 2.06348 146.341 2.06348C147.197 2.06348 148.022 2.18114 148.845 2.41646C149.669 2.65177 150.374 2.97112 150.963 3.39132L150.425 4.65193C149.804 4.24853 149.131 3.92919 148.425 3.72748C147.72 3.52578 147.013 3.42495 146.341 3.42495C145.03 3.42495 144.055 3.67707 143.4 4.1813C142.744 4.68555 142.408 5.34104 142.408 6.13102C142.408 6.7193 142.593 7.20674 142.946 7.55972C143.315 7.92949 143.769 8.19842 144.307 8.38332C144.845 8.56821 145.585 8.7867 146.509 9.0052C147.602 9.27413 148.492 9.54306 149.164 9.79519C149.837 10.0641 150.409 10.4507 150.879 10.9886C151.35 11.5264 151.584 12.2492 151.584 13.1568C151.584 13.9132 151.384 14.5855 150.979 15.2074C150.576 15.8293 149.955 16.3167 149.115 16.6697C148.274 17.0394 147.248 17.2076 146.021 17.2076C144.912 17.2076 143.853 17.0226 142.845 16.6697L142.811 16.6864Z"/>
        <path d="M157.079 2.18359H158.66V17.0756H157.079V2.18359Z"/>
        <path d="M168.512 3.54504H163.267V2.18359H175.319V3.54504H170.074V17.0756H168.494V3.54504H168.512Z"/>
        <path d="M190.477 15.7307V17.0922H179.938V2.2002H190.157V3.56164H181.517V8.85619H189.216V10.2008H181.517V15.7307H190.477Z"/>
        <path d="M214.464 9.64447H215.976V15.3256C215.287 15.9307 214.464 16.4013 213.505 16.7374C212.548 17.0568 211.556 17.2248 210.497 17.2248C209 17.2248 207.674 16.9056 206.48 16.25C205.287 15.5946 204.346 14.6869 203.672 13.5439C202.984 12.3842 202.648 11.09 202.648 9.66127C202.648 8.23259 202.984 6.93838 203.672 5.77863C204.362 4.61886 205.287 3.71124 206.48 3.07253C207.674 2.41701 209.018 2.09766 210.531 2.09766C211.674 2.09766 212.715 2.28256 213.656 2.63553C214.598 2.98849 215.405 3.52634 216.061 4.24909L215.086 5.25758C213.91 4.09783 212.413 3.50952 210.598 3.50952C209.387 3.50952 208.295 3.77845 207.336 4.2995C206.379 4.82056 205.606 5.57693 205.051 6.51818C204.497 7.45943 204.228 8.51832 204.228 9.67807C204.228 10.8378 204.497 11.8968 205.051 12.8212C205.606 13.7456 206.362 14.502 207.336 15.0398C208.295 15.5777 209.387 15.8467 210.598 15.8467C212.128 15.8467 213.422 15.4601 214.497 14.7037V9.67807L214.464 9.64447Z"/>
        <path d="M232.699 17.0922L229.288 12.3018C228.902 12.3523 228.515 12.3691 228.094 12.3691H224.094V17.0922H222.515V2.2002H228.094C229.994 2.2002 231.489 2.65401 232.566 3.56164C233.64 4.46928 234.179 5.71309 234.179 7.30986C234.179 8.46961 233.876 9.46128 233.288 10.2513C232.699 11.0581 231.86 11.6295 230.766 11.9825L234.414 17.0922H232.683H232.699ZM231.44 10.0496C232.212 9.39404 232.616 8.48641 232.616 7.30986C232.616 6.13329 232.23 5.17521 231.44 4.53651C230.666 3.8978 229.523 3.56164 228.061 3.56164H224.094V11.0412H228.061C229.54 11.0412 230.666 10.7219 231.44 10.0664V10.0496Z"/>
        <path d="M242.515 16.2333C241.321 15.5777 240.38 14.6701 239.708 13.5271C239.036 12.3842 238.7 11.09 238.7 9.66127C238.7 8.23259 239.036 6.93837 239.708 5.79543C240.38 4.65247 241.321 3.74484 242.515 3.08932C243.708 2.43381 245.054 2.09766 246.533 2.09766C248.011 2.09766 249.339 2.41701 250.515 3.07253C251.692 3.72804 252.633 4.63567 253.323 5.77863C254.012 6.93838 254.348 8.23259 254.348 9.66127C254.348 11.09 254.012 12.3842 253.323 13.5439C252.633 14.7037 251.71 15.6113 250.515 16.25C249.323 16.9056 247.995 17.2248 246.533 17.2248C245.07 17.2248 243.726 16.8887 242.515 16.2333ZM249.726 15.023C250.684 14.4852 251.423 13.7456 251.961 12.8044C252.499 11.8631 252.769 10.8042 252.769 9.64447C252.769 8.48472 252.499 7.42581 251.961 6.48456C251.423 5.54331 250.684 4.80376 249.726 4.26592C248.767 3.72805 247.708 3.47592 246.533 3.47592C245.356 3.47592 244.28 3.74485 243.321 4.26592C242.364 4.78696 241.608 5.54331 241.07 6.48456C240.531 7.42581 240.246 8.48472 240.246 9.64447C240.246 10.8042 240.515 11.8631 241.07 12.8044C241.608 13.7456 242.364 14.4852 243.321 15.023C244.28 15.5608 245.356 15.8131 246.533 15.8131C247.708 15.8131 248.767 15.5441 249.726 15.023Z"/>
        <path d="M261.478 15.5626C260.401 14.4532 259.863 12.8397 259.863 10.7387V2.2002H261.444V10.6715C261.444 12.4027 261.83 13.6969 262.621 14.5373C263.393 15.3945 264.537 15.8148 265.999 15.8148C267.462 15.8148 268.621 15.3945 269.411 14.5373C270.185 13.6801 270.588 12.4027 270.588 10.6715V2.2002H272.116V10.7387C272.116 12.8565 271.58 14.4701 270.503 15.5626C269.428 16.6719 267.932 17.2266 265.999 17.2266C264.065 17.2266 262.57 16.6719 261.494 15.5626H261.478Z"/>
        <path d="M289.006 3.54504C290.081 4.45268 290.62 5.69646 290.62 7.29323C290.62 8.88999 290.081 10.1338 289.006 11.0246C287.93 11.9323 286.435 12.3693 284.535 12.3693H280.535V17.0756H278.954V2.18359H284.535C286.435 2.18359 287.93 2.6374 289.006 3.54504ZM287.879 10.033C288.653 9.39425 289.056 8.4698 289.056 7.29323C289.056 6.11666 288.67 5.15861 287.879 4.51991C287.107 3.8812 285.964 3.54504 284.502 3.54504H280.535V10.991H284.502C285.981 10.991 287.107 10.6717 287.879 10.0162V10.033Z"/>
        <path d="M12.5024 5.60427C13.214 5.07647 13.9731 4.67321 14.7678 4.39449C14.2518 4.28776 13.7122 4.23438 13.1607 4.23438C11.4646 4.23438 9.89311 4.75032 8.48764 5.75845C7.84124 6.64799 7.27194 7.64427 6.79159 8.74729C5.72415 11.1905 5.19043 13.9244 5.19043 16.9488C5.19043 19.9733 5.72415 22.7071 6.79159 25.1503C7.27194 26.2592 7.84124 27.2556 8.48764 28.1391C9.89311 29.1472 11.4646 29.6632 13.1607 29.6632C13.7122 29.6632 14.2459 29.6099 14.7618 29.5032C13.9612 29.2185 13.2022 28.8093 12.4905 28.2696C10.9783 27.1309 9.79229 25.5714 8.92647 23.5965C8.06065 21.6218 7.62775 19.404 7.62775 16.9429C7.62775 14.4818 8.06065 12.2639 8.92647 10.2654C9.79229 8.27286 10.9843 6.71323 12.5083 5.59241L12.5024 5.60427Z"/>
        <path d="M18.0343 1.8338C19.3686 2.5395 20.5309 3.55357 21.5094 4.8345C22.6776 5.45124 23.7214 6.37043 24.6465 7.59799L26.1766 5.48684C25.1565 3.98649 23.8993 2.85974 22.4107 2.09474C20.9223 1.32974 19.2915 0.950195 17.5124 0.950195C17.0202 0.950195 16.5339 0.979849 16.0654 1.04508C16.7475 1.24078 17.4056 1.50764 18.0343 1.83973V1.8338Z"/>
        <path d="M17.1385 17.0491H23.6794V27.5516C22.9856 28.2275 22.2206 28.7614 21.3963 29.1528C20.4416 30.3743 19.3089 31.341 18.0161 32.0348C17.3755 32.3788 16.7114 32.6515 16.0176 32.8531C16.4921 32.9184 16.9783 32.9481 17.4765 32.9481C19.1191 32.9481 20.6846 32.6041 22.1732 31.9163C23.6617 31.2283 24.9485 30.238 26.0397 28.951V14.8193H17.1325V17.055L17.1385 17.0491Z"/>
        <path d="M6.86893 30.8801C5.01275 29.5042 3.55985 27.5947 2.50427 25.1515C1.44869 22.7082 0.920898 19.9743 0.920898 16.9499C0.920898 13.9255 1.44869 11.1917 2.50427 8.74846C3.55985 6.30521 5.01869 4.39566 6.88672 3.01985C8.75475 1.64404 10.8422 0.950195 13.149 0.950195C14.8807 0.950195 16.4818 1.34159 17.9466 2.11845C19.4114 2.89532 20.6568 4.03392 21.6767 5.53427L20.1112 7.64544C18.2905 5.16067 15.9896 3.91532 13.2143 3.91532C11.37 3.91532 9.69172 4.48462 8.18544 5.62323C6.67323 6.76183 5.4931 8.32147 4.63915 10.2962C3.7852 12.271 3.35822 14.4949 3.35822 16.9499C3.35822 19.405 3.7852 21.6229 4.63915 23.6037C5.4931 25.5844 6.67915 27.1381 8.18544 28.2767C9.69764 29.4154 11.37 29.9847 13.2143 29.9847C16.0134 29.9847 18.3142 28.7274 20.1112 26.2071L21.6767 28.3182C20.6568 29.8186 19.4054 30.9631 17.9288 31.7578C16.4522 32.5524 14.8451 32.9498 13.1135 32.9498C10.8007 32.9498 8.71915 32.2619 6.86299 30.8801H6.86893Z"/>
	</symbol>

	<symbol id="i-granel" viewBox="0 0 176 21">
        <path fill-rule="evenodd" clip-rule="evenodd" d="M0.592773 10.7146V20.4758H2.51191H4.43105V12.4292V4.38239H14.1249H23.8188L23.7926 2.6921L23.7664 1.00181L12.1796 0.977621L0.592773 0.953433V10.7146ZM25.6376 10.715V20.4758H27.6047H29.5718V16.4822V12.4886L36.8885 12.4542C44.0765 12.4205 44.2188 12.4162 44.9729 12.2103C46.1677 11.8841 47.058 11.4032 47.8516 10.655C49.0085 9.56449 49.5376 8.32777 49.5445 6.69823C49.5512 5.15164 49.0593 3.9811 47.9444 2.8897C46.8888 1.85648 45.5525 1.26749 43.776 1.05256C43.2717 0.991619 39.6717 0.954195 34.3002 0.954195H25.6376V10.715ZM53.8002 1.07323C53.7768 1.13875 52.292 5.53112 50.5009 10.834L47.2443 20.4758H49.3399H51.4356L51.5693 20.0235C51.6428 19.7747 52.1965 17.975 52.7999 16.024L53.8969 12.4769H62.1252L70.3535 12.4767V16.4763V20.4758H72.2727H74.1918V10.715V0.954195H64.0174C55.9645 0.954195 53.834 0.979049 53.8002 1.07323ZM76.2705 1.01771C76.2357 1.05256 76.2068 5.44494 76.2068 10.7786V20.4758H78.1742H80.1409V16.4763V12.4767H88.1054H96.0698V16.4763V20.4758H97.9898H99.9091L99.8846 10.7389L99.8602 1.00181L97.9654 0.976002L96.0698 0.950195V4.99937V9.04857H88.1054H80.1409V5.00137V0.954195H78.2379C77.1913 0.954195 76.3061 0.982763 76.2705 1.01771ZM102.084 1.01733C102.048 1.05237 102.019 5.44494 102.019 10.7786V20.4758H113.342H124.665V18.8094V17.1429H115.309H105.953V14.8103V12.4777L115.285 12.4534L124.617 12.4292L124.643 10.7389L124.67 9.04857H115.311H105.953V7.15732C105.953 6.11705 105.981 5.06717 106.014 4.82425L106.076 4.38239H115.373H124.67L124.643 2.6921L124.617 1.00181L113.382 0.977621C107.204 0.964289 102.119 0.982192 102.084 1.01733ZM130.871 1.01724C130.836 1.05237 130.805 3.89159 130.805 7.32654C130.803 12.3235 130.776 13.6981 130.668 14.2033C130.274 16.0486 129.166 16.9303 127.025 17.1027L126.2 17.1691V18.8367V20.5044L127.232 20.4477C130.797 20.2515 133.303 18.3593 134.325 15.092L134.592 14.2384L134.623 9.31042L134.654 4.38239H140.455H146.256V12.4292V20.4758H148.175H150.095L150.071 10.7389L150.046 1.00181L140.491 0.977526C135.235 0.964194 130.906 0.982097 130.871 1.01724ZM152.109 10.713V20.4758H160.833C170.339 20.4758 170.272 20.4793 171.699 19.9292C173.93 19.0698 175.259 17.3302 175.395 15.0955C175.496 13.4195 174.986 12.1135 173.756 10.9014C172.911 10.0677 172.276 9.70168 171.013 9.31997C170.295 9.10323 170.271 9.10234 163.169 9.07153L156.045 9.04057L156.02 5.02117L155.995 1.00181L154.052 0.976002L152.109 0.950291V10.713ZM44.2 4.5996C44.8298 4.88167 45.2215 5.23934 45.4621 5.75205C45.9465 6.78451 45.636 7.902 44.6866 8.54212C43.9497 9.03908 43.7954 9.04857 36.4125 9.04857H29.5718V6.71204V4.37544L36.6966 4.40277C43.2885 4.428 43.8497 4.44267 44.2 4.5996ZM70.3535 6.71547V9.04857H62.6705C55.3993 9.04857 54.99 9.0396 55.0348 8.8819C55.0608 8.7902 55.3495 7.77249 55.6763 6.62024C56.0031 5.46799 56.2895 4.49314 56.3128 4.45381C56.3361 4.41448 59.5047 4.38239 63.3543 4.38239H70.3535V6.71547ZM170.149 12.7246C171.705 13.4466 172.024 15.4254 170.751 16.4698C170.041 17.0526 170.111 17.0477 162.742 17.0477H156.043V14.7598V12.4719L162.88 12.498C169.599 12.5239 169.725 12.5278 170.149 12.7246Z"/>
	</symbol>

	<symbol id="i-sminex" viewBox="0 0 113 27">
        <path d="M4.78969 5.06056C4.79813 2.83398 6.34587 1.34109 9.06916 1.34109C10.6338 1.34109 12.1096 1.67614 13.5897 2.38016C14.6554 2.89333 15.2601 2.18083 15.6153 1.32412C13.5347 0.467416 11.4161 0.0390625 9.25947 0.0390625C4.78969 0.0390625 0.125376 1.53618 0.0957743 6.79942C0.0619444 13.9203 12.097 14.8236 12.3803 20.7527C12.5198 23.5816 10.507 25.1508 7.73712 25.1508C5.80882 25.1508 4.06658 24.7436 2.34547 23.8275C1.37708 23.3144 0.700484 23.9124 0.336813 24.7394C2.2482 25.8633 5.4409 26.4698 7.59335 26.4698C12.9173 26.4698 17.3448 24.311 17.1968 18.9757C16.9938 11.5792 4.7643 10.7352 4.79391 5.06479L4.78969 5.06056Z"/>
        <path d="M87.6308 26.4651C90.0624 26.4651 92.8449 25.6042 94.2321 24.3191C94.7648 23.8271 94.4899 23.1994 94.2279 22.9747C92.7013 24.1919 91.1197 24.7814 89.0856 24.7814C87.0515 24.7814 85.7534 24.1155 84.9204 22.7838C84.0872 21.4521 83.6433 19.3061 83.5713 16.3458H94.8832C94.9341 16.3458 94.972 16.3118 94.9804 16.261C95.0776 15.7859 95.1243 15.2728 95.1117 14.7172C95.0989 13.6527 94.9382 12.6815 94.638 11.8078C94.3377 10.9256 93.8896 10.1453 93.289 9.46668C92.6927 8.78385 91.9019 8.25794 90.9208 7.87626C89.9356 7.49455 88.794 7.30371 87.4956 7.30371C84.7892 7.30371 82.6623 8.19433 81.1229 9.97985C79.5751 11.7654 78.8268 14.1446 78.8731 17.1092C78.9069 19.48 79.4737 21.8296 80.979 23.7211C82.5902 25.7399 85.157 26.4651 87.6266 26.4651H87.6308ZM87.5845 8.34702C90.8066 8.35125 90.8999 12.4355 90.8829 14.9123L83.5458 15.4636C83.6433 12.8341 84.1506 8.34702 87.5845 8.34702Z"/>
        <path d="M105.248 15.4686L111.621 7.70312H109.435C109.236 7.70312 109.029 7.75402 108.898 7.95338L104.648 14.5738L103.574 13.0003C100.444 8.43685 100.711 7.70312 98.9136 7.70312H95.2557L102.009 17.5383L94.9893 26.0884H97.2052C97.4633 26.0884 97.6619 26.0078 97.7846 25.8212L102.622 18.4332L104.297 20.8379C107.316 25.1596 106.91 26.1181 109.181 26.0884H112.611L105.244 15.4686H105.248Z"/>
        <path d="M46.4934 23.9762V13.2165C46.4934 9.50126 45.102 7.30859 41.5542 7.30859C38.5561 7.30859 36.539 8.84389 34.9362 10.5743C34.3485 8.50882 32.9571 7.30859 30.2464 7.30859C27.7135 7.30859 25.6372 8.52157 23.9626 10.341V10.3155C23.9626 8.89476 23.73 7.71151 22.3599 7.71151H19.4717L19.6451 9.81087V23.9804L19.4717 26.0968H24.1698L23.9965 23.9804V11.3334C25.2989 10.218 26.8762 9.75571 28.1576 9.75571C30.623 9.75571 30.885 12.3471 30.885 14.298V23.9804L30.716 26.0968H35.4099L35.2365 23.9804V11.3334C36.3655 10.3368 37.9429 9.75571 39.4145 9.75571C41.9813 9.75571 42.1419 12.5803 42.1419 14.298V23.6072C42.1419 25.3631 42.6369 26.0925 43.7785 26.0925H46.6669L46.4934 23.9762Z"/>
        <path d="M71.6931 23.603C71.6931 25.1637 72.0568 26.0883 73.3297 26.0883H76.2177L76.0446 23.9889V13.2165C76.0446 9.53941 74.6574 7.30859 71.1054 7.30859C68.5891 7.30859 66.2212 8.50459 64.5211 10.3113C64.5211 8.89053 64.2885 7.70725 62.9183 7.70725H60.0303L60.2035 9.80661V23.9762L60.0303 26.0925H64.7239L64.5508 23.9762V11.3292C65.8955 10.2986 67.1472 9.75148 68.9612 9.75148C71.2406 9.75148 71.6889 11.8975 71.6889 14.2937V23.6072L71.6931 23.603Z"/>
        <path d="M53.1035 4.74673C54.3974 4.74673 55.4502 3.69067 55.4502 2.39289C55.4502 1.0951 54.4016 0.0390625 53.1035 0.0390625C51.8052 0.0390625 50.7607 1.09086 50.7607 2.39289C50.7607 3.6949 51.8136 4.74673 53.1035 4.74673Z"/>
        <path d="M50.9258 26.0881H55.6197L55.4463 23.9717V10.1881C55.4463 8.77154 55.1884 7.70703 53.8183 7.70703H50.93L51.1034 9.80639V23.976L50.93 26.0923L50.9258 26.0881Z"/>
	</symbol>

	<symbol id="i-gazprom" viewBox="0 0 199 43">
        <path fill-rule="evenodd" clip-rule="evenodd" d="M21.4062 0.741211C9.90125 0.741211 0.549805 10.1442 0.549805 21.7173C0.549805 33.2665 9.90125 42.6706 21.4062 42.6706C32.8852 42.6706 42.2344 33.2665 42.2344 21.7173C42.2344 10.1442 32.8852 0.741211 21.4062 0.741211ZM21.4062 41.6219C10.4802 41.6219 1.59181 32.6887 1.59181 21.7173C1.59181 10.7231 10.4768 1.7899 21.4062 1.7899C32.3136 1.7899 41.1924 10.7277 41.1924 21.7173C41.1924 32.6865 32.3102 41.6219 21.4062 41.6219ZM82.6351 18.0116C82.6351 19.3447 81.4042 19.7826 80.7303 19.7826H78.9482V23.66H80.6353C82.0572 23.66 82.7057 24.339 82.7057 25.3581C82.7057 26.0827 82.1777 27.0802 80.8275 27.0802C80.032 27.0802 79.2377 27.0335 78.0566 26.5206L77.9837 30.2831C78.3698 30.4947 78.7362 30.663 79.1037 30.7949C79.9523 31.0986 80.8094 31.2101 81.9357 31.226C84.9729 31.226 87.334 29.3356 87.334 25.9155C87.334 23.1493 85.6944 21.9652 84.4669 21.5728V21.4045C85.7418 20.8688 87.0456 19.4902 87.0456 17.2097C87.0456 14.8587 85.5276 12.4577 82.1025 12.4577C81.3929 12.4497 80.6851 12.4986 79.9851 12.6021C79.474 12.6783 78.9669 12.783 78.4665 12.9172L78.514 16.848C79.4067 16.4113 80.3215 16.3374 80.8021 16.3374C81.2143 16.3374 82.6351 16.4363 82.6351 18.0116ZM121.719 31.0816C126.658 31.0816 128.319 26.4227 128.319 21.7924C128.319 17.1631 126.658 12.5054 121.719 12.5054C116.779 12.5054 115.119 17.1631 115.119 21.7924C115.119 26.4227 116.779 31.0804 121.719 31.0816ZM121.719 26.69C120.246 26.69 119.503 24.9703 119.503 21.7924C119.503 18.6144 120.246 16.8935 121.719 16.8935C123.191 16.8935 123.934 18.6144 123.934 21.7924C123.934 24.9703 123.191 26.69 121.719 26.69ZM133.865 12.7727H130.322V30.8621H134.49V19.8281L136.993 22.9798L139.499 19.8281V30.8621H143.671V12.7716H140.153L136.993 17.0403L133.865 12.7727ZM146.489 30.8621H151.452C152.536 30.8621 157.044 30.4003 157.066 24.918C157.066 20.3171 153.574 19.5141 151.308 19.5141H150.561V17.1142H156.079V12.7727H146.489V30.8621ZM150.561 27.2246V23.1265H151.164C151.419 23.1265 151.88 23.1334 152.272 23.3813C152.654 23.6236 152.972 24.0956 152.972 25.0169C152.972 26.9118 151.668 27.2246 151.164 27.2246H150.561ZM172.056 12.7727H176.128V19.2957H179.044V12.7727H183.113V30.8632H179.044V23.6122H176.128V30.8632H172.056V12.7727ZM185.86 12.7727H189.958L189.934 19.2719H190.824L193.162 12.7727H197.595L194.414 21.359L198.054 30.8632H193.257L190.898 23.5872H189.934L189.958 30.8621H185.86V12.7727ZM162.104 30.8859H157.863L161.452 12.7977H166.706L170.272 30.8859H166.032L165.525 27.7581H162.611L162.104 30.8859ZM164.85 23.7805L164.079 18.2755L163.283 23.7805H164.85ZM107.212 30.8621H103.043V12.7716H108.612C112.537 12.7716 114.008 16.4568 114.008 18.7839C114.008 21.1634 112.729 24.8986 108.612 24.8986H107.212V30.8621ZM108.201 16.7491H107.212L107.213 20.9188H108.201C108.731 20.9188 109.744 20.7744 109.744 18.834C109.744 17.3314 109.141 16.7491 108.201 16.7491ZM89.2845 12.7727H100.657V30.8609H96.4881V17.1369H93.4542V30.8621H89.2845V12.7727ZM64.3483 30.8621H68.5632L69.0947 27.7319H72.0104L72.5153 30.8621H76.7296L73.1632 12.7716H67.9125L64.3483 30.8621ZM70.5387 18.2277L71.3353 23.7567H69.7432L70.5387 18.2277ZM64.826 12.7727H56.2763V30.8609H60.5144V17.2803H64.826V12.7727ZM27.3202 8.53701C24.0217 7.05724 17.8754 6.91051 12.8407 9.16599C13.4892 8.69966 14.1835 8.30384 14.9134 7.98195C16.4987 7.23922 19.0554 6.51924 22.2419 6.51924C22.3923 6.51924 22.5427 6.52038 22.6936 6.52379C25.4182 6.5727 28.6483 7.51903 30.6226 9.48333C30.8205 9.7256 30.9692 9.96786 31.0726 10.1908C31.145 10.3466 31.1953 10.4922 31.2247 10.623C32.7914 11.4237 33.7062 12.1744 34.2111 13.048C34.4299 13.5075 34.5017 13.9909 34.4033 14.5493C34.9172 14.8394 35.3628 15.2375 35.7093 15.7175C35.8201 15.9063 35.9185 16.1065 35.9949 16.3078C36.0661 16.4943 36.1175 16.6808 36.1413 16.8583C36.212 17.3394 36.2594 17.8967 35.7534 18.553C36.2838 18.8203 36.7157 19.5687 36.7677 19.8872C37.0329 21.0712 36.2594 22.2359 35.2729 23.1356C34.1149 24.1525 31.5605 25.365 29.4878 25.8995C25.3962 26.9414 21.7545 27.3793 18.8654 27.9139C20.1658 28.2278 21.9236 28.6418 24.7929 28.6418C30.9341 28.6418 36.3567 25.7289 36.3567 25.7289C36.3567 25.7289 36.2374 26.0952 36.1147 26.4353C32.2124 28.8102 26.0215 29.8031 23.3687 29.6814C20.6939 29.5586 18.4301 29.148 16.2126 28.4678C15.5353 28.66 14.8682 28.8864 14.214 29.148C17.5893 30.6994 20.1415 31.0406 23.0097 31.2567C25.9468 31.4774 30.8171 30.7711 34.9093 29.272C34.7171 29.4676 34.621 29.7565 34.4299 29.926C33.0334 30.6687 30.6022 31.4114 28.4719 31.8527C27.4027 32.0745 26.4093 32.2213 25.6602 32.2531C23.4416 32.3509 20.7436 32.2531 18.3814 31.8152C16.3574 31.4057 14.6923 30.7711 12.9588 29.9988C12.6485 30.2376 12.5037 30.5322 12.4285 30.8723C19.2035 34.4358 25.5126 34.5063 32.7207 32.2531L32.0677 32.8844C24.1399 36.1339 17.9472 34.8714 13.15 32.5431L12.9475 32.4556C12.8407 32.4089 12.735 32.3589 12.6485 32.3009C13.107 33.0777 16.7661 35.7688 20.8629 36.1089C23.6847 36.3512 27.1291 35.8655 29.1763 35.0432L27.9721 35.6721C26.9832 36.1578 24.3576 37.2759 20.6927 37.0314C15.8027 36.6901 13.055 34.5074 11.8253 33.37C11.2474 32.8332 10.9845 32.2292 10.8143 31.4774C10.0126 31.0565 9.4252 30.6221 8.94406 30.0659C8.75974 29.852 8.59069 29.6211 8.43126 29.3664C8.09316 28.8579 8.1627 28.2528 8.2345 27.7399L8.38489 27.3088C7.85117 26.9164 7.29766 26.5046 7.08112 26.0952C6.59602 25.2216 6.89002 24.4687 7.22586 23.8863C6.93525 23.5474 6.66895 23.2084 6.55362 22.8695C6.40718 22.4816 6.38457 22.0892 6.4281 21.6547C6.52648 20.9291 6.91207 20.2523 7.41809 19.6677C8.47649 18.4302 10.167 17.4611 13.0307 16.5159C15.8525 15.5673 16.9861 15.4217 19.1063 14.9349C20.0488 14.7154 21.0614 14.5516 22.0904 14.3844C23.7701 14.1126 25.494 13.8328 27.0318 13.2914C20.116 12.08 12.9368 13.1936 7.08112 17.2393L7.46558 16.1008C12.718 12.659 18.5262 10.623 28.3565 12.345C28.8868 12.0288 29.1995 11.7126 29.3465 11.0837C26.8871 10.1874 24.2139 9.87232 20.7691 9.91896C17.6832 10.0179 12.1147 11.1769 9.13177 12.9536L10.0432 11.8116C12.1147 10.5707 17.5362 8.94875 21.6121 8.87595C24.4769 8.8043 25.9468 8.97263 29.3697 9.89507C29.0751 9.35594 28.4498 9.06476 27.5282 8.63369L27.3202 8.53701ZM32.5726 13.5825C32.4787 12.9035 31.7075 12.2484 31.0313 11.8116C30.9352 12.1517 30.5773 12.5634 30.3342 12.8307C31.0811 13.0264 31.8523 13.313 32.5726 13.5825ZM29.2747 13.7987C28.7896 14.1876 28.2383 14.5255 27.4163 14.8439C28.1456 14.9725 28.7766 15.1442 29.3833 15.3262C29.9017 15.4809 30.4026 15.6424 30.9341 15.788C30.946 15.7937 30.9595 15.7959 30.9725 15.7948C31.2236 15.7948 32.049 15.0271 32.1915 14.8166C31.3672 14.4527 30.3551 14.0876 29.2747 13.7987ZM34.4299 17.3633C34.7414 16.7571 34.5492 16.3692 33.9007 15.8107C33.6344 16.1292 33.3449 16.3931 33.0322 16.6354C33.5371 16.8776 33.9979 17.0494 34.4299 17.3633ZM23.5886 16.0803C20.4078 16.4682 16.8877 17.1438 13.877 18.0423L13.7165 18.0912C12.2222 18.5485 6.57171 20.2728 8.28765 22.65C8.30518 22.65 9.37658 21.1634 13.4174 19.9816C16.0583 19.2013 18.7659 18.7054 21.5159 18.2016C23.9861 17.7489 26.4907 17.2894 29.0107 16.6126C26.9374 16.0575 25.7767 15.8107 23.5886 16.0803ZM27.0335 19.0137C25.3232 19.4493 21.1767 20.0555 16.7209 21.0246C15.3222 21.3397 11.4894 22.2359 9.61008 23.8374C9.85433 24.0399 10.0579 24.1695 10.2625 24.2833C10.5017 24.4164 10.7431 24.5278 11.0541 24.7109C11.8253 24.2003 12.887 23.7157 14.456 23.3017C17.1738 22.576 19.2267 22.2632 21.6839 21.8538C24.1178 21.483 28.7189 20.5139 31.2479 19.5926C31.8427 19.3902 32.3996 19.1376 32.8694 18.8442C33.0684 18.7202 33.2522 18.5894 33.4167 18.4518C33.2477 18.2607 31.6092 17.4611 31.5605 17.535C30.5519 18.0184 29.1056 18.5018 27.0335 19.0137ZM21.1026 23.8897C19.2595 24.1968 17.4836 24.4926 15.6094 24.9555C14.7664 25.1705 13.8991 25.4389 13.107 25.7767C13.8991 26.1896 14.7675 26.5547 15.6337 26.8948C17.3683 26.3852 18.1915 26.1668 20.6927 25.7551C21.6573 25.5822 24.5973 25.0499 26.7169 24.6177C30.5519 23.7896 36.1656 21.9948 34.6719 19.6677C34.5972 19.7314 34.5226 19.7894 34.448 19.8474C34.3535 19.9225 34.2597 19.9975 34.1658 20.0806C33.0322 20.9484 31.2247 21.6547 28.7444 22.311C25.8666 23.0947 23.4309 23.5007 21.1026 23.8897ZM9.52471 25.895C9.59708 25.8393 9.66775 25.7835 9.73164 25.7289C9.42124 25.5674 9.1883 25.4264 8.95141 25.2762L8.59804 25.0488C8.51324 25.2433 8.54094 25.4446 8.63084 25.6277C8.74561 25.8609 8.96215 26.0656 9.177 26.1896C9.28103 26.0849 9.40485 25.9883 9.52471 25.895ZM13.6571 27.5966C12.9588 27.2815 12.2131 26.9687 11.4894 26.6286C11.1524 26.847 10.8409 27.0631 10.5989 27.2815C11.1768 27.6216 11.7325 27.9344 12.3115 28.254C12.7372 27.9901 13.1878 27.7694 13.6571 27.5966ZM10.8409 29.8532C10.9105 29.6086 11.0332 29.4164 11.2022 29.1741C10.79 28.9523 10.3813 28.7362 9.97249 28.4678C9.94592 28.9307 10.2377 29.3425 10.8409 29.8532Z"/>
	</symbol>

	<symbol id="i-alfabank" viewBox="0 0 176 35">
        <path d="M0 30.2358H23.2427V35.0076H0V30.2358ZM168.085 14.9173L175.413 6.91495H169.952L163.947 13.566V6.91495H159.595V23.7325H163.968V16.6487L170.389 23.7325H176L168.085 14.9173ZM25.8027 16.0258C25.6853 19.193 25.28 19.7947 23.5093 19.7947V23.7431H24.1707C28.6187 23.7431 29.6747 21.4733 29.8347 16.4164L30.0267 10.8211H34.1333V23.7325H38.4853V6.91495H26.1013L25.8027 16.0258ZM6.912 18.9185H16.0853L17.6107 23.7325H22.6987L15.84 3.50498C15.1787 1.55191 14.4107 0 11.7867 0C9.16267 0 8.36267 1.55191 7.65867 3.50498L0.469334 23.7325H5.248L6.912 18.9185ZM11.5627 5.27859H11.68L14.752 14.8645H8.288L11.5627 5.27859ZM113.227 9.30088H108.373V4.55015H119.637V0.327273H103.808V23.7325H113.227C118.443 23.7325 121.44 21.1566 121.44 16.4481C121.44 11.9824 118.4 9.30088 113.227 9.30088ZM113.003 19.4991H108.373V13.4182H113.003C115.413 13.4182 116.768 14.4739 116.768 16.4587C116.768 18.4434 115.413 19.4991 113.003 19.4991ZM69.9627 6.52434V0.295601H65.6213V6.52434C63.3418 6.59877 61.1852 7.5656 59.6252 9.21241C58.0653 10.8593 57.2294 13.0516 57.3013 15.3079C57.2237 17.5688 58.0565 19.7677 59.6169 21.4208C61.1771 23.0741 63.337 24.0461 65.6213 24.1232V30.4575H69.9733V24.1232C71.1049 24.0863 72.218 23.829 73.2489 23.3658C74.2798 22.9026 75.2082 22.2427 75.9811 21.4239C76.7539 20.605 77.356 19.6433 77.7528 18.5938C78.1496 17.5443 78.3332 16.4277 78.2933 15.3079C78.339 14.1874 78.1586 13.0691 77.763 12.0183C77.3673 10.9674 76.7641 10.0051 75.9886 9.1875C75.2131 8.36995 74.2809 7.71329 73.2463 7.25606C72.2116 6.79883 71.0955 6.5501 69.9627 6.52434ZM65.632 20.0587C64.4802 19.9334 63.4243 19.3651 62.6921 18.4764C61.9597 17.5877 61.6096 16.4498 61.7173 15.3079C61.6235 14.1689 61.9786 13.0381 62.7084 12.1526C63.4381 11.2669 64.4859 10.6953 65.632 10.5572V20.0587ZM69.984 20.0587V10.5572C71.1301 10.6953 72.1779 11.2669 72.9076 12.1526C73.6374 13.0381 73.9925 14.1689 73.8987 15.3079C74.0007 16.4486 73.6486 17.5836 72.9173 18.4712C72.1861 19.3586 71.1336 19.9283 69.984 20.0587ZM94.6027 18.5701V12.9009C94.6027 8.76246 91.9467 6.17595 87.488 6.17595C83.0293 6.17595 80.4267 8.92082 80.2133 11.7818H84.6187C84.768 11.1695 85.4293 10.0821 87.4773 10.0821C87.8603 10.0333 88.2485 10.0732 88.6123 10.1989C88.9771 10.3245 89.3067 10.5322 89.5755 10.8057C89.8443 11.0791 90.0459 11.4108 90.1632 11.7744C90.2805 12.1381 90.3104 12.5238 90.2507 12.9009H85.984C82.1227 12.9009 79.8293 14.9173 79.8293 18.2534C79.7993 19.0495 79.9384 19.843 80.2377 20.5825C80.5371 21.322 80.99 21.991 81.5672 22.5463C82.1442 23.1017 82.8327 23.5308 83.5882 23.8061C84.3435 24.0814 85.1488 24.1965 85.952 24.1443C86.8588 24.1915 87.7632 24.0167 88.5856 23.6356C89.408 23.2544 90.1227 22.6786 90.6667 21.9589C91.0208 22.5517 91.5371 23.0329 92.1568 23.3468C92.7755 23.6608 93.472 23.7945 94.1653 23.7325H95.6693V19.8475C94.9333 19.8475 94.6027 19.4991 94.6027 18.5701ZM90.2507 17.5144C90.2688 17.9302 90.1973 18.3451 90.0405 18.7316C89.8848 19.1181 89.648 19.4676 89.3461 19.7568C89.0432 20.0461 88.6827 20.2686 88.2869 20.4099C87.8912 20.551 87.4699 20.6076 87.0507 20.576C85.4827 20.576 84.2453 20.0164 84.2453 18.3378C84.2453 16.6592 85.6213 16.4164 86.784 16.4164H90.2507V17.5144ZM49.3227 12.0246H46.1973V6.91495H41.8453V23.7325H49.3973C54.1227 23.7325 55.7973 20.6921 55.7973 17.8205C55.8187 14.115 53.472 12.0246 49.3227 12.0246ZM49.0027 20.0587H46.1973V15.8358H49.0027C50.5067 15.8358 51.4133 16.5114 51.4133 17.9472C51.4133 19.383 50.5493 20.0587 49.0027 20.0587ZM138.048 18.5701V12.9009C138.048 8.76246 135.392 6.17595 130.933 6.17595C126.475 6.17595 123.872 8.92082 123.659 11.7818H128.064C128.213 11.1695 128.875 10.0821 130.923 10.0821C131.306 10.0333 131.694 10.0732 132.058 10.1989C132.422 10.3245 132.752 10.5322 133.021 10.8057C133.29 11.0791 133.491 11.4108 133.609 11.7744C133.726 12.1381 133.756 12.5238 133.696 12.9009H129.429C125.568 12.9009 123.275 14.9173 123.275 18.2534C123.245 19.0495 123.383 19.843 123.683 20.5825C123.982 21.322 124.435 21.991 125.012 22.5463C125.589 23.1017 126.278 23.5308 127.034 23.8061C127.789 24.0814 128.594 24.1965 129.397 24.1443C130.313 24.2003 131.228 24.0299 132.061 23.6485C132.893 23.267 133.616 22.6863 134.165 21.9589C134.514 22.5414 135.021 23.0159 135.628 23.3293C136.235 23.6426 136.917 23.7823 137.6 23.7325H139.104V19.8475C138.347 19.8475 138.048 19.4991 138.048 18.5701ZM133.717 17.5144C133.733 17.9298 133.661 18.3438 133.504 18.7296C133.347 19.1154 133.11 19.4641 132.809 19.753C132.507 20.0419 132.146 20.2645 131.751 20.4064C131.357 20.5482 130.937 20.6059 130.517 20.576C128.949 20.576 127.712 20.0164 127.712 18.3378C127.712 16.6592 129.088 16.4164 130.251 16.4164H133.717V17.5144ZM151.947 13.1754H145.941V6.91495H141.589V23.7431H145.941V17.1132H151.947V23.7325H156.299V6.91495H151.947V13.1754Z"/>
	</symbol>
    
</svg>