<svg width="674" height="278" viewBox="0 0 674 278" fill="none" xmlns="http://www.w3.org/2000/svg">
<g clip-path="url(#clip0)">
<path d="M230.47 160.9V159.58C230.2 154.3 232.05 149.28 234.16 144.79C236.803 138.896 240.367 133.462 244.72 128.69C246.235 127.001 248.019 125.575 250 124.47C253.17 122.88 259.51 126.05 260.3 128.16C261.36 130.27 258.45 130.54 256.3 132.65C248.64 140.83 242.83 150.07 239.93 161.16C239.14 165.39 239.93 167.76 242.04 167.5C244.33 166.654 246.341 165.19 247.85 163.27C258.41 148.27 258.68 140.04 262.9 141.36C266.9 142.95 267.9 146.11 268.18 149.81C268.46 153.51 268.71 156.94 268.71 160.37C268.97 161.95 268.71 164.07 270.03 164.59C272.67 165.39 284.55 145.06 287.45 140.83C287.718 140.46 288.08 140.168 288.498 139.983C288.916 139.799 289.376 139.729 289.83 139.78C291.15 140.57 291.15 143.47 289.56 146.91C286.66 151.91 278.21 165.91 276.63 167.5C273.72 171.5 269.5 170.93 266.33 168.55C262.9 166.18 261.58 162.22 261.33 158.26V153.51C261.33 153.24 261.33 152.71 261.06 152.71C260.53 152.45 260.53 152.98 260.27 153.51C259.48 155.35 258.69 157.2 257.63 159.31C256.107 162.715 254.154 165.911 251.82 168.82C247.82 173.31 243.64 174.63 238.36 172.82C235.989 171.871 233.964 170.222 232.554 168.092C231.144 165.962 230.417 163.453 230.47 160.9Z" fill="#444444"/>
<path d="M299.9 206C300.251 201.219 300.868 196.462 301.75 191.75C303.07 184.35 304.12 177.23 303.33 169.83C302.27 161.12 299.63 152.94 291.71 147.66C288.55 145.55 285.38 143.17 282.21 140.79C272.44 133.67 269.27 123.1 270.33 112.28C271.12 99.91 277.46 87 284.85 78C287.421 74.6763 290.779 72.0441 294.62 70.34C298.62 68.5 302.54 67.97 306.5 70.61C306.76 70.61 307.03 70.61 307.03 70.87C317.59 75.1 318.91 83 317.59 92C315.74 103.88 310.72 114.71 304.65 125C302.521 128.742 300.047 132.278 297.26 135.56C296.225 136.867 295.339 138.286 294.62 139.79C293.83 141.11 294.09 141.9 295.15 142.69C296.84 143.779 298.43 145.018 299.9 146.39C307.29 152.46 310.72 160.64 312.04 170.15C313.1 179.15 311.51 187.57 309.93 196.28C309.14 200.77 308.08 205.53 307.55 210.28C307.55 210.81 307.29 211.07 307.29 211.6C307.29 212.13 307.29 212.6 307.82 212.92C308.61 213.44 308.87 212.65 309.14 212.39C310.703 210.72 312.047 208.859 313.14 206.85C316.04 201.57 318.68 196.28 321.32 190.74C327.858 177.18 335.084 163.963 342.97 151.14C345.214 147.157 347.776 143.361 350.63 139.79C351.95 137.68 352.74 137.68 354.63 139.26C355.16 139.79 355.42 140.32 355.16 140.84L354.63 141.64C342.48 159.32 333.24 178.33 324.27 197.87C322.15 202.36 320.04 206.87 317.4 211.33C316.413 213.099 315.265 214.772 313.97 216.33C311.07 219.76 306.58 220.03 303.15 216.86C300.16 214 299.63 210 299.9 206ZM288.28 135L291.98 127.35C295.94 120.307 299.379 112.984 302.27 105.44C304.515 100.39 306.105 95.0736 307 89.62C307.52 86.18 307.79 82.75 306.73 79.32C305.94 76.94 305.41 76.68 302.73 77.74C300.423 78.6686 298.367 80.1281 296.73 82C286.73 92.56 281.68 105.5 281.15 120C281.02 121.049 281.02 122.111 281.15 123.16C281.253 127.645 282.939 131.949 285.91 135.31C287.23 136.61 287.49 136.61 288.28 135Z" fill="#444444"/>
<path d="M344 262.54C339.77 255.94 337.92 248.54 336.6 240.89C334.75 229.8 334.75 218.98 335.6 207.89C336.789 192.852 339.169 177.931 342.72 163.27C350.12 130.27 363.32 99.38 378.89 69.27C384.44 58.18 390.77 47.35 397.11 36.53C397.64 35.74 398.69 34.95 398.43 33.63C396.32 33.36 394.43 34.42 392.62 34.95C372.56 40.23 352.76 47.09 334.28 56.86C330.229 58.8251 326.401 61.2188 322.86 64C321.54 65 320.49 64.53 319.43 64C319.12 63.9 318.839 63.7285 318.608 63.4993C318.377 63.2702 318.204 62.9899 318.101 62.6812C317.999 62.3724 317.971 62.0439 318.02 61.7223C318.068 61.4007 318.191 61.095 318.38 60.83C318.852 59.4198 319.666 58.1486 320.75 57.13C322.889 54.9967 325.284 53.136 327.88 51.59C340.03 43.93 353.49 38.39 367.22 33.59C378.742 29.8573 390.463 26.7724 402.33 24.35C404.06 23.9627 405.573 22.9196 406.55 21.44C409.949 15.977 413.651 10.7087 417.64 5.66C418.911 4.03793 420.326 2.53504 421.87 1.17C422.501 0.593203 423.285 0.211594 424.128 0.0713833C424.971 -0.0688279 425.837 0.0383715 426.62 0.380001C428.47 1.27947 430.237 2.34024 431.9 3.55C433.48 4.87 433.75 5.93 432.69 7.77C431.463 10.6082 429.866 13.2714 427.94 15.69C427.179 16.7074 426.475 17.7657 425.83 18.86C425.3 20.18 425.3 20.45 426.88 20.18C432.69 19.65 438.5 18.86 444.31 18.33C456.19 17.33 467.8 16.22 479.68 16.22C484.278 16.1899 488.871 16.5445 493.41 17.28C497.38 17.985 501.158 19.5146 504.5 21.77C506.747 23.0478 508.44 25.1148 509.25 27.57C509.677 28.3806 509.861 29.2973 509.78 30.21C509.78 31.01 509.25 31.53 508.78 31.27C506.66 31.01 504.29 30.74 503.5 28.37C502.44 25.46 500.06 24.14 497.42 23.61C495.303 23.1302 493.159 22.7796 491 22.56C484.4 22.56 477.8 22.56 471.46 22.82C463.54 23.35 455.62 24.14 447.96 24.93C439.25 25.99 430.54 27.05 421.83 28.37C420.24 28.63 419.45 29.69 418.66 31.01C412.06 42.09 405.46 53.45 399.12 64.8C382 96.22 367.75 129 357.71 163.54C353.096 179.636 349.657 196.046 347.42 212.64C346.227 220.582 345.695 228.61 345.83 236.64C346.1 244.03 346.62 251.16 349.27 258.02C350.237 261.43 351.944 264.585 354.27 267.26C357.97 272.26 363.27 273.07 368.79 272.81C375.39 272.54 381.46 270.17 387.27 267.26C399.15 261.19 409.45 253.26 419.27 244.82C434.84 231.36 448.27 216.05 461.27 200.2C475.94 182.6 489.35 163.987 501.4 144.5L502.2 143.18C502.99 141.86 503.78 142.39 505.1 142.92C506.42 143.71 506.16 144.5 505.36 145.56C500.88 152.68 496.65 160.08 491.64 166.94C473.64 192.55 454.41 217.1 431.97 239.28C421.759 249.182 410.719 258.192 398.97 266.21C392.662 270.582 385.717 273.955 378.38 276.21C373.383 277.568 368.139 277.749 363.06 276.74C354.28 275 348.47 269.67 344 262.54Z" fill="#444444"/>
<path d="M23.76 91.76L42.34 142.16H36.86L21.17 98.45L5.47 142.16H0L18.58 91.76H23.76Z" fill="#444444"/>
<path d="M135.21 91.76H140.21V142.16H135.89L107.81 101.16V142.16H102.81V91.76H107.13L135.21 132.76V91.76Z" fill="#444444"/>
<path d="M236.45 91.76V96.51H221V142.16H216V96.51H200.45V91.76H236.45Z" fill="#444444"/>
<path d="M327.65 91.76H332.65V142.16H327.65V91.76Z" fill="#444444"/>
<path d="M423.21 118.69V142.16H428.21V123.44H441.21C445.411 123.44 449.44 121.771 452.411 118.801C455.381 115.83 457.05 111.801 457.05 107.6C457.05 103.399 455.381 99.37 452.411 96.3994C449.44 93.4289 445.411 91.76 441.21 91.76H423.21V96.51H441.21C442.655 96.4586 444.095 96.7106 445.437 97.2497C446.778 97.7888 447.992 98.6031 449 99.64C450.97 101.821 452.06 104.656 452.06 107.595C452.06 110.534 450.97 113.369 449 115.55C447.998 116.581 446.792 117.391 445.46 117.93C444.127 118.469 442.697 118.724 441.26 118.68H423.26" fill="#444444"/>
<path d="M563 135.42C559.357 139.081 554.709 141.577 549.646 142.593C544.582 143.608 539.331 143.097 534.559 141.123C529.786 139.15 525.707 135.804 522.839 131.509C519.971 127.214 518.444 122.164 518.45 117C518.455 112.717 519.516 108.501 521.537 104.725C523.559 100.949 526.48 97.7296 530.042 95.351C533.604 92.9724 537.698 91.5081 541.96 91.0876C546.223 90.667 550.523 91.3031 554.481 92.9397C558.439 94.5763 561.933 97.1629 564.654 100.471C567.375 103.779 569.239 107.706 570.081 111.906C570.923 116.105 570.718 120.448 569.483 124.549C568.248 128.65 566.021 132.384 563 135.42ZM529.54 132C533.531 135.955 538.922 138.173 544.54 138.173C550.158 138.173 555.549 135.955 559.54 132C563.412 127.966 565.574 122.591 565.574 117C565.574 111.409 563.412 106.034 559.54 102C555.549 98.0453 550.158 95.8266 544.54 95.8266C538.922 95.8266 533.531 98.0453 529.54 102C525.668 106.034 523.505 111.409 523.505 117C523.505 122.591 525.668 127.966 529.54 132Z" fill="#444444"/>
<path d="M649.6 142.16L631 91.76H636.47L652.17 135.46L667.86 91.76H673.34L654.76 142.16H649.6Z" fill="#444444"/>
</g>
<defs>
<clipPath id="clip0">
<rect width="673.36" height="277.45" fill="white"/>
</clipPath>
</defs>
</svg>
