<?xml version="1.0" encoding="UTF-8"?> <svg xmlns="http://www.w3.org/2000/svg" width="432" height="113" viewBox="0 0 432 113" fill="none"> <path fill-rule="evenodd" clip-rule="evenodd" d="M0 52.62H15.5706V16.8219L35.9374 52.62H44.6263L64.9932 16.8217V52.62H80.9808V0.903728H58.8066L40.8735 33.0875L23.0083 0.903728H0V52.62ZM123.239 0C90.4996 0 86.8154 16.3351 86.8154 25.5802V27.6658C86.8154 36.772 90.4996 53.5241 123.239 53.5241H126.228C158.829 53.5241 162.584 36.7718 162.584 27.6658V25.5807C162.584 16.3356 158.76 0.000556934 126.228 0.000556934H123.239V0ZM145.623 27.0392C145.623 33.0169 142.077 40.9413 124.699 40.9413C107.182 40.9413 103.776 32.8085 103.776 26.9003V26.0662C103.776 20.1576 106.905 12.5114 124.699 12.5114C142.217 12.5114 145.623 20.1576 145.623 26.0662V27.0394V27.0392ZM168.418 0.902796V52.62H184.407V18.3511L219.509 52.62H235.496V0.903728H219.509V33.4351L186.491 0.903728H168.418V0.902796ZM327.523 52.62H343.72V32.6013L370.62 0.9041H352.339L336.003 19.95L319.947 0.903728H299.858L327.523 32.6013V52.62Z" fill="white"></path> <path fill-rule="evenodd" clip-rule="evenodd" d="M168.39 59.9343V111.651H184.516V91.1449H235.669V79.3053L184.516 79.3281V71.6816H235.669V59.9343H168.39ZM338.247 112.554C364.245 112.554 368.554 103.796 368.554 95.246V94.273C368.554 83.9852 360.7 79.2584 341.236 78.9109L332.547 78.7718C321.982 78.5634 320.591 76.5476 320.591 74.3232C320.591 72.0988 321.495 69.8744 334.007 69.8744H335.118C348.673 69.8744 349.716 74.1146 350.065 76.061H366.886V75.3658C366.886 67.5805 361.325 59.0308 336.858 59.0308H332.061C308.496 59.0308 303.908 67.0941 303.908 74.8098V75.4353C303.908 83.4986 309.817 90.0327 329.141 90.5888L338.038 90.7974C349.994 91.1449 351.593 93.0218 351.593 96.0115C351.593 98.792 350.064 101.503 336.441 101.503H335.467C322.12 101.503 320.314 96.4287 320.105 93.3007H303.213V94.0654C303.213 100.877 306.342 112.555 333.452 112.555H338.247V112.554ZM392.741 111.651H409.076V72.1682H431.389V59.9336H370.498V72.1682H392.741V111.651Z" fill="white"></path> <path d="M297.865 0.905762H243.303V12.6377H297.865V0.905762Z" fill="#EDBA21"></path> <path d="M297.866 20.646H243.304V32.3779H297.866V20.646Z" fill="#EDBA21"></path> <path d="M297.866 40.3848H243.304V52.1167H297.866V40.3848Z" fill="#EDBA21"></path> <path d="M297.866 60.311H243.304V72.0429H297.866V60.311Z" fill="#EDBA21"></path> <path d="M297.866 80.0498H243.304V91.7817H297.866V80.0498Z" fill="#EDBA21"></path> <path d="M297.866 99.7896H243.304V111.521H297.866V99.7896Z" fill="#EDBA21"></path> </svg> 