<svg width="16" height="17" viewBox="0 0 16 17" fill="none" xmlns="http://www.w3.org/2000/svg">
<path fill-rule="evenodd" clip-rule="evenodd" d="M14.2351 11.1167C14.2005 11.1029 13.713 10.9028 13.3547 10.4436C13.1399 10.1683 12.7467 10.1226 12.4765 10.3414C12.2063 10.5603 12.1614 10.9609 12.3762 11.2362C12.6993 11.6502 13.075 11.9256 13.3619 12.0947C13.314 12.369 13.2127 12.6755 13.0355 12.9356C12.7572 13.3443 12.3641 13.543 11.8339 13.543H4.20957C3.24294 13.543 2.81163 12.7178 2.68691 12.0914C2.87138 11.9826 3.09282 11.8305 3.31476 11.6271C4.02257 10.9783 4.39672 10.1215 4.39672 9.14929V6.92059C4.39672 4.9112 5.99544 3.25455 7.96056 3.22768C7.96363 3.22764 7.96664 3.22738 7.96966 3.22712L7.97668 3.22662C7.9788 3.22667 7.98089 3.22682 7.98297 3.22697C7.9838 3.22703 7.98463 3.22709 7.98546 3.22714L7.99046 3.22733C8.00693 3.22733 8.02312 3.22608 8.03928 3.22481L8.04589 3.22537C8.05814 3.22643 8.07039 3.22748 8.08287 3.22764C10.0652 3.25477 11.678 4.91142 11.678 6.92059V7.81207C11.678 8.16376 11.9578 8.44884 12.303 8.44884C12.6481 8.44884 12.928 8.16376 12.928 7.81207V6.92059C12.928 4.39538 11.0361 2.28456 8.61546 1.98932V1.06231C8.61546 0.710619 8.33565 0.425537 7.99046 0.425537C7.64528 0.425537 7.36547 0.710619 7.36547 1.06231V1.99724C6.30125 2.14119 5.31744 2.64013 4.54966 3.43536C3.64497 4.37237 3.14672 5.61012 3.14672 6.92059V9.14929C3.14672 10.5713 1.88926 11.0852 1.80823 11.1168C1.55707 11.2058 1.39673 11.4442 1.39673 11.7153C1.39673 12.3836 1.63042 13.1143 2.02182 13.6699C2.54273 14.4093 3.31972 14.8165 4.20957 14.8165H6.14672C6.14672 15.8699 6.98784 16.7269 8.02171 16.7269C9.05559 16.7269 9.89671 15.8699 9.89671 14.8165H11.8339C13.0258 14.8165 13.7037 14.1885 14.0625 13.6616C14.5898 12.8874 14.6467 12.0425 14.6467 11.7153C14.6467 11.444 14.4864 11.2057 14.2351 11.1167ZM8.02171 15.4533C7.67709 15.4533 7.39672 15.1677 7.39672 14.8165H8.64671C8.64671 15.1677 8.36637 15.4533 8.02171 15.4533ZM1.981 5.82317C2.19631 4.60028 2.74462 3.49164 3.56675 2.61713C3.80553 2.36316 3.79703 1.96008 3.54772 1.71683C3.29841 1.47349 2.90278 1.48225 2.66406 1.73622C1.67115 2.79237 1.00949 4.12786 0.750647 5.59832C0.689709 5.94447 0.91571 6.27543 1.25546 6.33752C1.29284 6.3443 1.3299 6.34761 1.36656 6.34761C1.6634 6.34761 1.92678 6.13127 1.981 5.82317ZM13.3152 1.70256C14.3012 2.74326 14.9881 4.13372 15.2494 5.61784C15.3104 5.96399 15.0843 6.29495 14.7446 6.35703C14.7073 6.36385 14.6701 6.36713 14.6335 6.36713C14.3367 6.36713 14.0733 6.15082 14.0191 5.84268C13.801 4.60432 13.2317 3.44814 12.4158 2.58706C12.1761 2.33404 12.1831 1.93093 12.4314 1.68667C12.6798 1.44243 13.0754 1.44953 13.3152 1.70256Z" fill="black"/>
</svg>
