<svg width="40" height="40" viewBox="0 0 40 40" fill="none" xmlns="http://www.w3.org/2000/svg">
<path d="M38.9382 13.7262L26.2721 1.06023C25.5884 0.376563 24.6766 0 23.7045 0C22.7326 0 21.8207 0.376406 21.137 1.06008L1.06023 21.1369C0.376563 21.8206 0 22.7324 0 23.7044C0 24.6764 0.376563 25.5883 1.06023 26.2719L2.62211 27.8338C2.62227 27.8338 2.62234 27.834 2.6225 27.8341C2.62266 27.8343 2.62281 27.8345 2.62297 27.8346L13.1198 38.3315H11.6664C11.2063 38.3315 10.8331 38.7045 10.8331 39.1648C10.8331 39.6249 11.2063 39.9981 11.6664 39.9981H16.2906C16.2916 39.9981 16.2927 39.9981 16.2938 39.9981C16.2948 39.9981 16.2959 39.9981 16.297 39.9981L28.3324 39.9982C28.7925 39.9982 29.1656 39.6251 29.1656 39.1649C29.1656 38.7047 28.7925 38.3317 28.3324 38.3317L19.468 38.3315L38.9383 18.8612C40.3539 17.4454 40.3539 15.1418 38.9382 13.7262ZM37.7598 17.6827L17.6829 37.7596C17.3147 38.1277 16.8225 38.3307 16.2968 38.3315H16.2905C15.7649 38.3306 15.2729 38.1277 14.9048 37.7596L4.39024 27.2449L23.6711 7.96391C23.9965 7.63852 23.9965 7.11086 23.6711 6.78547C23.3456 6.46008 22.8181 6.46008 22.4926 6.78555L3.21172 26.0666L2.23859 25.0934C1.86977 24.7246 1.66664 24.2313 1.66664 23.7045C1.66664 23.1776 1.86977 22.6842 2.23867 22.3153L22.3154 2.23859C22.6843 1.86977 23.1777 1.66664 23.7045 1.66664C24.2314 1.66664 24.7248 1.86977 25.0937 2.23867L29.6017 6.74664L10.3206 26.0279C9.99524 26.3532 9.99524 26.8809 10.3206 27.2064C10.4834 27.3691 10.6966 27.4504 10.9098 27.4504C11.123 27.4504 11.3363 27.369 11.4991 27.2063L30.7802 7.92516L37.7598 14.9045C38.5256 15.6705 38.5256 16.9168 37.7598 17.6827Z" fill="#C4C4C4"/>
<path d="M20.5314 24.0666C20.206 23.7413 19.6785 23.7413 19.3529 24.0666L12.7956 30.6239C12.4702 30.9493 12.4702 31.4769 12.7956 31.8024C12.9583 31.9652 13.1716 32.0465 13.3848 32.0465C13.598 32.0465 13.8113 31.9651 13.974 31.8024L20.5313 25.2452C20.8568 24.9196 20.8568 24.392 20.5314 24.0666Z" fill="#C4C4C4"/>
<path d="M17.8418 30.2914L15.1524 32.9809C14.827 33.3062 14.827 33.8339 15.1524 34.1594C15.3151 34.322 15.5284 34.4034 15.7416 34.4034C15.9549 34.4034 16.1681 34.322 16.3308 34.1594L19.0203 31.4699C19.3457 31.1445 19.3457 30.6169 19.0203 30.2914C18.6949 29.9659 18.1674 29.9659 17.8418 30.2914Z" fill="#C4C4C4"/>
<path d="M20.3167 27.8168L19.9632 28.1702C19.6378 28.4956 19.6378 29.0232 19.9631 29.3487C20.1258 29.5114 20.3392 29.5929 20.5524 29.5929C20.7656 29.5929 20.9789 29.5114 21.1415 29.3487L21.495 28.9953C21.8205 28.6699 21.8205 28.1423 21.4951 27.8168C21.1699 27.4914 20.6421 27.4914 20.3167 27.8168Z" fill="#C4C4C4"/>
<path d="M31.8025 12.7955C31.6463 12.6392 31.4343 12.5514 31.2133 12.5514C30.9923 12.5514 30.7804 12.6392 30.6241 12.7955L27.0885 16.3309C26.9323 16.4873 26.8445 16.6991 26.8445 16.9201C26.8445 17.1412 26.9323 17.3531 27.0885 17.5094L29.4456 19.8662C29.6083 20.0289 29.8216 20.1102 30.0348 20.1102C30.2482 20.1102 30.4613 20.0288 30.624 19.8662L34.1594 16.3308C34.4848 16.0055 34.4848 15.4778 34.1594 15.1524L31.8025 12.7955ZM30.0347 18.0986L28.8562 16.9201L31.2132 14.5632L32.3917 15.7417L30.0347 18.0986Z" fill="#C4C4C4"/>
<path d="M25.0264 6.26366C25.2398 6.26366 25.4531 6.18226 25.6157 6.01944L25.9692 5.66577C26.2945 5.3403 26.2945 4.81265 25.969 4.48733C25.6436 4.16202 25.1159 4.1621 24.7906 4.48757L24.437 4.84124C24.1117 5.16671 24.1118 5.69437 24.4373 6.01968C24.6 6.18241 24.8131 6.26366 25.0264 6.26366Z" fill="#C4C4C4"/>
<path d="M8.37612 27.9724L8.02261 28.3259C7.69722 28.6512 7.69722 29.1789 8.02261 29.5044C8.18534 29.6671 8.39862 29.7484 8.61183 29.7484C8.82503 29.7484 9.03831 29.6671 9.20105 29.5044L9.55456 29.1509C9.87995 28.8254 9.87995 28.2978 9.55456 27.9724C9.22909 27.6469 8.70159 27.6469 8.37612 27.9724Z" fill="#C4C4C4"/>
</svg>
