<svg width="20" height="19" viewBox="0 0 20 19" fill="none" xmlns="http://www.w3.org/2000/svg">
<path d="M18.4203 1.42624C17.484 0.493164 16.1662 0 14.6094 0C12.908 0 11.438 0.724335 10.3581 2.09457C10.2328 2.25357 10.1198 2.41272 10.0182 2.56821C9.92065 2.4147 9.81186 2.25769 9.69086 2.10083C8.63007 0.726471 7.1431 0 5.39062 0C3.83377 0 2.51602 0.493164 1.57974 1.42624C0.531464 2.47101 0 3.99765 0 5.96359C0 7.87201 1.11618 10.1617 3.31772 12.7692C4.99649 14.7577 7.04758 16.5974 8.40729 17.6561C8.87619 18.0212 9.43802 18.2037 10 18.2037C10.5618 18.2037 11.124 18.0212 11.5927 17.6561C12.0451 17.3038 12.9732 16.5529 14.1045 15.4811C14.4177 15.1845 14.3663 14.6582 14.1344 14.3767C13 13 14.5 11.5 15.7124 12.6718C15.8486 12.8034 16.0349 12.8516 16.2105 12.8516C16.4351 12.8516 16.658 12.7553 16.8124 12.5688C18.9574 9.98108 20 7.82043 20 5.96359C20 3.99765 19.4685 2.47101 18.4203 1.42624Z" fill="#EE2721"/>
</svg>
