<svg width="40" height="30" viewBox="0 0 40 30" fill="none" xmlns="http://www.w3.org/2000/svg">
<path d="M39.3346 0H0.665362C0.298474 0 0 0.298474 0 0.665362V29.3151C0 29.682 0.298474 29.9804 0.665362 29.9804H39.3346C39.7015 29.9804 40 29.682 40 29.3151V0.665362C40 0.298474 39.7015 0 39.3346 0ZM35.6947 4.30528V15.6596C31.1005 15.7161 28.4654 16.4308 26.1306 17.0647C25.9122 17.1239 25.6952 17.1828 25.4782 17.2408L22.0029 13.7655C20.613 12.3756 18.3882 12.3191 16.9292 13.5942L13.786 10.451C13.0688 9.7337 11.9018 9.7337 11.1846 10.451L4.30528 17.3303V4.30528H35.6947ZM19.9734 18.1611C19.9267 18.1632 19.8816 18.1713 19.8385 18.1836C18.4105 17.7587 16.8219 17.3644 15.0362 17.1344L17.5749 14.5957C18.5668 13.6038 20.1807 13.6038 21.1727 14.5957L24.1527 17.5758C22.9285 17.8614 21.6155 18.0864 19.9734 18.1611ZM5.66074 17.6353L12.0149 11.2812C12.2743 11.0218 12.6964 11.0218 12.9559 11.2812L16.0924 14.4178L13.5248 16.9854C11.229 16.828 8.62943 16.9656 5.66074 17.6353ZM4.30528 25.6751V19.1912C7.83084 18.1995 11.1323 17.886 14.3831 18.2371C17.2968 18.5519 19.6722 19.3381 21.7679 20.0318C23.6832 20.6658 25.3374 21.2133 26.8885 21.2133C27.2127 21.2133 27.4755 20.9505 27.4755 20.6262C27.4755 20.302 27.2127 20.0391 26.8885 20.0391C25.6481 20.0391 24.2336 19.6074 22.6168 19.0755C24.0164 18.855 25.2056 18.5324 26.4382 18.1978C28.8124 17.5533 31.2655 16.8881 35.6947 16.8337V25.6751H4.30528ZM36.0387 3.13112H3.96133L2.00438 1.17417H37.9955L36.0387 3.13112ZM3.13112 3.96133V18.7373C3.13112 18.7387 3.13112 18.7401 3.13112 18.7415V18.7473C3.13112 18.7475 3.13112 18.7476 3.13112 18.7477V26.019L1.17417 27.976V2.00438L3.13112 3.96133ZM3.96133 26.8493H36.0386L37.9955 28.8063H2.00438L3.96133 26.8493ZM36.8689 26.0191V3.96133L38.8258 2.00438V27.976L36.8689 26.0191Z" fill="#C4C4C4"/>
<path d="M28.7671 12.4462C30.1268 12.4462 31.2329 11.34 31.2329 9.9804C31.2329 8.62079 30.1268 7.51465 28.7671 7.51465C27.4075 7.51465 26.3014 8.62079 26.3014 9.9804C26.3014 11.34 27.4075 12.4462 28.7671 12.4462ZM28.7671 8.68882C29.4793 8.68882 30.0587 9.26823 30.0587 9.9804C30.0587 10.6926 29.4793 11.272 28.7671 11.272C28.055 11.272 27.4756 10.6926 27.4756 9.9804C27.4756 9.26823 28.055 8.68882 28.7671 8.68882Z" fill="#C4C4C4"/>
</svg>
