<svg width="32" height="32" viewBox="0 0 32 32" fill="none" xmlns="http://www.w3.org/2000/svg">
<path d="M4 15C4 11.2503 4 9.3754 4.95492 8.06107C5.26331 7.6366 5.6366 7.26331 6.06107 6.95492C7.3754 6 9.25027 6 13 6H19C22.7497 6 24.6246 6 25.9389 6.95492C26.3634 7.26331 26.7367 7.6366 27.0451 8.06107C28 9.3754 28 11.2503 28 15V17C28 20.7497 28 22.6246 27.0451 23.9389C26.7367 24.3634 26.3634 24.7367 25.9389 25.0451C24.6246 26 22.7497 26 19 26H13C9.25027 26 7.3754 26 6.06107 25.0451C5.6366 24.7367 5.26331 24.3634 4.95492 23.9389C4 22.6246 4 20.7497 4 17V15Z" stroke="#0081FF" stroke-width="2" stroke-linejoin="round"/>
<path d="M4 10.6665L10.475 15.7024C12.8246 17.5298 13.9994 18.4435 15.3414 18.6219C15.7789 18.6801 16.2222 18.6801 16.6596 18.6219C18.0016 18.4434 19.1764 17.5296 21.5259 15.7021L28 10.6665" stroke="#0081FF" stroke-width="2" stroke-linejoin="round"/>
</svg>
