<svg width="32" height="32" viewBox="0 0 32 32" fill="none" xmlns="http://www.w3.org/2000/svg">
<path d="M14.6665 12C14.6665 13.1046 13.7711 14 12.6665 14C11.5619 14 10.6665 13.1046 10.6665 12C10.6665 10.8954 11.5619 10 12.6665 10C13.7711 10 14.6665 10.8954 14.6665 12Z" fill="white"/>
<path d="M21.3332 12C21.3332 13.1046 20.4377 14 19.3332 14C18.2286 14 17.3332 13.1046 17.3332 12C17.3332 10.8954 18.2286 10 19.3332 10C20.4377 10 21.3332 10.8954 21.3332 12Z" fill="white"/>
<path d="M9.89063 18C10.9194 20.3545 13.2688 22 16.0026 22C18.7363 22 21.0858 20.3545 22.1145 18M28 16C28 22.6274 22.6274 28 16 28C9.37258 28 4 22.6274 4 16C4 9.37258 9.37258 4 16 4C22.6274 4 28 9.37258 28 16Z" stroke="white" stroke-width="2" stroke-linecap="round" stroke-linejoin="round"/>
</svg>
