<svg width="41" height="40" viewBox="0 0 41 40" fill="none" xmlns="http://www.w3.org/2000/svg">
<path d="M30.4024 10.0833C27.7683 7.45833 24.2561 6 20.5488 6C12.8415 6 6.59756 12.2222 6.59756 19.9028C6.59756 22.3333 7.28049 24.7639 8.45122 26.8056L6.5 34L13.9146 32.0556C15.9634 33.125 18.2073 33.7083 20.5488 33.7083C28.2561 33.7083 34.5 27.4861 34.5 19.8056C34.4024 16.2083 33.0366 12.7083 30.4024 10.0833ZM27.2805 24.8611C26.9878 25.6389 25.6219 26.4167 24.939 26.5139C24.3537 26.6111 23.5732 26.6111 22.7927 26.4167C22.3049 26.2222 21.622 26.0278 20.8415 25.6389C17.3293 24.1806 15.0854 20.6806 14.8902 20.3889C14.6951 20.1944 13.4268 18.5417 13.4268 16.7917C13.4268 15.0417 14.3049 14.2639 14.5976 13.875C14.8902 13.4861 15.2805 13.4861 15.5732 13.4861C15.7683 13.4861 16.061 13.4861 16.2561 13.4861C16.4512 13.4861 16.7439 13.3889 17.0366 14.0694C17.3293 14.75 18.0122 16.5 18.1098 16.5972C18.2073 16.7917 18.2073 16.9861 18.1098 17.1806C18.0122 17.375 17.9146 17.5694 17.7195 17.7639C17.5244 17.9583 17.3293 18.25 17.2317 18.3472C17.0366 18.5417 16.8415 18.7361 17.0366 19.0278C17.2317 19.4167 17.9146 20.4861 18.9878 21.4583C20.3537 22.625 21.4268 23.0139 21.8171 23.2083C22.2073 23.4028 22.4024 23.3056 22.5976 23.1111C22.7927 22.9167 23.4756 22.1389 23.6707 21.75C23.8659 21.3611 24.1585 21.4583 24.4512 21.5556C24.7439 21.6528 26.5 22.5278 26.7927 22.7222C27.1829 22.9167 27.378 23.0139 27.4756 23.1111C27.5732 23.4028 27.5732 24.0833 27.2805 24.8611Z" fill="#48C95F"/>
</svg>
