<svg width="192" height="45" viewBox="0 0 192 45" fill="none" xmlns="http://www.w3.org/2000/svg">
<g clip-path="url(#clip0_1_10)">
<mask id="mask0_1_10" style="mask-type:luminance" maskUnits="userSpaceOnUse" x="0" y="0" width="192" height="45">
<path d="M192 0H0V45H192V0Z" fill="white"/>
</mask>
<g mask="url(#mask0_1_10)">
<path d="M188.646 11.0306C191.47 7.77938 192.034 3.96 190.21 0C185.382 0.849375 182.4 4.49999 182.4 9.19688V9.3375C182.542 14.9963 185.523 18.3938 190.781 20.3738C192.339 16.5544 191.204 13.0163 188.646 11.0306Z" fill="#A2A9AD"/>
<path d="M174.688 0C172.993 3.9375 173.411 7.77938 176.252 11.0306C173.694 13.0163 172.559 16.5544 174.123 20.3738C179.375 18.3938 182.362 14.9963 182.503 9.3375V9.19688C182.503 4.52249 179.521 0.849375 174.688 0Z" fill="#A2A9AD"/>
<path fill-rule="evenodd" clip-rule="evenodd" d="M116.46 21.0094C115.975 20.5819 114.879 20.16 113.129 20.16C111.21 20.2281 109.379 20.9784 107.967 22.275V20.3794C107.967 19.9912 107.809 19.485 106.488 19.7044C105.025 19.9462 103.738 20.3738 103.738 21.1331V43.9425H107.967V26.505C108.571 25.2 111.209 23.6644 113.851 23.6644C114.538 23.6577 115.224 23.7124 115.901 23.8275L116.404 23.9231C116.639 23.4366 116.804 22.9197 116.895 22.3875C116.949 22.1425 116.937 21.8878 116.861 21.6489C116.785 21.4099 116.646 21.1952 116.46 21.0263M148.722 44.2406C148.399 44.2747 148.073 44.2361 147.767 44.1277C147.461 44.0194 147.184 43.844 146.955 43.6146C146.726 43.3851 146.552 43.1075 146.446 42.802C146.339 42.4966 146.302 42.1713 146.339 41.85V32.5631C146.339 28.71 146.435 25.0706 144.154 23.8669C143.405 23.5056 142.58 23.3281 141.748 23.3494C139.84 23.4023 137.981 23.9658 136.366 24.9806V44.2238H132.137V28.53C132.137 26.8706 132.193 25.3069 131.572 24.5925C130.951 23.8781 129.686 23.3944 128.009 23.3944C126.121 23.4452 124.256 23.8122 122.491 24.48V44.2463H118.267V23.1187C118.252 22.8267 118.321 22.5364 118.465 22.2815C118.609 22.0267 118.823 21.8177 119.081 21.6788C119.521 21.4414 119.978 21.2346 120.447 21.06C122.943 20.1389 125.579 19.65 128.24 19.6144C130.917 19.6144 133.063 20.2444 134.486 21.4369C136.847 20.2609 139.447 19.6358 142.087 19.6088C143.77 19.5478 145.439 19.9362 146.921 20.7338C147.913 21.3511 148.74 22.1983 149.332 23.2031C150.631 25.3969 150.591 28.2656 150.591 31.5506V39.5044C150.591 42.6263 150.896 43.4419 150.97 43.785C150.282 44.1202 149.521 44.2788 148.756 44.2463L148.722 44.2406ZM70.2279 23.4C68.1329 23.4 66.371 23.9625 65.3941 24.975C64.1235 26.2744 63.3668 29.0306 63.4232 32.1638C63.4797 35.2969 64.3268 37.9913 65.6369 39.2344C66.8002 40.3594 68.2797 40.8656 70.2844 40.8656C71.511 40.8592 72.7008 40.4521 73.6727 39.7069C74.0262 39.4769 74.326 39.1741 74.5519 38.819C74.7778 38.4639 74.9246 38.0646 74.9828 37.6481V24.3956C73.4919 23.719 71.8718 23.3736 70.2336 23.3831M69.0759 44.3306C67.3903 44.3234 65.734 43.894 64.259 43.0819C62.8393 42.3255 61.6478 41.205 60.8087 39.8363C60.0147 38.4011 59.4957 36.8312 59.2783 35.2069C59.0084 33.4542 58.9231 31.6784 59.0242 29.9081C59.188 26.7694 60.0915 24.2831 61.7122 22.4775C63.4515 20.565 65.8854 19.5919 68.9687 19.5919C69.4148 19.5919 69.8722 19.5919 70.3465 19.6537C71.9435 19.8268 73.5055 20.2344 74.9828 20.8631V11.0588H78.8962V39.5044C78.9137 40.7522 79.052 41.9954 79.3084 43.2169L79.4496 43.8131L78.8849 44.0156C78.384 44.194 77.8577 44.2909 77.3263 44.3025C77.0146 44.3222 76.7029 44.2757 76.4109 44.1661C76.1184 44.0565 75.853 43.8864 75.6322 43.6669C75.3809 43.3999 75.2036 43.0723 75.1183 42.7163C73.6049 43.8919 71.8261 44.3588 69.0703 44.3588M15.6435 32.5069C14.567 31.3854 13.2368 30.5368 11.7639 30.0319C10.976 29.7336 10.173 29.4765 9.35831 29.2613C8.22726 28.9896 7.13184 28.5875 6.09431 28.0631C5.7216 27.855 3.92017 26.7075 4.66558 24.7275C5.17946 23.3662 7.57384 23.0794 9.49948 23.0794C11.4824 23.0998 13.4595 23.2994 15.4063 23.6756L16.0331 23.7825C16.3304 23.1172 16.5594 22.4237 16.7164 21.7125C16.7637 21.4554 16.7121 21.19 16.5719 20.969C16.4317 20.7481 16.2132 20.5878 15.9597 20.52C13.736 19.9325 11.4495 19.6134 9.14936 19.5694C7.53854 19.5307 5.93127 19.7375 4.38323 20.1825C2.98012 20.5441 1.76834 21.4253 0.994995 22.6462C-0.0327689 24.4125 -0.00453364 27.8156 1.5597 29.7225C2.91499 31.3706 5.16251 32.0681 7.33666 32.7375C9.59548 33.4463 11.7752 34.11 12.6392 35.7638C13.5032 37.4175 12.9611 39.1388 12.0237 39.8981C11.0863 40.6575 9.68583 40.9444 7.62466 40.9444C4.48487 40.9444 0.995 39.9712 0.0801747 39.7912C-0.0267249 40.6618 -0.0267249 41.542 0.0801747 42.4125C0.122449 42.6594 0.23994 42.8874 0.416727 43.0654C0.593512 43.2436 0.821037 43.3632 1.06841 43.4081C3.19995 44.0627 5.41171 44.4223 7.6416 44.4769C10.4651 44.4769 12.724 44.0044 14.3334 43.065C16.3607 41.8781 17.3884 39.9656 17.3884 37.4006C17.4524 35.6097 16.833 33.8612 15.6548 32.5069M55.9465 32.5069C54.87 31.3854 53.5399 30.5368 52.067 30.0319C51.2787 29.7345 50.4758 29.4773 49.6614 29.2613C48.5303 28.9896 47.4349 28.5875 46.3974 28.0631C46.0303 27.855 44.2232 26.7075 44.9687 24.7275C45.4825 23.3662 47.8825 23.0794 49.8025 23.0794C51.7874 23.0998 53.7663 23.2994 55.715 23.6756L56.3362 23.7825C56.6338 23.1168 56.8648 22.4234 57.0251 21.7125C57.0709 21.4548 57.0178 21.1893 56.8766 20.9686C56.7354 20.7478 56.5163 20.5878 56.2628 20.52C54.0409 19.9329 51.7563 19.6137 49.458 19.5694C47.8472 19.5307 46.24 19.7375 44.6919 20.1825C43.2888 20.5441 42.077 21.4253 41.3037 22.6462C40.2759 24.4125 40.3042 27.8156 41.8684 29.7225C43.2237 31.3706 45.4712 32.0681 47.6454 32.7375C49.9042 33.4463 52.0896 34.11 52.948 35.7638C53.8063 37.4175 53.2755 39.1388 52.3381 39.8981C51.4007 40.6575 49.9945 40.9444 47.939 40.9444C44.7936 40.9444 41.3093 39.9712 40.3888 39.7912C40.2797 40.6616 40.2797 41.5421 40.3888 42.4125C40.4284 42.6596 40.5444 42.8883 40.7204 43.0667C40.8966 43.2452 41.1241 43.3645 41.3715 43.4081C43.503 44.0627 45.7147 44.4223 47.9447 44.4769C50.7682 44.4769 53.027 44.0044 54.6364 43.065C56.6637 41.8781 57.6971 39.9656 57.6915 37.4006C57.7553 35.6097 57.1358 33.8612 55.9578 32.5069M87.2821 25.4025C87.6903 24.7487 88.2584 24.2083 88.9327 23.8316C89.607 23.455 90.3659 23.2543 91.139 23.2481C91.3479 23.2481 91.5625 23.2481 91.7602 23.2481C92.5621 23.1972 93.364 23.3538 94.0873 23.7027C94.8107 24.0516 95.4308 24.581 95.8882 25.2394C96.7358 26.6767 97.1802 28.3143 97.1757 29.9812H86.051C86.0973 28.3873 86.5186 26.8266 87.2821 25.425M100.762 39.8419C99.3668 40.1006 96.3287 40.9162 93.2397 40.9162C91.754 40.9816 90.2744 40.6903 88.9254 40.0669C87.0788 39.1275 86.0284 36.99 86.0284 33.3169H99.9202C100.795 33.3169 101.242 32.8331 101.259 32.2819C101.339 30.3618 101.161 28.4396 100.728 26.5669C100.36 24.8657 99.543 23.293 98.3616 22.0106C96.8312 20.3794 94.5724 19.5469 91.8054 19.5469C91.4835 19.5469 91.1559 19.5469 90.8228 19.5806C87.7056 19.7775 85.2604 20.9644 83.7583 23.0119C82.3352 24.9469 81.6294 27.72 81.539 31.725C81.4848 33.3628 81.6344 35.0009 81.9851 36.6019C82.2799 38.0348 82.8553 39.3959 83.6792 40.6069C84.7194 42.0272 86.169 43.0985 87.8355 43.6781C89.5697 44.2623 91.3926 44.5421 93.2228 44.505C95.4505 44.4498 97.6597 44.0921 99.7903 43.4419C100.046 43.3898 100.278 43.2582 100.454 43.0661C100.629 42.874 100.739 42.6314 100.767 42.3731C100.863 41.5227 100.863 40.6642 100.767 39.8137M24.3625 25.3969C24.773 24.7436 25.342 24.2039 26.0171 23.8274C26.6921 23.4509 27.4515 23.2498 28.2251 23.2425C28.4341 23.2425 28.643 23.2425 28.8462 23.2425C29.6482 23.1927 30.4494 23.3497 31.1726 23.6986C31.8957 24.0474 32.5163 24.5762 32.9743 25.2338C33.8194 26.6721 34.2639 28.3091 34.2618 29.9756H23.1371C23.1817 28.3822 23.6014 26.8216 24.3625 25.4194M37.8477 39.8363C36.4528 40.095 33.4148 40.9106 30.3258 40.9106C28.8519 40.9803 27.3825 40.6987 26.0397 40.0894C24.1931 39.15 23.1428 37.0125 23.1428 33.3394H37.0289C37.9155 33.3394 38.3616 32.8556 38.3729 32.3044C38.4508 30.3844 38.2723 28.4626 37.8421 26.5894C37.4738 24.8882 36.657 23.3155 35.476 22.0331C33.9004 20.4075 31.6868 19.5806 28.8971 19.5806C28.5809 19.5806 28.2477 19.5806 27.9145 19.6144C24.803 19.8112 22.3578 20.9981 20.8501 23.0456C19.4327 24.9806 18.7268 27.7537 18.6364 31.7587C18.5822 33.3965 18.732 35.0346 19.0825 36.6356C19.3773 38.0686 19.953 39.4296 20.7767 40.6406C21.8168 42.061 23.2665 43.1323 24.9329 43.7119C26.667 44.2961 28.4899 44.5759 30.3202 44.5388C32.5435 44.4711 34.7474 44.102 36.8708 43.4419C37.1269 43.39 37.36 43.2587 37.5365 43.0666C37.713 42.8746 37.8239 42.6318 37.8534 42.3731C37.9489 41.5227 37.9489 40.6642 37.8534 39.8137M162.687 32.7544C161.849 32.8105 161.018 32.9519 160.208 33.1762C158.277 33.7387 156.662 34.9088 156.662 37.3106C156.662 40.2019 158.621 41.2481 160.417 41.2481C165.059 41.2481 167.476 38.5481 167.758 38.1431V36.4894C167.758 35.2575 167.798 34.0987 167.809 32.8725C166.121 32.703 164.421 32.6654 162.727 32.76M172.327 43.74C171.988 44.0381 170.813 44.2687 169.989 44.2687C168.645 44.2687 167.956 42.5813 167.956 41.5913C165.802 43.3886 163.086 44.3829 160.276 44.4038C155.837 44.4038 152.59 42.1538 152.59 37.53C152.59 33.9806 154.397 32.085 156.543 31.095C159.367 29.7731 163.828 29.6269 167.837 30.0712C167.837 29.4412 167.837 28.2713 167.837 27.675C167.837 24.7838 167.227 23.0512 163.399 23.0512C160.248 23.0512 156.492 23.8163 155.493 23.9513C155.29 23.3888 154.606 22.1231 154.855 21.5044C154.951 21.2794 155.419 21.0656 155.657 20.9419C157.277 20.3367 158.964 19.927 160.683 19.7213C161.4 19.6313 162.134 19.5863 162.941 19.5469C164.294 19.4765 165.65 19.613 166.962 19.9519C169.786 20.7506 171.412 22.7194 171.768 25.83C171.833 26.4954 171.859 27.164 171.847 27.8325C171.847 31.1569 171.847 34.7625 171.847 38.2163C171.847 38.9138 171.813 39.6112 171.847 40.2919C171.886 41.4514 172.076 42.6009 172.411 43.7119" fill="#323E48"/>
</g>
</g>
<defs>
<clipPath id="clip0_1_10">
<rect width="192" height="45" fill="white"/>
</clipPath>
</defs>
</svg>
