<svg xmlns="http://www.w3.org/2000/svg" viewBox="0 0 512 512"><path d="M256.06 0h-.12C114.78 0 0 114.82 0 256c0 56 18.05 107.9 48.74 150.05l-31.9 95.1 98.4-31.45A253.79 253.79 0 0 0 256.05 512C397.22 512 512 397.15 512 256S397.22 0 256.06 0z" fill="#4caf50"/><path d="M405.02 361.5c-6.17 17.44-30.68 31.9-50.24 36.13-13.37 2.85-30.84 5.12-89.66-19.26-75.23-31.17-123.68-107.62-127.46-112.58-3.61-4.96-30.4-40.48-30.4-77.21s18.66-54.63 26.18-62.3c6.18-6.31 16.38-9.2 26.18-9.2 3.16 0 6.01.17 8.57.3 7.52.32 11.3.76 16.26 12.64 6.17 14.88 21.21 51.61 23 55.39 1.83 3.77 3.65 8.9 1.1 13.85-2.4 5.12-4.52 7.4-8.3 11.75-3.77 4.35-7.35 7.68-11.13 12.35-3.46 4.06-7.36 8.42-3 15.94 4.34 7.36 19.38 31.9 41.53 51.61 28.57 25.44 51.74 33.57 60.03 37.03 6.18 2.56 13.54 1.95 18.05-2.85 5.73-6.18 12.8-16.42 20-26.5 5.12-7.23 11.58-8.13 18.37-5.57 6.9 2.4 43.48 20.48 51 24.23 7.52 3.77 12.48 5.57 14.3 8.73 1.8 3.17 1.8 18.05-4.38 35.52z" fill="#fafafa"/></svg>