<svg id="Capa_1" enable-background="new 0 0 511.117 511.117" height="512" viewBox="0 0 511.117 511.117" width="512" xmlns="http://www.w3.org/2000/svg"><g id="Lines_27_"><path d="m417.746 0h-75.229v15h60.229v383.107h-48.561-195.33-50.483v-383.107h218.173v-15h-233.174v413.107h65.483v32.232h21.882v65.777h149.644v-65.776h23.805v-32.232h63.561zm-102.365 496.117h-119.644v-14.837h34.58v-15h-34.58v-20.94h119.644zm23.805-65.777h-165.331v-17.232h165.331z"/><path d="m134.431 280.541h54.157v-15h-39.157v-212.255h212.255v212.255h-157.627v15h172.627v-242.255h-242.255z"/><path d="m215.586 340.918c0 22.041 17.932 39.973 39.973 39.973s39.973-17.932 39.973-39.973c0-22.04-17.932-39.972-39.973-39.972s-39.973 17.932-39.973 39.972zm64.945 0c0 13.77-11.203 24.973-24.973 24.973s-24.973-11.203-24.973-24.973 11.203-24.972 24.973-24.972 24.973 11.202 24.973 24.972z"/><path d="m318.857 383.89 60.85-44.565-60.85-44.567zm15-59.553 20.463 14.987-20.463 14.987z"/><path d="m190.088 383.89v-89.132l-60.85 44.566zm-15-29.578-20.464-14.987 20.464-14.988z"/><path d="m277.967 466.28h15.884v15h-15.884z"/><path d="m246.2 466.28h15.884v15h-15.884z"/><path d="m196.732 157.006v15h50.543v-95.921h-50.543v15h35.543v25.46h-32.366v15h32.366v25.461z"/><path d="m314.385 91.085v-15h-49.339v95.921h56.839v-55.461h-41.839v-25.46zm-7.5 40.46v25.461h-26.839v-25.461z"/><path d="m183.824 198.3h87.79v15h-87.79z"/><path d="m183.824 230.198h62.048v15h-62.048z"/><path d="m307.997 230.198h15.297v15h-15.297z"/></g></svg>