<svg id="icons" enable-background="new 0 0 64 64" height="512" viewBox="0 0 64 64" width="512" xmlns="http://www.w3.org/2000/svg"><g><g><g><g><path d="m40.906 32.583c-.256 0-.512-.098-.707-.293l-8.486-8.487c-.391-.391-.391-1.023 0-1.414s1.023-.391 1.414 0l8.486 8.487c.391.391.391 1.023 0 1.414-.195.195-.451.293-.707.293z"/></g><g><path d="m1.588 57.762c-.256 0-.512-.098-.707-.293-.391-.391-.391-1.023 0-1.414l32.245-32.249c.391-.391 1.023-.391 1.414 0s.391 1.023 0 1.414l-32.245 32.249c-.195.195-.451.293-.707.293z"/></g><g><path d="m7.24 63.416c-.256 0-.512-.098-.707-.293-.391-.391-.391-1.023 0-1.414l32.25-32.25c.391-.391 1.023-.391 1.414 0s.391 1.023 0 1.414l-32.25 32.25c-.195.195-.451.293-.707.293z"/></g><g><path d="m1.588 60.589c-.256 0-.511-.098-.706-.292-.569-.568-.882-1.32-.882-2.122 0-.801.313-1.554.882-2.121.392-.39 1.024-.39 1.414.002.39.391.39 1.024-.002 1.414-.19.189-.294.439-.294.705 0 .267.104.517.294.706.392.39.392 1.023.002 1.414-.195.196-.452.294-.708.294z"/></g><g><path d="m5.828 64.001c-.001 0-.002 0-.003 0-.801-.001-1.554-.313-2.121-.882-.39-.391-.39-1.024.002-1.414.391-.39 1.023-.39 1.414.002.188.189.439.294.707.294.267 0 .518-.104.706-.293.391-.389 1.024-.39 1.415.001.39.392.39 1.024-.001 1.415-.566.565-1.319.877-2.119.877z"/></g><g><path d="m4.412 63.413c-.256 0-.512-.098-.707-.293l-2.824-2.824c-.391-.391-.391-1.023 0-1.414s1.023-.391 1.414 0l2.824 2.824c.391.391.391 1.023 0 1.414-.195.195-.451.293-.707.293z"/></g><g><path d="m32.42 24.096c-.256 0-.512-.098-.707-.293-.391-.391-.391-1.023 0-1.414l2.119-2.119c.391-.391 1.023-.391 1.414 0s.391 1.023 0 1.414l-2.119 2.119c-.195.195-.451.293-.707.293z"/></g><g><path d="m40.906 32.583c-.256 0-.512-.098-.707-.293-.391-.391-.391-1.023 0-1.414l2.12-2.119c.391-.391 1.023-.391 1.414 0s.391 1.023 0 1.414l-2.12 2.119c-.195.195-.451.293-.707.293z"/></g></g><g><path d="m50.104 36.28c-1.071 0-2.075-.415-2.829-1.169l-18.388-18.387c-.753-.753-1.168-1.758-1.168-2.828s.415-2.075 1.168-2.828l9.901-9.899c.752-.754 1.757-1.169 2.828-1.169 1.069 0 2.074.415 2.827 1.168l18.389 18.387c1.56 1.56 1.56 4.098-.001 5.657l-9.9 9.901c-.753.752-1.757 1.167-2.827 1.167zm-8.488-34.281c-.536 0-1.038.207-1.413.582l-9.902 9.9c-.375.376-.582.878-.582 1.414s.207 1.038.582 1.414l18.388 18.388c.752.752 2.078.751 2.828.001l9.9-9.901c.78-.78.78-2.05.001-2.829l-18.389-18.387c-.376-.375-.878-.582-1.413-.582z"/></g></g><g><path d="m30.291 40.306h-11.373c-.553 0-1-.447-1-1s.447-1 1-1h11.373c.553 0 1 .447 1 1s-.447 1-1 1z"/></g><g><path d="m26.033 44.563h-11.373c-.553 0-1-.447-1-1s.447-1 1-1h11.373c.553 0 1 .447 1 1s-.447 1-1 1z"/></g><g><path d="m21.775 48.821h-11.373c-.553 0-1-.447-1-1s.447-1 1-1h11.373c.553 0 1 .447 1 1s-.447 1-1 1z"/></g><g><path d="m17.518 53.079h-11.373c-.553 0-1-.447-1-1s.447-1 1-1h11.373c.553 0 1 .447 1 1s-.448 1-1 1z"/></g><g><path d="m29.594 17.017c-.256 0-.512-.098-.707-.293-.391-.391-.391-1.023 0-1.414l14.142-14.143c.391-.391 1.023-.391 1.414 0s.391 1.023 0 1.414l-14.142 14.143c-.196.195-.451.293-.707.293z"/></g><g><path d="m47.979 35.403c-.256 0-.512-.098-.707-.293-.391-.391-.391-1.023 0-1.414l14.144-14.144c.391-.391 1.023-.391 1.414 0s.391 1.023 0 1.414l-14.143 14.144c-.196.196-.452.293-.708.293z"/></g></g></svg>