<?xml version="1.0" encoding="iso-8859-1"?>
<!-- Generator: Adobe Illustrator 19.0.0, SVG Export Plug-In . SVG Version: 6.00 Build 0)  -->
<svg version="1.1" id="Layer_1" xmlns="http://www.w3.org/2000/svg" xmlns:xlink="http://www.w3.org/1999/xlink" x="0px" y="0px"
	 viewBox="0 0 512 512" style="enable-background:new 0 0 512 512;" xml:space="preserve">
<g>
	<g>
		<path d="M488.03,456.427l-67.654-202.963c-1.382-4.145-5.995-6.453-10.141-5.071c-4.144,1.382-6.451,5.995-5.07,10.141
			l67.653,202.963c2.695,8.083,1.383,16.682-3.599,23.594c-4.981,6.911-12.724,10.876-21.244,10.876H64.025
			c-8.52,0-16.263-3.964-21.244-10.875c-4.981-6.911-6.294-15.512-3.599-23.594l96.913-290.739
			c3.57-10.71,13.554-17.906,24.844-17.906h190.125c11.29,0,21.273,7.196,24.844,17.906l18.178,54.535
			c1.4,4.201,5.937,6.47,10.141,5.071c4.2-1.4,6.47-5.94,5.07-10.141l-18.178-54.535c-5.757-17.269-21.855-28.871-40.056-28.871
			h-69.944v-23.769c20.186-9.476,34.205-29.99,34.205-53.726C315.324,26.612,288.712,0,256,0s-59.324,26.612-59.324,59.324
			c0,23.736,14.018,44.25,34.205,53.726v23.769h-69.944c-18.202,0-34.299,11.602-40.055,28.87L23.969,456.427
			c-4.343,13.031-2.228,26.895,5.803,38.039C37.805,505.609,50.288,512,64.025,512h383.952c13.736,0,26.22-6.391,34.252-17.534
			C490.259,483.323,492.374,469.458,488.03,456.427z M265.086,136.818h-18.171v-18.867c2.963,0.457,5.996,0.696,9.086,0.696
			c3.089,0,6.123-0.238,9.086-0.696V136.818z M212.71,59.324c0-23.871,19.42-43.29,43.29-43.29s43.29,19.42,43.29,43.29
			s-19.42,43.29-43.29,43.29C232.131,102.614,212.71,83.194,212.71,59.324z"/>
	</g>
</g>
<g>
	<g>
		<path d="M256,25.653c-18.566,0-33.67,15.105-33.67,33.67s15.105,33.67,33.67,33.67s33.67-15.104,33.67-33.67
			S274.566,25.653,256,25.653z M256,76.96c-9.725,0-17.637-7.912-17.637-17.637S246.275,41.687,256,41.687
			c9.725,0,17.637,7.912,17.637,17.637S265.725,76.96,256,76.96z"/>
	</g>
</g>
<g>
	<g>
		<path d="M256,188.125c-75.147,0-136.284,61.136-136.284,136.284S180.853,460.693,256,460.693s136.284-61.136,136.284-136.284
			S331.148,188.125,256,188.125z M256,444.66c-66.307,0-120.251-53.944-120.251-120.251S189.693,204.159,256,204.159
			c66.306,0,120.251,53.944,120.251,120.25S322.306,444.66,256,444.66z"/>
	</g>
</g>
<g>
	<g>
		<path d="M244.03,361.006l-43.916-36.597l43.917-36.597c3.401-2.835,3.861-7.89,1.026-11.291
			c-2.836-3.402-7.891-3.861-11.291-1.026l-38.158,31.797v-25.64c0-4.427-3.589-8.017-8.017-8.017s-8.017,3.589-8.017,8.017v85.511
			c0,4.427,3.589,8.017,8.017,8.017s8.017-3.589,8.017-8.017v-25.64l38.158,31.799c3.63,3.024,9.243,2.183,11.836-1.762
			C247.812,368.202,247.118,363.579,244.03,361.006z"/>
	</g>
</g>
<g>
	<g>
		<path d="M324.409,316.393h-25.653c-4.428,0-8.017,3.589-8.017,8.017s3.588,8.017,8.017,8.017h17.637v26.188
			c0,0.295-0.241,0.534-0.534,0.534h-34.205c-0.294,0-0.534-0.239-0.534-0.534v-68.409c0-0.295,0.24-0.534,0.534-0.534h42.756
			c4.428,0,8.017-3.589,8.017-8.017s-3.588-8.017-8.017-8.017h-42.756c-9.136,0-16.568,7.432-16.568,16.568v68.409
			c0,9.136,7.432,16.568,16.568,16.568h34.205c9.136,0,16.568-7.432,16.568-16.568v-34.205
			C332.426,319.982,328.838,316.393,324.409,316.393z"/>
	</g>
</g>
<g>
</g>
<g>
</g>
<g>
</g>
<g>
</g>
<g>
</g>
<g>
</g>
<g>
</g>
<g>
</g>
<g>
</g>
<g>
</g>
<g>
</g>
<g>
</g>
<g>
</g>
<g>
</g>
<g>
</g>
</svg>
