<svg height="480pt" viewBox="0 -120 480 480" width="480pt" xmlns="http://www.w3.org/2000/svg"><path d="m456 0h-432c-13.601562 0-24 10.398438-24 24v192c0 13.601562 10.398438 24 24 24h432c13.601562 0 24-10.398438 24-24v-192c0-13.601562-10.398438-24-24-24zm-152 224h-280c-4.800781 0-8-3.199219-8-8v-192c0-4.800781 3.199219-8 8-8h128v48h-24v16h64v-16h-24v-48h136zm160-8c0 4.800781-3.199219 8-8 8h-136v-96h144zm0-104h-144v-96h136c4.800781 0 8 3.199219 8 8zm0 0"/><path d="m400 32h-16v24h-24v16h24v24h16v-24h24v-16h-24zm0 0"/><path d="m360 168h64v16h-64zm0 0"/><path d="m128 128h48v24h-48v56h64v-16h-48v-24h48v-56h-64zm0 0"/></svg>