<svg height="511pt" viewBox="0 -29 511.99878 511" width="511pt" xmlns="http://www.w3.org/2000/svg"><g fill="#935252"><path d="m501.464844 226.246094-1.101563-5.0625-3.84375 3.480468c-13.054687 11.828126-27.121093 22.550782-41.8125 31.867188-5.089843 3.230469-11.078125 6.828125-17.664062 8.6875-2.011719.566406-4.148438.96875-6.53125 1.226562l-3.175781.34375 3.371093 19.5 3.460938-1.429687c3.289062-1.351563 6.335937-3.34375 9.027343-5.101563l59.855469-39.085937-.183593-1.851563c-.246094-4.152343-.5-8.445312-1.402344-12.574218zm0 0"/><path d="m413.609375 201.726562-27.230469 17.566407c-6.179687 3.980469-11.523437 7.710937-14.378906 13.046875l-1.519531 2.835937 2.933593 1.316407c.210938.097656.367188.183593.492188.289062 8.953125 7.429688 18.207031 15.109375 28.769531 20.226562 7.730469 3.738282 15.722657 5.714844 23.109375 5.714844 3.5625 0 6.984375-.453125 10.175782-1.351562 6.078124-1.722656 11.753906-5.140625 16.601562-8.210938 15.617188-9.90625 30.421875-21.324218 44.003906-33.9375l1.804688-1.671875-1.292969-2.097656c-4.238281-6.894531-10.867187-12.871094-19.167969-17.277344-13.992187-7.433593-26.046875-11.359375-34.855468-11.359375-2.398438 0-4.574219.304688-6.488282.917969-5.710937 1.855469-11.261718 5.804687-16.648437 9.636719-2.082031 1.480468-4.238281 3.007812-6.308594 4.355468zm0 0"/><path d="m346.945312 113.742188v.003906l-2.445312 2.085937c-22.558594 19.203125-44.996094 39.394531-66.683594 60.007813l-1.527344 1.453125-.011718-.027344-3.007813 2.886719c-20.15625 19.3125-39.992187 39.316406-58.953125 59.445312-.09375.078125-.1875.164063-.28125.253906l-1.453125 1.464844.84375 1.878906c2.433594 5.410157 3.011719 11.621094 3.480469 16.613282l6.328125 67.011718v3.84375l3.632813-.785156c13.703124-2.953125 25.296874-12.3125 36.949218-22.46875 7.238282-6.308594 14.75-12.980468 22.335938-19.824218l1.074218-.972657.003907.027344 4.621093-4.203125c18.902344-17.183594 37.6875-34.992188 55.832032-52.925781l.835937-.824219 5.464844-5.457031c14.484375-14.453125 28.878906-29.316407 42.792969-44.175781 15.167968-16.21875 29.320312-32.398438 35.738281-51.996094 6.542969-20 3.644531-42.140625-7.566406-57.773438-2.222657-3.09375-4.816407-6.042968-7.703125-8.773437l-1.851563-1.746094-2.027343 1.542969c-21.714844 16.539062-43.339844 33.902344-64.28125 51.605468zm2.226563 3.035156c-.097656-.136719-.230469-.324219-.230469-.324219l-.109375-.164063c.113281.152344.226563.316407.339844.488282zm24.902344-6.316406c1.09375-.984376 2.769531-2.730469 4.753906-4.800782 7.753906-8.078125 19.472656-20.292968 27.21875-20.292968 1.335937 0 2.421875.378906 3.429687 1.199218 3.859376 3.117188 4.683594 14.023438 5.125 19.867188.0625.886718.125 1.671875.1875 2.324218.84375 9.222657.007813 17.101563-2.558593 24.089844-3.894531 10.566406-11.988281 19.324219-18.492188 26.359375-13.976562 15.136719-28.550781 30.339844-43.3125 45.191407l-.8125.820312-.558593 11.804688.542968-11.773438-5.472656 5.449219c-18.582031 18.515625-37.800781 36.800781-57.117188 54.355469l-1.066406.96875v-.003907l-4.613281 4.15625c-15.113281 13.605469-30.40625 26.902344-45.457031 39.519531-3.828125-14.433593-6.082032-29.296874-6.691406-44.175781-.304688-7.304687-.203126-15.019531 2.597656-21.988281 3.523437-8.796875 10.953125-15.453125 17.507812-21.320312l31.996094-28.65625-.214844-1.578126c-.222656-1.613281-.5-3.117187-.828125-4.523437.0625.277344.140625.535156.199219.824219l1.074219 5.070312 71.332031-63.882812-.132812-1.496094c-.09375-1.097656-.234376-2.128906-.414063-3.113281l.917969 4.28125zm-95.992188 70.628906c.140625.300781.277344.617187.410157.929687-.132813-.316406-.269532-.625-.410157-.929687zm.652344 1.519531c.246094.617187.476563 1.257813.691406 1.917969-.214843-.664063-.445312-1.300782-.691406-1.917969zm.785156 2.210937c.246094.78125.46875 1.59375.671875 2.441407-.203125-.847657-.429687-1.660157-.671875-2.441407zm69.777344-67.851562c-.011719-.019531-.019531-.035156-.03125-.054688 0 .003907.003906.007813.007813.011719.007812.015625.015624.027344.023437.042969zm.976563 1.710938c-.054688-.105469-.105469-.207032-.160157-.308594.054688.101562.105469.203125.160157.308594zm0 0"/><path d="m424.847656 266.6875c-7.753906-.164062-16.023437-2.265625-23.914062-6.082031-9.910156-4.796875-18.625-11.703125-26.699219-18.363281l-4.675781-3.855469-.230469 6.054687c-.03125.820313-.054687 1.648438-.054687 2.488282-.027344 3.34375.066406 6.824218.289062 10.34375l.101562 1.652343 39.320313 21.523438c4.921875 2.695312 11.046875 6.054687 17.480469 6.054687.285156 0 .570312-.007812.851562-.019531l3.394532-.164063-3.390626-19.582031zm0 0"/><path d="m381.003906 348.058594-.484375-2.292969c-.773437-3.65625-1.660156-7.507813-3.261719-10.90625l-1.445312-3.070313-2.871094 1.8125c-5.171875 3.269532-10.144531 6.917969-14.953125 10.449219-12.136719 8.910157-24.6875 18.125-39.773437 21.0625l-3.34375.566407 14.722656 82.546874 12.558594-8.589843-12.199219-61.519531 48.949219-29.035157zm0 0"/><path d="m352.136719 316.550781-1.542969-.550781c-7.285156-2.601562-14.816406-5.292969-21.882812-9.285156-2.695313-1.527344-4.796876-2.609375-7.316407-2.609375-2.75 0-5.160156 1.230469-9.972656 3.679687l-49.902344 25.40625c-3.21875 1.640625-5.847656 3.074219-8.191406 4.738282l-3.847656 2.726562 4.101562 2.328125c17.066407 9.6875 35.289063 19.140625 53.941407 19.140625 3.351562 0 6.675781-.3125 9.878906-.933594 14.21875-2.746094 25.871094-11.308594 38.277344-20.421875 4.585937-3.363281 9.324218-6.84375 14.207031-9.980469l3.441406-2.210937-3.148437-2.617187c-5.503907-4.578126-12.535157-7.433594-18.042969-9.410157zm0 0"/><path d="m312.144531 365.9375c-1.683593.140625-3.234375.210938-4.742187.210938-19.636719 0-38.960938-10.082032-57.074219-20.40625l-3.40625-1.941407-.980469 3.792969c-1.152344 4.4375-.261718 9.554688.835938 14.839844l9.089844 43.941406c1.527343 7.382812 3.023437 13.371094 7.15625 17.722656 4.226562 4.4375 10.648437 6.300782 16.3125 7.941406l49.960937 14.539063-14.429687-80.867187zm0 0"/><path d="m117.019531 208.136719 67.542969 16.96875c8.621094 2.167969 17.550781 4.777343 23.664062 10.695312l2.183594 2.113281 2.082032-2.210937c19.023437-20.136719 38.707031-39.964844 58.515624-58.921875l2.503907-2.398438.015625.015626 1.894531-1.796876c21.046875-19.996093 42.929687-39.707031 65.039063-58.585937l3.429687-2.925781-.011719-.007813 1.464844-1.238281c20.550781-17.410156 41.976562-34.652344 63.683594-51.257812l3.242187-2.476563-3.335937-2.355469c-10.949219-7.734375-23.902344-12.988281-35.125-17.105468-14.164063-5.195313-28.902344-9.882813-43.808594-13.9375l-1.316406-.359376-1.136719.757813c-1.679687 1.121094-3.355469 2.265625-5.035156 3.398437.222656-.152343.445312-.304687.667969-.457031l5.542968-3.734375-6.476562-1.65625c-8.695313-2.226562-16.761719-4.097656-24.65625-5.722656-13.117188-2.710938-26.515625-4.957031-39.824219-6.667969-4.144531-.535156-7.171875-.773437-9.8125-.773437-7.375 0-12.546875 1.917968-20.078125 5.699218-20.910156 10.5-41.847656 22.101563-62.230469 34.476563l-5.636719 3.421875.023438.007812-1.167969.722657c-20.867187 12.925781-41.339843 26.800781-60.84375 41.242187-8.066406 5.96875-16.246093 12.25-24.304687 18.660156l-5.234375 4.164063 1.160156.203125-1.125-.191406-1.050781.855468c-12.105469 9.800782-23.921875 19.886719-35.144532 29.988282h-.015624l-.855469.773437c-9.605469 8.679688-19.289063 18.15625-22.890625 30.121094l-.90625 3.011719 109.371094 27.476562zm9.746094-14.5625c1.710937-1.960938 3.503906-3.894531 5.34375-5.832031 3.605469-3.796876 7.257813-7.59375 10.953125-11.375-3.6875 3.777343-7.339844 7.574218-10.945312 11.375-1.839844 1.933593-3.640626 3.867187-5.351563 5.832031zm-7.773437 10.84375c.3125-.582031.640624-1.160157.980468-1.730469-.339844.570312-.667968 1.144531-.980468 1.730469zm1.304687-2.257813c.363281-.582031.734375-1.164062 1.125-1.738281-.390625.574219-.761719 1.152344-1.125 1.738281zm1.476563-2.246094c.390624-.566406.792968-1.128906 1.210937-1.683593-.417969.554687-.820313 1.117187-1.210937 1.683593zm1.617187-2.21875c.417969-.542968.835937-1.085937 1.269531-1.621093-.433594.535156-.855468 1.078125-1.269531 1.621093zm1.707031-2.152343c.445313-.539063.894532-1.078125 1.355469-1.609375-.460937.53125-.910156 1.070312-1.355469 1.609375zm26.109375-62.429688c1.421875.355469 2.839844.71875 4.257813 1.078125-1.417969-.359375-2.839844-.722656-4.257813-1.078125zm12.648438 3.238281c1.664062.4375 3.324219.886719 4.988281 1.332032-1.664062-.445313-3.324219-.894532-4.988281-1.332032zm-4.808594 23.957032c-.074219.074218-.148437.148437-.222656.222656.074219-.074219.144531-.148438.222656-.222656zm-5.375 5.328125c-.316406.316406-.628906.632812-.945313.949219.316407-.316407.628907-.632813.945313-.949219zm-15.164063-35.609375c1.199219.28125 2.394532.574218 3.589844.863281-1.195312-.289063-2.390625-.582031-3.589844-.863281zm9.84375 40.953125c-.835937.847656-1.667968 1.695312-2.5 2.542969.835938-.847657 1.664063-1.695313 2.5-2.542969zm32.820313-29.925781-1.628906-.457032-.753907.710938.753907-.71875.019531.007812.011719-.011718 5.117187 1.453124c11.3125 3.21875 22.609375 6.644532 33.828125 10.242188-12.363281-3.960938-24.839843-7.714844-37.347656-11.226562zm65.652344 20.734374c.917969.320313 1.824219.652344 2.738281.976563-.914062-.324219-1.820312-.65625-2.738281-.976563zm-27.980469-9.40625c2.832031.910157 5.65625 1.828126 8.476562 2.761719-2.816406-.929687-5.644531-1.851562-8.476562-2.761719zm9.410156 3.066407c2.523438.835937 5.035156 1.683593 7.546875 2.535156-2.511719-.851563-5.023437-1.699219-7.546875-2.535156zm9.332032 3.136719c2.046874.699218 4.085937 1.410156 6.121093 2.121093-2.035156-.710937-4.070312-1.421875-6.121093-2.121093zm33 13.527343c-.496094-.363281-1-.714843-1.519532-1.046875.519532.332032 1.023438.683594 1.519532 1.046875zm-1.640626-1.125c-3.492187-2.234375-7.480468-3.894531-11.421874-5.363281 3.953124 1.46875 7.933593 3.132812 11.421874 5.363281zm70.917969-61.929687c-.578125-.292969-1.175781-.574219-1.78125-.84375.828125.367187 1.636719.753906 2.421875 1.164062zm-10.902343-4.1875c1.304687.417968 2.671874.867187 4.046874 1.347656-1.273437-.445312-2.609374-.886719-4.042968-1.34375l-40.871094-13.011719zm8.367187 3.007812c-.191406-.082031-.386719-.160156-.582031-.242187.195312.082031.386718.160156.582031.242187zm-1.546875-.632812c-.195312-.078125-.394531-.152344-.589844-.230469.195313.078125.390625.152344.589844.230469zm-1.496094-.566406c-.234375-.085938-.46875-.175782-.710937-.261719.238281.085937.472656.171875.710937.261719zm-36.503906-62.992188c-1.855469 1.324219-3.703125 2.652344-5.550781 3.988281 1.847656-1.335937 3.695312-2.664062 5.550781-3.988281zm17.003906-11.917969c-.652344.449219-1.304687.898438-1.957031 1.351563.652344-.453125 1.304687-.902344 1.957031-1.351563zm-8.613281 5.980469c-1.160156.8125-2.320313 1.628906-3.476563 2.449219 1.15625-.820313 2.316407-1.636719 3.476563-2.449219zm-56.214844 41.96875 1.25-.992188c9.828125-7.800781 19.878907-15.488281 30.082031-23.046874-9.066406 6.722656-18.039062 13.578124-26.882812 20.546874l-4.441406 3.5.007812.003907-.632812.507812.628906-.507812-61.902344-19.707031zm39.558594-30.078125c-2.636719 1.921875-5.269531 3.851563-7.894531 5.796875 2.621094-1.941406 5.253906-3.875 7.894531-5.796875zm-104.582031 85.96875c1.867187-1.726563 3.738281-3.453125 5.621094-5.171875-1.882813 1.71875-3.753907 3.441406-5.621094 5.171875zm8.140625-7.464844c1.746093-1.582031 3.496093-3.164062 5.253906-4.742187-1.757813 1.578125-3.507813 3.160156-5.253906 4.742187zm8.492187-7.632812c1.5-1.332031 3-2.664063 4.507813-3.992188-1.503907 1.324219-3.007813 2.660157-4.507813 3.992188zm8.738282-7.695313c1.175781-1.023437 2.347656-2.046875 3.523437-3.0625-1.175781 1.015625-2.347656 2.039063-3.523437 3.0625zm8.859374-7.648437c.824219-.703125 1.648438-1.410157 2.476563-2.113281-.828125.703124-1.652344 1.40625-2.476563 2.113281zm8.835938-7.476563c.519531-.433594 1.035156-.867187 1.554688-1.300781-.519532.433594-1.035157.867187-1.554688 1.300781zm8.710938-7.222656c.300781-.246094.597656-.492188.898437-.738281-.300781.246093-.597656.492187-.898437.738281zm8.480468-6.894531c.140625-.113281.28125-.226563.421875-.339844l1.210938-.976563c-.542969.4375-1.085938.878907-1.632813 1.316407zm-116.394531 44.207031c-1.015625-.230469-2.03125-.464844-3.046875-.691406 1.015625.226562 2.03125.460937 3.046875.691406zm-13.234375-2.914062c-.871094-.1875-1.746094-.375-2.617188-.558594.871094.183594 1.746094.371094 2.617188.558594zm-13.160156-2.726563c-.773438-.152344-1.542969-.308594-2.3125-.460937.769531.152343 1.539062.308593 2.3125.460937zm-27.332032-5.109375c.414063.070312.828126.148438 1.238282.222656-1.894532-.332031-3.789063-.671875-5.683594-.992187zm14.242188 2.574219c-.707031-.132813-1.410156-.265625-2.117188-.398438.707032.132813 1.410157.265625 2.117188.398438zm0 0"/><path d="m118.605469 303.507812-3.027344-55.039062 3.03125 55.039062 66.78125 20.855469c9.488281 2.957031 20.242187 6.304688 30.886719 6.5l3.8125.074219-.832032-3.726562-6.339843-67.035157c-.574219-6.085937-1.222657-12.988281-4.738281-18.253906-4.992188-7.5-14.484376-10.398437-24.597657-12.9375l-67.792969-17.042969v.003906l-108.777343-27.332031-.019531 3.824219c-.066407 11.089844 4.113281 22.507812 8.773437 34.207031 6.558594 16.46875 13.996094 35.136719 27.660156 48.125 14.488281 13.777344 34.8125 20.128907 52.800781 25.75zm0 0"/></g><path d="m438.734375 344.464844-3.769531-1.367188c-21.933594-7.976562-43.804688-18.046875-55.21875-37.566406-3.351563-5.742188-5.9375-12.550781-8.125-21.425781-1.542969-6.304688-2.691406-12.792969-3.417969-19.285157l-1.0625-9.558593 42.804687 23.4375c4.980469 2.726562 10.625 5.816406 16.488282 5.816406.375 0 .832031-.019531 1.355468-.0625l2.199219-.183594 2.382813-.859375c3.5-1.261718 6.667968-3.324218 9.730468-5.320312l62.679688-40.9375 1.898438 32.300781c.441406 7.460937 1.050781 17.671875-3.410157 25.492187-2.867187 5.042969-7.410156 8.675782-11.804687 12.191407l-48.414063 38.785156.023438.117187-.117188-.039062-3.476562 2.78125zm0 0" fill="#ffeac0"/><path d="m327.722656 377.121094 54.621094-32.40625 12.894531 61-54.453125 37.28125zm0 0" fill="#ffeac0"/><path d="m232.742188 305.484375c-3.140626-13.085937-5.015626-26.503906-5.566407-39.882813-.300781-7.535156-.179687-15.515624 2.746094-22.816406 3.699219-9.234375 11.644531-16.347656 18.023437-22.0625l37.285157-33.394531 65.539062-58.679687v-.003907l21.960938-19.664062c1.007812-.910157 2.53125-2.488281 4.453125-4.488281l.207031-.214844c14.269531-14.882813 22.503906-20.953125 28.433594-20.953125 1.894531 0 3.550781.570312 4.921875 1.699219 3.769531 3.078124 5.035156 10.425781 5.851562 21.285156.058594.851562.113282 1.582031.175782 2.1875l.015624.121094c.863282 9.503906-.011718 17.667968-2.683593 24.914062-4.03125 10.945312-12.625 20.246094-18.902344 27.035156-12.453125 13.492188-25.464844 27.125-38.679687 40.519532l-9.179688 9.304687v-.003906l-9.085938 8.941406c-15.238281 14.996094-30.832031 29.785156-46.34375 43.960937l-7.703124 7.039063v-.027344l-7.683594 6.855469c-11.984375 10.6875-23.996094 21.113281-35.703125 30.980469l-6.195313 5.222656zm0 0" fill="#ffeac0"/><path d="m401.882812 183.835938c15.730469-16.808594 30.417969-33.632813 37.285157-54.605469 7.226562-22.078125 3.960937-46.609375-8.527344-64.023438-12.976563-18.089843-33.828125-27.578125-54.421875-35.136719-25.042969-9.1875-51.023438-16.585937-77.210938-21.992187-13.3125-2.746094-26.886718-5.019531-40.351562-6.753906-14.550781-1.875-21.207031-.773438-33.921875 5.613281-18.5625 9.324219-36.847656 19.339844-54.78125 29.980469-.726563.234375-1.390625.625-1.941406 1.152343-25.519531 15.222657-50.320313 31.722657-74.15625 49.367188-9.433594 6.984375-18.761719 14.195312-27.957031 21.578125-.1875.128906-.355469.277344-.527344.425781-13.203125 10.621094-26.117188 21.609375-38.605469 32.878906-10.75 9.707032-21.5625 20.382813-25.332031 34.730469-4.515625 17.199219 2.621094 35.109375 7.828125 48.1875 6.832031 17.140625 14.570312 36.566407 29.34375 50.605469 15.6875 14.910156 36.859375 21.523438 55.539062 27.355469l89.113281 27.828125c10.441407 3.261718 21.992188 6.867187 33.921876 6.867187 3.058593 0 6.148437-.238281 9.246093-.777343 16.121094-2.820313 29.0625-13.167969 41.988281-24.4375 46.453126-40.496094 91.359376-83.84375 133.46875-128.84375zm-163.816406 120.875c-2.804687-5.707032-2.546875-13.980469-2.296875-21.984376.136719-4.410156.265625-8.578124-.074219-12.503906-.757812-8.664062-.136718-16.085937 1.898438-22.6875 2.128906-6.902344 7.4375-12.019531 13.058594-17.4375.859375-.828125 1.722656-1.664062 2.578125-2.503906 7.9375-7.804688 16.34375-15.363281 23.761719-22.035156 1.4375-1.289063 2.871093-2.585938 4.304687-3.878906.554687 19.953124 1.410156 39.960937 2.539063 59.878906-.308594.300781-.621094.601562-.929688.902344-12.769531 12.464843-25.976562 25.355468-39.269531 37.65625l-.738281.691406c-.886719.839844-3.332032 3.144531-4.832032 3.902344zm53.019532-111.871094c9.121093-8.253906 18.191406-16.496094 27.050781-24.550782 15.558593-14.148437 31.429687-28.570312 47.507812-42.96875 1.679688 20.375 1.644531 40.890626-.089843 61.261719-5.257813 4.761719-10.648438 9.371094-15.972657 13.921875-4.136719 3.53125-8.410156 7.183594-12.558593 10.851563-14.9375 13.207031-29.496094 27.148437-43.679688 40.9375-1.035156-19.796875-1.789062-39.660157-2.257812-59.453125zm-.417969-22.183594c-.007813-.808594-.222657-1.574219-.582031-2.261719 6.878906-6.425781 13.808593-12.800781 20.796874-19.105469 15.152344-13.675781 32.15625-25.664062 46.253907-40.089843 2.15625-2.207031 4.390625-4.367188 6.6875-6.484375.144531 3.421875.398437 6.820312.699219 10.191406-18.011719 16.066406-35.75 32.195312-53.113282 47.984375-6.769531 6.152344-13.65625 12.414063-20.597656 18.707031-.050781-2.980468-.105469-5.96875-.144531-8.941406zm-80.351563 62.992188c-6.554687-6.339844-15.878906-9.152344-25.023437-11.453126-2.65625-.667968-5.316407-1.335937-7.976563-2.003906-21.023437-5.285156-42.046875-10.566406-63.070312-15.851562 22.761718-20.710938 46.511718-41.4375 71.742187-62.566406 30.070313 7.6875 59.421875 17.03125 87.78125 29.164062-30.167969 28.621094-64.476562 61.722656-63.453125 62.710938zm-14.871094-99.757813c24.5625-20.375 50.539063-41.167969 78.34375-62.71875 29.796876 6.9375 59.484376 13.753906 88.738282 20.460937-15.28125 12.546876-30.34375 25.359376-45.160156 38.453126-3.347657 2.960937-18.136719 16.761718-35.703126 33.371093-27.929687-12.246093-56.742187-21.746093-86.21875-29.566406zm180.023438-11.183594c-.164062-1.890625-.34375-3.777343-.523438-5.671875 0-.003906 0-.011718 0-.015625 9.113282-8.113281 18.289063-16.203125 27.519532-24.210937.976562-.847656 2.992187-1.59375 4.097656-1.6875.078125.191406.175781.457031.300781.839844 6.5 20.0625.652344 45.191406-15.640625 67.214843-4.488281 6.070313-9.550781 11.753907-14.925781 17.179688.992187-17.875.726563-35.816407-.828125-53.648438zm-40.644531 115.203125c-3.597657 3.5-7.207031 6.980469-10.832031 10.449219-7.25 6.933594-14.554688 13.808594-21.914063 20.621094-2.445313 2.265625-4.90625 4.519531-7.367187 6.773437-.214844-3.40625-.425782-6.8125-.628907-10.222656 16.058594-15.664062 32.601563-31.6875 49.566407-46.683594 4.082031-3.613281 8.324218-7.238281 12.425781-10.742187 2.636719-2.25 5.285156-4.519531 7.929687-6.808594-.371094 2.9375-.769531 5.875-1.210937 8.804687-9.226563 9.371094-18.539063 18.644532-27.96875 27.808594zm87.6875-166.871094c10.667969 14.867188 13.40625 35.976563 7.152343 55.082032-6.230468 19.027344-20.148437 34.925781-35.082031 50.882812-6.652343 7.113282-13.375 14.136719-20.128906 21.125.261719-2.261718.5-4.523437.714844-6.789062 8.691406-8.042969 16.988281-16.605469 24.09375-26.214844 18.207031-24.613281 24.605469-53.117188 17.113281-76.246094-.453125-1.394531-1.390625-4.292968-4.046875-6.152344-5.273437-3.699218-13.296875-.179687-16.417969 2.53125-7.363281 6.390626-14.695312 12.828126-21.984375 19.285157-.203125-3.53125-.277343-7.019531-.148437-10.484375 13.375-11.046875 27.996094-21.152344 41.402344-31.367188 2.691406 2.546875 5.15625 5.3125 7.332031 8.347656zm-15.304688-14.832031c-1.800781-1.273437-31.175781 24.425781-34.359375 27-.285156.226563-.5625.460938-.847656.6875-.5-.339843-1.070312-.59375-1.691406-.738281-28.4375-6.519531-57.308594-13.140625-86.304688-19.878906 15.589844-11.992188 31.75-24.234375 48.558594-36.773438 13.5 3.765625 26.851562 8.054688 40.210938 12.957032 12.097656 4.4375 24.25 9.554687 34.433593 16.746093zm-177.984375-40.332031c7.667969-3.851562 12.285156-5.378906 18.726563-5.378906 2.703125 0 5.726562.269531 9.429687.746094 13.214844 1.703124 26.539063 3.933593 39.605469 6.628906 7.839844 1.621094 15.574219 3.414062 23.253906 5.359375-16.902343 12.65625-33.148437 25.011719-48.820312 37.125-28.84375-6.726563-57.769531-13.582031-86.515625-20.566407 14.574218-8.398437 29.367187-16.40625 44.320312-23.914062zm-129.417968 79.601562c10.953124-8.109374 22.097656-15.960937 33.417968-23.554687 12.828125-8.601563 25.953125-16.890625 39.28125-24.855469 29.453125 7.203125 59.136719 14.253906 88.75 21.179688-27.574218 21.472656-53.355468 42.222656-77.761718 62.578125-33.585938-8.363281-67.976563-14.757813-102.855469-20.714844 6.324219-4.957031 12.703125-9.847656 19.167969-14.632813zm-66.335938 54.269532c2.140625 0 8.511719-7.582032 10.285156-9.136719 4-3.492187 8.027344-6.945313 12.089844-10.367187 4.722656-3.980469 9.5-7.890626 14.296875-11.773438 35.21875 5.941406 69.957031 12.191406 103.839844 20.328125-24.503907 20.648437-47.644531 40.9375-69.859375 61.234375-.472656.4375-.976563.898438-1.488282 1.390625-30.398437-7.640625-60.796874-15.28125-91.199218-22.921875 3.367187-11.183594 12.703125-20.332031 22.035156-28.753906zm12.027344 118.851562c-13.183594-12.53125-20.496094-30.875-26.945313-47.058594-4.71875-11.851562-8.625-22.75-8.5625-33.089843 29.058594 7.304687 58.230469 14.25 87.210938 21.855469-.570313 2.550781-.5 5.023437-.441407 6.957031.785157 26.46875 3.757813 53.03125 8.839844 79.039062-2.820312-.882812-5.652344-1.765625-8.472656-2.644531-17.636719-5.511719-37.628906-11.753906-51.628906-25.058594zm140.742187 52.886719c-23.300781-7.277344-46.570312-14.542969-69.8125-21.804687-.015625-.167969-.015625-.332032-.050781-.5-5.566406-27-8.804688-54.660157-9.621094-82.214844-.046875-1.605469-.058594-2.980469.140625-4.117188 25.011719 6.582032 50.644531 12.683594 75.960938 19.046875 9.515625 2.390625 18.425781 5.085938 22.824219 11.6875 3.101562 4.648438 3.714843 11.148438 4.257812 16.886719l6.339844 67.132812c.007812.089844.039062.171876.050781.261719-10.222656-.191406-20.652344-3.429687-30.089844-6.378906zm39.996094 5.460937c-.003906-.09375.011719-.191406 0-.289062l-6.339844-67.132812c-.503906-5.335938-1.109375-11.730469-3.730469-17.558594.078126-.074219.167969-.128906.242188-.210938 10.511719-11.164062 21.1875-22.179687 32.015625-33.042968 5.546875-5.5625 11.132813-11.085938 16.757813-16.570313 5.160156-5.027344 10.363281-10.007813 15.589843-14.964844.058594 3.773438.125 7.546875.203125 11.328125-3.550781 3.210938-7.109375 6.421875-10.667968 9.621094-7.496094 6.738281-15.988282 14.378906-24.082032 22.335938-.835937.820312-1.675781 1.632812-2.511718 2.4375-6.285157 6.058593-12.78125 12.324218-15.671876 21.691406-2.425781 7.855468-3.179687 16.527344-2.308593 26.503906.292969 3.332031.171875 7.214844.042969 11.320312-.28125 8.941407-.597657 19.074219 3.507812 27.085938 1.929688 3.773438 4.710938 4.976562 6.707031 5.320312.511719.085938 1.019531.128907 1.519531.128907 4.964844 0 9.292969-4.078125 12.246094-6.859375l.675782-.632813c11.570312-10.707031 23.019531-21.808593 34.195312-32.703125.203125 3.203125.40625 6.40625.625 9.601563-7.730469 6.984375-15.523438 13.914062-23.40625 20.785156-11.371094 9.914063-22.671875 19.015625-35.609375 21.804687zm0 0"/><path d="m511.671875 269.152344-1.808594-30.6875c-.320312-5.441406-.652343-11.066406-2.300781-16.675782-3.539062-12.0625-12.90625-22.644531-26.371094-29.792968-13.910156-7.386719-33.316406-15.277344-46.773437-10.917969-6.75 2.183594-12.753907 6.457031-18.5625 10.59375-2.109375 1.5-4.097657 2.917969-6.042969 4.171875l-27.230469 17.570312c-6.046875 3.902344-13.574219 8.761719-17.359375 16.808594-2.519531 5.351563-2.90625 11.167969-2.953125 16.65625-.101562 12.929688 1.410157 25.855469 4.5 38.417969 2.296875 9.347656 5.050781 16.582031 8.664063 22.761719 13.398437 22.898437 38.84375 33.226562 65.953125 42.617187.535156.183594 1.085937.273438 1.636719.273438 1.121093 0 2.226562-.375 3.128906-1.097657l48.4375-38.8125c4.546875-3.640624 9.699218-7.773437 13.027344-13.617187 5.183593-9.097656 4.558593-19.726563 4.054687-28.269531zm-13.136719-42.261719c.832032 3.828125 1.375 7.789063 1.75 11.816406-.007812.007813-.011718.007813-.019531.011719-21.054687 15.101562-43.230469 29.039062-65.980469 41.511719-.34375-3.71875-.660156-7.429688-.964844-11.125 1.523438-.25 3.035157-.574219 4.53125-.996094 6.988282-1.972656 13.191407-5.699219 18.460938-9.042969 14.929688-9.472656 29.109375-20.296875 42.222656-32.175781zm-110.53125-5.074219 27.230469-17.570312c2.136719-1.378906 4.3125-2.929688 6.417969-4.429688 5.191406-3.695312 10.558594-7.515625 15.84375-9.226562 1.59375-.515625 3.460937-.769532 5.5625-.769532 8.164062 0 19.925781 3.828126 33.445312 11.007813 7.867188 4.179687 14.117188 9.859375 18.023438 16.195313-13.433594 12.472656-28.09375 23.777343-43.574219 33.601562-4.667969 2.960938-10.125 6.253906-15.8125 7.855469-9.179687 2.589843-20.246094 1.105469-31.15625-4.179688-10.242187-4.960937-19.359375-12.527343-28.175781-19.847656-.363282-.300781-.757813-.519531-1.167969-.699219 2.503906-4.671875 7.34375-8.054687 13.363281-11.9375zm-15.679687 22.738282c8.386719 6.921874 17.144531 13.828124 27.304687 18.746093 7.238282 3.507813 15.441406 5.917969 23.699219 6.339844.3125 3.792969.636719 7.605469.988281 11.429687-18.214844-7.554687-36.707031-15.648437-51.953125-28.097656-.070312-2.003906-.109375-4.011718-.09375-6.015625.007813-.828125.027344-1.625.054688-2.402343zm52.269531 89.160156c-5.5625-2.332032-11.039062-4.898438-16.257812-7.929688-9.703126-5.636718-18.546876-12.992187-24.269532-22.777344-3.117187-5.324218-5.527344-11.710937-7.589844-20.097656-1.34375-5.46875-2.355468-11.019531-3.058593-16.613281 15.878906 11.113281 33.828125 18.542969 51.289062 25.753906.222657.09375.484375.199219.769531.308594 1.714844 15.042969 4.28125 30.097656 9.082032 44.683594-.71875-.277344-1.390625-.527344-1.972656-.691407-2.703126-.773437-5.398438-1.550781-7.992188-2.636718zm74.335938-41.246094c-2.386719 4.191406-6.558594 7.53125-10.59375 10.765625-.1875.152344-.378907.304687-.566407.453125-9.003906 7.21875-18.015625 14.433594-27.019531 21.652344-4.710938 3.773437-9.425781 7.550781-14.136719 11.324218-.175781.144532-.347656.285157-.515625.425782-.375-.734375-.921875-1.378906-1.617187-1.855469-4.832031-14.226563-7.382813-29.183594-9.09375-44.210937 22.574219-12.183594 44.605469-25.824219 65.613281-40.589844.242188 6.523437.320312 13.050781.691406 19.308594.421875 7.222656.953125 16.210937-2.761718 22.726562zm0 0"/><path d="m387.535156 345.109375c-.980468-4.640625-2.089844-9.898437-4.664062-14.6875-6.070313-11.304687-18.355469-16.871094-28.375-20.460937l-1.484375-.527344c-7.351563-2.625-14.292969-5.105469-20.851563-8.8125-10.476562-5.925782-15.25-3.488282-23.921875.929687l-49.894531 25.402344c-5.820312 2.964844-14.621094 7.445313-18.214844 16-3.042968 7.238281-1.40625 15.136719-.210937 20.902344l9.097656 43.933593c1.382813 6.683594 3.101563 14.996094 8.933594 21.125 5.515625 5.800782 13.230469 8.042969 19.429687 9.847657l52.773438 15.355469c.460937.132812.929687.199218 1.398437.199218.996094 0 1.984375-.300781 2.824219-.875l63.683594-43.597656c1.667968-1.144531 2.484375-3.179688 2.066406-5.160156zm-11.703125.066406c-7.914062 6.09375-16.832031 11.285157-25.464843 16.304688-6.421876 3.730469-13.0625 7.589843-19.378907 11.855469-.835937.566406-2.394531 1.617187-3.296875 3.597656-.851562 1.867187-.6875 3.648437-.597656 4.605468 1.769531 19.074219 5.210938 38.125 10.230469 56.621094-1.644531 1.15625-3.027344 2.1875-4.007813 3.023438-9.367187-23.011719-15.445312-47.171875-18.089844-71.875 1.835938-.328125 3.671876-.773438 5.503907-1.398438 14.617187-4.96875 26.628906-12.339844 39.035156-21.449218 4.804687-3.527344 9.746094-7.144532 14.777344-10.324219-.566407.367187.113281 4.101562 1.289062 9.039062zm-112.949219-9.308593 49.898438-25.40625c4.398438-2.246094 6.582031-3.355469 8.613281-3.355469 1.664063 0 3.234375.746093 5.84375 2.222656 7.308594 4.132813 14.984375 6.871094 22.410157 9.523437l1.476562.527344c5.664062 2.027344 12.15625 4.753906 17.136719 8.894532-4.972657 3.195312-9.753907 6.707031-14.414063 10.128906-12.0625 8.855468-23.457031 17.222656-37.015625 19.84375-20.40625 3.953125-40.871093-6.007813-61.765625-17.867188 2.296875-1.628906 5.003906-3.082031 7.816406-4.511718zm37.09375 99.054687c-6.601562-1.921875-13.203124-3.839844-19.804687-5.761719-5.304687-1.542968-11.320313-3.292968-14.976563-7.136718-3.578124-3.761719-4.957031-9.347657-6.390624-16.261719l-9.09375-43.933594c-1.058594-5.109375-1.847657-9.699219-.867188-13.484375-.695312 2.6875 30.765625 15.277344 34.203125 16.433594 7.292969 2.457031 14.71875 4.59375 22.179687 5.050781 2.558594 24.355469 8.332032 48.203125 17.1875 71.011719-2.328124-.160156-4.484374-.285156-5.625-.570313-5.707031-1.433593-11.164062-3.703125-16.8125-5.347656zm89.671876-31.441406c-8.976563 6.148437-17.957032 12.292969-26.9375 18.441406-1.566407 1.074219-9.253907 5.707031-16.578126 10.390625-4.347656-16.714844-7.390624-33.859375-9.023437-51.042969 5.890625-3.941406 12.1875-7.601562 18.28125-11.144531 7.726563-4.488281 15.671875-9.117188 23.140625-14.492188 2.027344 7.476563 4.101562 14.648438 4.472656 16.40625.578125 2.726563 8.347656 30.273438 6.644532 31.441407zm0 0"/></svg>