<?xml version="1.0" encoding="iso-8859-1"?>
<!-- Generator: Adobe Illustrator 19.0.0, SVG Export Plug-In . SVG Version: 6.00 Build 0)  -->
<svg version="1.1" id="Layer_1" xmlns="http://www.w3.org/2000/svg" xmlns:xlink="http://www.w3.org/1999/xlink" x="0px" y="0px"
	 viewBox="0 0 512.001 512.001" style="enable-background:new 0 0 512.001 512.001;" xml:space="preserve">
<path style="fill:#BFFAFF;" d="M220.663,392.886l-96.398-160.676c-2.711-4.518-7.594-7.283-12.862-7.283
	c-5.27,0-10.152,2.765-12.862,7.283L2.143,392.886c-2.78,4.635-2.854,10.405-0.19,15.107c2.662,4.703,7.648,7.609,13.053,7.609
	h192.797c5.404,0,10.391-2.906,13.053-7.609C223.517,403.29,223.443,397.52,220.663,392.886z M41.496,385.602l69.906-116.52
	l69.907,116.52H41.496z"/>
<path style="fill:#75EFFF;" d="M220.663,392.886l-96.398-160.676c-2.711-4.518-7.594-7.282-12.861-7.283v44.157l69.906,116.519
	h-69.906v30h96.397c5.404,0,10.391-2.906,13.053-7.609C223.517,403.29,223.443,397.52,220.663,392.886z"/>
<path style="fill:#FFE477;" d="M207.801,385.602H15.004c-8.284,0-15,6.717-15,15c0,61.424,49.973,111.394,111.397,111.394
	c61.426,0,111.398-49.971,111.398-111.394C222.801,392.319,216.085,385.602,207.801,385.602z"/>
<path style="fill:#BFFAFF;" d="M509.857,312.556L413.458,151.88c-2.71-4.518-7.593-7.283-12.862-7.283
	c-5.27,0-10.152,2.765-12.862,7.283l-96.396,160.676c-2.78,4.633-2.854,10.404-0.19,15.108c2.662,4.702,7.648,7.609,13.053,7.609
	h192.795c5.404,0,10.391-2.907,13.053-7.609C512.711,322.961,512.638,317.189,509.857,312.556z M330.689,305.272l69.907-116.519
	l69.906,116.519H330.689z"/>
<path style="fill:#75EFFF;" d="M509.857,312.556L413.458,151.88c-2.71-4.518-7.592-7.282-12.861-7.283v44.157l69.905,116.518
	h-69.905v30.001h96.396c5.404,0,10.391-2.907,13.053-7.609C512.711,322.961,512.638,317.189,509.857,312.556z"/>
<g>
	<path style="fill:#FFE477;" d="M496.995,305.272H304.2c-8.284,0-15,6.716-15,15.001c0,61.423,49.973,111.394,111.397,111.394
		c29.756,0,57.729-11.587,78.771-32.627c21.041-21.04,32.628-49.014,32.626-78.769C511.995,311.988,505.279,305.272,496.995,305.272
		z"/>
	<path style="fill:#FFE477;" d="M511.45,128.807c-2.218-7.982-10.487-12.655-18.468-10.438L271,180.028V15.005
		c0-8.284-6.716-15-15-15s-15,6.716-15,15v173.356l-230.011,63.89c-7.983,2.217-12.655,10.484-10.439,18.467
		c1.845,6.64,7.874,10.989,14.444,10.989c1.329,0,2.681-0.178,4.023-0.551L501.01,147.274
		C508.994,145.058,513.667,136.789,511.45,128.807z"/>
</g>
<g>
	<path style="fill:#FFB655;" d="M511.45,128.807c-2.218-7.982-10.487-12.655-18.468-10.438L271,180.028V15.005
		c0-8.284-6.716-15-15-15H256v215.325l245.012-68.056C508.994,145.058,513.667,136.789,511.45,128.807z"/>
	<path style="fill:#FFB655;" d="M207.801,385.602h-96.397v126.394c61.425,0,111.397-49.972,111.397-111.394
		C222.801,392.319,216.085,385.602,207.801,385.602z"/>
	<path style="fill:#FFB655;" d="M496.995,305.272h-96.396v126.395c29.756,0,57.729-11.587,78.771-32.627
		c21.041-21.04,32.628-49.014,32.626-78.769C511.995,311.988,505.279,305.272,496.995,305.272z"/>
</g>
<g>
</g>
<g>
</g>
<g>
</g>
<g>
</g>
<g>
</g>
<g>
</g>
<g>
</g>
<g>
</g>
<g>
</g>
<g>
</g>
<g>
</g>
<g>
</g>
<g>
</g>
<g>
</g>
<g>
</g>
</svg>
