<?xml version="1.0" encoding="iso-8859-1"?>
<!-- Generator: Adobe Illustrator 19.0.0, SVG Export Plug-In . SVG Version: 6.00 Build 0)  -->
<svg version="1.1" id="Capa_1" xmlns="http://www.w3.org/2000/svg" xmlns:xlink="http://www.w3.org/1999/xlink" x="0px" y="0px"
	 viewBox="0 0 512 512" style="enable-background:new 0 0 512 512;" xml:space="preserve">
<path style="fill:#FFFFFF;" d="M416,10v43c0,11.05-8.95,20-20,20H116c-11.05,0-20-8.95-20-20V10H416z"/>
<path style="fill:#FEB756;" d="M156,316L116,73h280l-40,243l-40,83H196L156,316z"/>
<path style="fill:#E2E2E2;" d="M196,399v83c0,11.05,8.95,20,20,20h80c11.05,0,20-8.95,20-20v-83H196z"/>
<path style="fill:#FD3C65;" d="M256,156c33.14,0,60,26.86,60,60s-26.86,60-60,60s-60-26.86-60-60S222.86,156,256,156z"/>
<path d="M416,0H96c-5.522,0-10,4.478-10,10v43c0,13.517,8.988,24.97,21.299,28.709l38.804,235.733
	c0.004,0.025,0.009,0.05,0.012,0.075l0.018,0.107c0.019,0.114,0.049,0.224,0.071,0.337c0.036,0.178,0.067,0.356,0.113,0.533
	c0.078,0.302,0.169,0.599,0.273,0.889c0.016,0.044,0.037,0.088,0.054,0.132c0.098,0.261,0.205,0.517,0.323,0.767
	c0.009,0.02,0.016,0.04,0.025,0.06L186,401.285V439v43c0,16.542,13.458,30,30,30h80c16.542,0,30-13.458,30-30v-43v-37.715
	l39.009-80.943c0.01-0.02,0.016-0.04,0.025-0.06c0.118-0.25,0.225-0.506,0.323-0.767c0.017-0.044,0.038-0.088,0.054-0.132
	c0.104-0.29,0.195-0.587,0.273-0.889c0.046-0.177,0.077-0.355,0.113-0.533c0.023-0.113,0.052-0.223,0.071-0.337l0.018-0.107
	c0.004-0.025,0.009-0.05,0.012-0.075l38.804-235.733C417.012,77.97,426,66.517,426,53V10C426,4.478,421.522,0,416,0z M306,429H206
	v-20h100V429z M306,482c0,5.514-4.486,10-10,10h-80c-5.514,0-10-4.486-10-10v-33h100V482z M347.512,306H336c-5.522,0-10,4.478-10,10
	s4.478,10,10,10h4.08l-30.362,63H202.282l-30.362-63H256c5.522,0,10-4.478,10-10s-4.478-10-10-10h-91.512L127.78,83h256.44
	L347.512,306z M406,53c0,5.514-4.486,10-10,10H116c-5.514,0-10-4.486-10-10V20h20v13c0,5.522,4.478,10,10,10s10-4.478,10-10V20h20
	v13c0,5.522,4.478,10,10,10s10-4.478,10-10V20h20v13c0,5.522,4.478,10,10,10s10-4.478,10-10V20h20v13c0,5.522,4.478,10,10,10
	s10-4.478,10-10V20h20v13c0,5.522,4.478,10,10,10s10-4.478,10-10V20h20v13c0,5.522,4.478,10,10,10s10-4.478,10-10V20h20v13
	c0,5.522,4.478,10,10,10s10-4.478,10-10V20h20V53z"/>
<path d="M256,286c38.598,0,70-31.402,70-70s-31.402-70-70-70s-70,31.402-70,70S217.402,286,256,286z M256,166
	c27.57,0,50,22.43,50,50s-22.43,50-50,50s-50-22.43-50-50S228.43,166,256,166z"/>
<path d="M296,306c-5.52,0-10,4.48-10,10s4.48,10,10,10s10-4.48,10-10S301.52,306,296,306z"/>
<g>
</g>
<g>
</g>
<g>
</g>
<g>
</g>
<g>
</g>
<g>
</g>
<g>
</g>
<g>
</g>
<g>
</g>
<g>
</g>
<g>
</g>
<g>
</g>
<g>
</g>
<g>
</g>
<g>
</g>
</svg>
