<?xml version="1.0" encoding="UTF-8" standalone="no"?>
<!-- Created with Inkscape (http://www.inkscape.org/) -->

<svg
   xmlns:dc="http://purl.org/dc/elements/1.1/"
   xmlns:cc="http://creativecommons.org/ns#"
   xmlns:rdf="http://www.w3.org/1999/02/22-rdf-syntax-ns#"
   xmlns:svg="http://www.w3.org/2000/svg"
   xmlns="http://www.w3.org/2000/svg"
   xmlns:sodipodi="http://sodipodi.sourceforge.net/DTD/sodipodi-0.dtd"
   xmlns:inkscape="http://www.inkscape.org/namespaces/inkscape"
   width="202"
   height="21"
   viewBox="0 0 201.99999 20.999999"
   id="svg4357"
   version="1.1"
   inkscape:version="0.91 r13725"
   sodipodi:docname="vensbr.svg">
  <defs
     id="defs4359" />
  <sodipodi:namedview
     id="base"
     pagecolor="#ffffff"
     bordercolor="#666666"
     borderopacity="1.0"
     inkscape:pageopacity="0.0"
     inkscape:pageshadow="2"
     inkscape:zoom="0.35"
     inkscape:cx="-410.4756"
     inkscape:cy="3.8752978"
     inkscape:document-units="px"
     inkscape:current-layer="layer1"
     showgrid="false"
     fit-margin-top="0"
     fit-margin-left="0"
     fit-margin-right="0"
     fit-margin-bottom="0"
     units="px"
     inkscape:window-width="1920"
     inkscape:window-height="1017"
     inkscape:window-x="-8"
     inkscape:window-y="-8"
     inkscape:window-maximized="1" />
  <metadata
     id="metadata4362">
    <rdf:RDF>
      <cc:Work
         rdf:about="">
        <dc:format>image/svg+xml</dc:format>
        <dc:type
           rdf:resource="http://purl.org/dc/dcmitype/StillImage" />
        <dc:title></dc:title>
      </cc:Work>
    </rdf:RDF>
  </metadata>
  <g
     inkscape:label="Layer 1"
     inkscape:groupmode="layer"
     id="layer1"
     transform="translate(-271.18989,-515.23751)">
    <path
       inkscape:connector-curvature="0"
       style="color:#000000;font-style:normal;font-variant:normal;font-weight:normal;font-stretch:normal;font-size:medium;line-height:normal;font-family:sans-serif;text-indent:0;text-align:start;text-decoration:none;text-decoration-line:none;text-decoration-style:solid;text-decoration-color:#000000;letter-spacing:normal;word-spacing:normal;text-transform:none;direction:ltr;block-progression:tb;writing-mode:lr-tb;baseline-shift:baseline;text-anchor:start;white-space:normal;clip-rule:nonzero;display:inline;overflow:visible;visibility:visible;opacity:1;isolation:auto;mix-blend-mode:normal;color-interpolation:sRGB;color-interpolation-filters:linearRGB;solid-color:#000000;solid-opacity:1;fill:#323232;fill-opacity:1;fill-rule:evenodd;stroke:none;stroke-width:1.5;stroke-linecap:round;stroke-linejoin:round;stroke-miterlimit:4;stroke-dasharray:none;stroke-dashoffset:0;stroke-opacity:1;color-rendering:auto;image-rendering:auto;shape-rendering:auto;text-rendering:auto;enable-background:accumulate"
       d="m 362.97009,516.12946 c -2.31502,0.0858 -4.63215,1.33292 -6.82031,3.49609 a 0.750075,0.750075 0 0 0 -0.0664,0.0742 c -1.78015,2.30184 -3.09327,3.27702 -4.17578,3.82227 -0.58494,0.29462 -1.31,0.42032 -2.37695,0.47656 a 0.50005,0.50005 0 0 0 -0.49805,-0.48828 0.50005,0.50005 0 0 0 -0.5,0.49805 l 0,0.0273 c -0.48566,0.006 -1.01168,0.009 -1.64258,0.004 l -3.3125,-3.61133 a 0.750075,0.750075 0 1 0 -1.10547,1.01367 l 3.53711,3.85742 -74.05859,0 a 0.750075,0.750075 0 1 0 0,1.5 l 74.18164,0 -3.51953,3.88086 a 0.750075,0.750075 0 1 0 1.10937,1.00781 l 3.35157,-3.69336 c 0.54033,-0.003 0.97136,0.005 1.40039,0.0137 a 0.50006099,0.50006099 0 0 0 0.98632,0.041 c 1.1814,0.0702 1.94444,0.22176 2.58985,0.54688 1.08251,0.54524 2.39563,1.52042 4.17578,3.82226 a 0.750075,0.750075 0 0 0 0.0664,0.0742 c 2.18816,2.16317 4.50529,3.41032 6.82031,3.49609 2.2893,0.0849 4.48233,-1.02067 6.30078,-3.21875 0.87718,0.99579 1.71201,1.96777 2.36719,2.83204 a 0.750075,0.750075 0 0 0 1.17382,0.0293 l 1.96485,-2.34961 c 1.77093,2.014 3.87117,3.03237 6.0625,2.95117 2.31502,-0.0858 4.63214,-1.33292 6.82031,-3.49609 a 0.750075,0.750075 0 0 0 0.0664,-0.0742 c 1.78423,-2.30711 3.30363,-3.56893 4.33008,-4.08593 0.50262,-0.25318 0.95933,-0.35928 1.74023,-0.40626 0.10102,-0.006 0.26156,-0.002 0.37695,-0.006 a 0.50006099,0.50006099 0 0 0 0.99805,-0.0156 l 0,-0.002 c 0.5096,0.003 1.08611,0.0125 1.73633,0.0195 l 3.31445,3.75781 a 0.750075,0.750075 0 1 0 1.125,-0.99219 l -3.42969,-3.88867 74.08399,0 a 0.750075,0.750075 0 1 0 0,-1.5 l -74.07813,0 3.55469,-3.85547 a 0.750075,0.750075 0 1 0 -1.10156,-1.01758 l -3.33008,3.61133 c -0.69871,0.005 -1.29361,0.007 -1.81445,-0.002 l 0.002,-0.0684 a 0.50005,0.50005 0 0 0 -0.5,-0.51367 0.50005,0.50005 0 0 0 -0.5,0.49805 l 0,0.0371 c -0.96481,-0.0608 -1.63488,-0.18745 -2.18945,-0.46679 -1.08251,-0.54525 -2.39563,-1.52043 -4.17578,-3.82227 a 0.750075,0.750075 0 0 0 -0.0664,-0.0742 c -2.18817,-2.16317 -4.50529,-3.41032 -6.82031,-3.49609 -2.17356,-0.0806 -4.25762,0.92267 -6.01953,2.9043 l -2.26172,-2.75 a 0.750075,0.750075 0 0 0 -0.5918,-0.27344 0.750075,0.750075 0 0 0 -0.55469,0.25977 l -2.43359,2.82617 c -1.81704,-2.19229 -4.00669,-3.29565 -6.29297,-3.21094 z m 0.0547,1.49805 c 1.80898,-0.067 3.5269,0.74937 5.14648,2.73828 a 0.750075,0.750075 0 0 0 0.10938,0.11523 l -4.29297,4.98633 a 0.750075,0.750075 0 0 0 -0.0391,0.92773 c 1.08041,1.49271 2.7927,3.38056 4.46484,5.25 a 0.750075,0.750075 0 0 0 -0.0996,0.10743 c -1.61959,1.98891 -3.3375,2.8053 -5.14648,2.73828 -1.80899,-0.067 -3.8043,-1.07147 -5.82032,-3.06446 -1.8412,-2.36025 -3.34312,-3.52524 -4.62304,-4.16992 -0.39324,-0.19807 -0.79938,-0.3439 -1.2461,-0.45703 l 6.8418,0 a 0.750075,0.750075 0 1 0 0,-1.5 l -6.96484,0 c 0.43655,-0.10244 0.83707,-0.24131 1.22656,-0.4375 1.27992,-0.64468 2.78185,-1.80967 4.62304,-4.16992 2.01603,-1.99299 4.01133,-2.99743 5.82032,-3.06445 z m 18.04492,0.24414 c 1.80898,0.067 3.8043,1.07146 5.82031,3.06445 1.84122,2.36028 3.34312,3.52524 4.62305,4.16992 0.39133,0.19711 0.79271,0.33518 1.23047,0.4375 l -6.96875,0 a 0.750075,0.750075 0 1 0 0,1.5 l 6.20117,0 c -0.15226,0.058 -0.3026,0.11853 -0.45117,0.19336 -1.33583,0.67284 -2.93641,2.07032 -4.77735,4.43359 -2.01601,1.99299 -4.01132,2.99744 -5.82031,3.06446 -1.76797,0.0655 -3.44794,-0.72128 -5.03516,-2.61328 l 4.53126,-5.41602 a 0.750075,0.750075 0 0 0 0.004,-0.95703 l -4.35937,-5.30078 c 1.57726,-1.86298 3.24653,-2.64122 5.00195,-2.57617 z m -8.81836,0.29687 1.98828,2.41797 -2.20117,4.16016 -2.1543,-3.83008 2.36719,-2.74805 z m 3.01953,3.67383 3.60156,4.37891 -3.58984,4.29101 -2.36914,-4.21289 2.35742,-4.45703 z m -6.42773,0.28516 2.36132,4.19726 -2.05664,3.88672 c -1.36164,-1.54667 -2.6843,-3.04295 -3.60546,-4.25 l 3.30078,-3.83398 z m 3.23437,5.75195 2.17383,3.86523 -1.87695,2.24414 c -0.66351,-0.82817 -1.40963,-1.69755 -2.16993,-2.57031 l 1.87305,-3.53906 z"
       id="path4258" />
  </g>
</svg>
