<svg xmlns="http://www.w3.org/2000/svg">

	<symbol id="i-user" viewBox="0 0 26 26">
		<path d="M13 0C14.7239 0 16.3772 0.684819 17.5962 1.90381C18.8152 3.12279 19.5 4.77609 19.5 6.5C19.5 8.22391 18.8152 9.87721 17.5962 11.0962C16.3772 12.3152 14.7239 13 13 13C11.2761 13 9.62279 12.3152 8.40381 11.0962C7.18482 9.87721 6.5 8.22391 6.5 6.5C6.5 4.77609 7.18482 3.12279 8.40381 1.90381C9.62279 0.684819 11.2761 0 13 0ZM13 16.25C20.1825 16.25 26 19.1588 26 22.75V26H0V22.75C0 19.1588 5.8175 16.25 13 16.25Z"/>
	</symbol>

	<symbol id="i-speed" viewBox="0 0 44 35">
		<path d="M18.5885 25.1562C19.4684 26.0312 20.6049 26.46 21.9982 26.4425C23.3914 26.425 24.418 25.9233 25.0779 24.9375L34.3721 11.1016C34.7021 10.5911 34.6566 10.1259 34.2357 9.70594C33.8148 9.28594 33.347 9.24073 32.8323 9.57031L18.9184 18.8125C17.9285 19.4688 17.4064 20.4714 17.3522 21.8203C17.2979 23.1693 17.71 24.2812 18.5885 25.1562ZM21.9982 0C23.3181 0 24.6196 0.109375 25.9028 0.328125C27.1861 0.546875 28.4326 0.893229 29.6425 1.36719C30.2291 1.58594 30.8524 1.99646 31.5124 2.59875C32.1723 3.20104 32.3556 3.7749 32.0623 4.32031C31.769 4.86573 31.1091 5.23031 30.0825 5.41406C29.0559 5.59781 28.231 5.57958 27.6077 5.35937C26.6911 5.03125 25.7657 4.78552 24.8315 4.62219C23.8973 4.45885 22.9529 4.37646 21.9982 4.375C17.1219 4.375 12.9694 6.07979 9.5406 9.48938C6.11182 12.899 4.39817 17.0275 4.39963 21.875C4.39963 23.4062 4.61082 24.9193 5.03318 26.4141C5.45555 27.9089 6.05096 29.3125 6.81943 30.625H37.1769C38.0202 29.2396 38.6347 27.7995 39.0204 26.3047C39.4061 24.8099 39.5982 23.2604 39.5967 21.6562C39.5967 20.7083 39.5138 19.7786 39.3481 18.8672C39.1824 17.9557 38.9353 17.0625 38.6068 16.1875C38.3868 15.5677 38.3501 14.9661 38.4968 14.3828C38.6434 13.7995 38.9734 13.3073 39.4867 12.9062C39.9633 12.5417 40.4862 12.4323 41.0552 12.5781C41.6242 12.724 42.018 13.0521 42.2365 13.5625C42.7864 14.8385 43.2081 16.1423 43.5014 17.4737C43.7947 18.8052 43.9597 20.1629 43.9963 21.5469C44.033 23.625 43.7947 25.612 43.2814 27.5078C42.7681 29.4036 42.0165 31.2083 41.0266 32.9219C40.6233 33.5781 40.0733 34.0885 39.3767 34.4531C38.6801 34.8177 37.9468 35 37.1769 35H6.81943C6.0495 35 5.31622 34.8177 4.61962 34.4531C3.92301 34.0885 3.37305 33.5781 2.96975 32.9219C2.0165 31.2812 1.28323 29.5407 0.769936 27.7003C0.256645 25.8599 0 23.9181 0 21.875C0 18.849 0.577819 16.0147 1.73346 13.3722C2.88909 10.7297 4.46563 8.41458 6.46306 6.42688C8.46049 4.43917 10.7974 2.87146 13.4739 1.72375C16.1503 0.576042 18.9918 0.00145833 21.9982 0Z" />
	</symbol>

	<symbol id="i-gift" viewBox="0 0 36 40">
		<path d="M3.77783 18V25.1111C3.77783 30.9778 3.77783 33.9111 5.60005 35.7333C7.42228 37.5556 10.3556 37.5556 16.2223 37.5556H19.7778C25.6445 37.5556 28.5778 37.5556 30.4001 35.7333C32.2223 33.9111 32.2223 30.9778 32.2223 25.1111V18" stroke-width="3" stroke-linecap="round" stroke-linejoin="round"/>
		<path d="M18 8.85689C18 7.03833 17.2776 5.29425 15.9917 4.00834C14.7057 2.72242 12.9617 2 11.1431 2H10.5084C8.75556 2 7.33333 3.42044 7.33333 5.17511C7.33333 6.6905 7.93532 8.14382 9.00686 9.21536C10.0784 10.2869 11.5317 10.8889 13.0471 10.8889H18M18 8.85689V10.8889M18 8.85689C18 7.03833 18.7224 5.29425 20.0083 4.00834C21.2943 2.72242 23.0383 2 24.8569 2H25.4916C27.2444 2 28.6667 3.42044 28.6667 5.17511C28.6667 5.92546 28.5189 6.66845 28.2317 7.36168C27.9446 8.05491 27.5237 8.68479 26.9931 9.21536C26.4626 9.74594 25.8327 10.1668 25.1395 10.454C24.4462 10.7411 23.7032 10.8889 22.9529 10.8889H18M2 14.4444C2 13.1147 2 12.4498 2.35733 11.9556C2.61078 11.616 2.94672 11.3467 3.33333 11.1733C3.952 10.8889 4.78222 10.8889 6.44444 10.8889H29.5556C31.2178 10.8889 32.048 10.8889 32.6667 11.1733C33.072 11.3618 33.408 11.632 33.6427 11.9556C34 12.4498 34 13.1147 34 14.4444C34 15.7742 34 16.4373 33.6427 16.9333C33.3892 17.2729 33.0533 17.5421 32.6667 17.7156C32.048 18 31.2178 18 29.5556 18H6.44444C4.78222 18 3.952 18 3.33333 17.7156C2.94672 17.5421 2.61078 17.2729 2.35733 16.9333C2 16.4373 2 15.7742 2 14.4444Z" stroke-width="3" stroke-linejoin="round"/>
		<path d="M18 18V37.5556" stroke-width="3" stroke-linecap="round" stroke-linejoin="round"/>
	</symbol>

	<symbol id="i-wifi" viewBox="0 0 42 32">
		<path d="M21 32C19.7078 32 18.6157 31.5451 17.7235 30.6353C16.8313 29.7255 16.3851 28.6118 16.3851 27.2941C16.3851 25.9765 16.8313 24.8627 17.7235 23.9529C18.6157 23.0431 19.7078 22.5882 21 22.5882C22.2922 22.5882 23.3843 23.0431 24.2765 23.9529C25.1687 24.8627 25.6149 25.9765 25.6149 27.2941C25.6149 28.6118 25.1687 29.7255 24.2765 30.6353C23.3843 31.5451 22.2922 32 21 32ZM21 11.2941C23.3074 11.2941 25.4998 11.6706 27.5771 12.4235C29.6544 13.1765 31.5385 14.2118 33.2294 15.5294C33.8447 16 34.1603 16.6199 34.1763 17.3892C34.1923 18.1584 33.9228 18.8248 33.3678 19.3882C32.8448 19.9216 32.1987 20.1964 31.4296 20.2127C30.6604 20.229 29.9682 20.0169 29.3529 19.5765C28.1838 18.7608 26.8916 18.1176 25.4764 17.6471C24.0612 17.1765 22.569 16.9412 21 16.9412C19.431 16.9412 17.9388 17.1765 16.5236 17.6471C15.1084 18.1176 13.8162 18.7608 12.6471 19.5765C12.0318 20.0157 11.3396 20.2196 10.5704 20.1882C9.80129 20.1569 9.15522 19.8745 8.6322 19.3412C8.10918 18.7765 7.84767 18.1101 7.84767 17.3421C7.84767 16.5741 8.15533 15.9542 8.77064 15.4824C10.4628 14.1647 12.3475 13.1369 14.4248 12.3991C16.5021 11.6612 18.6938 11.2929 21 11.2941ZM21 0C24.8457 0 28.4687 0.643137 31.8689 1.92941C35.2691 3.21569 38.3223 5.03529 41.0285 7.38824C41.6438 7.92157 41.9668 8.58039 41.9976 9.36471C42.0283 10.149 41.7668 10.8235 41.213 11.3882C40.69 11.9216 40.0439 12.1964 39.2748 12.2127C38.5057 12.229 37.8134 11.9856 37.1981 11.4824C34.983 9.63137 32.499 8.19639 29.7461 7.17741C26.9932 6.15843 24.0778 5.64831 21 5.64706C17.9222 5.6458 15.0075 6.15592 12.2558 7.17741C9.5041 8.1989 7.01946 9.63388 4.80187 11.4824C4.18656 11.9843 3.49433 12.2278 2.72519 12.2127C1.95605 12.1976 1.30997 11.9228 0.786953 11.3882C0.233171 10.8235 -0.0283368 10.149 0.00242887 9.36471C0.0331945 8.58039 0.356234 7.92157 0.971547 7.38824C3.67893 5.03529 6.73273 3.21569 10.1329 1.92941C13.5332 0.643137 17.1555 0 21 0Z" />
	</symbol>

	<symbol id="i-tv" viewBox="0 0 39 39">
		<path d="M28.25 2L19.5 10.75L10.75 2" stroke-width="4" stroke-linecap="round" stroke-linejoin="round"/>
		<path d="M33.5 10.75H5.5C3.567 10.75 2 12.317 2 14.25V33.5C2 35.433 3.567 37 5.5 37H33.5C35.433 37 37 35.433 37 33.5V14.25C37 12.317 35.433 10.75 33.5 10.75Z" stroke-width="4" stroke-linecap="round" stroke-linejoin="round"/>
	</symbol>

	<symbol id="i-sound" viewBox="0 0 33 43">
		<path d="M29.0667 2H3.93333C2.86558 2 2 2.86558 2 3.93333V38.7333C2 39.8011 2.86558 40.6667 3.93333 40.6667H29.0667C30.1344 40.6667 31 39.8011 31 38.7333V3.93333C31 2.86558 30.1344 2 29.0667 2Z" stroke-width="3"/>
		<path d="M16.4998 33.8999C19.7031 33.8999 22.2998 31.3032 22.2998 28.0999C22.2998 24.8967 19.7031 22.2999 16.4998 22.2999C13.2966 22.2999 10.6998 24.8967 10.6998 28.0999C10.6998 31.3032 13.2966 33.8999 16.4998 33.8999Z" stroke-width="3"/>
		<path d="M10.6998 9.7334H13.5998M10.6998 15.5334H13.5998M19.3998 15.5334H22.2998" stroke-width="3" stroke-linecap="round" stroke-linejoin="round"/>
	</symbol>

	<symbol id="i-video" viewBox="0 0 44 44">
		<path d="M20.02 29.4162C20.2479 29.5314 20.5036 29.5804 20.758 29.5574C21.0124 29.5345 21.2552 29.4406 21.4588 29.2864L25.1174 26.5364C25.3751 26.3435 25.5568 26.0662 25.6308 25.7529C25.7048 25.4397 25.6664 25.1104 25.5222 24.8226C25.4253 24.6323 25.2869 24.4662 25.1174 24.3364L21.4588 21.5864C21.254 21.434 21.0112 21.3411 20.757 21.318C20.5031 21.292 20.2471 21.3401 20.02 21.4566C19.7906 21.5696 19.5976 21.7448 19.463 21.9623C19.3284 22.1797 19.2576 22.4307 19.2588 22.6864V28.1864C19.2576 28.4421 19.3284 28.693 19.463 28.9105C19.5976 29.1279 19.7906 29.3032 20.02 29.4162ZM22 0C17.6488 0 13.3953 1.29028 9.77746 3.70767C6.15958 6.12506 3.33979 9.56099 1.67466 13.581C0.00953225 17.6009 -0.426141 22.0244 0.422734 26.292C1.27161 30.5596 3.3669 34.4796 6.44366 37.5563C9.52041 40.6331 13.4404 42.7284 17.708 43.5773C21.9756 44.4261 26.3991 43.9905 30.419 42.3253C34.439 40.6602 37.8749 37.8404 40.2923 34.2225C42.7097 30.6047 44 26.3512 44 22C44 19.1109 43.431 16.2501 42.3254 13.581C41.2197 10.9118 39.5992 8.48654 37.5564 6.44365C35.5135 4.40076 33.0882 2.78025 30.419 1.67465C27.7499 0.569047 24.8891 0 22 0ZM29.1786 9.075L30.4018 8.855C30.5791 8.82193 30.7612 8.82434 30.9375 8.8621C31.1139 8.89987 31.281 8.97223 31.4292 9.075C31.5783 9.17724 31.7049 9.30903 31.801 9.4622C31.8998 9.61351 31.9664 9.78348 31.9968 9.9616L32.4786 12.6852L26.51 13.75L29.1786 9.075ZM20.0068 10.6964L25.6586 9.6932L22.99 14.355L17.3382 15.345L20.0068 10.6964ZM10.34 13.75C10.2878 13.395 10.3767 13.0336 10.5876 12.7433C10.7986 12.453 11.1148 12.2568 11.4686 12.1968L16.5 11.3168L13.8182 15.9632L10.8086 16.5L10.34 13.75ZM33 30.25C33 30.9793 32.7103 31.6788 32.1945 32.1945C31.6788 32.7103 30.9793 33 30.25 33H13.75C13.0207 33 12.3212 32.7103 11.8055 32.1945C11.2897 31.6788 11 30.9793 11 30.25V17.875H33V30.25Z" />
	</symbol>

	<symbol id="i-check" viewBox="0 0 27 27">
		<path d="M8.5 13.5L13 18.5L18.5 8.5M26.5 13.5C26.5 20.6797 20.6797 26.5 13.5 26.5C6.3203 26.5 0.5 20.6797 0.5 13.5C0.5 6.3203 6.3203 0.5 13.5 0.5C20.6797 0.5 26.5 6.3203 26.5 13.5Z" stroke-linecap="round" stroke-linejoin="round"/>
	</symbol>

	<symbol id="i-close" viewBox="0 0 27 27">
		<path d="M9.5 9.5L17.5 17.5M17.5 9.5L9.5 17.5M26.5 13.5C26.5 20.6797 20.6797 26.5 13.5 26.5C6.3203 26.5 0.5 20.6797 0.5 13.5C0.5 6.3203 6.3203 0.5 13.5 0.5C20.6797 0.5 26.5 6.3203 26.5 13.5Z" stroke-linecap="round" stroke-linejoin="round"/>
	</symbol>

	<symbol id="i-ftth" viewBox="0 0 36 33">
		<path d="M18 31.5V11.5M18 11.5H14.7M18 11.5H21.3M14.7 11.5C13.144 11.5 12.3669 11.5 11.8835 11.9883C11.4 12.4767 11.4 13.2617 11.4 14.8333V31.5M14.7 11.5V6.5C14.7 4.94667 14.7 4.17 14.4492 3.55833C14.2834 3.15363 14.0402 2.78592 13.7336 2.47621C13.4269 2.16649 13.0629 1.92085 12.6623 1.75333C12.0567 1.5 11.2878 1.5 9.75 1.5M24.6 31.5V14.8333C24.6 13.2617 24.6 12.4767 24.1165 11.9883C23.6331 11.5 22.8559 11.5 21.3 11.5M21.3 11.5V6.5C21.3 4.94667 21.3 4.17 21.5508 3.55833C21.7166 3.15363 21.9598 2.78592 22.2664 2.47621C22.5731 2.16649 22.9371 1.92085 23.3377 1.75333C23.9433 1.5 24.7122 1.5 26.25 1.5M31.2 4.83333V11.5M34.5 8.16667H27.9M8.1 8.16667H1.5" stroke-width="3" stroke-linecap="round" stroke-linejoin="round"/>
	</symbol>

	<symbol id="i-router" viewBox="0 0 26 34">
		<path d="M1.51125 4.75547L3.8025 7.03616C8.8725 1.97336 17.1112 1.97336 22.1975 7.03616L24.4888 4.75547C18.1512 -1.58516 7.865 -1.58516 1.51125 4.75547ZM6.11 9.33302L8.40125 11.6137C9.62255 10.4027 11.2762 9.72281 13 9.72281C14.7238 9.72281 16.3774 10.4027 17.5987 11.6137L19.89 9.33302C18.0619 7.51558 15.5838 6.49474 13 6.49474C10.4162 6.49474 7.93813 7.51558 6.11 9.33302ZM22.75 14.5899H3.25C2.38805 14.5899 1.5614 14.9307 0.951903 15.5374C0.34241 16.1441 0 16.9669 0 17.8249V30.765C0 32.5604 1.44625 34 3.25 34H22.75C24.5537 34 26 32.5604 26 30.765V17.8249C26 16.9669 25.6576 16.1441 25.0481 15.5374C24.4386 14.9307 23.612 14.5899 22.75 14.5899ZM22.75 24.295H3.25V19.4424H22.75V24.295Z" />
	</symbol>

	<symbol id="i-smarttv" viewBox="0 0 35 32">
		<path d="M20.5 1.5H14.1667C8.19592 1.5 5.20975 1.5 3.35567 3.35567C1.50158 5.21133 1.5 8.19592 1.5 14.1667C1.5 20.1374 1.5 23.1236 3.35567 24.9777C5.21133 26.8317 8.19592 26.8333 14.1667 26.8333H20.5C26.4707 26.8333 29.4569 26.8333 31.311 24.9777C33.1651 23.122 33.1667 20.1374 33.1667 14.1667C33.1667 8.19592 33.1667 5.20975 31.311 3.35567C29.4553 1.50158 26.4707 1.5 20.5 1.5Z" stroke-width="3" stroke-linecap="round"/>
		<path d="M25.0917 21.2917C25.0917 20.6198 25.3586 19.9754 25.8337 19.5003C26.3088 19.0252 26.9531 18.7583 27.625 18.7583M20.025 21.2917C20.025 19.276 20.8257 17.3429 22.251 15.9177C23.6763 14.4924 25.6094 13.6917 27.625 13.6917M14.9583 21.2917C14.9583 17.9323 16.2929 14.7104 18.6683 12.335C21.0438 9.95952 24.2656 8.625 27.625 8.625" stroke-width="3" stroke-linecap="round"/>
		<path d="M26.8333 26.8333L28.4167 30M7.83333 26.8333L6.25 30" stroke-width="3" stroke-linecap="round" stroke-linejoin="round"/>
	</symbol>

	<symbol id="i-pdf" viewBox="0 0 20 22">
		<path d="M18.8034 7.8694H18.2323L18.2623 5.7904C18.2591 5.66882 18.2118 5.55245 18.129 5.4626L13.2226 0.1474C13.1829 0.103158 13.1346 0.0673006 13.0806 0.0419736C13.0265 0.0166466 12.9679 0.00237067 12.9082 0L2.64209 0C2.41191 0.00365866 2.19214 0.0955914 2.02905 0.256446C1.86596 0.4173 1.77227 0.634527 1.76769 0.8624V7.8694H1.1955C0.878853 7.8694 0.573314 7.9992 0.351105 8.2302C0.124383 8.46498 -0.00148067 8.77769 1.31465e-05 9.1025V15.5155C1.31465e-05 16.1953 0.535539 16.7475 1.1955 16.7475H1.76769V21.1365C1.772 21.3649 1.86587 21.5828 2.02947 21.7439C2.19307 21.9051 2.41356 21.9969 2.64431 22H17.3968C17.8579 22 18.2634 21.6128 18.2634 21.1376V16.7486H18.8045C19.4645 16.7486 20 16.1953 20 15.5144V9.1014C20 8.7758 19.8745 8.4612 19.65 8.2302C19.5413 8.11655 19.4104 8.02597 19.2652 7.96394C19.1201 7.90192 18.9637 7.86975 18.8056 7.8694M3.27761 1.5158H11.0061V6.5505C11.0056 6.66386 11.0494 6.77301 11.1283 6.8552C11.1665 6.89502 11.2125 6.92676 11.2635 6.9485C11.3145 6.97024 11.3694 6.98154 11.4249 6.9817H16.7124V7.8694H3.27761V1.5158ZM3.27761 20.4842V16.7475H16.7124V20.4842H3.27761ZM12.5449 1.672L12.9726 2.1494L15.8391 5.2877L15.998 5.478H13.0682C12.846 5.478 12.706 5.44133 12.6482 5.368C12.5889 5.29613 12.5545 5.18137 12.5449 5.0237V1.672ZM2.22211 15.6552V9.0552H4.3531C5.16046 9.0552 5.68636 9.0882 5.93079 9.1542C6.30855 9.2532 6.62446 9.4688 6.87852 9.801C7.13258 10.1317 7.25961 10.56 7.25961 11.0858C7.25961 11.4906 7.18628 11.8316 7.03962 12.1088C6.89296 12.3838 6.70667 12.6001 6.48076 12.7578C6.2749 12.9073 6.04057 13.014 5.79191 13.0713C5.47489 13.1344 5.01603 13.1659 4.41532 13.1659H3.54981V15.6552H2.22211ZM3.54981 10.1717V12.045H4.27644C4.80011 12.045 5.15009 12.0105 5.32638 11.9416C5.49675 11.8772 5.64263 11.7619 5.74378 11.6117C5.84493 11.4615 5.89631 11.2838 5.89079 11.1034C5.89901 10.8861 5.82356 10.6738 5.67969 10.5094C5.54115 10.3541 5.35283 10.2508 5.14639 10.2168C4.98862 10.1875 4.67012 10.1728 4.19089 10.1728L3.54981 10.1717ZM8.03845 9.0552H10.465C11.0124 9.0552 11.4297 9.09737 11.7171 9.1817C12.1023 9.29537 12.4326 9.49777 12.7082 9.7889C12.983 10.0808 13.1922 10.4372 13.3359 10.8581C13.4804 11.2805 13.5522 11.8004 13.5515 12.4179C13.5515 12.9613 13.4841 13.4295 13.3493 13.8226C13.1841 14.3029 12.9493 14.6916 12.6449 14.9886C12.4152 15.2145 12.1041 15.3905 11.7116 15.5166C11.419 15.609 11.0275 15.6552 10.5372 15.6552H8.03845V9.0552ZM9.36615 10.1717V14.5431H10.3572C10.7283 14.5431 10.9961 14.5222 11.1605 14.4804C11.376 14.4261 11.5545 14.3345 11.696 14.2054C11.839 14.0763 11.9549 13.864 12.0438 13.5685C12.1334 13.273 12.1782 12.87 12.1782 12.3596C12.1782 11.8492 12.1338 11.4576 12.0449 11.1848C11.9733 10.9445 11.8437 10.7251 11.6671 10.5457C11.4957 10.3871 11.2829 10.2793 11.0527 10.2344C10.8675 10.1926 10.5046 10.1717 9.9639 10.1717H9.36615ZM14.3803 15.6552V9.0552H18.8878V10.1717H15.708V11.7337H18.4523V12.8502H15.708V15.6552H14.3803Z" />
	</symbol>

	<symbol id="i-arrow" viewBox="0 0 14 24">
		<path d="M1 1L12 12L1 23" stroke-width="2" stroke-linecap="round"/>
	</symbol>

	<symbol id="i-tel" viewBox="0 0 26 26">
		<path d="M5.22889 11.2522C7.30889 15.34 10.66 18.6767 14.7478 20.7711L17.9256 17.5933C18.3156 17.2033 18.8933 17.0733 19.3989 17.2467C21.0167 17.7811 22.7644 18.07 24.5556 18.07C25.35 18.07 26 18.72 26 19.5144V24.5556C26 25.35 25.35 26 24.5556 26C10.9922 26 0 15.0078 0 1.44444C0 0.65 0.65 0 1.44444 0H6.5C7.29444 0 7.94444 0.65 7.94444 1.44444C7.94444 3.25 8.23333 4.98333 8.76778 6.60111C8.92667 7.10667 8.81111 7.67 8.40667 8.07444L5.22889 11.2522Z" />
	</symbol>

	<symbol id="i-mail" viewBox="0 0 26 20">
		<path d="M2.33422 20C1.66882 20 1.11367 19.78 0.668778 19.34C0.223889 18.9 0.000962963 18.3505 0 17.6914V2.30857C0 1.65048 0.222926 1.10143 0.668778 0.661428C1.11463 0.221428 1.6693 0.000952381 2.33278 0H23.6672C24.3317 0 24.8863 0.220476 25.3312 0.661428C25.7761 1.10238 25.999 1.65143 26 2.30857V17.6929C26 18.35 25.7771 18.899 25.3312 19.34C24.8854 19.781 24.3307 20.0009 23.6672 20H2.33422ZM13 9.94286C13.1204 9.94286 13.233 9.92476 13.338 9.88857C13.442 9.85238 13.545 9.80809 13.6471 9.75571L24.089 2.99429C24.2257 2.91238 24.3148 2.80048 24.3562 2.65857C24.3976 2.51667 24.3899 2.37524 24.3331 2.23429C24.2965 2.05048 24.1752 1.91714 23.9691 1.83429C23.764 1.75238 23.5651 1.76905 23.3726 1.88429L13 8.57143L2.62889 1.88571C2.4363 1.76952 2.24178 1.74476 2.04533 1.81143C1.84889 1.8781 1.72274 2.00952 1.66689 2.20571C1.61104 2.35238 1.60381 2.50143 1.64522 2.65286C1.68663 2.80429 1.77522 2.91857 1.911 2.99571L12.3529 9.75571C12.455 9.80809 12.558 9.85238 12.662 9.88857C12.767 9.92381 12.8796 9.94143 13 9.94143"/>
	</symbol>

	<symbol id="i-loc" viewBox="0 0 26 37">
		<path d="M13 17.575C11.7686 17.575 10.5877 17.0877 9.717 16.2204C8.8463 15.353 8.35714 14.1766 8.35714 12.95C8.35714 11.7234 8.8463 10.547 9.717 9.67963C10.5877 8.81228 11.7686 8.325 13 8.325C14.2314 8.325 15.4123 8.81228 16.283 9.67963C17.1537 10.547 17.6429 11.7234 17.6429 12.95C17.6429 13.5574 17.5228 14.1588 17.2894 14.7199C17.0561 15.281 16.7141 15.7909 16.283 16.2204C15.8519 16.6498 15.34 16.9905 14.7767 17.2229C14.2134 17.4554 13.6097 17.575 13 17.575ZM13 0C9.55219 0 6.24558 1.36437 3.80761 3.79297C1.36964 6.22156 0 9.51545 0 12.95C0 22.6625 13 37 13 37C13 37 26 22.6625 26 12.95C26 9.51545 24.6304 6.22156 22.1924 3.79297C19.7544 1.36437 16.4478 0 13 0Z" />
	</symbol>

	<symbol id="i-up" viewBox="0 0 12 21">
		<path d="M6 20.5V0.5M6 0.5L11.5 6M6 0.5L0.5 6" stroke-linecap="round" stroke-linejoin="round"/>
	</symbol>

</svg>
