<svg xmlns="http://www.w3.org/2000/svg">

	<symbol id="up-right" viewBox="0 0 9 9">
		<path d="M8.10959 0.649994C8.10959 0.291009 7.81858 -5.91121e-06 7.45959 -6.15355e-06L1.60959 -5.90067e-06C1.25061 -6.23785e-06 0.959594 0.291009 0.959595 0.649994C0.959594 1.00898 1.25061 1.29999 1.60959 1.29999L6.80959 1.29999L6.80959 6.49999C6.80959 6.85898 7.10061 7.14999 7.45959 7.14999C7.81858 7.14999 8.10959 6.85898 8.10959 6.49999L8.10959 0.649994ZM0.459595 7.64999L0.919214 8.10961L7.91921 1.10961L7.45959 0.649994L6.99998 0.190375L-2.46952e-05 7.19037L0.459595 7.64999Z" />
	</symbol>

	<symbol id="line-right" viewBox="0 0 33 11">
		<path d="M32.5267 6.01214C32.8176 5.72124 32.8176 5.24959 32.5267 4.95869L27.7862 0.218191C27.4953 -0.0727102 27.0237 -0.0727102 26.7328 0.21819C26.4419 0.509091 26.4419 0.980734 26.7328 1.27164L30.9466 5.48542L26.7328 9.69919C26.4419 9.9901 26.4419 10.4617 26.7328 10.7526C27.0237 11.0435 27.4953 11.0435 27.7862 10.7526L32.5267 6.01214ZM0 5.48541L-6.5121e-08 6.23031L32 6.23031L32 5.48542L32 4.74052L6.5121e-08 4.74051L0 5.48541Z" />
	</symbol>

	<symbol id="arrow" viewBox="0 0 24 24">
		<path fill-rule="evenodd" clip-rule="evenodd" d="M8.29289 4.29289C8.68342 3.90237 9.31658 3.90237 9.70711 4.29289L16.7071 11.2929C17.0976 11.6834 17.0976 12.3166 16.7071 12.7071L9.70711 19.7071C9.31658 20.0976 8.68342 20.0976 8.29289 19.7071C7.90237 19.3166 7.90237 18.6834 8.29289 18.2929L14.5858 12L8.29289 5.70711C7.90237 5.31658 7.90237 4.68342 8.29289 4.29289Z" />
	</symbol>

</svg>