<svg height="512" viewBox="0 0 58 58" width="512" xmlns="http://www.w3.org/2000/svg"><g id="Page-1" fill="none" fill-rule="evenodd"><g id="038---Confirm-Message"><path id="Path" d="m38.75 5h11.25c4.418278 0 8 3.581722 8 8v28c0 4.418278-3.581722 8-8 8h-14l-5.31 8.08c-.3696438.5750858-1.0063625.9227307-1.69.9227307s-1.3203562-.3476449-1.69-.9227307l-5.31-8.08h-14c-4.418278 0-8-3.581722-8-8v-28c0-4.418278 3.581722-8 8-8z" fill="#b0d3f0"/><path id="Path" d="m4 14c-.55228475 0-1-.4477153-1-1 .00330612-2.7600532 2.23994685-4.99669388 5-5 .55228475 0 1 .44771525 1 1s-.44771525 1-1 1c-1.65685425 0-3 1.3431458-3 3 0 .2652165-.10535684.5195704-.29289322.7071068s-.44189029.2928932-.70710678.2928932z" fill="#ecf0f1"/><path id="Path" d="m50 46c-.5522847 0-1-.4477153-1-1s.4477153-1 1-1c1.6568542 0 3-1.3431458 3-3 0-.5522847.4477153-1 1-1s1 .4477153 1 1c-.0033061 2.7600532-2.2399468 4.9966939-5 5z" fill="#90bae1"/><g fill="#35495e"><path id="Path" d="m19 31h-6c-.5522847 0-1-.4477153-1-1s.4477153-1 1-1h6c.5522847 0 1 .4477153 1 1s-.4477153 1-1 1z"/><path id="Path" d="m45 31h-22c-.5522847 0-1-.4477153-1-1s.4477153-1 1-1h22c.5522847 0 1 .4477153 1 1s-.4477153 1-1 1z"/><path id="Path" d="m45 39h-32c-.5522847 0-1-.4477153-1-1s.4477153-1 1-1h32c.5522847 0 1 .4477153 1 1s-.4477153 1-1 1z"/></g><circle id="Oval" cx="29" cy="12" fill="#4fba6f" r="12"/><path id="Path" d="m26 19c-.2651948-.0000566-.5195073-.1054506-.707-.293l-4-4c-.3789722-.3923789-.3735524-1.0160848.0121814-1.4018186s1.0094397-.3911536 1.4018186-.0121814l3.293 3.293 9.293-9.293c.3923789-.37897221 1.0160848-.37355237 1.4018186.01218142.3857338.3857338.3911536 1.00943969.0121814 1.40181858l-10 10c-.1874927.1875494-.4418052.2929434-.707.293z" fill="#ecf0f1"/></g></g></svg>