<svg xmlns="http://www.w3.org/2000/svg">

	<symbol id="i-sintez" viewBox="0 0 314 316">
		<path d="M290.5 106.125c3.15 2.363 4.213 4.158 5.5 7.875.5 3.625.5 3.625 0 7-3.512 3.391-7.064 5.015-11.621 6.656-.622.23-1.245.458-1.886.694a841.995 841.995 0 0 1-5.93 2.15c-1.976.711-3.95 1.426-5.92 2.15-1.79.657-3.585 1.304-5.38 1.95-6.208 2.6-6.208 2.6-10.402 7.593l-.552 2.483-.669 2.94c-1.437 7.6-2.73 15.22-3.94 22.858-2.98 18.69-2.98 18.69-6.7 22.526-3.79 2.522-7.808 4.249-12 6l-3.85 1.66a780.355 780.355 0 0 1-10.672 4.46 1896.96 1896.96 0 0 0-7.035 2.914c-7.028 2.92-14.062 5.822-21.126 8.656a1711.59 1711.59 0 0 0-8.347 3.388 400.057 400.057 0 0 1-3.872 1.544c-17.879 7.025-29.315 18.755-40.8 33.69-1.817 2.363-3.652 4.713-5.486 7.063A5968.33 5968.33 0 0 0 127 266c-2-1-2-1-2.594-2.759l-.476-2.292-.53-2.539c-4.408-22.891-4.408-22.891.632-30.615 1.887-2.685 3.902-5.247 5.968-7.795l2.043-2.648c13.495-16.216 36.812-22.903 55.865-30.115A2619.84 2619.84 0 0 0 199 183l2.355-.898c2.322-.89 4.637-1.8 6.95-2.715l2.12-.805c5.079-2.04 8.957-4.375 11.485-9.385 1.905-4.747 2.923-9.62 3.809-14.642l.886-4.762c.45-2.466.898-4.932 1.343-7.399.437-2.406.885-4.81 1.333-7.214l.389-2.217c.963-5.137 1.965-10.155 6.285-13.458 7.487-3.426 15.183-6.144 22.982-8.755 1.327-.45 2.653-.9 3.979-1.352 18.362-6.237 18.362-6.237 27.584-3.273zM147.531 86.293l2.16 1.095c1.326.676 2.65 1.359 3.97 2.049 12.454 6.383 21.66 4.06 34.398-.03L192.375 88c2.174-.698 4.348-1.394 6.523-2.089 1.343-.43 2.685-.863 4.026-1.299 5.184-1.678 9.553-2.78 15.013-2.862l3.09-.078c3.426.378 5.224 1.282 7.973 3.328 2.015 3.022 2.337 3.917 2.438 7.375l.12 2.273c-.852 3.588-2.778 4.97-5.558 7.352-2.648 1.334-5.385 2.246-8.203 3.156l-2.412.817c-2.54.856-5.088 1.692-7.635 2.527-1.664.56-3.329 1.121-4.992 1.684a881.502 881.502 0 0 1-12.34 4.042 950.344 950.344 0 0 0-4.829 1.56c-2.29.743-4.587 1.466-6.886 2.183l-2.048.672c-7.08 2.15-12.34.8-18.866-2.301l-3.5-1.645-3.664-1.757-3.77-1.78c-3.623-1.708-7.24-3.432-10.855-5.158-2.58-1.227-5.16-2.453-7.74-3.676a717.526 717.526 0 0 1-4.11-1.963c-9.661-4.607-18.476-6.229-28.838-2.736-18.593 7.651-26.217 23.27-33.787 40.867l-1.255 2.852-1.107 2.568C58 146 58 146 55 148c-2.907.271-2.907.271-6.426.309l-3.853.076c-2.677.038-5.354.066-8.032.094l-3.865.08-3.528.04c-3.762.458-6.122 1.335-9.296 3.401-1.537 2.207-1.537 2.207-2.414 4.816l-1.117 2.815-1.094 2.931a468.087 468.087 0 0 1-2.227 5.754l-.963 2.577C10.766 173.416 9.744 174.139 7 175c-2.784-1.193-4.491-2.321-6.313-4.75-3.028-9.913 1.937-20.842 5.813-29.875l.899-2.119c1.54-3.46 2.381-5.11 5.601-7.256 2.648-.18 2.648-.18 5.805-.09l3.457.06c2.4.062 4.802.127 7.203.196l3.465.057 3.163.086c3.38-.36 5.189-1.304 7.907-3.309 1.676-2.432 1.676-2.432 2.938-5.313l1.542-3.242a193.568 193.568 0 0 0 2.883-6.89C59.546 91.949 74.026 80.817 94 72c19.04-5.455 37.148 5.969 53.531 14.293z"/><path d="m133 32.188 6.09 2.945 3.019 1.466c4.142 2.007 8.294 3.992 12.453 5.964l2.034.975c11.846 5.61 19.623 4.743 31.966 1.4l3.58-.942c5.815-1.55 11.585-3.192 17.319-5.02l3.06-.972c1.878-.606 3.75-1.228 5.616-1.87 7.67-2.496 15.682-3.601 23.425-.884 3.635 2.61 5.177 4.217 5.938 8.688-.69 4.228-2.205 5.341-5.5 8.062-3.01 1.418-6.117 2.381-9.297 3.348l-2.781.884c-2.97.939-5.945 1.854-8.922 2.768a8977.83 8977.83 0 0 0-5.975 1.87 1500.859 1500.859 0 0 1-15.195 4.64c-2.077.625-4.151 1.256-6.224 1.893-3.058.94-6.12 1.862-9.184 2.78l-2.775.862c-10.761 3.178-17.268 2.324-27.229-2.822l-2.96-1.473a1230.736 1230.736 0 0 1-9.27-4.688 3852.018 3852.018 0 0 0-9.325-4.676c-1.93-.967-3.856-1.94-5.78-2.918l-2.64-1.335-2.314-1.178c-10.602-4.758-22.564-1.567-33.177 1.56-2.076.61-4.159 1.186-6.245 1.758-15.257 4.304-26.348 10.248-34.36 24.22a193.186 193.186 0 0 0-3.597 7.07C43 90 43 90 41 91c-2.875.375-2.875.375-6 0-3.645-3.645-5.136-6.955-5.313-12.063.167-11.456 7.862-22.96 15.422-31.128 11.054-10.574 27.059-13.587 41.426-17.404 2.491-.662 4.98-1.334 7.469-2.007l4.808-1.289c.735-.198 1.47-.395 2.226-.6 13.183-3.489 20.022-.174 31.962 5.678zM159.313 153.75c3.973 3.327 5.478 5.576 6.125 10.75-.543 4.34-1.318 5.436-4.438 8.5-3.371 1.841-6.892 3.279-10.438 4.75-16.789 7.311-27.97 15.916-37.687 31.625l-1.512 2.383A277.962 277.962 0 0 0 107 219l-1.48 2.478-1.387 2.499-1.246 2.197c-2.449 7.8-.52 16.154.968 23.986.38 2.114.758 4.228 1.135 6.342.597 3.289 1.2 6.576 1.818 9.86.598 3.2 1.169 6.405 1.735 9.61l.577 2.946c1.351 7.818.114 13.273-3.882 20.086C94.525 313.237 94.525 313.237 89 316c-2.938.313-2.938.313-6 0-3.414-3.297-4.151-7.396-4.5-12 .01-5.699 2.878-9.718 5.871-14.398 6.605-10.55 1.031-25.648-1.38-36.92-4.63-21.815-1.634-33.705 9.384-53.307l1.922-3.484C105.81 175.259 120.157 159.626 143 152c5.985-1.47 10.886-1.117 16.313 1.75zM87 144c3.57 4.632 4.696 9.54 4.356 15.316-1.268 9.552-7.183 18.614-11.481 27.121l-2.02 4.02a1158.668 1158.668 0 0 1-12.487 24.159 375.803 375.803 0 0 0-5.579 10.845l-1.076 2.19c-.653 1.335-1.3 2.673-1.94 4.015C54.576 236.175 52.12 240.088 49 244c-3.313.938-3.313.938-6 1-4.104-4.899-5.35-8.223-5.264-14.511.464-4.375 2.191-8.085 4.014-12.052l1.211-2.729c4.058-9.012 8.515-17.828 12.984-26.642 3.018-5.962 5.928-11.972 8.805-18.004l1.37-2.86c2.12-4.44 4.202-8.892 6.204-13.386l1.09-2.412a273.072 273.072 0 0 0 1.95-4.443c2.133-4.724 2.133-4.724 4.702-5.934 2.967-.042 4.383.379 6.934 1.973zM226.25 224.879c4.6 1.875 9.148 2.922 14.002 1.428 2.247-1.014 4.4-2.12 6.56-3.307a338.67 338.67 0 0 1 4.395-2.313l1.921-1.05c2.318-.789 3.591-.42 5.872.363-2.348 8.668-9.375 12.345-16.816 16.617-6.034 3.038-11.44 4.625-18.184 3.383-2.862-1.063-5.387-2.437-8-4-4.518-2.637-8.014-2.053-13-1-2.715.895-5.242 2.067-7.813 3.313-1.55.72-3.1 1.437-4.652 2.152l-2.605 1.206c-5.89 2.671-11.854 5.174-17.805 7.704a7006.28 7006.28 0 0 0-7.242 3.086l-3.144 1.337c-2.684 1.137-2.684 1.137-4.966 2.384-2.286 1.055-3.453.646-5.773-.182 11.453-13.847 24.822-21.872 41.076-29.027 1.953-.86 3.902-1.733 5.85-2.606 12.2-5.43 18.441-6.44 30.324.512z"/><path d="m206.563 243.375 2.378.273C211 244 211 244 213 245c-.247 2.36-.247 2.36-1 5-1.759 1.299-1.759 1.299-4.05 2.246l-2.539 1.086-2.724 1.106c-1.846.798-3.693 1.598-5.539 2.398a414.631 414.631 0 0 1-8.546 3.516c-11.719 5.087-20.434 15.305-29.192 24.336-11.365 11.715-23.398 17.958-38.375 24.37l-2.644 1.135C116 311 116 311 112 311c0-3.039.41-5.231 2.285-7.676 4.91-4.694 10.596-7.376 16.646-10.277 9.764-4.74 17.603-11.313 25.518-18.68 2.771-2.571 5.629-5.02 8.508-7.469 2.146-1.927 2.146-1.927 4.242-4.421 8.14-9.125 24.505-20.67 37.363-19.102zM306 145c3.242 1.62 5.197 2.942 7.375 5.813.939 3.285 1.043 5.785.625 9.187-3.897 4.892-8.509 6.906-14.125 9.25l-2.457 1.063c-6.71 2.883-12.038 4.348-19.418 3.687-3.724-1.584-5.99-3.482-8-7-1.023-3.435-1.283-5.257 0-8.625 7.493-8.898 24.695-14.658 36-13.375zM36.5 162.438c3.5.562 3.5.562 5.875 2.625 1.924 3.477 3.022 5.99 2.625 9.937-1.094 3.791-2.559 7.381-4.132 10.998-.97 2.238-1.906 4.489-2.845 6.74-.693 1.63-1.388 3.259-2.086 4.887l-.993 2.37c-3.056 6.966-3.056 6.966-6.944 9.005-2.563.438-2.563.438-5 0-3.988-4.13-4.39-8.574-4.33-14.071.633-5.615 2.904-10.632 5.08-15.804l1.344-3.375c5.034-12.288 5.034-12.288 11.406-13.313zM295 185l1 2c-6.4 14.934-28.875 20.503-42.59 26.164a274.33 274.33 0 0 0-8.101 3.484l-3.184 1.415-2.68 1.222c-2.861.837-4.608.523-7.445-.285 1.172-6.512 3.653-9.227 9-13 3.05-1.69 6.195-3.065 9.406-4.418l2.678-1.163c2.8-1.214 5.608-2.41 8.416-3.607a5070.33 5070.33 0 0 0 5.652-2.443c4.226-1.827 8.455-3.645 12.692-5.444 1.397-.6 2.79-1.21 4.175-1.835 3.88-1.737 6.708-2.403 10.981-2.09zM177.313 9.688c3.127 2.69 4.425 4.376 5.687 8.312.19 4.463-.425 7.942-2.563 11.875-3.858 3.363-7.556 5.15-12.746 5.105-5.153-.79-8.513-2.668-11.66-6.847-2.374-4.91-1.778-9.987-.031-15.008 6.32-6.716 13.29-7.524 21.313-3.438zM211 0c4.408 2.164 7.128 4.425 9 9 .58 3.969.41 7.053-1.188 10.75-3.312 4.112-5.978 6.364-11.25 7.188-5.476.382-8.76-1.38-12.875-4.938-2.822-3.345-3.031-6.644-2.968-10.938.598-4.387 3.2-7.108 6.406-9.937C202.443-.565 206.427-.66 211 0zM200.313 137.188c4.285 2.89 6.278 5.284 7.625 10.312.07 3.987-.463 5.428-2.938 8.5-3.304 2.89-5.89 3.916-10.313 4.25-5.596-.38-8.498-2.138-12.562-5.938-2.815-4.387-2.858-6.18-2.125-11.312 4.722-7.757 12.157-8.736 20.313-5.813zM118 115c3.762 1.282 6.37 3.248 8.938 6.313 1.406 3.557 1.595 5.887 1.062 9.687-2.27 3.539-4.065 5.522-7.813 7.438-5.516.973-9.532.437-14.5-2.188-2.862-2.396-4.367-3.757-5.687-7.25-.187-3.166.053-5.967 1-9 5.142-5.274 9.909-5.764 17-5zM263 68c3.308 1.625 5.172 2.956 7.438 5.813.875 3.405.453 5.8-.438 9.187-3.15 4.43-6.45 5.994-11.652 6.914-3.917.143-6.999-.936-10.348-2.914-3.102-2.902-3.832-5.793-4-10 1.192-3.377 2.39-5.428 5-7.875 4.658-1.747 9.09-1.78 14-1.125zM66.07 257.54c3.83.914 5.998 3.173 8.243 6.272 1.022 3.255 1.038 5.793.687 9.188-3.077 5.538-3.077 5.538-6 7-5.864.677-5.864.677-8.758-1.047-2.859-2.348-4.992-4.164-5.515-7.906-.18-4.079-.15-7.202 2.273-10.61 3.363-2.732 4.87-3.23 9.07-2.898zM27.438 99.063C31 100 31 100 33.374 102c2.166 3.999 2.817 7.465 2.625 12-1.27 4.11-2.089 5.505-5.875 7.563C27 122 27 122 24.312 120.874c-3.894-3.158-5.412-5.34-6.187-10.313-.262-3.184-.16-4.482 1.125-7.5 2.658-3.132 4.027-4.075 8.188-4zM261 237c-5.02 11.747-24.719 19.495-35.512 25.004C223 263 223 263 219 263c1.146-4.87 3.86-6.687 7.758-9.406 2.24-1.54 2.24-1.54 4.172-3.25C237.17 245 252.567 234.189 261 237zM152 267c-.42 4.757-2.442 7.938-6 11-8.325 5-8.325 5-12 5 .322-5.318 3.275-8.491 7-12 3.659-2.697 6.335-4 11-4z"/><path d="M190 269c-1.699 6.486-4.858 10.884-10.5 14.375-3.271 1.519-4.98 2.052-8.5 1.625 3.201-7.736 7.323-11.763 14.875-15.375C188 269 188 269 190 269zM282 208c.691 1.75.691 1.75 1 4-3.106 5.08-7.777 9.215-13 12h-4c.105-4.294 1.197-6.627 4.063-9.688 3.672-3.444 7.145-4.883 11.937-6.312zM212 258c.087 3.468-.553 5.483-2.824 8.11-4.492 4.179-8.096 6.855-14.176 7.89.786-5.862 3.801-9.033 8-13 3.365-2.07 5.072-3 9-3z"/>
	</symbol>

	<symbol id="i-sintez-text" viewBox="0 0 425 54">
		<path d="M328.603-.35a317.09 317.09 0 0 0 4.533-.082c2.182-.055 4.362-.077 6.544-.091l3.96-.06C347 0 347 0 349.43 2.183c1.74 3.122 2.062 4.868 2.032 8.415l-.012 3.177-.074 3.288-.004 3.298c-.1 9.1-.1 9.1-2.371 12.639-2.405 1.203-4.104 1.203-6.79 1.316l-2.85.127-2.985.12-3.008.13c-2.455.107-4.911.209-7.367.307v4l3.438 1.438C333 42 333 42 334 43c.583 6.177.583 6.177-1.555 9.195-3.364 2.483-5.736 2.372-9.882 2.368l-3.934.066c-4.627-.802-5.816-1.893-8.629-5.629-.708-3.246-.654-6.408-.594-9.719v-2.835c.005-1.973.023-3.947.052-5.92.042-3.016.041-6.03.034-9.046.01-1.92.024-3.84.04-5.761v-2.725c.09-4.787.315-8.13 3.468-11.994 4.5-2.25 10.599-1.31 15.603-1.35zM326 14l-2 4c1.812 2.243 1.812 2.243 4.383 2.195l2.742-.07 2.758-.055L336 20c.681-1.892.681-1.892 1-4-1.787-2.214-1.787-2.214-4.164-2.195l-2.461.07-2.477.055L326 14zM395.25-.594h2.106c1.466.005 2.932.023 4.398.052 2.24.042 4.475.041 6.715.034 10.767.08 10.767.08 13.922 1.85 2.646 2.727 2.736 5.384 2.742 9.002l.004 2.527-.012 2.629.012 2.629-.004 2.527-.004 2.307C425 25 425 25 424 28l1 1c.279 3.075.232 6.164.25 9.25l.063 2.605c.03 4.897-.15 8.15-3.313 12.145-2.042 2.042-6.021 1.276-8.813 1.313l-2.197.087c-3.526.042-5.58-.102-8.47-2.197-2.213-3.207-2.072-5.407-1.52-9.203 2.313-2.89 4.735-3.22 8.25-3.688L413 39v-4l-3.797-.078a4186.81 4186.81 0 0 1-4.953-.172l-2.5-.043c-6.106-.246-6.106-.246-9.3-2.531C390.334 29 390.525 26.72 391 23c1.599-2.178 2.509-2.902 5.177-3.432l2.491-.08 2.705-.107 2.815-.069 2.85-.103c2.32-.082 4.64-.152 6.962-.209v-4l-2.34-.06c-3.49-.095-6.981-.205-10.473-.315l-3.681-.094-3.526-.117-3.253-.095C388 14 388 14 385 12c-.938-3.313-.938-3.313-1-7 2.985-5.21 5.419-5.626 11.25-5.594zM155.125 0c2.952 1.027 3.93 1.654 5.875 4 .773 2.008.773 2.008 1.375 4.125.68 2.098.68 2.098 1.625 3.875 2.424 1.319 2.424 1.319 5 1 3.2-2.133 3.43-2.515 4.5-5.938.97-3.087 1.884-5.069 4.5-7.062 3.32.119 5.896.25 8.692 2.149 2.792 3.951 1.784 9.581 1.754 14.248-.008 2.03.02 4.059.052 6.09l-.002 3.884.006 3.56c-.603 3.69-1.528 4.866-4.502 7.069-3.5.563-3.5.563-7 0-2.313-2.313-2.313-2.313-4-5l-2-3c-3.542-.333-3.542-.333-7 0-2.311 2.311-1.356 8.905-1.43 12.21-.182 4.668-.444 8.065-3.57 11.79-3.375 1.125-3.375 1.125-7 1-2.858-2.008-4.695-3.615-5.467-7.12-.196-2.619-.226-5.192-.197-7.818l-.015-2.902c-.003-2.02.006-4.04.027-6.061.027-3.09 0-6.174-.032-9.263.004-1.966.01-3.932.02-5.898l-.03-2.791c.082-4.533.242-6.546 3.04-10.268C152 0 152 0 155.125 0zM11.25-.531l2.106-.012c1.466-.003 2.932.005 4.398.022 2.24.02 4.475 0 6.715-.026a4400192408.579 4400192408.579 0 0 1 8.203.03C36.522.08 37.723.891 40 4c.58 3.476.538 5.194-1.43 8.145-3.862 2.788-7.54 2.49-12.195 2.543-1.721.042-3.443.087-5.164.136l-2.303.034c-1.994.027-1.994.027-3.908 1.142v23l7 3c2 3 2 3 1.875 6-1.044 3.581-1.656 4.219-4.875 6-3.531.398-3.531.398-7.5.375l-3.969.023C3.794 53.977 2.635 53.563 0 51c-.508-2.118-.508-2.118-.518-4.592l-.038-2.811.025-3.03-.012-3.12c-.003-2.178.005-4.356.022-6.534.02-3.334 0-6.667-.026-10 .003-2.116.008-4.231.016-6.347l-.025-3.024c.092-6.77.092-6.77 2.136-10.17C4.915-.518 7.423-.517 11.25-.53zM239.272-.501c2.156.001 4.309-.04 6.464-.085 1.379-.005 2.757-.008 4.135-.008l3.78-.021C257.902.165 259.397 1.606 262 5c.125 3.625.125 3.625-1 7l-2.537 1.239c-2.843 1.596-2.843 1.596-3.043 5.143-.007 1.391.01 2.782.049 4.173l-.01 2.238c-.013 3.156.031 6.312.07 9.468.021 2.307.012 4.612.002 6.919l.06 2.147c-.02 3.875-.5 5.556-2.894 8.662C250 54 250 54 246.312 54 243 53 243 53 241 50c-.24-2.68-.373-5.266-.414-7.95l-.059-2.34c-.06-2.466-.106-4.932-.152-7.398-.038-1.672-.077-3.345-.117-5.017-.096-4.098-.18-8.196-.258-12.295l-3.14-.043c-1.37-.047-2.74-.095-4.11-.145l-2.066-.017c-3.76-.164-5.403-.529-8.168-3.15C221 9 221 9 221 5.875c2.8-8.052 11.154-6.399 18.272-6.376zM85 1c2.99 2.99 2.973 5.197 3.114 9.392l-.016 3.999-.005 2.135c-.005 2.241-.018 4.483-.03 6.724-.006 1.523-.01 3.047-.014 4.57-.011 3.727-.028 7.453-.049 11.18l3.375.875C95 41 95 41 97 43c.541 5.683.541 5.683 0 8-2.406 2.672-3.937 2.992-7.531 3.434l-3.969.004-3.969.058C78 54 78 54 75.812 52.63c-2.858-4.147-2.383-8.273-2.343-13.195l-.012-3.123c-.003-2.176.005-4.352.022-6.529.02-3.336 0-6.67-.026-10.007.003-2.114.008-4.227.016-6.341l-.025-3.03.038-2.812.01-2.474C74 3 74 3 75.806 1.201 79.098-.6 81.445.144 85 1zM107-.5c3.742.624 4.692 1.529 7 4.5.725 4.126.617 8.233.576 12.417-.013 2.012.02 4.019.059 6.03l-.006 3.862.002 3.525c-.817 4.098-2.384 5.616-5.631 8.166-3.125.063-3.125.063-6-1-4.187-4.191-3.422-8.87-3.459-14.465l.013-2.007a304.52 304.52 0 0 0-.052-6.063l.002-3.871-.006-3.541C100.274 2.33 102.303.283 107-.5zM110 40c2.375 1.625 2.375 1.625 4 4 .563 3 .563 3 0 6-2.414 2.621-4.078 3.798-7.563 4.563C104 54 104 54 101.626 51.937c-2.113-3.82-1.798-5.791-.625-9.937 3.491-2.327 4.892-2.503 9-2zM275 1c2.326 3.489 2.419 4.897 2 9-1.063 2.375-1.063 2.375-3 4-3.438.563-3.438.563-7 0-2.5-2.125-2.5-2.125-4-5 0-3.507.365-5.243 2.625-7.938C269.075-.48 271.4.068 275 1zM396 41c2.327 3.491 2.503 4.892 2 9-1.563 2.438-1.563 2.438-4 4-3.812 0-6.051-.2-9-2.688-1.39-3.212-1.055-5.006 0-8.312 3.255-3.881 6.367-3.201 11-2z"/><path d="M184 40c2.438 1.563 2.438 1.563 4 4 0 3.824-.147 6.056-2.75 8.938C182.505 54.233 181 54.525 178 54c-2.313-1.625-2.313-1.625-4-4-.612-3.672-.487-5.288 1.625-8.375 3.087-2.112 4.703-2.237 8.375-1.625zM344 39.438c3 .562 3 .562 5.438 2.687C351 45 351 45 351 48.125c-1.152 3.311-1.885 4.317-5 5.875-2.5.438-2.5.438-5 0-2.313-1.625-2.313-1.625-4-4-.612-3.672-.487-5.288 1.625-8.375C341 40 341 40 344 39.437zM36 40c2.375 1.625 2.375 1.625 4 4 .61 3.659.445 5.305-1.563 8.438C36 54 36 54 32.438 54 29 53 29 53 27 51.312c-1.377-3.184-.98-5.021 0-8.312 2.302-3.635 4.927-3.582 9-3z"/>
	</symbol>

	<symbol id="i-spark" viewBox="0 0 1162 311">
		<path d="M163 0c1.692 2.538 2.525 4.223 3.442 7.045l.815 2.489.876 2.72.936 2.873c1.024 3.144 2.04 6.29 3.056 9.435l2.136 6.578c6.493 20.01 12.916 40.042 19.313 60.083l.829 2.593c2.566 8.05 5.076 16.118 7.597 24.184l125 1c-3.246 3.246-6.399 5.843-10.125 8.438a5371.78 5371.78 0 0 0-3.773 2.664l-2.019 1.422c-3.63 2.571-7.23 5.181-10.833 7.788a161856.483 161856.483 0 0 1-6.936 5.015A350268.802 350268.802 0 0 0 277.5 155.75l-9 6.5-2.252 1.626-4.48 3.236c-3.852 2.78-7.702 5.563-11.55 8.349C242.52 181.033 234.82 186.597 227 192c1.332 6.467 3.076 12.62 5.203 18.867l.953 2.838c.676 2.012 1.354 4.024 2.034 6.034 1.812 5.361 3.61 10.727 5.408 16.093l1.112 3.317c4.31 12.865 8.5 25.77 12.684 38.677l.82 2.53a2851.42 2851.42 0 0 1 1.565 4.844c1.211 3.749 2.45 7.482 3.759 11.198l.726 2.087a842.566 842.566 0 0 0 1.962 5.526c.754 2.913.86 4.236-.226 6.989-11.317-7.912-22.494-15.993-33.588-24.213-3.988-2.955-7.98-5.903-11.975-8.85l-2.382-1.757a2065.143 2065.143 0 0 0-18.262-13.268c-6.481-4.671-12.915-9.404-19.338-14.156A861.22 861.22 0 0 0 164 239c-3.66 1.658-6.823 3.904-10.063 6.25l-1.829 1.315c-5.966 4.304-11.88 8.677-17.796 13.05A1641.707 1641.707 0 0 1 118 271.5c-8.566 6.168-17.067 12.422-25.556 18.694-4.23 3.125-8.462 6.247-12.694 9.368l-2.345 1.733c-1.452 1.07-2.905 2.14-4.36 3.205a685.81 685.81 0 0 0-4.074 3.011C64.224 311 64.224 311 62 311c2.34-9.116 5.233-18.025 8.191-26.953l1.53-4.64c1.34-4.066 2.683-8.13 4.028-12.195a22996.74 22996.74 0 0 0 8.682-26.325 572891071.23 572891071.23 0 0 0 2.299-6.999c1.508-4.588 3.031-9.17 4.566-13.75.963-2.88 1.916-5.763 2.868-8.647.446-1.344.896-2.686 1.35-4.027a639.69 639.69 0 0 0 1.833-5.522l1.046-3.128c.654-3.031.521-4.87-.393-7.814-1.34-1.521-1.34-1.521-3.148-2.621l-2.019-1.374-2.208-1.442a2101.555 2101.555 0 0 1-4.668-3.176l-2.466-1.67c-4.133-2.848-8.152-5.847-12.178-8.842a1142.463 1142.463 0 0 0-18.045-13.124c-7.005-4.98-13.963-10.024-20.927-15.06a4646.8 4646.8 0 0 0-7.068-5.093c-6.825-4.914-13.648-9.831-20.398-14.848l-2.883-2.14L0 120v-1h125l2-9c.576-1.999 1.182-3.99 1.825-5.967l1.068-3.305 1.15-3.517 1.844-5.692c.873-2.692 1.75-5.383 2.627-8.075 1.814-5.573 3.62-11.15 5.426-16.725l2.06-6.352c2.903-8.951 5.777-17.91 8.625-26.879l1.063-3.345c1.325-4.172 2.649-8.344 3.967-12.519.887-2.809 1.778-5.617 2.67-8.425l.785-2.503C161.887 1.113 161.887 1.113 163 0z"/>
      <path d="M886 99c83.759 0 83.759 0 99 13.813 9.277 9.916 12.537 21.696 12.246 35.042-.964 12.314-4.998 22.918-14.147 31.432-2.33 1.902-4.74 3.394-7.333 4.916l-2.71 1.599L971 187l1.155 2.142c1.825 3.389 3.649 6.78 5.47 10.17l1.01 1.88a2026.244 2026.244 0 0 1 16.971 32.362l1.664 3.231c.48.937.96 1.875 1.456 2.84 1.309 2.53 1.309 2.53 3.274 5.375v4h-33a4384.454 4384.454 0 0 1-17.938-34.313l-.994-1.922c-.95-1.834-1.897-3.669-2.845-5.503l-1.664-3.22c-1.54-3.004-3.05-6.023-4.559-9.042l-24-1v55h-31V99zm31 26v44l14.875.25 4.628.11c8.278.067 16.535-.075 23.133-5.773 5.484-6.13 5.809-12.235 5.677-20.134-.554-6.12-2.675-10.207-7.188-14.328-5.483-3.728-10.149-4.373-16.71-4.32l-3.893.015-4.897.055L917 125z"/>
      <path d="m1047.625 98.867 2.006-.003c1.403 0 2.805.001 4.207.006 2.153.005 4.306 0 6.459-.007 1.36 0 2.719.002 4.078.004l3.773.004C1071 99 1071 99 1072 100c.124 1.994.178 3.991.205 5.989l.06 3.882.051 4.227.063 4.3c.056 3.78.105 7.56.153 11.339.05 3.854.106 7.708.161 11.562.108 7.567.21 15.134.307 22.701l2.02-2.843 2.683-3.766 1.325-1.865a429.874 429.874 0 0 1 11.206-14.98l1.327-1.7L1093 137l3.39-4.36a9324.4 9324.4 0 0 1 5.42-6.963c2.71-3.48 5.417-6.965 8.096-10.47l1.34-1.752c1.16-1.519 2.316-3.04 3.473-4.56L1117 106l1.23-1.79c3.588-4.84 3.588-4.84 6.734-5.824 2.27-.194 4.44-.175 6.716-.07l2.463.03c2.579.04 5.154.127 7.732.216 1.755.036 3.51.068 5.266.096 4.288.077 8.573.198 12.859.342-1.193 3.264-2.424 5.831-4.652 8.496l-1.586 1.92-1.7 2.022a4116.46 4116.46 0 0 0-3.558 4.308l-1.796 2.171c-2.452 2.99-4.834 6.032-7.208 9.083a893.905 893.905 0 0 1-12 15l-4.88 6.01a1180.638 1180.638 0 0 1-3.267 3.996 954.435 954.435 0 0 0-4.666 5.744l-1.437 1.734c-2.573 3.214-3.25 4.238-3.25 8.516.96 2.032.96 2.032 2.367 4.04l1.565 2.373 1.72 2.548 1.774 2.676c1.235 1.861 2.473 3.72 3.715 5.577 2.333 3.496 4.638 7.01 6.942 10.526 2.253 3.436 4.513 6.867 6.774 10.297 1.71 2.594 3.417 5.189 5.125 7.783l3.397 5.157 1.66 2.522c2.802 4.252 5.622 8.49 8.472 12.711l1.696 2.518c1.066 1.58 2.136 3.158 3.21 4.733l1.43 2.122 1.265 1.86C1162 247 1162 247 1162 249c-31.444 3.128-31.444 3.128-39.77-1.56-4.333-4.323-6.528-9.755-8.828-15.346-2.601-5.74-6.239-10.854-9.715-16.094-1.29-2.019-2.578-4.04-3.863-6.063a403.555 403.555 0 0 0-6.083-9.285l-2.221-3.277-2.04-2.977C1088 192 1088 192 1088 190l-2.172 2.256C1083 195 1083 195 1080.364 196.88c-4.969 3.848-7.462 6.83-8.263 13.05-.43 5.9-.335 11.786-.226 17.695.002 2.074 0 4.148-.008 6.223-.016 5.054.06 10.095.133 15.152h-32c-.023-19.41-.041-38.82-.052-58.23-.005-9.011-.012-18.023-.023-27.035-.01-7.852-.017-15.703-.02-23.555 0-4.16-.003-8.32-.01-12.48-.007-3.911-.01-7.822-.008-11.733 0-1.44-.002-2.88-.006-4.319-.005-1.957-.003-3.914-.001-5.871l-.003-3.327c.247-4.91 3.537-3.579 7.748-3.583z"/>
      <path d="M532.742 111.84C542.06 120.755 544.75 131.499 546 144h-32l-2-10c-3.43-5.613-7.7-8.464-14-10-8.96-.905-18.17-1.072-26 4-3.503 3.503-4.245 6.256-4.438 11.063.211 4.14.505 6.826 3.438 9.937 6.122 4.46 13.42 6.76 20.469 9.332 41.251 15.086 41.251 15.086 50.34 31.89 4.892 11.404 5.562 23.873 1.144 35.544-1.172 2.238-2.445 4.21-3.953 6.234l-1.309 1.883c-7.366 9.64-20.61 14.976-32.332 16.797-19.786 1.886-41.306-.045-57.671-12.43C438.8 230.632 433.829 222.316 431 211v-10h31l3 13c3.833 5.883 7.283 8.232 14 10l1.793.555c8.092 1.633 18.917 1.721 26.207-2.555 2.977-2.696 5.776-5.843 6.203-9.953.105-5.118-.075-8.782-3.203-13.047-6.317-5.98-14.849-8.304-22.863-11.145-38.84-13.84-38.84-13.84-48.172-30.644-4.61-10.565-5.185-21.443-1.465-32.399 4.949-10.987 14.687-18.506 25.563-23.062 23.23-8.613 50.4-6.076 69.68 10.09z"/>
      <path d="M767 99h29c6.403 16.299 12.544 32.693 18.684 49.092l2.655 7.088a68783.135 68783.135 0 0 1 14.385 38.426 39827.53 39827.53 0 0 1 9.51 25.44l2.905 7.773c1.334 3.569 2.666 7.138 3.998 10.708l1.198 3.203 1.074 2.883.937 2.511C852 248 852 248 852 249h-33c-4.326-9.733-7.632-19.896-11-30l-53-1-3 11a173.062 173.062 0 0 1-1.824 5.45l-.839 2.377-1.024 2.86L745 249h-33c2.25-10.124 2.25-10.124 3.9-14.48l1.12-2.98 1.207-3.157 1.272-3.374c1.37-3.63 2.748-7.257 4.126-10.884.958-2.533 1.914-5.066 2.87-7.6 1.449-3.84 2.899-7.682 4.35-11.522 3.892-10.29 7.74-20.595 11.567-30.908a18822.107 18822.107 0 0 1 5.708-15.36c3.424-9.203 6.861-18.4 10.306-27.596l2.006-5.36c.916-2.448 1.833-4.897 2.752-7.345l.824-2.206c1.877-4.999 1.877-4.999 2.992-7.228zm14 40-1.022 3.067-7.07 21.21a6794.32 6794.32 0 0 0-1.586 4.763c-1.264 3.8-2.536 7.596-3.832 11.385l-.71 2.088c-.633 1.86-1.27 3.72-1.908 5.579-1.016 2.88-1.016 2.88-.872 5.908h36c-1.597-4.959-3.195-9.917-4.797-14.874a5260.66 5260.66 0 0 1-1.623-5.035A1078.512 1078.512 0 0 0 782 139h-1z"/>
      <path d="m592.367 98.855 3.484-.02 3.81-.003 3.916-.01c2.751-.006 5.503-.008 8.254-.007 2.794 0 5.588-.007 8.382-.02 50.716-.247 50.716-.247 68.537 16.58 10.015 10.571 12.795 23.168 12.523 37.418-.523 11.406-5.318 22.712-13.75 30.492-16.611 12.806-34.98 13.902-55.148 13.777L618 197v52l-15.437.062-4.877.028-3.807.008-3.92.016C587 249 587 249 586 248a111.668 111.668 0 0 1-.127-5.732l-.009-3.774.007-4.178-.006-4.37c-.004-3.966-.002-7.933 0-11.9.003-4.142 0-8.284 0-12.427-.003-6.957 0-13.914.005-20.872.005-8.055.003-16.11-.002-24.166-.005-6.904-.005-13.807-.003-20.71.002-4.13.002-8.258-.001-12.387-.003-3.88-.001-7.761.005-11.642 0-1.428 0-2.856-.002-4.285-.002-1.941.002-3.883.006-5.825l.001-3.3c.233-4.491 2.536-3.562 6.493-3.577zM618 125v46l15.375.187 4.787.083c8.93.053 17.846.03 25.276-5.583 5.809-6.092 6.152-11.793 5.976-19.914-.74-6.752-3.313-12.173-8.351-16.773-5.557-3.628-10.56-4.29-17.086-4.195l-2.008.006c-2.448.01-4.896.038-7.344.064L618 125z"/>
	</symbol>

	<symbol id="i-ppc" viewBox="0 0 1175 228">
		<path d="M509 51h36l4.777 14.402 2.994 9.01c1.587 4.77 3.172 9.542 4.754 14.314 1.275 3.846 2.552 7.69 3.832 11.535.489 1.47.976 2.94 1.463 4.41.68 2.053 1.363 4.105 2.047 6.157l1.178 3.546c.706 2.518.706 2.518 1.955 3.626l.79-2.454c2.456-7.623 4.913-15.245 7.372-22.867 1.265-3.919 2.528-7.838 3.79-11.757l3.657-11.34 1.396-4.333c.65-2.019 1.302-4.037 1.954-6.055l1.124-3.486C589 53 589 53 590 51h36l5.375 16.125 2.54 7.611a7187.215 7187.215 0 0 1 6.355 19.127c.92 2.785 1.844 5.57 2.766 8.355.434 1.312.867 2.625 1.299 3.938.598 1.817 1.2 3.633 1.802 5.45l1.022 3.098c.634 2.23.634 2.23 1.841 3.296l.79-2.454c2.456-7.623 4.913-15.245 7.372-22.867 1.265-3.919 2.528-7.838 3.79-11.757l3.657-11.34 1.396-4.333c.65-2.019 1.302-4.037 1.954-6.055l1.124-3.486C670 53 670 53 671 51h36c-1.89 6.927-3.81 13.739-6.055 20.543l-.891 2.725c-.974 2.974-1.951 5.947-2.929 8.92l-2.074 6.33c-1.512 4.611-3.025 9.222-4.539 13.832-2.494 7.594-4.984 15.188-7.475 22.783-3.967 12.1-7.936 24.199-11.908 36.297l-1.223 3.724-1.119 3.408-.977 2.977c-.6 1.822-1.204 3.642-1.81 5.461h-34c-4.502-11.254-4.502-11.254-6.198-16.32l-1.152-3.427-1.197-3.593-1.26-3.77c-.873-2.61-1.744-5.22-2.612-7.833-1.114-3.346-2.234-6.69-3.356-10.033-1.074-3.203-2.141-6.409-3.21-9.614l-1.22-3.636-1.114-3.36-.987-2.957C609 111 609 111 609 108h-2l-.714 3.611c-1.489 6.68-3.704 13.123-5.856 19.612l-1.337 4.064a6281.565 6281.565 0 0 1-3.502 10.608c-1.407 4.258-2.808 8.517-4.21 12.776-2.122 6.445-4.252 12.887-6.381 19.329h-35l-2.973-9.137c-6.899-21.186-13.834-42.358-20.902-63.488-4.177-12.494-8.343-24.991-12.402-37.524-.436-1.344-.872-2.688-1.31-4.031-.587-1.808-1.17-3.617-1.753-5.425l-.98-3.036C509 53 509 53 509 51z"/><path d="M113 63c2.75 2.5 2.75 2.5 5 5 .552.594 1.103 1.189 1.672 1.8 12.102 13.318 18 29.667 17.637 47.684-1.703 19.394-10.837 36.967-25.711 49.57-15.235 11.41-33.212 17.014-52.29 14.45-8.64-1.569-14.856-3.982-23.308-7.504l-1 54H0V51h34l1 4 2.86-1.242C63.572 42.85 90.935 44.965 113 63zM42.125 92.75C35.02 101.67 33.837 110.782 35 122c1.689 7.748 5.978 13.91 12 19 9.562 5.835 18.701 8.968 29.883 6.316C87.57 143.73 94.45 137.838 100 128c3.313-8.085 3.431-18.047.563-26.313-3.62-7.66-9.695-14.697-17.598-18.015-15.046-5.145-29.596-2.79-40.84 9.078z"/><path d="m1141 0 16.438-.063 5.193-.027 4.053-.008 2.143-.015c1.725 0 3.45.05 5.173.113 1 1 1 1 1.123 3.887l-.003 3.953.003 2.193c.002 2.443-.004 4.886-.01 7.329l.001 5.231c0 4.75-.006 9.5-.013 14.25-.006 4.958-.006 9.916-.008 14.874-.003 9.396-.011 18.792-.021 28.188a55914.09 55914.09 0 0 0-.022 32.081c-.01 22.005-.028 44.01-.05 66.014h-34v-5l-2.055.988c-8.707 4.089-17.252 7.416-26.945 8.012l-2.379.16c-18.57.637-35.82-5.711-49.621-18.16l-1.813-1.535c-12.551-11.403-19.159-28.851-20.187-45.465-.339-18.839 6.514-35.955 19.5-49.621 14.54-13.836 32.694-21.228 52.855-20.73 11.11 1.071 20.42 4.703 30.645 9.351V0zm-61.82 94.242c-6.196 8.89-7.059 17.044-6.18 27.758 2.117 9.47 7.868 16.243 15.938 21.375 8.666 4.818 17.45 6.015 27.062 3.5 9.168-3.047 16.378-8.692 21.254-17.016 3.831-8.063 4.05-17.122 2.086-25.761-3.626-10.187-10.835-16.4-20.34-21.098-14.35-5.74-30.246-.55-39.82 11.242z"/><path d="M272.736 60.264C285.96 70.77 296.7 85.993 299 103l.402 2.656c2.072 17.316-1.99 34.332-12.402 48.344-12.128 15.17-26.486 23.953-45.5 27.687-16.313 1.457-28.508-1.767-43.5-8.687v55h-34V51h33l2 4 1.879-.988c23.193-11.445 50.938-8.973 71.857 6.252zm-68.611 34.048c-6.011 8.382-7.037 16.49-6.125 26.688 1.67 9.091 7.092 16.415 14.602 21.68 9.38 5.163 19.151 6.811 29.46 4.195 8.734-2.898 15.57-9.142 20.196-17.016 4.111-8.682 4.403-19.174 1.242-28.234C259.415 93.01 252.825 86.585 244 83c-14.984-4.858-29.739-.864-39.875 11.312z"/><path d="M828.242 60.172c13.72 10.717 23.371 26.114 26.356 43.34 2.009 17.416-.963 35.858-11.863 50.146-3.034 3.669-6.33 7.017-9.735 10.342l-1.992 2.055c-11.392 11-28.537 16.243-44.133 16.382-19.425-.57-37.35-7.85-50.813-22.058-13.742-15.85-18.322-33.227-17.265-53.862C720.203 89.054 729.543 74.707 742 63c25.276-20.865 59.437-20.784 86.242-2.828zm-67.031 31.785c-7.053 9.086-9.223 17.627-8.211 29.043 2.427 9.666 7.977 17.501 16.438 22.746 10.343 5.062 20.4 5.313 31.203 1.766 8.853-3.984 15.086-10.856 18.558-19.86 2.6-8.61 2.288-16.973-1.355-25.293-4.12-7.46-9.97-14.09-18.032-17.296-14.062-3.92-28.282-2.394-38.601 8.894zM386.438 48.563l2.183-.031c5.947.096 9.324 1.45 15.379 3.468l-8 31c-3.761.94-6.362 1.012-10.188.875-9.694-.043-16.689 2.468-23.812 9.125-7.44 8.13-9.602 15.55-9.355 26.52.751 7.36 3.506 12.939 8.355 18.48v2l1.738.844c2.214 1.131 4.316 2.381 6.45 3.656 8.136 4.53 16.627 5.734 25.687 3.375 8.868-2.897 15.329-7.866 20.125-15.875 1.153-2.31 2.091-4.577 3-7 7.09.585 13.601 2.064 20.438 4l3.005.828c7.24 2.014 7.24 2.014 9.557 3.172-.487 10.725-7.118 20.162-14 28-.583.677-1.165 1.354-1.766 2.05-10.05 10.874-25.69 19.107-40.63 20.111-20.952.355-39.033-2.846-55.37-16.99-13.794-13.408-21.381-30.2-21.671-49.483.132-18.65 7.235-36.363 20.437-49.688 13.77-12.075 30.187-18.276 48.438-18.438z"/><path d="M978 0a5235.2 5235.2 0 0 1 14.044-.055c1.594-.005 3.188-.012 4.781-.02 2.287-.013 4.573-.018 6.859-.023l2.171-.015c1.716 0 3.43.051 5.145.113 1 1 1 1 1.123 3.887l-.003 3.953.003 2.193c.002 2.443-.004 4.886-.01 7.329l.001 5.231c0 4.75-.006 9.5-.013 14.25-.006 4.958-.006 9.916-.008 14.874-.003 9.396-.011 18.792-.021 28.188a55914.09 55914.09 0 0 0-.022 32.081c-.01 22.005-.028 44.01-.05 66.014h-34c-.858-4.289-1.126-7.747-1.127-12.08l-.005-2.124c-.004-2.343 0-4.686.003-7.03l-.006-5.046a8084.73 8084.73 0 0 1 0-13.691c.003-4.773 0-9.546 0-14.319-.003-8.012 0-16.024.005-24.036.005-9.273.003-18.545-.002-27.817-.005-7.956-.005-15.912-.003-23.868.002-4.754.002-9.508-.001-14.262-.003-4.466-.001-8.932.005-13.398 0-1.642 0-3.284-.002-4.927-.002-2.234.001-4.469.006-6.703l.001-3.796C977 2 977 2 978 0z"/><path d="M950 47v34l-15 4c-8.662 4.598-13.77 10.7-17 20-.857 4.313-1.147 8.439-1.205 12.832l-.03 1.982a2109.38 2109.38 0 0 0-.081 6.428l-.063 4.48c-.055 3.917-.105 7.833-.153 11.749-.06 4.706-.126 9.413-.19 14.12-.098 7.136-.187 14.272-.278 21.409h-34V51h34v5l1.836-.988C928.414 49.495 938.01 47 950 47z"/><path d="M473.25 50.668c4.939 3.76 8.539 8.154 9.75 14.332.74 6.861.178 12.363-4 18-5.326 5.746-9.934 8.6-17.813 9.375-6.165-.177-11.258-2.832-16-6.625-4.658-5.856-6.863-10.78-6.503-18.367.89-6.7 4.43-11.902 9.316-16.383 7.482-4.639 17.607-4.838 25.25-.332z"/><path d="m344 62 2 1-14 14c0-4.601 2.898-6.807 6-10 1.947-1.758 3.935-3.378 6-5z"/>
	</symbol>

	<symbol id="i-vc" viewBox="0 0 927 869">
		<path d="M505 477h124c1.148 27.563 1.148 27.563 1.19 38.76l.025 3.901c.017 2.75.032 5.5.045 8.249.021 4.425.049 8.851.077 13.277.054 8.667.103 17.334.15 26.001a45366.678 45366.678 0 0 0 .246 41.742 7313 7313 0 0 0 .712 66.868l.09 5.95C630.02 734.842 630.02 734.842 650 782l1.906 2.406c10.405 12.452 24.257 20.436 40.481 21.9 3.564.131 7.109.162 10.676.131l3.856-.029c23.678-.442 44.194-7.654 62.081-23.408l2.441-2.14C785.548 767.61 793.491 750.038 802 733l1.647-2.573c2.104-5.328 1.915-10.583 2.01-16.267.031-1.355.064-2.71.098-4.064.108-4.698.18-9.397.245-14.096l.037-2.65c.197-14.206.32-28.413.436-42.62.083-9.99.178-19.979.273-29.968l.031-3.283c.24-25.165.693-50.318 1.223-75.479h-67c-.03-15.81-.03-15.81-.063-31.938l-.027-10.097-.008-7.867-.008-2.078c-.007-2.01-.007-4.021-.008-6.031l-.006-3.44C741 478 741 478 742 477a89.61 89.61 0 0 1 5.125-.127l3.365-.009 3.725.007 3.897-.006c3.537-.004 7.074-.002 10.611 0 3.694.003 7.388 0 11.081 0 6.205-.003 12.409 0 18.613.005 7.183.005 14.366.003 21.548-.002 6.157-.005 12.313-.005 18.47-.003 3.68.002 7.362.002 11.044-.001 4.102-.004 8.204.001 12.306.007l3.725-.007 3.365.009 2.943.001C874 477 874 477 875 478c.108 2.832.15 5.64.151 8.473l.013 2.728c.013 3.043.02 6.085.025 9.128l.026 6.52c.018 4.702.033 9.404.045 14.106.02 7.481.048 14.962.077 22.443a57842.872 57842.872 0 0 1 .15 43.802c.06 18.422.12 36.845.19 55.267.024 6.194.045 12.387.063 18.581.067 24.016.199 48.023.742 72.033l.064 2.82c.232 10.018.542 20.027 1.016 30.037.465 10.678.438 21.374.438 32.062h49c.02 7.929.041 15.858.052 23.787.005 3.692.012 7.384.023 11.076.011 3.553.017 7.106.02 10.659.002 1.358.005 2.717.01 4.075.008 1.897.008 3.793.009 5.69l.006 3.277C927 857 927 857 926 858c-2.482.1-4.936.136-7.419.13l-2.356.005c-2.59.004-5.178.001-7.768-.002a7040.064 7040.064 0 0 1-16.798-.002 5994.49 5994.49 0 0 0-14.487.003c-3.734.004-7.469.002-11.204 0-1.777 0-3.555 0-5.332.002-29.927.031-29.927.031-36.636-4.136-.963-2.733-1.463-4.822-1.828-7.64l-.364-2.301a469.96 469.96 0 0 1-1.058-7.309 1576.95 1576.95 0 0 0-.734-4.781 836.714 836.714 0 0 1-2.596-18.381l-.273-2.087c-.24-1.861-.475-3.724-.709-5.586-.361-2.97-.361-2.97-1.438-5.915-3.52 3.864-6.448 7.632-9.125 12.125-4.07 6.56-9.154 11.94-14.506 17.455a172.205 172.205 0 0 0-3.322 3.565c-23.802 25.463-53.46 34.912-87.504 36.14-34.239.732-68.032-9.556-93.438-33.265L605 834l-2.625-2.5L600 829l-1.758-1.809c-29.773-31.816-33.564-72.085-34.73-113.652l-.061-2.142c-.71-25.388-1.025-50.787-1.414-76.181-.088-5.769-.18-11.538-.272-17.306-.102-6.355-.201-12.71-.3-19.064-.04-2.654-.083-5.31-.125-7.964-.254-15.962-.402-31.918-.34-47.882l-1.695.016c-18.142.144-36.148-.449-54.305-1.016v-65z"/><path d="m760.063.813 2.204.133C773.637 1.654 784.84 2.63 796 5l2.363.495C825.008 11.243 852.03 21.627 874 38l2.001 1.472C889.131 49.13 889.131 49.13 892 52c.188 3.044.252 5.996.227 9.04v2.838c0 3.106-.016 6.211-.032 9.317l-.008 6.449c-.008 5.665-.028 11.33-.05 16.995-.024 6.793-.033 13.587-.045 20.38-.019 10.327-.057 20.654-.092 30.981h-64l-1-66c-40.56-19.315-82.914-27.748-126.616-12.555C675.121 78.895 654.465 96.325 640 119l-2.11 3.29c-20.652 34.18-26.32 76.587-16.824 115.233 9.079 34.156 30.648 63.758 61.186 81.758 6.968 3.864 14.344 6.53 21.873 9.094l2.96 1.013c12.295 3.99 24.289 4.98 37.165 4.925l2.059-.006c10.54-.048 20.466-.624 30.691-3.307l1.965-.504c24.359-6.4 44.827-19.781 62.816-37.117l1.912-1.829c1.225-1.18 2.439-2.37 3.64-3.575 1.67-1.616 1.67-1.616 4.667-3.975 4.105.472 6.81 2.93 9.938 5.438l3.515 2.761 1.799 1.424c2.625 2.068 5.281 4.096 7.936 6.127a3295.24 3295.24 0 0 1 18.72 14.517l2.22 1.73 1.972 1.536A454.86 454.86 0 0 0 904 322c-1.079 3.237-1.583 3.703-4.125 5.75-4.368 3.69-8.36 7.687-12.375 11.75-8.806 8.875-8.806 8.875-13.383 12.715a200.932 200.932 0 0 0-5.11 4.476C844.992 378.161 815.54 391.037 784 397l-2.356.453C748.483 403.552 713.892 400.68 682 390l-2.467-.825c-22.066-7.509-43.022-17.37-59.978-33.726a160.786 160.786 0 0 0-6.332-5.726C602.239 340.165 591.743 329.658 583 318l-1.204-1.563c-6.413-8.347-11.427-16.942-15.871-26.474a238.645 238.645 0 0 0-2.73-5.572c-12.57-25.589-17.425-52.147-17.445-80.454l-.002-2.55C545.819 145.393 564.503 99.358 603 59l2.637-2.797C612.56 49.048 619.985 42.873 628 37l1.716-1.26C647.396 22.943 667.204 13.481 688 7l2.517-.785c22.67-6.834 46.107-6.829 69.545-5.402z"/><path d="M104 8h118c4.5 10.125 4.5 10.125 6.236 15.198l1.188 3.456 1.252 3.678a6313.172 6313.172 0 0 1 4.9 14.323c1.24 3.63 2.483 7.26 3.727 10.89 2.687 7.849 5.368 15.7 8.047 23.55l2.921 8.554a33706.61 33706.61 0 0 1 11.883 34.865 18470.129 18470.129 0 0 0 30.087 87.615c2.802 8.1 5.599 16.2 8.393 24.302l4.55 13.183 2.48 7.196 3.457 10.018 1.014 2.944a693.53 693.53 0 0 0 6.126 17.02C319 287 319 287 319 289h3c.11-.829.218-1.658.33-2.512.755-3.929 1.998-7.554 3.38-11.293a37694.1 37694.1 0 0 0 1.745-4.808l.944-2.584c6.622-18.162 12.922-36.425 19.101-54.74 5.523-16.363 11.086-32.708 16.813-49 6.62-18.845 13.02-37.763 19.404-56.688 6.716-19.908 13.515-39.783 20.473-59.609A1873.06 1873.06 0 0 0 417 10c8.708-1.117 17.415-1.218 26.18-1.316l4.733-.063c3.306-.044 6.613-.085 9.92-.124 4.146-.048 8.293-.102 12.44-.158l9.798-.126 4.57-.058C499.429 7.965 514.209 8 529 8v64c-3.808.762-6.973 1.17-10.8 1.297l-3.457.121-3.7.117-3.812.13c-3.333.113-6.665.223-9.997.33-3.406.112-6.811.228-10.216.343-6.673.225-13.345.445-20.018.662l-1.259 3.413a20975.509 20975.509 0 0 1-25.842 69.708 25030.954 25030.954 0 0 0-15.04 40.422 28397.662 28397.662 0 0 1-39.91 106.943c-5.274 14.04-10.542 28.081-15.81 42.123l-5.301 14.13C358.18 366.809 352.532 381.883 347 397c-6.938.051-13.875.086-20.813.11-2.357.01-4.714.023-7.07.04-3.401.025-6.802.037-10.203.045l-3.158.032c-15.854.002-15.854.002-20.413-3.5-1.63-2.097-2.399-4.035-3.281-6.542l-1.068-2.99-1.135-3.261-1.208-3.406a2786.07 2786.07 0 0 1-3.23-9.177c-1.128-3.215-2.266-6.427-3.403-9.638-1.831-5.173-3.658-10.347-5.48-15.522a5500.205 5500.205 0 0 0-9.163-25.747c-1.496-4.178-2.988-8.358-4.48-12.538l-.927-2.593c-2.158-6.044-4.315-12.088-6.471-18.133a25864.64 25864.64 0 0 0-27.782-77.535c-7.757-21.53-15.484-43.07-23.197-64.614-1.761-4.918-3.523-9.836-5.286-14.753-2.108-5.883-4.215-11.767-6.32-17.651a15809.8 15809.8 0 0 0-3.377-9.426c-1.245-3.474-2.488-6.949-3.73-10.424l-1.127-3.139-1.03-2.884-.896-2.504A69.047 69.047 0 0 1 171 75c-6.826-1.241-13.632-1.206-20.555-1.281l-5.944-.085c-4.164-.058-8.327-.109-12.49-.16-3.447-.043-6.893-.087-10.34-.137-2.58-.037-5.16-.07-7.742-.097l-3.51-.05-3.106-.039C105 73 105 73 104 72a122.065 122.065 0 0 1-.114-5.989v-3.937l.016-4.172.003-3.81c.006-4.718.02-9.436.032-14.154L104 8zM133 477h115c4.13 12.389 4.193 25.23 4.608 38.179.238 6.946.626 13.844 1.33 20.759l.226 2.364c.398 3.609.786 5.622 2.836 8.698 3.682-4.036 7.154-8.16 10.408-12.552 21.213-28.494 52.172-49.017 87.436-54.385 19.777-2.758 39.41-3.147 59.344-3.188l2.785-.008c2.627-.006 5.255-.004 7.882 0l2.444-.006c5.586.024 5.586.024 6.701 1.139.098 1.49.126 2.986.127 4.48l.009 2.931-.007 3.243.006 3.395c.004 3.723.001 7.446-.002 11.17a14053.234 14053.234 0 0 1-.002 23.935c-.006 6.256-.004 12.511.001 18.767.005 6.008.005 12.015.002 18.022 0 2.562 0 5.123.002 7.684.003 3.573-.001 7.146-.007 10.719l.007 3.243-.009 2.932-.001 2.563C434 593 434 593 433 594c-1.958.1-3.92.128-5.88.13l-3.813.009-4.15-.006a4268.346 4268.346 0 0 1-13.093-.002 3699.98 3699.98 0 0 0-11.391.003c-2.91.004-5.82.002-8.73 0-1.4 0-2.8 0-4.2.002-1.954.003-3.908-.002-5.862-.007l-3.376-.002C370 594 370 594 369 593a97.615 97.615 0 0 1-.114-5.346v-3.458l.016-3.762.005-3.83c.004-3.365.013-6.73.024-10.096.01-3.431.015-6.863.02-10.295.011-6.738.028-13.475.049-20.213-3.163.446-6.324.904-9.484 1.363l-2.682.378C336.7 540.691 319.494 548.974 304 562l-2.488 2.027C283.265 579.437 270.289 602.857 265 626l-.645 2.762c-3.934 19.841-2.496 41.003-2.456 61.133.006 3.78.006 7.562.008 11.343.003 7.121.01 14.242.021 21.364.011 8.124.017 16.247.022 24.37.01 16.677.028 33.352.05 50.028l1.79.013c14.603.105 29.204.213 43.806.326 7.062.055 14.125.108 21.187.158 32.082.229 64.145.601 96.217 1.503v59H133v-62h61V536h-61v-59z"/><path d="M0 796h65v64H0v-64z"/>
	</symbol>

</svg>