<svg width="268" height="55" viewBox="0 0 268 55" fill="none" xmlns="http://www.w3.org/2000/svg">
<g clip-path="url(#clip0_95_1574)">
<path d="M24.8664 14.4912C22.5434 14.4912 20.8188 15.5055 19.4445 17.6801C17.9802 19.9958 17.2383 23.2358 17.2383 27.3151C17.2383 31.764 17.9388 35.1719 19.3229 37.4462C20.6413 39.6184 22.4315 40.6692 24.8008 40.6692C26.8343 40.6692 28.6391 39.6111 30.0208 37.6067C31.3781 35.6389 32.497 32.2237 33.6403 26.5732C32.7281 22.3967 31.4584 19.1445 29.9527 17.1766C28.5491 15.3426 26.934 14.4912 24.8664 14.4912Z" fill="#66747A"/>
<path fill-rule="evenodd" clip-rule="evenodd" d="M16.528 0H39.0159C48.123 0 55.5371 7.34112 55.5371 16.3631V38.6369C55.5371 47.6565 48.123 55 39.0159 55H16.528C7.41361 55 0.00195312 47.6565 0.00195312 38.6369V16.3631C0.00195312 7.34112 7.41361 0 16.528 0ZM48.0792 42.057C48.8892 40.6437 49.22 38.8924 49.22 36.0075V34.2585H45.3014L45.2819 34.5042C45.2041 35.4577 44.5984 36.4234 43.5962 36.4234C42.83 36.4234 42.2146 36.1437 41.7111 35.5648C41.1078 34.8764 40.563 34.0494 40.0132 32.551C41.57 27.3163 46.3765 10.5495 46.3765 10.5495H37.2597C37.2597 10.5495 36.4156 14.4803 35.6567 18.0585C35.6178 17.9709 35.5789 17.8833 35.54 17.8006C34.781 16.1952 33.5673 14.4074 32.2172 13.1498C29.8699 10.963 27.1067 9.89762 23.7718 9.89762C19.1696 9.89762 15.2753 11.5833 12.1982 14.9109C9.13335 18.2166 7.51821 22.4612 7.51821 27.1777C7.51821 32.4342 9.05308 36.7494 12.0839 40.0015C15.2437 43.3997 19.0212 44.9832 23.9713 44.9832C26.8537 44.9832 29.6072 44.1343 32.1589 42.4632C33.8081 41.3856 35.3138 39.8921 36.7343 37.951C37.3302 39.8653 37.9335 41.174 38.6535 42.1543C39.8162 43.7329 41.5603 44.6402 43.4357 44.6402C45.3865 44.6402 47.1671 43.6502 48.0792 42.057Z" fill="#66747A"/>
<path fill-rule="evenodd" clip-rule="evenodd" d="M76.991 6.57129C80.9194 6.57129 82.7097 8.53427 83.3397 11.3437L86.1929 24.0679H83.1427C82.4494 24.0679 81.7586 23.5181 81.6078 22.8443L81.0313 20.2562H72.9507L72.3742 22.8443C72.2258 23.5181 71.535 24.0679 70.8394 24.0679H67.7891L70.6423 11.3437C71.2723 8.53427 73.2986 6.57129 76.991 6.57129ZM74.7532 12.1659L73.7486 16.6708H80.2334L79.2289 12.1659C79.0659 11.4362 78.4943 10.3246 76.991 10.3246C75.4902 10.3246 74.9161 11.4362 74.7532 12.1659Z" fill="#66747A"/>
<path d="M93.7083 10.8242H100.509V24.0713H104.72V6.98828H92.0226C90.6337 6.98828 89.4953 8.11207 89.4953 9.48883V18.1216C89.4953 19.277 88.9602 20.0116 88.0261 20.1965L87.1602 20.4008L87.9434 24.0713H88.7437C91.6261 24.0713 93.7083 21.9478 93.7083 18.3356V10.8242Z" fill="#66747A"/>
<path fill-rule="evenodd" clip-rule="evenodd" d="M139.777 6.98097H141.31C146.515 6.98097 149.767 10.4934 149.767 15.5213C149.767 20.5491 146.515 24.064 141.31 24.064H139.777V24.8862C139.777 25.5697 139.211 26.134 138.512 26.134H135.567V24.064H134.032C128.829 24.064 125.574 20.5491 125.574 15.5213C125.574 10.4934 128.829 6.98097 134.032 6.98097H135.567V6.24394C135.567 5.55556 136.133 4.99609 136.829 4.99609H139.777V6.98097ZM134.032 20.2913C131.149 20.2913 129.787 18.484 129.787 15.5213C129.787 12.561 131.149 10.7537 134.032 10.7537H135.567V20.2913H134.032ZM141.31 20.2913H139.777V10.7537H141.31C144.195 10.7537 145.554 12.561 145.554 15.5213C145.554 18.484 144.195 20.2913 141.31 20.2913Z" fill="#66747A"/>
<path fill-rule="evenodd" clip-rule="evenodd" d="M111.742 11.318H117.784C121.9 11.318 124.218 14.0594 124.218 17.6959C124.218 21.3324 121.455 24.0713 117.784 24.0713H108.794C108.101 24.0713 107.529 23.507 107.529 22.8211V6.98828H111.742V11.318ZM111.742 20.2354H117.784C118.811 20.2354 120.01 19.3232 120.01 17.6959C120.01 16.0662 118.811 15.1564 117.784 15.1564H111.742V20.2354Z" fill="#66747A"/>
<path fill-rule="evenodd" clip-rule="evenodd" d="M159.122 6.57129C163.05 6.57129 164.841 8.53427 165.471 11.3437L168.321 24.0679H165.274C164.58 24.0679 163.887 23.5181 163.739 22.8443L163.162 20.2562H155.082L154.505 22.8443C154.359 23.5181 153.666 24.0679 152.97 24.0679H149.92L152.773 11.3437C153.403 8.53427 155.429 6.57129 159.122 6.57129ZM156.884 12.1659L155.882 16.6708H162.364L161.36 12.1659C161.197 11.4362 160.625 10.3246 159.122 10.3246C157.621 10.3246 157.049 11.4362 156.884 12.1659Z" fill="#66747A"/>
<path fill-rule="evenodd" clip-rule="evenodd" d="M191.101 36.1012C191.101 37.4682 190.624 38.4558 189.88 39.1806C190.96 40.0125 191.69 41.2044 191.69 42.7296C191.69 45.758 189.549 48.042 186.324 48.042L175.38 48.0396C174.684 48.0396 174.115 47.4777 174.115 46.7918V32.2068C174.115 31.5184 174.684 30.959 175.38 30.959H185.674C188.732 30.959 191.101 33.0752 191.101 36.1012ZM185.669 34.5031C186.229 34.5031 186.995 35.1258 186.995 36.1863C186.995 37.2566 186.229 37.8039 185.669 37.872H178.243V34.5031H185.669ZM186.007 44.498H178.243V41.129H186.007C186.567 41.1971 187.331 41.742 187.331 42.8123C187.331 43.8728 186.567 44.498 186.007 44.498Z" fill="#66747A"/>
<path fill-rule="evenodd" clip-rule="evenodd" d="M153.223 39.492C153.223 34.2282 156.859 30.5576 162.067 30.5576H163.507C168.715 30.5576 172.351 34.2282 172.351 39.492C172.351 44.7534 168.715 48.4264 163.507 48.4264H162.067C156.859 48.4264 153.223 44.7534 153.223 39.492ZM162.32 34.0847C159.418 34.0847 157.769 36.4295 157.769 39.492C157.769 42.5544 159.418 44.8993 162.32 44.8993H163.254C166.154 44.8993 167.803 42.5544 167.803 39.492C167.803 36.4295 166.154 34.0847 163.254 34.0847H162.32Z" fill="#66747A"/>
<path d="M83.4863 30.959L84.0409 33.5422C84.1869 34.2306 84.8777 34.7925 85.5734 34.7925H89.4969V48.0396H93.7099V34.7925H97.5118C98.205 34.7925 98.8934 34.2306 99.0418 33.5422L99.5964 30.959H83.4863Z" fill="#66747A"/>
<path d="M225.325 30.959V37.7406H217.133V30.959H212.92V48.0396H217.133V41.4039H225.325V48.0396H229.536V30.959H225.325Z" fill="#66747A"/>
<path fill-rule="evenodd" clip-rule="evenodd" d="M126.142 30.542C130.073 30.542 131.859 32.505 132.491 35.3169L135.344 48.0386H132.296C131.601 48.0386 130.908 47.4888 130.759 46.8175L130.183 44.2269H122.107L121.53 46.8175C121.38 47.4888 120.691 48.0386 119.993 48.0386H116.945L119.799 35.3169C120.426 32.505 122.452 30.542 126.142 30.542ZM123.907 36.1342L122.902 40.6415H129.385L128.383 36.139C128.217 35.4069 127.646 34.2928 126.142 34.2928C124.639 34.2928 124.07 35.4069 123.907 36.1342Z" fill="#66747A"/>
<path fill-rule="evenodd" clip-rule="evenodd" d="M201.86 30.542C205.789 30.542 207.576 32.505 208.209 35.3169L211.065 48.0386H208.012C207.319 48.0386 206.628 47.4888 206.477 46.8175L205.9 44.2269H197.822L197.243 46.8175C197.097 47.4888 196.404 48.0386 195.711 48.0386H192.658L195.511 35.3169C196.144 32.505 198.165 30.542 201.86 30.542ZM199.622 36.1342L198.618 40.6415H205.1L204.098 36.139C203.935 35.4069 203.361 34.2928 201.86 34.2928C200.357 34.2928 199.788 35.4069 199.622 36.1342Z" fill="#66747A"/>
<path d="M84.794 47.988V48.0367H76.5675C71.5858 48.0367 68.1074 44.5242 68.1074 39.4939C68.1074 34.4636 71.5858 30.9512 76.5675 30.9512H82.8067L82.1961 33.5709C82.0405 34.2423 81.3448 34.7871 80.6491 34.7871H76.5675C73.9039 34.7871 72.318 36.755 72.318 39.4939C72.318 42.2328 73.9039 44.2007 76.5675 44.2007H82.6486C83.3418 44.2007 84.0375 44.748 84.1956 45.4194L84.794 47.988Z" fill="#66747A"/>
<path fill-rule="evenodd" clip-rule="evenodd" d="M101.891 30.9536L110.882 30.9512C114.552 30.9512 117.318 33.695 117.318 37.329C117.318 40.9631 115 43.702 110.882 43.702H104.839V48.0367H100.629V32.2039C100.629 31.5179 101.196 30.9536 101.891 30.9536ZM104.839 39.8685H110.882C111.908 39.8685 113.11 38.9563 113.11 37.329C113.11 35.6993 111.908 34.792 110.882 34.792H104.839V39.8685Z" fill="#66747A"/>
<path d="M265.234 44.4347H256.164V41.1534H266.025V37.8598H256.164V34.5639H265.234C265.981 34.5639 266.572 34.2379 266.779 33.3452L267.341 30.959H253.216C252.522 30.959 251.953 31.5184 251.953 32.2093V46.7893C251.953 47.4777 252.522 48.042 253.216 48.042H267.341L266.779 45.6558C266.572 44.7607 265.981 44.4347 265.234 44.4347Z" fill="#66747A"/>
<path d="M232.424 48.0396V30.959H236.637V42.2285L243.932 31.9636C244.345 31.4114 245.245 30.959 245.946 30.959H249.067V48.0396H244.856V36.7701L237.556 47.0326C237.148 47.5872 236.243 48.0396 235.547 48.0396H232.424Z" fill="#66747A"/>
<path d="M148.047 39.4093L153.924 30.959H150.057C149.22 30.959 148.634 31.2095 148.116 32.0122L144.985 36.882H144.423L141.29 32.0122C140.777 31.2095 140.191 30.959 139.349 30.959H135.357L141.361 39.5893L135.484 48.0396H139.349C140.191 48.0396 140.777 47.7915 141.29 46.9864L144.423 42.1166H144.985L148.116 46.9864C148.634 47.7915 149.22 48.0396 150.057 48.0396H154.048L148.047 39.4093Z" fill="#66747A"/>
</g>
<defs>
<clipPath id="clip0_95_1574">
<rect width="267.34" height="55" fill="white"/>
</clipPath>
</defs>
</svg>
