<svg width="116" height="28" viewBox="0 0 116 28" fill="none" xmlns="http://www.w3.org/2000/svg">
<g clip-path="url(#clip0_547_16385)">
<path fill-rule="evenodd" clip-rule="evenodd" d="M6.35259 28H21.977C25.4711 28 28.3297 25.1747 28.3297 21.7213V6.27867C28.3297 2.8253 25.4711 0 21.977 0H6.35259C2.85857 0 0 2.8253 0 6.27867V21.7213C0 25.1747 2.85857 28 6.35259 28Z" fill="#ff3d2e"/>
<path fill-rule="evenodd" clip-rule="evenodd" d="M7.66102 11.6662H13.1603V16.3346H7.66102V11.6662ZM6.61852 18.3952H13.1603V20.6382H15.2454V18.3952H21.7873C22.3609 18.3952 22.8296 17.9321 22.8296 17.3652V10.6354C22.8296 10.0689 22.3608 9.60547 21.7873 9.60547H6.61832C6.04454 9.60547 5.57617 10.0683 5.57617 10.6354V17.3652C5.57617 17.9321 6.04483 18.3952 6.61852 18.3952ZM15.2454 11.6662H20.7445V16.3346H15.2454V11.6662Z" fill="white"/>
<path fill-rule="evenodd" clip-rule="evenodd" d="M79.2577 7.875V10.2978H93.9323V11.9735H84.8062V14.1102H93.9323V15.7863H79.2577V18.2088H95.1584C95.8329 18.2088 96.3836 17.6647 96.3836 16.9979V9.08589C96.3836 8.41925 95.8329 7.875 95.1584 7.875H79.2577ZM46.1002 20.8459H48.5515V18.2088H56.2427C56.9172 18.2088 57.4681 17.6644 57.4681 16.9979V9.08589C57.4681 8.41974 56.9169 7.875 56.2427 7.875H38.4087C37.7343 7.875 37.1836 8.41925 37.1836 9.08589V16.9979C37.1836 17.6644 37.7345 18.2088 38.409 18.2088H46.1002V20.8459ZM48.5515 10.2978H55.0167V15.7863H48.5515V10.2978ZM46.1002 15.7863H39.6347V10.2978H46.1002V15.7863ZM115.961 7.875H98.8349V10.2978H106.172V18.2088H108.623V10.2978H115.961V7.875ZM74.112 18.2088H76.5721V7.875L63.6808 7.87646C63.1365 7.8767 62.6761 8.21029 62.5124 8.72328L59.4856 18.2086H62.0556L64.5798 10.2976H74.112V18.2088Z" fill="#1B1918"/>
</g>
<defs>
<clipPath id="clip0_547_16385">
<rect width="116" height="28" fill="white"/>
</clipPath>
</defs>
</svg>
