<svg xmlns="http://www.w3.org/2000/svg">

	<symbol id="phone" viewBox="0 0 24 24">
		<path d="M21 16.42v3.536a1 1 0 0 1-.93.998c-.437.03-.794.046-1.07.046-8.837 0-16-7.163-16-16 0-.276.015-.633.046-1.07A1 1 0 0 1 4.044 3H7.58a.5.5 0 0 1 .498.45c.023.23.044.413.064.552A13.901 13.901 0 0 0 9.35 8.003c.095.2.033.439-.147.567l-2.158 1.542a13.047 13.047 0 0 0 6.844 6.844l1.54-2.154a.462.462 0 0 1 .573-.149 13.901 13.901 0 0 0 4 1.205c.139.02.322.042.55.064a.5.5 0 0 1 .449.498z"/>
	</symbol>

	<symbol id="video" viewBox="0 0 24 24">
		<path d="M17 9.2l5.213-3.65a.5.5 0 0 1 .787.41v12.08a.5.5 0 0 1-.787.41L17 14.8V19a1 1 0 0 1-1 1H2a1 1 0 0 1-1-1V5a1 1 0 0 1 1-1h14a1 1 0 0 1 1 1v4.2zm0 3.159l4 2.8V8.84l-4 2.8v.718zM3 6v12h12V6H3zm2 2h2v2H5V8z"/>
	</symbol>

	<symbol id="mark" viewBox="0 0 64 64">
		<path d="m54.918 2.937-27.078 33.396-11.379-11.235-7.504 8.264 19.762 19.506 34.531-42.586z" fill="#ff3d2e"/>
		<path d="m45.642 61.063h-44.892v-46.151h32.997v3h-29.997v40.151h38.892v-7.049h3z" fill="#2d2d2e"/>
	</symbol>

	<symbol id="restart" viewBox="0 0 24 24">
		<path d="M18.537 19.567A9.961 9.961 0 0 1 12 22C6.477 22 2 17.523 2 12S6.477 2 12 2s10 4.477 10 10c0 2.136-.67 4.116-1.81 5.74L17 12h3a8 8 0 1 0-2.46 5.772l.997 1.795z"/>
	</symbol>

</svg>