<svg width="24" height="24" viewBox="0 0 24 24" fill="none" xmlns="http://www.w3.org/2000/svg">
<path d="M5.69118 2.00871C5.75226 2.00275 5.80957 2 5.86301 2C6.39563 2 6.5516 2.27219 6.33092 2.81564C5.16314 3.92134 3.99549 5.02612 2.82771 6.13136L16.597 6.18909C19.6543 6.67023 21.6954 8.29418 22.7201 11.0619C23.5587 14.3886 22.513 17.0312 19.5823 18.9901C18.7954 19.4565 17.9425 19.7636 17.0235 19.9125C15.8534 19.9707 14.6814 20 13.5079 20C13.37 20 13.2323 19.9995 13.0944 19.9991H13.0937C11.9259 19.9895 10.7583 19.9798 9.59054 19.9698L9.43821 19.8841C9.34778 19.6994 9.32746 19.507 9.37726 19.3067C9.40779 19.2013 9.47885 19.1344 9.59054 19.1055C11.9067 19.1005 14.2218 19.0625 16.5361 18.9901C19.5519 18.4425 21.3491 16.7411 21.9281 13.8868C22.1331 10.7402 20.7015 8.57782 17.6327 7.40018C17.0173 7.22239 16.3877 7.12662 15.7441 7.11196C13.5914 7.09226 11.4386 7.08309 9.28588 7.08309C7.13308 7.08309 4.9804 7.09226 2.82771 7.11196C3.99549 8.21674 5.16314 9.32152 6.33092 10.4272C6.52071 10.956 6.41525 11.2204 6.0144 11.2204C5.89319 11.2204 5.74486 11.1961 5.56927 11.1485C4.0978 9.75477 2.62609 8.362 1.15439 6.96922L1.15221 6.96716C1.09537 6.8549 1.04451 6.73896 1 6.62166C1.04451 6.50389 1.09537 6.38842 1.15221 6.2757C2.65859 4.84008 4.17166 3.41821 5.69118 2.00871Z" fill="#0081FF"/>
</svg>
