<svg width="32" height="32" viewBox="0 0 32 32" fill="none" xmlns="http://www.w3.org/2000/svg">
<path d="M28 14.6665V13.9998V13.9998C28 12.4453 28 11.6681 27.7189 11.0653C27.4208 10.4261 26.9071 9.91232 26.2679 9.61425C25.6651 9.33317 24.8878 9.33317 23.3333 9.33317H19.8942C19.0614 9.33317 18.645 9.33317 18.2524 9.22457C18.1223 9.18857 17.9948 9.14383 17.8707 9.09066C17.4963 8.93023 17.1712 8.67011 16.5209 8.14986L16.1458 7.84981C15.4955 7.32957 15.1703 7.06945 14.796 6.90901C14.6719 6.85584 14.5443 6.8111 14.4142 6.77511C14.0216 6.6665 13.6052 6.6665 12.7724 6.6665H9.4C7.15016 6.6665 6.02524 6.6665 5.23664 7.23945C4.98196 7.42449 4.75799 7.64846 4.57295 7.90315C4 8.69174 4 9.81666 4 12.0665V19.9332C4 22.183 4 23.3079 4.57295 24.0965C4.75799 24.3512 4.98196 24.5752 5.23664 24.7602C6.02524 25.3332 7.15016 25.3332 9.4 25.3332H22.6667C24.8528 25.3332 25.9459 25.3332 26.7207 24.7906C27.0074 24.5899 27.2567 24.3406 27.4575 24.0539C28 23.2791 28 22.186 28 19.9998V19.9998" stroke="#0081FF" stroke-width="2" stroke-linecap="round" stroke-linejoin="round"/>
</svg>
