<svg width="32" height="32" viewBox="0 0 32 32" fill="none" xmlns="http://www.w3.org/2000/svg">
<path d="M9.33333 22.6668V22.6668C8.09337 22.6668 7.47339 22.6668 6.96472 22.5305C5.58436 22.1607 4.50617 21.0825 4.1363 19.7021C4 19.1934 4 18.5735 4 17.3335V12.5335C4 9.53371 4 8.03382 4.76393 6.98236C5.01065 6.64278 5.30928 6.34415 5.64886 6.09743C6.70032 5.3335 8.20021 5.3335 11.2 5.3335H20.8C23.7998 5.3335 25.2997 5.3335 26.3511 6.09743C26.6907 6.34415 26.9894 6.64278 27.2361 6.98236C28 8.03382 28 9.53371 28 12.5335V15.4668C28 18.4666 28 19.9665 27.2361 21.018C26.9894 21.3575 26.6907 21.6562 26.3511 21.9029C25.2997 22.6668 23.7998 22.6668 20.8 22.6668H16" stroke="#0081FF" stroke-width="2" stroke-linecap="round" stroke-linejoin="round"/>
<path d="M9.33333 22.6665L8 26.6665L16 22.6665" stroke="#0081FF" stroke-width="2" stroke-linecap="round" stroke-linejoin="round"/>
</svg>
