<svg width="22" height="23" viewBox="0 0 22 23" fill="none" xmlns="http://www.w3.org/2000/svg">
<path d="M10.2844 2.48374C10.5529 2.61856 10.7755 2.83153 10.924 3.09432C11.0886 3.39824 11.124 3.75654 11.0225 4.08742C10.8288 4.78666 10.7078 5.50372 10.6617 6.22856C10.6617 6.53476 10.6617 6.84051 10.6454 7.14671C10.6323 7.57768 10.4121 7.97528 10.0549 8.21248C9.44811 8.65579 8.84127 9.11281 8.23443 9.56754C8.201 9.60821 8.18352 9.66032 8.18516 9.71287C8.50087 11.4153 9.24656 13.0057 10.35 14.3315C10.6124 14.6473 10.9077 14.9489 11.1865 15.2634C11.2366 15.3292 11.328 15.3479 11.3998 15.3063C12.1051 15.0266 12.8266 14.7483 13.5484 14.4787C13.9153 14.3384 14.3258 14.3736 14.6637 14.5746C15.0737 14.8128 15.4838 15.0879 15.9103 15.3045C16.333 15.5161 16.7715 15.6925 17.2225 15.8324C17.9544 15.9672 18.457 16.6523 18.3705 17.3981L17.4356 20.6196C17.4199 20.626 17.4078 20.6397 17.4028 20.6562C17.1161 21.2709 16.4143 21.5666 15.7792 21.3413C14.7621 21.0278 13.7787 20.6132 12.8432 20.1032C6.64988 16.6737 3.64442 9.36828 5.61033 2.52213C5.68997 2.20953 5.88322 1.94034 6.15141 1.76576C6.42921 1.58752 6.75879 1.50937 7.08619 1.54548L10.2844 2.48374Z" fill="#0081FF"/>
</svg>
