<svg width="60" height="60" fill="none" xmlns="http://www.w3.org/2000/svg"><mask id="a" fill="#fff"><path d="M58.188 15.97H40.956v-5.155a.937.937 0 0 0-.938-.937H37.36V6.861a.938.938 0 0 0-.938-.938h-4.55V3.937a.938.938 0 0 0-1.876 0v1.986h-4.551a.937.937 0 0 0-.938.938v3.017H21.85a.938.938 0 0 0-.938.938v16.733l-2.397-1.082a.938.938 0 0 0-.772 0l-5.336 2.408v-.42a.937.937 0 0 0-.938-.938H7.406a.938.938 0 0 0-.938.937v3.101L1.81 33.658a1.367 1.367 0 0 0-.778 1.545c.138.64.69 1.088 1.345 1.088h1.492v14.902h-1.56a.937.937 0 0 0-.938.937v3.378a.937.937 0 0 0 .938.938l55.879-.006a.938.938 0 0 0 .937-.938V16.907a.938.938 0 0 0-.937-.937zM26.382 7.798h9.103v2.08h-9.103v-2.08zM8.343 29.392h2.188v.33l-2.188.987v-1.317zm-3.537 5.024L2.5 35l15.628-6.65L34 35l-2.55-.584a.937.937 0 0 0-.938.937v15.84H17.453v-9.241a.937.937 0 0 0-.937-.938H9.11a.938.938 0 0 0-.937.938v9.24h-2.43V35.354a.937.937 0 0 0-.938-.937zm30.388.083a1.366 1.366 0 0 0-.748-.841l-1.262-.57v-.935h2.345v2.345h-.335zM15.578 51.192h-5.53v-8.304h5.53v8.304zM33.01 54.57H3.246v-1.503H33.01v1.503zm-.623-3.378V41.82h.872c.76 0 1.402.536 1.402 1.17v8.532c-.161 6.977-.197-.187-.32-.244a.934.934 0 0 0-.394-.086h-1.56zm6.694 3.372h-2.545V42.992c0-1.68-1.47-3.046-3.277-3.046h-.872v-3.572h4.08a.938.938 0 0 0 .937-.938v-4.22a.938.938 0 0 0-.937-.937h-4.22a.937.937 0 0 0-.938.937v1.026l-6.624-2.99c.042.006.673.276.716.276h4.22a.937.937 0 0 0 .937-.938v-4.22a.938.938 0 0 0-.937-.937H25.4a.937.937 0 0 0-.938.937v4.22a.933.933 0 0 0 .325.708l-2.001-.903V11.753H39.08v42.812zM26.338 27.653v-2.345h2.345v2.345h-2.345zM57.25 54.565H40.956v-36.72H57.25v36.72zm-14.204-27.64H55.16a.937.937 0 0 0 .937-.937v-4.447a.937.937 0 0 0-.937-.938H43.046a.937.937 0 0 0-.937.938v4.447a.938.938 0 0 0 .937.938zm.938-4.447h10.238v2.572H43.984v-2.572zM25.4 20.056h11.066a.937.937 0 0 0 .937-.937v-4.063a.938.938 0 0 0-.937-.937H25.4a.937.937 0 0 0-.938.937v4.063a.937.937 0 0 0 .938.938zm.937-4.062h9.191v2.188h-9.19v-2.188zm10.129 7.439h-4.22a.938.938 0 0 0-.938.937v4.22a.937.937 0 0 0 .937.938h4.22a.937.937 0 0 0 .938-.938v-4.22a.938.938 0 0 0-.937-.937zm-.938 4.22h-2.345v-2.345h2.345v2.345zm12.261 1.921h-4.22a.937.937 0 0 0-.937.938v4.22a.937.937 0 0 0 .937.937h4.22a.938.938 0 0 0 .938-.937v-4.22a.937.937 0 0 0-.938-.938zm-.937 4.22h-2.345V31.45h2.345v2.345zm7.783-4.22h-4.22a.937.937 0 0 0-.938.938v4.22a.937.937 0 0 0 .938.937h4.22a.937.937 0 0 0 .938-.937v-4.22a.937.937 0 0 0-.938-.938zm-.938 4.22h-2.345V31.45H53.7v2.345zM47.79 36.42h-4.22a.938.938 0 0 0-.937.938v4.22a.938.938 0 0 0 .937.937h4.22a.938.938 0 0 0 .938-.937v-4.22a.938.938 0 0 0-.938-.938zm-.937 4.22h-2.345v-2.345h2.345v2.345zm7.783-4.22h-4.22a.937.937 0 0 0-.938.938v4.22a.937.937 0 0 0 .938.937h4.22a.937.937 0 0 0 .938-.937v-4.22a.938.938 0 0 0-.938-.938zm-.938 4.22h-2.345v-2.345H53.7v2.345zm-5.908 2.626h-4.22a.938.938 0 0 0-.937.938v4.22a.937.937 0 0 0 .937.937h4.22a.937.937 0 0 0 .938-.937v-4.22a.938.938 0 0 0-.938-.938zm-.937 4.22h-2.345v-2.345h2.345v2.345zm7.783-4.22h-4.22a.937.937 0 0 0-.938.938v4.22a.937.937 0 0 0 .938.937h4.22a.937.937 0 0 0 .938-.937v-4.22a.938.938 0 0 0-.938-.938zm-.938 4.22h-2.345v-2.345H53.7v2.345zM19.736 44.25h7.117a.938.938 0 0 0 .937-.938v-5.156a.938.938 0 0 0-.937-.937h-7.117a.938.938 0 0 0-.938.937v5.156a.938.938 0 0 0 .938.938zm.938-5.156h5.241v3.28h-5.242v-3.28z"/></mask><path d="M58.188 15.97H40.956v-5.155a.937.937 0 0 0-.938-.937H37.36V6.861a.938.938 0 0 0-.938-.938h-4.55V3.937a.938.938 0 0 0-1.876 0v1.986h-4.551a.937.937 0 0 0-.938.938v3.017H21.85a.938.938 0 0 0-.938.938v16.733l-2.397-1.082a.938.938 0 0 0-.772 0l-5.336 2.408v-.42a.937.937 0 0 0-.938-.938H7.406a.938.938 0 0 0-.938.937v3.101L1.81 33.658a1.367 1.367 0 0 0-.778 1.545c.138.64.69 1.088 1.345 1.088h1.492v14.902h-1.56a.937.937 0 0 0-.938.937v3.378a.937.937 0 0 0 .938.938l55.879-.006a.938.938 0 0 0 .937-.938V16.907a.938.938 0 0 0-.937-.937zM26.382 7.798h9.103v2.08h-9.103v-2.08zM8.343 29.392h2.188v.33l-2.188.987v-1.317zm-3.537 5.024L2.5 35l15.628-6.65L34 35l-2.55-.584a.937.937 0 0 0-.938.937v15.84H17.453v-9.241a.937.937 0 0 0-.937-.938H9.11a.938.938 0 0 0-.937.938v9.24h-2.43V35.354a.937.937 0 0 0-.938-.937zm30.388.083a1.366 1.366 0 0 0-.748-.841l-1.262-.57v-.935h2.345v2.345h-.335zM15.578 51.192h-5.53v-8.304h5.53v8.304zM33.01 54.57H3.246v-1.503H33.01v1.503zm-.623-3.378V41.82h.872c.76 0 1.402.536 1.402 1.17v8.532c-.161 6.977-.197-.187-.32-.244a.934.934 0 0 0-.394-.086h-1.56zm6.694 3.372h-2.545V42.992c0-1.68-1.47-3.046-3.277-3.046h-.872v-3.572h4.08a.938.938 0 0 0 .937-.938v-4.22a.938.938 0 0 0-.937-.937h-4.22a.937.937 0 0 0-.938.937v1.026l-6.624-2.99c.042.006.673.276.716.276h4.22a.937.937 0 0 0 .937-.938v-4.22a.938.938 0 0 0-.937-.937H25.4a.937.937 0 0 0-.938.937v4.22a.933.933 0 0 0 .325.708l-2.001-.903V11.753H39.08v42.812zM26.338 27.653v-2.345h2.345v2.345h-2.345zM57.25 54.565H40.956v-36.72H57.25v36.72zm-14.204-27.64H55.16a.937.937 0 0 0 .937-.937v-4.447a.937.937 0 0 0-.937-.938H43.046a.937.937 0 0 0-.937.938v4.447a.938.938 0 0 0 .937.938zm.938-4.447h10.238v2.572H43.984v-2.572zM25.4 20.056h11.066a.937.937 0 0 0 .937-.937v-4.063a.938.938 0 0 0-.937-.937H25.4a.937.937 0 0 0-.938.937v4.063a.937.937 0 0 0 .938.938zm.937-4.062h9.191v2.188h-9.19v-2.188zm10.129 7.439h-4.22a.938.938 0 0 0-.938.937v4.22a.937.937 0 0 0 .937.938h4.22a.937.937 0 0 0 .938-.938v-4.22a.938.938 0 0 0-.937-.937zm-.938 4.22h-2.345v-2.345h2.345v2.345zm12.261 1.921h-4.22a.937.937 0 0 0-.937.938v4.22a.937.937 0 0 0 .937.937h4.22a.938.938 0 0 0 .938-.937v-4.22a.937.937 0 0 0-.938-.938zm-.937 4.22h-2.345V31.45h2.345v2.345zm7.783-4.22h-4.22a.937.937 0 0 0-.938.938v4.22a.937.937 0 0 0 .938.937h4.22a.937.937 0 0 0 .938-.937v-4.22a.937.937 0 0 0-.938-.938zm-.938 4.22h-2.345V31.45H53.7v2.345zM47.79 36.42h-4.22a.938.938 0 0 0-.937.938v4.22a.938.938 0 0 0 .937.937h4.22a.938.938 0 0 0 .938-.937v-4.22a.938.938 0 0 0-.938-.938zm-.937 4.22h-2.345v-2.345h2.345v2.345zm7.783-4.22h-4.22a.937.937 0 0 0-.938.938v4.22a.937.937 0 0 0 .938.937h4.22a.937.937 0 0 0 .938-.937v-4.22a.938.938 0 0 0-.938-.938zm-.938 4.22h-2.345v-2.345H53.7v2.345zm-5.908 2.626h-4.22a.938.938 0 0 0-.937.938v4.22a.937.937 0 0 0 .937.937h4.22a.937.937 0 0 0 .938-.937v-4.22a.938.938 0 0 0-.938-.938zm-.937 4.22h-2.345v-2.345h2.345v2.345zm7.783-4.22h-4.22a.937.937 0 0 0-.938.938v4.22a.937.937 0 0 0 .938.937h4.22a.937.937 0 0 0 .938-.937v-4.22a.938.938 0 0 0-.938-.938zm-.938 4.22h-2.345v-2.345H53.7v2.345zM19.736 44.25h7.117a.938.938 0 0 0 .937-.938v-5.156a.938.938 0 0 0-.937-.937h-7.117a.938.938 0 0 0-.938.937v5.156a.938.938 0 0 0 .938.938zm.938-5.156h5.241v3.28h-5.242v-3.28z" fill="#366CAB" stroke="#fff" stroke-width=".48" mask="url(#a)"/></svg>