<svg width="60" height="60" viewBox="0 0 60 60" fill="none" xmlns="http://www.w3.org/2000/svg">
<mask id="path-1-inside-1_27_1791" fill="white">
<path d="M11.7857 27.8571C12.0699 27.8571 12.3424 27.7443 12.5433 27.5433C12.7443 27.3424 12.8572 27.0699 12.8572 26.7857C12.8572 26.5016 12.7443 26.229 12.5433 26.0281C12.3424 25.8272 12.0699 25.7143 11.7857 25.7143H7.50002C7.21586 25.7143 6.94334 25.8272 6.7424 26.0281C6.54147 26.229 6.42859 26.5016 6.42859 26.7857V33.2143C6.42859 33.4984 6.54147 33.771 6.7424 33.9719C6.94334 34.1728 7.21586 34.2857 7.50002 34.2857H11.7857C12.0699 34.2857 12.3424 34.1728 12.5433 33.9719C12.7443 33.771 12.8572 33.4984 12.8572 33.2143C12.8572 32.9301 12.7443 32.6576 12.5433 32.4567C12.3424 32.2557 12.0699 32.1429 11.7857 32.1429H8.57145V27.8571H11.7857ZM48.2143 32.1429C47.9301 32.1429 47.6576 32.2557 47.4567 32.4567C47.2558 32.6576 47.1429 32.9301 47.1429 33.2143C47.1429 33.4984 47.2558 33.771 47.4567 33.9719C47.6576 34.1728 47.9301 34.2857 48.2143 34.2857H52.5C52.7842 34.2857 53.0567 34.1728 53.2576 33.9719C53.4586 33.771 53.5714 33.4984 53.5714 33.2143V26.7857C53.5714 26.5016 53.4586 26.229 53.2576 26.0281C53.0567 25.8272 52.7842 25.7143 52.5 25.7143H48.2143C47.9301 25.7143 47.6576 25.8272 47.4567 26.0281C47.2558 26.229 47.1429 26.5016 47.1429 26.7857C47.1429 27.0699 47.2558 27.3424 47.4567 27.5433C47.6576 27.7443 47.9301 27.8571 48.2143 27.8571H51.4286V32.1429H48.2143ZM23.5714 24.6429H36.4286C36.7128 24.6429 36.9853 24.53 37.1862 24.329C37.3871 24.1281 37.5 23.8556 37.5 23.5714C37.5 23.2873 37.3871 23.0147 37.1862 22.8138C36.9853 22.6129 36.7128 22.5 36.4286 22.5H23.5714C23.2873 22.5 23.0148 22.6129 22.8138 22.8138C22.6129 23.0147 22.5 23.2873 22.5 23.5714C22.5 23.8556 22.6129 24.1281 22.8138 24.329C23.0148 24.53 23.2873 24.6429 23.5714 24.6429ZM26.7857 32.1429C26.7857 31.8587 26.6729 31.5862 26.4719 31.3852C26.271 31.1843 25.9985 31.0714 25.7143 31.0714H21.4286C21.1444 31.0714 20.8719 31.1843 20.671 31.3852C20.47 31.5862 20.3572 31.8587 20.3572 32.1429C20.3572 32.427 20.47 32.6995 20.671 32.9005C20.8719 33.1014 21.1444 33.2143 21.4286 33.2143H25.7143C25.9985 33.2143 26.271 33.1014 26.4719 32.9005C26.6729 32.6995 26.7857 32.427 26.7857 32.1429ZM30 35.3571H23.5714C23.2873 35.3571 23.0148 35.47 22.8138 35.671C22.6129 35.8719 22.5 36.1444 22.5 36.4286C22.5 36.7127 22.6129 36.9853 22.8138 37.1862C23.0148 37.3871 23.2873 37.5 23.5714 37.5H30C30.2842 37.5 30.5567 37.3871 30.7576 37.1862C30.9586 36.9853 31.0714 36.7127 31.0714 36.4286C31.0714 36.1444 30.9586 35.8719 30.7576 35.671C30.5567 35.47 30.2842 35.3571 30 35.3571ZM36.4286 35.3571H34.2857C34.0016 35.3571 33.729 35.47 33.5281 35.671C33.3272 35.8719 33.2143 36.1444 33.2143 36.4286C33.2143 36.7127 33.3272 36.9853 33.5281 37.1862C33.729 37.3871 34.0016 37.5 34.2857 37.5H36.4286C36.7128 37.5 36.9853 37.3871 37.1862 37.1862C37.3871 36.9853 37.5 36.7127 37.5 36.4286C37.5 36.1444 37.3871 35.8719 37.1862 35.671C36.9853 35.47 36.7128 35.3571 36.4286 35.3571ZM39.6429 32.1429C39.6429 31.8587 39.53 31.5862 39.3291 31.3852C39.1281 31.1843 38.8556 31.0714 38.5714 31.0714H30C29.7159 31.0714 29.4433 31.1843 29.2424 31.3852C29.0415 31.5862 28.9286 31.8587 28.9286 32.1429C28.9286 32.427 29.0415 32.6995 29.2424 32.9005C29.4433 33.1014 29.7159 33.2143 30 33.2143H38.5714C38.8556 33.2143 39.1281 33.1014 39.3291 32.9005C39.53 32.6995 39.6429 32.427 39.6429 32.1429ZM33.2143 27.8571C33.2143 28.1413 33.3272 28.4138 33.5281 28.6148C33.729 28.8157 34.0016 28.9286 34.2857 28.9286H38.5714C38.8556 28.9286 39.1281 28.8157 39.3291 28.6148C39.53 28.4138 39.6429 28.1413 39.6429 27.8571C39.6429 27.573 39.53 27.3005 39.3291 27.0995C39.1281 26.8986 38.8556 26.7857 38.5714 26.7857H34.2857C34.0016 26.7857 33.729 26.8986 33.5281 27.0995C33.3272 27.3005 33.2143 27.573 33.2143 27.8571ZM21.4286 28.9286H30C30.2842 28.9286 30.5567 28.8157 30.7576 28.6148C30.9586 28.4138 31.0714 28.1413 31.0714 27.8571C31.0714 27.573 30.9586 27.3005 30.7576 27.0995C30.5567 26.8986 30.2842 26.7857 30 26.7857H21.4286C21.1444 26.7857 20.8719 26.8986 20.671 27.0995C20.47 27.3005 20.3572 27.573 20.3572 27.8571C20.3572 28.1413 20.47 28.4138 20.671 28.6148C20.8719 28.8157 21.1444 28.9286 21.4286 28.9286Z"/>
</mask>
<path d="M11.7857 27.8571C12.0699 27.8571 12.3424 27.7443 12.5433 27.5433C12.7443 27.3424 12.8572 27.0699 12.8572 26.7857C12.8572 26.5016 12.7443 26.229 12.5433 26.0281C12.3424 25.8272 12.0699 25.7143 11.7857 25.7143H7.50002C7.21586 25.7143 6.94334 25.8272 6.7424 26.0281C6.54147 26.229 6.42859 26.5016 6.42859 26.7857V33.2143C6.42859 33.4984 6.54147 33.771 6.7424 33.9719C6.94334 34.1728 7.21586 34.2857 7.50002 34.2857H11.7857C12.0699 34.2857 12.3424 34.1728 12.5433 33.9719C12.7443 33.771 12.8572 33.4984 12.8572 33.2143C12.8572 32.9301 12.7443 32.6576 12.5433 32.4567C12.3424 32.2557 12.0699 32.1429 11.7857 32.1429H8.57145V27.8571H11.7857ZM48.2143 32.1429C47.9301 32.1429 47.6576 32.2557 47.4567 32.4567C47.2558 32.6576 47.1429 32.9301 47.1429 33.2143C47.1429 33.4984 47.2558 33.771 47.4567 33.9719C47.6576 34.1728 47.9301 34.2857 48.2143 34.2857H52.5C52.7842 34.2857 53.0567 34.1728 53.2576 33.9719C53.4586 33.771 53.5714 33.4984 53.5714 33.2143V26.7857C53.5714 26.5016 53.4586 26.229 53.2576 26.0281C53.0567 25.8272 52.7842 25.7143 52.5 25.7143H48.2143C47.9301 25.7143 47.6576 25.8272 47.4567 26.0281C47.2558 26.229 47.1429 26.5016 47.1429 26.7857C47.1429 27.0699 47.2558 27.3424 47.4567 27.5433C47.6576 27.7443 47.9301 27.8571 48.2143 27.8571H51.4286V32.1429H48.2143ZM23.5714 24.6429H36.4286C36.7128 24.6429 36.9853 24.53 37.1862 24.329C37.3871 24.1281 37.5 23.8556 37.5 23.5714C37.5 23.2873 37.3871 23.0147 37.1862 22.8138C36.9853 22.6129 36.7128 22.5 36.4286 22.5H23.5714C23.2873 22.5 23.0148 22.6129 22.8138 22.8138C22.6129 23.0147 22.5 23.2873 22.5 23.5714C22.5 23.8556 22.6129 24.1281 22.8138 24.329C23.0148 24.53 23.2873 24.6429 23.5714 24.6429ZM26.7857 32.1429C26.7857 31.8587 26.6729 31.5862 26.4719 31.3852C26.271 31.1843 25.9985 31.0714 25.7143 31.0714H21.4286C21.1444 31.0714 20.8719 31.1843 20.671 31.3852C20.47 31.5862 20.3572 31.8587 20.3572 32.1429C20.3572 32.427 20.47 32.6995 20.671 32.9005C20.8719 33.1014 21.1444 33.2143 21.4286 33.2143H25.7143C25.9985 33.2143 26.271 33.1014 26.4719 32.9005C26.6729 32.6995 26.7857 32.427 26.7857 32.1429ZM30 35.3571H23.5714C23.2873 35.3571 23.0148 35.47 22.8138 35.671C22.6129 35.8719 22.5 36.1444 22.5 36.4286C22.5 36.7127 22.6129 36.9853 22.8138 37.1862C23.0148 37.3871 23.2873 37.5 23.5714 37.5H30C30.2842 37.5 30.5567 37.3871 30.7576 37.1862C30.9586 36.9853 31.0714 36.7127 31.0714 36.4286C31.0714 36.1444 30.9586 35.8719 30.7576 35.671C30.5567 35.47 30.2842 35.3571 30 35.3571ZM36.4286 35.3571H34.2857C34.0016 35.3571 33.729 35.47 33.5281 35.671C33.3272 35.8719 33.2143 36.1444 33.2143 36.4286C33.2143 36.7127 33.3272 36.9853 33.5281 37.1862C33.729 37.3871 34.0016 37.5 34.2857 37.5H36.4286C36.7128 37.5 36.9853 37.3871 37.1862 37.1862C37.3871 36.9853 37.5 36.7127 37.5 36.4286C37.5 36.1444 37.3871 35.8719 37.1862 35.671C36.9853 35.47 36.7128 35.3571 36.4286 35.3571ZM39.6429 32.1429C39.6429 31.8587 39.53 31.5862 39.3291 31.3852C39.1281 31.1843 38.8556 31.0714 38.5714 31.0714H30C29.7159 31.0714 29.4433 31.1843 29.2424 31.3852C29.0415 31.5862 28.9286 31.8587 28.9286 32.1429C28.9286 32.427 29.0415 32.6995 29.2424 32.9005C29.4433 33.1014 29.7159 33.2143 30 33.2143H38.5714C38.8556 33.2143 39.1281 33.1014 39.3291 32.9005C39.53 32.6995 39.6429 32.427 39.6429 32.1429ZM33.2143 27.8571C33.2143 28.1413 33.3272 28.4138 33.5281 28.6148C33.729 28.8157 34.0016 28.9286 34.2857 28.9286H38.5714C38.8556 28.9286 39.1281 28.8157 39.3291 28.6148C39.53 28.4138 39.6429 28.1413 39.6429 27.8571C39.6429 27.573 39.53 27.3005 39.3291 27.0995C39.1281 26.8986 38.8556 26.7857 38.5714 26.7857H34.2857C34.0016 26.7857 33.729 26.8986 33.5281 27.0995C33.3272 27.3005 33.2143 27.573 33.2143 27.8571ZM21.4286 28.9286H30C30.2842 28.9286 30.5567 28.8157 30.7576 28.6148C30.9586 28.4138 31.0714 28.1413 31.0714 27.8571C31.0714 27.573 30.9586 27.3005 30.7576 27.0995C30.5567 26.8986 30.2842 26.7857 30 26.7857H21.4286C21.1444 26.7857 20.8719 26.8986 20.671 27.0995C20.47 27.3005 20.3572 27.573 20.3572 27.8571C20.3572 28.1413 20.47 28.4138 20.671 28.6148C20.8719 28.8157 21.1444 28.9286 21.4286 28.9286Z" fill="#366CAB" stroke="white" stroke-width="0.6" mask="url(#path-1-inside-1_27_1791)"/>
<path d="M42.0129 43.9287L42.119 43.8225L43.8226 42.119L43.9287 42.0128L44.0347 42.119L53.324 51.419L53.3242 51.4192C53.5121 51.608 53.6399 51.8481 53.6916 52.1094C53.7433 52.3706 53.7166 52.6414 53.6148 52.8875C53.513 53.1336 53.3407 53.3441 53.1196 53.4925C52.8984 53.6408 52.6384 53.7205 52.3721 53.7215C52.3721 53.7215 52.372 53.7215 52.372 53.7215L52.3715 53.5715C52.2139 53.5721 52.0578 53.5411 51.9124 53.4804C51.7671 53.4197 51.6353 53.3304 51.525 53.2179L42.0129 43.9287ZM42.0129 43.9287L42.119 44.0347L51.4179 53.3229C51.4182 53.3232 51.4185 53.3234 51.4187 53.3237L42.0129 43.9287ZM43.3278 39.8863L43.4069 39.9683L43.5071 39.9141C43.6792 39.8211 43.8764 39.7852 44.0702 39.8117C44.2636 39.8382 44.4436 39.9253 44.5842 40.0607C44.5846 40.061 44.5849 40.0613 44.5852 40.0616L54.6333 50.1097L54.6335 50.1099C54.931 50.406 55.1665 50.7584 55.3263 51.1466C55.4861 51.5347 55.5671 51.9508 55.5643 52.3705L55.5643 52.3721C55.5671 53.009 55.38 53.6322 55.0269 54.1623C54.6738 54.6923 54.1707 55.105 53.5819 55.3478C52.9931 55.5906 52.3454 55.6523 51.7213 55.5252C51.0972 55.3981 50.5252 55.0878 50.0783 54.6341L50.0775 54.6333L40.0294 44.5852C40.0291 44.5849 40.0288 44.5846 40.0286 44.5843C39.8932 44.4436 39.806 44.2636 39.7796 44.0702C39.7531 43.8764 39.7889 43.6792 39.882 43.5071L39.9354 43.4083L39.8556 43.3292L38.6771 42.1614L38.5881 42.0732L38.4855 42.145C35.4422 44.2732 31.7119 45.1838 28.0303 44.6974C24.3486 44.211 20.9829 42.3628 18.5967 39.5173C16.2105 36.6717 14.977 33.0354 15.1396 29.3253C15.3021 25.6153 16.8489 22.1007 19.4748 19.4748C22.1008 16.8489 25.6153 15.3021 29.3253 15.1396C33.0354 14.977 36.6717 16.2105 39.5173 18.5967C42.3628 20.9829 44.211 24.3486 44.6974 28.0303C45.1838 31.7119 44.2732 35.4422 42.145 38.4855L42.0742 38.5867L42.1599 38.6756L43.3278 39.8863ZM41.002 40.1684L40.8959 40.0635L40.7904 40.169L40.169 40.7904L40.0635 40.8959L40.1684 41.002L41.1434 41.9877L41.2495 42.0949L41.3561 41.9882L41.9883 41.3561L42.0949 41.2495L41.9877 41.1434L41.002 40.1684ZM19.185 22.7737C17.7558 24.9127 16.9929 27.4275 16.9929 30C16.9929 33.4497 18.3633 36.7582 20.8026 39.1975C23.2419 41.6368 26.5503 43.0072 30 43.0072C32.5726 43.0072 35.0874 42.2443 37.2264 40.8151C39.3654 39.3858 41.0326 37.3544 42.0171 34.9777C43.0016 32.6009 43.2591 29.9856 42.7573 27.4625C42.2554 24.9393 41.0166 22.6217 39.1975 20.8026C37.3784 18.9835 35.0608 17.7447 32.5376 17.2428C30.0145 16.7409 27.3992 16.9985 25.0224 17.983C22.6457 18.9675 20.6142 20.6346 19.185 22.7737Z" fill="#366CAB" stroke="white" stroke-width="0.3"/>
<path d="M1.99286 49.2857V49.4357H2.14286H40.7143C40.9587 49.4357 41.193 49.5328 41.3658 49.7056C41.5386 49.8784 41.6357 50.1128 41.6357 50.3571C41.6357 50.6015 41.5386 50.8359 41.3658 51.0087C41.193 51.1815 40.9587 51.2786 40.7143 51.2786H1.07143C0.82705 51.2786 0.592681 51.1815 0.41988 51.0087C0.247079 50.8359 0.15 50.6015 0.15 50.3571V1.07143C0.15 0.827051 0.247079 0.592682 0.41988 0.41988C0.592682 0.247079 0.827051 0.15 1.07143 0.15H58.9286C59.1729 0.15 59.4073 0.247079 59.5801 0.41988C59.7529 0.592682 59.85 0.827051 59.85 1.07143V50.3571C59.85 50.6015 59.7529 50.8359 59.5801 51.0087C59.4073 51.1815 59.1729 51.2786 58.9286 51.2786C58.6842 51.2786 58.4498 51.1815 58.277 51.0087C58.1042 50.8359 58.0071 50.6015 58.0071 50.3571V10.7143V10.5643H57.8571H2.14286H1.99286V10.7143V49.2857ZM2.14286 1.99286H1.99286V2.14286V8.57143V8.72143H2.14286H17.1429H17.2929V8.57143V2.14286V1.99286H17.1429H2.14286ZM19.1357 8.57143V8.72143H19.2857H57.8571H58.0071V8.57143V2.14286V1.99286H57.8571H19.2857H19.1357V2.14286V8.57143Z" fill="#366CAB" stroke="white" stroke-width="0.3"/>
<path d="M9.64279 4.43577C9.46055 4.43577 9.2824 4.48981 9.13087 4.59106C8.97934 4.6923 8.86124 4.83621 8.7915 5.00458C8.72176 5.17295 8.70351 5.35822 8.73906 5.53696C8.77462 5.7157 8.86238 5.87988 8.99124 6.00874C9.1201 6.13761 9.28429 6.22537 9.46303 6.26092C9.64177 6.29647 9.82703 6.27823 9.9954 6.20848C10.1638 6.13874 10.3077 6.02064 10.4089 5.86911C10.5102 5.71759 10.5642 5.53944 10.5642 5.3572C10.5642 5.11282 10.4671 4.87845 10.2943 4.70565M9.64279 4.43577L10.2943 4.70565M9.64279 4.43577C9.88717 4.43577 10.1215 4.53285 10.2943 4.70565M9.64279 4.43577L10.2943 4.70565M4.84516 4.59106C4.99668 4.48981 5.17483 4.43577 5.35707 4.43577C5.60145 4.43577 5.83582 4.53285 6.00862 4.70565C6.18142 4.87845 6.2785 5.11282 6.2785 5.3572C6.2785 5.53944 6.22446 5.71759 6.12321 5.86911C6.02197 6.02064 5.87806 6.13874 5.70969 6.20848C5.54132 6.27823 5.35605 6.29647 5.17731 6.26092C4.99857 6.22537 4.83439 6.13761 4.70553 6.00874C4.57666 5.87988 4.4889 5.7157 4.45335 5.53696C4.4178 5.35822 4.43604 5.17295 4.50578 5.00458C4.57553 4.83621 4.69363 4.6923 4.84516 4.59106ZM13.4166 4.59106C13.5681 4.48981 13.7463 4.43577 13.9285 4.43577C14.1729 4.43577 14.4073 4.53285 14.5801 4.70565C14.7529 4.87845 14.8499 5.11282 14.8499 5.3572C14.8499 5.53944 14.7959 5.71759 14.6946 5.86911C14.5934 6.02064 14.4495 6.13874 14.2811 6.20848C14.1127 6.27823 13.9275 6.29647 13.7487 6.26092C13.57 6.22537 13.4058 6.13761 13.277 6.00874C13.1481 5.87988 13.0603 5.7157 13.0248 5.53696C12.9892 5.35822 13.0075 5.17295 13.0772 5.00458C13.147 4.83621 13.2651 4.6923 13.4166 4.59106ZM22.4999 4.43577H54.6428C54.8872 4.43577 55.1215 4.53285 55.2943 4.70565C55.4671 4.87845 55.5642 5.11282 55.5642 5.3572C55.5642 5.60157 55.4671 5.83594 55.2943 6.00874C55.1215 6.18154 54.8872 6.27862 54.6428 6.27862H22.4999C22.2556 6.27862 22.0212 6.18154 21.8484 6.00874C21.6756 5.83594 21.5785 5.60157 21.5785 5.3572C21.5785 5.11282 21.6756 4.87845 21.8484 4.70565C22.0212 4.53285 22.2556 4.43577 22.4999 4.43577Z" fill="#366CAB" stroke="white" stroke-width="0.3"/>
</svg>
