<svg xmlns="http://www.w3.org/2000/svg">

	<symbol id="i-home" viewBox="0 0 24 24">
		<path d="M19 12h2l-9-9-9 9h2v7a2 2 0 0 0 2 2h5.5M9 21v-6a2 2 0 0 1 2-2h2a2 2 0 0 1 2 2m1 4h6m-3-3v6" stroke-width="1.5" stroke-linecap="round" stroke-linejoin="round" fill="none" />
	</symbol>

	<symbol id="i-loc" viewBox="0 0 24 24">
		<path d="M9 11a3 3 0 1 0 6 0 3 3 0 0 0-6 0z" stroke="#366CAB" stroke-width="1.5" stroke-linecap="round" stroke-linejoin="round" fill="none"/><path d="M17.657 16.657 13.414 20.9a2 2 0 0 1-2.827 0l-4.244-4.243a8 8 0 1 1 11.314 0z" stroke="#366CAB" stroke-width="1.5" stroke-linecap="round" stroke-linejoin="round" fill="none"/>
	</symbol>

	<symbol id="i-arrow-right" viewBox="0 0 24 24">
		<path d="M5 12h14m0 0-4 4m4-4-4-4" stroke="#366CAB" stroke-width="1.5" stroke-linecap="round" stroke-linejoin="round"/>
	</symbol>

	<symbol id="i-date" viewBox="0 0 18 20">
		<path d="M13 1v4M5 1v4M1 9h16M1 5a2 2 0 0 1 2-2h12a2 2 0 0 1 2 2v12a2 2 0 0 1-2 2H3a2 2 0 0 1-2-2V5zm7 9a1 1 0 1 0 2 0 1 1 0 0 0-2 0z" stroke="#183152" stroke-width="1.5" stroke-linecap="round" stroke-linejoin="round" fill="none"/>
	</symbol>

</svg>