<svg width="60" height="60" fill="none" xmlns="http://www.w3.org/2000/svg"><mask id="a" fill="#fff"><path d="M25.104 50.426a9.302 9.302 0 0 0-4.508-6.255 14.649 14.649 0 0 0-3.533-1.436 6.563 6.563 0 1 0-7.881 0 14.65 14.65 0 0 0-3.53 1.436 9.302 9.302 0 0 0-4.508 6.254L.019 56.063A.938.938 0 0 0 .6 57.121a34.842 34.842 0 0 0 25.048 0 .938.938 0 0 0 .582-1.06l-1.127-5.636zM8.438 37.5a4.687 4.687 0 1 1 9.374 0 4.687 4.687 0 0 1-9.374 0zM2.013 55.65l.972-4.857a7.424 7.424 0 0 1 3.6-4.993 13.407 13.407 0 0 1 13.081 0 7.422 7.422 0 0 1 3.6 4.994l.971 4.855a32.954 32.954 0 0 1-22.224 0zm57.968.413-1.125-5.64a9.3 9.3 0 0 0-4.507-6.256 14.65 14.65 0 0 0-3.536-1.432 6.563 6.563 0 1 0-7.881 0 14.65 14.65 0 0 0-3.53 1.436 9.302 9.302 0 0 0-4.508 6.254l-1.125 5.638a.938.938 0 0 0 .582 1.059 34.842 34.842 0 0 0 25.048 0 .938.938 0 0 0 .582-1.06zM42.188 37.5a4.688 4.688 0 1 1 4.687 4.688 4.693 4.693 0 0 1-4.687-4.688zm-6.425 18.15.972-4.857a7.426 7.426 0 0 1 3.6-4.993 13.407 13.407 0 0 1 13.081 0 7.422 7.422 0 0 1 3.6 4.994l.971 4.855a32.954 32.954 0 0 1-22.224 0zm.742-33.203 3.955 6.188a.938.938 0 0 0 1.708-.312l1.349-6.404C50.6 20.385 55.313 16.15 55.313 11.25 55.313 5.047 47.53 0 37.969 0c-9.563 0-17.344 5.047-17.344 11.25 0 5.858 6.938 10.716 15.88 11.198zm1.464-20.572c8.531 0 15.469 4.206 15.469 9.375 0 4.048-4.477 7.728-10.886 8.948a.938.938 0 0 0-.742.727l-1.005 4.762-2.982-4.663a.937.937 0 0 0-.758-.43C28.898 20.304 22.5 16.2 22.5 11.25c0-5.17 6.938-9.375 15.469-9.375z"/></mask><path d="M25.104 50.426a9.302 9.302 0 0 0-4.508-6.255 14.649 14.649 0 0 0-3.533-1.436 6.563 6.563 0 1 0-7.881 0 14.65 14.65 0 0 0-3.53 1.436 9.302 9.302 0 0 0-4.508 6.254L.019 56.063A.938.938 0 0 0 .6 57.121a34.842 34.842 0 0 0 25.048 0 .938.938 0 0 0 .582-1.06l-1.127-5.636zM8.438 37.5a4.687 4.687 0 1 1 9.374 0 4.687 4.687 0 0 1-9.374 0zM2.013 55.65l.972-4.857a7.424 7.424 0 0 1 3.6-4.993 13.407 13.407 0 0 1 13.081 0 7.422 7.422 0 0 1 3.6 4.994l.971 4.855a32.954 32.954 0 0 1-22.224 0zm57.968.413-1.125-5.64a9.3 9.3 0 0 0-4.507-6.256 14.65 14.65 0 0 0-3.536-1.432 6.563 6.563 0 1 0-7.881 0 14.65 14.65 0 0 0-3.53 1.436 9.302 9.302 0 0 0-4.508 6.254l-1.125 5.638a.938.938 0 0 0 .582 1.059 34.842 34.842 0 0 0 25.048 0 .938.938 0 0 0 .582-1.06zM42.188 37.5a4.688 4.688 0 1 1 4.687 4.688 4.693 4.693 0 0 1-4.687-4.688zm-6.425 18.15.972-4.857a7.426 7.426 0 0 1 3.6-4.993 13.407 13.407 0 0 1 13.081 0 7.422 7.422 0 0 1 3.6 4.994l.971 4.855a32.954 32.954 0 0 1-22.224 0zm.742-33.203 3.955 6.188a.938.938 0 0 0 1.708-.312l1.349-6.404C50.6 20.385 55.313 16.15 55.313 11.25 55.313 5.047 47.53 0 37.969 0c-9.563 0-17.344 5.047-17.344 11.25 0 5.858 6.938 10.716 15.88 11.198zm1.464-20.572c8.531 0 15.469 4.206 15.469 9.375 0 4.048-4.477 7.728-10.886 8.948a.938.938 0 0 0-.742.727l-1.005 4.762-2.982-4.663a.937.937 0 0 0-.758-.43C28.898 20.304 22.5 16.2 22.5 11.25c0-5.17 6.938-9.375 15.469-9.375z" fill="#366CAB" stroke="#fff" stroke-width=".4" mask="url(#a)"/><path d="M34.483 23.766a.835.835 0 0 1 1.017.608.837.837 0 0 1-.608 1.016 26.134 26.134 0 0 1-9.628.547l-.035-.005-.031.02-6 3.817a.838.838 0 0 1-1.268-.888l1.011-4.549.018-.08-.075-.033C14.133 22.136 11.35 18.728 11.35 15c0-3.85 2.98-7.385 8.022-9.438a.837.837 0 1 1 .631 1.552c-4.346 1.769-6.978 4.709-6.978 7.886 0 3.236 2.72 6.205 7.212 7.966a.837.837 0 0 1 .512.962l-.69 3.107-.053.235.204-.13 4.376-2.78a.821.821 0 0 1 .565-.123c3.112.442 6.28.282 9.332-.47zM31.975 6.663h4.487v1.675h-4.487V6.663zm6.563 0h1.675v1.675h-1.675V6.663zm3.75 0h4.487v1.675h-4.487V6.663zm-13.125 3.75h11.05v1.675h-11.05v-1.675zm13.125 0h4.487v1.675h-4.487v-1.675zm-13.125 3.75h3.55v1.675h-3.55v-1.675zm5.625 0H44.9v1.675H34.788v-1.675z" fill="#366CAB" stroke="#fff" stroke-width=".2"/></svg>