<svg xmlns="http://www.w3.org/2000/svg">

	<symbol id="i-sintez" viewBox="0 0 314 316">
		<path d="M290.5 106.125c3.15 2.363 4.213 4.158 5.5 7.875.5 3.625.5 3.625 0 7-3.512 3.391-7.064 5.015-11.621 6.656-.622.23-1.245.458-1.886.694a841.995 841.995 0 0 1-5.93 2.15c-1.976.711-3.95 1.426-5.92 2.15-1.79.657-3.585 1.304-5.38 1.95-6.208 2.6-6.208 2.6-10.402 7.593l-.552 2.483-.669 2.94c-1.437 7.6-2.73 15.22-3.94 22.858-2.98 18.69-2.98 18.69-6.7 22.526-3.79 2.522-7.808 4.249-12 6l-3.85 1.66a780.355 780.355 0 0 1-10.672 4.46 1896.96 1896.96 0 0 0-7.035 2.914c-7.028 2.92-14.062 5.822-21.126 8.656a1711.59 1711.59 0 0 0-8.347 3.388 400.057 400.057 0 0 1-3.872 1.544c-17.879 7.025-29.315 18.755-40.8 33.69-1.817 2.363-3.652 4.713-5.486 7.063A5968.33 5968.33 0 0 0 127 266c-2-1-2-1-2.594-2.759l-.476-2.292-.53-2.539c-4.408-22.891-4.408-22.891.632-30.615 1.887-2.685 3.902-5.247 5.968-7.795l2.043-2.648c13.495-16.216 36.812-22.903 55.865-30.115A2619.84 2619.84 0 0 0 199 183l2.355-.898c2.322-.89 4.637-1.8 6.95-2.715l2.12-.805c5.079-2.04 8.957-4.375 11.485-9.385 1.905-4.747 2.923-9.62 3.809-14.642l.886-4.762c.45-2.466.898-4.932 1.343-7.399.437-2.406.885-4.81 1.333-7.214l.389-2.217c.963-5.137 1.965-10.155 6.285-13.458 7.487-3.426 15.183-6.144 22.982-8.755 1.327-.45 2.653-.9 3.979-1.352 18.362-6.237 18.362-6.237 27.584-3.273zM147.531 86.293l2.16 1.095c1.326.676 2.65 1.359 3.97 2.049 12.454 6.383 21.66 4.06 34.398-.03L192.375 88c2.174-.698 4.348-1.394 6.523-2.089 1.343-.43 2.685-.863 4.026-1.299 5.184-1.678 9.553-2.78 15.013-2.862l3.09-.078c3.426.378 5.224 1.282 7.973 3.328 2.015 3.022 2.337 3.917 2.438 7.375l.12 2.273c-.852 3.588-2.778 4.97-5.558 7.352-2.648 1.334-5.385 2.246-8.203 3.156l-2.412.817c-2.54.856-5.088 1.692-7.635 2.527-1.664.56-3.329 1.121-4.992 1.684a881.502 881.502 0 0 1-12.34 4.042 950.344 950.344 0 0 0-4.829 1.56c-2.29.743-4.587 1.466-6.886 2.183l-2.048.672c-7.08 2.15-12.34.8-18.866-2.301l-3.5-1.645-3.664-1.757-3.77-1.78c-3.623-1.708-7.24-3.432-10.855-5.158-2.58-1.227-5.16-2.453-7.74-3.676a717.526 717.526 0 0 1-4.11-1.963c-9.661-4.607-18.476-6.229-28.838-2.736-18.593 7.651-26.217 23.27-33.787 40.867l-1.255 2.852-1.107 2.568C58 146 58 146 55 148c-2.907.271-2.907.271-6.426.309l-3.853.076c-2.677.038-5.354.066-8.032.094l-3.865.08-3.528.04c-3.762.458-6.122 1.335-9.296 3.401-1.537 2.207-1.537 2.207-2.414 4.816l-1.117 2.815-1.094 2.931a468.087 468.087 0 0 1-2.227 5.754l-.963 2.577C10.766 173.416 9.744 174.139 7 175c-2.784-1.193-4.491-2.321-6.313-4.75-3.028-9.913 1.937-20.842 5.813-29.875l.899-2.119c1.54-3.46 2.381-5.11 5.601-7.256 2.648-.18 2.648-.18 5.805-.09l3.457.06c2.4.062 4.802.127 7.203.196l3.465.057 3.163.086c3.38-.36 5.189-1.304 7.907-3.309 1.676-2.432 1.676-2.432 2.938-5.313l1.542-3.242a193.568 193.568 0 0 0 2.883-6.89C59.546 91.949 74.026 80.817 94 72c19.04-5.455 37.148 5.969 53.531 14.293z"/><path d="m133 32.188 6.09 2.945 3.019 1.466c4.142 2.007 8.294 3.992 12.453 5.964l2.034.975c11.846 5.61 19.623 4.743 31.966 1.4l3.58-.942c5.815-1.55 11.585-3.192 17.319-5.02l3.06-.972c1.878-.606 3.75-1.228 5.616-1.87 7.67-2.496 15.682-3.601 23.425-.884 3.635 2.61 5.177 4.217 5.938 8.688-.69 4.228-2.205 5.341-5.5 8.062-3.01 1.418-6.117 2.381-9.297 3.348l-2.781.884c-2.97.939-5.945 1.854-8.922 2.768a8977.83 8977.83 0 0 0-5.975 1.87 1500.859 1500.859 0 0 1-15.195 4.64c-2.077.625-4.151 1.256-6.224 1.893-3.058.94-6.12 1.862-9.184 2.78l-2.775.862c-10.761 3.178-17.268 2.324-27.229-2.822l-2.96-1.473a1230.736 1230.736 0 0 1-9.27-4.688 3852.018 3852.018 0 0 0-9.325-4.676c-1.93-.967-3.856-1.94-5.78-2.918l-2.64-1.335-2.314-1.178c-10.602-4.758-22.564-1.567-33.177 1.56-2.076.61-4.159 1.186-6.245 1.758-15.257 4.304-26.348 10.248-34.36 24.22a193.186 193.186 0 0 0-3.597 7.07C43 90 43 90 41 91c-2.875.375-2.875.375-6 0-3.645-3.645-5.136-6.955-5.313-12.063.167-11.456 7.862-22.96 15.422-31.128 11.054-10.574 27.059-13.587 41.426-17.404 2.491-.662 4.98-1.334 7.469-2.007l4.808-1.289c.735-.198 1.47-.395 2.226-.6 13.183-3.489 20.022-.174 31.962 5.678zM159.313 153.75c3.973 3.327 5.478 5.576 6.125 10.75-.543 4.34-1.318 5.436-4.438 8.5-3.371 1.841-6.892 3.279-10.438 4.75-16.789 7.311-27.97 15.916-37.687 31.625l-1.512 2.383A277.962 277.962 0 0 0 107 219l-1.48 2.478-1.387 2.499-1.246 2.197c-2.449 7.8-.52 16.154.968 23.986.38 2.114.758 4.228 1.135 6.342.597 3.289 1.2 6.576 1.818 9.86.598 3.2 1.169 6.405 1.735 9.61l.577 2.946c1.351 7.818.114 13.273-3.882 20.086C94.525 313.237 94.525 313.237 89 316c-2.938.313-2.938.313-6 0-3.414-3.297-4.151-7.396-4.5-12 .01-5.699 2.878-9.718 5.871-14.398 6.605-10.55 1.031-25.648-1.38-36.92-4.63-21.815-1.634-33.705 9.384-53.307l1.922-3.484C105.81 175.259 120.157 159.626 143 152c5.985-1.47 10.886-1.117 16.313 1.75zM87 144c3.57 4.632 4.696 9.54 4.356 15.316-1.268 9.552-7.183 18.614-11.481 27.121l-2.02 4.02a1158.668 1158.668 0 0 1-12.487 24.159 375.803 375.803 0 0 0-5.579 10.845l-1.076 2.19c-.653 1.335-1.3 2.673-1.94 4.015C54.576 236.175 52.12 240.088 49 244c-3.313.938-3.313.938-6 1-4.104-4.899-5.35-8.223-5.264-14.511.464-4.375 2.191-8.085 4.014-12.052l1.211-2.729c4.058-9.012 8.515-17.828 12.984-26.642 3.018-5.962 5.928-11.972 8.805-18.004l1.37-2.86c2.12-4.44 4.202-8.892 6.204-13.386l1.09-2.412a273.072 273.072 0 0 0 1.95-4.443c2.133-4.724 2.133-4.724 4.702-5.934 2.967-.042 4.383.379 6.934 1.973zM226.25 224.879c4.6 1.875 9.148 2.922 14.002 1.428 2.247-1.014 4.4-2.12 6.56-3.307a338.67 338.67 0 0 1 4.395-2.313l1.921-1.05c2.318-.789 3.591-.42 5.872.363-2.348 8.668-9.375 12.345-16.816 16.617-6.034 3.038-11.44 4.625-18.184 3.383-2.862-1.063-5.387-2.437-8-4-4.518-2.637-8.014-2.053-13-1-2.715.895-5.242 2.067-7.813 3.313-1.55.72-3.1 1.437-4.652 2.152l-2.605 1.206c-5.89 2.671-11.854 5.174-17.805 7.704a7006.28 7006.28 0 0 0-7.242 3.086l-3.144 1.337c-2.684 1.137-2.684 1.137-4.966 2.384-2.286 1.055-3.453.646-5.773-.182 11.453-13.847 24.822-21.872 41.076-29.027 1.953-.86 3.902-1.733 5.85-2.606 12.2-5.43 18.441-6.44 30.324.512z"/><path d="m206.563 243.375 2.378.273C211 244 211 244 213 245c-.247 2.36-.247 2.36-1 5-1.759 1.299-1.759 1.299-4.05 2.246l-2.539 1.086-2.724 1.106c-1.846.798-3.693 1.598-5.539 2.398a414.631 414.631 0 0 1-8.546 3.516c-11.719 5.087-20.434 15.305-29.192 24.336-11.365 11.715-23.398 17.958-38.375 24.37l-2.644 1.135C116 311 116 311 112 311c0-3.039.41-5.231 2.285-7.676 4.91-4.694 10.596-7.376 16.646-10.277 9.764-4.74 17.603-11.313 25.518-18.68 2.771-2.571 5.629-5.02 8.508-7.469 2.146-1.927 2.146-1.927 4.242-4.421 8.14-9.125 24.505-20.67 37.363-19.102zM306 145c3.242 1.62 5.197 2.942 7.375 5.813.939 3.285 1.043 5.785.625 9.187-3.897 4.892-8.509 6.906-14.125 9.25l-2.457 1.063c-6.71 2.883-12.038 4.348-19.418 3.687-3.724-1.584-5.99-3.482-8-7-1.023-3.435-1.283-5.257 0-8.625 7.493-8.898 24.695-14.658 36-13.375zM36.5 162.438c3.5.562 3.5.562 5.875 2.625 1.924 3.477 3.022 5.99 2.625 9.937-1.094 3.791-2.559 7.381-4.132 10.998-.97 2.238-1.906 4.489-2.845 6.74-.693 1.63-1.388 3.259-2.086 4.887l-.993 2.37c-3.056 6.966-3.056 6.966-6.944 9.005-2.563.438-2.563.438-5 0-3.988-4.13-4.39-8.574-4.33-14.071.633-5.615 2.904-10.632 5.08-15.804l1.344-3.375c5.034-12.288 5.034-12.288 11.406-13.313zM295 185l1 2c-6.4 14.934-28.875 20.503-42.59 26.164a274.33 274.33 0 0 0-8.101 3.484l-3.184 1.415-2.68 1.222c-2.861.837-4.608.523-7.445-.285 1.172-6.512 3.653-9.227 9-13 3.05-1.69 6.195-3.065 9.406-4.418l2.678-1.163c2.8-1.214 5.608-2.41 8.416-3.607a5070.33 5070.33 0 0 0 5.652-2.443c4.226-1.827 8.455-3.645 12.692-5.444 1.397-.6 2.79-1.21 4.175-1.835 3.88-1.737 6.708-2.403 10.981-2.09zM177.313 9.688c3.127 2.69 4.425 4.376 5.687 8.312.19 4.463-.425 7.942-2.563 11.875-3.858 3.363-7.556 5.15-12.746 5.105-5.153-.79-8.513-2.668-11.66-6.847-2.374-4.91-1.778-9.987-.031-15.008 6.32-6.716 13.29-7.524 21.313-3.438zM211 0c4.408 2.164 7.128 4.425 9 9 .58 3.969.41 7.053-1.188 10.75-3.312 4.112-5.978 6.364-11.25 7.188-5.476.382-8.76-1.38-12.875-4.938-2.822-3.345-3.031-6.644-2.968-10.938.598-4.387 3.2-7.108 6.406-9.937C202.443-.565 206.427-.66 211 0zM200.313 137.188c4.285 2.89 6.278 5.284 7.625 10.312.07 3.987-.463 5.428-2.938 8.5-3.304 2.89-5.89 3.916-10.313 4.25-5.596-.38-8.498-2.138-12.562-5.938-2.815-4.387-2.858-6.18-2.125-11.312 4.722-7.757 12.157-8.736 20.313-5.813zM118 115c3.762 1.282 6.37 3.248 8.938 6.313 1.406 3.557 1.595 5.887 1.062 9.687-2.27 3.539-4.065 5.522-7.813 7.438-5.516.973-9.532.437-14.5-2.188-2.862-2.396-4.367-3.757-5.687-7.25-.187-3.166.053-5.967 1-9 5.142-5.274 9.909-5.764 17-5zM263 68c3.308 1.625 5.172 2.956 7.438 5.813.875 3.405.453 5.8-.438 9.187-3.15 4.43-6.45 5.994-11.652 6.914-3.917.143-6.999-.936-10.348-2.914-3.102-2.902-3.832-5.793-4-10 1.192-3.377 2.39-5.428 5-7.875 4.658-1.747 9.09-1.78 14-1.125zM66.07 257.54c3.83.914 5.998 3.173 8.243 6.272 1.022 3.255 1.038 5.793.687 9.188-3.077 5.538-3.077 5.538-6 7-5.864.677-5.864.677-8.758-1.047-2.859-2.348-4.992-4.164-5.515-7.906-.18-4.079-.15-7.202 2.273-10.61 3.363-2.732 4.87-3.23 9.07-2.898zM27.438 99.063C31 100 31 100 33.374 102c2.166 3.999 2.817 7.465 2.625 12-1.27 4.11-2.089 5.505-5.875 7.563C27 122 27 122 24.312 120.874c-3.894-3.158-5.412-5.34-6.187-10.313-.262-3.184-.16-4.482 1.125-7.5 2.658-3.132 4.027-4.075 8.188-4zM261 237c-5.02 11.747-24.719 19.495-35.512 25.004C223 263 223 263 219 263c1.146-4.87 3.86-6.687 7.758-9.406 2.24-1.54 2.24-1.54 4.172-3.25C237.17 245 252.567 234.189 261 237zM152 267c-.42 4.757-2.442 7.938-6 11-8.325 5-8.325 5-12 5 .322-5.318 3.275-8.491 7-12 3.659-2.697 6.335-4 11-4z"/><path d="M190 269c-1.699 6.486-4.858 10.884-10.5 14.375-3.271 1.519-4.98 2.052-8.5 1.625 3.201-7.736 7.323-11.763 14.875-15.375C188 269 188 269 190 269zM282 208c.691 1.75.691 1.75 1 4-3.106 5.08-7.777 9.215-13 12h-4c.105-4.294 1.197-6.627 4.063-9.688 3.672-3.444 7.145-4.883 11.937-6.312zM212 258c.087 3.468-.553 5.483-2.824 8.11-4.492 4.179-8.096 6.855-14.176 7.89.786-5.862 3.801-9.033 8-13 3.365-2.07 5.072-3 9-3z"/>
	</symbol>

	<symbol id="i-sintez-text" viewBox="0 0 425 54">
		<path d="M328.603-.35a317.09 317.09 0 0 0 4.533-.082c2.182-.055 4.362-.077 6.544-.091l3.96-.06C347 0 347 0 349.43 2.183c1.74 3.122 2.062 4.868 2.032 8.415l-.012 3.177-.074 3.288-.004 3.298c-.1 9.1-.1 9.1-2.371 12.639-2.405 1.203-4.104 1.203-6.79 1.316l-2.85.127-2.985.12-3.008.13c-2.455.107-4.911.209-7.367.307v4l3.438 1.438C333 42 333 42 334 43c.583 6.177.583 6.177-1.555 9.195-3.364 2.483-5.736 2.372-9.882 2.368l-3.934.066c-4.627-.802-5.816-1.893-8.629-5.629-.708-3.246-.654-6.408-.594-9.719v-2.835c.005-1.973.023-3.947.052-5.92.042-3.016.041-6.03.034-9.046.01-1.92.024-3.84.04-5.761v-2.725c.09-4.787.315-8.13 3.468-11.994 4.5-2.25 10.599-1.31 15.603-1.35zM326 14l-2 4c1.812 2.243 1.812 2.243 4.383 2.195l2.742-.07 2.758-.055L336 20c.681-1.892.681-1.892 1-4-1.787-2.214-1.787-2.214-4.164-2.195l-2.461.07-2.477.055L326 14zM395.25-.594h2.106c1.466.005 2.932.023 4.398.052 2.24.042 4.475.041 6.715.034 10.767.08 10.767.08 13.922 1.85 2.646 2.727 2.736 5.384 2.742 9.002l.004 2.527-.012 2.629.012 2.629-.004 2.527-.004 2.307C425 25 425 25 424 28l1 1c.279 3.075.232 6.164.25 9.25l.063 2.605c.03 4.897-.15 8.15-3.313 12.145-2.042 2.042-6.021 1.276-8.813 1.313l-2.197.087c-3.526.042-5.58-.102-8.47-2.197-2.213-3.207-2.072-5.407-1.52-9.203 2.313-2.89 4.735-3.22 8.25-3.688L413 39v-4l-3.797-.078a4186.81 4186.81 0 0 1-4.953-.172l-2.5-.043c-6.106-.246-6.106-.246-9.3-2.531C390.334 29 390.525 26.72 391 23c1.599-2.178 2.509-2.902 5.177-3.432l2.491-.08 2.705-.107 2.815-.069 2.85-.103c2.32-.082 4.64-.152 6.962-.209v-4l-2.34-.06c-3.49-.095-6.981-.205-10.473-.315l-3.681-.094-3.526-.117-3.253-.095C388 14 388 14 385 12c-.938-3.313-.938-3.313-1-7 2.985-5.21 5.419-5.626 11.25-5.594zM155.125 0c2.952 1.027 3.93 1.654 5.875 4 .773 2.008.773 2.008 1.375 4.125.68 2.098.68 2.098 1.625 3.875 2.424 1.319 2.424 1.319 5 1 3.2-2.133 3.43-2.515 4.5-5.938.97-3.087 1.884-5.069 4.5-7.062 3.32.119 5.896.25 8.692 2.149 2.792 3.951 1.784 9.581 1.754 14.248-.008 2.03.02 4.059.052 6.09l-.002 3.884.006 3.56c-.603 3.69-1.528 4.866-4.502 7.069-3.5.563-3.5.563-7 0-2.313-2.313-2.313-2.313-4-5l-2-3c-3.542-.333-3.542-.333-7 0-2.311 2.311-1.356 8.905-1.43 12.21-.182 4.668-.444 8.065-3.57 11.79-3.375 1.125-3.375 1.125-7 1-2.858-2.008-4.695-3.615-5.467-7.12-.196-2.619-.226-5.192-.197-7.818l-.015-2.902c-.003-2.02.006-4.04.027-6.061.027-3.09 0-6.174-.032-9.263.004-1.966.01-3.932.02-5.898l-.03-2.791c.082-4.533.242-6.546 3.04-10.268C152 0 152 0 155.125 0zM11.25-.531l2.106-.012c1.466-.003 2.932.005 4.398.022 2.24.02 4.475 0 6.715-.026a4400192408.579 4400192408.579 0 0 1 8.203.03C36.522.08 37.723.891 40 4c.58 3.476.538 5.194-1.43 8.145-3.862 2.788-7.54 2.49-12.195 2.543-1.721.042-3.443.087-5.164.136l-2.303.034c-1.994.027-1.994.027-3.908 1.142v23l7 3c2 3 2 3 1.875 6-1.044 3.581-1.656 4.219-4.875 6-3.531.398-3.531.398-7.5.375l-3.969.023C3.794 53.977 2.635 53.563 0 51c-.508-2.118-.508-2.118-.518-4.592l-.038-2.811.025-3.03-.012-3.12c-.003-2.178.005-4.356.022-6.534.02-3.334 0-6.667-.026-10 .003-2.116.008-4.231.016-6.347l-.025-3.024c.092-6.77.092-6.77 2.136-10.17C4.915-.518 7.423-.517 11.25-.53zM239.272-.501c2.156.001 4.309-.04 6.464-.085 1.379-.005 2.757-.008 4.135-.008l3.78-.021C257.902.165 259.397 1.606 262 5c.125 3.625.125 3.625-1 7l-2.537 1.239c-2.843 1.596-2.843 1.596-3.043 5.143-.007 1.391.01 2.782.049 4.173l-.01 2.238c-.013 3.156.031 6.312.07 9.468.021 2.307.012 4.612.002 6.919l.06 2.147c-.02 3.875-.5 5.556-2.894 8.662C250 54 250 54 246.312 54 243 53 243 53 241 50c-.24-2.68-.373-5.266-.414-7.95l-.059-2.34c-.06-2.466-.106-4.932-.152-7.398-.038-1.672-.077-3.345-.117-5.017-.096-4.098-.18-8.196-.258-12.295l-3.14-.043c-1.37-.047-2.74-.095-4.11-.145l-2.066-.017c-3.76-.164-5.403-.529-8.168-3.15C221 9 221 9 221 5.875c2.8-8.052 11.154-6.399 18.272-6.376zM85 1c2.99 2.99 2.973 5.197 3.114 9.392l-.016 3.999-.005 2.135c-.005 2.241-.018 4.483-.03 6.724-.006 1.523-.01 3.047-.014 4.57-.011 3.727-.028 7.453-.049 11.18l3.375.875C95 41 95 41 97 43c.541 5.683.541 5.683 0 8-2.406 2.672-3.937 2.992-7.531 3.434l-3.969.004-3.969.058C78 54 78 54 75.812 52.63c-2.858-4.147-2.383-8.273-2.343-13.195l-.012-3.123c-.003-2.176.005-4.352.022-6.529.02-3.336 0-6.67-.026-10.007.003-2.114.008-4.227.016-6.341l-.025-3.03.038-2.812.01-2.474C74 3 74 3 75.806 1.201 79.098-.6 81.445.144 85 1zM107-.5c3.742.624 4.692 1.529 7 4.5.725 4.126.617 8.233.576 12.417-.013 2.012.02 4.019.059 6.03l-.006 3.862.002 3.525c-.817 4.098-2.384 5.616-5.631 8.166-3.125.063-3.125.063-6-1-4.187-4.191-3.422-8.87-3.459-14.465l.013-2.007a304.52 304.52 0 0 0-.052-6.063l.002-3.871-.006-3.541C100.274 2.33 102.303.283 107-.5zM110 40c2.375 1.625 2.375 1.625 4 4 .563 3 .563 3 0 6-2.414 2.621-4.078 3.798-7.563 4.563C104 54 104 54 101.626 51.937c-2.113-3.82-1.798-5.791-.625-9.937 3.491-2.327 4.892-2.503 9-2zM275 1c2.326 3.489 2.419 4.897 2 9-1.063 2.375-1.063 2.375-3 4-3.438.563-3.438.563-7 0-2.5-2.125-2.5-2.125-4-5 0-3.507.365-5.243 2.625-7.938C269.075-.48 271.4.068 275 1zM396 41c2.327 3.491 2.503 4.892 2 9-1.563 2.438-1.563 2.438-4 4-3.812 0-6.051-.2-9-2.688-1.39-3.212-1.055-5.006 0-8.312 3.255-3.881 6.367-3.201 11-2z"/><path d="M184 40c2.438 1.563 2.438 1.563 4 4 0 3.824-.147 6.056-2.75 8.938C182.505 54.233 181 54.525 178 54c-2.313-1.625-2.313-1.625-4-4-.612-3.672-.487-5.288 1.625-8.375 3.087-2.112 4.703-2.237 8.375-1.625zM344 39.438c3 .562 3 .562 5.438 2.687C351 45 351 45 351 48.125c-1.152 3.311-1.885 4.317-5 5.875-2.5.438-2.5.438-5 0-2.313-1.625-2.313-1.625-4-4-.612-3.672-.487-5.288 1.625-8.375C341 40 341 40 344 39.437zM36 40c2.375 1.625 2.375 1.625 4 4 .61 3.659.445 5.305-1.563 8.438C36 54 36 54 32.438 54 29 53 29 53 27 51.312c-1.377-3.184-.98-5.021 0-8.312 2.302-3.635 4.927-3.582 9-3z"/>
	</symbol>

	<symbol id="i-whatsapp" viewBox="0 0 20 20">
		<path fill-rule="evenodd" clip-rule="evenodd" d="M9.99384 19.8282H9.98974C8.33106 19.8276 6.70126 19.4115 5.25369 18.6219L0 20L1.40597 14.8645C0.538682 13.3615 0.0823615 11.6566 0.0830559 9.90991C0.0852781 4.4456 4.53112 0 9.9937 0C12.6449 0.00114584 15.1332 1.03323 17.0043 2.90657C18.8755 4.77977 19.9053 7.2697 19.9043 9.91776C19.9021 15.3808 15.458 19.826 9.99384 19.8282ZM5.49716 16.8277L5.79793 17.0062C7.06265 17.7567 8.51238 18.1539 9.9905 18.1544H9.99384C14.5339 18.1544 18.2291 14.4592 18.2309 9.91714C18.2318 7.71616 17.3759 5.64657 15.8207 4.08956C14.2654 2.53254 12.1972 1.67469 9.99703 1.67393C5.45341 1.67393 1.7582 5.36886 1.75639 9.91047C1.75577 11.4669 2.19125 12.9828 3.01577 14.2942L3.21167 14.6059L2.37952 17.6456L5.49716 16.8277ZM14.6475 12.0514C14.8202 12.1349 14.9369 12.1913 14.9867 12.2744C15.0486 12.3777 15.0486 12.8735 14.8423 13.452C14.6359 14.0304 13.6466 14.5583 13.1708 14.6294C12.7442 14.6932 12.2043 14.7198 11.6111 14.5313C11.2514 14.4172 10.7902 14.2649 10.1994 14.0096C7.87793 13.0073 6.30904 10.7572 6.01251 10.332C5.99175 10.3022 5.97723 10.2814 5.96911 10.2705L5.96716 10.2679C5.83612 10.093 4.95799 8.92144 4.95799 7.70887C4.95799 6.56824 5.51827 5.97039 5.77619 5.69518C5.7939 5.6763 5.81015 5.65893 5.82466 5.6431C6.05168 5.39518 6.31994 5.33317 6.48501 5.33317C6.65008 5.33317 6.81536 5.3347 6.95967 5.34192C6.97744 5.34282 6.99598 5.34275 7.01508 5.34261C7.15939 5.34178 7.33932 5.34074 7.51682 5.76706C7.58508 5.93109 7.68501 6.17435 7.79036 6.43088C8.00342 6.94963 8.2389 7.52276 8.28029 7.60574C8.34224 7.7297 8.38349 7.87422 8.30092 8.03956C8.28856 8.06435 8.2771 8.08776 8.26613 8.11012C8.20411 8.23665 8.15856 8.32977 8.05328 8.45262C8.01196 8.50095 7.96918 8.55304 7.9264 8.60512C7.84119 8.70887 7.75606 8.81262 7.68189 8.88651C7.55786 9.00998 7.42883 9.14394 7.57328 9.39186C7.71772 9.63977 8.21474 10.4507 8.95085 11.1073C9.74224 11.8131 10.43 12.1114 10.7786 12.2627C10.8467 12.2922 10.9018 12.3162 10.9423 12.3364C11.1898 12.4604 11.3343 12.4396 11.4788 12.2744C11.6232 12.1092 12.0978 11.5513 12.2628 11.3035C12.4279 11.0556 12.593 11.0969 12.82 11.1795C13.047 11.2622 14.2645 11.8612 14.5121 11.9851C14.5604 12.0094 14.6057 12.0312 14.6475 12.0514Z"/>
	</symbol>

	<symbol id="i-identification" viewBox="0 0 24 24">
		<g><path d="m20.48 4.816c-.181 0-.361-.064-.505-.196-2.207-2.012-5.039-3.12-7.975-3.12s-5.768 1.108-7.975 3.121c-.307.279-.781.256-1.06-.049-.279-.306-.257-.781.049-1.06 2.485-2.265 5.676-3.512 8.986-3.512s6.501 1.247 8.986 3.512c.306.279.328.753.049 1.06-.148.162-.351.244-.555.244z"/></g><g><path d="m21.75 9.717c-.241 0-.479-.116-.623-.332-2.082-3.1-5.494-4.951-9.127-4.951s-7.045 1.851-9.127 4.951c-.231.345-.698.437-1.041.205-.344-.231-.436-.697-.205-1.041 2.361-3.515 6.239-5.614 10.373-5.614s8.012 2.099 10.373 5.615c.231.344.14.81-.205 1.041-.128.085-.273.126-.418.126z"/></g><g><path d="m9.631 24c-.193 0-.386-.074-.533-.222-.164-.165-4.007-4.088-4.007-7.865 0-3.92 3.099-7.109 6.909-7.109s6.909 3.189 6.909 7.109c0 .414-.336.75-.75.75s-.75-.336-.75-.75c0-3.093-2.426-5.609-5.409-5.609s-5.409 2.516-5.409 5.609c0 3.167 3.537 6.773 3.573 6.809.292.294.29.769-.005 1.061-.146.145-.337.217-.528.217z"/></g><g><path d="m14.369 24c-1.804 0-5.986-3.432-6.391-7.254-.143-1.351.287-2.733 1.149-3.697.75-.838 1.763-1.303 2.852-1.309h.021c1.062 0 2.066.417 2.83 1.176.798.793 1.237 1.858 1.237 2.998v.489c0 1.205.938 2.185 2.092 2.185s2.093-.98 2.093-2.185v-.171c0-4.67-3.383-8.555-7.702-8.843-2.252-.153-4.412.625-6.079 2.183-1.73 1.618-2.722 3.93-2.722 6.342 0 1.984.672 3.917 1.892 5.443.258.324.206.795-.118 1.054-.323.259-.795.206-1.055-.118-1.431-1.791-2.22-4.057-2.22-6.38 0-2.826 1.166-5.537 3.197-7.437 1.973-1.846 4.531-2.764 7.203-2.585 5.104.341 9.103 4.883 9.103 10.34v.171c0 2.032-1.612 3.685-3.593 3.685s-3.592-1.653-3.592-3.685v-.489c0-.738-.282-1.424-.794-1.934-.48-.478-1.109-.74-1.772-.74-.005 0-.009 0-.014 0-.845.004-1.414.443-1.742.81-.585.653-.875 1.603-.776 2.539.331 3.118 3.914 5.913 4.9 5.913.414 0 .75.336.75.75s-.335.749-.749.749z"/></g><g><path d="m17.152 22.533c-2.684 0-5.961-3.28-5.961-7.109 0-.414.336-.75.75-.75s.75.336.75.75c0 2.968 2.495 5.609 4.461 5.609.414 0 .75.336.75.75s-.336.75-.75.75z"/></g>
	</symbol>

	<symbol id="i-stroke-line" viewBox="0 0 128 182">
		<path fill-rule="evenodd" stroke-dasharray="8, 4" stroke-linecap="butt" stroke-linejoin="miter" d="M121.762,1.652 C121.762,1.652 157.887,165.333 -2.077,159.856 "/>
	</symbol>
	<!-- <svg 
 xmlns="http://www.w3.org/2000/svg"
 xmlns:xlink="http://www.w3.org/1999/xlink"
 width="128px" height="162px">
<path fill-rule="evenodd"  stroke="rgb(237, 237, 239)" stroke-width="2px" stroke-dasharray="8, 4" stroke-linecap="butt" stroke-linejoin="miter" opacity="0.859" fill="none"
 d="M121.762,1.652 C121.762,1.652 157.887,165.333 -2.077,159.856 "/>
</svg> -->

</svg>