<svg width="10" height="10" viewBox="0 0 10 10" fill="none" xmlns="http://www.w3.org/2000/svg">
<path d="M9.51968 7.17062L8.30968 5.95062C8.10968 5.75062 7.83968 5.63062 7.58968 5.63062C7.31968 5.63062 7.07968 5.74062 6.86968 5.95062L6.16968 6.65062C6.13968 6.63062 6.09968 6.61062 6.06968 6.60062C6.06968 6.60062 6.05968 6.60062 6.05968 6.59062L6.04968 6.58062C5.95968 6.52062 5.85968 6.46062 5.73968 6.41062C5.12968 6.03062 4.55968 5.50062 3.97968 4.79062C3.70968 4.45062 3.51968 4.15062 3.36968 3.82062C3.52968 3.69062 3.64968 3.56062 3.73968 3.46062L4.04968 3.15062C4.28968 2.93062 4.40968 2.68062 4.40968 2.42062C4.40968 2.15062 4.28968 1.90062 4.05968 1.66062L3.10968 0.710625C3.01968 0.620625 2.92968 0.530625 2.82968 0.440625C2.62968 0.250625 2.37968 0.140625 2.11968 0.140625C1.82968 0.140625 1.58968 0.240625 1.36968 0.460625L0.63968 1.19062C0.34968 1.46062 0.17968 1.80063 0.13968 2.22062V2.23062C0.11968 2.75062 0.199679 3.23062 0.419679 3.83062C0.769679 4.77062 1.29968 5.65062 2.08968 6.62062C3.11968 7.78062 4.27968 8.68062 5.56968 9.30062L5.59968 9.31062C5.97968 9.48062 6.69968 9.80062 7.49968 9.85062H7.60968C8.13968 9.85062 8.53968 9.68062 8.86968 9.32062C8.98968 9.18062 9.11968 9.05062 9.22968 8.93062C9.31968 8.86062 9.37968 8.79062 9.43968 8.72062L9.51968 8.64062L9.53968 8.62062C9.95968 8.16062 9.95968 7.60062 9.51968 7.17062ZM9.16968 8.28062L9.06968 8.38062L9.05968 8.40062C9.00968 8.46062 8.96968 8.51062 8.91968 8.55062L8.88968 8.58062C8.76968 8.70062 8.62968 8.84062 8.48968 9.00062C8.25968 9.25062 7.99968 9.36062 7.60968 9.36062H7.52968C6.82968 9.31062 6.18968 9.03062 5.80968 8.86062L5.78968 8.85062C4.55968 8.26062 3.44968 7.40062 2.47968 6.30062C1.71968 5.38062 1.21968 4.54062 0.88968 3.66062C0.68968 3.11062 0.61968 2.71062 0.63968 2.26062C0.66968 1.97062 0.77968 1.74063 0.97968 1.56062L1.71968 0.820625C1.83968 0.700625 1.95968 0.650625 2.10968 0.650625C2.23968 0.650625 2.35968 0.710625 2.46968 0.810625L2.47968 0.820625C2.56968 0.900625 2.65968 0.990625 2.74968 1.08062L3.69968 2.03062C3.87968 2.21062 3.90968 2.35062 3.90968 2.43062C3.90968 2.51062 3.88968 2.63062 3.69968 2.80062L3.37968 3.12063C3.26968 3.24062 3.13968 3.37062 2.96968 3.51062L2.94968 3.53062L2.92968 3.56062C2.83968 3.68062 2.82968 3.79062 2.87968 3.95062L2.88968 3.99062L2.89968 4.03062C3.06968 4.40062 3.27968 4.74062 3.57968 5.12062C4.19968 5.88062 4.81968 6.45062 5.47968 6.86062L5.50968 6.88062C5.58968 6.92062 5.66968 6.96062 5.73968 7.00062C5.76968 7.03062 5.80968 7.05062 5.83968 7.06062C5.87968 7.08062 5.90968 7.09062 5.92968 7.11062L5.99968 7.16062H6.01968L6.04968 7.17062C6.10968 7.19062 6.14968 7.19062 6.17968 7.19062C6.27968 7.19062 6.36968 7.15062 6.45968 7.06062L7.20968 6.31062C7.32968 6.19062 7.43968 6.14062 7.57968 6.14062C7.72968 6.14062 7.86968 6.23062 7.94968 6.31062L9.16968 7.53062C9.40968 7.77062 9.41968 8.02062 9.16968 8.28062Z" fill="black"/>
</svg>
