<svg 
 xmlns="http://www.w3.org/2000/svg"
 xmlns:xlink="http://www.w3.org/1999/xlink"
 width="1920px" height="630px">
 <defs>
 	<radialGradient id="rgrad1" cy="20%" fx="50%" fy="20%">
 		<stop offset="30%" style="stop-color:rgb(221,165,30);stop-opacity:1" />
 		<stop offset="100%" style="stop-color:rgb(184,127,27);stop-opacity:1" />
 	</radialGradient>
 </defs>
<path fill-rule="evenodd"  fill="url('#rgrad1')"
 d="M1.000,545.000 C176.674,574.395 450.658,621.325 618.048,628.121 C706.918,631.729 786.905,629.624 849.819,619.122 C976.148,598.034 1139.584,558.369 1311.395,536.658 C1518.975,510.427 1739.633,510.395 1921.000,601.000 C1921.000,520.165 1921.000,493.122 1921.000,446.000 C1843.425,366.272 1752.492,285.791 1648.100,215.684 C1437.985,74.576 1176.856,-25.006 878.023,5.657 C771.650,16.572 590.124,67.000 478.000,122.000 C139.882,287.855 1.000,302.000 1.000,302.000 C1.000,302.000 0.000,330.733 1.000,427.000 C1.000,494.323 1.000,526.806 1.000,545.000 Z"/>
</svg>