<svg width="34" height="34" viewBox="0 0 34 34" fill="none" xmlns="http://www.w3.org/2000/svg">
<path d="M16.9031 2.95262L16.0952 3.83047C16.3153 4.03276 16.6034 4.14501 16.9023 4.14501C17.2012 4.14501 17.4893 4.03276 17.7094 3.83047L16.9031 2.95262ZM14.6623 11.0473C13.565 10.2474 12.3946 9.27412 11.5103 8.24836C10.5975 7.19081 10.1443 6.25411 10.1443 5.51144H7.75879C7.75879 7.12878 8.67799 8.61891 9.70374 9.80687C10.7581 11.0282 12.0908 12.124 13.2581 12.9748L14.6623 11.0473ZM10.1443 5.51144C10.1443 3.82729 10.9712 2.86674 11.9668 2.53278C13.0036 2.18291 14.5494 2.40873 16.0952 3.83047L17.7094 2.07477C15.6785 0.20774 13.2517 -0.415663 11.2066 0.271352C9.11851 0.974271 7.75879 2.93672 7.75879 5.51144H10.1443ZM20.5481 12.9748C21.7154 12.1255 23.0481 11.0282 24.1024 9.80687C25.1282 8.61891 26.0474 7.12878 26.0474 5.51144H23.6619C23.6619 6.25411 23.2103 7.19081 22.2958 8.24836C21.4116 9.27412 20.2412 10.2474 19.1438 11.0473L20.5481 12.9748ZM26.0474 5.51144C26.0474 2.93672 24.6877 0.974271 22.6012 0.271352C20.556 -0.415663 18.1276 0.20774 16.0968 2.07477L17.7094 3.83047C19.2568 2.40873 20.8041 2.18291 21.841 2.53278C22.835 2.86674 23.6619 3.82729 23.6619 5.51144H26.0474ZM13.2581 12.9748C14.4588 13.8494 15.4114 14.5937 16.9031 14.5937V12.2082C16.3226 12.2082 16.0046 12.0254 14.6623 11.0473L13.2581 12.9748ZM19.1423 11.0473C17.8016 12.0254 17.4836 12.2082 16.9031 12.2082V14.5937C18.3948 14.5937 19.3474 13.851 20.5481 12.9748L19.1438 11.0473H19.1423Z" fill="#00CB14"/>
<path d="M5.77051 30.4366H9.36462C10.9708 30.4366 12.5977 30.6052 14.161 30.9264C16.952 31.4998 19.8237 31.5634 22.6374 31.1141C24.0178 30.8914 25.3727 30.5495 26.6004 29.9579C27.7073 29.422 29.0638 28.6698 29.9751 27.8253C30.8847 26.9824 31.8326 25.6036 32.5037 24.5254C33.0825 23.5998 32.8027 22.4659 31.8898 21.7773C31.3769 21.4042 30.7589 21.2032 30.1246 21.2032C29.4903 21.2032 28.8723 21.4042 28.3593 21.7773L25.4856 23.9481C24.3724 24.791 23.1558 25.5655 21.707 25.7961C21.5321 25.8231 21.3492 25.8485 21.1584 25.8708M21.1584 25.8708C21.1001 25.8776 21.0418 25.8839 20.9834 25.8899M21.1584 25.8708C21.4129 25.802 21.6463 25.6708 21.8374 25.4891C22.0771 25.2818 22.2728 25.0286 22.413 24.7444C22.5532 24.4602 22.635 24.1509 22.6537 23.8345C22.6724 23.5182 22.6275 23.2014 22.5217 22.9027C22.4159 22.604 22.2514 22.3295 22.0378 22.0954C21.8306 21.8653 21.5892 21.6685 21.3222 21.5118C16.8741 18.8575 9.95144 20.8788 5.77051 23.8447M21.1584 25.8708C21.1009 25.8833 21.0423 25.8897 20.9834 25.8899M20.9834 25.8899C20.0244 25.9863 19.0581 25.9884 18.0986 25.8963" stroke="#00CB14" stroke-width="1.5" stroke-linecap="round"/>
<path d="M5.77094 22.6628C5.77094 21.3454 4.70293 20.2773 3.38547 20.2773C2.06801 20.2773 1 21.3454 1 22.6628V30.6144C1 31.9318 2.06801 32.9999 3.38547 32.9999C4.70293 32.9999 5.77094 31.9318 5.77094 30.6144V22.6628Z" stroke="#00CB14" stroke-width="1.5"/>
</svg>
