<svg width="30" height="33" viewBox="0 0 30 33" fill="none" xmlns="http://www.w3.org/2000/svg">
<path d="M13.7793 0.210591C14.4346 -0.034587 15.1506 -0.0665503 15.8251 0.119261L16.1108 0.210591L27.7347 4.56956C28.3241 4.79057 28.8385 5.17452 29.2181 5.67666C29.5976 6.17881 29.8267 6.77849 29.8785 7.4058L29.8901 7.6798V16.5854C29.89 19.2762 29.1635 21.9171 27.7872 24.2293C26.4109 26.5415 24.4358 28.4392 22.0705 29.7221L21.6288 29.9529L16.0593 32.7377C15.7526 32.8908 15.4177 32.979 15.0754 32.9967C14.733 33.0144 14.3908 32.9613 14.0699 32.8406L13.8308 32.7377L8.26129 29.9529C5.85449 28.7495 3.81726 26.9185 2.36465 24.6534C0.912035 22.3883 0.0979408 19.773 0.008303 17.0836L0 16.5854V7.6798C9.65625e-06 7.05066 0.178721 6.43446 0.515328 5.90295C0.851936 5.37143 1.33259 4.94646 1.90134 4.6775L2.15541 4.56956L13.7793 0.210591ZM14.9451 3.32082L3.32112 7.6798V16.5854C3.32116 18.6694 3.88148 20.7151 4.94342 22.5082C6.00535 24.3014 7.52984 25.7761 9.35726 26.7779L9.74749 26.9822L14.9451 29.5809L20.1426 26.9822C22.007 26.0502 23.5864 24.634 24.7156 22.882C25.8447 21.13 26.482 19.1066 26.5607 17.0238L26.569 16.5854V7.6798L14.9451 3.32082ZM20.6458 10.8946C20.9446 10.5968 21.3456 10.4239 21.7673 10.411C22.189 10.3982 22.5998 10.5463 22.9162 10.8253C23.2327 11.1043 23.431 11.4934 23.471 11.9134C23.511 12.3333 23.3897 12.7528 23.1316 13.0866L22.9938 13.2427L14.3024 21.9357C13.9858 22.2523 13.564 22.4415 13.1171 22.4675C12.6701 22.4936 12.2292 22.3545 11.878 22.0769L11.7186 21.9357L7.72659 17.9437C7.42561 17.6456 7.24996 17.2437 7.23559 16.8203C7.22123 16.3969 7.36923 15.984 7.64932 15.6661C7.9294 15.3483 8.32038 15.1495 8.74223 15.1105C9.16408 15.0714 9.58489 15.1951 9.91853 15.4562L10.0746 15.594L13.0105 18.5299L20.6458 10.8946Z" fill="#00CB14"/>
</svg>
