<svg width="39" height="30" viewBox="0 0 39 30" fill="none" xmlns="http://www.w3.org/2000/svg">
<path d="M3.8 22.0001C5.3464 22.0001 6.6 20.1197 6.6 17.8001C6.6 15.4805 5.3464 13.6001 3.8 13.6001C2.2536 13.6001 1 15.4805 1 17.8001C1 20.1197 2.2536 22.0001 3.8 22.0001Z" stroke="#00CB14" stroke-width="2" stroke-linecap="round" stroke-linejoin="round"/>
<path d="M12.2004 9.4C13.7468 9.4 15.0004 7.5196 15.0004 5.2C15.0004 2.8804 13.7468 1 12.2004 1C10.654 1 9.40039 2.8804 9.40039 5.2C9.40039 7.5196 10.654 9.4 12.2004 9.4Z" stroke="#00CB14" stroke-width="2" stroke-linecap="round" stroke-linejoin="round"/>
<path d="M26.2004 9.4C27.7468 9.4 29.0004 7.5196 29.0004 5.2C29.0004 2.8804 27.7468 1 26.2004 1C24.654 1 23.4004 2.8804 23.4004 5.2C23.4004 7.5196 24.654 9.4 26.2004 9.4Z" stroke="#00CB14" stroke-width="2" stroke-linecap="round" stroke-linejoin="round"/>
<path d="M34.5998 22.0001C36.1462 22.0001 37.3998 20.1197 37.3998 17.8001C37.3998 15.4805 36.1462 13.6001 34.5998 13.6001C33.0534 13.6001 31.7998 15.4805 31.7998 17.8001C31.7998 20.1197 33.0534 22.0001 34.5998 22.0001Z" stroke="#00CB14" stroke-width="2" stroke-linecap="round" stroke-linejoin="round"/>
<path d="M27.5998 23.4001C27.5998 27.2641 23.0638 29.0001 19.1998 29.0001C15.3358 29.0001 10.7998 27.2641 10.7998 23.4001C10.7998 19.5361 13.5998 13.6001 19.1998 13.6001C24.7998 13.6001 27.5998 19.5361 27.5998 23.4001Z" stroke="#00CB14" stroke-width="2" stroke-linecap="round" stroke-linejoin="round"/>
</svg>
