<svg width="42" height="33" viewBox="0 0 42 33" fill="none" xmlns="http://www.w3.org/2000/svg">
<path d="M7.5 8C7.5 6.54131 8.07946 5.14236 9.11091 4.11091C10.1424 3.07946 11.5413 2.5 13 2.5C14.4587 2.5 15.8576 3.07946 16.8891 4.11091C17.9205 5.14236 18.5 6.54131 18.5 8C18.5 9.45869 17.9205 10.8576 16.8891 11.8891C15.8576 12.9205 14.4587 13.5 13 13.5C11.5413 13.5 10.1424 12.9205 9.11091 11.8891C8.07946 10.8576 7.5 9.45869 7.5 8ZM13 0C10.8783 0 8.84344 0.842855 7.34314 2.34315C5.84285 3.84344 5 5.87827 5 8C5 10.1217 5.84285 12.1566 7.34314 13.6569C8.84344 15.1571 10.8783 16 13 16C15.1217 16 17.1566 15.1571 18.6569 13.6569C20.1571 12.1566 21 10.1217 21 8C21 5.87827 20.1571 3.84344 18.6569 2.34315C17.1566 0.842855 15.1217 0 13 0ZM27.5 10C27.5 9.07174 27.8687 8.1815 28.5251 7.52513C29.1815 6.86875 30.0717 6.5 31 6.5C31.9283 6.5 32.8185 6.86875 33.4749 7.52513C34.1312 8.1815 34.5 9.07174 34.5 10C34.5 10.9283 34.1312 11.8185 33.4749 12.4749C32.8185 13.1313 31.9283 13.5 31 13.5C30.0717 13.5 29.1815 13.1313 28.5251 12.4749C27.8687 11.8185 27.5 10.9283 27.5 10ZM31 4C29.4087 4 27.8826 4.63214 26.7574 5.75736C25.6321 6.88258 25 8.4087 25 10C25 11.5913 25.6321 13.1174 26.7574 14.2426C27.8826 15.3679 29.4087 16 31 16C32.5913 16 34.1174 15.3679 35.2426 14.2426C36.3679 13.1174 37 11.5913 37 10C37 8.4087 36.3679 6.88258 35.2426 5.75736C34.1174 4.63214 32.5913 4 31 4ZM31 31C28.824 31 27.078 30.648 25.684 30.078L25.87 29.838C26.364 29.187 26.743 28.535 27.033 27.917C28.053 28.272 29.349 28.5 30.999 28.5C35.275 28.5 37.172 26.967 38.062 25.669C38.5688 24.9232 38.8863 24.0651 38.987 23.169C38.9927 23.1105 38.9967 23.0518 38.999 22.993V22.75C38.999 22.06 38.439 21.5 37.749 21.5H27.863C27.6576 20.5758 27.2264 19.7169 26.608 19H37.75C38.7446 19 39.6984 19.3951 40.4016 20.0984C41.1049 20.8016 41.5 21.7554 41.5 22.75V23.047L41.497 23.133C41.493 23.203 41.487 23.297 41.477 23.412C41.3352 24.7278 40.8712 25.9883 40.126 27.082C38.701 29.157 35.973 31 30.998 31H31ZM3.75 19C2.75544 19 1.80161 19.3951 1.09835 20.0984C0.395088 20.8016 0 21.7554 0 22.75V24.053L0.00399995 24.15C0.00799995 24.23 0.016 24.336 0.03 24.468C0.059 24.73 0.114 25.09 0.222 25.518C0.508589 26.6453 1.01868 27.7036 1.722 28.63C3.479 30.946 6.826 33 13 33C19.175 33 22.522 30.946 24.277 28.63C24.9808 27.7033 25.4912 26.6447 25.778 25.517C25.886 25.09 25.941 24.73 25.97 24.467C25.9851 24.3294 25.9951 24.1913 26 24.053V22.75C26 22.2575 25.903 21.7699 25.7145 21.3149C25.5261 20.86 25.2499 20.4466 24.9017 20.0984C24.5534 19.7501 24.14 19.4739 23.6851 19.2855C23.2301 19.097 22.7425 19 22.25 19H3.75ZM2.501 24.024L2.5 23.992V22.75C2.5 22.06 3.06 21.5 3.75 21.5H22.25C22.94 21.5 23.5 22.06 23.5 22.75V23.992L23.499 24.024C23.4763 24.3209 23.4282 24.6153 23.355 24.904C23.1503 25.7069 22.7864 26.4604 22.285 27.12C21.103 28.68 18.575 30.5 13 30.5C7.425 30.5 4.897 28.68 3.715 27.12C3.21365 26.4607 2.84979 25.7075 2.645 24.905C2.57184 24.616 2.52366 24.3213 2.501 24.024Z" fill="#00CB14"/>
</svg>
