<svg width="36" height="36" viewBox="0 0 36 36" fill="none" xmlns="http://www.w3.org/2000/svg">
<path fill-rule="evenodd" clip-rule="evenodd" d="M18 34C26.837 34 34 26.837 34 18C34 9.163 26.837 2 18 2C9.163 2 2 9.163 2 18C2 26.837 9.163 34 18 34ZM18 36C27.941 36 36 27.941 36 18C36 8.059 27.941 0 18 0C8.059 0 0 8.059 0 18C0 27.941 8.059 36 18 36Z" fill="#00CB14"/>
<path fill-rule="evenodd" clip-rule="evenodd" d="M10.6954 22C12.2504 25.832 15.1154 28 18.0004 28C20.8864 28 23.7504 25.832 25.3054 22H10.6954ZM18.0004 30C13.9624 30 10.4624 26.952 8.74245 22.5C8.72561 22.4571 8.70895 22.4141 8.69245 22.371C8.24645 21.18 9.20045 20 10.4734 20H25.5284C26.8014 20 27.7564 21.18 27.3084 22.371C27.2923 22.4141 27.2759 22.4571 27.2594 22.5C25.5384 26.952 22.0384 30 18.0004 30Z" fill="#00CB14"/>
<path d="M15.3019 16.4419C15.4319 16.0839 15.3929 15.6469 15.2859 15.2489C15.1571 14.7906 14.9508 14.3577 14.6759 13.9689C14.0949 13.1399 13.1319 12.3789 11.8309 12.3229C10.4839 12.2669 9.47789 13.1219 8.85789 14.0289C8.56011 14.4655 8.32609 14.9423 8.16289 15.4449C8.01989 15.8909 7.94389 16.3469 7.99389 16.7119C8.00538 16.7951 8.03766 16.8741 8.08773 16.9416C8.13781 17.009 8.20408 17.0628 8.28042 17.0979C8.35675 17.1329 8.4407 17.1482 8.5245 17.1423C8.6083 17.1364 8.68926 17.1094 8.75989 17.0639C9.15989 16.8079 9.57889 16.4569 9.96689 16.1329C10.1429 15.9849 10.3139 15.8429 10.4719 15.7179C11.0339 15.2739 11.4719 15.0209 11.8339 15.0029C12.1789 14.9859 12.5769 15.1829 13.0789 15.5589C13.2589 15.6929 13.4329 15.8349 13.6129 15.9829L13.8079 16.1419C14.0519 16.3389 14.3119 16.5409 14.5739 16.6989C14.6371 16.737 14.7079 16.7607 14.7814 16.7682C14.8548 16.7757 14.929 16.7668 14.9985 16.7422C15.0681 16.7177 15.1314 16.678 15.1839 16.6261C15.2363 16.5742 15.2766 16.5113 15.3019 16.4419ZM20.6129 16.4419C20.4829 16.0839 20.5229 15.6469 20.6299 15.2489C20.7419 14.8329 20.9489 14.3859 21.2399 13.9689C21.8199 13.1399 22.7839 12.3789 24.0849 12.3229C25.4309 12.2669 26.4379 13.1219 27.0579 14.0289C27.3719 14.4889 27.6059 14.9869 27.7529 15.4449C27.8949 15.8909 27.9709 16.3469 27.9209 16.7119C27.9093 16.795 27.877 16.8738 27.827 16.9411C27.777 17.0085 27.7109 17.0621 27.6347 17.0972C27.5585 17.1322 27.4747 17.1476 27.391 17.1417C27.3074 17.1359 27.2265 17.1092 27.1559 17.0639C26.7559 16.8079 26.3359 16.4569 25.9489 16.1329C25.7824 15.9924 25.614 15.854 25.4439 15.7179C24.8809 15.2739 24.4439 15.0209 24.0809 15.0029C23.7359 14.9859 23.3379 15.1829 22.8369 15.5589C22.6569 15.6929 22.4829 15.8349 22.3029 15.9829L22.1069 16.1419C21.8646 16.3444 21.609 16.5305 21.3419 16.6989C21.2787 16.7372 21.2077 16.761 21.1342 16.7686C21.0606 16.7762 20.9863 16.7674 20.9166 16.7428C20.8469 16.7182 20.7835 16.6785 20.731 16.6265C20.6785 16.5744 20.6381 16.5114 20.6129 16.4419Z" fill="#00CB14"/>
</svg>
