<svg width="33" height="33" viewBox="0 0 33 33" fill="none" xmlns="http://www.w3.org/2000/svg">
<path d="M26.889 6.96319C26.8224 6.93313 26.769 6.87979 26.739 6.8132C25.894 4.79481 24.4712 3.0712 22.6494 1.85898C20.8277 0.646751 18.6882 0 16.5 0C14.3117 0 12.1723 0.646751 10.3506 1.85898C8.52882 3.0712 7.10603 4.79481 6.26102 6.8132C6.23096 6.87979 6.17762 6.93313 6.11102 6.96319C4.29449 7.80396 2.75502 9.14471 1.67279 10.8285C0.590563 12.5123 0.0103425 14.4695 3.66721e-05 16.4711C-0.0149633 22.1317 4.57353 26.8504 10.23 27.0004C12.1063 27.0526 13.9617 26.5965 15.6 25.6805V32.1001C15.6 32.3387 15.6948 32.5676 15.8636 32.7364C16.0324 32.9052 16.2613 33 16.5 33C16.7387 33 16.9676 32.9052 17.1364 32.7364C17.3052 32.5676 17.4 32.3387 17.4 32.1001V25.6775C18.9588 26.5476 20.7148 27.0031 22.5 27.0004H22.7715C28.4265 26.8504 33.015 22.1347 33 16.4741C32.9899 14.4721 32.4098 12.5144 31.3275 10.8301C30.2453 9.14576 28.7057 7.80448 26.889 6.96319ZM22.725 25.2005C20.9296 25.2508 19.1631 24.7401 17.6715 23.7396C17.5846 23.6833 17.4939 23.6332 17.4 23.5896V17.065L24.102 13.7143C24.3156 13.6076 24.4781 13.4205 24.5538 13.1941C24.6295 12.9677 24.6121 12.7204 24.5055 12.5068C24.3989 12.2932 24.2118 12.1307 23.9853 12.055C23.7589 11.9794 23.5116 11.9967 23.298 12.1034L17.4 15.0447V10.5015C17.4 10.2628 17.3052 10.0339 17.1364 9.8651C16.9676 9.69633 16.7387 9.60152 16.5 9.60152C16.2613 9.60152 16.0324 9.69633 15.8636 9.8651C15.6948 10.0339 15.6 10.2628 15.6 10.5015V18.6444L9.70201 15.6956C9.48838 15.589 9.24115 15.5716 9.0147 15.6473C8.78825 15.723 8.60113 15.8855 8.49452 16.0991C8.3879 16.3127 8.37052 16.5599 8.44619 16.7864C8.52186 17.0128 8.68439 17.1999 8.89802 17.3065L15.6 20.6573V23.5821C15.5061 23.6257 15.4154 23.6758 15.3285 23.7321C13.8381 24.7359 12.0713 25.2493 10.275 25.2005C8.30988 25.1509 6.41947 24.4373 4.91182 23.176C3.40417 21.9146 2.36814 20.1799 1.97256 18.2545C1.57698 16.3291 1.84516 14.3264 2.73341 12.5729C3.62166 10.8194 5.07761 9.41835 6.86402 8.59808C7.34134 8.37784 7.71869 7.9866 7.92152 7.50165C8.62954 5.81065 9.8216 4.36661 11.3479 3.35102C12.8742 2.33543 14.6667 1.79359 16.5 1.79359C18.3333 1.79359 20.1258 2.33543 21.6521 3.35102C23.1784 4.36661 24.3705 5.81065 25.0785 7.50165C25.2819 7.98547 25.6592 8.37556 26.136 8.59508C27.9241 9.41441 29.3817 10.8154 30.2712 12.5696C31.1607 14.3237 31.4294 16.3275 31.0337 18.254C30.638 20.1806 29.6011 21.9161 28.0921 23.1777C26.5832 24.4392 24.6913 25.1523 22.725 25.2005Z" fill="#1CB403"/>
</svg>
