<svg xmlns="http://www.w3.org/2000/svg">

	<symbol id="i-logo-icon" viewBox="0 0 314 316">
		<path d="M290.5 106.125c3.15 2.363 4.213 4.158 5.5 7.875.5 3.625.5 3.625 0 7-3.512 3.391-7.064 5.015-11.621 6.656-.622.23-1.245.458-1.886.694a841.995 841.995 0 0 1-5.93 2.15c-1.976.711-3.95 1.426-5.92 2.15-1.79.657-3.585 1.304-5.38 1.95-6.208 2.6-6.208 2.6-10.402 7.593l-.552 2.483-.669 2.94c-1.437 7.6-2.73 15.22-3.94 22.858-2.98 18.69-2.98 18.69-6.7 22.526-3.79 2.522-7.808 4.249-12 6l-3.85 1.66a780.355 780.355 0 0 1-10.672 4.46 1896.96 1896.96 0 0 0-7.035 2.914c-7.028 2.92-14.062 5.822-21.126 8.656a1711.59 1711.59 0 0 0-8.347 3.388 400.057 400.057 0 0 1-3.872 1.544c-17.879 7.025-29.315 18.755-40.8 33.69-1.817 2.363-3.652 4.713-5.486 7.063A5968.33 5968.33 0 0 0 127 266c-2-1-2-1-2.594-2.759l-.476-2.292-.53-2.539c-4.408-22.891-4.408-22.891.632-30.615 1.887-2.685 3.902-5.247 5.968-7.795l2.043-2.648c13.495-16.216 36.812-22.903 55.865-30.115A2619.84 2619.84 0 0 0 199 183l2.355-.898c2.322-.89 4.637-1.8 6.95-2.715l2.12-.805c5.079-2.04 8.957-4.375 11.485-9.385 1.905-4.747 2.923-9.62 3.809-14.642l.886-4.762c.45-2.466.898-4.932 1.343-7.399.437-2.406.885-4.81 1.333-7.214l.389-2.217c.963-5.137 1.965-10.155 6.285-13.458 7.487-3.426 15.183-6.144 22.982-8.755 1.327-.45 2.653-.9 3.979-1.352 18.362-6.237 18.362-6.237 27.584-3.273zM147.531 86.293l2.16 1.095c1.326.676 2.65 1.359 3.97 2.049 12.454 6.383 21.66 4.06 34.398-.03L192.375 88c2.174-.698 4.348-1.394 6.523-2.089 1.343-.43 2.685-.863 4.026-1.299 5.184-1.678 9.553-2.78 15.013-2.862l3.09-.078c3.426.378 5.224 1.282 7.973 3.328 2.015 3.022 2.337 3.917 2.438 7.375l.12 2.273c-.852 3.588-2.778 4.97-5.558 7.352-2.648 1.334-5.385 2.246-8.203 3.156l-2.412.817c-2.54.856-5.088 1.692-7.635 2.527-1.664.56-3.329 1.121-4.992 1.684a881.502 881.502 0 0 1-12.34 4.042 950.344 950.344 0 0 0-4.829 1.56c-2.29.743-4.587 1.466-6.886 2.183l-2.048.672c-7.08 2.15-12.34.8-18.866-2.301l-3.5-1.645-3.664-1.757-3.77-1.78c-3.623-1.708-7.24-3.432-10.855-5.158-2.58-1.227-5.16-2.453-7.74-3.676a717.526 717.526 0 0 1-4.11-1.963c-9.661-4.607-18.476-6.229-28.838-2.736-18.593 7.651-26.217 23.27-33.787 40.867l-1.255 2.852-1.107 2.568C58 146 58 146 55 148c-2.907.271-2.907.271-6.426.309l-3.853.076c-2.677.038-5.354.066-8.032.094l-3.865.08-3.528.04c-3.762.458-6.122 1.335-9.296 3.401-1.537 2.207-1.537 2.207-2.414 4.816l-1.117 2.815-1.094 2.931a468.087 468.087 0 0 1-2.227 5.754l-.963 2.577C10.766 173.416 9.744 174.139 7 175c-2.784-1.193-4.491-2.321-6.313-4.75-3.028-9.913 1.937-20.842 5.813-29.875l.899-2.119c1.54-3.46 2.381-5.11 5.601-7.256 2.648-.18 2.648-.18 5.805-.09l3.457.06c2.4.062 4.802.127 7.203.196l3.465.057 3.163.086c3.38-.36 5.189-1.304 7.907-3.309 1.676-2.432 1.676-2.432 2.938-5.313l1.542-3.242a193.568 193.568 0 0 0 2.883-6.89C59.546 91.949 74.026 80.817 94 72c19.04-5.455 37.148 5.969 53.531 14.293z"/><path d="m133 32.188 6.09 2.945 3.019 1.466c4.142 2.007 8.294 3.992 12.453 5.964l2.034.975c11.846 5.61 19.623 4.743 31.966 1.4l3.58-.942c5.815-1.55 11.585-3.192 17.319-5.02l3.06-.972c1.878-.606 3.75-1.228 5.616-1.87 7.67-2.496 15.682-3.601 23.425-.884 3.635 2.61 5.177 4.217 5.938 8.688-.69 4.228-2.205 5.341-5.5 8.062-3.01 1.418-6.117 2.381-9.297 3.348l-2.781.884c-2.97.939-5.945 1.854-8.922 2.768a8977.83 8977.83 0 0 0-5.975 1.87 1500.859 1500.859 0 0 1-15.195 4.64c-2.077.625-4.151 1.256-6.224 1.893-3.058.94-6.12 1.862-9.184 2.78l-2.775.862c-10.761 3.178-17.268 2.324-27.229-2.822l-2.96-1.473a1230.736 1230.736 0 0 1-9.27-4.688 3852.018 3852.018 0 0 0-9.325-4.676c-1.93-.967-3.856-1.94-5.78-2.918l-2.64-1.335-2.314-1.178c-10.602-4.758-22.564-1.567-33.177 1.56-2.076.61-4.159 1.186-6.245 1.758-15.257 4.304-26.348 10.248-34.36 24.22a193.186 193.186 0 0 0-3.597 7.07C43 90 43 90 41 91c-2.875.375-2.875.375-6 0-3.645-3.645-5.136-6.955-5.313-12.063.167-11.456 7.862-22.96 15.422-31.128 11.054-10.574 27.059-13.587 41.426-17.404 2.491-.662 4.98-1.334 7.469-2.007l4.808-1.289c.735-.198 1.47-.395 2.226-.6 13.183-3.489 20.022-.174 31.962 5.678zM159.313 153.75c3.973 3.327 5.478 5.576 6.125 10.75-.543 4.34-1.318 5.436-4.438 8.5-3.371 1.841-6.892 3.279-10.438 4.75-16.789 7.311-27.97 15.916-37.687 31.625l-1.512 2.383A277.962 277.962 0 0 0 107 219l-1.48 2.478-1.387 2.499-1.246 2.197c-2.449 7.8-.52 16.154.968 23.986.38 2.114.758 4.228 1.135 6.342.597 3.289 1.2 6.576 1.818 9.86.598 3.2 1.169 6.405 1.735 9.61l.577 2.946c1.351 7.818.114 13.273-3.882 20.086C94.525 313.237 94.525 313.237 89 316c-2.938.313-2.938.313-6 0-3.414-3.297-4.151-7.396-4.5-12 .01-5.699 2.878-9.718 5.871-14.398 6.605-10.55 1.031-25.648-1.38-36.92-4.63-21.815-1.634-33.705 9.384-53.307l1.922-3.484C105.81 175.259 120.157 159.626 143 152c5.985-1.47 10.886-1.117 16.313 1.75zM87 144c3.57 4.632 4.696 9.54 4.356 15.316-1.268 9.552-7.183 18.614-11.481 27.121l-2.02 4.02a1158.668 1158.668 0 0 1-12.487 24.159 375.803 375.803 0 0 0-5.579 10.845l-1.076 2.19c-.653 1.335-1.3 2.673-1.94 4.015C54.576 236.175 52.12 240.088 49 244c-3.313.938-3.313.938-6 1-4.104-4.899-5.35-8.223-5.264-14.511.464-4.375 2.191-8.085 4.014-12.052l1.211-2.729c4.058-9.012 8.515-17.828 12.984-26.642 3.018-5.962 5.928-11.972 8.805-18.004l1.37-2.86c2.12-4.44 4.202-8.892 6.204-13.386l1.09-2.412a273.072 273.072 0 0 0 1.95-4.443c2.133-4.724 2.133-4.724 4.702-5.934 2.967-.042 4.383.379 6.934 1.973zM226.25 224.879c4.6 1.875 9.148 2.922 14.002 1.428 2.247-1.014 4.4-2.12 6.56-3.307a338.67 338.67 0 0 1 4.395-2.313l1.921-1.05c2.318-.789 3.591-.42 5.872.363-2.348 8.668-9.375 12.345-16.816 16.617-6.034 3.038-11.44 4.625-18.184 3.383-2.862-1.063-5.387-2.437-8-4-4.518-2.637-8.014-2.053-13-1-2.715.895-5.242 2.067-7.813 3.313-1.55.72-3.1 1.437-4.652 2.152l-2.605 1.206c-5.89 2.671-11.854 5.174-17.805 7.704a7006.28 7006.28 0 0 0-7.242 3.086l-3.144 1.337c-2.684 1.137-2.684 1.137-4.966 2.384-2.286 1.055-3.453.646-5.773-.182 11.453-13.847 24.822-21.872 41.076-29.027 1.953-.86 3.902-1.733 5.85-2.606 12.2-5.43 18.441-6.44 30.324.512z"/><path d="m206.563 243.375 2.378.273C211 244 211 244 213 245c-.247 2.36-.247 2.36-1 5-1.759 1.299-1.759 1.299-4.05 2.246l-2.539 1.086-2.724 1.106c-1.846.798-3.693 1.598-5.539 2.398a414.631 414.631 0 0 1-8.546 3.516c-11.719 5.087-20.434 15.305-29.192 24.336-11.365 11.715-23.398 17.958-38.375 24.37l-2.644 1.135C116 311 116 311 112 311c0-3.039.41-5.231 2.285-7.676 4.91-4.694 10.596-7.376 16.646-10.277 9.764-4.74 17.603-11.313 25.518-18.68 2.771-2.571 5.629-5.02 8.508-7.469 2.146-1.927 2.146-1.927 4.242-4.421 8.14-9.125 24.505-20.67 37.363-19.102zM306 145c3.242 1.62 5.197 2.942 7.375 5.813.939 3.285 1.043 5.785.625 9.187-3.897 4.892-8.509 6.906-14.125 9.25l-2.457 1.063c-6.71 2.883-12.038 4.348-19.418 3.687-3.724-1.584-5.99-3.482-8-7-1.023-3.435-1.283-5.257 0-8.625 7.493-8.898 24.695-14.658 36-13.375zM36.5 162.438c3.5.562 3.5.562 5.875 2.625 1.924 3.477 3.022 5.99 2.625 9.937-1.094 3.791-2.559 7.381-4.132 10.998-.97 2.238-1.906 4.489-2.845 6.74-.693 1.63-1.388 3.259-2.086 4.887l-.993 2.37c-3.056 6.966-3.056 6.966-6.944 9.005-2.563.438-2.563.438-5 0-3.988-4.13-4.39-8.574-4.33-14.071.633-5.615 2.904-10.632 5.08-15.804l1.344-3.375c5.034-12.288 5.034-12.288 11.406-13.313zM295 185l1 2c-6.4 14.934-28.875 20.503-42.59 26.164a274.33 274.33 0 0 0-8.101 3.484l-3.184 1.415-2.68 1.222c-2.861.837-4.608.523-7.445-.285 1.172-6.512 3.653-9.227 9-13 3.05-1.69 6.195-3.065 9.406-4.418l2.678-1.163c2.8-1.214 5.608-2.41 8.416-3.607a5070.33 5070.33 0 0 0 5.652-2.443c4.226-1.827 8.455-3.645 12.692-5.444 1.397-.6 2.79-1.21 4.175-1.835 3.88-1.737 6.708-2.403 10.981-2.09zM177.313 9.688c3.127 2.69 4.425 4.376 5.687 8.312.19 4.463-.425 7.942-2.563 11.875-3.858 3.363-7.556 5.15-12.746 5.105-5.153-.79-8.513-2.668-11.66-6.847-2.374-4.91-1.778-9.987-.031-15.008 6.32-6.716 13.29-7.524 21.313-3.438zM211 0c4.408 2.164 7.128 4.425 9 9 .58 3.969.41 7.053-1.188 10.75-3.312 4.112-5.978 6.364-11.25 7.188-5.476.382-8.76-1.38-12.875-4.938-2.822-3.345-3.031-6.644-2.968-10.938.598-4.387 3.2-7.108 6.406-9.937C202.443-.565 206.427-.66 211 0zM200.313 137.188c4.285 2.89 6.278 5.284 7.625 10.312.07 3.987-.463 5.428-2.938 8.5-3.304 2.89-5.89 3.916-10.313 4.25-5.596-.38-8.498-2.138-12.562-5.938-2.815-4.387-2.858-6.18-2.125-11.312 4.722-7.757 12.157-8.736 20.313-5.813zM118 115c3.762 1.282 6.37 3.248 8.938 6.313 1.406 3.557 1.595 5.887 1.062 9.687-2.27 3.539-4.065 5.522-7.813 7.438-5.516.973-9.532.437-14.5-2.188-2.862-2.396-4.367-3.757-5.687-7.25-.187-3.166.053-5.967 1-9 5.142-5.274 9.909-5.764 17-5zM263 68c3.308 1.625 5.172 2.956 7.438 5.813.875 3.405.453 5.8-.438 9.187-3.15 4.43-6.45 5.994-11.652 6.914-3.917.143-6.999-.936-10.348-2.914-3.102-2.902-3.832-5.793-4-10 1.192-3.377 2.39-5.428 5-7.875 4.658-1.747 9.09-1.78 14-1.125zM66.07 257.54c3.83.914 5.998 3.173 8.243 6.272 1.022 3.255 1.038 5.793.687 9.188-3.077 5.538-3.077 5.538-6 7-5.864.677-5.864.677-8.758-1.047-2.859-2.348-4.992-4.164-5.515-7.906-.18-4.079-.15-7.202 2.273-10.61 3.363-2.732 4.87-3.23 9.07-2.898zM27.438 99.063C31 100 31 100 33.374 102c2.166 3.999 2.817 7.465 2.625 12-1.27 4.11-2.089 5.505-5.875 7.563C27 122 27 122 24.312 120.874c-3.894-3.158-5.412-5.34-6.187-10.313-.262-3.184-.16-4.482 1.125-7.5 2.658-3.132 4.027-4.075 8.188-4zM261 237c-5.02 11.747-24.719 19.495-35.512 25.004C223 263 223 263 219 263c1.146-4.87 3.86-6.687 7.758-9.406 2.24-1.54 2.24-1.54 4.172-3.25C237.17 245 252.567 234.189 261 237zM152 267c-.42 4.757-2.442 7.938-6 11-8.325 5-8.325 5-12 5 .322-5.318 3.275-8.491 7-12 3.659-2.697 6.335-4 11-4z"/><path d="M190 269c-1.699 6.486-4.858 10.884-10.5 14.375-3.271 1.519-4.98 2.052-8.5 1.625 3.201-7.736 7.323-11.763 14.875-15.375C188 269 188 269 190 269zM282 208c.691 1.75.691 1.75 1 4-3.106 5.08-7.777 9.215-13 12h-4c.105-4.294 1.197-6.627 4.063-9.688 3.672-3.444 7.145-4.883 11.937-6.312zM212 258c.087 3.468-.553 5.483-2.824 8.11-4.492 4.179-8.096 6.855-14.176 7.89.786-5.862 3.801-9.033 8-13 3.365-2.07 5.072-3 9-3z"/>
	</symbol>

	<symbol id="i-logo-text" viewBox="0 0 425 54">
		<path d="M328.603-.35a317.09 317.09 0 0 0 4.533-.082c2.182-.055 4.362-.077 6.544-.091l3.96-.06C347 0 347 0 349.43 2.183c1.74 3.122 2.062 4.868 2.032 8.415l-.012 3.177-.074 3.288-.004 3.298c-.1 9.1-.1 9.1-2.371 12.639-2.405 1.203-4.104 1.203-6.79 1.316l-2.85.127-2.985.12-3.008.13c-2.455.107-4.911.209-7.367.307v4l3.438 1.438C333 42 333 42 334 43c.583 6.177.583 6.177-1.555 9.195-3.364 2.483-5.736 2.372-9.882 2.368l-3.934.066c-4.627-.802-5.816-1.893-8.629-5.629-.708-3.246-.654-6.408-.594-9.719v-2.835c.005-1.973.023-3.947.052-5.92.042-3.016.041-6.03.034-9.046.01-1.92.024-3.84.04-5.761v-2.725c.09-4.787.315-8.13 3.468-11.994 4.5-2.25 10.599-1.31 15.603-1.35zM326 14l-2 4c1.812 2.243 1.812 2.243 4.383 2.195l2.742-.07 2.758-.055L336 20c.681-1.892.681-1.892 1-4-1.787-2.214-1.787-2.214-4.164-2.195l-2.461.07-2.477.055L326 14zM395.25-.594h2.106c1.466.005 2.932.023 4.398.052 2.24.042 4.475.041 6.715.034 10.767.08 10.767.08 13.922 1.85 2.646 2.727 2.736 5.384 2.742 9.002l.004 2.527-.012 2.629.012 2.629-.004 2.527-.004 2.307C425 25 425 25 424 28l1 1c.279 3.075.232 6.164.25 9.25l.063 2.605c.03 4.897-.15 8.15-3.313 12.145-2.042 2.042-6.021 1.276-8.813 1.313l-2.197.087c-3.526.042-5.58-.102-8.47-2.197-2.213-3.207-2.072-5.407-1.52-9.203 2.313-2.89 4.735-3.22 8.25-3.688L413 39v-4l-3.797-.078a4186.81 4186.81 0 0 1-4.953-.172l-2.5-.043c-6.106-.246-6.106-.246-9.3-2.531C390.334 29 390.525 26.72 391 23c1.599-2.178 2.509-2.902 5.177-3.432l2.491-.08 2.705-.107 2.815-.069 2.85-.103c2.32-.082 4.64-.152 6.962-.209v-4l-2.34-.06c-3.49-.095-6.981-.205-10.473-.315l-3.681-.094-3.526-.117-3.253-.095C388 14 388 14 385 12c-.938-3.313-.938-3.313-1-7 2.985-5.21 5.419-5.626 11.25-5.594zM155.125 0c2.952 1.027 3.93 1.654 5.875 4 .773 2.008.773 2.008 1.375 4.125.68 2.098.68 2.098 1.625 3.875 2.424 1.319 2.424 1.319 5 1 3.2-2.133 3.43-2.515 4.5-5.938.97-3.087 1.884-5.069 4.5-7.062 3.32.119 5.896.25 8.692 2.149 2.792 3.951 1.784 9.581 1.754 14.248-.008 2.03.02 4.059.052 6.09l-.002 3.884.006 3.56c-.603 3.69-1.528 4.866-4.502 7.069-3.5.563-3.5.563-7 0-2.313-2.313-2.313-2.313-4-5l-2-3c-3.542-.333-3.542-.333-7 0-2.311 2.311-1.356 8.905-1.43 12.21-.182 4.668-.444 8.065-3.57 11.79-3.375 1.125-3.375 1.125-7 1-2.858-2.008-4.695-3.615-5.467-7.12-.196-2.619-.226-5.192-.197-7.818l-.015-2.902c-.003-2.02.006-4.04.027-6.061.027-3.09 0-6.174-.032-9.263.004-1.966.01-3.932.02-5.898l-.03-2.791c.082-4.533.242-6.546 3.04-10.268C152 0 152 0 155.125 0zM11.25-.531l2.106-.012c1.466-.003 2.932.005 4.398.022 2.24.02 4.475 0 6.715-.026a4400192408.579 4400192408.579 0 0 1 8.203.03C36.522.08 37.723.891 40 4c.58 3.476.538 5.194-1.43 8.145-3.862 2.788-7.54 2.49-12.195 2.543-1.721.042-3.443.087-5.164.136l-2.303.034c-1.994.027-1.994.027-3.908 1.142v23l7 3c2 3 2 3 1.875 6-1.044 3.581-1.656 4.219-4.875 6-3.531.398-3.531.398-7.5.375l-3.969.023C3.794 53.977 2.635 53.563 0 51c-.508-2.118-.508-2.118-.518-4.592l-.038-2.811.025-3.03-.012-3.12c-.003-2.178.005-4.356.022-6.534.02-3.334 0-6.667-.026-10 .003-2.116.008-4.231.016-6.347l-.025-3.024c.092-6.77.092-6.77 2.136-10.17C4.915-.518 7.423-.517 11.25-.53zM239.272-.501c2.156.001 4.309-.04 6.464-.085 1.379-.005 2.757-.008 4.135-.008l3.78-.021C257.902.165 259.397 1.606 262 5c.125 3.625.125 3.625-1 7l-2.537 1.239c-2.843 1.596-2.843 1.596-3.043 5.143-.007 1.391.01 2.782.049 4.173l-.01 2.238c-.013 3.156.031 6.312.07 9.468.021 2.307.012 4.612.002 6.919l.06 2.147c-.02 3.875-.5 5.556-2.894 8.662C250 54 250 54 246.312 54 243 53 243 53 241 50c-.24-2.68-.373-5.266-.414-7.95l-.059-2.34c-.06-2.466-.106-4.932-.152-7.398-.038-1.672-.077-3.345-.117-5.017-.096-4.098-.18-8.196-.258-12.295l-3.14-.043c-1.37-.047-2.74-.095-4.11-.145l-2.066-.017c-3.76-.164-5.403-.529-8.168-3.15C221 9 221 9 221 5.875c2.8-8.052 11.154-6.399 18.272-6.376zM85 1c2.99 2.99 2.973 5.197 3.114 9.392l-.016 3.999-.005 2.135c-.005 2.241-.018 4.483-.03 6.724-.006 1.523-.01 3.047-.014 4.57-.011 3.727-.028 7.453-.049 11.18l3.375.875C95 41 95 41 97 43c.541 5.683.541 5.683 0 8-2.406 2.672-3.937 2.992-7.531 3.434l-3.969.004-3.969.058C78 54 78 54 75.812 52.63c-2.858-4.147-2.383-8.273-2.343-13.195l-.012-3.123c-.003-2.176.005-4.352.022-6.529.02-3.336 0-6.67-.026-10.007.003-2.114.008-4.227.016-6.341l-.025-3.03.038-2.812.01-2.474C74 3 74 3 75.806 1.201 79.098-.6 81.445.144 85 1zM107-.5c3.742.624 4.692 1.529 7 4.5.725 4.126.617 8.233.576 12.417-.013 2.012.02 4.019.059 6.03l-.006 3.862.002 3.525c-.817 4.098-2.384 5.616-5.631 8.166-3.125.063-3.125.063-6-1-4.187-4.191-3.422-8.87-3.459-14.465l.013-2.007a304.52 304.52 0 0 0-.052-6.063l.002-3.871-.006-3.541C100.274 2.33 102.303.283 107-.5zM110 40c2.375 1.625 2.375 1.625 4 4 .563 3 .563 3 0 6-2.414 2.621-4.078 3.798-7.563 4.563C104 54 104 54 101.626 51.937c-2.113-3.82-1.798-5.791-.625-9.937 3.491-2.327 4.892-2.503 9-2zM275 1c2.326 3.489 2.419 4.897 2 9-1.063 2.375-1.063 2.375-3 4-3.438.563-3.438.563-7 0-2.5-2.125-2.5-2.125-4-5 0-3.507.365-5.243 2.625-7.938C269.075-.48 271.4.068 275 1zM396 41c2.327 3.491 2.503 4.892 2 9-1.563 2.438-1.563 2.438-4 4-3.812 0-6.051-.2-9-2.688-1.39-3.212-1.055-5.006 0-8.312 3.255-3.881 6.367-3.201 11-2z"/><path d="M184 40c2.438 1.563 2.438 1.563 4 4 0 3.824-.147 6.056-2.75 8.938C182.505 54.233 181 54.525 178 54c-2.313-1.625-2.313-1.625-4-4-.612-3.672-.487-5.288 1.625-8.375 3.087-2.112 4.703-2.237 8.375-1.625zM344 39.438c3 .562 3 .562 5.438 2.687C351 45 351 45 351 48.125c-1.152 3.311-1.885 4.317-5 5.875-2.5.438-2.5.438-5 0-2.313-1.625-2.313-1.625-4-4-.612-3.672-.487-5.288 1.625-8.375C341 40 341 40 344 39.437zM36 40c2.375 1.625 2.375 1.625 4 4 .61 3.659.445 5.305-1.563 8.438C36 54 36 54 32.438 54 29 53 29 53 27 51.312c-1.377-3.184-.98-5.021 0-8.312 2.302-3.635 4.927-3.582 9-3z"/>
	</symbol>

	<symbol id="i-whatsapp" viewBox="0 0 32 32">
		<path fill="#25D366" d="M17,0C8.7,0,2,6.7,2,15c0,3.4,1.1,6.6,3.2,9.2l-2.1,6.4c-0.1,0.4,0,0.8,0.3,1.1C3.5,31.9,3.8,32,4,32 c0.1,0,0.3,0,0.4-0.1l6.9-3.1C13.1,29.6,15,30,17,30c8.3,0,15-6.7,15-15S25.3,0,17,0z"/>
		<path fill="white" d="M25.7,20.5c-0.4,1.2-1.9,2.2-3.2,2.4C22.2,23,21.9,23,21.5,23c-0.8,0-2-0.2-4.1-1.1c-2.4-1-4.8-3.1-6.7-5.8 L10.7,16C10.1,15.1,9,13.4,9,11.6c0-2.2,1.1-3.3,1.5-3.8c0.5-0.5,1.2-0.8,2-0.8c0.2,0,0.3,0,0.5,0c0.7,0,1.2,0.2,1.7,1.2l0.4,0.8
		c0.3,0.8,0.7,1.7,0.8,1.8c0.3,0.6,0.3,1.1,0,1.6c-0.1,0.3-0.3,0.5-0.5,0.7c-0.1,0.2-0.2,0.3-0.3,0.3c-0.1,0.1-0.1,0.1-0.2,0.2
		c0.3,0.5,0.9,1.4,1.7,2.1c1.2,1.1,2.1,1.4,2.6,1.6l0,0c0.2-0.2,0.4-0.6,0.7-0.9l0.1-0.2c0.5-0.7,1.3-0.9,2.1-0.6
		c0.4,0.2,2.6,1.2,2.6,1.2l0.2,0.1c0.3,0.2,0.7,0.3,0.9,0.7C26.2,18.5,25.9,19.8,25.7,20.5z"/>
	</symbol>

	<symbol id="i-max" viewBox="0 0 42 42">
		<path fill-rule="evenodd" clip-rule="evenodd" d="M21.47 41.88C17.36 41.88 15.45 41.28 12.13 38.88C10.03 41.58 3.37999 43.69 3.08999 40.08C3.08999 37.37 2.48999 35.08 1.80999 32.58C0.999986 29.5 0.0799866 26.07 0.0799866 21.1C0.0799866 9.23 9.81999 0.300003 21.36 0.300003C32.91 0.300003 41.96 9.67 41.96 21.21C41.9786 26.6666 39.8316 31.9076 35.9901 35.7829C32.1486 39.6581 26.9265 41.8509 21.47 41.88ZM21.64 10.56C16.02 10.27 11.64 14.16 10.67 20.26C9.86999 25.31 11.29 31.46 12.5 31.78C13.08 31.92 14.54 30.74 15.45 29.83C16.9547 30.8695 18.707 31.4938 20.53 31.64C23.3293 31.7747 26.0696 30.8057 28.1621 28.9414C30.2545 27.077 31.532 24.4662 31.72 21.67C31.8294 18.868 30.8345 16.1351 28.9494 14.0592C27.0642 11.9833 24.4395 10.7303 21.64 10.57V10.56Z" />
	</symbol>

	<symbol id="i-telegram" viewBox="0 0 48 48">
		<path d="M41.4193 7.30899C41.4193 7.30899 45.3046 5.79399 44.9808 9.47328C44.8729 10.9883 43.9016 16.2908 43.1461 22.0262L40.5559 39.0159C40.5559 39.0159 40.3401 41.5048 38.3974 41.9377C36.4547 42.3705 33.5408 40.4227 33.0011 39.9898C32.5694 39.6652 24.9068 34.7955 22.2086 32.4148C21.4531 31.7655 20.5897 30.4669 22.3165 28.9519L33.6487 18.1305C34.9438 16.8319 36.2389 13.8019 30.8426 17.4812L15.7331 27.7616C15.7331 27.7616 14.0063 28.8437 10.7686 27.8698L3.75342 25.7055C3.75342 25.7055 1.16321 24.0823 5.58815 22.459C16.3807 17.3729 29.6555 12.1786 41.4193 7.30899Z" fill="#24A1DE"/>
	</symbol>

	<symbol id="i-target" viewBox="0 0 37 37">
		<path fill-rule="evenodd"  fill="rgb(220, 255, 132)"
		d="M17.376,18.681 C17.406,17.753 18.277,17.169 19.193,17.505 C21.112,18.201 23.028,18.906 24.944,19.612 C28.625,20.970 32.304,22.328 35.987,23.682 C36.486,23.866 36.865,24.148 36.972,24.692 C37.117,25.427 36.674,26.051 35.899,26.209 C34.674,26.459 33.448,26.704 32.221,26.950 C30.862,27.221 29.504,27.502 28.141,27.755 C27.898,27.801 27.813,27.909 27.770,28.126 C27.346,30.275 26.916,32.426 26.487,34.573 C26.403,35.000 26.324,35.424 26.232,35.848 C26.082,36.539 25.656,36.945 25.042,36.992 C24.453,37.034 23.969,36.679 23.719,36.005 C22.885,33.753 22.054,31.500 21.223,29.249 C20.012,25.962 18.801,22.672 17.594,19.385 C17.509,19.156 17.448,18.918 17.376,18.681 Z"/>
		<path fill-rule="evenodd"  fill="rgb(255, 255, 255)"
		d="M34.308,19.025 C33.596,19.041 33.056,18.509 33.023,17.769 C33.007,17.412 32.997,17.051 32.968,16.692 C32.572,11.908 30.443,8.071 26.531,5.312 C21.138,1.510 14.175,1.570 8.833,5.450 C5.289,8.024 3.212,11.539 2.676,15.898 C1.798,23.029 5.900,29.664 12.664,32.113 C14.202,32.669 15.792,32.961 17.429,32.989 C17.590,32.992 17.753,32.988 17.912,33.006 C18.604,33.100 19.082,33.666 19.047,34.343 C19.012,35.017 18.476,35.525 17.767,35.532 C15.587,35.540 13.467,35.180 11.447,34.365 C5.708,32.049 1.994,27.895 0.510,21.885 C-1.342,14.385 1.960,6.572 8.540,2.573 C11.316,0.886 14.554,-0.017 17.797,-0.008 C26.347,0.013 33.666,6.062 35.232,14.438 C35.433,15.516 35.484,16.627 35.547,17.726 C35.590,18.462 35.018,19.015 34.308,19.025 ZM13.360,15.265 C12.117,17.452 12.677,20.233 14.675,21.780 C14.783,21.864 14.896,21.942 15.005,22.022 C15.593,22.468 15.723,23.222 15.311,23.796 C14.910,24.362 14.154,24.509 13.561,24.103 C11.888,22.969 10.806,21.414 10.357,19.440 C10.231,18.889 10.199,18.318 10.124,17.753 C10.179,14.390 12.366,11.442 15.563,10.472 C18.742,9.511 22.196,10.724 24.058,13.446 C24.312,13.816 24.419,14.205 24.283,14.636 C24.132,15.115 23.803,15.418 23.308,15.502 C22.771,15.592 22.331,15.410 22.017,14.957 C21.409,14.078 20.623,13.420 19.620,13.032 C17.264,12.120 14.608,13.065 13.360,15.265 ZM7.724,16.382 C7.076,21.114 9.787,25.637 14.264,27.294 C14.368,27.332 14.475,27.367 14.578,27.410 C15.243,27.685 15.559,28.367 15.326,29.021 C15.090,29.682 14.388,30.021 13.693,29.785 C11.597,29.066 9.810,27.878 8.328,26.239 C6.242,23.928 5.076,20.866 5.080,17.753 C5.088,11.897 9.126,6.779 14.816,5.416 C21.151,3.898 27.580,7.403 29.761,13.562 C30.036,14.342 29.743,15.050 29.043,15.305 C28.341,15.560 27.669,15.203 27.375,14.425 C26.071,10.972 23.649,8.732 20.058,7.875 C14.262,6.488 8.534,10.469 7.724,16.382 Z"/>
	</symbol>

	<symbol id="i-restart" viewBox="0 0 24 24">
		<path d="M18.537 19.567A9.961 9.961 0 0 1 12 22C6.477 22 2 17.523 2 12S6.477 2 12 2s10 4.477 10 10c0 2.136-.67 4.116-1.81 5.74L17 12h3a8 8 0 1 0-2.46 5.772l.997 1.795z"/>
	</symbol>

	<symbol id="i-shield" viewBox="0 0 24 24">
		<path d="M3.783 2.826L12 1l8.217 1.826a1 1 0 0 1 .783.976v9.987a6 6 0 0 1-2.672 4.992L12 23l-6.328-4.219A6 6 0 0 1 3 13.79V3.802a1 1 0 0 1 .783-.976zM12 11a2.5 2.5 0 1 0 0-5 2.5 2.5 0 0 0 0 5zm-4.473 5h8.946a4.5 4.5 0 0 0-8.946 0z"/>
	</symbol>

	<symbol id="i-sun" viewBox="0 0 24 24">
        <path d="M17 12C17 14.7614 14.7614 17 12 17C9.23858 17 7 14.7614 7 12C7 9.23858 9.23858 7 12 7C14.7614 7 17 9.23858 17 12Z" />
		<path fill-rule="evenodd" clip-rule="evenodd" d="M12 1.25C12.4142 1.25 12.75 1.58579 12.75 2V4C12.75 4.41421 12.4142 4.75 12 4.75C11.5858 4.75 11.25 4.41421 11.25 4V2C11.25 1.58579 11.5858 1.25 12 1.25ZM3.66865 3.71609C3.94815 3.41039 4.42255 3.38915 4.72825 3.66865L6.95026 5.70024C7.25596 5.97974 7.2772 6.45413 6.9977 6.75983C6.7182 7.06553 6.2438 7.08677 5.9381 6.80727L3.71609 4.77569C3.41039 4.49619 3.38915 4.02179 3.66865 3.71609ZM20.3314 3.71609C20.6109 4.02179 20.5896 4.49619 20.2839 4.77569L18.0619 6.80727C17.7562 7.08677 17.2818 7.06553 17.0023 6.75983C16.7228 6.45413 16.744 5.97974 17.0497 5.70024L19.2718 3.66865C19.5775 3.38915 20.0518 3.41039 20.3314 3.71609ZM1.25 12C1.25 11.5858 1.58579 11.25 2 11.25H4C4.41421 11.25 4.75 11.5858 4.75 12C4.75 12.4142 4.41421 12.75 4 12.75H2C1.58579 12.75 1.25 12.4142 1.25 12ZM19.25 12C19.25 11.5858 19.5858 11.25 20 11.25H22C22.4142 11.25 22.75 11.5858 22.75 12C22.75 12.4142 22.4142 12.75 22 12.75H20C19.5858 12.75 19.25 12.4142 19.25 12ZM17.0255 17.0252C17.3184 16.7323 17.7933 16.7323 18.0862 17.0252L20.3082 19.2475C20.6011 19.5404 20.601 20.0153 20.3081 20.3082C20.0152 20.6011 19.5403 20.601 19.2475 20.3081L17.0255 18.0858C16.7326 17.7929 16.7326 17.3181 17.0255 17.0252ZM6.97467 17.0253C7.26756 17.3182 7.26756 17.7931 6.97467 18.086L4.75244 20.3082C4.45955 20.6011 3.98468 20.6011 3.69178 20.3082C3.39889 20.0153 3.39889 19.5404 3.69178 19.2476L5.91401 17.0253C6.2069 16.7324 6.68177 16.7324 6.97467 17.0253ZM12 19.25C12.4142 19.25 12.75 19.5858 12.75 20V22C12.75 22.4142 12.4142 22.75 12 22.75C11.5858 22.75 11.25 22.4142 11.25 22V20C11.25 19.5858 11.5858 19.25 12 19.25Z" />
	</symbol>

	<symbol id="i-moon" viewBox="0 0 24 24">
        <path d="M19.9001 2.30719C19.7392 1.8976 19.1616 1.8976 19.0007 2.30719L18.5703 3.40247C18.5212 3.52752 18.4226 3.62651 18.298 3.67583L17.2067 4.1078C16.7986 4.26934 16.7986 4.849 17.2067 5.01054L18.298 5.44252C18.4226 5.49184 18.5212 5.59082 18.5703 5.71587L19.0007 6.81115C19.1616 7.22074 19.7392 7.22074 19.9001 6.81116L20.3305 5.71587C20.3796 5.59082 20.4782 5.49184 20.6028 5.44252L21.6941 5.01054C22.1022 4.849 22.1022 4.26934 21.6941 4.1078L20.6028 3.67583C20.4782 3.62651 20.3796 3.52752 20.3305 3.40247L19.9001 2.30719Z" />
		<path d="M16.0328 8.12967C15.8718 7.72009 15.2943 7.72009 15.1333 8.12967L14.9764 8.52902C14.9273 8.65407 14.8287 8.75305 14.7041 8.80237L14.3062 8.95987C13.8981 9.12141 13.8981 9.70107 14.3062 9.86261L14.7041 10.0201C14.8287 10.0694 14.9273 10.1684 14.9764 10.2935L15.1333 10.6928C15.2943 11.1024 15.8718 11.1024 16.0328 10.6928L16.1897 10.2935C16.2388 10.1684 16.3374 10.0694 16.462 10.0201L16.8599 9.86261C17.268 9.70107 17.268 9.12141 16.8599 8.95987L16.462 8.80237C16.3374 8.75305 16.2388 8.65407 16.1897 8.52902L16.0328 8.12967Z" />
		<path d="M12 22C17.5228 22 22 17.5228 22 12C22 11.5373 21.3065 11.4608 21.0672 11.8568C19.9289 13.7406 17.8615 15 15.5 15C11.9101 15 9 12.0899 9 8.5C9 6.13845 10.2594 4.07105 12.1432 2.93276C12.5392 2.69347 12.4627 2 12 2C6.47715 2 2 6.47715 2 12C2 17.5228 6.47715 22 12 22Z" />
	</symbol>

	<symbol id="i-bell" viewBox="0 0 24 24">
        <path d="M18.7491 9.70957V9.00497C18.7491 5.13623 15.7274 2 12 2C8.27256 2 5.25087 5.13623 5.25087 9.00497V9.70957C5.25087 10.5552 5.00972 11.3818 4.5578 12.0854L3.45036 13.8095C2.43882 15.3843 3.21105 17.5249 4.97036 18.0229C9.57274 19.3257 14.4273 19.3257 19.0296 18.0229C20.789 17.5249 21.5612 15.3843 20.5496 13.8095L19.4422 12.0854C18.9903 11.3818 18.7491 10.5552 18.7491 9.70957Z" stroke-width="1.5"/>
		<path d="M7.5 19C8.15503 20.7478 9.92246 22 12 22C14.0775 22 15.845 20.7478 16.5 19" stroke-width="1.5" stroke-linecap="round"/>
		<path d="M12 6V10" stroke-width="1.5" stroke-linecap="round"/>
	</symbol>

	<symbol id="i-diagram" viewBox="0 0 64 64">
        <path d="M61.1663 34.9168V23.2502C61.1663 8.66679 55.333 2.8335 40.7497 2.8335H23.2497C8.6663 2.8335 2.833 8.66679 2.833 23.2502V40.7502C2.833 55.3335 8.6663 61.1668 23.2497 61.1668H34.9163" stroke-width="4.375" stroke-linecap="round" stroke-linejoin="round"/>
		<path d="M18.3789 39.2618L25.3206 30.2493C26.3123 28.966 28.1498 28.7327 29.4331 29.7243L34.7706 33.9243C36.054 34.916 37.8914 34.6827 38.8831 33.4285L45.6207 24.7368" stroke-width="4.375" stroke-linecap="round" stroke-linejoin="round"/>
		<path d="M53.8179 43.1412L54.6345 44.8037C55.0429 45.6204 56.0637 46.3787 56.9678 46.5537L58.0762 46.7287C61.4012 47.2829 62.1887 49.7329 59.797 52.1537L58.7762 53.1745C58.1053 53.8745 57.7262 55.2162 57.9304 56.1495L58.0762 56.762C58.9804 60.787 56.8512 62.3328 53.3512 60.2328L52.5928 59.7954C51.6887 59.2704 50.2304 59.2704 49.3262 59.7954L48.5678 60.2328C45.0387 62.362 42.9095 60.787 43.8428 56.762L43.9886 56.1495C44.1928 55.2162 43.8137 53.8745 43.1429 53.1745L42.122 52.1537C39.7303 49.7329 40.5178 47.2829 43.8428 46.7287L44.9512 46.5537C45.8262 46.4079 46.8761 45.6204 47.2845 44.8037L48.1011 43.1412C49.6761 39.962 52.2429 39.962 53.8179 43.1412Z" stroke-width="4.375" stroke-linecap="round" stroke-linejoin="round"/>
	</symbol>

	<symbol id="i-cup" viewBox="0 0 64 64">
        <path d="M32.4385 45.125V51.25" stroke-width="4.375" stroke-linecap="round" stroke-linejoin="round"/>
		<path d="M17.8555 61.1665H47.0221V58.2498C47.0221 55.0415 44.3971 52.4165 41.1888 52.4165H23.6888C20.4805 52.4165 17.8555 55.0415 17.8555 58.2498V61.1665Z" stroke-width="4.375" stroke-miterlimit="10"/>
		<path d="M14.9385 61.1665H49.9385" stroke-width="4.375" stroke-linecap="round" stroke-linejoin="round"/>
		<path d="M31.9997 43.6668C20.7122 43.6668 11.583 34.5377 11.583 23.2502V14.5002C11.583 8.05429 16.8038 2.8335 23.2497 2.8335H40.7497C47.1955 2.8335 52.4163 8.05429 52.4163 14.5002V23.2502C52.4163 34.5377 43.2872 43.6668 31.9997 43.6668Z" stroke-width="4.375" stroke-linecap="round" stroke-linejoin="round"/>
		<path d="M12.9544 30.9797C10.7669 30.2797 8.8419 28.9963 7.3252 27.4797C4.7002 24.563 2.9502 21.063 2.9502 16.9797C2.9502 12.8963 6.1585 9.68799 10.2419 9.68799H12.1377C11.5544 11.0297 11.2627 12.5172 11.2627 14.063V22.813C11.2627 25.7297 11.8752 28.4713 12.9544 30.9797Z" stroke-width="4.375" stroke-linecap="round" stroke-linejoin="round"/>
		<path d="M51.0469 30.9797C53.2344 30.2797 55.1594 28.9963 56.676 27.4797C59.301 24.563 61.051 21.063 61.051 16.9797C61.051 12.8963 57.8427 9.68799 53.7594 9.68799H51.8635C52.4469 11.0297 52.7385 12.5172 52.7385 14.063V22.813C52.7385 25.7297 52.126 28.4713 51.0469 30.9797Z" stroke-width="4.375" stroke-linecap="round" stroke-linejoin="round"/>
	</symbol>

	<symbol id="i-note" viewBox="0 0 64 64">
        <path d="M21.7913 52.4168H20.333C8.66631 52.4168 2.83301 49.5002 2.83301 34.9168V20.3335C2.83301 8.6668 8.66631 2.8335 20.333 2.8335H43.6663C55.333 2.8335 61.1663 8.6668 61.1663 20.3335V34.9168C61.1663 46.5835 55.333 52.4168 43.6663 52.4168H42.208C41.3038 52.4168 40.4288 52.8543 39.8747 53.5835L35.4997 59.4168C33.5747 61.9835 30.4247 61.9835 28.4997 59.4168L24.1247 53.5835C23.658 52.9418 22.5788 52.4168 21.7913 52.4168Z" stroke-width="4.375" stroke-miterlimit="10" stroke-linecap="round" stroke-linejoin="round"/>
		<path d="M17.417 20.3335H46.5837" stroke-width="4.375" stroke-linecap="round" stroke-linejoin="round"/>
		<path d="M17.417 34.9165H34.917" stroke-width="4.375" stroke-linecap="round" stroke-linejoin="round"/>
	</symbol>

	<symbol id="i-tel" viewBox="0 0 14 20">
        <path fill-rule="evenodd" d="M5.535,0.941 C5.817,1.077 6.050,1.292 6.205,1.556 C6.378,1.862 6.415,2.222 6.308,2.555 C6.106,3.259 5.979,3.981 5.931,4.710 C5.931,5.018 5.931,5.326 5.913,5.634 C5.900,6.068 5.669,6.469 5.295,6.707 C4.659,7.153 4.023,7.612 3.388,8.070 C3.353,8.112 3.334,8.164 3.336,8.217 C3.667,9.930 4.448,11.531 5.604,12.865 C5.879,13.183 6.188,13.486 6.480,13.803 C6.533,13.869 6.629,13.888 6.704,13.846 C7.443,13.564 8.199,13.285 8.955,13.013 C9.339,12.872 9.769,12.908 10.123,13.110 C10.553,13.349 10.982,13.626 11.429,13.844 C11.872,14.057 12.331,14.235 12.804,14.376 C13.570,14.511 14.097,15.201 14.006,15.951 L13.027,19.193 C13.010,19.200 12.998,19.214 12.992,19.230 C12.692,19.849 11.957,20.147 11.292,19.920 C10.226,19.604 9.196,19.187 8.216,18.674 C1.728,15.222 -1.421,7.869 0.639,0.980 C0.722,0.666 0.925,0.394 1.205,0.219 C1.497,0.039 1.842,-0.039 2.185,-0.003 L5.535,0.941 Z"/>
	</symbol>

	<symbol id="i-chek" viewBox="0 0 10 8">
        <path fill-rule="evenodd" d="M3.527,5.957 L1.718,4.185 C1.620,4.089 1.488,4.036 1.350,4.036 C1.212,4.036 1.080,4.089 0.983,4.185 C0.779,4.384 0.779,4.705 0.983,4.905 L3.162,7.039 C3.365,7.238 3.693,7.238 3.897,7.039 L9.412,1.638 C9.615,1.439 9.615,1.117 9.412,0.918 C9.315,0.823 9.182,0.769 9.045,0.769 C8.907,0.769 8.774,0.823 8.677,0.918 L3.527,5.957 Z"/>
	</symbol>

	<symbol id="i-chat" viewBox="0 0 130 130">
        <path d="M83.8707 79.0877L85.0082 88.3043C85.2999 90.7251 82.704 92.4167 80.6332 91.1626L68.4124 83.9001C67.0707 83.9001 65.7582 83.8127 64.4749 83.6377C66.6332 81.1002 67.9165 77.8918 67.9165 74.4209C67.9165 66.1376 60.7415 59.4294 51.8749 59.4294C48.4915 59.4294 45.3707 60.3918 42.7749 62.0835C42.6874 61.3543 42.6582 60.6251 42.6582 59.8668C42.6582 46.596 54.179 35.8335 68.4124 35.8335C82.6457 35.8335 94.1665 46.596 94.1665 59.8668C94.1665 67.7418 90.1124 74.7127 83.8707 79.0877Z" stroke-width="4.375" stroke-linecap="round" stroke-linejoin="round"></path><path d="M67.9163 74.4202C67.9163 77.8911 66.633 81.0995 64.4747 83.637C61.5872 87.137 57.008 89.3828 51.8747 89.3828L44.2622 93.9036C42.9788 94.6911 41.3455 93.6119 41.5205 92.1244L42.2497 86.3787C38.3413 83.6662 35.833 79.3202 35.833 74.4202C35.833 69.2869 38.5747 64.7661 42.7747 62.0828C45.3705 60.3911 48.4913 59.4287 51.8747 59.4287C60.7413 59.4287 67.9163 66.1369 67.9163 74.4202Z" stroke-width="4.375" stroke-linecap="round" stroke-linejoin="round"></path>
	</symbol>

	<symbol id="i-card" viewBox="0 0 64 60">
        <path d="M60.1752 25.45L57.3169 37.6417C54.8669 48.1708 50.0252 52.4291 40.9252 51.5541C39.4669 51.4375 37.8919 51.175 36.2002 50.7667L31.3002 49.6C19.1377 46.7125 15.3752 40.7042 18.2335 28.5125L21.0919 16.2917C21.6752 13.8125 22.3752 11.6541 23.2502 9.87501C26.6627 2.81661 32.4669 0.920808 42.2085 3.22501L47.0794 4.36251C59.3002 7.22081 63.0335 13.2583 60.1752 25.45Z" stroke-width="4.375" stroke-linecap="round" stroke-linejoin="round"/>
		<path d="M40.9255 51.5547C39.1172 52.7797 36.8422 53.8005 34.0713 54.7047L29.463 56.2213C17.8838 59.9547 11.788 56.8338 8.02551 45.2547L4.29221 33.7338C0.558807 22.1547 3.65051 16.0297 15.2297 12.2963L19.838 10.7797C21.0338 10.4005 22.1713 10.0797 23.2505 9.87549C22.3755 11.6547 21.6755 13.813 21.0922 16.2922L18.2338 28.513C15.3755 40.7047 19.138 46.713 31.3005 49.6005L36.2005 50.7672C37.8922 51.1755 39.4672 51.438 40.9255 51.5547Z" stroke-width="4.375" stroke-linecap="round" stroke-linejoin="round"/>
		<path d="M33.8652 19.8784L48.0111 23.4659" stroke-width="4.375" stroke-linecap="round" stroke-linejoin="round"/>
		<path d="M31.0088 31.1665L39.4671 33.3248" stroke-width="4.375" stroke-linecap="round" stroke-linejoin="round"/>
	</symbol>

	<symbol id="i-on-target" viewBox="0 0 128 128">
        <g><path d="M118.71 34.85a2 2 0 0 0-.91 2.68A59.42 59.42 0 0 1 124 64 60 60 0 1 1 64 4a59.42 59.42 0 0 1 26.25 6A2 2 0 0 0 92 6.48 63.4 63.4 0 0 0 64 0a64 64 0 1 0 64 64 63.37 63.37 0 0 0-6.57-28.28 2 2 0 0 0-2.72-.87z"></path><path d="M86.66 32.26a2 2 0 0 0-.6-2.76 41 41 0 1 0 12.26 12.16A2 2 0 1 0 95 43.85a37 37 0 1 1-11.07-11 2 2 0 0 0 2.73-.59z"></path><path d="M64 49.13a14.86 14.86 0 0 1 5.39 1 2 2 0 1 0 1.45-3.73A18.9 18.9 0 1 0 81.5 57a2 2 0 1 0-3.71 1.5A14.92 14.92 0 1 1 64 49.13z"></path><path d="M91.94 15.9 93 32.17 62.54 62.63a2 2 0 1 0 2.83 2.83L95.83 35l16.27 1.06h.13a2 2 0 0 0 1.41-.59l13.82-13.82a2 2 0 0 0-1.28-3.41l-14.75-1a1.8 1.8 0 0 0-.71-.72l-1-14.75a2 2 0 0 0-3.39-1.23L92.52 14.36a2 2 0 0 0-.58 1.54zM111.45 32l-11.86-.78 10.05-10.05 11.86.78zM106 6.49l.78 11.86-10.02 10.06L96 16.55z"></path></g>
	</symbol>

	<symbol id="i-block-corner" viewBox="0 0 199 70">
        <path fill-rule="evenodd" clip-rule="evenodd" d="M144.546 10.0111C142.104 3.9612 136.234 0 129.709 0H13C5.8203 0 0 5.8203 0 13V26L4.32953e-05 53.3072C4.32953e-05 62.1432 7.16351 69.3072 16 69.3072L182.5 70.3081C191.336 70.3081 198.5 63.1441 198.5 54.3081V42C198.5 33.1635 191.336 26 182.5 26L161.392 24.9991C154.868 24.9991 148.997 21.0379 146.555 14.9881L144.546 10.0111Z"/>
	</symbol>

	<symbol id="i-block" viewBox="0 0 512 512">
        <path d="m446.102 354.091v-196.182c0-7.136-3.839-13.785-10.02-17.354l-169.897-98.091c-6.182-3.569-13.86-3.569-20.04 0l-169.898 98.091c-6.18 3.568-10.019 10.218-10.019 17.354v196.182c0 7.137 3.839 13.786 10.02 17.355l169.897 98.09c3.091 1.785 6.555 2.677 10.021 2.677 3.464 0 6.93-.892 10.02-2.677l169.899-98.091c6.178-3.569 10.017-10.218 10.017-17.354zm-189.937-294.273 159.069 91.839-159.617 82.852-158.569-82.824zm9.457 386.904v-58.27c0-5.534-4.486-10.02-10.02-10.02s-10.02 4.486-10.02 10.02v57.62l-159.315-91.981v-185.429l159.316 83.214v46.568c0 5.534 4.486 10.02 10.02 10.02s10.02-4.486 10.02-10.02v-46.55l160.441-83.28v185.477z"></path><path d="m497.389 2.622h-53.819c-5.534 0-10.02 4.486-10.02 10.02s4.486 10.02 10.02 10.02h32.639l-53.761 53.762c-3.912 3.912-3.912 10.257 0 14.17 1.956 1.956 4.521 2.934 7.085 2.934s5.129-.978 7.085-2.935l55.342-55.342v35.801c0 5.534 4.486 10.02 10.02 10.02s10.02-4.486 10.02-10.02v-53.819c0-8.056-6.554-14.611-14.611-14.611z"></path><path d="m75.382 421.407-55.343 55.343v-35.801c0-5.534-4.486-10.02-10.02-10.02s-10.019 4.485-10.019 10.019v53.819c0 8.056 6.554 14.611 14.611 14.611h53.819c5.534 0 10.02-4.486 10.02-10.02s-4.486-10.02-10.02-10.02h-32.64l53.761-53.762c3.912-3.912 3.912-10.257 0-14.17-3.912-3.912-10.256-3.912-14.169.001z"></path><path d="m12.642 78.449c5.534 0 10.02-4.486 10.02-10.02v-32.638l53.762 53.761c1.956 1.956 4.521 2.934 7.085 2.934s5.129-.978 7.085-2.934c3.913-3.913 3.912-10.257 0-14.17l-55.344-55.343h35.801c5.534 0 10.02-4.486 10.02-10.02s-4.485-10.019-10.019-10.019h-53.819c-8.056 0-14.611 6.554-14.611 14.611v53.819c0 5.533 4.486 10.019 10.02 10.019z"></path><path d="m499.358 433.551c-5.534 0-10.02 4.486-10.02 10.02v32.639l-53.762-53.761c-3.913-3.913-10.257-3.912-14.17 0-3.913 3.913-3.912 10.257 0 14.17l55.342 55.342h-35.801c-5.534 0-10.02 4.486-10.02 10.02s4.486 10.02 10.02 10.02h53.819c8.056 0 14.611-6.554 14.611-14.611v-53.82c.001-5.533-4.485-10.019-10.019-10.019z"></path>
	</symbol>

	<symbol id="i-document-flow" viewBox="0 0 512 512">
		<path d="m90.050781 395.949219c-7.167969 0-14.058593 1.789062-20.171875 5.148437-32.203125-41.28125-49.878906-92.5625-49.878906-145.097656 0-130.132812 105.867188-236 236-236 15.820312 0 31.632812 1.574219 47 4.679688 5.40625 1.09375 10.6875-2.40625 11.78125-7.820313s-2.40625-10.6875-7.820312-11.785156c-16.667969-3.367188-33.8125-5.074219-50.960938-5.074219-68.378906 0-132.667969 26.628906-181.019531 74.980469-48.351563 48.351562-74.980469 112.640625-74.980469 181.019531 0 57.519531 19.53125 113.652344 55.089844 158.652344-4.578125 6.839844-7.039063 14.878906-7.039063 23.296875 0 11.21875 4.371094 21.765625 12.304688 29.695312 7.929687 7.933594 18.476562 12.304688 29.695312 12.304688s21.765625-4.371094 29.699219-12.304688c7.933594-7.929687 12.300781-18.480469 12.300781-29.699219 0-11.214843-4.367187-21.765624-12.300781-29.695312-7.933594-7.933594-18.480469-12.300781-29.699219-12.300781zm15.554688 57.554687c-4.152344 4.15625-9.679688 6.445313-15.554688 6.445313s-11.398437-2.289063-15.554687-6.445313-6.445313-9.679687-6.445313-15.554687c0-5.878907 2.289063-11.402344 6.445313-15.558594 4.152344-4.15625 9.679687-6.441406 15.554687-6.441406s11.398438 2.289062 15.554688 6.441406c4.15625 4.15625 6.445312 9.679687 6.445312 15.558594 0 5.875-2.289062 11.398437-6.445312 15.554687zm0 0"></path><path d="m456.902344 97.335938c10.871094-16.308594 9.125-38.605469-5.253906-52.984376-7.933594-7.929687-18.480469-12.300781-29.699219-12.300781s-21.765625 4.371094-29.699219 12.300781c-7.933594 7.933594-12.300781 18.480469-12.300781 29.699219s4.367187 21.765625 12.300781 29.699219 18.480469 12.300781 29.699219 12.300781c7.167969 0 14.058593-1.789062 20.171875-5.148437 32.203125 41.285156 49.878906 92.5625 49.878906 145.097656 0 130.132812-105.867188 236-236 236-15.664062 0-31.328125-1.542969-46.550781-4.589844-5.414063-1.082031-10.683594 2.429688-11.769531 7.84375-1.082032 5.417969 2.429687 10.683594 7.84375 11.769532 16.511718 3.300781 33.496093 4.976562 50.476562 4.976562 68.378906 0 132.667969-26.628906 181.019531-74.980469 48.351563-48.351562 74.980469-112.640625 74.980469-181.019531 0-57.523438-19.535156-113.660156-55.097656-158.664062zm-50.507813-7.726563c-4.15625-4.15625-6.445312-9.679687-6.445312-15.558594 0-5.875 2.289062-11.398437 6.445312-15.554687 4.152344-4.15625 9.679688-6.445313 15.554688-6.445313s11.402343 2.289063 15.558593 6.445313c8.574219 8.578125 8.574219 22.535156 0 31.113281-4.15625 4.152344-9.683593 6.441406-15.558593 6.441406-5.878907 0-11.402344-2.289062-15.554688-6.441406zm0 0"></path><path d="m214.734375 428c0 5.523438 4.480469 10 10 10h62.527344c5.523437 0 10-4.476562 10-10v-19.386719c13.148437-3.539062 25.71875-8.75 37.53125-15.554687l13.6875 13.6875c1.875 1.875 4.417969 2.929687 7.074219 2.929687 2.648437 0 5.195312-1.054687 7.070312-2.933593l44.195312-44.226563c3.902344-3.90625 3.902344-10.238281 0-14.140625l-13.671874-13.671875c6.804687-11.8125 12.015624-24.382813 15.554687-37.53125h19.3125c5.523437 0 10-4.476563 10-10v-62.527344c0-5.523437-4.476563-10-10-10h-19.316406c-3.539063-13.144531-8.746094-25.714843-15.550781-37.527343l13.597656-13.597657c1.875-1.875 2.929687-4.421875 2.929687-7.074219-.003906-2.652343-1.058593-5.199218-2.933593-7.074218l-44.230469-44.195313c-3.902344-3.902343-10.234375-3.902343-14.140625.003907l-13.578125 13.582031c-11.8125-6.804688-24.382813-12.015625-37.53125-15.554688v-19.207031c0-5.523438-4.476563-10-10-10h-62.527344c-5.519531 0-10 4.476562-10 10v19.210938c-13.144531 3.535156-25.714844 8.746093-37.527344 15.550781l-13.582031-13.582031c-3.902344-3.902344-10.234375-3.90625-14.140625-.003907l-44.226563 44.199219c-1.878906 1.875-2.933593 4.417969-2.933593 7.070312 0 2.652344 1.054687 5.199219 2.929687 7.074219l13.597656 13.597657c-6.804687 11.8125-12.015624 24.378906-15.554687 37.527343h-19.277344c-5.523437 0-10 4.476563-10 9.996094l-.035156 62.527344c-.003906 2.652343 1.050781 5.199219 2.925781 7.074219s4.417969 2.929687 7.074219 2.929687h19.3125c3.539063 13.148437 8.75 25.71875 15.554687 37.53125l-13.671874 13.671875c-3.902344 3.902344-3.90625 10.234375 0 14.140625l44.195312 44.226563c1.875 1.875 4.417969 2.933593 7.070312 2.933593h.003907c2.652343 0 5.195312-1.054687 7.070312-2.929687l13.683594-13.6875c11.816406 6.804687 24.386719 12.015625 37.53125 15.554687zm-33.609375-55.972656c-3.957031-2.558594-9.164062-2.003906-12.5 1.328125l-12.175781 12.175781-30.058594-30.082031 12.164063-12.167969c3.332031-3.332031 3.886718-8.539062 1.328124-12.496094-9.066406-14.03125-15.441406-29.410156-18.941406-45.714844-.992187-4.605468-5.0625-7.898437-9.777344-7.898437h-17.175781l.023438-42.527344h17.152343c4.714844 0 8.785157-3.289062 9.777344-7.898437 3.5-16.300782 9.875-31.679688 18.941406-45.710938 2.558594-3.957031 2.003907-9.164062-1.328124-12.496094l-12.085938-12.089843 30.082031-30.058594 12.074219 12.078125c3.335938 3.332031 8.539062 3.882812 12.5 1.328125 14.027344-9.066406 29.40625-15.441406 45.710938-18.941406 4.605468-.992188 7.898437-5.066407 7.898437-9.777344v-17.078125h42.527344v17.074219c0 4.714843 3.289062 8.789062 7.898437 9.777343 16.300782 3.503907 31.683594 9.875 45.710938 18.941407 3.957031 2.558593 9.164062 2.007812 12.496094-1.328125l12.078124-12.074219 30.082032 30.058594-12.085938 12.085937c-3.335937 3.335938-3.886718 8.542969-1.328125 12.5 9.066407 14.03125 15.4375 29.410156 18.941407 45.710938.988281 4.609375 5.0625 7.898437 9.777343 7.898437h17.183594v42.527344h-17.183594c-4.714843 0-8.785156 3.292969-9.777343 7.898437-3.5 16.300782-9.875 31.683594-18.941407 45.710938-2.558593 3.960938-2.003906 9.167969 1.328125 12.5l12.164063 12.164062-30.058594 30.082032-12.175781-12.171875c-3.335938-3.335938-8.542969-3.886719-12.5-1.328125-14.03125 9.066406-29.410156 15.4375-45.710938 18.941406-4.609375.992188-7.898437 5.0625-7.898437 9.777344v17.253906h-42.527344v-17.253906c0-4.710938-3.292969-8.785156-7.898437-9.777344-16.300782-3.5-31.679688-9.875-45.710938-18.941406zm0 0"></path><path d="m338.628906 256c0-45.5625-37.066406-82.628906-82.628906-82.628906s-82.628906 37.066406-82.628906 82.628906 37.066406 82.628906 82.628906 82.628906 82.628906-37.066406 82.628906-82.628906zm-145.257812 0c0-34.535156 28.09375-62.628906 62.628906-62.628906s62.628906 28.097656 62.628906 62.628906-28.09375 62.628906-62.628906 62.628906-62.628906-28.09375-62.628906-62.628906zm0 0"></path><path d="m348.078125 37.820312c2.632813 0 5.210937-1.070312 7.070313-2.929687 1.859374-1.871094 2.929687-4.449219 2.929687-7.082031 0-2.617188-1.066406-5.199219-2.929687-7.070313-1.859376-1.859375-4.4375-2.929687-7.070313-2.929687-2.640625 0-5.207031 1.070312-7.066406 2.929687-1.863281 1.871094-2.933594 4.441407-2.933594 7.070313 0 2.640625 1.070313 5.210937 2.933594 7.082031 1.859375 1.859375 4.425781 2.929687 7.066406 2.929687zm0 0"></path><path d="m164.359375 474.359375c-2.628906 0-5.210937 1.070313-7.070313 2.929687-1.859374 1.859376-2.929687 4.441407-2.929687 7.070313 0 2.640625 1.070313 5.210937 2.929687 7.070313 1.859376 1.859374 4.441407 2.929687 7.070313 2.929687s5.210937-1.070313 7.070313-2.929687c1.859374-1.859376 2.929687-4.441407 2.929687-7.070313s-1.070313-5.210937-2.929687-7.070313c-1.859376-1.859374-4.441407-2.929687-7.070313-2.929687zm0 0"></path>
	</symbol>

	<symbol id="i-target-eye" viewBox="0 0 512 512">
		<path d="M420.724 442.064C376.874 480.913 319.191 504.5 256 504.5 118.757 504.5 7.5 393.243 7.5 256S118.757 7.5 256 7.5 504.5 118.757 504.5 256c0 61.386-22.258 117.573-59.144 160.932" style="stroke-width:15;stroke-linecap:round;stroke-linejoin:round;stroke-miterlimit:10;" stroke-width="15" stroke-linecap="round" stroke-linejoin="round" stroke-miterlimit="10"></path><path d="M291.05 45.345c43.705 7.176 83.98 27.75 115.918 59.687C447.292 145.357 469.5 198.972 469.5 256s-22.208 110.643-62.532 150.968C366.643 447.292 313.028 469.5 256 469.5s-110.643-22.208-150.968-62.532C64.708 366.643 42.5 313.028 42.5 256s22.208-110.643 62.532-150.968C145.357 64.708 198.972 42.5 256 42.5M256 42.5v48.649M256 420.851V469.5M469.5 256h-48.649M91.149 256H42.5M21.018 84.529C13.552 84.529 7.5 78.476 7.5 71.01V21.278c0-7.466 6.052-13.518 13.518-13.518H70.75c7.466 0 13.518 6.052 13.518 13.518S78.216 34.796 70.75 34.796H34.536V71.01c0 7.466-6.052 13.519-13.518 13.519zM490.982 84.529c7.466 0 13.518-6.052 13.518-13.518V21.278c0-7.466-6.052-13.518-13.518-13.518H441.25c-7.466 0-13.518 6.052-13.518 13.518s6.052 13.518 13.518 13.518h36.214V71.01c0 7.466 6.052 13.519 13.518 13.519zM21.018 427.471c-7.466 0-13.518 6.052-13.518 13.518v49.733c0 7.466 6.052 13.518 13.518 13.518H70.75c7.466 0 13.518-6.052 13.518-13.518 0-7.466-6.052-13.518-13.518-13.518H34.536V440.99c0-7.466-6.052-13.519-13.518-13.519zM490.982 427.471c7.466 0 13.518 6.052 13.518 13.518v49.733c0 7.466-6.052 13.518-13.518 13.518H441.25c-7.466 0-13.518-6.052-13.518-13.518 0-7.466 6.052-13.518 13.518-13.518h36.214V440.99c0-7.466 6.052-13.519 13.518-13.519z" style="stroke-width:15;stroke-linecap:round;stroke-linejoin:round;stroke-miterlimit:10;" stroke-width="15" stroke-linecap="round" stroke-linejoin="round" stroke-miterlimit="10"></path><circle cx="256" cy="256" r="69.129" style="stroke-width:15;stroke-linecap:round;stroke-linejoin:round;stroke-miterlimit:10;" stroke-width="15" stroke-linecap="round" stroke-linejoin="round" stroke-miterlimit="10"></circle><circle cx="256" cy="256" r="69.129" style="stroke-width:15;stroke-linecap:round;stroke-linejoin:round;stroke-miterlimit:10;" stroke-width="15" stroke-linecap="round" stroke-linejoin="round" stroke-miterlimit="10"></circle><circle cx="256" cy="256" r="69.129" style="stroke-width:15;stroke-linecap:round;stroke-linejoin:round;stroke-miterlimit:10;" stroke-width="15" stroke-linecap="round" stroke-linejoin="round" stroke-miterlimit="10"></circle><circle cx="256" cy="256" r="34.13" style="stroke-width:15;stroke-linecap:round;stroke-linejoin:round;stroke-miterlimit:10;" stroke-width="15" stroke-linecap="round" stroke-linejoin="round" stroke-miterlimit="10"></circle><path d="M385.298 256S339.45 325.129 256 325.129 126.702 256 126.702 256 172.55 186.871 256 186.871 385.298 256 385.298 256z" style="stroke-width:15;stroke-linecap:round;stroke-linejoin:round;stroke-miterlimit:10;" stroke-width="15" stroke-linecap="round" stroke-linejoin="round" stroke-miterlimit="10"></path>
	</symbol>

	<symbol id="i-corner-top" viewBox="0 0 237 29">
		<path d="M0 0 C1.16576065 0.00522675 1.16576065 0.00522675 2.35507202 0.01055908 C31.26001831 0.19707377 56.43940317 9.27191605 83.03710938 20.00024414 C92.48824405 23.76500826 101.96123921 26.2841075 112.0625 27.5 C113.34640625 27.65855469 114.6303125 27.81710938 115.953125 27.98046875 C116.89671875 28.09003906 117.8403125 28.19960938 118.8125 28.3125 C118.8125 28.6425 118.8125 28.9725 118.8125 29.3125 C40.6025 29.3125 -37.6075 29.3125 -118.1875 29.3125 C-118.1875 28.9825 -118.1875 28.6525 -118.1875 28.3125 C-117.0015625 28.15394531 -115.815625 27.99539062 -114.59375 27.83203125 C-112.95823417 27.59704334 -111.32282307 27.36132567 -109.6875 27.125 C-108.91535156 27.02380859 -108.14320312 26.92261719 -107.34765625 26.81835938 C-93.75282651 24.80632457 -80.82445737 19.53969239 -68.0491333 14.66372681 C-45.42205701 6.05222402 -24.4136802 -0.13397054 0 0 Z " transform="translate(118.1875,-0.3125)"/>
	</symbol>

	<symbol id="i-arrow" viewBox="0 0 320 512">
		<path d="M285.476 272.971L91.132 467.314c-9.373 9.373-24.569 9.373-33.941 0l-22.667-22.667c-9.357-9.357-9.375-24.522-.04-33.901L188.505 256 34.484 101.255c-9.335-9.379-9.317-24.544.04-33.901l22.667-22.667c9.373-9.373 24.569-9.373 33.941 0L285.475 239.03c9.373 9.372 9.373 24.568.001 33.941z"></path>
	</symbol>

</svg>