<svg width="24" height="24" viewBox="0 0 24 24" fill="none" xmlns="http://www.w3.org/2000/svg">
<path d="M12.2734 0.82692C11.9235 1.20345 11.3969 2.18041 11.2236 2.77065C11.1862 2.89277 11.1454 3.03524 11.125 3.09291C11.0469 3.34393 10.9212 3.98505 10.8872 4.30053C10.8702 4.4871 10.8532 5.0943 10.8532 5.64384V6.64114L10.6868 6.81754C10.4727 7.04821 10.0378 7.60453 9.82376 7.92678C9.57913 8.29314 9.55535 8.38473 9.59612 8.73752C9.61311 8.89695 9.6301 9.2226 9.6301 9.45666C9.6301 9.99942 9.66407 10.5049 9.70145 10.5049C9.71844 10.5049 9.73203 10.4879 9.73203 10.4675C9.73203 10.4167 10.1703 9.92818 10.4625 9.6568C10.6969 9.43631 11.2168 9.01229 11.2474 9.01229C11.2576 9.01229 11.3017 9.0937 11.3493 9.19546C11.3935 9.29723 11.4546 9.38882 11.4818 9.399C11.509 9.40917 11.6041 9.40239 11.6958 9.38543C11.7842 9.37186 12.1783 9.3549 12.569 9.3549C12.9632 9.3549 13.2995 9.3549 13.3199 9.3549C13.3403 9.35151 13.3912 9.27349 13.4354 9.1819C13.4796 9.08691 13.5204 9.01229 13.5272 9.01229C13.5339 9.01229 13.6563 9.10727 13.8024 9.2226C14.1081 9.46345 14.7163 10.074 14.91 10.3285C14.9847 10.4234 15.0493 10.4981 15.0561 10.4913C15.0799 10.4675 15.1342 8.32367 15.1104 8.23887C15.0901 8.14728 14.5396 7.40099 14.1727 6.96001C14.047 6.81414 13.9417 6.6615 13.9417 6.62079C13.9383 6.58347 13.9383 6.27139 13.9417 5.92539C13.9519 5.28426 13.9043 4.44639 13.8397 3.99184C13.7072 3.08273 13.3233 2.04472 12.8578 1.32896C12.6676 1.04063 12.4263 0.735331 12.3856 0.735331C12.372 0.735331 12.321 0.776037 12.2734 0.82692ZM12.6404 3.22859C12.8306 3.35071 12.868 3.51015 12.8714 4.20215C12.8748 4.44639 12.868 4.47014 12.7729 4.56851C12.6506 4.69402 12.4773 4.7449 12.304 4.7042C12.0832 4.65671 11.971 4.51084 11.9031 4.20215C11.8623 4.0088 11.9133 3.5305 11.9914 3.38124C12.1036 3.16414 12.4263 3.08612 12.6404 3.22859Z"/>
<path d="M11.8386 9.918C11.6653 9.93496 11.6347 9.96549 11.6347 10.1317C11.6347 10.2945 11.509 11.2681 11.4444 11.6209C11.2304 12.7573 10.8872 13.9852 10.5747 14.7383C10.4489 15.0402 10.0005 15.929 9.88494 16.102C9.84417 16.1664 9.70827 16.3767 9.58255 16.5633C9.34472 16.9331 8.76033 17.7167 8.47833 18.0525C8.3832 18.1644 8.30505 18.2696 8.30505 18.2832C8.30505 18.3103 8.58706 18.2832 8.78072 18.2391C9.3719 18.0932 11.3187 17.9338 12.5011 17.9338C13.6427 17.9338 15.3109 18.0762 16.0856 18.2357C16.3744 18.2967 16.4559 18.3035 16.4763 18.273C16.4865 18.256 16.4797 18.2323 16.4593 18.2221C16.4389 18.2085 16.3608 18.1135 16.2826 18.0084C16.2079 17.9032 16.1161 17.7845 16.0822 17.7472C15.79 17.4385 15.124 16.4955 14.8149 15.9527C13.9213 14.4025 13.3403 12.4859 13.1636 10.4879C13.1432 10.2437 13.1161 10.013 13.1093 9.96889C13.0957 9.89426 13.0889 9.89426 12.5419 9.90104C12.2395 9.90443 11.9235 9.91122 11.8386 9.918Z"/>
<path d="M10.2927 11.5904C7.5678 12.0788 5.19287 13.9513 3.93576 16.5972C3.49067 17.5369 3.13732 18.7275 3.04218 19.6027C2.95045 20.4168 3.015 21.9026 3.17129 22.6659L3.23245 22.9712L3.5824 22.9813L3.92896 22.9915L4.05467 22.8457C4.52694 22.2826 5.58699 21.3667 6.02528 21.1428L6.13061 21.0851V22.0383V22.9881H6.74218H7.35035V21.75C7.35035 21.0681 7.35714 20.4983 7.36734 20.4813C7.39452 20.4372 8.33566 20.1319 8.8419 20.003C9.87137 19.7384 11.3391 19.562 12.5011 19.562C12.902 19.562 14.2917 19.674 14.5906 19.7282C14.6756 19.7452 14.9338 19.7893 15.1682 19.83C15.4027 19.8707 15.7934 19.9589 16.0346 20.0233C16.5273 20.159 17.3427 20.4304 17.3869 20.4745C17.4039 20.4915 17.4141 21.0614 17.4107 21.7432L17.4073 22.9813L17.4854 22.9949C17.5296 23.0017 17.8116 23.0017 18.1174 22.9949L18.6678 22.9847V22.0383C18.6678 21.5159 18.6746 21.0885 18.6814 21.0885C18.7187 21.0885 19.2895 21.4956 19.5478 21.7059C19.8603 21.9603 20.5127 22.5845 20.7233 22.8321L20.8558 22.9881H21.1854H21.5184L21.5489 22.8083C21.5659 22.7134 21.5999 22.537 21.6203 22.4216C21.7562 21.6889 21.797 20.366 21.712 19.5959C21.5184 17.9032 20.7709 16.1359 19.6633 14.7519C18.5013 13.3 16.8263 12.1976 15.0493 11.7193C14.7639 11.6446 14.1014 11.5225 13.9689 11.5225H13.8704L13.8941 11.6989C13.9281 11.9431 14.1014 12.7742 14.1218 12.798C14.132 12.8081 14.2679 12.8455 14.4242 12.8828C14.7809 12.9676 15.3483 13.144 15.4672 13.205C15.5182 13.2322 15.5726 13.2525 15.5895 13.2525C15.6065 13.2525 15.8342 13.3577 16.0992 13.4866C16.5375 13.7003 17.149 14.0768 17.3325 14.2464L17.4107 14.3143L17.4175 16.4208L17.4276 18.524L17.7164 18.602C17.8761 18.6461 18.1445 18.7241 18.3178 18.7818C18.4877 18.8361 18.6372 18.8836 18.6474 18.8836C18.6576 18.8836 18.6678 18.1339 18.6678 17.2214C18.6678 16.2512 18.6814 15.5592 18.6984 15.5592C18.7153 15.5592 18.7867 15.6372 18.8614 15.7356C18.9328 15.8306 19.0245 15.9561 19.0687 16.0138C19.2386 16.2411 19.5885 16.855 19.7992 17.2892C20.0438 17.7981 20.2884 18.4935 20.4006 19.0057C20.5195 19.545 20.6112 20.3999 20.5467 20.3694C20.5297 20.3626 20.268 20.2337 19.9589 20.081C19.0313 19.6231 18.294 19.3517 17.2578 19.0871C16.5579 18.9073 15.6677 18.7411 15.0493 18.68C14.8625 18.6597 14.6756 18.6393 14.6348 18.6325C14.3528 18.5783 13.3131 18.5342 12.3652 18.5376C9.80682 18.5444 7.73088 18.9005 5.77386 19.6672C5.57 19.7486 5.13511 19.9453 4.80894 20.1115C4.48277 20.2744 4.21436 20.4033 4.21096 20.3999C4.20756 20.3965 4.21776 20.2167 4.23474 20.003C4.31289 18.8904 4.67643 17.7709 5.32538 16.6447C5.60058 16.163 6.04907 15.5287 6.11362 15.5253C6.1374 15.5253 6.1442 16.1054 6.1374 17.2214C6.13401 18.1542 6.13401 18.9175 6.1408 18.9175C6.1476 18.9175 6.32767 18.8564 6.54172 18.7852C6.75577 18.7106 7.02418 18.6258 7.1397 18.5952L7.34695 18.5376L7.35035 16.4378C7.35035 15.2811 7.36054 14.3211 7.37074 14.3041C7.38433 14.2838 7.59158 14.1379 7.83281 13.9785C8.53611 13.5137 9.43988 13.1101 10.2179 12.9133C10.4218 12.8624 10.5985 12.8081 10.6154 12.7912C10.6494 12.7573 10.8533 11.7396 10.8533 11.6073C10.8533 11.5327 10.8397 11.5225 10.7446 11.5259C10.6834 11.5259 10.4795 11.5564 10.2927 11.5904Z"/>
</svg>
