<svg width="20" height="20" viewBox="0 0 20 20" fill="none" xmlns="http://www.w3.org/2000/svg">
<g clip-path="url(#clip0)">
<path d="M19.3744 9.37545H11.4579C11.1129 9.37545 10.8329 9.09546 10.8329 8.75047C10.8329 8.40548 11.1129 8.12549 11.4579 8.12549H19.3744C19.7194 8.12549 19.9994 8.40548 19.9994 8.75047C19.9994 9.09546 19.7194 9.37545 19.3744 9.37545Z" fill="#444444"/>
<path d="M16.2495 12.5003C16.0895 12.5003 15.9296 12.4394 15.8078 12.317C15.5637 12.0727 15.5637 11.6769 15.8078 11.4328L18.4911 8.74962L15.8078 6.0663C15.5637 5.82217 15.5637 5.42637 15.8078 5.18224C16.0521 4.93795 16.4479 4.93795 16.692 5.18224L19.8169 8.30713C20.0611 8.55127 20.0611 8.94707 19.8169 9.1912L16.692 12.3161C16.5695 12.4394 16.4096 12.5003 16.2495 12.5003Z" fill="#444444"/>
<path d="M6.66651 20.0001C6.48814 20.0001 6.31892 19.9751 6.14986 19.9226L1.13491 18.2518C0.452562 18.0135 0 17.3777 0 16.6669V1.6674C0 0.748237 0.747505 0.000732422 1.66667 0.000732422C1.84488 0.000732422 2.0141 0.0257561 2.18331 0.0782447L7.19811 1.74903C7.88061 1.98736 8.33302 2.62318 8.33302 3.33391V18.3334C8.33302 19.2526 7.58567 20.0001 6.66651 20.0001ZM1.66667 1.25069C1.43749 1.25069 1.24996 1.43822 1.24996 1.6674V16.6669C1.24996 16.8444 1.36913 17.0093 1.53911 17.0685L6.53056 18.7318C6.56641 18.7434 6.6131 18.7501 6.66651 18.7501C6.89569 18.7501 7.08306 18.5626 7.08306 18.3334V3.33391C7.08306 3.15646 6.96389 2.99151 6.79392 2.93231L1.80246 1.269C1.76661 1.25741 1.71992 1.25069 1.66667 1.25069Z" fill="#444444"/>
<path d="M12.7079 6.667C12.3629 6.667 12.0829 6.38701 12.0829 6.04202V2.29213C12.0829 1.71796 11.6155 1.25045 11.0414 1.25045H1.66667C1.32168 1.25045 1.04169 0.970459 1.04169 0.625469C1.04169 0.280478 1.32168 0.000488281 1.66667 0.000488281H11.0414C12.3055 0.000488281 13.3329 1.02798 13.3329 2.29213V6.04202C13.3329 6.38701 13.0529 6.667 12.7079 6.667Z" fill="#444444"/>
<path d="M11.0414 17.5002H7.70805C7.36306 17.5002 7.08307 17.2202 7.08307 16.8753C7.08307 16.5303 7.36306 16.2503 7.70805 16.2503H11.0414C11.6156 16.2503 12.0829 15.7828 12.0829 15.2086V11.4587C12.0829 11.1137 12.3629 10.8337 12.7079 10.8337C13.0529 10.8337 13.3329 11.1137 13.3329 11.4587V15.2086C13.3329 16.4727 12.3055 17.5002 11.0414 17.5002Z" fill="#444444"/>
</g>
<defs>
<clipPath id="clip0">
<rect width="20" height="20" fill="white"/>
</clipPath>
</defs>
</svg>
