<svg width="100" height="100" viewBox="0 0 100 100" fill="none" xmlns="http://www.w3.org/2000/svg">
<path d="M74.1952 25.5983C68.6448 25.5983 64.1294 30.1139 64.1294 35.6641C64.1294 41.2143 68.6448 45.7299 74.1952 45.7299C79.7454 45.7299 84.261 41.2145 84.261 35.6641C84.261 30.1135 79.7456 25.5983 74.1952 25.5983ZM74.1952 41.8236C70.7987 41.8236 68.0356 39.0606 68.0356 35.6641C68.0356 32.2676 70.7987 29.5045 74.1952 29.5045C77.5915 29.5045 80.3548 32.2676 80.3548 35.6641C80.3548 39.0602 77.5917 41.8236 74.1952 41.8236Z" fill="#468615"/>
<path d="M74.2637 88.1213C74.2148 88.0021 74.1543 87.8889 74.084 87.7834C74.0137 87.676 73.9316 87.5764 73.8418 87.4865C73.752 87.3967 73.6523 87.3146 73.5449 87.2443C73.4395 87.174 73.3262 87.1135 73.207 87.0646C73.0898 87.0158 72.9668 86.9767 72.8418 86.9533C72.5898 86.9025 72.332 86.9025 72.0801 86.9533C71.9551 86.9767 71.832 87.0158 71.7148 87.0646C71.5957 87.1135 71.4824 87.174 71.377 87.2443C71.2695 87.3146 71.1699 87.3967 71.0801 87.4865C70.9902 87.5764 70.9082 87.676 70.8379 87.7834C70.7676 87.8889 70.707 88.0021 70.6582 88.1213C70.6094 88.2385 70.5703 88.3615 70.5469 88.4865C70.5215 88.6115 70.5078 88.7404 70.5078 88.8674C70.5078 88.9943 70.5215 89.1232 70.5469 89.2482C70.5703 89.3732 70.6094 89.4963 70.6582 89.6135C70.707 89.7326 70.7676 89.8459 70.8379 89.9514C70.9082 90.0588 70.9902 90.1584 71.0801 90.2482C71.1248 90.293 71.1721 90.3357 71.2213 90.3762C71.2711 90.4168 71.323 90.4553 71.377 90.4904C71.4824 90.5607 71.5957 90.6213 71.7148 90.6701C71.832 90.7189 71.9551 90.758 72.0801 90.7814C72.2051 90.8068 72.334 90.8205 72.4609 90.8205C72.5879 90.8205 72.7168 90.8068 72.8418 90.7814C72.9668 90.758 73.0898 90.7189 73.207 90.6701C73.3262 90.6213 73.4395 90.5607 73.5449 90.4904C73.5988 90.4551 73.6508 90.4168 73.7006 90.3762C73.75 90.3357 73.7971 90.293 73.8418 90.2482C73.9316 90.1584 74.0137 90.0588 74.084 89.9514C74.1543 89.8459 74.2148 89.7326 74.2637 89.6135C74.3125 89.4963 74.3516 89.3732 74.377 89.2482C74.4023 89.1232 74.4141 88.9943 74.4141 88.8674C74.4141 88.7404 74.4023 88.6115 74.377 88.4865C74.3516 88.3613 74.3125 88.2383 74.2637 88.1213Z" fill="#468615"/>
<path d="M43.5254 10.8303C43.4766 10.7131 43.416 10.5998 43.3457 10.4924C43.2754 10.3869 43.1934 10.2854 43.1035 10.1955C43.0137 10.1057 42.9141 10.0236 42.8066 9.95332C42.7012 9.88301 42.5879 9.82246 42.4688 9.77364C42.3516 9.72481 42.2285 9.6877 42.1035 9.66231C41.8516 9.61153 41.5938 9.61153 41.3418 9.66231C41.2168 9.6877 41.0937 9.72481 40.9746 9.77364C40.8574 9.82246 40.7441 9.88301 40.6387 9.95332C40.5313 10.0236 40.4316 10.1057 40.3418 10.1955C40.252 10.2854 40.1699 10.3869 40.0977 10.4924C40.0273 10.5998 39.9688 10.7131 39.9199 10.8303C39.8711 10.9475 39.832 11.0705 39.8086 11.1955C39.7832 11.3225 39.7695 11.4494 39.7695 11.5783C39.7695 11.7053 39.7832 11.8322 39.8086 11.9592C39.832 12.0842 39.8711 12.2072 39.9199 12.3244C39.9688 12.4416 40.0273 12.5549 40.0977 12.6623C40.1699 12.7678 40.252 12.8693 40.3418 12.9592C40.4316 13.049 40.5313 13.1311 40.6387 13.2014C40.7441 13.2717 40.8574 13.3322 40.9746 13.3811C41.0937 13.4299 41.2168 13.467 41.3418 13.4924C41.4668 13.5178 41.5957 13.5314 41.7227 13.5314C41.8496 13.5314 41.9785 13.5178 42.1035 13.4924C42.2285 13.467 42.3516 13.4299 42.4688 13.3811C42.5879 13.3322 42.7012 13.2717 42.8066 13.2014C42.9141 13.1311 43.0137 13.049 43.1035 12.9592C43.1934 12.8693 43.2754 12.7678 43.3457 12.6623C43.416 12.5549 43.4766 12.4416 43.5254 12.3244C43.5742 12.2072 43.6133 12.0842 43.6367 11.9592C43.6621 11.8322 43.6758 11.7053 43.6758 11.5783C43.6758 11.4494 43.6621 11.3225 43.6367 11.1955C43.6133 11.0705 43.5742 10.9475 43.5254 10.8303Z" fill="#468615"/>
<path d="M89.0875 9.63242C87.9164 4.68144 83.4625 0.985153 78.1586 0.985153H16.8783C7.57168 0.984958 0 8.55664 0 17.8633V79.1435C0 85.2297 4.8666 90.1973 10.9125 90.3678C12.0836 95.3187 16.5375 99.015 21.8414 99.015H88.7676C94.9611 99.015 100 93.9762 100 87.7826V73.0447V20.8564C100 14.7705 95.1334 9.80293 89.0875 9.63242ZM96.0938 87.783C96.0938 91.8226 92.8072 95.1092 88.7676 95.1092H21.8414C18.7145 95.1092 16.0402 93.1394 14.9908 90.3762C14.6844 89.5695 14.5152 88.6959 14.5152 87.783V86.4699V77.4213L36.9225 39.4283C37.6047 38.2717 38.8213 37.5963 40.1561 37.6178C41.4988 37.6408 42.6838 38.3584 43.326 39.5379L52.9736 57.2531L66.9973 83.0037C67.3516 83.6545 68.0221 84.023 68.7143 84.023C69.0299 84.023 69.35 83.9463 69.6467 83.7848C70.5939 83.2687 70.9437 82.0826 70.4279 81.1353L65.8771 72.7789C67.8752 72.8711 69.8404 72.224 71.4055 70.9258L80.1889 63.6394C81.5975 62.4709 83.6773 62.5223 85.0266 63.7592L85.4852 64.1795L89.3914 67.7601L96.0938 73.9041V87.783ZM96.0938 68.6049L89.3912 62.4607L85.485 59.4863C82.9398 58.4219 79.9137 58.7922 77.6947 60.6328L68.9113 67.9191C67.9453 68.7207 66.684 69.0445 65.4512 68.8076C64.2184 68.5709 63.167 67.8025 62.5666 66.7002L56.4041 55.3846L52.9631 49.066V49.0658L46.7566 37.6693C45.4328 35.2387 42.9902 33.7592 40.2229 33.7119C37.4562 33.6685 34.9639 35.0598 33.5578 37.4437L14.515 69.7318V20.8564C14.515 16.8168 17.8016 13.5303 21.8412 13.5303H33.91C34.9887 13.5303 35.8631 12.6559 35.8631 11.5771C35.8631 10.4984 34.9887 9.62402 33.91 9.62402H21.8412C15.6477 9.62402 10.6088 14.6629 10.6088 20.8564V76.8881V86.4412C6.86016 86.1234 3.90625 82.973 3.90625 79.1435V17.8633C3.90625 10.7103 9.72559 4.89121 16.8783 4.89121H78.1586C81.2855 4.89121 83.9598 6.86093 85.0092 9.62422H49.535C48.4562 9.62422 47.5818 10.4986 47.5818 11.5773C47.5818 12.6561 48.4562 13.5305 49.535 13.5305H85.4848L89.391 13.559C93.1398 13.8766 96.0938 17.0269 96.0938 20.8564V68.6049Z" fill="#468615"/>
</svg>
