<svg width="28" height="29" viewBox="0 0 28 29" fill="none" xmlns="http://www.w3.org/2000/svg">
<path d="M22.1406 17.3701C21.5665 16.7724 20.8741 16.4528 20.1402 16.4528C19.4123 16.4528 18.7139 16.7665 18.1162 17.3642L16.2461 19.2284C16.0922 19.1456 15.9383 19.0687 15.7904 18.9917C15.5773 18.8852 15.3761 18.7846 15.2045 18.6781C13.4527 17.5654 11.8607 16.1155 10.3338 14.2394C9.59403 13.3044 9.09691 12.5172 8.7359 11.7183C9.22119 11.2744 9.67097 10.8128 10.1089 10.3689C10.2746 10.2032 10.4403 10.0316 10.606 9.8659C11.8489 8.62308 11.8489 7.01334 10.606 5.77052L8.99038 4.15486C8.80692 3.9714 8.61753 3.78202 8.43999 3.59264C8.0849 3.22571 7.71205 2.84695 7.32737 2.49186C6.75331 1.92371 6.0668 1.62189 5.34479 1.62189C4.62277 1.62189 3.92443 1.92371 3.33261 2.49186C3.32669 2.49778 3.32669 2.49778 3.32077 2.50369L1.3086 4.53363C0.551069 5.29115 0.119043 6.21439 0.0243524 7.28558C-0.117684 9.01368 0.391279 10.6234 0.781878 11.6769C1.74062 14.2631 3.17282 16.66 5.30928 19.2284C7.90144 22.3236 11.0203 24.7678 14.583 26.49C15.9442 27.1351 17.7611 27.8986 19.791 28.0288C19.9153 28.0347 20.0455 28.0406 20.1639 28.0406C21.531 28.0406 22.6791 27.5494 23.5787 26.5729C23.5846 26.5611 23.5964 26.5551 23.6023 26.5433C23.9101 26.1705 24.2652 25.8331 24.638 25.4721C24.8925 25.2295 25.1529 24.975 25.4074 24.7087C25.9933 24.0991 26.301 23.3889 26.301 22.661C26.301 21.9271 25.9874 21.2229 25.3896 20.631L22.1406 17.3701ZM24.2593 23.602C24.2533 23.602 24.2533 23.6079 24.2593 23.602C24.0284 23.8505 23.7917 24.0754 23.5372 24.324C23.1526 24.6909 22.762 25.0756 22.395 25.5076C21.7973 26.1468 21.093 26.4486 20.1698 26.4486C20.081 26.4486 19.9863 26.4486 19.8976 26.4427C18.1399 26.3302 16.5065 25.6437 15.2814 25.0578C11.9317 23.4363 8.99038 21.1341 6.54618 18.2164C4.52808 15.7841 3.17874 13.5352 2.28509 11.1206C1.7347 9.64693 1.53349 8.4988 1.62226 7.41578C1.68144 6.72335 1.94776 6.14929 2.43897 5.65808L4.45706 3.63998C4.74705 3.36775 5.0548 3.21979 5.35662 3.21979C5.72947 3.21979 6.03129 3.44468 6.22068 3.63407C6.22659 3.63998 6.23251 3.6459 6.23843 3.65182C6.59944 3.98916 6.94269 4.33833 7.3037 4.71117C7.48716 4.90055 7.67655 5.08994 7.86593 5.28523L9.48159 6.9009C10.1089 7.52822 10.1089 8.1082 9.48159 8.73553C9.30996 8.90716 9.14425 9.07878 8.97262 9.24449C8.4755 9.75345 8.00204 10.2269 7.48716 10.6885C7.47533 10.7004 7.46349 10.7063 7.45757 10.7181C6.94861 11.2271 7.0433 11.7242 7.14983 12.0615C7.15575 12.0793 7.16166 12.097 7.16758 12.1148C7.58777 13.1327 8.17959 14.0915 9.07915 15.2337L9.08507 15.2396C10.7185 17.2518 12.4407 18.8201 14.3404 20.0215C14.583 20.1754 14.8316 20.2996 15.0683 20.418C15.2814 20.5245 15.4826 20.6251 15.6542 20.7317C15.6779 20.7435 15.7016 20.7612 15.7253 20.7731C15.9265 20.8737 16.1159 20.921 16.3112 20.921C16.8024 20.921 17.1101 20.6133 17.2107 20.5127L19.2347 18.4887C19.4359 18.2875 19.7555 18.0448 20.1284 18.0448C20.4953 18.0448 20.7971 18.2756 20.9806 18.4768C20.9865 18.4828 20.9865 18.4828 20.9924 18.4887L24.2533 21.7496C24.8629 22.3532 24.8629 22.9746 24.2593 23.602Z" fill="#C4C4C4"/>
<path d="M15.1332 6.67007C16.6838 6.93047 18.0923 7.66433 19.2168 8.78878C20.3412 9.91323 21.0691 11.3218 21.3355 12.8723C21.4006 13.2629 21.7379 13.5351 22.1226 13.5351C22.1699 13.5351 22.2114 13.5292 22.2587 13.5233C22.6966 13.4523 22.9866 13.038 22.9156 12.6001C22.596 10.724 21.7083 9.01367 20.3531 7.65841C18.9978 6.30315 17.2874 5.41542 15.4114 5.09584C14.9734 5.02482 14.5651 5.31481 14.4881 5.74684C14.4112 6.17887 14.6953 6.59906 15.1332 6.67007Z" fill="#C4C4C4"/>
<path d="M27.9878 12.3693C27.4611 9.28004 26.0052 6.4689 23.7681 4.23184C21.5311 1.99477 18.7199 0.538898 15.6306 0.0121805C15.1986 -0.0647557 14.7903 0.231153 14.7133 0.663179C14.6423 1.10112 14.9323 1.50948 15.3702 1.58641C18.1281 2.05395 20.6433 3.36186 22.6437 5.35629C24.644 7.35663 25.946 9.87185 26.4135 12.6297C26.4786 13.0203 26.816 13.2926 27.2007 13.2926C27.248 13.2926 27.2894 13.2866 27.3368 13.2807C27.7688 13.2156 28.0647 12.8013 27.9878 12.3693Z" fill="#C4C4C4"/>
</svg>
