<svg width="20" height="20" viewBox="0 0 20 20" fill="none" xmlns="http://www.w3.org/2000/svg">
<path d="M20 8.20312C20 9.62769 19.6289 11.0312 18.9268 12.2621C18.7131 12.6369 18.2361 12.7673 17.8612 12.5536C17.4864 12.3398 17.3558 11.8626 17.5697 11.4879C18.1374 10.4926 18.4375 9.35669 18.4375 8.20312C18.4375 4.54147 15.4585 1.5625 11.7969 1.5625C8.1352 1.5625 5.15623 4.54147 5.15623 8.20312C5.15623 11.8648 8.1352 14.8438 11.7969 14.8438C12.9364 14.8438 14.0602 14.5505 15.0467 13.9957C15.4228 13.7842 15.8992 13.9177 16.1107 14.2937C16.3222 14.6698 16.1888 15.1462 15.8127 15.3575C14.5929 16.0437 13.2042 16.4062 11.7969 16.4062C9.82512 16.4062 8.01374 15.7068 6.59742 14.5432L1.33176 19.7731C1.17947 19.9243 0.980345 20 0.781218 20C0.580412 20 0.379606 19.9231 0.226865 19.7693C-0.0770905 19.4632 -0.0754121 18.9685 0.23068 18.6644L5.48933 13.4416C4.30631 12.0197 3.59372 10.1932 3.59372 8.20312C3.59372 3.67996 7.27369 0 11.7969 0C16.32 0 20 3.67996 20 8.20312Z" fill="#333333"/>
</svg>
