<svg width="24" height="24" viewBox="0 0 24 24" fill="none" xmlns="http://www.w3.org/2000/svg">
<g clip-path="url(#clip0)">
<path d="M23.8667 12.412C24.0445 12.1661 24.0445 11.8339 23.8667 11.588C22.413 9.57825 19.5983 6.85291 16.6948 5.43567C15.1046 4.6593 13.5249 4.26562 12 4.26562C10.4751 4.26562 8.89545 4.6593 7.30518 5.43549C4.43481 6.83679 1.60382 9.55499 0.133301 11.588C-0.0443115 11.8339 -0.0443115 12.1661 0.133301 12.412C1.58698 14.4218 4.40167 17.1471 7.30518 18.5643C8.89545 19.3407 10.4751 19.7344 12 19.7344C15.137 19.7344 18.0667 18.0835 20.4364 16.0492C22.5231 14.2577 23.8129 12.4865 23.8667 12.412ZM12 18.3281C8.0191 18.3281 4.06238 15.0732 1.59265 12.0002C2.7713 10.5357 7.05927 5.67188 12 5.67188C15.9778 5.67188 19.9345 8.92255 22.4073 11.9998C21.2287 13.4643 16.9407 18.3281 12 18.3281Z" fill="white"/>
<path d="M12 7.07812C9.28601 7.07812 7.07812 9.28601 7.07812 12C7.07812 14.714 9.28601 16.9219 12 16.9219C14.714 16.9219 16.9219 14.714 16.9219 12C16.9219 9.28601 14.714 7.07812 12 7.07812ZM12 15.5156C10.0615 15.5156 8.48438 13.9385 8.48438 12C8.48438 10.0615 10.0615 8.48438 12 8.48438C13.9385 8.48438 15.5156 10.0615 15.5156 12C15.5156 13.9385 13.9385 15.5156 12 15.5156Z" fill="white"/>
<path d="M12 9.89062C10.8369 9.89062 9.89062 10.8369 9.89062 12C9.89062 13.1631 10.8369 14.1094 12 14.1094C13.1631 14.1094 14.1094 13.1631 14.1094 12C14.1094 10.8369 13.1631 9.89062 12 9.89062ZM12 12.7031C11.6124 12.7031 11.2969 12.3876 11.2969 12C11.2969 11.6124 11.6124 11.2969 12 11.2969C12.3876 11.2969 12.7031 11.6124 12.7031 12C12.7031 12.3876 12.3876 12.7031 12 12.7031Z" fill="white"/>
<path d="M23.2969 19.7812C22.9085 19.7812 22.5938 20.096 22.5938 20.4844V21.5993L20.9815 19.9872C20.707 19.7126 20.2617 19.7126 19.9872 19.9872C19.7126 20.2617 19.7126 20.7068 19.9872 20.9815L21.5993 22.5938H20.4844C20.096 22.5938 19.7812 22.9085 19.7812 23.2969C19.7812 23.6852 20.096 24 20.4844 24H23.2969C23.6576 24 23.9615 23.7239 23.9965 23.3663C23.9987 23.3439 23.9998 23.3214 23.9998 23.2991C23.9998 23.2983 24 23.2976 24 23.2969V20.4844C24 20.096 23.6852 19.7812 23.2969 19.7812Z" fill="white"/>
<path d="M20.4844 1.40625H21.5993L19.9872 3.01849C19.7126 3.29315 19.7126 3.73828 19.9872 4.01276C20.1244 4.15009 20.3044 4.21875 20.4844 4.21875C20.6644 4.21875 20.8444 4.15009 20.9815 4.01276L22.5938 2.4007V3.51562C22.5938 3.90399 22.9085 4.21875 23.2969 4.21875C23.6852 4.21875 24 3.90399 24 3.51562V0.703125C24 0.702393 23.9998 0.70166 23.9998 0.701111C23.9989 0.344421 23.7268 0.0388184 23.3665 0.00347901C23.3432 0.00128174 23.3199 0 23.2967 0H20.4844C20.096 0 19.7812 0.314758 19.7812 0.703125C19.7812 1.09149 20.096 1.40625 20.4844 1.40625Z" fill="white"/>
<path d="M3.51562 22.5938H2.4007L4.01276 20.9815C4.28741 20.7068 4.28741 20.2617 4.01276 19.9872C3.73828 19.7126 3.29315 19.7126 3.01849 19.9872L1.40625 21.5993V20.4844C1.40625 20.096 1.09149 19.7812 0.703125 19.7812C0.314758 19.7812 0 20.096 0 20.4844V23.2969C0 23.2976 0.000183105 23.2983 0.000183105 23.2989C0.00128174 23.6902 0.321716 24 0.703125 24H3.51562C3.90399 24 4.21875 23.6852 4.21875 23.2969C4.21875 22.9085 3.90399 22.5938 3.51562 22.5938Z" fill="white"/>
<path d="M0.703125 4.21875C1.09149 4.21875 1.40625 3.90399 1.40625 3.51562V2.4007L3.01849 4.01276C3.29297 4.28741 3.73828 4.28741 4.01276 4.01276C4.28741 3.73828 4.28741 3.29315 4.01276 3.01849L2.4007 1.40625H3.51562C3.90399 1.40625 4.21875 1.09149 4.21875 0.703125C4.21875 0.314758 3.90399 7.94788e-08 3.51562 7.94788e-08H0.703308C0.315308 -0.000183026 0.00128174 0.31604 0.000183105 0.701111C0.000183105 0.701843 0 0.702393 0 0.703125V3.51562C0 3.90399 0.314758 4.21875 0.703125 4.21875Z" fill="white"/>
</g>
<defs>
<clipPath id="clip0">
<rect width="24" height="24" fill="white"/>
</clipPath>
</defs>
</svg>
