<svg height="464pt" viewBox="0 0 464 464" width="464pt" xmlns="http://www.w3.org/2000/svg"><path d="m368 416h-208l-72 48v-48h-56c-17.671875 0-32-14.328125-32-32v-256c0-17.671875 14.328125-32 32-32h336c17.671875 0 32 14.328125 32 32v256c0 17.671875-14.328125 32-32 32zm0 0" fill="#87ced9"/><path d="m360 320h-224v-320h176l48 48zm0 0" fill="#4398d1"/><path d="m312 0v48h48zm0 0" fill="#87ced9"/><path d="m288 168h48v16h-48zm0 0" fill="#3181bd"/><path d="m288 200h48v16h-48zm0 0" fill="#3181bd"/><path d="m288 232h48v16h-48zm0 0" fill="#3181bd"/><path d="m288 264h48v16h-48zm0 0" fill="#3181bd"/><path d="m308 120h6.894531c3.058594 0 5.113281 1.601562 5.113281 4 0 2.210938-1.789062 4-4 4h-20.007812v16h8v8h16v-8.40625c9.308594-1.902344 16-10.089844 16-19.59375-.09375-5.46875-2.382812-10.671875-6.355469-14.433594-3.972656-3.761718-9.289062-5.769531-14.757812-5.566406h-6.886719c-2.210938 0-4-1.789062-4-4s1.789062-4 4-4h20v-16h-8v-8h-16v8.40625c-10.050781 2.0625-16.910156 11.394531-15.878906 21.605469 1.03125 10.207031 9.617187 17.976562 19.878906 17.988281zm0 0" fill="#3181bd"/><path d="m64 48h176c13.253906 0 24 10.746094 24 24v272c0 13.253906-10.746094 24-24 24h-176c-13.253906 0-24-10.746094-24-24v-272c0-13.253906 10.746094-24 24-24zm0 0" fill="#e3584b"/><path d="m200 240h32v96h-32zm0 0" fill="#4398d1"/><g fill="#ffc24f"><path d="m72 304h32v32h-32zm0 0"/><path d="m136 304h32v32h-32zm0 0"/><path d="m72 240h32v32h-32zm0 0"/><path d="m136 240h32v32h-32zm0 0"/><path d="m72 176h32v32h-32zm0 0"/><path d="m136 176h32v32h-32zm0 0"/><path d="m200 176h32v32h-32zm0 0"/></g><path d="m72 80h160v64h-160zm0 0" fill="#87ced9"/><path d="m192 104h16v16h-16zm0 0" fill="#3181bd"/><path d="m160 104h16v16h-16zm0 0" fill="#3181bd"/><path d="m128 104h16v16h-16zm0 0" fill="#3181bd"/><path d="m264 344c0 13.253906-10.746094 24-24 24h-176c-2.335938-.035156-4.652344-.410156-6.878906-1.121094 3.003906 10.136719 12.308594 17.097656 22.878906 17.121094h164.457031c19.628907 0 35.542969-15.914062 35.542969-35.542969v-28.457031h-16zm0 0" fill="#71c4d1"/><path d="m464 384h-160l-16-16 16-16h160zm0 0" fill="#4398d1"/><path d="m424 352h16v32h-16zm0 0" fill="#0a4a7a"/><path d="m320 400h75.558594c2.878906-4.84375 4.414062-10.367188 4.441406-16h-96zm0 0" fill="#71c4d1"/><path d="m264 320v16h112v-238.871094c-2.609375-.714844-5.296875-1.09375-8-1.128906h-8v224zm0 0" fill="#71c4d1"/><path d="m72 80h160v16h-160zm0 0" fill="#71c4d1"/><path d="m264 80c8.835938 0 16 7.164062 16 16v224h-16zm0 0" fill="#3e8dc2"/></svg>