<svg width="213" height="55" viewBox="0 0 213 55" fill="none" xmlns="http://www.w3.org/2000/svg">
<g clip-path="url(#clip0_95_1595)">
<path fill-rule="evenodd" clip-rule="evenodd" d="M15.7017 18.46C16.094 17.4938 16.3104 16.4213 16.3104 15.2754C16.3104 10.5352 12.7297 7.26172 8.0803 7.26172H0.816406V32.9511H4.85899V23.1113H8.11509C9.3325 23.1113 10.4417 22.9335 11.4427 22.5393C12.4437 22.1451 13.3036 21.6079 14.0205 20.9296C14.7355 20.2494 15.3075 19.4262 15.7017 18.46ZM8.61751 18.889H4.85899V11.77H8.68708C9.72671 11.77 10.5847 12.1275 11.2282 12.8077C11.8717 13.4879 12.1944 14.3459 12.1944 15.3469C12.1944 16.4213 11.8369 17.2793 11.1567 17.9247C10.4784 18.5663 9.61849 18.889 8.61751 18.889Z" fill="#66747A"/>
<path d="M43.5187 21.5382H52.2493V14.8115H56.1489V32.9529H52.2493V25.689H43.5187V32.9529H39.6191V14.8115H43.5187V21.5382Z" fill="#66747A"/>
<path fill-rule="evenodd" clip-rule="evenodd" d="M75.8268 27.1538C75.3263 27.7993 73.4287 29.552 70.2093 29.552C66.3 29.552 64.7367 26.6901 64.557 25.2929H78.2249C78.2964 24.8639 78.3312 24.4002 78.3312 23.863C78.3312 22.6108 78.1167 21.3953 77.7244 20.2494C77.3302 19.1035 76.7582 18.1025 76.0065 17.2445C75.2548 16.3865 74.3253 15.7044 73.2528 15.2039C72.1784 14.7034 70.9977 14.4541 69.674 14.4541C68.2788 14.4541 67.0266 14.7034 65.9174 15.2039C64.8082 15.7044 63.842 16.4213 63.0555 17.316C62.2671 18.2088 61.6604 19.2117 61.2294 20.3576C60.8004 21.5016 60.5859 22.719 60.5859 24.006C60.5859 25.4727 60.8352 26.7963 61.3009 27.977C61.7666 29.1577 62.4468 30.1607 63.3048 30.9839C64.1628 31.8051 65.1657 32.4506 66.3464 32.8795C67.5271 33.3085 68.5899 33.523 70.1397 33.523C74.1437 33.523 76.7215 30.6244 76.9727 30.1954L75.8268 27.1538ZM64.5705 22.0794C64.7464 21.0378 66.0276 18.5315 69.4943 18.5315C72.3233 18.5315 73.9891 20.3054 74.4065 22.0794H64.5705Z" fill="#66747A"/>
<path fill-rule="evenodd" clip-rule="evenodd" d="M32.8951 27.1538C32.3927 27.7993 30.4951 29.552 27.2776 29.552C23.3665 29.552 21.8031 26.6901 21.6234 25.2929H35.2913C35.3628 24.8639 35.3995 24.4002 35.3995 23.863C35.3995 22.6108 35.185 21.3953 34.7908 20.2494C34.3985 19.1035 33.8246 18.1025 33.0729 17.2445C32.3231 16.3865 31.3917 15.7044 30.3192 15.2039C29.2448 14.7034 28.0641 14.4541 26.7404 14.4541C25.3452 14.4541 24.093 14.7034 22.9838 15.2039C21.8746 15.7044 20.9084 16.4213 20.122 17.316C19.3335 18.2088 18.7268 19.2117 18.2958 20.3576C17.8668 21.5016 17.6523 22.719 17.6523 24.006C17.6523 25.4727 17.9036 26.7963 18.3673 27.977C18.833 29.1577 19.5113 30.1607 20.3712 30.9839C21.2312 31.8051 22.2321 32.4506 23.4128 32.8795C24.5935 33.3085 25.6583 33.523 27.2061 33.523C31.2101 33.523 33.7898 30.6244 34.0391 30.1954L32.8951 27.1538ZM21.637 22.0794C21.8128 21.0378 23.094 18.5315 26.5626 18.5315C29.3897 18.5315 31.0574 20.3054 31.4729 22.0794H21.637Z" fill="#66747A"/>
<path d="M110.247 33.4927C105.843 33.4927 100.873 30.1478 100.873 23.939C100.873 18.4645 104.968 14.4219 110.284 14.4219C114.025 14.4219 116.473 16.6751 116.937 17.4983L115.865 20.7176C115.865 20.7176 113.575 18.5707 110.856 18.5707C106.655 18.5707 104.809 21.5196 104.809 23.9022C104.809 25.5139 105.381 26.8028 106.491 27.8038C107.6 28.8047 109.066 29.3052 110.893 29.3052C113.438 29.3052 115.619 27.7728 116.12 27.2008L117.266 30.4202C117.266 30.4202 114.765 33.4927 110.247 33.4927Z" fill="#66747A"/>
<path d="M90.7784 33.4927C86.3744 33.4927 81.4043 30.1478 81.4043 23.939C81.4043 18.4645 85.4991 14.4219 90.8151 14.4219C94.5562 14.4219 97.0046 16.6751 97.4703 17.4983L96.3959 20.7176C96.3959 20.7176 94.106 18.5707 91.3871 18.5707C87.186 18.5707 85.3406 21.5196 85.3406 23.9022C85.3406 25.5139 85.9126 26.8028 87.0218 27.8038C88.131 28.8047 89.5977 29.3052 91.4238 29.3052C93.9688 29.3052 96.1504 27.7728 96.6529 27.2008L97.7969 30.4202C97.7969 30.4202 95.2983 33.4927 90.7784 33.4927Z" fill="#66747A"/>
<path d="M174.083 33.4927C169.679 33.4927 164.709 30.1478 164.709 23.939C164.709 18.4645 168.804 14.4219 174.12 14.4219C177.861 14.4219 180.309 16.6751 180.775 17.4983L179.701 20.7176C179.701 20.7176 177.413 18.5707 174.692 18.5707C170.491 18.5707 168.645 21.5196 168.645 23.9022C168.645 25.5139 169.217 26.8028 170.326 27.8038C171.436 28.8047 172.902 29.3052 174.728 29.3052C177.273 29.3052 179.457 27.7728 179.958 27.2008L181.102 30.4202C181.102 30.4202 178.603 33.4927 174.083 33.4927Z" fill="#66747A"/>
<path fill-rule="evenodd" clip-rule="evenodd" d="M134.857 31.0532V32.9509H138.579V14.8114H134.791V16.6511C134.791 16.6511 132.633 14.3457 129.104 14.3457C125.104 14.3457 120.078 16.9815 120.078 23.9343C120.078 30.1199 124.841 33.4514 129.383 33.4514C132.878 33.4514 134.857 31.0532 134.857 31.0532ZM129.669 29.231C125.771 29.231 123.943 26.3073 123.943 23.9343C123.943 20.8366 126.277 18.5313 129.669 18.5313C131.7 18.5313 133.493 19.2907 134.714 20.6666V27.0744C134.714 27.0744 133.133 29.231 129.669 29.231Z" fill="#66747A"/>
<path d="M148.202 21.5382H156.933V14.8115H160.832V32.9529H156.933V25.689H148.202V32.9529H144.303V14.8115H148.202V21.5382Z" fill="#66747A"/>
<path d="M5.70435 55.0007C4.93313 55.0007 4.20114 54.8666 3.50731 54.5969C2.81348 54.3271 2.21666 53.9418 1.69615 53.4409C1.17564 52.9394 0.770682 52.3416 0.46219 51.6482C0.154245 50.9539 0 50.1833 0 49.3346C0 48.4876 0.154245 47.7169 0.46219 47.0224C0.770682 46.3293 1.17564 45.7314 1.69615 45.2299C2.21666 44.7291 2.81348 44.3437 3.50731 44.0738C4.20114 43.804 4.93313 43.6689 5.72342 43.6689C6.24394 43.6689 6.74481 43.7267 7.20757 43.8423C7.66976 43.9584 8.09379 44.112 8.47967 44.3055C8.86501 44.4974 9.19259 44.7099 9.46291 44.9602C9.73217 45.2108 9.94419 45.4616 10.099 45.7314L9.65532 47.0619C9.48144 46.811 9.25035 46.5799 8.98056 46.3478C8.71132 46.1167 8.40227 45.9248 8.07525 45.7503C7.74715 45.5776 7.4005 45.4431 7.01462 45.3455C6.62928 45.2491 6.24394 45.1923 5.83898 45.1923C5.18384 45.1923 4.58648 45.2887 4.04689 45.4806C3.50731 45.6742 3.04458 45.944 2.65924 46.3101C2.2739 46.6763 1.98502 47.0999 1.773 47.6014C1.56098 48.1023 1.46451 48.6795 1.46451 49.3154C1.46451 49.9516 1.58061 50.5303 1.79208 51.0509C2.00409 51.5703 2.31258 51.9943 2.69792 52.3416C3.08326 52.6886 3.54601 52.9586 4.0856 53.1503C4.62572 53.3445 5.22255 53.4409 5.87767 53.4409C6.76445 53.4409 7.55474 53.2664 8.24803 52.9002C8.94186 52.535 9.46291 52.1099 9.80902 51.609L10.2336 52.9203C9.70382 53.552 8.14611 55.0007 5.70435 55.0007Z" fill="#66747A"/>
<path d="M20.3717 43.8604V45.3638H16.6731V54.7688H15.247V45.3638H11.5078V43.8604H20.3717Z" fill="#66747A"/>
<path fill-rule="evenodd" clip-rule="evenodd" d="M29.1442 48.5213C29.3181 48.1174 29.3954 47.6749 29.3954 47.1937C29.3954 46.2275 28.7345 43.8604 25.9847 43.8604H22.5527V54.7668H23.9788V50.4692H25.9847C26.4852 50.4692 26.947 50.3919 27.3721 50.2373C27.7953 50.0846 28.1625 49.8527 28.4504 49.5629C28.7403 49.273 28.9702 48.9271 29.1442 48.5213ZM27.776 46.5193C27.8726 46.73 27.9113 46.9619 27.9113 47.2111C27.9113 48.1097 27.4398 49.0237 26.176 49.0237H23.9421V45.4198H26.176C26.4272 45.4198 26.6591 45.4778 26.8717 45.5744C27.0823 45.671 27.2562 45.8043 27.4108 45.9589C27.5635 46.1135 27.6794 46.3068 27.776 46.5193Z" fill="#66747A"/>
<path fill-rule="evenodd" clip-rule="evenodd" d="M31.3038 54.7688L32.3453 52.2257H37.7619L38.7822 54.7688H40.3242L35.8333 43.8604H34.2526L29.7617 54.7688H31.3038ZM35.043 45.6903L37.1242 50.7204H32.9618L35.043 45.6903Z" fill="#66747A"/>
<path d="M41.3281 54.7688L45.2007 49.1223L41.5388 43.8604H43.332L46.0876 47.7735L48.8626 43.8604H50.6346L46.9746 49.1223L50.8858 54.7688H49.1312L46.107 50.4711L43.1388 54.7688H41.3281Z" fill="#66747A"/>
<path fill-rule="evenodd" clip-rule="evenodd" d="M55.5338 54.5578C56.2276 54.8477 56.9599 54.981 57.7503 54.981C61.1996 54.981 63.59 52.1269 63.59 49.3171C63.59 48.5268 63.4354 47.7345 63.1282 47.0427C62.819 46.347 62.3938 45.7519 61.8566 45.2494C61.3156 44.7489 60.6991 44.3644 60.0054 44.0745C59.3117 43.7847 58.56 43.6494 57.7696 43.6494C56.9793 43.6494 56.2276 43.7847 55.5338 44.0745C54.8401 44.3644 54.2237 44.7489 53.6845 45.2494C53.1454 45.7519 52.7202 46.347 52.413 47.0427C52.1038 47.7345 51.9492 48.4862 51.9492 49.3171C51.9492 50.1442 52.1038 50.8959 52.413 51.5916C52.7202 52.2834 53.1454 52.8824 53.6845 53.3829C54.2237 53.8834 54.8401 54.2699 55.5338 54.5578ZM62.1059 49.3365C62.1059 49.3423 62.1059 49.3481 62.1059 49.3539V49.3171C62.1059 49.3229 62.1059 49.3287 62.1059 49.3365ZM61.7581 47.7345C61.988 48.2311 62.104 48.7645 62.1059 49.3365C62.104 49.9065 61.988 50.4379 61.7581 50.9346C61.5281 51.4351 61.2209 51.8795 60.8344 52.2467C60.4479 52.6119 59.9861 52.9017 59.4469 53.1124C58.9059 53.3249 58.3281 53.4409 57.7116 53.4409C57.0952 53.4409 56.5174 53.3443 55.9783 53.1317C55.4391 52.9191 54.9754 52.6312 54.5908 52.266C54.2043 51.8988 53.8971 51.4544 53.6652 50.9558C53.4333 50.4534 53.3174 49.9143 53.3174 49.3365C53.3174 48.7567 53.4333 48.2176 53.6652 47.7171C53.8971 47.2147 54.2043 46.7722 54.5908 46.4069C54.9754 46.0398 55.4391 45.7519 55.9783 45.5393C56.5174 45.3267 57.0952 45.2301 57.7116 45.2301C58.3281 45.2301 58.9059 45.3461 59.4469 45.5586C59.9861 45.7712 60.4479 46.0591 60.8344 46.4243C61.2209 46.7915 61.5281 47.234 61.7581 47.7345Z" fill="#66747A"/>
<path fill-rule="evenodd" clip-rule="evenodd" d="M72.823 49.932C72.5351 49.4875 72.168 49.1609 71.7448 48.9484L71.7641 48.929C72.052 48.6972 72.2839 48.4073 72.4578 48.0614C72.6317 47.7155 72.7283 47.2904 72.7283 46.7899C72.7283 46.328 72.6317 45.9222 72.4578 45.557C72.2839 45.1918 72.052 44.8826 71.7641 44.6314C71.4742 44.3802 71.109 44.1889 70.6839 44.0536C70.2607 43.9183 69.8182 43.8604 69.3351 43.8604H66.1562V54.7688H69.8182C70.2993 54.7688 70.7418 54.6915 71.167 54.5562C71.5902 54.4209 71.9554 54.2103 72.2646 53.9398C72.5718 53.6692 72.823 53.3426 72.997 52.9388C73.1709 52.533 73.2675 52.0711 73.2675 51.5513C73.2675 50.9136 73.1129 50.3745 72.823 49.932ZM69.6056 48.4073C70.0481 48.4073 70.4346 48.274 70.7631 48.0034C71.0897 47.7348 71.2636 47.3677 71.2636 46.9058C71.2636 46.4633 71.109 46.0961 70.7998 45.8082C70.4926 45.5164 70.1061 45.3638 69.6249 45.3638H67.5824V48.4479L69.6056 48.4073ZM70.0481 53.246C70.28 53.246 70.5119 53.2074 70.7225 53.1301C70.9351 53.0528 71.1283 52.9388 71.281 52.7842C71.4356 52.6296 71.5708 52.4557 71.6675 52.2431C71.7641 52.0305 71.822 51.8006 71.822 51.5513C71.822 51.1262 71.6675 50.7397 71.3409 50.4131C71.0124 50.0846 70.6085 49.9126 70.1061 49.9126H67.563V53.2267L70.0481 53.246Z" fill="#66747A"/>
<path fill-rule="evenodd" clip-rule="evenodd" d="M76.296 54.7688L77.3356 52.2257H82.7521L83.7744 54.7688H85.3145L80.8255 43.8604H79.2448L74.7539 54.7688H76.296ZM80.0352 45.6903L82.1164 50.7204H77.952L80.0352 45.6903Z" fill="#66747A"/>
<path d="M88.8831 43.8604V48.3899H95.3779V43.8604H96.8021V54.7688H95.3779V49.8914H88.8831V54.7688H87.457V43.8604H88.8831Z" fill="#66747A"/>
<path d="M108.273 54.7688V46.1155L101.836 54.7688H100.236V43.8604H101.662V52.533L108.138 43.8604H109.699V54.7688H108.273Z" fill="#66747A"/>
<path d="M119.28 43.8604V45.3638H114.559V48.3899H118.799V49.8914H114.559V53.2653H119.28V54.7688H113.133V43.8604H119.28Z" fill="#66747A"/>
<path d="M184.98 32.9532H189.976V27.9561H184.98V32.9532Z" fill="#66747A"/>
<path d="M198.772 25.6893L184.979 0H212.565L198.772 25.6893Z" fill="#66747A"/>
</g>
<defs>
<clipPath id="clip0_95_1595">
<rect width="212.564" height="55" fill="white"/>
</clipPath>
</defs>
</svg>
