<svg width="603" height="380" viewBox="0 0 603 380" fill="none" xmlns="http://www.w3.org/2000/svg">
<path d="M536 0V100C536 116.569 522.569 130 506 130H466" stroke="#246EDE"/>
<path d="M591 100V130C591 146.569 577.569 160 561 160H466" stroke="#246EDE"/>
<path d="M591 280V250C591 233.431 577.569 220 561 220H466" stroke="#246EDE"/>
<path d="M536 380V280C536 263.431 522.569 250 506 250H466" stroke="#246EDE"/>
<path d="M466 189.958L602 189.958" stroke="#246EDE"/>
<path d="M76.0005 0V100C76.0005 116.569 89.4319 130 106 130H146" stroke="#246EDE"/>
<path d="M21.0005 100V130C21.0005 146.569 34.4319 160 51.0005 160H146" stroke="#246EDE"/>
<path d="M21.0005 280V250C21.0005 233.431 34.4319 220 51.0005 220H146" stroke="#246EDE"/>
<path d="M80.0005 380V280C80.0005 263.431 93.4319 250 110 250H150" stroke="#246EDE"/>
<path d="M146 190L0.999883 190" stroke="#246EDE"/>
<path d="M306 0L306 54" stroke="#246EDE"/>
<path d="M227.512 139.864C228.253 137.839 228.695 135.743 228.837 133.647L233 131.979L232.116 127.202L231.232 122.425L226.756 122.354C225.872 120.443 224.718 118.646 223.306 117.021L225.074 112.914L221.082 110.133L217.077 107.367L213.855 110.476C211.831 109.734 209.735 109.292 207.639 109.149L205.986 105L201.21 105.884L196.435 106.768L196.363 111.246C194.453 112.13 192.657 113.285 191.032 114.696L186.898 112.914L184.132 116.921L181.366 120.928L184.474 124.15C183.733 126.175 183.291 128.271 183.148 130.367L179 132.021L179.884 136.798L180.768 141.575L185.244 141.646C186.128 143.557 187.282 145.354 188.694 146.979L186.926 151.086L190.932 153.852L194.938 156.619L198.159 153.51C200.184 154.252 202.279 154.694 204.375 154.836L206.043 159L210.818 158.116L215.594 157.232L215.665 152.754C217.576 151.87 219.372 150.715 220.997 149.304L225.102 151.072L227.868 147.065L230.634 143.058L227.512 139.864ZM199.229 141.818C193.812 138.082 192.443 130.652 196.178 125.234C199.913 119.815 207.34 118.447 212.757 122.182C218.174 125.918 219.543 133.348 215.808 138.766C212.073 144.199 204.646 145.553 199.229 141.818Z" fill="white"/>
<path d="M227.042 139.692L226.934 139.988L227.154 140.214L229.988 143.113L227.457 146.781L224.924 150.45L221.195 148.844L220.906 148.72L220.669 148.926C219.08 150.307 217.323 151.436 215.455 152.301L215.17 152.433L215.165 152.746L215.101 156.815L210.727 157.624L206.355 158.434L204.839 154.65L204.722 154.359L204.409 154.337C202.36 154.198 200.311 153.766 198.331 153.041L198.038 152.933L197.812 153.15L194.885 155.975L191.216 153.441L187.547 150.907L189.153 147.177L189.277 146.889L189.071 146.652C187.691 145.062 186.562 143.305 185.698 141.437L185.566 141.151L185.252 141.146L181.185 141.082L180.375 136.707L179.566 132.334L183.334 130.832L183.626 130.715L183.647 130.401C183.787 128.352 184.219 126.303 184.944 124.322L185.051 124.028L184.834 123.803L182.01 120.875L184.543 117.205L187.076 113.535L190.834 115.155L191.122 115.28L191.36 115.074C192.949 113.693 194.705 112.564 196.573 111.699L196.858 111.567L196.863 111.254L196.928 107.185L201.301 106.376L205.673 105.566L207.175 109.335L207.291 109.627L207.605 109.648C209.654 109.788 211.703 110.22 213.683 110.945L213.977 111.053L214.202 110.835L217.129 108.011L220.797 110.544L220.798 110.545L224.453 113.091L222.847 116.823L222.723 117.111L222.929 117.348C224.309 118.938 225.438 120.695 226.302 122.563L226.434 122.849L226.748 122.854L230.815 122.918L231.625 127.293L232.434 131.667L228.651 133.183L228.36 133.3L228.339 133.613C228.199 135.662 227.767 137.712 227.042 139.692ZM195.766 124.95C191.874 130.596 193.301 138.337 198.945 142.229C204.589 146.122 212.328 144.711 216.22 139.049C220.111 133.403 218.685 125.663 213.041 121.771C207.396 117.878 199.658 119.305 195.766 124.95Z" stroke="#246EDE" stroke-opacity="0.2"/>
<path d="M287.424 221C287.424 218.791 285.634 217 283.424 217H230.148C227.939 217 226.148 218.791 226.148 221C226.148 223.209 227.939 225 230.148 225H283.424C285.634 225 287.424 223.209 287.424 221Z" fill="white"/>
<path d="M286.924 221C286.924 219.067 285.357 217.5 283.424 217.5H230.148C228.215 217.5 226.648 219.067 226.648 221C226.648 222.933 228.215 224.5 230.148 224.5H283.424C285.357 224.5 286.924 222.933 286.924 221Z" stroke="#246EDE" stroke-opacity="0.3"/>
<rect x="196" y="217" width="21" height="21" rx="4" fill="white"/>
<rect x="196.5" y="217.5" width="20" height="20" rx="3.5" stroke="#246EDE" stroke-opacity="0.3"/>
<path d="M268 234C268 231.791 266.209 230 264 230H230C227.791 230 226 231.791 226 234C226 236.209 227.791 238 230 238H264C266.209 238 268 236.209 268 234Z" fill="white"/>
<path d="M267.5 234C267.5 232.067 265.933 230.5 264 230.5H230C228.067 230.5 226.5 232.067 226.5 234C226.5 235.933 228.067 237.5 230 237.5H264C265.933 237.5 267.5 235.933 267.5 234Z" stroke="#246EDE" stroke-opacity="0.3"/>
<path d="M301 234C301 231.791 299.209 230 297 230H278C275.791 230 274 231.791 274 234C274 236.209 275.791 238 278 238H297C299.209 238 301 236.209 301 234Z" fill="white"/>
<path d="M300.5 234C300.5 232.067 298.933 230.5 297 230.5H278C276.067 230.5 274.5 232.067 274.5 234C274.5 235.933 276.067 237.5 278 237.5H297C298.933 237.5 300.5 235.933 300.5 234Z" stroke="#246EDE" stroke-opacity="0.3"/>
<path d="M375.485 212.459C375.485 197.581 357.717 202.54 349.899 202.54C342.081 202.54 329.288 203.957 329.288 211.75C329.288 219.544 328.578 228.045 352.742 230.879C355.674 231.223 358.24 231.381 360.483 231.35C373.03 231.175 375.485 225.08 375.485 212.459Z" fill="white"/>
<path d="M267.456 196.164C266.746 198.289 265.457 199.839 263.903 200.847M263.903 200.847C259.239 203.869 246.49 204.345 245.424 198.5C224.864 200.847 222.364 179.869 231.864 173.493C222.864 167.5 224.529 155.639 234.763 149.405C230.499 140.903 236.185 126.734 248.267 128.859C248.978 123.191 254.663 111.856 267.456 113.981C269.825 108.356 277.548 99.3597 289.488 108.377M263.903 200.847C265.324 207.5 282.257 215.293 308.553 211.75M284.513 115.398C285.935 111.856 287.112 110.392 289.488 108.377M284.513 115.398C277.406 115.943 275.274 121.775 275.274 123.191M284.513 115.398C287.593 115.162 293.895 116.107 294.463 121.775M289.488 108.377C295.185 103.549 304.417 101.524 312.942 109.022C316.496 101.937 332.842 99.1034 336.396 111.856C342.318 110.439 354.732 110.864 357.006 123.9C368.378 120.358 377.617 126.734 376.196 140.903C388.988 142.32 391.121 155.781 387.567 161.449C393.963 167.117 393.963 175.618 387.567 182.703M379.038 173.493C387.567 177.744 399.364 198.5 370.864 203.419M309.388 206.791C308.678 211.042 302.281 233.005 332.131 244.34C346.346 249.299 352.031 265.594 354.874 272.679C357.717 279.764 371.221 275.513 366.246 259.927C361.476 244.983 359.972 235.249 360.483 231.35M360.56 230.879C360.531 231.025 360.505 231.182 360.483 231.35M302.992 143.029C303.694 139.179 308.039 136.539 312.942 135.878M326.446 140.903C324.918 138.619 322.62 137.153 320.049 136.381C317.779 135.701 315.296 135.561 312.942 135.878M312.942 135.878C315.785 128.859 328.578 121.066 339.238 130.985M312.942 135.878C312.942 128.859 305.124 126.025 299.438 128.859M267.456 133.819C258.217 128.859 246.846 135.878 251.11 146.571C243.292 147.988 242.581 155.073 245.424 159.324M365.535 169.242C365.535 164.554 362.042 159.866 357.006 157.497M337.106 161.449C343.852 155.098 351.389 154.854 357.006 157.497M357.006 157.497C360.56 146.571 370.51 149.405 373.353 155.781M263.903 179.161C258.928 187.662 273.142 200.847 284.513 191.205M267.456 162.866C267.456 157.469 272.818 152.483 278.828 153.991M284.513 157.497C282.651 155.569 280.708 154.462 278.828 153.991M278.828 153.991C280.249 145.154 297.306 142.32 300.149 157.198M301.571 179.161C305.124 187.662 317.206 189.788 321.471 177.744M321.471 222.378C321.471 227.337 332.29 233.527 342.081 237.964C349.899 241.506 359.138 253.55 360.56 266.303M332.842 194.747C338.28 194.33 342.979 192.441 345.346 189.079M346.346 179.869C347.515 183.659 347 186.729 345.346 189.079M345.346 189.079C353.453 194.747 364.113 184.829 357.006 175.618M360.483 231.35C358.24 231.381 355.674 231.223 352.742 230.879C328.578 228.045 329.288 219.544 329.288 211.75C329.288 203.957 342.081 202.54 349.899 202.54C357.717 202.54 375.485 197.581 375.485 212.459C375.485 225.08 373.03 231.175 360.483 231.35Z" stroke="#246EDE"/>
<path d="M387.471 114.979C387.471 111.568 388.19 108.77 389.627 106.586C391.065 104.335 393.157 101.878 395.902 99.2172C397.797 97.3748 399.203 95.8396 400.118 94.6113C401.033 93.3149 401.49 91.9502 401.49 90.5173C401.49 88.5385 400.673 86.9691 399.039 85.8091C397.471 84.5809 395.412 83.9668 392.863 83.9668C390.248 83.9668 387.863 84.615 385.706 85.9115C383.614 87.2079 381.915 89.0161 380.608 91.3361L366 83.148C368.68 78.3716 372.471 74.6528 377.373 71.9917C382.275 69.3306 388.19 68 395.118 68C402.895 68 409.137 69.7059 413.843 73.1176C418.614 76.461 421 81.1692 421 87.242C421 90.0397 420.542 92.5302 419.627 94.7137C418.712 96.829 417.601 98.6372 416.294 100.138C415.052 101.571 413.418 103.209 411.392 105.051C409.17 107.03 407.536 108.736 406.49 110.169C405.444 111.533 404.922 113.137 404.922 114.979H387.471ZM396.196 142C392.993 142 390.346 140.976 388.255 138.929C386.163 136.814 385.118 134.255 385.118 131.253C385.118 128.183 386.131 125.658 388.157 123.679C390.248 121.7 392.928 120.711 396.196 120.711C399.464 120.711 402.144 121.7 404.235 123.679C406.327 125.658 407.373 128.183 407.373 131.253C407.373 134.255 406.327 136.814 404.235 138.929C402.144 140.976 399.464 142 396.196 142Z" fill="white"/>
<path d="M386.971 114.979V115.479H387.471H404.922H405.422V114.979C405.422 113.238 405.913 111.744 406.887 110.473L406.887 110.473L406.894 110.463C407.91 109.072 409.514 107.393 411.725 105.425L411.725 105.425L411.729 105.421C413.763 103.571 415.413 101.919 416.672 100.466C418.017 98.9208 419.154 97.0672 420.086 94.9122L420.086 94.9122L420.089 94.9069C421.033 92.6522 421.5 90.0942 421.5 87.242C421.5 81.0157 419.043 76.1519 414.133 72.7104C409.318 69.2205 402.964 67.5 395.118 67.5C388.126 67.5 382.125 68.8429 377.134 71.5523C372.151 74.2575 368.291 78.0431 365.564 82.9033L365.319 83.3396L365.756 83.5841L380.363 91.7723L380.799 92.0162L381.043 91.5815C382.312 89.3299 383.954 87.5866 385.966 86.3383C388.042 85.0916 390.337 84.4668 392.863 84.4668C395.332 84.4668 397.272 85.0607 398.731 86.2028L398.74 86.21L398.75 86.2168C400.254 87.2845 400.99 88.7029 400.99 90.5173C400.99 91.8341 400.573 93.0979 399.713 94.3178C398.821 95.5139 397.439 97.026 395.554 98.8582C392.793 101.535 390.673 104.02 389.208 106.315C387.703 108.601 386.971 111.501 386.971 114.979ZM387.899 139.281L387.905 139.287C390.099 141.434 392.876 142.5 396.196 142.5C399.578 142.5 402.389 141.436 404.585 139.287L404.585 139.287L404.591 139.281C406.776 137.071 407.873 134.386 407.873 131.253C407.873 128.055 406.777 125.396 404.579 123.316C402.382 121.237 399.573 120.211 396.196 120.211C392.819 120.211 390.01 121.237 387.813 123.316L387.813 123.316L387.808 123.321C385.676 125.403 384.618 128.06 384.618 131.253C384.618 134.386 385.714 137.071 387.899 139.281L387.899 139.281Z" stroke="#246EDE" stroke-opacity="0.3"/>
<path d="M233.807 96.1411C233.807 94.8963 234.069 93.8755 234.592 93.0788C235.115 92.2573 235.875 91.361 236.873 90.39C237.563 89.7178 238.074 89.1577 238.406 88.7095C238.739 88.2365 238.906 87.7386 238.906 87.2158C238.906 86.4938 238.608 85.9212 238.014 85.4979C237.444 85.0498 236.695 84.8257 235.768 84.8257C234.818 84.8257 233.95 85.0622 233.166 85.5353C232.405 86.0083 231.787 86.668 231.312 87.5145L226 84.527C226.974 82.7842 228.353 81.4274 230.135 80.4564C231.918 79.4855 234.069 79 236.588 79C239.417 79 241.686 79.6224 243.398 80.8672C245.133 82.0871 246 83.805 246 86.0207C246 87.0415 245.834 87.9502 245.501 88.7469C245.168 89.5187 244.764 90.1784 244.289 90.7261C243.837 91.249 243.243 91.8465 242.506 92.5187C241.698 93.2407 241.104 93.8631 240.724 94.3859C240.343 94.8838 240.153 95.4689 240.153 96.1411H233.807ZM236.98 106C235.816 106 234.853 105.627 234.093 104.88C233.332 104.108 232.952 103.174 232.952 102.079C232.952 100.959 233.32 100.037 234.057 99.3154C234.818 98.5934 235.792 98.2324 236.98 98.2324C238.169 98.2324 239.143 98.5934 239.904 99.3154C240.664 100.037 241.045 100.959 241.045 102.079C241.045 103.174 240.664 104.108 239.904 104.88C239.143 105.627 238.169 106 236.98 106Z" fill="white"/>
<path d="M244.667 91.0534C245.18 90.4614 245.61 89.7563 245.96 88.9448L245.96 88.9449L245.962 88.9396C246.325 88.0718 246.5 87.0958 246.5 86.0207C246.5 83.6522 245.561 81.7788 243.688 80.4605C241.868 79.1372 239.485 78.5 236.588 78.5C234.005 78.5 231.768 78.9979 229.896 80.0173C228.032 81.0326 226.585 82.4565 225.564 84.283L225.32 84.7183L225.755 84.9628L231.067 87.9503L231.503 88.1956L231.748 87.7593C232.185 86.9811 232.745 86.3864 233.427 85.9617C234.129 85.5386 234.906 85.3257 235.768 85.3257C236.615 85.3257 237.245 85.5294 237.705 85.8911L237.715 85.8984L237.724 85.9052C238.188 86.2358 238.406 86.6575 238.406 87.2158C238.406 87.623 238.279 88.0203 238.001 88.4167C237.691 88.8329 237.203 89.3699 236.525 90.0319C235.511 91.0182 234.722 91.9434 234.172 92.8074C233.583 93.7067 233.307 94.8296 233.307 96.1411V96.6411H233.807H240.153H240.653V96.1411C240.653 95.57 240.812 95.0936 241.121 94.6894L241.121 94.6895L241.128 94.68C241.478 94.1987 242.043 93.6034 242.839 92.8915L242.839 92.8915L242.843 92.888C243.589 92.208 244.198 91.5961 244.667 91.0534ZM244.667 91.0534C244.667 91.0533 244.667 91.0531 244.667 91.053L244.289 90.7261L244.666 91.0539C244.667 91.0537 244.667 91.0536 244.667 91.0534ZM226.027 84.4791C226.1 84.3493 226.176 84.2216 226.254 84.0962L226.245 84.0912L226.027 84.4791ZM231.312 87.5145L230.876 87.2694C230.876 87.2695 230.876 87.2696 230.876 87.2697L231.312 87.5145ZM233.807 96.1411C233.807 95.9702 233.812 95.8035 233.822 95.6411H233.807V96.1411ZM233.737 105.231L233.737 105.231L233.742 105.236C234.605 106.084 235.698 106.5 236.98 106.5C238.283 106.5 239.389 106.086 240.254 105.236L240.254 105.236L240.26 105.231C241.114 104.364 241.545 103.304 241.545 102.079C241.545 100.832 241.115 99.7761 240.248 98.9527C239.382 98.1306 238.278 97.7324 236.98 97.7324C235.682 97.7324 234.579 98.1306 233.713 98.9527L233.713 98.9527L233.707 98.9582C232.866 99.7829 232.452 100.837 232.452 102.079C232.452 103.304 232.883 104.364 233.737 105.231Z" stroke="#246EDE" stroke-opacity="0.3"/>
<path d="M404.396 164.552C404.396 161.97 404.945 159.853 406.043 158.201C407.141 156.497 408.738 154.638 410.834 152.624C412.282 151.23 413.355 150.068 414.053 149.138C414.752 148.157 415.102 147.124 415.102 146.04C415.102 144.543 414.478 143.355 413.23 142.477C412.032 141.548 410.46 141.083 408.513 141.083C406.517 141.083 404.695 141.574 403.048 142.555C401.451 143.536 400.153 144.904 399.155 146.66L388 140.463C390.046 136.849 392.941 134.035 396.684 132.021C400.428 130.007 404.945 129 410.235 129C416.175 129 420.941 130.291 424.535 132.873C428.178 135.403 430 138.966 430 143.562C430 145.679 429.651 147.563 428.952 149.216C428.253 150.817 427.405 152.185 426.406 153.321C425.458 154.405 424.21 155.645 422.663 157.039C420.966 158.536 419.718 159.827 418.92 160.911C418.121 161.944 417.722 163.158 417.722 164.552H404.396ZM411.059 185C408.613 185 406.592 184.225 404.995 182.676C403.398 181.076 402.599 179.139 402.599 176.867C402.599 174.544 403.373 172.633 404.92 171.136C406.517 169.638 408.563 168.889 411.059 168.889C413.554 168.889 415.601 169.638 417.198 171.136C418.795 172.633 419.594 174.544 419.594 176.867C419.594 179.139 418.795 181.076 417.198 182.676C415.601 184.225 413.554 185 411.059 185Z" fill="white"/>
<path d="M403.896 164.552V165.052H404.396H417.722H418.222V164.552C418.222 163.26 418.589 162.156 419.315 161.217L419.315 161.217L419.322 161.208C420.09 160.165 421.308 158.901 422.994 157.414L422.998 157.41C424.554 156.008 425.817 154.755 426.782 153.651C427.819 152.47 428.694 151.057 429.41 149.416L429.41 149.416L429.412 149.411C430.141 147.686 430.5 145.734 430.5 143.562C430.5 138.81 428.605 135.092 424.823 132.464C421.12 129.805 416.242 128.5 410.235 128.5C404.882 128.5 400.279 129.519 396.448 131.58C392.623 133.638 389.659 136.518 387.565 140.217L387.317 140.656L387.757 140.9L398.912 147.097L399.345 147.337L399.59 146.907C400.549 145.22 401.788 143.916 403.307 142.982C404.873 142.051 406.604 141.583 408.513 141.583C410.381 141.583 411.835 142.028 412.923 142.872L412.933 142.879L412.942 142.886C414.06 143.672 414.602 144.709 414.602 146.04C414.602 147.007 414.293 147.938 413.65 148.843C412.974 149.741 411.924 150.879 410.487 152.264C408.375 154.293 406.75 156.18 405.624 157.927C404.459 159.682 403.896 161.902 403.896 164.552ZM404.641 183.03L404.641 183.03L404.647 183.035C406.347 184.684 408.497 185.5 411.059 185.5C413.667 185.5 415.844 184.686 417.546 183.035L417.546 183.035L417.552 183.03C419.243 181.335 420.094 179.271 420.094 176.867C420.094 174.415 419.245 172.369 417.54 170.771C415.837 169.174 413.662 168.389 411.059 168.389C408.455 168.389 406.281 169.174 404.578 170.771L404.578 170.771L404.572 170.776C402.919 172.376 402.099 174.42 402.099 176.867C402.099 179.271 402.95 181.335 404.641 183.03Z" stroke="#246EDE" stroke-opacity="0.3"/>
</svg>
