<svg id="Layer_1" enable-background="new 0 0 56.693 56.693" height="56.693" viewBox="0 0 56.693 56.693" width="56.693" xmlns="http://www.w3.org/2000/svg"><g><path d="m50.828 11.731c-.728-.208-2.01-.448-3.925-.74-2.56-.386-3.446-.373-3.891-.333-.007.001-.057.006-.063.006-.505.06-1.398.282-3.856 1.524-1.801.912-4.458 2.688-8.121 5.426-1.514 1.132-3.036 2.329-4.536 3.572-3.637-2.359-7.507-4.64-11.486-6.767-.046-.022-.093-.044-.14-.064-.609-.225-6.006-2.193-8.305-1.977-1.278.121-1.768.905-1.799 1.599-.14 2.95.184 4.536 1.071 5.302.387.343 1.361 1.033 5.187 2.921 2.994 1.461 5.974 3.094 8.875 4.859-3.132 2.992-6.196 6.18-9.125 9.488-.033.04-.065.079-.095.122-2.055 3.075-4.377 7.087-3.77 8.753.178.485.56.844 1.05.985 1.802.518 3.134.73 4.073.643.547-.053.983-.203 1.335-.456.426-.301 1.325-1.09 4.044-4.362 2.902-3.528 6.176-7.002 9.749-10.337 1.258.902 2.325 1.693 3.309 2.461 6.089 4.741 10.719 9.087 13.753 12.922.815 1.076 1.106 1.39 1.269 1.54.477.444.963.555 1.289.568.082.003.159.001.233-.007.638-.06 1.4-.546 1.45-1.719.032-.741-.029-2.046-.191-3.976-.223-2.646-.449-3.505-.6-3.924-.172-.477-.599-1.294-2.379-3.395-1.304-1.532-3.712-3.767-7.163-6.643-1.408-1.173-2.876-2.331-4.459-3.52.028-.022.057-.044.084-.066 6.029-4.823 11.333-8.315 15.76-10.373 1.234-.542 1.604-.749 1.786-.869.441-.298.73-.681.859-1.125.222-.76-.085-1.692-1.272-2.038z" fill="#474a56"/></g></svg>