<svg id="_x31_" enable-background="new 0 0 24 24" height="512" viewBox="0 0 24 24" width="512" xmlns="http://www.w3.org/2000/svg"><path d="m17.5 24h-15c-1.378 0-2.5-1.121-2.5-2.5v-19c0-1.379 1.122-2.5 2.5-2.5h9c.276 0 .5.224.5.5s-.224.5-.5.5h-9c-.827 0-1.5.673-1.5 1.5v19c0 .827.673 1.5 1.5 1.5h15c.827 0 1.5-.673 1.5-1.5v-10c0-.276.224-.5.5-.5s.5.224.5.5v10c0 1.379-1.122 2.5-2.5 2.5z"/><path d="m3.5 21c-.276 0-.5-.224-.5-.5v-5c0-.276.224-.5.5-.5h1.5c1.103 0 2 .897 2 2s-.897 2-2 2h-1v1.5c0 .276-.224.5-.5.5zm.5-3h1c.551 0 1-.448 1-1s-.449-1-1-1h-1z"/><path d="m10.5 21h-2c-.276 0-.5-.224-.5-.5v-5c0-.276.224-.5.5-.5h2c.827 0 1.5.673 1.5 1.5v3c0 .827-.673 1.5-1.5 1.5zm-1.5-1h1.5c.276 0 .5-.225.5-.5v-3c0-.275-.224-.5-.5-.5h-1.5z"/><path d="m13.5 21c-.276 0-.5-.224-.5-.5v-4c0-.827.673-1.5 1.5-1.5h2c.276 0 .5.224.5.5s-.224.5-.5.5h-2c-.276 0-.5.225-.5.5v4c0 .276-.224.5-.5.5z"/><path d="m16.5 19h-3c-.276 0-.5-.224-.5-.5s.224-.5.5-.5h3c.276 0 .5.224.5.5s-.224.5-.5.5z"/><path d="m20.63 9h-6.783c-1.57 0-2.847-1.301-2.847-2.9 0-1.469 1.078-2.686 2.471-2.874.446-1.866 2.111-3.226 4.029-3.226 1.51 0 2.904.845 3.627 2.175 1.633.241 2.873 1.676 2.873 3.391 0 1.894-1.512 3.434-3.37 3.434zm-3.13-8c-1.558 0-2.897 1.19-3.115 2.769-.034.247-.246.431-.495.431-1.061 0-1.89.853-1.89 1.9s.829 1.9 1.848 1.9h6.783c1.306 0 2.369-1.092 2.369-2.434 0-1.288-.978-2.353-2.226-2.424-.186-.011-.35-.123-.427-.291-.513-1.124-1.63-1.851-2.847-1.851z"/></svg>