<svg xmlns="http://www.w3.org/2000/svg">

	<symbol id="i-tel" viewBox="0 0 24 24" fill="none">
		<path d="M21 7V3M21 3H17M21 3L15 9M18.5 21C9.93959 21 3 14.0604 3 5.5C3 5.11378 3.01413 4.73086 3.04189 4.35173C3.07375 3.91662 3.08968 3.69907 3.2037 3.50103C3.29814 3.33701 3.4655 3.18146 3.63598 3.09925C3.84181 3 4.08188 3 4.56201 3H7.37932C7.78308 3 7.98496 3 8.15802 3.06645C8.31089 3.12515 8.44701 3.22049 8.55442 3.3441C8.67601 3.48403 8.745 3.67376 8.88299 4.05321L10.0491 7.26005C10.2096 7.70153 10.2899 7.92227 10.2763 8.1317C10.2643 8.31637 10.2012 8.49408 10.0942 8.64506C9.97286 8.81628 9.77145 8.93713 9.36863 9.17882L8 10C9.2019 12.6489 11.3501 14.7999 14 16L14.8212 14.6314C15.0629 14.2285 15.1837 14.0271 15.3549 13.9058C15.5059 13.7988 15.6836 13.7357 15.8683 13.7237C16.0777 13.7101 16.2985 13.7904 16.74 13.9509L19.9468 15.117C20.3262 15.255 20.516 15.324 20.6559 15.4456C20.7795 15.553 20.8749 15.6891 20.9335 15.842C21 16.015 21 16.2169 21 16.6207V19.438C21 19.9181 21 20.1582 20.9007 20.364C20.8185 20.5345 20.663 20.7019 20.499 20.7963C20.3009 20.9103 20.0834 20.9262 19.6483 20.9581C19.2691 20.9859 18.8862 21 18.5 21Z" stroke-width="2" stroke-linecap="round" stroke-linejoin="round"/>
	</symbol>

	<symbol id="i-download" viewBox="0 0 537.794 537.795">
		<path d="M463.091 466.114H74.854c-11.857 0-21.497 9.716-21.497 21.497v28.688c0 11.857 9.716 21.496 21.497 21.496h388.084c11.857 0 21.496-9.716 21.496-21.496v-28.688c.231-11.934-9.485-21.497-21.343-21.497zM253.94 427.635c4.208 4.208 9.716 6.35 15.147 6.35a21.197 21.197 0 0 0 15.147-6.35l147.033-147.033c8.339-8.338 8.339-21.955 0-30.447l-20.349-20.349c-8.339-8.339-21.956-8.339-30.447 0l-75.582 75.659V21.497C304.889 9.639 295.173 0 283.393 0h-28.688c-11.857 0-21.497 9.562-21.497 21.497v284.044l-75.658-75.659c-8.339-8.338-22.032-8.338-30.447 0l-20.349 20.349c-8.338 8.338-8.338 22.032 0 30.447L253.94 427.635z"/>
	</symbol>

	<symbol id="i-rightline" viewBox="0 0 1159 280">
		<path d="M1013.8 1.4c-5.8 2.1-8.6 4.3-10.7 8.4-2.9 5.7-3.3 9.2-1.7 14.7 1.4 4.5 5.1 8.5 47.3 50.7l45.8 45.8H0v38h1094.5l-46.1 46.2c-42.8 43-46.2 46.6-47.4 51.1-1.4 5.3-.6 9.6 2.9 15.4 4.2 6.8 15.6 9.7 23.1 5.9 4.9-2.5 126.6-124 129.2-129.1 2.6-4.9 2.8-11.8.4-16.5-2.3-4.5-124-126.6-128.6-129-5.1-2.6-9.9-3.2-14.2-1.6z"/>
	</symbol>

	<symbol id="i-rightline-big" viewBox="0 0 1138 152">
		<path d="M1055.9 3.9c-2.3 2.3-2.9 3.8-2.9 7.2 0 4.2.2 4.4 25.2 29.6l25.2 25.3H0v20h1103.4l-25.2 25.3c-24.6 24.8-25.2 25.5-25.2 29.4 0 6 4.2 10.3 10.1 10.3h4.3l35.3-35.3 35.3-35.3v-8.8l-35.3-35.3L1067.5 1h-4.3c-3.5 0-4.9.6-7.3 2.9z"/>
	</symbol>

	<symbol id="i-check" viewBox="0 0 24 24">
		<path fill-rule="evenodd" clip-rule="evenodd" d="M12 2C6.47715 2 2 6.47715 2 12C2 17.5228 6.47715 22 12 22C17.5228 22 22 17.5228 22 12C22 6.47715 17.5228 2 12 2ZM16.6402 8.2318C17.0645 8.58537 17.1218 9.21593 16.7682 9.64021L11.7682 15.6402C11.5937 15.8497 11.3411 15.9788 11.0691 15.9976C10.797 16.0165 10.5291 15.9234 10.3273 15.74L7.32733 13.0127C6.91868 12.6412 6.88856 12.0087 7.26007 11.6001C7.63157 11.1914 8.26402 11.1613 8.67268 11.5328L10.9002 13.5578L15.2318 8.35984C15.5854 7.93556 16.2159 7.87824 16.6402 8.2318Z"/>
	</symbol>

	<symbol id="i-bitrix" viewBox="0 0 201 202">
		<path d="M157.276 352.796c-17.57-3.639-33.966-11.755-46.837-23.186-33.043-29.347-43.256-75.45-25.8-116.47 4.287-10.075 11.256-20.298 19.891-29.18l7.613-7.83.537 45.83c.514 43.868.63 46.078 2.705 51.606 4.151 11.06 8.602 18.1 16.263 25.73 19.791 19.71 48.821 24.63 73.5 12.455 23.195-11.444 37.818-36.326 36.119-61.46-1.142-16.883-6.82-29.263-19.077-41.597-9.27-9.327-20.174-15.42-32.047-17.904-12.08-2.527-11.5-2.897-11.5 7.328v8.827l6.622 1.22c25.647 4.726 42.61 29.91 37.263 55.327-1.707 8.117-5.515 15.285-11.629 21.888-9.29 10.035-22.36 14.832-33.774 14.81-18.871-.037-34.63-10.76-42.267-26.619 0 0-2-4.533-2.644-7.334-3.78-16.472-1.364-51.148-1.364-51.148l-.293-50.703 2.993-1.547c1.647-.852 3.225-1.548 3.509-1.548.283 0 .643 23.287.8 51.75 0 0-3.635 37.31.857 51.608.648 2.063 1.878 5.591 1.878 5.591 3.937 8.022 10.248 15.079 18.448 18.963 6.224 2.948 9.358 4.282 18.566 4.282 6.017 0 11.347-1.899 17.48-4.72 7.23-3.325 15.523-12.14 18.588-20.19 8.444-22.176-3.314-46.036-25.965-52.689-9.257-2.719-9.068-2.869-9.068 7.197v8.793l4.444 1.188c16.017 4.284 20.904 25.753 8.33 36.785-4.442 3.897-8.445 5.62-15.448 5.62-7.483 0-14.665-4.529-18.358-11.475-2.218-4.173-2.405-8.131-2.405-9.944 0-16.745-.363-46.86-.363-46.86l-.3-51.658 2.3-.57c1.265-.315 6.377-1.092 11.36-1.728 16.9-2.157 41.902 3.374 58.699 12.984 22.9 13.103 40.228 35.61 47.442 61.627 2.482 8.948 2.758 11.55 2.758 25.946 0 14.33-.283 17.019-2.712 25.772-9.812 35.359-34.773 60.635-70.463 71.355-7.511 2.256-11.03 2.686-24.284 2.97-10.696.227-17.629-.111-22.367-1.092z" transform="translate(-76.221 -152.77)"/>
	</symbol>

	<symbol id="i-graph" viewBox="0 0 1010 812">
		<path d="M62.1182 749.527V91.3999H0V749.527V811.666H62.1182H1010V749.527H62.1182Z"/>
		<path d="M247.075 400.367C247.075 376.654 227.677 357.215 203.923 357.215H150.004C126.301 357.215 106.914 376.654 106.914 400.367V708.8H247.075V400.367Z"/>
		<path d="M373.048 270.912C349.345 270.912 329.927 290.309 329.927 314.064V708.8H470.047V314.064C470.047 290.309 450.69 270.912 426.936 270.912H373.048Z"/>
		<path d="M596.051 357.215C572.338 357.215 552.898 376.654 552.898 400.367V708.8H693.06V400.367C693.06 376.654 673.703 357.215 649.97 357.215H596.051Z"/>
		<path d="M872.962 184.567H819.043C795.33 184.567 775.912 204.006 775.912 227.719V708.8H916.094V227.719C916.094 204.006 896.695 184.567 872.962 184.567Z"/>
		<path d="M199.136 302.145L405.001 136.689L594.222 305.762C598.332 309.419 603.469 311.228 608.626 311.228C614.03 311.228 619.414 309.214 623.586 305.186L852.742 83.9204L898.832 129.949H910.75V0H780.781V11.9184L822.248 53.3852L608.03 260.227L420.125 92.3042C412.234 85.2353 400.47 84.9477 392.21 91.5644L172.114 268.528C162.806 276.008 161.316 289.569 168.775 298.898C176.275 308.146 189.848 309.625 199.136 302.145Z"/>
	</symbol>

	<symbol id="i-business" viewBox="0 0 20 18">
		<path fill-rule="evenodd" clip-rule="evenodd" d="M11 13H9C8.45 13 8 12.55 8 12H1.01V16C1.01 17.1 1.91 18 3.01 18H17C18.1 18 19 17.1 19 16V12H12C12 12.55 11.55 13 11 13ZM18 4H14C14 1.79 12.21 0 10 0C7.79 0 6 1.79 6 4H2C0.9 4 0 4.9 0 6V9C0 10.11 0.89 11 2 11H8V10C8 9.45 8.45 9 9 9H11C11.55 9 12 9.45 12 10V11H18C19.1 11 20 10.1 20 9V6C20 4.9 19.1 4 18 4ZM8 4C8 2.9 8.9 2 10 2C11.1 2 12 2.9 12 4H7.99H8Z" />
	</symbol>

	<symbol id="i-clock" viewBox="0 0 24 25">
		<path d="M7.99917 2C6.59585 2 6.56113 4.00215 7.99917 4.00215H8.99553V5.52964C9.63391 5.30192 10.3014 5.13879 10.9961 5.06085V4.00215H12.9985V5.05889C13.6929 5.13603 14.361 5.29882 14.9991 5.52573V4.00215H15.9954C17.4405 4.00215 17.455 2 15.9954 2H7.99917ZM12.0022 6.00234C7.59459 6.00234 3.99812 9.59821 3.99812 14.0051C3.99812 18.4119 7.59459 22 12.0022 22C16.4098 22 19.9984 18.4119 19.9984 14.0051C19.9984 9.59821 16.4098 6.00234 12.0022 6.00234ZM21.0026 6.99853C20.8049 6.99912 20.6119 7.05825 20.4478 7.16846L18.879 8.21348C19.3082 8.72279 19.6794 9.27984 19.9887 9.87576L21.5555 8.82878C22.0116 8.52404 22.1371 7.90877 21.8368 7.44974C21.6523 7.16869 21.3388 6.99919 21.0026 6.99853ZM2.99786 7.00231C2.97371 7.0027 2.94962 7.00396 2.92558 7.00609C2.61735 7.02839 2.33682 7.19224 2.16561 7.4495C1.86373 7.90651 1.98566 8.52128 2.43912 8.82854L4.00984 9.87554C4.31961 9.27968 4.69173 8.72253 5.12146 8.21327L3.55465 7.16847C3.38957 7.05928 3.1958 7.00137 2.99786 7.00231ZM9.7047 10.2917L12.4144 13.0009H15.9954C17.4721 13.0009 17.4333 15.0013 15.9954 15.0013H12.0022C11.736 15.0012 11.4807 14.8951 11.293 14.7063L8.28636 11.708C7.40332 10.8249 8.82944 9.41644 9.7047 10.2917Z" />
	</symbol>

	<symbol id="i-spark" viewBox="0 0 1162 311">
		<path d="M162.5-.5h1a4894.55 4894.55 0 0 0 38 118.5l125 1a5820.509 5820.509 0 0 0-101 74 6336.655 6336.655 0 0 1 38 117.5h-1a113884.642 113884.642 0 0 0-100-73 7750.546 7750.546 0 0 0-99 73h-2a23065.374 23065.374 0 0 1 37.5-115c.667-1.333.667-2.667 0-4a17760.12 17760.12 0 0 0-99.5-72v-1h125a6168.54 6168.54 0 0 1 38-119z"/>
		<path d="M486.5 96.5c20.92-.945 38.087 6.388 51.5 22 4.443 7.614 6.943 15.78 7.5 24.5-10.661.5-21.328.667-32 .5-1.049-14.706-9.049-21.706-24-21-6.479-.38-12.479 1.12-18 4.5-5.604 6.197-6.437 13.031-2.5 20.5l7.5 5.5a338.672 338.672 0 0 1 47 19c21.651 15.101 26.817 34.601 15.5 58.5-12.436 14.324-28.269 20.99-47.5 20-16.958.068-32.291-4.765-46-14.5-10.541-9.449-15.541-21.282-15-35.5h31c-.005 14.163 6.995 22.329 21 24.5 8.308 1.248 16.308.248 24-3 8.964-8.34 9.297-17.007 1-26a59.043 59.043 0 0 0-9-5 235.088 235.088 0 0 1-45-19c-19.892-15.189-23.726-33.689-11.5-55.5 12.068-12.961 26.901-19.628 44.5-20z"/>
		<path d="M586.5 98.5c20.003-.167 40.003 0 60 .5 39.404 2.72 56.904 23.553 52.5 62.5-6.6 19.917-20.433 31.083-41.5 33.5a343.686 343.686 0 0 1-40 1.5v52a252.681 252.681 0 0 1-31.5-1 3720.18 3720.18 0 0 1 .5-149zm31 26c11.338-.167 22.672 0 34 .5 11.782 3.536 17.449 11.536 17 24 .009 12.661-6.324 19.661-19 21-10.661.5-21.328.667-32 .5v-46z"/>
		<path d="M766.5 98.5a211.12 211.12 0 0 1 29 1 39144.205 39144.205 0 0 0 56 148.5c-11 .667-22 .667-33 0a806.568 806.568 0 0 1-11-30 468.796 468.796 0 0 0-53 .5l-10 29a273.104 273.104 0 0 1-33 1 10090.254 10090.254 0 0 1 55-150zm14 40a1678.039 1678.039 0 0 1 19 53.5c-11.995.5-23.995.667-36 .5l17-54z"/>
		<path d="M885.5 98.5a933.402 933.402 0 0 1 70 1.5c31.541 5.9 44.71 24.733 39.5 56.5-3.471 14.14-11.971 23.974-25.5 29.5a4595.285 4595.285 0 0 1 30.5 56.5 10.07 10.07 0 0 1 1.5 6c-11.005.167-22.005 0-33-.5a1346.134 1346.134 0 0 1-27.5-53.5 153.949 153.949 0 0 0-24.5-1v55h-31v-150zm31 26a236.358 236.358 0 0 1 36 1.5c8.492 4.145 12.492 10.978 12 20.5.582 10.013-3.752 16.846-13 20.5a224.17 224.17 0 0 1-35 1.5v-44z"/>
		<path d="M1161.5 246.5v2c-12.34.167-24.67 0-37-.5a5366.626 5366.626 0 0 0-38-58.5 305.054 305.054 0 0 1-14.5 15c-.5 14.663-.67 29.33-.5 44h-32c-.17-49.668 0-99.334.5-149a120.628 120.628 0 0 1 31 0c.33 21.667.67 43.333 1 65a2379.204 2379.204 0 0 1 50.5-65.5c12.35-.833 24.68-.666 37 .5a2471.632 2471.632 0 0 1-52 66 5022.13 5022.13 0 0 0 54 81z"/>
	</symbol>

</svg>