<svg width="20" height="19" viewBox="0 0 20 19" fill="none" xmlns="http://www.w3.org/2000/svg">
<path d="M18.4204 1.42624C17.4841 0.493164 16.1664 0 14.6095 0C12.9081 0 11.4381 0.724335 10.3582 2.09457C10.233 2.25357 10.1199 2.41272 10.0183 2.56821C9.92078 2.4147 9.81198 2.25769 9.69098 2.10083C8.63019 0.726471 7.14322 0 5.39075 0C3.83389 0 2.51614 0.493164 1.57986 1.42624C0.531586 2.47101 0.00012207 3.99765 0.00012207 5.96359C0.00012207 7.87201 1.1163 10.1617 3.31784 12.7692C4.99661 14.7577 7.0477 16.5974 8.40741 17.6561C8.87631 18.0212 9.43814 18.2037 10.0001 18.2037C10.562 18.2037 11.1241 18.0212 11.5928 17.6561C12.0453 17.3038 12.9733 16.5529 14.1046 15.4811C14.4178 15.1845 14.4311 14.6899 14.1345 14.3767C13.8377 14.0634 13.3433 14.0501 13.0301 14.3468C11.9465 15.3732 11.063 16.0883 10.6329 16.4232C10.2603 16.7134 9.73996 16.7134 9.36734 16.4232C8.06989 15.4131 6.11295 13.6578 4.51169 11.7613C2.58237 9.47617 1.56262 7.47147 1.56262 5.96359C1.56262 2.32605 3.64438 1.5625 5.39075 1.5625C8.39444 1.5625 9.21033 4.44748 9.24496 4.57504C9.24588 4.57886 9.24741 4.58237 9.24847 4.58618C9.25351 4.60403 9.25916 4.62158 9.26541 4.63898C9.26801 4.6463 9.2706 4.65363 9.2735 4.6608C9.28006 4.67758 9.28723 4.69406 9.29486 4.71039C9.29822 4.71725 9.30142 4.72427 9.30493 4.73099C9.31348 4.74762 9.32248 4.76364 9.33209 4.77966C9.33545 4.785 9.33865 4.7905 9.34201 4.79584C9.35315 4.81354 9.3652 4.83047 9.37787 4.84726C9.37985 4.84985 9.38168 4.8526 9.38367 4.85504C9.48071 4.98047 9.61606 5.07797 9.77963 5.12604C10.1313 5.22919 10.4966 5.07401 10.6733 4.77127C10.6736 4.77066 10.6741 4.7699 10.6746 4.76913C10.6851 4.75082 10.6949 4.73221 10.704 4.71283C10.7069 4.70688 10.7097 4.70093 10.7124 4.69498C10.7188 4.68063 10.7248 4.66599 10.7303 4.65103C10.735 4.63898 10.7391 4.62677 10.7431 4.61441C10.7449 4.60876 10.7472 4.60342 10.7489 4.59778C10.7513 4.58984 10.9961 3.79364 11.6159 3.02338C12.3959 2.05399 13.4031 1.5625 14.6095 1.5625C16.3559 1.5625 18.4376 2.32605 18.4376 5.96359C18.4376 7.42081 17.4861 9.30771 15.6096 11.5718C15.3343 11.904 15.3804 12.3964 15.7126 12.6718C15.8583 12.7927 16.035 12.8516 16.2106 12.8516C16.4352 12.8516 16.6581 12.7553 16.8126 12.5688C18.9575 9.98108 20.0001 7.82043 20.0001 5.96359C20.0001 3.99765 19.4687 2.47101 18.4204 1.42624Z" fill="black"/>
</svg>
