<svg width="40" height="40" viewBox="0 0 40 40" fill="none" xmlns="http://www.w3.org/2000/svg">
<path d="M31.5834 24.6414C30.7983 23.0048 27.99 20.7331 25.2767 18.5381C23.7633 17.3147 22.3333 16.1581 21.4217 15.2464C21.1933 15.0164 20.8517 14.9431 20.5501 15.0514C19.9884 15.2548 19.6417 15.4114 19.3684 15.5331C18.9518 15.7197 18.8118 15.7831 18.2501 15.8397C18.0017 15.8647 17.7784 15.9981 17.6401 16.2047C16.4617 17.9663 15.2417 17.8163 14.4267 17.5431C14.1667 17.4564 14.1201 17.3447 14.0951 17.2381C13.9201 16.5064 14.7984 14.8031 15.9367 13.6647C18.6451 10.9547 20.0417 10.2763 22.9917 11.5947C26.3384 13.0913 29.6917 14.2631 29.7251 14.2747C30.1634 14.4263 30.6351 14.1963 30.7867 13.7613C30.9367 13.3263 30.7083 12.8513 30.2733 12.6997C30.24 12.6881 26.9534 11.5397 23.6734 10.0713C19.8517 8.36298 17.755 9.48798 14.76 12.4847C13.62 13.6247 12.0716 15.9313 12.4716 17.6231C12.6433 18.3431 13.15 18.8764 13.9033 19.1247C15.7916 19.7481 17.5149 19.1513 18.7983 17.4481C19.3283 17.3664 19.6166 17.2464 20.0499 17.0514C20.2066 16.9814 20.3899 16.8998 20.6333 16.8014C21.5866 17.6964 22.8733 18.7381 24.2283 19.8331C26.6783 21.8147 29.4566 24.0614 30.0816 25.3614C30.39 26.0031 30.0583 26.4214 29.8333 26.6131C29.5033 26.8964 29.0516 26.9864 28.8066 26.8147C28.5366 26.6297 28.185 26.6181 27.9066 26.7847C27.6266 26.9513 27.47 27.2663 27.505 27.5897C27.5616 28.1197 27.0766 28.4231 26.8666 28.5281C26.3333 28.7981 25.7766 28.7514 25.5683 28.5581C25.3349 28.3414 24.9999 28.2781 24.7033 28.3881C24.4066 28.4997 24.1999 28.7731 24.1699 29.0897C24.1199 29.6363 23.7149 30.1613 23.1866 30.3663C22.9316 30.463 22.5616 30.5213 22.2299 30.218C22.0233 30.0313 21.7366 29.9596 21.4683 30.0246C21.1966 30.0913 20.9783 30.288 20.8833 30.5496C20.8516 30.633 20.7799 30.833 19.9999 30.833C19.4449 30.833 18.4466 30.458 17.9583 30.1346C17.3733 29.7496 13.7049 27.013 10.5366 24.3596C10.0916 23.9846 9.32163 23.1813 8.64163 22.4713C8.03827 21.8413 7.48663 21.2696 7.20327 21.0296C6.84827 20.7296 6.32327 20.7746 6.02827 21.128C5.73163 21.4796 5.77491 22.0063 6.12663 22.303C6.38499 22.5213 6.88499 23.0496 7.43663 23.6246C8.17999 24.4013 8.94827 25.2046 9.46499 25.638C12.5683 28.2363 16.2984 31.0413 17.0416 31.5296C17.655 31.933 18.9766 32.4996 20 32.4996C20.8216 32.4996 21.4534 32.3113 21.8916 31.943C22.4783 32.1713 23.145 32.173 23.7866 31.923C24.545 31.6296 25.1683 31.038 25.5216 30.3213C26.1783 30.4613 26.93 30.363 27.6133 30.0197C28.2816 29.6831 28.7649 29.1681 29.0049 28.5663C29.6683 28.6013 30.3516 28.3663 30.9166 27.8813C31.8734 27.0631 32.1366 25.7898 31.5834 24.6414Z" fill="#C4C4C4"/>
<path d="M16.6666 10.8331H9.16661C8.70661 10.8331 8.33325 11.2064 8.33325 11.6664C8.33325 12.1264 8.70661 12.4998 9.16661 12.4998H16.6666C17.1266 12.4998 17.5 12.1264 17.5 11.6664C17.5 11.2064 17.1266 10.8331 16.6666 10.8331Z" fill="#C4C4C4"/>
<path d="M34.025 22.868C33.7667 22.4864 33.25 22.3814 32.8684 22.6414L30.4317 24.278C30.0501 24.5347 29.9484 25.053 30.2051 25.4347C30.3667 25.673 30.6301 25.803 30.8984 25.803C31.0568 25.803 31.2184 25.758 31.3618 25.6614L33.7984 24.0248C34.18 23.768 34.2817 23.2498 34.025 22.868Z" fill="#C4C4C4"/>
<path d="M28.8516 26.8448C28.255 26.3748 25.5866 23.6432 23.9367 21.9232C23.6183 21.5898 23.09 21.5782 22.7583 21.8982C22.4249 22.2165 22.4149 22.7448 22.7333 23.0765C23.1616 23.5232 26.9399 27.4615 27.8183 28.1549C27.9699 28.2749 28.1533 28.3333 28.3333 28.3333C28.5783 28.3333 28.8233 28.2233 28.9899 28.0149C29.275 27.6548 29.2134 27.1298 28.8516 26.8448Z" fill="#C4C4C4"/>
<path d="M25.5216 28.5165C24.5232 27.7181 22.015 25.0531 21.4482 24.4364C21.1349 24.0964 20.6099 24.0764 20.2699 24.3864C19.9315 24.6981 19.9083 25.2265 20.2199 25.5648C20.2499 25.5965 23.2432 28.8282 24.4799 29.8182C24.6332 29.9398 24.8182 29.9998 24.9999 29.9998C25.2432 29.9998 25.4865 29.8915 25.6515 29.6882C25.9383 29.3281 25.88 28.8031 25.5216 28.5165Z" fill="#C4C4C4"/>
<path d="M22.2051 30.1948C21.0167 29.1931 18.5851 26.6048 18.1101 26.0964C17.7951 25.7598 17.2667 25.7414 16.9317 26.0564C16.5951 26.3714 16.5783 26.898 16.8917 27.2348C17.5751 27.9664 19.9017 30.4331 21.1301 31.4698C21.2867 31.6014 21.4767 31.6664 21.6667 31.6664C21.9033 31.6664 22.1401 31.5648 22.3051 31.3698C22.6017 31.0164 22.5567 30.4914 22.2051 30.1948Z" fill="#C4C4C4"/>
<path d="M9.74 9.3948C8.31164 8.04144 2.6 7.60308 0.883359 7.50144C0.646719 7.4898 0.428359 7.56808 0.261719 7.72644C0.095 7.88308 0 8.10308 0 8.33308V23.3331C0 23.7931 0.373359 24.1665 0.833359 24.1665H5.83336C6.19336 24.1665 6.51336 23.9348 6.625 23.5915C6.74664 23.2181 9.61836 14.4048 9.99664 10.0714C10.0184 9.81808 9.925 9.56808 9.74 9.3948ZM5.225 22.4998H1.66664V9.22644C4.345 9.43808 7.235 9.89808 8.285 10.4081C7.84336 14.0581 5.845 20.5431 5.225 22.4998Z" fill="#C4C4C4"/>
<path d="M39.1665 9.16638C32.6232 9.16638 28.9932 10.8414 28.8416 10.9114C28.6249 11.013 28.4632 11.2014 28.3966 11.4297C28.3299 11.6581 28.3632 11.9031 28.4882 12.1064C29.5182 13.7647 32.7432 22.9747 33.3632 25.2214C33.4632 25.583 33.7916 25.833 34.1666 25.833H39.1665C39.6265 25.833 39.9999 25.4597 39.9999 24.9997V9.99966C39.9999 9.53802 39.6265 9.16638 39.1665 9.16638ZM38.3333 24.1664H34.7899C33.9999 21.593 31.6666 14.883 30.3649 12.1097C31.6366 11.6781 34.3683 10.9364 38.3333 10.8431V24.1664Z" fill="#C4C4C4"/>
</svg>
