<svg width="56" height="56" viewBox="0 0 56 56" fill="none" xmlns="http://www.w3.org/2000/svg">
<path d="M20.3726 35.0805C20.0823 34.3844 19.4004 33.9317 18.6461 33.9338C17.8914 33.936 17.2126 34.3926 16.9261 35.0905L14.5078 41.0873L13.796 42.7999C13.1237 44.4313 13.2592 46.2837 14.1606 47.8006C14.987 49.2207 16.4413 50.1608 18.0754 50.3309C18.2668 50.3509 18.4591 50.3608 18.6513 50.3608C18.8432 50.3608 19.035 50.3509 19.2255 50.3313C20.8605 50.1616 22.3162 49.2216 23.1425 47.8006C24.0444 46.2841 24.1794 44.4313 23.5071 42.7999L20.3726 35.0805ZM21.5397 46.8458C21.0128 47.7581 20.0819 48.3639 19.0346 48.4759C18.7794 48.5024 18.522 48.5024 18.2668 48.4759C17.22 48.3635 16.2899 47.7576 15.763 46.8458C15.1619 45.8362 15.0712 44.6023 15.5182 43.5156L18.6474 35.788L21.0731 41.8034L21.7849 43.5156C22.232 44.6023 22.1412 45.8362 21.5397 46.8458Z" fill="black"/>
<path d="M5.59538 31.709C5.08062 31.709 4.66309 32.1265 4.66309 32.6417V33.5744C4.66309 34.0892 5.08062 34.5067 5.59538 34.5067C6.11057 34.5067 6.5281 34.0892 6.5281 33.5744V32.6417C6.5281 32.1265 6.11057 31.709 5.59538 31.709Z" fill="black"/>
<path d="M5.59535 36.3721C5.08061 36.3721 4.66309 36.7896 4.66309 37.3048V49.4281C4.66309 49.9432 5.08061 50.3608 5.59535 50.3608C6.11052 50.3608 6.52804 49.9432 6.52804 49.4281V37.3048C6.52804 36.7896 6.11052 36.3721 5.59535 36.3721Z" fill="black"/>
<path d="M50.7415 30.2882C48.4568 29.1129 46.4803 28.0708 45.7646 25.7762L50.0171 21.5237C50.3669 21.1739 50.5635 20.6995 50.5635 20.2047C50.5635 19.7099 50.3669 19.2356 50.0171 18.8857L44.0828 12.9506C43.6479 12.5157 43.0264 12.3239 42.4218 12.4372L34.2741 0.797779C33.9577 0.34597 33.4581 0.0569166 32.9087 0.00874111C32.3592 -0.0390004 31.8171 0.158042 31.427 0.548221L20.8409 11.1343C20.2541 11.7241 20.1274 12.6307 20.5293 13.359L21.8995 15.826L19.433 14.4549C18.7043 14.0539 17.7985 14.181 17.2078 14.767L14.5351 17.44C14.4197 17.5585 14.3203 17.6922 14.2404 17.8372C10.1828 18.0598 0 18.96 0 22.3835V26.1138C0.030381 26.7857 0.37629 27.4033 0.932696 27.7809V51.4685C0.938338 51.5214 0.948755 51.5735 0.964379 51.6247L0.966549 51.6373C0.979136 51.7206 1.00301 51.8018 1.03729 51.8782C2.15575 55.0782 12.4341 55.9562 18.6513 55.9562C25.2327 55.9562 36.3704 54.974 36.3704 51.2931V35.1704L39.7631 31.7777C42.0573 32.4934 43.0998 34.4695 44.2751 36.7545C44.8888 38.0726 45.6557 39.3135 46.5597 40.4519C47.3809 41.4072 48.5657 41.9723 49.8244 42.0096C49.8817 42.0113 49.939 42.0126 49.9963 42.0126C51.2453 42.0113 52.4432 41.5157 53.3273 40.6333L54.6211 39.3404C55.5451 38.4138 56.0434 37.1456 55.9969 35.8375C55.96 34.5788 55.3945 33.394 54.4397 32.5732C53.3008 31.6688 52.0596 30.9019 50.7415 30.2882ZM48.699 20.2038L34.1912 34.7121L28.2565 28.7769L42.7643 14.2696L48.699 20.2038ZM2.41529 26.547C2.20349 26.4424 2.016 26.2939 1.86583 26.1117L1.86496 26.1121V24.6529C2.233 24.8335 2.6119 24.9906 2.99947 25.1243L3.04027 25.1382L3.04331 25.1395C6.33964 26.3334 12.1672 27.0465 18.6513 27.0465C20.505 27.0465 22.3578 26.9788 24.1702 26.8569L26.4249 28.4354C26.4197 28.4623 26.421 28.49 26.4171 28.5174C23.8369 28.7817 21.245 28.9132 18.6513 28.9115C11.4219 28.9115 4.75028 27.9415 2.41529 26.547ZM19.1201 23.3214L21.6916 25.1212C20.6825 25.1594 19.6673 25.1811 18.6513 25.1811C14.7573 25.215 10.8677 24.9029 7.02842 24.2484C10.8677 23.5944 14.7573 23.2823 18.6513 23.3162C18.8106 23.3188 18.9647 23.3201 19.1196 23.3214H19.1201ZM18.5268 16.0855L23.8469 19.0411C24.211 19.2438 24.665 19.18 24.9597 18.8857C25.254 18.5911 25.3178 18.1366 25.1151 17.7729L22.1599 12.4528L26.2158 8.39693L32.1561 15.5256C32.3666 15.7904 32.7043 15.9201 33.0376 15.865C33.3713 15.8099 33.6491 15.5786 33.7633 15.2604C33.8778 14.9423 33.811 14.5868 33.5888 14.3321L27.5399 7.07275L32.7459 1.86676L40.8915 13.504L27.4905 26.905L15.8537 18.759L18.5268 16.0855ZM14.2495 19.7082C14.3845 19.9369 14.5668 20.1344 14.7843 20.2872L16.4878 21.479C11.0687 21.6144 6.2932 22.2559 3.33974 23.2571C2.78941 23.0926 2.28465 22.8032 1.86496 22.4108V22.406C2.14924 21.663 6.05797 20.1561 14.2495 19.7082ZM18.6513 54.0912C8.77924 54.0912 3.09322 52.2658 2.79765 51.2827V28.7765C6.0137 30.0095 11.9462 30.7764 18.6513 30.7764C21.4932 30.7803 24.3326 30.6267 27.1571 30.3155L32.8722 36.0306C33.2212 36.3817 33.696 36.5783 34.1912 36.577C34.2967 36.5757 34.4017 36.5653 34.5054 36.5462V51.2806C34.219 52.2632 28.5325 54.0912 18.6513 54.0912ZM53.3021 38.0219L52.0088 39.3152C51.4485 39.8721 50.6829 40.1724 49.8934 40.1455C49.1534 40.1255 48.4559 39.7948 47.972 39.2345C47.166 38.2059 46.482 37.0874 45.9334 35.9013C44.8536 33.8015 43.6527 31.4665 41.2179 30.3229L44.3094 27.231C45.453 29.6662 47.7876 30.8667 49.8877 31.947C51.0739 32.4956 52.1924 33.1796 53.221 33.9855C53.7813 34.4695 54.112 35.1665 54.1324 35.9065C54.1602 36.6964 53.8598 37.462 53.3021 38.0219Z" fill="black"/>
<path d="M32.2129 27.4579L31.5536 28.1172C31.3119 28.3516 31.2155 28.6979 31.301 29.0234C31.3865 29.349 31.6404 29.6033 31.966 29.6888C32.2915 29.7743 32.6378 29.6775 32.8722 29.4362L33.5319 28.7769C33.8883 28.411 33.8844 27.8273 33.5237 27.4661C33.1626 27.1055 32.5784 27.1016 32.2129 27.4579Z" fill="black"/>
<path d="M42.1041 17.5667L34.8509 24.8204C34.6091 25.0547 34.5128 25.4011 34.5983 25.7266C34.6838 26.0521 34.9381 26.3064 35.2636 26.3919C35.5891 26.4774 35.9355 26.3806 36.1698 26.1393L43.4231 18.8852C43.6644 18.6509 43.7612 18.3045 43.6757 17.979C43.5901 17.6535 43.3358 17.3992 43.0103 17.3141C42.6848 17.2286 42.3385 17.3249 42.1041 17.5667Z" fill="black"/>
</svg>
