<svg width="30" height="22" viewBox="0 0 30 22" fill="none" xmlns="http://www.w3.org/2000/svg">
<path d="M29.6837 4.56471C29.6837 4.56471 29.3909 2.49412 28.4889 1.57647C27.3526 0.376471 26.0757 0.376471 25.4783 0.305882C21.2965 0 15.0059 0 15.0059 0H14.9941C14.9941 0 8.70363 0 4.49824 0.305882C3.91254 0.376471 2.63566 0.376471 1.4877 1.57647C0.597422 2.49412 0.30457 4.56471 0.30457 4.56471C0.30457 4.56471 0 7.01176 0 9.44706V11.7294C0 14.1647 0.30457 16.6 0.30457 16.6C0.30457 16.6 0.597422 18.6706 1.49941 19.5882C2.63566 20.7882 4.13508 20.7529 4.80281 20.8706C7.20422 21.1059 14.9941 21.1765 14.9941 21.1765C14.9941 21.1765 21.2964 21.1647 25.49 20.8588C26.0757 20.7882 27.3526 20.7882 28.5006 19.5882C29.4026 18.6706 29.6954 16.6 29.6954 16.6C29.6954 16.6 30 14.1647 30 11.7294V9.44706C29.9883 7.01176 29.6837 4.56471 29.6837 4.56471ZM11.9017 14.4941V6.03529L20.0078 10.2824L11.9016 14.4941H11.9017Z" fill="url(#paint0_linear)"/>
<defs>
<linearGradient id="paint0_linear" x1="14.994" y1="0" x2="14.994" y2="21.1828" gradientUnits="userSpaceOnUse">
<stop stop-color="#E52D27"/>
<stop offset="1" stop-color="#BF171D"/>
</linearGradient>
</defs>
</svg>
