<svg width="20" height="20" viewBox="0 0 20 20" fill="none" xmlns="http://www.w3.org/2000/svg">
<path d="M9.2618 14.2969V10.7805H5.74617C5.31469 10.7805 4.96492 10.4308 4.96492 9.9993C4.96492 9.56781 5.31469 9.21805 5.74617 9.21805H9.2618V5.66406C9.2618 5.23258 9.61156 4.88281 10.043 4.88281C10.4745 4.88281 10.8243 5.23258 10.8243 5.66406V9.21805H14.3399C14.7714 9.21805 15.1212 9.56781 15.1212 9.9993C15.1212 10.4308 14.7714 10.7805 14.3399 10.7805H10.8243V14.2969C10.8243 14.7284 10.4745 15.0781 10.043 15.0781C9.61156 15.0781 9.2618 14.7284 9.2618 14.2969ZM19.2188 13.7109C19.6502 13.7109 20 13.3612 20 12.9297V3.125C20 1.40188 18.5981 0 16.875 0H3.125C1.40188 0 0 1.40188 0 3.125V16.875C0 18.5981 1.40188 20 3.125 20H16.875C18.5981 20 20 18.5981 20 16.875C20 16.4435 19.6502 16.0938 19.2188 16.0938C18.7873 16.0938 18.4375 16.4435 18.4375 16.875C18.4375 17.7366 17.7366 18.4375 16.875 18.4375H3.125C2.26344 18.4375 1.5625 17.7366 1.5625 16.875V3.125C1.5625 2.26344 2.26344 1.5625 3.125 1.5625H16.875C17.7366 1.5625 18.4375 2.26344 18.4375 3.125V12.9297C18.4375 13.3612 18.7873 13.7109 19.2188 13.7109Z" fill="white"/>
</svg>
