<svg width="16" height="18" viewBox="0 0 16 18" fill="none" xmlns="http://www.w3.org/2000/svg">
<path d="M11.3733 4.81414C11.6218 5.07269 11.9115 5.27586 12.2344 5.41794C12.5694 5.56535 12.9244 5.64009 13.2897 5.64009C13.655 5.64009 14.0101 5.56535 14.3451 5.41794C14.668 5.27583 14.9577 5.07269 15.2062 4.81414C15.4547 4.55557 15.6499 4.25412 15.7864 3.91815C15.9281 3.56963 16 3.20017 16 2.82005C16 2.43996 15.9281 2.07046 15.7865 1.72194C15.6499 1.38597 15.4547 1.08452 15.2062 0.825949C14.9577 0.567374 14.668 0.36426 14.3451 0.222151C14.0101 0.0747463 13.655 0 13.2897 0C12.9244 0 12.5693 0.0747463 12.2344 0.222151C11.9115 0.36426 11.6218 0.567405 11.3733 0.825949C11.1248 1.08452 10.9296 1.38597 10.793 1.72194C10.6514 2.07046 10.5795 2.43993 10.5795 2.82005C10.5795 3.08878 10.6156 3.35212 10.6867 3.60655L4.75112 7.15505C4.7112 7.10763 4.66979 7.06139 4.62667 7.0165C4.37817 6.75792 4.08849 6.55478 3.76561 6.41267C3.43066 6.26526 3.07558 6.19052 2.71024 6.19052C2.3449 6.19052 1.98985 6.26526 1.6549 6.41267C1.33202 6.55478 1.04231 6.75792 0.793809 7.0165C0.545306 7.27507 0.350073 7.57652 0.213529 7.91249C0.0718651 8.26104 0 8.63048 0 9.01062C0 9.39071 0.0718351 9.76018 0.213529 10.1087C0.350103 10.4447 0.545336 10.7461 0.793809 11.0047C1.04228 11.2633 1.33202 11.4664 1.6549 11.6086C1.98985 11.7559 2.3449 11.8307 2.71024 11.8307C3.07558 11.8307 3.43066 11.756 3.76561 11.6086C4.08849 11.4664 4.3782 11.2633 4.62667 11.0047C4.67069 10.9589 4.71294 10.9117 4.7536 10.8633L10.6856 14.3974C10.6152 14.6507 10.5796 14.9126 10.5796 15.18C10.5796 15.5601 10.6514 15.9296 10.793 16.2781C10.9296 16.614 11.1248 16.9154 11.3733 17.174C11.6219 17.4326 11.9115 17.6358 12.2344 17.7779C12.5694 17.9253 12.9244 18 13.2898 18C13.6551 18 14.0102 17.9253 14.3451 17.7779C14.668 17.6358 14.9577 17.4326 15.2062 17.174C15.4547 16.9154 15.6499 16.614 15.7865 16.2781C15.9281 15.9295 16 15.56 16 15.18C16 14.7999 15.9282 14.4304 15.7865 14.0818C15.6499 13.7459 15.4547 13.4444 15.2062 13.1859C14.9577 12.9273 14.668 12.7242 14.3451 12.582C14.0101 12.4347 13.6551 12.3599 13.2898 12.3599C12.9244 12.3599 12.5694 12.4346 12.2344 12.582C11.9115 12.7242 11.6218 12.9273 11.3733 13.1859C11.3564 13.2035 11.3398 13.2214 11.3234 13.2393L5.34409 9.67696C5.39476 9.46007 5.42051 9.23729 5.42051 9.01059C5.42051 8.78265 5.39446 8.55856 5.34323 8.34046L11.3261 4.7637C11.3416 4.78071 11.3573 4.79751 11.3733 4.81414ZM12.5019 13.9415C12.7277 13.7856 12.9985 13.6946 13.2898 13.6946C14.0781 13.6946 14.7172 14.3596 14.7172 15.1799C14.7172 16.0002 14.0781 16.6653 13.2898 16.6653C12.5014 16.6653 11.8623 16.0002 11.8623 15.1799C11.8623 15.153 11.8631 15.1263 11.8644 15.0998C11.8892 14.6159 12.1365 14.1936 12.5019 13.9415ZM2.71027 10.4959C1.92191 10.4959 1.28282 9.8309 1.28282 9.01059C1.28282 8.19025 1.92191 7.52529 2.71027 7.52529C3.0448 7.52529 3.3522 7.64534 3.59556 7.8459C3.92569 8.11794 4.13772 8.53837 4.13772 9.01062C4.13772 9.48213 3.92629 9.90207 3.59697 10.1742C3.35337 10.3754 3.04543 10.4959 2.71027 10.4959ZM11.8623 2.82005C11.8623 1.99974 12.5014 1.33475 13.2898 1.33475C14.0781 1.33475 14.7172 1.99974 14.7172 2.82005C14.7172 3.64036 14.0781 4.30535 13.2898 4.30535C12.9992 4.30535 12.7291 4.2148 12.5037 4.05967C12.1379 3.80804 11.89 3.38611 11.8646 2.90233C11.8632 2.8751 11.8623 2.84765 11.8623 2.82005Z" fill="black"/>
</svg>
