<svg xmlns="http://www.w3.org/2000/svg">

	<symbol id="right-up" viewBox="0 0 9 9">
		<path d="M8.63169 0.500024C8.63169 0.223881 8.40783 2.36519e-05 8.13169 2.35254e-05L3.63169 2.39258e-05C3.35555 2.37572e-05 3.13169 0.223882 3.13169 0.500024C3.13169 0.776166 3.35555 1.00002 3.63169 1.00002L7.63169 1.00002L7.63169 5.00002C7.63169 5.27617 7.85555 5.50002 8.13169 5.50002C8.40783 5.50002 8.63169 5.27617 8.63169 5.00002L8.63169 0.500024ZM0.353516 8.2782L0.707069 8.63175L8.48524 0.853577L8.13169 0.500024L7.77814 0.14647L-3.77595e-05 7.92464L0.353516 8.2782Z"/>
	</symbol>

	<symbol id="clock" viewBox="0 0 15 15">
		<path d="M7.49983 15C3.3643 15 0 11.6353 0 7.5C0 3.36472 3.3643 0 7.49983 0C11.6354 0 15 3.36438 15 7.49966C15 11.6349 11.6357 15 7.49983 15ZM7.49983 0.841263C3.82852 0.841263 0.841581 3.82827 0.841581 7.49966C0.841581 11.1711 3.82852 14.1581 7.49983 14.1581C11.1711 14.1581 14.1584 11.1714 14.1584 7.49966C14.1584 3.82793 11.1715 0.841263 7.49983 0.841263Z" />
		<path d="M10.1782 9.14858H6.50033C6.23709 9.14858 6.02344 8.94161 6.02344 8.6866V4.24615C6.02344 4.12363 6.07368 4.00612 6.16312 3.91949C6.25255 3.83285 6.37385 3.78418 6.50033 3.78418C6.62681 3.78418 6.74811 3.83285 6.83755 3.91949C6.92698 4.00612 6.97723 4.12363 6.97723 4.24615V8.225H10.1782C10.3022 8.22841 10.4201 8.27855 10.5066 8.36478C10.5932 8.45101 10.6416 8.56653 10.6416 8.68679C10.6416 8.80705 10.5932 8.92257 10.5066 9.0088C10.4201 9.09503 10.3022 9.14517 10.1782 9.14858Z" />
	</symbol>

	<symbol id="thermometer" viewBox="0 0 12 20">
		<path d="M7.81946 11.0228V2.62378C7.81946 1.17469 6.59461 0 5.08363 0C3.57265 0 2.3478 1.17469 2.3478 2.62378V11.0191C-0.0168847 12.466 -0.710856 15.4774 0.797837 17.7453C1.256 18.4339 1.8874 19.0011 2.63395 19.3944C3.3805 19.7878 4.21822 19.9947 5.07002 19.9963L5.09724 20C7.90224 19.995 10.1718 17.8101 10.1666 15.12C10.165 14.3031 9.94918 13.4997 9.53903 12.7838C9.12887 12.0678 8.53755 11.4622 7.81946 11.0228ZM2.94669 18.7035C0.887621 17.5634 0.182178 15.0383 1.37096 13.0636C1.7488 12.436 2.29225 11.9148 2.94669 11.5524C3.00603 11.5196 3.05526 11.4723 3.08941 11.4153C3.12355 11.3583 3.14139 11.2937 3.14113 11.228V2.62378C3.14113 1.58667 4.01778 0.745921 5.09919 0.745921C6.18059 0.745921 7.05724 1.58667 7.05724 2.62378V11.228C7.05698 11.2937 7.07482 11.3583 7.10896 11.4153C7.14311 11.4723 7.19234 11.5196 7.25168 11.5524C9.31075 12.6925 10.0162 15.2176 8.82741 17.1923C7.63863 19.167 5.00571 19.8436 2.94669 18.7035Z"/>
		<path d="M5.48622 12.4477V6.78985C5.48622 6.69094 5.44525 6.59607 5.37232 6.52613C5.29939 6.45618 5.20048 6.41689 5.09734 6.41689C4.9942 6.41689 4.89528 6.45618 4.82235 6.52613C4.74942 6.59607 4.70845 6.69094 4.70845 6.78985V12.4477C3.23937 12.6497 2.21922 13.9556 2.4299 15.3645C2.62007 16.6362 3.75776 17.5794 5.09734 17.5759C6.58143 17.5798 7.78786 16.4292 7.79199 15.0058C7.79569 13.7211 6.81224 12.63 5.48622 12.4477ZM5.09734 16.8262C4.04277 16.8262 3.18789 16.0064 3.18789 14.995C3.19003 13.9845 4.04364 13.1658 5.09734 13.1637C6.1519 13.1637 7.00678 13.9836 7.00678 14.995C7.00678 16.0064 6.15186 16.8262 5.09734 16.8262ZM11.6112 2.56421H9.18066C9.07752 2.56421 8.97861 2.6035 8.90568 2.67345C8.83275 2.74339 8.79178 2.83825 8.79178 2.93717C8.79178 3.03608 8.83275 3.13095 8.90568 3.20089C8.97861 3.27084 9.07752 3.31013 9.18066 3.31013H11.6112C11.7144 3.31013 11.8133 3.27084 11.8862 3.20089C11.9591 3.13095 12.0001 3.03608 12.0001 2.93717C12.0001 2.83825 11.9591 2.74339 11.8862 2.67345C11.8133 2.6035 11.7144 2.56421 11.6112 2.56421ZM11.094 4.42901H9.66677C9.56363 4.42901 9.46472 4.4683 9.39179 4.53825C9.31886 4.60819 9.27789 4.70306 9.27789 4.80197C9.27789 4.90089 9.31886 4.99575 9.39179 5.06569C9.46472 5.13564 9.56363 5.17493 9.66677 5.17493H11.094C11.1971 5.17493 11.2961 5.13564 11.369 5.06569C11.4419 4.99575 11.4829 4.90089 11.4829 4.80197C11.4829 4.70306 11.4419 4.60819 11.369 4.53825C11.2961 4.4683 11.1971 4.42901 11.094 4.42901ZM11.6112 6.29381H9.18066C9.07752 6.29381 8.97861 6.33311 8.90568 6.40305C8.83275 6.47299 8.79178 6.56786 8.79178 6.66677C8.79178 6.76569 8.83275 6.86055 8.90568 6.9305C8.97861 7.00044 9.07752 7.03973 9.18066 7.03973H11.6112C11.7144 7.03973 11.8133 7.00044 11.8862 6.9305C11.9591 6.86055 12.0001 6.76569 12.0001 6.66677C12.0001 6.56786 11.9591 6.47299 11.8862 6.40305C11.8133 6.33311 11.7144 6.29381 11.6112 6.29381ZM11.094 8.15861H9.66677C9.56363 8.15861 9.46472 8.19791 9.39179 8.26785C9.31886 8.3378 9.27789 8.43266 9.27789 8.53158C9.27789 8.63049 9.31886 8.72535 9.39179 8.7953C9.46472 8.86524 9.56363 8.90454 9.66677 8.90454H11.094C11.1971 8.90454 11.2961 8.86524 11.369 8.7953C11.4419 8.72535 11.4829 8.63049 11.4829 8.53158C11.4829 8.43266 11.4419 8.3378 11.369 8.26785C11.2961 8.19791 11.1971 8.15861 11.094 8.15861ZM11.6112 10.0234H9.18066C9.07752 10.0234 8.97861 10.0627 8.90568 10.1327C8.83275 10.2026 8.79178 10.2975 8.79178 10.3964C8.79178 10.4953 8.83275 10.5902 8.90568 10.6601C8.97861 10.73 9.07752 10.7693 9.18066 10.7693H11.6112C11.7144 10.7693 11.8133 10.73 11.8862 10.6601C11.9591 10.5902 12.0001 10.4953 12.0001 10.3964C12.0001 10.2975 11.9591 10.2026 11.8862 10.1327C11.8133 10.0627 11.7144 10.0234 11.6112 10.0234Z"/>	
	</symbol>

	<symbol id="fish" viewBox="0 0 15 20">
		<path d="M7.71377 0.0527919C4.73192 1.71854 2.90855 4.45696 2.57066 7.66663C0.538222 9.27581 0.0233362 14.3251 0.00212517 14.543C-0.0125233 14.685 0.049313 14.8279 0.1649 14.9149C0.221387 14.958 0.287966 14.9858 0.358276 14.9958C0.428586 15.0058 0.500278 14.9975 0.566503 14.9719C1.85151 14.4769 3.31312 13.9697 3.91109 13.8355C4.33067 14.7524 4.77684 15.5539 5.14864 16.0705C3.35582 17.1912 3.33343 19.4788 3.33343 19.5833C3.3334 19.6381 3.34415 19.6923 3.36508 19.7428C3.38601 19.7934 3.4167 19.8394 3.4554 19.8781C3.4941 19.9168 3.54005 19.9474 3.59062 19.9684C3.64119 19.9893 3.69539 20.0001 3.75012 20C6.16427 20 7.37604 19.1585 7.91682 18.5958C8.45757 19.1585 9.66933 20 12.0835 20C12.1382 20.0001 12.1924 19.9893 12.243 19.9684C12.2936 19.9474 12.3395 19.9168 12.3782 19.8781C12.4169 19.8394 12.4476 19.7934 12.4685 19.7428C12.4895 19.6923 12.5002 19.6381 12.5002 19.5833C12.5002 19.4788 12.4778 17.1911 10.685 16.0705C11.1789 15.3841 11.8036 14.1972 12.3229 12.9002C12.7865 13.1869 13.5238 13.3333 14.5835 13.3333C14.6382 13.3333 14.6924 13.3226 14.743 13.3017C14.7936 13.2807 14.8395 13.25 14.8782 13.2113C14.9169 13.1726 14.9476 13.1267 14.9685 13.0761C14.9895 13.0255 15.0002 12.9713 15.0002 12.9166C15.0002 12.7927 14.9756 9.95926 13.3204 8.54815C13.251 4.95946 11.3715 1.86929 8.11983 0.0527919C8.05776 0.0181735 7.98787 3.06518e-07 7.9168 3.09625e-07C7.84573 3.12731e-07 7.77584 0.0181735 7.71377 0.0527919ZM0.914826 13.949C1.11748 12.5489 1.61608 10.2504 2.50855 8.95152C2.55534 10.1492 3.00816 11.6773 3.57637 13.0626C2.84394 13.247 1.69967 13.6563 0.914826 13.949ZM14.1428 12.4902C12.9838 12.4347 12.6876 12.1673 12.627 12.0923C12.912 11.2804 13.1385 10.4577 13.2521 9.7107C13.8881 10.6146 14.086 11.8467 14.1428 12.4902ZM12.6117 12.1407L12.6105 12.1405C12.6109 12.1394 12.6112 12.1382 12.6117 12.1371C12.6113 12.1395 12.612 12.1382 12.6117 12.1407ZM12.5002 8.74995C12.5002 11.1848 10.5011 15.166 9.74664 15.9033C9.70693 15.9421 9.67539 15.9884 9.65387 16.0396C9.63235 16.0907 9.62128 16.1457 9.62132 16.2012C9.62132 16.2264 9.62378 16.252 9.62824 16.2773C9.65347 16.4136 9.74542 16.5287 9.87277 16.5837C11.1769 17.146 11.5329 18.4684 11.6302 19.1557C9.01909 19.0255 8.32128 17.7897 8.28749 17.7263C8.2171 17.5891 8.07506 17.5045 7.92088 17.5025C7.76502 17.5004 7.61979 17.5879 7.54654 17.7259C7.51686 17.7816 6.82388 19.0247 4.20586 19.1557C4.30637 18.4689 4.6677 17.1416 5.96083 16.5837C6.0236 16.5566 6.07874 16.5145 6.12138 16.461C6.16403 16.4076 6.19287 16.3445 6.20536 16.2773C6.23099 16.1397 6.18622 16.0002 6.08697 15.9033C5.33255 15.166 3.33343 11.1848 3.33343 8.74995C3.33343 5.46013 5.00051 2.61058 7.91678 0.896704C10.8331 2.61058 12.5002 5.46013 12.5002 8.74995Z" />
		<path d="M7.91738 7.49988C6.00006 7.49988 4.82572 6.74343 4.81392 6.7357C4.62185 6.60956 4.36388 6.66245 4.23693 6.85371C4.11079 7.04496 4.16247 7.30293 4.35291 7.42988C4.40826 7.46691 5.73311 8.33321 7.91738 8.33321C10.1016 8.33321 11.4265 7.46691 11.4819 7.42988C11.539 7.39184 11.5859 7.34023 11.6183 7.27967C11.6506 7.21911 11.6675 7.15148 11.6674 7.08281C11.6674 7.00347 11.6446 6.92331 11.5974 6.8521C11.5671 6.80655 11.5281 6.76742 11.4826 6.73696C11.4371 6.70649 11.3861 6.68529 11.3324 6.67456C11.2788 6.66382 11.2235 6.66378 11.1698 6.67441C11.1162 6.68505 11.0651 6.70617 11.0196 6.73656C11.0083 6.74425 9.85223 7.49988 7.91738 7.49988ZM4.23697 8.52039C4.11083 8.71204 4.16251 8.96923 4.35294 9.09657C4.40826 9.1336 5.73315 9.9999 7.91738 9.9999C9.08399 9.9999 10.0007 9.74845 10.5643 9.53724C10.7315 9.47458 10.8349 9.31587 10.8349 9.147C10.8349 9.09856 10.8263 9.04895 10.8084 9.00091C10.7278 8.78524 10.4878 8.67618 10.2721 8.75676C9.77286 8.94352 8.95903 9.16653 7.91738 9.16653C6.00006 9.16653 4.82572 8.41008 4.81392 8.40235C4.62189 8.27625 4.36392 8.32914 4.23697 8.52039Z" />
		<path d="M7.49867 4.9997C7.49867 4.53947 7.12558 4.16638 6.66535 4.16638C6.20512 4.16638 5.83203 4.53947 5.83203 4.99971C5.83203 5.45994 6.20512 5.83303 6.66535 5.83303C7.12558 5.83303 7.49867 5.45994 7.49867 4.9997Z" />
	</symbol>

	<symbol id="loc" viewBox="0 0 15 17">
		<path d="M14.6916 13.309C14.5168 13.0779 14.2659 12.8591 13.9461 12.6589C13.3614 12.2929 12.527 11.9792 11.5333 11.7519C11.3205 11.7032 11.1096 11.8406 11.0621 12.0588C11.0146 12.277 11.1486 12.4933 11.3614 12.542C12.2716 12.7502 13.0231 13.0296 13.5347 13.3498C13.9705 13.6226 14.2105 13.9127 14.2105 14.1666C14.2105 14.4126 13.9887 14.6436 13.8026 14.794C13.4851 15.0505 12.9999 15.2945 12.3993 15.4998C11.0965 15.9451 9.35658 16.1904 7.5 16.1904C5.64342 16.1904 3.90347 15.9451 2.60065 15.4998C2.00007 15.2945 1.51485 15.0505 1.19743 14.794C1.01132 14.6436 0.789473 14.4126 0.789473 14.1666C0.789473 13.9127 1.02949 13.6226 1.4653 13.3498C1.97693 13.0296 2.72846 12.7502 3.63863 12.542C3.85141 12.4933 3.98541 12.277 3.93793 12.0588C3.89046 11.8406 3.67947 11.7032 3.46671 11.7519C2.47297 11.9792 1.63865 12.2929 1.05395 12.6589C0.734059 12.8591 0.483239 13.0778 0.308441 13.309C0.103775 13.5796 0 13.8682 0 14.1666C0 14.4072 0.0681884 14.6431 0.202687 14.8678C0.320466 15.0645 0.490734 15.2536 0.708775 15.4298C1.10256 15.748 1.65509 16.0299 2.351 16.2678C3.73218 16.7399 5.56081 16.9999 7.5 16.9999C9.43919 16.9999 11.2678 16.7399 12.649 16.2678C13.3449 16.03 13.8974 15.748 14.2912 15.4298C14.5093 15.2536 14.6795 15.0645 14.7973 14.8678C14.9318 14.6431 15 14.4072 15 14.1666C15 13.8682 14.8962 13.5796 14.6916 13.309Z" />
		<path d="M4.80785 11.4656C5.99787 13.1943 7.17031 14.4024 7.21965 14.453C7.2563 14.4905 7.29981 14.5204 7.3477 14.5407C7.3956 14.561 7.44693 14.5715 7.49876 14.5715C7.5506 14.5715 7.60193 14.561 7.64982 14.5407C7.69771 14.5204 7.74123 14.4905 7.77788 14.453C7.82721 14.4024 8.99966 13.1943 10.1897 11.4656C10.8921 10.4452 11.4528 9.45595 11.8562 8.5253C12.3699 7.34014 12.6303 6.24217 12.6303 5.26193C12.6303 4.55175 12.4946 3.86261 12.2269 3.21363C11.9684 2.58699 11.5985 2.0243 11.1273 1.54119C10.6562 1.05807 10.1074 0.678722 9.49633 0.413674C8.86343 0.139177 8.19135 0 7.49876 0C6.80618 0 6.13411 0.139182 5.5012 0.413674C4.89009 0.678722 4.34134 1.05807 3.87019 1.54119C3.39904 2.0243 3.0291 2.58699 2.77061 3.21363C2.50292 3.8626 2.36719 4.55175 2.36719 5.26193C2.36719 6.24218 2.62765 7.34014 3.14134 8.5253C3.54471 9.45595 4.10542 10.4452 4.80785 11.4656ZM7.49876 0.809528C9.89302 0.809528 11.8409 2.80687 11.8409 5.26193C11.8409 6.83024 11.0493 8.81041 9.55187 10.9884C8.73801 12.172 7.91525 13.1214 7.49869 13.5805C7.08374 13.1234 6.26565 12.1795 5.45283 10.9988C3.95066 8.81665 3.15666 6.83288 3.15666 5.26193C3.15666 2.80687 5.10452 0.809528 7.49876 0.809528Z" />
		<path d="M6.42186 7.87246C6.76277 8.02031 7.12468 8.09529 7.49753 8.09529C7.87038 8.09529 8.23228 8.02032 8.57319 7.87246C8.90227 7.72974 9.19773 7.5255 9.45137 7.26542C9.705 7.00534 9.90419 6.70238 10.0434 6.36493C10.1876 6.01537 10.2607 5.64427 10.2607 5.26195C10.2607 4.87963 10.1876 4.50853 10.0434 4.15896C9.90418 3.82152 9.705 3.51855 9.45137 3.25847C9.19774 2.99839 8.90228 2.79415 8.57319 2.65143C8.23228 2.50356 7.87038 2.42859 7.49753 2.42859C7.12468 2.42859 6.76277 2.50356 6.42186 2.65141C6.09279 2.79414 5.79732 2.99838 5.54369 3.25845C5.29005 3.51854 5.09087 3.8215 4.95168 4.15894C4.80749 4.50852 4.73438 4.87961 4.73438 5.26193C4.73438 5.64425 4.80749 6.01535 4.95168 6.36492C5.09087 6.70236 5.29005 7.00532 5.54369 7.2654C5.79732 7.52549 6.09278 7.72973 6.42186 7.87246ZM7.49753 3.23812C8.58582 3.23812 9.47121 4.146 9.47121 5.26194C9.47121 6.37787 8.58582 7.28576 7.49753 7.28576C6.40924 7.28576 5.52384 6.37787 5.52384 5.26194C5.52384 4.146 6.40924 3.23812 7.49753 3.23812Z" />
	</symbol>

	<symbol id="user" viewBox="0 0 15 19">
		<path d="M7.50003 9.4839C10.0726 9.4839 12.1579 7.36086 12.1579 4.74195C12.1579 2.12317 10.0727 0 7.50003 0C4.92768 0 2.84215 2.12317 2.84215 4.74195C2.84414 7.35999 4.92841 9.4819 7.50003 9.4839ZM7.50003 0.8037C9.63659 0.8037 11.3685 2.56684 11.3685 4.74195C11.3685 6.91706 9.63659 8.6802 7.50003 8.6802C5.36373 8.6802 3.6316 6.91706 3.6316 4.74195C3.63517 2.56848 5.36506 0.80721 7.50003 0.8037ZM7.50003 10.6694C5.47517 10.6694 3.59219 11.4691 2.19495 12.9239C0.777716 14.3987 0 16.4119 0 18.5982C0.00063265 18.8199 0.177079 18.9994 0.394773 19H14.6054C14.8232 18.9994 14.9994 18.8199 15 18.5982C15 16.4161 14.2224 14.3987 12.8053 12.9279C11.408 11.4731 9.52511 10.6694 7.5 10.6694L7.50003 10.6694ZM0.797518 18.1963C0.884381 16.38 1.57511 14.7202 2.75541 13.4905C4.00278 12.1924 5.68834 11.4772 7.4962 11.4772C9.30406 11.4772 10.9896 12.1924 12.2369 13.4905C13.4211 14.7202 14.108 16.38 14.1949 18.1963H0.797518Z" />
	</symbol>

	<symbol id="left" viewBox="0 0 10 15">
		<path d="M8.46973 14L1.46973 7.5L8.46973 1" stroke-width="2" stroke-linecap="round"/>
	</symbol>

	<symbol id="right" viewBox="0 0 10 15">
		<path d="M0.999999 1L8 7.5L0.999999 14" stroke-width="2" stroke-linecap="round"/>
	</symbol>

</svg>
