<svg width="15" height="18" viewBox="0 0 15 18" fill="none" xmlns="http://www.w3.org/2000/svg">
<path d="M11.0952 0C10.0944 0 9.11048 0.404643 8.35145 1.19633L1.60451 8.2336C-0.534836 10.465 -0.534836 14.0951 1.60451 16.3265C3.74385 18.5578 7.22415 18.5578 9.36349 16.3265L13.8615 11.6349L12.8494 10.5794L8.35145 15.2709C6.76311 16.9275 4.20489 16.9275 2.61655 15.2709C1.02821 13.6142 1.02821 10.9459 2.61655 9.28919L9.36349 2.25192C10.3306 1.24325 11.8824 1.24325 12.8494 2.25192C13.8165 3.2606 13.8165 4.87917 12.8494 5.88784L6.10247 12.9251C5.75669 13.2858 5.21131 13.2858 4.86553 12.9251C4.51975 12.5644 4.51975 11.9956 4.86553 11.6349L11.0502 5.18412L10.0382 4.12853L3.85349 10.5794C2.95671 11.5147 2.95671 13.0453 3.85349 13.9807C4.75027 14.9161 6.21773 14.9161 7.11451 13.9807L13.8615 6.94343C15.3795 5.36005 15.3795 2.77972 13.8615 1.19633C13.1024 0.404643 12.096 0 11.0952 0Z" fill="#969696"/>
</svg>
