<svg width="18" height="18" viewBox="0 0 18 18" fill="none" xmlns="http://www.w3.org/2000/svg">
<path d="M9 0C4.03754 0 0 4.03754 0 9C0 13.9625 4.03754 18 9 18C13.9625 18 18 13.9625 18 9C18 4.03754 13.9625 0 9 0ZM9 1.38462C13.1988 1.38462 16.6154 4.80115 16.6154 9C16.6154 13.1988 13.1988 16.6154 9 16.6154C4.80115 16.6154 1.38462 13.1988 1.38462 9C1.38462 4.80115 4.80115 1.38462 9 1.38462ZM5.88462 6.23077C5.6092 6.23077 5.34506 6.34018 5.15031 6.53493C4.95556 6.72968 4.84615 6.99381 4.84615 7.26923C4.84615 7.54465 4.95556 7.80878 5.15031 8.00353C5.34506 8.19828 5.6092 8.30769 5.88462 8.30769C6.16003 8.30769 6.42417 8.19828 6.61892 8.00353C6.81367 7.80878 6.92308 7.54465 6.92308 7.26923C6.92308 6.99381 6.81367 6.72968 6.61892 6.53493C6.42417 6.34018 6.16003 6.23077 5.88462 6.23077ZM12.1154 6.23077C11.84 6.23077 11.5758 6.34018 11.3811 6.53493C11.1863 6.72968 11.0769 6.99381 11.0769 7.26923C11.0769 7.54465 11.1863 7.80878 11.3811 8.00353C11.5758 8.19828 11.84 8.30769 12.1154 8.30769C12.3908 8.30769 12.6549 8.19828 12.8497 8.00353C13.0444 7.80878 13.1538 7.54465 13.1538 7.26923C13.1538 6.99381 13.0444 6.72968 12.8497 6.53493C12.6549 6.34018 12.3908 6.23077 12.1154 6.23077ZM4.15385 11.0769C4.15385 11.0769 5.265 14.5385 9 14.5385C12.735 14.5385 13.8462 11.0769 13.8462 11.0769H4.15385Z" fill="#969696"/>
</svg>
