<svg width="26" height="20" viewBox="0 0 26 20" fill="none" xmlns="http://www.w3.org/2000/svg">
<path d="M18.5819 1.46841C15.5259 1.46841 13.4483 3.4603 13.4483 3.4603C13.4483 3.4603 11.382 1.46841 8.31462 1.46841C4.9125 1.46841 2.15411 4.14378 2.15411 7.44349C2.15411 13.4186 13.4483 19.3936 13.4483 19.3936C13.4483 19.3936 24.7424 13.4186 24.7424 7.44349C24.7424 4.1432 21.9846 1.46841 18.5819 1.46841Z" fill="url(#paint0_radial)"/>
<path d="M18.5819 1.46841C15.5259 1.46841 13.4483 3.4603 13.4483 3.4603C13.4483 3.4603 11.382 1.46841 8.31462 1.46841C4.9125 1.46841 2.15411 4.14378 2.15411 7.44349C2.15411 13.4186 13.4483 19.3936 13.4483 19.3936C13.4483 19.3936 24.7424 13.4186 24.7424 7.44349C24.7424 4.1432 21.9846 1.46841 18.5819 1.46841Z" fill="url(#paint1_linear)"/>
<path opacity="0.69" d="M11.7532 3.44868C12.5105 4.72115 11.5171 6.65332 9.53334 7.76405C7.54957 8.87477 5.32791 8.74376 4.57063 7.47071C3.81334 6.19767 4.80672 4.26608 6.79049 3.15535C8.77426 2.04463 10.9959 2.17564 11.7532 3.44868Z" fill="url(#paint2_radial)"/>
<path opacity="0.015" d="M12.3748 13.3322C10.6672 14.0278 9.45204 15.0591 9.42515 16.8875L6.54602 14.6899L9.08326 13.3884L12.3748 13.3322Z" fill="#4712B9"/>
<path opacity="0.029" d="M12.3742 13.3322C10.6689 14.018 9.45082 15.0446 9.40241 16.8702L6.52747 14.676L9.10953 13.3867L12.3742 13.3322Z" fill="#4712B9"/>
<path opacity="0.044" d="M12.373 13.3322C10.6702 14.0075 9.44906 15.0307 9.37913 16.8528L6.50897 14.662L9.13647 13.3849L12.373 13.3322Z" fill="#4712B9"/>
<path opacity="0.059" d="M12.3724 13.3322C10.6719 13.9971 9.44726 15.0162 9.35701 16.8354L6.49103 14.6487L9.16395 13.3838L12.3724 13.3322Z" fill="#4712B9"/>
<path opacity="0.073" d="M12.3718 13.3322C10.6743 13.9867 9.44605 15.0018 9.33428 16.818L6.47308 14.6348L9.19083 13.382L12.3718 13.3322Z" fill="#4712B9"/>
<path opacity="0.088" d="M12.3706 13.3322C10.6755 13.9762 9.44428 14.9878 9.31099 16.8L6.45398 14.6203L9.21715 13.3797L12.3706 13.3322Z" fill="#4712B9"/>
<path opacity="0.103" d="M12.37 13.3322C10.6773 13.9658 9.44306 14.9733 9.28825 16.7826L6.43542 14.6064L9.24342 13.3786L12.37 13.3322Z" fill="#4712B9"/>
<path opacity="0.118" d="M12.3694 13.3322C10.6792 13.9554 9.44191 14.9594 9.26559 16.7652L6.41754 14.5925L9.27097 13.3768L12.3694 13.3322Z" fill="#4712B9"/>
<path opacity="0.132" d="M12.3682 13.3322C10.6803 13.9449 9.44008 14.9449 9.24224 16.7478L6.39838 14.5791L9.29723 13.3757L12.3682 13.3322Z" fill="#4712B9"/>
<path opacity="0.147" d="M12.3677 13.3322C10.6827 13.9345 9.43893 14.9304 9.21957 16.7304L6.38049 14.5652L9.32417 13.3739L12.3677 13.3322Z" fill="#4712B9"/>
<path opacity="0.162" d="M12.367 13.3328C10.6845 13.9246 9.43771 14.9171 9.19683 16.7136L6.36194 14.5519L9.35104 13.3728L12.367 13.3328Z" fill="#4712B9"/>
<path opacity="0.176" d="M12.3659 13.3328C10.6857 13.9142 9.43595 14.9026 9.17356 16.6962L6.34344 14.538L9.37738 13.371L12.3659 13.3328Z" fill="#4712B9"/>
<path opacity="0.191" d="M12.3653 13.3328C10.6875 13.9038 9.43473 14.8881 9.15082 16.6783L6.32489 14.5241L9.40425 13.3693L12.3653 13.3328Z" fill="#4712B9"/>
<path opacity="0.206" d="M12.3646 13.3328C10.6893 13.8939 9.43352 14.8742 9.1281 16.6609L6.30695 14.5102L9.43173 13.3675L12.3646 13.3328Z" fill="#4712B9"/>
<path opacity="0.221" d="M12.3634 13.3328C10.6904 13.8835 9.43169 14.8597 9.10475 16.6435L6.28778 14.4962L9.45739 13.3658L12.3634 13.3328Z" fill="#4712B9"/>
<path opacity="0.235" d="M12.3629 13.3328C10.6929 13.8731 9.43053 14.8458 9.08207 16.6261L6.26929 14.4823L9.48432 13.3646L12.3629 13.3328Z" fill="#4712B9"/>
<path opacity="0.25" d="M12.3622 13.3328C10.6947 13.8626 9.42932 14.8313 9.05934 16.6087L6.25134 14.4684L9.5112 13.3629L12.3622 13.3328Z" fill="#4712B9"/>
<path opacity="0.265" d="M12.3611 13.3328C10.6959 13.8522 9.42755 14.8168 9.03606 16.5913L6.23224 14.4551L9.53753 13.3617L12.3611 13.3328Z" fill="#4712B9"/>
<path opacity="0.279" d="M12.3605 13.3328C10.6976 13.8417 9.42634 14.8029 9.01333 16.5739L6.21429 14.4412L9.56501 13.36L12.3605 13.3328Z" fill="#4712B9"/>
<path opacity="0.294" d="M12.3598 13.3328C10.6994 13.8313 9.42512 14.7884 8.99059 16.5565L6.19574 14.4273L9.59128 13.3583L12.3598 13.3328Z" fill="#4712B9"/>
<path opacity="0.309" d="M12.3593 13.3328C10.7013 13.8209 9.42337 14.7739 8.96792 16.5386L6.17786 14.4128L9.61882 13.356L12.3593 13.3328Z" fill="#4712B9"/>
<path opacity="0.324" d="M12.358 13.3328C10.703 13.8104 9.42154 14.76 8.94458 16.5212L6.15869 14.3989L9.64448 13.3542L12.358 13.3328Z" fill="#4712B9"/>
<path opacity="0.338" d="M12.3575 13.3328C10.7049 13.8 9.42039 14.7455 8.92191 16.5038L6.14081 14.3855L9.67203 13.3531L12.3575 13.3328Z" fill="#4712B9"/>
<path opacity="0.353" d="M12.3568 13.3328C10.7066 13.7896 9.41912 14.7316 8.89972 16.4864L6.1228 14.3716L9.69945 13.3519L12.3568 13.3328Z" fill="#4712B9"/>
<path opacity="0.368" d="M12.3557 13.3328C10.7078 13.7791 9.41737 14.7171 8.87645 16.469L6.10431 14.3577L9.72578 13.3502L12.3557 13.3328Z" fill="#4712B9"/>
<path opacity="0.382" d="M12.355 13.3328C10.7096 13.7693 9.41614 14.7026 8.85371 16.4516L6.08575 14.3438L9.75265 13.3484L12.355 13.3328Z" fill="#4712B9"/>
<path opacity="0.397" d="M12.3545 13.3328C10.7114 13.7589 9.41498 14.6887 8.83103 16.4342L6.06726 14.3299L9.77958 13.3467L12.3545 13.3328Z" fill="#4712B9"/>
<path opacity="0.412" d="M12.3533 13.3328C10.7132 13.7484 9.41317 14.6742 8.80769 16.4162L6.04871 14.316L9.80586 13.3449L12.3533 13.3328Z" fill="#4712B9"/>
<path opacity="0.426" d="M12.3527 13.3328C10.715 13.738 9.41201 14.6597 8.78502 16.3989L6.03021 14.302L9.83279 13.3432L12.3527 13.3328Z" fill="#4712B9"/>
<path opacity="0.441" d="M12.3521 13.3328C10.7168 13.7275 9.4108 14.6458 8.76229 16.3815L6.01227 14.2881L9.85967 13.3415L12.3521 13.3328Z" fill="#4712B9"/>
<path opacity="0.456" d="M12.3509 13.3328C10.718 13.7171 9.40903 14.6313 8.739 16.3641L5.99316 14.2742L9.88599 13.3397L12.3509 13.3328Z" fill="#4712B9"/>
<path opacity="0.471" d="M12.3503 13.3328C10.7198 13.7067 9.40782 14.6174 8.71628 16.3467L5.97522 14.2609L9.91347 13.3386L12.3503 13.3328Z" fill="#4712B9"/>
<path opacity="0.485" d="M12.3497 13.3328C10.7215 13.6962 9.4066 14.6029 8.69354 16.3293L5.95667 14.247L9.93974 13.3374L12.3497 13.3328Z" fill="#4712B9"/>
<path opacity="0.5" d="M12.3485 13.3328C10.7234 13.6858 9.40484 14.5884 8.67026 16.3119L5.93817 14.2331L9.96668 13.3357L12.3485 13.3328Z" fill="#4712B9"/>
<path opacity="0.515" d="M12.3479 13.3328C10.7251 13.6754 9.40362 14.5745 8.64753 16.2945L5.91962 14.2191L9.99295 13.3333L12.3479 13.3328Z" fill="#4712B9"/>
<path opacity="0.529" d="M12.3473 13.3328C10.727 13.6649 9.40246 14.56 8.62485 16.2765L5.90112 14.2046L10.0199 13.3316L12.3473 13.3328Z" fill="#4712B9"/>
<path opacity="0.544" d="M12.3461 13.3328C10.7281 13.6545 9.40064 14.5455 8.60151 16.2591L5.88257 14.1913L10.0468 13.3304L12.3461 13.3328Z" fill="#4712B9"/>
<path opacity="0.559" d="M12.3455 13.3327C10.73 13.6446 9.39888 14.5316 8.57883 16.2417L5.86407 14.1774L10.0731 13.3287L12.3455 13.3327Z" fill="#4712B9"/>
<path opacity="0.574" d="M12.3449 13.3328C10.7317 13.6342 9.39761 14.5171 8.55605 16.2244L5.84607 14.1635L10.1005 13.327L12.3449 13.3328Z" fill="#4712B9"/>
<path opacity="0.588" d="M12.3437 13.3327C10.7335 13.6237 9.39584 14.5032 8.53276 16.2069L5.82697 14.1495L10.1262 13.3252L12.3437 13.3327Z" fill="#4712B9"/>
<path opacity="0.603" d="M12.3431 13.3327C10.7353 13.6133 9.39463 14.4887 8.51003 16.1895L5.80902 14.1356L10.1537 13.3235L12.3431 13.3327Z" fill="#4712B9"/>
<path opacity="0.618" d="M12.3425 13.3328C10.7371 13.6029 9.39347 14.4742 8.48735 16.1722L5.79053 14.1223L10.1806 13.3229L12.3425 13.3328Z" fill="#4712B9"/>
<path opacity="0.632" d="M12.3413 13.3328C10.7383 13.5925 9.39165 14.4603 8.46402 16.1542L5.77197 14.1078L10.2069 13.3206L12.3413 13.3328Z" fill="#4712B9"/>
<path opacity="0.647" d="M12.3407 13.3328C10.7401 13.582 9.39049 14.4458 8.44134 16.1368L5.75348 14.0939L10.2338 13.3188L12.3407 13.3328Z" fill="#4712B9"/>
<path opacity="0.662" d="M12.3401 13.3328C10.7419 13.5716 9.38928 14.4313 8.41921 16.1194L5.73553 14.08L10.2607 13.3171L12.3401 13.3328Z" fill="#4712B9"/>
<path opacity="0.676" d="M12.339 13.3328C10.7437 13.5612 9.38752 14.4174 8.39594 16.102L5.71704 14.0661L10.2877 13.3154L12.339 13.3328Z" fill="#4712B9"/>
<path opacity="0.691" d="M12.3383 13.3328C10.7455 13.5507 9.3863 14.4029 8.3732 16.0846L5.69849 14.0528L10.3145 13.3142L12.3383 13.3328Z" fill="#4712B9"/>
<path opacity="0.706" d="M12.3377 13.3328C10.7473 13.5403 9.38509 14.389 8.35047 16.0673L5.68054 14.0388L10.3414 13.3125L12.3377 13.3328Z" fill="#4712B9"/>
<path opacity="0.721" d="M12.3366 13.3328C10.7485 13.5299 9.38332 14.3745 8.32719 16.0499L5.66144 14.0249L10.3677 13.3107L12.3366 13.3328Z" fill="#4712B9"/>
<path opacity="0.735" d="M12.336 13.3328C10.7503 13.52 9.38212 14.36 8.30446 16.0325L5.64349 14.011L10.3946 13.3096L12.336 13.3328Z" fill="#4712B9"/>
<path opacity="0.75" d="M12.3353 13.3328C10.752 13.5096 9.38089 14.3461 8.28172 16.0145L5.62494 13.9971L10.4215 13.3078L12.3353 13.3328Z" fill="#4712B9"/>
<path opacity="0.765" d="M12.3342 13.3328C10.7538 13.4991 9.37914 14.3316 8.25845 15.9971L5.60645 13.9832L10.4484 13.3061L12.3342 13.3328Z" fill="#4712B9"/>
<path opacity="0.779" d="M12.3335 13.3328C10.7556 13.4887 9.37791 14.3171 8.23571 15.9797L5.58789 13.9693L10.4747 13.3044L12.3335 13.3328Z" fill="#4712B9"/>
<path opacity="0.794" d="M12.3329 13.3328C10.7574 13.4783 9.3767 14.3032 8.21298 15.9623L5.56995 13.9554L10.5022 13.3026L12.3329 13.3328Z" fill="#4712B9"/>
<path opacity="0.809" d="M12.3318 13.3328C10.7586 13.4678 9.37434 14.2887 8.18969 15.9449L5.55084 13.9415L10.5279 13.3009L12.3318 13.3328Z" fill="#4712B9"/>
<path opacity="0.824" d="M12.3311 13.3328C10.7604 13.4574 9.37312 14.2748 8.16695 15.9275L5.53229 13.9281L10.5548 13.2997L12.3311 13.3328Z" fill="#4712B9"/>
<path opacity="0.838" d="M12.3306 13.3328C10.7628 13.447 9.37197 14.2603 8.14429 15.9101L5.5144 13.9142L10.5823 13.298L12.3306 13.3328Z" fill="#4712B9"/>
<path opacity="0.853" d="M12.3294 13.3328C10.764 13.4365 9.37014 14.2458 8.12094 15.8922L5.49524 13.8997L10.608 13.2957L12.3294 13.3328Z" fill="#4712B9"/>
<path opacity="0.868" d="M12.3288 13.3328C10.7658 13.4261 9.36899 14.2319 8.09828 15.8748L5.47736 13.8858L10.6355 13.2945L12.3288 13.3328Z" fill="#4712B9"/>
<path opacity="0.882" d="M12.3282 13.3328C10.7676 13.4157 9.36777 14.2174 8.07554 15.8574L5.4588 13.8719L10.6618 13.2928L12.3282 13.3328Z" fill="#4712B9"/>
<path opacity="0.897" d="M12.327 13.3328C10.7688 13.4052 9.36601 14.2029 8.05226 15.84L5.44031 13.8586L10.6887 13.2916L12.327 13.3328Z" fill="#4712B9"/>
<path opacity="0.912" d="M12.3264 13.3328C10.7706 13.3954 9.36479 14.189 8.02952 15.8226L5.42175 13.8446L10.7156 13.2899L12.3264 13.3328Z" fill="#4712B9"/>
<path opacity="0.926" d="M12.3258 13.3328C10.773 13.3849 9.36358 14.1745 8.0068 15.8052L5.40381 13.8307L10.7425 13.2881L12.3258 13.3328Z" fill="#4712B9"/>
<path opacity="0.941" d="M12.3252 13.3328C10.7747 13.3745 9.36236 14.1606 7.98406 15.7878L5.38525 13.8168L10.7693 13.2864L12.3252 13.3328Z" fill="#4712B9"/>
<path opacity="0.956" d="M12.324 13.3328C10.776 13.3641 9.3606 14.1461 7.96138 15.7704L5.36676 13.8035L10.7957 13.2852L12.324 13.3328Z" fill="#4712B9"/>
<path opacity="0.971" d="M12.3234 13.3328C10.7777 13.3536 9.35939 14.1316 7.93865 15.7525L5.34882 13.789L10.8232 13.2829L12.3234 13.3328Z" fill="#4712B9"/>
<path opacity="0.985" d="M12.325 13.333C10.7817 13.3435 9.36037 14.118 7.91811 15.7353L5.33246 13.7753L10.8522 13.282L12.325 13.333Z" fill="#4712B9"/>
<path d="M12.3216 13.3328C10.7807 13.3328 9.35641 14.1032 7.89264 15.7177L5.31177 13.7612L10.8764 13.28L12.3216 13.3328Z" fill="#4712B9"/>
<path opacity="0.091" d="M6.24182 10.0957V12.891L12.2971 13.3258C9.31221 12.7403 7.16945 10.0841 7.39897 7.06146C7.31111 8.20117 6.89092 9.23827 6.24182 10.0957Z" fill="url(#paint3_linear)"/>
<path opacity="0.182" d="M6.24182 9.99534V12.8881L12.2386 13.3188C9.25364 12.7333 7.11088 10.0771 7.3404 7.05447C7.25612 8.15534 6.85745 9.1594 6.24182 9.99534Z" fill="url(#paint4_linear)"/>
<path opacity="0.273" d="M6.24182 9.89508V12.8852L12.18 13.3113C9.19506 12.7258 7.0523 10.0696 7.28182 7.04697C7.20053 8.10958 6.82398 9.08117 6.24182 9.89508Z" fill="url(#paint5_linear)"/>
<path opacity="0.364" d="M6.24182 9.79537V12.8829L12.1214 13.3049C9.13649 12.7194 6.99373 10.0632 7.22325 7.04059C7.14495 8.06378 6.79051 9.00233 6.24182 9.79537Z" fill="url(#paint6_linear)"/>
<path opacity="0.455" d="M6.24182 9.69508V12.88L12.0628 13.298C9.07791 12.7125 6.93515 10.0562 7.16467 7.03363C7.08936 8.01798 6.75704 8.92349 6.24182 9.69508Z" fill="url(#paint7_linear)"/>
<path opacity="0.545" d="M6.24182 9.59479V12.8765L12.0043 13.2904C9.01934 12.7049 6.87658 10.0487 7.1061 7.02609C7.03378 7.97218 6.72357 8.84522 6.24182 9.59479Z" fill="url(#paint8_linear)"/>
<path opacity="0.636" d="M6.24182 9.49508V12.8742L11.9463 13.2835C8.96136 12.698 6.8186 10.0417 7.04812 7.01913C6.97819 7.92696 6.6901 8.76638 6.24182 9.49508Z" fill="url(#paint9_linear)"/>
<path opacity="0.727" d="M6.24182 9.39478V12.8713L11.8877 13.2765C8.90279 12.691 6.76003 10.0348 6.98955 7.01218C6.9226 7.88116 6.65663 8.68812 6.24182 9.39478Z" fill="url(#paint10_linear)"/>
<path opacity="0.818" d="M6.24182 9.29657V12.8705L11.8291 13.2716C8.84421 12.6861 6.70145 10.0299 6.93097 7.00729C6.86702 7.83744 6.62315 8.61135 6.24182 9.29657Z" fill="url(#paint11_linear)"/>
<path opacity="0.909" d="M6.24182 9.19591V12.8672L11.7706 13.2643C8.78564 12.6788 6.64288 10.0226 6.8724 6.99997C6.81143 7.79069 6.58968 8.53156 6.24182 9.19591Z" fill="url(#paint12_linear)"/>
<path d="M6.24182 9.09449V12.8632L11.712 13.2557C8.72706 12.6701 6.5843 10.0139 6.81382 6.9913C6.75584 7.74377 6.55621 8.45217 6.24182 9.09449Z" fill="url(#paint13_linear)"/>
<path d="M6.24178 7.73624C6.24357 10.8261 8.82564 13.331 12.0114 13.3322C8.82564 13.3339 6.24297 15.8383 6.24178 18.9281C6.23998 15.8383 3.65792 13.3333 0.472168 13.3322C3.65792 13.331 6.24058 10.8261 6.24178 7.73624Z" fill="#FFC076"/>
<path d="M6.24179 8.08929C6.24299 10.9844 8.66248 13.331 11.6474 13.3322C8.66248 13.3334 6.24299 15.68 6.24179 18.5751C6.2406 15.68 3.8211 13.3334 0.836182 13.3322C3.8211 13.331 6.2406 10.9844 6.24179 8.08929Z" fill="#FFC076"/>
<path d="M6.24179 8.44232C6.24299 11.1426 8.49991 13.331 11.284 13.3328C8.49991 13.3339 6.24358 15.5229 6.24179 18.2232C6.2406 15.5229 3.98368 13.3345 1.19958 13.3328C3.98368 13.331 6.2406 11.1426 6.24179 8.44232Z" fill="#FFC076"/>
<path d="M6.24176 8.79538C6.24295 11.3009 8.3367 13.3316 10.92 13.3328C8.3367 13.3339 6.24295 15.3647 6.24176 17.8702C6.24056 15.3641 4.14681 13.3334 1.56415 13.3322C4.14681 13.331 6.24056 11.3003 6.24176 8.79538Z" fill="#FFC076"/>
<path d="M6.24182 9.14841C6.24301 11.4586 8.17359 13.3316 10.556 13.3328C8.17419 13.3339 6.24301 15.2064 6.24182 17.5171C6.24062 15.2064 4.31005 13.3333 1.92761 13.3322C4.31005 13.3316 6.24062 11.4586 6.24182 9.14841Z" fill="#FFC076"/>
<path d="M6.24177 9.50146C6.24297 11.6168 8.01097 13.3316 10.192 13.3328C8.01097 13.3339 6.24297 15.0487 6.24177 17.1641C6.24058 15.0487 4.47258 13.3339 2.29156 13.3328C4.47317 13.3316 6.24058 11.6168 6.24177 9.50146Z" fill="#FFC076"/>
<path d="M6.24179 9.85449C6.24298 11.7751 7.84781 13.3316 9.82799 13.3328C7.84781 13.3339 6.24298 14.8904 6.24179 16.811C6.24059 14.8904 4.63576 13.3339 2.65558 13.3328C4.63576 13.3316 6.24119 11.7751 6.24179 9.85449Z" fill="#FFC076"/>
<path d="M6.2418 10.207C6.2424 11.9328 7.68465 13.3316 9.46401 13.3322C7.68465 13.3328 6.2424 14.7316 6.2418 16.4574C6.2412 14.7316 4.79895 13.3328 3.01959 13.3322C4.79895 13.3316 6.2412 11.9328 6.2418 10.207Z" fill="#FFC076"/>
<path d="M6.24181 10.56C6.24241 12.091 7.52209 13.3316 9.10002 13.3322C7.52209 13.3333 6.24241 14.5739 6.24181 16.1043C6.24121 14.5739 4.96213 13.3333 3.38361 13.3322C4.96213 13.3316 6.24121 12.091 6.24181 10.56Z" fill="#FFC076"/>
<path d="M6.24177 10.9131C6.24236 12.2487 7.35887 13.3316 8.73597 13.3322C7.35887 13.3328 6.24236 14.4157 6.24177 15.7513C6.24117 14.4157 5.12466 13.3333 3.74756 13.3322C5.12466 13.3316 6.24117 12.2493 6.24177 10.9131Z" fill="#FFC076"/>
<path d="M6.24178 11.2661C6.24238 12.407 7.19571 13.3316 8.37199 13.3322C7.19571 13.3327 6.24238 14.2574 6.24178 15.3983C6.24118 14.2574 5.28785 13.3327 4.11157 13.3322C5.28785 13.3316 6.24118 12.407 6.24178 11.2661Z" fill="url(#paint14_radial)"/>
<defs>
<radialGradient id="paint0_radial" cx="0" cy="0" r="1" gradientUnits="userSpaceOnUse" gradientTransform="translate(9.14841 6.20349) scale(14.0334 13.611)">
<stop stop-color="#B592FF"/>
<stop offset="0.126" stop-color="#9B6BFF"/>
<stop offset="0.714" stop-color="#9766FF"/>
<stop offset="1" stop-color="#783BF9"/>
</radialGradient>
<linearGradient id="paint1_linear" x1="13.5822" y1="2.60581" x2="13.1604" y2="18.7908" gradientUnits="userSpaceOnUse">
<stop offset="0.147" stop-color="#783BF9" stop-opacity="0"/>
<stop offset="0.845" stop-color="#783BF9"/>
</linearGradient>
<radialGradient id="paint2_radial" cx="0" cy="0" r="1" gradientUnits="userSpaceOnUse" gradientTransform="translate(8.16243 5.46011) rotate(-33.7286) scale(4.49244 2.99022)">
<stop offset="0.129" stop-color="#D0BAFF"/>
<stop offset="0.834" stop-color="#D0BAFF" stop-opacity="0"/>
</radialGradient>
<linearGradient id="paint3_linear" x1="8.86325" y1="12.2406" x2="4.6231" y2="7.17531" gradientUnits="userSpaceOnUse">
<stop stop-color="#4712B9"/>
<stop offset="0.235" stop-color="#4712B9" stop-opacity="0.232"/>
<stop offset="0.597" stop-color="#4712B9" stop-opacity="0"/>
</linearGradient>
<linearGradient id="paint4_linear" x1="8.83789" y1="12.2336" x2="4.59068" y2="7.20896" gradientUnits="userSpaceOnUse">
<stop stop-color="#4712B9"/>
<stop offset="0.235" stop-color="#4712B9" stop-opacity="0.232"/>
<stop offset="0.597" stop-color="#4712B9" stop-opacity="0"/>
</linearGradient>
<linearGradient id="paint5_linear" x1="8.81253" y1="12.2261" x2="4.55857" y2="7.24263" gradientUnits="userSpaceOnUse">
<stop stop-color="#4712B9"/>
<stop offset="0.235" stop-color="#4712B9" stop-opacity="0.232"/>
<stop offset="0.597" stop-color="#4712B9" stop-opacity="0"/>
</linearGradient>
<linearGradient id="paint6_linear" x1="8.78718" y1="12.2197" x2="4.5268" y2="7.27796" gradientUnits="userSpaceOnUse">
<stop stop-color="#4712B9"/>
<stop offset="0.235" stop-color="#4712B9" stop-opacity="0.232"/>
<stop offset="0.597" stop-color="#4712B9" stop-opacity="0"/>
</linearGradient>
<linearGradient id="paint7_linear" x1="8.76182" y1="12.2128" x2="4.49536" y2="7.31325" gradientUnits="userSpaceOnUse">
<stop stop-color="#4712B9"/>
<stop offset="0.235" stop-color="#4712B9" stop-opacity="0.232"/>
<stop offset="0.597" stop-color="#4712B9" stop-opacity="0"/>
</linearGradient>
<linearGradient id="paint8_linear" x1="8.73646" y1="12.2052" x2="4.46428" y2="7.34851" gradientUnits="userSpaceOnUse">
<stop stop-color="#4712B9"/>
<stop offset="0.235" stop-color="#4712B9" stop-opacity="0.232"/>
<stop offset="0.597" stop-color="#4712B9" stop-opacity="0"/>
</linearGradient>
<linearGradient id="paint9_linear" x1="8.71136" y1="12.1983" x2="4.43388" y2="7.38446" gradientUnits="userSpaceOnUse">
<stop stop-color="#4712B9"/>
<stop offset="0.235" stop-color="#4712B9" stop-opacity="0.232"/>
<stop offset="0.597" stop-color="#4712B9" stop-opacity="0"/>
</linearGradient>
<linearGradient id="paint10_linear" x1="8.686" y1="12.1913" x2="4.40356" y2="7.42139" gradientUnits="userSpaceOnUse">
<stop stop-color="#4712B9"/>
<stop offset="0.235" stop-color="#4712B9" stop-opacity="0.232"/>
<stop offset="0.597" stop-color="#4712B9" stop-opacity="0"/>
</linearGradient>
<linearGradient id="paint11_linear" x1="8.66065" y1="12.1864" x2="4.37363" y2="7.46096" gradientUnits="userSpaceOnUse">
<stop stop-color="#4712B9"/>
<stop offset="0.235" stop-color="#4712B9" stop-opacity="0.232"/>
<stop offset="0.597" stop-color="#4712B9" stop-opacity="0"/>
</linearGradient>
<linearGradient id="paint12_linear" x1="8.63529" y1="12.1791" x2="4.34412" y2="7.49865" gradientUnits="userSpaceOnUse">
<stop stop-color="#4712B9"/>
<stop offset="0.235" stop-color="#4712B9" stop-opacity="0.232"/>
<stop offset="0.597" stop-color="#4712B9" stop-opacity="0"/>
</linearGradient>
<linearGradient id="paint13_linear" x1="8.60993" y1="12.1704" x2="4.31504" y2="7.53556" gradientUnits="userSpaceOnUse">
<stop stop-color="#4712B9"/>
<stop offset="0.235" stop-color="#4712B9" stop-opacity="0.232"/>
<stop offset="0.597" stop-color="#4712B9" stop-opacity="0"/>
</linearGradient>
<radialGradient id="paint14_radial" cx="0" cy="0" r="1" gradientUnits="userSpaceOnUse" gradientTransform="translate(6.24178 13.3322) rotate(90) scale(2.06609 2.13021)">
<stop stop-color="white"/>
<stop offset="1" stop-color="#FFC076" stop-opacity="0"/>
</radialGradient>
</defs>
</svg>
