<svg width="24" height="22" viewBox="0 0 24 22" fill="none" xmlns="http://www.w3.org/2000/svg">
<path d="M11 0C9.70703 0 8.60547 0.84375 8.1875 2H0V4H8.1875C8.60547 5.15625 9.70703 6 11 6C12.293 6 13.3945 5.15625 13.8125 4H24V2H13.8125C13.3945 0.84375 12.293 0 11 0ZM11 2C11.5625 2 12 2.4375 12 3C12 3.5625 11.5625 4 11 4C10.4375 4 10 3.5625 10 3C10 2.4375 10.4375 2 11 2ZM18 8C16.707 8 15.6055 8.84375 15.1875 10H0V12H15.1875C15.6055 13.1562 16.707 14 18 14C19.293 14 20.3945 13.1562 20.8125 12H24V10H20.8125C20.3945 8.84375 19.293 8 18 8ZM18 10C18.5625 10 19 10.4375 19 11C19 11.5625 18.5625 12 18 12C17.4375 12 17 11.5625 17 11C17 10.4375 17.4375 10 18 10ZM7 16C5.70703 16 4.60547 16.8438 4.1875 18H0V20H4.1875C4.60547 21.1562 5.70703 22 7 22C8.29297 22 9.39453 21.1562 9.8125 20H24V18H9.8125C9.39453 16.8438 8.29297 16 7 16ZM7 18C7.5625 18 8 18.4375 8 19C8 19.5625 7.5625 20 7 20C6.4375 20 6 19.5625 6 19C6 18.4375 6.4375 18 7 18Z" fill="#292D32"/>
</svg>
