<svg width="160" height="11" viewBox="0 0 160 11" fill="none" xmlns="http://www.w3.org/2000/svg">
<path d="M2.3679 3.8948C3.23665 3.77392 4.47971 3.67098 5.32057 3.62347C5.5948 3.60731 5.46186 3.6742 5.65198 3.66542C6.0243 3.6482 6.36987 3.58721 6.7449 3.57443C6.8693 3.57046 6.72379 3.66935 6.85409 3.66328C7.56239 3.62997 8.27316 3.53907 8.95589 3.49154C12.4653 3.24359 15.9827 2.96966 19.5044 2.72861C20.7024 2.64602 22.119 2.61394 23.3271 2.49137C23.4685 2.47696 23.3786 2.40969 23.4051 2.40165C23.8216 2.27773 23.6918 2.43648 23.9703 2.43592C25.081 2.433 26.3107 2.35304 27.3484 2.25364C27.7943 2.21089 27.3362 2.09535 27.7921 2.14672C27.8238 2.15014 27.7155 2.23592 27.8389 2.23593C28.1184 2.23576 28.648 2.18629 28.866 2.17809C29.286 2.16265 29.3555 2.1573 29.754 2.13219C30.3014 2.0984 30.9485 2.09597 31.5167 2.04254C31.6388 2.03086 31.4717 1.96094 31.6661 1.93508C31.8605 1.90921 32.3797 1.88386 32.5563 1.892C32.7329 1.90013 32.6621 1.96766 32.694 1.98018C32.9566 2.08626 33.5504 1.88112 33.6283 1.87232C35.05 1.71582 36.2722 1.74241 37.5914 1.66983C38.5974 1.61431 39.6803 1.52548 40.6523 1.48063C41.7912 1.42851 42.7542 1.42533 43.8686 1.36604C43.9862 1.35989 43.844 1.27204 43.9876 1.26435C45.521 1.18247 47.0277 1.12771 48.5435 1.13059C48.6958 1.13096 48.5032 1.22157 48.6555 1.22689C49.5865 1.25739 51.0773 1.36522 51.6161 0.985338C52.2424 0.976853 53.0053 0.965089 53.5709 1.01906C53.9356 1.05379 53.5857 1.15559 54.0308 1.10247C54.1312 1.09061 53.9976 1.0159 54.1485 1.0041C54.7836 0.954519 55.4812 0.958523 56.1125 0.898936C56.2409 0.886631 56.2037 0.816906 56.2398 0.803083C56.5436 0.690758 57.0584 0.846784 57.1673 0.856155C58.0078 0.925022 58.6204 0.872365 59.4047 0.854891C59.5868 0.850905 59.3692 0.761204 59.5444 0.753965C60.4528 0.717731 61.3973 0.704322 62.2929 0.727858C62.4921 0.73333 62.3108 0.818127 62.4061 0.824891C62.8221 0.853887 62.9112 0.699073 63.3107 0.724344C63.395 0.729488 63.3489 0.799743 63.3644 0.807061C63.6068 0.921963 63.8123 0.748702 63.8741 0.743817C64.6552 0.678319 65.1589 0.846653 65.9159 0.80977C66.0065 0.805197 65.8007 0.720605 66.0555 0.713128C67.7576 0.662786 69.5448 0.666624 71.2252 0.724615C71.4863 0.733524 71.3004 0.800785 71.3169 0.808791C71.5855 0.933839 71.7577 0.762627 71.8429 0.755676C72.5146 0.705281 73.1435 0.845148 73.6 0.640928C76.4385 0.701243 79.2757 0.59705 82.0923 0.809164C82.1281 0.811656 82.0629 0.894737 82.1344 0.89935C82.9949 0.956114 82.8309 0.824152 83.4029 0.672199C83.547 0.634055 83.981 0.832391 84.0194 0.847075C84.1593 0.90103 84.0116 1.02357 84.0586 1.0343C84.4471 1.11898 84.3897 0.705757 84.9159 0.713896C84.9324 0.714845 84.8619 0.789608 84.906 0.797856C85.043 0.823726 85.1797 0.795803 85.3137 0.82416C85.6203 0.889775 85.7262 1.09185 86.1979 0.983828C86.2576 0.969825 86.1711 0.734215 86.641 0.754179C86.8284 0.7622 87.6578 0.774992 87.8897 0.795324C88.1214 0.815474 87.9604 0.887362 87.9769 0.890981C88.5997 1.00433 88.3618 1.04045 88.6714 1.19504C88.9807 1.34921 88.9022 0.996804 89.0307 0.960698C89.1594 0.924673 89.6152 1.01804 89.7269 1.04949C89.8386 1.0809 89.6973 1.12524 89.7967 1.14393C90.4565 1.26652 90.092 0.977447 90.3118 0.927489C90.8303 0.809352 91.2272 1.0804 91.6986 1.11953C91.8263 1.13013 91.7237 1.06791 91.8377 1.0657C92.2893 1.05784 92.5579 1.14711 93.0727 1.089C93.1569 1.07952 93.5762 0.936659 93.8404 1.06028C93.8778 1.07808 93.7678 1.1392 93.9591 1.16014C94.2449 1.19148 94.7601 1.22354 95.0683 1.21303C95.2959 1.20522 95.0396 1.08912 95.3241 1.13264C95.4505 1.15208 95.213 1.20586 95.4506 1.23719C95.6869 1.26839 96.2931 1.28865 96.5265 1.29572C96.7583 1.3026 96.6347 1.21673 96.6536 1.21201C96.7682 1.18519 97.2142 1.16402 97.2535 1.16576C99.2391 1.23687 101.032 1.4579 102.97 1.51664C103.122 1.52137 103.025 1.43068 103.049 1.43052C103.568 1.42292 103.148 1.62735 103.505 1.72303C103.462 1.54718 103.674 1.59012 104.039 1.59166C104.215 1.59229 104.123 1.51991 104.14 1.51396C104.406 1.42696 104.579 1.56885 104.624 1.59841C104.791 1.70723 104.984 1.60137 105.098 1.67436C105.21 1.74686 104.936 1.82817 105.284 1.84756C105.385 1.79146 105.136 1.61427 105.402 1.60381C106.402 1.56286 108.262 1.81105 109.067 1.8812C109.869 1.95025 110.128 1.95789 110.593 2.01429C111.431 2.11698 111.131 1.97427 111.657 1.9589C112.184 1.94413 111.907 2.21967 111.977 2.28885C112.046 2.35793 112.131 2.29892 112.22 2.34091C112.308 2.38287 112.108 2.41055 112.321 2.44041C112.531 2.46988 113.138 2.40495 113.219 2.34497C113.394 2.2178 113.138 2.04841 113.709 2.14733C113.742 2.15312 113.628 2.22182 113.754 2.24009C114.754 2.38264 115.792 2.47672 116.779 2.6206C116.915 2.64051 116.785 2.71548 116.864 2.72805C117.685 2.85975 117.403 2.68716 117.87 2.5685C117.748 2.77368 117.986 2.92832 118.622 2.99166C119.003 3.02992 118.947 2.92975 119.2 2.88816C119.276 2.87557 119.539 2.96698 119.592 2.92785C119.767 2.80008 119.531 2.61271 120.176 2.74366C120.204 2.74965 120.105 2.81916 120.203 2.8341C120.838 2.93137 120.93 2.7886 121.618 2.844C122.161 2.88781 123.086 3.08362 123.714 3.17159C123.674 3.41095 124.264 3.42364 124.52 3.28576C124.92 3.34 125.352 3.38276 125.734 3.45311C125.866 3.47726 125.77 3.53623 125.786 3.54582C126.027 3.69553 126.219 3.55571 126.306 3.56012C127.247 3.61594 127.96 3.83355 128.881 3.83703C128.914 3.83707 128.988 3.67708 129.211 3.83181C129.225 3.84235 128.919 3.87765 129.339 3.94141C129.759 4.00516 130.536 4.20593 131.124 4.21319C131.267 4.21495 131.64 4.13156 131.906 4.27954C131.942 4.29952 131.894 4.34115 131.944 4.37587C132.107 4.48689 132.228 4.33291 132.412 4.50717C132.599 4.68208 132.993 4.85151 133.605 4.84707C133.624 4.84717 133.785 4.73586 133.969 4.7675C134.264 4.81805 134.677 4.91351 134.983 4.96312C135.13 4.98682 135.05 4.88866 135.076 4.89135C136.068 5.00818 136.751 5.20114 137.779 5.41846C137.961 5.45711 138.55 5.44804 138.907 5.60679C139.301 5.78129 138.804 6.10536 139.763 6.18818C140.148 6.22225 140.729 5.80286 141.349 6.20354C142.646 6.39659 143.874 6.80035 145.196 7.00377C145.256 7.01302 145.474 6.91353 145.612 6.94733C145.815 6.99775 145.912 7.09021 146.056 7.12863C146.659 7.29114 147.225 7.36803 147.829 7.52755C148.056 7.58747 147.959 7.63584 148.228 7.70769C148.497 7.77958 148.699 7.7354 149.05 7.87267C149.315 7.97675 149.539 8.23141 149.892 8.3486C149.953 8.17177 150.2 8.24108 150.647 8.31258C150.733 8.32627 150.661 8.23896 150.702 8.2422C150.872 8.25404 151.006 8.3471 151.167 8.3543C151.206 8.35617 151.225 8.29518 151.258 8.29325C151.547 8.27618 151.95 8.54069 152.017 8.58614C152.278 8.7602 152.434 8.71952 152.643 8.81974C152.85 8.91993 152.511 8.86855 152.759 8.96547C153.272 9.16621 153.943 9.36043 154.463 9.52795C154.67 9.59439 154.554 9.46835 154.584 9.47596C155.019 9.5907 155.426 9.81925 155.73 9.74086C155.897 10.2593 156.011 9.7882 156.609 10.0847C156.656 10.1083 156.651 10.3259 156.453 10.2903C156.255 10.2548 155.988 10.0963 155.709 10.0536C155.643 10.0432 155.222 10.1097 155.169 10.105C154.768 10.0716 154.813 9.76093 154.798 9.73807C154.631 9.4914 154.14 9.55657 154.022 9.53548C153.485 9.43803 153.053 9.2622 152.598 9.17716C152.301 9.12135 152.215 9.30819 151.989 9.23614C151.233 8.99693 151.047 8.65113 150.285 8.6974C150.121 8.70727 150.214 8.96158 149.719 8.64813C149.688 8.62838 149.326 8.3669 149.066 8.40365C149.033 8.40831 149.018 8.47116 148.978 8.46633C148.709 8.43274 148.547 8.33799 148.256 8.2893C147.964 8.24064 147.61 8.18998 147.285 8.08765C147.089 8.02597 146.862 7.8467 146.779 7.79651C146.539 7.65104 146.226 7.72013 146.088 7.58168C145.947 7.44239 146.305 7.36474 145.889 7.1986C145.834 7.35859 145.758 7.51808 145.694 7.67678C144.752 7.45132 143.821 7.18878 142.844 6.9892C142.723 6.96466 142.828 7.07926 142.697 7.05527C142.151 6.9548 141.711 6.79822 141.148 6.71126C140.714 6.64471 140.221 6.64539 139.762 6.5817C139.521 6.33918 138.831 6.2749 138.337 6.1667C138.164 6.12882 138.185 6.08043 138.064 6.04134C137.612 5.89629 137.801 6.10343 137.67 6.10701C137.116 6.12376 137.137 5.73658 136.5 5.63537C136.466 5.6298 136.019 5.76104 135.96 5.76405C135.584 5.78468 135.912 5.68344 135.688 5.63011C135.278 5.53295 134.997 5.43649 134.497 5.41591C134.351 5.41016 133.988 5.48093 133.724 5.339C133.69 5.32038 133.721 5.25664 133.692 5.24803C133.166 5.09793 133.118 5.30643 132.809 5.33158C132.5 5.35665 132.059 5.14116 131.971 5.08511C131.74 4.93954 132.167 5.06724 132.182 5.05869C132.358 4.95589 132.017 4.92636 131.759 4.87702C131.753 4.66477 131.387 4.62332 131.492 4.82678C131.504 4.84907 131.709 4.85979 131.759 4.87702C131.501 5.04573 131.1 5.01273 130.684 4.75928C130.489 4.64066 130.701 4.56482 130.064 4.51288C129.774 4.48945 129.865 4.6475 129.606 4.65082C129.017 4.65878 128.263 4.42131 127.68 4.36622C127.465 4.34577 127.663 4.45115 127.516 4.43989C127.125 4.41036 126.789 4.30767 126.393 4.28817C126.358 4.28651 126.434 4.37922 126.312 4.36489C125.386 4.25815 124.582 4.10782 123.603 3.9932C123.122 3.9368 122.296 3.88989 121.811 3.8282C120.976 3.72151 119.951 3.49464 119.224 3.45149C118.749 3.423 118.845 3.51546 118.637 3.5514C118.234 3.62107 117.563 3.36141 117.476 3.32302C117.473 3.32171 117.876 3.34039 117.666 3.27797C117.55 3.1784 117.481 3.32306 117.476 3.32302C117.418 3.29769 116.616 3.20452 116.455 3.20593C116.367 3.20661 116.409 3.2888 116.363 3.2877C115.28 3.2597 114.194 3.18658 113.093 3.06098C113.074 3.05783 113.11 2.97312 113.064 2.96682C112.423 2.87628 112.019 2.95203 111.491 2.97534C110.965 2.99887 110.552 2.94722 110.253 2.77512C109.857 2.76515 109.293 2.65888 108.969 2.59617C108.644 2.53343 108.586 2.70008 108.557 2.70145C107.651 2.74789 107.133 2.61664 106.211 2.54403C105.771 2.50905 104.894 2.48134 104.413 2.47262C104.034 2.46588 103.808 2.41328 103.457 2.41943C103.41 2.42023 103.453 2.49846 103.439 2.50057C103.044 2.56963 103.241 2.39512 103.162 2.35771C102.877 2.22184 102.699 2.14808 102.195 2.17841C102.079 2.18532 101.727 2.43405 101.518 2.43915C101.246 2.44526 101.353 2.35497 101.068 2.36398C101.043 2.36468 101.045 2.42376 100.87 2.41256C100.056 2.36137 99.1666 2.28608 98.3156 2.25534C98.1993 2.25092 98.3443 2.35071 98.1763 2.34588C97.3888 2.32321 96.5201 2.28496 95.7564 2.21259C95.5686 2.19449 95.689 2.1335 95.6489 2.11256C95.4023 1.98566 95.0398 2.14352 94.981 2.14469C93.5761 2.17683 92.5053 1.98808 91.068 2.02142C90.9898 2.02349 90.3831 2.19022 90.1208 2.0264C90.1028 2.01547 89.8423 1.84797 89.6056 1.95201C89.5909 1.95853 89.7537 2.04531 89.4662 2.02976C89.1787 2.01423 88.7143 2.05846 88.3205 1.95875C88.1958 1.92731 87.903 1.76043 87.5262 1.88039C87.5016 1.88873 86.9184 2.16585 86.7161 1.96263C86.6834 1.92921 86.7224 1.71881 86.2736 1.81861C86.1878 1.83801 86.3419 1.8879 86.1165 1.91316C85.7712 1.95214 85.3155 1.88776 84.8903 1.975C84.8162 1.99044 84.5001 2.12869 84.2498 2.01632C84.2106 1.99872 84.2867 1.92939 84.1537 1.91956C83.5215 1.87251 82.8582 1.91111 82.2161 1.85526C81.9887 1.83564 82.1063 1.72304 81.8693 1.69001C81.6322 1.65698 81.1541 1.62302 80.9052 1.67292C80.6563 1.72284 80.9261 1.90658 80.5539 1.918C78.937 1.96789 77.3321 1.85512 75.7174 1.83963C75.478 1.83736 75.6765 1.9022 75.3236 1.90363C74.025 1.90839 71.7727 1.98021 70.6428 1.85247C69.737 1.74971 70.875 1.65573 70.1831 1.61679C69.8491 1.59831 69.4905 1.8129 69.4101 1.82037C68.6242 1.89592 68.0809 1.80896 67.3686 1.84705C67.2219 1.85496 67.367 1.93853 67.2421 1.94433C66.8159 1.96491 66.3675 1.93326 65.9609 1.94654C65.7784 1.9527 65.8131 2.01748 65.6452 2.0151C65.2434 2.0102 64.8881 1.98872 64.4962 1.93441C64.4605 1.92946 64.6993 1.84398 64.4026 1.84621C63.9224 1.85007 63.3259 1.80092 62.7763 1.87442C62.6127 1.89651 62.6117 2.04577 62.255 1.9501C62.1803 1.93016 62.2712 1.74888 61.8618 1.91255C61.7928 1.93971 61.1049 2.16377 60.7626 2.03711C60.6723 2.00375 60.4403 1.86245 60.2433 1.89022C60.2166 1.89454 60.3258 1.97212 60.1623 1.98386C59.5862 2.02386 58.9826 2.03055 58.393 2.07133C58.2356 2.08239 58.4725 2.15907 58.2378 2.17291C57.5923 2.21112 56.7898 2.21267 56.1489 2.2058C55.914 2.20307 56.0741 2.12954 56.0568 2.12257C55.7786 2.00918 55.6214 2.17827 55.5307 2.19062C54.9666 2.26526 54.5341 2.20183 54.0151 2.2392C53.8719 2.24932 53.9762 2.32424 53.9478 2.33215C53.6542 2.41006 53.87 2.26227 53.6822 2.25298C53.1562 2.2265 52.573 2.2528 52.0455 2.28151C51.8518 2.29218 52.0729 2.37516 51.899 2.3837C50.8679 2.43606 49.7754 2.4687 48.7648 2.45898C48.5741 2.45701 48.6911 2.38237 48.6508 2.36801C48.3728 2.26732 47.9791 2.43589 47.8879 2.45418C47.4727 2.53761 47.3081 2.48264 46.9406 2.50972C45.1432 2.64288 42.8803 2.70697 41.1955 2.76646C38.9519 2.84663 37.2367 2.87326 35.1176 3.0132C34.9815 3.02213 35.1242 3.10698 35.007 3.11587C33.4915 3.22664 32.0264 3.28 30.5363 3.40257C30.4114 3.41264 30.5972 3.48903 30.397 3.50816C29.9864 3.54802 29.4673 3.57712 29.0534 3.57634C28.8515 3.57613 29.1161 3.48278 28.913 3.48411C28.4402 3.48707 27.9374 3.51464 27.4596 3.56148C27.2564 3.58161 27.5698 3.65053 27.3052 3.66969C25.5406 3.7996 23.6771 3.94973 21.8765 3.96972C21.7521 3.97115 21.6294 3.7967 21.3697 3.85188C21.3538 3.9041 21.3595 3.96367 21.355 4.01853C18.6729 4.25409 16.0836 4.404 13.4394 4.62844C13.3295 4.6378 13.5279 4.71766 13.3152 4.73628C12.1098 4.84192 10.8197 4.98731 9.56361 5.00986C9.4378 5.01237 9.48505 4.8362 9.12054 4.89703C9.05414 4.90807 8.514 4.98301 8.36675 5.03465C8.34698 5.0422 8.46025 5.11128 8.27401 5.13173C7.19199 5.24921 6.08469 5.34208 5.05597 5.39953C4.88999 5.40866 5.05708 5.306 4.93885 5.31176C4.08635 5.35469 3.11631 5.5228 2.30639 5.53376C1.76041 5.5413 1.94473 5.37351 1.64378 5.26135C1.60101 5.24554 1.27098 5.27894 1.24498 5.19729C1.17789 4.9921 1.31161 4.74433 1.22128 4.52771C1.20163 4.48103 0.768561 4.58206 1.01535 4.43646C1.03237 4.42663 1.34766 4.35234 1.42281 4.30402C1.47495 4.27057 1.36609 4.19662 1.47483 4.14916C1.5837 4.10173 1.71562 4.15925 1.89962 4.09744C2.08397 4.03514 1.98937 3.94757 2.3679 3.8948ZM107.503 2.31748C107.204 2.21618 107.139 2.51176 107.473 2.46174C107.49 2.45897 107.518 2.32251 107.503 2.31748ZM143.87 6.97182C143.508 6.75757 143.198 6.88979 143.453 7.04887C143.707 7.20792 143.98 7.03691 143.87 6.97182ZM147.889 7.81311C147.458 7.59871 147.285 7.99289 147.793 8.03068C147.822 8.03304 147.914 7.82561 147.889 7.81311ZM2.97668 5.07459C2.97192 5.0711 2.72713 5.09361 2.72188 5.09815C2.60203 5.20663 3.09126 5.16156 2.97668 5.07459ZM151.853 8.76611C151.728 8.67027 151.3 8.61827 151.458 8.73686C151.584 8.83208 152.009 8.88516 151.853 8.76611ZM91.7072 1.26584C91.7025 1.26123 91.5264 1.25214 91.5292 1.27743C91.5388 1.35887 91.7847 1.34308 91.7072 1.26584ZM158.446 10.9077C157.507 10.5452 157.032 10.0091 158.067 10.421C158.253 10.4958 157.622 10.3792 157.852 10.4956C158.271 10.708 158.636 10.6083 159.034 10.8845C159.106 10.9344 158.499 10.9288 158.444 10.9076C158.444 10.9076 158.445 10.9077 158.446 10.9077ZM107.351 1.94758C107.345 1.94321 107.101 1.92373 107.095 1.92733C106.958 2.0136 107.448 2.05279 107.351 1.94758ZM81.4392 0.884245C81.4259 0.87562 80.8603 0.862546 80.8418 0.870219C80.5455 1.02279 81.6885 1.04963 81.4392 0.884245ZM123.723 3.17915C124.001 3.11504 124.321 3.14125 124.519 3.28549C124.256 3.24788 123.989 3.21577 123.723 3.17915Z" fill="#3B596F"/>
</svg>
