<svg width="200" height="70" viewBox="0 0 200 70" fill="none" xmlns="http://www.w3.org/2000/svg">
<g clip-path="url(#clip0_31_382)">
<path d="M99.9197 -0.10009C59.4661 -0.10009 23.4153 4.36295 -0.0668945 11.3212V58.6306H-0.0647739C23.4167 65.5896 59.4668 70.0498 99.9197 70.0498C140.373 70.0498 176.423 65.5896 199.903 58.6306H199.908V11.3212C176.425 4.36295 140.375 -0.10009 99.9197 -0.10009Z" fill="#005A56"/>
<path d="M81.4658 41.5122H60.9423L57.5991 37.2896L59.2217 29.6384L64.3631 25.3952H69.7734L67.0291 38.2774H76.6926L78.7413 28.6697H73.9483L74.6446 25.3952H84.8866L88.2115 29.6384L86.5882 37.2896L81.4658 41.5122Z" fill="white"/>
<path d="M116.412 41.5054H106.787L109.522 28.6501H99.8967L98.0787 37.2L92.8801 41.5054H87.4614L89.3076 32.8537L98.3122 25.4153H112.381L118.256 32.8537L116.412 41.5054Z" fill="white"/>
<path d="M127.859 41.4927H122.449L119.101 37.2503L120.713 29.599L125.835 25.3948H145.74L145.058 28.6502H130.564L127.859 41.4927Z" fill="white"/>
<path d="M172.284 40.5287L167.159 44.7612H161.728L163.764 35.1422H158.947L159.636 31.8713H164.452L165.143 28.64H155.489L153.646 37.2974L148.463 41.5292H143.052L145.583 29.6398L150.712 25.3882H171.268L174.607 29.6398L172.284 40.5287Z" fill="white"/>
<path d="M66.549 3.80542C65.7398 5.7131 65.7172 5.94148 64.8149 7.24744C64.6125 7.72401 64.4276 6.51986 63.9303 6.86986L63.138 8.32148C62.494 8.60997 62.4573 7.46733 61.8118 7.75653C61.1677 8.04501 60.6534 10.0793 60.1553 10.4314C59.253 11.7388 59.7179 9.08724 60.3253 7.65612C59.8287 8.00754 60.7303 6.70158 60.4354 6.57572C59.8463 6.32471 59.4562 6.2738 58.2047 7.99411C57.8548 8.40916 57.0146 7.7431 56.7204 7.61794C54.7776 13.0907 46.3141 35.8421 42.6675 44.9682C40.7966 36.4424 37.7624 23.1021 37.301 21.8216L37.459 24.0262C36.9666 23.3036 37.0386 22.243 36.6717 21.1994C36.3571 21.2609 36.1998 21.2913 35.9726 20.9639C36.1123 21.6809 35.7984 21.7424 35.5014 21.0558L35.0992 20.785C34.9208 20.7808 34.9208 20.9469 34.5793 20.9243C34.5793 20.9243 34.1603 20.7037 34.149 20.8253C34.1384 20.9469 33.8844 21.1569 33.8844 21.1569C33.7271 21.1873 34.1052 21.9524 34.0608 22.0181C33.9839 22.2281 33.4865 21.8506 33.3998 22.2395L33.2982 22.506C32.7352 22.337 32.3317 19.7697 30.5864 20.785C30.5074 20.9901 31.1211 21.8852 30.5299 21.9701C28.8298 17.6138 29.1155 21.63 28.5913 21.0565C31.3102 32.2926 33.7455 41.6139 36.5095 54.0944C36.8072 54.7803 37.9352 53.644 38.1807 53.2247L38.3021 53.5033C38.7035 53.0529 39.7151 53.6772 40.1165 53.2261C40.5179 52.775 40.0425 52.8627 40.2873 52.4427C40.391 51.305 40.9793 51.6076 41.1895 52.6824C41.4336 52.2631 41.3292 53.3994 41.6439 53.3378C42.2724 53.2141 42.901 53.0911 43.0929 51.5652C43.1663 51.2364 43.5641 51.3743 43.8753 51.3877C44.0029 51.7052 43.8541 52.0793 44.5031 51.9492C44.5031 51.9492 44.9589 52.4137 45.4005 52.6025C45.4562 52.0616 46.4989 52.2504 46.5532 51.7102C46.3881 53.3301 47.1007 53.352 48.0573 51.5058C55.5846 34.9922 60.494 21.4242 67.2841 4.59593C67.7991 3.05239 66.6372 4.26148 66.549 3.80542Z" fill="#E84237"/>
</g>
<defs>
<clipPath id="clip0_31_382">
<rect width="200" height="70" fill="white"/>
</clipPath>
</defs>
</svg>
