<svg width="176" height="35" viewBox="0 0 176 35" fill="none" xmlns="http://www.w3.org/2000/svg">
<path d="M0 30.2358H23.2427V35.0076H0V30.2358ZM168.085 14.9173L175.413 6.91495H169.952L163.947 13.566V6.91495H159.595V23.7325H163.968V16.6487L170.389 23.7325H176L168.085 14.9173ZM25.8027 16.0258C25.6853 19.193 25.28 19.7947 23.5093 19.7947V23.7431H24.1707C28.6187 23.7431 29.6747 21.4733 29.8347 16.4164L30.0267 10.8211H34.1333V23.7325H38.4853V6.91495H26.1013L25.8027 16.0258ZM6.912 18.9185H16.0853L17.6107 23.7325H22.6987L15.84 3.50498C15.1787 1.55191 14.4107 0 11.7867 0C9.16267 0 8.36267 1.55191 7.65867 3.50498L0.469334 23.7325H5.248L6.912 18.9185ZM11.5627 5.27859H11.68L14.752 14.8645H8.288L11.5627 5.27859ZM113.227 9.30088H108.373V4.55015H119.637V0.327273H103.808V23.7325H113.227C118.443 23.7325 121.44 21.1566 121.44 16.4481C121.44 11.9824 118.4 9.30088 113.227 9.30088ZM113.003 19.4991H108.373V13.4182H113.003C115.413 13.4182 116.768 14.4739 116.768 16.4587C116.768 18.4434 115.413 19.4991 113.003 19.4991ZM69.9627 6.52434V0.295601H65.6213V6.52434C63.3418 6.59877 61.1852 7.5656 59.6252 9.21241C58.0653 10.8593 57.2294 13.0516 57.3013 15.3079C57.2237 17.5688 58.0565 19.7677 59.6169 21.4208C61.1771 23.0741 63.337 24.0461 65.6213 24.1232V30.4575H69.9733V24.1232C71.1049 24.0863 72.218 23.829 73.2489 23.3658C74.2798 22.9026 75.2082 22.2427 75.9811 21.4239C76.7539 20.605 77.356 19.6433 77.7528 18.5938C78.1496 17.5443 78.3332 16.4277 78.2933 15.3079C78.339 14.1874 78.1586 13.0691 77.763 12.0183C77.3673 10.9674 76.7641 10.0051 75.9886 9.1875C75.2131 8.36995 74.2809 7.71329 73.2463 7.25606C72.2116 6.79883 71.0955 6.5501 69.9627 6.52434ZM65.632 20.0587C64.4802 19.9334 63.4243 19.3651 62.6921 18.4764C61.9597 17.5877 61.6096 16.4498 61.7173 15.3079C61.6235 14.1689 61.9786 13.0381 62.7084 12.1526C63.4381 11.2669 64.4859 10.6953 65.632 10.5572V20.0587ZM69.984 20.0587V10.5572C71.1301 10.6953 72.1779 11.2669 72.9076 12.1526C73.6374 13.0381 73.9925 14.1689 73.8987 15.3079C74.0007 16.4486 73.6486 17.5836 72.9173 18.4712C72.1861 19.3586 71.1336 19.9283 69.984 20.0587ZM94.6027 18.5701V12.9009C94.6027 8.76246 91.9467 6.17595 87.488 6.17595C83.0293 6.17595 80.4267 8.92082 80.2133 11.7818H84.6187C84.768 11.1695 85.4293 10.0821 87.4773 10.0821C87.8603 10.0333 88.2485 10.0732 88.6123 10.1989C88.9771 10.3245 89.3067 10.5322 89.5755 10.8057C89.8443 11.0791 90.0459 11.4108 90.1632 11.7744C90.2805 12.1381 90.3104 12.5238 90.2507 12.9009H85.984C82.1227 12.9009 79.8293 14.9173 79.8293 18.2534C79.7993 19.0495 79.9384 19.843 80.2377 20.5825C80.5371 21.322 80.99 21.991 81.5672 22.5463C82.1442 23.1017 82.8327 23.5308 83.5882 23.8061C84.3435 24.0814 85.1488 24.1965 85.952 24.1443C86.8588 24.1915 87.7632 24.0167 88.5856 23.6356C89.408 23.2544 90.1227 22.6786 90.6667 21.9589C91.0208 22.5517 91.5371 23.0329 92.1568 23.3468C92.7755 23.6608 93.472 23.7945 94.1653 23.7325H95.6693V19.8475C94.9333 19.8475 94.6027 19.4991 94.6027 18.5701ZM90.2507 17.5144C90.2688 17.9302 90.1973 18.3451 90.0405 18.7316C89.8848 19.1181 89.648 19.4676 89.3461 19.7568C89.0432 20.0461 88.6827 20.2686 88.2869 20.4099C87.8912 20.551 87.4699 20.6076 87.0507 20.576C85.4827 20.576 84.2453 20.0164 84.2453 18.3378C84.2453 16.6592 85.6213 16.4164 86.784 16.4164H90.2507V17.5144ZM49.3227 12.0246H46.1973V6.91495H41.8453V23.7325H49.3973C54.1227 23.7325 55.7973 20.6921 55.7973 17.8205C55.8187 14.115 53.472 12.0246 49.3227 12.0246ZM49.0027 20.0587H46.1973V15.8358H49.0027C50.5067 15.8358 51.4133 16.5114 51.4133 17.9472C51.4133 19.383 50.5493 20.0587 49.0027 20.0587ZM138.048 18.5701V12.9009C138.048 8.76246 135.392 6.17595 130.933 6.17595C126.475 6.17595 123.872 8.92082 123.659 11.7818H128.064C128.213 11.1695 128.875 10.0821 130.923 10.0821C131.306 10.0333 131.694 10.0732 132.058 10.1989C132.422 10.3245 132.752 10.5322 133.021 10.8057C133.29 11.0791 133.491 11.4108 133.609 11.7744C133.726 12.1381 133.756 12.5238 133.696 12.9009H129.429C125.568 12.9009 123.275 14.9173 123.275 18.2534C123.245 19.0495 123.383 19.843 123.683 20.5825C123.982 21.322 124.435 21.991 125.012 22.5463C125.589 23.1017 126.278 23.5308 127.034 23.8061C127.789 24.0814 128.594 24.1965 129.397 24.1443C130.313 24.2003 131.228 24.0299 132.061 23.6485C132.893 23.267 133.616 22.6863 134.165 21.9589C134.514 22.5414 135.021 23.0159 135.628 23.3293C136.235 23.6426 136.917 23.7823 137.6 23.7325H139.104V19.8475C138.347 19.8475 138.048 19.4991 138.048 18.5701ZM133.717 17.5144C133.733 17.9298 133.661 18.3438 133.504 18.7296C133.347 19.1154 133.11 19.4641 132.809 19.753C132.507 20.0419 132.146 20.2645 131.751 20.4064C131.357 20.5482 130.937 20.6059 130.517 20.576C128.949 20.576 127.712 20.0164 127.712 18.3378C127.712 16.6592 129.088 16.4164 130.251 16.4164H133.717V17.5144ZM151.947 13.1754H145.941V6.91495H141.589V23.7431H145.941V17.1132H151.947V23.7325H156.299V6.91495H151.947V13.1754Z" fill="#989898"/>
</svg>
