<svg width="20" height="20" viewBox="0 0 20 20" fill="none" xmlns="http://www.w3.org/2000/svg">
<path d="M4.71313 19.9991C4.42993 19.9991 4.14886 19.92 3.90213 19.7644C3.47519 19.4948 3.2106 19.0326 3.19443 18.5277L3.14514 16.9109C1.11755 15.0928 0 12.5401 0 9.72366C0 7.03552 1.03043 4.56345 2.90115 2.76276C4.75235 0.98114 7.27341 0 10 0C12.7266 0 15.2477 0.98114 17.0988 2.76276C18.9696 4.56345 20 7.03552 20 9.72366C20 11.6301 19.4775 13.452 18.4891 14.9922C18.2559 15.3554 17.7727 15.461 17.4095 15.2278C17.0465 14.9948 16.9409 14.5114 17.1741 14.1484C18.0006 12.8604 18.4375 11.3303 18.4375 9.72366C18.4375 5.07095 14.8102 1.5625 10 1.5625C5.18982 1.5625 1.5625 5.07095 1.5625 9.72366C1.5625 12.0935 2.49832 14.2358 4.19754 15.7559C4.51096 16.0382 4.69086 16.4206 4.70596 16.8344C4.70612 16.8359 4.70612 16.8376 4.70612 16.8393L4.75433 18.4148L6.5239 17.634C6.8425 17.4937 7.20184 17.4667 7.53647 17.558C8.32291 17.775 9.151 17.8847 10 17.8847C11.7427 17.8847 13.3939 17.4182 14.7745 16.5355C15.1381 16.3031 15.6212 16.4095 15.8536 16.7731C16.086 17.1365 15.9796 17.6196 15.6161 17.852C13.9836 18.8957 12.0416 19.4473 10 19.4473C9.01703 19.4473 8.05511 19.3202 7.14081 19.0697L5.32578 19.8705C5.12909 19.9567 4.92065 19.9991 4.71313 19.9991ZM5.08347 12.9152L8.00323 10.6641C8.20053 10.5161 8.47214 10.5141 8.67126 10.6622L10.8318 12.3416C11.4793 12.8249 12.4062 12.6544 12.8378 11.9731L15.5534 7.66678C15.8157 7.25571 15.3059 6.79108 14.917 7.08542L11.9986 9.29688C11.8013 9.44504 11.5297 9.44687 11.3306 9.29871L9.17007 7.65854C8.52249 7.17529 7.59567 7.34558 7.164 8.02689L4.44702 12.3337C4.18472 12.7448 4.69452 13.2095 5.08347 12.9152Z" fill="#395185"/>
</svg>
