<svg width="20" height="20" viewBox="0 0 20 20" fill="none" xmlns="http://www.w3.org/2000/svg">
<path d="M10.1972 20.0007C10.131 20.0007 10.0648 20.0007 9.99809 20.0004C8.43034 20.0042 6.98177 19.9644 5.57303 19.8786C4.28147 19.8 3.10254 19.3537 2.16347 18.588C1.25737 17.8491 0.638605 16.8501 0.324414 15.619C0.0509663 14.5472 0.0364699 13.495 0.0225839 12.4774C0.0125127 11.7472 0.00213631 10.882 0 10.0022C0.00213631 9.11864 0.0125127 8.25343 0.0225839 7.52327C0.0364699 6.50578 0.0509663 5.45364 0.324414 4.38167C0.638605 3.15055 1.25737 2.15152 2.16347 1.41266C3.10254 0.646941 4.28147 0.200605 5.57318 0.122019C6.98193 0.0364138 8.4308 -0.00356577 10.0019 0.000249077C11.5701 -0.00310799 13.0182 0.0364138 14.427 0.122019C15.7185 0.200605 16.8975 0.646941 17.8365 1.41266C18.7428 2.15152 19.3614 3.15055 19.6756 4.38167C19.949 5.45349 19.9635 6.50578 19.9774 7.52327C19.9875 8.25343 19.998 9.11864 20 9.99849C19.998 10.882 19.9875 11.7472 19.9774 12.4774C19.9716 12.9089 19.6152 13.2538 19.1856 13.248C18.7541 13.242 18.4092 12.8874 18.415 12.456C18.4249 11.7301 18.4355 10.8706 18.4374 9.99849C18.4355 9.13008 18.4249 8.27052 18.415 7.54463C18.4023 6.61824 18.3892 5.66025 18.1616 4.76804C17.9319 3.86804 17.4903 3.14658 16.8491 2.62364C16.1556 2.05798 15.3087 1.74104 14.3321 1.68168C12.9564 1.59806 11.5404 1.55945 10.0019 1.56266C8.45979 1.55899 7.04357 1.59806 5.66794 1.68168C4.69134 1.74104 3.8446 2.05798 3.15091 2.62349C2.50971 3.14643 2.0681 3.86789 1.83845 4.76804C1.61078 5.66025 1.59766 6.61824 1.58499 7.54463C1.57507 8.27052 1.5647 9.13008 1.56256 10.0022C1.5647 10.8706 1.57507 11.7301 1.58499 12.456C1.59766 13.3824 1.61078 14.3404 1.83845 15.2326C2.0681 16.1326 2.50971 16.8541 3.15091 17.377C3.8446 17.9427 4.69134 18.2596 5.66794 18.319C7.04357 18.4026 8.4601 18.4417 9.99825 18.4378C11.5405 18.4415 12.9564 18.4026 14.3321 18.319C15.3087 18.2596 16.1554 17.9427 16.8491 17.377C17.311 17.0003 17.6719 16.5168 17.9217 15.94C18.0932 15.5442 18.5531 15.3622 18.9491 15.5337C19.3451 15.7052 19.527 16.1651 19.3556 16.5611C19.0054 17.3697 18.4944 18.0516 17.8365 18.588C16.8975 19.3539 15.7185 19.8 14.427 19.8786C13.0779 19.9607 11.692 20.0007 10.1972 20.0007ZM14.8439 10.0003C14.8439 7.30781 12.6534 5.11733 9.96086 5.11733C7.2685 5.11733 5.07786 7.30781 5.07786 10.0003C5.07786 12.6928 7.2685 14.8833 9.96086 14.8833C12.6534 14.8833 14.8439 12.6928 14.8439 10.0003ZM13.2813 10.0003C13.2813 11.8311 11.7918 13.3208 9.96086 13.3208C8.13004 13.3208 6.64042 11.8311 6.64042 10.0003C6.64042 8.16951 8.13004 6.67989 9.96086 6.67989C11.7918 6.67989 13.2813 8.16951 13.2813 10.0003ZM15.3908 3.55477C14.7436 3.55477 14.2188 4.07938 14.2188 4.72669C14.2188 5.37399 14.7436 5.89861 15.3908 5.89861C16.0381 5.89861 16.5627 5.37399 16.5627 4.72669C16.5627 4.07938 16.0381 3.55477 15.3908 3.55477Z" fill="#C82276"/>
</svg>
