<svg width="20" height="20" viewBox="0 0 20 20" fill="none" xmlns="http://www.w3.org/2000/svg">
<path d="M14.12 20C13.243 20 12.3741 19.8056 11.5903 19.4359C11.0329 19.5273 10.5534 19.5703 10.0984 19.5703C4.81018 19.5703 0.507812 15.32 0.507812 10.0957C0.507812 9.58694 0.558319 9.05762 0.661621 8.48572C0.227966 7.6622 0 6.74301 0 5.80856C0 2.60574 2.63824 0 5.8812 0C6.89041 0 7.87643 0.254822 8.75107 0.739441C9.14948 0.688171 9.58542 0.664062 10.0984 0.664062C12.6538 0.664062 15.0526 1.64261 16.853 3.41919C18.6557 5.19821 19.6484 7.56943 19.6484 10.096C19.6484 10.7654 19.6028 11.3332 19.5059 11.8582C19.834 12.5911 20 13.3746 20 14.1914C20 14.8857 19.8772 15.5652 19.6349 16.2109C19.4832 16.6148 19.0327 16.8195 18.6288 16.6678C18.2249 16.5163 18.0203 16.0658 18.1718 15.6619C18.3481 15.1923 18.4375 14.6976 18.4375 14.1914C18.4375 13.5275 18.2875 12.8951 17.9915 12.3116C17.9094 12.1495 17.8862 11.9641 17.926 11.787C18.0351 11.3011 18.0859 10.7639 18.0859 10.096C18.0859 5.75684 14.5027 2.22656 10.0984 2.22656C9.54849 2.22656 9.11179 2.25708 8.72375 2.32285C8.53592 2.35474 8.34274 2.31659 8.181 2.21603C7.49313 1.78848 6.69785 1.5625 5.8812 1.5625C3.49991 1.5625 1.5625 3.46725 1.5625 5.80856C1.5625 6.56387 1.76697 7.3053 2.15378 7.95273C2.25403 8.12042 2.2876 8.31985 2.24808 8.5112C2.12845 9.09103 2.07031 9.60922 2.07031 10.0957C2.07031 14.4585 5.67169 18.0078 10.0984 18.0078C10.5261 18.0078 10.9937 17.9588 11.5698 17.8537C11.7429 17.8221 11.9217 17.8499 12.077 17.9324C12.6981 18.2628 13.4045 18.4375 14.12 18.4375C14.7839 18.4375 15.4205 18.2936 16.0118 18.0096C16.4008 17.8229 16.8674 17.9869 17.0541 18.3759C17.2409 18.7648 17.077 19.2314 16.6881 19.4182C15.8839 19.8042 15.02 20 14.12 20ZM15.0391 12.1431C15.0391 11.5813 14.9281 11.0982 14.7069 10.7072C14.4856 10.318 14.1745 9.99207 13.7831 9.7377C13.3983 9.48868 12.926 9.27536 12.3805 9.1008C11.8413 8.92975 11.2315 8.77228 10.5682 8.63052C10.0433 8.50998 9.66141 8.41614 9.43375 8.35373C9.21127 8.29285 8.99002 8.20648 8.77426 8.09937C8.56628 7.99606 8.40256 7.8717 8.28476 7.73132C8.1749 7.59735 8.08594 7.44263 8.08594 7.25708C8.08594 6.95389 8.28766 6.69846 8.63022 6.47583C8.98468 6.2442 9.46228 6.14838 10.0497 6.14838C10.6816 6.14838 11.1435 6.23367 11.4185 6.4415C11.7024 6.65482 11.9498 6.95938 12.1538 7.34619C12.3306 7.64832 12.4899 7.85904 12.6433 7.99393C12.8082 8.13828 13.0464 8.20312 13.3499 8.20312C13.6836 8.20312 13.9676 8.09464 14.1913 7.86285C14.415 7.63229 14.5703 7.3674 14.5703 7.07626C14.5703 6.77429 14.4412 6.46179 14.2711 6.14777C14.1022 5.83633 13.8354 5.53726 13.4743 5.2565C13.1169 4.97818 12.6605 4.75311 12.1213 4.58633C11.5836 4.41925 10.9395 4.33594 10.2071 4.33594C9.2923 4.33594 8.48251 4.46152 7.80334 4.71191C7.1138 4.9649 6.57745 5.33585 6.21231 5.80994C5.84213 6.28784 5.625 6.8428 5.625 7.4588C5.625 8.10516 5.83282 8.65326 6.18469 9.09164C6.53168 9.52225 7.00485 9.86649 7.59384 10.1155C8.16818 10.358 8.89023 10.5724 9.74091 10.7538C10.3664 10.8852 10.8725 11.0097 11.2456 11.1249C11.6014 11.2349 11.8971 11.3965 12.121 11.6043C12.3329 11.8018 12.449 12.0547 12.449 12.3766C12.449 12.7834 12.2372 13.1171 11.8291 13.3939C11.4117 13.6772 10.8568 13.7891 10.1791 13.7891C9.68567 13.7891 9.28543 13.7502 8.98834 13.6096C8.69263 13.4718 8.461 13.2928 8.30124 13.0824C8.13263 12.8612 7.9744 12.5835 7.82913 12.252C7.69943 11.949 7.53876 11.713 7.34894 11.5543C7.15134 11.3885 6.90826 11.2891 6.62689 11.2891C6.28433 11.2891 5.9964 11.411 5.77118 11.6203C5.54489 11.8321 5.42969 12.0915 5.42969 12.3897C5.42969 12.8677 5.60623 13.3632 5.95566 13.8612C6.29852 14.3552 6.75369 14.7565 7.30453 15.052C8.07388 15.4587 9.06174 15.6641 10.2393 15.6641C11.2192 15.6641 12.0816 15.5132 12.7997 15.2167C13.5258 14.9174 14.0857 14.4949 14.4652 13.9612C14.846 13.4261 15.0383 12.8143 15.0391 12.1431Z" fill="#1C9ED1"/>
</svg>
