<svg width="22" height="20" viewBox="0 0 22 20" fill="none" xmlns="http://www.w3.org/2000/svg">
<path d="M0.379677 9.3491L5.75975 12.0304C5.96784 12.1331 6.21351 12.1258 6.41243 12.0093L11.2012 9.22535L8.30265 11.7939C8.15507 11.925 8.07073 12.112 8.07073 12.3091V18.5655C8.07073 19.2256 8.91317 19.5033 9.30827 18.979L11.6339 15.887L17.3852 19.1623C17.7886 19.3942 18.3056 19.1614 18.3991 18.7003L21.9861 0.824775C22.0934 0.287593 21.559 -0.150586 21.0621 0.0492531L0.436512 8.09324C-0.11717 8.30957 -0.152921 9.08418 0.379677 9.3491ZM20.3911 1.7873L17.2386 17.4967L11.7888 14.3927C11.4918 14.2232 11.1096 14.2983 10.8987 14.577L9.44577 16.5085V12.618L17.2844 5.67316C17.905 5.12407 17.1918 4.14779 16.4832 4.56397L6.04209 10.6343L2.38265 8.81101L20.3911 1.7873Z" fill="#40B3E0"/>
</svg>
