<svg xmlns="http://www.w3.org/2000/svg">

	<symbol id="brick" viewBox="0 0 115 130">
		<path d="M10.6828 51.1564L31.4955 51.2329C35.2379 51.2358 39.2159 50.9311 42.9316 51.2636C43.465 51.3113 43.9561 51.4532 44.3672 51.8164C44.8361 52.2393 45.1117 52.8392 45.1273 53.4743C45.1539 54.1122 44.9183 54.7327 44.4761 55.189C43.5916 56.099 41.7227 55.8465 40.547 55.8533C41.1404 58.095 41.096 67.2161 40.5648 69.5869L52.492 69.5822C54.4677 69.5647 56.4745 69.2991 58.4457 69.5089C59.2635 69.5961 60.1813 69.7674 60.8347 70.3135C61.2569 70.6682 61.4658 71.1549 61.4791 71.7049C61.4947 72.3721 61.2836 73.0929 60.8169 73.58C59.9457 74.4892 58.1901 74.2567 57.03 74.2461C57.1189 74.4349 57.1856 74.5869 57.2323 74.7916C57.6212 76.469 57.6145 86.6851 56.8234 87.9166L84.1602 87.8876C84.7624 86.8707 84.5313 85.328 84.9758 84.1546C85.1513 83.693 85.4336 83.2092 85.9114 83.0188C86.4136 82.8182 86.9714 82.9785 87.447 83.1816C88.1782 83.4925 88.5715 84.1705 88.8626 84.8792C89.2404 85.8035 89.1649 86.9711 88.8004 87.8897C92.225 87.9197 107.172 87.233 109.237 88.4638C109.692 88.7355 109.897 89.4579 110.004 89.9561C110.506 92.3206 109.993 95.039 110.021 97.4571C110.037 99.0005 110.308 100.589 110.199 102.126C110.177 102.436 110.084 102.701 109.917 102.961C110.033 103.152 110.11 103.338 110.152 103.559C110.384 104.754 110.092 109.002 109.31 109.886C109.141 110.079 109.006 110.106 108.766 110.175C106.335 110.869 102.052 110.473 99.3942 110.47L85.5025 110.449L36.1202 110.397C27.9671 110.41 19.7981 110.245 11.6499 110.505C10.3025 110.548 4.10934 110.675 3.25686 109.764C2.59638 109.059 2.70128 106.224 2.68128 105.246C2.49016 95.8736 2.76462 86.453 2.74284 77.0725C2.72595 69.8313 2.33349 62.4851 2.67439 55.254C2.70817 54.5388 2.75284 52.55 3.2822 52.0202C4.64181 50.6585 8.86935 51.1548 10.6828 51.1564ZM73.8997 92.4688C74.3619 94.2756 74.5242 104.443 73.6686 105.807C73.6486 105.839 73.6241 105.869 73.6041 105.9L94.154 105.878C97.1986 105.881 100.361 106.107 103.392 105.938C104.046 105.918 104.752 105.961 105.354 105.672C105.988 104.621 105.91 94.5305 105.548 93.012C105.501 92.8127 105.408 92.6107 105.29 92.4433L84.9824 92.4305C81.929 92.4235 78.8577 92.2673 75.8087 92.3648L73.8997 92.4688ZM7.21238 69.6089C16.4486 69.5672 25.6979 69.8524 34.9312 69.5914C35.4357 69.5546 35.6846 69.5948 36.1091 69.2717C36.538 67.792 36.6691 57.3038 36.0824 56.1579C36.0291 56.0526 36.009 56.0272 35.949 55.9382C31.5266 55.5802 26.9329 55.7824 22.4942 55.7815C17.6851 55.7804 12.7758 55.5954 7.97619 55.8833L7.35039 55.9304C7.01526 56.3259 7.21193 68.4337 7.21238 69.6089ZM7.23616 105.899C10.659 105.896 35.1357 106.152 35.9335 105.765L36.0068 105.663C36.8202 104.727 36.5113 95.1542 36.4046 93.488C36.378 93.0966 36.318 92.7955 36.0957 92.4634C26.4782 92.3652 16.7935 92.2511 7.17837 92.4563C7.14415 96.9375 7.16326 101.419 7.23616 105.899ZM20.5981 74.2737C16.1468 74.2085 11.6595 74.1558 7.20949 74.2672L7.19371 87.9244L20.5919 87.9056L20.5981 74.2737ZM25.0388 74.2737L25.0172 87.904C27.8356 87.9036 51.6853 88.1302 52.2987 87.806C52.6009 87.6096 52.7698 87.5901 52.8498 87.224C53.1365 85.9266 53.1721 75.2563 52.6832 74.3889C52.6632 74.3528 52.6365 74.3212 52.6121 74.2874C43.4205 74.236 34.229 74.2316 25.0388 74.2737ZM40.4137 92.53C41.1471 93.6546 40.9559 103.376 40.5937 105.121C40.527 105.442 40.4382 105.656 40.2493 105.921C43.6072 105.918 68.3683 106.169 69.1439 105.749C69.2284 105.665 69.4684 105.476 69.5106 105.38C69.9951 104.252 69.7506 100.832 69.7484 99.465C69.7462 97.9031 70.004 93.6138 69.255 92.4726C63.1125 92.2213 56.8878 92.4298 50.7342 92.4271C47.6474 92.4255 43.3694 92.0437 40.4137 92.53Z" />
        <path d="M99.6874 3.05762C101.139 2.93005 102.308 2.92848 103.612 3.65846C105.759 4.85902 111.468 10.6863 112.066 12.9934C112.244 13.6844 112.368 14.8401 111.975 15.469C111.412 16.3848 110.763 17.2446 110.041 18.0367C105.432 23.068 100.396 27.8111 95.5939 32.6597L88.0869 40.2615C86.7735 41.6028 85.509 43.0303 84.1356 44.3061C83.6289 44.7756 83.1311 45.2123 82.4866 45.4746C82.5577 45.5038 82.6288 45.5343 82.6977 45.5686C84.4867 46.4555 90.5359 52.8495 91.1048 54.8175C91.2781 55.4208 91.2315 55.8201 90.9315 56.3758C89.5069 59.0079 80.6932 67.6703 78.1442 69.5797C77.6219 69.9718 77.0664 70.2828 76.4352 70.4597C73.0595 71.406 72.0772 68.3888 69.6482 67.0322C69.6082 67.0098 69.5683 66.9892 69.5282 66.9677C69.3238 66.2094 67.7282 64.8506 67.1392 64.2341C63.7946 60.744 60.4078 57.2962 56.9788 53.8907C54.9209 51.8429 52.6097 49.8242 50.7851 47.5657C50.1762 46.8115 49.6207 45.9551 49.3606 45.0088C49.0695 43.9613 49.2095 43.0659 49.754 42.1299C51.0896 39.8362 59.2722 31.7838 61.6256 29.936C62.2435 29.449 62.9368 28.9942 63.7102 28.8061C64.7925 28.5429 65.8147 28.7895 66.7525 29.3569C67.6792 29.9187 69.4927 31.5053 69.7705 32.5839C71.8795 31.4919 73.7751 28.8031 75.4485 27.0831L88.0891 14.1808C91.0403 11.1508 96.2584 4.95677 99.6874 3.05762ZM53.3675 44.1443C55.2409 44.9361 58.7211 49.1427 60.2389 50.7257C62.0523 52.6177 74.6351 65.8606 75.2129 65.9601C76.353 65.2842 85.5023 56.2438 85.7446 55.577C85.7579 55.5367 85.7623 55.4932 85.7712 55.4513C85.4823 54.557 65.7458 34.3519 64.5814 33.7161C64.3747 33.6027 64.4524 33.6264 64.2546 33.6121L64.1813 33.778L63.9835 33.6666C63.3991 35.0622 54.7075 43.5242 53.3675 44.1443ZM79.2798 42.0465C79.6087 42.0023 79.8909 41.9124 80.1509 41.6997C81.7577 40.3854 83.2178 38.7248 84.6956 37.2528L94.3027 27.5658L102.739 18.9648C104.179 17.491 105.823 16.0057 107.092 14.383C107.226 14.2133 107.266 14.0783 107.312 13.8718C107.079 12.6995 102.752 8.63736 101.612 7.84057C101.374 7.67579 101.194 7.62804 100.912 7.59867C100.254 8.94854 74.244 35.1427 72.9595 35.7731C73.724 36.2399 78.7176 41.1993 79.2798 42.0465Z" />
        <path d="M17.674 117.41C24.9188 116.212 29.9288 122.663 36.8869 122.439C42.5938 122.255 47.0162 117.932 52.7054 117.387C61.6125 116.534 64.6482 122.369 71.9418 122.396C79.2711 122.422 83.5824 116.562 91.6805 117.378C96.8519 117.9 99.1853 120.71 103.708 121.912C105.421 122.368 108.659 122.016 109.792 123.561C110.099 123.977 110.188 124.48 110.084 124.984C109.953 125.618 109.648 126.176 109.072 126.497C107.05 127.63 102.01 126.1 100.061 125.216C98.3653 124.446 96.7608 123.209 94.9607 122.721C94.8762 122.646 94.8696 122.633 94.7518 122.569C93.734 122.001 92.2672 121.798 91.1205 121.739C85.4136 121.445 83.3735 124.05 78.5088 125.737C76.1287 126.554 73.6153 126.893 71.1085 126.735C64.6237 126.359 61.348 122.245 55.6633 121.711C49.323 121.115 44.4472 126.176 38.2403 126.702C28.8536 127.497 24.8852 120.615 16.7837 121.86C13.3393 122.389 10.4032 124.865 7.03436 125.729C6.00765 125.993 4.68604 126.175 3.74844 125.553C3.24264 125.218 2.73395 124.614 2.6235 123.999C2.5435 123.554 2.67773 123.157 2.95218 122.808C3.28442 122.385 3.77799 122.071 4.25935 121.844C5.44251 121.285 6.81547 121.217 8.03552 120.73C9.9725 119.956 11.667 118.789 13.6836 118.156C15.001 117.742 16.3099 117.562 17.674 117.41Z" />
        <path d="M34.04 36.2872C34.5467 36.2264 35.0222 36.2011 35.5022 36.4045C37.4157 37.2133 41.7114 41.977 42.4359 43.9365C42.6448 44.5035 42.7626 45.0978 42.4648 45.6587C42.1737 46.2105 41.6892 46.3932 41.127 46.5631C40.9203 46.7124 40.618 46.7476 40.3625 46.729C38.8646 46.6194 34.5756 41.7573 33.6155 40.4323C33.1088 39.7317 32.5355 38.6825 32.7221 37.7911C32.8799 37.0385 33.4555 36.6856 34.04 36.2872Z" />
        <path d="M102.225 57.5499C102.954 57.4568 103.617 57.4355 104.301 57.7705C104.799 58.0146 105.194 58.4471 105.357 58.9861C105.532 59.5649 105.372 60.1346 105.092 60.6487C104.13 62.4205 99.2697 65.4666 97.3118 65.9755C97.0363 66.0426 96.7563 66.0975 96.4718 66.0556C95.8873 65.9693 95.1251 65.4097 94.785 64.9407C94.5384 64.6084 94.4517 64.1836 94.5473 63.7807C95.0806 61.4995 100.27 58.8872 102.225 57.5499Z" />
        <path d="M88.4204 71.173C89.4071 71.056 90.2049 71.3616 91.1005 71.7342C93.2384 72.6238 97.2408 74.355 98.063 76.6757C98.1786 77.0052 98.1831 77.35 98.0231 77.6655C97.6853 78.3338 96.9541 78.6089 96.2896 78.8073C96.0452 78.8761 95.8052 78.9172 95.5496 78.8988C93.7229 78.7676 88.9715 76.1154 87.827 74.6824C87.4137 74.1658 87.0825 73.4672 87.1981 72.789C87.3314 72.0236 87.8537 71.619 88.4204 71.173Z" />
	</symbol>

</svg>