<svg width="80" height="54" viewBox="0 0 80 54" fill="none" xmlns="http://www.w3.org/2000/svg">
<path d="M80.0003 9.10796V24.4093C80.0003 29.252 76.2195 33.2133 71.4492 33.4826V43.1853C71.4492 43.1853 65.1845 39.2253 61.7101 33.5186H55.3736V19.6933C55.3736 14.6533 51.2689 10.584 46.2648 10.584H24.6445V9.10796C24.6445 4.06796 28.7309 -4.95911e-05 33.7533 -4.95911e-05H70.8908C75.9137 -4.95911e-05 80.0003 4.06796 80.0003 9.10796Z" fill="#2DB4C9" fill-opacity="0.15"/>
<path d="M71.4492 43.1853C71.4492 43.1853 65.5935 39.484 62.0653 34.0813C61.944 33.896 61.8257 33.708 61.7101 33.5186H55.3736V19.6933C55.3736 19.5266 55.3689 19.3599 55.3601 19.1946C55.1003 14.3866 51.1028 10.584 46.2648 10.584H24.6445V9.10796C24.6445 9.09596 24.6445 9.08533 24.6445 9.07333C24.6445 9.07066 24.6445 9.06662 24.6445 9.06395C24.6445 9.05462 24.6445 9.04662 24.6445 9.03862C24.6451 9.03463 24.6451 9.03065 24.6451 9.02665C24.6451 9.01865 24.6451 9.00932 24.6451 9.00132C24.6451 8.99865 24.6451 8.99461 24.6451 8.99195C24.6455 8.98128 24.6455 8.96931 24.6455 8.95731C24.6455 8.95598 24.6455 8.95333 24.6455 8.95067C24.646 8.94134 24.646 8.93194 24.646 8.92261C24.6465 8.91994 24.6465 8.91597 24.6465 8.9133C24.6465 8.90396 24.6471 8.89464 24.6471 8.8853C24.6471 8.88264 24.6471 8.88 24.6471 8.87867C24.7252 5.72533 26.408 2.98399 28.8997 1.40933C27.8992 2.90533 27.3112 4.71465 27.3112 6.66799V8.17867H48.9315C53.9356 8.17867 58.0403 12.3413 58.0403 17.5V31.6493H64.3768C66.3867 35.0266 69.3247 37.8 71.4492 39.544V43.1853Z" fill="#2DB4C9" fill-opacity="0.25"/>
<path d="M55.3734 19.6932V34.9945C55.3734 39.9998 51.2687 44.0852 46.2646 44.0852H18.2895C14.8151 49.7919 8.56875 53.7532 8.56875 53.7532V44.0492C3.78021 43.7799 0 39.8372 0 34.9945V19.6932C0 14.6532 4.10417 10.5839 9.10886 10.5839H46.2646C51.2687 10.5839 55.3734 14.6532 55.3734 19.6932Z" fill="#2DB4C9"/>
<path d="M19.3667 29.0745C19.3667 30.7545 18.0042 32.1172 16.3239 32.1172C14.6438 32.1172 13.2812 30.7545 13.2812 29.0745C13.2812 27.3945 14.6438 26.0318 16.3239 26.0318C18.0042 26.0318 19.3667 27.3945 19.3667 29.0745Z" fill="#E3EEF9"/>
<path d="M16.3239 32.1172C14.6568 32.1172 13.3026 30.7759 13.2818 29.1145C13.2812 29.1012 13.2813 29.0878 13.2813 29.0745C13.2813 29.0345 13.2823 28.9958 13.2839 28.9572C13.3454 27.3305 14.6828 26.0318 16.3239 26.0318C16.3692 26.0318 16.414 26.0332 16.4588 26.0345C16.8078 26.0505 17.1402 26.1292 17.449 26.2518C16.3266 26.6998 15.5312 27.7918 15.5312 29.0745C15.5312 30.3571 16.3266 31.4478 17.449 31.8958C17.1006 32.0358 16.7224 32.1172 16.3239 32.1172Z" fill="#B3E4EB"/>
<path d="M30.7299 29.0745C30.7299 30.7545 29.3679 32.1172 27.6872 32.1172C26.0069 32.1172 24.6445 30.7545 24.6445 29.0745C24.6445 27.3945 26.0069 26.0318 27.6872 26.0318C29.3679 26.0318 30.7299 27.3945 30.7299 29.0745Z" fill="#E3EEF9"/>
<path d="M27.6872 32.1172C26.02 32.1172 24.6659 30.7759 24.6451 29.1145C24.6445 29.1012 24.6445 29.0878 24.6445 29.0745C24.6445 29.0345 24.6456 28.9958 24.6465 28.9572C24.7085 27.3305 26.0465 26.0318 27.6872 26.0318C27.7325 26.0318 27.7779 26.0332 27.8227 26.0345C28.1716 26.0505 28.5033 26.1292 28.8123 26.2518C27.6899 26.6998 26.8945 27.7918 26.8945 29.0745C26.8945 30.3571 27.6899 31.4478 28.8123 31.8958C28.4637 32.0358 28.0856 32.1172 27.6872 32.1172Z" fill="#B3E4EB"/>
<path d="M42.0938 29.0745C42.0938 30.7545 40.7313 32.1172 39.051 32.1172C37.3703 32.1172 36.0078 30.7545 36.0078 29.0745C36.0078 27.3945 37.3703 26.0318 39.051 26.0318C40.7313 26.0318 42.0938 27.3945 42.0938 29.0745Z" fill="#E3EEF9"/>
<path d="M39.051 32.1172C37.3834 32.1172 36.0291 30.7759 36.0083 29.1145C36.0083 29.1012 36.0078 29.0878 36.0078 29.0745C36.0078 29.0345 36.0089 28.9958 36.0105 28.9572C36.0725 27.3305 37.4099 26.0318 39.051 26.0318C39.0958 26.0318 39.1411 26.0332 39.1859 26.0345C39.5343 26.0505 39.8667 26.1292 40.1755 26.2518C39.0537 26.6998 38.2578 27.7918 38.2578 29.0745C38.2578 30.3571 39.0537 31.4478 40.1755 31.8958C39.8271 32.0358 39.449 32.1172 39.051 32.1172Z" fill="#B3E4EB"/>
</svg>
