<svg width="55" height="53" viewBox="0 0 55 53" fill="none" xmlns="http://www.w3.org/2000/svg">
<path d="M27.5 28.2188L23.5589 26.097C21.3729 24.9198 19.5464 23.1727 18.2733 21.0411C17.0002 18.9095 16.328 16.4729 16.3281 13.9901V4.15625C20.2505 4.15634 24.0852 2.99524 27.3487 0.819297L27.5 0.71875L27.6512 0.819297C30.9148 2.99524 34.7495 4.15634 38.6719 4.15625V13.9901C38.672 16.4729 37.9998 18.9095 36.7267 21.0411C35.4536 23.1727 33.6271 24.9198 31.4411 26.097L27.5 28.2188Z" fill="#DFB428"/>
<path d="M27.5 2.4375L27.3487 2.53805C24.5705 4.38598 21.3714 5.50407 18.0469 5.78906V13.9866C18.0468 16.4695 18.7189 18.906 19.992 21.0376C21.2651 23.1692 23.0916 24.9163 25.2777 26.0935L28.3594 27.7564L31.4411 26.097C33.6271 24.9198 35.4536 23.1727 36.7267 21.0411C37.9998 18.9095 38.672 16.4729 38.6719 13.9901V5.875C34.7495 5.87509 30.9148 4.71399 27.6512 2.53805L27.5 2.4375Z" fill="#F9C82B"/>
<path d="M25.1891 23.0702C23.5486 22.1885 22.1779 20.8784 21.2229 19.2794C20.2678 17.6805 19.7642 15.8525 19.7656 13.99V7.34106C22.4769 6.93862 25.0955 6.05907 27.5 4.74316C29.9044 6.05917 32.523 6.93873 35.2344 7.34106V13.99C35.2357 15.8526 34.732 17.6806 33.777 19.2797C32.822 20.8788 31.4513 22.189 29.8109 23.0711L27.5 24.3146L25.1891 23.0702Z" fill="#FFF2C7"/>
<path d="M21.4844 9.19316V13.9902C21.4829 15.8527 21.9866 17.6806 22.9416 19.2796C23.8966 20.8785 25.2674 22.1886 26.9079 23.0704L28.3594 23.8524L29.8109 23.0712C31.4513 22.1892 32.822 20.8789 33.777 19.2799C34.732 17.6808 35.2357 15.8527 35.2344 13.9902V9.5266C32.523 9.12427 29.9044 8.24471 27.5 6.92871C25.6096 7.95896 23.5849 8.72109 21.4844 9.19316Z" fill="white"/>
<path d="M25.6761 17.6021L23.2458 15.1717C23.0846 15.0106 22.9941 14.792 22.9941 14.5642C22.9941 14.3363 23.0846 14.1177 23.2458 13.9566C23.4069 13.7955 23.6255 13.705 23.8533 13.705C24.0812 13.705 24.2998 13.7955 24.4609 13.9566L26.2836 15.7793L30.5367 11.5263C30.6978 11.3652 30.9164 11.2747 31.1443 11.2747C31.3721 11.2747 31.5907 11.3652 31.7518 11.5263C31.913 11.6874 32.0035 11.906 32.0035 12.1338C32.0035 12.3617 31.913 12.5803 31.7518 12.7414L26.8912 17.6021C26.7301 17.7632 26.5115 17.8537 26.2836 17.8537C26.0558 17.8537 25.8372 17.7632 25.6761 17.6021Z" fill="#33393B"/>
<path d="M40.4629 31.2884L45.8383 25.9121C46.3372 25.4133 46.6705 24.773 46.793 24.0782L49.0197 11.4523C49.0714 11.156 49.175 10.8712 49.3256 10.611C49.6292 10.0871 50.1073 9.68687 50.6764 9.48025C51.2454 9.27363 51.869 9.27384 52.4379 9.48086C53.0068 9.68788 53.4847 10.0885 53.7879 10.6125C54.091 11.1365 54.2001 11.7505 54.096 12.3469L51.2455 28.5229C51.0809 29.4558 50.7254 30.3446 50.2013 31.1337L45.7051 37.9038V41.9687H31.9551V36.149" fill="#FFD0C0"/>
<path d="M31.9546 41.9687V35.3515C31.9547 33.5284 32.679 31.78 33.9681 30.4909L43.5003 20.9578C43.7397 20.7184 44.0239 20.5284 44.3367 20.3988C44.6496 20.2693 44.9848 20.2026 45.3234 20.2026C45.662 20.2026 45.9973 20.2693 46.3102 20.3988C46.623 20.5284 46.9072 20.7184 47.1466 20.9578C47.6299 21.4413 47.9015 22.0969 47.9015 22.7806C47.9015 23.4642 47.6299 24.1198 47.1466 24.6033L40.4624 31.2884M14.5368 31.2884L9.16138 25.9121C8.66247 25.4133 8.32913 24.773 8.20661 24.0782L5.97997 11.4523C5.92821 11.156 5.82465 10.8712 5.67403 10.611C5.3705 10.0871 4.89232 9.68687 4.32328 9.48025C3.75424 9.27363 3.13064 9.27384 2.56175 9.48086C1.99285 9.68788 1.51495 10.0885 1.21179 10.6125C0.90863 11.1365 0.799541 11.7505 0.903642 12.3469L3.75419 28.5229C3.9188 29.4558 4.27427 30.3446 4.79833 31.1337L9.29458 37.9038V41.9687H23.0446V36.149" fill="#FFD0C0"/>
<path d="M23.0445 41.9688V35.3516C23.0444 33.5285 22.3201 31.7801 21.031 30.491L11.4988 20.9579C11.2594 20.7185 10.9752 20.5285 10.6624 20.3989C10.3495 20.2693 10.0143 20.2026 9.67566 20.2026C9.33706 20.2026 9.00177 20.2693 8.68895 20.3989C8.37613 20.5285 8.0919 20.7185 7.8525 20.9579C7.36917 21.4414 7.09766 22.097 7.09766 22.7806C7.09766 23.4643 7.36917 24.1199 7.8525 24.6034L14.5367 31.2885" fill="#FFD0C0"/>
<path d="M7.85299 24.6033C7.40284 24.1512 7.13698 23.5479 7.10712 22.9106C7.07725 22.2733 7.28553 21.6477 7.69143 21.1555L7.34252 19.179C7.08856 19.3427 6.85238 19.5325 6.63783 19.7453C6.23871 20.1443 5.9221 20.618 5.7061 21.1394C5.49009 21.6608 5.37891 22.2197 5.37891 22.784C5.37891 23.3484 5.49009 23.9072 5.7061 24.4286C5.9221 24.95 6.23871 25.4238 6.63783 25.8228L13.3203 32.5027C13.4815 32.6638 13.7 32.7543 13.9279 32.7543C14.1558 32.7543 14.3743 32.6638 14.5355 32.5027C14.6966 32.3415 14.7871 32.123 14.7871 31.8951C14.7871 31.6673 14.6966 31.4487 14.5355 31.2875L7.85299 24.6033ZM47.1471 24.6033C47.5972 24.1512 47.8631 23.5479 47.8929 22.9106C47.9228 22.2733 47.7145 21.6477 47.3086 21.1555L47.6575 19.179C47.9115 19.3427 48.1477 19.5325 48.3622 19.7453C48.7613 20.1443 49.0779 20.618 49.2939 21.1394C49.51 21.6608 49.6211 22.2197 49.6211 22.784C49.6211 23.3484 49.51 23.9072 49.2939 24.4286C49.0779 24.95 48.7613 25.4238 48.3622 25.8228L41.6797 32.5027C41.5186 32.6638 41.3 32.7543 41.0721 32.7543C40.8443 32.7543 40.6257 32.6638 40.4646 32.5027C40.3034 32.3415 40.2129 32.123 40.2129 31.8951C40.2129 31.6673 40.3034 31.4487 40.4646 31.2875L47.1471 24.6033Z" fill="#FFB9A6"/>
<path d="M24.7637 47.125H7.57617V41.9688H24.7637V47.125Z" fill="#C7F2FB"/>
<path d="M24.7637 47.125H10.1543V43.6875H24.7637V47.125ZM8.43555 47.125H23.9043V52.2812H8.43555V47.125Z" fill="#4CCEE3"/>
<path d="M11.0137 47.125H23.9043V52.2812H11.0137V47.125Z" fill="#2DB4C9"/>
<path d="M47.4238 47.125H30.2363V41.9688H47.4238V47.125Z" fill="#C7F2FB"/>
<path d="M47.4238 47.125H32.8145V43.6875H47.4238V47.125ZM31.0957 47.125H46.5645V52.2812H31.0957V47.125Z" fill="#4CCEE3"/>
<path d="M33.6738 47.125H46.5645V52.2812H33.6738V47.125Z" fill="#2DB4C9"/>
</svg>
