<svg width="211" height="55" viewBox="0 0 211 55" fill="none" xmlns="http://www.w3.org/2000/svg">
<path fill-rule="evenodd" clip-rule="evenodd" d="M7.04252 50.305C8.19263 50.3047 9.29598 49.8493 10.1115 49.0382C10.9269 48.2271 11.3883 47.1263 11.3949 45.9761V32.9874C11.415 30.6919 12.341 28.4974 13.9714 26.8812C15.6017 25.2652 17.8044 24.3584 20.1 24.3584C22.3956 24.3584 24.5983 25.2652 26.2285 26.8812C27.8589 28.4974 28.7849 30.6919 28.8051 32.9874V45.9761C28.8116 47.1263 29.2731 48.2271 30.0885 49.0382C30.904 49.8493 32.0073 50.3047 33.1575 50.305C34.3076 50.3047 35.4109 49.8493 36.2264 49.0382C37.0419 48.2271 37.5033 47.1263 37.5098 45.9761V32.9874C37.4898 29.9021 36.6512 26.8774 35.0796 24.2222C33.508 21.5671 31.2599 19.3767 28.5648 17.8747C25.8696 16.3728 22.824 15.6132 19.7393 15.6735C16.6544 15.7338 13.6409 16.6119 11.0065 18.2179C10.6586 17.4585 10.1001 16.8148 9.39739 16.363C8.69474 15.9112 7.87718 15.6704 7.04185 15.6691C5.89167 15.6695 4.78837 16.1249 3.97289 16.936C3.15741 17.7471 2.69601 18.8479 2.68945 19.998V45.9761C2.69601 47.1264 3.1575 48.2273 3.97313 49.0384C4.78876 49.8496 5.89222 50.3049 7.04252 50.305ZM20.0997 2.68312C20.955 2.68763 21.7898 2.94538 22.4988 3.42385C23.2078 3.90232 23.7592 4.58007 24.0833 5.37158C24.4076 6.16309 24.4901 7.03287 24.3204 7.87122C24.1508 8.70956 23.7366 9.47889 23.1302 10.0821C22.5238 10.6853 21.7523 11.0954 20.9131 11.2607C20.0739 11.4259 19.2046 11.3388 18.4148 11.0104C17.6249 10.6821 16.9501 10.1272 16.4754 9.41571C16.0006 8.7042 15.7473 7.868 15.7473 7.01268C15.7488 6.44263 15.8625 5.87844 16.082 5.35234C16.3016 4.82624 16.6226 4.34853 17.0268 3.9465C17.4309 3.54446 17.9103 3.22596 18.4375 3.00919C18.9648 2.79242 19.5295 2.68162 20.0997 2.68312Z" fill="#2DB4C9"/>
<path fill-rule="evenodd" clip-rule="evenodd" d="M7.02352 2.68311C7.87991 2.68284 8.71712 2.93654 9.42931 3.41212C10.1415 3.8877 10.6966 4.56379 11.0245 5.35489C11.3524 6.146 11.4383 7.01657 11.2714 7.85653C11.1045 8.69648 10.6923 9.46802 10.0868 10.0737C9.48135 10.6793 8.70995 11.0918 7.87005 11.2589C7.03016 11.4262 6.15955 11.3404 5.36834 11.0128C4.57714 10.6851 3.90087 10.1302 3.42507 9.41819C2.94927 8.70621 2.69531 7.86907 2.69531 7.01268C2.69523 6.4442 2.80711 5.88127 3.02457 5.35602C3.24204 4.83079 3.56083 4.35352 3.96275 3.95149C4.36466 3.54945 4.84182 3.23051 5.367 3.01288C5.89217 2.79525 6.45507 2.68319 7.02352 2.68311ZM20.0075 50.305C21.1546 50.3015 22.2537 49.8442 23.0647 49.0329C23.8757 48.2218 24.3326 47.1226 24.3358 45.9755V32.9874C24.3326 31.8403 23.8757 30.7411 23.0647 29.93C22.2537 29.1187 21.1546 28.6614 20.0075 28.6579C18.8605 28.6614 17.7615 29.1187 16.9505 29.93C16.1395 30.7411 15.6825 31.8403 15.6793 32.9874V45.9761C15.6827 47.1231 16.1398 48.2221 16.9507 49.0332C17.7617 49.8443 18.8606 50.3015 20.0075 50.305ZM45.9763 50.305C47.1231 50.3014 48.2219 49.844 49.0327 49.0329C49.8435 48.2219 50.3005 47.123 50.3038 45.9761V32.9874C50.3046 28.3955 48.4812 23.9914 45.2348 20.7438C41.9884 17.4963 37.5849 15.6714 32.9929 15.6705C35.682 17.6857 37.8642 20.3001 39.3661 23.3062C40.8681 26.3122 41.6485 29.6271 41.6454 32.9874V45.9761C41.6488 47.1236 42.1061 48.223 42.9177 49.0341C43.7292 49.8453 44.8288 50.3022 45.9763 50.305Z" fill="#66747A"/>
<path fill-rule="evenodd" clip-rule="evenodd" d="M62.7365 35.8918H66.1814V22.7186H62.7365V35.8918ZM62.3784 17.9759C62.3678 18.2597 62.4168 18.5425 62.5221 18.8063C62.6275 19.0699 62.7868 19.3087 62.9899 19.5072C63.1929 19.7057 63.4353 19.8595 63.7014 19.9587C63.9675 20.0579 64.2513 20.1004 64.5348 20.0833C64.805 20.0813 65.0719 20.0245 65.3194 19.9161C65.567 19.8078 65.79 19.6504 65.9748 19.4533C66.1596 19.2562 66.3025 19.0237 66.3948 18.7696C66.487 18.5157 66.5267 18.2457 66.5114 17.9759C66.5119 17.7169 66.461 17.4604 66.3616 17.2212C66.2622 16.9819 66.1164 16.7648 65.9326 16.5824C65.7488 16.4 65.5305 16.2557 65.2906 16.1582C65.0507 16.0606 64.7938 16.0116 64.5348 16.014C64.2626 15.9934 63.9892 16.0286 63.7311 16.1174C63.473 16.2062 63.2358 16.3467 63.0339 16.5303C62.832 16.7141 62.6698 16.9369 62.557 17.1855C62.4444 17.4341 62.3835 17.703 62.3784 17.9759ZM77.0398 35.8918H80.484V26.904C80.8636 26.5076 81.3191 26.1918 81.8235 25.9756C82.3279 25.7594 82.8711 25.6472 83.4198 25.6457C85.3361 25.6457 86.4448 26.6411 86.4448 28.7492V35.8918H89.889V28.1636C89.889 24.036 87.6427 22.4839 84.3481 22.4839C82.906 22.4729 81.5176 23.0305 80.484 24.036V22.7186H77.0398V35.8918ZM100.417 35.8918H103.862V22.7186H100.417V35.8918ZM100.057 17.9759C100.047 18.2597 100.096 18.5425 100.201 18.8063C100.306 19.0699 100.466 19.3087 100.669 19.5072C100.872 19.7057 101.114 19.8595 101.381 19.9587C101.646 20.0579 101.931 20.1004 102.214 20.0833C102.484 20.0813 102.751 20.0245 102.998 19.9161C103.246 19.8078 103.469 19.6504 103.654 19.4533C103.839 19.2562 103.982 19.0237 104.074 18.7696C104.166 18.5157 104.206 18.2457 104.19 17.9759C104.191 17.7169 104.14 17.4604 104.041 17.2212C103.942 16.9819 103.795 16.7648 103.612 16.5824C103.428 16.4 103.21 16.2557 102.97 16.1582C102.729 16.0606 102.473 16.0116 102.214 16.014C101.941 15.9936 101.668 16.0288 101.41 16.1176C101.152 16.2064 100.915 16.347 100.713 16.5306C100.511 16.7143 100.349 16.9371 100.236 17.1856C100.124 17.4342 100.063 17.703 100.057 17.9759ZM114.719 35.8918H118.163V26.904C118.543 26.5076 118.998 26.1918 119.502 25.9756C120.007 25.7594 120.55 25.6472 121.099 25.6457C123.016 25.6457 124.124 26.6411 124.124 28.7492V35.8918H127.568V28.1636C127.568 24.036 125.322 22.4839 122.027 22.4839C120.585 22.4729 119.197 23.0305 118.163 24.036V22.7186H114.719V35.8918Z" fill="#66747A"/>
<path fill-rule="evenodd" clip-rule="evenodd" d="M173.719 36.2128H177.163V27.225C177.543 26.8286 177.998 26.5128 178.502 26.2965C179.007 26.0804 179.55 25.9682 180.099 25.9667C182.015 25.9667 183.124 26.962 183.124 29.0702V36.2128H186.568V28.4846C186.568 24.3569 184.322 22.8048 181.027 22.8048C179.585 22.7938 178.197 23.3515 177.163 24.3569V23.0396H173.719V36.2128Z" fill="#2DB4C9"/>
<path fill-rule="evenodd" clip-rule="evenodd" d="M136.158 33.6936C136.155 34.0067 136.215 34.3172 136.335 34.6065C136.455 34.8958 136.632 35.1578 136.856 35.3766C137.08 35.5954 137.346 35.7667 137.637 35.8798C137.93 35.993 138.242 36.0458 138.554 36.0351C139.154 36.0124 139.721 35.7535 140.13 35.3149C140.54 34.8762 140.76 34.2935 140.741 33.6936C140.723 33.1211 140.487 32.5772 140.08 32.1741C139.673 31.771 139.127 31.5394 138.554 31.5271C137.95 31.4977 137.358 31.7093 136.909 32.1153C136.459 32.5214 136.19 33.089 136.158 33.6936Z" fill="#2DB4C9"/>
<path fill-rule="evenodd" clip-rule="evenodd" d="M206.701 31.9417C205.596 32.7411 204.261 33.162 202.897 33.1417C200.77 33.1417 199.152 32.0591 198.853 30.0677H208.588C208.751 29.4771 208.821 28.8649 208.797 28.2527C208.797 24.5637 205.892 22.1343 202.418 22.1343C197.985 22.1343 195.289 25.2082 195.289 29.0428C195.289 33.2014 198.194 35.9514 202.538 35.9514C204.391 36.004 206.207 35.4263 207.689 34.3128L206.701 31.9417ZM202.268 24.9446C204.245 24.9446 205.383 26.2036 205.353 27.814H198.735C198.844 26.9741 199.272 26.2083 199.929 25.6744C200.587 25.1405 201.424 24.8793 202.268 24.9446Z" fill="#2DB4C9"/>
<path d="M156.64 36.5013C154.636 36.5013 152.965 35.8502 151.625 34.5481C150.298 33.2335 149.635 31.5996 149.635 29.6464C149.635 27.6932 150.298 26.0655 151.625 24.7635C152.965 23.4488 154.636 22.7915 156.64 22.7915C157.955 22.7915 159.144 23.092 160.208 23.693C161.285 24.2814 162.124 25.1015 162.725 26.1532C163.326 27.1924 163.626 28.3568 163.626 29.6464C163.626 31.6121 162.963 33.246 161.635 34.5481C160.308 35.8502 158.643 36.5013 156.64 36.5013ZM156.64 33.8157C157.416 33.8157 158.118 33.6404 158.743 33.2898C159.369 32.9267 159.857 32.4259 160.208 31.7874C160.571 31.1488 160.753 30.4352 160.753 29.6464C160.753 28.457 160.358 27.4678 159.57 26.6791C158.794 25.8777 157.817 25.4771 156.64 25.4771C155.475 25.4771 154.493 25.8777 153.691 26.6791C152.903 27.4678 152.508 28.457 152.508 29.6464C152.508 30.8358 152.903 31.8312 153.691 32.6325C154.493 33.4213 155.475 33.8157 156.64 33.8157Z" fill="#2DB4C9"/>
<path d="M65.9429 41.7598C66.7486 41.7598 67.4203 42.0202 67.9569 42.541C68.5022 43.0619 68.7752 43.7129 68.7752 44.4942C68.7752 45.2755 68.5022 45.9266 67.9569 46.4474C67.4203 46.9682 66.7486 47.2286 65.9429 47.2286H63.9409V50.3049H62.8789V41.7598H65.9429ZM65.8819 46.191C66.4027 46.191 66.83 46.0323 67.1634 45.7149C67.5055 45.3894 67.6765 44.9825 67.6765 44.4942C67.6765 44.0059 67.5055 43.6031 67.1634 43.2857C66.83 42.9602 66.4027 42.7974 65.8819 42.7974H63.9409V46.191H65.8819ZM75.7515 43.7129H76.5818V50.3049H75.7146L75.6052 49.3039C75.2954 49.6701 74.9171 49.955 74.4697 50.1584C74.0304 50.3537 73.5461 50.4514 73.0169 50.4514C72.0483 50.4514 71.2388 50.1259 70.5875 49.4748C69.9369 48.8156 69.6109 47.9936 69.6109 47.0089C69.6109 46.0242 69.9369 45.2063 70.5875 44.5552C71.2388 43.896 72.0483 43.5664 73.0169 43.5664C73.5541 43.5664 74.0424 43.6682 74.4818 43.8716C74.9291 44.0751 75.3081 44.3599 75.6173 44.7261L75.7515 43.7129ZM71.3568 48.7546C71.821 49.2184 72.4025 49.4504 73.1027 49.4504C73.8023 49.4504 74.3798 49.2184 74.8359 48.7546C75.2913 48.2907 75.5194 47.7088 75.5194 47.0089C75.5194 46.309 75.2913 45.7271 74.8359 45.2633C74.3798 44.7994 73.8023 44.5674 73.1027 44.5674C72.4025 44.5674 71.821 44.8035 71.3568 45.2755C70.9007 45.7394 70.6733 46.3172 70.6733 47.0089C70.6733 47.7006 70.9007 48.2826 71.3568 48.7546ZM82.1019 46.8258C82.7043 47.1513 83.0054 47.6884 83.0054 48.4372C83.0054 48.8278 82.8954 49.1777 82.6754 49.487C82.4641 49.7881 82.163 50.0241 81.7726 50.195C81.3896 50.3659 80.9583 50.4514 80.4781 50.4514C79.7785 50.4514 79.2004 50.2724 78.7449 49.9143C78.2976 49.5562 78.0447 49.076 77.9883 48.4738H78.928C78.9931 48.7831 79.1641 49.0272 79.4405 49.2062C79.7175 49.3771 80.0636 49.4626 80.4781 49.4626C80.9181 49.4626 81.2796 49.3608 81.5647 49.1574C81.8497 48.954 81.9919 48.6854 81.9919 48.3517C81.9919 48.0424 81.8699 47.7861 81.6257 47.5827C81.3896 47.3792 81.0885 47.2775 80.7222 47.2775H79.7457V46.4352H80.7222C81.0643 46.4352 81.3366 46.3497 81.5405 46.1788C81.7518 45.9998 81.8578 45.7719 81.8578 45.4952C81.8578 45.1941 81.7317 44.95 81.4795 44.7628C81.2273 44.5756 80.8933 44.482 80.4781 44.482C80.1119 44.482 79.8067 44.5634 79.5626 44.7261C79.3184 44.8889 79.1641 45.1087 79.0991 45.3853H78.1587C78.1916 45.0272 78.3096 44.7098 78.5129 44.4332C78.7248 44.1565 79.0011 43.9449 79.3432 43.7984C79.6927 43.6438 80.0797 43.5664 80.5029 43.5664C81.1783 43.5664 81.7357 43.7414 82.175 44.0914C82.6144 44.4413 82.8344 44.8807 82.8344 45.4098C82.8344 46.0445 82.5902 46.5165 82.1019 46.8258ZM89.3344 43.7129H90.4458L87.3082 50.5734C87.064 51.1106 86.8239 51.5256 86.5878 51.8186C86.3517 52.1116 86.0874 52.3232 85.7943 52.4534C85.5019 52.5917 85.1437 52.6609 84.7205 52.6609H84.098V51.7209H84.6346C85.0746 51.7209 85.4039 51.6314 85.6239 51.4524C85.8433 51.2734 86.0874 50.9071 86.3564 50.3537L86.5878 49.8532L83.658 43.7129H84.7936L87.1371 48.7057L89.3344 43.7129ZM99.4994 50.3049H98.498L97.5583 45.4098L95.2268 50.1706H94.9947L92.6754 45.4098L91.7357 50.3049H90.7343L91.9919 43.7129H92.8585L95.1168 48.3273L97.3631 43.7129H98.2297L99.4994 50.3049ZM105.565 43.7129H106.578V50.3049H105.565V47.3873H102.037V50.3049H101.024V43.7129H102.037V46.4108H105.565V43.7129ZM111.644 50.4514C110.992 50.4514 110.399 50.3049 109.862 50.0119C109.324 49.7108 108.905 49.2998 108.604 48.779C108.303 48.25 108.152 47.66 108.152 47.0089C108.152 46.016 108.482 45.1941 109.141 44.543C109.809 43.892 110.643 43.5664 111.644 43.5664C112.303 43.5664 112.897 43.717 113.426 44.0181C113.963 44.3111 114.382 44.7221 114.683 45.2511C114.993 45.7719 115.147 46.3578 115.147 47.0089C115.147 47.9936 114.814 48.8156 114.146 49.4748C113.479 50.1259 112.644 50.4514 111.644 50.4514ZM109.898 48.7668C110.362 49.2225 110.944 49.4504 111.644 49.4504C112.352 49.4504 112.933 49.2225 113.39 48.7668C113.853 48.3029 114.085 47.7169 114.085 47.0089C114.085 46.3009 113.853 45.719 113.39 45.2633C112.933 44.7994 112.352 44.5674 111.644 44.5674C110.944 44.5674 110.362 44.7994 109.898 45.2633C109.442 45.719 109.214 46.3009 109.214 47.0089C109.214 47.7169 109.442 48.3029 109.898 48.7668ZM122.889 47.0333C122.889 47.1229 122.88 47.249 122.864 47.4118H117.237C117.318 48.0221 117.57 48.5145 117.993 48.8888C118.417 49.2551 118.938 49.4382 119.556 49.4382C120.012 49.4382 120.415 49.3405 120.765 49.1452C121.123 48.9418 121.407 48.6569 121.619 48.2907H122.706C122.429 48.9743 122.014 49.5073 121.46 49.8898C120.907 50.2642 120.273 50.4514 119.556 50.4514C118.604 50.4514 117.806 50.1218 117.164 49.4626C116.521 48.8034 116.199 47.9855 116.199 47.0089C116.199 46.0242 116.521 45.2063 117.164 44.5552C117.806 43.896 118.604 43.5664 119.556 43.5664C120.541 43.5664 121.342 43.9001 121.961 44.5674C122.579 45.2348 122.889 46.0567 122.889 47.0333ZM119.556 44.5552C119.166 44.5552 118.808 44.6326 118.482 44.7872C118.164 44.9418 117.9 45.1656 117.688 45.4586C117.477 45.7434 117.335 46.073 117.261 46.4474H121.839C121.766 46.0649 121.623 45.7312 121.412 45.4464C121.2 45.1534 120.936 44.9337 120.618 44.7872C120.301 44.6326 119.947 44.5552 119.556 44.5552ZM130.537 50.4514C129.894 50.4514 129.309 50.3049 128.779 50.0119C128.259 49.7108 127.848 49.2958 127.547 48.7668C127.254 48.2378 127.107 47.6518 127.107 47.0089C127.107 46.0242 127.433 45.2063 128.084 44.5552C128.743 43.896 129.561 43.5664 130.537 43.5664C131.319 43.5664 131.994 43.7821 132.564 44.2134C133.142 44.6448 133.532 45.2185 133.736 45.9347H132.71C132.515 45.5115 132.222 45.1778 131.831 44.9337C131.449 44.6895 131.018 44.5674 130.537 44.5674C129.862 44.5674 129.297 44.8035 128.841 45.2755C128.393 45.7394 128.169 46.3172 128.169 47.0089C128.169 47.4647 128.271 47.8797 128.474 48.2541C128.678 48.6203 128.959 48.9133 129.317 49.133C129.683 49.3446 130.09 49.4504 130.537 49.4504C131.018 49.4504 131.445 49.3283 131.819 49.0842C132.202 48.8319 132.495 48.486 132.698 48.0465H133.748C133.544 48.779 133.15 49.3649 132.564 49.8044C131.986 50.2357 131.311 50.4514 130.537 50.4514ZM140.221 43.7129V44.6529H137.767V50.3049H136.754V44.6529H134.3V43.7129H140.221ZM144.964 43.5664C145.949 43.5664 146.758 43.892 147.393 44.543C148.036 45.1941 148.357 46.016 148.357 47.0089C148.357 47.9936 148.036 48.8156 147.393 49.4748C146.758 50.1259 145.949 50.4514 144.964 50.4514C143.971 50.4514 143.153 50.1096 142.51 49.426V52.6609H141.472V43.7129H142.181L142.388 44.7261C142.697 44.3599 143.071 44.0751 143.511 43.8716C143.959 43.6682 144.443 43.5664 144.964 43.5664ZM144.89 49.4504C145.591 49.4504 146.168 49.2184 146.624 48.7546C147.08 48.2907 147.308 47.7088 147.308 47.0089C147.308 46.309 147.08 45.7271 146.624 45.2633C146.168 44.7994 145.591 44.5674 144.89 44.5674C144.191 44.5674 143.609 44.8035 143.145 45.2755C142.689 45.7394 142.461 46.3172 142.461 47.0089C142.461 47.4647 142.563 47.8797 142.766 48.2541C142.978 48.6284 143.271 48.9214 143.646 49.133C144.02 49.3446 144.435 49.4504 144.89 49.4504ZM155.552 43.7129H156.382V50.3049H155.516L155.406 49.3039C155.096 49.6701 154.718 49.955 154.27 50.1584C153.831 50.3537 153.346 50.4514 152.818 50.4514C151.849 50.4514 151.039 50.1259 150.388 49.4748C149.737 48.8156 149.412 47.9936 149.412 47.0089C149.412 46.0242 149.737 45.2063 150.388 44.5552C151.039 43.896 151.849 43.5664 152.818 43.5664C153.354 43.5664 153.843 43.6682 154.283 43.8716C154.73 44.0751 155.108 44.3599 155.418 44.7261L155.552 43.7129ZM151.157 48.7546C151.621 49.2184 152.203 49.4504 152.903 49.4504C153.603 49.4504 154.181 49.2184 154.636 48.7546C155.092 48.2907 155.32 47.7088 155.32 47.0089C155.32 46.309 155.092 45.7271 154.636 45.2633C154.181 44.7994 153.603 44.5674 152.903 44.5674C152.203 44.5674 151.621 44.8035 151.157 45.2755C150.702 45.7394 150.474 46.3172 150.474 47.0089C150.474 47.7006 150.702 48.2826 151.157 48.7546ZM163.611 50.3049H162.439L160.559 47.5582L158.655 50.3049H157.52L159.937 46.8746L157.716 43.7129H158.875L160.559 46.1544L162.281 43.7129H163.416L161.183 46.838L163.611 50.3049ZM167.506 50.4514C166.856 50.4514 166.261 50.3049 165.724 50.0119C165.187 49.7108 164.768 49.2998 164.467 48.779C164.166 48.25 164.015 47.66 164.015 47.0089C164.015 46.016 164.345 45.1941 165.004 44.543C165.671 43.892 166.505 43.5664 167.506 43.5664C168.166 43.5664 168.76 43.717 169.289 44.0181C169.826 44.3111 170.245 44.7221 170.546 45.2511C170.855 45.7719 171.01 46.3578 171.01 47.0089C171.01 47.9936 170.676 48.8156 170.009 49.4748C169.341 50.1259 168.508 50.4514 167.506 50.4514ZM165.761 48.7668C166.224 49.2225 166.807 49.4504 167.506 49.4504C168.214 49.4504 168.797 49.2225 169.252 48.7668C169.716 48.3029 169.948 47.7169 169.948 47.0089C169.948 46.3009 169.716 45.719 169.252 45.2633C168.797 44.7994 168.214 44.5674 167.506 44.5674C166.807 44.5674 166.224 44.7994 165.761 45.2633C165.305 45.719 165.077 46.3009 165.077 47.0089C165.077 47.7169 165.305 48.3029 165.761 48.7668ZM176.823 46.8868C177.157 47.0089 177.421 47.2123 177.616 47.4972C177.82 47.7821 177.921 48.1035 177.921 48.4616C177.921 48.9906 177.726 49.4301 177.336 49.78C176.953 50.1299 176.473 50.3049 175.895 50.3049H172.587V43.7129H175.858C176.403 43.7129 176.847 43.8716 177.189 44.189C177.531 44.4983 177.702 44.897 177.702 45.3853C177.702 45.6051 177.665 45.8126 177.592 46.0079C177.519 46.2032 177.417 46.3782 177.287 46.5328C177.157 46.6793 177.002 46.7973 176.823 46.8868ZM176.676 45.5684C176.676 45.2999 176.587 45.0883 176.407 44.9337C176.229 44.7709 175.997 44.6895 175.712 44.6895H173.6V46.4352H175.712C176.005 46.4352 176.237 46.3578 176.407 46.2032C176.587 46.0404 176.676 45.8289 176.676 45.5684ZM175.773 49.3283C175.976 49.3283 176.159 49.2876 176.322 49.2062C176.493 49.1167 176.623 48.9987 176.713 48.8522C176.803 48.7057 176.847 48.5429 176.847 48.3639C176.847 48.1767 176.803 48.0099 176.713 47.8634C176.623 47.7088 176.493 47.5908 176.322 47.5094C176.159 47.4281 175.972 47.3873 175.761 47.3873H173.6V49.3283H175.773ZM185.212 43.7129H186.042V50.3049H185.175L185.065 49.3039C184.756 49.6701 184.378 49.955 183.93 50.1584C183.49 50.3537 183.007 50.4514 182.478 50.4514C181.509 50.4514 180.699 50.1259 180.048 49.4748C179.397 48.8156 179.072 47.9936 179.072 47.0089C179.072 46.0242 179.397 45.2063 180.048 44.5552C180.699 43.896 181.509 43.5664 182.478 43.5664C183.015 43.5664 183.503 43.6682 183.942 43.8716C184.39 44.0751 184.768 44.3599 185.077 44.7261L185.212 43.7129ZM180.818 48.7546C181.281 49.2184 181.863 49.4504 182.563 49.4504C183.263 49.4504 183.841 49.2184 184.297 48.7546C184.752 48.2907 184.98 47.7088 184.98 47.0089C184.98 46.309 184.752 45.7271 184.297 45.2633C183.841 44.7994 183.263 44.5674 182.563 44.5674C181.863 44.5674 181.281 44.8035 180.818 45.2755C180.361 45.7394 180.133 46.3172 180.133 47.0089C180.133 47.7006 180.361 48.2826 180.818 48.7546ZM192.673 43.7129H193.686V50.3049H192.673V47.3873H189.145V50.3049H188.132V43.7129H189.145V46.4108H192.673V43.7129ZM200.632 43.7129H201.206V50.3049H200.229V45.5929L196.384 50.3049H195.786V43.7129H196.774V48.3883L200.632 43.7129ZM209.473 47.0333C209.473 47.1229 209.464 47.249 209.448 47.4118H203.82C203.902 48.0221 204.154 48.5145 204.578 48.8888C205.001 49.2551 205.521 49.4382 206.14 49.4382C206.596 49.4382 206.999 49.3405 207.348 49.1452C207.706 48.9418 207.992 48.6569 208.203 48.2907H209.289C209.013 48.9743 208.598 49.5073 208.045 49.8898C207.491 50.2642 206.856 50.4514 206.14 50.4514C205.188 50.4514 204.39 50.1218 203.747 49.4626C203.105 48.8034 202.783 47.9855 202.783 47.0089C202.783 46.0242 203.105 45.2063 203.747 44.5552C204.39 43.896 205.188 43.5664 206.14 43.5664C207.125 43.5664 207.926 43.9001 208.545 44.5674C209.163 45.2348 209.473 46.0567 209.473 47.0333ZM206.14 44.5552C205.749 44.5552 205.391 44.6326 205.066 44.7872C204.749 44.9418 204.484 45.1656 204.272 45.4586C204.06 45.7434 203.918 46.073 203.845 46.4474H208.423C208.35 46.0649 208.207 45.7312 207.996 45.4464C207.784 45.1534 207.519 44.9337 207.202 44.7872C206.885 44.6326 206.531 44.5552 206.14 44.5552Z" fill="#66747A"/>
</svg>
