<svg width="180" height="47" viewBox="0 0 180 47" fill="none" xmlns="http://www.w3.org/2000/svg">
<path fill-rule="evenodd" clip-rule="evenodd" d="M6.01923 42.9876C7.00218 42.9873 7.94517 42.5981 8.64213 41.9051C9.33908 41.2119 9.73342 40.2712 9.73904 39.2884V28.1889C9.75623 26.2273 10.5477 24.3519 11.9411 22.9709C13.3345 21.5899 15.217 20.815 17.1789 20.815C19.1409 20.815 21.0234 21.5899 22.4168 22.9709C23.8102 24.3519 24.6016 26.2273 24.6188 28.1889V39.2884C24.6244 40.2712 25.0188 41.2119 25.7158 41.9051C26.4127 42.5981 27.3556 42.9873 28.3387 42.9876C29.3217 42.9873 30.2646 42.5981 30.9616 41.9051C31.6585 41.2119 32.0528 40.2712 32.0585 39.2884V28.1889C32.0413 25.5524 31.3246 22.9676 29.9815 20.6987C28.6383 18.4297 26.7169 16.5579 24.4135 15.2744C22.11 13.991 19.5071 13.3418 16.8706 13.3934C14.2342 13.4449 11.6586 14.1952 9.40713 15.5677C9.10972 14.9187 8.63244 14.3686 8.03185 13.9826C7.43131 13.5965 6.73258 13.3907 6.01865 13.3896C5.03564 13.3899 4.09269 13.7791 3.39573 14.4722C2.69877 15.1653 2.30443 16.1061 2.29883 17.0889V39.2884C2.30443 40.2713 2.69885 41.2121 3.39593 41.9052C4.09302 42.5984 5.03611 42.9875 6.01923 42.9876ZM17.1787 2.29249C17.9097 2.29634 18.6231 2.5166 19.2291 2.92548C19.835 3.33435 20.3063 3.91352 20.5834 4.58991C20.8605 5.26629 20.931 6.00955 20.786 6.72596C20.641 7.44236 20.287 8.09979 19.7688 8.6153C19.2505 9.13075 18.5911 9.48119 17.8739 9.62242C17.1566 9.76359 16.4137 9.68919 15.7387 9.40857C15.0636 9.128 14.4869 8.65376 14.0811 8.0458C13.6754 7.43778 13.4588 6.72321 13.4588 5.9923C13.4601 5.50517 13.5573 5.02304 13.745 4.57347C13.9326 4.12389 14.2069 3.71566 14.5524 3.37211C14.8978 3.02855 15.3075 2.75638 15.7581 2.57113C16.2087 2.3859 16.6914 2.29122 17.1787 2.29249Z" fill="#2DB4C9"/>
<path fill-rule="evenodd" clip-rule="evenodd" d="M6.00384 2.29248C6.73577 2.29225 7.45129 2.50905 8.05997 2.91545C8.66865 3.32186 9.14306 3.89961 9.42333 4.57564C9.70359 5.25168 9.77702 5.99562 9.63434 6.7134C9.49171 7.43119 9.1394 8.0905 8.62193 8.60808C8.10445 9.12559 7.44516 9.47809 6.72734 9.62093C6.00952 9.76382 5.26544 9.69057 4.58922 9.41057C3.91301 9.13058 3.33503 8.65639 2.92838 8.04792C2.52174 7.4395 2.30469 6.72412 2.30469 5.9923C2.30461 5.50651 2.40024 5.02546 2.5861 4.57661C2.77195 4.12777 3.04441 3.71993 3.38792 3.37637C3.73141 3.03281 4.13923 2.76026 4.58807 2.57429C5.03692 2.38831 5.518 2.29256 6.00384 2.29248ZM17.1008 42.9876C18.0812 42.9846 19.0205 42.5938 19.7136 41.9005C20.4067 41.2073 20.7973 40.268 20.8 39.2878V28.1889C20.7973 27.2087 20.4067 26.2694 19.7136 25.5762C19.0205 24.8829 18.0812 24.4921 17.1008 24.4891C16.1205 24.4921 15.1811 24.8829 14.488 25.5762C13.7949 26.2694 13.4044 27.2087 13.4016 28.1889V39.2884C13.4045 40.2685 13.7951 41.2076 14.4882 41.9008C15.1813 42.5938 16.1205 42.9846 17.1008 42.9876ZM39.2952 42.9876C40.2754 42.9844 41.2145 42.5936 41.9075 41.9005C42.6004 41.2074 42.991 40.2684 42.9938 39.2884V28.1889C42.9945 24.2649 41.4361 20.5014 38.6615 17.7262C35.8869 14.951 32.1234 13.3915 28.1989 13.3908C30.4971 15.1129 32.3621 17.347 33.6458 19.9158C34.9295 22.4847 35.5965 25.3173 35.5938 28.1889V39.2884C35.5967 40.2689 35.9876 41.2084 36.6812 41.9016C37.3748 42.5947 38.3146 42.9852 39.2952 42.9876Z" fill="white"/>
<path fill-rule="evenodd" clip-rule="evenodd" d="M53.6179 30.6715H56.5621V19.4145H53.6179V30.6715ZM53.3117 15.3616C53.3027 15.6041 53.3446 15.8458 53.4346 16.0712C53.5246 16.2965 53.6608 16.5005 53.8344 16.6701C54.0079 16.8398 54.2151 16.9712 54.4425 17.056C54.6699 17.1408 54.9125 17.177 55.1547 17.1625C55.3857 17.1608 55.6139 17.1122 55.8254 17.0196C56.037 16.927 56.2275 16.7925 56.3855 16.624C56.5434 16.4557 56.6656 16.2569 56.7444 16.0399C56.8232 15.8229 56.8572 15.5921 56.8441 15.3616C56.8445 15.1402 56.801 14.921 56.7161 14.7167C56.6311 14.5122 56.5065 14.3267 56.3494 14.1708C56.1923 14.0149 56.0058 13.8916 55.8007 13.8082C55.5957 13.7249 55.3761 13.683 55.1547 13.6851C54.9222 13.6675 54.6885 13.6976 54.4679 13.7734C54.2473 13.8493 54.0445 13.9694 53.872 14.1263C53.6995 14.2833 53.5608 14.4737 53.4645 14.6862C53.3682 14.8986 53.3162 15.1284 53.3117 15.3616ZM65.8423 30.6715H68.786V22.9911C69.1104 22.6523 69.4996 22.3825 69.9307 22.1977C70.3618 22.0129 70.8261 21.917 71.2951 21.9158C72.9328 21.9158 73.8804 22.7664 73.8804 24.5679V30.6715H76.824V24.0675C76.824 20.5402 74.9042 19.2139 72.0884 19.2139C70.856 19.2045 69.6693 19.6809 68.786 20.5402V19.4145H65.8423V30.6715ZM85.8223 30.6715H88.766V19.4145H85.8223V30.6715ZM85.5145 15.3616C85.5053 15.6041 85.5472 15.8458 85.6372 16.0712C85.7272 16.2965 85.8636 16.5005 86.0373 16.6701C86.211 16.8398 86.4179 16.9712 86.6455 17.056C86.8725 17.1408 87.1156 17.177 87.3575 17.1625C87.5885 17.1608 87.8167 17.1122 88.0282 17.0196C88.2397 16.927 88.43 16.7925 88.5882 16.624C88.7465 16.4557 88.8686 16.2569 88.9471 16.0399C89.0262 15.8229 89.06 15.5921 89.0468 15.3616C89.0474 15.1402 89.0039 14.921 88.919 14.7167C88.8342 14.5122 88.7092 14.3267 88.5521 14.1708C88.3951 14.0149 88.2088 13.8916 88.0035 13.8082C87.7983 13.7249 87.5788 13.683 87.3575 13.6851C87.1247 13.6676 86.8914 13.6977 86.6707 13.7736C86.45 13.8495 86.2477 13.9696 86.0751 14.1265C85.9026 14.2834 85.7638 14.4739 85.6675 14.6863C85.5712 14.8986 85.5191 15.1284 85.5145 15.3616ZM98.0451 30.6715H100.989V22.9911C101.313 22.6523 101.702 22.3825 102.134 22.1977C102.565 22.0129 103.029 21.917 103.498 21.9158C105.136 21.9158 106.083 22.7664 106.083 24.5679V30.6715H109.027V24.0675C109.027 20.5402 107.107 19.2139 104.291 19.2139C103.059 19.2045 101.872 19.6809 100.989 20.5402V19.4145H98.0451V30.6715Z" fill="white"/>
<path fill-rule="evenodd" clip-rule="evenodd" d="M148.471 30.9456H151.414V23.2651C151.739 22.9264 152.128 22.6565 152.559 22.4717C152.99 22.287 153.455 22.1911 153.923 22.1899C155.561 22.1899 156.509 23.0404 156.509 24.8419V30.9456H159.452V24.3415C159.452 20.8142 157.533 19.4879 154.717 19.4879C153.484 19.4785 152.298 19.9551 151.414 20.8142V19.6885H148.471V30.9456Z" fill="#2DB4C9"/>
<path fill-rule="evenodd" clip-rule="evenodd" d="M116.369 28.7926C116.366 29.0602 116.417 29.3255 116.52 29.5728C116.623 29.82 116.774 30.0438 116.965 30.2308C117.157 30.4178 117.384 30.5642 117.633 30.6609C117.883 30.7576 118.15 30.8027 118.417 30.7935C118.929 30.7741 119.414 30.5529 119.763 30.1781C120.114 29.8032 120.302 29.3053 120.286 28.7926C120.271 28.3034 120.068 27.8386 119.721 27.4942C119.373 27.1497 118.906 26.9518 118.417 26.9413C117.9 26.9162 117.394 27.0969 117.011 27.4439C116.627 27.7909 116.396 28.276 116.369 28.7926Z" fill="#2DB4C9"/>
<path fill-rule="evenodd" clip-rule="evenodd" d="M176.659 27.2955C175.715 27.9786 174.575 28.3382 173.409 28.3209C171.591 28.3209 170.208 27.3958 169.952 25.694H178.272C178.411 25.1893 178.472 24.6661 178.451 24.143C178.451 20.9906 175.968 18.9146 172.999 18.9146C169.21 18.9146 166.906 21.5414 166.906 24.8182C166.906 28.3719 169.389 30.7219 173.101 30.7219C174.685 30.7669 176.238 30.2732 177.504 29.3216L176.659 27.2955ZM172.871 21.3161C174.56 21.3161 175.533 22.392 175.508 23.7682H169.851C169.944 23.0504 170.31 22.396 170.872 21.9397C171.434 21.4835 172.149 21.2603 172.871 21.3161Z" fill="#2DB4C9"/>
<path d="M133.874 31.1922C132.161 31.1922 130.733 30.6358 129.588 29.5231C128.454 28.3997 127.887 27.0034 127.887 25.3344C127.887 23.6653 128.454 22.2744 129.588 21.1617C130.733 20.0383 132.161 19.4766 133.874 19.4766C134.997 19.4766 136.014 19.7333 136.923 20.2469C137.843 20.7497 138.561 21.4506 139.074 22.3493C139.588 23.2373 139.845 24.2323 139.845 25.3344C139.845 27.0142 139.278 28.4104 138.143 29.5231C137.009 30.6358 135.586 31.1922 133.874 31.1922ZM133.874 28.8972C134.537 28.8972 135.137 28.7474 135.671 28.4478C136.206 28.1376 136.624 27.7096 136.923 27.1639C137.234 26.6183 137.389 26.0084 137.389 25.3344C137.389 24.318 137.052 23.4727 136.378 22.7987C135.714 22.1139 134.88 21.7715 133.874 21.7715C132.879 21.7715 132.039 22.1139 131.354 22.7987C130.68 23.4727 130.343 24.318 130.343 25.3344C130.343 26.3508 130.68 27.2014 131.354 27.8861C132.039 28.5602 132.879 28.8972 133.874 28.8972Z" fill="#2DB4C9"/>
<path d="M56.3589 35.6855C57.0475 35.6855 57.6216 35.9081 58.0802 36.3532C58.5462 36.7982 58.7795 37.3546 58.7795 38.0223C58.7795 38.6899 58.5462 39.2463 58.0802 39.6913C57.6216 40.1364 57.0475 40.359 56.3589 40.359H54.6479V42.9877H53.7402V35.6855H56.3589ZM56.3068 39.4723C56.7519 39.4723 57.1171 39.3366 57.402 39.0654C57.6944 38.7873 57.8406 38.4395 57.8406 38.0223C57.8406 37.605 57.6944 37.2607 57.402 36.9895C57.1171 36.7114 56.7519 36.5722 56.3068 36.5722H54.6479V39.4723H56.3068ZM64.7419 37.3546H65.4516V42.9877H64.7104L64.6169 42.1323C64.3521 42.4453 64.0288 42.6887 63.6464 42.8626C63.2709 43.0295 62.8571 43.1129 62.4048 43.1129C61.577 43.1129 60.8851 42.8348 60.3285 42.2784C59.7724 41.7151 59.4938 41.0127 59.4938 40.1712C59.4938 39.3297 59.7724 38.6308 60.3285 38.0744C60.8851 37.5111 61.577 37.2294 62.4048 37.2294C62.8639 37.2294 63.2813 37.3164 63.6567 37.4902C64.0391 37.6641 64.363 37.9075 64.6273 38.2205L64.7419 37.3546ZM60.986 41.6629C61.3827 42.0593 61.8797 42.2575 62.4781 42.2575C63.076 42.2575 63.5696 42.0593 63.9594 41.6629C64.3487 41.2665 64.5436 40.7693 64.5436 40.1712C64.5436 39.5731 64.3487 39.0759 63.9594 38.6794C63.5696 38.283 63.076 38.0848 62.4781 38.0848C61.8797 38.0848 61.3827 38.2865 60.986 38.6899C60.5962 39.0863 60.4018 39.5801 60.4018 40.1712C60.4018 40.7623 60.5962 41.2596 60.986 41.6629ZM70.1694 40.0147C70.6842 40.2929 70.9416 40.7519 70.9416 41.3917C70.9416 41.7255 70.8476 42.0245 70.6595 42.2888C70.479 42.5461 70.2216 42.7478 69.888 42.8939C69.5606 43.0399 69.192 43.1129 68.7816 43.1129C68.1837 43.1129 67.6895 42.9599 67.3003 42.6539C66.918 42.3479 66.7018 41.9376 66.6537 41.423H67.4568C67.5124 41.6873 67.6586 41.8959 67.8948 42.0489C68.1315 42.1949 68.4273 42.268 68.7816 42.268C69.1576 42.268 69.4666 42.181 69.7102 42.0072C69.9539 41.8333 70.0754 41.6038 70.0754 41.3187C70.0754 41.0544 69.9711 40.8353 69.7624 40.6615C69.5606 40.4876 69.3032 40.4007 68.9902 40.4007H68.1556V39.6809H68.9902C69.2826 39.6809 69.5153 39.6079 69.6896 39.4618C69.8702 39.3088 69.9608 39.1141 69.9608 38.8777C69.9608 38.6204 69.853 38.4117 69.6374 38.2517C69.4219 38.0918 69.1364 38.0118 68.7816 38.0118C68.4686 38.0118 68.2078 38.0813 67.9991 38.2205C67.7904 38.3596 67.6586 38.5473 67.603 38.7838H66.7993C66.8274 38.4777 66.9283 38.2065 67.102 37.9701C67.2831 37.7337 67.5193 37.5528 67.8116 37.4276C68.1103 37.2955 68.4411 37.2294 68.8028 37.2294C69.3801 37.2294 69.8564 37.379 70.2319 37.678C70.6074 37.977 70.7954 38.3526 70.7954 38.8046C70.7954 39.3471 70.5867 39.7504 70.1694 40.0147ZM76.3508 37.3546H77.3006L74.619 43.2172C74.4103 43.6762 74.2051 44.0309 74.0033 44.2813C73.8015 44.5316 73.5757 44.7125 73.3252 44.8237C73.0752 44.942 72.7691 45.0011 72.4074 45.0011H71.8754V44.1978H72.334C72.7101 44.1978 72.9915 44.1213 73.1795 43.9683C73.367 43.8153 73.5757 43.5024 73.8055 43.0295L74.0033 42.6018L71.4994 37.3546H72.4699L74.4728 41.6212L76.3508 37.3546ZM85.0383 42.9877H84.1825L83.3794 38.8046L81.3867 42.873H81.1884L79.2061 38.8046L78.403 42.9877H77.5471L78.622 37.3546H79.3626L81.2927 41.2978L83.2125 37.3546H83.9532L85.0383 42.9877ZM90.2222 37.3546H91.0884V42.9877H90.2222V40.4946H87.2075V42.9877H86.3413V37.3546H87.2075V39.66H90.2222V37.3546ZM95.4176 43.1129C94.8609 43.1129 94.3536 42.9877 93.8945 42.7374C93.4353 42.4801 93.077 42.1288 92.8196 41.6838C92.5622 41.2317 92.4338 40.7276 92.4338 40.1712C92.4338 39.3227 92.7153 38.6204 93.2788 38.064C93.8492 37.5076 94.5623 37.2294 95.4176 37.2294C95.9811 37.2294 96.489 37.3581 96.9407 37.6154C97.3999 37.8658 97.7581 38.217 98.0155 38.669C98.2798 39.1141 98.4116 39.6148 98.4116 40.1712C98.4116 41.0127 98.1267 41.7151 97.5564 42.2784C96.986 42.8348 96.2729 43.1129 95.4176 43.1129ZM93.9254 41.6733C94.3221 42.0628 94.8197 42.2575 95.4176 42.2575C96.0229 42.2575 96.5199 42.0628 96.9097 41.6733C97.3059 41.2769 97.5042 40.7762 97.5042 40.1712C97.5042 39.5661 97.3059 39.0689 96.9097 38.6794C96.5199 38.283 96.0229 38.0848 95.4176 38.0848C94.8197 38.0848 94.3221 38.283 93.9254 38.6794C93.5362 39.0689 93.3413 39.5661 93.3413 40.1712C93.3413 40.7762 93.5362 41.2769 93.9254 41.6733ZM105.029 40.192C105.029 40.2686 105.021 40.3763 105.007 40.5154H100.198C100.267 41.037 100.483 41.4578 100.845 41.7777C101.206 42.0906 101.652 42.2471 102.18 42.2471C102.569 42.2471 102.914 42.1636 103.213 41.9967C103.519 41.8229 103.762 41.5795 103.943 41.2665H104.872C104.635 41.8507 104.281 42.3062 103.808 42.6331C103.335 42.953 102.792 43.1129 102.18 43.1129C101.366 43.1129 100.685 42.8313 100.135 42.268C99.5857 41.7046 99.3111 41.0057 99.3111 40.1712C99.3111 39.3297 99.5857 38.6308 100.135 38.0744C100.685 37.5111 101.366 37.2294 102.18 37.2294C103.022 37.2294 103.707 37.5146 104.235 38.0848C104.764 38.6551 105.029 39.3575 105.029 40.192ZM102.18 38.0744C101.847 38.0744 101.54 38.1405 101.262 38.2726C100.991 38.4047 100.765 38.596 100.584 38.8464C100.403 39.0898 100.282 39.3714 100.219 39.6913H104.131C104.068 39.3644 103.947 39.0793 103.766 38.8359C103.585 38.5856 103.359 38.3978 103.088 38.2726C102.816 38.1405 102.514 38.0744 102.18 38.0744ZM111.565 43.1129C111.016 43.1129 110.515 42.9877 110.063 42.7374C109.618 42.4801 109.267 42.1254 109.009 41.6733C108.759 41.2213 108.634 40.7206 108.634 40.1712C108.634 39.3297 108.912 38.6308 109.468 38.0744C110.031 37.5111 110.731 37.2294 111.565 37.2294C112.233 37.2294 112.811 37.4137 113.297 37.7823C113.791 38.1509 114.125 38.6412 114.299 39.2532H113.422C113.255 38.8916 113.005 38.6064 112.671 38.3978C112.344 38.1892 111.976 38.0848 111.565 38.0848C110.988 38.0848 110.505 38.2865 110.115 38.6899C109.733 39.0863 109.541 39.5801 109.541 40.1712C109.541 40.5607 109.628 40.9153 109.802 41.2352C109.976 41.5482 110.216 41.7985 110.522 41.9863C110.835 42.1671 111.183 42.2575 111.565 42.2575C111.976 42.2575 112.341 42.1532 112.661 41.9446C112.988 41.729 113.238 41.4334 113.412 41.0579H114.309C114.135 41.6838 113.798 42.1845 113.297 42.56C112.804 42.9286 112.226 43.1129 111.565 43.1129ZM119.841 37.3546V38.1579H117.744V42.9877H116.878V38.1579H114.781V37.3546H119.841ZM123.895 37.2294C124.737 37.2294 125.429 37.5076 125.971 38.064C126.521 38.6204 126.795 39.3227 126.795 40.1712C126.795 41.0127 126.521 41.7151 125.971 42.2784C125.429 42.8348 124.737 43.1129 123.895 43.1129C123.046 43.1129 122.348 42.8208 121.798 42.2367V45.0011H120.911V37.3546H121.516L121.694 38.2205C121.958 37.9075 122.278 37.6641 122.654 37.4902C123.036 37.3164 123.45 37.2294 123.895 37.2294ZM123.832 42.2575C124.431 42.2575 124.924 42.0593 125.314 41.6629C125.703 41.2665 125.898 40.7693 125.898 40.1712C125.898 39.5731 125.703 39.0759 125.314 38.6794C124.924 38.283 124.431 38.0848 123.832 38.0848C123.234 38.0848 122.737 38.2865 122.341 38.6899C121.951 39.0863 121.756 39.5801 121.756 40.1712C121.756 40.5607 121.843 40.9153 122.017 41.2352C122.198 41.5551 122.449 41.8055 122.768 41.9863C123.088 42.1671 123.443 42.2575 123.832 42.2575ZM132.944 37.3546H133.654V42.9877H132.913L132.819 42.1323C132.555 42.4453 132.232 42.6887 131.849 42.8626C131.473 43.0295 131.059 43.1129 130.608 43.1129C129.78 43.1129 129.087 42.8348 128.531 42.2784C127.975 41.7151 127.697 41.0127 127.697 40.1712C127.697 39.3297 127.975 38.6308 128.531 38.0744C129.087 37.5111 129.78 37.2294 130.608 37.2294C131.066 37.2294 131.483 37.3164 131.86 37.4902C132.242 37.6641 132.565 37.9075 132.829 38.2205L132.944 37.3546ZM129.188 41.6629C129.585 42.0593 130.082 42.2575 130.68 42.2575C131.278 42.2575 131.772 42.0593 132.162 41.6629C132.551 41.2665 132.746 40.7693 132.746 40.1712C132.746 39.5731 132.551 39.0759 132.162 38.6794C131.772 38.283 131.278 38.0848 130.68 38.0848C130.082 38.0848 129.585 38.2865 129.188 38.6899C128.799 39.0863 128.604 39.5801 128.604 40.1712C128.604 40.7623 128.799 41.2596 129.188 41.6629ZM139.832 42.9877H138.831L137.224 40.6406L135.597 42.9877H134.627L136.692 40.0564L134.793 37.3546H135.785L137.224 39.441L138.696 37.3546H139.665L137.757 40.0251L139.832 42.9877ZM143.161 43.1129C142.605 43.1129 142.097 42.9877 141.638 42.7374C141.179 42.4801 140.821 42.1288 140.564 41.6838C140.306 41.2317 140.177 40.7276 140.177 40.1712C140.177 39.3227 140.459 38.6204 141.022 38.064C141.593 37.5076 142.306 37.2294 143.161 37.2294C143.725 37.2294 144.233 37.3581 144.685 37.6154C145.143 37.8658 145.502 38.217 145.759 38.669C146.023 39.1141 146.156 39.6148 146.156 40.1712C146.156 41.0127 145.87 41.7151 145.3 42.2784C144.73 42.8348 144.017 43.1129 143.161 43.1129ZM141.67 41.6733C142.066 42.0628 142.563 42.2575 143.161 42.2575C143.766 42.2575 144.264 42.0628 144.653 41.6733C145.05 41.2769 145.248 40.7762 145.248 40.1712C145.248 39.5661 145.05 39.0689 144.653 38.6794C144.264 38.283 143.766 38.0848 143.161 38.0848C142.563 38.0848 142.066 38.283 141.67 38.6794C141.28 39.0689 141.085 39.5661 141.085 40.1712C141.085 40.7762 141.28 41.2769 141.67 41.6733ZM151.124 40.0669C151.409 40.1712 151.635 40.345 151.802 40.5885C151.976 40.8319 152.063 41.1065 152.063 41.4126C152.063 41.8646 151.896 42.2402 151.562 42.5392C151.235 42.8382 150.825 42.9877 150.331 42.9877H147.504V37.3546H150.299C150.765 37.3546 151.145 37.4902 151.437 37.7615C151.729 38.0257 151.875 38.3665 151.875 38.7838C151.875 38.9715 151.844 39.1489 151.781 39.3158C151.719 39.4827 151.631 39.6322 151.52 39.7643C151.409 39.8895 151.277 39.9903 151.124 40.0669ZM150.999 38.9402C150.999 38.7107 150.922 38.5299 150.769 38.3978C150.616 38.2587 150.418 38.1892 150.174 38.1892H148.369V39.6809H150.174C150.425 39.6809 150.623 39.6148 150.769 39.4827C150.922 39.3436 150.999 39.1628 150.999 38.9402ZM150.226 42.1532C150.4 42.1532 150.557 42.1184 150.696 42.0489C150.842 41.9724 150.953 41.8715 151.03 41.7464C151.106 41.6212 151.145 41.4821 151.145 41.3291C151.145 41.1691 151.106 41.0266 151.03 40.9014C150.953 40.7693 150.842 40.6684 150.696 40.5989C150.557 40.5294 150.397 40.4946 150.216 40.4946H148.369V42.1532H150.226ZM158.294 37.3546H159.003V42.9877H158.262L158.168 42.1323C157.904 42.4453 157.581 42.6887 157.198 42.8626C156.822 43.0295 156.409 43.1129 155.957 43.1129C155.129 43.1129 154.437 42.8348 153.88 42.2784C153.324 41.7151 153.046 41.0127 153.046 40.1712C153.046 39.3297 153.324 38.6308 153.88 38.0744C154.437 37.5111 155.129 37.2294 155.957 37.2294C156.416 37.2294 156.833 37.3164 157.209 37.4902C157.591 37.6641 157.914 37.9075 158.179 38.2205L158.294 37.3546ZM154.538 41.6629C154.934 42.0593 155.432 42.2575 156.029 42.2575C156.628 42.2575 157.121 42.0593 157.511 41.6629C157.9 41.2665 158.095 40.7693 158.095 40.1712C158.095 39.5731 157.9 39.0759 157.511 38.6794C157.121 38.283 156.628 38.0848 156.029 38.0848C155.432 38.0848 154.934 38.2865 154.538 38.6899C154.148 39.0863 153.953 39.5801 153.953 40.1712C153.953 40.7623 154.148 41.2596 154.538 41.6629ZM164.671 37.3546H165.536V42.9877H164.671V40.4946H161.655V42.9877H160.789V37.3546H161.655V39.66H164.671V37.3546ZM171.472 37.3546H171.963V42.9877H171.128V38.9611L167.842 42.9877H167.33V37.3546H168.175V41.35L171.472 37.3546ZM179.028 40.192C179.028 40.2686 179.021 40.3763 179.008 40.5154H174.197C174.267 41.037 174.483 41.4578 174.845 41.7777C175.206 42.0906 175.651 42.2471 176.18 42.2471C176.569 42.2471 176.914 42.1636 177.213 41.9967C177.519 41.8229 177.762 41.5795 177.943 41.2665H178.872C178.635 41.8507 178.281 42.3062 177.808 42.6331C177.335 42.953 176.792 43.1129 176.18 43.1129C175.366 43.1129 174.685 42.8313 174.135 42.268C173.586 41.7046 173.311 41.0057 173.311 40.1712C173.311 39.3297 173.586 38.6308 174.135 38.0744C174.685 37.5111 175.366 37.2294 176.18 37.2294C177.022 37.2294 177.707 37.5146 178.235 38.0848C178.764 38.6551 179.028 39.3575 179.028 40.192ZM176.18 38.0744C175.846 38.0744 175.54 38.1405 175.262 38.2726C174.991 38.4047 174.764 38.596 174.584 38.8464C174.403 39.0898 174.281 39.3714 174.219 39.6913H178.131C178.069 39.3644 177.946 39.0793 177.766 38.8359C177.585 38.5856 177.359 38.3978 177.088 38.2726C176.817 38.1405 176.514 38.0744 176.18 38.0744Z" fill="white"/>
</svg>
