<svg width="345" height="90" viewBox="0 0 345 90" fill="none" xmlns="http://www.w3.org/2000/svg">
<path fill-rule="evenodd" clip-rule="evenodd" d="M11.5236 82.317C13.4056 82.3164 15.2111 81.5712 16.5455 80.244C17.8799 78.9167 18.6349 77.1154 18.6457 75.2333V53.979C18.6786 50.2227 20.1939 46.6316 22.8617 43.9871C25.5296 41.3426 29.134 39.8588 32.8904 39.8588C36.6468 39.8588 40.2512 41.3426 42.9189 43.9871C45.5867 46.6316 47.102 50.2227 47.1351 53.979V75.2333C47.1457 77.1154 47.9008 78.9167 49.2352 80.244C50.5696 81.5712 52.375 82.3164 54.2571 82.317C56.1392 82.3164 57.9446 81.5712 59.279 80.244C60.6134 78.9167 61.3684 77.1154 61.3792 75.2333V53.979C61.3464 48.9304 59.9741 43.9808 57.4025 39.636C54.8308 35.2912 51.152 31.7069 46.7418 29.2491C42.3315 26.7915 37.3479 25.5485 32.3001 25.6472C27.2522 25.7458 22.321 27.1826 18.0102 29.8107C17.4408 28.568 16.5269 27.5146 15.377 26.7754C14.2272 26.0361 12.8894 25.6421 11.5225 25.64C9.64038 25.6406 7.83499 26.3858 6.50056 27.7131C5.16614 29.0403 4.41111 30.8417 4.40039 32.7237V75.2333C4.41111 77.1155 5.16629 78.917 6.50095 80.2443C7.83561 81.5716 9.64129 82.3167 11.5236 82.317ZM32.8898 4.39016C34.2894 4.39754 35.6554 4.81931 36.8157 5.60226C37.9758 6.38521 38.8781 7.49426 39.4086 8.78946C39.9391 10.0847 40.0741 11.5079 39.7965 12.8798C39.519 14.2516 38.8412 15.5105 37.8489 16.4977C36.8566 17.4847 35.5942 18.1557 34.2209 18.4262C32.8477 18.6965 31.4251 18.5541 30.1327 18.0167C28.8403 17.4794 27.736 16.5713 26.9591 15.4071C26.1823 14.2428 25.7677 12.8745 25.7677 11.4749C25.7702 10.5421 25.9563 9.61886 26.3155 8.75798C26.6748 7.89709 27.2001 7.11538 27.8614 6.45751C28.5227 5.79963 29.3073 5.27845 30.1699 4.92373C31.0327 4.56902 31.9569 4.38771 32.8898 4.39016Z" fill="#2DB4C9"/>
<path fill-rule="evenodd" clip-rule="evenodd" d="M11.4946 4.39014C12.896 4.3897 14.266 4.80485 15.4314 5.58307C16.5968 6.36129 17.5051 7.46762 18.0417 8.76215C18.5783 10.0567 18.7189 11.4813 18.4457 12.8557C18.1726 14.2302 17.4981 15.4927 16.5073 16.4838C15.5165 17.4748 14.2542 18.1498 12.8799 18.4233C11.5055 18.697 10.0809 18.5567 8.78615 18.0205C7.49146 17.4844 6.38484 16.5764 5.60626 15.4112C4.82768 14.2461 4.41211 12.8763 4.41211 11.4749C4.41197 10.5447 4.59505 9.62349 4.9509 8.764C5.30675 7.90453 5.82841 7.12355 6.48609 6.46567C7.14376 5.80779 7.92458 5.28589 8.78396 4.92977C9.64333 4.57365 10.5644 4.39028 11.4946 4.39014ZM32.7412 82.317C34.6183 82.3111 36.4167 81.5628 37.7438 80.2353C39.0709 78.9079 39.8186 77.1093 39.8238 75.2322V53.979C39.8186 52.102 39.0709 50.3033 37.7438 48.9759C36.4167 47.6484 34.6183 46.9001 32.7412 46.8943C30.8643 46.9001 29.0658 47.6484 27.7388 48.9759C26.4117 50.3033 25.6639 52.102 25.6587 53.979V75.2333C25.6642 77.1101 26.4121 78.9085 27.7391 80.2358C29.0662 81.5629 30.8644 82.3111 32.7412 82.317ZM75.2355 82.317C77.1121 82.3109 78.9101 81.5625 80.237 80.2353C81.5637 78.9082 82.3115 77.1099 82.3169 75.2333V53.979C82.3182 46.465 79.3344 39.2582 74.0221 33.944C68.7098 28.6299 61.5041 25.6436 53.99 25.6422C58.3903 28.9398 61.9612 33.218 64.4189 38.137C66.8767 43.056 68.1537 48.4803 68.1485 53.979V75.2333C68.1541 77.1109 68.9026 78.9099 70.2306 80.2373C71.5585 81.5646 73.3579 82.3123 75.2355 82.317Z" fill="#33393B"/>
<path fill-rule="evenodd" clip-rule="evenodd" d="M102.659 58.7325H108.296V37.1764H102.659V58.7325ZM102.073 29.4155C102.055 29.8799 102.135 30.3427 102.308 30.7743C102.48 31.2057 102.741 31.5965 103.073 31.9212C103.405 32.2461 103.802 32.4977 104.238 32.6601C104.673 32.8225 105.137 32.8919 105.601 32.8641C106.043 32.8608 106.48 32.7677 106.885 32.5904C107.29 32.4132 107.655 32.1556 107.958 31.833C108.26 31.5105 108.494 31.13 108.645 30.7144C108.796 30.2988 108.861 29.857 108.836 29.4155C108.837 28.9916 108.753 28.5719 108.591 28.1805C108.428 27.789 108.189 27.4338 107.889 27.1352C107.588 26.8367 107.231 26.6007 106.838 26.441C106.446 26.2814 106.025 26.2012 105.601 26.2051C105.156 26.1715 104.709 26.2291 104.286 26.3743C103.864 26.5196 103.476 26.7495 103.145 27.0501C102.815 27.3507 102.549 27.7154 102.365 28.1221C102.181 28.5289 102.081 28.969 102.073 29.4155ZM126.064 58.7325H131.7V44.0251C132.321 43.3765 133.067 42.8598 133.892 42.5059C134.717 42.1522 135.606 41.9685 136.504 41.9661C139.64 41.9661 141.454 43.5949 141.454 47.0445V58.7325H147.09V46.0864C147.09 39.332 143.414 36.7922 138.023 36.7922C135.663 36.7742 133.391 37.6866 131.7 39.332V37.1764H126.064V58.7325ZM164.318 58.7325H169.954V37.1764H164.318V58.7325ZM163.729 29.4155C163.712 29.8799 163.792 30.3427 163.964 30.7743C164.136 31.2057 164.397 31.5965 164.73 31.9212C165.063 32.2461 165.459 32.4977 165.895 32.6601C166.329 32.8225 166.795 32.8919 167.258 32.8641C167.7 32.8608 168.137 32.7677 168.542 32.5904C168.947 32.4132 169.311 32.1556 169.614 31.833C169.917 31.5105 170.151 31.13 170.301 30.7144C170.453 30.2988 170.517 29.857 170.492 29.4155C170.493 28.9916 170.41 28.5719 170.247 28.1805C170.085 27.789 169.846 27.4338 169.545 27.1352C169.244 26.8367 168.888 26.6007 168.495 26.441C168.102 26.2814 167.681 26.2012 167.258 26.2051C166.812 26.1717 166.365 26.2293 165.943 26.3746C165.52 26.52 165.133 26.75 164.802 27.0505C164.472 27.351 164.206 27.7157 164.022 28.1224C163.838 28.529 163.738 28.969 163.729 29.4155ZM187.721 58.7325H193.357V44.0251C193.978 43.3765 194.723 42.8598 195.548 42.5059C196.374 42.1522 197.263 41.9685 198.161 41.9661C201.297 41.9661 203.111 43.5949 203.111 47.0445V58.7325H208.747V46.0864C208.747 39.332 205.071 36.7922 199.68 36.7922C197.32 36.7742 195.048 37.6866 193.357 39.332V37.1764H187.721V58.7325Z" fill="#33393B"/>
<path fill-rule="evenodd" clip-rule="evenodd" d="M284.268 59.2574H289.904V44.5501C290.525 43.9014 291.27 43.3847 292.095 43.0308C292.921 42.6771 293.81 42.4935 294.708 42.4911C297.843 42.4911 299.658 44.1198 299.658 47.5695V59.2574H305.294V46.6113C305.294 39.8569 301.618 37.3172 296.227 37.3172C293.867 37.2992 291.595 38.2117 289.904 39.8569V37.7013H284.268V59.2574Z" fill="#2DB4C9"/>
<path fill-rule="evenodd" clip-rule="evenodd" d="M222.805 55.135C222.799 55.6473 222.897 56.1555 223.094 56.6289C223.29 57.1023 223.58 57.531 223.946 57.889C224.313 58.2471 224.748 58.5273 225.225 58.7125C225.704 58.8976 226.214 58.9841 226.725 58.9666C227.707 58.9294 228.634 58.5057 229.304 57.788C229.974 57.0702 230.334 56.1166 230.303 55.135C230.275 54.1982 229.887 53.3082 229.222 52.6486C228.556 51.9889 227.663 51.6099 226.725 51.5899C225.736 51.5418 224.767 51.888 224.033 52.5524C223.298 53.2169 222.856 54.1456 222.805 55.135Z" fill="#2DB4C9"/>
<path fill-rule="evenodd" clip-rule="evenodd" d="M338.236 52.2683C336.428 53.5763 334.245 54.2651 332.012 54.2318C328.532 54.2318 325.884 52.4603 325.395 49.2017H341.324C341.591 48.2353 341.706 47.2334 341.666 46.2317C341.666 40.1951 336.913 36.2197 331.227 36.2197C323.974 36.2197 319.562 41.2498 319.562 47.5246C319.562 54.3295 324.316 58.8295 331.424 58.8295C334.456 58.9156 337.429 57.9703 339.853 56.1481L338.236 52.2683ZM330.983 40.8185C334.217 40.8185 336.08 42.8786 336.031 45.5139H325.201C325.38 44.1395 326.08 42.8863 327.155 42.0127C328.232 41.139 329.601 40.7116 330.983 40.8185Z" fill="#2DB4C9"/>
<path d="M256.32 59.7291C253.042 59.7291 250.307 58.6637 248.115 56.533C245.943 54.3818 244.857 51.7081 244.857 48.512C244.857 45.3159 245.943 42.6524 248.115 40.5217C250.307 38.3705 253.042 37.2949 256.32 37.2949C258.472 37.2949 260.418 37.7866 262.159 38.77C263.921 39.7329 265.294 41.0749 266.277 42.7959C267.261 44.4963 267.753 46.4017 267.753 48.512C267.753 51.7286 266.667 54.4023 264.495 56.533C262.323 58.6637 259.599 59.7291 256.32 59.7291ZM256.32 55.3344C257.59 55.3344 258.738 55.0476 259.762 54.4739C260.786 53.8798 261.585 53.0603 262.159 52.0154C262.753 50.9705 263.051 49.8027 263.051 48.512C263.051 46.5657 262.405 44.9471 261.115 43.6564C259.845 42.3451 258.247 41.6896 256.32 41.6896C254.415 41.6896 252.807 42.3451 251.495 43.6564C250.205 44.9471 249.559 46.5657 249.559 48.512C249.559 50.4583 250.205 52.0871 251.495 53.3983C252.807 54.6891 254.415 55.3344 256.32 55.3344Z" fill="#2DB4C9"/>
<path d="M107.906 68.334C109.225 68.334 110.324 68.7602 111.202 69.6124C112.094 70.4647 112.541 71.5301 112.541 72.8085C112.541 74.087 112.094 75.1524 111.202 76.0046C110.324 76.8569 109.225 77.2831 107.906 77.2831H104.63V82.3169H102.893V68.334H107.906ZM107.807 75.5851C108.659 75.5851 109.358 75.3254 109.904 74.8061C110.463 74.2734 110.743 73.6075 110.743 72.8085C110.743 72.0095 110.463 71.3503 109.904 70.8309C109.358 70.2983 108.659 70.0319 107.807 70.0319H104.63V75.5851H107.807ZM123.957 71.5301H125.316V82.3169H123.896L123.717 80.6789C123.21 81.2782 122.591 81.7443 121.859 82.0772C121.14 82.3968 120.348 82.5566 119.482 82.5566C117.897 82.5566 116.572 82.024 115.507 80.9586C114.442 79.8799 113.909 78.5348 113.909 76.9235C113.909 75.3122 114.442 73.9738 115.507 72.9084C116.572 71.8297 117.897 71.2904 119.482 71.2904C120.361 71.2904 121.16 71.4569 121.879 71.7898C122.611 72.1227 123.231 72.5888 123.737 73.1881L123.957 71.5301ZM116.766 79.78C117.525 80.5391 118.477 80.9186 119.622 80.9186C120.767 80.9186 121.712 80.5391 122.459 79.78C123.204 79.0209 123.577 78.0688 123.577 76.9235C123.577 75.7782 123.204 74.8261 122.459 74.067C121.712 73.3079 120.767 72.9284 119.622 72.9284C118.477 72.9284 117.525 73.3146 116.766 74.087C116.019 74.846 115.647 75.7916 115.647 76.9235C115.647 78.0554 116.019 79.0077 116.766 79.78ZM134.348 76.6239C135.334 77.1565 135.827 78.0354 135.827 79.2606C135.827 79.8999 135.647 80.4725 135.287 80.9785C134.941 81.4712 134.448 81.8575 133.81 82.1371C133.183 82.4168 132.477 82.5566 131.691 82.5566C130.546 82.5566 129.6 82.2637 128.855 81.6777C128.123 81.0917 127.709 80.3061 127.617 79.3206H129.155C129.261 79.8267 129.541 80.2262 129.993 80.5191C130.447 80.7988 131.013 80.9386 131.691 80.9386C132.411 80.9386 133.003 80.7721 133.469 80.4392C133.936 80.1063 134.168 79.6668 134.168 79.1208C134.168 78.6147 133.969 78.1952 133.569 77.8624C133.183 77.5295 132.69 77.363 132.091 77.363H130.493V75.9846H132.091C132.651 75.9846 133.096 75.8448 133.43 75.5652C133.776 75.2722 133.949 74.8993 133.949 74.4465C133.949 73.9538 133.743 73.5543 133.33 73.248C132.917 72.9417 132.371 72.7886 131.691 72.7886C131.092 72.7886 130.593 72.9217 130.193 73.1881C129.794 73.4544 129.541 73.814 129.435 74.2667H127.896C127.95 73.6808 128.143 73.1614 128.475 72.7086C128.822 72.2559 129.274 71.9096 129.834 71.6699C130.406 71.4169 131.039 71.2904 131.732 71.2904C132.837 71.2904 133.749 71.5767 134.468 72.1493C135.187 72.7219 135.547 73.441 135.547 74.3067C135.547 75.3454 135.147 76.1178 134.348 76.6239ZM146.183 71.5301H148.002L142.868 82.7564C142.468 83.6353 142.075 84.3145 141.689 84.7939C141.303 85.2733 140.87 85.6196 140.391 85.8326C139.912 86.059 139.326 86.1722 138.633 86.1722H137.615V84.6341H138.493C139.213 84.6341 139.752 84.4876 140.112 84.1946C140.471 83.9017 140.87 83.3024 141.31 82.3968L141.689 81.5778L136.895 71.5301H138.753L142.588 79.7001L146.183 71.5301ZM162.817 82.3169H161.178L159.641 74.3067L155.826 82.0972H155.446L151.65 74.3067L150.113 82.3169H148.474L150.532 71.5301H151.95L155.646 79.0809L159.321 71.5301H160.739L162.817 82.3169ZM172.742 71.5301H174.401V82.3169H172.742V77.5427H166.97V82.3169H165.312V71.5301H166.97V75.9447H172.742V71.5301ZM182.689 82.5566C181.624 82.5566 180.652 82.3169 179.773 81.8375C178.894 81.3448 178.208 80.6722 177.715 79.82C177.222 78.9543 176.977 77.9889 176.977 76.9235C176.977 75.2988 177.516 73.9538 178.594 72.8884C179.686 71.823 181.052 71.2904 182.689 71.2904C183.768 71.2904 184.741 71.5368 185.606 72.0295C186.485 72.5089 187.171 73.1814 187.664 74.047C188.17 74.8993 188.422 75.8581 188.422 76.9235C188.422 78.5348 187.876 79.8799 186.784 80.9586C185.692 82.024 184.327 82.5566 182.689 82.5566ZM179.832 79.8C180.592 80.5458 181.545 80.9186 182.689 80.9186C183.848 80.9186 184.8 80.5458 185.546 79.8C186.305 79.0409 186.685 78.0821 186.685 76.9235C186.685 75.7649 186.305 74.8128 185.546 74.067C184.8 73.3079 183.848 72.9284 182.689 72.9284C181.545 72.9284 180.592 73.3079 179.832 74.067C179.087 74.8128 178.714 75.7649 178.714 76.9235C178.714 78.0821 179.087 79.0409 179.832 79.8ZM201.091 76.9634C201.091 77.11 201.077 77.3163 201.05 77.5827H191.842C191.975 78.5815 192.387 79.3872 193.08 79.9997C193.773 80.599 194.625 80.8986 195.637 80.8986C196.383 80.8986 197.042 80.7388 197.615 80.4192C198.201 80.0863 198.667 79.6202 199.013 79.0209H200.791C200.338 80.1396 199.659 81.0118 198.753 81.6377C197.848 82.2503 196.81 82.5566 195.637 82.5566C194.079 82.5566 192.774 82.0173 191.722 80.9386C190.67 79.8599 190.144 78.5215 190.144 76.9235C190.144 75.3122 190.67 73.9738 191.722 72.9084C192.774 71.8297 194.079 71.2904 195.637 71.2904C197.249 71.2904 198.56 71.8364 199.572 72.9284C200.584 74.0203 201.091 75.3654 201.091 76.9634ZM195.637 72.9084C194.999 72.9084 194.412 73.0349 193.879 73.2879C193.36 73.5409 192.927 73.9072 192.581 74.3866C192.235 74.8527 192.002 75.3921 191.881 76.0046H199.372C199.253 75.3787 199.02 74.8328 198.673 74.3666C198.327 73.8872 197.895 73.5276 197.375 73.2879C196.856 73.0349 196.276 72.9084 195.637 72.9084ZM213.607 82.5566C212.554 82.5566 211.596 82.3169 210.73 81.8375C209.878 81.3448 209.205 80.6656 208.713 79.8C208.233 78.9343 207.994 77.9755 207.994 76.9235C207.994 75.3122 208.526 73.9738 209.592 72.9084C210.67 71.8297 212.009 71.2904 213.607 71.2904C214.885 71.2904 215.991 71.6432 216.922 72.3491C217.868 73.0549 218.507 73.9938 218.84 75.1656H217.162C216.842 74.4732 216.363 73.9272 215.724 73.5276C215.098 73.1281 214.392 72.9284 213.607 72.9284C212.501 72.9284 211.576 73.3146 210.83 74.087C210.098 74.846 209.731 75.7916 209.731 76.9235C209.731 77.6693 209.898 78.3485 210.231 78.961C210.563 79.5603 211.023 80.0397 211.609 80.3993C212.208 80.7455 212.875 80.9186 213.607 80.9186C214.392 80.9186 215.092 80.7189 215.704 80.3194C216.33 79.9066 216.809 79.3406 217.142 78.6214H218.86C218.527 79.82 217.882 80.7788 216.922 81.4979C215.977 82.2038 214.872 82.5566 213.607 82.5566ZM229.452 71.5301V73.0682H225.437V82.3169H223.779V73.0682H219.764V71.5301H229.452ZM237.213 71.2904C238.825 71.2904 240.15 71.823 241.188 72.8884C242.241 73.9538 242.767 75.2988 242.767 76.9235C242.767 78.5348 242.241 79.8799 241.188 80.9586C240.15 82.024 238.825 82.5566 237.213 82.5566C235.589 82.5566 234.251 81.9973 233.198 80.8787V86.1722H231.5V71.5301H232.659L232.998 73.1881C233.504 72.5888 234.117 72.1227 234.837 71.7898C235.569 71.4569 236.361 71.2904 237.213 71.2904ZM237.093 80.9186C238.239 80.9186 239.184 80.5391 239.931 79.78C240.676 79.0209 241.049 78.0688 241.049 76.9235C241.049 75.7782 240.676 74.8261 239.931 74.067C239.184 73.3079 238.239 72.9284 237.093 72.9284C235.949 72.9284 234.996 73.3146 234.237 74.087C233.491 74.846 233.118 75.7916 233.118 76.9235C233.118 77.6693 233.285 78.3485 233.617 78.961C233.964 79.5736 234.444 80.053 235.056 80.3993C235.669 80.7455 236.348 80.9186 237.093 80.9186ZM254.539 71.5301H255.898V82.3169H254.48L254.3 80.6789C253.794 81.2782 253.175 81.7443 252.442 82.0772C251.723 82.3968 250.93 82.5566 250.065 82.5566C248.48 82.5566 247.155 82.024 246.09 80.9586C245.024 79.8799 244.492 78.5348 244.492 76.9235C244.492 75.3122 245.024 73.9738 246.09 72.9084C247.155 71.8297 248.48 71.2904 250.065 71.2904C250.943 71.2904 251.742 71.4569 252.462 71.7898C253.195 72.1227 253.814 72.5888 254.32 73.1881L254.539 71.5301ZM247.348 79.78C248.107 80.5391 249.059 80.9186 250.205 80.9186C251.35 80.9186 252.296 80.5391 253.041 79.78C253.787 79.0209 254.16 78.0688 254.16 76.9235C254.16 75.7782 253.787 74.8261 253.041 74.067C252.296 73.3079 251.35 72.9284 250.205 72.9284C249.059 72.9284 248.107 73.3146 247.348 74.087C246.603 74.846 246.229 75.7916 246.229 76.9235C246.229 78.0554 246.603 79.0077 247.348 79.78ZM267.727 82.3169H265.81L262.733 77.8224L259.617 82.3169H257.76L261.715 76.7038L258.08 71.5301H259.977L262.733 75.5252L265.551 71.5301H267.408L263.753 76.6438L267.727 82.3169ZM274.101 82.5566C273.036 82.5566 272.064 82.3169 271.185 81.8375C270.305 81.3448 269.621 80.6722 269.128 79.82C268.635 78.9543 268.388 77.9889 268.388 76.9235C268.388 75.2988 268.928 73.9538 270.006 72.8884C271.098 71.823 272.463 71.2904 274.101 71.2904C275.18 71.2904 276.152 71.5368 277.018 72.0295C277.896 72.5089 278.582 73.1814 279.075 74.047C279.581 74.8993 279.835 75.8581 279.835 76.9235C279.835 78.5348 279.288 79.8799 278.196 80.9586C277.104 82.024 275.74 82.5566 274.101 82.5566ZM271.245 79.8C272.003 80.5458 272.956 80.9186 274.101 80.9186C275.26 80.9186 276.213 80.5458 276.958 79.8C277.717 79.0409 278.096 78.0821 278.096 76.9235C278.096 75.7649 277.717 74.8128 276.958 74.067C276.213 73.3079 275.26 72.9284 274.101 72.9284C272.956 72.9284 272.003 73.3079 271.245 74.067C270.499 74.8128 270.127 75.7649 270.127 76.9235C270.127 78.0821 270.499 79.0409 271.245 79.8ZM289.346 76.7237C289.893 76.9235 290.325 77.2564 290.644 77.7225C290.978 78.1887 291.144 78.7146 291.144 79.3006C291.144 80.1662 290.824 80.8854 290.186 81.458C289.559 82.0306 288.774 82.3169 287.828 82.3169H282.415V71.5301H287.768C288.66 71.5301 289.387 71.7898 289.945 72.3091C290.505 72.8152 290.785 73.4677 290.785 74.2667C290.785 74.6263 290.725 74.9659 290.605 75.2855C290.485 75.6051 290.318 75.8915 290.105 76.1444C289.893 76.3842 289.639 76.5772 289.346 76.7237ZM289.107 74.5664C289.107 74.1269 288.96 73.7806 288.667 73.5276C288.375 73.2613 287.995 73.1281 287.528 73.1281H284.072V75.9846H287.528C288.008 75.9846 288.388 75.8581 288.667 75.6051C288.96 75.3387 289.107 74.9926 289.107 74.5664ZM287.628 80.7189C287.961 80.7189 288.261 80.6522 288.527 80.5191C288.807 80.3726 289.02 80.1795 289.166 79.9398C289.313 79.7001 289.387 79.4337 289.387 79.1408C289.387 78.8345 289.313 78.5615 289.166 78.3218C289.02 78.0688 288.807 77.8756 288.527 77.7425C288.261 77.6094 287.954 77.5427 287.609 77.5427H284.072V80.7189H287.628ZM303.074 71.5301H304.432V82.3169H303.014L302.834 80.6789C302.328 81.2782 301.709 81.7443 300.977 82.0772C300.257 82.3968 299.466 82.5566 298.6 82.5566C297.015 82.5566 295.69 82.024 294.624 80.9586C293.558 79.8799 293.026 78.5348 293.026 76.9235C293.026 75.3122 293.558 73.9738 294.624 72.9084C295.69 71.8297 297.015 71.2904 298.6 71.2904C299.479 71.2904 300.278 71.4569 300.997 71.7898C301.729 72.1227 302.348 72.5888 302.854 73.1881L303.074 71.5301ZM295.883 79.78C296.641 80.5391 297.594 80.9186 298.739 80.9186C299.885 80.9186 300.83 80.5391 301.576 79.78C302.321 79.0209 302.695 78.0688 302.695 76.9235C302.695 75.7782 302.321 74.8261 301.576 74.067C300.83 73.3079 299.885 72.9284 298.739 72.9284C297.594 72.9284 296.641 73.3146 295.883 74.087C295.137 74.846 294.764 75.7916 294.764 76.9235C294.764 78.0554 295.137 79.0077 295.883 79.78ZM315.284 71.5301H316.941V82.3169H315.284V77.5427H309.51V82.3169H307.852V71.5301H309.51V75.9447H315.284V71.5301ZM328.306 71.5301H329.246V82.3169H327.648V74.6063L321.355 82.3169H320.376V71.5301H321.994V79.1807L328.306 71.5301ZM342.773 76.9634C342.773 77.11 342.76 77.3163 342.734 77.5827H333.524C333.658 78.5815 334.07 79.3872 334.763 79.9997C335.456 80.599 336.307 80.8986 337.319 80.8986C338.066 80.8986 338.725 80.7388 339.297 80.4192C339.883 80.0863 340.35 79.6202 340.695 79.0209H342.473C342.021 80.1396 341.342 81.0118 340.436 81.6377C339.531 82.2503 338.491 82.5566 337.319 82.5566C335.762 82.5566 334.457 82.0173 333.404 80.9386C332.353 79.8599 331.826 78.5215 331.826 76.9235C331.826 75.3122 332.353 73.9738 333.404 72.9084C334.457 71.8297 335.762 71.2904 337.319 71.2904C338.932 71.2904 340.243 71.8364 341.255 72.9284C342.267 74.0203 342.773 75.3654 342.773 76.9634ZM337.319 72.9084C336.68 72.9084 336.094 73.0349 335.562 73.2879C335.043 73.5409 334.609 73.9072 334.264 74.3866C333.917 74.8527 333.684 75.3921 333.565 76.0046H341.055C340.936 75.3787 340.702 74.8328 340.356 74.3666C340.009 73.8872 339.577 73.5276 339.058 73.2879C338.539 73.0349 337.959 72.9084 337.319 72.9084Z" fill="#33393B"/>
</svg>
