<svg width="55" height="55" viewBox="0 0 55 55" fill="none" xmlns="http://www.w3.org/2000/svg">
<path d="M28.4554 1.52168L29.9074 4.4376L33.0158 4.9766C33.8756 5.12602 34.2175 6.22327 33.6061 6.87043L31.3951 9.21068L31.8645 12.4594C31.9946 13.3577 31.0991 14.036 30.319 13.6299L27.5002 12.1605L24.6815 13.6299C23.9014 14.036 23.0067 13.3586 23.136 12.4594L23.6053 9.21068L21.3943 6.87043C20.7829 6.22327 21.1248 5.12602 21.9846 4.9766L25.0931 4.4376L26.545 1.52168C26.6307 1.34085 26.766 1.18804 26.935 1.08104C27.1041 0.97404 27.3001 0.917236 27.5002 0.917236C27.7003 0.917236 27.8963 0.97404 28.0654 1.08104C28.2345 1.18804 28.3697 1.34085 28.4554 1.52168ZM11.9554 8.85502L13.4074 11.7709L16.5158 12.3099C17.3756 12.4594 17.7175 13.5566 17.1061 14.2038L14.8951 16.544L15.3645 19.7927C15.4946 20.691 14.599 21.3694 13.819 20.9633L11.0002 19.4939L8.18146 20.9633C7.40138 21.3694 6.50671 20.6919 6.63596 19.7927L7.1053 16.544L4.8943 14.2038C4.28288 13.5566 4.6248 12.4594 5.48463 12.3099L8.59305 11.7709L10.045 8.85502C10.1307 8.67418 10.2659 8.52138 10.435 8.41438C10.6041 8.30737 10.8001 8.25057 11.0002 8.25057C11.2003 8.25057 11.3963 8.30737 11.5654 8.41438C11.7345 8.52138 11.8697 8.67418 11.9554 8.85502ZM44.9554 8.85502L46.4074 11.7709L49.5158 12.3099C50.3756 12.4594 50.7176 13.5566 50.1061 14.2038L47.8951 16.544L48.3645 19.7927C48.4946 20.691 47.5991 21.3694 46.819 20.9633L44.0002 19.4939L41.1815 20.9633C40.4014 21.3694 39.5067 20.6919 39.636 19.7927L40.1053 16.544L37.8943 14.2038C37.2829 13.5566 37.6248 12.4594 38.4846 12.3099L41.5931 11.7709L43.0451 8.85502C43.1307 8.67418 43.266 8.52138 43.435 8.41438C43.6041 8.30737 43.8001 8.25057 44.0002 8.25057C44.2003 8.25057 44.3963 8.30737 44.5654 8.41438C44.7345 8.52138 44.8697 8.67418 44.9554 8.85502Z" fill="#F9C82B"/>
<path d="M17.7827 39.7833C15.2893 42.2766 13.7493 45.7049 13.7493 49.4999C13.7493 50.0041 13.3368 50.4166 12.8327 50.4166H1.83268C1.32852 50.4166 0.916016 50.0041 0.916016 49.4999C0.916016 42.1666 3.89518 35.5299 8.70768 30.7083H9.62435L17.416 38.4999L17.7827 39.7833Z" fill="#2DB4C9" fill-opacity="0.25"/>
<path d="M27.4987 22.9167L28.4154 23.8334V34.8334L27.4987 35.7501C23.7037 35.7501 20.2754 37.2901 17.782 39.7834L8.70703 30.7084C13.5287 25.8959 20.1654 22.9167 27.4987 22.9167Z" fill="#2DB4C9" fill-opacity="0.55"/>
<path d="M46.2917 30.7084L46.75 32.0834L38.5 40.3334L37.2167 39.7834C34.7233 37.2901 31.295 35.7501 27.5 35.7501V22.9167C34.8333 22.9167 41.47 25.8959 46.2917 30.7084Z" fill="#2DB4C9" fill-opacity="0.85"/>
<path d="M54.0835 49.4999C54.0835 50.0041 53.671 50.4166 53.1668 50.4166H42.1668C41.6626 50.4166 41.2501 50.0041 41.2501 49.4999C41.2501 45.7049 39.7101 42.2766 37.2168 39.7833L46.2918 30.7083C51.1043 35.5299 54.0835 42.1666 54.0835 49.4999Z" fill="#2DB4C9"/>
<path d="M30.9091 51.7551C35.3091 49.3718 42.23 45.2651 47.455 42.1393C48.4083 41.5618 47.7391 40.1226 46.6941 40.4801C40.9283 42.4601 33.3383 45.1093 28.6816 46.9518L30.9091 51.7551Z" fill="#485154"/>
<path d="M27.4987 54.0833C29.5237 54.0833 31.1654 52.4417 31.1654 50.4167C31.1654 48.3916 29.5237 46.75 27.4987 46.75C25.4737 46.75 23.832 48.3916 23.832 50.4167C23.832 52.4417 25.4737 54.0833 27.4987 54.0833Z" fill="#33393B"/>
</svg>
