<svg xmlns="http://www.w3.org/2000/svg">

	<symbol id="i-msg" viewBox="0 0 14 10">
		<path d="M7.79178 6.50459C7.4596 6.72604 7.07375 6.84311 6.67593 6.84311C6.27814 6.84311 5.89229 6.72604 5.56011 6.50459L0.0888994 2.857C0.0586962 2.83681 0.0290519 2.81579 0 2.79397L0 8.77094C0 9.45621 0.55611 10.0001 1.22913 10.0001H12.1227C12.808 10.0001 13.3518 9.44396 13.3518 8.77094V2.79395C13.3227 2.81582 13.293 2.83688 13.2628 2.85711L7.79178 6.50459Z" fill="#9CA5A9"/>
		<path d="M0.522862 2.20598L5.99408 5.85359C6.20119 5.99168 6.43855 6.0607 6.67591 6.0607C6.91329 6.0607 7.15068 5.99165 7.35779 5.85359L12.829 2.20598C13.1564 1.98784 13.3519 1.62275 13.3519 1.22871C13.3519 0.551182 12.8007 0 12.1232 0H1.22871C0.551209 2.60779e-05 6.46758e-07 0.551208 6.46758e-07 1.22936C-0.000202463 1.42265 0.0474364 1.61299 0.138668 1.7834C0.2299 1.9538 0.361889 2.09898 0.522862 2.20598Z" fill="#9CA5A9"/>
	</symbol>

	<symbol id="i-telegram" viewBox="0 0 13 12">
		<path d="M12.7455 0.219145C12.6426 0.119006 12.5165 0.049803 12.3802 0.0186436C12.2438 -0.0125157 12.1022 -0.00450784 11.9697 0.0418448L0.539077 4.0497C0.227558 4.15892 0.0163066 4.4547 0.00089445 4.80317C-0.0144923 5.15166 0.169717 5.46724 0.470191 5.60711L2.76564 6.67534L9.52389 2.6858C9.60374 2.6387 9.69682 2.6236 9.78624 2.64324C9.87566 2.66288 9.9555 2.71595 10.0113 2.79284C10.0671 2.86973 10.0951 2.96534 10.0903 3.06232C10.0855 3.1593 10.0481 3.25124 9.98507 3.32146L5.7718 8.0073L4.90771 11.3279L6.98165 9.67614L9.43411 11.8107C9.57696 11.9351 9.75155 12 9.92956 12C10.0158 11.9999 10.1015 11.9848 10.1831 11.9552C10.4412 11.8622 10.6326 11.6381 10.695 11.3559L12.9792 1.02565C13.0111 0.881253 13.0062 0.730439 12.9651 0.588701C12.9241 0.446964 12.8483 0.319411 12.7455 0.219145Z" fill="#9CA5A9"/>
		<path d="M3.36328 7.25125L4.15702 11.167L5.06124 7.6923C5.07804 7.62765 5.10965 7.56844 5.15323 7.51997L7.69304 4.69531L3.36328 7.25125Z" fill="#9CA5A9"/>
	</symbol>

	<symbol id="i-tel" viewBox="0 0 12 12">
		<path d="M11.614 8.64C11.5812 8.614 9.2 6.8976 8.5464 7.0208C8.2344 7.076 8.056 7.2888 7.698 7.7148C7.6404 7.7836 7.502 7.9484 7.3944 8.0656C7.16816 7.99181 6.94747 7.90198 6.734 7.7968C5.63221 7.2604 4.742 6.37019 4.2056 5.2684C4.10035 5.05497 4.01052 4.83427 3.9368 4.608C4.0544 4.5 4.2192 4.3616 4.2896 4.3024C4.7136 3.9464 4.9268 3.768 4.982 3.4552C5.0952 2.8072 3.38 0.4096 3.362 0.388C3.28418 0.276828 3.18262 0.184345 3.06467 0.117241C2.94672 0.0501375 2.81533 0.0100913 2.68 0C1.9848 0 0 2.5748 0 3.0084C0 3.0336 0.0364 5.5952 3.1952 8.8084C6.4052 11.9636 8.9664 12 8.9916 12C9.4256 12 12 10.0152 12 9.32C11.99 9.18515 11.9502 9.05419 11.8835 8.9366C11.8167 8.819 11.7247 8.7177 11.614 8.64Z" fill="#9CA5A9"/>
	</symbol>

	<symbol id="i-chek" viewBox="0 0 20 15">
  		<path fill-rule="evenodd" clip-rule="evenodd" d="M16.0465 0.00699571C15.9807 0.0205941 14.1032 2.03102 11.8743 4.47468C9.64547 6.91841 7.7568 8.93724 7.67727 8.96102C7.59782 8.9848 7.45515 8.96522 7.36023 8.91745C7.26524 8.86961 6.28371 8.0196 5.17889 7.02848C4.07415 6.03736 3.08952 5.19768 2.99083 5.16258C2.89222 5.12755 2.74358 5.12321 2.66059 5.15311C2.51218 5.20651 0.171939 7.52457 0.0373355 7.75148C-0.000540516 7.81534 -0.0114053 7.94306 0.013116 8.03526C0.0595179 8.20976 7.49559 14.9011 7.73529 14.9841C7.80757 15.009 7.93901 15.0041 8.02744 14.973C8.21734 14.9063 19.1516 2.94838 19.2547 2.69478C19.3032 2.5751 19.2951 2.47123 19.2283 2.35931C19.1007 2.14544 16.524 0.0727095 16.3226 0.0218756C16.2366 0.000160879 16.1123 -0.00653151 16.0465 0.00699571Z" fill="#2DB4C9"/>
	</symbol>

	<symbol id="i-logo" viewBox="0 0 20 20">
		<path fill-rule="evenodd" clip-rule="evenodd" d="M1.82818 20C2.31119 19.9999 2.77457 19.8086 3.11705 19.468C3.45953 19.1273 3.6533 18.665 3.65606 18.182V12.727C3.66452 11.763 4.05342 10.8413 4.73812 10.1626C5.42283 9.48389 6.3479 9.10307 7.31198 9.10307C8.27606 9.10307 9.20114 9.48389 9.88581 10.1626C10.5705 10.8413 10.9594 11.763 10.9679 12.727V18.182C10.9706 18.665 11.1644 19.1273 11.5069 19.468C11.8494 19.8086 12.3127 19.9999 12.7958 20C13.2788 19.9999 13.7422 19.8086 14.0847 19.468C14.4271 19.1273 14.6209 18.665 14.6237 18.182V12.727C14.6152 11.4313 14.2631 10.161 13.6031 9.04589C12.943 7.93079 11.9989 7.01087 10.867 6.38008C9.73505 5.74932 8.45601 5.43031 7.16049 5.45563C5.86494 5.48096 4.59933 5.84972 3.49297 6.52423C3.34683 6.20527 3.11229 5.93493 2.81716 5.74521C2.52207 5.55547 2.17871 5.45434 1.8279 5.4538C1.34485 5.45394 0.881493 5.64521 0.539011 5.98586C0.19653 6.32648 0.00275211 6.78882 0 7.27183V18.182C0.00275211 18.665 0.196569 19.1274 0.53911 19.4681C0.881654 19.8087 1.34508 19.9999 1.82818 20ZM7.31184 6.27611e-06C7.67105 0.00189923 8.02164 0.110147 8.31942 0.311094C8.61716 0.512037 8.84874 0.796677 8.98488 1.12909C9.12105 1.46151 9.1557 1.82679 9.08446 2.17887C9.01322 2.53096 8.83928 2.85406 8.5846 3.10741C8.32992 3.36073 8.00592 3.53296 7.65347 3.60237C7.30102 3.67175 6.93592 3.63518 6.60423 3.49727C6.27252 3.35938 5.98911 3.12631 5.78973 2.82752C5.59035 2.5287 5.48395 2.17752 5.48395 1.81831C5.48457 1.5789 5.53235 1.34196 5.62454 1.12101C5.71674 0.900063 5.85156 0.699437 6.0213 0.530592C6.19102 0.361747 6.39238 0.227986 6.61378 0.136947C6.83522 0.0459104 7.0724 -0.000621893 7.31184 6.27611e-06Z" fill="#2DB4C9"/>
		<path fill-rule="evenodd" clip-rule="evenodd" d="M1.81969 8.92739e-08C2.17935 -0.000112587 2.53096 0.106437 2.83006 0.306166C3.12916 0.505899 3.36228 0.789839 3.5 1.12208C3.63772 1.45433 3.6738 1.81994 3.60369 2.1727C3.53361 2.52547 3.36048 2.84949 3.1062 3.10386C2.85192 3.3582 2.52795 3.53144 2.17521 3.60163C1.82248 3.67186 1.45684 3.63586 1.12456 3.49825C0.792272 3.36065 0.508258 3.12761 0.308432 2.82856C0.10861 2.52955 0.00195315 2.17797 0.00195315 1.81831C0.00191653 1.57956 0.0489053 1.34315 0.140235 1.12256C0.231564 0.901972 0.365449 0.701532 0.534243 0.532687C0.703035 0.363842 0.903432 0.229896 1.12399 0.138499C1.34455 0.0470987 1.58095 3.6709e-05 1.81969 8.92739e-08ZM7.27265 20C7.7544 19.9985 8.21597 19.8065 8.55657 19.4657C8.89716 19.1251 9.08907 18.6634 9.0904 18.1817V12.727C9.08907 12.2453 8.89716 11.7837 8.55657 11.443C8.21597 11.1023 7.7544 10.9102 7.27265 10.9087C6.79093 10.9102 6.32935 11.1023 5.98876 11.443C5.64817 11.7837 5.45626 12.2453 5.4549 12.727V18.182C5.45631 18.6637 5.64828 19.1252 5.98885 19.4659C6.32944 19.8065 6.79096 19.9985 7.27265 20ZM18.1788 20C18.6605 19.9985 19.1219 19.8064 19.4625 19.4657C19.803 19.1251 19.9949 18.6636 19.9963 18.182V12.727C19.9966 10.7986 19.2308 8.94893 17.8674 7.58504C16.504 6.22116 14.6547 5.45473 12.7262 5.45437C13.8555 6.3007 14.772 7.3987 15.4028 8.66116C16.0336 9.92363 16.3613 11.3158 16.36 12.727V18.182C16.3614 18.6639 16.5535 19.1256 16.8943 19.4663C17.2352 19.8069 17.697 19.9988 18.1788 20Z" fill="#66747A"/>
	</symbol>

</svg>