<svg xmlns="http://www.w3.org/2000/svg">

	<symbol id="i-msg" viewBox="0 0 14 10">
		<path d="M7.79178 6.50459C7.4596 6.72604 7.07375 6.84311 6.67593 6.84311C6.27814 6.84311 5.89229 6.72604 5.56011 6.50459L0.0888994 2.857C0.0586962 2.83681 0.0290519 2.81579 0 2.79397L0 8.77094C0 9.45621 0.55611 10.0001 1.22913 10.0001H12.1227C12.808 10.0001 13.3518 9.44396 13.3518 8.77094V2.79395C13.3227 2.81582 13.293 2.83688 13.2628 2.85711L7.79178 6.50459Z" />
		<path d="M0.522862 2.20598L5.99408 5.85359C6.20119 5.99168 6.43855 6.0607 6.67591 6.0607C6.91329 6.0607 7.15068 5.99165 7.35779 5.85359L12.829 2.20598C13.1564 1.98784 13.3519 1.62275 13.3519 1.22871C13.3519 0.551182 12.8007 0 12.1232 0H1.22871C0.551209 2.60779e-05 6.46758e-07 0.551208 6.46758e-07 1.22936C-0.000202463 1.42265 0.0474364 1.61299 0.138668 1.7834C0.2299 1.9538 0.361889 2.09898 0.522862 2.20598Z" />
	</symbol>

	<symbol id="i-telegram" viewBox="0 0 13 12">
		<path d="M12.7455 0.219145C12.6426 0.119006 12.5165 0.049803 12.3802 0.0186436C12.2438 -0.0125157 12.1022 -0.00450784 11.9697 0.0418448L0.539077 4.0497C0.227558 4.15892 0.0163066 4.4547 0.00089445 4.80317C-0.0144923 5.15166 0.169717 5.46724 0.470191 5.60711L2.76564 6.67534L9.52389 2.6858C9.60374 2.6387 9.69682 2.6236 9.78624 2.64324C9.87566 2.66288 9.9555 2.71595 10.0113 2.79284C10.0671 2.86973 10.0951 2.96534 10.0903 3.06232C10.0855 3.1593 10.0481 3.25124 9.98507 3.32146L5.7718 8.0073L4.90771 11.3279L6.98165 9.67614L9.43411 11.8107C9.57696 11.9351 9.75155 12 9.92956 12C10.0158 11.9999 10.1015 11.9848 10.1831 11.9552C10.4412 11.8622 10.6326 11.6381 10.695 11.3559L12.9792 1.02565C13.0111 0.881253 13.0062 0.730439 12.9651 0.588701C12.9241 0.446964 12.8483 0.319411 12.7455 0.219145Z" />
		<path d="M3.36328 7.25125L4.15702 11.167L5.06124 7.6923C5.07804 7.62765 5.10965 7.56844 5.15323 7.51997L7.69304 4.69531L3.36328 7.25125Z" />
	</symbol>

	<symbol id="i-tel" viewBox="0 0 12 12">
		<path d="M11.614 8.64C11.5812 8.614 9.2 6.8976 8.5464 7.0208C8.2344 7.076 8.056 7.2888 7.698 7.7148C7.6404 7.7836 7.502 7.9484 7.3944 8.0656C7.16816 7.99181 6.94747 7.90198 6.734 7.7968C5.63221 7.2604 4.742 6.37019 4.2056 5.2684C4.10035 5.05497 4.01052 4.83427 3.9368 4.608C4.0544 4.5 4.2192 4.3616 4.2896 4.3024C4.7136 3.9464 4.9268 3.768 4.982 3.4552C5.0952 2.8072 3.38 0.4096 3.362 0.388C3.28418 0.276828 3.18262 0.184345 3.06467 0.117241C2.94672 0.0501375 2.81533 0.0100913 2.68 0C1.9848 0 0 2.5748 0 3.0084C0 3.0336 0.0364 5.5952 3.1952 8.8084C6.4052 11.9636 8.9664 12 8.9916 12C9.4256 12 12 10.0152 12 9.32C11.99 9.18515 11.9502 9.05419 11.8835 8.9366C11.8167 8.819 11.7247 8.7177 11.614 8.64Z" />
	</symbol>

	<symbol id="i-chek" viewBox="0 0 20 15">
  		<path fill-rule="evenodd" clip-rule="evenodd" d="M16.0465 0.00699571C15.9807 0.0205941 14.1032 2.03102 11.8743 4.47468C9.64547 6.91841 7.7568 8.93724 7.67727 8.96102C7.59782 8.9848 7.45515 8.96522 7.36023 8.91745C7.26524 8.86961 6.28371 8.0196 5.17889 7.02848C4.07415 6.03736 3.08952 5.19768 2.99083 5.16258C2.89222 5.12755 2.74358 5.12321 2.66059 5.15311C2.51218 5.20651 0.171939 7.52457 0.0373355 7.75148C-0.000540516 7.81534 -0.0114053 7.94306 0.013116 8.03526C0.0595179 8.20976 7.49559 14.9011 7.73529 14.9841C7.80757 15.009 7.93901 15.0041 8.02744 14.973C8.21734 14.9063 19.1516 2.94838 19.2547 2.69478C19.3032 2.5751 19.2951 2.47123 19.2283 2.35931C19.1007 2.14544 16.524 0.0727095 16.3226 0.0218756C16.2366 0.000160879 16.1123 -0.00653151 16.0465 0.00699571Z" />
	</symbol>

	<symbol id="i-logo" viewBox="0 0 20 20">
		<path fill-rule="evenodd" clip-rule="evenodd" d="M1.82818 20C2.31119 19.9999 2.77457 19.8086 3.11705 19.468C3.45953 19.1273 3.6533 18.665 3.65606 18.182V12.727C3.66452 11.763 4.05342 10.8413 4.73812 10.1626C5.42283 9.48389 6.3479 9.10307 7.31198 9.10307C8.27606 9.10307 9.20114 9.48389 9.88581 10.1626C10.5705 10.8413 10.9594 11.763 10.9679 12.727V18.182C10.9706 18.665 11.1644 19.1273 11.5069 19.468C11.8494 19.8086 12.3127 19.9999 12.7958 20C13.2788 19.9999 13.7422 19.8086 14.0847 19.468C14.4271 19.1273 14.6209 18.665 14.6237 18.182V12.727C14.6152 11.4313 14.2631 10.161 13.6031 9.04589C12.943 7.93079 11.9989 7.01087 10.867 6.38008C9.73505 5.74932 8.45601 5.43031 7.16049 5.45563C5.86494 5.48096 4.59933 5.84972 3.49297 6.52423C3.34683 6.20527 3.11229 5.93493 2.81716 5.74521C2.52207 5.55547 2.17871 5.45434 1.8279 5.4538C1.34485 5.45394 0.881493 5.64521 0.539011 5.98586C0.19653 6.32648 0.00275211 6.78882 0 7.27183V18.182C0.00275211 18.665 0.196569 19.1274 0.53911 19.4681C0.881654 19.8087 1.34508 19.9999 1.82818 20ZM7.31184 6.27611e-06C7.67105 0.00189923 8.02164 0.110147 8.31942 0.311094C8.61716 0.512037 8.84874 0.796677 8.98488 1.12909C9.12105 1.46151 9.1557 1.82679 9.08446 2.17887C9.01322 2.53096 8.83928 2.85406 8.5846 3.10741C8.32992 3.36073 8.00592 3.53296 7.65347 3.60237C7.30102 3.67175 6.93592 3.63518 6.60423 3.49727C6.27252 3.35938 5.98911 3.12631 5.78973 2.82752C5.59035 2.5287 5.48395 2.17752 5.48395 1.81831C5.48457 1.5789 5.53235 1.34196 5.62454 1.12101C5.71674 0.900063 5.85156 0.699437 6.0213 0.530592C6.19102 0.361747 6.39238 0.227986 6.61378 0.136947C6.83522 0.0459104 7.0724 -0.000621893 7.31184 6.27611e-06Z" fill="#2DB4C9"/>
		<path fill-rule="evenodd" clip-rule="evenodd" d="M1.81969 8.92739e-08C2.17935 -0.000112587 2.53096 0.106437 2.83006 0.306166C3.12916 0.505899 3.36228 0.789839 3.5 1.12208C3.63772 1.45433 3.6738 1.81994 3.60369 2.1727C3.53361 2.52547 3.36048 2.84949 3.1062 3.10386C2.85192 3.3582 2.52795 3.53144 2.17521 3.60163C1.82248 3.67186 1.45684 3.63586 1.12456 3.49825C0.792272 3.36065 0.508258 3.12761 0.308432 2.82856C0.10861 2.52955 0.00195315 2.17797 0.00195315 1.81831C0.00191653 1.57956 0.0489053 1.34315 0.140235 1.12256C0.231564 0.901972 0.365449 0.701532 0.534243 0.532687C0.703035 0.363842 0.903432 0.229896 1.12399 0.138499C1.34455 0.0470987 1.58095 3.6709e-05 1.81969 8.92739e-08ZM7.27265 20C7.7544 19.9985 8.21597 19.8065 8.55657 19.4657C8.89716 19.1251 9.08907 18.6634 9.0904 18.1817V12.727C9.08907 12.2453 8.89716 11.7837 8.55657 11.443C8.21597 11.1023 7.7544 10.9102 7.27265 10.9087C6.79093 10.9102 6.32935 11.1023 5.98876 11.443C5.64817 11.7837 5.45626 12.2453 5.4549 12.727V18.182C5.45631 18.6637 5.64828 19.1252 5.98885 19.4659C6.32944 19.8065 6.79096 19.9985 7.27265 20ZM18.1788 20C18.6605 19.9985 19.1219 19.8064 19.4625 19.4657C19.803 19.1251 19.9949 18.6636 19.9963 18.182V12.727C19.9966 10.7986 19.2308 8.94893 17.8674 7.58504C16.504 6.22116 14.6547 5.45473 12.7262 5.45437C13.8555 6.3007 14.772 7.3987 15.4028 8.66116C16.0336 9.92363 16.3613 11.3158 16.36 12.727V18.182C16.3614 18.6639 16.5535 19.1256 16.8943 19.4663C17.2352 19.8069 17.697 19.9988 18.1788 20Z" fill="#66747A"/>
	</symbol>

	<symbol id="i-play" viewBox="0 0 35 35">
  		<path d="M19.1417 16.085C20.4181 16.8509 21.0563 17.2338 21.0563 17.8C21.0563 18.3662 20.4181 18.7491 19.1417 19.515L17.029 20.7826C15.6861 21.5884 15.0146 21.9912 14.5073 21.704C14 21.4168 14 20.6337 14 19.0676L14 16.5324C14 14.9663 14 14.1832 14.5073 13.896C15.0146 13.6088 15.6861 14.0116 17.029 14.8174L19.1417 16.085Z" />
	</symbol>

	<symbol id="i-rec" viewBox="0 0 25 25">
  		<path fill-rule="evenodd" clip-rule="evenodd" d="M20.549 11.412C20.549 10.9805 20.8988 10.6307 21.3303 10.6307C21.7617 10.6307 22.1115 10.9805 22.1115 11.412C22.1115 14.0559 21.0305 16.4589 19.2888 18.2006C17.7642 19.7252 15.7328 20.7436 13.4767 20.9738V24.2188H11.5235V20.9738C9.26738 20.7436 7.23604 19.7252 5.71143 18.2006C3.96973 16.4589 2.88867 14.0559 2.88867 11.412C2.88867 10.9805 3.23848 10.6307 3.66992 10.6307C4.10142 10.6307 4.45117 10.9805 4.45117 11.412C4.45117 13.6246 5.35688 15.6367 6.81611 17.0959C8.27534 18.5551 10.2875 19.4608 12.5001 19.4608C14.7128 19.4608 16.7249 18.5551 18.1841 17.0959C19.6433 15.6367 20.549 13.6246 20.549 11.412ZM12.5001 0.78125C9.84268 0.78125 7.66841 2.95552 7.66841 5.61299V11.4119C7.66841 14.0694 9.84268 16.2437 12.5001 16.2437C15.1576 16.2437 17.3319 14.0694 17.3319 11.4119V5.61299C17.3319 2.95552 15.1576 0.78125 12.5001 0.78125Z" />
	</symbol>

	<symbol id="i-star" viewBox="0 0 20 20">
  		<path d="M19.5664 9.10294C19.7589 8.91671 19.895 8.68003 19.9592 8.42001C20.0233 8.16 20.013 7.88717 19.9293 7.63278C19.8475 7.37765 19.6954 7.15073 19.4906 6.97805C19.2857 6.80536 19.0364 6.69389 18.7711 6.65641L13.9285 5.95276C13.8269 5.938 13.7304 5.89876 13.6474 5.83841C13.5644 5.77806 13.4973 5.69841 13.4519 5.60635L11.2869 1.21868C11.1692 0.97806 10.9861 0.775454 10.7586 0.634077C10.5311 0.492701 10.2684 0.418274 10.0005 0.419322C9.73276 0.418349 9.47012 0.492812 9.24269 0.634184C9.01526 0.775556 8.83225 0.978121 8.7146 1.21868L6.5492 5.60675C6.45709 5.79377 6.27848 5.92313 6.07223 5.95316L1.22962 6.65681C0.964332 6.69429 0.714971 6.80576 0.510125 6.97845C0.305279 7.15114 0.153238 7.37805 0.0714312 7.63318C-0.0122765 7.88757 -0.0226385 8.1604 0.0415321 8.42041C0.105703 8.68043 0.241811 8.91711 0.434267 9.10334L3.93807 12.5186C4.08745 12.6644 4.15593 12.8743 4.12069 13.0793L3.2941 17.9019C3.2567 18.1068 3.26537 18.3175 3.31946 18.5186C3.37356 18.7198 3.47174 18.9064 3.60687 19.0649C4.03379 19.5723 4.77908 19.7269 5.375 19.4137L9.70579 17.1366C9.79706 17.09 9.89807 17.0657 10.0005 17.0657C10.103 17.0657 10.204 17.09 10.2953 17.1366L14.6265 19.4137C14.8318 19.5232 15.061 19.5806 15.2937 19.5807C15.717 19.5807 16.1183 19.3925 16.3942 19.0649C16.5294 18.9064 16.6276 18.7198 16.6817 18.5186C16.7358 18.3175 16.7444 18.1068 16.707 17.9019L15.88 13.0793C15.8627 12.9781 15.8703 12.8741 15.9021 12.7764C15.9339 12.6788 15.989 12.5903 16.0626 12.5186L19.5664 9.10294Z"/>
	</symbol>

	<symbol id="i-right" viewBox="0 0 15 14">
  		<path d="M0.901583 5.94707C0.962946 5.93712 1.02506 5.93252 1.08722 5.93332H11.6694L11.4387 5.826C11.2131 5.71924 11.0079 5.57396 10.8323 5.3967L7.86478 2.42919C7.47395 2.0561 7.40828 1.45592 7.70916 1.00714C8.05934 0.528912 8.73088 0.425076 9.20915 0.775254C9.24779 0.803558 9.2845 0.834415 9.31902 0.86762L14.6852 6.23383C15.1046 6.65273 15.105 7.33226 14.6861 7.75163L14.6852 7.75247L9.31902 13.1187C8.89931 13.5372 8.21978 13.5363 7.80122 13.1166C7.76828 13.0835 7.73753 13.0484 7.70916 13.0114C7.40828 12.5626 7.47395 11.9624 7.86478 11.5893L10.8269 8.61643C10.9844 8.45879 11.1654 8.32663 11.3635 8.2247L11.6855 8.07981H1.14628C0.598022 8.10017 0.117008 7.71719 0.0140104 7.17828C-0.0808706 6.5932 0.316498 6.04199 0.901583 5.94707Z" />
	</symbol>

	<symbol id="i-right-up" viewBox="0 0 13 13">
  		<path d="M13 1C13 0.447715 12.5523 2.00008e-07 12 -5.28728e-08L3 7.47917e-07C2.44771 4.10743e-07 2 0.447716 2 1C2 1.55228 2.44772 2 3 2L11 2L11 10C11 10.5523 11.4477 11 12 11C12.5523 11 13 10.5523 13 10L13 1ZM1.70711 12.7071L12.7071 1.70711L11.2929 0.292894L0.292893 11.2929L1.70711 12.7071Z"/>
	</symbol>

	<symbol id="i-prev" viewBox="0 0 16 16">
  		<path d="M0.292892 8.70711C-0.0976315 8.31658 -0.0976315 7.68342 0.292892 7.29289L6.65685 0.928932C7.04738 0.538408 7.68054 0.538408 8.07107 0.928932C8.46159 1.31946 8.46159 1.95262 8.07107 2.34315L2.41421 8L8.07107 13.6569C8.46159 14.0474 8.46159 14.6805 8.07107 15.0711C7.68054 15.4616 7.04738 15.4616 6.65685 15.0711L0.292892 8.70711ZM16 9H0.999999V7H16V9Z" />
	</symbol>

	<symbol id="i-next" viewBox="0 0 16 16">
  		<path d="M15.7071 7.29289C16.0976 7.68342 16.0976 8.31658 15.7071 8.70711L9.34315 15.0711C8.95262 15.4616 8.31946 15.4616 7.92893 15.0711C7.53841 14.6805 7.53841 14.0474 7.92893 13.6569L13.5858 8L7.92893 2.34315C7.53841 1.95262 7.53841 1.31946 7.92893 0.928932C8.31946 0.538408 8.95262 0.538408 9.34315 0.928932L15.7071 7.29289ZM0 7L15 7V9L0 9L0 7Z"/>
	</symbol>

	<symbol id="i-calc" viewBox="0 0 17 17">
  		<path d="M1.49414 8.00195H6.50781C7.33171 8.00195 8.00195 7.33171 8.00195 6.50781V1.49414C8.00195 0.670238 7.33171 0 6.50781 0H1.49414C0.670238 0 0 0.670238 0 1.49414V6.50781C0 7.33171 0.670238 8.00195 1.49414 8.00195ZM2.52344 3.51953H3.51953V2.52344C3.51953 2.24815 3.74229 2.02539 4.01758 2.02539C4.29287 2.02539 4.51562 2.24815 4.51562 2.52344V3.51953H5.51172C5.78701 3.51953 6.00977 3.74229 6.00977 4.01758C6.00977 4.29287 5.78701 4.51562 5.51172 4.51562H4.51562V5.51172C4.51562 5.78701 4.29287 6.00977 4.01758 6.00977C3.74229 6.00977 3.51953 5.78701 3.51953 5.51172V4.51562H2.52344C2.24815 4.51562 2.02539 4.29287 2.02539 4.01758C2.02539 3.74229 2.24815 3.51953 2.52344 3.51953ZM15.5059 0H10.4922C9.66829 0 8.99805 0.670238 8.99805 1.49414V6.50781C8.99805 7.33171 9.66829 8.00195 10.4922 8.00195H15.5059C16.3298 8.00195 17 7.33171 17 6.50781V1.49414C17 0.670238 16.3298 0 15.5059 0ZM14.5098 4.51562H11.4883C11.213 4.51562 10.9902 4.29287 10.9902 4.01758C10.9902 3.74229 11.213 3.51953 11.4883 3.51953H14.5098C14.7851 3.51953 15.0078 3.74229 15.0078 4.01758C15.0078 4.29287 14.7851 4.51562 14.5098 4.51562ZM15.5059 8.99805H10.4922C9.66829 8.99805 8.99805 9.66829 8.99805 10.4922V15.5059C8.99805 16.3298 9.66829 17 10.4922 17H15.5059C16.3298 17 17 16.3298 17 15.5059V10.4922C17 9.66829 16.3298 8.99805 15.5059 8.99805ZM14.5098 14.4766H11.4883C11.213 14.4766 10.9902 14.2538 10.9902 13.9785C10.9902 13.7032 11.213 13.4805 11.4883 13.4805H14.5098C14.7851 13.4805 15.0078 13.7032 15.0078 13.9785C15.0078 14.2538 14.7851 14.4766 14.5098 14.4766ZM14.5098 12.4844H11.4883C11.213 12.4844 10.9902 12.2616 10.9902 11.9863C10.9902 11.711 11.213 11.4883 11.4883 11.4883H14.5098C14.7851 11.4883 15.0078 11.711 15.0078 11.9863C15.0078 12.2616 14.7851 12.4844 14.5098 12.4844ZM8.00195 15.5059V10.4922C8.00195 9.66829 7.33171 8.99805 6.50781 8.99805H1.49414C0.670238 8.99805 0 9.66829 0 10.4922V15.5059C0 16.3298 0.670238 17 1.49414 17H6.50781C7.33171 17 8.00195 16.3298 8.00195 15.5059ZM5.42612 13.6867C5.62066 13.8812 5.62066 14.1964 5.42612 14.391C5.23158 14.5855 4.91639 14.5855 4.72185 14.391L4.01758 13.6867L3.31331 14.391C3.11877 14.5855 2.80357 14.5855 2.60904 14.391C2.4145 14.1964 2.4145 13.8812 2.60904 13.6867L3.31331 12.9824L2.60904 12.2782C2.4145 12.0836 2.4145 11.7684 2.60904 11.5739C2.80357 11.3793 3.11877 11.3793 3.31331 11.5739L4.01758 12.2782L4.72185 11.5739C4.91639 11.3793 5.23158 11.3793 5.42612 11.5739C5.62066 11.7684 5.62066 12.0836 5.42612 12.2782L4.72185 12.9824L5.42612 13.6867Z" />
	</symbol>

	<symbol id="i-eye" viewBox="0 0 25 17">
  		<path d="M12.5 16.58C7.8208 16.58 3.34062 13.1375 0.383303 9.56351C-0.127768 8.94583 -0.127768 8.04921 0.383303 7.43157C1.12684 6.53298 2.68502 4.79934 4.7665 3.28421C10.0091 -0.531812 14.9807 -0.539173 20.2334 3.28421C22.6788 5.06414 24.6166 7.39819 24.6166 7.43157C25.1277 8.04921 25.1277 8.94583 24.6166 9.56347C21.6597 13.137 17.1802 16.58 12.5 16.58ZM12.5 1.9546C7.31641 1.9546 2.82305 6.89794 1.5694 8.41302C1.54976 8.43681 1.53902 8.46669 1.53902 8.49754C1.53902 8.52839 1.54976 8.55828 1.5694 8.58207C2.8231 10.0971 7.31641 15.0405 12.5 15.0405C17.6835 15.0405 22.1769 10.0971 23.4305 8.58207C23.5036 8.49369 23.4257 8.41302 23.4305 8.41302C22.1768 6.89794 17.6835 1.9546 12.5 1.9546Z"/>
		<path d="M12.4996 13.886C9.52851 13.886 7.11133 11.4688 7.11133 8.49768C7.11133 5.52656 9.52851 3.10938 12.4996 3.10938C15.4708 3.10938 17.8879 5.52656 17.8879 8.49768C17.8879 11.4688 15.4708 13.886 12.4996 13.886ZM12.4996 4.64889C10.3774 4.64889 8.65084 6.37546 8.65084 8.49768C8.65084 10.6199 10.3774 12.3465 12.4996 12.3465C14.6219 12.3465 16.3484 10.6199 16.3484 8.49768C16.3484 6.37546 14.6219 4.64889 12.4996 4.64889Z"/>
	</symbol>

	<symbol id="i-car" viewBox="0 0 27 20">
		<path d="M26.0667 5.83333H22.9333L22.1 3.66667C21.2333 1.43333 19.0667 0 16.6667 0H10.0667C7.66667 0 5.53333 1.43333 4.63333 3.66667L3.76667 5.83333H0.633334C0.3 5.83333 0 6.1 0 6.46667C0 6.5 1.2666e-07 6.56667 0.0333335 6.6L0.333333 7.86667C0.4 8.13333 0.666667 8.33333 0.933333 8.33333H2.03333C1.3 8.96667 0.866667 9.86667 0.866667 10.8333V13.3333C0.866667 14.1333 1.16667 14.9 1.7 15.5333V18.3333C1.7 19.2667 2.43333 20 3.36667 20H5.03333C5.96667 20 6.7 19.2667 6.7 18.3333V16.6667H20.0333V18.3333C20.0333 19.2667 20.7667 20 21.7 20H23.3667C24.3 20 25.0333 19.2667 25.0333 18.3333V15.5C25.5667 14.9 25.8667 14.1333 25.8667 13.3V10.8C25.8667 9.83333 25.4333 8.93333 24.7 8.3H25.7333C26.0333 8.3 26.2667 8.1 26.3333 7.83333L26.6333 6.56667C26.7 6.23333 26.5 5.9 26.1667 5.8C26.1667 5.83333 26.1333 5.83333 26.0667 5.83333ZM7.73333 4.9C8.1 3.93333 9.03333 3.33333 10.0667 3.33333H16.6667C17.7 3.33333 18.6333 3.96667 19 4.9L20.0333 7.5H6.7L7.73333 4.9ZM5.03333 13.3333C4.16667 13.4 3.43333 12.7333 3.36667 11.8667V11.6667C3.3 10.8 3.96667 10.0667 4.83333 10H5.03333C6.03333 10 7.53333 11.5 7.53333 12.5C7.53333 13.5 6.03333 13.3333 5.03333 13.3333ZM21.7 13.3333C20.7 13.3333 19.2 13.5 19.2 12.5C19.2 11.5 20.7 10 21.7 10C22.5667 9.93333 23.3 10.6 23.3667 11.4667V11.6667C23.4333 12.5333 22.7667 13.2667 21.9 13.3333H21.7Z" />
	</symbol>

	<symbol id="i-case" viewBox="0 0 23 20">
		<path d="M3.37975 3.80453V20H1.57065C0.703294 20 0 19.2967 0 18.4294V5.37454C0 4.50718 0.703294 3.80453 1.57065 3.80453H3.37975ZM22.7992 5.37454V18.4294C22.7992 19.2967 22.0959 20 21.2285 20H19.4194V3.80453H21.2285C22.0959 3.80453 22.7992 4.50718 22.7992 5.37454ZM8.74412 3.42299L8.77273 1.91721C8.77782 1.63487 9.00865 1.40913 9.29098 1.40913H13.5801C13.87 1.40913 14.104 1.64695 14.0983 1.93756L14.0697 3.42363H15.4795V0.51825C15.4795 0.2321 15.2474 0 14.9612 0H7.83797C7.55182 0 7.31972 0.2321 7.31972 0.51825V3.42363H8.74412V3.42299ZM4.89126 3.80453V20H17.9086V3.80453H4.89126ZM7.53911 16.3036L8.09678 13.3435L10.3815 15.3065L7.53911 16.3036ZM7.87486 10.5462L7.03612 8.15592L10.5946 6.90703L11.4333 9.29734L7.87486 10.5462ZM16.3029 12.9098C15.9532 13.5158 14.9218 13.575 13.9991 13.0421C13.0764 12.5092 12.6122 11.5865 12.962 10.9805C13.3117 10.3745 14.3431 10.3154 15.2658 10.8483C16.1885 11.3812 16.6527 12.3038 16.3029 12.9098Z"/>
	</symbol>

	<symbol id="i-heart" viewBox="0 0 23 20">
		<path d="M22.5004 6.09469C22.3452 2.80412 19.805 0.0257032 16.576 0.00020508C14.2807 -0.0178194 12.4326 1.15334 11.2544 3.09998C10.0705 1.1441 8.21878 -0.0173798 5.93275 0.00020508C2.70284 0.0257032 0.16358 2.805 0.00839301 6.09469C-0.0685409 7.72789 0.38515 9.14655 1.29869 10.5511H5.53225L7.23095 6.30527L10.0173 11.8775L10.9014 10.5511H13.4455L15.211 6.13778L16.9765 10.5511H21.2109C22.1245 9.14743 22.5777 7.72921 22.5004 6.09469ZM15.211 9.68909L14.3388 11.8701H11.6074L9.85374 14.5003L7.3646 9.5216L6.42556 11.8701H2.28696C4.22525 14.168 7.31624 16.5925 11.2544 20C15.1978 16.5876 18.2866 14.1644 20.2222 11.8701H16.0832L15.211 9.68909Z" />
		<path d="M1.29865 10.5513C1.58352 10.9905 1.91368 11.4279 2.28692 11.8701H0V10.5513H1.29865ZM22.5087 10.5513V11.8701H20.2222C20.5954 11.4279 20.926 10.9905 21.2109 10.5513H22.5087Z"/>
	</symbol>

	<symbol id="i-estate" viewBox="0 0 22 20">
		<path d="M20 18H22V20H0V18H2V1C2 0.734784 2.10536 0.48043 2.29289 0.292893C2.48043 0.105357 2.73478 0 3 0H19C19.2652 0 19.5196 0.105357 19.7071 0.292893C19.8946 0.48043 20 0.734784 20 1V18ZM7 9V11H10V9H7ZM7 5V7H10V5H7ZM7 13V15H10V13H7ZM12 13V15H15V13H12ZM12 9V11H15V9H12ZM12 5V7H15V5H12Z" />
	</symbol>

	<symbol id="i-property" viewBox="0 0 23 25">
		<path d="M15.8221 25C15.8221 24.8682 15.8088 24.7395 15.7833 24.6151C15.6052 23.7449 14.8352 23.0903 13.9123 23.0903H10.4025C9.95721 23.0903 9.52021 22.97 9.13767 22.7421L0.660074 17.7173C0.540078 17.646 0.431856 17.5565 0.339257 17.4521C0.190935 17.2843 0.0866453 17.0823 0.035768 16.8642C0.00541039 16.7345 -0.00571626 16.601 0.00274463 16.468C0.017059 16.2457 0.0866215 16.0235 0.216455 15.8225L0.232025 15.7984C0.260905 15.7538 0.292673 15.7121 0.325696 15.672C0.335239 15.6603 0.345284 15.6492 0.355204 15.6381C0.381195 15.6085 0.408317 15.5804 0.436444 15.5537C0.446363 15.5443 0.456032 15.5345 0.466077 15.5253C0.503746 15.4915 0.542797 15.4596 0.583605 15.4306C0.589632 15.4263 0.596036 15.4228 0.602063 15.4186C0.682224 15.3638 0.768011 15.3177 0.857963 15.2811C0.868636 15.2768 0.878932 15.2719 0.889731 15.2678C0.935939 15.2503 0.983151 15.2354 1.03087 15.2231C1.04129 15.2204 1.05209 15.2185 1.06263 15.2162C1.15625 15.1943 1.25193 15.1826 1.34804 15.1811C1.3567 15.181 1.36537 15.1801 1.37403 15.1802C1.42137 15.1805 1.46896 15.1833 1.51642 15.1885C1.52873 15.1899 1.54091 15.1923 1.55321 15.1941C1.63954 15.2058 1.72447 15.2262 1.80673 15.255C1.82104 15.2599 1.83536 15.2644 1.84954 15.2698C1.89575 15.2875 1.94158 15.3071 1.98654 15.3302L7.25848 18.1246L7.41443 18.2072L9.02605 19.0614C9.63358 19.3744 10.3071 19.5377 10.9905 19.5377H14.0578C14.1203 19.5377 14.1821 19.5248 14.2393 19.4998C14.2966 19.4748 14.3481 19.4382 14.3905 19.3924C14.433 19.3465 14.4655 19.2924 14.4861 19.2334C14.5067 19.1744 14.5148 19.1118 14.5101 19.0495C14.4961 18.8618 14.3578 18.706 14.1791 18.6464L10.5228 17.4277C10.2627 17.341 10.04 17.1682 9.89137 16.9379C9.74275 16.7075 9.67713 16.4333 9.70535 16.1606C9.76838 15.5385 10.3212 15.0802 10.9466 15.0802C11.7251 15.0802 12.5017 15.1554 13.2657 15.3048L20.1983 16.6608C20.757 16.7696 21.2692 17.0463 21.6665 17.4538C22.1783 17.9775 22.4646 18.6807 22.4642 19.4129V24.9997H15.8221V25ZM3.27897 9.91194H4.26251V14.4054L7.81473 16.2882C7.81485 16.1834 7.82013 16.0777 7.83093 15.9712C7.99115 14.3897 9.33029 13.197 10.9461 13.197C11.8438 13.197 12.7458 13.2843 13.6267 13.4566L18.242 14.3593V9.91194H19.4691C19.656 9.91187 19.8386 9.85622 19.9938 9.75205C20.1489 9.64789 20.2696 9.49992 20.3404 9.32698C20.4112 9.15404 20.429 8.96395 20.3914 8.78088C20.3539 8.59782 20.2627 8.43005 20.1296 8.29894L11.9679 0.270361C11.7908 0.096167 11.552 -0.00100344 11.3036 7.81466e-06C11.0552 0.00101907 10.8172 0.10013 10.6416 0.27576L2.61298 8.30434C2.48128 8.43605 2.3916 8.60386 2.35527 8.78654C2.31894 8.96922 2.3376 9.15857 2.40889 9.33064C2.48018 9.50272 2.60089 9.64979 2.75576 9.75326C2.91063 9.85673 3.09271 9.91195 3.27897 9.91194Z" />
	</symbol>

	<symbol id="i-shield" viewBox="0 0 17 20">
		<path d="M16.4443 2.37824L8.59941 0.0247272C8.48956 -0.0082424 8.37246 -0.0082424 8.26261 0.0247272L0.417539 2.37824C0.29685 2.41446 0.19105 2.48861 0.115836 2.5897C0.0406224 2.6908 1.34187e-06 2.81345 0 2.93945V11.569C0 12.6914 0.454414 13.8404 1.35055 14.984C2.03496 15.8575 2.98187 16.7345 4.16488 17.5909C6.15226 19.0295 8.10925 19.912 8.1916 19.9488C8.2669 19.9826 8.34849 20 8.43101 20C8.51353 20 8.59512 19.9826 8.67043 19.9488C8.75273 19.912 10.7097 19.0295 12.6971 17.5909C13.8801 16.7345 14.8269 15.8575 15.5114 14.984C16.4075 13.8404 16.8619 12.6914 16.8619 11.569V2.93945C16.8619 2.81344 16.8213 2.69079 16.7461 2.58969C16.6708 2.48859 16.565 2.41444 16.4443 2.37824Z"/>
	</symbol>

	<symbol id="i-down" viewBox="0 0 9 6">
		<path d="M-9.84725e-08 2.25279L0 -3.93402e-07L4.5 3.85874L9 0L9 2.25279L4.65072 6L4.34928 6L-9.84725e-08 2.25279Z" />
	</symbol>


</svg>