<svg xmlns="http://www.w3.org/2000/svg">

	<symbol id="i-phone" viewBox="0 0 513.64 513.64">
		<path d="M499.66 376.96l-71.68-71.68c-25.6-25.6-69.12-15.359-79.36 17.92-7.68 23.041-33.28 35.841-56.32 30.72-51.2-12.8-120.32-79.36-133.12-133.12-7.68-23.041 7.68-48.641 30.72-56.32 33.28-10.24 43.52-53.76 17.92-79.36l-71.68-71.68c-20.48-17.92-51.2-17.92-69.12 0L18.38 62.08c-48.64 51.2 5.12 186.88 125.44 307.2s256 176.641 307.2 125.44l48.64-48.64c17.921-20.48 17.921-51.2 0-69.12z"/>
	</symbol>

	<symbol id="i-phone-call" viewBox="0 0 512.002 512">
		<path d="M297.742 142.492C286.301 131.152 280 116.062 280 100.004c0-16.063 6.3-31.149 17.742-42.488l52.18-51.72c7.848-7.773 20.508-7.718 28.285.13 7.773 7.844 7.719 20.508-.129 28.281l-45.195 44.797h69.07c60.606 0 109.95 49.305 110 109.906l.047 55.074c.008 11.047-8.938 20.008-19.984 20.016H492c-11.04 0-19.992-8.941-20-19.98l-.047-55.075c-.031-38.566-31.433-69.941-70-69.941h-71.09l47.215 46.793c7.848 7.777 7.902 20.437.129 28.285A19.943 19.943 0 0 1 364 200.004c-5.09 0-10.18-1.93-14.078-5.797zm190.98 218.02c-27.933-26.934-51.335-42.48-73.648-48.93-30.746-8.883-59.222-.805-84.64 24.02-.04.035-.075.074-.114.113l-27.066 26.86c-16.813-9.442-49.492-30.227-85.234-65.97l-2.633-2.628c-35.508-35.508-56.422-68.375-65.938-85.254l26.84-27.04c.035-.038.074-.078.113-.117 24.82-25.414 32.899-53.89 24.016-84.64-6.45-22.313-21.996-45.715-48.93-73.645C137.73 9.016 119.25.766 99.445.051 79.633-.668 60.613 6.234 45.863 19.473l-.574.515c-.266.242-.523.489-.777.739C15.152 50.086-.238 91.187.004 139.59c.41 82.222 45.601 176.25 120.879 251.527 14.195 14.195 30.332 28.246 47.949 41.754 8.77 6.723 21.32 5.063 28.043-3.703 6.719-8.766 5.063-21.32-3.703-28.04-16.234-12.444-31.04-25.331-44.004-38.292C81.172 294.84 40.363 211.309 40.004 139.39 39.816 102.117 51.03 71 72.434 49.375l.152-.137a35.968 35.968 0 0 1 50.105 1.809c51.786 53.7 48.032 79.05 25.149 102.515l-37.07 37.348a20 20 0 0 0-4.075 22.227c.942 2.113 23.711 52.425 80.418 109.133l2.63 2.628c56.698 56.7 107.01 79.465 109.124 80.407a20.002 20.002 0 0 0 22.227-4.075l37.351-37.074c23.465-22.879 48.813-26.629 102.512 25.149a35.98 35.98 0 0 1 1.813 50.105l-.141.156c-21.45 21.23-52.23 32.434-89.102 32.434-.304 0-.609 0-.914-.004-29.472-.144-63.597-8.223-98.687-23.36-10.14-4.374-21.914.301-26.285 10.442-4.375 10.145.3 21.91 10.441 26.285 40.563 17.496 79.027 26.457 114.332 26.633.375.004.75.004 1.125.004 47.914 0 88.606-15.379 117.738-44.508.25-.254.496-.515.739-.781l.515-.578c13.239-14.746 20.137-33.774 19.422-53.578-.719-19.805-8.969-38.285-23.23-52.043zm0 0"/>
	</symbol>

	<symbol id="i-padlock" viewBox="0 0 24 24">
		<path d="m18.75 24h-13.5c-1.24 0-2.25-1.009-2.25-2.25v-10.5c0-1.241 1.01-2.25 2.25-2.25h13.5c1.24 0 2.25 1.009 2.25 2.25v10.5c0 1.241-1.01 2.25-2.25 2.25zm-13.5-13.5c-.413 0-.75.336-.75.75v10.5c0 .414.337.75.75.75h13.5c.413 0 .75-.336.75-.75v-10.5c0-.414-.337-.75-.75-.75z"/><path d="m17.25 10.5c-.414 0-.75-.336-.75-.75v-3.75c0-2.481-2.019-4.5-4.5-4.5s-4.5 2.019-4.5 4.5v3.75c0 .414-.336.75-.75.75s-.75-.336-.75-.75v-3.75c0-3.309 2.691-6 6-6s6 2.691 6 6v3.75c0 .414-.336.75-.75.75z"/><path d="m12 17c-1.103 0-2-.897-2-2s.897-2 2-2 2 .897 2 2-.897 2-2 2zm0-2.5c-.275 0-.5.224-.5.5s.225.5.5.5.5-.224.5-.5-.225-.5-.5-.5z"/><path d="m12 20c-.414 0-.75-.336-.75-.75v-2.75c0-.414.336-.75.75-.75s.75.336.75.75v2.75c0 .414-.336.75-.75.75z"/>
	</symbol>

	<symbol id="i-arrow-left">
		<path fill-rule="evenodd"  stroke="rgb(176, 184, 197)" stroke-width="1px" stroke-linecap="butt" stroke-linejoin="miter" fill="none"
		d="M118.082,0.981 C104.414,51.992 51.982,82.264 0.971,68.596 "/>
		<path fill-rule="evenodd"  stroke="rgb(176, 184, 197)" stroke-width="1px" stroke-linecap="butt" stroke-linejoin="miter" fill="none"
 d="M0.500,68.018 L0.874,67.496 L15.500,76.982 L15.126,77.504 L0.500,68.018 Z"/>
	</symbol>

	<symbol id="i-doc" viewBox="0 0 507.769 507.769">
        <path d="m34.274 500.269h320.047c12.279 0 22.234-9.954 22.234-22.234v-448.301c0-12.279-9.954-22.234-22.234-22.234h-224.636c-9.686 0-18.976 3.848-25.825 10.697l-81.122 75.563c-6.849 6.849-10.697 16.139-10.697 25.826v358.45c0 12.279 9.954 22.233 22.233 22.233z"
            fill="#edf5fa"
        />
        <path d="m354.321 7.5h-30c12.279 0 22.234 9.954 22.234 22.234v448.301c0 12.279-9.954 22.234-22.234 22.234h30c12.279 0 22.234-9.954 22.234-22.234v-448.301c0-12.28-9.954-22.234-22.234-22.234z" fill="#d0e7f2" />
        <path d="m17.095 109.723h79.399c12.884 0 23.328-10.444 23.328-23.328v-74.7" fill="#b7d9eb" />
        <path d="m465.155 417.231-21.453 81.472c-.327.938-1.212 1.566-2.205 1.566-.993 0-1.878-.628-2.205-1.566l-21.453-81.472" fill="#fead8a" />
        <path d="m417.838 165.325h47.317v251.907h-47.317z" fill="#fedf30" />
        <path d="m435.155 165.325h30v251.906h-30z" fill="#fed402" />
        <path d="m417.838 169.341v-29.568c0-13.066 10.592-23.659 23.659-23.659 13.066 0 23.659 10.592 23.659 23.659v30.296" fill="#8ac9fe" />
        <path d="m441.496 116.114c-5.694 0-10.917 2.013-15 5.364 5.286 4.339 8.659 10.923 8.659 18.295v29.834l30 .462v-30.296c0-13.066-10.592-23.659-23.659-23.659z" fill="#01c0fa" />
        <circle cx="89.604" cy="257.594" r="10.832" />
        <circle cx="89.604" cy="311.078" r="10.832" />
        <circle cx="89.604" cy="364.562" r="10.832" />
        <path
            d="m354.321 0h-224.636c-11.712 0-22.727 4.543-31.03 12.796l-81.029 75.476c-.065.061-.129.122-.191.185-8.315 8.315-12.894 19.37-12.894 31.129v115.649c0 4.142 3.358 7.5 7.5 7.5s7.5-3.358 7.5-7.5v-115.649c0-.793.039-1.581.102-2.363h76.851c16.999 0 30.829-13.829 30.829-30.828v-71.293c.782-.063 1.569-.102 2.363-.102h224.636c8.124 0 14.733 6.61 14.733 14.734v448.302c0 8.124-6.609 14.734-14.733 14.734h-320.048c-8.125 0-14.734-6.61-14.734-14.734v-212.8c0-4.142-3.358-7.5-7.5-7.5s-7.5 3.358-7.5 7.5v212.8c0 16.395 13.338 29.734 29.734 29.734h320.047c16.395 0 29.733-13.339 29.733-29.734v-448.302c.001-16.396-13.338-29.734-29.733-29.734zm-241.999 86.395c0 8.728-7.101 15.828-15.829 15.828h-71.187c.805-1.073 1.685-2.101 2.646-3.07l81.02-75.468c.065-.061.129-.122.191-.185.996-.996 2.053-1.908 3.16-2.738v65.633z"
        />
        <path d="m309.824 250.094h-173.993c-4.142 0-7.5 3.358-7.5 7.5s3.358 7.5 7.5 7.5h173.993c4.142 0 7.5-3.358 7.5-7.5s-3.358-7.5-7.5-7.5z" />
        <path d="m309.824 303.578h-173.993c-4.142 0-7.5 3.358-7.5 7.5s3.358 7.5 7.5 7.5h173.993c4.142 0 7.5-3.358 7.5-7.5s-3.358-7.5-7.5-7.5z" />
        <path d="m309.824 357.062h-173.993c-4.142 0-7.5 3.358-7.5 7.5s3.358 7.5 7.5 7.5h173.993c4.142 0 7.5-3.358 7.5-7.5s-3.358-7.5-7.5-7.5z" />
        <path d="m171.918 175.694h-88.777c-4.142 0-7.5 3.358-7.5 7.5s3.358 7.5 7.5 7.5h88.777c4.142 0 7.5-3.358 7.5-7.5s-3.358-7.5-7.5-7.5z" />
        <path
            d="m495.729 157.825h-23.073v-18.052c0-17.181-13.978-31.159-31.159-31.159s-31.159 13.978-31.159 31.159v101.255c0 4.142 3.358 7.5 7.5 7.5s7.5-3.358 7.5-7.5v-68.204h32.317v236.906h-32.317v-138.702c0-4.142-3.358-7.5-7.5-7.5s-7.5 3.358-7.5 7.5v146.203c0 .054.007.106.008.16.003.149.01.298.023.448.009.118.022.234.037.35.016.121.033.241.055.362.026.143.056.284.089.424.013.055.02.11.035.165l21.453 81.472c.05.19.108.378.172.563 1.377 3.944 5.109 6.593 9.286 6.593 4.179 0 7.911-2.651 9.287-6.596.064-.184.122-.371.171-.56l21.454-81.472c.015-.055.022-.11.035-.165.034-.14.064-.281.089-.424.022-.121.04-.241.055-.362.015-.116.028-.232.037-.35.012-.15.019-.299.023-.448.001-.054.008-.106.008-.16v-244.406h15.573v108.253c0 4.142 3.358 7.5 7.5 7.5s7.5-3.358 7.5-7.5v-115.753c.001-4.142-3.357-7.5-7.499-7.5zm-70.391 0v-18.052c0-8.91 7.249-16.159 16.159-16.159s16.159 7.249 16.159 16.159v18.052zm16.159 319.8-13.928-52.894h27.856z"
        />
        <path d="" style="fill: none; stroke: #000; stroke-width: 15; stroke-linecap: round; stroke-linejoin: round; stroke-miterlimit: 10;" />
	</symbol>
</svg>