<svg width="142" height="43" fill="none" xmlns="http://www.w3.org/2000/svg"><path d="M60.365 25.029c0 1.518-.565 2.68-1.694 3.486-1.121.8-2.771 1.2-4.949 1.2-1.987 0-3.545-.353-4.674-1.057-1.129-.704-1.855-1.77-2.177-3.2l3.134-.517c.213.821.627 1.419 1.243 1.793.616.366 1.47.55 2.562.55 2.266 0 3.399-.69 3.399-2.068 0-.44-.132-.803-.396-1.089-.257-.286-.623-.524-1.1-.715-.47-.19-1.375-.421-2.717-.693-1.158-.27-1.965-.487-2.42-.649a7.369 7.369 0 0 1-1.23-.582 3.72 3.72 0 0 1-.936-.814 3.6 3.6 0 0 1-.605-1.111 4.696 4.696 0 0 1-.209-1.463c0-1.4.525-2.47 1.573-3.211 1.056-.748 2.588-1.122 4.597-1.122 1.921 0 3.362.3 4.323.902.967.601 1.59 1.595 1.87 2.98l-3.146.43c-.162-.668-.492-1.17-.99-1.508-.491-.337-1.199-.505-2.123-.505-1.965 0-2.947.616-2.947 1.847 0 .404.102.733.308.99.212.257.524.477.935.66.41.176 1.242.4 2.496.67 1.489.316 2.552.61 3.19.88.645.265 1.154.576 1.528.936.374.352.66.777.858 1.275.198.491.297 1.06.297 1.705zm9.602 4.465-3.179-5.389-1.33.924v4.465h-3.09v-16.32h3.09v9.347l4.245-4.927h3.321l-4.18 4.641 4.5 7.26h-3.377zm4.487-14.044v-2.277h3.09v2.277h-3.09zm0 14.044v-11.9h3.09v11.9h-3.09zm5.819 0v-16.32h3.09v16.32h-3.09zm5.818 0v-16.32h3.09v16.32h-3.09zm8.997-12.988V21.3h7.929v2.507h-7.93v5.686h-3.244V13.998h11.427v2.508h-8.182zM110.1 29.714c-1.789 0-3.163-.528-4.124-1.584-.96-1.063-1.441-2.61-1.441-4.64 0-1.966.488-3.476 1.463-4.532.975-1.056 2.357-1.584 4.146-1.584 1.709 0 3.014.569 3.916 1.705.902 1.13 1.352 2.786 1.352 4.971v.088h-7.632c0 1.159.212 2.035.638 2.629.432.586 1.045.88 1.836.88 1.093 0 1.782-.473 2.068-1.42l2.914.254c-.843 2.155-2.555 3.233-5.136 3.233zm0-10.393c-.725 0-1.286.253-1.682.759-.389.506-.594 1.213-.616 2.123h4.619c-.059-.961-.29-1.68-.693-2.156-.403-.484-.946-.726-1.628-.726zm12.088 10.393c-1.789 0-3.164-.528-4.125-1.584-.96-1.063-1.44-2.61-1.44-4.64 0-1.966.487-3.476 1.462-4.532.976-1.056 2.358-1.584 4.147-1.584 1.708 0 3.013.569 3.915 1.705.902 1.13 1.353 2.786 1.353 4.971v.088h-7.633c0 1.159.213 2.035.638 2.629.433.586 1.045.88 1.837.88 1.092 0 1.781-.473 2.067-1.42l2.915.254c-.844 2.155-2.556 3.233-5.136 3.233zm0-10.393c-.726 0-1.287.253-1.683.759-.389.506-.594 1.213-.616 2.123h4.619c-.058-.961-.289-1.68-.693-2.156-.403-.484-.946-.726-1.627-.726zm14.924 10.173c-.029-.11-.066-.385-.11-.825a14.394 14.394 0 0 1-.055-1.11h-.044c-.667 1.437-1.935 2.155-3.805 2.155-1.386 0-2.456-.539-3.211-1.617-.756-1.085-1.133-2.599-1.133-4.542 0-1.972.396-3.493 1.188-4.564.799-1.078 1.928-1.617 3.387-1.617.843 0 1.569.176 2.178.528.615.352 1.088.877 1.418 1.573h.022l-.022-1.958v-4.344h3.091V26.9c0 .733.029 1.598.088 2.595h-2.992zm-.143-6.016c0-1.283-.216-2.269-.649-2.958-.425-.697-1.055-1.045-1.891-1.045-.829 0-1.445.337-1.848 1.012-.403.667-.605 1.69-.605 3.068 0 2.698.81 4.047 2.431 4.047.814 0 1.444-.355 1.891-1.066.448-.719.671-1.738.671-3.058z" fill="#F6F7FC"/><path d="M19.172 24.605c0 1.3-.414 2.306-1.24 3.02-.827.712-2.006 1.07-3.54 1.07-1.426 0-2.566-.32-3.419-.96-.846-.647-1.35-1.6-1.51-2.86l1.86-.17c.24 1.666 1.263 2.5 3.07 2.5.906 0 1.616-.224 2.13-.67.519-.447.779-1.11.779-1.99 0-.767-.297-1.363-.89-1.79-.586-.433-1.436-.65-2.55-.65h-1.02v-1.56h.98c.987 0 1.75-.213 2.29-.64.547-.433.82-1.03.82-1.789 0-.753-.223-1.346-.67-1.78-.44-.44-1.096-.66-1.97-.66-.793 0-1.436.204-1.93.61-.486.407-.769.98-.849 1.72l-1.81-.14c.134-1.153.61-2.053 1.43-2.7.827-.646 1.887-.97 3.18-.97 1.413 0 2.51.33 3.289.99.787.654 1.18 1.567 1.18 2.74 0 .9-.254 1.633-.76 2.2-.5.56-1.23.94-2.19 1.14v.04c1.053.113 1.873.466 2.46 1.06.586.593.88 1.339.88 2.239zm10.374-.72c0 1.486-.404 2.66-1.21 3.52-.807.86-1.92 1.29-3.34 1.29-1.586 0-2.799-.59-3.639-1.77-.84-1.18-1.26-2.897-1.26-5.15 0-2.44.437-4.312 1.31-5.619.873-1.306 2.116-1.96 3.73-1.96 2.126 0 3.466.957 4.019 2.87l-1.72.31c-.353-1.146-1.126-1.72-2.32-1.72-1.026 0-1.822.48-2.389 1.44-.56.953-.84 2.337-.84 4.15a3.28 3.28 0 0 1 1.38-1.38c.593-.32 1.273-.48 2.04-.48 1.3 0 2.33.406 3.089 1.22.767.813 1.15 1.906 1.15 3.279zm-1.83.08c0-1.02-.25-1.806-.75-2.36-.5-.553-1.196-.83-2.09-.83-.84 0-1.52.247-2.039.74-.513.487-.77 1.16-.77 2.02 0 1.087.267 1.976.8 2.67.54.693 1.23 1.04 2.07 1.04.866 0 1.546-.29 2.04-.87.492-.587.74-1.39.74-2.41zm12.244-.06c0 1.486-.444 2.656-1.33 3.51-.88.852-2.103 1.28-3.67 1.28-1.312 0-2.372-.288-3.179-.86-.806-.574-1.316-1.404-1.53-2.49l1.82-.21c.38 1.393 1.357 2.09 2.93 2.09.966 0 1.723-.29 2.27-.87.546-.587.82-1.39.82-2.41 0-.887-.278-1.603-.83-2.15-.547-.546-1.287-.82-2.22-.82-.487 0-.94.077-1.36.23-.42.154-.84.414-1.26.78h-1.76l.47-7.578h8.009v1.53H32.77l-.27 4.469c.78-.6 1.75-.9 2.91-.9 1.386 0 2.49.406 3.309 1.22.827.813 1.24 1.873 1.24 3.179z" fill="#fff"/><rect x="42.901" y="1.28" width="1.277" height="41.464" rx=".638" fill="#E2EDF6"/><path d="M37.035 33.982c.464.351.557 1.013.184 1.46a21.065 21.065 0 0 1-10.022 6.645 21.021 21.021 0 0 1-13.018-.248 21.072 21.072 0 0 1-10.387-7.87 21.15 21.15 0 0 1 .47-24.818 21.068 21.068 0 0 1 10.676-7.47 21.021 21.021 0 0 1 13.018.248 21.07 21.07 0 0 1 9.765 7.021c.355.46.237 1.118-.24 1.451-.477.335-1.134.215-1.493-.244a18.962 18.962 0 0 0-8.72-6.233 18.92 18.92 0 0 0-11.717-.223 18.96 18.96 0 0 0-9.609 6.723 19.035 19.035 0 0 0-.423 22.337 18.965 18.965 0 0 0 9.348 7.083 18.919 18.919 0 0 0 11.717.222 18.957 18.957 0 0 0 8.95-5.897c.376-.445 1.036-.54 1.501-.187z" fill="#F6F7FC"/><path d="M34.371 31.963c.473.358.569 1.033.184 1.484a17.745 17.745 0 0 1-8.323 5.456 17.71 17.71 0 0 1-10.967-.208 17.752 17.752 0 0 1-8.75-6.63 17.818 17.818 0 0 1 .395-20.908 17.748 17.748 0 0 1 8.995-6.292 17.71 17.71 0 0 1 10.967.208 17.749 17.749 0 0 1 8.11 5.769c.368.465.246 1.136-.239 1.475-.487.341-1.155.219-1.528-.244a15.6 15.6 0 0 0-7.046-4.966 15.566 15.566 0 0 0-9.64-.183 15.6 15.6 0 0 0-7.906 5.531 15.66 15.66 0 0 0-.347 18.378 15.605 15.605 0 0 0 7.69 5.828 15.566 15.566 0 0 0 9.64.183 15.597 15.597 0 0 0 7.23-4.694c.389-.449 1.062-.546 1.535-.187z" fill="url(#a)"/><path fill-rule="evenodd" clip-rule="evenodd" d="M75.613 7.943V1.01c0-.679-.384-1.137-.868-.979-.71.233-1.432.535-2.151.906-1.134.584-1.747 1.808-1.747 3.084v2.977c0 1.854 2.137 3 3.898 2.423.484-.158.868-.8.868-1.478zM66.175 9.42c1.764.579 3.902-.57 3.902-2.426V4.026c0-1.278-.616-2.505-1.753-3.09A14.74 14.74 0 0 0 66.175.03c-.484-.158-.868.3-.868.98v6.932c0 .679.384 1.32.868 1.478zm13.104.995V3.483c0-.679-.799-.386-.799.293v5.351c0 1.001-.86 1.81-1.955 1.841a14.23 14.23 0 0 0-1.889.168 19.007 19.007 0 0 1 3.169.218c.821.126 1.478-.26 1.474-.938zm-13.388-.408c.268.09.153.463-.128.43a16.31 16.31 0 0 0-1.439-.101c-.676-.02-1.213-.53-1.213-1.21V2.195c0-.68.537-1.267 1.213-1.248l.11.003.052.001c.03.001.053.029.053.06v6.932c0 .94.569 1.81 1.352 2.066zm.312 1.128a18.772 18.772 0 0 0-3.18.218c-.826.126-1.48-.26-1.48-.938V3.483c0-.68.8-.386.8.293v5.351c0 1.001.86 1.81 1.959 1.841.633.016 1.267.07 1.9.168zm11.51-8.941v6.932c0 .68-.537 1.19-1.213 1.21-.447.01-.897.04-1.35.09-.275.031-.385-.331-.121-.419.795-.262 1.352-1.111 1.352-2.065V1.01c0-.03.025-.06.056-.061h.001L76.5.947c.676-.019 1.213.569 1.213 1.248z" fill="url(#b)"/><defs><radialGradient id="a" cx="0" cy="0" r="1" gradientUnits="userSpaceOnUse" gradientTransform="matrix(-35.4955 0 0 -35.5774 38.816 21.756)"><stop offset=".538" stop-color="#F49E64"/><stop offset="1" stop-color="#C65329"/></radialGradient><radialGradient id="b" cx="0" cy="0" r="1" gradientUnits="userSpaceOnUse" gradientTransform="matrix(-17.7352 0 0 -11.3776 79.28 5.648)"><stop offset=".538" stop-color="#F49E64"/><stop offset="1" stop-color="#C65329"/></radialGradient></defs></svg>