<svg xmlns="http://www.w3.org/2000/svg">

	<symbol id="i-heart" viewBox="0 0 22 20">
		<path d="M15.453.25c3.816 0 6.38 3.632 6.38 7.02 0 6.862-10.641 12.48-10.834 12.48-.192 0-10.833-5.618-10.833-12.48C.166 3.882 2.73.25 6.546.25c2.19 0 3.623 1.11 4.453 2.084C11.83 1.36 13.262.25 15.453.25z" />
	</symbol>

	<symbol id="i-user" viewBox="0 0 20 20">
		<path d="M9.999 13.25c-3.434 0-6.488 1.658-8.433 4.232-.418.553-.627.83-.62 1.204.005.29.186.654.414.833.294.231.702.231 1.519.231h14.24c.817 0 1.225 0 1.52-.231.227-.179.408-.543.414-.832.006-.375-.203-.652-.621-1.206-1.945-2.573-4.999-4.231-8.433-4.231zM9.999 10a4.875 4.875 0 1 0 0-9.75 4.875 4.875 0 0 0 0 9.75z" />
	</symbol>

	<symbol id="i-cart" viewBox="0 0 26 26">
		<path d="M18.797 17.875h-9.27c-1.073 0-1.61 0-2.04-.198-.38-.174-.7-.454-.925-.807-.254-.4-.326-.931-.47-1.994L4.951 6.5h17.833c.36 0 .54 0 .666.074.11.064.195.166.238.287.049.138.015.315-.052.668l-1.434 7.528c-.191 1.003-.287 1.505-.545 1.88a2.167 2.167 0 0 1-.912.754c-.417.184-.928.184-1.949.184zM9.75 23.833a1.083 1.083 0 1 0 0-2.166 1.083 1.083 0 0 0 0 2.166zM18.416 23.833a1.083 1.083 0 1 0 0-2.166 1.083 1.083 0 0 0 0 2.166z" /><path d="M2.166 2.167h1.415c.267 0 .4 0 .507.049a.542.542 0 0 1 .23.2c.064.1.083.231.121.495l.513 3.59m0 0 1.14 8.375c.144 1.063.216 1.594.47 1.994.224.353.545.633.925.807.43.198.967.198 2.04.198h9.27c1.021 0 1.532 0 1.95-.184.367-.162.683-.423.91-.754.26-.375.355-.877.546-1.88l1.434-7.528c.067-.353.1-.53.052-.668a.542.542 0 0 0-.238-.287c-.127-.074-.306-.074-.666-.074H4.952zm5.88 16.25a1.083 1.083 0 1 1-2.166 0 1.083 1.083 0 0 1 2.167 0zm8.667 0a1.083 1.083 0 1 1-2.166 0 1.083 1.083 0 0 1 2.166 0z" stroke-width="2" stroke-linecap="round" stroke-linejoin="round"/>
	</symbol>

	<symbol id="i-star" viewBox="0 0 12 12">
		<path d="m5.76.182 1.4 3.472 3.582.323c.248.023.349.347.16.519L8.185 6.964 9 10.636c.057.255-.207.456-.42.32L5.5 9.01l-3.08 1.947c-.213.135-.476-.066-.42-.32l.815-3.672L.098 4.495C-.091 4.324.01 4 .259 3.976l3.582-.323L5.24.181a.277.277 0 0 1 .52 0z" fill="#FCA95D" stroke="#FCA95D" stroke-width=".462"/>
	</symbol>

</svg>