<?xml version="1.0" standalone="no"?>
<!DOCTYPE svg PUBLIC "-//W3C//DTD SVG 1.1//EN" "http://www.w3.org/Graphics/SVG/1.1/DTD/svg11.dtd" >
<svg>
<metadata>
Created by FontForge 20090622 at Sun Dec 23 19:51:10 2018
 By deploy user
Copyright (C) 1998; Type Market Ltd. Russia, Moscow, 119136, Box 20; phone:(095)1427712
</metadata>
<defs>
<font id="HeinrichScript" horiz-adv-x="497" >
  <font-face 
    font-family="HeinrichScript"
    font-weight="400"
    font-stretch="normal"
    units-per-em="1000"
    panose-1="2 0 5 5 2 0 0 2 0 4"
    ascent="800"
    descent="-200"
    x-height="390"
    cap-height="750"
    bbox="-504 -360 1282 932"
    underline-thickness="51"
    underline-position="-149"
    unicode-range="U+0020-U+2265"
  />
<missing-glyph horiz-adv-x="500" 
 />
    <glyph glyph-name=".notdef" horiz-adv-x="500" 
 />
    <glyph glyph-name="exclam" unicode="!" horiz-adv-x="345" 
d="M77 80q3 0 8 -7t9.5 -16.5t8 -18t3.5 -11.5q0 -5 -5 -12t-11.5 -13.5t-13.5 -11.5t-11 -5q-5 0 -10 6t-9 14t-7 16t-3 13q0 4 5 12t12 15.5t14 13t10 5.5zM130 183q-2 -5 -5 -11t-8 -13q-15 -20 -37 -21q-11 0 -11 8t11 37l158 438q8 20 11 35t4 24q0 9 -10 9
q-6 0 -21 -9t-18 -9q-11 0 -11 11q0 13 48 41q48 27 68 27q16 0 16 -14q0 -9 -9 -34z" />
    <glyph glyph-name="quotedbl" unicode="&#x22;" horiz-adv-x="325" 
d="M153 427q-13 -25 -36 -25q-12 0 -12 11q0 12 5 27l45 126q7 20 15 29.5t16 9.5h34q17 0 17 -15q0 -11 -12 -33zM293 427q-13 -25 -36 -25q-12 0 -12 11q0 12 5 27l45 126q7 20 15 29.5t16 9.5h34q17 0 17 -15q0 -11 -12 -33z" />
    <glyph glyph-name="numbersign" unicode="#" horiz-adv-x="535" 
d="M163 207l-67 -194q-6 -19 -40 -21q-14 0 -14 12q0 7 6 25l62 178h-67q-25 0 -25 17q0 33 25 33h85l41 118h-70q-25 0 -25 17q0 33 25 33h87l55 158q7 22 40 22q12 0 14 -12q0 -7 -6 -25l-50 -143h125l55 158q7 22 40 22q14 0 14 -12q0 -7 -6 -25l-50 -143h77
q14 0 18.5 -3t4.5 -14q0 -9 -7.5 -21t-17.5 -12h-92l-41 -118h80q14 0 18 -3t4 -14q0 -9 -7.5 -21t-17.5 -12h-95l-67 -194q-8 -20 -40 -21q-13 0 -14 12q0 7 6 25l62 178h-125zM346 375h-124l-41 -118h124z" />
    <glyph glyph-name="dollar" unicode="$" horiz-adv-x="524" 
d="M377 597q42 -13 44 -13q4 0 14 10q9 9 18 11q25 0 25 -90q0 -80 -17 -81q-12 0 -16 6q-4 5 -4 29q0 36 -25 70q-30 41 -79 41q-72 0 -72 -67q0 -36 45 -87q81 -90 83 -92q44 -62 44 -125q0 -90 -67 -154q-70 -67 -179 -67q-10 0 -25 1t-37 4l-49 -119q-14 -32 -25 -32
q-13 0 -13 12q0 8 9 32l46 120q-38 14 -64 55q-27 40 -27 82q0 54 24 92q18 29 37 29q25 0 25 -16q0 3 -17 -34q-15 -34 -17 -79q0 -43 32 -77q37 -38 108 -39q78 0 128 45q50 48 52 136q0 44 -45 94l-40.5 44l-41.5 44q-42 56 -44 116q0 40 30 72q32 33 84 35h24
q2 0 57 137q10 25 20 25q16 0 17 -16q0 -2 -7 -19l-55 -135v0z" />
    <glyph glyph-name="percent" unicode="%" horiz-adv-x="693" 
d="M511 605q15 0 15 -14q0 -11 -11 -31l-331 -573q-14 -24 -28 -24q-16 0 -16 13q0 10 12 31l331 573q14 25 28 25zM228 605q25 0 44.5 -10.5t33 -27.5t20.5 -39.5t7 -47.5q0 -41 -14.5 -84t-40 -77.5t-60.5 -56.5t-75 -22q-24 0 -43.5 10.5t-32.5 28t-20 39t-7 44.5
q0 40 14.5 83t40 78.5t60 58.5t73.5 23zM217 567q-30 0 -53 -18t-38.5 -46t-24 -61.5t-8.5 -63.5q0 -100 65 -100q30 0 53 18t38.5 46.5t23 62t7.5 65.5q0 16 -3.5 33.5t-11 31.5t-19.5 23t-29 9zM530 345q25 0 44.5 -10.5t33 -27.5t20.5 -39.5t7 -47.5q0 -41 -14.5 -84
t-40 -77.5t-60.5 -56.5t-75 -22q-24 0 -43.5 10.5t-32.5 28t-20 39t-7 44.5q0 40 14.5 83t40 78.5t60 58.5t73.5 23zM519 307q-30 0 -53 -18t-38.5 -46t-24 -61.5t-8.5 -63.5q0 -100 65 -100q30 0 53 18t38.5 46.5t23 62t7.5 65.5q0 16 -3.5 33.5t-11 31.5t-19.5 23t-29 9z
" />
    <glyph glyph-name="ampersand" unicode="&#x26;" horiz-adv-x="635" 
d="M120 369q88 82 147 102q0 27 24 90q14 38 31.5 69t37.5 57q52 63 111 63q62 0 62 -65q0 -64 -81 -140q-67 -62 -121 -79q0 -238 62 -350q38 25 74 79q46 67 46 131q0 56 -36 58q-7 0 -16 -3q-8 -3 -12 -3q-10 0 -10 14q0 11 18 28q19 18 44 18t44 -20q24 -23 24 -64
q0 -75 -70 -170q-47 -63 -90 -99q30 -45 86 -46q32 0 83 33q49 34 51 34q16 0 16 -18q0 -14 -56 -52q-65 -42 -128 -43q-37 0 -73 19q-24 13 -36 30l-43.5 -24.5t-16.5 -9.5q-54 -23 -125 -23q-81 0 -125 50q-41 46 -41 115q0 108 119 219zM142 338q-77 -88 -77 -172
q0 -63 43 -100q39 -35 105 -35q62 0 121 40q-14 25 -25.5 60t-21.5 82q-11 52 -15.5 106.5t-5.5 114.5q-60 -21 -124 -96zM422 561q60 55 62 103q0 43 -36 45q-40 0 -76 -69q-36 -68 -36 -136q35 11 86 57z" />
    <glyph glyph-name="quotesingle" unicode="'" horiz-adv-x="225" 
d="M153 427q-13 -25 -36 -25q-12 0 -12 11q0 12 5 27l45 126q7 20 15 29.5t16 9.5h34q17 0 17 -15q0 -11 -12 -33z" />
    <glyph glyph-name="parenleft" unicode="(" horiz-adv-x="288" 
d="M459 766q0 -7 -29 -15q-59 -14 -106.5 -49t-84.5 -84.5t-64 -111t-44.5 -129.5t-26 -139t-8.5 -140q0 -156 50 -217q18 -21 18 -30t-12 -9t-32 20q-87 89 -87 284q0 165 61 314q24 60 60.5 117.5t81 102.5t95.5 72.5t106 27.5q22 0 22 -14z" />
    <glyph glyph-name="parenright" unicode=")" horiz-adv-x="288" 
d="M22 -158q-22 0 -22 14q2 9 29 15q84 20 146.5 83t104 153t62.5 198t21 219q0 50 -6.5 97.5t-19.5 77.5t-27.5 45.5t-14.5 26.5q0 9 12 9q9 0 20 -9t23 -24t23.5 -34.5t20.5 -40.5q9 -20 15 -45.5t9.5 -52.5t5.5 -53t2 -45q0 -66 -13 -138.5t-37 -143t-59.5 -134.5
t-80 -112.5t-98.5 -77t-116 -28.5z" />
    <glyph glyph-name="asterisk" unicode="*" 
d="M303 565l38 -45q9 -10 19 -10q5 0 10 5q6 6 8 6q13 0 13 -39q0 -17 -6 -38q-6 -20 -14 -20q-7 0 -16 12l-81 105l-27 -48q-2 -5 -3 -8t-2 -5q0 -7 9 -14q10 -6 10 -11q0 -9 -27 -19q-27 -11 -46 -11q-21 0 -21 10q0 7 6 16l69 107l-54 9h-6q-14 0 -18 -13q-4 -12 -11 -13
q-12 0 -32 29q-22 28 -19 47q1 6 9 6h8t9 -2l126 -28l-2 63q0 22 -19 22q-13 0 -14 9q0 10 23 36q25 27 44 27q9 0 9 -20l-3 -131l21.5 8l33.5 13q15 4 16 17l-2 8q-1 4 -1 10q0 7 6 7q19 0 51 -15q28 -14 30 -27q0 -11 -16 -15z" />
    <glyph glyph-name="plus" unicode="+" 
d="M282 340q22 0 22 -11q0 -3 -2.5 -12.5t-6.5 -19.5l-35 -96h119q14 0 19.5 -2.5t5.5 -14.5q0 -11 -6.5 -22t-18.5 -11h-137l-48 -133q-6 -18 -32 -18q-22 0 -22 11q0 4 1.5 8.5t3.5 12.5l43 119h-110q-25 0 -25 18q0 32 25 32h128l44 121q6 16 32 18z" />
    <glyph glyph-name="comma" unicode="," horiz-adv-x="225" 
d="M91 80q8 0 15 -15t7 -29q0 -16 -7 -34.5t-19 -34.5t-27.5 -26.5t-33.5 -10.5q-12 0 -12 8q0 9 10 12q30 7 30 44q0 9 -3 14t-6 8.5t-6 6t-3 5.5q0 2 7.5 10.5t17 17.5t18.5 16.5t12 7.5z" />
    <glyph glyph-name="hyphen" unicode="-" horiz-adv-x="368" 
d="M315 234q28 0 28 -13q0 -7 -9 -19t-21 -24t-24.5 -20.5t-19.5 -8.5q-11 0 -11 11q0 4 6 8t6 13q0 7 -22 7h-210q-28 0 -28 13q0 7 8.5 19t20.5 24t24.5 20.5t20.5 8.5q11 0 11 -11q0 -3 -6 -9t-6 -12q0 -7 22 -7h210z" />
    <glyph glyph-name="hyphen" unicode="&#xad;" horiz-adv-x="368" 
d="M315 234q28 0 28 -13q0 -7 -9 -19t-21 -24t-24.5 -20.5t-19.5 -8.5q-11 0 -11 11q0 4 6 8t6 13q0 7 -22 7h-210q-28 0 -28 13q0 7 8.5 19t20.5 24t24.5 20.5t20.5 8.5q11 0 11 -11q0 -3 -6 -9t-6 -12q0 -7 22 -7h210z" />
    <glyph glyph-name="period" unicode="." horiz-adv-x="225" 
d="M77 80q3 0 8 -7t9.5 -16.5t8 -18t3.5 -11.5q0 -5 -5 -12t-11.5 -13.5t-13.5 -11.5t-11 -5q-5 0 -10 6t-9 14t-7 16t-3 13q0 4 5 12t12 15.5t14 13t10 5.5z" />
    <glyph glyph-name="slash" unicode="/" horiz-adv-x="208" 
d="M272 756q0 -7 -6 -25l-258 -743q-3 -10 -8 -15q-19 -19 -35 -19q-9 0 -10 9q0 8 5 25l258 743q3 10 8 15q19 19 35 19q9 0 11 -9z" />
    <glyph glyph-name="zero" unicode="0" horiz-adv-x="511" 
d="M330 605q40 0 70.5 -14.5t51.5 -40t31.5 -60.5t10.5 -77q0 -43 -10.5 -92t-30 -97t-47.5 -92t-63.5 -78t-77.5 -54t-89 -20q-41 0 -70.5 15t-49.5 41t-29.5 61.5t-9.5 77.5q0 43 11 92t31 97t48 91.5t63 76.5t75.5 53t84.5 20zM310 556q-50 0 -92.5 -32t-73 -82.5
t-47.5 -113.5t-17 -126q0 -174 126 -174q51 0 92 33.5t70.5 85.5t45 114.5t15.5 121.5q0 173 -119 173z" />
    <glyph glyph-name="one" unicode="1" horiz-adv-x="420" 
d="M320 488q-140 -117 -248 -117q-41 0 -41 25q0 28 31 28q5 0 13.5 -1t19.5 -1q51 0 101.5 21.5t94.5 57.5q22 19 42 39.5l36 37.5l27 28.5t16 11.5q10 0 10 -16q0 -4 -9 -22.5l-22 -44l-27.5 -55.5t-24.5 -57l-122 -311q-14 -37 -14 -41q0 -9 11 -9q6 0 16.5 8t18.5 8
q10 0 10 -15q0 -5 -14.5 -17.5t-34.5 -26t-41.5 -24t-34.5 -10.5q-16 0 -16 13q0 17 7 32l90.5 207z" />
    <glyph glyph-name="two" unicode="2" horiz-adv-x="506" 
d="M131 48q13 0 34 -7l45 -15t49 -15t46 -7q28 0 53 9t46 22q20 12 35 23.5t18 11.5q10 0 10 -10q0 -8 -16 -25.5t-42.5 -35t-60.5 -31t-70 -13.5q-31 0 -61 7t-58.5 15.5t-56 15.5t-52.5 7q-8 0 -16 -2t-12 -2q-12 0 -12 12q0 6 10 12t28 15l44.5 22.5t59.5 34.5
q58 37 107.5 78t85.5 84.5t56.5 88t20.5 89.5q0 60 -33.5 98t-88.5 38q-35 0 -71.5 -15.5t-66.5 -41t-49 -59t-19 -69.5q0 -45 22 -73.5t63 -28.5q17 0 31.5 5t26 11.5t19.5 11.5t11 5q9 0 9 -10q0 -9 -11.5 -19.5t-28.5 -19.5t-36 -15t-35 -6q-54 0 -89 27.5t-35 85.5
q0 40 21 84t58.5 80.5t89.5 60t115 23.5q80 0 122.5 -47t42.5 -125q0 -79 -80 -172q-22 -26 -58 -59t-76 -64t-79 -55.5t-66 -33.5v-1z" />
    <glyph glyph-name="three" unicode="3" horiz-adv-x="472" 
d="M104 473q-12 0 -12 15q0 13 17 33t44 38.5t60 32t65 13.5q54 0 87 -28t33 -78q0 -19 -8.5 -40.5t-22.5 -41.5t-32 -36t-36 -22q22 -5 42 -19.5t35 -35t23.5 -44t8.5 -46.5q0 -59 -22.5 -107.5t-60.5 -83.5t-89.5 -54t-108.5 -19q-28 0 -61.5 7t-63 20.5t-49 33
t-19.5 45.5q0 29 31 29q10 0 16 -7.5t12.5 -19.5t15 -25t23 -25t38 -19.5t60.5 -7.5q44 0 82.5 16.5t67.5 45t45.5 67.5t16.5 84q0 23 -7 44t-20 36.5t-30.5 25t-39.5 9.5q-15 0 -21.5 -2t-9.5 -2q-17 0 -17 14q0 9 20 18q24 10 46 25t38.5 33t26.5 38t10 41q0 42 -26 62.5
t-65 20.5q-30 0 -53 -13t-40.5 -29t-29.5 -29t-20 -13z" />
    <glyph glyph-name="four" unicode="4" horiz-adv-x="506" 
d="M344 174q14 0 30 5.5t31 13t28 15.5l22 14q13 0 13 -15q0 -9 -16 -22t-38.5 -25t-46.5 -20.5t-40 -8.5l-17.5 -54.5t-6.5 -21.5q0 -9 8 -9q4 0 9.5 3l11.5 6t11 6t7 3q11 0 11 -11q0 -7 -14 -18.5t-33 -22.5t-37 -19t-26 -8q-16 0 -16 14t8 34l37 102q-15 2 -45.5 11
l-64.5 19t-66 18t-51 8q-14 0 -22.5 -1.5t-13.5 -1.5q-14 0 -14 16q0 7 9 27t31.5 52t60.5 77t95 103q27 27 60.5 54.5t70.5 49t76.5 35t78.5 13.5q17 0 18 -14q0 -10 -9 -34l-150 -393v0zM425 561q-23 0 -54.5 -15.5t-67 -41t-72.5 -59t-70.5 -69t-60.5 -71.5t-43 -67
q27 0 65 -9t74 -20l64.5 -20t37.5 -9l129 341q5 12 7.5 21.5t2.5 14.5q0 4 -12 4z" />
    <glyph glyph-name="five" unicode="5" horiz-adv-x="441" 
d="M397 605q7 0 7 -13q0 -5 -13 -19.5t-45 -43.5q-7 -5 -49 -5q-89 0 -107 3l-22.5 -52.5l-25.5 -58.5q18 3 32 3q43 0 81.5 -13t67 -38.5t45 -62.5t16.5 -84q0 -61 -21.5 -111t-58.5 -85.5t-86 -55t-104 -19.5q-38 0 -70.5 11t-55.5 26.5t-36 33.5t-13 32q0 27 27 27
q18 0 32 -26q12 -21 23.5 -35t25.5 -22.5t31.5 -12.5t41.5 -4q46 0 83 17.5t63 47t40 69.5t14 85q0 35 -12 64t-33 50t-50.5 33t-64.5 12q-21 0 -34 -3.5t-21 -8t-12 -8t-7 -3.5q-16 0 -16 12q0 4 11 22q57 96 91 192q4 12 11 18t14 6h20q7 0 20.5 -0.5t28 -1.5t28.5 -1.5
t23 -0.5q24 0 34 3.5t24 14.5q7 6 22 6z" />
    <glyph glyph-name="six" unicode="6" horiz-adv-x="484" 
d="M12 194q0 175 116 296q112 115 260 115q16 0 32 -2.5t29 -7t21.5 -12t8.5 -17.5q0 -27 -25 -27q-12 0 -20.5 4.5t-19.5 9.5t-26.5 9.5t-40.5 4.5q-104 0 -189 -112q-83 -110 -83 -235q0 -41 7.5 -77t24 -62t41.5 -41t61 -15q40 0 73 20.5t57 54t37.5 75.5t13.5 86
q0 123 -95 123q-20 0 -39.5 -7t-36.5 -23q-11 -11 -19.5 -23t-15.5 -23l-11.5 -18t-7.5 -7q-13 0 -13 14q0 18 14 42.5t37 47t52.5 38t59.5 15.5q71 0 106 -56q24 -41 24 -95t-19 -109t-53.5 -99.5t-82.5 -72.5t-105 -28q-44 0 -76.5 16.5t-54 45.5t-32 68t-10.5 84z" />
    <glyph glyph-name="seven" unicode="7" horiz-adv-x="397" 
d="M378 538q-10 -2 -22 -3.5t-21 -1.5q-11 0 -28 2t-36 5t-38 5t-32 2q-26 0 -52.5 -6t-45.5 -22q-18 -15 -29 -32t-17 -17q-11 0 -11 7q0 19 40 66q26 31 55 46.5t58 15.5q56 0 97 -10t73 -10q19 0 30.5 3t18.5 7t10 7t6 3q10 0 10 -10q0 -2 -10.5 -21t-33.5 -55
q-27 -44 -53 -95.5t-50 -105l-46.5 -106.5l-42.5 -100q-12 -29 -12 -41q0 -9 10 -9q5 0 16 8t19 8q10 0 10 -15q0 -5 -15 -18t-35 -26.5t-41 -23.5t-34 -10q-16 0 -16 13q0 21 27 84q49 113 109 226.5t132 229.5z" />
    <glyph glyph-name="eight" unicode="8" horiz-adv-x="506" 
d="M333 398q25 -17 47 -41.5t38 -52.5t25 -58t9 -58q0 -45 -23 -83.5t-59.5 -66t-83.5 -43t-95 -15.5q-41 0 -77.5 10.5t-63.5 31t-43 50.5t-16 69t20.5 76t55 70t80 60t96.5 46q-30 25 -42.5 48t-12.5 50q0 23 15.5 43.5t38.5 36.5t51 25t54 9q49 0 81.5 -27t32.5 -75
q0 -19 -12 -36t-30.5 -30.5t-41.5 -23.5t-44 -15zM265 373q-41 -17 -80 -42t-69.5 -55t-49 -63t-18.5 -66q0 -32 11.5 -57t31.5 -42.5t47.5 -26.5t59.5 -9q42 0 78 12.5t63 34.5t42 52.5t15 65.5q0 19 -13 49.5t-33 60.5t-43 54.5t-42 31.5zM308 419q19 4 37.5 12t33.5 19.5
t24 25t9 29.5q0 73 -83 73q-13 0 -27 -6t-26 -16t-20 -23t-8 -26q0 -45 60 -88z" />
    <glyph glyph-name="nine" unicode="9" horiz-adv-x="483" 
d="M311 302q13 0 13 -14q0 -23 -16 -48t-40 -46t-53 -35t-54 -14q-32 0 -56 12t-40.5 32t-25 47.5t-8.5 59.5q0 54 19 109t53.5 99.5t82.5 72.5t105 28q44 0 76.5 -16.5t54 -45.5t32 -68t10.5 -84q0 -81 -29 -155.5t-79.5 -131t-119 -90.5t-148.5 -34q-15 0 -31.5 2.5
t-29.5 7.5t-21.5 12t-8.5 17q0 27 25 27q9 0 17.5 -4.5t20 -9.5t28 -9.5t41.5 -4.5q39 0 74.5 15.5t66 42t54.5 61.5t41.5 73.5t26.5 78.5t9 76q0 42 -7.5 77.5t-24 62t-41.5 41t-61 14.5q-40 0 -73 -20t-57 -53t-37.5 -75.5t-13.5 -87.5q0 -123 95 -123q23 0 41 8
t33.5 21.5t29 32t26.5 39.5z" />
    <glyph glyph-name="colon" unicode=":" horiz-adv-x="225" 
d="M77 80q3 0 8 -7t9.5 -16.5t8 -18t3.5 -11.5q0 -5 -5 -12t-11.5 -13.5t-13.5 -11.5t-11 -5q-5 0 -10 6t-9 14t-7 16t-3 13q0 4 5 12t12 15.5t14 13t10 5.5zM145 350q3 0 8 -7t9.5 -16.5t8 -18t3.5 -11.5q0 -5 -5 -12t-11.5 -13.5t-13.5 -11.5t-11 -5q-5 0 -10 6t-9 14
t-7 16t-3 13q0 4 5 12t12 15.5t14 13t10 5.5z" />
    <glyph glyph-name="semicolon" unicode=";" horiz-adv-x="225" 
d="M91 80q8 0 15 -15t7 -29q0 -16 -7 -34.5t-19 -34.5t-27.5 -26.5t-33.5 -10.5q-12 0 -12 8q0 9 10 12q30 7 30 44q0 9 -3 14t-6 8.5t-6 6t-3 5.5q0 2 7.5 10.5t17 17.5t18.5 16.5t12 7.5zM145 350q3 0 8 -7t9.5 -16.5t8 -18t3.5 -11.5q0 -5 -5 -12t-11.5 -13.5
t-13.5 -11.5t-11 -5q-5 0 -10 6t-9 14t-7 16t-3 13q0 4 5 12t12 15.5t14 13t10 5.5z" />
    <glyph glyph-name="semicolon" unicode="&#x37e;" horiz-adv-x="225" 
d="M91 80q8 0 15 -15t7 -29q0 -16 -7 -34.5t-19 -34.5t-27.5 -26.5t-33.5 -10.5q-12 0 -12 8q0 9 10 12q30 7 30 44q0 9 -3 14t-6 8.5t-6 6t-3 5.5q0 2 7.5 10.5t17 17.5t18.5 16.5t12 7.5zM145 350q3 0 8 -7t9.5 -16.5t8 -18t3.5 -11.5q0 -5 -5 -12t-11.5 -13.5
t-13.5 -11.5t-11 -5q-5 0 -10 6t-9 14t-7 16t-3 13q0 4 5 12t12 15.5t14 13t10 5.5z" />
    <glyph glyph-name="less" unicode="&#x3c;" horiz-adv-x="1000" 
d="M799 603v-78l-500 -229l500 -222v-78l-598 265v71z" />
    <glyph glyph-name="equal" unicode="=" 
d="M58 101q-25 0 -25 18q0 32 25 32h301q14 0 19.5 -3t5.5 -14t-6.5 -22t-18.5 -11h-301zM94 226q-25 0 -25 18q0 32 25 32h301q14 0 19.5 -3t5.5 -14t-6.5 -22t-18.5 -11h-301z" />
    <glyph glyph-name="greater" unicode="&#x3e;" horiz-adv-x="1000" 
d="M799 332v-71l-598 -265v78l500 222l-500 229v78z" />
    <glyph glyph-name="question" unicode="?" horiz-adv-x="435" 
d="M130 80q3 0 8 -7t9.5 -16.5t8 -18t3.5 -11.5q0 -5 -5 -12t-11.5 -13.5t-13.5 -11.5t-11 -5q-5 0 -10 6t-9 14t-7 16t-3 13q0 4 5 12t12 15.5t14 13t10 5.5zM273 750q68 0 105 -41.5t37 -107.5q0 -42 -13.5 -82t-37.5 -78t-56.5 -74.5t-70.5 -70.5q-62 -56 -62 -62
q0 -8 9 -18.5t17 -10.5q2 0 8.5 4t13.5 9.5l12.5 9.5t7.5 4q11 0 11 -15q0 -4 -12 -15t-27.5 -23t-29.5 -21t-18 -9t-13.5 10.5t-19 24t-17 26.5t-7.5 18q0 6 62 55q81 64 130 138t49 167q0 24 -6 44.5t-17.5 36.5t-29.5 25t-42 9q-30 0 -58.5 -14.5t-50.5 -38t-35 -54
t-13 -62.5q0 -15 2 -24.5t4 -17t4 -13.5t2 -12q0 -17 -21 -17q-6 0 -11 8.5t-8 21t-5 27.5t-2 28q0 40 17.5 78.5t46.5 69t66.5 49t78.5 18.5z" />
    <glyph glyph-name="at" unicode="@" horiz-adv-x="1000" 
d="M772 457l-83 -207q-61 -152 -61 -170q0 -27 30 -27q41 0 77.5 24.5t63.5 63.5t43 86.5t16 93.5q0 65 -25.5 116t-68 86t-99 53t-118.5 18q-74 0 -143 -33.5t-122.5 -88.5t-86 -126t-32.5 -146q0 -66 26.5 -119t73 -90.5t110 -57.5t138.5 -20q162 0 293 102l26 -23
q-25 -27 -63.5 -50t-82.5 -39.5t-90.5 -25.5t-86.5 -9q-85 0 -160 22.5t-131 65.5t-88.5 104t-32.5 139q0 89 35.5 169.5t97 142t142.5 98t173 36.5q73 0 139 -23t115.5 -65.5t78.5 -102.5t29 -133q0 -59 -22 -116.5t-60 -103t-89 -73.5t-110 -28q-73 0 -73 72
q-56 -65 -130 -65q-62 0 -97 40t-35 103q0 113 80 218q83 109 178 109q79 0 117 -74l22 54h86zM569 438q-67 0 -136 -126q-65 -116 -65 -197q0 -67 70 -67q33 0 59.5 21.5t47.5 55t37 74t28 78.5q21 67 21 97q0 26 -17.5 45t-44.5 19z" />
    <glyph glyph-name="A" unicode="A" horiz-adv-x="753" 
d="M666 674q51 24 123 24q56 0 56 -27q0 -16 -20 -16q-17 0 -30.5 5.5t-30.5 5.5q-47 0 -75 -14q33 -32 50 -70.5t17 -86.5q0 -50 -16 -92l-98 -263q-16 -41 -16 -53q0 -15 11 -15q7 0 14.5 4t14.5 9.5t13 9.5t11 4q8 0 8 -11q0 -9 -18 -24t-41 -29t-45.5 -24.5t-31.5 -10.5
q-17 0 -17 19t13 49l72 172q-73 -47 -276 -47q-120 -213 -291 -213q-77 0 -77 31q0 26 35 26q7 0 13.5 -2.5t16 -5.5t22.5 -5.5t34 -2.5q117 0 204 172q-29 0 -55.5 -12t-53.5 -39q-18 -18 -24 -18q-12 0 -12 12q0 11 13.5 29t36.5 34.5t53 28.5t63 12l61 121.5t68 116.5
t77.5 101.5t89.5 76.5q-17 15 -43 26.5t-57 19t-63.5 11.5t-62.5 4q-57 0 -114 -13t-102 -39.5t-73.5 -65.5t-28.5 -91q0 -138 164 -138q16 0 16 -16t-21 -16q-223 0 -223 169q0 60 36.5 105.5t92.5 76t123.5 46t129.5 15.5q34 0 70.5 -5t72 -14.5t66.5 -23.5t55 -33z
M600 267q44 18 64 68l25 68q16 42 16 92q0 90 -56 137q-119 -54 -275 -392q81 0 137.5 7t88.5 20z" />
    <glyph glyph-name="B" unicode="B" horiz-adv-x="821" 
d="M689 443q7 22 10.5 39.5t3.5 47.5q0 49 -26.5 84t-69.5 58t-97.5 34t-109.5 11q-54 0 -110 -12.5t-101.5 -38.5t-75 -65.5t-29.5 -92.5q0 -137 162 -137q16 0 16 -17q0 -15 -21 -15q-221 0 -221 168q0 60 36 105.5t92 76t123 46t129 15.5q63 0 128 -12t117 -38.5
t85 -68.5t33 -103q0 -50 -40 -105q64 -60 64 -158q0 -61 -26 -113t-69.5 -90.5t-100.5 -60t-120 -21.5q-77 0 -140 20q-62 21 -65 21q-31 0 -31 16q0 7 12 16q24 19 38.5 40.5t27.5 55.5l133 357q12 33 12 47q0 9 -8 9t-20.5 -8t-18.5 -8q-9 0 -9 10q0 6 15.5 19t36.5 25.5
t42 22t31 9.5q12 0 12 -14q0 -8 -4 -23.5t-13 -38.5l-152 -404q-9 -23 -20.5 -39t-22.5 -29q-6 -7 -14 -12.5t-8 -6.5q0 -8 17.5 -14.5t52.5 -15.5q33 -8 64.5 -12t59.5 -4q50 0 91.5 18t71.5 50.5t46.5 78t16.5 99.5q0 68 -42 116q-8 -8 -21.5 -15.5t-28.5 -13.5
t-30.5 -9.5t-27.5 -3.5t-25 3t-23 9t-16.5 15.5t-6.5 22.5q0 16 9.5 29t24.5 23t33 15.5t34 5.5q45 0 84 -19zM662 407q-26 26 -59 26q-59 0 -59 -40q0 -22 42 -22q6 0 17.5 3.5t23.5 8.5t22 11.5t13 12.5z" />
    <glyph glyph-name="C" unicode="C" horiz-adv-x="596" 
d="M600 743q26 0 26 -131q0 -74 -16 -74q-21 0 -21 36q0 30 -13 55t-35.5 43t-52 28t-62.5 10q-74 0 -136 -39.5t-107 -102.5t-70.5 -141t-25.5 -156q0 -56 14 -102.5t40 -80.5t62 -52.5t80 -18.5q83 0 137.5 41.5t62.5 119.5q6 59 36 61q24 0 24 -28q0 -39 -19 -79.5
t-53 -74.5t-82 -55.5t-105 -21.5q-65 0 -114.5 21.5t-82.5 60t-50 92t-17 117.5q0 54 15 110.5t42.5 109.5t65.5 100t83 82.5t95.5 56t104.5 20.5q30 0 53 -6.5t40 -14t29 -13.5t21 -6q7 0 13 17q6 16 18 16z" />
    <glyph glyph-name="D" unicode="D" horiz-adv-x="807" 
d="M272 354q0 -16 -21 -16q-221 0 -221 169q0 60 35 105.5t90 76t122.5 46t132.5 15.5q80 0 150.5 -21.5t123 -64t83 -106t30.5 -148.5q0 -77 -25 -154t-71 -138.5t-111 -99.5t-146 -38q-40 0 -68 6.5t-47.5 14t-31.5 14t-21 6.5q-31 0 -31 16q0 7 12 16q26 20 40 42t26 54
l133 357q6 15 8.5 27.5t3.5 19.5q0 9 -8 9q-3 0 -8.5 -2.5l-11.5 -5.5l-11 -5.5t-8 -2.5q-9 0 -9 10q0 7 16.5 20t37.5 25.5t41.5 21.5t29.5 9q12 0 12 -14q0 -16 -17 -62l-152 -404q-10 -26 -21.5 -42t-21 -25t-16 -13t-6.5 -7q0 -8 16.5 -16t38 -15t42.5 -11t31 -4
q72 0 127 33t92 87.5t56 125t19 145.5q0 70 -24.5 127t-68.5 97t-104 61.5t-130 21.5q-53 0 -109 -12.5t-102 -38.5t-75.5 -65.5t-29.5 -92.5q0 -138 162 -138q16 0 16 -16z" />
    <glyph glyph-name="E" unicode="E" horiz-adv-x="599" 
d="M568 743q34 0 34 -135q0 -69 -24 -70q-22 0 -22 36q0 30 -13 55t-35.5 43t-51.5 28t-62 10q-65 0 -102 -41t-37 -111q0 -35 7 -57q34 6 68 6q18 0 36.5 -4.5t33.5 -13.5t24.5 -23t9.5 -32q0 -15 -7 -26t-17.5 -19t-24.5 -12t-27 -4q-43 0 -82.5 20t-58.5 56
q-28 -14 -51.5 -39t-40.5 -56t-26.5 -65.5t-9.5 -68.5q0 -46 15.5 -83t43.5 -63t66 -40t83 -14q39 0 73 11t61 31.5t44 50.5t22 68q7 61 36 61q23 0 23 -28q0 -40 -20 -81.5t-56.5 -75.5t-87.5 -55.5t-112 -21.5q-58 0 -106 16t-82 46.5t-53 75t-19 102.5q0 36 15 75t40 75
t57.5 64.5t67.5 42.5q-5 20 -8 38.5t-3 41.5q0 39 17 74t45 61.5t65 42t78 15.5q26 0 49 -5.5t45 -14.5q20 -8 31 -14t18 -6t13 17q6 16 18 16zM271 467q8 -28 35 -43.5t58 -15.5q42 0 42 25q0 45 -80 45q-7 0 -20.5 -2.5t-34.5 -8.5z" />
    <glyph glyph-name="F" unicode="F" horiz-adv-x="652" 
d="M865 750q10 0 10 -13q0 -3 -9 -15t-21.5 -24.5t-25 -22.5t-19.5 -10q-21 0 -72 6t-116.5 13t-138.5 13t-137 6q-45 0 -90 -13t-81 -38t-58.5 -61.5t-22.5 -82.5q0 -138 164 -138q16 0 16 -16t-21 -16q-223 0 -223 169q0 58 32.5 103t86.5 76t122.5 47.5t140.5 16.5
q43 0 102.5 -4t117 -8.5t102.5 -8.5t60 -4q13 0 24 4t21 8.5l19 8.5t17 4zM439 349q-11 -1 -24.5 -7.5t-25.5 -13.5l-21.5 -13t-11.5 -6q-11 0 -11 11q0 7 11.5 20t28.5 25t36.5 21.5t35.5 10.5l47 135q15 43 15 54q0 9 -8 9t-20.5 -8t-18.5 -8q-9 0 -9 10q0 6 15.5 18.5
t36 25.5t41.5 22.5t32 9.5q12 0 12 -14q0 -15 -17 -62l-68 -192q5 -1 17 -1.5t20 -0.5q36 0 66 14t48 28q9 0 9 -14q0 -11 -14 -24.5t-34 -25.5t-43.5 -20t-42.5 -8q-10 0 -20.5 0.5t-22.5 1.5l-72 -207q-8 -23 -12 -37t-4 -16q0 -15 11 -15q6 0 13.5 4t15 9.5t14 9.5
t10.5 4q8 0 8 -11q0 -8 -17 -22.5t-39.5 -29t-45 -25.5t-34.5 -11q-16 0 -17 19q0 8 3 19.5t8 28.5l49.5 140.5z" />
    <glyph glyph-name="G" unicode="G" horiz-adv-x="623" 
d="M487 166q-95 -97 -207 -97q-58 0 -106 15t-82 44.5t-53 73.5t-19 102q0 86 34 166.5t89 142.5t124.5 99.5t140.5 37.5q30 0 53.5 -6.5t41 -14t29 -13.5t19.5 -6q7 0 13 17q6 16 18 16q13 0 19.5 -33.5t6.5 -97.5q0 -74 -16 -74q-21 0 -21 36q0 29 -13 54t-35 43t-52 28.5
t-63 10.5q-71 0 -130 -36t-101.5 -93.5t-66 -130.5t-23.5 -146q0 -45 14 -81.5t39.5 -62t61 -39t78.5 -13.5q44 0 87.5 19.5t78 48t55.5 60.5t21 56q0 15 -12 15q-9 0 -19 -7.5t-18 -7.5q-14 0 -14 11q0 6 16 18t36 23.5t39.5 20t25.5 8.5q17 0 17 -20q0 -38 -10.5 -87.5
t-32.5 -102t-55 -103.5t-77 -91t-100.5 -64.5t-124.5 -24.5q-40 0 -76 9t-63.5 23.5t-43.5 33.5t-16 39q0 31 31 31q17 0 38 -25q16 -20 29.5 -34t28.5 -22t32.5 -11.5t41.5 -3.5q193 0 292 246z" />
    <glyph glyph-name="H" unicode="H" horiz-adv-x="887" 
d="M592 402q33 0 70 1.5t71 9.5t59.5 24t36.5 46l40 114q15 42 15 54q0 9 -8 9q-10 0 -20 -8t-19 -8t-9 10q0 7 16.5 20t37.5 25.5t41.5 21.5t29.5 9q12 0 12 -14q0 -11 -17 -62l-180 -514q-16 -44 -16 -53q0 -15 11 -15q6 0 13.5 4t15 9.5t14 9.5t10.5 4q8 0 8 -11
q0 -7 -16.5 -21.5t-39 -29.5t-45.5 -26t-35 -11q-17 0 -17 19q0 8 2.5 19.5t8.5 28.5l115 326q-31 -17 -54.5 -27t-47 -15t-52 -6t-69.5 -1q-20 -74 -51 -147t-73.5 -131t-97 -94.5t-121.5 -36.5q-37 0 -37 15t29 15q60 0 105.5 30.5t79 81t58 116.5t44.5 137q-14 0 -30 -7
t-31.5 -17.5t-30 -23.5l-26.5 -24q-14 0 -14 10q0 9 16.5 29t40 41t50 38t46.5 20l63 201q4 13 6 25t2 26q0 20 -19 33.5t-48.5 21.5t-64.5 11t-68 3q-54 0 -110 -12.5t-102.5 -38.5t-76 -65.5t-29.5 -92.5q0 -138 164 -138q16 0 16 -16t-21 -16q-112 0 -167.5 40.5
t-55.5 128.5q0 60 36.5 105.5t92.5 76t123.5 46t129.5 15.5q37 0 84 -3.5t89 -12.5t70.5 -23.5t28.5 -35.5q0 -11 -21 -78l-61 -195v0z" />
    <glyph glyph-name="I" unicode="I" horiz-adv-x="615" 
d="M563 397q14 1 28 6t26 11t21.5 12.5l15.5 10.5q9 0 9 -14q0 -10 -13.5 -23t-32 -24.5t-39 -20t-33.5 -9.5q-31 -89 -66.5 -164t-81 -130t-105.5 -86t-139 -31q-37 0 -37 15t29 15q65 0 115.5 27.5t91 77.5t73 120.5t61.5 156.5q-13 1 -23 1.5t-18 0.5q-14 0 -27.5 -6.5
t-25 -14t-19.5 -13.5t-11 -6q-11 0 -11 11q0 6 10.5 19t27 25.5t36 22.5t38.5 10q15 0 24.5 -0.5t15.5 -1.5l71 202q4 11 6 23.5t2 27.5q0 20 -19 33.5t-48.5 21.5t-65 11t-67.5 3q-56 0 -109.5 -13t-95.5 -39.5t-67.5 -65.5t-25.5 -91q0 -138 164 -138q16 0 16 -16t-21 -16
q-223 0 -223 169q0 60 33.5 105.5t86 76t117 46t125.5 15.5q36 0 83 -4t89 -13t71 -23.5t29 -34.5q0 -18 -21 -78l-70 -200v0z" />
    <glyph glyph-name="J" unicode="J" horiz-adv-x="582" 
d="M237 354q0 -16 -21 -16q-40 0 -75.5 10.5t-62.5 32t-42.5 53t-15.5 73.5q0 57 35.5 102t89 76.5t117 48t120.5 16.5q36 0 83 -3.5t89 -12.5t71 -23.5t29 -35.5q0 -18 -21 -78l-140 -399q-26 -74 -65.5 -148.5t-89 -135.5t-108.5 -99t-124 -38q-37 0 -67 13t-51 36
t-32 54.5t-11 67.5q0 42 17.5 89t49 93.5t76 89.5t99 75.5t117.5 52t132 19.5q30 0 30 -27q0 -21 -42 -21q-70 0 -128.5 -18t-105 -48t-81 -68t-58 -78.5t-35 -79.5t-11.5 -71q0 -142 106 -142q54 0 102.5 33t89 85.5t72.5 117t54 127.5l145 420q8 24 8 51q0 20 -19 33.5
t-48.5 21.5t-65 11t-67.5 3q-53 0 -106 -15t-95.5 -42.5t-69.5 -66t-27 -85.5q0 -63 38 -100.5t99 -37.5q15 0 16 -16z" />
    <glyph glyph-name="K" unicode="K" horiz-adv-x="897" 
d="M264 354q0 -16 -21 -16q-112 0 -167.5 43t-55.5 126q0 60 36.5 105.5t92.5 76t123.5 46t129.5 15.5q37 0 84 -3.5t89 -12.5t70.5 -23.5t28.5 -35.5q0 -11 -21 -78l-76 -245q205 213 229 235q143 137 191 137q35 0 35 -30q0 -10 -14 -18t-23 -8q-47 0 -147 -91
q-22 -20 -57.5 -56l-86.5 -90l58 -327q8 -41 24 -41q5 0 12.5 5.5l15.5 11.5t17 11.5t18 5.5q11 0 11 -15q0 -8 -14.5 -23.5t-34.5 -30.5t-40.5 -26.5t-32.5 -11.5q-14 0 -21 10q-2 5 -5.5 18.5t-5.5 27.5l-58 325q-15 -12 -39.5 -37.5t-59.5 -65.5q-119 -333 -318 -333
q-37 0 -37 15t29 15q60 0 103 27.5t75.5 76.5t58 116t50.5 145l84 267q4 13 6 25t2 26q0 20 -19.5 33.5t-49 21.5t-64.5 11t-67 3q-54 0 -110 -12.5t-102.5 -38.5t-76 -65.5t-29.5 -92.5q0 -138 164 -138q16 0 16 -16z" />
    <glyph glyph-name="L" unicode="L" horiz-adv-x="833" 
d="M150 76q22 34 47 101.5t54 170.5q54 198 112 276q90 126 258 126q43 0 83.5 -14t72 -40.5t50 -65t18.5 -86.5q0 -70 -23 -126t-64 -95.5t-98 -61t-124 -21.5q-79 0 -79 30q0 27 37 27q14 0 32.5 -7t56.5 -7q49 0 87 20.5t64 56t39 83.5t13 102q0 83 -51 126.5t-132 43.5
q-133 0 -199 -120q-22 -41 -88 -265q-53 -183 -134 -269l114 -55.5t86 -36t69 -19t62 -5.5q37 0 65.5 7t51.5 23t42 40.5t36 59.5q22 45 42 45q18 0 18 -26q0 -25 -35 -69q-42 -52 -104.5 -87t-136.5 -35q-35 0 -76.5 8.5t-86.5 24.5t-91.5 38.5t-91.5 50.5q-19 -14 -56 -24
q-42 -11 -76 -11q-100 0 -100 63q0 15 8.5 26.5t22 19t31 11.5t35.5 4t33 -1.5t30 -6t33 -11.5t43 -19zM117 45l-27 17.5t-23.5 11.5t-24.5 6t-29 2q-57 0 -57 -27q0 -30 58 -30q73 0 103 20z" />
    <glyph glyph-name="M" unicode="M" horiz-adv-x="1021" 
d="M262 354q0 -16 -21 -16q-221 0 -221 169q0 58 30.5 103t78.5 76t107.5 47.5t117.5 16.5q136 0 236.5 -67.5t151.5 -197.5q26 34 69 75t91.5 76.5t96 59.5t82.5 24q12 0 12 -14q0 -13 -17 -62l-178 -504q-16 -44 -16 -53q0 -15 11 -15q6 0 13.5 4t15 9.5t14 9.5t10.5 4
q8 0 8 -11q0 -7 -16.5 -21.5t-39 -29.5t-45.5 -26t-35 -11q-17 0 -17 19q0 8 2.5 19.5t8.5 28.5l187 530q15 42 15 54q0 9 -8 9q-11 0 -31.5 -11t-45.5 -29t-52.5 -40.5t-51.5 -45.5t-43.5 -44t-28.5 -35q9 -35 9 -115q0 -24 -7.5 -58.5t-21 -66t-32.5 -53.5t-43 -22
q-50 0 -50 80q0 24 7.5 54t20.5 60.5t29 58.5t34 48q-6 19 -19.5 43t-29.5 47t-31 41t-24 24l-20 -12q-10 -46 -31 -108t-51.5 -127.5t-69.5 -129.5t-85 -114.5t-98 -81.5t-109 -31q-72 0 -72 32q0 29 40 29q16 0 29.5 -6.5t36.5 -6.5q46 0 86.5 25.5t75.5 68t64.5 98
t54.5 115.5t44.5 120.5t34.5 113.5q7 12 49 35q-13 21 -39 39.5t-57.5 32t-64 21.5t-59.5 8q-51 0 -100 -13.5t-86.5 -39.5t-60.5 -65.5t-23 -90.5q0 -138 162 -138q16 0 16 -16zM709 405q-12 -8 -23 -29.5t-19.5 -47t-13.5 -51.5t-5 -43q0 -46 27 -46q10 0 17.5 14t13 34.5
t8 43.5t2.5 40q0 29 -1.5 50t-5.5 35z" />
    <glyph glyph-name="N" unicode="N" horiz-adv-x="892" 
d="M783 443q3 8 14 25t25.5 37l31 41.5l31 39t25 28.5t14.5 11q8 0 12.5 -5.5t4.5 -12.5q0 -5 -10.5 -16.5l-30 -34t-46 -58.5t-59.5 -88q24 -86 24 -187q0 -25 -6 -58.5t-17.5 -64t-28 -52t-38.5 -21.5q-28 0 -40.5 24t-12.5 56q0 34 5.5 72t14.5 74.5t21.5 68.5t26.5 53
q0 8 -7.5 26t-19.5 40.5t-27.5 47t-32 46t-33 38t-29.5 23.5l-20 -12q-14 -59 -38 -126t-56.5 -133t-72.5 -126t-84.5 -106t-93.5 -73.5t-99 -27.5q-72 0 -72 32q0 29 40 29q17 0 30 -6.5t27 -6.5q46 0 86 23t74.5 63t64.5 93.5t56 113.5t47.5 123.5l40.5 124.5q6 10 50 36
q-16 21 -43 39t-58 31.5t-63 21.5t-57 8q-54 0 -103 -13.5t-86 -40t-59 -65.5t-22 -90q0 -138 162 -138q16 0 16 -16t-21 -16q-221 0 -221 169q0 58 30.5 103t78.5 76t107.5 47.5t117.5 16.5q73 0 138.5 -24t120.5 -66t98.5 -98t71.5 -119zM761 341q-12 -18 -21.5 -44.5
t-16.5 -57t-11 -62.5t-4 -61q0 -44 31 -44q11 0 19.5 14t14 34.5t8.5 42.5t3 38q0 72 -23 140z" />
    <glyph glyph-name="O" unicode="O" horiz-adv-x="652" 
d="M188 576q7 32 30.5 63.5t56.5 56t71.5 39.5t77.5 15q51 0 93 -24t71.5 -63t45.5 -88.5t16 -100.5q0 -85 -26.5 -172.5t-76 -159t-121 -117t-162.5 -45.5q-60 0 -105.5 22t-76.5 60.5t-46.5 90t-15.5 111.5q0 48 8.5 96t28 90t51.5 75t80 51zM180 541q-28 -13 -47.5 -35.5
t-31.5 -51.5t-17 -64.5t-5 -73.5q0 -54 12 -106.5t36.5 -94t62.5 -67t91 -25.5q75 0 132.5 40t96.5 102.5t59 137.5t20 145q0 50 -11.5 97t-35 84t-59 59t-83.5 22q-41 0 -72 -16t-51.5 -43.5t-31 -64t-10.5 -77.5q0 -143 -27 -203q-6 -13 -17.5 -29t-26 -30.5t-30 -24.5
t-27.5 -10q-10 0 -10 11q0 3 8.5 10.5t19 18t21 25.5t13.5 33q3 15 6 46t3 80q0 15 1 31.5t2.5 31t4 25.5t4.5 17z" />
    <glyph glyph-name="P" unicode="P" horiz-adv-x="721" 
d="M262 354q0 -16 -21 -16q-221 0 -221 169q0 60 36 105.5t92 76t123 46t129 15.5q67 0 135 -14.5t123 -45.5t89.5 -78t34.5 -112q0 -51 -24.5 -98t-64.5 -83.5t-91.5 -58t-105.5 -21.5q-23 0 -40.5 1t-30.5 3l-45 -123q-7 -19 -10 -32t-4 -21q0 -15 10 -15q5 0 12.5 4
t15.5 9.5t15 9.5t10 4q8 0 8 -11q0 -8 -17 -23t-40 -29.5t-45.5 -25t-33.5 -10.5q-16 0 -17 19q0 15 11 48l170 480q8 21 11 34.5t4 19.5q0 9 -8 9q-2 0 -7.5 -2.5l-12 -5.5l-12 -5.5t-8.5 -2.5q-8 0 -8 10q0 7 16 20t37 25.5t41.5 21.5t30.5 9q12 0 12 -14q0 -15 -17 -62
l-81 -232q-5 -14 -7.5 -26t-2.5 -18q0 -28 47 -28q48 0 88.5 15.5t70 44t46.5 69.5t17 91q0 56 -28 97t-74 67.5t-103.5 39.5t-116.5 13q-54 0 -110 -12.5t-101.5 -38.5t-75 -65.5t-29.5 -92.5q0 -138 162 -138q16 0 16 -16z" />
    <glyph glyph-name="Q" unicode="Q" horiz-adv-x="652" 
d="M188 576q11 30 32.5 61t51.5 56t68.5 41t83.5 16q50 0 91.5 -23t71.5 -61t46.5 -88t16.5 -104q0 -64 -17.5 -135t-50 -135.5t-80 -116t-107.5 -77.5q0 -35 9 -57.5t24 -37t34 -22.5t38 -12q4 -2 4 -9q0 -8 -4.5 -10.5t-14.5 -2.5q-22 0 -45 8t-42.5 24.5t-34.5 41
t-22 57.5q-33 -10 -77 -10q-60 0 -105.5 22t-76.5 60.5t-46.5 90t-15.5 111.5q0 48 8.5 96t28 90t52 75t79.5 51zM339 97q-56 -21 -118 -63q14 -5 28.5 -8t31.5 -3q28 0 54 6q0 49 4 68zM393 51q45 20 81 65.5t61.5 102.5t39.5 117.5t14 111.5q0 54 -12 101.5t-35.5 83
t-59 56.5t-82.5 21q-42 0 -73.5 -16t-51.5 -43.5t-30 -64t-10 -77.5q0 -143 -27 -203q-6 -13 -17.5 -29t-26 -30.5t-29.5 -24.5t-28 -10q-10 0 -10 11q0 3 5.5 8t14 12t17.5 17t16 24q5 9 8.5 28t5.5 41.5t3 44.5t1 38q0 10 0.5 25.5t2 31t4 29t5.5 19.5q-28 -13 -47 -35.5
t-31 -51.5t-17.5 -64.5t-5.5 -73.5q0 -41 6.5 -81t20.5 -75.5t36 -65t52 -48.5l117 79q29 19 48.5 29.5t27.5 10.5q14 0 14 -17q0 -16 -4 -39t-4 -58z" />
    <glyph glyph-name="R" unicode="R" horiz-adv-x="778" 
d="M453 330q22 25 70 25q72 0 90 -51q56 32 82.5 82t26.5 114q0 56 -28.5 97t-74 67.5t-103.5 39.5t-116 13q-55 0 -111 -13t-101.5 -39t-74.5 -65t-29 -92q0 -138 162 -138q16 0 16 -16t-21 -16q-221 0 -221 169q0 60 36 105.5t92 76t123 46t129 15.5q68 0 136 -14.5
t123 -45t89 -78t34 -112.5q0 -34 -13 -70t-34.5 -68t-51 -56.5t-62.5 -35.5l17 -132q5 -35 10.5 -54.5t12.5 -19.5t17.5 5.5t21.5 12.5l20 12.5t14 5.5q8 0 8 -11q0 -9 -18 -24t-41 -29.5t-45.5 -25t-31.5 -10.5q-11 0 -20 33t-12 86l-7 132q-5 -3 -18.5 -5t-26.5 -2
q-14 0 -28.5 3.5t-26 10t-18.5 16.5t-7 24l-10 -30q-24 -71 -52.5 -131.5t-66 -105.5t-86.5 -70.5t-113 -25.5q-37 0 -37 15t29 15q60 0 102.5 28.5t74.5 78t58 116t52 142.5l75 219q7 21 7 32q0 9 -8 9q-3 0 -8.5 -2.5l-11.5 -5.5l-11.5 -5.5t-7.5 -2.5q-9 0 -9 10
q0 7 16 19.5t37.5 25t42 22t29.5 9.5q12 0 12 -14q0 -6 -4 -21t-13 -41l-86 -254v0zM564 285q0 20 -12 31.5t-32 11.5q-44 0 -44 -23q0 -28 50 -28q21 0 38 8z" />
    <glyph glyph-name="S" unicode="S" horiz-adv-x="642" 
d="M266 5q64 0 113.5 19t83 54.5t50.5 84.5t17 109q0 38 -10.5 73.5t-36.5 69.5l-41.5 52l-44.5 52q-46 57 -46 103q0 55 33 91.5t89 36.5q39 0 70 -17q29 -16 30 -16t4.5 2.5t5.5 10.5q4 13 17 13q17 0 23 -31q3 -17 3 -73q0 -74 -16 -74q-20 0 -20 36q0 23 -10 44t-26 37
t-37.5 25.5t-43.5 9.5q-27 0 -46.5 -19.5t-19.5 -48.5q0 -41 48 -98l60 -71.5t27 -35.5q48 -72 48 -160q0 -72 -23.5 -129.5t-66 -98t-102.5 -62t-133 -21.5q-57 0 -105.5 13.5t-84 41t-55.5 69t-20 97.5q0 75 41 131t109 88q48 23 72 23q16 0 17 -14q0 -11 -27 -18
q-69 -20 -111 -71.5t-42 -124.5q0 -96 52 -149.5t155 -53.5z" />
    <glyph glyph-name="T" unicode="T" horiz-adv-x="643" 
d="M865 750q10 0 10 -13q0 -4 -9.5 -15.5t-22 -24t-25 -22.5t-18.5 -10t-33 3t-67.5 7l-90 9t-99 9t-95.5 7t-79 3q-45 0 -90 -13t-81 -38t-58.5 -61.5t-22.5 -82.5q0 -138 164 -138q16 0 16 -16t-21 -16q-223 0 -223 169q0 59 33 104.5t87 76t122.5 46.5t139.5 16
q52 0 110 -4t110.5 -8.5l95.5 -8.5t66 -4q14 0 25 4t20.5 8.5l18 8.5t17.5 4zM588 665q12 0 12 -14q0 -7 -4 -21.5t-13 -40.5l-157 -449q-16 -47 -16 -53q0 -15 11 -15q6 0 13.5 4t15 9.5t14 9.5t10.5 4q8 0 8 -11q0 -7 -16.5 -21.5t-39 -29.5t-45 -26t-35.5 -11
q-16 0 -17 19q0 8 3 21t8 27l164 465q15 43 15 54q0 9 -8 9q-3 0 -9 -2.5t-12 -5.5l-11 -5.5t-7 -2.5q-9 0 -9 10q0 6 15.5 19t36 25.5t41.5 22t32 9.5z" />
    <glyph glyph-name="U" unicode="U" horiz-adv-x="892" 
d="M264 354q0 -16 -21 -16q-112 0 -167.5 40.5t-55.5 128.5q0 60 36.5 105.5t92.5 76t123.5 46t129.5 15.5q44 0 92 -4.5t88 -13.5t66 -23t26 -34q0 -17 -21 -78l-131 -381q-14 -42 -21.5 -68.5t-7.5 -43.5q0 -62 62 -62q63 0 141 66l173 489q15 42 15 54q0 9 -8 9t-20 -8
t-19 -8q-9 0 -9 10q0 7 16 19.5t37 25t42 22t30 9.5q12 0 12 -14q0 -11 -17 -62l-180 -514q-16 -44 -16 -53q0 -15 11 -15q6 0 13.5 4t15 9.5t14 9.5t10.5 4q8 0 8 -11q0 -9 -17.5 -23.5t-40.5 -29t-45.5 -25t-32.5 -10.5q-17 0 -17 19q0 2 1.5 12t6.5 27q-79 -58 -161 -58
q-24 0 -40 9t-26 23.5t-14.5 31t-4.5 31.5q0 35 11 63t21 57l129 382q4 12 6 24.5t2 26.5q0 20 -19 33.5t-48.5 21.5t-65 11t-67.5 3q-54 0 -110 -12.5t-102.5 -38.5t-76 -65.5t-29.5 -92.5q0 -138 164 -138q16 0 16 -16z" />
    <glyph glyph-name="V" unicode="V" horiz-adv-x="931" 
d="M578 -17q-129 0 -129 139q0 50 28 131l117 344q4 12 6 24.5t2 26.5q0 20 -19 33.5t-48.5 21.5t-65 11t-67.5 3q-53 0 -109.5 -12t-103 -37.5t-76 -65t-29.5 -94.5q0 -138 164 -138q16 0 16 -16t-21 -16q-223 0 -223 169q0 60 36 105.5t91.5 76t123 46t131.5 15.5
q37 0 84 -3.5t89 -12.5t70.5 -23.5t28.5 -35.5q0 -17 -21 -78l-119 -343q-12 -36 -18.5 -66.5t-6.5 -56.5q0 -27 3 -47.5t12 -33.5t26 -19.5t44 -6.5q29 0 63.5 23t69 61.5t67.5 90t58 107.5t40 113.5t15 109.5q0 39 -6 66t-13.5 47.5l-13.5 36.5t-6 32q0 36 28 36
q60 0 60 -110q0 -116 -21.5 -209.5t-56 -166t-77 -125.5t-84.5 -87t-79 -50t-60 -16z" />
    <glyph glyph-name="W" unicode="W" horiz-adv-x="1150" 
d="M685 27q-58 -44 -107 -44q-129 0 -129 139q0 50 28 131l117 344q4 12 6 24.5t2 26.5q0 20 -19.5 33.5t-49.5 21.5t-65 11t-66 3q-55 0 -111.5 -13t-102.5 -39.5t-75 -65.5t-29 -91q0 -138 164 -138q16 0 16 -16t-21 -16q-223 0 -223 169q0 40 17 74t46 61t67 47
t80.5 33.5t86.5 20.5t85 7q40 0 87.5 -4t88.5 -13t68.5 -23t27.5 -35q0 -17 -21 -78l-119 -343q-12 -36 -18.5 -66.5t-6.5 -56.5q0 -27 3 -47.5t12 -33.5t26 -19.5t44 -6.5q32 0 75 34q-5 15 -7.5 32.5t-2.5 31.5q0 50 28 131l76 223q15 43 15 54q0 9 -8 9q-9 0 -20 -8
t-19 -8q-9 0 -9 10q0 7 16.5 20t37.5 25.5t41.5 21.5t29.5 9q12 0 12 -14q0 -6 -4 -21t-13 -41l-96 -285q-25 -72 -25 -122q0 -49 17.5 -75.5t65.5 -26.5q26 0 59 21t67.5 58t68 86t60 105t42.5 116t16 119q0 38 -6 65.5t-13.5 48l-13.5 36.5t-6 32q0 36 28 36q60 0 60 -110
q0 -106 -19.5 -196t-51.5 -162.5t-73 -128t-83 -92.5t-81.5 -56t-69.5 -19q-67 0 -103 44z" />
    <glyph glyph-name="X" unicode="X" horiz-adv-x="828" 
d="M610 396q32 2 56.5 14.5t44.5 26.5q9 0 9 -14q0 -9 -10 -20t-25 -21.5t-33 -19t-33 -12.5l56 -266q2 -12 8.5 -18t14.5 -6q6 0 15 6.5t17.5 14l15.5 14t10 6.5q17 0 17 -16q0 -6 -15.5 -23t-36 -35.5t-41 -32.5t-30.5 -14q-20 0 -28 38l-56 314l-75 -132
q-68 -121 -125 -172q-56 -48 -122 -48q-36 0 -37 31q0 31 36 31q4 0 13 -2t19 -2q20 0 40 6.5t34 17.5q25 18 55 59.5t67 106.5l68 121q-30 0 -60 -20l-30 -20q-11 0 -11 11q0 6 10.5 18.5t27 25.5t37 23t40.5 10l-24 106q-11 49 -28 88.5t-43 67.5t-63 43t-89 15
q-44 0 -84 -15t-70.5 -43t-49 -66.5t-18.5 -84.5q0 -138 164 -138q16 0 16 -16t-21 -16q-223 0 -223 169q0 55 24 100t64 76.5t91.5 49t106.5 17.5q208 0 268 -213l24 -85l45 81q24 42 49.5 81.5t55.5 69.5t65 48t76 18q37 0 37 -31t-36 -31q-11 0 -18.5 1t-13.5 1
q-29 0 -54 -12.5t-48 -36.5t-46 -58.5t-47 -77.5l-55 -98z" />
    <glyph glyph-name="Y" unicode="Y" horiz-adv-x="887" 
d="M702 71q-97 -71 -184 -71q-38 0 -61.5 27t-23.5 68q0 11 3 26.5t7 32t9 32.5t10 29l132 382q4 12 6 24.5t2 26.5q0 20 -19 33.5t-48.5 21.5t-65 11t-67.5 3q-59 0 -116 -13t-102 -39.5t-72.5 -65.5t-27.5 -91q0 -138 164 -138q16 0 16 -16t-21 -16q-223 0 -223 169
q0 60 35 105.5t90 76t123 46t134 15.5q37 0 84 -3.5t89 -12.5t70.5 -23.5t28.5 -35.5q0 -17 -21 -78l-131 -381q-29 -85 -29 -112q0 -62 62 -62q63 0 141 66l67 187.5l106 301.5q15 42 15 54q0 9 -8 9q-3 0 -8.5 -2.5l-11.5 -5.5l-11.5 -5.5t-7.5 -2.5q-9 0 -9 10q0 7 16 20
t37.5 25.5t42 21.5t29.5 9q12 0 12 -14q0 -11 -17 -62l-189 -546q5 -28 8 -54.5t3 -53.5q0 -58 -21 -103t-58.5 -75.5t-89.5 -46.5t-115 -16q-64 0 -111 14t-78 34t-46.5 42t-15.5 37q0 31 33 31q20 0 38 -40q39 -88 179 -88q224 0 224 204q0 46 -7 78z" />
    <glyph glyph-name="Z" unicode="Z" horiz-adv-x="718" 
d="M494 395q17 0 31.5 2.5t28 7.5t27.5 13t31 19q9 0 9 -14q0 -12 -15.5 -26t-37 -26t-44 -20t-37.5 -8q-8 0 -18.5 0.5t-18.5 2.5l-253 -278q37 0 70 -9t63.5 -19.5t60 -19.5t60.5 -9q44 0 80.5 12.5t62 34t39.5 49.5t14 59q0 7 -4 18.5t-4 22.5q0 44 32 45q27 0 27 -49
q0 -34 -18.5 -75.5t-55.5 -78t-91.5 -61t-126.5 -24.5q-47 0 -81 7t-62 15l-54 15t-56 7q-7 0 -16.5 -1.5t-18.5 -1.5q-14 0 -14 9q0 2 19 22l282 313h-20q-9 0 -22.5 -6.5t-26.5 -14l-23 -13.5t-11 -6q-11 0 -11 11q0 7 11.5 20t28 26t36 22.5t36.5 9.5q6 0 19 -1.5
t26 -1.5l174 194q10 11 13.5 16.5t3.5 7.5q0 24 -25.5 43t-62 32.5t-77.5 21t-72 7.5q-57 0 -113.5 -13t-102 -39.5t-74 -65.5t-28.5 -91q0 -138 164 -138q16 0 16 -16t-21 -16q-223 0 -223 169q0 41 17 75.5t46 61.5t67 47t80.5 33t86.5 19.5t85 6.5q25 0 58 -4t67 -11
t67 -17t58.5 -21.5t41.5 -25t16 -27.5q0 -12 -19 -32l-197 -217v0z" />
    <glyph glyph-name="bracketleft" unicode="[" horiz-adv-x="288" 
d="M-42 -130q0 17 10 44l281 816q12 36 22 43q5 3 17.5 5t27.5 2h52q34 0 36 -21q0 -18 -36 -18h-40q-14 0 -32 -49l-257 -740q-13 -36 -13 -52q0 -19 17 -19h36q36 0 36 -20q0 -19 -36 -19h-59q-28 0 -45 4.5t-17 23.5z" />
    <glyph glyph-name="backslash" unicode="\" horiz-adv-x="316" 
d="M160 765q15 0 21 -13t7 -21l108 -743q2 -8 2.5 -14.5t0.5 -8.5q0 -6 -7 -8.5t-13 -2.5q-11 0 -20.5 13t-11.5 27l-105 718l-3 21.5t-1 9.5q0 9 7 15.5t15 6.5z" />
    <glyph glyph-name="bracketright" unicode="]" horiz-adv-x="288" 
d="M258 761q0 19 36 19h59q28 0 45 -4.5t17 -23.5q0 -15 -10 -44l-281 -816q-6 -17 -11.5 -27t-13 -15t-17.5 -6.5t-25 -1.5h-52q-36 0 -36 21q0 18 36 18h40q14 0 32 49l257 740q13 36 13 52q0 19 -17 19h-36q-36 0 -36 20z" />
    <glyph glyph-name="asciicircum" unicode="^" horiz-adv-x="500" 
d="M275 750q14 -35 30.5 -64t38 -55.5t48 -51t59.5 -48.5v-46q-18 5 -45.5 19t-56.5 32.5t-56 39t-43 40.5q-32 -35 -80 -71t-122 -60v46q64 46 108 98.5t68 120.5h51z" />
    <glyph glyph-name="underscore" unicode="_" horiz-adv-x="500" 
d="M500 -199v-51h-500v51h500z" />
    <glyph glyph-name="grave" unicode="`" horiz-adv-x="265" 
d="M214 466q9 -8 13 -14t5 -11q0 -14 -10 -14q-8 0 -20 8l-121 75q-19 13 -21 48q0 24 14 24q7 0 25 -15z" />
    <glyph glyph-name="a" unicode="a" horiz-adv-x="425" 
d="M260 41q-56 -56 -141 -56q-111 0 -111 91q0 22 9.5 47.5t24.5 49.5t35 43.5t41 29.5q-3 12 -3 23q0 24 12.5 46t34 38.5t49.5 26.5t60 10q117 0 117 -114q0 -17 -12 -50l-56 -153q-8 -22 -8 -24q0 -12 12 -12q3 0 10.5 3.5l15.5 7t14.5 7t9.5 3.5q8 0 8 -10
q0 -9 -12.5 -18.5t-29.5 -18t-34.5 -13.5t-26.5 -5q-23 0 -23 22q0 11 4 26zM249 274q-36 0 -68 -18.5t-56.5 -46.5t-39 -60.5t-14.5 -60.5q0 -35 10.5 -53t48.5 -18q36 0 69.5 19t58.5 49t40 66t15 70q0 53 -64 53zM165 276q44 25 97 25q26 0 42.5 -8t31.5 -25q2 8 3 14
t1 11q0 30 -21 48.5t-55 18.5q-42 0 -69.5 -25t-29.5 -59z" />
    <glyph glyph-name="b" unicode="b" horiz-adv-x="391" 
d="M146 315q70 75 147 75q79 0 79 -98q0 -45 -22.5 -99t-59.5 -100t-85 -77t-98 -31q-35 0 -60 21t-25 57q0 45 24 114l141 404q17 49 17 59q0 9 -8 9t-20.5 -9t-18.5 -9q-11 0 -11 11q0 7 14.5 19t34 22.5t38.5 18.5t29 8q15 0 16 -14q0 -9 -9 -34l-123 -347v0zM79 77
q0 -59 49 -59q38 0 71.5 28t58 68.5t39 85.5t14.5 80q0 63 -51 63q-36 0 -69 -26.5t-57.5 -66.5t-39.5 -86.5t-15 -86.5z" />
    <glyph glyph-name="c" unicode="c" horiz-adv-x="345" 
d="M251 390q17 0 35.5 -2.5t34 -7t25.5 -12.5t10 -18q0 -33 -23 -33q-21 0 -34 19q-14 21 -59 21q-38 0 -68 -21t-51 -53t-32.5 -72t-11.5 -77q0 -23 4.5 -44.5t14.5 -37.5t26 -25.5t39 -9.5q13 0 28 5t29.5 13t26.5 19t18 23q15 28 27 28q8 0 8 -13q0 -16 -11.5 -34.5
t-32 -34.5t-48.5 -27t-61 -11q-27 0 -50.5 10.5t-41 29t-27 43t-9.5 52.5q0 52 20.5 101t53.5 86.5t75 60t85 22.5z" />
    <glyph glyph-name="d" unicode="d" horiz-adv-x="434" 
d="M269 66q-63 -81 -154 -81q-46 0 -72 29t-26 76q0 46 24 98.5t62 97.5t86.5 74.5t98.5 29.5q43 0 74 -53l84 244q8 25 12 39.5t5 19.5q0 9 -8 9t-20.5 -9t-18.5 -9q-11 0 -11 11q0 8 14.5 19.5t34 22.5t38.5 18.5t29 7.5q16 0 16 -14q0 -9 -9 -34l-192 -540
q-17 -49 -17 -59q0 -9 8 -9t20.5 9t18.5 9q11 0 11 -11q0 -6 -13 -17.5t-31 -22.5t-36 -19.5t-28 -8.5q-16 0 -16 14q0 11 8 34zM277 357q-39 0 -74.5 -26t-62 -64t-42 -81.5t-15.5 -79.5q0 -81 52 -81q38 0 72.5 27t61 66t42.5 83t16 79q0 28 -12 52.5t-38 24.5z" />
    <glyph glyph-name="e" unicode="e" horiz-adv-x="358" 
d="M80 98q9 -80 81 -80q66 0 113 44q16 16 20 16q11 0 11 -12q0 -9 -13 -22q-57 -59 -147 -59q-63 0 -95.5 36t-32.5 99q0 49 19 97.5t51.5 87t74.5 62t89 23.5q91 0 91 -82q0 -40 -22.5 -77.5t-59.5 -67t-84 -47.5t-96 -18zM77 125q42 0 80 12.5t67 35t46.5 53.5t17.5 69
q0 62 -48 62q-38 0 -68 -20.5t-51 -53t-32.5 -72t-11.5 -77.5v-9v0z" />
    <glyph glyph-name="f" unicode="f" horiz-adv-x="240" 
d="M159 434q38 139 107 202q54 49 115 49q45 0 46 -20q0 -21 -25 -21q-10 0 -19 4.5t-17 4.5q-51 0 -81 -40q-37 -54 -83 -219l-8 -29h4q20 0 33 4.5t21.5 9.5t13 9.5t6.5 4.5q11 0 11 -11q0 -9 -10 -20.5t-25.5 -21.5t-33.5 -16.5t-34 -6.5l-84 -305q-14 -49 -35 -95.5
t-49 -82.5t-62.5 -57.5t-75.5 -21.5q-44 0 -45 20q0 21 24 21q12 0 19.5 -4.5t16.5 -4.5q92 0 149 204l44.5 163.5l44.5 164.5q-14 0 -24.5 -1.5t-19.5 -4.5t-17.5 -8.5t-18.5 -13.5q-11 0 -11 11q0 9 9.5 20t25 21t34 17t36.5 7z" />
    <glyph glyph-name="g" unicode="g" horiz-adv-x="363" 
d="M317 363q25 14 25 28q0 3 -5 7t-11.5 8.5t-11.5 8.5t-5 8q0 11 12 21.5t22 10.5q14 0 26.5 -17t12.5 -33q0 -32 -47 -61q21 -29 21 -65q0 -38 -14 -74.5t-39 -65.5t-58 -47t-72 -18q-44 0 -76 13l-50 -61q18 2 40 3.5t48 1.5q146 0 146 -103q0 -30 -18 -55t-45.5 -44
t-61.5 -29.5t-66 -10.5q-26 0 -50.5 5t-43.5 15t-30.5 26t-11.5 39q0 53 54 97q-5 -1 -10.5 -1.5t-10.5 -0.5q-19 0 -19 9q0 7 27 37l77 87q-35 30 -35 88q0 41 18 77.5t46.5 63.5t64 43t70.5 16q49 0 81 -27zM230 357q-32 0 -57 -12t-42.5 -33.5t-27 -50.5t-9.5 -62
q0 -19 6 -36t17 -30t26.5 -21t35.5 -8q31 0 55 14.5t40 36.5t24 48t8 50q0 48 -22 76t-54 28zM111 -19q-23 0 -43 -7.5t-34.5 -21t-23 -31.5t-8.5 -39q0 -15 8 -27t21 -20t29.5 -12t33.5 -4q28 0 53.5 7t44.5 19.5t30 30t11 39.5q0 66 -122 66z" />
    <glyph glyph-name="h" unicode="h" horiz-adv-x="431" 
d="M277 710q16 0 16 -14q0 -9 -9 -34l-125 -352q69 80 152 80q102 0 102 -111q0 -60 -26.5 -114.5t-65.5 -95.5t-84.5 -65t-83.5 -24q-40 0 -40 22q0 25 26 25q15 0 26.5 -1.5t20.5 -1.5q19 0 46.5 19.5t52.5 51t42.5 72t17.5 82.5q0 95 -73 95q-17 0 -38.5 -11.5t-42 -29.5
t-37.5 -39t-24 -40l-70 -186q-6 -17 -19 -31t-31 -14q-9 0 -11 8q0 8 11 37l196 543q15 40 15 59q0 9 -10 9q-8 0 -20.5 -9t-18.5 -9q-11 0 -11 11q0 7 14.5 19t34 22.5t39 18.5t28.5 8z" />
    <glyph glyph-name="i" unicode="i" horiz-adv-x="187" 
d="M149 390q18 0 18 -14q0 -9 -9 -34l-82 -226q-8 -23 -12 -36.5t-5 -16.5q0 -9 8 -9t21 9t18 9q11 0 11 -11q0 -6 -14 -17.5t-33 -23t-37 -19.5t-26 -8q-14 0 -16 14q0 10 8 34l79 220q16 44 16 59q0 9 -11 9q-8 0 -21 -9t-18 -9q-11 0 -11 11q0 7 14 18.5t33 22.5t38.5 19
t30.5 8zM214 585q8 0 15 -16.5t7 -34.5q0 -15 -8 -32.5t-21 -32.5t-28 -24.5t-30 -9.5q-12 0 -12 8q0 9 10 12q30 7 30 44q0 9 -3 14.5t-6 8.5t-6 5t-3 6q0 5 25 29q25 23 30 23z" />
    <glyph glyph-name="j" unicode="j" horiz-adv-x="170" 
d="M-179 -201q100 0 189 246l77 216q16 44 16 59q0 9 -11 9q-6 0 -21 -9t-18 -9q-11 0 -11 11q0 13 48 40q47 28 68 28q18 0 18 -14q0 -9 -9 -34l-105 -293q-62 -171 -150 -240q-48 -37 -86 -37q-22 0 -22 12q0 15 17 15zM177 522q-9 6 -9 11t25 29q26 23 30 23q7 0 14 -14
q6 -10 8 -30q0 -42 -33 -76q-27 -27 -52 -30q-12 -1 -14 8q0 9 10 12q30 7 30 44q0 15 -9 23z" />
    <glyph glyph-name="k" unicode="k" horiz-adv-x="395" 
d="M86 120l-29 -82q-5 -16 -18.5 -30.5t-31.5 -14.5q-11 0 -11 8q0 4 11 37l196 543q15 40 15 59q0 9 -10 9q-4 0 -9.5 -3l-11 -6l-10.5 -6t-8 -3q-11 0 -11 11q0 7 14.5 19t34 22.5t39 18.5t28.5 8q16 0 16 -14q0 -9 -9 -34l-176 -490l153 134q41 35 74.5 54.5t56.5 19.5
q28 0 28 -23q0 -19 -17 -21l-42 -4q-17 -2 -40.5 -15.5t-43.5 -30.5l-63 -56l70 -159q14 -29 26 -29q5 0 10.5 3.5t11 8t10.5 8t8 3.5q12 0 12 -17q0 -5 -9.5 -14t-23 -18t-28.5 -16t-25 -7q-19 0 -34 35l-69 165z" />
    <glyph glyph-name="l" unicode="l" horiz-adv-x="180" 
d="M268 710q18 0 18 -14q0 -9 -9 -34l-196 -546q-17 -48 -17 -53q0 -9 8 -9q4 0 9.5 3l11.5 6t10.5 6t7.5 3q11 0 11 -11q0 -6 -13.5 -17t-31.5 -22.5t-36.5 -20t-28.5 -8.5q-16 0 -16 14q0 10 8 34l193 540q16 43 16 59q0 9 -11 9q-3 0 -9 -3l-12 -6t-11 -6t-7 -3
q-11 0 -11 11q0 7 14.5 19t34 22.5t39 18.5t28.5 8z" />
    <glyph glyph-name="m" unicode="m" horiz-adv-x="555" 
d="M182 390q16 0 16 -14q0 -22 -17 -55q9 10 30 22t47 22.5t53 17.5t48 7q25 0 25 -14q0 -11 -6 -27q65 41 127 41q37 0 37 -42q0 -23 -15 -60l-82 -210q-10 -25 -10 -29q0 -12 12 -12q4 0 11 3.5l14.5 7l14.5 7t10 3.5q8 0 8 -10q0 -7 -11 -16.5t-26.5 -18t-33.5 -14.5
t-32 -6q-23 0 -23 22q0 14 16 58l75 209q10 27 10 40q0 21 -25 21q-20 0 -43.5 -8.5t-51.5 -28.5l-107 -268q-7 -17 -19.5 -31t-32.5 -14q-10 0 -10 8q0 3 2.5 12.5t8.5 24.5l82 224q23 64 23 67q0 14 -16 14q-23 0 -69 -27q-60 -37 -79 -85l-76 -193q-7 -17 -19.5 -31
t-32.5 -14q-10 0 -10 8q0 3 2.5 12.5t8.5 24.5l82 224q19 50 19 58q0 9 -8 9q-4 0 -9.5 -3l-11 -6l-10.5 -6t-8 -3q-11 0 -11 11q0 7 14 18.5t33.5 22.5t40.5 19t35 8z" />
    <glyph glyph-name="n" unicode="n" horiz-adv-x="400" 
d="M208 376q0 -22 -17 -55q19 16 42.5 29t47 22t44 13.5t35.5 4.5q37 0 37 -42q0 -23 -15 -60l-84 -215q-8 -20 -8 -24q0 -12 12 -12q3 0 10.5 3.5l15 7l14.5 7t10 3.5q8 0 8 -10q0 -9 -12.5 -18.5t-29.5 -17.5t-34.5 -13.5t-26.5 -5.5q-23 0 -23 22q0 14 16 58l75 209
q10 27 10 40q0 22 -25 22q-20 0 -44 -10t-46.5 -26.5t-40.5 -36.5t-26 -40l-76 -193q-5 -13 -13 -24q-14 -19 -38 -21q-9 0 -11 8q0 6 11 37l82 224q19 50 19 58q0 9 -8 9t-20.5 -9t-18.5 -9q-11 0 -11 11q0 7 13.5 18.5t33 22.5t40.5 19t36 8q16 0 16 -14z" />
    <glyph glyph-name="o" unicode="o" horiz-adv-x="416" 
d="M261 390q30 0 54.5 -10.5t41.5 -29.5t26.5 -44t9.5 -54q0 -47 -18 -94.5t-49.5 -85.5t-75.5 -62.5t-95 -24.5q-29 0 -52.5 10.5t-40 29t-26 43t-9.5 52.5q0 53 20.5 101.5t53.5 86t75 60t85 22.5zM250 357q-37 0 -67 -20t-51.5 -51.5t-33 -71t-11.5 -78.5q0 -24 4.5 -45
t15 -37.5t26 -26t38.5 -9.5q39 0 69 21t50.5 53.5t31.5 72.5t11 78q0 21 -4.5 41.5t-14.5 36.5t-26 26t-38 10z" />
    <glyph glyph-name="p" unicode="p" horiz-adv-x="400" 
d="M172 321q63 69 137 69q79 0 79 -98q0 -27 -10 -60t-28 -67.5t-42.5 -66.5t-54 -57.5t-63.5 -40.5t-69 -15q-48 0 -62 26l-30 -71q-36 -86 -74 -128.5t-75 -42.5q-20 0 -20 9q0 16 21 16q25 0 51 39.5t52 115.5l106 312q8 25 12 39.5t5 19.5q0 9 -8 9t-21 -9t-18 -9
q-11 0 -11 11q0 7 14.5 19t34 22.5t40.5 18.5t34 8q16 0 16 -14q0 -8 -4.5 -23t-12.5 -32h1zM276 344q-38 0 -71.5 -29t-58 -70.5t-39 -87.5t-14.5 -80q0 -60 50 -60q28 0 60.5 23t60 60.5t45.5 84.5t18 95q0 64 -51 64z" />
    <glyph glyph-name="q" unicode="q" horiz-adv-x="404" 
d="M362 337q31 49 53 49q8 0 8 -9q0 -5 -16 -38t-40 -101l-127 -356q-8 -21 -11 -33.5l-4 -16.5q0 -9 8 -9q3 0 8.5 3t12 6t11.5 6t7 3q11 0 11 -11q0 -6 -14 -17.5t-32.5 -23t-36.5 -19.5t-25 -8q-14 0 -16 14q0 10 8 34l84 237q-62 -62 -136 -62q-46 0 -72 29t-26 76
q0 53 26.5 106.5t66.5 96.5t87.5 70t90.5 27t74 -53zM277 357q-42 0 -77.5 -27t-61.5 -66t-40.5 -82t-14.5 -76q0 -81 52 -81q29 0 55 14.5t47.5 37t38 51t28 57t17.5 53.5t6 42q0 28 -12 52.5t-38 24.5z" />
    <glyph glyph-name="r" unicode="r" horiz-adv-x="276" 
d="M157 259q51 67 96.5 99t64.5 32q20 0 20 -25q0 -18 -28 -28q-31 -11 -61.5 -31t-57.5 -45.5t-47.5 -55t-32.5 -59.5l-42 -108q-7 -18 -19 -31.5t-32 -13.5q-11 0 -11 8q0 3 2.5 12.5t8.5 24.5l82 224q19 50 19 58q0 9 -8 9q-9 0 -21 -9t-18 -9q-11 0 -11 11
q0 9 15.5 20.5t36 22t41 18t30.5 7.5q16 0 16 -14q0 -13 -24 -70l-20 -47h1z" />
    <glyph glyph-name="s" unicode="s" horiz-adv-x="329" 
d="M50 158q-9 -13 -15.5 -30.5t-6.5 -38.5q0 -35 26.5 -56t64.5 -21q112 0 112 101q0 38 -56 97q-56 58 -56 105q0 32 23 53.5t57 21.5q30 0 46.5 -7t18.5 -7q4 0 9.5 7t11.5 7q8 0 12 -17t4 -46q0 -53 -11 -53q-13 0 -13 23q0 13 -5 26t-14 23t-21.5 16t-26.5 6
q-42 0 -42 -38q0 -23 29 -55l54 -59q13 -14 21 -37t8 -43q0 -71 -45.5 -109.5t-120.5 -38.5q-26 0 -49 6t-40.5 19t-28 31.5t-10.5 44.5q0 13 4 26.5t10.5 25t15.5 19t18 7.5q14 0 16 -9z" />
    <glyph glyph-name="t" unicode="t" horiz-adv-x="219" 
d="M128 332q-13 0 -25.5 -6t-29.5 -18q-9 0 -9 10q0 7 8 16.5t20 17.5t25 14t23 6l36 99q16 42 16 59q0 9 -11 9q-4 0 -9.5 -3l-11.5 -6t-11 -6t-7 -3q-11 0 -11 11q0 6 14 17.5t33 23t38.5 19.5t30.5 8q18 0 18 -14q0 -9 -9 -34l-32 -89.5l-33 -90.5h11q29 0 47 12
q15 12 17 12q9 0 9 -10q0 -8 -8.5 -18t-22 -18t-29 -13.5t-28.5 -5.5h-10l-77 -215q-17 -48 -17 -53q0 -9 8 -9q4 0 9.5 3l11 6l10.5 6t8 3q11 0 11 -11q0 -6 -14 -17.5t-32.5 -23t-37 -19.5t-26.5 -8q-14 0 -16 14q0 10 8 34l105 291v0z" />
    <glyph glyph-name="u" unicode="u" horiz-adv-x="390" 
d="M171 390q16 0 16 -14q0 -10 -4.5 -24t-11.5 -31l-89 -228q-9 -24 -9 -40q0 -22 21 -22t45.5 9.5t47 25t40 36t26.5 42.5l79 201q3 8 5.5 14t5.5 10q2 3 7.5 6.5l11.5 7t12.5 5.5t10.5 2q11 0 11 -8q0 -4 -12 -37l-95 -252l-10.5 -29t-3.5 -13q0 -12 10 -12q7 0 14.5 3.5
l14.5 7t12.5 7t8.5 3.5q10 0 10 -10q0 -9 -13 -19t-31 -18t-36.5 -13t-29.5 -5q-19 0 -19 20q0 14 2.5 24t7.5 23q-16 -16 -35 -29t-45 -24q-53 -24 -100 -24q-34 0 -35 42q0 25 13 60l80 213q6 16 6 20q0 9 -8 9q-3 0 -9.5 -3l-13 -6t-12 -6t-7.5 -3q-11 0 -11 11
q0 9 14.5 20.5t34.5 22t40.5 18t32.5 7.5z" />
    <glyph glyph-name="v" unicode="v" horiz-adv-x="396" 
d="M166 334q62 56 132 56q86 0 86 -116q0 -46 -20 -97t-56 -93.5t-85.5 -70.5t-107.5 -28q-88 0 -88 99q0 37 19 87l38 102q15 40 15 47q0 9 -8 9q-11 0 -21.5 -9t-18.5 -9q-11 0 -11 11q0 7 14 18.5t33.5 22.5t40 19t34.5 8q16 0 16 -14q0 -17 -12 -42zM92 150
q-13 -32 -13 -67q0 -67 56 -67q43 0 77.5 25.5t59.5 63t38.5 81.5t13.5 80q0 16 -3.5 31.5t-11 28t-18.5 20t-27 7.5q-20 0 -41 -11t-40.5 -28.5t-34.5 -38.5t-23 -41l-33 -84v0z" />
    <glyph glyph-name="w" unicode="w" horiz-adv-x="572" 
d="M166 334q65 56 132 56q41 0 41 -32q0 -4 -3 -28q64 60 138 60q86 0 86 -116q0 -41 -18.5 -91t-53 -94t-84.5 -74t-113 -30q-62 0 -83 58q-48 -58 -115 -58q-36 0 -54.5 26.5t-18.5 64.5q0 27 26 95l38 102q15 40 15 47q0 9 -8 9q-9 0 -21 -9t-19 -9q-11 0 -11 11
q0 7 13.5 18.5t33 22.5t40 19t35.5 8q16 0 16 -14q0 -17 -12 -42zM201 81q0 33 21 90l38 102q8 20 13.5 35t5.5 17q0 28 -15 28q-20 0 -41.5 -10.5t-40 -27.5t-34 -38.5t-23.5 -42.5l-33 -85q-11 -29 -16 -47.5t-5 -30.5q0 -55 39 -55q12 0 26.5 6t27.5 15t23 20.5t14 23.5z
M268 150q-13 -32 -13 -74q0 -23 15.5 -41.5t40.5 -18.5q43 0 78 25.5t60 63t38 81.5t13 80q0 16 -3.5 31.5t-11 28t-18.5 20t-27 7.5q-20 0 -41 -11t-40.5 -28.5t-34.5 -38.5t-23 -41l-33 -84v0z" />
    <glyph glyph-name="x" unicode="x" horiz-adv-x="367" 
d="M162 390q15 0 20 -24l21 -105l6 10q71 119 153 119q28 0 28 -23q0 -20 -26 -20q-7 0 -11.5 1t-15.5 1q-49 0 -111 -101l-15 -25l29 -147q6 -29 21 -29q6 0 12 4.5t12 9.5l11 9.5t8 4.5q12 0 12 -15q0 -5 -10.5 -16.5t-25 -22.5t-30 -19.5t-25.5 -8.5q-22 0 -31 43
l-24 119l-27 -43q-19 -31 -35.5 -53.5t-34 -37t-38 -21.5t-46.5 -7q-28 0 -28 23q0 20 26 20q3 0 10 -1t17 -1q52 0 111 98l37 61l-24 117q-6 32 -17 32q-14 0 -29.5 -8t-20.5 -8q-11 0 -11 14q0 5 13 13.5t30.5 16.5t34 14t24.5 6z" />
    <glyph glyph-name="y" unicode="y" horiz-adv-x="388" 
d="M236 63q-14 -16 -36.5 -30t-47.5 -24.5t-50.5 -17t-46.5 -6.5q-35 0 -35 42q0 25 13 60l80 213q6 13 6 20q0 9 -8 9q-4 0 -10 -3l-12.5 -6t-11.5 -6t-8 -3q-11 0 -11 11q0 7 14 19t33.5 22.5t40.5 18.5t34 8q16 0 16 -16t-14 -50l-91 -231q-9 -23 -9 -40q0 -22 21 -22
q20 0 44 9t46.5 24.5t41 36t27.5 43.5l79 201q8 22 18 31q7 5 19.5 9.5t15.5 4.5q10 0 11 -8q0 -2 -3.5 -13.5t-8.5 -23.5l-104 -275q1 -9 1.5 -28t0.5 -48q0 -49 -15.5 -90t-44 -71t-68 -46.5t-87.5 -16.5q-41 0 -72 9.5t-52 23.5t-31.5 29.5t-10.5 28.5q0 28 26 28
q12 0 22 -13.5t24 -29t36.5 -29t60.5 -13.5q160 0 160 190q0 45 -3 69z" />
    <glyph glyph-name="z" unicode="z" horiz-adv-x="350" 
d="M146 193q-17 0 -29 -4.5t-20 -9.5t-12.5 -9.5t-6.5 -4.5q-6 0 -6 11q0 10 9.5 21.5t24 21.5t31.5 16t33 6h21l83 88q-6 0 -22.5 2t-34.5 4.5t-34 4.5t-22 2q-18 0 -33.5 -3.5t-29.5 -10.5q-20 -10 -29.5 -23t-14.5 -13q-12 0 -12 7q0 10 11.5 26t31 30t43.5 24.5t50 10.5
q44 0 74 -7.5t53 -7.5q8 0 16.5 1.5t11.5 1.5q16 0 16 -9q0 -4 -12 -17l-107 -113q19 0 32 4.5t21.5 9.5t13 9.5t6.5 4.5q8 0 8 -11q0 -6 -9.5 -16.5t-24.5 -21.5t-32.5 -19t-33.5 -8h-26l-121 -128q6 0 21 -5l34.5 -11.5t41.5 -11.5t42 -5q14 0 30 6.5t31 16t28 20.5t21 21
q9 0 9 -10q0 -11 -12 -28t-32.5 -32.5t-46 -27t-52.5 -11.5q-19 0 -43 4t-47.5 10t-44 12.5l-32.5 10.5q-19 0 -19 8q0 7 10.5 15t18.5 16l124 132v0z" />
    <glyph glyph-name="braceleft" unicode="{" horiz-adv-x="444" 
d="M499 732l-39 -15q-32 -13 -55 -40.5t-33 -56.5q-9 -25 -14.5 -57l-11 -63.5t-11 -60t-14.5 -46.5q-30 -63 -112 -100l-62 -28l35 -19q79 -43 79 -115q0 -30 -9.5 -61.5t-21.5 -63t-21.5 -62t-9.5 -57.5q0 -33 18.5 -57.5t62.5 -40.5l-6 -25l-36 6q-26 4 -50.5 16
t-43.5 29t-30.5 39t-11.5 47q0 35 12 68t26.5 65t26.5 63t12 61q0 37 -22 57t-61 35l5 25l52 27q35 18 56.5 41.5t28.5 52.5q3 12 5.5 39t5 58t6 60t8.5 45q20 68 84 106.5t157 52.5z" />
    <glyph glyph-name="bar" unicode="|" horiz-adv-x="500" 
d="M275 -250h-51v1000h51v-1000z" />
    <glyph glyph-name="braceright" unicode="}" horiz-adv-x="444" 
d="M-499 -211l39 15q15 6 29 16.5t25.5 23.5t20 28t13.5 29q10 28 15.5 60l10.5 62.5t10.5 57.5t14.5 47q30 63 112 100l62 28l-35 19q-79 43 -79 115q0 33 9.5 64t21.5 61t21.5 59.5t9.5 59.5q0 33 -18.5 57.5t-62.5 40.5l6 25l36 -6q24 -4 48 -15t43.5 -28.5t32 -39.5
t12.5 -48q0 -35 -12 -68t-26.5 -65t-26.5 -63t-12 -61q0 -37 22 -57t61 -35l-5 -25l-52 -27q-69 -36 -85 -94q-3 -12 -5.5 -39t-5 -58t-6 -60t-8.5 -45q-22 -66 -84 -106t-157 -53z" />
    <glyph glyph-name="asciitilde" unicode="~" horiz-adv-x="1000" 
d="M810 320l-13 -27q-23 -48 -61 -70.5t-85 -22.5q-18 0 -49 4.5t-71 15.5l-110 30q-58 16 -89 16q-52 0 -111 -47l-16 -13l-16 16l24 33q28 38 64.5 61t82.5 23q22 0 48.5 -4t59.5 -14l87 -25q45 -13 74 -18t47 -5q59 0 99 44l18 20z" />
    <glyph glyph-name="quotedblbase" unicode="&#x201e;" horiz-adv-x="351" 
d="M-142 80q8 0 15 -15t7 -29q0 -16 -7 -34.5t-19 -34.5t-27.5 -26.5t-33.5 -10.5q-12 0 -12 8q0 9 10 12q30 7 30 44q0 9 -3 14t-6 8.5t-6 6t-3 5.5q0 2 7.5 10.5t17 17.5t18.5 16.5t12 7.5zM-17 80q8 0 15 -15t7 -29q0 -16 -7 -34.5t-19 -34.5t-27.5 -26.5t-33.5 -10.5
q-12 0 -12 8q0 9 10 12q30 7 30 44q0 9 -3 14t-6 8.5t-6 6t-3 5.5q0 2 7.5 10.5t17 17.5t18.5 16.5t12 7.5z" />
    <glyph glyph-name="ellipsis" unicode="&#x2026;" horiz-adv-x="555" 
d="M77 80q3 0 8 -7t9.5 -16.5t8 -18t3.5 -11.5q0 -5 -5 -12t-11.5 -13.5t-13.5 -11.5t-11 -5q-5 0 -10 6t-9 14t-7 16t-3 13q0 4 5 12t12 15.5t14 13t10 5.5zM242 80q3 0 8 -7t9.5 -16.5t8 -18t3.5 -11.5q0 -5 -5 -12t-11.5 -13.5t-13.5 -11.5t-11 -5q-5 0 -10 6t-9 14
t-7 16t-3 13q0 4 5 12t12 15.5t14 13t10 5.5zM407 80q3 0 8 -7t9.5 -16.5t8 -18t3.5 -11.5q0 -5 -5 -12t-11.5 -13.5t-13.5 -11.5t-11 -5q-5 0 -10 6t-9 14t-7 16t-3 13q0 4 5 12t12 15.5t14 13t10 5.5z" />
    <glyph glyph-name="quoteleft" unicode="&#x2018;" horiz-adv-x="225" 
d="M188 663q9 -5 9 -11q0 -3 -25 -28q-24 -24 -30 -24q-7 0 -14 13q-6 13 -8 31q0 41 33 76q27 27 52 30q14 2 14 -8q0 -9 -10 -12q-28 -7 -30 -44q0 -17 9 -23z" />
    <glyph glyph-name="quoteright" unicode="&#x2019;" horiz-adv-x="225" 
d="M197 750q8 0 15 -15t7 -29q0 -16 -7 -34.5t-19 -34.5t-27.5 -26.5t-33.5 -10.5q-12 0 -12 8q0 9 10 12q30 7 30 44q0 9 -3 14t-6 8.5t-6 6t-3 5.5q0 2 7.5 10.5t17 17.5t18.5 16.5t12 7.5z" />
    <glyph glyph-name="quotedblleft" unicode="&#x201c;" horiz-adv-x="351" 
d="M188 663q9 -5 9 -11q0 -3 -25 -28q-24 -24 -30 -24q-7 0 -14 13q-6 13 -8 31q0 41 33 76q27 27 52 30q14 2 14 -8q0 -9 -10 -12q-28 -7 -30 -44q0 -17 9 -23zM313 663q9 -5 9 -11q0 -3 -25 -28q-24 -24 -30 -24q-7 0 -14 13q-6 13 -8 31q0 41 33 76q27 27 52 30
q14 2 14 -8q0 -9 -10 -12q-28 -7 -30 -44q0 -17 9 -23z" />
    <glyph glyph-name="quotedblright" unicode="&#x201d;" horiz-adv-x="350" 
d="M322 750q8 0 15 -15t7 -29q0 -16 -7 -34.5t-19 -34.5t-27.5 -26.5t-33.5 -10.5q-12 0 -12 8q0 9 10 12q30 7 30 44q0 9 -3 14t-6 8.5t-6 6t-3 5.5q0 2 7.5 10.5t17 17.5t18.5 16.5t12 7.5zM197 750q8 0 15 -15t7 -29q0 -16 -7 -34.5t-19 -34.5t-27.5 -26.5t-33.5 -10.5
q-12 0 -12 8q0 9 10 12q30 7 30 44q0 9 -3 14t-6 8.5t-6 6t-3 5.5q0 2 7.5 10.5t17 17.5t18.5 16.5t12 7.5z" />
    <glyph glyph-name="bullet" unicode="&#x2022;" horiz-adv-x="498" 
d="M80 357q0 38 15 71t39.5 57.5t57.5 38.5t69 14q37 0 69.5 -14.5t57 -39t39 -57.5t14.5 -70t-14.5 -69.5t-39 -57t-57 -39t-69.5 -14.5q-36 0 -69 14t-58 38.5t-39.5 57.5t-14.5 70z" />
    <glyph glyph-name="trademark" unicode="&#x2122;" horiz-adv-x="611" 
d="M101 666h233l5 -109h-20l-9 29q-8 25 -20.5 40.5t-45.5 19.5v-201q0 -26 4.5 -35.5t21.5 -11.5l17 -2v-20h-139v20l14 1q29 3 29 48v201q-31 -2 -44 -18.5t-24 -45.5l-10 -25h-19zM354 396l13 2q14 2 22.5 14.5t8.5 29.5v166q0 20 -3.5 27t-19.5 9l-21 2v20h110l57 -191
l63 191h110v-20l-15 -1q-29 -3 -29 -41v-160q0 -24 4.5 -34t24.5 -12l15 -2v-20h-139v20l16 2q18 2 22.5 12.5t4.5 33.5v197l-88 -265h-12l-77 256v-188q0 -40 27 -45l16 -3v-20h-110v20z" />
    <glyph glyph-name="currency" unicode="&#xa4;" horiz-adv-x="500" 
d="M44 595l67 -67q32 26 66.5 37t73.5 11q28 0 64 -10t76 -38l66 67l32 -32l-68 -66q26 -38 36.5 -70t10.5 -67q0 -38 -10.5 -74t-36.5 -66l67 -68l-30 -30l-67 66q-44 -27 -76.5 -37t-64.5 -10t-66.5 10t-72.5 37l-67 -66l-31 30l67 68q-26 35 -36.5 68.5t-10.5 71.5
q0 33 10.5 65t36.5 72l-67 66zM420 358q0 34 -13.5 65t-37 54t-54.5 36.5t-65 13.5q-35 0 -65.5 -12.5t-53 -35t-36 -54t-13.5 -68.5q0 -35 13.5 -65.5t36 -53t53 -36t65.5 -13.5q34 0 65 13t54.5 36t37 54t13.5 66z" />
    <glyph glyph-name="section" unicode="&#xa7;" horiz-adv-x="485" 
d="M395 594q0 1 3.5 4.5t7.5 11t7.5 19t3.5 28.5q0 32 -24 51.5t-60 19.5q-41 0 -65.5 -27t-24.5 -67q0 -23 11.5 -49.5t35.5 -53.5l85 -97q23 -26 35 -53t12 -50q0 -36 -12.5 -65t-33.5 -50t-49.5 -34t-60.5 -17q37 -70 37 -125q0 -33 -17 -61t-45 -48t-62.5 -31t-68.5 -11
q-26 0 -50.5 6.5t-44 19t-31 31t-11.5 43.5q0 12 4 26t10.5 25.5t15 19t18.5 7.5q16 0 16 -9q-9 -13 -15.5 -33.5t-6.5 -35.5q0 -35 26 -56.5t65 -21.5q27 0 51.5 10t43 27.5t30 41.5t11.5 52q0 25 -12.5 53t-32.5 51l-83 90q-23 24 -34 48.5t-11 45.5q0 32 12 62t34 54
t52 39t65 18q-45 73 -45 111q0 30 12 55t32 43t46.5 28t55.5 10q21 0 43.5 -7t41 -19t30 -29t11.5 -38q0 -12 -3.5 -25t-10 -23.5t-15.5 -17t-19 -6.5q-16 0 -16 9zM255 478q-60 -5 -96 -37.5t-36 -89.5q0 -39 52 -97q44 -47 73 -62q52 0 85 29.5t33 80.5q0 23 -12.5 50
t-35.5 53l-63 73v0z" />
    <glyph glyph-name="afii10023" unicode="&#x401;" horiz-adv-x="599" 
d="M568 743q34 0 34 -135q0 -69 -24 -70q-22 0 -22 36q0 30 -13 55t-35.5 43t-51.5 28t-62 10q-65 0 -102 -41t-37 -111q0 -35 7 -57q34 6 68 6q18 0 36.5 -4.5t33.5 -13.5t24.5 -23t9.5 -32q0 -15 -7 -26t-17.5 -19t-24.5 -12t-27 -4q-43 0 -82.5 20t-58.5 56
q-28 -14 -51.5 -39t-40.5 -56t-26.5 -65.5t-9.5 -68.5q0 -46 15.5 -83t43.5 -63t66 -40t83 -14q39 0 73 11t61 31.5t44 50.5t22 68q7 61 36 61q23 0 23 -28q0 -40 -20 -81.5t-56.5 -75.5t-87.5 -55.5t-112 -21.5q-58 0 -106 16t-82 46.5t-53 75t-19 102.5q0 36 15 75t40 75
t57.5 64.5t67.5 42.5q-5 20 -8 38.5t-3 41.5q0 39 17 74t45 61.5t65 42t78 15.5q26 0 49 -5.5t45 -14.5q20 -8 31 -14t18 -6t13 17q6 16 18 16zM271 467q8 -28 35 -43.5t58 -15.5q42 0 42 25q0 45 -80 45q-7 0 -20.5 -2.5t-34.5 -8.5zM370 932q3 0 8 -7t9.5 -16.5t8 -18
t3.5 -11.5q0 -5 -5 -12t-11.5 -13.5t-13.5 -11.5t-11 -5q-5 0 -10 6t-9 14t-7 16t-3 13q0 4 5 12t12 15.5t14 13t10 5.5zM515 932q3 0 8 -7t9.5 -16.5t8 -18t3.5 -11.5q0 -5 -5 -12t-11.5 -13.5t-13.5 -11.5t-11 -5q-5 0 -10 6t-9 14t-7 16t-3 13q0 4 5 12t12 15.5t14 13
t10 5.5z" />
    <glyph glyph-name="copyright" unicode="&#xa9;" horiz-adv-x="500" 
d="M329 749q47 0 89.5 -18.5t75 -50.5t51.5 -74.5t19 -91.5q0 -48 -17.5 -90.5t-48.5 -74.5t-74 -51t-94 -19q-48 0 -90.5 17t-74.5 47.5t-51 74t-19 96.5q0 48 19 91t51 75t74.5 50.5t89.5 18.5zM330 713q-43 0 -79.5 -15.5t-63.5 -42.5t-42 -63.5t-15 -77.5t16 -77.5
t43 -63.5t63.5 -43t77.5 -16t77.5 16t63.5 43.5t42.5 64t15.5 76.5t-16 76t-43 63.5t-63.5 43.5t-76.5 16zM438 474q-8 -56 -29.5 -78.5t-72.5 -22.5q-55 0 -90.5 40t-35.5 104q0 26 9 52.5t25.5 48t38.5 35t48 13.5q23 0 39.5 -8.5t25.5 -8.5q2 0 6.5 2.5t11.5 13.5h19
v-106l-19 -3q-13 45 -31 66t-43 21q-67 0 -67 -126q0 -121 74 -121q26 0 43.5 16t27.5 62h20z" />
    <glyph glyph-name="guillemotleft" unicode="&#xab;" horiz-adv-x="321" 
d="M161 349q8 0 8 -8q0 -7 -7 -17l-68 -95q-15 -21 -15 -26q0 -6 5 -34l22 -112q3 -15 3 -22q0 -8 -7 -8q-13 0 -21 24l-42 122q-9 24 -9 30q0 5 8 16t21 26l78 88q13 16 24 16zM290 349q8 0 8 -8q0 -7 -7 -17l-68 -95q-15 -21 -15 -26q0 -6 5 -34l22 -112q3 -15 3 -22
q0 -8 -7 -8q-13 0 -21 24l-42 122q-9 24 -9 30q0 5 8 16t21 26l78 88q13 16 24 16z" />
    <glyph glyph-name="logicalnot" unicode="&#xac;" horiz-adv-x="519" 
d="M421 281h-373v49h422v-237h-49v188z" />
    <glyph glyph-name="registered" unicode="&#xae;" horiz-adv-x="500" 
d="M329 749q46 0 88.5 -17t75 -48t52 -74.5t19.5 -95.5q0 -53 -19 -96.5t-51.5 -74t-75 -47.5t-88.5 -17q-47 0 -90 17t-75 48t-51 74t-19 96q0 50 19 93t51 74.5t74.5 49.5t89.5 18zM330 713q-43 0 -79.5 -16t-63.5 -43t-42 -63.5t-15 -76.5q0 -42 15.5 -78.5t42.5 -63.5
t63.5 -42.5t78.5 -15.5q43 0 79.5 16.5t63 44t41.5 63.5t15 76q0 39 -15 75t-41.5 63.5t-63 44t-79.5 16.5zM209 655h125q21 0 41 -2t35 -9t24.5 -20.5t9.5 -36.5t-14 -40.5t-55 -26.5q20 -14 29.5 -28.5t14.5 -34.5q6 -22 10.5 -28.5t10.5 -6.5q5 0 10 6.5t7 28.5h19v-10
q0 -29 -14 -46t-40 -17q-46 0 -58 68q-3 19 -6.5 31.5t-9 19.5t-14 9.5t-21.5 2.5h-8v-67q0 -23 5 -31.5t22 -10.5l17 -2v-20h-140v20l16 1q28 2 28 41v152q0 15 -8 26t-36 11v20zM305 535h22q29 0 43 11t14 40q0 49 -43 49q-16 0 -26 -7.5t-10 -32.5v-60z" />
    <glyph glyph-name="degree" unicode="&#xb0;" horiz-adv-x="381" 
d="M304 590q17 0 31.5 -7t25.5 -18.5t17.5 -26.5t6.5 -31t-6 -30.5t-17 -25.5t-25.5 -17.5t-32.5 -6.5q-34 0 -58 23t-24 57t24 58.5t58 24.5zM304 551q-17 0 -30 -12t-13 -30t12.5 -30.5t29.5 -12.5t30 13t13 30t-12.5 29.5t-29.5 12.5z" />
    <glyph glyph-name="plusminus" unicode="&#xb1;" 
d="M206 201l44 121q7 18 32 18q22 0 22 -11q0 -2 -1 -7t-4 -14l-39 -107h120q14 0 19 -3t5 -15q0 -11 -7 -21.5t-18 -10.5h-137l-48 -133q-2 -6 -8 -11t-15 -7h159q14 0 18.5 -3t4.5 -15q0 -11 -7 -21.5t-18 -10.5h-301q-25 0 -25 18q0 32 25 32h123q-10 4 -10 11
q0 4 1.5 8.5t3.5 12.5l43 119h-110q-25 0 -25 18q0 32 25 32h128z" />
    <glyph glyph-name="mu" unicode="&#xb5;" horiz-adv-x="556" 
d="M231 410l-53 -259q-4 -20 -6 -34.5t-2 -25.5q2 -53 47 -53q27 0 48 18t36.5 45t25.5 58.5t16 58.5l40 192h81l-51 -245q-5 -23 -7 -41.5t-2 -25.5q0 -17 7 -34t23 -17q29 0 57 67l8 17l30 -13q-19 -60 -42 -96.5t-66 -36.5q-15 0 -27 8.5t-19.5 22.5t-11.5 31t-4 35
q0 7 0.5 16.5t1.5 20.5q-13 -27 -29.5 -51.5t-35.5 -42.5t-41 -29t-45 -11q-51 0 -75 49l-27 -190q-5 -35 -17 -45.5t-29 -10.5q-35 0 -35 35q0 4 1.5 15t4.5 25l115 547h83z" />
    <glyph glyph-name="mu" unicode="&#x3bc;" horiz-adv-x="556" 
d="M231 410l-53 -259q-4 -20 -6 -34.5t-2 -25.5q2 -53 47 -53q27 0 48 18t36.5 45t25.5 58.5t16 58.5l40 192h81l-51 -245q-5 -23 -7 -41.5t-2 -25.5q0 -17 7 -34t23 -17q29 0 57 67l8 17l30 -13q-19 -60 -42 -96.5t-66 -36.5q-15 0 -27 8.5t-19.5 22.5t-11.5 31t-4 35
q0 7 0.5 16.5t1.5 20.5q-13 -27 -29.5 -51.5t-35.5 -42.5t-41 -29t-45 -11q-51 0 -75 49l-27 -190q-5 -35 -17 -45.5t-29 -10.5q-35 0 -35 35q0 4 1.5 15t4.5 25l115 547h83z" />
    <glyph glyph-name="paragraph" unicode="&#xb6;" horiz-adv-x="500" 
d="M478 704h-67v-863h-39v863h-48v-863h-39v438q-51 0 -91.5 19.5t-69 52t-44 73.5t-15.5 84q0 66 26.5 111.5t71 73t102.5 40t122 12.5h91v-41z" />
    <glyph glyph-name="afii10071" unicode="&#x451;" horiz-adv-x="358" 
d="M80 98q9 -80 81 -80q66 0 113 44q16 16 20 16q11 0 11 -12q0 -9 -13 -22q-57 -59 -147 -59q-63 0 -95.5 36t-32.5 99q0 49 19 97.5t51.5 87t74.5 62t89 23.5q91 0 91 -82q0 -40 -22.5 -77.5t-59.5 -67t-84 -47.5t-96 -18zM77 125q42 0 80 12.5t67 35t46.5 53.5t17.5 69
q0 62 -48 62q-38 0 -68 -20.5t-51 -53t-32.5 -72t-11.5 -77.5v-9v0zM175 522q3 0 8 -7t9.5 -16.5t8 -18t3.5 -11.5q0 -5 -5 -12t-11.5 -13.5t-13.5 -11.5t-11 -5q-5 0 -10 6t-9 14t-7 16t-3 13q0 4 5 12t12 15.5t14 13t10 5.5zM320 522q3 0 8 -7t9.5 -16.5t8 -18t3.5 -11.5
q0 -5 -5 -12t-11.5 -13.5t-13.5 -11.5t-11 -5q-5 0 -10 6t-9 14t-7 16t-3 13q0 4 5 12t12 15.5t14 13t10 5.5z" />
    <glyph glyph-name="guillemotright" unicode="&#xbb;" horiz-adv-x="321" 
d="M91 361q11 0 20 -24l37 -108q6 -17 10 -29.5t4 -14.5q0 -3 -7 -14t-22 -28l-78 -88q-13 -16 -24 -16q-8 0 -8 8q0 7 7 17l68 95q15 21 15 26q0 6 -5 34l-22 112q-3 15 -3 22q0 8 8 8zM220 361q11 0 20 -24l37 -108q6 -17 10 -29.5t4 -14.5q0 -3 -7 -14t-22 -28l-78 -88
q-13 -16 -24 -16q-8 0 -8 8q0 7 7 17l68 95q15 21 15 26q0 6 -5 34l-22 112q-3 15 -3 22q0 8 8 8z" />
    <glyph glyph-name="afii10017" unicode="&#x410;" horiz-adv-x="753" 
d="M666 674q51 24 123 24q56 0 56 -27q0 -16 -20 -16q-17 0 -30.5 5.5t-30.5 5.5q-47 0 -75 -14q33 -32 50 -70.5t17 -86.5q0 -50 -16 -92l-98 -263q-16 -41 -16 -53q0 -15 11 -15q7 0 14.5 4t14.5 9.5t13 9.5t11 4q8 0 8 -11q0 -9 -18 -24t-41 -29t-45.5 -24.5t-31.5 -10.5
q-17 0 -17 19t13 49l72 172q-73 -47 -276 -47q-120 -213 -291 -213q-77 0 -77 31q0 26 35 26q7 0 13.5 -2.5t16 -5.5t22.5 -5.5t34 -2.5q117 0 204 172q-29 0 -55.5 -12t-53.5 -39q-18 -18 -24 -18q-12 0 -12 12q0 11 13.5 29t36.5 34.5t53 28.5t63 12l61 121.5t68 116.5
t77.5 101.5t89.5 76.5q-17 15 -43 26.5t-57 19t-63.5 11.5t-62.5 4q-57 0 -114 -13t-102 -39.5t-73.5 -65.5t-28.5 -91q0 -138 164 -138q16 0 16 -16t-21 -16q-223 0 -223 169q0 60 36.5 105.5t92.5 76t123.5 46t129.5 15.5q34 0 70.5 -5t72 -14.5t66.5 -23.5t55 -33z
M600 267q44 18 64 68l25 68q16 42 16 92q0 90 -56 137q-119 -54 -275 -392q81 0 137.5 7t88.5 20z" />
    <glyph glyph-name="afii10018" unicode="&#x411;" horiz-adv-x="821" 
d="M446 506q12 33 12 47q0 9 -8 9t-20.5 -8t-18.5 -8q-9 0 -9 10q0 5 15.5 17.5t36 25.5t41.5 23t32 10q12 0 12 -14q0 -8 -4 -23.5t-13 -38.5l-43 -113q20 8 44.5 13.5t53.5 5.5q39 0 77 -12t67.5 -37t47.5 -62t18 -86q0 -61 -26 -113t-69.5 -90.5t-100.5 -60t-120 -21.5
q-77 0 -140 20q-62 21 -65 21q-31 0 -31 16q0 7 12 16q24 19 38.5 41t27.5 55l85 227q-25 -13 -41 -29t-26 -30.5t-15.5 -25.5t-8.5 -14q-5 0 -10.5 2t-5.5 9q0 19 11.5 38.5t29.5 37.5t39.5 32t41.5 22zM370 152q-2 -6 -6.5 -15.5t-10.5 -19.5t-13 -18.5t-13 -14.5l-22 -19
q0 -14 70 -30q32 -8 63.5 -12t60.5 -4q50 0 92 18t72 50.5t46.5 78t16.5 99.5q0 40 -13 71t-33.5 51.5t-46.5 31t-53 10.5q-38 0 -64 -5.5t-52 -21.5zM852 725q13 0 24 4t20.5 8.5l18.5 8.5t18 4q10 0 10 -13q0 -7 -32 -39q-32 -33 -43 -33q-8 0 -44.5 3l-89 7l-114 9
t-118 9l-102 7t-66.5 3q-45 0 -90 -13t-81 -38t-58.5 -61.5t-22.5 -82.5q0 -138 164 -138q16 0 16 -16t-21 -16q-112 0 -167.5 40.5t-55.5 128.5q0 62 35.5 107.5t91 75.5t123 45t132.5 15q24 0 62 -2l83 -4.5t93 -6t90.5 -6l75 -4.5t48.5 -2z" />
    <glyph glyph-name="afii10019" unicode="&#x412;" horiz-adv-x="821" 
d="M689 443q7 22 10.5 39.5t3.5 47.5q0 49 -26.5 84t-69.5 58t-97.5 34t-109.5 11q-54 0 -110 -12.5t-101.5 -38.5t-75 -65.5t-29.5 -92.5q0 -137 162 -137q16 0 16 -17q0 -15 -21 -15q-221 0 -221 168q0 60 36 105.5t92 76t123 46t129 15.5q63 0 128 -12t117 -38.5
t85 -68.5t33 -103q0 -50 -40 -105q64 -60 64 -158q0 -61 -26 -113t-69.5 -90.5t-100.5 -60t-120 -21.5q-77 0 -140 20q-62 21 -65 21q-31 0 -31 16q0 7 12 16q24 19 38.5 40.5t27.5 55.5l133 357q12 33 12 47q0 9 -8 9t-20.5 -8t-18.5 -8q-9 0 -9 10q0 6 15.5 19t36.5 25.5
t42 22t31 9.5q12 0 12 -14q0 -8 -4 -23.5t-13 -38.5l-152 -404q-9 -23 -20.5 -39t-22.5 -29q-6 -7 -14 -12.5t-8 -6.5q0 -8 17.5 -14.5t52.5 -15.5q33 -8 64.5 -12t59.5 -4q50 0 91.5 18t71.5 50.5t46.5 78t16.5 99.5q0 68 -42 116q-8 -8 -21.5 -15.5t-28.5 -13.5
t-30.5 -9.5t-27.5 -3.5t-25 3t-23 9t-16.5 15.5t-6.5 22.5q0 16 9.5 29t24.5 23t33 15.5t34 5.5q45 0 84 -19zM662 407q-26 26 -59 26q-59 0 -59 -40q0 -22 42 -22q6 0 17.5 3.5t23.5 8.5t22 11.5t13 12.5z" />
    <glyph glyph-name="afii10020" unicode="&#x413;" horiz-adv-x="652" 
d="M608 684q-87 10 -154.5 14.5t-117.5 4.5q-45 0 -90 -13t-81 -38t-58.5 -61.5t-22.5 -82.5q0 -138 164 -138q16 0 16 -16t-21 -16q-223 0 -223 169q0 62 35.5 107.5t91 75.5t123 45t132.5 15q45 0 101 -3t125 -10l92.5 -9t39.5 -3q13 0 24 4t21 8.5l19 8.5t17 4
q10 0 10 -13q0 -4 -10 -15.5t-22.5 -24t-25 -22.5t-17.5 -10t-15.5 1t-30 3.5t-49.5 6zM588 665q12 0 12 -14q0 -7 -3.5 -22.5t-13.5 -39.5l-88 -213q-40 -97 -78.5 -169t-82.5 -119.5t-98.5 -71t-126.5 -23.5t-72 32q0 29 40 29q16 0 28.5 -6.5t37.5 -6.5q28 0 54.5 4
t51 14t46 27t38.5 43q50 75 85 165t73 202l29 86q0 5 -2 9t-7 4q-8 0 -20 -8t-19 -8q-9 0 -9 10q0 6 15.5 18.5t36 25.5t41.5 22.5t32 9.5z" />
    <glyph glyph-name="afii10021" unicode="&#x414;" horiz-adv-x="807" 
d="M537 632q12 0 12 -14q0 -16 -17 -62l-152 -404q-8 -23 -19 -39t-25 -29q-10 -10 -15.5 -14t-5.5 -5q0 -8 17 -16.5t38.5 -15t42.5 -10.5t30 -4q71 0 126 33t92.5 88t56.5 125.5t19 144.5q0 70 -24.5 127t-68 97t-103.5 61.5t-131 21.5q-53 0 -109 -12.5t-102 -38.5
t-75.5 -65.5t-29.5 -92.5q0 -138 162 -138q16 0 16 -16t-21 -16q-221 0 -221 169q0 60 35.5 105.5t90.5 76t122.5 46t131.5 15.5q80 0 150.5 -21.5t123 -64t83 -106.5t30.5 -148q0 -87 -29.5 -165t-78 -137t-112.5 -93.5t-133 -34.5q-62 0 -113 20q-50 21 -55 21
q-31 0 -31 16q0 7 12 16q24 18 38 38.5t28 57.5l133 357q12 33 12 47q0 9 -8 9q-2 0 -7.5 -2.5l-11.5 -5.5l-11.5 -5.5t-8.5 -2.5q-9 0 -9 10q0 7 16 20t37 25.5t41.5 21.5t30.5 9z" />
    <glyph glyph-name="afii10022" unicode="&#x415;" horiz-adv-x="599" 
d="M568 743q34 0 34 -135q0 -69 -24 -70q-22 0 -22 36q0 30 -13 55t-35.5 43t-51.5 28t-62 10q-65 0 -102 -41t-37 -111q0 -35 7 -57q34 6 68 6q18 0 36.5 -4.5t33.5 -13.5t24.5 -23t9.5 -32q0 -15 -7 -26t-17.5 -19t-24.5 -12t-27 -4q-43 0 -82.5 20t-58.5 56
q-28 -14 -51.5 -39t-40.5 -56t-26.5 -65.5t-9.5 -68.5q0 -46 15.5 -83t43.5 -63t66 -40t83 -14q39 0 73 11t61 31.5t44 50.5t22 68q7 61 36 61q23 0 23 -28q0 -40 -20 -81.5t-56.5 -75.5t-87.5 -55.5t-112 -21.5q-58 0 -106 16t-82 46.5t-53 75t-19 102.5q0 36 15 75t40 75
t57.5 64.5t67.5 42.5q-5 20 -8 38.5t-3 41.5q0 39 17 74t45 61.5t65 42t78 15.5q26 0 49 -5.5t45 -14.5q20 -8 31 -14t18 -6t13 17q6 16 18 16zM271 467q8 -28 35 -43.5t58 -15.5q42 0 42 25q0 45 -80 45q-7 0 -20.5 -2.5t-34.5 -8.5z" />
    <glyph glyph-name="afii10024" unicode="&#x416;" horiz-adv-x="1252" 
d="M818 811q11 0 11 -10q0 -8 -4 -14q-12 -15 -22.5 -30t-21.5 -37.5t-24 -56.5t-31 -86l-75 -226h2l92.5 135.5l57 81.5t33 44t21.5 25q54 57 114.5 85t121.5 28q19 0 33.5 -4t25.5 -9l19.5 -9t16.5 -4q10 0 13.5 3t6 6.5t6 6.5t12.5 3q26 0 26 -131q0 -74 -16 -74
q-21 0 -21 36q0 28 -11.5 53t-29 43.5t-39 29t-42.5 10.5q-49 0 -92 -19.5t-78.5 -52.5t-63 -75.5t-47 -89.5t-29.5 -94t-10 -88q0 -73 12 -124.5t33 -84t51 -47.5t66 -15q35 0 65 12.5t52.5 34t37 50t17.5 61.5q6 61 36 61q24 0 24 -28q0 -37 -19.5 -77.5t-52 -74.5
t-74.5 -56.5t-87 -22.5q-52 0 -94 22t-72 62.5t-46 97t-16 126.5q0 36 8 73.5t21 75.5h-2l-102 -165l-42 -146q-10 -33 -26.5 -67t-36 -61.5t-39.5 -44.5t-35 -17q-11 0 -11 9t11 20q11 10 23.5 30.5t24.5 46t22.5 54t18.5 55.5l70 246h-2l-93.5 -140l-59.5 -86l-36 -49
t-25 -29q-54 -57 -114.5 -85t-121.5 -28q-18 0 -33.5 4t-27.5 9t-20.5 9t-13.5 4q-10 0 -13.5 -3t-6 -6.5t-6 -6.5t-12.5 -3q-26 0 -26 131q0 74 16 74q21 0 21 -36q0 -27 11.5 -51.5t29 -43t39 -30t42.5 -11.5q69 0 127.5 42t101.5 105t67 136.5t24 136.5q0 73 -12 124.5
t-33 83.5t-51 47t-66 15q-35 0 -65 -12.5t-52.5 -34t-37 -50t-17.5 -61.5q-6 -61 -36 -61q-24 0 -24 28q0 37 19.5 77.5t52 74.5t74.5 56.5t87 22.5q51 0 93 -22t72 -62.5t46.5 -97t16.5 -126.5q0 -35 -8 -72.5t-20 -74.5h2l115 186l50 136q16 43 35 78.5t37.5 61t34.5 40
t26 14.5z" />
    <glyph glyph-name="afii10025" unicode="&#x417;" horiz-adv-x="547" 
d="M372 750q28 0 59 -6t56 -22.5t41.5 -45.5t16.5 -76q0 -24 -8.5 -50.5t-20.5 -50t-26 -43t-25 -29.5q26 -28 44 -70t18 -92q0 -51 -20 -101.5t-58.5 -91.5t-94 -66.5t-125.5 -25.5q-54 0 -95.5 15.5t-70 42.5t-43 63.5t-14.5 78.5q0 10 1.5 20.5t5 19t10.5 14t19 5.5
q11 0 16.5 -10.5t5.5 -28.5q0 -11 -3.5 -25t-3.5 -31q0 -27 9.5 -50t31.5 -39.5t57 -26t86 -9.5q49 0 90 18.5t71 51.5t46.5 78t16.5 98q0 34 -9.5 69t-30.5 59q-26 -15 -49 -22.5t-39 -7.5q-41 0 -64 21t-23 47q0 32 22.5 46t58.5 14q21 0 51 -9.5t48 -23.5q20 17 37 51.5
t17 90.5q0 36 -11 57.5t-27.5 33.5t-36 16t-36.5 4q-29 0 -60.5 -12t-59.5 -32.5t-50 -47.5t-31 -57q-5 -17 -11.5 -26t-17.5 -9q-12 0 -12 18q0 4 0.5 8.5t1.5 9.5q2 18 7 37.5l10 39t10.5 37.5l9.5 31q3 11 8 15.5t10 4.5q13 0 16 -17q2 -9 4 -13t8 -4q3 0 15 8.5t32 19
t48 19.5t61 9zM402 421q-20 24 -37 30.5t-44 6.5q-15 0 -26.5 -6.5t-11.5 -20.5q0 -23 18 -29t41 -6q30 0 60 25z" />
    <glyph glyph-name="afii10026" unicode="&#x418;" horiz-adv-x="892" 
d="M264 354q0 -16 -21 -16q-112 0 -167.5 40.5t-55.5 128.5q0 60 36.5 105.5t92.5 76t123.5 46t129.5 15.5q44 0 92 -4.5t88 -13.5t66 -23t26 -34q0 -17 -21 -78l-131 -381q-14 -42 -21.5 -68.5t-7.5 -43.5q0 -62 62 -62q63 0 141 66l173 489q15 42 15 54q0 9 -8 9t-20 -8
t-19 -8q-9 0 -9 10q0 7 16 19.5t37 25t42 22t30 9.5q12 0 12 -14q0 -11 -17 -62l-180 -514q-16 -44 -16 -53q0 -15 11 -15q6 0 13.5 4t15 9.5t14 9.5t10.5 4q8 0 8 -11q0 -9 -17.5 -23.5t-40.5 -29t-45.5 -25t-32.5 -10.5q-17 0 -17 19q0 2 1.5 12t6.5 27q-79 -58 -161 -58
q-24 0 -40 9t-26 23.5t-14.5 31t-4.5 31.5q0 35 11 63t21 57l129 382q4 12 6 24.5t2 26.5q0 20 -19 33.5t-48.5 21.5t-65 11t-67.5 3q-54 0 -110 -12.5t-102.5 -38.5t-76 -65.5t-29.5 -92.5q0 -138 164 -138q16 0 16 -16z" />
    <glyph glyph-name="afii10027" unicode="&#x419;" horiz-adv-x="892" 
d="M264 354q0 -16 -21 -16q-112 0 -167.5 40.5t-55.5 128.5q0 60 36.5 105.5t92.5 76t123.5 46t129.5 15.5q44 0 92 -4.5t88 -13.5t66 -23t26 -34q0 -17 -21 -78l-131 -381q-14 -42 -21.5 -68.5t-7.5 -43.5q0 -62 62 -62q63 0 141 66l173 489q15 42 15 54q0 9 -8 9t-20 -8
t-19 -8q-9 0 -9 10q0 7 16 19.5t37 25t42 22t30 9.5q12 0 12 -14q0 -11 -17 -62l-180 -514q-16 -44 -16 -53q0 -15 11 -15q6 0 13.5 4t15 9.5t14 9.5t10.5 4q8 0 8 -11q0 -9 -17.5 -23.5t-40.5 -29t-45.5 -25t-32.5 -10.5q-17 0 -17 19q0 2 1.5 12t6.5 27q-79 -58 -161 -58
q-24 0 -40 9t-26 23.5t-14.5 31t-4.5 31.5q0 35 11 63t21 57l129 382q4 12 6 24.5t2 26.5q0 20 -19 33.5t-48.5 21.5t-65 11t-67.5 3q-54 0 -110 -12.5t-102.5 -38.5t-76 -65.5t-29.5 -92.5q0 -138 164 -138q16 0 16 -16zM771 854q5 0 7.5 -3t5.5 -7t9 -7t18 -3q18 0 30.5 6
t21.5 26q4 10 14 10q9 0 9 -13q0 -17 -10.5 -32.5t-28 -27.5t-40 -19t-46.5 -7q-15 0 -33.5 6.5t-18.5 15.5q0 7 27 30q31 25 35 25z" />
    <glyph glyph-name="afii10028" unicode="&#x41a;" horiz-adv-x="897" 
d="M264 354q0 -16 -21 -16q-112 0 -167.5 43t-55.5 126q0 60 36.5 105.5t92.5 76t123.5 46t129.5 15.5q37 0 84 -3.5t89 -12.5t70.5 -23.5t28.5 -35.5q0 -11 -21 -78l-76 -245q205 213 229 235q143 137 191 137q35 0 35 -30q0 -10 -14 -18t-23 -8q-47 0 -147 -91
q-22 -20 -57.5 -56l-86.5 -90l58 -327q8 -41 24 -41q5 0 12.5 5.5l15.5 11.5t17 11.5t18 5.5q11 0 11 -15q0 -8 -14.5 -23.5t-34.5 -30.5t-40.5 -26.5t-32.5 -11.5q-14 0 -21 10q-2 5 -5.5 18.5t-5.5 27.5l-58 325q-15 -12 -39.5 -37.5t-59.5 -65.5q-119 -333 -318 -333
q-37 0 -37 15t29 15q60 0 103 27.5t75.5 76.5t58 116t50.5 145l84 267q4 13 6 25t2 26q0 20 -19.5 33.5t-49 21.5t-64.5 11t-67 3q-54 0 -110 -12.5t-102.5 -38.5t-76 -65.5t-29.5 -92.5q0 -138 164 -138q16 0 16 -16z" />
    <glyph glyph-name="afii10029" unicode="&#x41b;" horiz-adv-x="902" 
d="M280 32q33 0 60.5 7t53 24.5t50.5 45.5t53 70l34 53.5l36 62t35 67.5t31 71q26 66 54 109t58 70.5t63 44t69 30.5q-11 1 -37.5 4t-62 6.5t-75 7t-77 6l-68 4.5t-47.5 2q-51 0 -100 -13.5t-86.5 -39.5t-60.5 -65.5t-23 -90.5q0 -138 162 -138q16 0 16 -16t-21 -16
q-221 0 -221 169q0 58 30.5 103t78.5 76t107.5 47.5t117.5 16.5q46 0 109.5 -3t128.5 -6.5l124.5 -6.5t96.5 -3l-1 -1q12 0 12 -14q0 -11 -17 -62l-180 -514q-16 -44 -16 -53q0 -15 11 -15q6 0 13.5 4t15 9.5t14 9.5t10.5 4q8 0 8 -11q0 -9 -17 -23.5t-40 -29t-45.5 -25
t-33.5 -10.5q-17 0 -17 19q0 8 2.5 19.5t8.5 28.5l187 530q15 42 15 54q0 9 -5 9t-12.5 -3t-13.5 -6q-20 -10 -42 -24t-44.5 -36.5t-44.5 -56t-43 -82.5q-43 -100 -78.5 -164t-46.5 -81q-137 -215 -282 -215q-47 0 -94.5 19.5t-85.5 52t-62.5 75t-24.5 87.5q0 28 24 28
q29 0 36 -61q9 -75 61.5 -118t138.5 -43z" />
    <glyph glyph-name="afii10030" unicode="&#x41c;" horiz-adv-x="1021" 
d="M262 354q0 -16 -21 -16q-221 0 -221 169q0 58 30.5 103t78.5 76t107.5 47.5t117.5 16.5q136 0 236.5 -67.5t151.5 -197.5q26 34 69 75t91.5 76.5t96 59.5t82.5 24q12 0 12 -14q0 -13 -17 -62l-178 -504q-16 -44 -16 -53q0 -15 11 -15q6 0 13.5 4t15 9.5t14 9.5t10.5 4
q8 0 8 -11q0 -7 -16.5 -21.5t-39 -29.5t-45.5 -26t-35 -11q-17 0 -17 19q0 8 2.5 19.5t8.5 28.5l187 530q15 42 15 54q0 9 -8 9q-11 0 -31.5 -11t-45.5 -29t-52.5 -40.5t-51.5 -45.5t-43.5 -44t-28.5 -35q9 -35 9 -115q0 -24 -7.5 -58.5t-21 -66t-32.5 -53.5t-43 -22
q-50 0 -50 80q0 24 7.5 54t20.5 60.5t29 58.5t34 48q-6 19 -19.5 43t-29.5 47t-31 41t-24 24l-20 -12q-10 -46 -31 -108t-51.5 -127.5t-69.5 -129.5t-85 -114.5t-98 -81.5t-109 -31q-72 0 -72 32q0 29 40 29q16 0 29.5 -6.5t36.5 -6.5q46 0 86.5 25.5t75.5 68t64.5 98
t54.5 115.5t44.5 120.5t34.5 113.5q7 12 49 35q-13 21 -39 39.5t-57.5 32t-64 21.5t-59.5 8q-51 0 -100 -13.5t-86.5 -39.5t-60.5 -65.5t-23 -90.5q0 -138 162 -138q16 0 16 -16zM709 405q-12 -8 -23 -29.5t-19.5 -47t-13.5 -51.5t-5 -43q0 -46 27 -46q10 0 17.5 14t13 34.5
t8 43.5t2.5 40q0 29 -1.5 50t-5.5 35z" />
    <glyph glyph-name="afii10031" unicode="&#x41d;" horiz-adv-x="887" 
d="M592 402q33 0 70 1.5t71 9.5t59.5 24t36.5 46l40 114q15 42 15 54q0 9 -8 9q-10 0 -20 -8t-19 -8t-9 10q0 7 16.5 20t37.5 25.5t41.5 21.5t29.5 9q12 0 12 -14q0 -11 -17 -62l-180 -514q-16 -44 -16 -53q0 -15 11 -15q6 0 13.5 4t15 9.5t14 9.5t10.5 4q8 0 8 -11
q0 -7 -16.5 -21.5t-39 -29.5t-45.5 -26t-35 -11q-17 0 -17 19q0 8 2.5 19.5t8.5 28.5l115 326q-31 -17 -54.5 -27t-47 -15t-52 -6t-69.5 -1q-20 -74 -51 -147t-73.5 -131t-97 -94.5t-121.5 -36.5q-37 0 -37 15t29 15q60 0 105.5 30.5t79 81t58 116.5t44.5 137q-14 0 -30 -7
t-31.5 -17.5t-30 -23.5l-26.5 -24q-14 0 -14 10q0 9 16.5 29t40 41t50 38t46.5 20l63 201q4 13 6 25t2 26q0 20 -19 33.5t-48.5 21.5t-64.5 11t-68 3q-54 0 -110 -12.5t-102.5 -38.5t-76 -65.5t-29.5 -92.5q0 -138 164 -138q16 0 16 -16t-21 -16q-112 0 -167.5 40.5
t-55.5 128.5q0 60 36.5 105.5t92.5 76t123.5 46t129.5 15.5q37 0 84 -3.5t89 -12.5t70.5 -23.5t28.5 -35.5q0 -11 -21 -78l-61 -195v0z" />
    <glyph glyph-name="afii10032" unicode="&#x41e;" horiz-adv-x="652" 
d="M188 576q7 32 30.5 63.5t56.5 56t71.5 39.5t77.5 15q51 0 93 -24t71.5 -63t45.5 -88.5t16 -100.5q0 -85 -26.5 -172.5t-76 -159t-121 -117t-162.5 -45.5q-60 0 -105.5 22t-76.5 60.5t-46.5 90t-15.5 111.5q0 48 8.5 96t28 90t51.5 75t80 51zM180 541q-28 -13 -47.5 -35.5
t-31.5 -51.5t-17 -64.5t-5 -73.5q0 -54 12 -106.5t36.5 -94t62.5 -67t91 -25.5q75 0 132.5 40t96.5 102.5t59 137.5t20 145q0 50 -11.5 97t-35 84t-59 59t-83.5 22q-41 0 -72 -16t-51.5 -43.5t-31 -64t-10.5 -77.5q0 -143 -27 -203q-6 -13 -17.5 -29t-26 -30.5t-30 -24.5
t-27.5 -10q-10 0 -10 11q0 3 8.5 10.5t19 18t21 25.5t13.5 33q3 15 6 46t3 80q0 15 1 31.5t2.5 31t4 25.5t4.5 17z" />
    <glyph glyph-name="afii10033" unicode="&#x41f;" horiz-adv-x="923" 
d="M547 630q12 0 12 -14q0 -15 -17 -62l-76 -210q-32 -89 -65.5 -164t-76 -129.5t-99 -85t-134.5 -30.5q-77 0 -77 31q0 26 35 26q14 0 36.5 -8t49.5 -8q57 0 99.5 32.5t76.5 89.5t62.5 135t58.5 169l31 95l11 35t4 19q0 9 -8 9t-20 -8t-19 -8q-9 0 -9 10q0 8 16.5 21t38 25
t42 21t28.5 9zM810 630q12 0 12 -14q0 -13 -17 -62l-145 -414q-8 -21 -12 -35t-4 -18q0 -14 11 -14q6 0 14 4t15.5 9l13.5 9t10 4q8 0 8 -11q0 -9 -17.5 -23.5t-40 -29t-45.5 -25t-33 -10.5q-17 0 -17 19q0 8 2.5 19.5t8.5 28.5l152 430q8 21 12 34.5t4 19.5q0 9 -9 9
q-4 0 -9.5 -2.5t-11 -5.5l-10.5 -5.5t-8 -2.5q-9 0 -9 10q0 6 15.5 19t36 25.5t41.5 22t32 9.5zM909 725q13 0 24 4t21 8.5l19 8.5t17 4q10 0 10 -13q0 -4 -9.5 -15.5t-22.5 -24t-25 -22.5t-18 -10q-29 0 -77.5 6t-120.5 13t-168.5 13t-222.5 6q-44 0 -89.5 -13t-82.5 -38
t-60 -61.5t-23 -82.5q0 -69 42.5 -103.5t124.5 -34.5q16 0 16 -16t-21 -16q-112 0 -167.5 40.5t-55.5 128.5q0 62 35.5 107.5t91 75.5t123 45t132.5 15q123 0 207 -4t141.5 -8.5t94.5 -8.5t64 -4z" />
    <glyph glyph-name="afii10034" unicode="&#x420;" horiz-adv-x="721" 
d="M262 354q0 -16 -21 -16q-221 0 -221 169q0 60 36 105.5t92 76t123 46t129 15.5q67 0 135 -14.5t123 -45.5t89.5 -78t34.5 -112q0 -51 -24.5 -98t-64.5 -83.5t-91.5 -58t-105.5 -21.5q-23 0 -40.5 1t-30.5 3l-45 -123q-7 -19 -10 -32t-4 -21q0 -15 10 -15q5 0 12.5 4
t15.5 9.5t15 9.5t10 4q8 0 8 -11q0 -8 -17 -23t-40 -29.5t-45.5 -25t-33.5 -10.5q-16 0 -17 19q0 15 11 48l170 480q8 21 11 34.5t4 19.5q0 9 -8 9q-2 0 -7.5 -2.5l-12 -5.5l-12 -5.5t-8.5 -2.5q-8 0 -8 10q0 7 16 20t37 25.5t41.5 21.5t30.5 9q12 0 12 -14q0 -15 -17 -62
l-81 -232q-5 -14 -7.5 -26t-2.5 -18q0 -28 47 -28q48 0 88.5 15.5t70 44t46.5 69.5t17 91q0 56 -28 97t-74 67.5t-103.5 39.5t-116.5 13q-54 0 -110 -12.5t-101.5 -38.5t-75 -65.5t-29.5 -92.5q0 -138 162 -138q16 0 16 -16z" />
    <glyph glyph-name="afii10035" unicode="&#x421;" horiz-adv-x="596" 
d="M600 743q26 0 26 -131q0 -74 -16 -74q-21 0 -21 36q0 30 -13 55t-35.5 43t-52 28t-62.5 10q-74 0 -136 -39.5t-107 -102.5t-70.5 -141t-25.5 -156q0 -56 14 -102.5t40 -80.5t62 -52.5t80 -18.5q83 0 137.5 41.5t62.5 119.5q6 59 36 61q24 0 24 -28q0 -39 -19 -79.5
t-53 -74.5t-82 -55.5t-105 -21.5q-65 0 -114.5 21.5t-82.5 60t-50 92t-17 117.5q0 54 15 110.5t42.5 109.5t65.5 100t83 82.5t95.5 56t104.5 20.5q30 0 53 -6.5t40 -14t29 -13.5t21 -6q7 0 13 17q6 16 18 16z" />
    <glyph glyph-name="afii10036" unicode="&#x422;" horiz-adv-x="923" 
d="M547 630q12 0 12 -14t-17 -62l-76 -210l-27.5 -74.5l-23.5 -59.5t-23.5 -51.5t-27.5 -49.5q-29 -49 -61 -82.5t-66 -53.5t-70.5 -29t-75.5 -9q-77 0 -77 31q0 26 35 26q14 0 36.5 -8t49.5 -8q44 0 89 26t79 80q18 29 35.5 67.5t34 80.5t31 86.5l28.5 85.5l31 95l11 35
t4 19q0 9 -8 9q-3 0 -8 -2.5l-11 -5.5l-11.5 -5.5t-8.5 -2.5q-9 0 -9 10q0 6 15 18.5t35.5 25t41.5 22.5t33 10zM882 630q12 0 12 -14t-17 -62l-145 -414q-16 -44 -16 -53q0 -14 11 -14q6 0 13.5 4t15 9l13.5 9t11 4q8 0 8 -11q0 -9 -17 -23.5t-39.5 -29t-45.5 -25
t-34 -10.5q-17 0 -17 19q0 8 2.5 19.5t8.5 28.5l152 430q8 21 12 34.5t4 19.5q0 9 -9 9q-7 0 -20.5 -8t-18.5 -8q-9 0 -9 10q0 6 15 18.5t35 25.5t41.5 22.5t33.5 9.5zM947 725q13 0 24.5 4t21.5 8.5l18.5 8.5t16.5 4q10 0 10 -13q0 -3 -9 -14.5t-21.5 -24t-25 -23
t-19.5 -10.5q-47 0 -100.5 6t-126 13t-170 13t-230.5 6q-44 0 -89.5 -13t-82.5 -38t-60 -61.5t-23 -82.5q0 -69 42.5 -103.5t124.5 -34.5q16 0 16 -16t-21 -16q-112 0 -167.5 40.5t-55.5 128.5q0 62 35 107.5t90 75.5t123 45t134 15q102 0 187.5 -4t154 -8.5t119.5 -8.5
t84 -4zM734 630q11 0 11 -10q0 -8 -4 -14q-12 -15 -23 -31t-22.5 -39.5t-24.5 -57.5t-30 -85l-67 -201q-8 -25 -24 -58t-35 -63t-39.5 -50.5t-37.5 -20.5q-11 0 -11 9t11 20q23 20 44.5 68.5t44.5 117.5l74 221q10 31 28.5 65t38.5 62.5t38 47.5t28 19z" />
    <glyph glyph-name="afii10037" unicode="&#x423;" horiz-adv-x="864" 
d="M925 750q12 0 12 -14q0 -6 -4 -21t-13 -41l-97 -284q-32 -92 -67 -175t-81 -145t-106 -98.5t-141 -36.5q-77 0 -77 31q0 26 35 26q14 0 36.5 -8t49.5 -8q55 0 96.5 30.5t73.5 79t55.5 108t42.5 117.5h-3q-79 -58 -161 -58q-38 0 -61.5 27t-23.5 68q0 29 11 60l21 60
l44 129q4 12 6 24.5t2 26.5q0 20 -19 33.5t-48.5 21.5t-65 11t-67.5 3q-46 0 -97 -14t-94 -41t-71.5 -66t-28.5 -88q0 -138 164 -138q16 0 16 -16t-21 -16q-112 0 -167.5 40.5t-55.5 128.5q0 38 16.5 71t44 60t63.5 47.5t75.5 35t79.5 22t76 7.5q35 0 82 -3.5t89 -12.5
t71.5 -23.5t29.5 -35.5q0 -17 -21 -78l-46 -128q-16 -44 -22.5 -70.5t-6.5 -41.5q0 -62 62 -62q61 0 140 65l98 285q7 19 7 26q0 9 -10 9q-7 0 -20 -8t-19 -8q-9 0 -9 10q0 6 15.5 18.5t36.5 25.5t42 22.5t31 9.5z" />
    <glyph glyph-name="afii10038" unicode="&#x424;" horiz-adv-x="866" 
d="M791 861q24 0 33.5 -5.5t9.5 -16.5q0 -13 -7 -22t-25 -9q-54 0 -87.5 -11t-55 -34t-36 -58t-30.5 -83l-147 -446q-3 -9 -5.5 -20t-2.5 -16q0 -23 18.5 -38t72.5 -15q56 0 98 22.5t72.5 58t50.5 78t32 82.5t17 72.5t5 46.5q0 59 -11.5 103t-30.5 73.5t-45 44t-54 14.5
q-9 0 -12 2.5t-3 14.5q0 11 3.5 14.5t15.5 3.5q35 0 70 -14.5t63.5 -47t46 -83t17.5 -122.5q0 -33 -10 -76t-29.5 -87.5t-48.5 -87t-66 -76t-82.5 -54t-98.5 -20.5q-13 0 -31 3t-36 8t-33.5 11.5t-22.5 14.5q-19 -41 -45 -81t-63 -71.5t-86.5 -51t-114.5 -19.5q-77 0 -77 31
q0 26 35 26q14 0 36.5 -8t49.5 -8q54 0 89.5 16.5t64 55.5t55 103.5t60.5 160.5l107 300q13 35 18 53t5 25q0 23 -27 42t-88 19q-63 0 -114 -33t-86.5 -85t-55 -116t-19.5 -126q0 -63 11 -107.5t30.5 -73t46 -41.5t57.5 -13q6 0 8.5 -2.5t2.5 -14.5q0 -11 -3.5 -14.5
t-15.5 -3.5q-30 0 -65 13t-64.5 44t-49 82.5t-19.5 127.5q0 70 27.5 141.5t73.5 129t107 94t128 36.5q32 0 54.5 -4t39 -10.5t28 -14.5t20.5 -15l4 8q17 35 41.5 67.5t53.5 57.5t61 40t64 15z" />
    <glyph glyph-name="afii10039" unicode="&#x425;" horiz-adv-x="828" 
d="M264 354q0 -16 -21 -16q-223 0 -223 169q0 55 24.5 100t64.5 76.5t91.5 49t105.5 17.5q208 0 268 -213l24 -85l45 81q24 43 49.5 82t55.5 69t65 48t76 18q37 0 37 -31t-36 -31q-5 0 -14 0.5t-18 0.5q-32 0 -58 -14t-49 -38.5t-44.5 -58.5t-43.5 -73l-55 -98l67 -323
q4 -24 23 -24q7 0 15.5 6.5t16.5 14l15 14t11 6.5q17 0 17 -16q0 -5 -15 -22t-35.5 -35.5t-41 -33t-31.5 -14.5q-20 0 -28 38l-56 314l-75 -132q-28 -50 -54.5 -90.5t-55 -69t-62 -44.5t-75.5 -16q-36 0 -37 31q0 31 36 31q5 0 13 -0.5t19 -0.5q33 0 58 11.5t46.5 34.5
t43 58.5l48.5 82.5l84 149l-26 126q-10 50 -27 89.5t-44 67.5t-64 42.5t-88 14.5q-44 0 -84 -15.5t-70.5 -43.5t-49 -66.5t-18.5 -83.5q0 -138 164 -138q16 0 16 -16z" />
    <glyph glyph-name="afii10040" unicode="&#x426;" horiz-adv-x="892" 
d="M953 730q12 0 12 -14q0 -16 -17 -62l-180 -514q-8 -23 -12 -36.5t-4 -16.5q0 -15 11 -15q7 0 25.5 12l40 27t43.5 27t37 12q17 0 17 -20q0 -15 -7 -56t-24.5 -93.5t-47 -109.5t-74 -104.5t-105.5 -78.5t-142 -31q-38 0 -74 8.5t-64 23t-44.5 33.5t-16.5 40q0 31 31 31
q13 0 22 -7t17 -18l17.5 -23t24 -23t36 -18t53.5 -7q75 0 127.5 21.5t90.5 67.5q21 26 40.5 70.5t35 89.5t24.5 80.5t9 42.5q0 15 -12 15q-9 0 -27.5 -13l-40 -29t-45 -29t-42.5 -13q-17 0 -17 19q0 2 1.5 12t6.5 27q-79 -58 -161 -58q-38 0 -61.5 27t-23.5 68q0 29 11 60
l21 60l129 382q4 12 6 24.5t2 26.5q0 20 -19.5 33.5t-49 21.5t-64.5 11t-67 3q-54 0 -110 -12.5t-102.5 -38.5t-76 -65.5t-29.5 -92.5q0 -138 164 -138q16 0 16 -16t-21 -16q-112 0 -167.5 40.5t-55.5 128.5q0 60 36.5 105.5t92.5 76t123.5 46t129.5 15.5q44 0 92 -4.5
t88 -14t66 -23.5t26 -33q0 -17 -21 -78l-131 -381q-29 -85 -29 -112q0 -62 62 -62q63 0 141 66l67 187.5l106 301.5q15 42 15 54q0 9 -8 9q-3 0 -8.5 -2.5l-11.5 -5.5l-11 -5.5t-8 -2.5q-9 0 -9 10q0 7 16.5 20t37.5 25.5t41.5 21.5t29.5 9z" />
    <glyph glyph-name="afii10041" unicode="&#x427;" horiz-adv-x="892" 
d="M953 730q12 0 12 -14q0 -13 -17 -62l-180 -514q-16 -44 -16 -53q0 -15 11 -15q6 0 13.5 4t15 9.5t14 9.5t10.5 4q8 0 8 -11q0 -7 -17 -21.5t-39.5 -29.5t-45 -26t-34.5 -11q-17 0 -17 19q0 1 7 22l17.5 52.5l23 69l24 70.5t19 57.5t9.5 30.5q-79 -58 -161 -58
q-38 0 -61.5 27t-23.5 68q0 12 5.5 34.5t14.5 50l18.5 58.5l18.5 59t14.5 51.5t5.5 36.5q0 20 -19 33.5t-48.5 21.5t-65 11t-67.5 3q-58 0 -115 -12.5t-102 -38.5t-73 -65.5t-28 -92.5q0 -138 164 -138q16 0 16 -16t-21 -16q-112 0 -167.5 43t-55.5 126q0 60 35 105.5t90 76
t123 46t134 15.5q37 0 84 -3.5t89 -12.5t70.5 -23.5t28.5 -35.5q0 -11 -6.5 -33.5t-16.5 -52l-21.5 -62.5l-21.5 -64t-16.5 -56.5t-6.5 -39.5q0 -62 62 -62q63 0 141 66l81 226q15 42 15 54q0 9 -8 9t-20.5 -8t-18.5 -8q-9 0 -9 10q0 7 15.5 20t36.5 25.5t41.5 21.5t31.5 9z
" />
    <glyph glyph-name="afii10042" unicode="&#x428;" horiz-adv-x="1150" 
d="M1159 713q12 0 12 -14q0 -7 -4.5 -23.5t-12.5 -38.5l-180 -514q-16 -45 -16 -53q0 -15 11 -15q6 0 13.5 4t15 9.5t14 9.5t10.5 4q8 0 8 -11q0 -7 -17 -21.5t-39.5 -29.5t-45 -26t-34.5 -11q-17 0 -17 19q0 2 8 39q-30 -25 -60 -41.5t-72 -16.5q-21 0 -41 10.5t-31 30.5
q-55 -41 -103 -41q-129 0 -129 139q0 50 28 131l117 344q4 12 6 24.5t2 26.5q0 20 -19 33.5t-48.5 21.5t-65 11t-67.5 3q-54 0 -110 -12.5t-102.5 -38.5t-76 -65.5t-29.5 -92.5q0 -138 164 -138q16 0 16 -16t-21 -16q-223 0 -223 169q0 60 36.5 105.5t92.5 76t123.5 46
t129.5 15.5q49 0 97.5 -5t87.5 -14.5t63 -23.5t24 -32q0 -17 -21 -78l-119 -343q-12 -36 -18.5 -66.5t-6.5 -56.5q0 -27 3 -47.5t12 -33.5t26 -19.5t44 -6.5q30 0 76 32q-1 5 -1.5 10.5t-0.5 11.5q0 23 10.5 55l21.5 65l129 379q8 23 11 36t3 18q0 9 -8 9q-7 0 -20.5 -8
t-18.5 -8q-9 0 -9 10q0 8 16 21t37.5 25t42 21t29.5 9q12 0 12 -14q0 -6 -4 -21t-13 -41l-150 -435q-29 -85 -29 -112q0 -63 62 -63q15 0 31.5 7.5t31.5 18t28 22t21 19.5l67 187.5l106 301.5q15 42 15 54q0 9 -8 9q-3 0 -9 -2.5t-12 -5.5l-11 -5.5t-7 -2.5q-9 0 -9 10
q0 7 16 20t37 25.5t41.5 21.5t30.5 9z" />
    <glyph glyph-name="afii10043" unicode="&#x429;" horiz-adv-x="1150" 
d="M1159 713q12 0 12 -14q0 -7 -4.5 -23.5t-12.5 -38.5l-180 -514q-16 -45 -16 -53q0 -15 11 -15q7 0 25.5 12l40.5 27t43.5 27t36.5 12q17 0 17 -20q0 -15 -7 -56t-24.5 -93.5t-47 -109.5t-74 -104.5t-105.5 -78.5t-142 -31q-38 0 -74 8.5t-64 23t-44.5 33.5t-16.5 40
q0 31 31 31q13 0 22 -7t17 -18l17.5 -23t24 -23t36 -18t53.5 -7q75 0 127.5 21.5t90.5 67.5q21 26 40.5 70.5t35 89.5t24.5 80.5t9 42.5q0 15 -12 15q-9 0 -27.5 -13l-40 -29t-45 -29t-42.5 -13q-17 0 -17 19q0 2 1.5 12t6.5 27q-30 -25 -60 -41.5t-72 -16.5q-21 0 -41 10.5
t-31 30.5q-55 -41 -103 -41q-129 0 -129 139q0 50 28 131l117 344q4 12 6 24.5t2 26.5q0 20 -19 33.5t-48.5 21.5t-65 11t-67.5 3q-54 0 -110 -12.5t-102.5 -38.5t-76 -65.5t-29.5 -92.5q0 -138 164 -138q16 0 16 -16t-21 -16q-223 0 -223 169q0 60 36.5 105.5t92.5 76
t123.5 46t129.5 15.5q37 0 84 -3.5t89 -12.5t70.5 -23.5t28.5 -35.5q0 -17 -21 -78l-119 -343q-12 -36 -18.5 -66.5t-6.5 -56.5q0 -27 3 -47.5t12 -33.5t26 -19.5t44 -6.5q30 0 76 32q-1 5 -1.5 10.5t-0.5 11.5q0 25 10.5 56.5l21.5 63.5l129 379q8 23 11 36t3 18q0 9 -8 9
q-7 0 -20.5 -8t-18.5 -8q-9 0 -9 10q0 8 16.5 21t38 25t42 21t28.5 9q12 0 12 -14q0 -6 -4 -21t-13 -41l-150 -435q-29 -85 -29 -112q0 -63 62 -63q16 0 32 7.5t31 18t28 22t21 19.5l67 187.5l106 301.5q15 42 15 54q0 9 -8 9q-3 0 -9 -2.5t-12 -5.5l-11 -5.5t-7 -2.5
q-9 0 -9 10q0 7 16.5 20t37.5 25.5t41.5 21.5t29.5 9z" />
    <glyph glyph-name="afii10044" unicode="&#x42a;" horiz-adv-x="892" 
d="M543 447q-35 -17 -58.5 -44t-40.5 -65q-5 0 -10.5 2t-5.5 9q0 13 11 33.5t29 42t41.5 40.5t49.5 29l35 103q4 12 6 24.5t2 26.5q0 20 -19 33.5t-48.5 21.5t-65 11t-67.5 3q-53 0 -110 -13t-104 -39t-77 -65t-30 -92q0 -69 43 -103t124 -34q16 0 16 -17q0 -16 -21 -16
q-112 0 -167.5 40.5t-55.5 128.5q0 60 36.5 105.5t92.5 76t123.5 46t129.5 15.5q37 0 84 -3.5t89 -12.5t70.5 -23.5t28.5 -35.5q0 -17 -21 -78l-32 -94q10 3 25 3q34 0 69.5 -10t64 -35t46.5 -67.5t18 -106.5q0 -54 -26.5 -107t-70 -94.5t-99 -67t-113.5 -25.5
q-44 0 -73 28.5t-29 73.5q0 30 11.5 61t20.5 59l78 232v0zM522 216q-28 -83 -28 -112t14.5 -50t45.5 -21q45 0 86.5 20.5t74 55.5t51.5 80.5t19 95.5t-13.5 84t-35.5 55t-50.5 30.5t-59.5 9.5h-19z" />
    <glyph glyph-name="afii10045" unicode="&#x42b;" horiz-adv-x="638" 
d="M172 447q-67 -31 -99 -109q-5 0 -10.5 2t-5.5 9q0 13 9.5 33t26.5 41t41.5 40.5t53.5 30.5l18 53l7.5 21l9 26l8 23.5t3.5 13.5q0 9 -8 9q-7 0 -20 -8t-19 -8q-9 0 -9 10q0 7 16 20t37.5 25.5t42 21.5t29.5 9q12 0 12 -14q0 -16 -17 -62l-48 -131q10 3 25 3
q34 0 69.5 -10t64 -35t46.5 -67.5t18 -106.5q0 -54 -27 -106.5t-70.5 -94.5t-99 -67.5t-112.5 -25.5q-44 0 -73 28.5t-29 73.5q0 30 11.5 61t20.5 59l78 232v0zM151 216q-28 -83 -28 -112t14.5 -50t45.5 -21q45 0 86.5 21t74 56t51.5 80.5t19 94.5q0 53 -13.5 87.5t-35.5 55
t-50.5 28.5t-59.5 8h-19zM771 710q12 0 12 -14q0 -7 -4.5 -24t-12.5 -38l-176 -501q-16 -46 -16 -53q0 -14 11 -14q7 0 14.5 4t15 9l13.5 9t10 4q8 0 8 -11q0 -8 -16.5 -22.5t-39 -29t-45.5 -25.5t-35 -11q-17 0 -17 19q0 8 2.5 19.5t8.5 28.5l183 517q8 21 12 34.5t4 19.5
q0 9 -9 9q-8 0 -20 -8t-19 -8q-9 0 -9 10q0 5 14.5 17.5t35 25.5t41.5 23t34 10z" />
    <glyph glyph-name="afii10046" unicode="&#x42c;" horiz-adv-x="527" 
d="M178 447q-67 -31 -99 -109q-5 0 -10.5 2t-5.5 9q0 13 9.5 33t26.5 41t41.5 40.5t53.5 30.5l18 53l7.5 21l9 26l8 23.5t3.5 13.5q0 9 -8 9q-7 0 -20 -8t-19 -8q-9 0 -9 10q0 7 16 20t37.5 25.5t42 21.5t29.5 9q12 0 12 -14q0 -16 -17 -62l-48 -131q10 3 25 3
q34 0 69.5 -10t64 -35t46.5 -67.5t18 -106.5q0 -54 -27 -106.5t-70.5 -94.5t-99 -67.5t-112.5 -25.5q-44 0 -73 28.5t-29 73.5q0 30 11.5 61t20.5 59l78 232v0zM157 216q-28 -83 -28 -112t14.5 -50t45.5 -21q45 0 86.5 21t74 56t51.5 80.5t19 94.5q0 53 -13.5 87.5t-35.5 55
t-50.5 28.5t-59.5 8h-19z" />
    <glyph glyph-name="afii10047" unicode="&#x42d;" horiz-adv-x="596" 
d="M545 370q-27 -21 -55.5 -30t-65.5 -9q-6 0 -20.5 3t-33 7.5l-39 9.5l-39 9.5t-33.5 7.5t-21 3q-14 0 -25 -6t-19.5 -12.5t-14.5 -12.5t-10 -6q-7 0 -7 8q0 10 10.5 24t27 26t37.5 20.5t41 8.5q14 0 34 -5.5l43.5 -12t48 -12t47.5 -5.5q39 0 63.5 3.5t40.5 19.5q2 12 3 25
t1 25q0 50 -13 96t-38.5 81t-62 56t-82.5 21q-82 0 -137 -41t-63 -120q-6 -59 -36 -61q-24 0 -24 28q0 39 19 80t53.5 74.5t82 55t104.5 21.5q64 0 113.5 -21t83 -59.5t50.5 -92t17 -118.5q0 -53 -15.5 -109.5t-43 -110t-65 -100.5t-83 -82.5t-96 -56t-103.5 -20.5
q-32 0 -67 7t-64.5 23t-49 42.5t-19.5 65.5q0 37 5 46.5t13 9.5q11 0 14 -9t5 -27q2 -27 17.5 -48.5t38.5 -37t51 -24t56 -8.5q60 0 116 29.5t101 79.5t76 114.5t40 135.5z" />
    <glyph glyph-name="afii10048" unicode="&#x42e;" horiz-adv-x="1246" 
d="M668 402q17 72 51.5 135t82.5 110.5t108 75t128 27.5q60 0 105.5 -22t76 -60.5t46.5 -90t16 -111.5q0 -55 -10.5 -105t-31.5 -90.5t-52.5 -70.5t-73.5 -46q-8 -32 -32.5 -63.5t-58 -56t-72 -39.5t-73.5 -15q-51 0 -93 24t-71.5 63t-45.5 88.5t-16 100.5q0 23 1.5 45.5
t5.5 45.5q-32 -2 -90 -3q-21 -76 -52.5 -149.5t-74 -131t-96.5 -93t-120 -35.5q-37 0 -37 15t29 15q60 0 105.5 30.5t79 81t58 116.5t44.5 137q-23 0 -54.5 -20t-63.5 -52q-14 0 -14 10q0 8 15.5 27.5t38.5 40t49.5 38t49.5 22.5l63 201q4 13 6 25t2 26q0 16 -15 29
t-41.5 22t-63.5 13.5t-80 4.5q-54 0 -110 -12.5t-102.5 -38.5t-76 -65.5t-29.5 -92.5q0 -138 164 -138q16 0 16 -16t-21 -16q-112 0 -167.5 45t-55.5 124q0 60 36.5 105.5t92.5 76t123.5 46t129.5 15.5q37 0 84 -3.5t89 -12.5t70.5 -23.5t28.5 -35.5q0 -11 -21 -78l-61 -195
h81zM730 413q27 8 43 16.5t25.5 15.5t14.5 11.5t10 4.5q8 0 11 -3t3 -12q0 -13 -13 -27t-31 -26t-38.5 -21.5t-35.5 -13.5q-6 -38 -6 -76q0 -49 11 -96t34.5 -84t59 -59.5t84.5 -22.5q41 0 72 16t51.5 43.5t31 64t10.5 77.5q0 143 27 203q6 13 17.5 29t26 30.5t30 24.5
t27.5 10q10 0 10 -11q0 -2 -7 -8.5l-16.5 -15.5t-19 -20.5t-13.5 -23.5q-9 -26 -12 -60t-3 -85q0 -42 -3.5 -68t-8.5 -37q27 10 46 32.5t31.5 53t18 66.5t5.5 73q0 54 -12 107t-37 94t-63 66.5t-90 25.5q-60 0 -106.5 -23.5t-81.5 -64t-60.5 -93.5t-42.5 -113z" />
    <glyph glyph-name="afii10049" unicode="&#x42f;" horiz-adv-x="832" 
d="M292 336q12 16 26.5 32.5t29.5 30.5t30.5 23t29.5 9q19 0 33.5 -9.5t14.5 -42.5h1l37 104q10 29 12.5 39t2.5 15q0 9 -8 9q-9 0 -20.5 -8t-18.5 -8q-9 0 -9 10q0 6 15.5 19t36 25.5t41.5 22t32 9.5q12 0 12 -14q0 -15 -17 -62l-140 -400q-16 -44 -16 -53q0 -15 11 -15
q5 0 13 4t15.5 9.5t14.5 9.5t10 4q8 0 8 -11q0 -8 -17 -22.5t-39.5 -29t-45 -25.5t-34.5 -11q-17 0 -17 19q0 8 2.5 19.5t8.5 28.5l100 282h-2q-11 -14 -27 -23.5t-34 -15.5t-35 -9t-29 -3l-61.5 -88l-47 -66l-35 -47.5t-26.5 -33.5q-20 -24 -40.5 -43.5t-38.5 -19.5
q-8 0 -19 19.5t-21 44.5t-17 47t-7 28t3.5 11.5t8.5 5.5q4 0 9.5 -11.5t11.5 -25.5t12.5 -25.5t13.5 -11.5q12 0 57 50l23 26l28.5 33.5l38.5 46.5l53 65q-39 18 -65 42.5t-42 53t-22.5 59t-6.5 61.5q0 46 25.5 88t68 73.5t97.5 50.5t113 19q68 0 136 -15t123 -45.5t89 -78
t34 -111.5q0 -44 -14.5 -80t-37.5 -64.5t-51.5 -50t-55.5 -35t-49.5 -20.5t-34.5 -7q-11 0 -14.5 3t-3.5 13q0 7 7 11.5t25 9.5q76 22 122.5 78.5t46.5 141.5q0 56 -28 97t-74 67.5t-103.5 39.5t-116.5 13q-54 0 -99 -15.5t-77 -43t-49.5 -66.5t-17.5 -86q0 -138 101 -170z
M336 336q16 0 32.5 2t30 7.5t22.5 14t9 21.5q0 9 -6 15.5t-17 6.5q-17 0 -32.5 -16t-38.5 -51z" />
    <glyph glyph-name="afii10065" unicode="&#x430;" horiz-adv-x="425" 
d="M260 41q-56 -56 -141 -56q-111 0 -111 91q0 22 9.5 47.5t24.5 49.5t35 43.5t41 29.5q-3 12 -3 23q0 24 12.5 46t34 38.5t49.5 26.5t60 10q117 0 117 -114q0 -17 -12 -50l-56 -153q-8 -22 -8 -24q0 -12 12 -12q3 0 10.5 3.5l15.5 7t14.5 7t9.5 3.5q8 0 8 -10
q0 -9 -12.5 -18.5t-29.5 -18t-34.5 -13.5t-26.5 -5q-23 0 -23 22q0 11 4 26zM249 274q-36 0 -68 -18.5t-56.5 -46.5t-39 -60.5t-14.5 -60.5q0 -35 10.5 -53t48.5 -18q36 0 69.5 19t58.5 49t40 66t15 70q0 53 -64 53zM165 276q44 25 97 25q26 0 42.5 -8t31.5 -25q2 8 3 14
t1 11q0 30 -21 48.5t-55 18.5q-42 0 -69.5 -25t-29.5 -59z" />
    <glyph glyph-name="afii10066" unicode="&#x431;" horiz-adv-x="391" 
d="M270 390q40 0 67 -26t27 -84q0 -46 -14.5 -89.5t-52.5 -97.5q-20 -29 -39.5 -49.5t-39.5 -33.5t-41.5 -19t-46.5 -6q-23 0 -43 9.5t-35.5 26.5t-24.5 40.5t-9 52.5q0 32 6.5 73t18.5 84.5t30 88t42 83.5q38 64 85.5 105.5t95.5 41.5q13 0 25.5 -3.5l26 -7.5t29 -7.5
t33.5 -3.5q19 0 27.5 5t13 11t7.5 11t11 5q3 0 6 -1t3 -5q0 -20 -8.5 -33t-21.5 -20.5t-27 -11t-25 -3.5q-18 0 -34.5 3.5t-31.5 8t-29 8t-26 3.5q-24 0 -41.5 -8.5t-39.5 -37.5q-12 -17 -21.5 -36t-18 -43.5t-16 -55l-16.5 -69.5q29 41 65.5 66t82.5 25zM79 120
q0 -14 3 -32t11 -33.5t21 -26t34 -10.5q26 0 57 21t62 70q12 20 19.5 42t11 44.5t4.5 44.5t1 41q0 40 -15 58t-38 18q-25 0 -55 -19.5t-55.5 -52t-43 -75.5t-17.5 -90z" />
    <glyph glyph-name="afii10067" unicode="&#x432;" horiz-adv-x="358" 
d="M301 219q24 -5 42.5 -25t18.5 -51q0 -35 -19.5 -64t-50.5 -50t-69.5 -32.5t-77.5 -11.5q-63 0 -95.5 36t-32.5 99q0 46 19 94t51.5 87t74.5 64t89 25q63 0 95 -16t32 -58q0 -32 -23.5 -56.5t-53.5 -35.5v-5v0zM78 162q0 -47 5.5 -75.5t16.5 -43.5t26 -20t35 -5
q27 0 52 8.5t44.5 23.5t31.5 35.5t12 45.5q0 32 -13 46.5t-42 14.5q-19 0 -48 -6.5t-60 -12.5l-60 -11v0zM240 357q-30 0 -56.5 -13.5t-47.5 -36.5t-35 -53.5t-19 -64.5l136 30q99 22 99 90q0 25 -20 36.5t-57 11.5z" />
    <glyph glyph-name="afii10068" unicode="&#x433;" horiz-adv-x="328" 
d="M260 102q10 0 10 -11q0 -14 -7 -29t-25 -32q-26 -23 -58.5 -34t-70.5 -11q-37 0 -59.5 20.5t-22.5 58.5q0 25 9.5 45.5t24 38t32.5 32t36 27.5l40.5 29t37 27.5t27 27t10.5 27.5q0 24 -11.5 31.5t-31.5 7.5q-26 0 -48.5 -10t-42.5 -27q-10 -8 -13.5 -11.5t-8.5 -3.5
q-9 0 -9 10q0 25 44 49q11 6 21.5 11t23.5 8t30 5t41 2q6 0 17 -3.5t22 -12t19 -22t8 -32.5q0 -21 -13 -39t-33 -35t-44.5 -32.5l-48.5 -31.5q-26 -18 -41.5 -32t-23.5 -27t-10.5 -25.5t-2.5 -26.5q0 -35 12.5 -44t32.5 -9q26 0 53.5 13.5t48.5 44.5q17 26 25 26z" />
    <glyph glyph-name="afii10069" unicode="&#x434;" horiz-adv-x="427" 
d="M330 330q2 8 4.5 25.5t4.5 36t3 35.5t1 24q0 39 -9.5 62t-23 35.5t-28.5 16t-25 3.5q-29 0 -45 -7.5t-26.5 -17t-18 -17t-20.5 -7.5q-5 0 -6.5 4.5t-1.5 7.5q0 24 36 46.5t103 22.5q19 0 41.5 -6.5t41 -22t31 -41.5t12.5 -65q0 -42 -9 -94t-25 -105.5t-39.5 -104
t-52 -89.5t-62 -63t-70.5 -24q-119 0 -119 133q0 39 17.5 84.5t47.5 84.5t70.5 65t86.5 26q22 0 41.5 -13t38.5 -35h1zM321 297q-12 18 -31 33t-41 15t-50 -15t-52.5 -44t-41.5 -72t-17 -98q0 -48 20.5 -73t46.5 -25q30 0 57 25.5t49.5 65.5t38 90t21.5 98z" />
    <glyph glyph-name="afii10070" unicode="&#x435;" horiz-adv-x="358" 
d="M80 98q9 -80 81 -80q66 0 113 44q16 16 20 16q11 0 11 -12q0 -9 -13 -22q-57 -59 -147 -59q-63 0 -95.5 36t-32.5 99q0 49 19 97.5t51.5 87t74.5 62t89 23.5q91 0 91 -82q0 -40 -22.5 -77.5t-59.5 -67t-84 -47.5t-96 -18zM77 125q42 0 80 12.5t67 35t46.5 53.5t17.5 69
q0 62 -48 62q-38 0 -68 -20.5t-51 -53t-32.5 -72t-11.5 -77.5v-9v0z" />
    <glyph glyph-name="afii10072" unicode="&#x436;" horiz-adv-x="797" 
d="M385 249l120 332q15 40 15 59q0 9 -10 9q-4 0 -9.5 -3l-11.5 -6t-10.5 -6t-7.5 -3q-11 0 -11 11q0 8 14.5 19.5t34 22.5t39 18.5t28.5 7.5q16 0 16 -14q0 -9 -9 -34l-176 -490l153 134q42 36 84 64t88 28q12 0 25 -3.5t24.5 -9.5t19 -15t7.5 -21q0 -24 -21 -24
q-14 0 -20.5 6t-12 13.5t-12.5 14t-21 6.5q-77 0 -139 -95q-55 -86 -55 -156q0 -41 12.5 -64.5t35.5 -23.5q13 0 28 4.5t29.5 12.5t26 19t18.5 23q16 28 27 28q8 0 8 -13q0 -17 -12.5 -36t-33.5 -35t-48.5 -26t-58.5 -10q-46 0 -72 30t-26 75q0 28 13 65t27 65h-2l-111 -108
l-29 -82q-6 -17 -19 -31t-31 -14q-9 0 -11 8q0 3 3 14t8 23l57 158l-138 -121q-45 -39 -84 -60.5t-79 -21.5q-12 0 -25 3.5t-24.5 9.5t-19 15t-7.5 21q0 24 21 24q13 0 20 -6.5t12.5 -14t12.5 -13.5t21 -6q40 0 75.5 26.5t62 65t41.5 82t15 77.5q0 41 -12.5 64.5t-35.5 23.5
q-13 0 -28.5 -4.5t-29.5 -13t-26 -19t-18 -22.5q-15 -28 -27 -28q-8 0 -8 13q0 18 12 37t32.5 34.5t48.5 25.5t60 10q46 0 72 -30t26 -75q0 -29 -13.5 -65.5t-28.5 -65.5h2z" />
    <glyph glyph-name="afii10073" unicode="&#x437;" horiz-adv-x="358" 
d="M204 127q26 -7 46.5 -25t29.5 -44q7 5 13 6.5t8 1.5q5 0 7 -5t2 -11q0 -4 -5.5 -10t-15.5 -9q3 -15 3 -35q0 -46 -18.5 -94t-50 -87t-74 -64t-91.5 -25q-91 0 -91 82q0 33 16 64.5t42.5 58.5t61 47t70.5 31l70 21q-13 68 -79 68q-28 0 -45 -5t-19 -5t-3 9t-1 15q0 5 8 6
q37 7 73 20.5t64 35.5t45.5 52t17.5 69q0 62 -48 62q-35 0 -58.5 -15.5t-34.5 -44.5q-5 -13 -12.5 -24.5t-18.5 -11.5q-6 0 -16.5 7.5t-10.5 21.5q0 10 8 22q11 17 28.5 31t38.5 24.5t43.5 16.5t43.5 6q91 0 91 -82q0 -24 -11 -50.5t-29.5 -51t-44 -45.5t-53.5 -34zM230 2
q-42 -8 -80 -22.5t-66.5 -37t-45.5 -52.5t-17 -69q0 -62 48 -62q39 0 69 20.5t51 53t32 72t11 77.5q0 10 -2 20z" />
    <glyph glyph-name="afii10074" unicode="&#x438;" horiz-adv-x="390" 
d="M171 390q16 0 16 -14q0 -10 -4.5 -24t-11.5 -31l-89 -228q-9 -24 -9 -40q0 -22 21 -22t45.5 9.5t47 25t40 36t26.5 42.5l79 201q3 8 5.5 14t5.5 10q2 3 7.5 6.5l11.5 7t12.5 5.5t10.5 2q11 0 11 -8q0 -4 -12 -37l-95 -252l-10.5 -29t-3.5 -13q0 -12 10 -12q7 0 14.5 3.5
l14.5 7t12.5 7t8.5 3.5q10 0 10 -10q0 -9 -13 -19t-31 -18t-36.5 -13t-29.5 -5q-19 0 -19 20q0 14 2.5 24t7.5 23q-16 -16 -35 -29t-45 -24q-53 -24 -100 -24q-34 0 -35 42q0 25 13 60l80 213q6 16 6 20q0 9 -8 9q-3 0 -9.5 -3l-13 -6t-12 -6t-7.5 -3q-11 0 -11 11
q0 9 14.5 20.5t34.5 22t40.5 18t32.5 7.5z" />
    <glyph glyph-name="afii10075" unicode="&#x439;" horiz-adv-x="390" 
d="M171 390q16 0 16 -14q0 -10 -4.5 -24t-11.5 -31l-89 -228q-9 -24 -9 -40q0 -22 21 -22t45.5 9.5t47 25t40 36t26.5 42.5l79 201q3 8 5.5 14t5.5 10q2 3 7.5 6.5l11.5 7t12.5 5.5t10.5 2q11 0 11 -8q0 -4 -12 -37l-95 -252l-10.5 -29t-3.5 -13q0 -12 10 -12q7 0 14.5 3.5
l14.5 7t12.5 7t8.5 3.5q10 0 10 -10q0 -9 -13 -19t-31 -18t-36.5 -13t-29.5 -5q-19 0 -19 20q0 14 2.5 24t7.5 23q-16 -16 -35 -29t-45 -24q-53 -24 -100 -24q-34 0 -35 42q0 25 13 60l80 213q6 16 6 20q0 9 -8 9q-3 0 -9.5 -3l-13 -6t-12 -6t-7.5 -3q-11 0 -11 11
q0 9 14.5 20.5t34.5 22t40.5 18t32.5 7.5zM362 558q8 0 8 -14q0 -11 -9 -26t-23.5 -28t-33.5 -22t-40 -9q-14 0 -29 7t-15 15q0 7 23 30q25 25 29 25q3 0 5.5 -3l6 -7t9 -7t14.5 -3q14 0 26.5 8.5t16.5 23.5q3 10 12 10z" />
    <glyph glyph-name="afii10076" unicode="&#x43a;" horiz-adv-x="395" 
d="M86 120l-29 -82q-5 -16 -18.5 -30.5t-31.5 -14.5q-9 0 -11 8q0 3 3 13.5t8 23.5l81 223q15 40 15 59q0 9 -10 9q-8 0 -21 -9t-18 -9q-11 0 -11 11q0 8 14.5 19.5t34 22.5t39 18.5t28.5 7.5q16 0 16 -14q0 -9 -9 -34l-61 -170l163 144q85 74 131 74q28 0 28 -23
q0 -18 -17 -21q-12 -2 -24 -2t-24 -3q-20 -5 -39 -16.5t-39 -28.5l-73 -66l70 -159q14 -29 26 -29q6 0 11 3.5t10.5 8l10 8t8.5 3.5q12 0 12 -17q0 -5 -9.5 -14.5t-23 -18.5t-28.5 -15.5t-25 -6.5q-19 0 -34 35l-69 165z" />
    <glyph glyph-name="afii10077" unicode="&#x43b;" horiz-adv-x="441" 
d="M249 332q-23 -7 -37.5 -12.5t-24.5 -5.5q-12 0 -12 15q0 5 8 11.5t22 10.5l129 33q11 3 27.5 4.5t27.5 1.5q35 0 37 -42q0 -23 -15 -60l-84 -215q-8 -19 -8 -24q0 -12 12 -12q5 0 12 3.5l14 7l13.5 7t10.5 3.5q8 0 8 -10q0 -6 -10.5 -15.5t-26 -18.5t-33.5 -15t-33 -6
q-23 0 -23 22q0 14 16 58l75 209q5 14 8.5 26.5t3.5 20.5q0 11 -5.5 14.5t-21.5 3.5q-9 0 -23.5 -1.5t-29.5 -4.5l-76 -175q-20 -47 -37.5 -79.5t-34 -53.5t-34 -30.5t-38.5 -9.5q-26 0 -43.5 15t-17.5 32q0 8 5 17t19 9q10 0 14.5 -5t7.5 -11t6.5 -11t12.5 -5
q12 0 21.5 4.5t21.5 20.5t28.5 47t41.5 84l66 142v0z" />
    <glyph glyph-name="afii10078" unicode="&#x43c;" horiz-adv-x="595" 
d="M283 390q28 0 28 -72v-184q0 -29 3 -37.5t8 -8.5q7 0 39 50l106 168q25 39 47 61.5t48 22.5q18 0 18 -14q0 -5 -3 -13t-6 -21l-56 -223l-9.5 -39t-3.5 -17q0 -9 8 -9t21 9t18 9q11 0 11 -11q0 -6 -13.5 -17.5t-31.5 -22.5t-36.5 -19.5t-28.5 -8.5q-14 0 -16 14
q0 6 2 17.5t5 23.5l63 254h-5l-145 -233q-20 -33 -39.5 -51t-41.5 -18q-8 0 -13 14.5t-5 47.5q0 4 0.5 22t1.5 43t2.5 53t2.5 53t1.5 44t0.5 25h-1l-53 -136q-18 -47 -35 -80t-34.5 -53.5t-35.5 -30t-39 -9.5q-26 0 -43.5 15t-17.5 32q0 8 5 17t19 9q10 0 14.5 -5t7.5 -11
t6.5 -11t12.5 -5q12 0 22.5 4.5t23.5 20t29 46.5t38 85l47 113q4 9 5 12.5t1 5.5q0 8 -10 8q-21 0 -34.5 -9t-19.5 -9q-11 0 -11 11q0 7 14 18.5t33.5 22.5t40 19t34.5 8z" />
    <glyph glyph-name="afii10079" unicode="&#x43d;" horiz-adv-x="415" 
d="M192 390q16 0 16 -14q0 -11 -4.5 -24t-12.5 -31l-47 -116q11 8 24 13.5t33 5.5h53q20 0 36.5 6t21.5 17l37 98q7 17 10 22t9 9q7 5 16.5 9.5t17.5 4.5q10 0 10 -10q0 -4 -12 -37l-95 -252q-6 -15 -10 -27t-4 -15q0 -12 10 -12q6 0 13.5 3.5l15 7t13.5 7t8 3.5
q10 0 10 -10q0 -9 -13.5 -19t-31.5 -18t-36.5 -13t-28.5 -5q-19 0 -19 20q0 14 2.5 24.5t7.5 22.5l53 141q-27 -18 -64 -18h-45q-25 0 -41.5 -9t-20.5 -19l-47 -117q-8 -18 -19.5 -31.5t-31.5 -13.5q-9 0 -11 8q0 6 11 37l82 224q19 50 19 58q0 9 -8 9q-3 0 -9 -3l-12 -6
t-11 -6t-7 -3q-11 0 -11 11q0 7 13.5 18.5t33 22.5t40.5 19t36 8z" />
    <glyph glyph-name="afii10080" unicode="&#x43e;" horiz-adv-x="416" 
d="M261 390q30 0 54.5 -10.5t41.5 -29.5t26.5 -44t9.5 -54q0 -47 -18 -94.5t-49.5 -85.5t-75.5 -62.5t-95 -24.5q-29 0 -52.5 10.5t-40 29t-26 43t-9.5 52.5q0 53 20.5 101.5t53.5 86t75 60t85 22.5zM250 357q-37 0 -67 -20t-51.5 -51.5t-33 -71t-11.5 -78.5q0 -24 4.5 -45
t15 -37.5t26 -26t38.5 -9.5q39 0 69 21t50.5 53.5t31.5 72.5t11 78q0 21 -4.5 41.5t-14.5 36.5t-26 26t-38 10z" />
    <glyph glyph-name="afii10081" unicode="&#x43f;" horiz-adv-x="400" 
d="M208 376q0 -22 -17 -55q19 16 42.5 29t47 22t44 13.5t35.5 4.5q37 0 37 -42q0 -23 -15 -60l-84 -215q-8 -20 -8 -24q0 -12 12 -12q3 0 10.5 3.5l15 7l14.5 7t10 3.5q8 0 8 -10q0 -9 -12.5 -18.5t-29.5 -17.5t-34.5 -13.5t-26.5 -5.5q-23 0 -23 22q0 14 16 58l75 209
q10 27 10 40q0 22 -25 22q-20 0 -44 -10t-46.5 -26.5t-40.5 -36.5t-26 -40l-76 -193q-5 -13 -13 -24q-14 -19 -38 -21q-9 0 -11 8q0 6 11 37l82 224q19 50 19 58q0 9 -8 9t-20.5 -9t-18.5 -9q-11 0 -11 11q0 7 13.5 18.5t33 22.5t40.5 19t36 8q16 0 16 -14z" />
    <glyph glyph-name="afii10082" unicode="&#x440;" horiz-adv-x="400" 
d="M172 321q63 69 137 69q79 0 79 -98q0 -27 -10 -60t-28 -67.5t-42.5 -66.5t-54 -57.5t-63.5 -40.5t-69 -15q-48 0 -62 26l-30 -71q-36 -86 -74 -128.5t-75 -42.5q-20 0 -20 9q0 16 21 16q25 0 51 39.5t52 115.5l106 312q8 25 12 39.5t5 19.5q0 9 -8 9t-21 -9t-18 -9
q-11 0 -11 11q0 7 14.5 19t34 22.5t40.5 18.5t34 8q16 0 16 -14q0 -8 -4.5 -23t-12.5 -32h1zM276 344q-38 0 -71.5 -29t-58 -70.5t-39 -87.5t-14.5 -80q0 -60 50 -60q28 0 60.5 23t60 60.5t45.5 84.5t18 95q0 64 -51 64z" />
    <glyph glyph-name="afii10083" unicode="&#x441;" horiz-adv-x="345" 
d="M251 390q17 0 35.5 -2.5t34 -7t25.5 -12.5t10 -18q0 -33 -23 -33q-21 0 -34 19q-14 21 -59 21q-38 0 -68 -21t-51 -53t-32.5 -72t-11.5 -77q0 -23 4.5 -44.5t14.5 -37.5t26 -25.5t39 -9.5q13 0 28 5t29.5 13t26.5 19t18 23q15 28 27 28q8 0 8 -13q0 -16 -11.5 -34.5
t-32 -34.5t-48.5 -27t-61 -11q-27 0 -50.5 10.5t-41 29t-27 43t-9.5 52.5q0 52 20.5 101t53.5 86.5t75 60t85 22.5z" />
    <glyph glyph-name="afii10084" unicode="&#x442;" horiz-adv-x="555" 
d="M182 390q16 0 16 -14q0 -22 -17 -55q9 10 30 22t47 22.5t53 17.5t48 7q25 0 25 -14q0 -11 -6 -27q65 41 127 41q37 0 37 -42q0 -23 -15 -60l-82 -210q-10 -25 -10 -29q0 -12 12 -12q4 0 11 3.5l14.5 7l14.5 7t10 3.5q8 0 8 -10q0 -7 -11 -16.5t-26.5 -18t-33.5 -14.5
t-32 -6q-23 0 -23 22q0 14 16 58l75 209q10 27 10 40q0 21 -25 21q-20 0 -43.5 -8.5t-51.5 -28.5l-107 -268q-7 -17 -19.5 -31t-32.5 -14q-10 0 -10 8q0 3 2.5 12.5t8.5 24.5l82 224q23 64 23 67q0 14 -16 14q-23 0 -69 -27q-60 -37 -79 -85l-76 -193q-7 -17 -19.5 -31
t-32.5 -14q-10 0 -10 8q0 3 2.5 12.5t8.5 24.5l82 224q19 50 19 58q0 9 -8 9q-4 0 -9.5 -3l-11 -6l-10.5 -6t-8 -3q-11 0 -11 11q0 7 14 18.5t33.5 22.5t40.5 19t35 8z" />
    <glyph glyph-name="afii10085" unicode="&#x443;" horiz-adv-x="437" 
d="M201 390q16 0 16 -14q0 -11 -4.5 -24.5t-11.5 -30.5l-89 -228q-9 -21 -9 -40q0 -22 21 -22q28 0 54.5 13.5t49.5 35t40.5 47.5t27.5 50l66 168q7 17 11.5 23.5t17.5 13.5q16 8 24 8q11 0 11 -8q0 -4 -12 -37l-104 -275q-24 -65 -47.5 -119.5t-50.5 -95t-61 -63t-79 -22.5
q-12 0 -30.5 5t-36 14.5t-30.5 22.5t-13 28q0 28 26 28q9 0 17 -11l17.5 -23.5t22.5 -23.5t33 -11q32 0 56 16t44.5 48.5t39 82t39.5 117.5h-1q-19 -19 -41.5 -33.5t-46.5 -24.5t-47.5 -15t-44.5 -5q-35 0 -35 42q0 25 13 60l80 213q6 13 6 20q0 9 -8 9q-3 0 -9.5 -3l-13 -6
t-12 -6t-7.5 -3q-11 0 -11 11q0 8 14.5 19.5t34 22.5t40 18.5t33.5 7.5z" />
    <glyph glyph-name="afii10086" unicode="&#x444;" horiz-adv-x="604" 
d="M388 348q27 21 55.5 31.5t54.5 10.5q10 0 24.5 -6t27.5 -19t22 -32.5t9 -47.5q0 -49 -22 -102t-57.5 -97t-80.5 -72.5t-92 -28.5q-20 0 -36 8t-24 18l-30 -71q-72 -171 -151 -171q-20 0 -20 9q0 16 21 16q14 0 30 17t30.5 41t26.5 50.5t18 46.5l24 77q-55 -41 -108 -41
q-10 0 -24.5 6t-27.5 18.5t-22 32.5t-9 48q0 45 21 97.5t56 97.5t80.5 75t94.5 30q15 0 28.5 -4.5t22.5 -11.5l66 207q17 54 17 59q0 9 -8 9q-4 0 -9.5 -3l-11.5 -6t-11 -6t-8 -3q-10 0 -10 11q0 9 14.5 20.5t34 22t40.5 18t34 7.5q16 0 16 -14q0 -8 -54 -182l-22 -73
l-15 -49.5t-9.5 -30t-5.5 -13.5zM300 63q0 -29 12.5 -37t23.5 -8q36 0 69 22t58.5 58.5t41 85t15.5 101.5q0 32 -15.5 45t-41.5 13q-27 0 -49.5 -18t-40.5 -45.5t-32 -60.5t-23 -64t-13.5 -56t-4.5 -36zM308 312q0 29 -12.5 37t-23.5 8q-32 0 -64.5 -20t-59 -55.5
t-43.5 -84.5t-17 -107q0 -30 12 -44t45 -14q29 0 52 17t41 43.5t31.5 59t22 64t12.5 57t4 39.5z" />
    <glyph glyph-name="afii10087" unicode="&#x445;" horiz-adv-x="367" 
d="M162 390q15 0 20 -24l21 -105l6 10q71 119 153 119q28 0 28 -23q0 -20 -26 -20q-7 0 -11.5 1t-15.5 1q-49 0 -111 -101l-15 -25l29 -147q6 -29 21 -29q6 0 12 4.5t12 9.5l11 9.5t8 4.5q12 0 12 -15q0 -5 -10.5 -16.5t-25 -22.5t-30 -19.5t-25.5 -8.5q-22 0 -31 43
l-24 119l-27 -43q-19 -31 -35.5 -53.5t-34 -37t-38 -21.5t-46.5 -7q-28 0 -28 23q0 20 26 20q3 0 10 -1t17 -1q52 0 111 98l37 61l-24 117q-6 32 -17 32q-14 0 -29.5 -8t-20.5 -8q-11 0 -11 14q0 5 13 13.5t30.5 16.5t34 14t24.5 6z" />
    <glyph glyph-name="afii10088" unicode="&#x446;" horiz-adv-x="395" 
d="M171 390q16 0 16 -14q0 -11 -4.5 -24t-11.5 -31l-89 -228q-9 -23 -9 -40q0 -22 21 -22q32 0 78 26q60 34 81 87l79 201q4 10 6.5 15.5t5.5 9.5t7 6.5t10 5.5q16 8 24 8q11 0 11 -8q0 -4 -12 -37l-95 -252l-10.5 -29t-3.5 -13q0 -12 10 -12q9 0 22.5 7.5t26.5 17l23.5 17
t14.5 7.5q10 0 10 -13q0 -26 -7.5 -57.5t-21.5 -63.5t-33.5 -63t-44 -55t-53 -38.5t-59.5 -14.5q-60 0 -96 27q-14 10 -22.5 20t-8.5 23q0 14 8.5 20.5t18.5 6.5q5 0 11.5 -4t11.5 -13q17 -27 35 -40.5t48 -13.5q45 0 92 53.5t74 161.5q2 6 2 7q0 3 -2 3q-3 0 -15 -6.5
l-27 -14t-30.5 -14t-26.5 -6.5q-20 0 -20 22q0 14 1.5 23t8.5 24q-10 -9 -32 -25.5t-48 -27.5q-53 -24 -100 -24q-34 0 -35 42q0 25 13 60l80 213q6 13 6 20q0 9 -8 9q-4 0 -10 -3l-12 -6l-11.5 -6t-8.5 -3q-11 0 -11 11q0 9 15 20.5t35.5 22t40.5 18t31 7.5z" />
    <glyph glyph-name="afii10089" unicode="&#x447;" horiz-adv-x="346" 
d="M133 390q16 0 16 -14q0 -11 -5.5 -26l-10.5 -29l-37 -97q-9 -24 -9 -40q0 -22 21 -22q18 0 40 10.5t42.5 27t37 36.5t24.5 39l27 70q7 19 11.5 25t17.5 12q16 8 24 8q11 0 11 -8q0 -4 -12 -37l-95 -252l-10 -27.5t-4 -14.5q0 -12 10 -12q15 0 28.5 10.5t21.5 10.5
q10 0 10 -10q0 -6 -11 -15.5t-27.5 -18.5t-36 -15t-35.5 -6q-19 0 -19 20q0 12 1.5 20.5t6.5 20.5l50 136h-2q-13 -14 -32.5 -28t-41 -24.5t-44 -17t-41.5 -6.5q-35 0 -35 42q0 25 13 60l28 82q2 7 4 11.5t2 8.5q0 9 -8 9q-4 0 -10 -3l-12 -6l-11.5 -6t-8.5 -3q-11 0 -11 11
q0 8 14.5 19.5t34.5 22.5t40.5 18.5t32.5 7.5z" />
    <glyph glyph-name="afii10090" unicode="&#x448;" horiz-adv-x="561" 
d="M150 390q23 0 23 -22q0 -14 -16 -58l-75 -209q-5 -14 -7.5 -25t-2.5 -15q0 -14 6 -17.5t15 -3.5q16 0 37.5 11.5t42.5 28t38 36t23 36.5l76 193q5 13 13 24q15 21 39 21q10 0 10 -8q0 -3 -2.5 -12.5t-8.5 -24.5l-82 -224q-23 -61 -23 -67q0 -14 16 -14q18 0 41 11
t44.5 28t38.5 36.5t24 36.5l76 193q5 13 13 24q15 21 39 21q10 0 10 -8q0 -3 -2.5 -12.5t-8.5 -24.5l-82 -224q-19 -51 -19 -58q0 -9 8 -9q3 0 9 3l12 6t11 6t7 3q11 0 11 -11q0 -7 -14 -18.5t-32.5 -22.5t-36.5 -19t-25 -8q-20 0 -25.5 5.5t-5.5 13.5t4 22.5t17 36.5
q-15 -17 -38 -31t-48.5 -24.5t-49.5 -16.5t-41 -6q-18 0 -24 6.5t-6 14.5q0 10 3.5 22.5t11.5 23.5q-21 -14 -43 -26t-43.5 -21t-40.5 -14.5t-34 -5.5q-14 0 -18.5 13.5t-4.5 28.5q0 22 15 60l84 215l5.5 15t2.5 9q0 12 -12 12q-5 0 -11.5 -3.5t-14 -7t-14 -7t-10.5 -3.5
q-8 0 -8 10q0 9 12 18.5t28.5 17.5t34 13.5t28.5 5.5z" />
    <glyph glyph-name="afii10091" unicode="&#x449;" horiz-adv-x="555" 
d="M150 390q23 0 23 -22q0 -14 -16 -58l-75 -209q-10 -27 -10 -40q0 -11 4 -16t17 -5t34 10t42 26.5t39 36t26 39.5l76 193q8 20 20 32.5t32 12.5q10 0 10 -8q0 -3 -2.5 -12.5t-8.5 -24.5l-82 -224q-23 -64 -23 -67q0 -14 15 -14q14 0 35.5 10t43 25.5t40 35.5t26.5 41
l75 193q7 17 10 22t10 10q21 13 33 13q11 0 11 -8q0 -4 -12 -37l-91 -244l-10.5 -29t-3.5 -13q0 -12 10 -12q9 0 22.5 7.5t26.5 17l23.5 17t14.5 7.5q10 0 10 -13q0 -26 -7.5 -57.5t-21.5 -63.5t-33.5 -63t-44 -55t-53 -38.5t-59.5 -14.5q-23 0 -46 5.5t-41 14.5t-29 22
t-11 28q0 14 8.5 20.5t18.5 6.5q5 0 11.5 -4t11.5 -13q17 -27 35 -40.5t48 -13.5q27 0 49.5 15t41.5 38.5t33 51t24 52t15 42.5t5 23q0 3 -2 3q-3 0 -14.5 -7.5l-26.5 -17t-30.5 -17t-26.5 -7.5q-10 0 -15.5 9.5t-5.5 20.5q0 13 2 23.5t8 23.5q-35 -30 -80 -53.5t-100 -23.5
q-18 0 -24 6.5t-6 14.5q0 10 3.5 20.5t11.5 25.5q-21 -14 -43.5 -26.5t-44 -21.5t-41 -14t-32.5 -5q-14 0 -18.5 13.5t-4.5 28.5q0 22 15 60l84 215q8 19 8 24q0 12 -12 12q-4 0 -11 -3.5l-14.5 -7l-14.5 -7t-10 -3.5q-8 0 -8 10q0 9 12 18.5t28.5 17.5t34 13.5t28.5 5.5z
" />
    <glyph glyph-name="afii10092" unicode="&#x44a;" horiz-adv-x="457" 
d="M176 -15q-88 0 -88 99q0 18 3.5 40.5t15.5 46.5q25 51 45.5 81t35 47.5t22.5 25.5t8 16q0 4 -4 4q-6 0 -19.5 -4.5t-45.5 -4.5q-14 0 -27.5 3t-31.5 3q-14 0 -29 -6t-32 -23q-13 -13 -14 -13q-12 0 -12 7t9.5 21t24.5 27.5t33.5 24t36.5 10.5q31 0 52.5 -5.5t44.5 -5.5
q17 0 31 2t26 2q5 0 7 -1.5t2 -9.5q0 -6 -4 -13.5t-13.5 -22l-26 -38.5t-40.5 -64h1q38 35 75 50.5t67 15.5q43 0 66 -29t23 -71q0 -38 -20.5 -76t-54.5 -69t-77.5 -50.5t-89.5 -19.5zM302 263q-27 0 -56 -15t-52.5 -39.5t-38.5 -57t-15 -68.5q0 -65 57 -65q36 0 65.5 17.5
t50.5 43.5t32.5 55t11.5 53q0 42 -12.5 59t-42.5 17z" />
    <glyph glyph-name="afii10093" unicode="&#x44b;" horiz-adv-x="527" 
d="M162 390q16 0 16 -14q0 -5 -7 -25t-16.5 -44l-18 -45.5t-11.5 -27.5q44 41 80.5 53.5t62.5 12.5q45 0 67 -29t22 -71q0 -38 -20.5 -76t-54.5 -69t-77.5 -50.5t-89.5 -19.5q-88 0 -88 99q0 37 19 87l38 102q15 40 15 47q0 9 -8 9t-21.5 -9t-18.5 -9q-11 0 -11 11
q0 7 14.5 19t34 22.5t40 18.5t33.5 8zM244 263q-28 0 -57 -15.5t-53 -41t-39.5 -58t-15.5 -65.5q0 -65 56 -65q36 0 66 17.5t51 43.5t32.5 55t11.5 53q0 42 -11 59t-41 17zM509 390q18 0 18 -14q0 -9 -9 -34l-82 -226q-8 -23 -12 -36.5t-5 -16.5q0 -9 8 -9t21 9t18 9
q11 0 11 -11q0 -6 -14 -17.5t-33 -23t-37 -19.5t-26 -8q-14 0 -16 14q0 10 8 34l79 220q16 44 16 59q0 9 -11 9q-8 0 -21 -9t-18 -9q-11 0 -11 11q0 7 14 18.5t33 22.5t38.5 19t30.5 8z" />
    <glyph glyph-name="afii10094" unicode="&#x44c;" horiz-adv-x="396" 
d="M162 390q16 0 16 -14q0 -5 -7 -25t-16.5 -44l-18 -45.5t-11.5 -27.5q44 41 80.5 53.5t62.5 12.5q45 0 67 -29t22 -71q0 -38 -20.5 -76t-54.5 -69t-77.5 -50.5t-89.5 -19.5q-88 0 -88 99q0 37 19 87l38 102q15 40 15 47q0 9 -8 9t-21.5 -9t-18.5 -9q-11 0 -11 11
q0 7 14.5 19t34 22.5t40 18.5t33.5 8zM244 263q-28 0 -57 -15.5t-53 -41t-39.5 -58t-15.5 -65.5q0 -65 56 -65q36 0 66 17.5t51 43.5t32.5 55t11.5 53q0 42 -11 59t-41 17z" />
    <glyph glyph-name="afii10095" unicode="&#x44d;" horiz-adv-x="345" 
d="M293 215q1 6 1.5 16.5t0.5 23.5q0 17 -5 35t-15 33t-26 24.5t-38 9.5q-15 0 -30.5 -5t-29.5 -13.5t-25 -19.5t-17 -22q-15 -28 -27 -28q-4 0 -7.5 3t-3.5 10q0 16 12.5 34.5t34 35t49.5 27.5t59 11q27 0 50.5 -10t41 -28t27.5 -43t10 -55q0 -46 -18 -94t-49.5 -87
t-74.5 -64t-92 -25q-55 0 -84 16q-11 6 -16 11t-5 13q0 33 23 33q21 0 34 -19q13 -21 59 -21q31 0 56 13.5t44.5 36t33.5 52t23 61.5q-13 -13 -26.5 -18t-32.5 -5q-5 0 -15 2.5l-22 5.5l-22.5 5.5t-16.5 2.5q-16 0 -29.5 -7t-24.5 -7q-4 0 -5.5 5t-1.5 10q0 3 7 10.5t17 15
t22 13t22 5.5q22 0 40.5 -7.5t42.5 -7.5q22 0 31.5 2t17.5 10z" />
    <glyph glyph-name="afii10096" unicode="&#x44e;" horiz-adv-x="572" 
d="M417 390q30 0 54.5 -10.5t41.5 -29.5t26.5 -44t9.5 -54q0 -45 -17.5 -92.5t-49 -86t-75.5 -63.5t-96 -25q-27 0 -50.5 10.5t-41 29t-27 43t-9.5 52.5q0 34 9 67h-24q-16 0 -34 -11t-22 -21l-47 -117q-8 -18 -19.5 -31.5t-31.5 -13.5q-9 0 -11 8q0 6 11 37l82 224
q19 50 19 58q0 9 -8 9q-4 0 -9.5 -3l-11.5 -6t-10.5 -6t-7.5 -3q-11 0 -11 11q0 8 14.5 19.5t34.5 22.5t40.5 18.5t33.5 7.5q16 0 16 -14q0 -11 -4.5 -24t-12.5 -31l-47 -116q11 8 22.5 11t24.5 3h23q14 35 36.5 66t51 54.5t61 37t66.5 13.5zM406 357q-36 0 -66.5 -21
t-53 -53t-35 -71t-12.5 -76q0 -23 5.5 -44.5t17 -38t28 -26t37.5 -9.5q38 0 68 21t51 53.5t32 72.5t11 78q0 21 -4.5 41.5t-14.5 36.5t-26 26t-38 10z" />
    <glyph glyph-name="afii10097" unicode="&#x44f;" horiz-adv-x="337" 
d="M143 155l-92 -127q-13 -17 -29 -26t-26 -9q-8 0 -20.5 6t-24 14.5t-20 18t-8.5 16.5q0 9 5 13t11 4q4 0 7.5 -3.5l8 -8t9 -8t9.5 -3.5q7 0 18 5t24 20l86 100q-26 13 -45.5 37t-19.5 61q0 19 9.5 40.5t31 40.5t55.5 31.5t84 12.5q14 0 35 -1t40.5 -2.5t33.5 -4.5t14 -6
q0 -7 -1.5 -13t-6.5 -18l-95 -252q-9 -23 -11.5 -31.5t-2.5 -10.5q0 -12 10 -12q6 0 14 3.5t15 7t13 7t8 3.5q10 0 10 -10q0 -8 -12.5 -17.5t-30 -18t-36 -14t-31.5 -5.5q-19 0 -19 20q0 15 3 27q1 2 5 15.5t10 30.5l12 35.5t11 31.5h-61zM284 357q-7 2 -17.5 3.5t-20.5 1.5
q-23 0 -49 -5.5t-47.5 -18t-35.5 -32.5t-14 -50q0 -26 9.5 -40.5t24.5 -21.5t33 -8.5t34 -1.5h15z" />
    <glyph glyph-name="afii10058" unicode="&#x409;" horiz-adv-x="1179" 
d="M1131 287q0 -54 -27 -107t-71 -94.5t-99 -67t-112 -25.5q-17 0 -39.5 9t-35.5 21q-11 11 -18 23t-7 28q-1 21 3 42t10 42l12.5 42.5t11.5 42.5l68 194q-13 -8 -25 -20q-14 -13 -25.5 -29.5t-13.5 -16.5q-5 1 -10 4t-4 10q3 12 28 44q13 17 30 30t36 23l41 115
q15 42 15 54q0 9 -5 9t-12.5 -3t-13.5 -6q-20 -10 -42 -24t-44.5 -36.5t-44.5 -56t-43 -82.5q-43 -100 -78.5 -164t-46.5 -81q-137 -215 -282 -215q-64 0 -110.5 21.5t-88.5 66.5q-68 72 -68 146q0 28 24 28q29 0 36 -61q9 -64 54 -109q55 -52 146 -52q33 0 60.5 7t53 24.5
t50.5 45.5t53 70l34 53.5l36 62t35 67.5t31 71q26 66 54 109t58 70.5t63 44t69 30.5q-11 1 -37.5 4t-62 6.5t-75 7t-77 6l-68 4.5t-47.5 2q-104 0 -179 -48q-91 -57 -91 -161q0 -138 162 -138q16 0 16 -16t-21 -16q-221 0 -221 169q0 115 116 184q98 59 218 59
q46 0 109.5 -3t128.5 -6.5l124.5 -6.5t96.5 -3l-1 -1q12 0 12 -14q0 -11 -17 -62l-53 -150q5 2 11 2h12q34 0 69.5 -10t64 -35t46.5 -67.5t18 -106.5zM896 464l-95 -272q-11 -32 -15.5 -54t-4.5 -34q0 -29 14.5 -50t45.5 -21q45 0 86.5 20.5t74 55.5t51.5 80.5t19 95.5
q0 54 -13.5 88.5t-35.5 54.5t-50.5 28t-59.5 8h-17z" />
    <glyph glyph-name="afii10106" unicode="&#x459;" horiz-adv-x="647" 
d="M294 84q0 37 19 87l41 111q12 31 12 47q0 11 -5.5 14.5t-21.5 3.5q-9 0 -23.5 -1.5t-29.5 -4.5l-76 -175q-20 -47 -37.5 -79.5t-34 -53.5t-34 -30.5t-38.5 -9.5q-26 0 -43.5 15t-17.5 32q0 8 5 17t19 9q10 0 14.5 -5t7.5 -11t6.5 -11t12.5 -5q12 0 21.5 4.5t21.5 20.5
t28.5 47t41.5 84l66 142q-23 -7 -37.5 -12.5t-24.5 -5.5q-12 0 -12 15q0 5 8 11.5t22 10.5l129 33q11 3 27.5 4.5t27.5 1.5q35 0 37 -42q0 -11 -4.5 -26.5t-10.5 -33.5l-19 -54q44 41 80.5 53.5t62.5 12.5q42 0 65.5 -29t23.5 -71q0 -38 -20.5 -76t-54.5 -69t-77.5 -50.5
t-89.5 -19.5q-88 0 -88 99zM359 150q-13 -32 -13 -67q0 -65 56 -65q36 0 66 17.5t51 43.5t32.5 55t11.5 53q0 42 -11 59t-41 17q-19 0 -42 -10t-44.5 -26t-39 -36t-26.5 -41z" />
    <glyph glyph-name="afii10059" unicode="&#x40a;" horiz-adv-x="1165" 
d="M1117 287q0 -54 -27 -107t-71 -94.5t-99 -67t-112 -25.5q-17 0 -39.5 9t-35.5 21q-11 11 -18 23t-7 28q0 41 11.5 84t25.5 85l52 150q-60 -35 -111 -44q-14 -2 -45.5 -3.5t-66.5 -1.5q-39 -139 -97 -235q-104 -174 -246 -174q-37 0 -37 15t29 15q111 0 188 117
q55 85 99 248q-38 -4 -79 -38l-18 -15t-12 -11t-9 -8q-14 0 -14 10q0 16 50 64q53 50 103 64l63 201q4 13 6 25t2 26q0 31 -52 49q-27 10 -63.5 15t-84.5 5q-116 0 -207 -48q-111 -57 -111 -161q0 -138 164 -138q16 0 16 -16t-21 -16q-112 0 -167.5 40.5t-55.5 128.5
q0 115 132 184q113 59 250 59q116 0 195 -22q75 -22 77 -53q0 -11 -21 -78l-61 -195q109 0 165 18q55 19 72 63l40 114q15 42 15 54q0 9 -8 9q-2 0 -7 -1.5t-13 -6.5q-12 -8 -19 -8q-9 0 -9 10q0 14 53 45q50 29 72 31q12 0 12 -14q0 -7 -3.5 -22.5t-13.5 -39.5l-59 -151
q5 2 14.5 2.5t15.5 0.5q34 0 69.5 -10t64 -35t46.5 -67.5t18 -106.5zM882 464l-95 -272q-11 -33 -15.5 -54.5t-4.5 -33.5q0 -29 14.5 -50t45.5 -21q45 0 86.5 20.5t74 55.5t51.5 80.5t19 95.5q0 54 -13.5 88.5t-35.5 54.5t-50.5 28t-59.5 8h-17z" />
    <glyph glyph-name="afii10107" unicode="&#x45a;" horiz-adv-x="617" 
d="M264 84q0 37 19 87l12 30q-27 -18 -64 -18h-45q-25 0 -41.5 -9t-20.5 -19l-47 -117q-7 -18 -19 -30.5t-32 -14.5q-9 0 -11 8q0 6 11 37l82 224q19 50 19 58q0 9 -8 9q-2 0 -7.5 -3t-12.5 -6t-12.5 -6t-6.5 -3q-11 0 -11 11q0 9 16 20.5t37 22t41 18t29 7.5q16 0 16 -14
q0 -11 -4.5 -24t-12.5 -31l-47 -116q11 8 24 13.5t33 5.5h53q20 0 36.5 6t21.5 17l37 98q6 17 18.5 31t34.5 14q10 0 10 -10q0 -1 -3.5 -13t-8.5 -24l-38 -109q44 41 80.5 53.5t62.5 12.5q42 0 65.5 -29t23.5 -71q0 -38 -20.5 -76t-54.5 -69t-77.5 -50.5t-89.5 -19.5
q-88 0 -88 99zM329 150q-13 -32 -13 -67q0 -65 56 -65q36 0 66 17.5t51 43.5t32.5 55t11.5 53q0 42 -11 59t-41 17q-19 0 -42 -10t-44.5 -26t-39 -36t-26.5 -41z" />
    <glyph glyph-name="afii10054" unicode="&#x405;" horiz-adv-x="642" 
d="M266 5q64 0 113.5 19t83 54.5t50.5 84.5t17 109q0 38 -10.5 73.5t-36.5 69.5l-41.5 52l-44.5 52q-46 57 -46 103q0 55 33 91.5t89 36.5q39 0 70 -17q29 -16 30 -16t4.5 2.5t5.5 10.5q4 13 17 13q17 0 23 -31q3 -17 3 -73q0 -74 -16 -74q-20 0 -20 36q0 23 -10 44t-26 37
t-37.5 25.5t-43.5 9.5q-27 0 -46.5 -19.5t-19.5 -48.5q0 -41 48 -98l60 -71.5t27 -35.5q48 -72 48 -160q0 -72 -23.5 -129.5t-66 -98t-102.5 -62t-133 -21.5q-57 0 -105.5 13.5t-84 41t-55.5 69t-20 97.5q0 75 41 131t109 88q48 23 72 23q16 0 17 -14q0 -11 -27 -18
q-69 -20 -111 -71.5t-42 -124.5q0 -96 52 -149.5t155 -53.5z" />
    <glyph glyph-name="afii10057" unicode="&#x408;" horiz-adv-x="582" 
d="M237 354q0 -16 -21 -16q-40 0 -75.5 10.5t-62.5 32t-42.5 53t-15.5 73.5q0 57 35.5 102t89 76.5t117 48t120.5 16.5q36 0 83 -3.5t89 -12.5t71 -23.5t29 -35.5q0 -18 -21 -78l-140 -399q-26 -74 -65.5 -148.5t-89 -135.5t-108.5 -99t-124 -38q-37 0 -67 13t-51 36
t-32 54.5t-11 67.5q0 42 17.5 89t49 93.5t76 89.5t99 75.5t117.5 52t132 19.5q30 0 30 -27q0 -21 -42 -21q-70 0 -128.5 -18t-105 -48t-81 -68t-58 -78.5t-35 -79.5t-11.5 -71q0 -142 106 -142q54 0 102.5 33t89 85.5t72.5 117t54 127.5l145 420q8 24 8 51q0 20 -19 33.5
t-48.5 21.5t-65 11t-67.5 3q-53 0 -106 -15t-95.5 -42.5t-69.5 -66t-27 -85.5q0 -63 38 -100.5t99 -37.5q15 0 16 -16z" />
    <glyph glyph-name="afii10105" unicode="&#x458;" horiz-adv-x="170" 
d="M-179 -201q100 0 189 246l77 216q16 44 16 59q0 9 -11 9q-6 0 -21 -9t-18 -9q-11 0 -11 11q0 13 48 40q47 28 68 28q18 0 18 -14q0 -9 -9 -34l-105 -293q-62 -171 -150 -240q-48 -37 -86 -37q-22 0 -22 12q0 15 17 15zM177 522q-9 6 -9 11t25 29q26 23 30 23q7 0 14 -14
q6 -10 8 -30q0 -42 -33 -76q-27 -27 -52 -30q-12 -1 -14 8q0 9 10 12q30 7 30 44q0 15 -9 23z" />
    <glyph glyph-name="afii10055" horiz-adv-x="615" 
d="M563 397q14 1 28 6t26 11t21.5 12.5l15.5 10.5q9 0 9 -14q0 -10 -13.5 -23t-32 -24.5t-39 -20t-33.5 -9.5q-31 -89 -66.5 -164t-81 -130t-105.5 -86t-139 -31q-37 0 -37 15t29 15q65 0 115.5 27.5t91 77.5t73 120.5t61.5 156.5q-13 1 -23 1.5t-18 0.5q-14 0 -27.5 -6.5
t-25 -14t-19.5 -13.5t-11 -6q-11 0 -11 11q0 6 10.5 19t27 25.5t36 22.5t38.5 10q15 0 24.5 -0.5t15.5 -1.5l71 202q4 11 6 23.5t2 27.5q0 20 -19 33.5t-48.5 21.5t-65 11t-67.5 3q-56 0 -109.5 -13t-95.5 -39.5t-67.5 -65.5t-25.5 -91q0 -138 164 -138q16 0 16 -16t-21 -16
q-223 0 -223 169q0 60 33.5 105.5t86 76t117 46t125.5 15.5q36 0 83 -4t89 -13t71 -23.5t29 -34.5q0 -18 -21 -78l-70 -200v0z" />
    <glyph glyph-name="afii10103" unicode="&#x456;" horiz-adv-x="187" 
d="M149 390q18 0 18 -14q0 -9 -9 -34l-82 -226q-8 -23 -12 -36.5t-5 -16.5q0 -9 8 -9t21 9t18 9q11 0 11 -11q0 -6 -14 -17.5t-33 -23t-37 -19.5t-26 -8q-14 0 -16 14q0 10 8 34l79 220q16 44 16 59q0 9 -11 9q-8 0 -21 -9t-18 -9q-11 0 -11 11q0 7 14 18.5t33 22.5t38.5 19
t30.5 8zM214 585q8 0 15 -16.5t7 -34.5q0 -15 -8 -32.5t-21 -32.5t-28 -24.5t-30 -9.5q-12 0 -12 8q0 9 10 12q30 7 30 44q0 9 -3 14.5t-6 8.5t-6 5t-3 6q0 5 25 29q25 23 30 23z" />
    <glyph glyph-name="afii10104" unicode="&#x457;" horiz-adv-x="170" 
d="M78 261q16 44 16 59q0 9 -11 9q-6 0 -21 -9t-18 -9q-10 0 -11 11q0 13 48 40q47 28 68 28q18 0 18 -14q0 -9 -9 -34l-82 -226q-8 -23 -12 -36.5t-5 -16.5q0 -9 8 -9q6 0 21 9t18 9q11 0 11 -11q0 -12 -47 -40q-44 -28 -63 -28q-14 0 -16 14q0 10 8 34zM51 445
q-11 20 -11 31q0 7 18 27q16 19 23 19q5 0 17 -23t12 -30t-17 -26q-18 -16 -24 -16t-18 18zM196 445q-11 20 -11 31q0 7 18 27q16 19 23 19q4 0 17 -23q11 -23 12 -30q0 -7 -17 -26q-18 -16 -24 -16t-18 18z" />
    <glyph glyph-name="afii10102" unicode="&#x455;" horiz-adv-x="329" 
d="M50 158q-9 -13 -15.5 -30.5t-6.5 -38.5q0 -35 26.5 -56t64.5 -21q112 0 112 101q0 38 -56 97q-56 58 -56 105q0 32 23 53.5t57 21.5q30 0 46.5 -7t18.5 -7q4 0 9.5 7t11.5 7q8 0 12 -17t4 -46q0 -53 -11 -53q-13 0 -13 23q0 13 -5 26t-14 23t-21.5 16t-26.5 6
q-42 0 -42 -38q0 -23 29 -55l54 -59q13 -14 21 -37t8 -43q0 -71 -45.5 -109.5t-120.5 -38.5q-26 0 -49 6t-40.5 19t-28 31.5t-10.5 44.5q0 13 4 26.5t10.5 25t15.5 19t18 7.5q14 0 16 -9z" />
    <glyph glyph-name="afii10056" unicode="&#x407;" horiz-adv-x="651" 
d="M463 397h24t16 -1l71 201q4 11 6 23.5t2 27.5q0 31 -52 49q-27 10 -63.5 14.5t-84.5 5.5q-113 0 -197 -48q-101 -57 -101 -161q0 -138 164 -138q16 0 16 -16t-21 -16q-222 0 -223 169q0 116 123 184q104 59 239 59q116 0 195 -22q75 -22 77 -53q0 -18 -21 -78l-70 -200
q34 5 63 22q7 5 12 8t9 5q4 3 7 5q9 0 9 -14q0 -16 -38 -43q-39 -26 -81 -34v-2q-65 -189 -139 -282q-102 -125 -252 -127q-37 0 -37 15t29 15q118 0 198 95q71 82 137 270l6 17q-13 1 -23 1.5t-18 0.5q-23 0 -52 -20l-31 -20q-9 0 -11 11q0 13 37 43q40 32 75 34zM491 805
q-11 20 -11 31q0 7 18 27q16 19 23 19q5 0 17 -23t12 -30t-17 -26q-18 -16 -24 -16t-18 18zM636 805q-11 20 -11 31q0 7 18 27q16 19 23 19q4 0 17 -23q11 -23 12 -30q0 -7 -17 -26q-18 -16 -24 -16t-18 18z" />
    <glyph glyph-name="dagger" unicode="&#x2020;" 
d="M339 565h98q16 0 18 -1q7 -4 7 -16q0 -13 -8 -24q-7 -7 -17 -9h-116l-169 -477q-2 -5 -5 -11t-8 -13q-14 -19 -37 -21q-11 0 -11 8t11 37l170 477h-96q-25 0 -25 18q0 31 25 32h114l20 56q15 42 15 59q0 9 -10 9q-6 0 -21 -9t-18 -9q-10 0 -11 11q0 12 48 41q48 27 68 27
q16 0 16 -14q0 -9 -9 -34z" />
    <glyph glyph-name="endash" unicode="&#x2013;" 
d="M315 234q28 0 28 -13q0 -16 -31 -44t-43 -28q-11 0 -11 11q0 2 6 8t6 13t-22 7h-210q-28 0 -28 13q0 16 31 44q29 28 43 28q11 0 11 -11q0 -2 -6 -9q-6 -5 -6 -12t22 -7h210z" />
    <glyph glyph-name="emdash" unicode="&#x2014;" horiz-adv-x="1000" 
d="M428 234q28 0 28 -13q0 -16 -31 -44t-43 -28q-11 0 -11 11q0 2 6 8t6 13t-22 7h-323q-28 0 -28 13q0 16 31 44q29 28 43 28q11 0 11 -11q0 -2 -6 -9q-6 -5 -6 -12t22 -7h323z" />
    <glyph glyph-name="acute" unicode="&#xb4;" horiz-adv-x="265" 
d="M197 567q16 15 25 15q12 0 14 -24q0 -35 -21 -48l-121 -75q-14 -8 -20 -8q-10 0 -10 14q0 8 18 25z" />
    <glyph glyph-name="dieresis" unicode="&#xa8;" horiz-adv-x="365" 
d="M117 445q-11 20 -11 31q0 7 18 27q16 19 23 19q5 0 17 -23t12 -30t-17 -26q-18 -16 -24 -16t-18 18zM262 445q-11 20 -11 31q0 7 18 27q16 19 23 19q4 0 17 -23q11 -23 12 -30q0 -7 -17 -26q-18 -16 -24 -16t-18 18z" />
    <glyph glyph-name="circumflex" unicode="&#x2c6;" horiz-adv-x="358" 
d="M339 467q9 -12 9 -17q0 -8 -13 -8q-11 0 -50 36q-40 35 -42 35q-12 0 -90 -39q-74 -40 -80 -40t-6 9q0 7 13 20q18 18 75 63q72 57 91 57q11 0 41 -41l25.5 -37.5z" />
    <glyph glyph-name="tilde" unicode="&#x2dc;" horiz-adv-x="381" 
d="M262 456q-15 2 -27.5 3t-23.5 2q-30 0 -55 -19q-26 -18 -24 -18q-10 0 -11 12q0 15 25 41q33 34 78 34q8 0 19.5 -1t26.5 -4l25 -3.5t20 -1.5q36 0 58 11q7 4 13 9t11 12l7.5 7.5l3.5 3.5q12 0 12 -13q0 -22 -26 -48q-32 -30 -85 -32q-8 0 -19.5 1.5z" />
    <glyph glyph-name="macron" unicode="&#xaf;" horiz-adv-x="362" 
d="M164 427q-26 0 -28 20q0 35 28 36h185q14 0 18 -2q8 -3 8 -17q0 -16 -9 -26q-8 -11 -17 -11h-185z" />
    <glyph glyph-name="macron" unicode="&#x2c9;" horiz-adv-x="362" 
d="M164 427q-26 0 -28 20q0 35 28 36h185q14 0 18 -2q8 -3 8 -17q0 -16 -9 -26q-8 -11 -17 -11h-185z" />
    <glyph glyph-name="breve" unicode="&#x2d8;" horiz-adv-x="381" 
d="M129 524q52 -50 116 -50q58 0 113 50q16 16 25 16q6 0 6 -27q0 -9 -14 -22q-63 -64 -130 -64q-72 0 -133 64q-11 13 -13 22q0 27 5 27q9 0 25 -16z" />
    <glyph glyph-name="dotaccent" unicode="&#x2d9;" horiz-adv-x="381" 
d="M234 445q-5 10 -7.5 17.5t-3.5 13.5q0 7 18 27q16 19 23 19q4 0 17 -23q6 -11 8.5 -18t3.5 -12q0 -9 -17 -26q-18 -16 -24 -16t-18 18z" />
    <glyph glyph-name="cedilla" unicode="&#xb8;" horiz-adv-x="381" 
d="M51 -142q0 16 12 18q15 0 17 -15q1 -24 53 -24q19 0 33 10q17 11 17 32q0 30 -35 30h-6t-9 -2q-9 -3 -17 -3q-13 0 -13 12q0 3 6 20l26 67h26l-24 -65q10 2 18.5 3t15.5 2q66 0 66 -55q0 -34 -33 -55q-31 -20 -71 -20q-42 0 -65 19q-17 12 -17 26z" />
    <glyph glyph-name="hungarumlaut" unicode="&#x2dd;" horiz-adv-x="381" 
d="M248 565q12 17 28 17q15 0 15 -24q0 -22 -26 -48l-73 -76q-6 -7 -20 -7q-9 0 -10 14q0 5 15 26zM342 565q12 17 28 17q15 0 15 -24q0 -20 -27 -48l-72 -76q-6 -7 -20 -7q-10 0 -10 14q0 5 15 26z" />
    <glyph glyph-name="caron" unicode="&#x2c7;" horiz-adv-x="358" 
d="M61 548q-9 12 -9 17q0 8 13 8q12 0 50 -35q37 -36 42 -36q13 0 89 40q76 39 81 39q6 0 6 -9q0 -7 -13 -20q-18 -18 -75 -63q-70 -55 -91 -57q-11 0 -41 41l-25.5 37.5z" />
    <glyph glyph-name="dotlessi" unicode="&#x131;" horiz-adv-x="170" 
d="M78 261q16 44 16 59q0 9 -11 9q-6 0 -21 -9t-18 -9q-10 0 -11 11q0 13 48 40q47 28 68 28q18 0 18 -14q0 -9 -9 -34l-82 -226q-8 -23 -12 -36.5t-5 -16.5q0 -9 8 -9q6 0 21 9t18 9q11 0 11 -11q0 -12 -47 -40q-44 -28 -63 -28q-14 0 -16 14q0 10 8 34z" />
    <glyph glyph-name="ring" unicode="&#x2da;" 
d="M162 365q-36 36 -36 87t36 87q37 35 87 35q52 0 86 -35q36 -36 36 -87t-36 -87q-33 -34 -86 -36q-50 0 -87 36zM302 506q-21 21 -54 23q-30 0 -53 -23q-22 -21 -22 -54q0 -32 22 -54q21 -22 54 -22q31 0 53 22q23 23 23 54t-23 54z" />
    <glyph glyph-name="florin" unicode="&#x192;" horiz-adv-x="370" 
d="M199 307l-53 -193q-41 -150 -102 -207q-52 -50 -143 -50q-45 0 -45 20q0 19 24 19q9 0 18 -3q5 -2 9.5 -2.5t8.5 -1.5q80 0 114 49q23 32 58 155l59 214h-63q-15 0 -15 8q0 22 15 24h72l4 15q39 146 106 204q53 47 136 47q46 0 46 -20q0 -19 -25 -19q-9 0 -18 3
q-8 4 -15 4q-67 0 -96 -29q-37 -40 -80 -188l-5 -17h103q15 0 15 -8q0 -23 -15 -24h-113z" />
    <glyph glyph-name="sterling" unicode="&#xa3;" 
d="M235 -20q-90 0 -185 46l-24 -21q-20 -13 -41 -13q-22 0 -35 12q-15 12 -15 33q0 46 65 46q15 0 46 -10q33 67 57 234h-50q-13 0 -15 8q0 22 15 24h56q12 79 44 143q61 123 171 123q69 0 111 -52q37 -48 37 -113q0 -28 -28 -28q-26 0 -26 22q0 11 3 19q3 7 3 13
q0 101 -105 101q-76 0 -116 -105q-25 -63 -28 -123h86q15 0 15 -8q0 -23 -15 -24h-94q-32 -158 -94 -244q107 -35 179 -35q94 0 134 38q17 17 32 66q6 19 24 21q14 0 14 -20q0 -39 -54 -90q-68 -63 -167 -63zM-15 19q22 0 39 18q-17 12 -36 14q-25 0 -25 -15q0 -16 22 -17z
" />
    <glyph glyph-name="divide" unicode="&#xf7;" 
d="M78 151q-25 0 -25 18q0 32 25 32h301q16 0 18 -1q6 -3 7 -16q0 -13 -8 -24q-8 -9 -17 -9h-301zM166 28q-5 10 -7.5 17.5t-3.5 13.5q0 7 18 27q16 19 23 19q3 0 17 -23q6 -11 8.5 -18.5t3.5 -11.5q0 -9 -17 -26q-18 -16 -24 -16t-18 18zM231 265q-5 10 -7.5 17.5
t-3.5 13.5q0 7 18 27q16 19 23 19q3 0 17 -23q6 -11 8.5 -18.5t3.5 -11.5q0 -9 -17 -26q-18 -16 -24 -16t-18 18z" />
    <glyph glyph-name="afii10062" unicode="&#x40e;" horiz-adv-x="864" 
d="M925 750q12 0 12 -14q0 -6 -4 -21t-13 -41l-97 -284q-32 -92 -67 -175t-81 -145t-106 -98.5t-141 -36.5q-77 0 -77 31q0 26 35 26q14 0 36.5 -8t49.5 -8q55 0 96.5 30.5t73.5 79t55.5 108t42.5 117.5h-3q-79 -58 -161 -58q-38 0 -61.5 27t-23.5 68q0 29 11 60l21 60
l44 129q4 12 6 24.5t2 26.5q0 20 -19 33.5t-48.5 21.5t-65 11t-67.5 3q-46 0 -97 -14t-94 -41t-71.5 -66t-28.5 -88q0 -138 164 -138q16 0 16 -16t-21 -16q-112 0 -167.5 40.5t-55.5 128.5q0 38 16.5 71t44 60t63.5 47.5t75.5 35t79.5 22t76 7.5q35 0 82 -3.5t89 -12.5
t71.5 -23.5t29.5 -35.5q0 -17 -21 -78l-46 -128q-16 -44 -22.5 -70.5t-6.5 -41.5q0 -62 62 -62q61 0 140 65l98 285q7 19 7 26q0 9 -10 9q-7 0 -20 -8t-19 -8q-9 0 -9 10q0 6 15.5 18.5t36.5 25.5t42 22.5t31 9.5zM680 874q52 -50 116 -50q58 0 113 50q16 16 25 16
q6 0 6 -27q0 -9 -14 -22q-63 -64 -130 -64q-72 0 -133 64q-11 13 -13 22q0 27 5 27q9 0 25 -16z" />
    <glyph glyph-name="afii10110" unicode="&#x45e;" horiz-adv-x="437" 
d="M201 390q16 0 16 -14q0 -11 -4.5 -24.5t-11.5 -30.5l-89 -228q-9 -21 -9 -40q0 -22 21 -22q28 0 54.5 13.5t49.5 35t40.5 47.5t27.5 50l66 168q7 17 11.5 23.5t17.5 13.5q16 8 24 8q11 0 11 -8q0 -4 -12 -37l-104 -275q-24 -65 -47.5 -119.5t-50.5 -95t-61 -63t-79 -22.5
q-12 0 -30.5 5t-36 14.5t-30.5 22.5t-13 28q0 28 26 28q9 0 17 -11l17.5 -23.5t22.5 -23.5t33 -11q32 0 56 16t44.5 48.5t39 82t39.5 117.5h-1q-19 -19 -41.5 -33.5t-46.5 -24.5t-47.5 -15t-44.5 -5q-35 0 -35 42q0 25 13 60l80 213q6 13 6 20q0 9 -8 9q-3 0 -9.5 -3l-13 -6
t-12 -6t-7.5 -3q-11 0 -11 11q0 8 14.5 19.5t34 22.5t40 18.5t33.5 7.5zM229 524q52 -50 116 -50q58 0 113 50q16 16 25 16q6 0 6 -27q0 -9 -14 -22q-63 -64 -130 -64q-72 0 -133 64q-11 13 -13 22q0 27 5 27q9 0 25 -16z" />
    <glyph glyph-name="notequal" unicode="&#x2260;" horiz-adv-x="1000" 
d="M586 404l155 180h80l-154 -180h153v-66h-210l-115 -135h325v-66h-382l-155 -182h-82l156 182h-157v66h214l115 135h-329v66h386z" />
    <glyph glyph-name="lessequal" unicode="&#x2264;" horiz-adv-x="1000" 
d="M825 66v-66h-620v66h620zM825 606v-66l-521 -202l521 -151v-66l-620 185v66z" />
    <glyph glyph-name="greaterequal" unicode="&#x2265;" horiz-adv-x="1000" 
d="M825 0h-620v66h620v-66zM825 306l-620 -185v66l521 151l-521 202v66l620 -234v-66z" />
    <glyph glyph-name="approxequal" unicode="&#x2248;" horiz-adv-x="1000" 
d="M203 135q6 12 11.5 20.5t10.5 13.5q6 9 16 18l23 20q56 44 106 45q41 0 95 -15l86 -25q14 -4 29.5 -7.5t34.5 -8.5q46 -10 71 -10q57 0 119 60l18 -11q-42 -84 -108 -111q-23 -11 -50 -11q-28 0 -67 9l-27.5 6.5t-31.5 8.5l-92 25q-32 8 -57 12t-44 5q-17 0 -44 -8
q-16 -5 -31 -12.5t-29 -18.5l-24 -20l-15 15v0zM823 405q-57 -120 -158 -120q-24 0 -63.5 7t-96.5 23l-70 19q-59 17 -90 17q-25 0 -53 -12q-32 -14 -58 -36l-16 -13l-15 16l23 34q60 81 148 84q47 0 107 -18l66 -19q96 -29 143 -29q19 0 39 7q35 13 59 37l8.5 8.5
t10.5 11.5z" />
    <glyph glyph-name="Delta" unicode="&#x2206;" horiz-adv-x="667" 
d="M361 685l285 -685h-628zM107 95h391l-172 435z" />
    <glyph glyph-name="radical" unicode="&#x221a;" horiz-adv-x="722" 
d="M657 757h187v-42h-137l-272 -891h-37l-278 402l-72 -52l-21 48l146 95l248 -368z" />
    <glyph glyph-name="afii10061" unicode="&#x40c;" horiz-adv-x="897" 
d="M264 354q0 -16 -21 -16q-112 0 -167.5 43t-55.5 126q0 60 36.5 105.5t92.5 76t123.5 46t129.5 15.5q37 0 84 -3.5t89 -12.5t70.5 -23.5t28.5 -35.5q0 -11 -21 -78l-76 -245q205 213 229 235q143 137 191 137q35 0 35 -30q0 -10 -14 -18t-23 -8q-47 0 -147 -91
q-22 -20 -57.5 -56l-86.5 -90l58 -327q8 -41 24 -41q5 0 12.5 5.5l15.5 11.5t17 11.5t18 5.5q11 0 11 -15q0 -8 -14.5 -23.5t-34.5 -30.5t-40.5 -26.5t-32.5 -11.5q-14 0 -21 10q-2 5 -5.5 18.5t-5.5 27.5l-58 325q-15 -12 -39.5 -37.5t-59.5 -65.5q-119 -333 -318 -333
q-37 0 -37 15t29 15q60 0 103 27.5t75.5 76.5t58 116t50.5 145l84 267q4 13 6 25t2 26q0 20 -19.5 33.5t-49 21.5t-64.5 11t-67 3q-54 0 -110 -12.5t-102.5 -38.5t-76 -65.5t-29.5 -92.5q0 -138 164 -138q16 0 16 -16zM897 917q16 15 25 15q12 0 14 -24q0 -35 -21 -48
l-121 -75q-14 -8 -20 -8q-10 0 -10 14q0 8 18 25z" />
    <glyph glyph-name="afii10109" unicode="&#x45c;" horiz-adv-x="395" 
d="M86 120l-29 -82q-5 -16 -18.5 -30.5t-31.5 -14.5q-9 0 -11 8q0 3 3 13.5t8 23.5l81 223q15 40 15 59q0 9 -10 9q-8 0 -21 -9t-18 -9q-11 0 -11 11q0 8 14.5 19.5t34 22.5t39 18.5t28.5 7.5q16 0 16 -14q0 -9 -9 -34l-61 -170l163 144q85 74 131 74q28 0 28 -23
q0 -18 -17 -21q-12 -2 -24 -2t-24 -3q-20 -5 -39 -16.5t-39 -28.5l-73 -66l70 -159q14 -29 26 -29q6 0 11 3.5t10.5 8l10 8t8.5 3.5q12 0 12 -17q0 -5 -9.5 -14.5t-23 -18.5t-28.5 -15.5t-25 -6.5q-19 0 -34 35l-69 165zM417 667q16 15 25 15q12 0 14 -24q0 -35 -21 -48
l-121 -75q-14 -8 -20 -8q-10 0 -10 14q0 8 18 25z" />
    <glyph glyph-name="space" unicode=" " horiz-adv-x="225" 
 />
    <glyph glyph-name="space" unicode="&#xa0;" horiz-adv-x="225" 
 />
  </font>
</defs>
</svg>
