<svg xmlns="http://www.w3.org/2000/svg">

	<symbol id="up-right" viewBox="0 0 9 9">
		<path d="M8.10959 0.649994C8.10959 0.291009 7.81858 -5.91121e-06 7.45959 -6.15355e-06L1.60959 -5.90067e-06C1.25061 -6.23785e-06 0.959594 0.291009 0.959595 0.649994C0.959594 1.00898 1.25061 1.29999 1.60959 1.29999L6.80959 1.29999L6.80959 6.49999C6.80959 6.85898 7.10061 7.14999 7.45959 7.14999C7.81858 7.14999 8.10959 6.85898 8.10959 6.49999L8.10959 0.649994ZM0.459595 7.64999L0.919214 8.10961L7.91921 1.10961L7.45959 0.649994L6.99998 0.190375L-2.46952e-05 7.19037L0.459595 7.64999Z" />
	</symbol>

	<symbol id="line-right" viewBox="0 0 33 11">
		<path d="M32.5267 6.01214C32.8176 5.72124 32.8176 5.24959 32.5267 4.95869L27.7862 0.218191C27.4953 -0.0727102 27.0237 -0.0727102 26.7328 0.21819C26.4419 0.509091 26.4419 0.980734 26.7328 1.27164L30.9466 5.48542L26.7328 9.69919C26.4419 9.9901 26.4419 10.4617 26.7328 10.7526C27.0237 11.0435 27.4953 11.0435 27.7862 10.7526L32.5267 6.01214ZM0 5.48541L-6.5121e-08 6.23031L32 6.23031L32 5.48542L32 4.74052L6.5121e-08 4.74051L0 5.48541Z" />
	</symbol>

	<symbol id="arrow" viewBox="0 0 24 24">
		<path fill-rule="evenodd" clip-rule="evenodd" d="M8.29289 4.29289C8.68342 3.90237 9.31658 3.90237 9.70711 4.29289L16.7071 11.2929C17.0976 11.6834 17.0976 12.3166 16.7071 12.7071L9.70711 19.7071C9.31658 20.0976 8.68342 20.0976 8.29289 19.7071C7.90237 19.3166 7.90237 18.6834 8.29289 18.2929L14.5858 12L8.29289 5.70711C7.90237 5.31658 7.90237 4.68342 8.29289 4.29289Z" />
	</symbol>

	<symbol id="doc" viewBox="0 0 12 15">
		<path d="M7.08333 0H1.41667C0.633958 0 0.0070835 0.67125 0.0070835 1.5L0 13.5C0 14.3288 0.626875 15 1.40958 15H9.91667C10.6994 15 11.3333 14.3288 11.3333 13.5V4.5L7.08333 0ZM8.5 12H2.83333V10.5H8.5V12ZM8.5 9H2.83333V7.5H8.5V9ZM6.375 5.25V1.125L10.2708 5.25H6.375Z" />
	</symbol>

	<symbol id="gift" viewBox="0 0 15 15">
		<path d="M13.5 3H11.8613C11.9438 2.76375 12 2.5125 12 2.25C12 1.00875 10.9912 0 9.75 0C8.96625 0 8.27625 0.40125 7.875 1.00875L7.5 1.51875L7.125 1.00875C6.72375 0.40125 6.03375 0 5.25 0C4.00875 0 3 1.00875 3 2.25C3 2.5125 3.0525 2.76375 3.13875 3H1.5C0.67125 3 0.00749999 3.67125 0.00749999 4.5L0 12.75C0 13.5788 0.67125 14.25 1.5 14.25H13.5C14.3288 14.25 15 13.5788 15 12.75V4.5C15 3.67125 14.3288 3 13.5 3ZM9.75 1.5C10.1625 1.5 10.5 1.8375 10.5 2.25C10.5 2.6625 10.1625 3 9.75 3C9.3375 3 9 2.6625 9 2.25C9 1.8375 9.3375 1.5 9.75 1.5ZM5.25 1.5C5.6625 1.5 6 1.8375 6 2.25C6 2.6625 5.6625 3 5.25 3C4.8375 3 4.5 2.6625 4.5 2.25C4.5 1.8375 4.8375 1.5 5.25 1.5ZM13.5 12.75H1.5V11.25H13.5V12.75ZM13.5 9H1.5V4.5H5.31L3.75 6.62625L4.96875 7.5L6.75 5.07375L7.5 4.05375L8.25 5.07375L10.0312 7.5L11.25 6.62625L9.69 4.5H13.5V9Z" />
	</symbol>

	<symbol id="agreement" viewBox="0 0 14 15">
		<path d="M12 1.5H8.86125C8.55375 0.63 7.72875 0 6.75 0C5.77125 0 4.94625 0.63 4.63875 1.5H1.5C0.67125 1.5 0 2.17125 0 3V13.5C0 14.3288 0.67125 15 1.5 15H12C12.8288 15 13.5 14.3288 13.5 13.5V3C13.5 2.17125 12.8288 1.5 12 1.5ZM6.75 1.5C7.1625 1.5 7.5 1.83375 7.5 2.25C7.5 2.66625 7.1625 3 6.75 3C6.3375 3 6 2.66625 6 2.25C6 1.83375 6.3375 1.5 6.75 1.5ZM5.25 12L2.25 9L3.31125 7.93875L5.25 9.8775L10.1887 4.93875L11.25 6L5.25 12Z" />

	<symbol id="dye" viewBox="0 0 12 15">
		<path d="M10.2403 4.245L5.99906 0L1.75781 4.245C-0.585938 6.58875 -0.585938 10.3875 1.75781 12.7313C2.92781 13.9013 4.46531 14.49 5.99906 14.49C7.53281 14.49 9.07031 13.905 10.2403 12.7313C12.5841 10.3875 12.5841 6.58875 10.2403 4.245V4.245ZM5.99906 12.9862C4.79531 12.9862 3.66656 12.5175 2.81906 11.6663C1.96781 10.8188 1.49906 9.69 1.49906 8.48625C1.49906 7.2825 1.96781 6.15375 2.81906 5.3025L5.99906 2.1225V12.9862Z" />
	</symbol>

</svg>