<svg xmlns="http://www.w3.org/2000/svg">

	<symbol id="up-right" viewBox="0 0 9 9">
		<path d="M8.10959 0.649994C8.10959 0.291009 7.81858 -5.91121e-06 7.45959 -6.15355e-06L1.60959 -5.90067e-06C1.25061 -6.23785e-06 0.959594 0.291009 0.959595 0.649994C0.959594 1.00898 1.25061 1.29999 1.60959 1.29999L6.80959 1.29999L6.80959 6.49999C6.80959 6.85898 7.10061 7.14999 7.45959 7.14999C7.81858 7.14999 8.10959 6.85898 8.10959 6.49999L8.10959 0.649994ZM0.459595 7.64999L0.919214 8.10961L7.91921 1.10961L7.45959 0.649994L6.99998 0.190375L-2.46952e-05 7.19037L0.459595 7.64999Z" />
	</symbol>

	<symbol id="line-right" viewBox="0 0 33 11">
		<path d="M32.5267 6.01214C32.8176 5.72124 32.8176 5.24959 32.5267 4.95869L27.7862 0.218191C27.4953 -0.0727102 27.0237 -0.0727102 26.7328 0.21819C26.4419 0.509091 26.4419 0.980734 26.7328 1.27164L30.9466 5.48542L26.7328 9.69919C26.4419 9.9901 26.4419 10.4617 26.7328 10.7526C27.0237 11.0435 27.4953 11.0435 27.7862 10.7526L32.5267 6.01214ZM0 5.48541L-6.5121e-08 6.23031L32 6.23031L32 5.48542L32 4.74052L6.5121e-08 4.74051L0 5.48541Z" />
	</symbol>

</svg>