<svg xmlns="http://www.w3.org/2000/svg">

	<symbol id="arrow-right" viewBox="0 0 20 20">
		<path d="M16.172 9l-6.071-6.071 1.414-1.414L20 10l-.707.707-7.778 7.778-1.414-1.414L16.172 11H0V9z"/>
	</symbol>

	<symbol id="arrow-down" viewBox="0 0 22 25">
		<path d="M11 25V0H14V14L22 7V15L11 25Z" />
		<path d="M11 25V0H8V14L0 7V15L11 25Z" />
	</symbol>

	<symbol id="arrow-check" viewBox="0 0 240.608 240.608">
		<path d="M208.789,29.972l31.819,31.82L91.763,210.637L0,118.876l31.819-31.82l59.944,59.942L208.789,29.972z"/>
	</symbol>
	
	<symbol id="ico-whatsapp" viewBox="0 0 58 58">
		<path style="fill:#2CB742;" d="M0,58l4.988-14.963C2.457,38.78,1,33.812,1,28.5C1,12.76,13.76,0,29.5,0S58,12.76,58,28.5
			S45.24,57,29.5,57c-4.789,0-9.299-1.187-13.26-3.273L0,58z"/>
		<path style="fill:#FFFFFF;" d="M47.683,37.985c-1.316-2.487-6.169-5.331-6.169-5.331c-1.098-0.626-2.423-0.696-3.049,0.42
			c0,0-1.577,1.891-1.978,2.163c-1.832,1.241-3.529,1.193-5.242-0.52l-3.981-3.981l-3.981-3.981c-1.713-1.713-1.761-3.41-0.52-5.242
			c0.272-0.401,2.163-1.978,2.163-1.978c1.116-0.627,1.046-1.951,0.42-3.049c0,0-2.844-4.853-5.331-6.169
			c-1.058-0.56-2.357-0.364-3.203,0.482l-1.758,1.758c-5.577,5.577-2.831,11.873,2.746,17.45l5.097,5.097l5.097,5.097
			c5.577,5.577,11.873,8.323,17.45,2.746l1.758-1.758C48.048,40.341,48.243,39.042,47.683,37.985z"/>
	</symbol>
	
	<symbol id="ico-whatsapp-2" viewBox="0 0 56.693 56.693">
		<path class="st0" d="M46.38 10.714C41.73 6.057 35.544 3.492 28.954 3.489c-13.579 0-24.63 11.05-24.636 24.633a24.589 24.589 0 0 0 3.289 12.316L4.112 53.204l13.06-3.426a24.614 24.614 0 0 0 11.772 2.999h.01c13.577 0 24.63-11.052 24.635-24.635.002-6.582-2.558-12.772-7.209-17.428zM28.954 48.616h-.009a20.445 20.445 0 0 1-10.421-2.854l-.748-.444-7.75 2.033 2.07-7.555-.488-.775a20.427 20.427 0 0 1-3.13-10.897c.004-11.29 9.19-20.474 20.484-20.474a20.336 20.336 0 0 1 14.476 6.005 20.352 20.352 0 0 1 5.991 14.485c-.004 11.29-9.19 20.476-20.475 20.476z"/><path class="st0" d="M40.185 33.281c-.615-.308-3.642-1.797-4.206-2.003-.564-.205-.975-.308-1.385.308-.41.617-1.59 2.003-1.949 2.414-.359.41-.718.462-1.334.154-.615-.308-2.599-.958-4.95-3.055-1.83-1.632-3.065-3.648-3.424-4.264-.36-.617-.038-.95.27-1.257.277-.276.615-.719.923-1.078.308-.36.41-.616.616-1.027.205-.41.102-.77-.052-1.078-.153-.308-1.384-3.338-1.897-4.57-.5-1.2-1.008-1.038-1.385-1.057-.359-.018-.77-.022-1.18-.022s-1.077.154-1.642.77c-.564.616-2.154 2.106-2.154 5.135 0 3.03 2.206 5.957 2.513 6.368.308.41 4.341 6.628 10.516 9.294a35.341 35.341 0 0 0 3.509 1.297c1.474.469 2.816.402 3.877.244 1.183-.177 3.642-1.49 4.155-2.927.513-1.438.513-2.67.359-2.927-.154-.257-.564-.41-1.18-.719z"/>
	</symbol>
	
	<symbol id="ico-viber" viewBox="0 0 24 24">
		<g fill="#8e24aa"><path d="m23.155 13.893c.716-6.027-.344-9.832-2.256-11.553l.001-.001c-3.086-2.939-13.508-3.374-17.2.132-1.658 1.715-2.242 4.232-2.306 7.348-.064 3.117-.14 8.956 5.301 10.54h.005l-.005 2.419s-.037.98.589 1.177c.716.232 1.04-.223 3.267-2.883 3.724.323 6.584-.417 6.909-.525.752-.252 5.007-.815 5.695-6.654zm-12.237 5.477s-2.357 2.939-3.09 3.702c-.24.248-.503.225-.499-.267 0-.323.018-4.016.018-4.016-4.613-1.322-4.341-6.294-4.291-8.895.05-2.602.526-4.733 1.93-6.168 3.239-3.037 12.376-2.358 14.704-.17 2.846 2.523 1.833 9.651 1.839 9.894-.585 4.874-4.033 5.183-4.667 5.394-.271.09-2.786.737-5.944.526z"/><path d="m12.222 4.297c-.385 0-.385.6 0 .605 2.987.023 5.447 2.105 5.474 5.924 0 .403.59.398.585-.005h-.001c-.032-4.115-2.718-6.501-6.058-6.524z"/><path d="m16.151 10.193c-.009.398.58.417.585.014.049-2.269-1.35-4.138-3.979-4.335-.385-.028-.425.577-.041.605 2.28.173 3.481 1.729 3.435 3.716z"/><path d="m15.521 12.774c-.494-.286-.997-.108-1.205.173l-.435.563c-.221.286-.634.248-.634.248-3.014-.797-3.82-3.951-3.82-3.951s-.037-.427.239-.656l.544-.45c.272-.216.444-.736.167-1.247-.74-1.337-1.237-1.798-1.49-2.152-.266-.333-.666-.408-1.082-.183h-.009c-.865.506-1.812 1.453-1.509 2.428.517 1.028 1.467 4.305 4.495 6.781 1.423 1.171 3.675 2.371 4.631 2.648l.009.014c.942.314 1.858-.67 2.347-1.561v-.007c.217-.431.145-.839-.172-1.106-.562-.548-1.41-1.153-2.076-1.542z"/><path d="m13.169 8.104c.961.056 1.427.558 1.477 1.589.018.403.603.375.585-.028-.064-1.346-.766-2.096-2.03-2.166-.385-.023-.421.582-.032.605z"/></g>
	</symbol>
	
	<symbol id="ico-telegram" viewBox="0 0 24 24">
		<circle cx="12" cy="12" fill="#039be5" r="12"/><path d="m5.491 11.74 11.57-4.461c.537-.194 1.006.131.832.943l.001-.001-1.97 9.281c-.146.658-.537.818-1.084.508l-3-2.211-1.447 1.394c-.16.16-.295.295-.605.295l.213-3.053 5.56-5.023c.242-.213-.054-.333-.373-.121l-6.871 4.326-2.962-.924c-.643-.204-.657-.643.136-.953z" fill="#fff"/>
	</symbol>

	<symbol id="ico-telegram-2" viewBox="0 0 24 24"><path d="m5.491 11.74 11.57-4.461c.537-.194 1.006.131.832.943l.001-.001-1.97 9.281c-.146.658-.537.818-1.084.508l-3-2.211-1.447 1.394c-.16.16-.295.295-.605.295l.213-3.053 5.56-5.023c.242-.213-.054-.333-.373-.121l-6.871 4.326-2.962-.924c-.643-.204-.657-.643.136-.953z"/>
	</symbol>

	<symbol id="ico-vk" viewBox="0 0 64 64">
		<path d="M4 13.9h7.1c.9 0 1.6.6 1.9 1.4.9 2.6 2.9 8.3 5.2 12.2 3.1 5.1 5.1 7 6.4 6.8 1.3-.3.9-3.7.9-6.4s.3-7.3-1-9.4l-2-2.9a1 1 0 0 1 .8-1.6h11.4c1.1 0 2 .9 2 2v14.5s.5 2.6 3.3-.1 5.8-7.7 8.3-12.8l1-2.4c.3-.7 1-1.2 1.8-1.2h7.4c1.4 0 2.4 1.4 1.9 2.7l-.8 2.1s-2.7 5.4-5.5 9.2c-2.8 3.9-3.4 4.8-3 5.8.4 1 7.6 7.7 9.4 10.9.5.9.9 1.7 1.3 2.4.7 1.3-.3 3-1.8 3h-8.4c-.7 0-1.4-.4-1.7-1l-.8-1.3s-5.1-6-8.2-7.9c-3.2-1.8-3.1.8-3.1.8V46c0 2.2-1.8 4-4 4h-2s-11 0-19.8-13.1C5.1 26.7 2.8 20.1 2 16.3c-.2-1.2.7-2.4 2-2.4z"/>
	</symbol>
	
	<symbol id="ico-shield" viewBox="0 0 511 511">
		<g clip-path="url(#clip0)">
		<path d="M451.095 341.243C437.36 378.467 416.588 410.833 389.349 437.433C358.343 467.71 317.743 491.769 268.674 508.93C267.064 509.492 265.384 509.952 263.696 510.291C261.466 510.731 259.197 510.969 256.947 511H256.507C254.109 511 251.7 510.759 249.31 510.291C247.622 509.952 245.965 509.492 244.363 508.942C195.236 491.808 154.585 467.761 123.548 437.484C96.2968 410.884 75.5288 378.537 61.8135 341.313C36.874 273.633 38.2931 199.075 39.4354 139.161L39.4548 138.241C39.6849 133.294 39.833 128.097 39.9149 122.358C40.332 94.183 62.7335 70.8731 90.9128 69.3019C149.665 66.0232 195.115 46.8615 233.949 9.00972L234.289 8.69783C240.737 2.78362 248.862 -0.116957 256.947 0.00390047C264.745 0.105265 272.511 3.00194 278.729 8.69783L279.06 9.00972C317.902 46.8615 363.352 66.0232 422.105 69.3019C450.284 70.8731 472.685 94.183 473.103 122.358C473.185 128.136 473.333 133.325 473.563 138.241L473.574 138.631C474.713 198.658 476.124 273.364 451.095 341.243Z" fill="#00A3FF"/>
		<path d="M451.094 341.243C437.359 378.467 416.587 410.833 389.348 437.433C358.342 467.71 317.742 491.769 268.673 508.93C267.063 509.492 265.383 509.952 263.695 510.291C261.465 510.731 259.196 510.969 256.946 511V0.00390625C264.744 0.105271 272.51 3.00195 278.728 8.69784L279.059 9.00973C317.901 46.8615 363.352 66.0232 422.104 69.3019C450.283 70.8731 472.685 94.183 473.102 122.358C473.184 128.136 473.332 133.325 473.562 138.241L473.573 138.631C474.712 198.658 476.123 273.364 451.094 341.243Z" fill="#006AE9"/>
		<path d="M383.851 255.5C383.851 325.57 326.958 382.607 256.946 382.857H256.498C186.28 382.857 129.142 325.722 129.142 255.5C129.142 185.282 186.28 128.148 256.498 128.148H256.946C326.958 128.397 383.851 185.434 383.851 255.5Z" fill="white"/>
		<path d="M383.851 255.5C383.851 325.57 326.958 382.607 256.946 382.857V128.148C326.958 128.397 383.851 185.434 383.851 255.5Z" fill="#DEECF1"/>
		<path d="M314.303 237.161L256.946 294.525L244.553 306.919C241.625 309.847 237.785 311.309 233.948 311.309C230.108 311.309 226.272 309.847 223.34 306.919L196.693 280.26C190.837 274.405 190.837 264.919 196.693 259.06C202.541 253.204 212.038 253.204 217.894 259.06L233.948 275.114L293.102 215.96C298.958 210.101 308.455 210.101 314.303 215.96C320.159 221.816 320.159 231.313 314.303 237.161Z" fill="#B4D2D7"/>
		<path d="M314.303 237.161L256.946 294.525V252.112L293.102 215.96C298.958 210.101 308.455 210.101 314.303 215.96C320.159 221.816 320.159 231.313 314.303 237.161Z" fill="#6FA5AA"/>
		</g>
		<defs>
		<clipPath id="clip0">
		<rect width="511" height="511" fill="white"/>
		</clipPath>
		</defs>
	</symbol>

	<symbol id="ico-arr" viewBox="0 0 89.000000 88.000000">
		<g transform="translate(0.000000,88.000000) scale(0.100000,-0.100000)" stroke="none">
		<path d="M12 860 c0 -14 2 -19 5 -12 2 6 2 18 0 25 -3 6 -5 1 -5 -13z"/>
		<path d="M10 803 c0 -5 5 -15 10 -23 8 -12 10 -11 10 8 0 12 -4 22 -10 22 -5
		0 -10 -3 -10 -7z"/>
		<path d="M20 748 c0 -9 5 -20 10 -23 13 -8 13 5 0 25 -8 13 -10 13 -10 -2z"/>
		<path d="M30 693 c0 -4 5 -15 10 -23 8 -13 10 -13 10 2 0 9 -4 20 -10 23 -5 3
		-10 3 -10 -2z"/>
		<path d="M50 633 c0 -4 5 -15 10 -23 8 -13 10 -13 10 2 0 9 -4 20 -10 23 -5 3
		-10 3 -10 -2z"/>
		<path d="M76 565 c4 -8 10 -15 15 -15 4 0 6 7 3 15 -4 8 -10 15 -15 15 -4 0
		-6 -7 -3 -15z"/>
		<path d="M100 521 c0 -5 7 -15 17 -22 15 -13 15 -12 4 9 -12 23 -21 28 -21 13z"/>
		<path d="M136 467 c3 -10 9 -15 12 -12 3 3 0 11 -7 18 -10 9 -11 8 -5 -6z"/>
		<path d="M170 421 c0 -5 5 -13 10 -16 6 -3 10 -2 10 4 0 5 -4 13 -10 16 -5 3
		-10 2 -10 -4z"/>
		<path d="M210 376 c0 -2 8 -10 18 -17 15 -13 16 -12 3 4 -13 16 -21 21 -21 13z"/>
		<path d="M250 342 c0 -5 7 -15 15 -22 8 -7 15 -8 15 -2 0 5 -7 15 -15 22 -8 7
		-15 8 -15 2z"/>
		<path d="M302 294 c10 -10 20 -16 22 -13 3 3 -5 11 -17 18 -21 13 -21 12 -5
		-5z"/>
		<path d="M340 265 c0 -2 10 -10 23 -16 20 -11 21 -11 8 4 -13 16 -31 23 -31
		12z"/>
		<path d="M390 235 c0 -2 10 -10 23 -16 20 -11 21 -11 8 4 -13 16 -31 23 -31
		12z"/>
		<path d="M450 201 c0 -5 7 -11 15 -15 8 -3 15 -1 15 3 0 5 -7 11 -15 15 -8 3
		-15 1 -15 -3z"/>
		<path d="M505 170 c3 -5 11 -10 16 -10 6 0 7 5 4 10 -3 6 -11 10 -16 10 -6 0
		-7 -4 -4 -10z"/>
		<path d="M560 151 c0 -5 7 -11 15 -15 8 -3 15 -1 15 3 0 5 -7 11 -15 15 -8 3
		-15 1 -15 -3z"/>
		<path d="M610 126 c0 -2 9 -6 20 -9 11 -3 18 -1 14 4 -5 9 -34 13 -34 5z"/>
		<path d="M820 112 c0 -7 7 -24 16 -37 15 -23 14 -24 -18 -41 -18 -9 -27 -19
		-20 -21 20 -7 72 21 72 39 0 20 -49 79 -50 60z"/>
		<path d="M670 106 c0 -2 9 -6 20 -9 11 -3 18 -1 14 4 -5 9 -34 13 -34 5z"/>
		<path d="M725 90 c3 -5 13 -10 21 -10 8 0 12 5 9 10 -3 6 -13 10 -21 10 -8 0
		-12 -4 -9 -10z"/>
		<path d="M780 76 c0 -2 9 -6 20 -9 11 -3 18 -1 14 4 -5 9 -34 13 -34 5z"/>
		</g>
	</symbol>

	<symbol id="ico-cursor" viewBox="0 0 512.000000 512.000000">
		<g transform="translate(0.000000,512.000000) scale(0.100000,-0.100000)" stroke="none">
		<path d="M1714 5075 c-112 -116 -199 -325 -225 -538 -32 -268 81 -607 266
		-791 51 -52 112 -50 140 5 24 45 18 63 -38 135 -143 184 -199 337 -200 549 0
		186 46 332 157 495 31 45 56 94 56 107 0 34 -51 83 -86 83 -19 0 -40 -13 -70
		-45z"/>
		<path d="M2398 5110 c-270 -46 -493 -253 -553 -515 -21 -88 -21 -241 0 -320
		20 -80 85 -209 133 -267 44 -53 117 -118 162 -145 l30 -17 0 -686 c-1 -691 -6
		-848 -35 -947 -20 -69 -44 -93 -92 -93 -32 0 -44 8 -92 58 -30 31 -106 127
		-169 212 -79 105 -161 200 -256 295 -282 282 -437 347 -623 265 -66 -29 -139
		-109 -158 -173 -32 -108 -12 -171 94 -295 184 -216 441 -664 628 -1096 36 -83
		86 -187 111 -231 71 -122 206 -295 352 -450 193 -204 223 -259 235 -425 8
		-102 39 -175 93 -220 76 -62 55 -61 863 -58 706 3 735 4 774 23 56 27 111 88
		129 142 12 34 16 86 16 199 0 84 5 165 11 181 5 15 32 51 58 78 126 130 218
		332 256 560 14 88 16 193 13 865 -3 762 -3 765 -25 812 -30 66 -106 143 -169
		173 -91 43 -184 43 -298 -1 -11 -4 -14 14 -17 103 -4 93 -8 116 -32 165 -36
		74 -119 150 -189 174 -74 26 -179 24 -241 -4 -34 -15 -49 -18 -51 -9 -2 7 -9
		30 -15 52 -15 58 -68 133 -118 169 -107 76 -226 86 -355 31 -16 -6 -18 0 -18
		63 l0 70 68 49 c154 112 253 296 268 496 9 117 -14 226 -73 347 -38 78 -61
		109 -128 176 -67 68 -98 90 -176 127 -140 68 -275 90 -411 67z m215 -175 c199
		-42 363 -214 398 -418 24 -143 -24 -312 -120 -418 l-40 -44 -1 197 c0 271 -16
		335 -106 425 -164 163 -443 113 -543 -97 -25 -54 -26 -61 -29 -287 -2 -132 -7
		-233 -12 -233 -14 0 -84 97 -113 155 -39 78 -50 135 -45 248 3 96 6 108 44
		187 106 221 333 335 567 285z m-23 -350 c14 -7 33 -22 43 -33 46 -51 46 -43
		47 -1018 l0 -921 26 -27 c34 -33 74 -34 111 -2 l28 24 5 434 5 435 27 35 c76
		100 233 86 287 -25 20 -42 21 -58 21 -450 0 -276 4 -414 11 -430 24 -52 87
		-60 130 -18 l29 29 0 287 c0 315 2 330 62 380 64 54 153 53 219 -2 57 -49 59
		-61 59 -413 0 -351 3 -369 57 -387 38 -12 67 -6 89 19 16 17 20 42 24 153 5
		130 6 135 36 172 64 80 158 95 232 36 77 -62 73 -5 70 -873 l-3 -775 -28 -100
		c-40 -145 -112 -284 -192 -375 -107 -120 -109 -125 -113 -330 -1 -97 -8 -185
		-14 -196 -5 -12 -21 -27 -35 -33 -17 -8 -231 -11 -719 -11 -602 0 -699 2 -724
		15 -33 17 -35 23 -49 151 -19 180 -61 256 -249 456 -253 270 -357 420 -457
		658 -163 392 -458 909 -644 1129 -78 91 -90 120 -70 158 36 68 141 93 220 53
		133 -68 352 -282 521 -510 144 -195 215 -272 280 -304 95 -47 214 -29 286 44
		45 44 70 96 94 198 21 85 22 106 25 1172 2 729 7 1094 14 1111 35 87 151 128
		239 84z"/>
		<path d="M3908 2116 c-10 -7 -22 -25 -28 -40 -15 -41 -13 -544 3 -576 28 -55
		94 -64 137 -18 19 21 20 34 20 310 l0 289 -25 24 c-27 28 -79 33 -107 11z"/>
		<path d="M3925 1270 c-30 -11 -41 -29 -55 -80 -6 -25 -27 -65 -46 -89 -23 -30
		-34 -55 -34 -78 0 -44 37 -83 80 -83 64 0 152 117 166 223 8 55 -6 89 -43 106
		-28 13 -40 13 -68 1z"/>
		<path d="M2535 485 c-17 -16 -25 -35 -25 -57 1 -61 40 -88 125 -88 85 0 124
		27 125 88 0 22 -8 41 -25 57 -21 22 -33 25 -100 25 -67 0 -79 -3 -100 -25z"/>
		<path d="M2965 488 c-50 -44 -27 -131 37 -143 18 -3 172 -5 341 -3 l309 3 24
		28 c32 37 31 77 -2 111 l-27 26 -328 0 c-326 0 -328 0 -354 -22z"/>
		<path d="M3174 5096 c-43 -36 -38 -78 18 -156 181 -255 215 -550 97 -837 -16
		-39 -29 -83 -29 -97 0 -31 38 -76 65 -78 52 -4 75 12 104 70 126 249 132 568
		18 839 -38 91 -135 244 -170 268 -31 22 -72 18 -103 -9z"/>
		</g>
	</symbol>

	<symbol id="ico-read" viewBox="0 0 512.000000 512.000000">
		<g transform="translate(0.000000,512.000000) scale(0.100000,-0.100000)" stroke="none">
		<path d="M723 5105 c-35 -8 -93 -28 -130 -46 -93 -45 -217 -169 -261 -261 -66
		-135 -62 -14 -60 -2120 l3 -1913 21 -46 c28 -60 93 -125 153 -153 45 -21 54
		-21 741 -24 382 -1 706 0 718 3 38 9 72 53 72 92 0 37 -21 76 -48 90 -9 4
		-329 10 -709 13 l-693 5 -27 28 -28 27 0 1908 c0 1792 1 1910 18 1957 24 69
		82 143 147 187 106 72 6 68 1683 68 l1508 0 -29 -42 c-37 -54 -69 -117 -90
		-177 -15 -42 -17 -206 -22 -1741 l-5 -1695 -23 -37 c-25 -41 -91 -78 -138 -78
		-41 1 -107 32 -132 64 -11 15 -59 143 -107 286 -92 275 -113 316 -187 370
		-123 89 -299 72 -406 -41 -50 -52 -77 -119 -87 -216 l-7 -73 -265 0 c-175 0
		-272 -4 -286 -11 -75 -39 -75 -139 0 -178 14 -7 111 -11 287 -11 l266 0 0
		-222 c0 -257 13 -442 35 -531 26 -98 68 -206 211 -543 3 -5 18 -18 35 -28 42
		-25 90 -14 124 26 36 43 32 64 -58 278 -82 195 -112 280 -127 358 -7 41 -13
		491 -10 919 0 51 4 67 26 92 44 53 134 51 170 -4 8 -12 52 -135 99 -275 47
		-139 94 -267 104 -284 57 -91 174 -164 279 -173 125 -12 262 53 334 158 70
		103 68 73 68 1048 l0 875 31 -30 c65 -60 217 -234 252 -287 95 -143 158 -291
		194 -457 16 -78 18 -146 18 -805 0 -655 -2 -729 -18 -824 -23 -130 -66 -275
		-119 -406 -47 -112 -50 -144 -21 -183 39 -53 122 -51 157 3 41 63 120 284 156
		438 45 192 50 281 50 984 0 801 -4 839 -109 1097 -84 206 -170 325 -413 572
		l-178 181 0 46 0 46 368 3 c351 3 369 4 413 24 60 28 125 93 153 153 20 45 21
		59 24 522 3 530 0 564 -60 687 -44 92 -168 216 -260 260 -134 65 -27 62 -1973
		61 -1452 0 -1781 -3 -1832 -14z m3677 -210 c64 -22 139 -82 182 -145 67 -97
		69 -121 66 -629 l-3 -451 -28 -27 -27 -28 -351 -3 -350 -3 3 508 c3 454 5 513
		21 553 41 106 149 205 257 235 65 18 163 14 230 -10z"/>
		<path d="M925 4561 c-48 -22 -79 -54 -100 -103 -22 -55 -22 -541 0 -596 21
		-49 52 -81 100 -103 36 -17 69 -19 298 -19 284 0 303 3 365 63 54 52 62 100
		62 357 0 257 -8 305 -62 357 -62 60 -81 63 -365 63 -229 0 -262 -2 -298 -19z
		m525 -401 l0 -220 -220 0 -220 0 0 220 0 220 220 0 220 0 0 -220z"/>
		<path d="M2045 3929 c-74 -43 -73 -140 4 -179 72 -37 159 47 127 123 -7 18
		-20 38 -29 45 -22 18 -78 24 -102 11z"/>
		<path d="M2504 3930 c-56 -22 -72 -108 -30 -157 l24 -28 369 -3 c202 -2 379 0
		391 3 13 3 35 18 48 32 43 46 27 121 -33 152 -26 13 -736 14 -769 1z"/>
		<path d="M925 3361 c-48 -22 -79 -54 -100 -103 -22 -55 -22 -541 0 -596 21
		-49 52 -81 100 -103 36 -17 69 -19 298 -19 284 0 303 3 365 63 54 52 62 100
		62 357 0 257 -8 305 -62 357 -62 60 -81 63 -365 63 -229 0 -262 -2 -298 -19z
		m525 -401 l0 -220 -220 0 -220 0 0 220 0 220 220 0 220 0 0 -220z"/>
		<path d="M2045 2728 c-74 -40 -73 -139 2 -177 31 -16 1195 -16 1226 0 35 18
		57 51 57 89 0 38 -22 71 -57 89 -30 15 -1200 15 -1228 -1z"/>
		<path d="M925 2161 c-48 -22 -79 -54 -100 -103 -22 -55 -22 -541 0 -596 21
		-49 52 -81 100 -103 36 -17 69 -19 298 -19 284 0 303 3 365 63 54 52 62 100
		62 357 0 257 -8 305 -62 357 -62 60 -81 63 -365 63 -229 0 -262 -2 -298 -19z
		m525 -401 l0 -220 -220 0 -220 0 0 220 0 220 220 0 220 0 0 -220z"/>
		<path d="M2258 711 c-67 -60 -28 -166 62 -166 90 0 129 106 62 166 -20 18 -43
		29 -62 29 -19 0 -42 -11 -62 -29z"/>
		</g>
	</symbol>

	<symbol id="ico-sett" viewBox="0 0 512.000000 512.000000">
		<g transform="translate(0.000000,512.000000) scale(0.100000,-0.100000)" stroke="none">
		<path d="M2150 5093 c-27 -26 -36 -52 -100 -313 -39 -157 -75 -301 -80 -320
		-9 -32 -16 -37 -87 -64 -43 -15 -110 -43 -149 -61 l-71 -32 -279 168 c-248
		150 -284 168 -324 169 l-44 0 -268 -268 -268 -268 0 -44 c1 -40 19 -76 169
		-324 l168 -279 -37 -81 c-20 -45 -48 -112 -61 -149 -22 -62 -27 -68 -59 -77
		-19 -5 -163 -41 -320 -80 -261 -64 -287 -73 -312 -100 l-28 -30 0 -380 0 -380
		27 -30 c26 -27 52 -36 313 -100 157 -39 301 -75 320 -80 32 -9 37 -15 59 -77
		13 -37 41 -104 61 -149 l37 -81 -168 -279 c-150 -248 -168 -284 -169 -324 l0
		-44 268 -268 268 -268 44 0 c40 1 76 19 324 169 l278 167 123 -52 c68 -29 135
		-56 149 -60 19 -4 28 -16 35 -43 6 -20 42 -164 81 -321 64 -261 73 -287 100
		-312 l30 -28 380 0 380 0 30 27 c27 26 36 52 100 313 39 157 75 301 80 320 9
		32 15 37 77 59 37 13 104 41 149 61 l81 37 279 -168 c248 -150 284 -168 324
		-169 l44 0 268 268 268 268 0 44 c-1 40 -19 76 -169 324 l-168 279 32 71 c18
		39 46 106 61 149 27 71 32 78 64 87 19 5 163 41 320 80 261 64 287 73 312 100
		l28 30 0 380 0 380 -27 30 c-26 27 -52 36 -313 100 -157 39 -301 75 -320 80
		-32 9 -37 15 -59 77 -13 37 -41 104 -61 149 l-37 81 168 279 c150 248 168 284
		169 324 l0 44 -268 268 -268 268 -44 0 c-40 -1 -76 -19 -324 -169 l-279 -168
		-81 37 c-45 20 -112 48 -149 61 -62 22 -68 27 -77 59 -5 19 -41 163 -80 320
		-64 261 -73 287 -100 313 l-30 27 -380 0 -380 0 -30 -27z m744 -440 c37 -148
		73 -288 79 -311 16 -62 43 -83 143 -116 49 -15 140 -53 203 -82 63 -30 127
		-54 143 -54 21 0 114 51 303 164 l272 164 191 -190 190 -191 -164 -272 c-113
		-189 -164 -282 -164 -303 0 -16 24 -80 54 -143 29 -63 67 -154 82 -203 16 -48
		39 -98 50 -110 17 -16 90 -38 300 -90 154 -38 294 -73 312 -78 l32 -9 0 -269
		0 -269 -32 -9 c-18 -5 -158 -40 -311 -77 -213 -53 -284 -74 -300 -91 -12 -12
		-35 -62 -51 -110 -15 -49 -53 -140 -82 -203 -30 -63 -54 -127 -54 -143 0 -21
		51 -114 164 -303 l164 -272 -190 -191 -191 -190 -272 164 c-189 113 -282 164
		-303 164 -16 0 -80 -24 -143 -54 -63 -29 -154 -67 -203 -82 -100 -33 -127 -54
		-143 -116 -6 -23 -42 -163 -79 -310 l-67 -268 -267 0 -267 0 -79 311 c-59 234
		-84 316 -100 332 -11 11 -70 37 -129 58 -60 21 -151 59 -203 84 -52 25 -107
		45 -124 45 -21 0 -111 -49 -303 -164 l-272 -164 -191 190 -190 191 164 272
		c113 189 164 282 164 303 0 16 -24 80 -54 143 -29 63 -67 154 -82 203 -16 48
		-39 98 -51 110 -17 17 -93 40 -332 101 l-311 78 0 267 0 267 311 78 c239 61
		315 84 332 101 12 12 35 62 51 110 15 49 53 140 82 203 30 63 54 127 54 143 0
		21 -51 114 -164 303 l-164 272 190 191 191 190 272 -164 c192 -115 282 -164
		303 -164 17 0 72 20 124 45 52 25 143 63 203 84 59 21 118 47 129 58 16 16 41
		98 100 332 l79 311 267 0 267 0 67 -267z"/>
		<path d="M2385 3909 c-161 -21 -352 -85 -497 -168 -617 -353 -858 -1112 -558
		-1758 126 -271 353 -504 626 -641 86 -43 249 -98 352 -119 122 -24 386 -24
		501 0 176 38 379 116 413 160 28 36 23 98 -10 130 -36 35 -86 35 -152 2 -129
		-65 -342 -115 -495 -115 -318 0 -623 132 -846 367 -93 97 -147 175 -204 296
		-153 318 -153 676 0 994 57 121 111 199 204 296 352 370 883 470 1338 252 123
		-58 200 -112 301 -209 106 -101 169 -185 231 -306 142 -276 168 -587 75 -882
		-40 -124 -33 -167 33 -194 42 -18 93 -5 116 29 21 33 73 199 88 287 20 109 17
		373 -4 482 -89 448 -388 818 -806 999 -214 92 -470 127 -706 98z"/>
		<path d="M3451 1806 c-87 -48 -50 -186 49 -186 51 0 100 49 100 99 0 75 -83
		124 -149 87z"/>
		</g>
	</symbol>

	<symbol id="ico-idea" viewBox="0 0 512.000000 512.000000">
		<g transform="translate(0.000000,512.000000) scale(0.100000,-0.100000)" stroke="none">
		<path d="M2525 5108 c-44 -25 -44 -30 -45 -344 0 -285 1 -301 20 -321 10 -12
		29 -24 40 -28 30 -10 75 12 89 41 7 17 11 121 11 315 l0 291 -29 29 c-31 31
		-54 35 -86 17z"/>
		<path d="M1245 4725 c-28 -28 -31 -54 -10 -94 35 -68 289 -458 311 -478 51
		-46 124 -12 124 56 0 32 -24 76 -145 267 -80 126 -157 239 -171 252 -33 29
		-78 29 -109 -3z"/>
		<path d="M3827 4723 c-23 -6 -357 -506 -357 -534 0 -26 52 -79 77 -79 10 0 29
		7 42 16 34 24 341 490 341 519 0 37 -10 55 -41 70 -29 15 -32 16 -62 8z"/>
		<path d="M2500 4013 c-187 -9 -354 -55 -534 -146 -261 -133 -464 -342 -592
		-612 -168 -354 -164 -775 10 -1132 65 -133 132 -228 251 -353 57 -61 117 -134
		133 -163 64 -111 101 -266 109 -457 6 -122 8 -136 29 -157 l23 -23 634 0 634
		0 23 25 c20 22 24 36 27 122 7 205 48 389 110 495 16 26 77 100 137 165 127
		138 191 229 257 367 105 221 147 472 119 706 -18 148 -73 329 -136 453 -33 63
		-123 193 -182 261 -215 247 -545 418 -852 441 -41 3 -91 7 -110 8 -19 2 -60 2
		-90 0z m237 -168 c238 -39 444 -140 617 -305 146 -139 242 -291 300 -473 45
		-140 57 -219 57 -366 -1 -309 -115 -594 -324 -804 -125 -126 -178 -207 -231
		-357 -31 -84 -66 -276 -66 -356 l0 -54 -524 0 -524 0 -6 23 c-3 12 -6 43 -6
		68 0 72 -28 215 -61 314 -46 137 -99 222 -226 357 -123 131 -186 223 -243 356
		-243 565 -2 1221 548 1491 120 59 218 88 382 114 61 10 223 6 307 -8z"/>
		<path d="M2525 3669 c-51 -31 -59 -82 -20 -121 21 -22 37 -26 113 -31 306 -22
		579 -207 712 -482 56 -115 78 -191 86 -302 6 -89 19 -130 45 -143 31 -17 69
		-11 94 15 22 21 25 33 25 90 0 37 -9 113 -21 168 -76 379 -369 688 -741 782
		-118 29 -264 41 -293 24z"/>
		<path d="M487 3889 c-58 -16 -77 -87 -34 -126 43 -39 507 -283 537 -283 61 0
		94 80 53 128 -17 19 -454 262 -505 281 -13 4 -36 4 -51 0z"/>
		<path d="M4590 3893 c-43 -17 -498 -267 -514 -283 -47 -46 -11 -130 53 -130
		29 0 499 247 539 283 28 26 30 79 2 107 -11 11 -24 20 -29 20 -5 0 -15 2 -23
		4 -7 3 -20 2 -28 -1z"/>
		<path d="M1999 871 c-92 -19 -159 -98 -159 -189 0 -88 37 -147 115 -183 37
		-17 76 -19 596 -19 390 0 566 3 590 11 169 57 188 284 30 361 l-46 23 -545 2
		c-300 0 -561 -2 -581 -6z m1109 -163 c18 -18 14 -46 -7 -58 -13 -6 -201 -10
		-541 -10 -340 0 -528 4 -541 10 -18 10 -26 50 -12 63 3 4 250 7 548 7 407 0
		544 -3 553 -12z"/>
		<path d="M2145 391 c-45 -11 -69 -27 -103 -65 -84 -96 -55 -243 60 -300 l52
		-26 403 0 c440 0 446 1 506 58 43 41 60 81 60 142 0 61 -17 102 -60 141 -59
		55 -48 54 -483 56 -223 1 -418 -2 -435 -6z m816 -173 c10 -18 8 -24 -11 -40
		-21 -17 -49 -18 -384 -18 -198 0 -371 3 -383 6 -27 7 -39 40 -23 59 11 13 74
		15 401 15 l388 0 12 -22z"/>
		</g>
	</symbol>

	<symbol id="ico-arrow-cursore" viewBox="0 0 88 89">
		<path d="M87.2726 82.9191C87.5041 82.7686 87.5697 82.4588 87.4191 82.2274L84.9654 78.4552C84.8148 78.2237 84.5051 78.1581 84.2736 78.3087C84.0421 78.4593 83.9766 78.769 84.1271 79.0005L86.3082 82.3535L82.9552 84.5346C82.7237 84.6852 82.6581 84.9949 82.8087 85.2264C82.9593 85.4579 83.269 85.5234 83.5005 85.3729L87.2726 82.9191ZM1.01229 1.48984C1.01685 1.76595 1.24437 1.98608 1.52048 1.98152C1.79658 1.97696 2.01671 1.74943 2.01215 1.47333L1.01229 1.48984ZM2.16285 5.34476C2.14582 5.06915 1.90858 4.85952 1.63296 4.87656C1.35734 4.89359 1.14772 5.13083 1.16476 5.40645L2.16285 5.34476ZM1.39885 8.34648C1.42571 8.62132 1.67028 8.82234 1.94511 8.79548C2.21995 8.76862 2.42097 8.52405 2.39411 8.24922L1.39885 8.34648ZM2.86693 12.1027C2.82644 11.8296 2.57218 11.641 2.29902 11.6814C2.02586 11.7219 1.83725 11.9762 1.87774 12.2494L2.86693 12.1027ZM2.36606 15.1556C2.41713 15.4269 2.67852 15.6055 2.9499 15.5545C3.22128 15.5034 3.39988 15.242 3.34882 14.9706L2.36606 15.1556ZM4.16651 18.7582C4.10098 18.49 3.83039 18.3256 3.56214 18.3912C3.29388 18.4567 3.12955 18.7273 3.19508 18.9955L4.16651 18.7582ZM3.95209 21.8388C4.02867 22.1041 4.30582 22.2571 4.57113 22.1805C4.83645 22.104 4.98945 21.8268 4.91288 21.5615L3.95209 21.8388ZM6.09294 25.2556C6.00146 24.995 5.71609 24.858 5.45553 24.9495C5.19498 25.0409 5.05792 25.3263 5.1494 25.5869L6.09294 25.2556ZM6.18824 28.353C6.2909 28.6094 6.58194 28.734 6.83829 28.6313C7.09464 28.5286 7.21922 28.2376 7.11655 27.9812L6.18824 28.353ZM8.66097 31.5345C8.54356 31.2846 8.24576 31.1771 7.99583 31.2945C7.74589 31.4119 7.63845 31.7097 7.75586 31.9597L8.66097 31.5345ZM9.06792 34.6009C9.19616 34.8455 9.49837 34.9398 9.74293 34.8115C9.98749 34.6833 10.0818 34.3811 9.95355 34.1365L9.06792 34.6009ZM11.852 37.514C11.7097 37.2773 11.4025 37.2008 11.1659 37.343C10.9292 37.4852 10.8526 37.7924 10.9948 38.0291L11.852 37.514ZM12.5674 40.5226C12.7197 40.753 13.0299 40.8162 13.2603 40.664C13.4906 40.5117 13.5539 40.2015 13.4016 39.9711L12.5674 40.5226ZM15.6302 43.1427C15.4651 42.9213 15.1518 42.8757 14.9304 43.0407C14.7091 43.2057 14.6634 43.519 14.8284 43.7404L15.6302 43.1427ZM16.6399 46.068C16.8139 46.2824 17.1288 46.3151 17.3432 46.1411C17.5576 45.967 17.5903 45.6521 17.4162 45.4377L16.6399 46.068ZM19.9403 48.3816C19.755 48.1768 19.4388 48.1609 19.234 48.3462C19.0293 48.5314 19.0134 48.8476 19.1986 49.0524L19.9403 48.3816ZM21.2178 51.1995C21.4108 51.3969 21.7274 51.4006 21.9249 51.2076C22.1223 51.0146 22.126 50.698 21.933 50.5005L21.2178 51.1995ZM24.7129 53.2066C24.5103 53.0189 24.194 53.0309 24.0063 53.2335C23.8186 53.436 23.8306 53.7524 24.0331 53.9401L24.7129 53.2066ZM26.2292 55.9037C26.4383 56.0841 26.754 56.0608 26.9344 55.8517C27.1148 55.6427 27.0916 55.3269 26.8825 55.1465L26.2292 55.9037ZM29.8786 57.6149C29.6616 57.4441 29.3472 57.4816 29.1764 57.6986C29.0056 57.9156 29.0431 58.23 29.2601 58.4008L29.8786 57.6149ZM31.6043 60.1848C31.8267 60.3485 32.1396 60.3009 32.3033 60.0785C32.467 59.8561 32.4195 59.5431 32.1971 59.3794L31.6043 60.1848ZM35.3722 61.6171C35.1433 61.4626 34.8325 61.5229 34.678 61.7518C34.5235 61.9807 34.5839 62.2915 34.8127 62.446L35.3722 61.6171ZM37.2766 64.057C37.5099 64.2047 37.8188 64.1354 37.9666 63.9022C38.1143 63.6689 38.045 63.36 37.8118 63.2122L37.2766 64.057ZM41.1329 65.2307C40.8943 65.0916 40.5882 65.1722 40.4491 65.4107C40.31 65.6493 40.3906 65.9554 40.6291 66.0945L41.1329 65.2307ZM43.1882 67.5421C43.4303 67.675 43.7343 67.5864 43.8671 67.3443C44 67.1022 43.9114 66.7983 43.6693 66.6655L43.1882 67.5421ZM47.109 68.479C46.8626 68.3542 46.5618 68.4527 46.437 68.6991C46.3122 68.9454 46.4108 69.2463 46.6571 69.3711L47.109 68.479ZM49.2961 70.6689C49.5453 70.7879 49.8438 70.6823 49.9627 70.4331C50.0817 70.1839 49.9761 69.8855 49.727 69.7665L49.2961 70.6689ZM53.2625 71.3899C53.0099 71.2783 52.7147 71.3927 52.6032 71.6453C52.4916 71.898 52.606 72.1932 52.8586 72.3047L53.2625 71.3899ZM55.5617 73.4639C55.8166 73.57 56.1093 73.4494 56.2155 73.1945C56.3217 72.9396 56.2011 72.6469 55.9462 72.5407L55.5617 73.4639ZM59.5584 73.9882C59.3007 73.8889 59.0113 74.0172 58.912 74.2749C58.8127 74.5326 58.9411 74.822 59.1987 74.9213L59.5584 73.9882ZM61.9494 75.9512C62.209 76.0455 62.4958 75.9117 62.5902 75.6521C62.6846 75.3926 62.5507 75.1057 62.2912 75.0114L61.9494 75.9512ZM65.9659 76.297C65.7042 76.2089 65.4206 76.3497 65.3326 76.6114C65.2445 76.8732 65.3853 77.1567 65.6471 77.2448L65.9659 76.297ZM68.4396 78.1571C68.7029 78.2406 68.9839 78.0949 69.0674 77.8317C69.1509 77.5685 69.0052 77.2874 68.742 77.2039L68.4396 78.1571ZM72.467 78.3399C72.202 78.2623 71.9242 78.4142 71.8466 78.6792C71.7689 78.9442 71.9208 79.2219 72.1858 79.2996L72.467 78.3399ZM75.0105 80.1028C75.2767 80.1763 75.552 80.02 75.6254 79.7538C75.6989 79.4876 75.5426 79.2123 75.2764 79.1388L75.0105 80.1028ZM79.0414 80.1361C78.7737 80.0681 78.5016 80.2299 78.4336 80.4976C78.3656 80.7652 78.5274 81.0373 78.795 81.1053L79.0414 80.1361ZM81.6469 81.8078C81.9155 81.8719 82.1852 81.7062 82.2493 81.4376C82.3134 81.169 82.1476 80.8993 81.879 80.8352L81.6469 81.8078ZM85.6772 81.7037C85.4075 81.6447 85.1409 81.8155 85.0819 82.0852C85.0228 82.355 85.1936 82.6215 85.4634 82.6806L85.6772 81.7037ZM1.00003 -1.52588e-05C1.00003 0.499286 1.00413 0.995902 1.01229 1.48984L2.01215 1.47333C2.00408 0.984923 2.00003 0.493813 2.00003 -1.52588e-05L1.00003 -1.52588e-05ZM1.16476 5.40645C1.22602 6.39769 1.30417 7.37766 1.39885 8.34648L2.39411 8.24922C2.3006 7.29235 2.22339 6.32424 2.16285 5.34476L1.16476 5.40645ZM1.87774 12.2494C2.02312 13.2301 2.18603 14.1988 2.36606 15.1556L3.34882 14.9706C3.17119 14.0266 3.01043 13.0707 2.86693 12.1027L1.87774 12.2494ZM3.19508 18.9955C3.42969 19.9559 3.68217 20.9036 3.95209 21.8388L4.91288 21.5615C4.6468 20.6396 4.39786 19.7052 4.16651 18.7582L3.19508 18.9955ZM5.1494 25.5869C5.47776 26.5221 5.82421 27.4441 6.18824 28.353L7.11655 27.9812C6.75789 27.0857 6.41651 26.1772 6.09294 25.2556L5.1494 25.5869ZM7.75586 31.9597C8.17574 32.8535 8.61327 33.7338 9.06792 34.6009L9.95355 34.1365C9.50565 33.2823 9.07461 32.415 8.66097 31.5345L7.75586 31.9597ZM10.9948 38.0291C11.5023 38.8737 12.0267 39.7048 12.5674 40.5226L13.4016 39.9711C12.8687 39.1652 12.352 38.3462 11.852 37.514L10.9948 38.0291ZM14.8284 43.7404C15.4167 44.5295 16.0207 45.3053 16.6399 46.068L17.4162 45.4377C16.8056 44.6856 16.2101 43.9206 15.6302 43.1427L14.8284 43.7404ZM19.1986 49.0524C19.8575 49.7808 20.5307 50.4964 21.2178 51.1995L21.933 50.5005C21.2548 49.8066 20.5904 49.1003 19.9403 48.3816L19.1986 49.0524ZM24.0331 53.9401C24.7525 54.6068 25.4847 55.2612 26.2292 55.9037L26.8825 55.1465C26.1468 54.5117 25.4234 53.8651 24.7129 53.2066L24.0331 53.9401ZM29.2601 58.4008C30.0303 59.0069 30.8119 59.6015 31.6043 60.1848L32.1971 59.3794C31.4132 58.8024 30.6402 58.2143 29.8786 57.6149L29.2601 58.4008ZM34.8127 62.446C35.6244 62.9938 36.4459 63.5307 37.2766 64.057L37.8118 63.2122C36.989 62.691 36.1756 62.1594 35.3722 61.6171L34.8127 62.446ZM40.6291 66.0945C41.474 66.5872 42.3272 67.0697 43.1882 67.5421L43.6693 66.6655C42.8157 66.1971 41.9701 65.7189 41.1329 65.2307L40.6291 66.0945ZM46.6571 69.3711C47.5299 69.8132 48.4098 70.2458 49.2961 70.6689L49.727 69.7665C48.8475 69.3466 47.9747 68.9175 47.109 68.479L46.6571 69.3711ZM52.8586 72.3047C53.7541 72.7 54.6553 73.0864 55.5617 73.4639L55.9462 72.5407C55.0461 72.1659 54.1514 71.7823 53.2625 71.3899L52.8586 72.3047ZM59.1987 74.9213C60.1113 75.273 61.0284 75.6162 61.9494 75.9512L62.2912 75.0114C61.376 74.6786 60.4649 74.3375 59.5584 73.9882L59.1987 74.9213ZM65.6471 77.2448C66.5748 77.5569 67.5058 77.8609 68.4396 78.1571L68.742 77.2039C67.8135 76.9094 66.888 76.6072 65.9659 76.297L65.6471 77.2448ZM72.1858 79.2996C73.1253 79.5749 74.067 79.8426 75.0105 80.1028L75.2764 79.1388C74.338 78.88 73.4013 78.6137 72.467 78.3399L72.1858 79.2996ZM78.795 81.1053C79.7447 81.3467 80.6955 81.5808 81.6469 81.8078L81.879 80.8352C80.9323 80.6092 79.9862 80.3763 79.0414 80.1361L78.795 81.1053ZM85.4634 82.6806C85.9411 82.7852 86.4188 82.888 86.8964 82.9892L87.1036 82.0108C86.6282 81.9102 86.1527 81.8078 85.6772 81.7037L85.4634 82.6806ZM87.5453 83.3383C88.0082 83.0371 88.1394 82.4177 87.8383 81.9547L82.9308 74.4104C82.6296 73.9475 82.0102 73.8163 81.5473 74.1174C81.0843 74.4186 80.9531 75.038 81.2543 75.501L85.6165 82.207L78.9104 86.5692C78.4475 86.8704 78.3163 87.4898 78.6174 87.9527C78.9186 88.4157 79.538 88.5469 80.001 88.2457L87.5453 83.3383ZM0.512356 1.4981C0.521477 2.05031 0.976525 2.49057 1.52873 2.48145C2.08094 2.47233 2.5212 2.01728 2.51208 1.46507L0.512356 1.4981ZM2.6619 5.31392C2.62783 4.76268 2.15335 4.34344 1.60212 4.37751C1.05088 4.41158 0.63164 4.88606 0.66571 5.4373L2.6619 5.31392ZM0.901222 8.39511C0.95494 8.94478 1.44408 9.34683 1.99375 9.29311C2.54341 9.23939 2.94546 8.75025 2.89174 8.20059L0.901222 8.39511ZM3.36153 12.0294C3.28054 11.4831 2.77201 11.1059 2.2257 11.1868C1.67939 11.2678 1.30216 11.7764 1.38315 12.3227L3.36153 12.0294ZM1.87469 15.248C1.97681 15.7908 2.4996 16.148 3.04236 16.0459C3.58512 15.9437 3.94232 15.4209 3.84019 14.8782L1.87469 15.248ZM4.65223 18.6396C4.52116 18.1031 3.97999 17.7744 3.44348 17.9055C2.90697 18.0365 2.5783 18.5777 2.70936 19.1142L4.65223 18.6396ZM3.4717 21.9775C3.62485 22.5081 4.17916 22.8141 4.70978 22.6609C5.24041 22.5078 5.54642 21.9535 5.39327 21.4229L3.4717 21.9775ZM6.56471 25.09C6.38175 24.5689 5.811 24.2947 5.2899 24.4777C4.7688 24.6606 4.49468 25.2314 4.67763 25.7525L6.56471 25.09ZM5.72408 28.5389C5.92942 29.0516 6.5115 29.3008 7.02419 29.0954C7.53688 28.8901 7.78604 28.308 7.58071 27.7953L5.72408 28.5389ZM9.11352 31.3219C8.87871 30.822 8.28312 30.6072 7.78324 30.842C7.28336 31.0768 7.06849 31.6724 7.3033 32.1723L9.11352 31.3219ZM8.62511 34.8331C8.88159 35.3222 9.48601 35.5108 9.97513 35.2543C10.4642 34.9979 10.6528 34.3934 10.3964 33.9043L8.62511 34.8331ZM12.2805 37.2565C11.9961 36.7831 11.3817 36.63 10.9083 36.9144C10.4349 37.1989 10.2818 37.8133 10.5662 38.2866L12.2805 37.2565ZM12.1503 40.7984C12.4549 41.2591 13.0753 41.3856 13.536 41.081C13.9967 40.7764 14.1233 40.1561 13.8187 39.6954L12.1503 40.7984ZM16.031 42.8439C15.7009 42.4011 15.0744 42.3097 14.6316 42.6398C14.1888 42.9699 14.0975 43.5965 14.4276 44.0392L16.031 42.8439ZM16.2517 46.3831C16.5998 46.8119 17.2296 46.8773 17.6583 46.5292C18.0871 46.1812 18.1525 45.5514 17.8044 45.1226L16.2517 46.3831ZM20.3111 48.0462C19.9406 47.6366 19.3082 47.6049 18.8986 47.9753C18.4891 48.3458 18.4573 48.9782 18.8278 49.3878L20.3111 48.0462ZM20.8602 51.5489C21.2462 51.9439 21.8793 51.9512 22.2743 51.5652C22.6693 51.1792 22.6766 50.546 22.2906 50.151L20.8602 51.5489ZM25.0527 52.8399C24.6477 52.4645 24.015 52.4885 23.6395 52.8936C23.2641 53.2987 23.2882 53.9314 23.6932 54.3068L25.0527 52.8399ZM25.9026 56.2822C26.3207 56.643 26.9522 56.5965 27.313 56.1784C27.6738 55.7602 27.6273 55.1288 27.2092 54.768L25.9026 56.2822ZM30.1878 57.222C29.7538 56.8805 29.1251 56.9554 28.7835 57.3894C28.442 57.8234 28.5169 58.4521 28.9509 58.7937L30.1878 57.222ZM31.3079 60.5874C31.7526 60.9148 32.3786 60.8197 32.706 60.3749C33.0334 59.9301 32.9382 59.3041 32.4935 58.9767L31.3079 60.5874ZM35.6519 61.2027C35.1941 60.8937 34.5726 61.0143 34.2636 61.4721C33.9546 61.9299 34.0753 62.5514 34.533 62.8604L35.6519 61.2027ZM37.0091 64.4794C37.4756 64.7749 38.0934 64.6363 38.389 64.1697C38.6845 63.7032 38.5459 63.0854 38.0793 62.7898L37.0091 64.4794ZM41.3848 64.7987C40.9077 64.5205 40.2954 64.6817 40.0172 65.1588C39.7389 65.6359 39.9002 66.2482 40.3772 66.5264L41.3848 64.7987ZM42.9477 67.9805C43.4319 68.2462 44.0398 68.069 44.3055 67.5849C44.5711 67.1007 44.394 66.4928 43.9098 66.2271L42.9477 67.9805ZM47.3349 68.0329C46.8422 67.7834 46.2405 67.9805 45.991 68.4731C45.7414 68.9658 45.9385 69.5675 46.4312 69.8171L47.3349 68.0329ZM49.0807 71.1201C49.5791 71.3581 50.176 71.1469 50.414 70.6485C50.6519 70.1501 50.4408 69.5532 49.9424 69.3153L49.0807 71.1201ZM53.4645 70.9325C52.9592 70.7094 52.3688 70.9382 52.1458 71.4434C51.9227 71.9486 52.1515 72.539 52.6567 72.7621L53.4645 70.9325ZM55.3695 73.9254C55.8793 74.1378 56.4647 73.8966 56.6771 73.3868C56.8894 72.8769 56.6482 72.2915 56.1384 72.0792L55.3695 73.9254ZM59.7382 73.5216C59.2228 73.323 58.6441 73.5798 58.4454 74.0951C58.2468 74.6104 58.5036 75.1892 59.0189 75.3878L59.7382 73.5216ZM61.7786 76.4211C62.2976 76.6098 62.8714 76.3421 63.0601 75.823C63.2488 75.304 62.9811 74.7302 62.4621 74.5415L61.7786 76.4211ZM66.1253 75.8231C65.6019 75.647 65.0348 75.9286 64.8587 76.452C64.6826 76.9755 64.9642 77.5426 65.4876 77.7187L66.1253 75.8231ZM68.2885 78.6337C68.8149 78.8007 69.377 78.5093 69.544 77.9829C69.711 77.4565 69.4196 76.8943 68.8932 76.7273L68.2885 78.6337ZM72.6076 77.8601C72.0776 77.7048 71.5221 78.0086 71.3668 78.5386C71.2115 79.0686 71.5152 79.6241 72.0452 79.7794L72.6076 77.8601ZM74.8775 80.5848C75.4099 80.7317 75.9606 80.4192 76.1074 79.8868C76.2543 79.3544 75.9418 78.8037 75.4094 78.6568L74.8775 80.5848ZM79.1645 79.6515C78.6292 79.5155 78.085 79.8391 77.949 80.3744C77.813 80.9097 78.1366 81.4539 78.6719 81.5899L79.1645 79.6515ZM81.5308 82.2942C82.068 82.4224 82.6075 82.0908 82.7357 81.5536C82.8639 81.0164 82.5323 80.477 81.9951 80.3488L81.5308 82.2942ZM85.7841 81.2153C85.2446 81.0972 84.7115 81.4388 84.5934 81.9783C84.4753 82.5178 84.8169 83.0509 85.3565 83.169L85.7841 81.2153ZM0.500031 -1.52588e-05C0.500031 0.502023 0.504152 1.00139 0.512356 1.4981L2.51208 1.46507C2.50406 0.979434 2.50003 0.491077 2.50003 -1.52588e-05L0.500031 -1.52588e-05ZM0.66571 5.4373C0.727339 6.43441 0.805957 7.42031 0.901222 8.39511L2.89174 8.20059C2.79881 7.2497 2.72208 6.28752 2.6619 5.31392L0.66571 5.4373ZM1.38315 12.3227C1.52947 13.3097 1.69345 14.2848 1.87469 15.248L3.84019 14.8782C3.66377 13.9406 3.50408 12.991 3.36153 12.0294L1.38315 12.3227ZM2.70936 19.1142C2.9456 20.0812 3.19986 21.0356 3.4717 21.9775L5.39327 21.4229C5.12911 20.5076 4.88194 19.5799 4.65223 18.6396L2.70936 19.1142ZM4.67763 25.7525C5.00838 26.6946 5.35737 27.6233 5.72408 28.5389L7.58071 27.7953C7.22473 26.9065 6.88589 26.0048 6.56471 25.09L4.67763 25.7525ZM7.3033 32.1723C7.7263 33.0727 8.16709 33.9596 8.62511 34.8331L10.3964 33.9043C9.95184 33.0566 9.52405 32.1958 9.11352 31.3219L7.3033 32.1723ZM10.5662 38.2866C11.0775 39.1374 11.6057 39.9746 12.1503 40.7984L13.8187 39.6954C13.2898 38.8954 12.7769 38.0825 12.2805 37.2565L10.5662 38.2866ZM14.4276 44.0392C15.02 44.8339 15.6282 45.6151 16.2517 46.3831L17.8044 45.1226C17.1981 44.3757 16.6068 43.6162 16.031 42.8439L14.4276 44.0392ZM18.8278 49.3878C19.4911 50.1211 20.1687 50.8414 20.8602 51.5489L22.2906 50.151C21.6168 49.4616 20.9568 48.7601 20.3111 48.0462L18.8278 49.3878ZM23.6932 54.3068C24.417 54.9776 25.1537 55.636 25.9026 56.2822L27.2092 54.768C26.4778 54.1369 25.7588 53.4943 25.0527 52.8399L23.6932 54.3068ZM28.9509 58.7937C29.7254 59.4032 30.5113 60.0011 31.3079 60.5874L32.4935 58.9767C31.7138 58.4029 30.9451 57.818 30.1878 57.222L28.9509 58.7937ZM34.533 62.8604C35.3488 63.411 36.1743 63.9506 37.0091 64.4794L38.0793 62.7898C37.2606 62.2712 36.4513 61.7422 35.6519 61.2027L34.533 62.8604ZM40.3772 66.5264C41.2259 67.0214 42.0829 67.506 42.9477 67.9805L43.9098 66.2271C43.06 65.7608 42.2181 65.2847 41.3848 64.7987L40.3772 66.5264ZM46.4312 69.8171C47.3076 70.261 48.1909 70.6953 49.0807 71.1201L49.9424 69.3153C49.0664 68.8971 48.1971 68.4697 47.3349 68.0329L46.4312 69.8171ZM52.6567 72.7621C53.5555 73.1589 54.4599 73.5466 55.3695 73.9254L56.1384 72.0792C55.2415 71.7056 54.3501 71.3235 53.4645 70.9325L52.6567 72.7621ZM59.0189 75.3878C59.9345 75.7407 60.8546 76.0851 61.7786 76.4211L62.4621 74.5415C61.5498 74.2097 60.6417 73.8698 59.7382 73.5216L59.0189 75.3878ZM65.4876 77.7187C66.4181 78.0317 67.3519 78.3367 68.2885 78.6337L68.8932 76.7273C67.9674 76.4337 67.0447 76.1323 66.1253 75.8231L65.4876 77.7187ZM72.0452 79.7794C72.9873 80.0555 73.9316 80.3239 74.8775 80.5848L75.4094 78.6568C74.4734 78.3987 73.5394 78.1331 72.6076 77.8601L72.0452 79.7794ZM78.6719 81.5899C79.624 81.8319 80.5771 82.0666 81.5308 82.2942L81.9951 80.3488C81.0507 80.1234 80.107 79.8911 79.1645 79.6515L78.6719 81.5899ZM85.3565 83.169C85.8353 83.2738 86.3141 83.3769 86.7928 83.4783L87.2072 81.5217C86.7329 81.4213 86.2585 81.3191 85.7841 81.2153L85.3565 83.169Z" />

	</symbol>

</svg>