<svg xmlns="http://www.w3.org/2000/svg">

	<symbol id="i-sintez" viewBox="0 0 314 316">
		<path d="M290.5 106.125c3.15 2.363 4.213 4.158 5.5 7.875.5 3.625.5 3.625 0 7-3.512 3.391-7.064 5.015-11.621 6.656-.622.23-1.245.458-1.886.694a841.995 841.995 0 0 1-5.93 2.15c-1.976.711-3.95 1.426-5.92 2.15-1.79.657-3.585 1.304-5.38 1.95-6.208 2.6-6.208 2.6-10.402 7.593l-.552 2.483-.669 2.94c-1.437 7.6-2.73 15.22-3.94 22.858-2.98 18.69-2.98 18.69-6.7 22.526-3.79 2.522-7.808 4.249-12 6l-3.85 1.66a780.355 780.355 0 0 1-10.672 4.46 1896.96 1896.96 0 0 0-7.035 2.914c-7.028 2.92-14.062 5.822-21.126 8.656a1711.59 1711.59 0 0 0-8.347 3.388 400.057 400.057 0 0 1-3.872 1.544c-17.879 7.025-29.315 18.755-40.8 33.69-1.817 2.363-3.652 4.713-5.486 7.063A5968.33 5968.33 0 0 0 127 266c-2-1-2-1-2.594-2.759l-.476-2.292-.53-2.539c-4.408-22.891-4.408-22.891.632-30.615 1.887-2.685 3.902-5.247 5.968-7.795l2.043-2.648c13.495-16.216 36.812-22.903 55.865-30.115A2619.84 2619.84 0 0 0 199 183l2.355-.898c2.322-.89 4.637-1.8 6.95-2.715l2.12-.805c5.079-2.04 8.957-4.375 11.485-9.385 1.905-4.747 2.923-9.62 3.809-14.642l.886-4.762c.45-2.466.898-4.932 1.343-7.399.437-2.406.885-4.81 1.333-7.214l.389-2.217c.963-5.137 1.965-10.155 6.285-13.458 7.487-3.426 15.183-6.144 22.982-8.755 1.327-.45 2.653-.9 3.979-1.352 18.362-6.237 18.362-6.237 27.584-3.273zM147.531 86.293l2.16 1.095c1.326.676 2.65 1.359 3.97 2.049 12.454 6.383 21.66 4.06 34.398-.03L192.375 88c2.174-.698 4.348-1.394 6.523-2.089 1.343-.43 2.685-.863 4.026-1.299 5.184-1.678 9.553-2.78 15.013-2.862l3.09-.078c3.426.378 5.224 1.282 7.973 3.328 2.015 3.022 2.337 3.917 2.438 7.375l.12 2.273c-.852 3.588-2.778 4.97-5.558 7.352-2.648 1.334-5.385 2.246-8.203 3.156l-2.412.817c-2.54.856-5.088 1.692-7.635 2.527-1.664.56-3.329 1.121-4.992 1.684a881.502 881.502 0 0 1-12.34 4.042 950.344 950.344 0 0 0-4.829 1.56c-2.29.743-4.587 1.466-6.886 2.183l-2.048.672c-7.08 2.15-12.34.8-18.866-2.301l-3.5-1.645-3.664-1.757-3.77-1.78c-3.623-1.708-7.24-3.432-10.855-5.158-2.58-1.227-5.16-2.453-7.74-3.676a717.526 717.526 0 0 1-4.11-1.963c-9.661-4.607-18.476-6.229-28.838-2.736-18.593 7.651-26.217 23.27-33.787 40.867l-1.255 2.852-1.107 2.568C58 146 58 146 55 148c-2.907.271-2.907.271-6.426.309l-3.853.076c-2.677.038-5.354.066-8.032.094l-3.865.08-3.528.04c-3.762.458-6.122 1.335-9.296 3.401-1.537 2.207-1.537 2.207-2.414 4.816l-1.117 2.815-1.094 2.931a468.087 468.087 0 0 1-2.227 5.754l-.963 2.577C10.766 173.416 9.744 174.139 7 175c-2.784-1.193-4.491-2.321-6.313-4.75-3.028-9.913 1.937-20.842 5.813-29.875l.899-2.119c1.54-3.46 2.381-5.11 5.601-7.256 2.648-.18 2.648-.18 5.805-.09l3.457.06c2.4.062 4.802.127 7.203.196l3.465.057 3.163.086c3.38-.36 5.189-1.304 7.907-3.309 1.676-2.432 1.676-2.432 2.938-5.313l1.542-3.242a193.568 193.568 0 0 0 2.883-6.89C59.546 91.949 74.026 80.817 94 72c19.04-5.455 37.148 5.969 53.531 14.293z"/><path d="m133 32.188 6.09 2.945 3.019 1.466c4.142 2.007 8.294 3.992 12.453 5.964l2.034.975c11.846 5.61 19.623 4.743 31.966 1.4l3.58-.942c5.815-1.55 11.585-3.192 17.319-5.02l3.06-.972c1.878-.606 3.75-1.228 5.616-1.87 7.67-2.496 15.682-3.601 23.425-.884 3.635 2.61 5.177 4.217 5.938 8.688-.69 4.228-2.205 5.341-5.5 8.062-3.01 1.418-6.117 2.381-9.297 3.348l-2.781.884c-2.97.939-5.945 1.854-8.922 2.768a8977.83 8977.83 0 0 0-5.975 1.87 1500.859 1500.859 0 0 1-15.195 4.64c-2.077.625-4.151 1.256-6.224 1.893-3.058.94-6.12 1.862-9.184 2.78l-2.775.862c-10.761 3.178-17.268 2.324-27.229-2.822l-2.96-1.473a1230.736 1230.736 0 0 1-9.27-4.688 3852.018 3852.018 0 0 0-9.325-4.676c-1.93-.967-3.856-1.94-5.78-2.918l-2.64-1.335-2.314-1.178c-10.602-4.758-22.564-1.567-33.177 1.56-2.076.61-4.159 1.186-6.245 1.758-15.257 4.304-26.348 10.248-34.36 24.22a193.186 193.186 0 0 0-3.597 7.07C43 90 43 90 41 91c-2.875.375-2.875.375-6 0-3.645-3.645-5.136-6.955-5.313-12.063.167-11.456 7.862-22.96 15.422-31.128 11.054-10.574 27.059-13.587 41.426-17.404 2.491-.662 4.98-1.334 7.469-2.007l4.808-1.289c.735-.198 1.47-.395 2.226-.6 13.183-3.489 20.022-.174 31.962 5.678zM159.313 153.75c3.973 3.327 5.478 5.576 6.125 10.75-.543 4.34-1.318 5.436-4.438 8.5-3.371 1.841-6.892 3.279-10.438 4.75-16.789 7.311-27.97 15.916-37.687 31.625l-1.512 2.383A277.962 277.962 0 0 0 107 219l-1.48 2.478-1.387 2.499-1.246 2.197c-2.449 7.8-.52 16.154.968 23.986.38 2.114.758 4.228 1.135 6.342.597 3.289 1.2 6.576 1.818 9.86.598 3.2 1.169 6.405 1.735 9.61l.577 2.946c1.351 7.818.114 13.273-3.882 20.086C94.525 313.237 94.525 313.237 89 316c-2.938.313-2.938.313-6 0-3.414-3.297-4.151-7.396-4.5-12 .01-5.699 2.878-9.718 5.871-14.398 6.605-10.55 1.031-25.648-1.38-36.92-4.63-21.815-1.634-33.705 9.384-53.307l1.922-3.484C105.81 175.259 120.157 159.626 143 152c5.985-1.47 10.886-1.117 16.313 1.75zM87 144c3.57 4.632 4.696 9.54 4.356 15.316-1.268 9.552-7.183 18.614-11.481 27.121l-2.02 4.02a1158.668 1158.668 0 0 1-12.487 24.159 375.803 375.803 0 0 0-5.579 10.845l-1.076 2.19c-.653 1.335-1.3 2.673-1.94 4.015C54.576 236.175 52.12 240.088 49 244c-3.313.938-3.313.938-6 1-4.104-4.899-5.35-8.223-5.264-14.511.464-4.375 2.191-8.085 4.014-12.052l1.211-2.729c4.058-9.012 8.515-17.828 12.984-26.642 3.018-5.962 5.928-11.972 8.805-18.004l1.37-2.86c2.12-4.44 4.202-8.892 6.204-13.386l1.09-2.412a273.072 273.072 0 0 0 1.95-4.443c2.133-4.724 2.133-4.724 4.702-5.934 2.967-.042 4.383.379 6.934 1.973zM226.25 224.879c4.6 1.875 9.148 2.922 14.002 1.428 2.247-1.014 4.4-2.12 6.56-3.307a338.67 338.67 0 0 1 4.395-2.313l1.921-1.05c2.318-.789 3.591-.42 5.872.363-2.348 8.668-9.375 12.345-16.816 16.617-6.034 3.038-11.44 4.625-18.184 3.383-2.862-1.063-5.387-2.437-8-4-4.518-2.637-8.014-2.053-13-1-2.715.895-5.242 2.067-7.813 3.313-1.55.72-3.1 1.437-4.652 2.152l-2.605 1.206c-5.89 2.671-11.854 5.174-17.805 7.704a7006.28 7006.28 0 0 0-7.242 3.086l-3.144 1.337c-2.684 1.137-2.684 1.137-4.966 2.384-2.286 1.055-3.453.646-5.773-.182 11.453-13.847 24.822-21.872 41.076-29.027 1.953-.86 3.902-1.733 5.85-2.606 12.2-5.43 18.441-6.44 30.324.512z"/><path d="m206.563 243.375 2.378.273C211 244 211 244 213 245c-.247 2.36-.247 2.36-1 5-1.759 1.299-1.759 1.299-4.05 2.246l-2.539 1.086-2.724 1.106c-1.846.798-3.693 1.598-5.539 2.398a414.631 414.631 0 0 1-8.546 3.516c-11.719 5.087-20.434 15.305-29.192 24.336-11.365 11.715-23.398 17.958-38.375 24.37l-2.644 1.135C116 311 116 311 112 311c0-3.039.41-5.231 2.285-7.676 4.91-4.694 10.596-7.376 16.646-10.277 9.764-4.74 17.603-11.313 25.518-18.68 2.771-2.571 5.629-5.02 8.508-7.469 2.146-1.927 2.146-1.927 4.242-4.421 8.14-9.125 24.505-20.67 37.363-19.102zM306 145c3.242 1.62 5.197 2.942 7.375 5.813.939 3.285 1.043 5.785.625 9.187-3.897 4.892-8.509 6.906-14.125 9.25l-2.457 1.063c-6.71 2.883-12.038 4.348-19.418 3.687-3.724-1.584-5.99-3.482-8-7-1.023-3.435-1.283-5.257 0-8.625 7.493-8.898 24.695-14.658 36-13.375zM36.5 162.438c3.5.562 3.5.562 5.875 2.625 1.924 3.477 3.022 5.99 2.625 9.937-1.094 3.791-2.559 7.381-4.132 10.998-.97 2.238-1.906 4.489-2.845 6.74-.693 1.63-1.388 3.259-2.086 4.887l-.993 2.37c-3.056 6.966-3.056 6.966-6.944 9.005-2.563.438-2.563.438-5 0-3.988-4.13-4.39-8.574-4.33-14.071.633-5.615 2.904-10.632 5.08-15.804l1.344-3.375c5.034-12.288 5.034-12.288 11.406-13.313zM295 185l1 2c-6.4 14.934-28.875 20.503-42.59 26.164a274.33 274.33 0 0 0-8.101 3.484l-3.184 1.415-2.68 1.222c-2.861.837-4.608.523-7.445-.285 1.172-6.512 3.653-9.227 9-13 3.05-1.69 6.195-3.065 9.406-4.418l2.678-1.163c2.8-1.214 5.608-2.41 8.416-3.607a5070.33 5070.33 0 0 0 5.652-2.443c4.226-1.827 8.455-3.645 12.692-5.444 1.397-.6 2.79-1.21 4.175-1.835 3.88-1.737 6.708-2.403 10.981-2.09zM177.313 9.688c3.127 2.69 4.425 4.376 5.687 8.312.19 4.463-.425 7.942-2.563 11.875-3.858 3.363-7.556 5.15-12.746 5.105-5.153-.79-8.513-2.668-11.66-6.847-2.374-4.91-1.778-9.987-.031-15.008 6.32-6.716 13.29-7.524 21.313-3.438zM211 0c4.408 2.164 7.128 4.425 9 9 .58 3.969.41 7.053-1.188 10.75-3.312 4.112-5.978 6.364-11.25 7.188-5.476.382-8.76-1.38-12.875-4.938-2.822-3.345-3.031-6.644-2.968-10.938.598-4.387 3.2-7.108 6.406-9.937C202.443-.565 206.427-.66 211 0zM200.313 137.188c4.285 2.89 6.278 5.284 7.625 10.312.07 3.987-.463 5.428-2.938 8.5-3.304 2.89-5.89 3.916-10.313 4.25-5.596-.38-8.498-2.138-12.562-5.938-2.815-4.387-2.858-6.18-2.125-11.312 4.722-7.757 12.157-8.736 20.313-5.813zM118 115c3.762 1.282 6.37 3.248 8.938 6.313 1.406 3.557 1.595 5.887 1.062 9.687-2.27 3.539-4.065 5.522-7.813 7.438-5.516.973-9.532.437-14.5-2.188-2.862-2.396-4.367-3.757-5.687-7.25-.187-3.166.053-5.967 1-9 5.142-5.274 9.909-5.764 17-5zM263 68c3.308 1.625 5.172 2.956 7.438 5.813.875 3.405.453 5.8-.438 9.187-3.15 4.43-6.45 5.994-11.652 6.914-3.917.143-6.999-.936-10.348-2.914-3.102-2.902-3.832-5.793-4-10 1.192-3.377 2.39-5.428 5-7.875 4.658-1.747 9.09-1.78 14-1.125zM66.07 257.54c3.83.914 5.998 3.173 8.243 6.272 1.022 3.255 1.038 5.793.687 9.188-3.077 5.538-3.077 5.538-6 7-5.864.677-5.864.677-8.758-1.047-2.859-2.348-4.992-4.164-5.515-7.906-.18-4.079-.15-7.202 2.273-10.61 3.363-2.732 4.87-3.23 9.07-2.898zM27.438 99.063C31 100 31 100 33.374 102c2.166 3.999 2.817 7.465 2.625 12-1.27 4.11-2.089 5.505-5.875 7.563C27 122 27 122 24.312 120.874c-3.894-3.158-5.412-5.34-6.187-10.313-.262-3.184-.16-4.482 1.125-7.5 2.658-3.132 4.027-4.075 8.188-4zM261 237c-5.02 11.747-24.719 19.495-35.512 25.004C223 263 223 263 219 263c1.146-4.87 3.86-6.687 7.758-9.406 2.24-1.54 2.24-1.54 4.172-3.25C237.17 245 252.567 234.189 261 237zM152 267c-.42 4.757-2.442 7.938-6 11-8.325 5-8.325 5-12 5 .322-5.318 3.275-8.491 7-12 3.659-2.697 6.335-4 11-4z"/><path d="M190 269c-1.699 6.486-4.858 10.884-10.5 14.375-3.271 1.519-4.98 2.052-8.5 1.625 3.201-7.736 7.323-11.763 14.875-15.375C188 269 188 269 190 269zM282 208c.691 1.75.691 1.75 1 4-3.106 5.08-7.777 9.215-13 12h-4c.105-4.294 1.197-6.627 4.063-9.688 3.672-3.444 7.145-4.883 11.937-6.312zM212 258c.087 3.468-.553 5.483-2.824 8.11-4.492 4.179-8.096 6.855-14.176 7.89.786-5.862 3.801-9.033 8-13 3.365-2.07 5.072-3 9-3z"/>
	</symbol>

</svg>