<svg width="24" height="24" viewBox="0 0 24 24" fill="none" xmlns="http://www.w3.org/2000/svg">
<path d="M12.2367 24.0008C12.1572 24.0008 12.0777 24.0008 11.9977 24.0005C10.1164 24.0051 8.37813 23.9573 6.68763 23.8544C5.13777 23.7601 3.72304 23.2245 2.59617 22.3056C1.50885 21.419 0.766326 20.2201 0.389297 18.7428C0.0611596 17.4566 0.0437639 16.194 0.0271006 14.9729C0.0150152 14.0967 0.00256357 13.0584 0 12.0026C0.00256357 10.9424 0.0150152 9.90412 0.0271006 9.02793C0.0437639 7.80693 0.0611596 6.54437 0.389297 5.25801C0.766326 3.78066 1.50885 2.58182 2.59617 1.69519C3.72304 0.776329 5.13777 0.240726 6.68782 0.146423C8.37831 0.0436965 10.117 -0.00427892 12.0023 0.000298892C13.8841 -0.00372958 15.6219 0.0436965 17.3124 0.146423C18.8622 0.240726 20.277 0.776329 21.4038 1.69519C22.4913 2.58182 23.2337 3.78066 23.6107 5.25801C23.9388 6.54419 23.9562 7.80693 23.9729 9.02793C23.985 9.90412 23.9976 10.9424 24 11.9982C23.9976 13.0584 23.985 14.0967 23.9729 14.9729C23.9659 15.4907 23.5382 15.9045 23.0227 15.8976C22.5049 15.8904 22.0911 15.4649 22.098 14.9472C22.1099 14.0762 22.1225 13.0447 22.1249 11.9982C22.1225 10.9561 22.1099 9.92463 22.098 9.05356C22.0828 7.94189 22.0671 6.79231 21.7939 5.72165C21.5183 4.64165 20.9883 3.77589 20.2189 3.14837C19.3867 2.46957 18.3704 2.08925 17.1985 2.01801C15.5477 1.91767 13.8484 1.87134 12.0023 1.87519C10.1518 1.87079 8.45229 1.91767 6.80153 2.01801C5.62961 2.08925 4.61352 2.46957 3.78109 3.14819C3.01165 3.77571 2.48172 4.64147 2.20614 5.72165C1.93294 6.79231 1.91719 7.94189 1.90199 9.05356C1.89009 9.92463 1.87764 10.9561 1.87507 12.0026C1.87764 13.0447 1.89009 14.0762 1.90199 14.9472C1.91719 16.0589 1.93294 17.2085 2.20614 18.2791C2.48172 19.3591 3.01165 20.2249 3.78109 20.8524C4.61352 21.5312 5.62961 21.9115 6.80153 21.9828C8.45229 22.0831 10.1521 22.13 11.9979 22.1254C13.8486 22.1298 15.5477 22.0831 17.1985 21.9828C18.3704 21.9115 19.3865 21.5312 20.2189 20.8524C20.7732 20.4003 21.2063 19.8202 21.506 19.128C21.7118 18.653 22.2637 18.4346 22.7389 18.6404C23.2141 18.8462 23.4324 19.3981 23.2267 19.8733C22.8065 20.8436 22.1932 21.662 21.4038 22.3056C20.277 23.2246 18.8622 23.7601 17.3124 23.8544C15.6935 23.9529 14.0304 24.0008 12.2367 24.0008ZM17.8126 12.0004C17.8126 8.76937 15.1841 6.14079 11.953 6.14079C8.7222 6.14079 6.09343 8.76937 6.09343 12.0004C6.09343 15.2314 8.7222 17.86 11.953 17.86C15.1841 17.86 17.8126 15.2314 17.8126 12.0004ZM15.9376 12.0004C15.9376 14.1974 14.1502 15.9849 11.953 15.9849C9.75605 15.9849 7.9685 14.1974 7.9685 12.0004C7.9685 9.80341 9.75605 8.01586 11.953 8.01586C14.1502 8.01586 15.9376 9.80341 15.9376 12.0004ZM18.4689 4.26572C17.6923 4.26572 17.0626 4.89526 17.0626 5.67202C17.0626 6.44879 17.6923 7.07833 18.4689 7.07833C19.2457 7.07833 19.8752 6.44879 19.8752 5.67202C19.8752 4.89526 19.2457 4.26572 18.4689 4.26572Z" fill="#C82276"/>
</svg>
