<svg width="24" height="24" viewBox="0 0 24 24" fill="none" xmlns="http://www.w3.org/2000/svg">
<path d="M12.2367 24.0008C12.1572 24.0008 12.0777 24.0008 11.9977 24.0005C10.1164 24.0051 8.37813 23.9573 6.68763 23.8544C5.13777 23.7601 3.72304 23.2245 2.59617 22.3056C1.50885 21.419 0.766326 20.2201 0.389297 18.7428C0.0611596 17.4566 0.0437639 16.194 0.0271006 14.9729C0.0150152 14.0967 0.00256357 13.0584 0 12.0026C0.00256357 10.9424 0.0150152 9.90412 0.0271006 9.02793C0.0437639 7.80693 0.0611596 6.54437 0.389297 5.25801C0.766326 3.78066 1.50885 2.58182 2.59617 1.69519C3.72304 0.776329 5.13777 0.240726 6.68782 0.146423C8.37831 0.0436966 10.117 -0.00427892 12.0023 0.000298892C13.8841 -0.00372958 15.6219 0.0436966 17.3124 0.146423C18.8622 0.240726 20.277 0.776329 21.4038 1.69519C22.4913 2.58182 23.2337 3.78066 23.6107 5.25801C23.9388 6.54419 23.9562 7.80693 23.9729 9.02793C23.985 9.90412 23.9976 10.9424 24 11.9982C23.9976 13.0584 23.985 14.0967 23.9729 14.9729C23.9659 15.4907 23.5382 15.9045 23.0227 15.8976C22.5049 15.8904 22.0911 15.4649 22.098 14.9472C22.1099 14.0762 22.1225 13.0447 22.1249 11.9982C22.1225 10.9561 22.1099 9.92463 22.098 9.05356C22.0828 7.94189 22.0671 6.79231 21.7939 5.72165C21.5183 4.64165 20.9883 3.77589 20.2189 3.14837C19.3867 2.46957 18.3704 2.08925 17.1985 2.01801C15.5477 1.91767 13.8484 1.87134 12.0023 1.87519C10.1518 1.87079 8.45229 1.91767 6.80153 2.01801C5.62961 2.08925 4.61352 2.46957 3.78109 3.14819C3.01165 3.77571 2.48172 4.64147 2.20614 5.72165C1.93293 6.79231 1.91719 7.94189 1.90199 9.05356C1.89009 9.92463 1.87764 10.9561 1.87507 12.0026C1.87764 13.0447 1.89009 14.0762 1.90199 14.9472C1.91719 16.0589 1.93293 17.2085 2.20614 18.2791C2.48172 19.3591 3.01165 20.2249 3.78109 20.8524C4.61352 21.5312 5.62961 21.9115 6.80153 21.9828C8.45229 22.0831 10.1521 22.13 11.9979 22.1254C13.8486 22.1298 15.5477 22.0831 17.1985 21.9828C18.3704 21.9115 19.3865 21.5312 20.2189 20.8524C20.7732 20.4003 21.2063 19.8202 21.506 19.128C21.7118 18.653 22.2637 18.4346 22.7389 18.6404C23.2141 18.8462 23.4324 19.3981 23.2267 19.8733C22.8065 20.8436 22.1932 21.662 21.4038 22.3056C20.277 23.2246 18.8622 23.7601 17.3124 23.8544C15.6935 23.9529 14.0304 24.0008 12.2367 24.0008Z" fill="#CB1F27"/>
<path d="M17.8352 9.60845C17.8352 12.7623 16.0808 15.1188 13.4954 15.1188C12.6279 15.1188 11.8106 14.6498 11.5316 14.1165C11.5316 14.1165 11.0643 15.9691 10.9657 16.3269C10.617 17.5906 9.59302 18.8552 9.51432 18.9574C9.45869 19.0298 9.33521 19.0067 9.32255 18.9122C9.30038 18.7507 9.03895 17.1555 9.34652 15.8551C9.5012 15.2029 10.3814 11.4733 10.3814 11.4733C10.3814 11.4733 10.1249 10.9608 10.1249 10.2014C10.1249 9.00871 10.8156 8.11994 11.6763 8.11994C12.4077 8.11994 12.76 8.66858 12.76 9.32622C12.76 10.0617 12.2932 11.1616 12.0513 12.1802C11.85 13.0342 12.4782 13.7293 13.3213 13.7293C14.8437 13.7293 15.8709 11.7722 15.8709 9.45422C15.8709 7.69162 14.6836 6.37227 12.5257 6.37227C10.0865 6.37227 8.56631 8.19186 8.56631 10.2245C8.56631 10.9251 8.77391 11.419 9.0973 11.8003C9.24566 11.9767 9.26691 12.0472 9.21309 12.2485C9.17374 12.3969 9.0869 12.7528 9.04891 12.8939C8.99689 13.0984 8.8309 13.1698 8.64636 13.0948C7.52286 12.6361 7 11.4063 7 10.0228C6.9991 7.73956 8.92498 5 12.7455 5C15.8144 5.0009 17.8352 7.22304 17.8352 9.60845Z" fill="#CB1F27"/>
</svg>
