<svg width="13" height="11" viewBox="0 0 13 11" fill="none" xmlns="http://www.w3.org/2000/svg">
<path d="M0.369385 7.39266C0.441791 7.16981 0.681141 7.04798 0.904028 7.12025L2.51013 7.9293C2.17213 7.23029 1.99511 6.46163 1.99511 5.6767C1.99511 2.82225 4.31732 0.5 7.17181 0.5C10.0263 0.5 12.3485 2.82225 12.3485 5.6767C12.3485 8.53115 10.0263 10.8534 7.17181 10.8534C6.93748 10.8534 6.74749 10.6634 6.74749 10.4291C6.74749 10.1948 6.93748 10.0048 7.17181 10.0048C9.55832 10.0048 11.4999 8.06325 11.4999 5.6767C11.4999 3.29019 9.55832 1.34864 7.17181 1.34864C4.78526 1.34864 2.84374 3.29019 2.84374 5.6767C2.84374 6.3343 2.99212 6.97808 3.27563 7.56299L4.01635 6.24524C4.08876 6.02242 4.32817 5.90049 4.55099 5.97283C4.77388 6.04527 4.89588 6.28465 4.82347 6.5075L3.7709 8.78496C3.71268 8.9643 3.54635 9.07832 3.36746 9.07832C3.32404 9.07832 3.27981 9.0716 3.23626 9.05748L0.641832 7.92741C0.41898 7.85497 0.296979 7.61562 0.369385 7.39266Z" fill="#468615"/>
</svg>
