<svg width="24" height="18" viewBox="0 0 24 18" fill="none" xmlns="http://www.w3.org/2000/svg">
<path d="M11.6992 18C11.6972 18 11.6951 18 11.6929 18C10.9868 17.9949 4.74479 17.9342 2.97629 17.4251C1.74034 17.0715 0.764681 16.0341 0.431547 14.7182C-0.0311979 12.869 -0.00174077 9.30862 0.00147274 9.02432C-0.00156224 8.74136 -0.0313765 5.15154 0.430119 3.28708C0.430654 3.28537 0.431011 3.28347 0.431547 3.28176C0.760931 1.98095 1.75855 0.911421 2.97325 0.556811C2.97629 0.555861 2.9795 0.5551 2.98254 0.55415C4.73104 0.064993 10.9854 0.00513103 11.6929 0H11.7056C12.4135 0.00513103 18.6721 0.0657531 20.4244 0.575624C21.658 0.928715 22.6337 1.96594 22.9668 3.28176C23.4463 5.14394 23.4015 8.74364 23.3969 9.0458C23.3976 9.11269 23.3999 9.38578 23.3958 9.78885C23.3903 10.3227 22.9822 10.7514 22.4819 10.7514C22.4785 10.7514 22.4753 10.7514 22.4719 10.7512C21.967 10.7455 21.5623 10.3052 21.5677 9.76794C21.5721 9.33694 21.5687 9.05891 21.5687 9.05606C21.5686 9.04599 21.5687 9.03573 21.5687 9.02547C21.5855 8.03081 21.5527 5.15116 21.2028 3.7922C21.0374 3.1398 20.5563 2.62841 19.9459 2.45377C18.6539 2.07768 13.5616 1.95986 11.6992 1.94599C9.8373 1.95986 4.75086 2.07464 3.45171 2.43495C2.8531 2.61169 2.36108 3.14132 2.19701 3.78612C1.79068 5.43185 1.82907 8.97606 1.82942 9.01159V9.03725C1.81728 10.0201 1.85995 12.8665 2.19719 14.2146C2.36072 14.8602 2.84186 15.3716 3.45206 15.5464C4.75693 15.9221 9.84087 16.0401 11.699 16.054C13.5619 16.0401 18.6534 15.9254 19.9486 15.5645C20.5576 15.3891 21.0376 14.8782 21.2017 14.2306C21.3331 13.7118 21.8348 13.4045 22.3221 13.5446C22.8095 13.6844 23.0982 14.2182 22.9668 14.7372C22.6335 16.0529 21.658 17.0903 20.4206 17.4445C20.419 17.4449 20.4172 17.4455 20.4156 17.4459C18.6673 17.935 12.4127 17.9949 11.7054 18C11.7035 18 11.7013 18 11.6992 18ZM10.6644 12.6231L15.3335 9.75407C15.602 9.58893 15.7677 9.28278 15.7677 8.95135C15.7677 8.61992 15.602 8.31377 15.3335 8.14863L10.6644 5.27963C10.3968 5.11525 10.0676 5.11582 9.8007 5.28134C9.53363 5.44667 9.3692 5.75187 9.3692 6.08216V11.8204C9.3692 12.1506 9.53363 12.4558 9.8007 12.6214C9.9346 12.7044 10.0842 12.746 10.2338 12.746C10.3825 12.746 10.5311 12.705 10.6644 12.6231Z" fill="#CB1F27"/>
</svg>
