<svg width="48" height="49" viewBox="0 0 48 49" fill="none" xmlns="http://www.w3.org/2000/svg">
<path d="M24 0C10.752 0 0 10.976 0 24.5C0 38.024 10.752 49 24 49C37.248 49 48 38.024 48 24.5C48 10.976 37.248 0 24 0ZM23.064 31.458C23.064 34.1285 21.024 36.211 18.408 36.211H14.856C12.288 36.211 10.2 34.0795 10.2 31.458V24.9165C10.2 17.3705 11.808 15.68 16.104 13.083C16.392 12.9115 16.704 12.838 17.016 12.838C17.64 12.838 18.24 13.1565 18.576 13.7445C19.08 14.6265 18.792 15.7535 17.952 16.268C15.048 17.983 14.04 18.62 13.848 23.0545H18.432C21.048 23.0545 23.088 25.137 23.088 27.8075V31.458H23.064ZM37.8 31.458C37.8 34.1285 35.76 36.211 33.144 36.211H29.568C27 36.211 24.912 34.0795 24.912 31.458V24.9165C24.912 17.3705 26.52 15.68 30.816 13.083C31.104 12.9115 31.416 12.838 31.728 12.838C32.352 12.838 32.952 13.1565 33.288 13.7445C33.792 14.6265 33.504 15.7535 32.664 16.268C29.76 18.032 28.752 18.669 28.56 23.1035H33.144C35.76 23.1035 37.8 25.186 37.8 27.8565V31.458Z" fill="url(#paint0_linear_1330_44906)"/>
<defs>
<linearGradient id="paint0_linear_1330_44906" x1="47.8333" y1="26.5602" x2="-0.166666" y2="26.5602" gradientUnits="userSpaceOnUse">
<stop stop-color="#06B5D4"/>
<stop offset="0.31737" stop-color="#1F9DE4"/>
<stop offset="0.961592" stop-color="#2563EB"/>
</linearGradient>
</defs>
</svg>
