<svg xmlns="http://www.w3.org/2000/svg">

	<symbol id="grid" viewBox="0 0 20 20">
		<path d="M5.10938 2.03296C5.74917 2.03296 6.19522 2.03344 6.54395 2.05835C6.88658 2.08283 7.08568 2.12891 7.2373 2.19507C7.68528 2.39053 8.04276 2.7481 8.23828 3.19604C8.30443 3.34767 8.35052 3.54681 8.375 3.8894C8.39992 4.23822 8.40039 4.68486 8.40039 5.32495C8.40039 5.96475 8.39991 6.41079 8.375 6.75952C8.35052 7.10215 8.30444 7.30125 8.23828 7.45288C8.04279 7.90088 7.68531 8.25837 7.2373 8.45386C7.08568 8.52001 6.88658 8.5661 6.54395 8.59058C6.19522 8.61548 5.74918 8.61597 5.10938 8.61597C4.46928 8.61597 4.02265 8.6155 3.67383 8.59058C3.33123 8.5661 3.13209 8.52001 2.98047 8.45386C2.53252 8.25834 2.17495 7.90086 1.97949 7.45288C1.91334 7.30125 1.86725 7.10215 1.84277 6.75952C1.81787 6.41079 1.81738 5.96474 1.81738 5.32495C1.81738 4.68486 1.81785 4.23823 1.84277 3.8894C1.86725 3.5468 1.91334 3.34767 1.97949 3.19604C2.17498 2.74812 2.53254 2.39055 2.98047 2.19507C3.13209 2.12892 3.33122 2.08283 3.67383 2.05835C4.02265 2.03343 4.46928 2.03296 5.10938 2.03296Z" stroke-width="1.29186"/>
		<path d="M5.10938 11.3838C5.74917 11.3838 6.19522 11.3843 6.54395 11.4092C6.88658 11.4337 7.08568 11.4797 7.2373 11.5459C7.68528 11.7414 8.04276 12.0989 8.23828 12.5469C8.30443 12.6985 8.35052 12.8976 8.375 13.2402C8.39992 13.5891 8.40039 14.0357 8.40039 14.6758C8.40039 15.3156 8.39991 15.7616 8.375 16.1104C8.35052 16.453 8.30444 16.6521 8.23828 16.8037C8.04279 17.2517 7.68531 17.6092 7.2373 17.8047C7.08568 17.8708 6.88658 17.9169 6.54395 17.9414C6.19522 17.9663 5.74918 17.9668 5.10938 17.9668C4.46928 17.9668 4.02265 17.9663 3.67383 17.9414C3.33123 17.9169 3.13209 17.8708 2.98047 17.8047C2.53252 17.6092 2.17495 17.2517 1.97949 16.8037C1.91334 16.6521 1.86725 16.453 1.84277 16.1104C1.81787 15.7616 1.81738 15.3156 1.81738 14.6758C1.81738 14.0357 1.81785 13.5891 1.84277 13.2402C1.86725 12.8976 1.91334 12.6985 1.97949 12.5469C2.17498 12.0989 2.53254 11.7414 2.98047 11.5459C3.13209 11.4797 3.33122 11.4337 3.67383 11.4092C4.02265 11.3843 4.46928 11.3838 5.10938 11.3838Z" stroke-width="1.29186"/>
		<path d="M14.4609 2.0332C15.1007 2.0332 15.5468 2.03369 15.8955 2.05859C16.2381 2.08307 16.4372 2.12916 16.5889 2.19531C17.0368 2.39077 17.3943 2.74834 17.5898 3.19629C17.656 3.34791 17.7021 3.54705 17.7266 3.88965C17.7515 4.23847 17.752 4.6851 17.752 5.3252C17.752 5.965 17.7515 6.41104 17.7266 6.75977C17.7021 7.1024 17.656 7.3015 17.5898 7.45312C17.3944 7.90113 17.0369 8.25861 16.5889 8.4541C16.4372 8.52026 16.2381 8.56634 15.8955 8.59082C15.5468 8.61573 15.1007 8.61621 14.4609 8.61621C13.8208 8.61621 13.3742 8.61574 13.0254 8.59082C12.6828 8.56634 12.4837 8.52025 12.332 8.4541C11.8841 8.25859 11.5265 7.90111 11.3311 7.45312C11.2649 7.3015 11.2188 7.1024 11.1943 6.75977C11.1694 6.41104 11.1689 5.96499 11.1689 5.3252C11.1689 4.6851 11.1694 4.23847 11.1943 3.88965C11.2188 3.54704 11.2649 3.34791 11.3311 3.19629C11.5265 2.74836 11.8841 2.3908 12.332 2.19531C12.4837 2.12916 12.6828 2.08307 13.0254 2.05859C13.3742 2.03367 13.8208 2.0332 14.4609 2.0332Z" stroke-width="1.29186"/>
		<path d="M14.4609 11.384C15.1007 11.384 15.5468 11.3845 15.8955 11.4094C16.2381 11.4339 16.4372 11.48 16.5889 11.5461C17.0368 11.7416 17.3943 12.0992 17.5898 12.5471C17.656 12.6987 17.7021 12.8979 17.7266 13.2405C17.7515 13.5893 17.752 14.0359 17.752 14.676C17.752 15.3158 17.7515 15.7619 17.7266 16.1106C17.7021 16.4532 17.656 16.6523 17.5898 16.804C17.3944 17.252 17.0369 17.6094 16.5889 17.8049C16.4372 17.8711 16.2381 17.9172 15.8955 17.9417C15.5468 17.9666 15.1007 17.967 14.4609 17.967C13.8208 17.967 13.3742 17.9666 13.0254 17.9417C12.6828 17.9172 12.4837 17.8711 12.332 17.8049C11.8841 17.6094 11.5265 17.2519 11.3311 16.804C11.2649 16.6523 11.2188 16.4532 11.1943 16.1106C11.1694 15.7619 11.1689 15.3158 11.1689 14.676C11.1689 14.0359 11.1694 13.5893 11.1943 13.2405C11.2188 12.8979 11.2649 12.6987 11.3311 12.5471C11.5265 12.0992 11.8841 11.7416 12.332 11.5461C12.4837 11.48 12.6828 11.4339 13.0254 11.4094C13.3742 11.3845 13.8208 11.384 14.4609 11.384Z" stroke-width="1.29186"/>
	</symbol>

	<symbol id="arrow" viewBox="0 0 5 3">
		<path fill-rule="evenodd" clip-rule="evenodd" d="M2.4346 1.94284L0.593968 0.102218C0.457561 -0.0340151 0.237558 -0.0340151 0.101152 0.102218C0.0359893 0.167133 -0.00066328 0.255676 -0.00066328 0.348027C-0.00066328 0.440379 0.0359893 0.528922 0.101152 0.593836L2.18783 2.68027C2.32409 2.81693 2.54439 2.81693 2.68065 2.68027L4.76732 0.593922C4.83249 0.528922 4.86914 0.440379 4.86914 0.348027C4.86914 0.255676 4.83249 0.167133 4.76732 0.102132C4.6309 -0.0340151 4.41089 -0.0340151 4.27451 0.102305L2.4346 1.94284Z"/>
	</symbol>

	<symbol id="layers" viewBox="0 0 20 20">
		<path d="M1.45034 7.22777L9.55002 11.8187C9.68683 11.8962 9.84202 11.937 10 11.937C10.158 11.937 10.3132 11.8962 10.45 11.8187L18.5497 7.22777C18.6857 7.15074 18.7988 7.04012 18.8777 6.90692C18.9567 6.77372 18.9987 6.62258 18.9996 6.4685C19.0003 6.31293 18.959 6.15996 18.88 6.02507C18.8009 5.89019 18.687 5.77819 18.5497 5.7004L10.45 1.11828C10.3132 1.04079 10.158 1 10 1C9.84202 1 9.68683 1.04079 9.55002 1.11828L1.45034 5.7004C1.313 5.77819 1.19905 5.89019 1.12003 6.02507C1.04101 6.15996 0.999727 6.31293 1.00036 6.4685C1.00131 6.62258 1.04334 6.77372 1.12228 6.90692C1.20122 7.04012 1.31432 7.15074 1.45034 7.22777ZM10 2.937L16.2997 6.4685L10 10L3.70025 6.4685L10 2.937ZM17.6497 9.26721L10 13.5315L2.3503 9.2319C2.24759 9.17352 2.13411 9.13566 2.01642 9.12049C1.89872 9.10532 1.77913 9.11314 1.66453 9.1435C1.54993 9.17387 1.44258 9.22617 1.34867 9.29741C1.25476 9.36864 1.17615 9.4574 1.11735 9.55856C1.00002 9.76128 0.969183 10.0013 1.03157 10.2262C1.09395 10.4512 1.24449 10.6428 1.45034 10.7593L9.55002 15.3502C9.68683 15.4277 9.84202 15.4685 10 15.4685C10.158 15.4685 10.3132 15.4277 10.45 15.3502L18.5497 10.7593C18.7555 10.6428 18.906 10.4512 18.9684 10.2262C19.0308 10.0013 19 9.76128 18.8826 9.55856C18.8239 9.4574 18.7452 9.36864 18.6513 9.29741C18.5574 9.22617 18.4501 9.17387 18.3355 9.1435C18.2209 9.11314 18.1013 9.10532 17.9836 9.12049C17.8659 9.13566 17.7524 9.17352 17.6497 9.2319V9.26721ZM17.6497 12.7987L10 17.063L2.3503 12.7634C2.24759 12.705 2.13411 12.6672 2.01642 12.652C1.89872 12.6368 1.77913 12.6446 1.66453 12.675C1.54993 12.7054 1.44258 12.7577 1.34867 12.8289C1.25476 12.9001 1.17615 12.9889 1.11735 13.0901C1.00002 13.2928 0.969183 13.5328 1.03157 13.7577C1.09395 13.9827 1.24449 14.1743 1.45034 14.2908L9.55002 18.8817C9.68683 18.9592 9.84202 19 10 19C10.158 19 10.3132 18.9592 10.45 18.8817L18.5497 14.2908C18.7555 14.1743 18.906 13.9827 18.9684 13.7577C19.0308 13.5328 19 13.2928 18.8826 13.0901C18.8239 12.9889 18.7452 12.9001 18.6513 12.8289C18.5574 12.7577 18.4501 12.7054 18.3355 12.675C18.2209 12.6446 18.1013 12.6368 17.9836 12.652C17.8659 12.6672 17.7524 12.705 17.6497 12.7634V12.7987Z"/>
	</symbol>

	<symbol id="chat" viewBox="0 0 20 20">
		<path d="M17.7503 16.4723C18.314 15.7166 18.7009 14.844 18.8823 13.9188C19.0637 12.9937 19.0351 12.0396 18.7985 11.127C18.562 10.2143 18.1235 9.36649 17.5155 8.64598C16.9075 7.92547 16.1455 7.35069 15.2857 6.96406C15.0984 5.88649 14.668 4.86579 14.0271 3.97951C13.3863 3.09323 12.5519 2.3647 11.5873 1.84926C10.6227 1.33382 9.55327 1.04504 8.46034 1.00486C7.36742 0.964679 6.27971 1.17416 5.27988 1.61738C4.28004 2.0606 3.39438 2.7259 2.69018 3.56273C1.98599 4.39956 1.48179 5.38591 1.2159 6.44681C0.950014 7.50772 0.929429 8.61528 1.15571 9.68533C1.38199 10.7554 1.84919 11.7598 2.5218 12.6222L1.2715 13.8636C1.14668 13.9901 1.06214 14.1507 1.02852 14.3252C0.994899 14.4997 1.01372 14.6803 1.0826 14.8441C1.15008 15.0084 1.26468 15.149 1.41194 15.2482C1.55921 15.3475 1.73256 15.4009 1.91014 15.4018H7.02829C7.53799 16.4764 8.34159 17.3847 9.34607 18.0215C10.3506 18.6583 11.5148 18.9975 12.7041 19H18.1011C18.2787 18.9991 18.4521 18.9457 18.5993 18.8464C18.7466 18.7472 18.8612 18.6066 18.9287 18.4423C18.9975 18.2785 19.0164 18.0979 18.9827 17.9234C18.9491 17.7489 18.8646 17.5883 18.7398 17.4618L17.7503 16.4723ZM6.40764 12.7032C6.40887 13.0044 6.43293 13.3051 6.4796 13.6027H4.07793L4.39276 13.2969C4.47707 13.2132 4.54398 13.1138 4.58965 13.0041C4.63532 12.8945 4.65883 12.7769 4.65883 12.6582C4.65883 12.5394 4.63532 12.4219 4.58965 12.3122C4.54398 12.2026 4.47707 12.1031 4.39276 12.0195C3.88864 11.5209 3.48899 10.9268 3.21716 10.2719C2.94534 9.617 2.8068 8.91449 2.80964 8.20543C2.80964 6.77398 3.37825 5.40116 4.39038 4.38897C5.40252 3.37679 6.77526 2.80815 8.20663 2.80815C9.32353 2.80143 10.4144 3.14492 11.326 3.79033C12.2376 4.43574 12.924 5.35061 13.2888 6.40634C13.0909 6.40634 12.902 6.40634 12.7041 6.40634C11.0342 6.40634 9.43266 7.06975 8.25184 8.25064C7.07102 9.43152 6.40764 11.0331 6.40764 12.7032ZM15.8884 17.2009L15.9333 17.2459H12.7041C11.6637 17.244 10.6561 16.8815 9.853 16.22C9.04989 15.5586 8.50092 14.6391 8.29964 13.6183C8.09835 12.5975 8.25719 11.5385 8.7491 10.6216C9.24101 9.7048 10.0356 8.98687 10.9974 8.59017C11.9592 8.19346 13.0288 8.14251 14.024 8.446C15.0192 8.74948 15.8783 9.38863 16.4552 10.2546C17.032 11.1205 17.2908 12.1596 17.1874 13.1949C17.0841 14.2303 16.625 15.1977 15.8884 15.9325C15.7189 16.0986 15.6219 16.325 15.6185 16.5622C15.619 16.6812 15.6431 16.799 15.6894 16.9086C15.7357 17.0182 15.8034 17.1176 15.8884 17.2009Z" />
	</symbol>

	<symbol id="group" viewBox="0 0 20 20">
		<path d="M10.258 10.1812C10.6952 9.80082 11.0458 9.33038 11.2861 8.80178C11.5265 8.27319 11.6508 7.69882 11.6508 7.11765C11.6508 6.02558 11.2192 4.97824 10.451 4.20603C9.68276 3.43382 8.64081 3 7.55435 3C6.4679 3 5.42595 3.43382 4.65771 4.20603C3.88947 4.97824 3.45788 6.02558 3.45788 7.11765C3.45788 7.69882 3.58225 8.27319 3.82257 8.80178C4.06289 9.33038 4.41353 9.80082 4.85068 10.1812C3.70379 10.7032 2.73073 11.5462 2.04786 12.6094C1.36499 13.6726 1.00121 14.911 1 16.1765C1 16.3949 1.08632 16.6044 1.23997 16.7588C1.39361 16.9132 1.602 17 1.81929 17C2.03658 17 2.24498 16.9132 2.39862 16.7588C2.55227 16.6044 2.63859 16.3949 2.63859 16.1765C2.63859 14.866 3.1565 13.6092 4.07838 12.6825C5.00027 11.7559 6.25061 11.2353 7.55435 11.2353C8.8581 11.2353 10.1084 11.7559 11.0303 12.6825C11.9522 13.6092 12.4701 14.866 12.4701 16.1765C12.4701 16.3949 12.5564 16.6044 12.7101 16.7588C12.8637 16.9132 13.0721 17 13.2894 17C13.5067 17 13.7151 16.9132 13.8687 16.7588C14.0224 16.6044 14.1087 16.3949 14.1087 16.1765C14.1075 14.911 13.7437 13.6726 13.0608 12.6094C12.378 11.5462 11.4049 10.7032 10.258 10.1812ZM7.55435 9.58824C7.06823 9.58824 6.59302 9.44334 6.18883 9.17187C5.78463 8.90039 5.4696 8.51454 5.28357 8.0631C5.09754 7.61166 5.04886 7.11491 5.1437 6.63566C5.23854 6.15641 5.47263 5.7162 5.81637 5.37068C6.16011 5.02516 6.59806 4.78986 7.07485 4.69453C7.55163 4.5992 8.04583 4.64813 8.49495 4.83512C8.94407 5.02211 9.32793 5.33878 9.59801 5.74506C9.86808 6.15135 10.0122 6.62901 10.0122 7.11765C10.0122 7.77289 9.75328 8.40129 9.29234 8.86462C8.8314 9.32794 8.20623 9.58824 7.55435 9.58824ZM15.5343 9.85176C16.0586 9.25827 16.4011 8.5251 16.5205 7.74051C16.64 6.95592 16.5313 6.15336 16.2075 5.42941C15.8838 4.70547 15.3588 4.09101 14.6957 3.66C14.0326 3.22898 13.2598 2.99979 12.4701 3C12.2528 3 12.0444 3.08676 11.8908 3.24121C11.7371 3.39565 11.6508 3.60512 11.6508 3.82353C11.6508 4.04194 11.7371 4.25141 11.8908 4.40585C12.0444 4.56029 12.2528 4.64706 12.4701 4.64706C13.122 4.64706 13.7472 4.90735 14.2081 5.37068C14.669 5.834 14.928 6.46241 14.928 7.11765C14.9268 7.5502 14.8127 7.97486 14.5971 8.34917C14.3814 8.72348 14.0717 9.03431 13.6991 9.25059C13.5776 9.32102 13.4761 9.42161 13.4044 9.54273C13.3327 9.66385 13.2931 9.80145 13.2894 9.94235C13.286 10.0822 13.318 10.2205 13.3825 10.3444C13.447 10.4684 13.5419 10.5737 13.6581 10.6506L13.9776 10.8647L14.0841 10.9224C15.0717 11.3932 15.9049 12.1379 16.4855 13.0687C17.0661 13.9996 17.3699 15.0778 17.3613 16.1765C17.3613 16.3949 17.4476 16.6044 17.6013 16.7588C17.7549 16.9132 17.9633 17 18.1806 17C18.3979 17 18.6063 16.9132 18.7599 16.7588C18.9136 16.6044 18.9999 16.3949 18.9999 16.1765C19.0066 14.9127 18.6917 13.6682 18.0851 12.5612C17.4786 11.4542 16.6005 10.5216 15.5343 9.85176Z" />
	</symbol>

	<symbol id="clock" viewBox="0 0 20 20">
		<path d="M10 1C8.21997 1 6.47991 1.52784 4.99987 2.51677C3.51983 3.50571 2.36628 4.91131 1.68509 6.55585C1.0039 8.20038 0.82567 10.01 1.17294 11.7558C1.5202 13.5016 2.37737 15.1053 3.63604 16.364C4.89472 17.6226 6.49836 18.4798 8.24419 18.8271C9.99002 19.1743 11.7996 18.9961 13.4442 18.3149C15.0887 17.6337 16.4943 16.4802 17.4832 15.0001C18.4722 13.5201 19 11.78 19 10C19 8.8181 18.7672 7.64778 18.3149 6.55585C17.8626 5.46392 17.1997 4.47177 16.364 3.63604C15.5282 2.80031 14.5361 2.13738 13.4442 1.68508C12.3522 1.23279 11.1819 1 10 1ZM10 17.2C8.57598 17.2 7.18393 16.7777 5.9999 15.9866C4.81586 15.1954 3.89302 14.0709 3.34807 12.7553C2.80312 11.4397 2.66054 9.99201 2.93835 8.59535C3.21616 7.19868 3.9019 5.91577 4.90883 4.90883C5.91577 3.90189 7.19869 3.21616 8.59535 2.93835C9.99202 2.66053 11.4397 2.80312 12.7553 3.34807C14.071 3.89302 15.1954 4.81586 15.9866 5.99989C16.7777 7.18393 17.2 8.57597 17.2 10C17.2 11.9096 16.4414 13.7409 15.0912 15.0912C13.7409 16.4414 11.9096 17.2 10 17.2ZM10 4.6C9.76131 4.6 9.53239 4.69482 9.36361 4.8636C9.19482 5.03239 9.1 5.2613 9.1 5.5V9.478L7.21 10.567C7.03662 10.6652 6.90076 10.8183 6.82371 11.002C6.74665 11.1858 6.73278 11.39 6.78425 11.5825C6.83573 11.775 6.94964 11.945 7.10813 12.0658C7.26662 12.1866 7.46073 12.2514 7.66 12.25C7.81766 12.2511 7.97284 12.2107 8.11 12.133L10.45 10.783L10.531 10.702L10.675 10.585C10.7102 10.5404 10.7404 10.4922 10.765 10.441C10.7943 10.3927 10.8185 10.3414 10.837 10.288C10.8615 10.2308 10.8767 10.17 10.882 10.108L10.9 10V5.5C10.9 5.2613 10.8052 5.03239 10.6364 4.8636C10.4676 4.69482 10.2387 4.6 10 4.6Z"/>
	</symbol>

	<symbol id="setting" viewBox="0 0 20 20">
		<path fill-rule="evenodd" clip-rule="evenodd" d="M9.99954 6.86963C8.27069 6.86963 6.86914 8.27117 6.86914 10.0001C6.86914 11.7289 8.27069 13.1305 9.99954 13.1305C11.7285 13.1305 13.13 11.7289 13.13 10.0001C13.13 8.27117 11.7285 6.86963 9.99954 6.86963ZM8.43433 10.0001C8.43433 9.13559 9.13515 8.43485 9.99954 8.43485C10.864 8.43485 11.5648 9.13559 11.5648 10.0001C11.5648 10.8645 10.864 11.5653 9.99954 11.5653C9.13515 11.5653 8.43433 10.8645 8.43433 10.0001Z" />
		<path fill-rule="evenodd" clip-rule="evenodd" d="M9.44109 1C8.34475 1 7.37453 1.75713 7.15979 2.84387L7.09791 3.15704C6.95097 3.90065 6.13476 4.38916 5.33897 4.12115L5.02839 4.01654C3.99081 3.6671 2.82963 4.0754 2.26586 5.02208L1.70752 5.95967C1.13841 6.91532 1.3549 8.12555 2.20397 8.8372L2.45273 9.04569C3.0571 9.55227 3.0571 10.4477 2.45273 10.9543L2.20397 11.1628C1.3549 11.8744 1.13841 13.0847 1.70752 14.0403L2.26584 14.9779C2.82962 15.9246 3.99084 16.3329 5.02843 15.9834L5.33893 15.8788C6.13473 15.6108 6.95098 16.0993 7.09791 16.8429L7.1598 17.1561C7.37453 18.2428 8.34476 19 9.44109 19H10.5578C11.6542 19 12.6244 18.2428 12.8392 17.156L12.901 16.843C13.0479 16.0993 13.8642 15.6108 14.66 15.8788L14.9705 15.9834C16.0081 16.3329 17.1693 15.9246 17.7331 14.9779L18.2915 14.0404C18.8606 13.0847 18.644 11.8744 17.795 11.1628L17.5462 10.9543C16.9418 10.4478 16.9418 9.55219 17.5462 9.04569L17.795 8.8372C18.644 8.12557 18.8606 6.91531 18.2915 5.95964L17.7331 5.02208C17.1693 4.0754 16.0082 3.66709 14.9706 4.01652L14.6599 4.12115C13.8642 4.38916 13.0479 3.90061 12.901 3.157L12.8392 2.84395C12.6244 1.75718 11.6542 1 10.5578 1H9.44109ZM8.69534 3.14728C8.75881 2.82609 9.05886 2.56522 9.44109 2.56522H10.5578C10.9401 2.56522 11.2401 2.82611 11.3036 3.14731L11.3654 3.46036C11.7047 5.17765 13.5139 6.1587 15.1595 5.6045L15.4701 5.49987C15.8294 5.37891 16.2128 5.52813 16.3883 5.82294L16.9466 6.7605C17.1168 7.04633 17.0591 7.41169 16.7895 7.63758L16.5408 7.84605C15.19 8.97815 15.19 11.0219 16.5408 12.154L16.7895 12.3624C17.0591 12.5883 17.1168 12.9536 16.9466 13.2395L16.3883 14.177C16.2128 14.4718 15.8294 14.6211 15.4701 14.5001L15.1595 14.3954C13.5139 13.8412 11.7047 14.8223 11.3654 16.5396L11.3036 16.8527C11.2401 17.1739 10.9401 17.4348 10.5578 17.4348H9.44109C9.05886 17.4348 8.75881 17.1739 8.69534 16.8527L8.63343 16.5395C8.29412 14.8222 6.48487 13.8412 4.83931 14.3955L4.52881 14.5001C4.16961 14.6211 3.78622 14.4718 3.61066 14.177L3.05234 13.2395C2.88212 12.9536 2.93987 12.5883 3.20939 12.3624L3.45816 12.1539C4.80892 11.0218 4.80891 8.97823 3.45816 7.8461L3.20939 7.63759C2.93987 7.4117 2.88212 7.04636 3.05234 6.76052L3.61068 5.82295C3.78624 5.52814 4.16961 5.37891 4.52881 5.49989L4.83939 5.60449C6.48492 6.15869 8.29411 5.17771 8.63343 3.46046L8.69534 3.14728Z" />
	</symbol>

	<symbol id="plus" viewBox="0 0 4 4">
		<path d="M1.72266 0.231201V3.21555" stroke-width="0.462501" stroke-linecap="round"/>
		<path d="M0.231445 1.72266L3.2158 1.72266" stroke-width="0.462501" stroke-linecap="round"/>
	</symbol>

	<symbol id="idea" viewBox="0 0 16 16">
		<path d="M11.6837 2.66777C10.6191 1.74887 9.21864 1.27695 7.74742 1.3389C4.98428 1.45513 2.70581 3.58702 2.66843 6.09122C2.64792 7.49822 3.3057 8.8398 4.47326 9.77198C4.59872 9.87217 4.6967 9.9948 4.76339 10.13H7.53084V8.50119C7.34004 8.35863 7.15551 8.22247 6.98182 8.09508C5.68528 7.14434 5.01185 6.61216 5.01185 5.78779C5.01185 4.97393 5.66839 4.33633 6.5066 4.33633C6.96125 4.33633 7.32891 4.50594 7.63067 4.85493L8.00138 5.28388L8.37209 4.85493C8.67385 4.50592 9.04151 4.33633 9.49616 4.33633C10.3344 4.33633 10.9909 4.97396 10.9909 5.78779C10.9909 6.61218 10.3175 7.14437 9.02705 8.09064C8.84973 8.22064 8.66356 8.35797 8.47192 8.50117V10.13H11.2374C11.3025 9.99648 11.398 9.87651 11.52 9.77955C12.6732 8.86331 13.3346 7.54306 13.3346 6.1574C13.3347 4.82637 12.7483 3.58702 11.6837 2.66777Z" />
		<path d="M4.86328 11.0371V11.4908C4.86328 12.0865 5.26482 12.5885 5.81871 12.7725C5.86846 13.2194 6.0627 13.6443 6.38041 13.9788C6.79554 14.4158 7.38593 14.6666 8.00054 14.6666C8.61511 14.6666 9.20548 14.4158 9.62063 13.9788C9.93835 13.6444 10.1326 13.2195 10.1823 12.7725C10.7363 12.5885 11.1378 12.0865 11.1378 11.4908V11.0371H4.86328V11.0371Z" />
	</symbol>

	<symbol id="bell" viewBox="0 0 16 17">
		<path d="M4.77734 15.5076H10.4101C10.4101 16.1796 9.14918 16.9993 7.59375 16.9995C6.03828 16.9993 4.77734 16.1796 4.77734 15.5076Z" />
		<path d="M14.8553 13.487L14.8547 13.4847C13.9026 12.7367 13.3061 11.6665 13.3061 10.4775V7.38976C13.3061 5.33814 11.8096 3.58374 9.69388 2.87189V1.78673C9.69388 0.801567 8.7509 0 7.59184 0C6.43274 0 5.4898 0.801567 5.4898 1.78673V2.87189C3.37404 3.58374 1.87755 5.33814 1.87755 7.38976V10.4775C1.87755 11.6665 1.2811 12.7367 0.328939 13.4847L0.328367 13.487C0.128326 13.6238 0 13.8332 0 14.0683C0 14.1925 0.0362449 14.3094 0.0994286 14.4124C0.245796 14.651 0.539061 14.8143 0.877551 14.8143H7.59118H14.3061C14.6447 14.8143 14.9379 14.651 15.0842 14.4124C15.1474 14.3094 15.1837 14.1925 15.1837 14.0683C15.1837 13.8332 15.0553 13.6238 14.8553 13.487ZM7.59184 2.46327C7.06776 2.46327 6.64286 2.1021 6.64286 1.65663C6.64286 1.21109 7.06776 0.85 7.59184 0.85C8.11592 0.85 8.54082 1.21109 8.54082 1.65663C8.54082 2.1021 8.11592 2.46327 7.59184 2.46327Z" />
	</symbol>

	<symbol id="question" viewBox="0 0 20 20">
		<path d="M19.1654 9.99967C19.1654 15.0623 15.0613 19.1663 9.9987 19.1663C4.93609 19.1663 0.832031 15.0623 0.832031 9.99967C0.832031 4.93707 4.93609 0.833008 9.9987 0.833008C15.0613 0.833008 19.1654 4.93707 19.1654 9.99967ZM2.50439 9.99967C2.50439 14.1387 5.85971 17.494 9.9987 17.494C14.1377 17.494 17.493 14.1387 17.493 9.99967C17.493 5.86068 14.1377 2.50537 9.9987 2.50537C5.85971 2.50537 2.50439 5.86068 2.50439 9.99967Z" />
		<path d="M11.25 15C11.25 15.6903 10.6903 16.25 10 16.25C9.30967 16.25 8.75 15.6903 8.75 15C8.75 14.3097 9.30967 13.75 10 13.75C10.6903 13.75 11.25 14.3097 11.25 15Z" />
		<path d="M9.16537 9.99967V11.6663C9.16537 11.6663 9.16537 12.4997 9.9987 12.4997C10.832 12.4997 10.832 11.6663 10.832 11.6663V9.99967C10.832 9.99967 11.2314 9.88542 11.3845 9.82326C11.3845 9.82326 11.6628 9.72392 11.8576 9.57434C12.0525 9.42484 12.2288 9.24717 12.3865 9.04159C12.5535 8.83592 12.6835 8.59759 12.7762 8.32652C12.869 8.05545 12.9154 7.83617 12.9154 7.49967C12.9154 6.93885 12.7901 6.36363 12.5396 5.94301C12.2984 5.51304 11.955 5.18122 11.5097 4.94755C11.0644 4.70452 10.5448 4.58301 9.95095 4.58301C9.57987 4.58301 9.25045 4.62974 8.96287 4.72322C8.6752 4.80734 8.42012 4.92417 8.1974 5.07373C7.984 5.21394 7.80308 5.37284 7.65463 5.55043C7.51546 5.71868 7.40412 5.88226 7.32061 6.04116C7.23711 6.20006 7.18144 6.34026 7.15361 6.46177C7.09793 6.63937 7.07474 6.78425 7.08402 6.89642C7.10258 7.00858 7.15824 7.10205 7.25103 7.17682C7.34381 7.2516 7.48762 7.33105 7.68246 7.41517C7.88658 7.48061 8.04431 7.50397 8.15565 7.48528C8.27627 7.46658 8.3737 7.4105 8.44795 7.31703C8.44795 7.31703 8.84354 6.75442 8.95487 6.64225C9.07554 6.52074 9.22395 6.42727 9.40029 6.36184C9.57654 6.28707 9.77603 6.24967 9.9987 6.24967C10.4812 6.24967 10.8384 6.36652 11.0704 6.60019C11.3115 6.82452 11.3845 7.01325 11.3845 7.44322C11.3845 7.73297 11.3335 7.96666 11.2314 8.14425C11.1293 8.32184 10.9948 8.46676 10.8278 8.57892C10.8278 8.57892 10.601 8.66559 10.4154 8.74967C10.2391 8.82442 9.91545 8.94809 9.74845 9.04159C9.5907 9.12567 9.50229 9.21409 9.40029 9.34501C9.2982 9.47584 9.16537 9.77534 9.16537 9.99967Z" />
	</symbol>


	<symbol id="sun" viewBox="0 0 24 24">
		<path d="M17 12C17 14.7614 14.7614 17 12 17C9.23858 17 7 14.7614 7 12C7 9.23858 9.23858 7 12 7C14.7614 7 17 9.23858 17 12Z" />
		<path fill-rule="evenodd" clip-rule="evenodd" d="M12 1.25C12.4142 1.25 12.75 1.58579 12.75 2V4C12.75 4.41421 12.4142 4.75 12 4.75C11.5858 4.75 11.25 4.41421 11.25 4V2C11.25 1.58579 11.5858 1.25 12 1.25ZM3.66865 3.71609C3.94815 3.41039 4.42255 3.38915 4.72825 3.66865L6.95026 5.70024C7.25596 5.97974 7.2772 6.45413 6.9977 6.75983C6.7182 7.06553 6.2438 7.08677 5.9381 6.80727L3.71609 4.77569C3.41039 4.49619 3.38915 4.02179 3.66865 3.71609ZM20.3314 3.71609C20.6109 4.02179 20.5896 4.49619 20.2839 4.77569L18.0619 6.80727C17.7562 7.08677 17.2818 7.06553 17.0023 6.75983C16.7228 6.45413 16.744 5.97974 17.0497 5.70024L19.2718 3.66865C19.5775 3.38915 20.0518 3.41039 20.3314 3.71609ZM1.25 12C1.25 11.5858 1.58579 11.25 2 11.25H4C4.41421 11.25 4.75 11.5858 4.75 12C4.75 12.4142 4.41421 12.75 4 12.75H2C1.58579 12.75 1.25 12.4142 1.25 12ZM19.25 12C19.25 11.5858 19.5858 11.25 20 11.25H22C22.4142 11.25 22.75 11.5858 22.75 12C22.75 12.4142 22.4142 12.75 22 12.75H20C19.5858 12.75 19.25 12.4142 19.25 12ZM17.0255 17.0252C17.3184 16.7323 17.7933 16.7323 18.0862 17.0252L20.3082 19.2475C20.6011 19.5404 20.601 20.0153 20.3081 20.3082C20.0152 20.6011 19.5403 20.601 19.2475 20.3081L17.0255 18.0858C16.7326 17.7929 16.7326 17.3181 17.0255 17.0252ZM6.97467 17.0253C7.26756 17.3182 7.26756 17.7931 6.97467 18.086L4.75244 20.3082C4.45955 20.6011 3.98468 20.6011 3.69178 20.3082C3.39889 20.0153 3.39889 19.5404 3.69178 19.2476L5.91401 17.0253C6.2069 16.7324 6.68177 16.7324 6.97467 17.0253ZM12 19.25C12.4142 19.25 12.75 19.5858 12.75 20V22C12.75 22.4142 12.4142 22.75 12 22.75C11.5858 22.75 11.25 22.4142 11.25 22V20C11.25 19.5858 11.5858 19.25 12 19.25Z" />
	</symbol>

	<symbol id="moon" viewBox="0 0 24 24">
		<path d="M19.9001 2.30719C19.7392 1.8976 19.1616 1.8976 19.0007 2.30719L18.5703 3.40247C18.5212 3.52752 18.4226 3.62651 18.298 3.67583L17.2067 4.1078C16.7986 4.26934 16.7986 4.849 17.2067 5.01054L18.298 5.44252C18.4226 5.49184 18.5212 5.59082 18.5703 5.71587L19.0007 6.81115C19.1616 7.22074 19.7392 7.22074 19.9001 6.81116L20.3305 5.71587C20.3796 5.59082 20.4782 5.49184 20.6028 5.44252L21.6941 5.01054C22.1022 4.849 22.1022 4.26934 21.6941 4.1078L20.6028 3.67583C20.4782 3.62651 20.3796 3.52752 20.3305 3.40247L19.9001 2.30719Z" />
		<path d="M16.0328 8.12967C15.8718 7.72009 15.2943 7.72009 15.1333 8.12967L14.9764 8.52902C14.9273 8.65407 14.8287 8.75305 14.7041 8.80237L14.3062 8.95987C13.8981 9.12141 13.8981 9.70107 14.3062 9.86261L14.7041 10.0201C14.8287 10.0694 14.9273 10.1684 14.9764 10.2935L15.1333 10.6928C15.2943 11.1024 15.8718 11.1024 16.0328 10.6928L16.1897 10.2935C16.2388 10.1684 16.3374 10.0694 16.462 10.0201L16.8599 9.86261C17.268 9.70107 17.268 9.12141 16.8599 8.95987L16.462 8.80237C16.3374 8.75305 16.2388 8.65407 16.1897 8.52902L16.0328 8.12967Z" />
		<path d="M12 22C17.5228 22 22 17.5228 22 12C22 11.5373 21.3065 11.4608 21.0672 11.8568C19.9289 13.7406 17.8615 15 15.5 15C11.9101 15 9 12.0899 9 8.5C9 6.13845 10.2594 4.07105 12.1432 2.93276C12.5392 2.69347 12.4627 2 12 2C6.47715 2 2 6.47715 2 12C2 17.5228 6.47715 22 12 22Z" />
	</symbol>

</svg>
