<svg xmlns="http://www.w3.org/2000/svg">

	<symbol id="up" viewBox="0 0 12 12">
		<path d="M11.5557 0.785715C11.5557 0.351776 11.2039 2.29e-07 10.7699 5.02955e-07L3.69852 1.23633e-07C3.26458 4.60808e-07 2.91281 0.351777 2.91281 0.785714C2.91281 1.21965 3.26458 1.57143 3.69852 1.57143L9.98423 1.57143L9.98424 7.85714C9.98423 8.29108 10.336 8.64286 10.7699 8.64286C11.2039 8.64286 11.5557 8.29108 11.5557 7.85714L11.5557 0.785715ZM0.555664 11L1.11125 11.5556L11.3255 1.3413L10.7699 0.785715L10.2144 0.230131L8.01845e-05 10.4444L0.555664 11Z"/>
	</symbol>

	<symbol id="layers" viewBox="0 0 20 20">
		<path d="M17.5 9.99984L10 14.9998L2.5 9.99984M17.5 13.3332L10 18.3332L2.5 13.3332M17.5 6.6665L10 11.6665L2.5 6.6665L10 1.6665L17.5 6.6665Z" stroke-width="2" stroke-linecap="round" stroke-linejoin="round"/>
	</symbol>

	<symbol id="chart" viewBox="0 0 20 20">
		<path d="M7.5 9.16683V16.6668M7.5 9.16683H3.83301C3.3663 9.16683 3.13318 9.16683 2.95492 9.25766C2.79811 9.33755 2.67072 9.46494 2.59083 9.62174C2.5 9.8 2.5 10.0335 2.5 10.5002V16.6668H7.5M7.5 9.16683V4.66691C7.5 4.2002 7.5 3.96667 7.59083 3.78841C7.67072 3.63161 7.79811 3.50422 7.95492 3.42432C8.13317 3.3335 8.3663 3.3335 8.83301 3.3335H11.1663C11.6331 3.3335 11.8669 3.3335 12.0452 3.42432C12.202 3.50422 12.329 3.63161 12.4089 3.78841C12.4997 3.96667 12.5 4.2002 12.5 4.66691V6.66683M7.5 16.6668H12.5M12.5 16.6668L17.5 16.6669V8.00024C17.5 7.53353 17.4997 7.3 17.4089 7.12174C17.329 6.96494 17.2024 6.83755 17.0456 6.75766C16.8674 6.66683 16.6334 6.66683 16.1667 6.66683H12.5M12.5 16.6668V6.66683" stroke-width="2" stroke-linecap="round" stroke-linejoin="round"/>
	</symbol>

	<symbol id="globe" viewBox="0 0 19 19">
		<path d="M2.375 9.5H6.33333M2.375 9.5C2.375 13.435 5.56497 16.625 9.5 16.625M2.375 9.5C2.375 5.56497 5.56497 2.375 9.5 2.375M6.33333 9.5H12.6667M6.33333 9.5C6.33333 13.435 7.7511 16.625 9.5 16.625M6.33333 9.5C6.33333 5.56497 7.7511 2.375 9.5 2.375M12.6667 9.5H16.625M12.6667 9.5C12.6667 5.56497 11.2489 2.375 9.5 2.375M12.6667 9.5C12.6667 13.435 11.2489 16.625 9.5 16.625M16.625 9.5C16.625 5.56497 13.435 2.375 9.5 2.375M16.625 9.5C16.625 13.435 13.435 16.625 9.5 16.625" stroke-width="2" stroke-linecap="round" stroke-linejoin="round"/>
	</symbol>

	<symbol id="download" viewBox="0 0 20 20">
		<path d="M3.33301 6.66683V14.0002C3.33301 14.9336 3.33301 15.4 3.51466 15.7565C3.67445 16.0701 3.92924 16.3256 4.24284 16.4854C4.59901 16.6668 5.0655 16.6668 5.9971 16.6668H14.0023C14.9338 16.6668 15.3997 16.6668 15.7558 16.4854C16.0694 16.3256 16.3251 16.0701 16.4849 15.7565C16.6663 15.4003 16.6663 14.9343 16.6663 14.0027V6.66683M3.33301 6.66683H16.6663M3.33301 6.66683L4.47066 4.6759C4.74984 4.18733 4.88941 3.94309 5.08572 3.76522C5.25954 3.60772 5.46516 3.48854 5.68815 3.41576C5.94018 3.3335 6.22153 3.3335 6.78516 3.3335H13.2139C13.7775 3.3335 14.0599 3.3335 14.3119 3.41576C14.5349 3.48854 14.7396 3.60772 14.9134 3.76522C15.1099 3.94323 15.2498 4.18772 15.5295 4.67708L16.6663 6.66683M9.99967 9.16683V14.1668M9.99967 14.1668L12.4997 12.5002M9.99967 14.1668L7.49967 12.5002" stroke-width="2" stroke-linecap="round" stroke-linejoin="round"/>
	</symbol>

</svg>
