<svg width="160" height="71" viewBox="0 0 160 71" fill="none" xmlns="http://www.w3.org/2000/svg">
<path d="M68.9537 38.5953C68.8244 35.4928 66.5622 32.9397 62.9103 30.0634C59.8401 27.575 51.2436 20.5297 51.2436 20.5297C53.6351 18.623 54.1845 17.9767 56.0266 16.5224C61.6176 12.0625 60.8743 7.7966 60.3249 6.18071C59.2584 3.17517 56.1559 1.13916 52.601 1.13916H37.8318H32.0146H12.8503C7.19467 1.13916 2.41166 4.33861 0.66651 9.28321C-1.20791 14.6479 0.92505 20.4974 6.38673 24.8926C8.81055 26.8317 13.1734 30.322 17.6979 33.9416C16.082 34.394 14.4338 35.2343 12.9149 36.6886C10.7819 38.7246 9.68313 41.5039 9.8124 44.5417C9.97399 48.3552 12.0423 52.0718 15.6619 54.948L34.9232 70.3635L64.5908 46.5778C67.5963 44.1216 69.0829 41.4393 68.9537 38.5953ZM37.8318 6.95634H52.601C53.6674 6.95634 54.6046 7.4411 54.8309 8.08745C55.0894 8.76612 54.5723 10.2204 52.407 11.9656C48.432 15.1327 42.1624 20.1743 37.8318 23.6322V6.95634V6.95634ZM10.0063 20.3035C6.54832 17.5242 5.09402 14.0985 6.12819 11.1576C7.03308 8.57222 9.65081 6.92402 12.8179 6.92402H31.9823V37.852C25.6157 32.7781 14.4985 23.8908 10.0063 20.3035ZM19.3138 50.3266C17.0515 48.5168 15.7265 46.2869 15.6296 44.2186C15.5649 42.8935 16.0174 41.6978 16.9546 40.8252C20.2833 37.7227 23.6767 38.5953 27.167 41.4069C28.3627 42.3442 30.7542 44.2509 32.0146 45.2851V60.5067L19.3138 50.3266ZM60.648 42.2472L37.7995 60.5067V31.0653C38.6397 30.3866 41.0312 28.7061 42.5502 27.478C45.0709 25.442 48.0118 25.2804 50.468 27.2518C54.1522 30.1927 56.8346 32.6489 59.6785 34.9757C61.6822 36.6239 62.8133 37.9813 62.8456 39.0801C62.9103 40.2758 61.5206 41.5685 60.648 42.2472Z" fill="#0D2839"/>
<path d="M82.3655 2.65821C85.9851 2.65821 88.4413 3.95091 88.4413 6.76254C88.4413 8.18452 87.2455 9.63882 86.3729 10.4144C88.4089 11.3517 89.5077 12.8706 89.5077 14.745C89.5077 17.9121 87.5687 20.239 83.0442 20.239H78.0673V5.46984L77.7118 2.78748L82.3655 2.65821ZM81.4606 9.67113C83.4966 9.67113 84.1107 9.8004 84.4339 9.83272C84.854 9.21868 85.2741 8.24916 85.2741 7.31195C85.2741 5.72838 84.4339 5.17898 82.5271 5.17898C82.2039 5.17898 81.8485 5.2113 81.4606 5.24362V9.67113ZM81.4606 17.7182H83.0765C84.9833 17.7182 86.0497 16.6517 86.0497 14.8743C86.0497 13.2907 85.0479 12.1919 82.4302 12.1919H81.4606V17.7182Z" fill="#0D2839"/>
<path d="M100.69 10.5112C100.69 10.5112 99.9464 9.80024 98.9445 9.80024C97.5872 9.80024 95.9713 11.4808 95.9713 13.5168V18.0089L96.2621 20.2712H92.7395V9.76793L92.384 7.11788L96.0036 6.73007V9.12158C96.0036 9.12158 97.2963 6.69776 99.5585 6.69776C100.366 6.69776 101.11 7.02093 101.724 7.66729L100.69 10.5112Z" fill="#0D2839"/>
<path d="M106.959 18.0091L107.25 20.2713H103.728V9.70343L103.372 7.05338L106.992 6.66557V18.0091H106.959ZM105.311 1.36548C106.248 1.36548 107.056 2.17342 107.056 3.20758C107.056 4.17711 106.248 4.95273 105.311 4.95273C104.309 4.95273 103.469 4.17711 103.469 3.20758C103.469 2.17342 104.309 1.36548 105.311 1.36548Z" fill="#0D2839"/>
<path d="M119.822 10.7699C118.852 9.57411 117.559 9.15398 116.622 9.15398C114.36 9.15398 113.39 11.287 113.39 13.6461C113.39 15.8437 114.392 17.9444 116.525 17.9444C118.787 17.9444 120.823 15.8437 120.823 15.8437L121.308 18.5584C121.308 18.5584 119.337 20.5944 115.911 20.5944C112.001 20.5944 110.094 17.2334 110.094 13.8724C110.094 10.0589 112.356 6.66553 116.59 6.66553C119.789 6.66553 121.373 8.41068 121.373 8.41068L119.822 10.7699Z" fill="#0D2839"/>
<path d="M127.222 13.032L130.81 8.47526L131.424 7.05327H135.786L130.486 13.032L136.045 20.2389H132.005L127.222 13.6138V17.9766L127.513 20.2389H123.99V3.40138L123.635 0.751333L127.255 0.363527V13.032H127.222Z" fill="#0D2839"/>
<path d="M102.467 26.0562V33.2953C102.467 33.2953 103.727 32.3258 105.343 32.3258C108.123 32.3258 110.87 34.5557 110.87 39.0155C110.87 42.926 108.058 46.2547 103.954 46.2547C101.756 46.2547 99.7847 45.1882 99.203 43.9924V29.094L98.8475 26.444L102.467 26.0562ZM102.467 43.1522C102.952 43.6046 103.631 43.8955 104.406 43.8955C106.054 43.8955 107.412 41.8595 107.412 39.2417C107.412 36.624 106.054 34.8142 104.406 34.8142C103.34 34.8142 102.467 35.4283 102.467 35.4283V43.1522Z" fill="#0D2839"/>
<path d="M121.858 36.1715C121.858 36.1715 121.114 35.4605 120.112 35.4605C118.755 35.4605 117.139 37.141 117.139 39.177V43.6692L117.43 45.9314H113.907V35.3959L113.552 32.7458L117.172 32.358V34.7495C117.172 34.7495 118.464 32.3257 120.727 32.3257C121.534 32.3257 122.278 32.6489 122.892 33.2952L121.858 36.1715Z" fill="#0D2839"/>
<path d="M128.159 43.6692L128.45 45.9315H124.928V35.3636L124.572 32.7135L128.192 32.3257V43.6692H128.159ZM126.479 27.0256C127.416 27.0256 128.224 27.8336 128.224 28.8677C128.224 29.8373 127.416 30.6129 126.479 30.6129C125.477 30.6129 124.637 29.8373 124.637 28.8677C124.669 27.8336 125.509 27.0256 126.479 27.0256Z" fill="#0D2839"/>
<path d="M140.99 36.43C140.02 35.2343 138.727 34.8141 137.79 34.8141C135.528 34.8141 134.558 36.9471 134.558 39.3063C134.558 41.5039 135.56 43.6045 137.693 43.6045C139.955 43.6045 141.991 41.5039 141.991 41.5039L142.476 44.2186C142.476 44.2186 140.505 46.2546 137.079 46.2546C133.169 46.2546 131.262 42.8935 131.262 39.5325C131.262 35.719 133.524 32.3257 137.758 32.3257C140.957 32.3257 142.541 34.0708 142.541 34.0708L140.99 36.43Z" fill="#0D2839"/>
<path d="M148.423 38.66L152.01 34.1032L152.624 32.6812H156.987L151.687 38.66L157.246 45.8668H153.206L148.423 39.2417V43.6046L148.714 45.8668H145.191V29.0293L144.836 26.3793L148.455 25.9915V38.66H148.423Z" fill="#0D2839"/>
<path d="M79.1984 33.0691H81.7839L81.2344 34.6849H79.1661V39.3064C79.1661 39.9204 79.4893 40.1143 79.9094 40.1143C80.5558 40.1143 81.5253 39.6295 81.9131 39.3064L82.1393 41.2131C82.1393 41.2131 81.1698 42.118 79.2631 42.118C77.7765 42.118 77.0332 41.3424 77.0332 39.3064V34.7173H75.9667V33.1014H77.0332V31.5178L79.36 31.2593L79.1984 33.0691Z" fill="#DA5F2F"/>
<path d="M86.761 42.0858C84.111 42.0858 82.7213 39.7589 82.7213 37.5613C82.7213 34.9759 84.3695 32.7783 87.3427 32.7783C89.6373 32.7783 91.3501 34.168 91.3501 37.2382C91.3501 39.8559 89.6696 42.0858 86.761 42.0858ZM87.0196 40.5346C88.2799 40.5346 89.0232 39.1772 89.0232 37.4321C89.0232 35.6869 88.2799 34.3619 87.0196 34.3619C85.7592 34.3619 85.0159 35.7192 85.0159 37.4321C85.0159 39.1772 85.7915 40.5346 87.0196 40.5346Z" fill="#DA5F2F"/>
<path d="M91.35 44.2185L90.9298 45.8344H76.4515V44.2185H91.35Z" fill="#DA5F2F"/>
<path d="M37.8318 6.9563H52.601C53.6674 6.9563 54.6046 7.44106 54.8309 8.08742C55.0894 8.76609 54.5723 10.2204 52.407 11.9655C48.432 15.1327 42.1624 20.1742 37.8318 23.6322V6.9563V6.9563Z" fill="#EDDCAE"/>
<path d="M10.0065 20.3036C6.54846 17.5243 5.09417 14.0986 6.12834 11.1577C7.03323 8.57227 9.65096 6.92407 12.8181 6.92407H31.9824V37.8521C25.6159 32.7782 14.4986 23.8908 10.0065 20.3036Z" fill="#DA5F2F"/>
<path d="M19.3137 50.3266C17.0515 48.5168 15.7264 46.2869 15.6295 44.2186C15.5648 42.8936 16.0173 41.6978 16.9545 40.8252C20.2832 37.7227 23.6766 38.5953 27.1669 41.407C28.3626 42.3442 30.7541 44.2509 32.0145 45.2851V60.5067L19.3137 50.3266Z" fill="#EDDCAE"/>
<path d="M60.6478 42.2472L37.7992 60.5067V31.0653C38.6395 30.3866 41.031 28.7061 42.5499 27.478C45.0707 25.442 48.0116 25.2804 50.4677 27.2518C54.1519 30.1927 56.8343 32.6489 59.6782 34.9757C61.6819 36.6239 62.813 37.9813 62.8454 39.0801C62.91 40.2758 61.5203 41.5685 60.6478 42.2472Z" fill="#0EBAB9"/>
<path d="M81.266 60.325V62.341H80.663L80.546 61H77.72L77.603 62.341H77V60.325H77.27C77.444 60.097 77.57 59.833 77.648 59.533C77.726 59.233 77.795 58.756 77.855 58.102L78.17 54.799H80.843V60.325H81.266ZM80.033 55.474H78.899L78.647 58.138C78.605 58.588 78.554 58.945 78.494 59.209C78.44 59.473 78.371 59.686 78.287 59.848C78.209 60.01 78.098 60.169 77.954 60.325H80.033V55.474ZM86.4042 61H85.5942V57.949C85.5942 57.199 85.6302 56.458 85.7022 55.726L83.7942 61H82.7592V54.799H83.5692V57.859C83.5692 58.639 83.5332 59.383 83.4612 60.091L85.3692 54.799H86.4042V61ZM89.3529 61.108C88.6629 61.108 88.1049 60.829 87.6789 60.271L88.1379 59.839C88.3179 60.031 88.4979 60.175 88.6779 60.271C88.8579 60.367 89.0619 60.415 89.2899 60.415C89.6199 60.415 89.8779 60.31 90.0639 60.1C90.2499 59.884 90.3429 59.587 90.3429 59.209C90.3429 58.837 90.2529 58.552 90.0729 58.354C89.8929 58.156 89.6229 58.057 89.2629 58.057H88.7679L88.8669 57.382H89.2719C89.5659 57.382 89.7939 57.292 89.9559 57.112C90.1179 56.926 90.1989 56.668 90.1989 56.338C90.1989 56.05 90.1299 55.816 89.9919 55.636C89.8599 55.456 89.6559 55.366 89.3799 55.366C89.1759 55.366 88.9839 55.411 88.8039 55.501C88.6239 55.585 88.4409 55.717 88.2549 55.897L87.8229 55.456C88.2909 54.952 88.8279 54.7 89.4339 54.7C89.9379 54.7 90.3309 54.85 90.6129 55.15C90.9009 55.45 91.0449 55.828 91.0449 56.284C91.0449 56.662 90.9489 56.965 90.7569 57.193C90.5709 57.421 90.3069 57.583 89.9649 57.679C90.3429 57.739 90.6459 57.898 90.8739 58.156C91.1019 58.408 91.2159 58.762 91.2159 59.218C91.2159 59.59 91.1349 59.92 90.9729 60.208C90.8109 60.49 90.5889 60.712 90.3069 60.874C90.0249 61.03 89.7069 61.108 89.3529 61.108ZM95.4797 61L95.1107 59.425H93.2567L92.8877 61H92.0777L93.6887 54.799H94.7057L96.3167 61H95.4797ZM93.4097 58.768H94.9577L94.1837 55.483L93.4097 58.768ZM101.26 61H100.45V57.949C100.45 57.199 100.486 56.458 100.558 55.726L98.6505 61H97.6155V54.799H98.4255V57.859C98.4255 58.639 98.3895 59.383 98.3175 60.091L100.225 54.799H101.26V61ZM99.4335 54.169C99.1155 54.169 98.8545 54.079 98.6505 53.899C98.4465 53.719 98.3295 53.467 98.2995 53.143L98.7855 53.026C98.8335 53.218 98.9085 53.356 99.0105 53.44C99.1185 53.518 99.2595 53.557 99.4335 53.557C99.6075 53.557 99.7485 53.515 99.8565 53.431C99.9705 53.347 100.051 53.212 100.099 53.026L100.585 53.143C100.555 53.467 100.435 53.719 100.225 53.899C100.021 54.079 99.7575 54.169 99.4335 54.169ZM105.982 61V58.084H103.984V61H103.165V54.799H103.984V57.409H105.982V54.799H106.801V61H105.982ZM114.798 61H113.988V57.949C113.988 57.199 114.024 56.458 114.096 55.726L112.188 61H111.153V54.799H111.963V57.859C111.963 58.639 111.927 59.383 111.855 60.091L113.763 54.799H114.798V61ZM120.356 54.799C121.082 54.799 121.631 54.961 122.003 55.285C122.381 55.609 122.57 56.086 122.57 56.716C122.57 57.388 122.378 57.889 121.994 58.219C121.616 58.543 121.076 58.705 120.374 58.705H119.969V61H119.15V54.799H120.356ZM120.374 58.057C120.836 58.057 121.175 57.961 121.391 57.769C121.607 57.571 121.715 57.223 121.715 56.725C121.715 56.275 121.604 55.951 121.382 55.753C121.166 55.549 120.83 55.447 120.374 55.447H119.969V58.057H120.374ZM126.815 54.799L126.725 55.456H124.79V57.517H126.473V58.174H124.79V60.343H126.851V61H123.971V54.799H126.815ZM133.183 61H132.409L132.247 58.183C132.169 57.019 132.136 56.17 132.148 55.636L131.095 60.298H130.33L129.223 55.627L129.232 56.041C129.232 56.509 129.208 57.241 129.16 58.237L129.007 61H128.233L128.656 54.799H129.718L130.726 59.344L131.68 54.799H132.769L133.183 61ZM136.723 54.7C137.407 54.7 137.941 54.967 138.325 55.501C138.709 56.029 138.901 56.83 138.901 57.904C138.901 58.966 138.709 59.767 138.325 60.307C137.941 60.841 137.407 61.108 136.723 61.108C136.039 61.108 135.502 60.844 135.112 60.316C134.728 59.788 134.536 58.987 134.536 57.913C134.536 56.851 134.731 56.05 135.121 55.51C135.511 54.97 136.045 54.7 136.723 54.7ZM136.723 55.366C136.291 55.366 135.961 55.564 135.733 55.96C135.511 56.356 135.4 57.007 135.4 57.913C135.4 58.813 135.514 59.458 135.742 59.848C135.97 60.238 136.297 60.433 136.723 60.433C137.155 60.433 137.482 60.241 137.704 59.857C137.926 59.467 138.037 58.816 138.037 57.904C138.037 56.998 137.926 56.35 137.704 55.96C137.482 55.564 137.155 55.366 136.723 55.366ZM143.349 61V58.084H141.351V61H140.532V54.799H141.351V57.409H143.349V54.799H144.168V61H143.349ZM149.187 54.799L149.097 55.483H147.72V61H146.901V55.483H145.488V54.799H149.187Z" fill="#F1ECDC"/>
<path d="M68.9537 38.5953C68.8244 35.4928 66.5622 32.9397 62.9103 30.0634C59.8401 27.575 51.2436 20.5297 51.2436 20.5297C53.6351 18.623 54.1845 17.9767 56.0266 16.5224C61.6176 12.0625 60.8743 7.7966 60.3249 6.18071C59.2584 3.17517 56.1559 1.13916 52.601 1.13916H37.8318H32.0146H12.8503C7.19467 1.13916 2.41166 4.33861 0.66651 9.28321C-1.20791 14.6479 0.92505 20.4974 6.38673 24.8926C8.81055 26.8317 13.1734 30.322 17.6979 33.9416C16.082 34.394 14.4338 35.2343 12.9149 36.6886C10.7819 38.7246 9.68313 41.5039 9.8124 44.5417C9.97399 48.3552 12.0423 52.0718 15.6619 54.948L34.9232 70.3635L64.5908 46.5778C67.5963 44.1216 69.0829 41.4393 68.9537 38.5953ZM37.8318 6.95634H52.601C53.6674 6.95634 54.6046 7.4411 54.8309 8.08745C55.0894 8.76612 54.5723 10.2204 52.407 11.9656C48.432 15.1327 42.1624 20.1743 37.8318 23.6322V6.95634V6.95634ZM10.0063 20.3035C6.54832 17.5242 5.09402 14.0985 6.12819 11.1576C7.03308 8.57222 9.65081 6.92402 12.8179 6.92402H31.9823V37.852C25.6157 32.7781 14.4985 23.8908 10.0063 20.3035ZM19.3138 50.3266C17.0515 48.5168 15.7265 46.2869 15.6296 44.2186C15.5649 42.8935 16.0174 41.6978 16.9546 40.8252C20.2833 37.7227 23.6767 38.5953 27.167 41.4069C28.3627 42.3442 30.7542 44.2509 32.0146 45.2851V60.5067L19.3138 50.3266ZM60.648 42.2472L37.7995 60.5067V31.0653C38.6397 30.3866 41.0312 28.7061 42.5502 27.478C45.0709 25.442 48.0118 25.2804 50.468 27.2518C54.1522 30.1927 56.8346 32.6489 59.6785 34.9757C61.6822 36.6239 62.8133 37.9813 62.8456 39.0801C62.9103 40.2758 61.5206 41.5685 60.648 42.2472Z" fill="#F1ECDC"/>
<path d="M82.3655 2.65821C85.9851 2.65821 88.4413 3.95091 88.4413 6.76254C88.4413 8.18452 87.2455 9.63882 86.3729 10.4144C88.4089 11.3517 89.5077 12.8706 89.5077 14.745C89.5077 17.9121 87.5687 20.239 83.0442 20.239H78.0673V5.46984L77.7118 2.78748L82.3655 2.65821ZM81.4606 9.67113C83.4966 9.67113 84.1107 9.8004 84.4339 9.83272C84.854 9.21868 85.2741 8.24916 85.2741 7.31195C85.2741 5.72838 84.4339 5.17898 82.5271 5.17898C82.2039 5.17898 81.8485 5.2113 81.4606 5.24362V9.67113ZM81.4606 17.7182H83.0765C84.9833 17.7182 86.0497 16.6517 86.0497 14.8743C86.0497 13.2907 85.0479 12.1919 82.4302 12.1919H81.4606V17.7182Z" fill="#F1ECDC"/>
<path d="M100.69 10.5112C100.69 10.5112 99.9464 9.80024 98.9445 9.80024C97.5872 9.80024 95.9713 11.4808 95.9713 13.5168V18.0089L96.2621 20.2712H92.7395V9.76793L92.384 7.11788L96.0036 6.73007V9.12158C96.0036 9.12158 97.2963 6.69776 99.5585 6.69776C100.366 6.69776 101.11 7.02093 101.724 7.66729L100.69 10.5112Z" fill="#F1ECDC"/>
<path d="M106.959 18.0091L107.25 20.2713H103.728V9.70343L103.372 7.05338L106.992 6.66557V18.0091H106.959ZM105.311 1.36548C106.248 1.36548 107.056 2.17342 107.056 3.20758C107.056 4.17711 106.248 4.95273 105.311 4.95273C104.309 4.95273 103.469 4.17711 103.469 3.20758C103.469 2.17342 104.309 1.36548 105.311 1.36548Z" fill="#F1ECDC"/>
<path d="M119.822 10.7699C118.852 9.57411 117.559 9.15398 116.622 9.15398C114.36 9.15398 113.39 11.287 113.39 13.6461C113.39 15.8437 114.392 17.9444 116.525 17.9444C118.787 17.9444 120.823 15.8437 120.823 15.8437L121.308 18.5584C121.308 18.5584 119.337 20.5944 115.911 20.5944C112.001 20.5944 110.094 17.2334 110.094 13.8724C110.094 10.0589 112.356 6.66553 116.59 6.66553C119.789 6.66553 121.373 8.41068 121.373 8.41068L119.822 10.7699Z" fill="#F1ECDC"/>
<path d="M127.222 13.032L130.81 8.47526L131.424 7.05327H135.786L130.486 13.032L136.045 20.2389H132.005L127.222 13.6138V17.9766L127.513 20.2389H123.99V3.40138L123.635 0.751333L127.255 0.363527V13.032H127.222Z" fill="#F1ECDC"/>
<path d="M102.467 26.0562V33.2953C102.467 33.2953 103.727 32.3258 105.343 32.3258C108.123 32.3258 110.87 34.5557 110.87 39.0155C110.87 42.926 108.058 46.2547 103.954 46.2547C101.756 46.2547 99.7847 45.1882 99.203 43.9924V29.094L98.8475 26.444L102.467 26.0562ZM102.467 43.1522C102.952 43.6046 103.631 43.8955 104.406 43.8955C106.054 43.8955 107.412 41.8595 107.412 39.2417C107.412 36.624 106.054 34.8142 104.406 34.8142C103.34 34.8142 102.467 35.4283 102.467 35.4283V43.1522Z" fill="#F1ECDC"/>
<path d="M121.858 36.1715C121.858 36.1715 121.114 35.4605 120.112 35.4605C118.755 35.4605 117.139 37.141 117.139 39.177V43.6692L117.43 45.9314H113.907V35.3959L113.552 32.7458L117.172 32.358V34.7495C117.172 34.7495 118.464 32.3257 120.727 32.3257C121.534 32.3257 122.278 32.6489 122.892 33.2952L121.858 36.1715Z" fill="#F1ECDC"/>
<path d="M128.159 43.6692L128.45 45.9315H124.928V35.3636L124.572 32.7135L128.192 32.3257V43.6692H128.159ZM126.479 27.0256C127.416 27.0256 128.224 27.8336 128.224 28.8677C128.224 29.8373 127.416 30.6129 126.479 30.6129C125.477 30.6129 124.637 29.8373 124.637 28.8677C124.669 27.8336 125.509 27.0256 126.479 27.0256Z" fill="#F1ECDC"/>
<path d="M140.99 36.43C140.02 35.2343 138.727 34.8141 137.79 34.8141C135.528 34.8141 134.558 36.9471 134.558 39.3063C134.558 41.5039 135.56 43.6045 137.693 43.6045C139.955 43.6045 141.991 41.5039 141.991 41.5039L142.476 44.2186C142.476 44.2186 140.505 46.2546 137.079 46.2546C133.169 46.2546 131.262 42.8935 131.262 39.5325C131.262 35.719 133.524 32.3257 137.758 32.3257C140.957 32.3257 142.541 34.0708 142.541 34.0708L140.99 36.43Z" fill="#F1ECDC"/>
<path d="M148.423 38.66L152.01 34.1032L152.624 32.6812H156.987L151.687 38.66L157.246 45.8668H153.206L148.423 39.2417V43.6046L148.714 45.8668H145.191V29.0293L144.836 26.3793L148.455 25.9915V38.66H148.423Z" fill="#F1ECDC"/>
<path d="M79.1984 33.0691H81.7839L81.2344 34.6849H79.1661V39.3064C79.1661 39.9204 79.4893 40.1143 79.9094 40.1143C80.5558 40.1143 81.5253 39.6295 81.9131 39.3064L82.1393 41.2131C82.1393 41.2131 81.1698 42.118 79.2631 42.118C77.7765 42.118 77.0332 41.3424 77.0332 39.3064V34.7173H75.9667V33.1014H77.0332V31.5178L79.36 31.2593L79.1984 33.0691Z" fill="#BE5E33"/>
<path d="M86.761 42.0858C84.111 42.0858 82.7213 39.7589 82.7213 37.5613C82.7213 34.9759 84.3695 32.7783 87.3427 32.7783C89.6373 32.7783 91.3501 34.168 91.3501 37.2382C91.3501 39.8559 89.6696 42.0858 86.761 42.0858ZM87.0196 40.5346C88.2799 40.5346 89.0232 39.1772 89.0232 37.4321C89.0232 35.6869 88.2799 34.3619 87.0196 34.3619C85.7592 34.3619 85.0159 35.7192 85.0159 37.4321C85.0159 39.1772 85.7915 40.5346 87.0196 40.5346Z" fill="#BE5E33"/>
<path d="M91.35 44.2185L90.9298 45.8344H76.4515V44.2185H91.35Z" fill="#BE5E33"/>
<path d="M37.8318 6.9563H52.601C53.6674 6.9563 54.6046 7.44106 54.8309 8.08742C55.0894 8.76609 54.5723 10.2204 52.407 11.9655C48.432 15.1327 42.1624 20.1742 37.8318 23.6322V6.9563V6.9563Z" fill="#6C5D2D"/>
<path d="M10.0065 20.3036C6.54846 17.5243 5.09417 14.0986 6.12834 11.1577C7.03323 8.57227 9.65096 6.92407 12.8181 6.92407H31.9824V37.8521C25.6159 32.7782 14.4986 23.8908 10.0065 20.3036Z" fill="#BE5E33"/>
<path d="M19.3137 50.3266C17.0515 48.5168 15.7264 46.2869 15.6295 44.2186C15.5648 42.8936 16.0173 41.6978 16.9545 40.8252C20.2832 37.7227 23.6766 38.5953 27.1669 41.407C28.3626 42.3442 30.7541 44.2509 32.0145 45.2851V60.5067L19.3137 50.3266Z" fill="#6C5D2D"/>
<path d="M60.6478 42.2472L37.7992 60.5067V31.0653C38.6395 30.3866 41.031 28.7061 42.5499 27.478C45.0707 25.442 48.0116 25.2804 50.4677 27.2518C54.1519 30.1927 56.8343 32.6489 59.6782 34.9757C61.6819 36.6239 62.813 37.9813 62.8454 39.0801C62.91 40.2758 61.5203 41.5685 60.6478 42.2472Z" fill="#68B8B8"/>
</svg>