<svg width="75" height="75" viewBox="0 0 75 75" fill="none" xmlns="http://www.w3.org/2000/svg">
<path d="M35.4871 45.2453H43.2308C45.0036 45.2453 45.0062 42.4837 43.2308 42.4837H35.4871C31.7535 42.4837 28.715 39.4461 28.715 35.7116C28.715 31.9775 31.753 28.9395 35.4871 28.9395H46.87C47.33 28.9395 47.7369 28.7138 47.9879 28.3675C47.9952 28.361 48.003 28.355 48.0103 28.349C49.9668 26.7397 51.9327 25.1214 53.6017 23.2159C55.2707 21.3105 56.644 19.0874 57.2221 16.6211C57.8186 14.0784 57.4847 11.3215 56.4749 8.92722C55.6428 6.95439 54.3544 5.13821 52.5464 3.95117C50.5358 2.63152 48.0339 2.07834 45.6529 2.39334C42.7218 2.7813 40.0018 4.47088 38.292 6.88358C36.5827 9.29586 35.8884 12.3883 36.3257 15.3126C36.7372 18.0673 38.1006 20.6135 39.8598 22.7735C40.864 24.0068 41.9957 25.1248 43.1883 26.1779H35.4875C30.2304 26.1779 25.9539 30.4553 25.9539 35.7116C25.9539 40.9687 30.2304 45.2453 35.4871 45.2453ZM39.2984 16.2975C38.2976 12.9939 39.5018 8.89546 42.0999 6.76428C43.4865 5.62702 45.1864 5.05839 46.8859 5.05839C48.5806 5.05839 50.2753 5.62402 51.6598 6.75398L51.6847 6.77458C54.3381 8.96198 55.5046 13.3514 54.3399 16.7756C53.1086 20.3942 49.8917 23.2193 46.8876 25.7067C43.7093 23.0511 40.4031 19.9419 39.2984 16.2975Z" fill="black"/>
<path d="M59.3076 42.4838H54.2311C52.4583 42.4838 52.4557 45.2454 54.2311 45.2454H59.3076C63.433 45.2454 66.789 48.6022 66.789 52.7273C66.789 56.8519 63.433 60.2087 59.3076 60.2087H46.39C45.7553 57.2947 43.1568 55.1052 40.0557 55.1052H37.5919L36.3349 53.7478C33.2025 50.3648 28.7621 48.4246 24.1517 48.4246H15.9316C14.488 48.4246 13.3129 49.5991 13.3129 51.0428V55.1052H11.6294C8.05364 55.1052 5.14526 58.014 5.14526 61.5893C5.14526 64.4972 7.0962 67.022 9.81661 67.8146C10.3428 70.5479 12.7516 72.6199 15.6359 72.6199C18.4289 72.6199 20.7751 70.6779 21.3995 68.0734H30.528C31.1525 70.6779 33.4986 72.6199 36.2916 72.6199C39.2038 72.6199 41.6303 70.5076 42.1246 67.7352C44.2936 67.0087 45.9098 65.1869 46.3913 62.9703H59.3076C64.9552 62.9703 69.5506 58.3749 69.5506 52.7273C69.5506 47.0792 64.9552 42.4838 59.3076 42.4838ZM16.0745 51.1862H24.1517C27.7531 51.1862 31.2301 52.6067 33.8025 55.1052H16.0745V51.1862ZM15.6364 69.8582C13.891 69.8582 12.4705 68.4382 12.4705 66.6924C12.4705 64.9466 13.891 63.5265 15.6364 63.5265C17.3813 63.5265 18.8018 64.9466 18.8018 66.6924C18.8018 68.4382 17.3813 69.8582 15.6364 69.8582ZM36.2916 69.8582C34.5458 69.8582 33.1261 68.4382 33.1261 66.6924C33.1261 64.9466 34.5458 63.5265 36.2916 63.5265C38.0369 63.5265 39.457 64.9466 39.457 66.6924C39.457 68.4382 38.0369 69.8582 36.2916 69.8582ZM41.9131 64.8161C41.126 62.4648 38.9047 60.7649 36.2916 60.7649C33.4986 60.7649 31.1525 62.7072 30.5285 65.3118H21.3995C20.7755 62.7072 18.4289 60.7649 15.6364 60.7649C12.9833 60.7649 10.7316 62.5176 9.97797 64.9255C8.74372 64.3114 7.9073 63.0325 7.9073 61.5889C7.9073 59.5362 9.57671 57.8664 11.6298 57.8664H14.6944L36.9911 57.869C37.0023 57.869 37.013 57.8668 37.0241 57.8664H40.0561C42.1088 57.8664 43.7786 59.5362 43.7786 61.5889C43.7782 62.9536 43.0396 64.1681 41.9131 64.8161Z" fill="black"/>
<path d="M52.144 12.9789C52.144 10.0799 49.7858 7.72131 46.886 7.72131C43.9871 7.72131 41.6284 10.0799 41.6284 12.9789C41.6284 15.8787 43.9871 18.2373 46.886 18.2373C49.7858 18.2373 52.144 15.8787 52.144 12.9789ZM44.39 12.9789C44.39 11.6026 45.5097 10.4829 46.886 10.4829C48.2627 10.4829 49.3824 11.6026 49.3824 12.9789C49.3824 14.3556 48.2627 15.4757 46.886 15.4757C45.5097 15.4757 44.39 14.3556 44.39 12.9789Z" fill="black"/>
<path d="M47.8353 42.8879C47.304 43.4188 47.3045 44.3093 47.8353 44.8406C48.3658 45.3714 49.2571 45.3714 49.788 44.8406C50.3034 44.3243 50.3201 43.4699 49.8287 42.9321C49.3065 42.3614 48.3833 42.3399 47.8353 42.8879C48.092 42.6309 47.5783 43.1446 47.8353 42.8879Z" fill="black"/>
<path d="M36.2914 65.3113C35.5413 65.3113 34.9104 65.9421 34.9104 66.6919C34.9104 67.4425 35.5413 68.0729 36.2914 68.0729C37.0205 68.0729 37.6372 67.4789 37.6694 66.7524C37.7038 65.9799 37.066 65.3113 36.2914 65.3113Z" fill="black"/>
<path d="M15.6359 65.3113C14.8857 65.3113 14.2549 65.9421 14.2549 66.6919C14.2549 67.4425 14.8857 68.0729 15.6359 68.0729C16.365 68.0729 16.9817 67.4789 17.0139 66.7524C17.0482 65.9799 16.4105 65.3113 15.6359 65.3113Z" fill="black"/>
</svg>
