<svg width="75" height="75" viewBox="0 0 75 75" fill="none" xmlns="http://www.w3.org/2000/svg">
<path d="M74.7949 64.0239L72.2142 59.5538C72.885 59.3912 73.3832 58.7869 73.3832 58.0662C73.3832 57.7541 73.2899 57.4637 73.1295 57.2218L70.3586 52.4226C71.0711 52.292 71.6109 51.6676 71.6109 50.9173C71.6109 50.6053 71.5177 50.3149 71.3573 50.0729L62.8052 35.26C62.5319 34.7865 62.0267 34.4948 61.4797 34.4948C60.933 34.4948 60.4275 34.7866 60.1542 35.26L58.1398 38.7489L50.8093 26.1382C50.5354 25.6668 50.0313 25.3767 49.486 25.3767C48.9406 25.3767 48.4367 25.6668 48.1626 26.1382L46.1282 29.6378L38.8502 17.1169C38.5762 16.6455 38.0722 16.3555 37.527 16.3555C36.9817 16.3555 36.4777 16.6455 36.2036 17.1169L28.8964 29.6878L26.8328 26.138C26.5589 25.6666 26.0549 25.3766 25.5096 25.3766C24.9644 25.3766 24.4604 25.6666 24.1863 26.138L16.8578 38.7456L14.8454 35.2599C14.5721 34.7863 14.0667 34.4947 13.5199 34.4947C12.9732 34.4947 12.4677 34.7865 12.1943 35.2599L3.59671 50.152C3.32337 50.6255 3.32337 51.209 3.59671 51.6826C3.82259 52.0738 4.20653 52.3409 4.64144 52.422L1.82469 57.3009C1.55135 57.7744 1.55135 58.3579 1.82469 58.8315C2.03606 59.1974 2.38558 59.4548 2.78607 59.5529L0.205005 64.0238C-0.0683351 64.4973 -0.0683351 65.0808 0.205005 65.5544C0.478346 66.028 0.983718 66.3196 1.53055 66.3196H11.9897V71.9161H10.1295C9.28427 71.9161 8.59887 72.6015 8.59887 73.4467C8.59887 74.292 9.28427 74.9773 10.1295 74.9773H64.9249C65.7702 74.9773 66.4555 74.292 66.4555 73.4467C66.4555 72.6015 65.7702 71.9162 64.9249 71.9162H63.0103V66.3198H73.4695C74.0161 66.3198 74.5215 66.028 74.795 65.5545C75.0682 65.0809 75.0682 64.4975 74.7949 64.0239ZM37.5271 20.9318L44.3581 32.6835L40.836 38.7426L38.8253 35.2599C38.5519 34.7863 38.0467 34.4947 37.4997 34.4947C36.953 34.4947 36.4475 34.7865 36.1742 35.2599L34.1616 38.7456L30.6668 32.7336L37.5271 20.9318ZM42.4168 51.6823L45.2441 56.5793C44.8439 56.6774 44.4941 56.9346 44.2828 57.3007C44.0095 57.7743 44.0095 58.3577 44.2828 58.8313L46.8388 63.2584H28.1612L30.7172 58.8313C30.9905 58.358 30.9905 57.7744 30.7172 57.3009C30.5058 56.9348 30.156 56.6776 29.7557 56.5794L32.5831 51.6824C32.8564 51.2089 32.8564 50.6254 32.5831 50.1518C32.3572 49.7606 31.9733 49.4935 31.5382 49.4124L37.5002 39.0864L39.4686 42.4961C39.4918 42.5416 39.5174 42.5859 39.5455 42.6291L43.4615 49.4124C43.0266 49.4934 42.6426 49.7604 42.4169 50.1517C42.1434 50.6253 42.1434 51.2087 42.4168 51.6823ZM4.18148 63.2585L6.73749 58.8315C7.01083 58.3579 7.01083 57.7744 6.73749 57.3009C6.52626 56.9349 6.17631 56.6776 5.77611 56.5794L8.60341 51.6824C8.87675 51.2089 8.87675 50.6254 8.60341 50.1518C8.37753 49.7606 7.9936 49.4935 7.55868 49.4124L13.5203 39.0864L19.4819 49.4124C19.0469 49.4935 18.663 49.7606 18.4372 50.1518C18.1639 50.6254 18.1639 51.2089 18.4372 51.6824L21.2647 56.5794C20.8643 56.6776 20.5145 56.9348 20.3033 57.3009C20.0299 57.7744 20.0299 58.3579 20.3033 58.8315L22.8593 63.2585H4.18148ZM23.9795 71.9162H15.0509V66.3198H23.9795V71.9162ZM25.5101 61.7281L24.2549 59.5539C24.9258 59.3915 25.424 58.7869 25.424 58.0662C25.424 57.7541 25.3308 57.4637 25.1704 57.2218L22.3993 52.4226C23.1118 52.292 23.6518 51.6676 23.6518 50.9173C23.6518 50.6053 23.5585 50.3149 23.3981 50.0729L18.623 41.8018L25.5101 29.9529L32.3976 41.8018L27.5765 50.152C27.3032 50.6255 27.3032 51.209 27.5765 51.6826C27.8024 52.0738 28.1864 52.3409 28.6213 52.422L25.8044 57.301C25.531 57.7746 25.531 58.358 25.8044 58.8316C26.0158 59.1977 26.3656 59.4551 26.7659 59.5532L25.5101 61.7281ZM35.9695 71.9162H27.0407V66.3198H35.9695V71.9162ZM47.9558 71.9162H39.0308V66.3198H47.9558V71.9162ZM49.4899 61.7281L48.2347 59.5538C48.9056 59.3912 49.4036 58.7869 49.4036 58.0662C49.4036 57.7542 49.3103 57.4637 49.1499 57.2218L46.379 52.4226C47.0914 52.292 47.6313 51.6676 47.6313 50.9173C47.6313 50.6052 47.5382 50.3149 47.3778 50.0729L42.6009 41.7988L49.4863 29.9531L56.3754 41.805L51.5562 50.1521C51.2829 50.6257 51.2829 51.2091 51.5562 51.6827C51.782 52.074 52.166 52.341 52.601 52.4222L49.7841 57.3011C49.5107 57.7747 49.5107 58.3582 49.7841 58.8318C49.9954 59.1978 50.3452 59.4552 50.7456 59.5533L49.4899 61.7281ZM59.9492 71.9164H51.017V66.3199H59.9492V71.9164ZM52.1409 63.2585L54.6969 58.8315C54.9702 58.3579 54.9702 57.7744 54.6969 57.3009C54.4855 56.9348 54.1357 56.6776 53.7353 56.5794L56.5628 51.6824C56.8361 51.2089 56.8361 50.6254 56.5628 50.1518C56.3369 49.7606 55.953 49.4935 55.5179 49.4124L61.4798 39.0864L67.4413 49.4125C67.0063 49.4935 66.6225 49.7606 66.3967 50.1518C66.1234 50.6254 66.1234 51.2089 66.3967 51.6824L69.224 56.5794C68.8238 56.6776 68.474 56.9348 68.2628 57.3009C67.9895 57.7744 67.9895 58.3579 68.2628 58.8315L70.8187 63.2585H52.1409Z" fill="black"/>
<path d="M4.9256 71.9164H1.55821C0.71299 71.9164 0.0275879 72.6018 0.0275879 73.447C0.0275879 74.2924 0.712843 74.9776 1.55821 74.9776H4.92545C5.77081 74.9776 6.45607 74.2924 6.45607 73.447C6.45621 72.6016 5.77096 71.9164 4.9256 71.9164Z" fill="black"/>
<path d="M73.3477 71.9164H70.1293C69.284 71.9164 68.5986 72.6018 68.5986 73.447C68.5986 74.2924 69.284 74.9776 70.1293 74.9776H73.3477C74.1929 74.9776 74.8783 74.2924 74.8783 73.447C74.8783 72.6016 74.1929 71.9164 73.3477 71.9164Z" fill="black"/>
<path d="M26.6706 5.51405C24.9482 2.18958 21.4504 0.0230713 17.6468 0.0230713C13.8432 0.0230713 10.3459 2.18958 8.62365 5.51405C3.86583 5.63212 0.0317383 9.53798 0.0317383 14.3222C0.0317383 15.1674 0.716994 15.8528 1.56236 15.8528H33.7316C34.5769 15.8528 35.2622 15.1674 35.2622 14.3222C35.2622 9.53798 31.4285 5.63212 26.6706 5.51405ZM3.29981 12.7914C3.97203 10.362 6.20372 8.5725 8.84557 8.5725C9.03864 8.5725 9.23903 8.58276 9.44206 8.60326C10.1286 8.67226 10.7781 8.27279 11.0251 7.62782C12.0657 4.91009 14.7269 3.08416 17.647 3.08416C20.5671 3.08416 23.2286 4.91009 24.2694 7.62782C24.5164 8.27294 25.1624 8.67226 25.8526 8.60326C26.055 8.58276 26.2557 8.5725 26.4485 8.5725C29.0905 8.5725 31.322 10.3618 31.9941 12.7914H3.29981Z" fill="black"/>
</svg>
