<svg width="75" height="75" viewBox="0 0 75 75" fill="none" xmlns="http://www.w3.org/2000/svg">
<path d="M62.5 36.25H58.7175C63.0385 33.0357 64.8111 27.4128 63.1147 22.3015C61.4183 17.1902 56.6354 13.743 51.25 13.75H23.75C18.3646 13.743 13.5816 17.1902 11.8853 22.3015C10.1889 27.4128 11.9615 33.0357 16.2825 36.25H12.5C5.59644 36.25 0 41.8465 0 48.75C0 55.6535 5.59644 61.2499 12.5 61.2499H62.4999C69.4034 61.2499 74.9999 55.6535 74.9999 48.75C74.9999 41.8465 69.4036 36.25 62.5 36.25ZM51.25 16.2499C53.6791 16.2504 56.024 17.1395 57.8426 18.75H51.25C50.5597 18.75 50.0001 19.3095 50.0001 19.9999C50.0001 20.6903 50.5597 21.2499 51.25 21.2499H59.8963C60.5665 22.402 60.9976 23.6774 61.1638 24.9999H53.7501C53.0597 24.9999 52.5001 25.5594 52.5001 26.2498C52.5001 26.9402 53.0597 27.4998 53.7501 27.4998H61.1638C60.9976 28.8222 60.5665 30.0977 59.8963 31.2498H51.25C50.5597 31.2498 50.0001 31.8093 50.0001 32.4997C50.0001 33.1901 50.5597 33.7497 51.25 33.7497H57.8426C56.0241 35.3601 53.6792 36.2493 51.25 36.2497H31.2176C32.1672 35.5385 33.0119 34.697 33.7263 33.7497H46.25C46.9403 33.7497 47.4999 33.1901 47.4999 32.4997C47.4999 31.8093 46.9403 31.2498 46.25 31.2498H35.1987C35.723 30.0594 36.0563 28.794 36.1862 27.4998H48.75C49.4404 27.4998 50 26.9402 50 26.2498C50 25.5594 49.4402 24.9999 48.75 24.9999H36.1863C36.0564 23.7057 35.7231 22.4402 35.1989 21.2499H46.2501C46.9405 21.2499 47.5 20.6903 47.5 19.9999C47.5 19.3095 46.9405 18.75 46.2501 18.75H33.7264C33.0119 17.8028 32.1674 16.9611 31.2177 16.2499H51.25ZM13.75 26.25C13.743 21.8584 16.6021 17.9762 20.7979 16.6797C24.9936 15.3832 29.5443 16.9759 32.0159 20.6059C34.4875 24.236 34.3015 29.0537 31.5576 32.4824C28.1692 34.806 23.6158 34.4345 20.6489 31.5924C19.4336 30.4265 18.7466 28.8152 18.7466 27.1312C18.7466 25.4471 19.4336 23.8359 20.6489 22.6699C22.6203 20.7821 25.7288 20.7821 27.7002 22.6699C28.3871 23.3346 28.7748 24.2496 28.7748 25.2055C28.7748 26.1613 28.3871 27.0764 27.7002 27.7412C26.6089 28.7831 24.8915 28.7831 23.8002 27.7412C23.3039 27.261 22.5122 27.2742 22.0321 27.7706C21.552 28.2669 21.5651 29.0587 22.0616 29.5387C24.1282 31.5099 27.3788 31.5099 29.4453 29.5387C30.6145 28.403 31.2741 26.8424 31.2741 25.2124C31.2741 23.5825 30.6144 22.0218 29.4453 20.8861C26.4984 18.0609 21.8483 18.0609 18.9015 20.8861C17.2052 22.523 16.2469 24.779 16.2469 27.1362C16.2469 29.4934 17.205 31.7494 18.9015 33.3862C20.3795 34.8143 22.2289 35.7988 24.2389 36.2275C24.0751 36.2362 23.9139 36.2525 23.7489 36.2525C18.2279 36.2456 13.7549 31.7707 13.75 26.25ZM27.5325 38.7499C25.9228 39.9545 24.6256 41.5277 23.75 43.3374C22.8743 41.5277 21.5771 39.9545 19.9674 38.7499H23.75H27.5325ZM10.8113 52.0387C12.8779 54.0099 16.1285 54.0099 18.195 52.0387C19.3642 50.903 20.0238 49.3424 20.0238 47.7124C20.0238 46.0825 19.3641 44.5218 18.195 43.3862C15.2481 40.5609 10.598 40.5609 7.65117 43.3862C5.95488 45.023 4.99658 47.279 4.99658 49.6362C4.99658 51.9934 5.95474 54.2494 7.65117 55.8863C9.1292 57.3143 10.9786 58.2989 12.9886 58.7275C12.8249 58.7363 12.6636 58.7525 12.4986 58.7525C6.97573 58.7525 2.49858 54.2754 2.49858 48.7525C2.49858 43.2296 6.97573 38.7524 12.4986 38.7524L12.4998 38.7499C16.3424 38.7458 19.8466 40.9463 21.5121 44.409C23.1776 47.8718 22.7092 51.983 20.3073 54.9824C16.9189 57.306 12.3653 56.9345 9.39858 54.0924C8.18335 52.9265 7.49634 51.3152 7.49634 49.6312C7.49634 47.9471 8.18335 46.3359 9.39858 45.17C11.37 43.2823 14.4785 43.2823 16.4499 45.17C17.1368 45.8348 17.5245 46.7497 17.5245 47.7057C17.5245 48.6615 17.1368 49.5766 16.4499 50.2413C15.3589 51.2839 13.6409 51.2839 12.5499 50.2413C12.0535 49.7612 11.2619 49.7743 10.7818 50.2708C10.3017 50.7669 10.3148 51.5587 10.8113 52.0387ZM19.9674 58.75C21.5771 57.5455 22.8743 55.9722 23.75 54.1626C24.6256 55.9722 25.9228 57.5455 27.5325 58.75H19.9674ZM33.3113 52.0387C35.3779 54.0099 38.6285 54.0099 40.695 52.0387C41.8642 50.903 42.5238 49.3424 42.5238 47.7124C42.5238 46.0825 41.8641 44.5218 40.695 43.3862C37.7481 40.5609 33.098 40.5609 30.1512 43.3862C28.4549 45.023 27.4967 47.279 27.4967 49.6362C27.4967 51.9934 28.4549 54.2494 30.1512 55.8863C31.6292 57.3143 33.4786 58.2989 35.4886 58.7275C35.3249 58.7363 35.1636 58.7525 34.9986 58.7525C29.4757 58.7525 24.9986 54.2754 24.9986 48.7525C24.9986 43.2296 29.4757 38.7524 34.9986 38.7524L35 38.7499C38.8425 38.7458 42.3467 40.9463 44.0123 44.409C45.6778 47.8718 45.2093 51.983 42.8074 54.9824C39.4191 57.306 34.8656 56.9345 31.8987 54.0924C30.6835 52.9265 29.9965 51.3152 29.9965 49.6312C29.9965 47.9471 30.6835 46.3359 31.8987 45.17C33.8701 43.2823 36.9787 43.2823 38.95 45.17C39.6369 45.8348 40.0247 46.7497 40.0247 47.7057C40.0247 48.6615 39.6369 49.5766 38.95 50.2413C37.859 51.2839 36.1411 51.2839 35.05 50.2413C34.5538 49.7612 33.762 49.7743 33.282 50.2708C32.8018 50.7669 32.8148 51.5587 33.3113 52.0387ZM71.1463 53.7499H62.5C61.8097 53.7499 61.2501 54.3095 61.2501 54.9999C61.2501 55.6903 61.8097 56.2498 62.5 56.2498H69.0926C67.2741 57.8603 64.9292 58.7494 62.5 58.7499H42.4674C43.4171 58.0387 44.2617 57.1971 44.9761 56.2498H57.4998C58.1902 56.2498 58.7498 55.6903 58.7498 54.9999C58.7498 54.3095 58.19 53.7499 57.4998 53.7499H46.4487C46.973 52.5596 47.3062 51.2941 47.4362 49.9999H60C60.6904 49.9999 61.25 49.4404 61.25 48.75C61.25 48.0596 60.6904 47.5 60 47.5H47.4362C47.3062 46.2058 46.973 44.9404 46.4487 43.75H57.5C58.1903 43.75 58.7499 43.1903 58.7499 42.5001C58.7499 41.8097 58.1902 41.2501 57.5 41.2501H44.9763C44.2617 40.3029 43.4172 39.4612 42.4676 38.7501H62.5C64.9291 38.7505 67.274 39.6397 69.0926 41.2501H62.5C61.8097 41.2501 61.2501 41.8098 61.2501 42.5001C61.2501 43.1904 61.8097 43.75 62.5 43.75H71.1463C71.8165 44.9021 72.2476 46.1776 72.4138 47.5H65.0001C64.3097 47.5 63.7501 48.0596 63.7501 48.75C63.7501 49.4404 64.3097 49.9999 65.0001 49.9999H72.4138C72.2476 51.3224 71.8165 52.5978 71.1463 53.7499Z" fill="black"/>
</svg>
