<svg width="75" height="75" viewBox="0 0 75 75" fill="none" xmlns="http://www.w3.org/2000/svg">
<g clip-path="url(#clip0)">
<path d="M11.0079 70.5969H8.80633V68.3954H11.0079V70.5969ZM6.60476 70.5969H4.4032V68.3954H6.60476V70.5969Z" fill="white"/>
<path d="M70.5969 70.5969H68.3953V68.3954H70.5969V70.5969ZM66.1937 70.5969H63.9922V68.3954H66.1937V70.5969Z" fill="white"/>
<path d="M43.0039 9.54006H40.8023V7.3385H43.0039V9.54006ZM38.6008 9.54006H36.3992V7.3385H38.6008V9.54006ZM34.1977 9.54006H31.9961V7.3385H34.1977V9.54006Z" fill="white"/>
<path d="M57.3875 47.4804H55.186V45.2789H57.3875V47.4804ZM57.3875 43.0773H55.186V39.7749H51.8836V37.5734H57.3875V43.0773ZM49.682 39.7749H47.4805V37.5734H49.682V39.7749Z" fill="white"/>
<path d="M32.73 22.8229V29.0607H42.2701V22.8229C42.2701 20.1928 40.1302 18.0529 37.5 18.0529C34.8699 18.0529 32.73 20.1928 32.73 22.8229ZM40.0685 22.8229V26.8591H34.9315V22.8229C34.9315 21.4067 36.0838 20.2544 37.5 20.2544C38.9162 20.2544 40.0685 21.4067 40.0685 22.8229Z" fill="white"/>
<path d="M7.70555 44.1781C5.88456 44.1781 4.4032 45.6595 4.4032 47.4804V53.7182H11.0079V47.4804C11.0079 45.6595 9.52654 44.1781 7.70555 44.1781ZM8.80633 51.5166H6.60476V47.4804C6.60476 46.8734 7.0985 46.3797 7.70555 46.3797C8.31259 46.3797 8.80633 46.8734 8.80633 47.4804V51.5166Z" fill="white"/>
<path d="M63.9922 47.4804V53.7182H70.5969V47.4804C70.5969 45.6595 69.1155 44.1781 67.2945 44.1781C65.4735 44.1781 63.9922 45.6595 63.9922 47.4804ZM68.3953 47.4804V51.5166H66.1937V47.4804C66.1937 46.8734 66.6875 46.3797 67.2945 46.3797C67.9016 46.3797 68.3953 46.8734 68.3953 47.4804Z" fill="white"/>
<path d="M66.4385 11.7417V14.6771H62.2799V11.7417H53.7183V24.2172H56.8005V30.455H59.002V24.2172H62.1576V22.0157H55.9198V13.9433H60.0783V16.8787H68.64V13.9433H72.7985V22.0157H64.3592V24.2172H69.7163V34.8581H71.9179V24.2172H75.0001V11.7417H66.4385Z" fill="white"/>
<path d="M61.7906 33.1703H42.7837V35.3719H59.589V72.7985H25.4647V75H60.6898H61.7906H75V47.4805H72.7984V72.7985H61.7906V39.775H72.7984V45.2789H75V37.5734H61.7906V33.1703Z" fill="white"/>
<path d="M15.411 35.3719H40.5822V33.1703H13.2094V37.5734H0V65.093H2.20157V39.775H13.2094V72.7985H2.20157V67.2946H0V75H13.2094H14.3102H23.2632V72.7985H15.411V35.3719Z" fill="white"/>
<path d="M26.8592 56.2867C26.8592 50.791 31.0471 46.2553 36.3993 45.7026V61.2769H38.6008V45.7026C43.953 46.2552 48.141 50.7908 48.141 56.2867V70.0832H50.3425V56.2867C50.3425 49.2053 44.5815 43.4442 37.5001 43.4442C30.4186 43.4442 24.6576 49.2053 24.6576 56.2867V70.0832H26.8592V56.2867Z" fill="white"/>
<path d="M36.3992 63.4784H38.6007V65.68H36.3992V63.4784Z" fill="white"/>
<path d="M36.3992 67.8816H38.6007V70.0832H36.3992V67.8816Z" fill="white"/>
<path d="M3.08219 34.8581H5.28376V24.2172H8.43933V22.0157H2.20157V13.9433H6.36003V16.8787H14.9218V13.9433H19.0802V22.0157H10.6409V24.2172H15.998V30.455H18.1996V24.2172H21.2818V11.7417H12.7202V14.6771H8.56159V11.7417H0V24.2172H3.08219V34.8581Z" fill="white"/>
<path d="M26.8591 30.455H29.0607V13.9432H34.4178V11.7417H26.1253V2.20157H28.9139V5.13699H36.1057V2.20157H38.8944V5.13699H46.0861V2.20157H48.8748V11.7417H36.6194V13.9432H45.9394V30.455H48.1409V13.9432H51.0763V0H43.8846V2.93542H41.0959V0H33.9041V2.93542H31.1155V0H23.9237V13.9432H26.8591V30.455Z" fill="white"/>
</g>
<defs>
<clipPath id="clip0">
<rect width="75" height="75" fill="white"/>
</clipPath>
</defs>
</svg>
