<svg width="118" height="49" viewBox="0 0 118 49" fill="none" xmlns="http://www.w3.org/2000/svg">
<path d="M40.3877 28.4162V28.183C40.3403 27.2506 40.6645 26.364 41.0343 25.571C41.4974 24.5302 42.1221 23.5703 42.8848 22.7276C43.1503 22.4294 43.463 22.1776 43.8101 21.9823C44.3656 21.7015 45.4766 22.2614 45.6151 22.634C45.8008 23.0066 45.2909 23.0543 44.9141 23.427C43.5718 24.8716 42.5536 26.5035 42.0454 28.4621C41.907 29.2091 42.0454 29.6277 42.4152 29.5818C42.8166 29.4324 43.169 29.1738 43.4333 28.8347C45.2839 26.1856 45.3312 24.7321 46.0707 24.9652C46.7717 25.246 46.9469 25.8041 46.996 26.4576C47.0451 27.111 47.0889 27.7168 47.0889 28.3226C47.1344 28.6016 47.0889 28.976 47.3202 29.0679C47.7828 29.2091 49.8647 25.6187 50.3729 24.8716C50.4199 24.8063 50.4832 24.7546 50.5565 24.7221C50.6298 24.6895 50.7104 24.6771 50.7899 24.6862C51.0213 24.8257 51.0213 25.3379 50.7426 25.9454C50.2344 26.8285 48.7536 29.301 48.4768 29.5818C47.9668 30.2882 47.2273 30.1876 46.6718 29.7672C46.0707 29.3487 45.8394 28.6493 45.7956 27.9499V27.111C45.7956 27.0633 45.7956 26.9697 45.7483 26.9697C45.6554 26.9238 45.6554 27.0174 45.6098 27.111C45.4714 27.436 45.333 27.7627 45.1472 28.1354C44.8803 28.7367 44.5381 29.3011 44.1291 29.8149C43.4281 30.6079 42.6956 30.841 41.7703 30.5213C41.3548 30.3537 40.9999 30.0624 40.7528 29.6863C40.5058 29.3102 40.3784 28.8671 40.3877 28.4162Z" fill="white"/>
<path d="M52.5546 36.3812C52.6161 35.5369 52.7243 34.6967 52.8788 33.8645C53.1101 32.5576 53.2941 31.3002 53.1557 29.9933C52.9699 28.455 52.5073 27.0104 51.1194 26.0779C50.5656 25.7052 50.0101 25.2849 49.4546 24.8646C47.7425 23.6071 47.187 21.7404 47.3728 19.8295C47.5112 17.6448 48.6222 15.3648 49.9173 13.7753C50.3679 13.1884 50.9562 12.7235 51.6294 12.4225C52.3303 12.0976 53.0173 12.004 53.7112 12.4702C53.7568 12.4702 53.8041 12.4702 53.8041 12.5161C55.6546 13.2632 55.886 14.6584 55.6546 16.2479C55.3304 18.346 54.4507 20.2586 53.387 22.0759C53.0139 22.7369 52.5803 23.3612 52.092 23.9409C51.9106 24.1718 51.7554 24.4223 51.6294 24.688C51.4909 24.9211 51.5365 25.0606 51.7222 25.2001C52.0185 25.3925 52.297 25.6112 52.5546 25.8536C53.8497 26.9256 54.4507 28.3703 54.6821 30.0498C54.8678 31.6393 54.5892 33.1263 54.3123 34.6646C54.1739 35.4575 53.9881 36.2982 53.8952 37.1371C53.8952 37.2307 53.8497 37.2766 53.8497 37.3702C53.8497 37.4638 53.8497 37.5468 53.9425 37.6033C54.081 37.6952 54.1265 37.5557 54.1739 37.5097C54.4477 37.2148 54.6832 36.8861 54.8748 36.5313C55.383 35.5988 55.8456 34.6646 56.3083 33.6862C57.4539 31.2913 58.7202 28.9571 60.1022 26.6925C60.4955 25.989 60.9444 25.3187 61.4446 24.688C61.6759 24.3153 61.8143 24.3153 62.1456 24.5944C62.2384 24.688 62.284 24.7816 62.2384 24.8734L62.1456 25.0147C60.0164 28.1371 58.3972 31.4945 56.8252 34.9454C56.4537 35.7384 56.084 36.5349 55.6213 37.3225C55.4484 37.6349 55.2472 37.9305 55.0203 38.2056C54.5121 38.8113 53.7252 38.859 53.1242 38.2992C52.6002 37.7941 52.5073 37.0876 52.5546 36.3812ZM50.5183 23.842L51.1667 22.491C51.8606 21.2472 52.4633 19.9539 52.9699 18.6215C53.3634 17.7296 53.642 16.7907 53.7988 15.8275C53.89 15.22 53.9373 14.6142 53.7515 14.0085C53.6131 13.5881 53.5202 13.5422 53.0506 13.7294C52.6463 13.8934 52.286 14.1512 51.9991 14.4818C50.2467 16.3468 49.3617 18.6321 49.2689 21.1929C49.2461 21.3782 49.2461 21.5657 49.2689 21.751C49.2868 22.5431 49.5823 23.3032 50.103 23.8968C50.3343 24.1264 50.3799 24.1264 50.5183 23.842Z" fill="white"/>
<path d="M60.2827 46.3667C59.5414 45.2011 59.2172 43.8942 58.9859 42.5431C58.6617 40.5845 58.6617 38.6736 58.8107 36.715C59.019 34.0591 59.4362 31.4241 60.0584 28.8348C61.3552 23.0067 63.6684 17.5513 66.3968 12.2336C67.3694 10.275 68.4787 8.36233 69.5897 6.45143C69.6826 6.31191 69.8666 6.17239 69.821 5.93926C69.4513 5.89158 69.1201 6.07878 68.8029 6.17239C65.2876 7.10488 61.8178 8.31641 58.5794 10.0419C57.8695 10.3889 57.1986 10.8117 56.5781 11.3029C56.3468 11.4795 56.1628 11.3965 55.977 11.3029C55.9228 11.2852 55.8735 11.2549 55.833 11.2144C55.7926 11.174 55.7621 11.1245 55.7442 11.0699C55.7263 11.0154 55.7214 10.9574 55.7299 10.9006C55.7383 10.8438 55.76 10.7898 55.793 10.743C55.8758 10.494 56.0185 10.2695 56.2084 10.0896C56.5833 9.71281 57.0029 9.38418 57.4578 9.11115C59.587 7.75833 61.9457 6.77992 64.3518 5.9322C66.3709 5.27297 68.425 4.72816 70.5045 4.30034C70.8077 4.23194 71.0728 4.04772 71.244 3.78641C71.8396 2.82159 72.4885 1.89117 73.1874 0.999528C73.4101 0.713056 73.6582 0.447634 73.9287 0.206556C74.0392 0.104688 74.1766 0.0372933 74.3244 0.0125308C74.4721 -0.0122317 74.6238 0.00670065 74.7611 0.0670354C75.0852 0.225889 75.3948 0.413231 75.6863 0.626884C75.9632 0.860007 76.0105 1.04721 75.8248 1.37217C75.6098 1.87342 75.3299 2.34376 74.9924 2.77091C74.8591 2.9506 74.7357 3.13749 74.6226 3.33076C74.5298 3.56388 74.5298 3.61157 74.8066 3.56388C75.8248 3.47028 76.8429 3.33076 77.8611 3.23716C79.9429 3.06055 81.9775 2.86451 84.0593 2.86451C84.8651 2.8592 85.67 2.92182 86.4654 3.05172C87.1611 3.17622 87.8231 3.44636 88.4088 3.84469C88.8027 4.07036 89.0993 4.43541 89.2412 4.86902C89.316 5.01218 89.3483 5.17408 89.3341 5.33526C89.3341 5.47655 89.2412 5.56839 89.1588 5.52247C88.7873 5.47655 88.372 5.42887 88.2336 5.0103C88.0478 4.49637 87.6307 4.26325 87.1681 4.16965C86.7972 4.08491 86.4215 4.02299 86.0431 3.98421C84.8865 3.98421 83.7299 3.98421 82.6189 4.03013C81.231 4.12373 79.8431 4.26325 78.5007 4.40277C76.9744 4.58998 75.448 4.77718 73.9217 5.0103C73.643 5.05622 73.5046 5.24343 73.3662 5.47655C72.2096 7.43337 71.053 9.43964 69.942 11.4441C66.9418 16.9932 64.4447 22.7824 62.6852 28.8825C61.8767 31.7252 61.2741 34.6233 60.882 37.5539C60.6729 38.9566 60.5797 40.3743 60.6034 41.7925C60.6507 43.0977 60.7418 44.3569 61.2062 45.5684C61.3757 46.1707 61.6749 46.7279 62.0824 47.2003C62.7308 48.0833 63.6596 48.2264 64.6269 48.1805C65.7835 48.1328 66.8472 47.7142 67.8654 47.2003C69.9472 46.1283 71.7522 44.7278 73.4731 43.2372C76.2015 40.86 78.555 38.1562 80.8332 35.3569C83.4039 32.2487 85.7539 28.9615 87.8656 25.5198L88.0058 25.2867C88.1442 25.0536 88.2826 25.1472 88.514 25.2408C88.7453 25.3803 88.6997 25.5198 88.5595 25.707C87.7744 26.9645 87.0332 28.2714 86.1552 29.4829C83.0009 34.0059 79.631 38.3416 75.6986 42.2588C73.9092 44.0076 71.9745 45.5988 69.9157 47.0148C68.8102 47.787 67.5932 48.3827 66.3075 48.7809C65.4318 49.0208 64.5128 49.0528 63.6228 48.8745C62.0842 48.5672 61.066 47.6259 60.2827 46.3667Z" fill="white"/>
<path d="M4.16372 16.2056L7.41969 25.1066H6.45937L3.70984 17.3871L0.958566 25.1066H0L3.25597 16.2056H4.16372Z" fill="white"/>
<path d="M23.6944 16.2056H24.5706V25.1066H23.8136L18.8928 17.8657V25.1066H18.0166V16.2056H18.7736L23.6944 23.4465V16.2056Z" fill="white"/>
<path d="M41.4356 16.2056V17.0445H38.7281V25.1066H37.8519V17.0445H35.127V16.2056H41.4356Z" fill="white"/>
<path d="M57.4175 16.2056H58.2937V25.1066H57.4175V16.2056Z" fill="white"/>
<path d="M74.1636 20.9616V25.1066H75.0398V21.8005H77.3179C78.0541 21.8005 78.7601 21.5058 79.2807 20.9812C79.8013 20.4565 80.0937 19.745 80.0937 19.003C80.0937 18.2611 79.8013 17.5496 79.2807 17.0249C78.7601 16.5003 78.0541 16.2056 77.3179 16.2056H74.1636V17.0445H77.3179C77.5711 17.0354 77.8235 17.0799 78.0586 17.1751C78.2937 17.2703 78.5064 17.4141 78.683 17.5972C79.0282 17.9825 79.2193 18.4831 79.2193 19.0022C79.2193 19.5212 79.0282 20.0218 78.683 20.4071C78.5074 20.5891 78.2961 20.7322 78.0626 20.8274C77.8291 20.9226 77.5784 20.9677 77.3267 20.9599H74.1723" fill="white"/>
<path d="M98.6605 23.9162C98.0221 24.5627 97.2076 25.0036 96.3203 25.1829C95.433 25.3623 94.5128 25.272 93.6764 24.9235C92.8401 24.575 92.1253 23.984 91.6227 23.2255C91.1201 22.467 90.8524 21.5751 90.8535 20.6631C90.8544 19.9066 91.0403 19.1621 91.3946 18.4952C91.7489 17.8283 92.2608 17.2597 92.885 16.8397C93.5092 16.4196 94.2265 16.161 94.9734 16.0867C95.7204 16.0124 96.474 16.1248 97.1676 16.4138C97.8613 16.7028 98.4736 17.1597 98.9504 17.7439C99.4272 18.3281 99.7538 19.0217 99.9014 19.7634C100.049 20.505 100.013 21.2719 99.7965 21.9962C99.5801 22.7206 99.1899 23.38 98.6605 23.9162ZM92.7969 23.3122C93.4963 24.0106 94.441 24.4025 95.4255 24.4025C96.4101 24.4025 97.3548 24.0106 98.0541 23.3122C98.7327 22.5998 99.1116 21.6506 99.1116 20.6631C99.1116 19.6756 98.7327 18.7263 98.0541 18.0139C97.3548 17.3155 96.4101 16.9237 95.4255 16.9237C94.441 16.9237 93.4963 17.3155 92.7969 18.0139C92.1184 18.7263 91.7394 19.6756 91.7394 20.6631C91.7394 21.6506 92.1184 22.5998 92.7969 23.3122Z" fill="white"/>
<path d="M113.836 25.1066L110.577 16.2056H111.535L114.287 23.9234L117.036 16.2056H117.997L114.741 25.1066H113.836Z" fill="white"/>
</svg>
