<svg width="160" height="71" fill="none" xmlns="http://www.w3.org/2000/svg"><path d="M68.954 38.595c-.13-3.102-2.392-5.655-6.044-8.532-3.07-2.488-11.666-9.533-11.666-9.533 2.391-1.907 2.94-2.553 4.783-4.008 5.59-4.46 4.847-8.725 4.298-10.341-1.067-3.006-4.17-5.042-7.724-5.042H12.85C7.195 1.14 2.412 4.34.667 9.283c-1.875 5.365.258 11.214 5.72 15.61l11.31 9.049c-1.615.452-3.263 1.292-4.782 2.747-2.133 2.036-3.232 4.815-3.103 7.853.162 3.813 2.23 7.53 5.85 10.406l19.261 15.416 29.668-23.786c3.005-2.456 4.492-5.139 4.363-7.983zM37.832 6.956H52.6c1.066 0 2.004.485 2.23 1.131.258.68-.259 2.133-2.424 3.879-3.975 3.167-10.245 8.208-14.575 11.666V6.956zM10.006 20.304c-3.458-2.78-4.912-6.205-3.878-9.146.905-2.586 3.523-4.234 6.69-4.234h19.164v30.928C25.616 32.778 14.5 23.891 10.006 20.304zm9.308 30.023c-2.262-1.81-3.588-4.04-3.684-6.108-.065-1.325.387-2.521 1.325-3.394 3.328-3.102 6.722-2.23 10.212.582 1.196.937 3.587 2.844 4.848 3.878v15.222l-12.701-10.18zm41.334-8.08-22.849 18.26V31.065c.84-.678 3.232-2.359 4.751-3.587 2.52-2.036 5.462-2.198 7.918-.226 3.684 2.94 6.367 5.397 9.21 7.724 2.004 1.648 3.135 3.005 3.168 4.104.064 1.196-1.325 2.489-2.198 3.167zM82.365 2.658c3.62 0 6.076 1.293 6.076 4.105 0 1.422-1.195 2.876-2.068 3.651 2.036.938 3.135 2.457 3.135 4.331 0 3.167-1.94 5.494-6.464 5.494h-4.977V5.469l-.355-2.682 4.653-.129zm-.904 7.013c2.036 0 2.65.13 2.973.162.42-.614.84-1.584.84-2.521 0-1.584-.84-2.133-2.747-2.133-.323 0-.678.032-1.066.065V9.67zm0 8.047h1.615c1.907 0 2.974-1.066 2.974-2.844 0-1.583-1.002-2.682-3.62-2.682h-.97v5.526zM100.69 10.511s-.744-.71-1.745-.71c-1.358 0-2.974 1.68-2.974 3.716v4.492l.291 2.262H92.74V9.768l-.356-2.65 3.62-.388v2.392s1.292-2.424 3.554-2.424c.808 0 1.552.323 2.166.97l-1.034 2.843zM106.959 18.01l.291 2.261h-3.522V9.703l-.356-2.65 3.62-.387v11.343h-.033zm-1.648-16.645c.937 0 1.745.808 1.745 1.843 0 .97-.808 1.745-1.745 1.745-1.002 0-1.842-.776-1.842-1.745 0-1.035.84-1.843 1.842-1.843zM119.822 10.77c-.97-1.196-2.263-1.616-3.2-1.616-2.262 0-3.232 2.133-3.232 4.492 0 2.198 1.002 4.298 3.135 4.298 2.262 0 4.298-2.1 4.298-2.1l.485 2.714s-1.971 2.036-5.397 2.036c-3.91 0-5.817-3.36-5.817-6.722 0-3.813 2.262-7.206 6.496-7.206 3.199 0 4.783 1.745 4.783 1.745l-1.551 2.359zM127.222 13.032l3.588-4.557.614-1.422h4.362l-5.3 5.979 5.559 7.207h-4.04l-4.783-6.625v4.363l.291 2.262h-3.523V3.4l-.355-2.65 3.62-.387v12.668h-.033zM102.467 26.056v7.24s1.26-.97 2.876-.97c2.78 0 5.527 2.23 5.527 6.69 0 3.91-2.812 7.239-6.916 7.239-2.198 0-4.17-1.067-4.751-2.263V29.094l-.356-2.65 3.62-.388zm0 17.096a2.826 2.826 0 0 0 1.939.743c1.648 0 3.006-2.036 3.006-4.653 0-2.618-1.358-4.428-3.006-4.428-1.066 0-1.939.614-1.939.614v7.724zM121.858 36.172s-.744-.711-1.746-.711c-1.357 0-2.973 1.68-2.973 3.716v4.492l.291 2.262h-3.523V35.396l-.355-2.65 3.62-.388v2.392s1.292-2.424 3.555-2.424c.807 0 1.551.323 2.165.97l-1.034 2.876zM128.159 43.67l.291 2.261h-3.522V35.364l-.356-2.65 3.62-.388v11.343h-.033zm-1.68-16.644c.937 0 1.745.808 1.745 1.842 0 .97-.808 1.745-1.745 1.745-1.002 0-1.842-.776-1.842-1.745.032-1.034.872-1.842 1.842-1.842zM140.99 36.43c-.97-1.196-2.263-1.616-3.2-1.616-2.262 0-3.232 2.133-3.232 4.492 0 2.198 1.002 4.299 3.135 4.299 2.262 0 4.298-2.101 4.298-2.101l.485 2.715s-1.971 2.036-5.397 2.036c-3.91 0-5.817-3.361-5.817-6.723 0-3.813 2.262-7.206 6.496-7.206 3.199 0 4.783 1.745 4.783 1.745l-1.551 2.359zM148.423 38.66l3.587-4.557.614-1.422h4.363l-5.3 5.979 5.559 7.207h-4.04l-4.783-6.625v4.363l.291 2.262h-3.523V29.029l-.355-2.65 3.619-.388V38.66h-.032z" fill="#0D2839"/><path d="M79.198 33.07h2.586l-.55 1.615h-2.068v4.621c0 .614.323.808.743.808.647 0 1.616-.484 2.004-.808l.226 1.907s-.97.905-2.876.905c-1.487 0-2.23-.776-2.23-2.812v-4.589h-1.066v-1.616h1.066v-1.583l2.327-.259-.162 1.81zM86.761 42.086c-2.65 0-4.04-2.327-4.04-4.525 0-2.585 1.648-4.783 4.622-4.783 2.294 0 4.007 1.39 4.007 4.46 0 2.618-1.68 4.848-4.589 4.848zm.259-1.551c1.26 0 2.003-1.358 2.003-3.103s-.743-3.07-2.003-3.07c-1.26 0-2.004 1.357-2.004 3.07 0 1.745.775 3.103 2.004 3.103zM91.35 44.218l-.42 1.616H76.45v-1.616H91.35z" fill="#DA5F2F"/><path d="M37.832 6.956H52.6c1.066 0 2.004.485 2.23 1.131.258.68-.259 2.133-2.424 3.879-3.975 3.167-10.245 8.208-14.575 11.666V6.956z" fill="#EDDCAE"/><path d="M10.007 20.304c-3.459-2.78-4.913-6.205-3.879-9.146.905-2.586 3.523-4.234 6.69-4.234h19.164v30.928C25.616 32.778 14.5 23.891 10.007 20.304z" fill="#DA5F2F"/><path d="M19.314 50.327c-2.262-1.81-3.588-4.04-3.684-6.108-.065-1.325.387-2.521 1.324-3.394 3.33-3.102 6.723-2.23 10.213.582 1.196.937 3.587 2.844 4.847 3.878v15.222l-12.7-10.18z" fill="#EDDCAE"/><path d="m60.648 42.247-22.849 18.26V31.065c.84-.678 3.232-2.359 4.75-3.587 2.522-2.036 5.463-2.198 7.919-.226 3.684 2.94 6.366 5.397 9.21 7.724 2.004 1.648 3.135 3.005 3.167 4.104.065 1.196-1.325 2.489-2.197 3.167z" fill="#0EBAB9"/><path d="M81.266 60.325v2.016h-.603L80.546 61H77.72l-.117 1.341H77v-2.016h.27c.174-.228.3-.492.378-.792.078-.3.147-.777.207-1.431l.315-3.303h2.673v5.526h.423zm-1.233-4.851h-1.134l-.252 2.664a8.71 8.71 0 0 1-.153 1.071 2.495 2.495 0 0 1-.207.639 1.967 1.967 0 0 1-.333.477h2.079v-4.851zM86.404 61h-.81v-3.051c0-.75.036-1.491.108-2.223L83.794 61H82.76v-6.201h.81v3.06c0 .78-.036 1.524-.108 2.232l1.908-5.292h1.035V61zm2.949.108c-.69 0-1.248-.279-1.674-.837l.459-.432c.18.192.36.336.54.432.18.096.384.144.612.144.33 0 .588-.105.774-.315.186-.216.279-.513.279-.891 0-.372-.09-.657-.27-.855-.18-.198-.45-.297-.81-.297h-.495l.099-.675h.405c.294 0 .522-.09.684-.27.162-.186.243-.444.243-.774 0-.288-.07-.522-.207-.702-.132-.18-.336-.27-.612-.27a1.27 1.27 0 0 0-.576.135c-.18.084-.363.216-.55.396l-.431-.441c.468-.504 1.005-.756 1.61-.756.505 0 .898.15 1.18.45.288.3.432.678.432 1.134 0 .378-.096.681-.288.909-.186.228-.45.39-.792.486.378.06.68.219.909.477.228.252.342.606.342 1.062 0 .372-.081.702-.243.99a1.774 1.774 0 0 1-.666.666c-.282.156-.6.234-.954.234zM95.48 61l-.37-1.575h-1.853L92.887 61h-.81l1.612-6.201h1.017L96.316 61h-.836zm-2.07-2.232h1.548l-.774-3.285-.774 3.285zM101.26 61h-.81v-3.051c0-.75.036-1.491.108-2.223L98.65 61h-1.035v-6.201h.81v3.06c0 .78-.035 1.524-.108 2.232l1.908-5.292h1.035V61zm-1.827-6.831c-.318 0-.579-.09-.783-.27-.204-.18-.32-.432-.35-.756l.486-.117c.047.192.123.33.224.414a.706.706 0 0 0 .423.117.67.67 0 0 0 .423-.126c.115-.084.195-.219.243-.405l.486.117c-.03.324-.15.576-.36.756-.204.18-.468.27-.791.27zM105.983 61v-2.916h-1.998V61h-.819v-6.201h.819v2.61h1.998v-2.61h.819V61h-.819zm8.816 0h-.81v-3.051c0-.75.036-1.491.108-2.223L112.188 61h-1.035v-6.201h.81v3.06c0 .78-.036 1.524-.108 2.232l1.908-5.292h1.035V61zm5.558-6.201c.726 0 1.275.162 1.647.486.378.324.567.801.567 1.431 0 .672-.192 1.173-.576 1.503-.378.324-.918.486-1.62.486h-.405V61h-.819v-6.201h1.206zm.018 3.258c.462 0 .801-.096 1.017-.288.216-.198.324-.546.324-1.044 0-.45-.111-.774-.333-.972-.216-.204-.552-.306-1.008-.306h-.405v2.61h.405zm6.441-3.258-.09.657h-1.935v2.061h1.683v.657h-1.683v2.169h2.061V61h-2.88v-6.201h2.844zM133.183 61h-.774l-.162-2.817c-.078-1.164-.111-2.013-.099-2.547l-1.053 4.662h-.765l-1.107-4.671.009.414c0 .468-.024 1.2-.072 2.196L129.007 61h-.774l.423-6.201h1.062l1.008 4.545.954-4.545h1.089l.414 6.201zm3.54-6.3c.684 0 1.218.267 1.602.801.384.528.576 1.329.576 2.403 0 1.062-.192 1.863-.576 2.403-.384.534-.918.801-1.602.801s-1.221-.264-1.611-.792c-.384-.528-.576-1.329-.576-2.403 0-1.062.195-1.863.585-2.403.39-.54.924-.81 1.602-.81zm0 .666c-.432 0-.762.198-.99.594-.222.396-.333 1.047-.333 1.953 0 .9.114 1.545.342 1.935.228.39.555.585.981.585.432 0 .759-.192.981-.576.222-.39.333-1.041.333-1.953 0-.906-.111-1.554-.333-1.944-.222-.396-.549-.594-.981-.594zM143.349 61v-2.916h-1.998V61h-.819v-6.201h.819v2.61h1.998v-2.61h.819V61h-.819zm5.838-6.201-.09.684h-1.377V61h-.819v-5.517h-1.413v-.684h3.699zM68.954 38.595c-.13-3.102-2.392-5.655-6.044-8.532-3.07-2.488-11.666-9.533-11.666-9.533 2.391-1.907 2.94-2.553 4.783-4.008 5.59-4.46 4.847-8.725 4.298-10.341-1.067-3.006-4.17-5.042-7.724-5.042H12.85C7.195 1.14 2.412 4.34.667 9.283c-1.875 5.365.258 11.214 5.72 15.61l11.31 9.049c-1.615.452-3.263 1.292-4.782 2.747-2.133 2.036-3.232 4.815-3.103 7.853.162 3.813 2.23 7.53 5.85 10.406l19.261 15.416 29.668-23.786c3.005-2.456 4.492-5.139 4.363-7.983zM37.832 6.956H52.6c1.066 0 2.004.485 2.23 1.131.258.68-.259 2.133-2.424 3.879-3.975 3.167-10.245 8.208-14.575 11.666V6.956zM10.006 20.304c-3.458-2.78-4.912-6.205-3.878-9.146.905-2.586 3.523-4.234 6.69-4.234h19.164v30.928C25.616 32.778 14.5 23.891 10.006 20.304zm9.308 30.023c-2.262-1.81-3.588-4.04-3.684-6.108-.065-1.325.387-2.521 1.325-3.394 3.328-3.102 6.722-2.23 10.212.582 1.196.937 3.587 2.844 4.848 3.878v15.222l-12.701-10.18zm41.334-8.08-22.849 18.26V31.065c.84-.678 3.232-2.359 4.751-3.587 2.52-2.036 5.462-2.198 7.918-.226 3.684 2.94 6.367 5.397 9.21 7.724 2.004 1.648 3.135 3.005 3.168 4.104.064 1.196-1.325 2.489-2.198 3.167zM82.365 2.658c3.62 0 6.076 1.293 6.076 4.105 0 1.422-1.195 2.876-2.068 3.651 2.036.938 3.135 2.457 3.135 4.331 0 3.167-1.94 5.494-6.464 5.494h-4.977V5.469l-.355-2.682 4.653-.129zm-.904 7.013c2.036 0 2.65.13 2.973.162.42-.614.84-1.584.84-2.521 0-1.584-.84-2.133-2.747-2.133-.323 0-.678.032-1.066.065V9.67zm0 8.047h1.615c1.907 0 2.974-1.066 2.974-2.844 0-1.583-1.002-2.682-3.62-2.682h-.97v5.526zM100.69 10.511s-.744-.71-1.745-.71c-1.358 0-2.974 1.68-2.974 3.716v4.492l.291 2.262H92.74V9.768l-.356-2.65 3.62-.388v2.392s1.292-2.424 3.554-2.424c.808 0 1.552.323 2.166.97l-1.034 2.843zM106.959 18.01l.291 2.261h-3.522V9.703l-.356-2.65 3.62-.387v11.343h-.033zm-1.648-16.645c.937 0 1.745.808 1.745 1.843 0 .97-.808 1.745-1.745 1.745-1.002 0-1.842-.776-1.842-1.745 0-1.035.84-1.843 1.842-1.843zM119.822 10.77c-.97-1.196-2.263-1.616-3.2-1.616-2.262 0-3.232 2.133-3.232 4.492 0 2.198 1.002 4.298 3.135 4.298 2.262 0 4.298-2.1 4.298-2.1l.485 2.714s-1.971 2.036-5.397 2.036c-3.91 0-5.817-3.36-5.817-6.722 0-3.813 2.262-7.206 6.496-7.206 3.199 0 4.783 1.745 4.783 1.745l-1.551 2.359zM127.222 13.032l3.588-4.557.614-1.422h4.362l-5.3 5.979 5.559 7.207h-4.04l-4.783-6.625v4.363l.291 2.262h-3.523V3.4l-.355-2.65 3.62-.387v12.668h-.033zM102.467 26.056v7.24s1.26-.97 2.876-.97c2.78 0 5.527 2.23 5.527 6.69 0 3.91-2.812 7.239-6.916 7.239-2.198 0-4.17-1.067-4.751-2.263V29.094l-.356-2.65 3.62-.388zm0 17.096a2.826 2.826 0 0 0 1.939.743c1.648 0 3.006-2.036 3.006-4.653 0-2.618-1.358-4.428-3.006-4.428-1.066 0-1.939.614-1.939.614v7.724zM121.858 36.172s-.744-.711-1.746-.711c-1.357 0-2.973 1.68-2.973 3.716v4.492l.291 2.262h-3.523V35.396l-.355-2.65 3.62-.388v2.392s1.292-2.424 3.555-2.424c.807 0 1.551.323 2.165.97l-1.034 2.876zM128.159 43.67l.291 2.261h-3.522V35.364l-.356-2.65 3.62-.388v11.343h-.033zm-1.68-16.644c.937 0 1.745.808 1.745 1.842 0 .97-.808 1.745-1.745 1.745-1.002 0-1.842-.776-1.842-1.745.032-1.034.872-1.842 1.842-1.842zM140.99 36.43c-.97-1.196-2.263-1.616-3.2-1.616-2.262 0-3.232 2.133-3.232 4.492 0 2.198 1.002 4.299 3.135 4.299 2.262 0 4.298-2.101 4.298-2.101l.485 2.715s-1.971 2.036-5.397 2.036c-3.91 0-5.817-3.361-5.817-6.723 0-3.813 2.262-7.206 6.496-7.206 3.199 0 4.783 1.745 4.783 1.745l-1.551 2.359zM148.423 38.66l3.587-4.557.614-1.422h4.363l-5.3 5.979 5.559 7.207h-4.04l-4.783-6.625v4.363l.291 2.262h-3.523V29.029l-.355-2.65 3.619-.388V38.66h-.032z" fill="#F1ECDC"/><path d="M79.198 33.07h2.586l-.55 1.615h-2.068v4.621c0 .614.323.808.743.808.647 0 1.616-.484 2.004-.808l.226 1.907s-.97.905-2.876.905c-1.487 0-2.23-.776-2.23-2.812v-4.589h-1.066v-1.616h1.066v-1.583l2.327-.259-.162 1.81zM86.761 42.086c-2.65 0-4.04-2.327-4.04-4.525 0-2.585 1.648-4.783 4.622-4.783 2.294 0 4.007 1.39 4.007 4.46 0 2.618-1.68 4.848-4.589 4.848zm.259-1.551c1.26 0 2.003-1.358 2.003-3.103s-.743-3.07-2.003-3.07c-1.26 0-2.004 1.357-2.004 3.07 0 1.745.775 3.103 2.004 3.103zM91.35 44.218l-.42 1.616H76.45v-1.616H91.35z" fill="#BE5E33"/><path d="M37.832 6.956H52.6c1.066 0 2.004.485 2.23 1.131.258.68-.259 2.133-2.424 3.879-3.975 3.167-10.245 8.208-14.575 11.666V6.956z" fill="#6C5D2D"/><path d="M10.007 20.304c-3.459-2.78-4.913-6.205-3.879-9.146.905-2.586 3.523-4.234 6.69-4.234h19.164v30.928C25.616 32.778 14.5 23.891 10.007 20.304z" fill="#BE5E33"/><path d="M19.314 50.327c-2.262-1.81-3.588-4.04-3.684-6.108-.065-1.325.387-2.521 1.324-3.394 3.33-3.102 6.723-2.23 10.213.582 1.196.937 3.587 2.844 4.847 3.878v15.222l-12.7-10.18z" fill="#6C5D2D"/><path d="m60.648 42.247-22.849 18.26V31.065c.84-.678 3.232-2.359 4.75-3.587 2.522-2.036 5.463-2.198 7.919-.226 3.684 2.94 6.366 5.397 9.21 7.724 2.004 1.648 3.135 3.005 3.167 4.104.065 1.196-1.325 2.489-2.197 3.167z" fill="#68B8B8"/></svg>