<svg xmlns="http://www.w3.org/2000/svg">

	<symbol id="up" viewBox="0 0 12 12">
		<path d="M11.5557 0.785715C11.5557 0.351776 11.2039 2.29e-07 10.7699 5.02955e-07L3.69852 1.23633e-07C3.26458 4.60808e-07 2.91281 0.351777 2.91281 0.785714C2.91281 1.21965 3.26458 1.57143 3.69852 1.57143L9.98423 1.57143L9.98424 7.85714C9.98423 8.29108 10.336 8.64286 10.7699 8.64286C11.2039 8.64286 11.5557 8.29108 11.5557 7.85714L11.5557 0.785715ZM0.555664 11L1.11125 11.5556L11.3255 1.3413L10.7699 0.785715L10.2144 0.230131L8.01845e-05 10.4444L0.555664 11Z"/>
	</symbol>

	<symbol id="layers" viewBox="0 0 20 20">
		<path d="M17.5 9.99984L10 14.9998L2.5 9.99984M17.5 13.3332L10 18.3332L2.5 13.3332M17.5 6.6665L10 11.6665L2.5 6.6665L10 1.6665L17.5 6.6665Z" stroke-width="2" stroke-linecap="round" stroke-linejoin="round"/>
	</symbol>

	<symbol id="chart" viewBox="0 0 20 20">
		<path d="M7.5 9.16683V16.6668M7.5 9.16683H3.83301C3.3663 9.16683 3.13318 9.16683 2.95492 9.25766C2.79811 9.33755 2.67072 9.46494 2.59083 9.62174C2.5 9.8 2.5 10.0335 2.5 10.5002V16.6668H7.5M7.5 9.16683V4.66691C7.5 4.2002 7.5 3.96667 7.59083 3.78841C7.67072 3.63161 7.79811 3.50422 7.95492 3.42432C8.13317 3.3335 8.3663 3.3335 8.83301 3.3335H11.1663C11.6331 3.3335 11.8669 3.3335 12.0452 3.42432C12.202 3.50422 12.329 3.63161 12.4089 3.78841C12.4997 3.96667 12.5 4.2002 12.5 4.66691V6.66683M7.5 16.6668H12.5M12.5 16.6668L17.5 16.6669V8.00024C17.5 7.53353 17.4997 7.3 17.4089 7.12174C17.329 6.96494 17.2024 6.83755 17.0456 6.75766C16.8674 6.66683 16.6334 6.66683 16.1667 6.66683H12.5M12.5 16.6668V6.66683" stroke-width="2" stroke-linecap="round" stroke-linejoin="round"/>
	</symbol>

	<symbol id="globe" viewBox="0 0 19 19">
		<path d="M2.375 9.5H6.33333M2.375 9.5C2.375 13.435 5.56497 16.625 9.5 16.625M2.375 9.5C2.375 5.56497 5.56497 2.375 9.5 2.375M6.33333 9.5H12.6667M6.33333 9.5C6.33333 13.435 7.7511 16.625 9.5 16.625M6.33333 9.5C6.33333 5.56497 7.7511 2.375 9.5 2.375M12.6667 9.5H16.625M12.6667 9.5C12.6667 5.56497 11.2489 2.375 9.5 2.375M12.6667 9.5C12.6667 13.435 11.2489 16.625 9.5 16.625M16.625 9.5C16.625 5.56497 13.435 2.375 9.5 2.375M16.625 9.5C16.625 13.435 13.435 16.625 9.5 16.625" stroke-width="2" stroke-linecap="round" stroke-linejoin="round"/>
	</symbol>

	<symbol id="download" viewBox="0 0 20 20">
		<path d="M3.33301 6.66683V14.0002C3.33301 14.9336 3.33301 15.4 3.51466 15.7565C3.67445 16.0701 3.92924 16.3256 4.24284 16.4854C4.59901 16.6668 5.0655 16.6668 5.9971 16.6668H14.0023C14.9338 16.6668 15.3997 16.6668 15.7558 16.4854C16.0694 16.3256 16.3251 16.0701 16.4849 15.7565C16.6663 15.4003 16.6663 14.9343 16.6663 14.0027V6.66683M3.33301 6.66683H16.6663M3.33301 6.66683L4.47066 4.6759C4.74984 4.18733 4.88941 3.94309 5.08572 3.76522C5.25954 3.60772 5.46516 3.48854 5.68815 3.41576C5.94018 3.3335 6.22153 3.3335 6.78516 3.3335H13.2139C13.7775 3.3335 14.0599 3.3335 14.3119 3.41576C14.5349 3.48854 14.7396 3.60772 14.9134 3.76522C15.1099 3.94323 15.2498 4.18772 15.5295 4.67708L16.6663 6.66683M9.99967 9.16683V14.1668M9.99967 14.1668L12.4997 12.5002M9.99967 14.1668L7.49967 12.5002" stroke-width="2" stroke-linecap="round" stroke-linejoin="round"/>
	</symbol>

	<symbol id="plus" viewBox="0 0 4 4">
		<path d="M1.72266 0.231201V3.21555" stroke-width="0.462501" stroke-linecap="round"/>
		<path d="M0.231445 1.72266L3.2158 1.72266" stroke-width="0.462501" stroke-linecap="round"/>
	</symbol>

	<symbol id="telegram" viewBox="0 0 18 15">
		<path d="M4.33109 8.69128L6.56982 13.9975L9.48436 11.2341L14.4815 15L18 0L0 7.10885L4.33109 8.69128ZM12.8565 4.30365L7.34697 9.06836L6.66074 11.5206L5.39305 8.5151L12.8565 4.30365Z" />
	</symbol>

	<symbol id="vk" viewBox="0 0 24 24">
		<path d="m23.456 5.784c-.27.849-.634 1.588-1.09 2.259l.019-.03q-.672 1.12-1.605 2.588-.8 1.159-.847 1.2c-.138.173-.234.385-.267.618l-.001.007c.027.212.125.397.268.535l.4.446q3.21 3.299 3.611 4.548c.035.092.055.198.055.309 0 .194-.062.373-.167.52l.002-.003c-.176.181-.422.293-.694.293-.03 0-.061-.001-.09-.004h.004-2.631c-.001 0-.003 0-.005 0-.337 0-.647-.118-.89-.314l.003.002c-.354-.291-.669-.606-.951-.948l-.009-.012q-.691-.781-1.226-1.315-1.782-1.694-2.63-1.694c-.021-.002-.045-.003-.07-.003-.165 0-.319.051-.446.138l.003-.002c-.104.13-.167.298-.167.479 0 .036.002.07.007.105v-.004c-.027.314-.043.679-.043 1.048 0 .119.002.237.005.355v-.017 1.159c.01.047.016.101.016.156 0 .242-.11.458-.282.601l-.001.001c-.387.177-.839.281-1.316.281-.102 0-.202-.005-.301-.014l.013.001c-1.574-.03-3.034-.491-4.275-1.268l.035.02c-1.511-.918-2.763-2.113-3.717-3.525l-.027-.042c-.906-1.202-1.751-2.56-2.471-3.992l-.07-.154c-.421-.802-.857-1.788-1.233-2.802l-.06-.185c-.153-.456-.264-.986-.31-1.535l-.002-.025q0-.758.892-.758h2.63c.024-.002.052-.003.081-.003.248 0 .477.085.658.228l-.002-.002c.2.219.348.488.421.788l.003.012c.484 1.367.997 2.515 1.587 3.615l-.067-.137c.482.97 1.015 1.805 1.623 2.576l-.023-.031q.8.982 1.248.982c.009.001.02.001.032.001.148 0 .277-.08.347-.2l.001-.002c.074-.19.117-.411.117-.641 0-.049-.002-.098-.006-.146v.006-3.879c-.021-.457-.133-.884-.32-1.267l.008.019c-.124-.264-.273-.492-.45-.695l.003.004c-.164-.164-.276-.379-.311-.619l-.001-.006c0-.17.078-.323.2-.423l.001-.001c.121-.111.283-.178.46-.178h.008 4.146c.022-.003.047-.004.073-.004.195 0 .37.088.486.226l.001.001c.103.188.164.413.164.651 0 .038-.002.075-.005.112v-.005 5.173c-.002.024-.003.052-.003.08 0 .184.051.357.139.504l-.002-.004c.073.108.195.178.333.178h.001c.176-.012.336-.07.471-.162l-.003.002c.272-.187.506-.4.709-.641l.004-.005c.607-.686 1.167-1.444 1.655-2.25l.039-.07c.344-.57.716-1.272 1.053-1.993l.062-.147.446-.892c.155-.446.571-.76 1.06-.76.019 0 .038 0 .057.001h-.003 2.631q1.066 0 .8.981z"/>
	</symbol>

	<symbol id="max" viewBox="0 0 42 42">
		<path fill-rule="evenodd" clip-rule="evenodd" d="M21.39 41.58C17.28 41.58 15.37 40.98 12.05 38.58C9.95 41.28 3.3 43.39 3.01 39.78C3.01 37.07 2.41 34.78 1.73 32.28C0.92 29.2 0 25.77 0 20.8C0 8.93 9.74 0 21.28 0C32.83 0 41.88 9.37 41.88 20.91C41.8986 26.3666 39.7516 31.6076 35.9101 35.4829C32.0686 39.3581 26.8465 41.5509 21.39 41.58ZM21.56 10.26C15.94 9.97 11.56 13.86 10.59 19.96C9.79 25.01 11.21 31.16 12.42 31.48C13 31.62 14.46 30.44 15.37 29.53C16.8747 30.5695 18.627 31.1938 20.45 31.34C23.2493 31.4746 25.9896 30.5057 28.0821 28.6414C30.1745 26.777 31.452 24.1662 31.64 21.37C31.7494 18.568 30.7545 15.8351 28.8694 13.7592C26.9842 11.6833 24.3595 10.4303 21.56 10.27V10.26Z" />
	</symbol>

	<symbol id="close" viewBox="0 0 7 7">
		<line x1="5.85484" y1="0.323591" x2="0.363316" y2="5.81512" stroke-width="0.915254"/>
		<line y1="-0.457627" x2="7.76619" y2="-0.457627" transform="matrix(0.707107 0.707107 0.707107 -0.707107 0.648438 0)" stroke-width="0.915254"/>
	</symbol>

	<symbol id="eye-on" viewBox="0 0 24 24">
		<path fill-rule="evenodd" clip-rule="evenodd" d="M11.9944 15.5C13.9274 15.5 15.4944 13.933 15.4944 12C15.4944 10.067 13.9274 8.5 11.9944 8.5C10.0614 8.5 8.49439 10.067 8.49439 12C8.49439 13.933 10.0614 15.5 11.9944 15.5ZM11.9944 13.4944C11.1691 13.4944 10.5 12.8253 10.5 12C10.5 11.1747 11.1691 10.5056 11.9944 10.5056C12.8197 10.5056 13.4888 11.1747 13.4888 12C13.4888 12.8253 12.8197 13.4944 11.9944 13.4944Z" />
		<path fill-rule="evenodd" clip-rule="evenodd" d="M12 5C7.18879 5 3.9167 7.60905 2.1893 9.47978C0.857392 10.9222 0.857393 13.0778 2.1893 14.5202C3.9167 16.391 7.18879 19 12 19C16.8112 19 20.0833 16.391 21.8107 14.5202C23.1426 13.0778 23.1426 10.9222 21.8107 9.47978C20.0833 7.60905 16.8112 5 12 5ZM3.65868 10.8366C5.18832 9.18002 7.9669 7 12 7C16.0331 7 18.8117 9.18002 20.3413 10.8366C20.9657 11.5128 20.9657 12.4872 20.3413 13.1634C18.8117 14.82 16.0331 17 12 17C7.9669 17 5.18832 14.82 3.65868 13.1634C3.03426 12.4872 3.03426 11.5128 3.65868 10.8366Z" />
	</symbol>

	<symbol id="eye-off" viewBox="0 0 24 24">
		<path d="M4.4955 7.44088C3.54724 8.11787 2.77843 8.84176 2.1893 9.47978C0.857392 10.9222 0.857393 13.0778 2.1893 14.5202C3.9167 16.391 7.18879 19 12 19C13.2958 19 14.4799 18.8108 15.5523 18.4977L13.8895 16.8349C13.2936 16.9409 12.6638 17 12 17C7.9669 17 5.18832 14.82 3.65868 13.1634C3.03426 12.4872 3.03426 11.5128 3.65868 10.8366C4.23754 10.2097 4.99526 9.50784 5.93214 8.87753L4.4955 7.44088Z" />
		<path d="M8.53299 11.4784C8.50756 11.6486 8.49439 11.8227 8.49439 12C8.49439 13.933 10.0614 15.5 11.9944 15.5C12.1716 15.5 12.3458 15.4868 12.516 15.4614L8.53299 11.4784Z" />
		<path d="M15.4661 12.4471L11.5473 8.52829C11.6937 8.50962 11.8429 8.5 11.9944 8.5C13.9274 8.5 15.4944 10.067 15.4944 12C15.4944 12.1515 15.4848 12.3007 15.4661 12.4471Z" />
		<path d="M18.1118 15.0928C19.0284 14.4702 19.7715 13.7805 20.3413 13.1634C20.9657 12.4872 20.9657 11.5128 20.3413 10.8366C18.8117 9.18002 16.0331 7 12 7C11.3594 7 10.7505 7.05499 10.1732 7.15415L8.50483 5.48582C9.5621 5.1826 10.7272 5 12 5C16.8112 5 20.0833 7.60905 21.8107 9.47978C23.1426 10.9222 23.1426 13.0778 21.8107 14.5202C21.2305 15.1486 20.476 15.8603 19.5474 16.5284L18.1118 15.0928Z" />
		<path d="M2.00789 3.42207C1.61736 3.03155 1.61736 2.39838 2.00789 2.00786C2.39841 1.61733 3.03158 1.61733 3.4221 2.00786L22.0004 20.5862C22.391 20.9767 22.391 21.6099 22.0004 22.0004C21.6099 22.3909 20.9767 22.3909 20.5862 22.0004L2.00789 3.42207Z" />
	</symbol>

	
	<symbol id="check" viewBox="0 0 20 20">
		<path d="M8.294 16.998c-.435 0-.847-.203-1.111-.553L3.61 11.724a1.392 1.392 0 0 1 .27-1.951 1.392 1.392 0 0 1 1.953.27l2.351 3.104 5.911-9.492a1.396 1.396 0 0 1 1.921-.445c.653.406.854 1.266.446 1.92L9.478 16.34a1.39 1.39 0 0 1-1.12.656c-.022.002-.042.002-.064.002z"/>
	</symbol>

</svg>