<svg xmlns="http://www.w3.org/2000/svg">

	<symbol id="i-home" viewBox="0 0 512 512">
		<path d="M446.351,259.066c3.973,3.13,9.656,2.8,13.24-0.767l49.432-49.182c2.034-2.024,3.102-4.824,2.93-7.688
            c-0.173-2.864-1.566-5.517-3.829-7.283l-69.473-54.238c-4.354-3.4-10.637-2.625-14.035,1.729
            c-3.399,4.353-2.625,10.637,1.729,14.036l60.537,47.262l-35.115,34.938L262.187,88.546c-3.629-2.859-8.745-2.859-12.376,0
            L60.142,237.966L25.099,202.95L256,22.686l108.468,84.681c4.353,3.398,10.636,2.624,14.036-1.729
            c3.398-4.354,2.624-10.638-1.729-14.036L262.153,2.117c-3.615-2.823-8.691-2.823-12.307,0L3.876,194.146
            c-2.26,1.764-3.653,4.412-3.828,7.272c-0.175,2.86,0.886,5.659,2.913,7.684l49.326,49.287c1.94,1.939,4.5,2.926,7.071,2.926
            c2.176,0,4.361-0.708,6.186-2.145L66,258.812V452H43c-5.522,0-10,4.477-10,10v40c0,5.523,4.478,10,10,10h426
            c5.522,0,10-4.477,10-10v-40c0-5.523-4.478-10-10-10h-23V258.789L446.351,259.066z M256.001,109.131L335.816,172H176.197
            L256.001,109.131z M86,248h59c5.522,0,10-4.477,10-10s-4.478-10-10-10h-39.888l45.697-36h210.398l45.704,36H224
            c-5.522,0-10,4.477-10,10s4.478,10,10,10h202v36h-32v-8c0-5.523-4.478-10-10-10H280c-5.522,0-10,4.477-10,10v8h-34H124
            c-0.337,0-0.671,0.018-1,0.05c-0.329-0.033-0.663-0.05-1-0.05H86V248z M394,396v-36h32v36H394z M426,416v36h-32v-36H426z M394,340
            v-36h32v36H394z M374,286v166h-84V286H374z M246,340v-36h24v36H246z M270,360v36h-24v-36H270z M226,304v92h-36v-92H226z M170,304
            v92h-36v-92H170z M86,304h28v36H86V304z M86,360h28v36H86V360z M86,416h36c0.337,0,0.671-0.018,1-0.05
            c0.329,0.033,0.663,0.05,1,0.05h112h34v36H86V416z M459,472v20H53v-20H459z"/>
            <path d="M411.649,118.92c-1.859-1.86-4.439-2.92-7.069-2.92s-5.21,1.06-7.07,2.92c-1.86,1.86-2.93,4.44-2.93,7.08
                c0,2.63,1.069,5.21,2.93,7.07c1.861,1.86,4.44,2.93,7.07,2.93s5.21-1.07,7.069-2.93c1.86-1.86,2.931-4.44,2.931-7.07
                C414.58,123.37,413.51,120.79,411.649,118.92z"/>
            <path d="M193.069,230.93C191.21,229.07,188.63,228,186,228s-5.21,1.07-7.07,2.93S176,235.37,176,238s1.069,5.21,2.93,7.07
            c1.861,1.86,4.44,2.93,7.07,2.93s5.21-1.07,7.069-2.93c1.86-1.86,2.931-4.44,2.931-7.07S194.93,232.79,193.069,230.93z"/>
            <path d="M322.069,361.93C320.21,360.07,317.63,359,315,359s-5.21,1.07-7.07,2.93c-1.86,1.86-2.93,4.44-2.93,7.07
                s1.069,5.21,2.93,7.07c1.861,1.86,4.44,2.93,7.07,2.93s5.21-1.07,7.069-2.93c1.86-1.86,2.931-4.44,2.931-7.07
                S323.93,363.79,322.069,361.93z"/>
	</symbol>

    <symbol id="i-checkmark" viewBox="0 0 512 512">
        <path d="M256,0C114.844,0,0,114.844,0,256s114.844,256,256,256s256-114.844,256-256S397.156,0,256,0z M402.207,182.625
            L217.75,367.083c-4.167,4.167-9.625,6.25-15.083,6.25c-5.458,0-10.917-2.083-15.083-6.25L88.46,267.958
            c-4.167-4.165-4.167-10.919,0-15.085l15.081-15.082c4.167-4.165,10.919-4.165,15.086,0l84.04,84.042L372.04,152.458
            c4.167-4.165,10.919-4.165,15.086,0l15.081,15.082C406.374,171.706,406.374,178.46,402.207,182.625z"/>
    </symbol>
</svg>