<svg width="181" height="52" fill="none" xmlns="http://www.w3.org/2000/svg"><g clip-path="url(#a)" fill="#fff"><path d="M21.2 14.8c0 1.1-.1 11.2 0 11.7.2 1 1.1 1.8 2.1 1.9h.7c1.4-.1 2.4-1.4 2.2-2.7-.1-.6-.3-1.1-.7-1.5-1.5-1.5-1.6.8-1.6-2.6 1.1 0 2.1.5 2.9 1.2.2.2.3.4.4.5.2.2.3.4.4.7.6 1.2.6 2.7 0 4-1.1 2.2-3.7 3-5.9 2-.5-.3-1-.6-1.3-1-.9-1-1.3-2.4-1.1-3.7v-9.7c-.4.1-.6.2-.9.3v10.3c.1 1.3.6 2.6 1.5 3.6.4.4.9.8 1.5 1.1 2.6 1.3 5.8.2 7.1-2.4 1-2 .6-4.5-1-6.1-.9-1-2.2-1.5-3.5-1.5V19c1.9.1 3.6.9 5 2.2 2.8 2.8 2.8 7.4-.1 10.2-.4.4-.8.7-1.3 1-1.7 1.1-3.7 1.4-5.6.9-3-.8-5.1-3.3-5.4-6.4l-.2-4.9v-4.8c-2.1 1.4-4.1 5.3-4.1 8.2-.1 1.9.2 3.8 1.1 5.5.6 1.2 1.3 2.2 2.2 3.1.9.9 1.9 1.6 3.1 2.2 1.4.7 2.9 1 4.4 1.1h1c2.2-.1 4.4-.8 6.2-2.1.3-.2.5-.4.8-.6 1.3-1.1 2.3-2.5 3-4.1 1.6-3.6 1.2-7.8-1-11-.5-.7-1-1.4-1.7-1.9-.4-.4-.8-.7-1.2-1-1.9-1.3-4.2-2-6.5-2.1-.9 0-1.7.2-2.5.3z"/><path d="M-.3-.4v52h181.5v-52H-.3zm2.1 2h177.5V33H48.8L34.9 49.6H1.8v-48zm75.9 37.2H79l-2.8 2.8 2.9 3h-1.3l-2.7-2.8v2.8h-1v-5.9h1v2.6l2.6-2.5zm6.8 5.2c-.6.6-1.4.9-2.2.9-.8 0-1.6-.3-2.2-.9-.6-.6-.9-1.4-.9-2.2 0-.8.3-1.6.9-2.2.6-.6 1.4-.9 2.2-.9.8 0 1.6.3 2.2.9.6.6.9 1.4.9 2.2 0 .8-.3 1.6-.9 2.2zm5.1-.6h-.1l-1.9-3v4.3h-1v-5.9h1.1l1.8 3 1.9-3h1.1v5.9h-1v-4.3l-1.9 3zm5.5-3.6v4.9h-1v-5.9h5.1v5.9h-1v-4.9h-3.1zm8.4 4.1c.7.1 1.3-.3 1.7-.9l.9.5c-.6.9-1.5 1.4-2.6 1.3-.8 0-1.7-.3-2.3-.9-.6-.6-.9-1.4-.9-2.2 0-.8.3-1.6.9-2.2.6-.6 1.4-.9 2.2-.9.8 0 1.6.3 2.1.9.5.6.8 1.4.8 2.2v.5h-4.9c.2 1.1 1.1 1.8 2.1 1.7zm3.2-4.1v-1h5v1h-2v4.9h-1v-4.9h-2zm8.5 4.1c.7.1 1.3-.3 1.7-.9l.9.5c-.6.9-1.5 1.4-2.6 1.3-.8 0-1.7-.3-2.3-.9-.6-.6-.9-1.4-.9-2.2 0-.8.3-1.6.9-2.2.6-.6 1.4-.9 2.2-.9.8 0 1.6.3 2.1.9.5.6.8 1.4.8 2.2v.5h-4.9c.1 1.1 1.1 1.8 2.1 1.7zm8.1-2.6v-2.5h1v5.9h-1v-2.5h-3v2.5h-1v-5.9h1v2.5h3zm6.5 2.4v-4.9h1v4.9h1v2.6h-1v-1.6h-4.9v-5.9h1v4.9h2.9zm7.3-4.9h.8v5.9h-1v-4.1l-3.3 4.1h-.8v-5.9h1V43l3.3-4.2zm2.3 1.9c0-.5.2-1 .6-1.4.4-.4.9-.6 1.4-.5h2.5v5.9h-1v-2.1h-.9l-1.6 2.1h-1.2l1.7-2.2c-.9-.1-1.5-.9-1.5-1.8zm-22.4.6h-3.9c.1-1 1-1.8 2-1.7 1 0 1.8.8 1.9 1.7zm-33.2-1c.4.4.6.9.6 1.5s-.2 1.1-.6 1.5c-.4.4-.9.6-1.5.6s-1.1-.2-1.5-.6c-.4-.4-.6-.9-.6-1.5s.2-1.1.6-1.5c.4-.4.9-.6 1.5-.6.5 0 1.1.2 1.5.6zm21.5 1h-3.9c.1-1 1-1.8 2-1.7 1 0 1.9.8 1.9 1.7zm36.2.4c-.5 0-1-.4-1-.9v-.1c0-.5.5-1 1-1h1.6v1.9h-1.6v.1zM75.7 21.1h-1.8V14h1.4v5.3l3.3-5.4h1.8V21H79v-3.4c0-.5 0-1.1.1-2l-3.4 5.5zm7.8 0H82V14h1.5v2.8h2.8V14h1.5v7.1h-1.5V18h-2.8v3.1zm7.3-5.9h-1.9V14h5.4v1.3h-1.9v5.9h-1.5v-6h-.1zm8.6 5.9h-4.1V14h4.1v1.2h-2.6v1.6h2.4V18h-2.4v1.8h2.6v1.3zm2.9 0h-1.5V14h4.5v1.3h-3v5.8zm5.5-2.5h.6c.9 0 1.6-.2 2-.6.5-.4.7-1 .7-1.8 0-.7-.2-1.3-.7-1.7-.5-.4-1.1-.6-2-.6h-2.3V21h1.5v-2.4h.2zm0-3.4h.7c.4 0 .7.1.9.3.2.2.3.4.3.8s-.1.6-.3.8c-.2.2-.6.3-1 .3h-.5v-2.2h-.1zm5.9 4.2h2.6l.5 1.7h1.6l-2.5-7.2H114l-2.5 7.2h1.6l.6-1.7zM115 15c0 .1.1.3.1.5.1.2.3 1.1.8 2.6H114c.6-1.6.9-2.6 1-3.1zm9.5 6.1h-5.3V14h1.5v5.9h2.6V14h1.5v5.9h1.1v3.3h-1.5v-2.1h.1zm4.3 0H127V14h1.4v5.3l3.3-5.4h1.8V21H132v-3.4c0-.5 0-1.1.1-2l-3.3 5.5zm7 0 1.7-2.7h.9v2.7h1.5V14h-2.3c-.9 0-1.5.2-2 .5-.5.4-.7.9-.7 1.5 0 .5.1.9.3 1.2.2.3.5.6.9.8l-2 3.1h1.7zm1-5.7c.2-.1.5-.2.9-.2h.7v1.9h-.7c-.4 0-.7-.1-1-.3-.3-.2-.3-.4-.3-.7.1-.3.2-.6.4-.7zm7.9 4.9c-.5-.6-.8-1.5-.8-2.7 0-.7.1-1.4.4-2 .3-.6.7-1 1.2-1.3.5-.3 1.1-.4 1.8-.4s1.4.2 2.1.5l-.5 1.2c-.3-.1-.5-.2-.8-.3-.3-.1-.5-.1-.8-.1-.6 0-1 .2-1.3.6-.3.4-.5 1-.5 1.8 0 1.6.6 2.4 1.8 2.4.5 0 1.1-.1 1.8-.4v1.3c-.6.2-1.2.4-2 .4-1.1-.1-1.9-.4-2.4-1zm8.6-3.6-.7-.9 2.3-1.8h1.2v7.1h-1.5v-5.5l-.5.5-.8.6zm5.7 3.6c-.5-.6-.8-1.5-.8-2.7 0-.7.1-1.4.4-2 .3-.6.7-1 1.2-1.3.5-.3 1.1-.4 1.8-.4s1.4.2 2.1.5l-.5 1.2c-.3-.1-.5-.2-.8-.3-.3-.1-.5-.1-.8-.1-.6 0-1 .2-1.3.6-.3.4-.5 1-.5 1.8 0 1.6.6 2.4 1.8 2.4.5 0 1.1-.1 1.8-.4v1.3c-.6.2-1.2.4-2 .4-1-.1-1.8-.4-2.4-1z"/></g><defs><clipPath id="a"><path fill="#fff" d="M0 0h181v51.2H0z"/></clipPath></defs></svg>