<svg xmlns="http://www.w3.org/2000/svg">

	<symbol id="i-user" viewBox="0 0 26 26">
		<path d="M13 0C14.7239 0 16.3772 0.684819 17.5962 1.90381C18.8152 3.12279 19.5 4.77609 19.5 6.5C19.5 8.22391 18.8152 9.87721 17.5962 11.0962C16.3772 12.3152 14.7239 13 13 13C11.2761 13 9.62279 12.3152 8.40381 11.0962C7.18482 9.87721 6.5 8.22391 6.5 6.5C6.5 4.77609 7.18482 3.12279 8.40381 1.90381C9.62279 0.684819 11.2761 0 13 0ZM13 16.25C20.1825 16.25 26 19.1588 26 22.75V26H0V22.75C0 19.1588 5.8175 16.25 13 16.25Z"/>
	</symbol>

	<symbol id="i-speed" viewBox="0 0 44 35">
		<path d="M18.5885 25.1562C19.4684 26.0312 20.6049 26.46 21.9982 26.4425C23.3914 26.425 24.418 25.9233 25.0779 24.9375L34.3721 11.1016C34.7021 10.5911 34.6566 10.1259 34.2357 9.70594C33.8148 9.28594 33.347 9.24073 32.8323 9.57031L18.9184 18.8125C17.9285 19.4688 17.4064 20.4714 17.3522 21.8203C17.2979 23.1693 17.71 24.2812 18.5885 25.1562ZM21.9982 0C23.3181 0 24.6196 0.109375 25.9028 0.328125C27.1861 0.546875 28.4326 0.893229 29.6425 1.36719C30.2291 1.58594 30.8524 1.99646 31.5124 2.59875C32.1723 3.20104 32.3556 3.7749 32.0623 4.32031C31.769 4.86573 31.1091 5.23031 30.0825 5.41406C29.0559 5.59781 28.231 5.57958 27.6077 5.35937C26.6911 5.03125 25.7657 4.78552 24.8315 4.62219C23.8973 4.45885 22.9529 4.37646 21.9982 4.375C17.1219 4.375 12.9694 6.07979 9.5406 9.48938C6.11182 12.899 4.39817 17.0275 4.39963 21.875C4.39963 23.4062 4.61082 24.9193 5.03318 26.4141C5.45555 27.9089 6.05096 29.3125 6.81943 30.625H37.1769C38.0202 29.2396 38.6347 27.7995 39.0204 26.3047C39.4061 24.8099 39.5982 23.2604 39.5967 21.6562C39.5967 20.7083 39.5138 19.7786 39.3481 18.8672C39.1824 17.9557 38.9353 17.0625 38.6068 16.1875C38.3868 15.5677 38.3501 14.9661 38.4968 14.3828C38.6434 13.7995 38.9734 13.3073 39.4867 12.9062C39.9633 12.5417 40.4862 12.4323 41.0552 12.5781C41.6242 12.724 42.018 13.0521 42.2365 13.5625C42.7864 14.8385 43.2081 16.1423 43.5014 17.4737C43.7947 18.8052 43.9597 20.1629 43.9963 21.5469C44.033 23.625 43.7947 25.612 43.2814 27.5078C42.7681 29.4036 42.0165 31.2083 41.0266 32.9219C40.6233 33.5781 40.0733 34.0885 39.3767 34.4531C38.6801 34.8177 37.9468 35 37.1769 35H6.81943C6.0495 35 5.31622 34.8177 4.61962 34.4531C3.92301 34.0885 3.37305 33.5781 2.96975 32.9219C2.0165 31.2812 1.28323 29.5407 0.769936 27.7003C0.256645 25.8599 0 23.9181 0 21.875C0 18.849 0.577819 16.0147 1.73346 13.3722C2.88909 10.7297 4.46563 8.41458 6.46306 6.42688C8.46049 4.43917 10.7974 2.87146 13.4739 1.72375C16.1503 0.576042 18.9918 0.00145833 21.9982 0Z" />
	</symbol>

	<symbol id="i-gift" viewBox="0 0 36 40">
		<path d="M3.77783 18V25.1111C3.77783 30.9778 3.77783 33.9111 5.60005 35.7333C7.42228 37.5556 10.3556 37.5556 16.2223 37.5556H19.7778C25.6445 37.5556 28.5778 37.5556 30.4001 35.7333C32.2223 33.9111 32.2223 30.9778 32.2223 25.1111V18" stroke-width="3" stroke-linecap="round" stroke-linejoin="round"/>
		<path d="M18 8.85689C18 7.03833 17.2776 5.29425 15.9917 4.00834C14.7057 2.72242 12.9617 2 11.1431 2H10.5084C8.75556 2 7.33333 3.42044 7.33333 5.17511C7.33333 6.6905 7.93532 8.14382 9.00686 9.21536C10.0784 10.2869 11.5317 10.8889 13.0471 10.8889H18M18 8.85689V10.8889M18 8.85689C18 7.03833 18.7224 5.29425 20.0083 4.00834C21.2943 2.72242 23.0383 2 24.8569 2H25.4916C27.2444 2 28.6667 3.42044 28.6667 5.17511C28.6667 5.92546 28.5189 6.66845 28.2317 7.36168C27.9446 8.05491 27.5237 8.68479 26.9931 9.21536C26.4626 9.74594 25.8327 10.1668 25.1395 10.454C24.4462 10.7411 23.7032 10.8889 22.9529 10.8889H18M2 14.4444C2 13.1147 2 12.4498 2.35733 11.9556C2.61078 11.616 2.94672 11.3467 3.33333 11.1733C3.952 10.8889 4.78222 10.8889 6.44444 10.8889H29.5556C31.2178 10.8889 32.048 10.8889 32.6667 11.1733C33.072 11.3618 33.408 11.632 33.6427 11.9556C34 12.4498 34 13.1147 34 14.4444C34 15.7742 34 16.4373 33.6427 16.9333C33.3892 17.2729 33.0533 17.5421 32.6667 17.7156C32.048 18 31.2178 18 29.5556 18H6.44444C4.78222 18 3.952 18 3.33333 17.7156C2.94672 17.5421 2.61078 17.2729 2.35733 16.9333C2 16.4373 2 15.7742 2 14.4444Z" stroke-width="3" stroke-linejoin="round"/>
		<path d="M18 18V37.5556" stroke-width="3" stroke-linecap="round" stroke-linejoin="round"/>
	</symbol>

	<symbol id="i-wifi" viewBox="0 0 42 32">
		<path d="M21 32C19.7078 32 18.6157 31.5451 17.7235 30.6353C16.8313 29.7255 16.3851 28.6118 16.3851 27.2941C16.3851 25.9765 16.8313 24.8627 17.7235 23.9529C18.6157 23.0431 19.7078 22.5882 21 22.5882C22.2922 22.5882 23.3843 23.0431 24.2765 23.9529C25.1687 24.8627 25.6149 25.9765 25.6149 27.2941C25.6149 28.6118 25.1687 29.7255 24.2765 30.6353C23.3843 31.5451 22.2922 32 21 32ZM21 11.2941C23.3074 11.2941 25.4998 11.6706 27.5771 12.4235C29.6544 13.1765 31.5385 14.2118 33.2294 15.5294C33.8447 16 34.1603 16.6199 34.1763 17.3892C34.1923 18.1584 33.9228 18.8248 33.3678 19.3882C32.8448 19.9216 32.1987 20.1964 31.4296 20.2127C30.6604 20.229 29.9682 20.0169 29.3529 19.5765C28.1838 18.7608 26.8916 18.1176 25.4764 17.6471C24.0612 17.1765 22.569 16.9412 21 16.9412C19.431 16.9412 17.9388 17.1765 16.5236 17.6471C15.1084 18.1176 13.8162 18.7608 12.6471 19.5765C12.0318 20.0157 11.3396 20.2196 10.5704 20.1882C9.80129 20.1569 9.15522 19.8745 8.6322 19.3412C8.10918 18.7765 7.84767 18.1101 7.84767 17.3421C7.84767 16.5741 8.15533 15.9542 8.77064 15.4824C10.4628 14.1647 12.3475 13.1369 14.4248 12.3991C16.5021 11.6612 18.6938 11.2929 21 11.2941ZM21 0C24.8457 0 28.4687 0.643137 31.8689 1.92941C35.2691 3.21569 38.3223 5.03529 41.0285 7.38824C41.6438 7.92157 41.9668 8.58039 41.9976 9.36471C42.0283 10.149 41.7668 10.8235 41.213 11.3882C40.69 11.9216 40.0439 12.1964 39.2748 12.2127C38.5057 12.229 37.8134 11.9856 37.1981 11.4824C34.983 9.63137 32.499 8.19639 29.7461 7.17741C26.9932 6.15843 24.0778 5.64831 21 5.64706C17.9222 5.6458 15.0075 6.15592 12.2558 7.17741C9.5041 8.1989 7.01946 9.63388 4.80187 11.4824C4.18656 11.9843 3.49433 12.2278 2.72519 12.2127C1.95605 12.1976 1.30997 11.9228 0.786953 11.3882C0.233171 10.8235 -0.0283368 10.149 0.00242887 9.36471C0.0331945 8.58039 0.356234 7.92157 0.971547 7.38824C3.67893 5.03529 6.73273 3.21569 10.1329 1.92941C13.5332 0.643137 17.1555 0 21 0Z" />
	</symbol>

</svg>
