<?xml version="1.0" encoding="iso-8859-1"?>
<!-- Generator: Adobe Illustrator 19.0.0, SVG Export Plug-In . SVG Version: 6.00 Build 0)  -->
<svg version="1.1" id="Capa_1" xmlns="http://www.w3.org/2000/svg" xmlns:xlink="http://www.w3.org/1999/xlink" x="0px" y="0px"
	 viewBox="0 0 511.969 511.969" style="enable-background:new 0 0 511.969 511.969;" xml:space="preserve">
<g>
	<g>
		<path d="M116.879,63.996c-15.436,0-27.998,12.561-27.998,27.998c0,15.437,12.561,27.999,27.998,27.999
			c15.436,0,27.999-12.563,27.999-27.999C144.878,76.558,132.315,63.996,116.879,63.996z M116.879,111.994
			c-11.027,0-19.999-8.972-19.999-19.999c0-11.027,8.973-19.999,19.999-19.999s19.999,8.972,19.999,19.999
			C136.878,103.022,127.906,111.994,116.879,111.994z"/>
	</g>
</g>
<g>
	<g>
		<path d="M140.879,103.993c-2.211,0-4,1.79-4,4c0,11.027-8.972,19.999-19.999,19.999s-19.999-8.972-19.999-19.999
			c0-2.211-1.79-4-4-4c-2.211,0-4,1.79-4,4c0,15.437,12.561,27.999,27.998,27.999c15.436,0,27.998-12.562,28-27.999
			C144.879,105.782,143.089,103.993,140.879,103.993z"/>
	</g>
</g>
<g>
	<g>
		<path d="M116.879,79.996c-2.211,0-4,1.789-4,4v15.998c0,2.211,1.789,4,4,4c2.21,0,4-1.789,4-3.999V83.996
			C120.879,81.785,119.09,79.996,116.879,79.996z"/>
	</g>
</g>
<g>
	<g>
		<path d="M92.88,87.995c-2.211,0-4,1.79-4,4v15.999c0,2.211,1.789,4,4,4s4-1.789,4-4V91.995
			C96.88,89.784,95.09,87.995,92.88,87.995z"/>
	</g>
</g>
<g>
	<g>
		<path d="M140.878,87.995c-2.211,0-4,1.79-4,4v15.999c0,2.211,1.789,4,4,4c2.21,0,3.999-1.789,4-4V91.995
			C144.878,89.784,143.088,87.995,140.878,87.995z"/>
	</g>
</g>
<g>
	<g>
		<path d="M376.867,0c-13.233,0-23.999,10.765-23.999,23.999s10.766,23.999,23.999,23.999c13.233,0,23.999-10.765,23.999-23.999
			C400.866,10.765,390.1,0,376.867,0z M376.867,39.998c-8.827,0-15.999-7.175-15.999-15.999C360.868,15.175,368.04,8,376.867,8
			c8.811,0,15.999,7.175,15.999,15.999C392.866,32.823,385.679,39.998,376.867,39.998z"/>
	</g>
</g>
<g>
	<g>
		<path d="M396.866,35.998c-2.219,0-4,1.79-4,4c0,8.824-7.187,15.999-15.999,15.999c-8.827,0-15.999-7.175-15.999-15.999
			c0-2.211-1.797-4-4-4c-2.219,0-4,1.79-4,4c0,13.234,10.766,23.999,23.999,23.999c13.233,0,23.999-10.765,23.999-23.999
			C400.866,37.787,399.069,35.998,396.866,35.998z"/>
	</g>
</g>
<g>
	<g>
		<path d="M356.868,19.999c-2.219,0-4,1.79-4,4v14.999c0,2.211,1.781,4,4,4c2.203,0,4-1.789,4-4V23.999
			C360.868,21.788,359.071,19.999,356.868,19.999z"/>
	</g>
</g>
<g>
	<g>
		<path d="M396.866,19.999c-2.219,0-4,1.79-4,4v15.624c0,2.211,1.781,4,4,4c2.203,0,4-1.789,4-4V23.999
			C400.866,21.788,399.069,19.999,396.866,19.999z"/>
	</g>
</g>
<g>
	<g>
		<path d="M376.867,16c-2.219,0-4,1.789-4,4v7.999c0,2.211,1.781,4,4,4c2.203,0,4-1.789,4-4V20C380.867,17.789,379.07,16,376.867,16
			z"/>
	</g>
</g>
<g>
	<g>
		<path d="M248.87,131.993c-112.142,0-199.988,77.303-199.988,175.989c0,2.21,1.789,3.999,4,3.999s4-1.789,4-3.998
			c0-94.201,84.331-167.99,191.988-167.99c2.211,0,4-1.789,4-4S251.081,131.993,248.87,131.993z"/>
	</g>
</g>
<g>
	<g>
		<path d="M479.719,353.261c-1.5-1.579-3.999-1.626-5.608-0.188c-0.093,0.078-8.686,7.515-46.028,14.983
			c-2.172,0.437-3.579,2.539-3.141,4.703c0.375,1.906,2.047,3.218,3.906,3.218c0.266,0,0.532-0.023,0.797-0.077
			c40.028-8.007,49.137-16.186,50.043-17.092C481.219,357.277,481.219,354.84,479.719,353.261z"/>
	</g>
</g>
<g>
	<g>
		<path d="M479.547,273.023c-0.953-0.859-10.374-8.64-49.871-16.952c-2.125-0.457-4.281,0.93-4.734,3.09
			c-0.453,2.16,0.938,4.285,3.094,4.738c37.155,7.819,46.107,15.029,46.138,15.045c0.766,0.695,1.719,1.039,2.688,1.039
			c1.078,0,2.171-0.437,2.951-1.313C481.297,277.039,481.188,274.515,479.547,273.023z"/>
	</g>
</g>
<g>
	<g>
		<path d="M476.861,271.984c-2.219,0-4,1.789-4,4v79.995c0,2.211,1.781,4,4,4c2.202,0,3.999-1.789,3.999-4v-79.995
			C480.86,273.773,479.063,271.984,476.861,271.984z"/>
	</g>
</g>
<g>
	<g>
		<path d="M428.864,367.978c-2.203,0-4,1.789-4,4c-0.016,2.639-0.969,64.824-68.746,77.565c-2.172,0.406-3.594,2.492-3.188,4.664
			c0.36,1.922,2.047,3.266,3.922,3.266c0.25,0,0.5-0.023,0.75-0.07c74.403-13.992,75.262-84.714,75.262-85.425
			C432.864,369.775,431.067,367.986,428.864,367.978z"/>
	</g>
</g>
<g>
	<g>
		<path d="M432.802,259.282c-6.36-35.526-22.109-62.778-42.139-72.895c-1.953-1.003-4.375-0.207-5.375,1.766
			c-0.984,1.973-0.203,4.379,1.766,5.375c17.546,8.854,32.045,34.592,37.873,67.16c0.344,1.938,2.031,3.297,3.922,3.297
			c0.235,0,0.485-0.02,0.719-0.062C431.74,263.536,433.193,261.458,432.802,259.282z"/>
	</g>
</g>
<g>
	<g>
		<path d="M285.559,135.069c-12.03-2.043-24.37-3.078-36.689-3.078c-2.211,0-4,1.789-4,4s1.789,4,4,4
			c11.874,0,23.769,1,35.346,2.969c0.219,0.035,0.453,0.055,0.672,0.055c1.921,0,3.609-1.379,3.936-3.329
			C289.199,137.507,287.73,135.44,285.559,135.069z"/>
	</g>
</g>
<g>
	<g>
		<path d="M400.476,114.267c-0.578-1.195-1.704-2.031-3.016-2.23c-0.86-0.106-88.214-12.386-116.306,58.48
			c-0.813,2.05,0.187,4.379,2.234,5.191c2.062,0.809,4.374-0.191,5.202-2.246c22.062-55.664,82.98-55.586,102.01-54.114
			c-6,12.433-19.061,44.99-14.202,85.12c0.234,2.032,1.969,3.52,3.953,3.52c0.172,0,0.328-0.008,0.486-0.027
			c2.202-0.265,3.765-2.258,3.499-4.453c-5.765-47.646,15.765-85.12,15.984-85.491C400.976,116.869,401.038,115.466,400.476,114.267
			z"/>
	</g>
</g>
<g>
	<g>
		<path d="M272.827,507.391l-8-54.496c-0.32-2.187-2.32-3.734-4.539-3.375c-2.184,0.312-3.695,2.343-3.375,4.531l7.992,54.496
			c0.297,1.992,2,3.422,3.953,3.422c0.203,0,0.391-0.015,0.594-0.047C271.639,511.61,273.155,509.579,272.827,507.391z"/>
	</g>
</g>
<g>
	<g>
		<path d="M356.868,503.969h-87.994c-2.219,0-4,1.789-4,4s1.781,4,4,4h87.994c2.203,0,4-1.789,4-4S359.071,503.969,356.868,503.969z
			"/>
	</g>
</g>
<g>
	<g>
		<path d="M365.446,449.52c-2.141-0.32-4.219,1.187-4.547,3.375l-8,54.496c-0.312,2.187,1.203,4.219,3.391,4.531
			c0.187,0.031,0.39,0.047,0.578,0.047c1.953,0,3.656-1.429,3.953-3.422l8-54.496C369.149,451.864,367.634,449.832,365.446,449.52z"
			/>
	</g>
</g>
<g>
	<g>
		<path d="M144.838,507.406l-8-55.996c-0.316-2.187-2.359-3.718-4.527-3.398c-2.187,0.312-3.706,2.335-3.394,4.523l8,55.996
			c0.285,2,1.996,3.438,3.957,3.438c0.187,0,0.379-0.015,0.57-0.04C143.631,511.617,145.15,509.594,144.838,507.406z"/>
	</g>
</g>
<g>
	<g>
		<path d="M228.872,503.969h-87.994c-2.211,0-4,1.789-4,4s1.789,4,4,4h87.994c2.211,0,4-1.789,4-4S231.083,503.969,228.872,503.969z
			"/>
	</g>
</g>
<g>
	<g>
		<path d="M237.454,449.52c-2.223-0.375-4.219,1.187-4.539,3.375l-8,54.496c-0.32,2.187,1.191,4.219,3.375,4.531
			c0.199,0.031,0.395,0.047,0.586,0.047c1.953,0,3.66-1.429,3.953-3.422l8-54.496C241.149,451.864,239.637,449.832,237.454,449.52z"
			/>
	</g>
</g>
<g>
	<g>
		<path d="M142.263,448.223C53.23,415.296,56.831,309.232,56.878,308.154c0.098-2.203-1.613-4.07-3.82-4.172
			c-1.984,0.054-4.069,1.609-4.171,3.82c-0.051,1.125-3.964,112.954,90.604,147.921c0.457,0.172,0.926,0.25,1.387,0.25
			c1.624,0,3.155-1,3.748-2.609C145.396,451.285,144.337,448.989,142.263,448.223z"/>
	</g>
</g>
<g>
	<g>
		<path d="M70.75,216.448c-27.232-14.367-22.17-42.502-21.94-43.693c0.355-1.848-0.621-3.695-2.348-4.437
			c-1.73-0.734-3.738-0.179-4.832,1.344c-0.289,0.402-28.381,40.693,8.444,77.167c0.781,0.769,1.8,1.156,2.816,1.156
			c1.032,0,2.059-0.394,2.845-1.183c1.555-1.57,1.539-4.105-0.027-5.66c-19.366-19.178-18.389-39.161-14.401-52.231
			c2.063,11.281,8.335,25.448,25.709,34.615c1.968,1.031,4.371,0.277,5.406-1.672C73.453,219.901,72.703,217.479,70.75,216.448z"/>
	</g>
</g>
<g>
	<g>
		<path d="M180.875,23.999c-2.211,0-4,1.79-4,4v103.993c0,2.211,1.789,4,4,4s4-1.789,4-3.999V27.999
			C184.875,25.788,183.086,23.999,180.875,23.999z"/>
	</g>
</g>
<g>
	<g>
		<path d="M316.871,23.999H180.875c-2.211,0-4,1.79-4,4c0,2.211,1.789,4,4,4h135.996c2.202,0,3.999-1.789,3.999-4
			C320.87,25.788,319.073,23.999,316.871,23.999z"/>
	</g>
</g>
<g>
	<g>
		<path d="M316.871,23.999c-2.219,0-4,1.79-4,4v79.995c0,2.211,1.781,4,4,4c2.202,0,3.999-1.789,3.999-4V27.999
			C320.87,25.788,319.073,23.999,316.871,23.999z"/>
	</g>
</g>
<g>
	<g>
		<path d="M300.872,47.998c-2.203,0-4-1.793-4-4c0-2.211-1.797-4-4-4h-87.998c-2.211,0-4,1.79-4,4c0,2.207-1.793,4-4,4
			c-2.211,0-4,1.789-4,4v71.995c0,2.211,1.789,4,4,4s4-1.789,4-4V55.314c3.406-1.207,6.109-3.91,7.316-7.316h81.37
			c1.203,3.406,3.906,6.109,7.312,7.316v68.679c0,2.211,1.781,4,4,4c2.203,0,4-1.789,4-4V51.998
			C304.872,49.787,303.075,47.998,300.872,47.998z"/>
	</g>
</g>
<g>
	<g>
		<path d="M252.871,95.995c-15.437,0-27.999,12.561-27.999,27.998c0,2.211,1.789,4,4,4s4-1.789,4-4
			c0-11.027,8.972-19.999,19.999-19.999c11.026,0,20.003,8.973,20.003,19.999c0,2.211,1.78,4,3.999,4c2.203,0,4-1.789,4-4
			C280.873,108.557,268.311,95.995,252.871,95.995z"/>
	</g>
</g>
<g>
	<g>
		<path d="M248.871,215.987c-2.211,0-4,1.79-4,4v167.99c0,2.211,1.789,4,4,4s4-1.789,4-4v-167.99
			C252.871,217.776,251.082,215.987,248.871,215.987z"/>
	</g>
</g>
<g>
	<g>
		<path d="M288.904,338.371l-74.569-66.59c-4.589-4.594-6.78-9.038-5.714-11.616c1.07-2.578,5.761-4.18,12.253-4.18h71.999
			c2.203,0,4-1.789,4-4s-1.797-4-4-4h-71.999c-13.809,0-18.234,5.715-19.644,9.117c-1.41,3.406-2.316,10.577,7.613,20.491
			l74.578,66.589c4.593,4.594,6.78,9.047,5.718,11.625c-1.078,2.57-5.765,4.172-12.265,4.172h-71.999c-2.211,0-4,1.789-4,3.999
			c0,2.211,1.789,4,4,4h71.999c13.811,0,18.249-5.711,19.655-9.116C297.935,355.456,298.841,348.292,288.904,338.371z"/>
	</g>
</g>
<g>
	<g>
		<path d="M268.874,449.473h-40.002c-2.211,0-4,1.789-4,4s1.789,4,4,4h40.002c2.203,0,4-1.789,4-4S271.077,449.473,268.874,449.473z
			"/>
	</g>
</g>
<g>
</g>
<g>
</g>
<g>
</g>
<g>
</g>
<g>
</g>
<g>
</g>
<g>
</g>
<g>
</g>
<g>
</g>
<g>
</g>
<g>
</g>
<g>
</g>
<g>
</g>
<g>
</g>
<g>
</g>
</svg>
