<svg xmlns="http://www.w3.org/2000/svg">

<symbol id="entry" viewBox="0 0 14 14">
	<path d="M7.58333 5.25L9.33333 7M9.33333 7L7.58333 8.75M9.33333 7H4.66667M1.75 7C1.75 4.10051 4.10051 1.75 7 1.75C9.8995 1.75 12.25 4.10051 12.25 7C12.25 9.8995 9.8995 12.25 7 12.25C4.10051 12.25 1.75 9.8995 1.75 7Z" stroke="white" stroke-width="1.16667" stroke-linecap="round" stroke-linejoin="round"/>
</symbol>

<symbol id="telegram" viewBox="0 0 15 14">
	<path d="M3.60924 8.11186L5.47485 13.0644L7.90363 10.4852L12.0679 14L15 0L0 6.63493L3.60924 8.11186ZM10.7137 4.01674L6.12247 8.4638L5.55061 10.7525L4.49421 7.94743L10.7137 4.01674Z" />
</symbol>

<symbol id="vk" viewBox="-2.5 0 32 32">
	<path d="M16.563 15.75c-0.5-0.188-0.5-0.906-0.531-1.406-0.125-1.781 0.5-4.5-0.25-5.656-0.531-0.688-3.094-0.625-4.656-0.531-0.438 0.063-0.969 0.156-1.344 0.344s-0.75 0.5-0.75 0.781c0 0.406 0.938 0.344 1.281 0.875 0.375 0.563 0.375 1.781 0.375 2.781 0 1.156-0.188 2.688-0.656 2.75-0.719 0.031-1.125-0.688-1.5-1.219-0.75-1.031-1.5-2.313-2.063-3.563-0.281-0.656-0.438-1.375-0.844-1.656-0.625-0.438-1.75-0.469-2.844-0.438-1 0.031-2.438-0.094-2.719 0.5-0.219 0.656 0.25 1.281 0.5 1.813 1.281 2.781 2.656 5.219 4.344 7.531 1.563 2.156 3.031 3.875 5.906 4.781 0.813 0.25 4.375 0.969 5.094 0 0.25-0.375 0.188-1.219 0.313-1.844s0.281-1.25 0.875-1.281c0.5-0.031 0.781 0.406 1.094 0.719 0.344 0.344 0.625 0.625 0.875 0.938 0.594 0.594 1.219 1.406 1.969 1.719 1.031 0.438 2.625 0.313 4.125 0.25 1.219-0.031 2.094-0.281 2.188-1 0.063-0.563-0.563-1.375-0.938-1.844-0.938-1.156-1.375-1.5-2.438-2.563-0.469-0.469-1.063-0.969-1.063-1.531-0.031-0.344 0.25-0.656 0.5-1 1.094-1.625 2.188-2.781 3.188-4.469 0.281-0.5 0.938-1.656 0.688-2.219-0.281-0.625-1.844-0.438-2.813-0.438-1.25 0-2.875-0.094-3.188 0.156-0.594 0.406-0.844 1.063-1.125 1.688-0.625 1.438-1.469 2.906-2.344 4-0.313 0.375-0.906 1.156-1.25 1.031z"></path>
</symbol>

<symbol id="max" viewBox="0 0 42 42">
	<path fill-rule="evenodd" clip-rule="evenodd" d="M21.39 41.58C17.28 41.58 15.37 40.98 12.05 38.58C9.95 41.28 3.3 43.39 3.01 39.78C3.01 37.07 2.41 34.78 1.73 32.28C0.92 29.2 0 25.77 0 20.8C0 8.93 9.74 0 21.28 0C32.83 0 41.88 9.37 41.88 20.91C41.8986 26.3666 39.7516 31.6076 35.9101 35.4829C32.0686 39.3581 26.8465 41.5509 21.39 41.58ZM21.56 10.26C15.94 9.97 11.56 13.86 10.59 19.96C9.79 25.01 11.21 31.16 12.42 31.48C13 31.62 14.46 30.44 15.37 29.53C16.8747 30.5695 18.627 31.1938 20.45 31.34C23.2493 31.4746 25.9896 30.5057 28.0821 28.6414C30.1745 26.777 31.452 24.1662 31.64 21.37C31.7494 18.568 30.7545 15.8351 28.8694 13.7592C26.9842 11.6833 24.3595 10.4303 21.56 10.27V10.26Z" />
</symbol>

<symbol id="check" viewBox="0 0 10 8">
		<path fill-rule="evenodd" d="M3.527,5.957 L1.718,4.185 C1.620,4.089 1.488,4.036 1.350,4.036 C1.212,4.036 1.080,4.089 0.983,4.185 C0.779,4.384 0.779,4.705 0.983,4.905 L3.162,7.039 C3.365,7.238 3.693,7.238 3.897,7.039 L9.412,1.638 C9.615,1.439 9.615,1.117 9.412,0.918 C9.315,0.823 9.182,0.769 9.045,0.769 C8.907,0.769 8.774,0.823 8.677,0.918 L3.527,5.957 Z"/>
</symbol>

</svg>
