<svg width="43" height="24" viewBox="0 0 43 24" fill="none" xmlns="http://www.w3.org/2000/svg">
<path d="M4.81388 15.3249H6.16947C8.29979 15.3249 8.52108 14.2372 8.52108 13.6088C8.52108 12.8594 8.24442 11.8926 6.16947 11.8926H4.81388V15.3249ZM0 8.60547H7.22076C12.09 8.60547 13.4733 11.5543 13.4733 13.6088C13.4733 15.6874 12.09 18.6361 7.22076 18.6361H4.81388V23.5669H0V8.60547Z" fill="#E21E32"/>
<path d="M18.0936 12.1827H14.3311V8.60547H26.6701V12.1827H22.9075V23.5669H18.0936V12.1827Z" fill="#E21E32"/>
<path d="M41.0018 22.8886C39.4524 23.8071 37.8478 24.0005 36.3814 24.0005C31.2909 24.0005 27.6113 20.8584 27.6113 16.0726C27.6113 11.0694 31.6506 8.16895 36.2985 8.16895C37.8201 8.16895 39.5631 8.50739 41.0018 9.3533V13.704C40.1164 12.8096 38.7884 11.9154 36.9348 11.9154C34.3065 11.9154 32.5636 13.7524 32.5636 16.2177C32.5636 18.4655 34.1958 20.2541 36.9348 20.2541C38.7331 20.2541 40.1164 19.4081 41.0018 18.6347V22.8886Z" fill="#E21E32"/>
<path d="M10.3746 0.652395H8.60352V0.168945H12.865V0.652395H11.0664V4.56791H10.3746V0.652395Z" fill="#E21E32"/>
<path d="M17.7336 1.93362C17.706 1.23272 17.125 0.483448 16.1013 0.483448C15.1607 0.483448 14.469 1.06353 14.3307 1.93362H17.7336ZM18.4253 3.40806C18.0103 4.13315 17.291 4.73741 16.1013 4.73741C14.4137 4.73741 13.5283 3.55306 13.5283 2.36871C13.5283 1.1119 14.4137 0 16.1013 0C17.8166 0 18.4253 1.28108 18.4253 2.12698V2.41707H14.2753C14.2477 3.26297 14.8564 4.25397 16.1013 4.25397C16.5163 4.25397 17.3186 4.20569 17.872 3.16634L18.4253 3.40806Z" fill="#E21E32"/>
<path d="M19.8096 0.168945H20.5014V2.07839H23.3239V0.168945H24.0157V4.56791H23.3239V2.56183H20.5014V4.56791H19.8096V0.168945Z" fill="#E21E32"/>
<path d="M28.7463 0.652395H26.8927V2.73102C26.8927 3.3111 26.7267 3.77028 26.2564 4.08455H28.7463V0.652395ZM29.438 0.168945V4.08455H30.1572V5.67981H29.521V4.56791H25.703V5.67981H25.0391V4.08455C26.118 4.01201 26.201 3.09356 26.201 2.32011V0.168945H29.438Z" fill="#E21E32"/>
<path d="M35.1369 1.93362C35.1092 1.23272 34.5558 0.483448 33.5322 0.483448C32.5915 0.483448 31.8723 1.06353 31.7339 1.93362H35.1369ZM35.8285 3.40806C35.4136 4.13315 34.7219 4.73741 33.5322 4.73741C31.8446 4.73741 30.9316 3.55306 30.9316 2.36871C30.9316 1.1119 31.8446 0 33.5322 0C35.2476 0 35.8285 1.28108 35.8285 2.12698V2.41707H31.6786C31.6509 3.26297 32.2872 4.25397 33.5322 4.25397C33.9196 4.25397 34.7495 4.20569 35.3028 3.16634L35.8285 3.40806Z" fill="#E21E32"/>
<path d="M41.6104 2.36871C41.6104 1.49862 41.0571 0.483448 39.6739 0.483448C38.5949 0.483448 37.8755 1.32935 37.8755 2.36871C37.8755 3.60142 38.7885 4.25397 39.7845 4.25397C40.9188 4.25397 41.6104 3.43224 41.6104 2.36871ZM37.8755 0.169181V0.942629C38.1799 0.459266 38.7609 0 39.7568 0C41.2785 0 42.3298 0.942629 42.3298 2.36871C42.3298 3.69806 41.3615 4.73741 39.7845 4.73741C38.7332 4.73741 38.1799 4.20569 37.9309 3.89142V6.67104H37.2393V0.169181H37.8755Z" fill="#E21E32"/>
</svg>
