<svg xmlns="http://www.w3.org/2000/svg">

	<symbol id="i-tel" viewBox="0 0 20 21">
		<path d="M20 15.42V18.42C20.0011 18.6985 19.9441 18.9742 19.8325 19.2293C19.7209 19.4845 19.5573 19.7136 19.3521 19.9019C19.1469 20.0901 18.9046 20.2335 18.6407 20.3227C18.3769 20.4119 18.0974 20.4451 17.82 20.42C14.7428 20.0856 11.787 19.0341 9.18999 17.35C6.77382 15.8147 4.72533 13.7662 3.18999 11.35C1.49997 8.74121 0.448237 5.771 0.119994 2.68C0.0950046 2.40347 0.127869 2.12476 0.216495 1.86163C0.30512 1.59849 0.447565 1.35669 0.63476 1.15162C0.821955 0.946555 1.0498 0.782711 1.30379 0.670524C1.55777 0.558336 1.83233 0.500263 2.10999 0.500002H5.10999C5.5953 0.495225 6.06579 0.66708 6.43376 0.983534C6.80173 1.29999 7.04207 1.73945 7.10999 2.22C7.23662 3.18007 7.47144 4.12273 7.80999 5.03C7.94454 5.38793 7.97366 5.77692 7.8939 6.15088C7.81415 6.52485 7.62886 6.86811 7.35999 7.14L6.08999 8.41C7.51355 10.9135 9.58645 12.9864 12.09 14.41L13.36 13.14C13.6319 12.8711 13.9751 12.6859 14.3491 12.6061C14.7231 12.5263 15.1121 12.5555 15.47 12.69C16.3773 13.0286 17.3199 13.2634 18.28 13.39C18.7658 13.4585 19.2094 13.7032 19.5265 14.0775C19.8437 14.4518 20.0122 14.9296 20 15.42Z" />
	</symbol>

	<symbol id="i-telegram" viewBox="0 0 19 17">
		<path d="M19 0.602225L15.9946 16.2923C15.9946 16.2923 15.5741 17.3801 14.4189 16.8584L7.48458 11.3526L7.45242 11.3364C8.38909 10.4654 15.6524 3.70266 15.9698 3.39612C16.4613 2.92136 16.1562 2.63873 15.5856 2.99736L4.85679 10.053L0.717638 8.61077C0.717638 8.61077 0.0662573 8.37083 0.00359284 7.84911C-0.0598962 7.32653 0.739076 7.0439 0.739076 7.0439L17.6131 0.188948C17.6131 0.188948 19 -0.44207 19 0.602225Z"/>
	</symbol>

	<symbol id="i-whatsapp" viewBox="0 0 40 40">
		<path d="M34.1463 5.83333C30.3833 2.08333 25.3658 0 20.0697 0C9.05923 0 0.139371 8.88889 0.139371 19.8611C0.139371 23.3333 1.11498 26.8056 2.78746 29.7222L0 40L10.5923 37.2222C13.5192 38.75 16.7247 39.5833 20.0697 39.5833C31.0801 39.5833 40 30.6944 40 19.7222C39.8606 14.5833 37.9094 9.58333 34.1463 5.83333ZM29.6864 26.9444C29.2683 28.0556 27.3171 29.1667 26.3415 29.3056C25.5052 29.4444 24.3902 29.4444 23.2753 29.1667C22.5784 28.8889 21.6028 28.6111 20.4878 28.0556C15.4704 25.9722 12.2648 20.9722 11.9861 20.5556C11.7073 20.2778 9.89547 17.9167 9.89547 15.4167C9.89547 12.9167 11.1498 11.8056 11.5679 11.25C11.9861 10.6944 12.5436 10.6944 12.9617 10.6944C13.2404 10.6944 13.6585 10.6944 13.9373 10.6944C14.216 10.6944 14.6341 10.5556 15.0523 11.5278C15.4704 12.5 16.446 15 16.5854 15.1389C16.7247 15.4167 16.7247 15.6944 16.5854 15.9722C16.446 16.25 16.3066 16.5278 16.0279 16.8056C15.7491 17.0833 15.4704 17.5 15.331 17.6389C15.0523 17.9167 14.7735 18.1944 15.0523 18.6111C15.331 19.1667 16.3066 20.6944 17.8397 22.0833C19.7909 23.75 21.324 24.3056 21.8815 24.5833C22.439 24.8611 22.7178 24.7222 22.9965 24.4444C23.2753 24.1667 24.2509 23.0556 24.5296 22.5C24.8084 21.9444 25.2265 22.0833 25.6446 22.2222C26.0627 22.3611 28.5714 23.6111 28.9895 23.8889C29.547 24.1667 29.8258 24.3056 29.9651 24.4444C30.1045 24.8611 30.1045 25.8333 29.6864 26.9444Z"/>
	</symbol>

	<symbol id="i-right-down" viewBox="0 0 10 10">
		<path d="M8.12397 6.79843L8.10836 0.632108L9.98103 0.636821L10.0046 10L0.641461 9.97639L0.636739 8.10373L6.80315 8.11925L0.00463867 1.32081L1.32545 0L8.12397 6.79843Z"/>
	</symbol>

	<symbol id="i-down" viewBox="0 0 10 6">
		<path d="M4.63225 5.32683L4.97149 5.66606L9.55485 1.08269L8.87635 0.404209L4.94777 4.33282L0.876906 0.261948L0.222137 0.916713L4.63225 5.32683Z"/>
	</symbol>

	<symbol id="i-arrow-next" viewBox="0 0 8 14">
		<path d="M1 13L7 7L1 1" stroke-width="2" stroke-linecap="round" stroke-linejoin="round"/>
	</symbol>

	<symbol id="i-cheked" viewBox="0 0 8 14">
		<path d="M12.3337 1L5.00033 8.33333L1.66699 5" stroke-width="2" stroke-linecap="round" stroke-linejoin="round"/>
	</symbol>

	<symbol id="i-cheked-bold" viewBox="0 0 14 11">
		<path d="M12.3337 1.94995L5.00033 9.28328L1.66699 5.94995" stroke-width="3" stroke-linecap="round" stroke-linejoin="round"/>
	</symbol>

	<symbol id="i-hand" viewBox="0 0 24 24">
		<path d="M17.1668 11.1733C17.1668 12.5307 17.1668 9.81592 17.1668 11.1733ZM17.1668 11.1733C17.1668 12.5307 17.1668 13.8881 17.1668 13.8881M17.1668 11.1733C17.1668 9.81592 20.0001 9.81592 20.0001 11.1733C20.0001 12.5307 20.0001 12.8701 20.0001 18.2997C20.0001 23.7294 7.85591 23.7756 5.68023 18.2997C4.87315 16.2684 5.01308 16.7027 4.2713 14.941C3.52953 13.1794 5.97114 12.1286 6.9472 13.8881C7.92326 15.6477 8.66677 18.4383 8.66677 17.2817C8.66677 16.125 8.66677 12.5307 8.66677 11.1733C8.66677 9.81592 8.66677 5.37546 8.66677 4.01805C8.66677 2.66065 11.5001 2.66065 11.5001 4.01805M17.1668 11.1733C17.1668 9.81592 14.3239 9.81592 14.3334 11.1733M14.3334 11.1733C14.3334 9.81592 11.5001 9.81592 11.5001 11.1733C11.5001 11.4976 11.5001 3.66565 11.5001 4.01805M14.3334 11.1733C14.3334 11.4976 14.3334 10.8209 14.3334 11.1733ZM14.3334 11.1733C14.3477 13.2094 14.3334 13.8881 14.3334 13.8881M11.5001 13.8881C11.5001 13.8881 11.5001 7.41019 11.5001 4.01805" stroke-width="1.75" stroke-linecap="round"/>
	</symbol>

	<symbol id="i-list" viewBox="0 0 28 28">
		<path d="M10.5 19.8333H14M10.5 10.5H17.5M10.5 15.1667H17.5M11.6667 2.33333H16.3333M7.83333 24.5H20.1667C21.2712 24.5 22.1667 23.6046 22.1667 22.5V7.83333C22.1667 6.72876 21.2712 5.83333 20.1667 5.83333H7.83334C6.72877 5.83333 5.83334 6.72876 5.83334 7.83333V22.5C5.83334 23.6046 6.72877 24.5 7.83333 24.5Z" stroke-width="2" stroke-linecap="round" stroke-linejoin="round"/>
	</symbol>

	<symbol id="i-chat" viewBox="0 0 28 28">
		<path d="M14 12.8333H14.0117M9.33333 12.8333H9.345M18.6667 12.8333H18.6783M14.3378 20.9982C21.1126 20.9234 24.5 18.5721 24.5 12.8333C24.5 7 21 4.66666 14 4.66666C7 4.66666 3.5 7 3.5 12.8333C3.5 16.4233 4.8256 18.6876 7.47679 19.8983L5.83333 24.5L14.3378 20.9982Z"  stroke-width="2" stroke-linecap="round" stroke-linejoin="round"/>
	</symbol>

	<symbol id="i-speaker" viewBox="0 0 28 28">
		<path d="M7 21V16.3333M7 16.3333H9.33333L15.1667 19.8333V8.16666L9.33333 11.6667H5.5C4.39543 11.6667 3.5 12.5621 3.5 13.6667V14.3333C3.5 15.4379 4.39543 16.3333 5.5 16.3333H7ZM19.8333 8.16666L22.1667 5.83333M19.8333 19.8333L22.1667 22.1667M22.1667 14H24.5" stroke-width="2" stroke-linecap="round" stroke-linejoin="round"/>
	</symbol>

	<symbol id="i-diagrama" viewBox="0 0 21 28">
		<path d="M13.5 0.875L20.25 7.625H13.5V0.875ZM11.8125 7.625C11.8125 8.57422 12.5508 9.3125 13.5 9.3125H20.25V25.3438C20.25 26.7676 19.0898 27.875 17.7188 27.875H2.53125C1.10742 27.875 0 26.7676 0 25.3438V3.40625C0 2.03516 1.10742 0.875 2.53125 0.875H11.8125V7.625ZM6.75 23.8672V20.123C6.75 19.8066 6.38086 19.4375 6.06445 19.4375H4.00781C3.69141 19.4375 3.375 19.8066 3.375 20.123V23.8672C3.375 24.1836 3.69141 24.5 4.00781 24.5H6.06445C6.38086 24.5 6.75 24.1836 6.75 23.8672ZM11.8125 23.8672V13.373C11.8125 13.0566 11.4434 12.6875 11.127 12.6875H9.07031C8.75391 12.6875 8.4375 13.0566 8.4375 13.373V23.8672C8.4375 24.1836 8.75391 24.5 9.07031 24.5H11.127C11.4434 24.5 11.8125 24.1836 11.8125 23.8672ZM14.1328 16.0625C13.8164 16.0625 13.5 16.4316 13.5 16.748V23.8672C13.5 24.1836 13.8164 24.5 14.1328 24.5H16.1895C16.5059 24.5 16.875 24.1836 16.875 23.8672V16.748C16.875 16.4316 16.5059 16.0625 16.1895 16.0625H14.1328Z"/>
	</symbol>

	<symbol id="i-search" viewBox="0 0 28 28">
		<path d="M26.8672 23.7891C27.6582 24.6328 27.6582 25.9512 26.8672 26.7949C26.0234 27.5859 24.7051 27.5859 23.8613 26.7949L17.5859 20.4668C15.4238 21.8906 12.7871 22.6289 9.93947 22.2598C5.08786 21.5742 1.18552 17.6191 0.552699 12.8203C-0.343781 5.64844 5.72067 -0.416021 12.8926 0.480465C17.6914 1.11328 21.6465 5.01561 22.332 9.8672C22.7012 12.7148 21.9629 15.3516 20.5391 17.4609L26.8672 23.7891ZM4.66599 11.3438C4.66599 15.0879 7.67185 18.0938 11.416 18.0938C15.1074 18.0938 18.166 15.0879 18.166 11.3438C18.166 7.65233 15.1074 4.59375 11.416 4.59375C7.67185 4.59375 4.66599 7.65233 4.66599 11.3438Z"/>
	</symbol>

	<symbol id="i-arrow-right" viewBox="0 0 21 10">
		<path d="M20.282 5.72328L16.342 9.72325C16.192 9.87325 16.002 9.94325 15.812 9.94325C15.622 9.94325 15.432 9.87325 15.282 9.72325C14.982 9.43328 14.982 8.96328 15.272 8.66328L17.962 5.94328H1.25195C0.841953 5.94328 0.501953 5.60328 0.501953 5.19328C0.501953 4.78328 0.841953 4.44328 1.25195 4.44328H17.962L15.272 1.72328C14.982 1.42328 14.982 0.953282 15.282 0.663282C15.572 0.363283 16.052 0.373283 16.342 0.663282L20.282 4.66328C20.572 4.96328 20.572 5.42328 20.282 5.72328Z"/>
	</symbol>

	<symbol id="i-document" viewBox="0 0 21 28">
		<path d="M13.5 0.875L20.25 7.625H13.5V0.875ZM11.8125 7.625C11.8125 8.57422 12.5508 9.3125 13.5 9.3125H20.25V25.3438C20.25 26.7676 19.0898 27.875 17.7188 27.875H2.53125C1.10742 27.875 0 26.7676 0 25.3438V3.40625C0 2.03516 1.10742 0.875 2.53125 0.875H11.8125V7.625ZM3.375 4.67188V5.51562C3.375 5.7793 3.5332 5.9375 3.79688 5.9375H8.01562C8.22656 5.9375 8.4375 5.7793 8.4375 5.51562V4.67188C8.4375 4.46094 8.22656 4.25 8.01562 4.25H3.79688C3.5332 4.25 3.375 4.46094 3.375 4.67188ZM3.375 8.04688V8.89062C3.375 9.1543 3.5332 9.3125 3.79688 9.3125H8.01562C8.22656 9.3125 8.4375 9.1543 8.4375 8.89062V8.04688C8.4375 7.83594 8.22656 7.625 8.01562 7.625H3.79688C3.5332 7.625 3.375 7.83594 3.375 8.04688ZM16.0312 21.125V21.1777H13.5C13.2891 21.1777 13.0781 21.0195 12.9727 20.8086C12.3398 19.543 10.5469 19.2266 9.49219 20.0703L8.75391 17.8555C8.5957 17.3281 8.12109 17.0117 7.59375 17.0117C7.01367 17.0117 6.53906 17.3281 6.38086 17.8555L5.43164 20.7559C5.32617 20.9668 5.11523 21.125 4.85156 21.125H4.21875C3.74414 21.125 3.375 21.5469 3.375 21.9688C3.375 22.4434 3.74414 22.8125 4.21875 22.8125H4.85156C5.85352 22.8125 6.69727 22.2324 7.01367 21.2832L7.59375 19.5957L8.4375 22.2324C8.54297 22.6016 8.85938 22.8125 9.17578 22.8125H9.28125C9.54492 22.8125 9.86133 22.6543 10.0195 22.3906L10.4414 21.5469C10.5469 21.2832 10.8105 21.2305 10.9688 21.2305C11.0742 21.2305 11.3379 21.2832 11.4961 21.5996C11.8652 22.3379 12.6562 22.8125 13.5 22.8125H16.0312C16.4531 22.8125 16.875 22.4434 16.875 21.9688C16.875 21.5469 16.4531 21.125 16.0312 21.125Z"/>
	</symbol>

	<symbol id="i-case" viewBox="0 0 512 512">
		<path d="M1.20792265e-13,197.76 C54.5835501,218.995667 112.186031,231.452204 170.666667,234.666667 L170.666667,277.333333 L256,277.333333 L256,234.666667 C314.339546,231.013 371.833936,218.86731 426.666667,198.613333 L426.666667,362.666667 L1.20792265e-13,362.666667 L1.20792265e-13,197.76 Z M277.333333,-1.42108547e-14 L298.666667,21.3333333 L298.666667,64 L426.666667,64 L426.666667,175.146667 C361.254942,199.569074 292.110481,212.488551 222.293333,213.333333 L222.293333,213.333333 L206.933333,213.333333 C136.179047,212.568604 66.119345,199.278929 7.10542736e-15,174.08 L7.10542736e-15,174.08 L7.10542736e-15,64 L128,64 L128,21.3333333 L149.333333,-1.42108547e-14 L277.333333,-1.42108547e-14 Z M256,42.6666667 L170.666667,42.6666667 L170.666667,64 L256,64 L256,42.6666667 Z" />
	</symbol>

	<symbol id="i-star" viewBox="0 0 20 21">
		<path d="M9.10362 4.43345C9.47045 3.69028 10.5302 3.69028 10.897 4.43345L12.3429 7.36258C12.4884 7.65743 12.7696 7.86189 13.095 7.90944L16.3299 8.38227C17.1498 8.50212 17.4766 9.50996 16.883 10.0881L14.5438 12.3665C14.3079 12.5962 14.2002 12.9274 14.2559 13.2519L14.8078 16.4695C14.9479 17.2864 14.0903 17.9094 13.3567 17.5236L10.4658 16.0033C10.1744 15.85 9.82626 15.85 9.53487 16.0033L6.64396 17.5236C5.91033 17.9094 5.05278 17.2864 5.1929 16.4695L5.74474 13.2519C5.80041 12.9274 5.69274 12.5962 5.45687 12.3665L3.11767 10.0881C2.52408 9.50996 2.85086 8.50212 3.67077 8.38227L6.90569 7.90944C7.23105 7.86189 7.51223 7.65743 7.65777 7.36258L9.10362 4.43345Z" />
	</symbol>

</svg>