<svg xmlns="http://www.w3.org/2000/svg">

	<symbol id="i-dashboard" viewBox="0 0 1920 1920">
		<path d="M833.935 1063.327c28.913 170.315 64.038 348.198 83.464 384.79 27.557 51.84 92.047 71.944 144 44.387 51.84-27.558 71.717-92.273 44.16-144.113-19.426-36.593-146.937-165.46-271.624-285.064Zm-43.821-196.405c61.553 56.923 370.899 344.81 415.285 428.612 56.696 106.842 15.811 239.887-91.144 296.697-32.64 17.28-67.765 25.411-102.325 25.411-78.72 0-154.955-42.353-194.371-116.555-44.386-83.802-109.102-501.346-121.638-584.245-3.501-23.717 8.245-47.21 29.365-58.277 21.346-11.294 47.096-8.02 64.828 8.357ZM960.045 281.99c529.355 0 960 430.757 960 960 0 77.139-8.922 153.148-26.654 225.882l-10.39 43.144h-524.386v-112.942h434.258c9.487-50.71 14.231-103.115 14.231-156.084 0-467.125-380.047-847.06-847.059-847.06-467.125 0-847.059 379.935-847.059 847.06 0 52.97 4.744 105.374 14.118 156.084h487.454v112.942H36.977l-10.39-43.144C8.966 1395.137.044 1319.128.044 1241.99c0-529.243 430.645-960 960-960Zm542.547 390.686 79.85 79.85-112.716 112.715-79.85-79.85 112.716-112.715Zm-1085.184 0L530.123 785.39l-79.85 79.85L337.56 752.524l79.849-79.85Zm599.063-201.363v159.473H903.529V471.312h112.942Z" fill-rule="evenodd"/>
	</symbol>

	<symbol id="i-pay" viewBox="0 0 32 32">
		<path d="M28.918,15.952c-0.051-0.378-0.272-0.697-0.592-0.902c-0.212-0.136-0.475-0.137-0.697-0.042
	c-0.003-0.816,0-1.632-0.021-2.447c-0.021-0.915,0.029-1.829,0.063-2.742c0.012-0.301-0.181-0.561-0.44-0.689
	c-0.023-0.344-0.047-0.688-0.077-1.031c-0.019-0.205-0.036-0.41-0.065-0.613c-0.006-0.04-0.011-0.08-0.017-0.12
	c-0.015-0.106-0.063-0.289-0.123-0.37c-0.087-0.114-0.161-0.241-0.296-0.306c-0.099-0.047-0.194-0.093-0.302-0.108
	c-0.105-0.016-0.213-0.016-0.319-0.028c-0.023-0.337-0.041-0.674-0.056-1.011c0.038-0.087,0.059-0.181,0.059-0.279
	c0-0.395-0.329-0.718-0.72-0.722c-0.805-0.006-1.61,0.006-2.415-0.028c-0.724-0.03-1.447-0.072-2.174-0.087
	c-1.527-0.028-3.057-0.017-4.586-0.028c-1.5-0.01-2.998-0.04-4.501-0.044c-0.733-0.001-1.466-0.015-2.198-0.015
	c-0.706,0-1.413,0.013-2.118,0.062C6.545,4.457,5.757,4.635,5.041,4.947C4.342,5.249,3.714,5.851,3.497,6.593
	c-0.059,0.203-0.089,0.41-0.116,0.621C3.358,7.385,3.338,7.56,3.358,7.732c0.025,0.215,0.06,0.423,0.117,0.629
	C3.24,8.48,3.075,8.72,3.072,8.997c-0.01,0.798-0.006,1.595-0.021,2.391c-0.013,0.724-0.03,1.447-0.038,2.169
	c-0.013,1.462-0.021,2.922,0,4.385c0.015,1.016,0.038,2.032,0.042,3.048c0.006,1.02,0.019,2.041-0.004,3.063
	c-0.003,0.127,0.042,0.241,0.104,0.345c0.151,0.39,0.309,0.782,0.514,1.146c0.084,0.148,0.19,0.285,0.292,0.422
	c0.095,0.125,0.192,0.249,0.289,0.372c0.148,0.188,0.37,0.336,0.568,0.463c0.442,0.289,0.957,0.473,1.476,0.564
	c0.45,0.078,0.904,0.154,1.36,0.182c0.828,0.049,1.66,0.055,2.491,0.07c0.79,0.013,1.58,0.028,2.368,0.027
	c0.805,0,1.608-0.009,2.412-0.004c0.807,0.008,1.612,0.032,2.419,0.015c0.832-0.015,1.662-0.049,2.493-0.061
	c0.799-0.013,1.603-0.009,2.402-0.009c0.763,0,1.527,0,2.288-0.01c0.357-0.004,0.714,0,1.073,0.004
	c0.376,0.004,0.752,0.008,1.13,0.002c0.257-0.003,0.481-0.131,0.633-0.319c0.193-0.138,0.33-0.351,0.325-0.6
	c-0.017-0.86-0.008-1.72-0.017-2.581c-0.013-0.988,0.002-1.974,0.019-2.961c0.237-0.036,0.449-0.105,0.646-0.27
	c0.439-0.368,0.543-0.999,0.589-1.538c0.029-0.334,0.029-0.67,0.042-1.006c0.021-0.513,0.046-1.031,0.028-1.546
	C28.985,16.49,28.954,16.22,28.918,15.952z M7.703,8.835C7.706,8.762,7.71,8.688,7.694,8.613C7.69,8.594,7.687,8.574,7.683,8.555
	c-0.02-0.306-0.01-0.614-0.007-0.922c1.463,0.042,2.927,0.043,4.392,0.05c0.754,0.004,1.508,0.023,2.262,0.042
	c0.699,0.019,1.396,0.07,2.095,0.093c0.727,0.025,1.456,0.036,2.186,0.051c0.729,0.015,1.46,0.03,2.189,0.036
	c0.742,0.006,1.485,0.013,2.226,0.015c0.653,0.002,1.307,0.03,1.96,0.034c0.242,0.001,0.483,0.01,0.723,0.028
	c0.04,0.353,0.066,0.707,0.077,1.063c-0.389,0.008-0.779,0.004-1.166,0c-0.727-0.01-1.455-0.032-2.182-0.036
	c-1.46-0.008-2.917-0.057-4.377-0.068c-1.553-0.011-3.105,0.002-4.658-0.053c-0.999-0.034-2-0.032-2.998-0.03
	c-0.534,0-1.067,0.002-1.599-0.004C8.438,8.849,8.07,8.844,7.703,8.835z M27.418,19.574L27.418,19.574
	c0.001-0.001,0.003-0.003,0.005-0.005C27.422,19.571,27.42,19.573,27.418,19.574z M27.224,16.425
	c0.052,0.004,0.103,0.001,0.152-0.007c0.03,0.439,0.025,0.879,0.017,1.32c-0.004,0.279-0.009,0.558-0.015,0.839
	c-0.003,0.273,0.001,0.546-0.024,0.817c-0.012,0.063-0.026,0.125-0.043,0.187c-0.277,0.014-0.557,0.005-0.833-0.002
	c-0.336-0.008-0.672-0.011-1.008-0.011c-0.745,0-1.493,0.002-2.232-0.082c-0.225-0.04-0.443-0.097-0.657-0.176
	c-0.215-0.102-0.412-0.22-0.603-0.358c-0.072-0.063-0.141-0.128-0.207-0.197c-0.04-0.062-0.075-0.125-0.109-0.19
	c-0.035-0.094-0.067-0.189-0.093-0.288c-0.016-0.223-0.009-0.441,0.015-0.663c0.04-0.238,0.089-0.474,0.171-0.702
	c0.027-0.053,0.056-0.103,0.087-0.152c0.038-0.038,0.076-0.075,0.116-0.109c0.076-0.047,0.154-0.09,0.235-0.13
	c0.197-0.071,0.397-0.125,0.605-0.162c0.325-0.033,0.649-0.04,0.976-0.048c0.349-0.01,0.699-0.023,1.048-0.023
	C25.624,16.284,26.427,16.364,27.224,16.425z M4.895,7.3c0.023-0.124,0.051-0.245,0.091-0.364C5.014,6.88,5.045,6.827,5.078,6.775
	c0.087-0.098,0.18-0.19,0.279-0.276c0.127-0.087,0.259-0.159,0.399-0.226C6.231,6.092,6.73,5.979,7.23,5.903
	C7.913,5.83,8.593,5.797,9.279,5.792c0.725-0.004,1.451-0.011,2.176-0.013c0.676,0,1.352,0.004,2.03,0.008
	c0.811,0.004,1.624,0.009,2.436,0.004c1.523-0.009,3.046-0.013,4.569,0.017c0.729,0.015,1.456,0.03,2.186,0.078
	c0.601,0.042,1.203,0.056,1.805,0.072c0.014,0.177,0.026,0.355,0.046,0.533c-0.067,0-0.134-0.002-0.201-0.001
	c-1.424,0.009-2.848,0.03-4.273,0.009c-0.754-0.009-1.508-0.025-2.26-0.049c-0.712-0.021-1.422-0.027-2.133-0.055
	c-0.727-0.029-1.453-0.059-2.18-0.068c-0.727-0.011-1.455-0.01-2.182-0.019c-1.356-0.021-2.712-0.07-4.066-0.127
	c-0.009,0-0.018-0.001-0.027-0.001c-0.35,0-0.631,0.296-0.678,0.631c-0.211,0.135-0.361,0.359-0.36,0.623
	c0.002,0.44,0.01,0.883,0.066,1.321C6.203,8.749,6.171,8.75,6.139,8.746C5.907,8.71,5.677,8.671,5.454,8.597
	C5.382,8.56,5.314,8.519,5.246,8.473C5.21,8.441,5.177,8.408,5.145,8.372C5.091,8.285,5.046,8.196,5.004,8.104
	C4.954,7.972,4.915,7.84,4.886,7.702C4.877,7.567,4.882,7.435,4.895,7.3z M24.46,25.97c-0.777,0.019-1.555,0.017-2.332,0.034
	c-1.662,0.032-3.323,0.089-4.987,0.101c-0.771,0.004-1.544,0.021-2.315,0.015c-0.82-0.004-1.639-0.015-2.457-0.017
	c-0.773-0.002-1.546,0.008-2.319,0.011c-0.832,0.002-1.669,0.006-2.497-0.076c-0.066-0.007-0.132-0.013-0.198-0.02
	c-0.451-0.064-0.905-0.144-1.331-0.302c-0.17-0.084-0.334-0.177-0.49-0.284c-0.108-0.095-0.203-0.198-0.294-0.308
	c-0.08-0.106-0.158-0.215-0.231-0.328c-0.079-0.126-0.141-0.265-0.201-0.402c-0.069-0.17-0.135-0.342-0.2-0.515
	c-0.039-0.103-0.087-0.194-0.148-0.275c-0.01-1.288-0.01-2.575-0.027-3.861c-0.011-0.714-0.025-1.43-0.034-2.144
	c-0.011-0.733-0.002-1.468-0.004-2.201C4.395,14.349,4.393,13.3,4.42,12.25c0.02-0.816,0.045-1.631,0.067-2.447
	c0.048,0.03,0.095,0.063,0.143,0.09c0.399,0.22,0.845,0.275,1.289,0.329c0.372,0.046,0.746,0.066,1.122,0.08
	c0.746,0.027,1.495,0.017,2.243,0.017c0.788,0,1.574-0.009,2.362-0.013c0.775-0.006,1.546,0.03,2.32,0.055
	c0.746,0.023,1.493,0.023,2.241,0.023c0.775-0.002,1.551-0.008,2.326-0.006c0.76,0.002,1.519,0.047,2.277,0.093
	c1.424,0.084,2.854,0.089,4.28,0.106c0.337,0.004,0.679,0,1.02-0.014c-0.021,1.427-0.002,2.855,0.004,4.282
	c-0.467-0.022-0.934-0.055-1.402-0.06c-0.359-0.004-0.718-0.015-1.075-0.021c-0.036-0.001-0.071-0.001-0.107-0.001
	c-0.398,0-0.791,0.038-1.186,0.09c-0.429,0.059-0.866,0.234-1.234,0.46c-0.275,0.169-0.469,0.395-0.663,0.648
	c-0.122,0.159-0.194,0.384-0.262,0.566c-0.074,0.196-0.114,0.406-0.154,0.612c-0.103,0.528-0.152,1.063-0.042,1.595
	c0.027,0.133,0.08,0.262,0.129,0.389c0.122,0.317,0.287,0.579,0.515,0.832c0.18,0.201,0.422,0.357,0.642,0.511
	c0.142,0.099,0.298,0.18,0.456,0.253c0.224,0.101,0.456,0.207,0.697,0.266c0.427,0.106,0.873,0.141,1.312,0.165
	c0.492,0.027,0.987,0.023,1.483,0.019c0.209-0.002,0.42-0.004,0.63-0.004c0.088,0,0.175,0.001,0.263,0.002
	c-0.011,1.592,0.04,3.183,0.053,4.774C25.6,25.947,25.03,25.957,24.46,25.97z M24.132,17.865c0,0.431-0.359,0.791-0.791,0.791
	c-0.431,0-0.791-0.359-0.791-0.791c0-0.431,0.359-0.791,0.791-0.791C23.772,17.074,24.132,17.434,24.132,17.865z"/>
	</symbol>

	<symbol id="i-down" viewBox="0 0 24 24">
		<path fill-rule="evenodd" clip-rule="evenodd" d="M4.29289 8.29289C4.68342 7.90237 5.31658 7.90237 5.70711 8.29289L12 14.5858L18.2929 8.29289C18.6834 7.90237 19.3166 7.90237 19.7071 8.29289C20.0976 8.68342 20.0976 9.31658 19.7071 9.70711L12.7071 16.7071C12.3166 17.0976 11.6834 17.0976 11.2929 16.7071L4.29289 9.70711C3.90237 9.31658 3.90237 8.68342 4.29289 8.29289Z" />
	</symbol>

	<symbol id="i-home" viewBox="0 0 24 24">
		<path d="M22 22H2" stroke-width="1.5" stroke-linecap="round"/>
		<path d="M20 22V11" stroke-width="1.5" stroke-linecap="round"/>
		<path d="M4 22V11" stroke-width="1.5" stroke-linecap="round"/>
		<path d="M16.5278 2H7.47214C6.26932 2 5.66791 2 5.18461 2.2987C4.7013 2.5974 4.43234 3.13531 3.89443 4.21114L2.49081 7.75929C2.16652 8.57905 1.88279 9.54525 2.42867 10.2375C2.79489 10.7019 3.36257 11 3.99991 11C5.10448 11 5.99991 10.1046 5.99991 9C5.99991 10.1046 6.89534 11 7.99991 11C9.10448 11 9.99991 10.1046 9.99991 9C9.99991 10.1046 10.8953 11 11.9999 11C13.1045 11 13.9999 10.1046 13.9999 9C13.9999 10.1046 14.8953 11 15.9999 11C17.1045 11 17.9999 10.1046 17.9999 9C17.9999 10.1046 18.8953 11 19.9999 11C20.6373 11 21.205 10.7019 21.5712 10.2375C22.1171 9.54525 21.8334 8.57905 21.5091 7.75929L20.1055 4.21114C19.5676 3.13531 19.2986 2.5974 18.8153 2.2987C18.332 2 17.7306 2 16.5278 2Z" stroke-width="1.5" stroke-linejoin="round"/>
		<path d="M9.5 21.5V18.5C9.5 17.5654 9.5 17.0981 9.70096 16.75C9.83261 16.522 10.022 16.3326 10.25 16.201C10.5981 16 11.0654 16 12 16C12.9346 16 13.4019 16 13.75 16.201C13.978 16.3326 14.1674 16.522 14.299 16.75C14.5 17.0981 14.5 17.5654 14.5 18.5V21.5" stroke-width="1.5" stroke-linecap="round"/>
	</symbol>

	<symbol id="i-money" viewBox="0 0 20 20">
		<path d="M10.6 9c-.4-.1-.8-.3-1.1-.6-.3-.1-.4-.4-.4-.6 0-.2.1-.5.3-.6.3-.2.6-.4.9-.3.6 0 1.1.3 1.4.7l.9-1.2c-.3-.3-.6-.5-.9-.7-.3-.2-.7-.3-1.1-.3V4H9.4v1.4c-.5.1-1 .4-1.4.8-.4.5-.7 1.1-.6 1.7 0 .6.2 1.2.6 1.6.5.5 1.2.8 1.8 1.1.3.1.7.3 1 .5.2.2.3.5.3.8 0 .3-.1.6-.3.9-.3.3-.7.4-1 .4-.4 0-.9-.1-1.2-.4-.3-.2-.6-.5-.8-.8l-1 1.1c.3.4.6.7 1 1 .5.3 1.1.6 1.7.6V16h1.1v-1.5c.6-.1 1.1-.4 1.5-.8.5-.5.8-1.3.8-2 0-.6-.2-1.3-.7-1.7-.5-.5-1-.8-1.6-1zM10 2c-4.4 0-8 3.6-8 8s3.6 8 8 8 8-3.6 8-8-3.6-8-8-8zm0 14.9c-3.8 0-6.9-3.1-6.9-6.9S6.2 3.1 10 3.1s6.9 3.1 6.9 6.9-3.1 6.9-6.9 6.9z"/>
	</symbol>

	<symbol id="i-rating" viewBox="0 0 72 72">
		<path d="M65.81,68h-60c-1.104,0-2-0.896-2-2s0.896-2,2-2h60c1.104,0,2,0.896,2,2S66.914,68,65.81,68z"/>
		<path d="M23.19,53.068c0,3.828-3.104,6.932-6.932,6.932h-5.137c-3.828,0-6.932-3.104-6.932-6.932V32.932 C4.19,29.104,7.294,26,11.122,26h5.137c3.828,0,6.932,3.104,6.932,6.932V53.068z M19.19,32.932c0-1.619-1.313-2.932-2.932-2.932 h-5.137c-1.619,0-2.932,1.313-2.932,2.932v20.137C8.19,54.688,9.503,56,11.122,56h5.137c1.619,0,2.932-1.313,2.932-2.932V32.932z" />
		<path d="M46.19,53.068c0,3.828-3.104,6.932-6.932,6.932h-5.137c-3.828,0-6.932-3.104-6.932-6.932V21.932
			c0-3.828,3.104-6.932,6.932-6.932h5.137c3.828,0,6.932,3.104,6.932,6.932V53.068z M42.19,21.932c0-1.619-1.313-2.932-2.932-2.932
			h-5.137c-1.619,0-2.932,1.313-2.932,2.932v31.137c0,1.619,1.313,2.932,2.932,2.932h5.137c1.619,0,2.932-1.313,2.932-2.932V21.932z
			"/>
		<path d="M56,19c-0.553,0-0.81-0.447-0.81-1v-6.038C55.19,10,56.801,10,57.456,10h2.354c0.552,0,1,0.447,1,1s-0.448,1-1,1h-2.354
					c-0.336,0-0.531,0.016-0.644,0.035L56.905,18C56.905,18.553,56.552,19,56,19z"/>
		<path d="M55.81,21.18c-0.261,0-0.521-0.11-0.71-0.29c-0.181-0.189-0.29-0.45-0.29-0.71s0.109-0.52,0.29-0.71
					c0.38-0.38,1.05-0.37,1.42,0c0.18,0.19,0.29,0.44,0.29,0.71c0,0.26-0.11,0.521-0.29,0.71
					C56.329,21.069,56.069,21.18,55.81,21.18z"/>
		<path d="M68.19,53.068c0,3.828-3.104,6.932-6.932,6.932h-5.137c-3.828,0-6.932-3.104-6.932-6.932V10.932
				C49.19,7.104,52.294,4,56.122,4h5.137c3.828,0,6.932,3.104,6.932,6.932V53.068z M64.19,10.932C64.19,9.313,62.878,8,61.259,8
				h-5.137c-1.619,0-2.932,1.313-2.932,2.932v42.137c0,1.619,1.313,2.932,2.932,2.932h5.137c1.619,0,2.932-1.313,2.932-2.932V10.932
				z"/>
	</symbol>

	<symbol id="i-user" viewBox="0 0 24 24">
		<path fill-rule="evenodd" clip-rule="evenodd" d="M12 6C9.79086 6 8 7.79086 8 10C8 12.2091 9.79086 14 12 14C14.2091 14 16 12.2091 16 10C16 7.79086 14.2091 6 12 6Z" />
		<path fill-rule="evenodd" clip-rule="evenodd" d="M12 2C6.47715 2 2 6.47715 2 12C2 17.5228 6.47715 22 12 22C17.5228 22 22 17.5228 22 12C22 6.47715 17.5228 2 12 2ZM4 12C4 7.58172 7.58172 4 12 4C16.4183 4 20 7.58172 20 12C20 14.0289 19.2447 15.8813 18.0001 17.2916C16.4085 15.8674 14.3052 15 12.0002 15C9.69511 15 7.5917 15.8675 6.00015 17.2918C4.75533 15.8815 4 14.029 4 12Z" />
	</symbol>

	<symbol id="i-copy" viewBox="0 0 1024 1024">
		<path d="M768 832a128 128 0 0 1-128 128H192A128 128 0 0 1 64 832V384a128 128 0 0 1 128-128v64a64 64 0 0 0-64 64v448a64 64 0 0 0 64 64h448a64 64 0 0 0 64-64h64z"/>
		<path d="M384 128a64 64 0 0 0-64 64v448a64 64 0 0 0 64 64h448a64 64 0 0 0 64-64V192a64 64 0 0 0-64-64H384zm0-64h448a128 128 0 0 1 128 128v448a128 128 0 0 1-128 128H384a128 128 0 0 1-128-128V192A128 128 0 0 1 384 64z"/>
	</symbol>

	<symbol id="i-plus" viewBox="0 0 22 22">
		<path d="M12 17H10V12H5V10H10V5H12V10H17V12H12Z" />
	</symbol>

	<symbol id="i-calendar" viewBox="0 0 24 24">
		<path d="M7 14C7 13.4477 7.44772 13 8 13C8.55229 13 9 13.4477 9 14C9 14.5523 8.55229 15 8 15C7.44772 15 7 14.5523 7 14Z" />
		<path d="M8 17C7.44772 17 7 17.4477 7 18C7 18.5523 7.44772 19 8 19C8.55229 19 9 18.5523 9 18C9 17.4477 8.55229 17 8 17Z" />
		<path d="M11 14C11 13.4477 11.4477 13 12 13C12.5523 13 13 13.4477 13 14C13 14.5523 12.5523 15 12 15C11.4477 15 11 14.5523 11 14Z" />
		<path d="M12 17C11.4477 17 11 17.4477 11 18C11 18.5523 11.4477 19 12 19C12.5523 19 13 18.5523 13 18C13 17.4477 12.5523 17 12 17Z" />
		<path d="M15 14C15 13.4477 15.4477 13 16 13C16.5523 13 17 13.4477 17 14C17 14.5523 16.5523 15 16 15C15.4477 15 15 14.5523 15 14Z" />
		<path d="M16 17C15.4477 17 15 17.4477 15 18C15 18.5523 15.4477 19 16 19C16.5523 19 17 18.5523 17 18C17 17.4477 16.5523 17 16 17Z" />
		<path fill-rule="evenodd" clip-rule="evenodd" d="M6 2C6 1.44772 6.44772 1 7 1C7.55228 1 8 1.44772 8 2V3H16V2C16 1.44772 16.4477 1 17 1C17.5523 1 18 1.44772 18 2V3H19C20.6569 3 22 4.34315 22 6V20C22 21.6569 20.6569 23 19 23H5C3.34315 23 2 21.6569 2 20V6C2 4.34315 3.34315 3 5 3H6V2ZM16 5V6C16 6.55228 16.4477 7 17 7C17.5523 7 18 6.55228 18 6V5H19C19.5523 5 20 5.44772 20 6V9H4V6C4 5.44772 4.44772 5 5 5H6V6C6 6.55228 6.44772 7 7 7C7.55228 7 8 6.55228 8 6V5H16ZM4 11V20C4 20.5523 4.44772 21 5 21H19C19.5523 21 20 20.5523 20 20V11H4Z" />
	</symbol>

	<symbol id="i-down-right" viewBox="0 0 16 16">
		<path d="M11 15H12L16 11L12 7H11V10H5C3.34315 10 2 8.65685 2 7C2 5.34315 3.34315 4 5 4H12V2H5C2.23858 2 0 4.23858 0 7C0 9.76142 2.23858 12 5 12H11V15Z" />
	</symbol>

</svg>