<svg 
 xmlns="http://www.w3.org/2000/svg"
 xmlns:xlink="http://www.w3.org/1999/xlink"
 width="61px" height="70px">
<defs>
<linearGradient id="PSgrad_0" x1="0%" x2="88.295%" y1="46.947%" y2="0%">
  <stop offset="0%" stop-color="rgb(126,92,40)" stop-opacity="1" />
  <stop offset="50%" stop-color="rgb(242,220,149)" stop-opacity="1" />
  <stop offset="100%" stop-color="rgb(159,119,54)" stop-opacity="1" />
</linearGradient>

</defs>
<path fill-rule="evenodd"  fill="url(#PSgrad_0)"
 d="M31.995,69.369 L30.500,69.996 L29.007,69.369 C27.822,68.874 0.003,56.969 0.003,36.668 L0.003,11.971 L1.205,10.836 C1.673,10.392 12.863,0.002 30.500,0.002 C48.139,0.002 59.324,10.392 59.796,10.836 L61.000,11.971 L61.000,36.668 C61.000,56.969 33.180,68.874 31.995,69.369 ZM53.294,15.420 C50.315,13.130 41.992,7.673 30.500,7.673 C18.918,7.673 10.670,13.113 7.708,15.403 L7.708,36.668 C7.708,49.641 25.208,59.054 30.500,61.608 C35.795,59.054 53.294,49.641 53.294,36.668 L53.294,15.420 ZM42.256,39.051 C42.815,39.315 43.203,39.881 43.203,40.541 C43.203,41.177 42.839,41.725 42.308,41.997 C42.430,42.617 42.635,43.271 42.953,43.923 C42.953,43.923 40.406,43.944 37.618,44.193 L34.933,46.854 L26.435,46.854 L23.742,44.183 C20.991,43.944 18.504,43.923 18.504,43.923 C18.830,43.250 19.036,42.578 19.160,41.945 C18.678,41.659 18.354,41.136 18.354,40.541 C18.354,39.917 18.696,39.376 19.206,39.097 C18.987,37.706 18.504,36.809 18.504,36.809 L12.603,22.482 C12.603,22.482 17.853,24.506 17.773,29.026 C18.206,28.368 18.937,27.762 20.091,27.249 C20.091,27.249 18.265,28.800 20.367,31.414 C22.186,33.678 20.089,34.770 19.494,35.022 C19.706,35.247 19.941,35.483 20.201,35.710 C25.158,39.451 28.400,35.121 29.034,34.152 C29.063,34.089 29.086,34.024 29.110,33.965 C28.738,33.956 25.892,33.797 26.783,30.869 C27.743,27.742 25.435,26.886 25.435,26.886 C26.841,26.994 27.815,27.387 28.477,27.926 C26.503,23.666 30.727,19.989 30.727,19.989 C30.727,19.989 34.860,23.587 33.045,27.782 C33.701,27.317 34.616,26.983 35.896,26.886 C35.896,26.886 33.588,27.742 34.547,30.869 C35.380,33.580 32.992,33.918 32.344,33.962 C32.367,34.022 32.392,34.089 32.419,34.152 C33.056,35.121 36.297,39.451 41.254,35.710 C41.513,35.483 41.748,35.247 41.961,35.022 C41.366,34.770 39.269,33.678 41.088,31.414 C43.191,28.800 41.359,27.249 41.359,27.249 C42.519,27.762 43.251,28.368 43.682,29.026 C43.604,24.506 48.853,22.482 48.853,22.482 L42.953,36.809 C42.953,36.809 42.475,37.687 42.256,39.051 Z"/>
</svg>