<svg xmlns="http://www.w3.org/2000/svg">

	<symbol id="i-star" viewBox="0 0 512.002 512.002">
		<path d="M511.267,197.258c-1.764-5.431-6.457-9.389-12.107-10.209l-158.723-23.065L269.452,20.157
            c-2.526-5.12-7.741-8.361-13.45-8.361c-5.71,0-10.924,3.241-13.451,8.361l-70.988,143.827l-158.72,23.065
            c-5.649,0.82-10.344,4.778-12.108,10.208c-1.765,5.431-0.293,11.392,3.796,15.377l114.848,111.954L92.271,482.671
            c-0.966,5.628,1.348,11.314,5.967,14.671c2.613,1.898,5.708,2.864,8.818,2.864c2.388,0,4.784-0.569,6.978-1.723l141.967-74.638
            l141.961,74.637c5.055,2.657,11.178,2.215,15.797-1.141c4.619-3.356,6.934-9.044,5.969-14.672l-27.117-158.081l114.861-111.955
            C511.56,208.649,513.033,202.688,511.267,197.258z"/>
	</symbol>
	<symbol id="i-telegram" viewBox="0 0 24 24">
		<path d="m9.417 15.181-.397 5.584c.568 0 .814-.244 1.109-.537l2.663-2.545 5.518 4.041c1.012.564 1.725.267 1.998-.931l3.622-16.972.001-.001c.321-1.496-.541-2.081-1.527-1.714l-21.29 8.151c-1.453.564-1.431 1.374-.247 1.741l5.443 1.693 12.643-7.911c.595-.394 1.136-.176.691.218z"/>
	</symbol>
	<symbol id="i-whatsapp" viewBox="0 0 24 24">
		<path d="m17.507 14.307-.009.075c-2.199-1.096-2.429-1.242-2.713-.816-.197.295-.771.964-.944 1.162-.175.195-.349.21-.646.075-.3-.15-1.263-.465-2.403-1.485-.888-.795-1.484-1.77-1.66-2.07-.293-.506.32-.578.878-1.634.1-.21.049-.375-.025-.524-.075-.15-.672-1.62-.922-2.206-.24-.584-.487-.51-.672-.51-.576-.05-.997-.042-1.368.344-1.614 1.774-1.207 3.604.174 5.55 2.714 3.552 4.16 4.206 6.804 5.114.714.227 1.365.195 1.88.121.574-.091 1.767-.721 2.016-1.426.255-.705.255-1.29.18-1.425-.074-.135-.27-.21-.57-.345z"/><path d="m20.52 3.449c-7.689-7.433-20.414-2.042-20.419 8.444 0 2.096.549 4.14 1.595 5.945l-1.696 6.162 6.335-1.652c7.905 4.27 17.661-1.4 17.665-10.449 0-3.176-1.24-6.165-3.495-8.411zm1.482 8.417c-.006 7.633-8.385 12.4-15.012 8.504l-.36-.214-3.75.975 1.005-3.645-.239-.375c-4.124-6.565.614-15.145 8.426-15.145 2.654 0 5.145 1.035 7.021 2.91 1.875 1.859 2.909 4.35 2.909 6.99z"/>
	</symbol>
	<symbol id="i-vk" viewBox="0 0 24 24">
		<path d="m19.915 13.028c-.388-.49-.277-.708 0-1.146.005-.005 3.208-4.431 3.538-5.932l.002-.001c.164-.547 0-.949-.793-.949h-2.624c-.668 0-.976.345-1.141.731 0 0-1.336 3.198-3.226 5.271-.61.599-.892.791-1.225.791-.164 0-.419-.192-.419-.739v-5.105c0-.656-.187-.949-.74-.949h-4.126c-.419 0-.668.306-.668.591 0 .622.945.765 1.043 2.515v3.797c0 .832-.151.985-.486.985-.892 0-3.057-3.211-4.34-6.886-.259-.713-.512-1.001-1.185-1.001h-2.625c-.749 0-.9.345-.9.731 0 .682.892 4.073 4.148 8.553 2.17 3.058 5.226 4.715 8.006 4.715 1.671 0 1.875-.368 1.875-1.001 0-2.922-.151-3.198.686-3.198.388 0 1.056.192 2.616 1.667 1.783 1.749 2.076 2.532 3.074 2.532h2.624c.748 0 1.127-.368.909-1.094-.499-1.527-3.871-4.668-4.023-4.878z"/>
	</symbol>
	<symbol id="i-telephone" viewBox="0 0 480.56 480.56">
		<path d="M365.354,317.9c-15.7-15.5-35.3-15.5-50.9,0c-11.9,11.8-23.8,23.6-35.5,35.6c-3.2,3.3-5.9,4-9.8,1.8
			c-7.7-4.2-15.9-7.6-23.3-12.2c-34.5-21.7-63.4-49.6-89-81c-12.7-15.6-24-32.3-31.9-51.1c-1.6-3.8-1.3-6.3,1.8-9.4
			c11.9-11.5,23.5-23.3,35.2-35.1c16.3-16.4,16.3-35.6-0.1-52.1c-9.3-9.4-18.6-18.6-27.9-28c-9.6-9.6-19.1-19.3-28.8-28.8
			c-15.7-15.3-35.3-15.3-50.9,0.1c-12,11.8-23.5,23.9-35.7,35.5c-11.3,10.7-17,23.8-18.2,39.1c-1.9,24.9,4.2,48.4,12.8,71.3
			c17.6,47.4,44.4,89.5,76.9,128.1c43.9,52.2,96.3,93.5,157.6,123.3c27.6,13.4,56.2,23.7,87.3,25.4c21.4,1.2,40-4.2,54.9-20.9
			c10.2-11.4,21.7-21.8,32.5-32.7c16-16.2,16.1-35.8,0.2-51.8C403.554,355.9,384.454,336.9,365.354,317.9z"/>
		<path d="M346.254,238.2l36.9-6.3c-5.8-33.9-21.8-64.6-46.1-89c-25.7-25.7-58.2-41.9-94-46.9l-5.2,37.1
			c27.7,3.9,52.9,16.4,72.8,36.3C329.454,188.2,341.754,212,346.254,238.2z"/>
		<path d="M403.954,77.8c-42.6-42.6-96.5-69.5-156-77.8l-5.2,37.1c51.4,7.2,98,30.5,134.8,67.2c34.9,34.9,57.8,79,66.1,127.5
			l36.9-6.3C470.854,169.3,444.354,118.3,403.954,77.8z"/>
	</symbol>


	<symbol id="i-money-bag" viewBox="0 0 511.98 511.98">
		<path id="XMLID_2631_" d="m486.05 431.028c-7.326-5.914-11.517-15.206-11.209-24.857.112-3.528.169-7.12.169-10.674 0-51.409-11.457-100.684-34.053-146.456-19.474-39.449-47.167-75.205-80.55-104.143 6.102-5.83 9.915-14.038 9.915-23.124 0-16.976-13.29-30.901-30.011-31.932l34.964-66.032c2.054-3.88 1.338-8.646-1.767-11.751-16.08-16.078-42.242-16.079-58.322 0-4.012 4.011-9.345 6.221-15.018 6.221-5.674 0-11.007-2.209-15.019-6.221-16.08-16.078-42.242-16.079-58.322 0-4.012 4.011-9.345 6.221-15.019 6.221-5.673 0-11.006-2.209-15.018-6.221-16.08-16.078-42.242-16.078-58.322 0-3.104 3.104-3.82 7.871-1.767 11.751l34.965 66.032c-16.721 1.031-30.012 14.955-30.012 31.932 0 9.086 3.813 17.294 9.916 23.125-33.383 28.939-61.076 64.694-80.551 104.143-22.596 45.772-34.053 95.047-34.053 146.456 0 3.535.058 7.126.17 10.674.307 9.652-3.884 18.944-11.209 24.857-11.454 9.245-17.756 23.55-16.858 38.268 1.396 22.887 19.707 41.2 42.594 42.598 12.465.757 24.39-3.448 33.569-11.852 6.984-6.395 17.031-8.81 26.871-6.467 46.878 11.165 95.287 16.826 143.884 16.826s97.006-5.661 143.884-16.826c9.844-2.343 19.888.073 26.871 6.467 8.474 7.757 20.716 11.896 32.134 11.896.952 0-.96.059 0 0 22.887-1.398 42.634-19.755 44.03-42.643.899-14.719-5.404-29.024-16.856-38.268zm-303.4-404.827c7.789 7.789 18.145 12.079 29.16 12.079s21.372-4.29 29.161-12.079c8.281-8.281 21.758-8.28 30.037 0 7.789 7.789 18.146 12.079 29.161 12.079s21.371-4.29 29.16-12.079c6.542-6.543 16.326-7.917 24.23-4.121l-35.844 67.693h-123.451l-35.845-67.693c7.906-3.795 17.691-2.42 24.231 4.121zm-8.993 83.573h164.666c6.617 0 12 5.383 12 12s-5.383 12-12 12h-164.666c-6.617 0-12-5.383-12-12s5.383-12 12-12zm309.289 358.303c-.769 12.605-11.245 23.083-23.851 23.853-7.011.427-13.7-1.931-18.845-6.641-11.883-10.878-28.708-15.055-45.012-11.171-45.361 10.804-92.211 16.282-139.249 16.282s-93.888-5.478-139.249-16.282c-16.307-3.883-33.129.292-45.012 11.171-5.145 4.71-11.843 7.068-18.845 6.641-12.604-.77-23.081-11.247-23.85-23.853-.512-8.392 2.935-16.223 9.456-21.486 12.176-9.827 19.144-25.175 18.639-41.056-.106-3.337-.16-6.715-.16-10.039 0-94.364 41.938-182.279 115.181-241.761.5.023 167.179.023 167.678 0 73.243 59.481 115.181 147.396 115.181 241.761 0 3.344-.054 6.721-.159 10.038-.506 15.88 6.461 31.229 18.638 41.057 6.523 5.264 9.97 13.096 9.459 21.486z"/><path id="XMLID_2648_" d="m255.99 261.192c14.641 0 26.552 10.396 26.552 23.173 0 5.523 4.478 10 10 10s10-4.477 10-10c0-20.622-15.674-37.903-36.552-42.159v-4.813c0-5.523-4.478-10-10-10s-10 4.477-10 10v4.813c-20.877 4.256-36.552 21.537-36.552 42.159 0 23.806 20.883 43.173 46.552 43.173 14.641 0 26.552 10.396 26.552 23.173s-11.911 23.173-26.552 23.173-26.552-10.396-26.552-23.173c0-5.523-4.478-10-10-10s-10 4.477-10 10c0 20.622 15.674 37.903 36.552 42.159v6.083c0 5.523 4.478 10 10 10s10-4.477 10-10v-6.083c20.877-4.256 36.552-21.537 36.552-42.159 0-23.806-20.883-43.173-46.552-43.173-14.641 0-26.552-10.396-26.552-23.173s11.911-23.173 26.552-23.173z"/>
	</symbol>


	<symbol id="i-businessman" viewBox="0 0 511.956 511.956">
		<path id="XMLID_893_" d="m221.873 219.93c11.046 0 20-8.955 20-20h-40c0 11.045 8.954 20 20 20z"/><path id="XMLID_896_" d="m404.877 379.856c-1.621-.573-3.269-1.167-4.921-1.776v-32.779c3.746 1.434 6.152 3.134 6.302 3.242 4.398 3.285 10.631 2.408 13.952-1.975 3.335-4.402 2.47-10.675-1.932-14.01-.473-.358-7.648-5.685-18.322-8.092v-6.537c0-5.522-4.477-10-10-10s-10 4.478-10 10v6.479c-.934.214-1.874.45-2.824.735-12.088 3.631-21.119 13.947-23.569 26.921-2.249 11.907 1.608 23.426 10.065 30.059 4.186 3.283 9.341 6.284 16.329 9.428v43.703c-5.199-.582-8.899-2.138-14.838-6.024-4.622-3.021-10.819-1.728-13.843 2.894s-1.728 10.819 2.894 13.843c10.08 6.594 17.086 8.744 25.788 9.37v6.594c0 5.522 4.477 10 10 10s10-4.478 10-10v-7.78c16.686-4.461 27.379-18.807 29.759-32.961 3.136-18.667-6.613-34.891-24.84-41.334zm-28.906-13.47c-2.518-1.976-3.6-6.14-2.755-10.61.678-3.59 2.792-7.799 6.741-10.18v23.497c-1.463-.88-2.807-1.782-3.986-2.707zm34.02 51.487c-.934 5.559-4.342 11.396-10.035 14.783v-33.248c10.998 4.81 10.717 14.413 10.035 18.465z"/><path id="XMLID_900_" d="m389.956 267.929c-3.61 0-7.182.167-10.713.476-23.328-15.351-50.405-23.476-78.482-23.476h-13.575c12.955-15.059 20.813-34.623 20.813-55.999v-67.214c13.075-9.468 21.604-24.845 21.604-42.186v-69.503c0-5.522-4.477-10-10-10h-96.241c-59.683 0-108.452 47.996-108.714 107.08.103 23.104 7.481 44.934 21.351 63.377v18.446c0 21.376 7.858 40.94 20.813 55.999h-13.826c-78.843 0-142.986 64.143-142.986 142.986v39.015c0 5.522 4.477 10 10 10h267.377c18.441 44.006 61.956 75 112.579 75 67.271 0 122-54.729 122-122s-54.729-122.001-122-122.001zm-167.957 7c14.222 0 27.637-3.491 39.466-9.629l-39.466 128.08-39.466-128.08c11.829 6.138 25.244 9.629 39.466 9.629zm-87.351-167.823c.213-48.016 40.01-87.079 88.714-87.079h86.241v59.503c0 17.682-14.385 32.066-32.067 32.066h-131.537c-5.523 0-10 4.478-10 10v.38c-.87-4.865-1.329-9.832-1.351-14.87zm21.351 24.49h132v57.334c0 36.392-29.607 65.999-66 65.999s-66-29.607-66-65.999zm5.492 133.333 46.837 152h-30.787l-46.107-77h9.543c3.643 0 6.998-1.981 8.757-5.171s1.644-7.085-.3-10.166l-35.464-56.196c9.308-2.26 19.023-3.467 29.016-3.467zm-141.491 122.986c0-50.582 30.698-94.124 74.439-112.99l28.401 45.004h-9.051c-3.601 0-6.924 1.937-8.7 5.069-1.776 3.133-1.73 6.979.12 10.068l49.019 81.862h-134.228zm215.67 29.014 46.837-152h18.253c16.879 0 33.337 3.411 48.566 9.965-47.355 16.775-81.371 62.003-81.371 115.035 0 9.276 1.046 18.312 3.016 27zm154.286 75c-56.243 0-102-45.757-102-102s45.757-102 102-102 102 45.757 102 102-45.757 102-102 102z"/>
	</symbol>

	<symbol id="i-online-payment" viewBox="0 0 512 512">
		<path id="XMLID_1128_" d="m502 65h-44v-25c0-16.542-13.458-30-30-30h-398c-16.542 0-30 13.458-30 30v324c0 16.542 13.458 30 30 30h149v36h-3c-34.187 0-62 27.813-62 62 0 5.522 4.477 10 10 10h210c5.523 0 10-4.478 10-10 0-34.187-27.813-62-62-62h-3v-36h149c16.542 0 30-13.458 30-30v-87h44c5.523 0 10-4.478 10-10v-192c0-5.522-4.477-10-10-10zm-65.873 192h-279.219v-172h279.219c4.346 28.747 27.126 51.527 55.873 55.873v60.254c-28.747 4.346-51.527 27.126-55.873 55.873zm55.873-136.466c-17.695-3.883-31.651-17.839-35.534-35.534h35.534zm-462-90.534h398c5.514 0 10 4.486 10 10v25h-281.092v-4.667c0-5.522-4.477-10-10-10s-10 4.478-10 10v221.334c0 5.522 4.477 10 10 10s10-4.478 10-10v-4.667h281.092v35h-418v-272c0-5.514 4.486-10 10-10zm292.797 452h-187.594c4.498-18.348 21.083-32 40.797-32h106c19.714 0 36.299 13.652 40.797 32zm-63.797-52h-60v-36h60zm169-56h-398c-5.514 0-10-4.486-10-10v-32h418v32c0 5.514-4.486 10-10 10zm28.466-117c3.883-17.694 17.84-31.65 35.534-35.534v35.534z"/><ellipse id="XMLID_1190_" cx="311.083" cy="171" rx="47.244" ry="47.244" transform="matrix(.987 -.16 .16 .987 -23.374 52.038)"/><ellipse id="XMLID_1191_" cx="415.694" cy="171" rx="18.56" ry="18.56" transform="matrix(.383 -.924 .924 .383 98.632 489.613)"/><circle id="XMLID_1192_" cx="206.472" cy="171" r="18.56"/>
	</symbol>

	<symbol id="i-increase" viewBox="0 0 512 512">
		<path id="XMLID_1048_" d="m502 180h-44v-65.917h19.582c4.044 0 7.691-2.437 9.239-6.173s.692-8.038-2.167-10.897l-54.082-54.083c-1.876-1.876-4.42-2.93-7.072-2.93s-5.196 1.054-7.071 2.929l-54.083 54.083c-2.86 2.86-3.715 7.162-2.167 10.898 1.548 3.737 5.194 6.173 9.239 6.173h19.582v65.917h-266v-65.917h19.582c4.044 0 7.691-2.437 9.239-6.173s.692-8.038-2.167-10.897l-54.083-54.084c-1.875-1.875-4.419-2.929-7.071-2.929s-5.196 1.054-7.071 2.929l-54.082 54.083c-2.86 2.86-3.715 7.161-2.167 10.897 1.548 3.737 5.194 6.173 9.239 6.173h19.581v65.918h-44c-5.523 0-10 4.477-10 10v312c0 5.523 4.477 10 10 10h492c5.523 0 10-4.477 10-10v-312c0-5.523-4.477-10-10-10zm-103-85.917h-5.44l29.94-29.94 29.94 29.94h-5.44c-5.523 0-10 4.477-10 10v75.917h-29v-75.917c0-5.523-4.477-10-10-10zm-335 0h-5.44l29.94-29.94 29.94 29.94h-5.44c-5.523 0-10 4.477-10 10v75.917h-29v-75.917c0-5.523-4.477-10-10-10zm-44 105.917h472v244h-472zm472 292h-472v-28h472z"/><circle id="XMLID_1066_" cx="256" cy="322" r="56"/><circle id="XMLID_1068_" cx="132" cy="322" r="22"/><circle id="XMLID_1069_" cx="380" cy="322" r="22"/><path id="XMLID_1070_" d="m50 240c2.64 0 5.21-1.07 7.07-2.93s2.93-4.44 2.93-7.07-1.07-5.21-2.93-7.07-4.44-2.93-7.07-2.93-5.21 1.07-7.07 2.93-2.93 4.44-2.93 7.07 1.07 5.21 2.93 7.07 4.439 2.93 7.07 2.93z"/><path id="XMLID_1071_" d="m462 220c-2.63 0-5.21 1.07-7.07 2.93s-2.93 4.44-2.93 7.07 1.07 5.21 2.93 7.07 4.44 2.93 7.07 2.93 5.21-1.07 7.07-2.93 2.93-4.44 2.93-7.07-1.07-5.21-2.93-7.07c-1.861-1.86-4.441-2.93-7.07-2.93z"/><path id="XMLID_1072_" d="m462 404c-2.63 0-5.21 1.07-7.07 2.93s-2.93 4.44-2.93 7.07 1.07 5.21 2.93 7.07 4.44 2.93 7.07 2.93 5.21-1.07 7.07-2.93 2.93-4.44 2.93-7.07-1.07-5.21-2.93-7.07c-1.861-1.86-4.441-2.93-7.07-2.93z"/><path id="XMLID_1073_" d="m50 404c-2.63 0-5.21 1.07-7.07 2.93s-2.93 4.44-2.93 7.07 1.07 5.21 2.93 7.07 4.44 2.93 7.07 2.93 5.21-1.07 7.07-2.93 2.93-4.44 2.93-7.07-1.07-5.21-2.93-7.07c-1.861-1.86-4.441-2.93-7.07-2.93z"/><path id="XMLID_1078_" d="m201.918 74.083h19.582v75.917c0 5.523 4.477 10 10 10h49c5.523 0 10-4.477 10-10v-75.917h19.582c4.044 0 7.691-2.437 9.239-6.173s.692-8.038-2.167-10.897l-54.083-54.084c-1.875-1.875-4.419-2.929-7.071-2.929s-5.196 1.054-7.071 2.929l-54.082 54.083c-2.86 2.86-3.715 7.161-2.167 10.897 1.547 3.737 5.194 6.174 9.238 6.174zm54.082-49.941 29.94 29.94h-5.44c-5.523 0-10 4.477-10 10v75.918h-29v-75.917c0-5.523-4.477-10-10-10h-5.44z"/><path id="XMLID_1085_" d="m468 374v-104c0-5.523-4.477-10-10-10-14.336 0-26-11.664-26-26 0-5.523-4.477-10-10-10h-332c-5.523 0-10 4.477-10 10 0 14.336-11.664 26-26 26-5.523 0-10 4.477-10 10v104c0 5.523 4.477 10 10 10 14.336 0 26 11.664 26 26 0 5.523 4.477 10 10 10h332c5.523 0 10-4.477 10-10 0-14.336 11.664-26 26-26 5.523 0 10-4.477 10-10zm-20-8.905c-17.351 3.862-31.043 17.555-34.905 34.905h-314.19c-3.862-17.351-17.554-31.043-34.905-34.905v-86.189c17.351-3.862 31.043-17.555 34.905-34.905h314.189c3.862 17.351 17.555 31.043 34.905 34.905v86.189z"/>
	</symbol>

	<symbol id="i-check" viewBox="0 0 405.272 405.272">
		<path d="M393.401,124.425L179.603,338.208c-15.832,15.835-41.514,15.835-57.361,0L11.878,227.836
		c-15.838-15.835-15.838-41.52,0-57.358c15.841-15.841,41.521-15.841,57.355-0.006l81.698,81.699L336.037,67.064
		c15.841-15.841,41.523-15.829,57.358,0C409.23,82.902,409.23,108.578,393.401,124.425z"/>
	</symbol>
</svg>