<svg height="600pt" viewBox="-40 0 600 600" width="600pt" xmlns="http://www.w3.org/2000/svg"><path d="m519.914062 90c.027344-2.640625-.992187-5.1875-2.84375-7.070312l-80-80c-1.882812-1.84375-4.429687-2.867188-7.070312-2.8320318v-.0976562h-380c-27.601562.0351562-49.9648438 22.398438-50 50v500c.0351562 27.601562 22.398438 49.964844 50 50h420c27.601562-.035156 49.964844-22.398438 50-50zm-79.914062-55.859375 45.859375 45.859375h-45.859375zm-390-14.140625h370v70c0 5.523438 4.476562 10 10 10h70v200h-480v-250c0-16.566406 13.433594-30 30-30zm450 500h-480v-200h480zm-30 60h-420c-16.566406 0-30-13.433594-30-30v-10h480v10c0 16.566406-13.433594 30-30 30zm0 0"/><path d="m100 510c5.523438 0 10-4.476562 10-10v-70h50c16.566406 0 30-13.433594 30-30v-40c0-16.566406-13.433594-30-30-30h-60c-5.523438 0-10 4.476562-10 10v160c0 5.523438 4.476562 10 10 10zm10-160h50c5.523438 0 10 4.476562 10 10v40c0 5.523438-4.476562 10-10 10h-50zm0 0"/><path d="m220 510h40c27.601562-.035156 49.964844-22.398438 50-50v-80c0-28.160156-32.261719-50-60-50h-30c-5.523438 0-10 4.476562-10 10v160c0 5.523438 4.476562 10 10 10zm10-160h20c17.460938 0 40 14.550781 40 30v80c0 16.566406-13.433594 30-30 30h-30zm0 0"/><path d="m340 510c5.523438 0 10-4.476562 10-10v-70h70c5.523438 0 10-4.476562 10-10s-4.476562-10-10-10h-70v-60h70c5.523438 0 10-4.476562 10-10s-4.476562-10-10-10h-80c-5.523438 0-10 4.476562-10 10v160c0 5.523438 4.476562 10 10 10zm0 0"/></svg>