<svg height="598pt" viewBox="-40 0 598 598.381" width="598pt" xmlns="http://www.w3.org/2000/svg"><path d="m518.699219 89.757812c.019531-2.636718-.996094-5.167968-2.832031-7.050781l-79.785157-79.785156c-1.878906-1.851563-4.417969-2.875-7.050781-2.84375v-.078125h-378.976562c-27.527344.0351562-49.832032 22.335938-49.863282 49.863281v498.652344c.03125 27.523437 22.335938 49.832031 49.863282 49.867187h418.867187c27.527344-.035156 49.832031-22.34375 49.867187-49.867187zm-79.695313-55.710937 45.734375 45.738281h-45.734375zm-388.949218-14.101563h369.003906v69.8125c0 5.507813 4.464844 9.972657 9.972656 9.972657h69.808594v199.460937h-478.703125v-249.328125c0-16.519531 13.394531-29.917969 29.917969-29.917969zm448.785156 498.652344h-478.703125v-199.460937h478.703125zm-29.917969 59.835938h-418.867187c-16.523438 0-29.917969-13.394532-29.917969-29.917969v-9.972656h478.703125v9.972656c0 16.523437-13.394532 29.917969-29.917969 29.917969zm0 0"/><path d="m99.921875 349.054688h29.917969v149.597656c0 5.507812 4.464844 9.972656 9.972656 9.972656s9.972656-4.464844 9.972656-9.972656v-149.597656h29.917969c5.507813 0 9.976563-4.464844 9.976563-9.972657 0-5.507812-4.46875-9.972656-9.976563-9.972656h-79.78125c-5.507813 0-9.972656 4.464844-9.972656 9.972656 0 5.507813 4.464843 9.972657 9.972656 9.972657zm0 0"/><path d="m215.140625 507.625c4.929687 2.464844 10.921875.464844 13.382813-4.46875l30.964843-61.992188 30.917969 61.941407c2.460938 4.933593 8.453125 6.929687 13.382812 4.472656 4.933594-2.464844 6.929688-8.453125 4.46875-13.386719l-37.617187-75.324218 37.714844-75.328126c2.464843-4.929687.464843-10.921874-4.464844-13.382812-4.933594-2.464844-10.921875-.460938-13.386719 4.464844l-31.015625 61.941406-30.917969-61.941406c-2.457031-4.925782-8.453124-6.929688-13.378906-4.464844-4.933594 2.460938-6.929687 8.453125-4.472656 13.382812l37.617188 75.328126-37.664063 75.324218c-1.199219 2.371094-1.402344 5.125-.566406 7.648438.84375 2.523437 2.65625 4.601562 5.035156 5.785156zm0 0"/><path d="m339.273438 349.054688h29.917968v149.597656c0 5.507812 4.464844 9.972656 9.972656 9.972656 5.507813 0 9.972657-4.464844 9.972657-9.972656v-149.597656h29.921875c5.507812 0 9.972656-4.464844 9.972656-9.972657 0-5.507812-4.464844-9.972656-9.972656-9.972656h-79.785156c-5.507813 0-9.972657 4.464844-9.972657 9.972656 0 5.507813 4.464844 9.972657 9.972657 9.972657zm0 0"/></svg>