<svg height="599pt" viewBox="-40 0 599 599.92052" width="599pt" xmlns="http://www.w3.org/2000/svg"><path d="m105.976562 508.929688c4.941407 2.472656 10.953126.464843 13.417969-4.476563l31.046875-62.152344 31.042969 62.101563c2.472656 4.945312 8.476563 6.949218 13.421875 4.480468 4.941406-2.46875 6.949219-8.476562 4.476562-13.417968l-37.761718-75.519532 37.8125-75.523437c2.46875-4.941406.464844-10.945313-4.476563-13.414063-4.941406-2.472656-10.953125-.464843-13.421875 4.480469l-31.09375 62.101563-30.996094-62.101563c-2.46875-4.945312-8.476562-6.953125-13.417968-4.480469-4.941406 2.46875-6.949219 8.472657-4.480469 13.414063l37.714844 75.523437-37.765625 75.519532c-1.199219 2.378906-1.40625 5.136718-.5625 7.667968.839844 2.527344 2.65625 4.617188 5.042968 5.796876zm0 0"/><path d="m220.429688 509.933594h79.992187c5.519531 0 9.996094-4.476563 9.996094-10 0-5.523438-4.476563-10-9.996094-10h-69.992187v-149.980469c0-5.519531-4.476563-9.996094-10-9.996094-5.519532 0-9.996094 4.476563-9.996094 9.996094v159.980469c0 5.523437 4.476562 10 9.996094 10zm0 0"/><path d="m390.410156 489.933594h-59.992187c-5.523438 0-10 4.476562-10 10 0 5.523437 4.476562 10 10 10h59.992187c16.5625 0 29.996094-13.433594 29.996094-29.996094v-39.996094c0-16.566406-13.433594-29.996094-29.996094-29.996094h-39.996094c-5.523437 0-10-4.476562-10-10v-39.992187c0-5.523437 4.476563-10 10-10h59.992188c5.519531 0 10-4.476563 10-10 0-5.519531-4.480469-9.996094-10-9.996094h-59.992188c-16.566406 0-29.996093 13.429688-29.996093 29.996094v39.992187c0 16.566407 13.429687 29.996094 29.996093 29.996094h39.996094c5.519532 0 9.996094 4.480469 9.996094 10v39.996094c0 5.519531-4.476562 9.996094-9.996094 9.996094zm0 0"/><path d="m520.304688 89.988281c.023437-2.636719-1.003907-5.179687-2.84375-7.070312l-79.988282-79.988281c-1.878906-1.855469-4.429687-2.8750005-7.070312-2.8437505v-.0859375h-379.949219c-27.59375.0351562-49.957031 22.394531-49.992187 49.992188v499.933593c.035156 27.601563 22.398437 49.960938 49.992187 49.996094h419.945313c27.597656-.035156 49.957031-22.394531 49.992187-49.996094zm-79.902344-55.851562 45.851562 45.851562h-45.851562zm-389.949219-14.140625h369.953125v69.992187c0 5.523438 4.476562 10 9.996094 10h69.992187v199.972657h-479.9375v-249.96875c0-16.5625 13.429688-29.996094 29.996094-29.996094zm449.941406 499.933594h-479.9375v-199.972657h479.9375zm-29.996093 59.992187h-419.945313c-16.566406 0-29.996094-13.429687-29.996094-29.996094v-9.996093h479.9375v9.996093c0 16.566407-13.429687 29.996094-29.996093 29.996094zm0 0"/></svg>