<?xml version="1.0" encoding="iso-8859-1"?>
<!-- Generator: Adobe Illustrator 19.0.0, SVG Export Plug-In . SVG Version: 6.00 Build 0)  -->
<svg version="1.1" id="Layer_1" xmlns="http://www.w3.org/2000/svg" xmlns:xlink="http://www.w3.org/1999/xlink" x="0px" y="0px"
	 viewBox="0 0 512.001 512.001" style="enable-background:new 0 0 512.001 512.001;" xml:space="preserve">
<path style="fill:#E6E6E6;" d="M347.964,458.037c-18.314,8.128-39.743-0.136-47.859-18.45l-29.659-66.89l-39.674-89.501
	l-58.318-131.54c-10.8-24.339-39.584-35.218-63.832-23.907c-23.691,11.038-33.718,39.436-23.123,63.331l7.992,18.041
	c2.126,4.786,3.126,9.777,3.126,14.688c0,13.915-8.049,27.17-21.577,33.172c-18.314,8.117-39.743-0.148-47.859-18.462l-8.321-18.769
	C-8.117,158.909,19.621,87.427,80.701,60.769c60.83-26.556,131.699,2.024,158.607,62.695l31.137,70.243l39.686,89.489
	l56.295,126.981C374.543,428.491,366.278,449.92,347.964,458.037z"/>
<g>
	<path style="fill:#F95428;" d="M9.838,153.544l81.316,50.292l-5.661-12.755c-5.025-11.334-5.411-23.668-1.898-34.695
		l-62.536-38.697C15.488,128.955,11.691,141.062,9.838,153.544z"/>
	<path style="fill:#F95428;" d="M94.167,55.835l10.777,73.835v0.011c1.194-0.705,2.421-1.341,3.683-1.933
		c10.55-4.922,21.963-5.639,32.376-2.865l-10.8-74.04C118.221,50.64,106.08,52.243,94.167,55.835z"/>
	<path style="fill:#F95428;" d="M178.438,165.173l20.86,47.052l36.787-95.367l0.034-0.023
		c-6.741-13.062-15.597-24.475-25.953-33.945l-31.717,82.282H178.438z"/>
	<polygon style="fill:#F95428;" points="233.937,290.358 254.797,337.411 291.584,242.044 291.823,241.93 270.974,194.889 
		270.724,195.003 233.948,290.358 	"/>
</g>
<polygon style="fill:#CCCCCC;" points="310.131,283.196 270.445,372.697 230.771,283.196 270.445,193.707 "/>
<path style="fill:#F95428;" d="M289.447,415.555l10.652,24.032c2.91,6.559,7.537,11.834,13.107,15.517l33.888-87.864l0.239-0.102
	l-20.86-47.064l-0.25,0.114L289.447,415.555z"/>
<path style="fill:#E6E6E6;" d="M164.002,458.042L164.002,458.042c-18.313-8.119-26.577-29.547-18.457-47.859l127.118-286.718
	c26.9-60.675,97.769-89.251,158.598-62.699c61.079,26.66,88.827,98.145,61.851,158.989l-8.323,18.772
	c-8.119,18.313-29.547,26.577-47.859,18.457l0,0c-18.313-8.119-26.576-29.547-18.457-47.86l7.997-18.039
	c10.594-23.896,0.564-52.291-23.126-63.336c-24.241-11.303-53.034-0.434-63.827,23.909L211.861,439.584
	C203.742,457.897,182.314,466.161,164.002,458.042z"/>
<g>
	<path style="fill:#F95428;" d="M502.126,153.544l-81.316,50.292l5.661-12.755c5.025-11.334,5.411-23.668,1.898-34.695
		l62.536-38.697C496.476,128.955,500.273,141.062,502.126,153.544z"/>
	<path style="fill:#F95428;" d="M417.798,55.835l-10.777,73.835v0.011c-1.194-0.705-2.421-1.341-3.683-1.933
		c-10.55-4.922-21.963-5.639-32.376-2.865l10.8-74.04C393.743,50.64,405.884,52.243,417.798,55.835z"/>
	<path style="fill:#F95428;" d="M333.527,165.173l-20.86,47.052l-36.787-95.367l-0.034-0.023
		c6.741-13.062,15.597-24.475,25.953-33.945l31.717,82.282H333.527z"/>
	<polygon style="fill:#F95428;" points="278.028,290.358 257.167,337.411 220.38,242.044 220.142,241.93 240.991,194.889 
		241.241,195.003 278.016,290.358 	"/>
	<path style="fill:#F95428;" d="M222.518,415.555l-10.652,24.032c-2.91,6.559-7.537,11.834-13.107,15.517L164.87,367.24
		l-0.239-0.102l20.86-47.064l0.25,0.114L222.518,415.555z"/>
</g>
<path d="M503.144,124.327c-12.536-32.227-36.853-57.576-68.473-71.378c-64.714-28.247-140.887,1.836-169.803,67.058l-8.886,20.044
	l-8.883-20.036c-7.36-16.614-17.844-31.219-31.159-43.404c-23.531-21.574-53.928-33.751-85.589-34.287
	c-18.337-0.318-36.172,3.259-53.054,10.623c-27.784,12.127-50.475,33.781-63.894,60.97c-17.012,34.457-17.867,74.292-2.344,109.292
	l8.323,18.772c7.412,16.697,23.84,26.64,41.025,26.64c6.053,0,12.204-1.235,18.083-3.842c16.187-7.177,26.647-23.26,26.647-40.977
	c0-6.268-1.294-12.367-3.841-18.122l-2.33-5.275c-0.042-0.093-0.085-0.186-0.13-0.279l-5.537-12.5
	c-4.014-9.047-4.571-19.221-1.565-28.655c2.97-9.348,9.175-17.129,17.469-21.91c0.036-0.022,0.073-0.042,0.109-0.064
	c0.847-0.505,1.806-1.007,2.923-1.53c8.3-3.873,17.741-4.709,26.597-2.35c11.579,3.071,20.991,11.087,25.826,22.002l42.324,95.455
	l-69.229,156.149c-4.85,10.939-5.15,23.112-0.844,34.276c4.305,11.165,12.7,19.984,23.64,24.833
	c5.885,2.609,12.033,3.844,18.092,3.844c17.186,0,33.615-9.944,41.018-26.64l36.329-81.941l25.56,57.647
	c0.035,0.086,0.072,0.172,0.109,0.258l10.663,24.032c3.479,7.841,9.076,14.47,16.178,19.165c7.496,4.97,16.093,7.498,24.751,7.498
	c6.154,0,12.339-1.278,18.179-3.864c10.941-4.85,19.336-13.669,23.641-24.834c4.305-11.166,4.003-23.34-0.851-34.277
	l-69.231-156.146l42.327-95.468c4.294-9.686,12.141-17.074,22.096-20.805c9.948-3.73,20.723-3.315,30.333,1.166
	c19.218,8.96,27.712,32.356,18.935,52.153l-7.997,18.039c-10.012,22.581,0.215,49.097,22.796,59.109
	c10.941,4.85,23.112,5.149,34.276,0.844c11.165-4.305,19.984-12.7,24.834-23.64l8.323-18.771
	C514.886,191.674,515.68,156.557,503.144,124.327z M438.097,160.392l48.982-30.3c0.056,0.141,0.119,0.276,0.174,0.417
	c2.399,6.166,4.232,12.453,5.508,18.802l-54.843,33.927C439.541,175.591,439.541,167.823,438.097,160.392z M298.616,98.351
	l25.678,66.6l-11.085,25.004l-27.978-72.543C289.092,110.51,293.583,104.136,298.616,98.351z M275.197,138.781l28.238,73.218
	l-24.868,56.091l-28.238-73.218L275.197,138.781z M257.707,315.139l-28.241-73.211l11.088-25.01l28.238,73.218L257.707,315.139z
	 M247.934,337.183l-24.87,56.096l-28.238-73.218l24.868-56.089L247.934,337.183z M226.736,117.411l-27.98,72.55l-11.086-25.003
	l25.677-66.596C218.455,104.225,222.927,110.587,226.736,117.411z M74.051,183.236l-54.829-33.918
	c1.301-6.521,3.18-12.958,5.654-19.235l48.949,30.28C72.36,167.947,72.443,175.72,74.051,183.236z M71.578,249.191
	c-13.977,6.199-30.402-0.138-36.609-14.123l-8.321-18.77c-6.823-15.384-9.99-31.848-9.541-48.237l67.327,41.649l1.268,2.868
	c1.582,3.573,2.384,7.348,2.384,11.224C88.085,234.781,81.606,244.746,71.578,249.191z M79.679,143.933l-47.302-29.261
	c11.89-20.389,30.009-36.609,51.739-46.094c1.031-0.45,2.067-0.879,3.107-1.296l8.501,58.251
	C89.081,130.385,83.613,136.662,79.679,143.933z M111.768,117.389L103.7,62.108c6.285-1.44,12.681-2.308,19.155-2.617l8.068,55.307
	C124.452,114.552,117.965,115.423,111.768,117.389z M148.681,118.403l-8.518-58.395c21.921,2.366,42.737,11.177,59.905,25.399
	l-22.317,57.88C171.269,131.807,161.037,123.049,148.681,118.403z M208.53,212.006l28.237-73.218l9.887,22.3l-30.349,68.454
	L208.53,212.006z M167.458,450.248c-6.774-3.003-11.975-8.466-14.641-15.381c-2.666-6.915-2.482-14.453,0.523-21.229l10.851-24.475
	l23.844,61.827C181.56,453.306,174.224,453.248,167.458,450.248z M204.067,436.128c-0.589,1.328-1.271,2.586-2.034,3.772
	l-28.07-72.784l11.088-25.011l28.238,73.218L204.067,436.128z M298.677,415.327l28.237-73.215l11.088,25.01l-28.062,72.762
	c-0.767-1.195-1.453-2.449-2.037-3.764L298.677,415.327z M359.156,434.868c-2.666,6.914-7.864,12.375-14.639,15.378
	c-6.62,2.933-13.954,3.141-20.588,0.757l23.848-61.835l10.851,24.474C361.634,420.414,361.822,427.954,359.156,434.868z
	 M317.14,320.066l-28.236,73.213l-23.596-53.21l30.348-68.453L317.14,320.066z M334.206,143.258l-22.302-57.843
	c17.117-14.146,38.022-22.988,59.896-25.376l-8.512,58.354C350.816,123.102,340.66,131.825,334.206,143.258z M381.047,114.78
	l8.062-55.27c6.389,0.306,12.796,1.172,19.154,2.623l-8.064,55.264C393.966,115.402,387.506,114.526,381.047,114.78z
	 M416.244,125.538l8.501-58.256c1.038,0.416,2.072,0.844,3.103,1.294c22.004,9.605,39.918,25.669,51.764,46.08l-47.379,29.309
	C428.367,136.813,422.965,130.478,416.244,125.538z M485.316,216.296l-8.323,18.772c-3.003,6.774-8.466,11.975-15.381,14.641
	c-6.914,2.667-14.453,2.482-21.229-0.523c-6.774-3.003-11.975-8.466-14.641-15.38c-2.667-6.915-2.482-14.454,0.523-21.23
	l1.271-2.868l67.357-41.668C495.357,184.445,492.158,200.867,485.316,216.296z"/>
<g>
</g>
<g>
</g>
<g>
</g>
<g>
</g>
<g>
</g>
<g>
</g>
<g>
</g>
<g>
</g>
<g>
</g>
<g>
</g>
<g>
</g>
<g>
</g>
<g>
</g>
<g>
</g>
<g>
</g>
</svg>
