<svg viewBox="0 0 512 512" xmlns="http://www.w3.org/2000/svg"><path d="m277.601562 10c-8.507812 0-16.183593 3.726562-21.601562 9.695312-5.421875-5.96875-13.09375-9.695312-21.601562-9.695312-16.421876 0-29.734376 13.878906-29.734376 30.996094 0 28.855468 51.335938 57.003906 51.335938 57.003906s51.335938-28.148438 51.335938-57.003906c0-17.117188-13.3125-30.996094-29.734376-30.996094zm0 0" fill="#ff5d5d"/><path d="m456.136719 190h-400.273438v270.304688c0 23.027343 18.667969 41.695312 41.695313 41.695312h316.882812c23.027344 0 41.695313-18.667969 41.695313-41.695312zm0 0" fill="#ffb954"/><path d="m224 190h64v312h-64zm0 0" fill="#fff"/><path d="m486 98h-460c-8.835938 0-16 7.164062-16 16v60c0 8.835938 7.164062 16 16 16h460c8.835938 0 16-7.164062 16-16v-60c0-8.835938-7.164062-16-16-16zm0 0" fill="#ff5d5d"/><path d="m486 88h-97.992188c7.550782-9.289062 12.085938-21.121094 12.085938-34 0-29.777344-24.226562-54-54-54-5.523438 0-10 4.476562-10 10s4.476562 10 10 10c18.75 0 34 15.253906 34 34s-15.25 34-34 34h-57.925781c14.472656-12.078125 29.167969-28.816406 29.167969-47.003906 0-22.605469-17.824219-40.996094-39.734376-40.996094-7.699218 0-15.214843 2.339844-21.601562 6.597656-6.386719-4.257812-13.898438-6.597656-21.601562-6.597656-21.910157 0-39.734376 18.390625-39.734376 40.996094 0 18.1875 14.691407 34.925781 29.167969 47.003906h-57.925781c-18.75 0-34-15.253906-34-34s15.25-34 34-34c5.519531 0 10-4.476562 10-10s-4.480469-10-10-10c-29.777344 0-54 24.222656-54 54 0 12.878906 4.535156 24.710938 12.085938 34h-97.992188c-14.335938 0-26 11.664062-26 26v60c0 14.335938 11.664062 26 26 26h19.863281v260.304688c0 28.503906 23.191407 51.695312 51.695313 51.695312h316.882812c28.503906 0 51.691406-23.191406 51.691406-51.695312v-260.304688h19.867188c14.335938 0 26-11.664062 26-26v-60c0-14.335938-11.664062-26-26-26zm-251.601562-68c5.398437 0 10.441406 2.277344 14.195312 6.417969 1.898438 2.085937 4.585938 3.277343 7.40625 3.277343s5.507812-1.1875 7.402344-3.277343c3.757812-4.136719 8.800781-6.417969 14.199218-6.417969 10.882813 0 19.734376 9.417969 19.734376 20.996094 0 15.21875-23.648438 34.71875-41.335938 45.449218-17.691406-10.734374-41.335938-30.234374-41.335938-45.449218 0-11.578125 8.855469-20.996094 19.734376-20.996094zm-168.535157 440.304688v-260.304688h27.042969v61c0 5.523438 4.476562 10 10 10 5.519531 0 10-4.476562 10-10v-61h101.09375v292h-116.441406c-17.476563 0-31.695313-14.21875-31.695313-31.695312zm380.273438 0c0 17.476562-14.21875 31.695312-31.695313 31.695312h-116.441406v-61.683594c0-5.523437-4.476562-10-10-10s-10 4.476563-10 10v61.683594h-44v-292h44v151c0 5.523438 4.476562 10 10 10s10-4.476562 10-10v-151h148.136719zm45.863281-286.304688c0 3.308594-2.691406 6-6 6h-460c-3.308594 0-6-2.691406-6-6v-60c0-3.308594 2.691406-6 6-6h460c3.308594 0 6 2.691406 6 6zm0 0"/><path d="m288 380.980469c-2.632812 0-5.210938 1.070312-7.070312 2.929687-1.859376 1.859375-2.929688 4.441406-2.929688 7.070313 0 2.628906 1.070312 5.210937 2.929688 7.070312 1.859374 1.859375 4.4375 2.929688 7.070312 2.929688 2.628906 0 5.210938-1.070313 7.070312-2.929688 1.859376-1.859375 2.929688-4.441406 2.929688-7.070312 0-2.628907-1.070312-5.210938-2.929688-7.070313-1.859374-1.859375-4.441406-2.929687-7.070312-2.929687zm0 0"/><path d="m384 275.886719c5.523438 0 10-4.476563 10-10v-13.8125c0-5.519531-4.476562-10-10-10s-10 4.480469-10 10v13.8125c0 5.523437 4.476562 10 10 10zm0 0"/><path d="m384 342.078125c5.523438 0 10-4.480469 10-10v-13.8125c0-5.523437-4.476562-10-10-10s-10 4.476563-10 10v13.8125c0 5.519531 4.476562 10 10 10zm0 0"/><path d="m410.1875 302.078125h13.8125c5.523438 0 10-4.480469 10-10 0-5.523437-4.476562-10-10-10h-13.8125c-5.523438 0-10 4.476563-10 10 0 5.519531 4.476562 10 10 10zm0 0"/><path d="m344 302.078125h13.8125c5.519531 0 10-4.480469 10-10 0-5.523437-4.480469-10-10-10h-13.8125c-5.523438 0-10 4.476563-10 10 0 5.519531 4.476562 10 10 10zm0 0"/><path d="m136 358.128906c-5.523438 0-10 4.476563-10 10v13.808594c0 5.523438 4.476562 10 10 10s10-4.476562 10-10v-13.808594c0-5.523437-4.476562-10-10-10zm0 0"/><path d="m136 424.316406c-5.523438 0-10 4.476563-10 10v13.8125c0 5.519532 4.476562 10 10 10s10-4.480468 10-10v-13.8125c0-5.523437-4.476562-10-10-10zm0 0"/><path d="m176 398.128906h-13.8125c-5.523438 0-10 4.476563-10 10 0 5.519532 4.476562 10 10 10h13.8125c5.523438 0 10-4.480468 10-10 0-5.523437-4.476562-10-10-10zm0 0"/><path d="m109.8125 398.128906h-13.8125c-5.523438 0-10 4.476563-10 10 0 5.519532 4.476562 10 10 10h13.8125c5.519531 0 10-4.480468 10-10 0-5.523437-4.480469-10-10-10zm0 0"/><path d="m102.910156 305.480469c2.628906 0 5.199219-1.070313 7.070313-2.929688 1.859375-1.859375 2.929687-4.441406 2.929687-7.070312 0-2.628907-1.070312-5.210938-2.929687-7.070313-1.871094-1.859375-4.441407-2.929687-7.070313-2.929687-2.632812 0-5.210937 1.070312-7.082031 2.929687-1.859375 1.859375-2.917969 4.441406-2.917969 7.070313 0 2.628906 1.058594 5.210937 2.917969 7.070312 1.871094 1.859375 4.441406 2.929688 7.082031 2.929688zm0 0"/></svg>