<svg height="480pt" viewBox="0 0 480 480.00001" width="480pt" xmlns="http://www.w3.org/2000/svg"><path d="m472 40v64c.039062 14.285156-9.449219 26.847656-23.199219 30.71875-2.851562.875-5.820312 1.304688-8.800781 1.28125h-304v32c-.039062 17.65625-14.34375 31.960938-32 32h-64c-17.671875 0-32-14.328125-32-32v-128c0-17.671875 14.328125-32 32-32h400c17.671875 0 32 14.328125 32 32zm0 0" fill="#99c5f9"/><path d="m272 136h-8c2.71875 0 5.359375.078125 8 .320312 49.75 4.160157 88.007812 45.757813 88 95.679688v96c.007812 49.921875-38.25 91.519531-88 95.679688-2.640625.242187-5.28125.320312-8 .320312h-240c-8.824219.027344-15.972656 7.175781-16 16v16c.027344 8.824219 7.175781 15.972656 16 16h384c29.191406-.003906 54.6875-19.742188 62-48 1.320312-5.230469 1.992188-10.605469 2-16v-224c.027344-19.070312-8.484375-37.148438-23.199219-49.28125-2.851562.875-5.820312 1.304688-8.800781 1.28125zm0 0" fill="#bcbec0"/><path d="m8 232v80c0 53.019531 42.980469 96 96 96h16c53.019531 0 96-42.980469 96-96v-80zm0 0" fill="#ffe477"/><path d="m344 40h96v32h-96zm0 0" fill="#ffda44"/><path d="m48 200h32v32h-32zm0 0" fill="#bcbec0"/><path d="m480 104v-64c-.027344-22.082031-17.917969-39.9726562-40-40h-400c-22.082031.0273438-39.9726562 17.917969-40 40v128c.0273438 22.082031 17.917969 39.972656 40 40v16h-32c-4.417969 0-8 3.582031-8 8v80c.0664062 57.410156 46.589844 103.933594 104 104h-80c-13.253906 0-24 10.746094-24 24v16c0 13.253906 10.746094 24 24 24h384c32.867188.015625 61.570312-22.226562 69.761719-54.054688 1.480469-5.867187 2.230469-11.894531 2.238281-17.945312v-224c0-17.253906-6.234375-33.925781-17.550781-46.945312 10.953125-7.4375 17.527343-19.8125 17.550781-33.054688zm-424 104h16v16h-16zm-40 104v-72h192v72c-.054688 48.578125-39.421875 87.945312-88 88h-16c-48.578125-.054688-87.945312-39.421875-88-88zm208 0v-80c0-4.417969-3.582031-8-8-8h-128v-16h16c22.074219-.042969 39.957031-17.925781 40-40v-24h120c2.472656 0 4.863281.070312 7.34375.296875 45.496094 4.03125 80.441406 42.03125 80.65625 87.703125v96c-.226562 45.699219-35.210938 83.710938-80.734375 87.710938-2.402344.21875-4.800781.289062-7.265625.289062h-144c57.410156-.066406 103.933594-46.589844 104-104zm240 96c-.007812 4.722656-.597656 9.421875-1.753906 14-6.382813 24.734375-28.699219 42.011719-54.246094 42h-384c-4.417969 0-8-3.582031-8-8v-16c0-4.417969 3.582031-8 8-8h248c1.101562-.007812 2.191406-.238281 3.199219-.679688 52.648437-5.949218 92.519531-50.339843 92.800781-103.320312v-96c-.15625-35.746094-18.5625-68.9375-48.800781-88h120.800781c2.167969-.011719 4.335938-.199219 6.472656-.566406 11.195313 10.519531 17.539063 25.203125 17.527344 40.566406zm0-304c-.019531 10.773438-7.214844 20.214844-17.601562 23.089844-2.070313.628906-4.230469.9375-6.398438.910156h-304c-4.417969 0-8 3.582031-8 8v32c-.042969 13.238281-10.761719 23.957031-24 24h-64c-13.253906 0-24-10.746094-24-24v-128c0-13.253906 10.746094-24 24-24h400c13.253906 0 24 10.746094 24 24zm0 0"/><path d="m440 32h-96c-4.417969 0-8 3.582031-8 8v32c0 4.417969 3.582031 8 8 8h96c4.417969 0 8-3.582031 8-8v-32c0-4.417969-3.582031-8-8-8zm-8 32h-80v-16h80zm0 0"/><path d="m440 96h-96c-4.417969 0-8 3.582031-8 8s3.582031 8 8 8h96c4.417969 0 8-3.582031 8-8s-3.582031-8-8-8zm0 0"/><path d="m32 40c-4.417969 0-8 3.582031-8 8v16c0 4.417969 3.582031 8 8 8s8-3.582031 8-8v-16c0-4.417969-3.582031-8-8-8zm0 0"/><path d="m32 80c-4.417969 0-8 3.582031-8 8v48c0 4.417969 3.582031 8 8 8s8-3.582031 8-8v-48c0-4.417969-3.582031-8-8-8zm0 0"/></svg>