<svg xmlns="http://www.w3.org/2000/svg">

	<symbol id="logo-outline" viewBox="0 0 69 70">
		<path d="M68.9541 37.595C68.8241 34.493 66.5621 31.94 62.9101 29.063C59.8401 26.575 51.2441 19.53 51.2441 19.53C53.6351 17.623 54.1841 16.977 56.0271 15.522C61.6171 11.062 60.8741 6.79704 60.3251 5.18104C59.2581 2.17504 56.1551 0.139038 52.6011 0.139038H12.8501C7.19507 0.140038 2.41207 3.34004 0.667067 8.28304C-1.20793 13.648 0.925067 19.497 6.38707 23.893L17.6971 32.942C16.0821 33.394 14.4341 34.234 12.9151 35.689C10.7821 37.725 9.68307 40.504 9.81207 43.542C9.97407 47.355 12.0421 51.072 15.6621 53.948L34.9231 69.364L64.5911 45.578C67.5961 43.122 69.0831 40.439 68.9541 37.595ZM37.8321 5.95604H52.6001C53.6661 5.95604 54.6041 6.44104 54.8301 7.08704C55.0881 7.76704 54.5711 9.22004 52.4061 10.966C48.4311 14.133 42.1611 19.174 37.8311 22.632L37.8321 5.95604ZM10.0061 19.304C6.54807 16.524 5.09407 13.099 6.12807 10.158C7.03307 7.57204 9.65107 5.92404 12.8181 5.92404H31.9821V36.852C25.6161 31.778 14.5001 22.891 10.0061 19.304ZM19.3141 49.327C17.0521 47.517 15.7261 45.287 15.6301 43.219C15.5651 41.894 16.0171 40.698 16.9551 39.825C20.2831 36.723 23.6771 37.595 27.1671 40.407C28.3631 41.344 30.7541 43.251 32.0151 44.285V59.507L19.3141 49.327ZM60.6481 41.247L37.7991 59.507V30.065C38.6391 29.387 41.0311 27.706 42.5501 26.478C45.0701 24.442 48.0121 24.28 50.4681 26.252C54.1521 29.192 56.8351 31.649 59.6781 33.976C61.6821 35.624 62.8131 36.981 62.8461 38.08C62.9101 39.276 61.5211 40.569 60.6481 41.247Z"/>
	</symbol>

	<symbol id="i-telegram" viewBox="0 0 24 24">
		<circle cx="12" cy="12" fill="#039be5" r="12"/><path d="m5.491 11.74 11.57-4.461c.537-.194 1.006.131.832.943l.001-.001-1.97 9.281c-.146.658-.537.818-1.084.508l-3-2.211-1.447 1.394c-.16.16-.295.295-.605.295l.213-3.053 5.56-5.023c.242-.213-.054-.333-.373-.121l-6.871 4.326-2.962-.924c-.643-.204-.657-.643.136-.953z" fill="#fff"/>
	</symbol>

	<symbol id="i-whatsapp" viewBox="0 0 512 512">
		<path style="fill:#4CAF50;" d="M256.064,0h-0.128l0,0C114.784,0,0,114.816,0,256c0,56,18.048,107.904,48.736,150.048l-31.904,95.104  l98.4-31.456C155.712,496.512,204,512,256.064,512C397.216,512,512,397.152,512,256S397.216,0,256.064,0z"/>
		<path style="fill:#FAFAFA;" d="M405.024,361.504c-6.176,17.44-30.688,31.904-50.24,36.128c-13.376,2.848-30.848,5.12-89.664-19.264  C189.888,347.2,141.44,270.752,137.664,265.792c-3.616-4.96-30.4-40.48-30.4-77.216s18.656-54.624,26.176-62.304  c6.176-6.304,16.384-9.184,26.176-9.184c3.168,0,6.016,0.16,8.576,0.288c7.52,0.32,11.296,0.768,16.256,12.64  c6.176,14.88,21.216,51.616,23.008,55.392c1.824,3.776,3.648,8.896,1.088,13.856c-2.4,5.12-4.512,7.392-8.288,11.744  c-3.776,4.352-7.36,7.68-11.136,12.352c-3.456,4.064-7.36,8.416-3.008,15.936c4.352,7.36,19.392,31.904,41.536,51.616  c28.576,25.44,51.744,33.568,60.032,37.024c6.176,2.56,13.536,1.952,18.048-2.848c5.728-6.176,12.8-16.416,20-26.496  c5.12-7.232,11.584-8.128,18.368-5.568c6.912,2.4,43.488,20.48,51.008,24.224c7.52,3.776,12.48,5.568,14.304,8.736  C411.2,329.152,411.2,344.032,405.024,361.504z"/>
	</symbol>

	<symbol id="i-star" viewBox="0 0 512.002 512.002">
		<path d="M511.267,197.258c-1.764-5.431-6.457-9.389-12.107-10.209l-158.723-23.065L269.452,20.157    c-2.526-5.12-7.741-8.361-13.45-8.361c-5.71,0-10.924,3.241-13.451,8.361l-70.988,143.827l-158.72,23.065    c-5.649,0.82-10.344,4.778-12.108,10.208c-1.765,5.431-0.293,11.392,3.796,15.377l114.848,111.954L92.271,482.671    c-0.966,5.628,1.348,11.314,5.967,14.671c2.613,1.898,5.708,2.864,8.818,2.864c2.388,0,4.784-0.569,6.978-1.723l141.967-74.638    l141.961,74.637c5.055,2.657,11.178,2.215,15.797-1.141c4.619-3.356,6.934-9.044,5.969-14.672l-27.117-158.081l114.861-111.955    C511.56,208.649,513.033,202.688,511.267,197.258z"/>
	</symbol>

	<symbol id="i-reload" viewBox="0 0 512 512">
		<path d="m464.022 232h-.022a24 24 0 0 0 -23.98 24.021 184.063 184.063 0 0 1 -289.527 150.688c-83.1-58.188-103.369-173.136-45.181-256.237s173.137-103.372 256.237-45.182a184.078 184.078 0 0 1 34.012 30.71h-67.54a24 24 0 0 0 0 48h112a24 24 0 0 0 24-24v-112a24 24 0 0 0 -48 0v39.967a234.175 234.175 0 0 0 -26.94-22 231.982 231.982 0 1 0 -266.119 380.061 230.285 230.285 0 0 0 132.567 42.015 234.971 234.971 0 0 0 40.776-3.585 232.025 232.025 0 0 0 191.716-228.479 24 24 0 0 0 -23.999-23.979z"/>
	</symbol>

	<symbol id="i-user" viewBox="0 0 480 480">
		<path d="M432.157,219.456L431.997,80c0-6.72-4.224-12.736-10.528-15.04l-176-64c-3.52-1.28-7.392-1.28-10.944,0l-176,64    C52.189,67.264,47.997,73.28,47.997,80l-0.16,139.456c-1.056,114.208-1.856,196.704,187.104,259.712    c1.632,0.544,3.36,0.832,5.056,0.832s3.424-0.288,5.056-0.8C433.981,416.192,433.245,333.696,432.157,219.456z M239.997,96    c35.296,0,64,28.704,64,64c0,35.296-28.704,64-64,64s-64-28.704-64-64S204.701,96,239.997,96z M319.997,352h-160    c-8.832,0-16-7.168-16-16c0-44.128,35.904-80,80-80h32c44.128,0,80,35.872,80,80C335.997,344.832,328.829,352,319.997,352z"/>
	</symbol>

	<symbol id="i-menu" viewBox="0 0 512 512">
		<path d="M432 0h-76c-44.112 0-80 35.888-80 80v76c0 44.112 35.888 80 80 80h76c44.112 0 80-35.888 80-80V80c0-44.112-35.888-80-80-80zm40 156c0 22.056-17.944 40-40 40h-76c-22.056 0-40-17.944-40-40V80c0-22.056 17.944-40 40-40h76c22.056 0 40 17.944 40 40v76zM156 0H80C35.888 0 0 35.888 0 80v76c0 44.112 35.888 80 80 80h76c44.112 0 80-35.888 80-80V80c0-44.112-35.888-80-80-80zm40 156c0 22.056-17.944 40-40 40H80c-22.056 0-40-17.944-40-40V80c0-22.056 17.944-40 40-40h76c22.056 0 40 17.944 40 40v76zM156 276H80c-44.112 0-80 35.888-80 80v76c0 44.112 35.888 80 80 80h76c44.112 0 80-35.888 80-80v-76c0-44.112-35.888-80-80-80zm40 156c0 22.056-17.944 40-40 40H80c-22.056 0-40-17.944-40-40v-76c0-22.056 17.944-40 40-40h76c22.056 0 40 17.944 40 40v76zM492 412c-11.046 0-20 8.954-20 20 0 22.056-17.944 40-40 40h-76c-22.056 0-40-17.944-40-40v-76c0-22.056 17.944-40 40-40h76a40.03 40.03 0 0 1 36.675 23.996c4.425 10.121 16.218 14.736 26.338 10.312 10.121-4.426 14.737-16.218 10.312-26.338C492.582 294.829 463.8 276 432 276h-76c-44.112 0-80 35.888-80 80v76c0 44.112 35.888 80 80 80h76c44.112 0 80-35.888 80-80 0-11.046-8.954-20-20-20z"/>
	</symbol>

</svg>