<svg width="80" height="37" viewBox="0 0 80 37" fill="none" xmlns="http://www.w3.org/2000/svg">
<g clip-path="url(#clip0)">
<path d="M2.61516 10.831C2.61516 6.60713 2.61516 6.70152 2.61516 5.80483C2.58642 4.91845 2.22127 4.07559 1.59287 3.44514C1.09525 3.15286 0.559182 2.9305 0 2.78442H8.29718C7.89257 2.97507 7.50314 3.19594 7.13224 3.44514C6.80844 3.74826 6.55067 4.11403 6.37484 4.51988C6.19902 4.92574 6.10887 5.36305 6.10995 5.80483C6.10995 6.67792 6.10995 6.60713 6.10995 10.831V15.7155C6.04572 17.7542 6.10129 19.7949 6.27637 21.8272C6.46657 22.9834 9.29569 23.4789 9.29569 23.4789L0 23.5969C0 23.5969 2.37741 23.0542 2.56761 21.8272C2.69099 19.8075 2.69099 17.7824 2.56761 15.7627L2.61516 10.831Z" fill="white"/>
<path d="M64.8797 16.1874C64.7371 16.1874 64.6895 16.1874 64.642 16.3998L63.2155 20.2697C62.9302 20.954 62.7163 21.6855 62.9302 22.0631C63.1442 22.4406 64.7133 22.9361 64.7133 22.9361H57.5811C58.4106 22.7732 59.187 22.4103 59.842 21.8795C60.497 21.3487 61.0105 20.6662 61.3374 19.8921L67.7564 3.37428C68.0892 2.59558 68.2319 2.28882 68.5172 2.28882C68.8024 2.28882 68.9213 2.52479 69.2066 3.13831C69.8723 4.62491 74.1992 15.5975 76.0773 19.6562C76.408 20.4744 76.9405 21.1971 77.6259 21.7578C78.3113 22.3186 79.1277 22.6994 80.0001 22.8653H72.8678C72.8678 22.8653 73.7237 22.6058 73.4622 21.9923L71.3225 16.329C71.302 16.2711 71.2631 16.2214 71.2116 16.1873C71.1602 16.1533 71.099 16.1367 71.0372 16.1402L64.8797 16.1874ZM70.3953 14.7952C70.538 14.7952 70.5617 14.7952 70.538 14.63L68.0179 7.99928C68.0179 7.99928 68.0179 7.76331 67.8753 7.76331C67.7326 7.76331 67.7564 7.90489 67.7326 7.99928L65.3552 14.6536V14.8424L70.3953 14.7952Z" fill="white"/>
<path d="M26.3893 16.5176C25.6998 15.7153 25.0104 14.8423 24.2496 13.8984C25.3283 13.2116 26.2228 12.2751 26.8564 11.1695C27.49 10.0638 27.8437 8.82205 27.8871 7.55081C27.8743 6.81215 27.6922 6.0861 27.3544 5.4278C27.0166 4.7695 26.532 4.19628 25.9376 3.7517C24.3738 2.86261 22.5743 2.46752 20.7786 2.61905L12.3625 2.83142L13.9316 3.25617C14.8588 3.44494 15.0966 3.89328 15.1679 4.83716C15.2392 5.78104 15.1679 6.48895 15.1679 10.7128V15.621C15.1679 18.1694 15.1679 20.3403 15.1679 21.5438C15.1679 22.7472 14.9777 22.7236 14.3596 23.0776C13.8876 23.2677 13.4031 23.4253 12.9094 23.5495H21.5631L19.8514 23.1248C19.0431 22.8888 18.8529 22.4169 18.7578 21.6146C18.5854 19.6295 18.5219 17.6365 18.5676 15.6446V15.1726C18.5676 15.0074 18.5676 14.9602 18.8053 14.9602H21.3967C21.4926 14.9507 21.5894 14.9628 21.6799 14.9954C21.7705 15.0281 21.8524 15.0806 21.9198 15.149C22.2764 15.5502 23.5839 17.5087 24.7013 18.9481L24.8678 19.1369C26.8761 21.5916 29.6407 23.3242 32.737 24.0687C34.784 24.399 36.8713 24.399 38.9183 24.0687C36.3507 23.5967 32.3328 24.2338 26.5082 16.2817L26.3893 16.5176ZM22.9658 13.1433C22.6863 13.3514 22.368 13.5024 22.0293 13.5875C21.6905 13.6725 21.3381 13.69 20.9926 13.6388C20.27 13.6646 19.5479 13.577 18.8529 13.3793C18.6627 13.3793 18.6152 13.1905 18.5914 12.8837V4.43601C18.5914 4.22364 18.5914 4.10566 18.8529 4.03486C19.3381 3.93972 19.8326 3.90013 20.3269 3.91688C21.9673 3.91688 24.6062 5.02594 24.6538 8.96662C24.741 9.74042 24.6397 10.5237 24.3584 11.2505C24.0771 11.9774 23.6239 12.6265 23.0371 13.1433" fill="white"/>
<path d="M43.4352 36.1503C43.4352 36.4335 43.4352 36.4571 43.3163 36.5279C42.5673 36.8531 41.7564 37.0141 40.9389 36.9998C38.4426 36.9998 36.1841 35.8672 36.1841 33.0591C36.1615 32.4008 36.3119 31.7479 36.6203 31.1646C36.9287 30.5812 37.3847 30.0876 37.9434 29.732C38.7641 29.2347 39.7173 28.9961 40.6774 29.0477C41.2829 29.0366 41.888 29.084 42.4842 29.1892C42.7531 29.2137 43.0237 29.2137 43.2926 29.1892C43.4352 29.1892 43.4352 29.1892 43.4352 29.3072C43.4352 29.4252 43.4352 29.7084 43.4352 30.9826C43.4352 31.1478 43.4352 31.195 43.4352 31.195C43.4016 31.1893 43.3712 31.172 43.3494 31.146C43.3276 31.12 43.3159 31.0872 43.3163 31.0534C43.2945 30.7461 43.1689 30.4551 42.9597 30.2275C42.6351 29.9493 42.2572 29.739 41.8486 29.6092C41.4401 29.4795 41.0094 29.4329 40.5823 29.4724C39.8507 29.4142 39.1252 29.6429 38.5615 30.1095C38.2441 30.4128 37.9968 30.7808 37.8367 31.1882C37.6766 31.5957 37.6075 32.0327 37.6343 32.4692C37.5979 32.9594 37.6648 33.4517 37.8307 33.9148C37.9966 34.3779 38.2578 34.8017 38.5977 35.1591C38.9377 35.5165 39.3489 35.7997 39.8052 35.9907C40.2615 36.1816 40.7529 36.2762 41.248 36.2683C41.5385 36.2892 41.8301 36.249 42.1039 36.1503C42.2703 36.1503 42.2941 35.938 42.2941 35.7728V34.8053C42.2941 34.3098 42.2941 33.9322 42.2941 33.6255C42.2941 33.3187 42.2941 33.1063 41.8423 33.0355H41.462H41.2955C41.2955 33.0355 41.2955 33.0355 41.5095 32.9176C42.0325 32.9176 42.6744 32.9176 42.9835 32.9176H44.196C44.3149 32.9176 44.3862 32.9176 44.3862 32.9176C44.3862 32.9176 44.3862 32.9176 44.2673 32.9176H43.982C43.7205 32.9176 43.6016 33.1299 43.6016 33.4839C43.6016 33.8378 43.6016 34.1918 43.6016 34.7109L43.4352 36.1503Z" fill="white"/>
<path d="M47.0254 32.068C47.0254 30.5342 47.0254 30.2511 47.0254 29.9207C47.0254 29.5904 47.0254 29.4016 46.5974 29.3308H46.1933C46.0744 29.3308 46.0269 29.3308 46.0269 29.3308C46.0269 29.3308 46.0269 29.2128 46.2408 29.2128H49.0937C49.747 29.1417 50.4059 29.2825 50.9719 29.614C51.1901 29.7764 51.3679 29.9864 51.4916 30.2278C51.6152 30.4691 51.6814 30.7354 51.6851 31.0062C51.6749 31.4777 51.5481 31.9394 51.316 32.3509C51.0838 32.7623 50.7534 33.1109 50.3538 33.3659C51.2809 34.4985 51.9942 35.3952 52.5885 36.0087C52.8897 36.3587 53.2995 36.5994 53.7535 36.693H54.0387H54.1576C54.1576 36.693 54.1576 36.693 53.9674 36.693H52.9927C52.6177 36.729 52.2398 36.6638 51.8991 36.5043C51.3258 36.1209 50.8399 35.6225 50.4726 35.0413C50.0685 34.4749 49.593 33.7906 49.4503 33.649C49.3077 33.5075 49.4503 33.649 49.2601 33.649H48.3805V33.767C48.3805 34.7345 48.3805 35.5368 48.3805 35.9615C48.3805 36.3863 48.4994 36.4807 48.8084 36.5043H49.3077H49.4266C49.4266 36.5043 49.4266 36.5043 49.2364 36.5043H47.5484H46.3121C46.1695 36.5043 46.0982 36.5043 46.0982 36.5043C46.0982 36.5043 46.0982 36.5043 46.2646 36.5043H46.6212C46.8352 36.5043 46.8827 36.2447 46.9303 35.9615C46.9778 35.6784 46.9303 34.7109 46.9303 33.7906L47.0254 32.068ZM48.2379 32.8703C48.2379 32.8703 48.2379 33.0119 48.2379 33.0355C48.498 33.073 48.7622 33.073 49.0224 33.0355C49.1654 33.0952 49.319 33.126 49.4741 33.126C49.6292 33.126 49.7828 33.0952 49.9258 33.0355C50.1293 32.8377 50.286 32.5975 50.3847 32.3322C50.4833 32.067 50.5215 31.7834 50.4964 31.5017C50.4964 30.0623 49.5217 29.6612 48.9273 29.6612C48.7464 29.6294 48.5614 29.6294 48.3805 29.6612C48.3805 29.6612 48.3805 29.6612 48.3805 29.8027L48.2379 32.8703Z" fill="white"/>
<path d="M54.3476 32.8941C54.3331 32.3493 54.4334 31.8074 54.642 31.3032C54.8506 30.799 55.1629 30.3435 55.5589 29.966C55.955 29.5884 56.4261 29.297 56.9421 29.1105C57.4581 28.9239 58.0076 28.8464 58.5556 28.8827C59.086 28.8138 59.6251 28.8605 60.1355 29.0193C60.6459 29.1781 61.1153 29.4453 61.5112 29.8023C61.9071 30.1593 62.22 30.5976 62.428 31.0867C62.6361 31.5758 62.7344 32.104 62.716 32.6346C62.7427 33.1892 62.6532 33.7432 62.453 34.2617C62.2528 34.7801 61.9463 35.2517 61.553 35.6465C61.1597 36.0413 60.6881 36.3508 60.168 36.5553C59.648 36.7599 59.0908 36.8551 58.5318 36.8348C57.9911 36.8707 57.4487 36.7951 56.9389 36.6126C56.4291 36.43 55.9629 36.1447 55.5698 35.7744C55.1767 35.4042 54.8651 34.9571 54.6547 34.4613C54.4444 33.9656 54.3398 33.432 54.3476 32.8941ZM61.2896 33.0121C61.2896 30.6524 59.9345 29.3546 58.2465 29.3546C57.0816 29.3546 55.7502 30.0389 55.8691 32.5638C55.8691 34.6875 57.0816 36.3393 59.0311 36.3157C59.7681 36.3157 61.4085 35.9617 61.4085 33.0121" fill="white"/>
<path d="M65.2838 31.9031C65.2838 30.3457 65.2838 30.0861 65.2838 29.7557C65.2838 29.4254 65.1649 29.2366 64.8321 29.1658H64.4279H64.2615C64.2615 29.1658 64.2615 29.1658 64.4754 29.1658H65.9732H67.2332C67.3997 29.1658 67.471 29.1658 67.471 29.1658C67.471 29.1658 67.471 29.1658 67.3046 29.1658H67.0193C66.734 29.1658 66.6627 29.4018 66.6389 29.7557C66.6151 30.1097 66.6389 30.3693 66.6389 31.9031V33.3189C66.6389 34.8055 66.948 35.419 67.471 35.8202C67.8332 36.1087 68.2913 36.2519 68.7548 36.2213C69.015 36.2259 69.2735 36.1781 69.5146 36.0807C69.7556 35.9834 69.9744 35.8386 70.1575 35.655C70.6649 34.8812 70.8523 33.9431 70.6805 33.0357V31.8559C70.6805 30.2985 70.6805 30.0153 70.6805 29.6849C70.6805 29.3546 70.5616 29.1894 70.2288 29.1186H69.8484H69.682C69.682 29.1186 69.682 29.1186 69.8959 29.1186H71.0609H72.2496C72.3922 29.1186 72.4398 29.1186 72.4398 29.1186C72.4398 29.1186 72.4398 29.1186 72.2734 29.1186C72.1716 29.0962 72.0661 29.0962 71.9643 29.1186C71.7028 29.1186 71.6315 29.331 71.6077 29.6849C71.5839 30.0389 71.6077 30.2985 71.6077 31.8323V33.0357C71.686 33.585 71.6413 34.1446 71.477 34.6748C71.3126 35.205 71.0325 35.6927 70.6567 36.1033C70.3717 36.3615 70.038 36.5612 69.6748 36.6908C69.3117 36.8204 68.9263 36.8774 68.5408 36.8584C68.088 36.9192 67.627 36.8721 67.1962 36.7209C66.7654 36.5697 66.377 36.3188 66.0633 35.989C65.7496 35.6592 65.5196 35.26 65.3923 34.8243C65.265 34.3887 65.2441 33.9293 65.3313 33.4841L65.2838 31.9031Z" fill="white"/>
<path d="M75.1976 31.8085C75.1976 30.2511 75.1976 29.968 75.1976 29.6612C75.1976 29.3544 75.1976 29.1421 74.7459 29.0713H74.3655C74.2466 29.0713 74.1753 29.0713 74.1753 29.0713C74.1753 29.0713 74.1753 29.0713 74.413 29.0713H75.887H77.361C77.7001 29.0343 78.0432 29.0653 78.37 29.1626C78.6967 29.2599 79.0004 29.4215 79.263 29.6376C79.4261 29.7938 79.5563 29.9807 79.6461 30.1872C79.7359 30.3938 79.7834 30.6161 79.786 30.841C79.786 31.4669 79.5355 32.0671 79.0897 32.5096C78.6438 32.9521 78.0391 33.2007 77.4086 33.2007H77.0282C77.0282 33.2007 77.0282 33.0828 77.3135 33.0828C77.7105 33.0243 78.0706 32.8193 78.3218 32.5086C78.5731 32.198 78.6969 31.8047 78.6686 31.4074C78.6844 31.1225 78.6372 30.8376 78.5304 30.5726C78.4237 30.3077 78.2599 30.0691 78.0505 29.8736C77.7709 29.6226 77.4051 29.4875 77.0282 29.496C76.8948 29.4699 76.7575 29.4699 76.624 29.496C76.624 29.496 76.624 29.496 76.624 29.6848V33.7435C76.624 34.6873 76.624 35.466 76.624 35.9144C76.624 36.3627 76.7429 36.4099 77.0282 36.4571H77.5512C77.6701 36.4571 77.7176 36.4571 77.7176 36.4571C77.7176 36.4571 77.7176 36.4571 77.5274 36.4571H74.5557C74.4368 36.4571 74.3655 36.4571 74.3655 36.4571C74.3655 36.4571 74.3655 36.4571 74.5319 36.4571H74.8885C75.0787 36.4571 75.15 36.1975 75.1738 35.8908C75.1976 35.584 75.1738 34.6637 75.1738 33.7199L75.1976 31.8085Z" fill="white"/>
<path d="M56.6301 17.1311C56.6782 16.1695 56.4559 15.2136 55.9882 14.3702C54.4191 12.4353 51.9941 14.3702 51.9941 14.3702C51.9941 14.3702 53.6821 13.7095 54.2527 14.3702C54.8233 15.0309 54.3953 15.5501 55.0135 16.0692C55.6316 16.5883 56.0357 16.0692 56.6301 17.1547" fill="white"/>
<path d="M47.5483 13.0725C48.0573 12.4712 48.7005 11.9961 49.4268 11.6848C50.1532 11.3734 50.9427 11.2346 51.7326 11.2791C56.1308 11.5151 56.1308 13.6388 56.1308 13.6388C55.7803 13.2501 55.3283 12.9651 54.8249 12.8152C54.3215 12.6653 53.7861 12.6564 53.2779 12.7893C52.0417 13.0489 51.5662 13.4265 50.6627 13.1669C49.6544 12.8442 48.5746 12.8115 47.5483 13.0725Z" fill="white"/>
<path d="M35.7802 19.6326C35.175 19.1306 34.7772 18.425 34.6628 17.6504C34.5367 16.9021 34.6798 16.1336 35.067 15.4795C35.5253 16.0615 35.8645 16.7268 36.0655 17.438C36.1469 18.1816 36.0492 18.9338 35.7802 19.6326Z" fill="white"/>
<path d="M54.7994 20.3167C54.7994 20.3167 57.1768 19.6796 56.4635 17.6267C56.3479 17.3641 56.1645 17.1364 55.9319 16.9667C55.6992 16.7969 55.4255 16.6911 55.1385 16.66C54.8515 16.6289 54.5612 16.6735 54.2971 16.7894C54.033 16.9053 53.8044 17.0883 53.6344 17.3199C53.1827 18.0042 53.2778 19.3257 54.4665 19.4201C54.7275 19.4707 54.998 19.4208 55.2233 19.2806C55.4485 19.1403 55.6114 18.9202 55.679 18.6649C55.615 18.7674 55.5258 18.8519 55.4197 18.9106C55.3136 18.9692 55.1942 18.9999 55.0728 18.9999C54.9513 18.9999 54.8319 18.9692 54.7258 18.9106C54.6197 18.8519 54.5305 18.7674 54.4665 18.6649C54.0861 17.9098 55.465 17.2727 55.8692 18.4054C56.2734 19.538 54.7994 20.3639 54.7994 20.3639" fill="white"/>
<path d="M52.8975 21.2371C52.8975 21.2371 52.8975 19.0662 53.9197 19.7269C54.942 20.3877 52.8975 21.2371 52.8975 21.2371Z" fill="white"/>
<path d="M53.1353 21.426C53.1353 21.426 56.5587 19.6326 56.7014 21.426C56.8916 23.6205 53.1353 21.426 53.1353 21.426Z" fill="white"/>
<path d="M52.8975 21.9211C52.8975 21.9211 55.1085 22.3459 54.6567 23.1482C54.205 23.9505 52.8975 21.9211 52.8975 21.9211Z" fill="white"/>
<path d="M54.7996 11.4206C55.7751 11.3096 56.7632 11.4393 57.6762 11.7982C58.4846 12.2465 58.5321 12.9308 58.1279 13.214C57.9937 13.3053 57.8413 13.367 57.681 13.3951C57.5208 13.4231 57.3563 13.4168 57.1987 13.3766C57.0411 13.3364 56.894 13.2632 56.7672 13.1618C56.6404 13.0605 56.537 12.9335 56.4638 12.7892C56.3181 12.4424 56.0911 12.1352 55.8016 11.893C55.5121 11.6508 55.1686 11.4808 54.7996 11.397" fill="white"/>
<path d="M36.2317 10.4533C36.2317 10.4533 38.3951 8.89588 37.5155 8.37675C36.6359 7.85762 36.2317 10.4533 36.2317 10.4533Z" fill="white"/>
<path d="M34.4011 9.86341C34.4011 9.86341 35.7325 8.07004 34.8766 7.88126C34.0207 7.69249 34.4011 9.86341 34.4011 9.86341Z" fill="white"/>
<path d="M53.4917 24.3048C53.349 24.5187 53.1594 24.6977 52.9371 24.8285C52.7147 24.9593 52.4655 25.0384 52.2079 25.0599C51.583 25.0893 50.961 24.9594 50.4011 24.6824C49.7356 25.1219 48.9385 25.3218 48.1425 25.2487C47.6629 25.1837 47.2146 24.9748 46.8578 24.6501C46.5009 24.3255 46.2524 23.9004 46.1455 23.4317C46.3865 23.7793 46.7004 24.071 47.0656 24.2868C47.4308 24.5027 47.8387 24.6376 48.2614 24.6824C49.9969 24.6824 50.4249 23.7149 50.4249 23.7149C50.6412 23.9767 50.9286 24.1715 51.2531 24.2761C51.5776 24.3806 51.9254 24.3906 52.2555 24.3048C53.2302 24.0216 53.254 23.3373 53.254 23.3373C53.4144 23.5372 53.6317 23.6846 53.8776 23.7603C54.1235 23.8361 54.3866 23.8367 54.6329 23.7621C55.1084 23.7621 55.3461 22.8418 55.3461 22.8418C55.5295 23.0498 55.7831 23.1841 56.0593 23.2193C56.2978 23.2344 56.5359 23.1855 56.7488 23.0778C56.7488 23.0778 56.5586 23.6205 56.1544 23.6913C55.9504 23.732 55.7403 23.732 55.5363 23.6913C55.3609 24.0246 55.0629 24.2781 54.7042 24.3992C54.3098 24.5239 53.8861 24.5239 53.4917 24.3992" fill="white"/>
<path d="M49.9256 23.5967C49.9256 23.5967 49.7116 24.1866 48.4278 24.0923C47.144 23.9979 46.835 23.3372 46.835 23.3372C47.3375 23.4899 47.856 23.5849 48.3803 23.6203C48.8943 23.6782 49.4136 23.6703 49.9256 23.5967Z" fill="white"/>
<path d="M46.4785 25.3194C46.4785 25.3194 44.9807 24.8946 44.8619 24.5407C44.743 24.1867 45.9317 23.1484 45.8128 23.1484C45.694 23.1484 43.6494 24.7294 43.8633 24.8946C44.7234 25.0998 45.5974 25.2418 46.4785 25.3194Z" fill="white"/>
<path d="M42.627 24.4935C43.0074 24.6587 45.0044 23.1721 45.0044 22.9597C45.0044 22.7474 43.792 23.5733 43.2214 23.2665C42.6508 22.9597 42.7221 21.5911 42.6032 21.5675C42.4844 21.5439 42.1753 24.3284 42.6032 24.4935" fill="white"/>
<path d="M41.7713 24.045C41.9404 22.9743 41.8002 21.878 41.3671 20.8831C41.2245 20.8831 41.3671 22.3697 40.9392 22.7708C40.5113 23.172 39.0848 22.6292 39.1561 22.7708C39.8984 23.4139 40.802 23.846 41.7713 24.0215" fill="white"/>
<path d="M40.012 22.3936C39.8862 22.337 39.7881 22.2332 39.7391 22.105C39.6901 21.9768 39.6942 21.8346 39.7505 21.7093C39.7719 21.6369 39.809 21.5699 39.8592 21.5132C39.9094 21.4564 39.9714 21.4112 40.041 21.3807C40.1106 21.3502 40.186 21.3351 40.2621 21.3365C40.3382 21.3379 40.413 21.3558 40.4814 21.3889C40.5498 21.4219 40.6101 21.4694 40.6581 21.528C40.7061 21.5866 40.7407 21.6549 40.7593 21.728C40.778 21.8012 40.7804 21.8776 40.7663 21.9518C40.7522 22.026 40.722 22.0963 40.6777 22.1577C40.6524 22.2189 40.6143 22.2741 40.5661 22.3198C40.5179 22.3654 40.4605 22.4005 40.3978 22.4228C40.335 22.445 40.2682 22.4539 40.2018 22.4489C40.1353 22.4439 40.0707 22.4251 40.012 22.3936Z" fill="white"/>
<path d="M38.0386 22.252C37.8915 22.185 37.7768 22.0635 37.719 21.9135C37.6612 21.7635 37.665 21.5969 37.7295 21.4497C37.7957 21.3057 37.9168 21.1938 38.0662 21.1385C38.2155 21.0832 38.3809 21.089 38.5259 21.1547C38.671 21.2204 38.7837 21.3406 38.8395 21.4889C38.8952 21.6371 38.8893 21.8013 38.8231 21.9452C38.7558 22.0854 38.6373 22.1951 38.4917 22.252C38.3461 22.3089 38.1842 22.3089 38.0386 22.252Z" fill="white"/>
<path d="M36.5883 20.7416C36.4376 20.6744 36.3104 20.5642 36.223 20.425C36.1357 20.2858 36.092 20.124 36.0977 19.9601C36.1033 19.7962 36.158 19.6377 36.2547 19.5047C36.3514 19.3718 36.4858 19.2704 36.6408 19.2136C36.7958 19.1567 36.9643 19.1469 37.1249 19.1855C37.2855 19.2241 37.4309 19.3092 37.5426 19.4301C37.6542 19.5509 37.7271 19.7021 37.7519 19.8642C37.7767 20.0263 37.7524 20.1921 37.6819 20.3405C37.5889 20.5362 37.4222 20.6879 37.2177 20.7629C37.0132 20.8379 36.7872 20.8303 36.5883 20.7416Z" fill="white"/>
<path d="M37.2542 18.5708C37.1243 18.5264 37.0051 18.456 36.904 18.3638C36.8028 18.2717 36.7219 18.1598 36.6662 18.0353C36.6106 17.9107 36.5814 17.776 36.5806 17.6398C36.5797 17.5035 36.6072 17.3685 36.6613 17.2432C36.7154 17.118 36.7949 17.0051 36.8949 16.9118C36.9949 16.8184 37.1133 16.7465 37.2425 16.7006C37.3718 16.6546 37.5092 16.6357 37.6462 16.6448C37.7832 16.654 37.9168 16.6911 38.0387 16.7538C38.1595 16.8073 38.2684 16.8841 38.3591 16.9798C38.4497 17.0754 38.5203 17.1879 38.5668 17.3109C38.6132 17.4338 38.6346 17.5647 38.6297 17.6959C38.6247 17.8272 38.5935 17.9561 38.538 18.0752C38.4841 18.1952 38.4067 18.3032 38.3103 18.3932C38.214 18.4832 38.1006 18.5533 37.9767 18.5994C37.8528 18.6455 37.721 18.6667 37.5888 18.6618C37.4566 18.6569 37.3267 18.6259 37.2066 18.5708" fill="white"/>
<path d="M44.0772 22.4641C44.0805 22.5188 44.0724 22.5735 44.0535 22.6249C44.0347 22.6763 44.0054 22.7234 43.9676 22.7632C43.9297 22.803 43.8841 22.8346 43.8334 22.8563C43.7828 22.8779 43.7282 22.889 43.6731 22.8889C43.5636 22.889 43.4582 22.8476 43.3786 22.7729C43.299 22.6983 43.2512 22.5962 43.2451 22.4877C43.2451 22.3751 43.2902 22.267 43.3705 22.1874C43.4507 22.1077 43.5596 22.063 43.6731 22.063C43.7784 22.0687 43.8779 22.1127 43.9525 22.1868C44.0271 22.2608 44.0715 22.3596 44.0772 22.4641Z" fill="white"/>
<path d="M46.0743 24.3047C46.0744 24.3594 46.0633 24.4136 46.0415 24.4638C46.0197 24.5141 45.9878 24.5594 45.9477 24.597C45.9076 24.6346 45.8602 24.6636 45.8084 24.6823C45.7566 24.7011 45.7015 24.709 45.6464 24.7058C45.5872 24.7213 45.525 24.7224 45.4652 24.7089C45.4055 24.6954 45.3499 24.6678 45.3032 24.6284C45.2565 24.589 45.2201 24.539 45.1971 24.4826C45.1741 24.4263 45.1651 24.3652 45.1709 24.3047C45.1766 24.2001 45.221 24.1013 45.2956 24.0273C45.3702 23.9533 45.4697 23.9092 45.5751 23.9035C45.6301 23.9003 45.6852 23.9083 45.7371 23.927C45.7889 23.9457 45.8363 23.9748 45.8764 24.0123C45.9165 24.0499 45.9484 24.0952 45.9701 24.1455C45.9919 24.1958 46.0031 24.25 46.003 24.3047" fill="white"/>
<path d="M51.0193 23.5967C51.1985 23.7171 51.4034 23.7946 51.6179 23.8232C51.8324 23.8519 52.0506 23.8309 52.2555 23.7619C52.4494 23.6971 52.6101 23.5597 52.7034 23.3789C52.7966 23.1982 52.8151 22.9885 52.7548 22.7944C52.5646 23.0703 52.3031 23.2904 51.9978 23.4315C51.6924 23.5727 51.3545 23.6298 51.0193 23.5967Z" fill="white"/>
<path d="M52.7073 18.5945C52.7073 18.5945 52.0653 15.0077 53.2065 14.8425C54.3477 14.6774 54.3477 15.7864 53.6582 16.2584C53.3254 16.5509 53.0661 16.9167 52.901 17.3264C52.7359 17.7361 52.6696 18.1784 52.7073 18.6181" fill="white"/>
<path d="M36.4696 16.6591C36.0513 15.9429 35.8376 15.1271 35.8515 14.2994C35.9139 13.8355 36.0678 13.3883 36.3044 12.9834C36.541 12.5785 36.8556 12.2239 37.2304 11.9397C37.4892 12.2709 37.6775 12.6508 37.7837 13.0565C37.89 13.4622 37.912 13.885 37.8485 14.2994C37.6329 15.2035 37.1532 16.0244 36.4696 16.6591Z" fill="white"/>
<path d="M41.0816 20.7181C41.0816 20.7181 39.4649 21.2137 38.7041 20.3878C37.9434 19.5619 39.0845 18.1697 39.0845 18.1697C39.027 18.7895 39.1957 19.4092 39.56 19.9158C39.9736 20.3301 40.5042 20.6099 41.0816 20.7181Z" fill="white"/>
<path d="M35.5186 12.8365C36.2556 11.8691 37.5869 10.4768 37.5869 10.4768C37.0811 10.6146 36.5998 10.8295 36.1605 11.1139C35.83 11.34 35.5125 11.5842 35.2095 11.8455C35.2095 11.8455 35.4235 10.3824 35.7088 8.91943C34.948 10.0993 34.211 11.2791 34.211 11.2791L33.7593 9.43857C33.5053 10.8956 33.3859 12.3726 33.4027 13.8512C33.497 14.9411 33.7123 16.0173 34.0446 17.0604C34.0414 15.542 34.5615 14.0683 35.5186 12.8837" fill="white"/>
<path d="M37.8245 7.36188C37.4474 7.29158 37.0604 7.29158 36.6833 7.36188C36.3701 7.51294 36.0942 7.73044 35.875 7.999C35.6579 7.58794 35.3055 7.26313 34.8765 7.07872C35.1643 5.99704 35.8299 5.05203 36.7546 4.41227C38.086 3.70436 38.9894 4.57744 38.9894 5.23816C38.9995 5.4092 38.9734 5.58045 38.9128 5.74087C38.8521 5.90129 38.7583 6.04733 38.6374 6.16959C38.5165 6.29185 38.3711 6.38762 38.2106 6.45072C38.0501 6.51383 37.8781 6.54287 37.7056 6.53599C37.4386 6.51393 37.1865 6.40472 36.9886 6.22542C36.7908 6.04612 36.6583 5.80683 36.612 5.54492C36.54 5.74926 36.5197 5.96803 36.5529 6.18199C36.586 6.39595 36.6716 6.59854 36.8022 6.77196C37.1019 7.03727 37.4485 7.24528 37.8245 7.38548" fill="white"/>
<path d="M39.7268 4.71935C39.5714 4.26686 39.2813 3.87187 38.8947 3.5867C38.3 3.45298 37.6826 3.45298 37.0879 3.5867C37.0879 3.5867 38.657 2.45404 39.4653 3.09116C40.2736 3.72828 39.703 4.81374 39.703 4.81374" fill="white"/>
<path d="M56.0832 7.07904C55.9898 5.97192 55.9898 4.85899 56.0832 3.75187C56.1035 2.78134 56.2311 1.81595 56.4636 0.873047C56.0207 1.18665 55.6513 1.59145 55.3805 2.05978C55.1097 2.52811 54.9439 3.04895 54.8945 3.5867C54.9176 4.84477 55.3329 6.06483 56.0832 7.07904Z" fill="white"/>
<path d="M40.4158 3.68102C40.445 3.20288 40.2923 2.73128 39.9879 2.35959C39.8482 2.24267 39.6837 2.15859 39.5067 2.11364C39.3296 2.06869 39.1447 2.06404 38.9656 2.10003C39.4274 1.78902 39.9122 1.51294 40.4158 1.27414C41.1244 0.910382 41.8748 0.633069 42.6506 0.448242C42.1021 0.726566 41.604 1.09338 41.1766 1.5337C40.7012 2.15553 40.4202 2.90216 40.3683 3.68102" fill="white"/>
<path d="M41.3193 2.97311C41.5242 2.26916 41.9285 1.63848 42.4843 1.15615C43.0761 0.803116 43.7292 0.563022 44.41 0.448242C44.15 1.05718 43.7415 1.59237 43.2213 2.00564C42.6159 2.38081 41.9797 2.70446 41.3193 2.97311Z" fill="white"/>
<path d="M44.291 1.88753C44.6138 1.62746 44.9086 1.33487 45.1707 1.01444C45.3412 0.741094 45.4769 0.447833 45.5748 0.141357C45.7036 0.459549 45.9173 0.736909 46.193 0.943653C46.5211 1.1826 46.8624 1.40318 47.2152 1.60437C47.2152 1.60437 46.0741 1.60437 45.6461 1.60437C45.2279 1.66988 44.8148 1.7645 44.4099 1.88753" fill="white"/>
<path d="M48.4041 1.46291C48.7156 1.49487 49.0303 1.4586 49.326 1.35667C49.6218 1.25474 49.8914 1.08963 50.1159 0.872985C49.9211 0.630773 49.6802 0.429005 49.4069 0.2792C49.1336 0.129396 48.8333 0.0344889 48.523 -0.000101326C47.8963 -0.0354503 47.281 0.176611 46.8113 0.589822C46.997 0.841438 47.2357 1.04988 47.5107 1.20066C47.7858 1.35144 48.0907 1.44093 48.4041 1.46291Z" fill="white"/>
<path d="M51.5187 1.10906L52.6598 0.35396H52.4221C52.0096 0.273824 51.5848 0.280732 51.1752 0.374237C50.7656 0.467741 50.3804 0.645749 50.0447 0.896689C50.2629 1.26697 50.5582 1.58686 50.9107 1.83505C51.2632 2.08325 51.665 2.25405 52.0893 2.3361H52.3032L51.5187 1.10906Z" fill="white"/>
<path d="M52.8977 1.65165L52.6362 1.2505H53.1592V0.778564L53.5634 1.03813L53.9675 0.778564L54.1577 1.15612L55.0611 1.01453L54.443 1.55726L55.0374 1.74604L54.3955 2.09999L54.7521 2.61913H54.229V3.42142L53.706 2.61913L53.3494 2.8079L53.2305 2.35956H52.8026L52.969 1.98201L52.5886 1.91122L52.8977 1.65165Z" fill="white"/>
</g>
<defs>
<clipPath id="clip0">
<rect width="80" height="37" fill="white"/>
</clipPath>
</defs>
</svg>
