<svg width="375" height="284" viewBox="0 0 375 284" fill="none" xmlns="http://www.w3.org/2000/svg">
<g opacity="0.7">
<circle cx="316.617" cy="279.363" r="0.699952" fill="white" fill-opacity="0.5"/>
<circle cx="72.2971" cy="204.941" r="0.866106" fill="white" fill-opacity="0.3"/>
<circle cx="5.76957" cy="228.394" r="0.639683" fill="white" fill-opacity="0.6"/>
<circle cx="1.60868" cy="167.994" r="0.621616" fill="white" fill-opacity="0.6"/>
<circle cx="133.096" cy="99.3934" r="0.690477" fill="white" fill-opacity="0.6"/>
<circle cx="12.4038" cy="49.7392" r="0.76211" fill="white" fill-opacity="0.5"/>
<circle cx="259.685" cy="268.013" r="0.596974" fill="white" fill-opacity="0.3"/>
<circle cx="69.1681" cy="42.5704" r="0.69691" fill="white" fill-opacity="0.5"/>
<circle cx="262.168" cy="101.191" r="0.711451" fill="white" fill-opacity="0.6"/>
<circle cx="4.82309" cy="248.757" r="0.876195" fill="white" fill-opacity="0.5"/>
<circle cx="122.443" cy="114.196" r="0.693902" fill="white" fill-opacity="0.3"/>
<circle cx="372.827" cy="62.6721" r="0.671636" fill="white" fill-opacity="0.5"/>
<circle cx="1.12291" cy="27.8035" r="0.729233" fill="white" fill-opacity="0.4"/>
<circle cx="227.811" cy="95.2497" r="0.689881" fill="white" fill-opacity="0.5"/>
<circle cx="132.578" cy="151.562" r="0.765212" fill="white" fill-opacity="0.4"/>
<circle cx="205.936" cy="77.5182" r="0.718168" fill="white" fill-opacity="0.6"/>
<circle cx="301.379" cy="253.469" r="0.852779" fill="white" fill-opacity="0.6"/>
<circle cx="186.971" cy="227.267" r="0.696622" fill="white" fill-opacity="0.3"/>
<circle cx="354.043" cy="116.11" r="0.831583" fill="white" fill-opacity="0.4"/>
<circle cx="29.6136" cy="182.384" r="0.80469" fill="white" fill-opacity="0.5"/>
<circle cx="50.9692" cy="234.523" r="0.848888" fill="white" fill-opacity="0.4"/>
<circle cx="35.466" cy="7.68301" r="0.735984" fill="white" fill-opacity="0.4"/>
<circle cx="358.754" cy="190.674" r="0.806592" fill="white" fill-opacity="0.4"/>
<circle cx="77.5631" cy="87.0759" r="0.804401" fill="white" fill-opacity="0.4"/>
<circle cx="307.897" cy="249.924" r="0.859109" fill="white" fill-opacity="0.5"/>
<circle cx="353.292" cy="25.9696" r="0.671462" fill="white" fill-opacity="0.6"/>
<circle cx="16.0543" cy="39.1817" r="0.859953" fill="white" fill-opacity="0.6"/>
<circle cx="109.965" cy="270.432" r="0.647362" fill="white" fill-opacity="0.3"/>
<circle cx="242.772" cy="56.9323" r="0.85128" fill="white" fill-opacity="0.6"/>
<circle cx="120.095" cy="264.578" r="0.713183" fill="white" fill-opacity="0.5"/>
<circle cx="270.557" cy="222.647" r="0.813803" fill="white" fill-opacity="0.3"/>
<circle cx="348.076" cy="37.3301" r="0.784446" fill="white" fill-opacity="0.3"/>
<circle cx="285.222" cy="74.5187" r="0.678364" fill="white" fill-opacity="0.4"/>
<circle cx="129.655" cy="215.532" r="0.802016" fill="white" fill-opacity="0.4"/>
<circle cx="55.6198" cy="210.758" r="0.763236" fill="white" fill-opacity="0.4"/>
<circle cx="244.373" cy="83.9883" r="0.676482" fill="white" fill-opacity="0.6"/>
<circle cx="160.284" cy="15.291" r="0.648472" fill="white" fill-opacity="0.4"/>
<circle cx="247.356" cy="249.764" r="0.698949" fill="white" fill-opacity="0.6"/>
<circle cx="7.6187" cy="218.402" r="0.711873" fill="white" fill-opacity="0.5"/>
<circle cx="325.601" cy="62.2134" r="0.804688" fill="white" fill-opacity="0.5"/>
<circle cx="119.592" cy="123.185" r="0.803196" fill="white" fill-opacity="0.5"/>
<circle cx="155.784" cy="56.3721" r="0.883131" fill="white" fill-opacity="0.5"/>
<circle cx="171.61" cy="99.4299" r="0.727048" fill="white" fill-opacity="0.6"/>
<circle cx="113.102" cy="252.848" r="0.82322" fill="white" fill-opacity="0.4"/>
<circle cx="102.969" cy="56.2439" r="0.754837" fill="white" fill-opacity="0.5"/>
<circle cx="26.4631" cy="100.501" r="0.614002" fill="white" fill-opacity="0.4"/>
<circle cx="196.444" cy="265.746" r="0.69723" fill="white" fill-opacity="0.6"/>
<circle cx="180.561" cy="30.2404" r="0.798039" fill="white" fill-opacity="0.6"/>
<circle cx="38.9864" cy="-0.0429624" r="0.705573" fill="white" fill-opacity="0.3"/>
<circle cx="96.5512" cy="58.7057" r="0.848304" fill="white" fill-opacity="0.5"/>
<circle cx="196.951" cy="259.741" r="0.613189" fill="white" fill-opacity="0.3"/>
<circle cx="288.733" cy="56.7189" r="0.637861" fill="white" fill-opacity="0.5"/>
<circle cx="179.299" cy="63.9044" r="0.719579" fill="white" fill-opacity="0.5"/>
<circle cx="266.43" cy="136.828" r="0.830232" fill="white" fill-opacity="0.4"/>
<circle cx="336.085" cy="0.476133" r="0.632627" fill="white" fill-opacity="0.5"/>
<circle cx="57.997" cy="74.022" r="0.773981" fill="white" fill-opacity="0.3"/>
<circle cx="77.3735" cy="8.15379" r="0.614725" fill="white" fill-opacity="0.3"/>
<circle cx="120.202" cy="75.2526" r="0.820446" fill="white" fill-opacity="0.5"/>
<circle cx="124.12" cy="4.58126" r="0.593954" fill="white" fill-opacity="0.6"/>
<circle cx="52.0761" cy="108.946" r="0.771508" fill="white" fill-opacity="0.3"/>
<circle cx="245.023" cy="160.412" r="0.734636" fill="white" fill-opacity="0.5"/>
<circle cx="125.993" cy="100.579" r="0.692114" fill="white" fill-opacity="0.5"/>
</g>
</svg>
