<svg xmlns="http://www.w3.org/2000/svg">

	<symbol id="i-search" viewBox="0 0 24 24">
		<path d="M11.5 21C16.7467 21 21 16.7467 21 11.5C21 6.25329 16.7467 2 11.5 2C6.25329 2 2 6.25329 2 11.5C2 16.7467 6.25329 21 11.5 21Z" stroke-width="1.5" stroke="black" fill="none" stroke-linecap="round" stroke-linejoin="round"/>
        <path d="M22 22L20 20" stroke-width="1.5" stroke="black" stroke-linecap="round" stroke-linejoin="round"/>
	</symbol>

	<symbol id="i-heart" viewBox="0 0 24 24">
		<path d="M12.62 20.8096C12.28 20.9296 11.72 20.9296 11.38 20.8096C8.48 19.8196 2 15.6896 2 8.68961C2 5.59961 4.49 3.09961 7.56 3.09961C9.38 3.09961 10.99 3.97961 12 5.33961C13.01 3.97961 14.63 3.09961 16.44 3.09961C19.51 3.09961 22 5.59961 22 8.68961C22 15.6896 15.52 19.8196 12.62 20.8096Z" stroke-width="1.5" stroke="black" fill="none" stroke-linecap="round" stroke-linejoin="round"/>
	</symbol>

	<symbol id="i-user" viewBox="0 0 24 24">
		<path d="M12 12C14.7614 12 17 9.76142 17 7C17 4.23858 14.7614 2 12 2C9.23858 2 7 4.23858 7 7C7 9.76142 9.23858 12 12 12Z" stroke-width="1.5" fill="none" stroke="black" stroke-linecap="round" stroke-linejoin="round"/>
        <path d="M20.59 22C20.59 18.13 16.74 15 12 15C7.26003 15 3.41003 18.13 3.41003 22" stroke-width="1.5" stroke-linecap="round" fill="none" stroke="black" stroke-linejoin="round"/>
	</symbol>

	<symbol id="i-bag" viewBox="0 0 24 24">
		<path d="M7.5 7.66952V6.69952C7.5 4.44952 9.31 2.23952 11.56 2.02952C14.24 1.76952 16.5 3.87952 16.5 6.50952V7.88952" stroke="black" stroke-width="1.5" fill="none" stroke-miterlimit="10" stroke-linecap="round" stroke-linejoin="round"/>
        <path d="M9.0008 22H15.0008C19.0208 22 19.7408 20.39 19.9508 18.43L20.7008 12.43C20.9708 9.99 20.2708 8 16.0008 8H8.0008C3.7308 8 3.0308 9.99 3.3008 12.43L4.0508 18.43C4.2608 20.39 4.9808 22 9.0008 22Z" stroke="black" fill="none" stroke-width="1.5" stroke-miterlimit="10" stroke-linecap="round" stroke-linejoin="round"/>
        <path d="M15.4945 12H15.5035" stroke="black" fill="none" stroke-width="2" stroke-linecap="round" stroke-linejoin="round"/>
        <path d="M8.49451 12H8.50349" stroke="black" fill="none" stroke-width="2" stroke-linecap="round" stroke-linejoin="round"/>
	</symbol>

</svg>