<svg xmlns="http://www.w3.org/2000/svg">

<symbol id="entry" viewBox="0 0 14 14">
	<path d="M7.58333 5.25L9.33333 7M9.33333 7L7.58333 8.75M9.33333 7H4.66667M1.75 7C1.75 4.10051 4.10051 1.75 7 1.75C9.8995 1.75 12.25 4.10051 12.25 7C12.25 9.8995 9.8995 12.25 7 12.25C4.10051 12.25 1.75 9.8995 1.75 7Z" stroke-width="1.16667" stroke-linecap="round" stroke-linejoin="round"/>
</symbol>

<symbol id="back" viewBox="0 0 14 14">
	<path d="M6.41667 5.25L4.66667 7M4.66667 7L6.41667 8.75M4.66667 7H9.33333M12.25 7C12.25 4.10051 9.8995 1.75 7 1.75C4.10051 1.75 1.75 4.10051 1.75 7C1.75 9.8995 4.10051 12.25 7 12.25C9.8995 12.25 12.25 9.8995 12.25 7Z" stroke-width="1.16667" stroke-linecap="round" stroke-linejoin="round"/>
</symbol>


<symbol id="telegram" viewBox="0 0 15 14">
	<path d="M3.60924 8.11186L5.47485 13.0644L7.90363 10.4852L12.0679 14L15 0L0 6.63493L3.60924 8.11186ZM10.7137 4.01674L6.12247 8.4638L5.55061 10.7525L4.49421 7.94743L10.7137 4.01674Z" />
</symbol>

<symbol id="vk" viewBox="-2.5 0 32 32">
	<path d="M16.563 15.75c-0.5-0.188-0.5-0.906-0.531-1.406-0.125-1.781 0.5-4.5-0.25-5.656-0.531-0.688-3.094-0.625-4.656-0.531-0.438 0.063-0.969 0.156-1.344 0.344s-0.75 0.5-0.75 0.781c0 0.406 0.938 0.344 1.281 0.875 0.375 0.563 0.375 1.781 0.375 2.781 0 1.156-0.188 2.688-0.656 2.75-0.719 0.031-1.125-0.688-1.5-1.219-0.75-1.031-1.5-2.313-2.063-3.563-0.281-0.656-0.438-1.375-0.844-1.656-0.625-0.438-1.75-0.469-2.844-0.438-1 0.031-2.438-0.094-2.719 0.5-0.219 0.656 0.25 1.281 0.5 1.813 1.281 2.781 2.656 5.219 4.344 7.531 1.563 2.156 3.031 3.875 5.906 4.781 0.813 0.25 4.375 0.969 5.094 0 0.25-0.375 0.188-1.219 0.313-1.844s0.281-1.25 0.875-1.281c0.5-0.031 0.781 0.406 1.094 0.719 0.344 0.344 0.625 0.625 0.875 0.938 0.594 0.594 1.219 1.406 1.969 1.719 1.031 0.438 2.625 0.313 4.125 0.25 1.219-0.031 2.094-0.281 2.188-1 0.063-0.563-0.563-1.375-0.938-1.844-0.938-1.156-1.375-1.5-2.438-2.563-0.469-0.469-1.063-0.969-1.063-1.531-0.031-0.344 0.25-0.656 0.5-1 1.094-1.625 2.188-2.781 3.188-4.469 0.281-0.5 0.938-1.656 0.688-2.219-0.281-0.625-1.844-0.438-2.813-0.438-1.25 0-2.875-0.094-3.188 0.156-0.594 0.406-0.844 1.063-1.125 1.688-0.625 1.438-1.469 2.906-2.344 4-0.313 0.375-0.906 1.156-1.25 1.031z"></path>
</symbol>

<symbol id="max" viewBox="0 0 42 42">
	<path fill-rule="evenodd" clip-rule="evenodd" d="M21.39 41.58C17.28 41.58 15.37 40.98 12.05 38.58C9.95 41.28 3.3 43.39 3.01 39.78C3.01 37.07 2.41 34.78 1.73 32.28C0.92 29.2 0 25.77 0 20.8C0 8.93 9.74 0 21.28 0C32.83 0 41.88 9.37 41.88 20.91C41.8986 26.3666 39.7516 31.6076 35.9101 35.4829C32.0686 39.3581 26.8465 41.5509 21.39 41.58ZM21.56 10.26C15.94 9.97 11.56 13.86 10.59 19.96C9.79 25.01 11.21 31.16 12.42 31.48C13 31.62 14.46 30.44 15.37 29.53C16.8747 30.5695 18.627 31.1938 20.45 31.34C23.2493 31.4746 25.9896 30.5057 28.0821 28.6414C30.1745 26.777 31.452 24.1662 31.64 21.37C31.7494 18.568 30.7545 15.8351 28.8694 13.7592C26.9842 11.6833 24.3595 10.4303 21.56 10.27V10.26Z" />
</symbol>

<symbol id="instagram" viewBox="0 0 15 15">
	<path d="M9.73374 14.029H4.29509C1.92672 14.029 0 12.1023 0 9.73392V4.29509C0 1.92672 1.92672 0 4.29509 0H9.73374C12.1021 0 14.0288 1.92672 14.0288 4.29509V9.73392C14.029 12.1021 12.1023 14.029 9.73374 14.029ZM4.29509 1.05051C2.50606 1.05051 1.05051 2.50606 1.05051 4.29509V9.73392C1.05051 11.5229 2.50606 12.9785 4.29509 12.9785H9.73374C11.523 12.9785 12.9785 11.5229 12.9785 9.73392V4.29509C12.9785 2.50606 11.523 1.05051 9.73374 1.05051H4.29509Z" />
	<path d="M7.01443 10.563C5.05767 10.563 3.46588 8.97107 3.46588 7.01431C3.46588 5.05754 5.05767 3.46558 7.01443 3.46558C8.9712 3.46558 10.5632 5.05754 10.5632 7.01431C10.5632 8.97107 8.9712 10.563 7.01443 10.563ZM7.01443 4.5414C5.65085 4.5414 4.54152 5.65073 4.54152 7.01449C4.54152 8.37807 5.65085 9.4874 7.01443 9.4874C8.37801 9.4874 9.48734 8.37807 9.48734 7.01449C9.48734 5.65073 8.37801 4.5414 7.01443 4.5414Z" />
	<path d="M11.8732 3.07969C11.8732 3.59001 11.4596 4.00361 10.9493 4.00361C10.4389 4.00361 10.0253 3.59001 10.0253 3.07969C10.0253 2.56937 10.4389 2.15576 10.9493 2.15576C11.4596 2.15576 11.8732 2.56937 11.8732 3.07969Z" />
</symbol>

<symbol id="youtube" viewBox="0 0 22 14">
	<path d="M21.8 3.6C21.6 2.1 21.4 1 20.8 0.6C20.2 0.0999999 15 0 11 0C7 0 1.8 0.0999999 1.2 0.6C0.6 1 0.4 2.1 0.2 3.6C4.47035e-08 5.1 0 6 0 7C0 8 4.47035e-08 8.9 0.2 10.4C0.4 11.9 0.6 13 1.2 13.4C1.8 13.9 7 14 11 14C15 14 20.2 13.9 20.8 13.4C21.4 13 21.6 11.9 21.8 10.4C22 8.9 22 8 22 7C22 6 22 5.1 21.8 3.6ZM9 10.6V3.4L15 7L9 10.6Z" />
</symbol>

<symbol id="user-ok" viewBox="0 0 24 24">
		<path d="M15 19C15 16.7909 12.3137 15 9 15C5.68629 15 3 16.7909 3 19M21 10L17 14L15 12M9 12C6.79086 12 5 10.2091 5 8C5 5.79086 6.79086 4 9 4C11.2091 4 13 5.79086 13 8C13 10.2091 11.2091 12 9 12Z" stroke-width="2" stroke-linecap="round" stroke-linejoin="round"/>
</symbol>

<symbol id="chat" viewBox="0 0 15 15">
		<path d="M5.83634 9.99403C7.8091 9.88447 9.375 8.25016 9.375 6.25C9.375 4.17893 7.69607 2.5 5.625 2.5C3.55393 2.5 1.875 4.17893 1.875 6.25C1.875 6.98794 2.08809 7.67606 2.45618 8.25623L2.19116 9.05128L2.19074 9.05245C2.08923 9.35696 2.03846 9.50929 2.07461 9.61068C2.10612 9.69903 2.17605 9.76867 2.2644 9.80018C2.36545 9.83621 2.51672 9.78579 2.81918 9.68497L2.82349 9.68366L3.61877 9.41864C4.19894 9.78673 4.8871 9.99989 5.62504 9.99989C5.69595 9.99989 5.7664 9.99792 5.83634 9.99403ZM5.83634 9.99403C5.83639 9.99418 5.83629 9.99389 5.83634 9.99403ZM5.83634 9.99403C6.34942 11.4537 7.74006 12.5001 9.37509 12.5001C10.113 12.5001 10.801 12.2868 11.3812 11.9186L12.1763 12.1837L12.1778 12.184C12.4823 12.2855 12.6349 12.3363 12.7363 12.3002C12.8246 12.2687 12.8937 12.199 12.9252 12.1107C12.9614 12.0091 12.9107 11.8566 12.809 11.5513L12.5439 10.7562L12.6327 10.6091C12.9461 10.0612 13.1247 9.42644 13.1247 8.75C13.1247 6.67894 11.4461 5 9.375 5L9.23462 5.00259L9.16382 5.00605" stroke-width="1.25" stroke-linecap="round" stroke-linejoin="round"/>
</symbol>

<symbol id="user" viewBox="0 0 14 14">
		<path d="M10.043 11.2772C9.29537 10.4421 8.20905 9.91667 7 9.91667C5.79095 9.91667 4.70454 10.4421 3.95687 11.2772M7 12.25C4.10051 12.25 1.75 9.8995 1.75 7C1.75 4.10051 4.10051 1.75 7 1.75C9.8995 1.75 12.25 4.10051 12.25 7C12.25 9.8995 9.8995 12.25 7 12.25ZM7 8.16667C6.0335 8.16667 5.25 7.38317 5.25 6.41667C5.25 5.45017 6.0335 4.66667 7 4.66667C7.9665 4.66667 8.75 5.45017 8.75 6.41667C8.75 7.38317 7.9665 8.16667 7 8.16667Z" stroke-width="1.16667" stroke-linecap="round" stroke-linejoin="round"/>
</symbol>

<symbol id="user-people" viewBox="0 0 18 18">
	<path d="M8.68001 7.51188C10.5057 7.51188 11.9858 6.03185 11.9858 4.20614C11.9858 2.38042 10.5057 0.900391 8.68001 0.900391C6.8543 0.900391 5.37427 2.38042 5.37427 4.20614C5.37427 6.03185 6.8543 7.51188 8.68001 7.51188Z" />
	<path d="M15.125 13.636C15.125 15.5492 15.125 17.1001 8.96655 17.1001C2.80811 17.1001 2.80811 15.5492 2.80811 13.636C2.80811 11.7228 5.56534 10.1719 8.96655 10.1719C12.3678 10.1719 15.125 11.7228 15.125 13.636Z" />
</symbol>

<symbol id="layers" viewBox="0 0 14 14">
		<path d="M12.25 7.00002L7 10.5L1.75 7.00002M12.25 9.33335L7 12.8334L1.75 9.33335M12.25 4.66669L7 8.16669L1.75 4.66669L7 1.16669L12.25 4.66669Z" stroke-width="1.16667" stroke-linecap="round" stroke-linejoin="round"/>
</symbol>

<symbol id="mail" viewBox="0 0 14 14">
	<path d="M2.33333 3.50002L5.89612 6.19051L5.89731 6.19149C6.29291 6.4816 6.49083 6.62674 6.70761 6.68281C6.89922 6.73237 7.10063 6.73237 7.29224 6.68281C7.50921 6.62669 7.7077 6.48113 8.104 6.19051C8.104 6.19051 10.3892 4.43682 11.6667 3.50002M1.75 9.2168V4.78347C1.75 4.13007 1.75 3.80313 1.87716 3.55357C1.98901 3.33405 2.16736 3.1557 2.38688 3.04385C2.63645 2.91669 2.96339 2.91669 3.61678 2.91669H10.3834C11.0368 2.91669 11.3631 2.91669 11.6126 3.04385C11.8322 3.1557 12.0111 3.33405 12.123 3.55357C12.25 3.80289 12.25 4.12943 12.25 4.78155V9.21877C12.25 9.87089 12.25 10.197 12.123 10.4463C12.0111 10.6658 11.8322 10.8445 11.6126 10.9563C11.3633 11.0834 11.0373 11.0834 10.3851 11.0834H3.61486C2.96275 11.0834 2.6362 11.0834 2.38688 10.9563C2.16736 10.8445 1.98901 10.6658 1.87716 10.4463C1.75 10.1967 1.75 9.8702 1.75 9.2168Z" stroke-width="1.16667" stroke-linecap="round" stroke-linejoin="round"/>
</symbol>

<symbol id="gift" viewBox="0 0 14 14">
	<path d="M7 3.20833V4.66667M7 3.20833C7 2.40292 7.65292 1.75 8.45833 1.75C9.26375 1.75 9.91667 2.40292 9.91667 3.20833C9.91667 4.01375 9.26375 4.66667 8.45833 4.66667M7 3.20833C7 2.40292 6.34708 1.75 5.54167 1.75C4.73625 1.75 4.08333 2.40292 4.08333 3.20833C4.08333 4.01375 4.73625 4.66667 5.54167 4.66667M7 4.66667H8.45833M7 4.66667H5.54167M7 4.66667V8.16667M8.45833 4.66667H10.3834C11.0368 4.66667 11.3631 4.66667 11.6126 4.79383C11.8322 4.90568 12.0111 5.08403 12.123 5.30355C12.25 5.55287 12.25 5.87941 12.25 6.53153V8.16667M5.54167 4.66667H3.61678C2.96339 4.66667 2.63645 4.66667 2.38688 4.79383C2.16736 4.90568 1.98901 5.08403 1.87716 5.30355C1.75 5.55311 1.75 5.88005 1.75 6.53345V8.16667M1.75 8.16667V9.80011C1.75 10.4535 1.75 10.78 1.87716 11.0296C1.98901 11.2491 2.16736 11.4278 2.38688 11.5396C2.6362 11.6667 2.96275 11.6667 3.61486 11.6667H7M1.75 8.16667H7M7 8.16667V11.6667M7 8.16667H12.25M7 11.6667H10.3851C11.0373 11.6667 11.3633 11.6667 11.6126 11.5396C11.8322 11.4278 12.0111 11.2491 12.123 11.0296C12.25 10.7803 12.25 10.4542 12.25 9.80209V8.16667" stroke-width="1.16667" stroke-linecap="round" stroke-linejoin="round"/>
</symbol>

<symbol id="calc" viewBox="0 0 9 10">
	<path fill-rule="evenodd" clip-rule="evenodd" d="M4.5 10C2.37868 10 1.31802 10 0.65901 9.26775C-5.96046e-08 8.53555 0 7.357 0 5C0 2.64297 -5.96046e-08 1.46446 0.65901 0.732235C1.31802 -5.96046e-08 2.37868 0 4.5 0C6.6213 0 7.682 -5.96046e-08 8.341 0.732235C9 1.46446 9 2.64297 9 5C9 7.357 9 8.53555 8.341 9.26775C7.682 10 6.6213 10 4.5 10ZM6 2H3C2.7675 2 2.65126 2 2.55588 2.02555C2.29706 2.0949 2.0949 2.29706 2.02555 2.55588C2 2.65126 2 2.7675 2 3C2 3.23249 2 3.34874 2.02555 3.44411C2.0949 3.70293 2.29706 3.90509 2.55588 3.97444C2.65126 4 2.7675 4 3 4H6C6.2325 4 6.34875 4 6.4441 3.97444C6.70295 3.90509 6.9051 3.70293 6.97445 3.44411C7 3.34874 7 3.23249 7 3C7 2.7675 7 2.65126 6.97445 2.55588C6.9051 2.29706 6.70295 2.0949 6.4441 2.02555C6.34875 2 6.2325 2 6 2ZM3 5.5C3 5.77615 2.77614 6 2.5 6C2.22386 6 2 5.77615 2 5.5C2 5.22385 2.22386 5 2.5 5C2.77614 5 3 5.22385 3 5.5ZM4.5 6C4.77615 6 5 5.77615 5 5.5C5 5.22385 4.77615 5 4.5 5C4.22385 5 4 5.22385 4 5.5C4 5.77615 4.22385 6 4.5 6ZM7 5.5C7 5.77615 6.77615 6 6.5 6C6.22385 6 6 5.77615 6 5.5C6 5.22385 6.22385 5 6.5 5C6.77615 5 7 5.22385 7 5.5ZM6.5 8C6.77615 8 7 7.77615 7 7.5C7 7.22385 6.77615 7 6.5 7C6.22385 7 6 7.22385 6 7.5C6 7.77615 6.22385 8 6.5 8ZM5 7.5C5 7.77615 4.77615 8 4.5 8C4.22385 8 4 7.77615 4 7.5C4 7.22385 4.22385 7 4.5 7C4.77615 7 5 7.22385 5 7.5ZM2.5 8C2.77614 8 3 7.77615 3 7.5C3 7.22385 2.77614 7 2.5 7C2.22386 7 2 7.22385 2 7.5C2 7.77615 2.22386 8 2.5 8Z"/>
</symbol>

<symbol id="partners" viewBox="0 0 12 10">
	<path d="M11.6 1.4H10.4C10.14 1.4 9.88 1.28 9.68 1.1L8.72 0.28C8.52 0.12 8.26 0 8 0H5.66C5.36 0 5.08 0.12 4.86 0.34L3.62 1.36C3.52 1.44 3.52 1.6 3.6 1.7L3.98 2.06C4.24 2.26 4.58 2.3 4.84 2.12L5.94 1.46C6.08 1.36 6.28 1.4 6.4 1.52L9.86 4.88C9.94 4.96 10 5.08 10 5.2V6.1C10 6.34 10.18 6.6 10.4 6.6H11.6C11.82 6.6 12 6.42 12 6.18V1.8C12 1.56 11.82 1.4 11.6 1.4ZM8.2 5L6.04 2.9L5.44 3.26C5.14 3.44 4.8 3.54 4.46 3.54C4.04 3.54 3.6 3.38 3.26 3.1L2.48 2.46C2.3 2.32 2.2 2.16 2.18 1.94C2.14 1.72 1.98 1.6 1.78 1.6H0.4C0.18 1.6 0 1.72 0 1.96V5.6C0 5.84 0.18 6 0.4 6H1.2C1.26 6 1.34 5.78 1.42 5.68C1.72 5.28 2.16 5.06 2.64 5C3.12 4.96 3.58 5.12 3.96 5.46L6.46 7.74C6.68 7.94 6.84 8.16 6.94 8.44C7 8.58 7.16 8.62 7.26 8.52L8.2 7.58C8.68 7.1 9.04 5.98 8.6 5.46L8.2 5ZM3.18 6.48C2.92 6.24 2.54 6.28 2.34 6.56C2.12 6.84 2.16 7.24 2.42 7.48L4.92 9.74C5.04 9.86 5.2 9.9 5.36 9.88C5.52 9.86 5.66 9.78 5.76 9.64C5.98 9.36 5.94 8.96 5.68 8.72L3.18 6.48Z" />
</symbol>


<symbol id="credit" viewBox="0 0 12 12">
	<path fill-rule="evenodd" clip-rule="evenodd" d="M1 5.5H11V7.5329C11 7.97615 11 8.35805 10.9589 8.6639C10.9148 8.99165 10.8155 9.30585 10.5606 9.56065C10.3058 9.8155 9.99165 9.91485 9.6639 9.95895C9.35805 10 8.97615 10 8.5329 10H3.46707C3.02384 10 2.64194 10 2.33611 9.95895C2.00835 9.91485 1.69418 9.8155 1.43935 9.56065C1.18451 9.30585 1.08514 8.99165 1.04108 8.6639C0.999956 8.35805 0.999976 7.97615 1 7.5329V5.5ZM2.5 7C2.5 6.72385 2.72386 6.5 3 6.5H4C4.27614 6.5 4.5 6.72385 4.5 7C4.5 7.27615 4.27614 7.5 4 7.5H3C2.72386 7.5 2.5 7.27615 2.5 7ZM5 7C5 6.72385 5.22385 6.5 5.5 6.5H6.5C6.77615 6.5 7 6.72385 7 7C7 7.27615 6.77615 7.5 6.5 7.5H5.5C5.22385 7.5 5 7.27615 5 7Z" />
	<path d="M11 4.5V4.46709C11 4.02385 11 3.64194 10.9589 3.33611C10.9148 3.00835 10.8155 2.69418 10.5606 2.43935C10.3058 2.18451 9.99165 2.08514 9.6639 2.04108C9.35805 1.99996 8.97615 1.99998 8.5329 2H3.46709C3.02385 1.99998 2.64194 1.99996 2.33611 2.04108C2.00835 2.08514 1.69418 2.18451 1.43935 2.43934C1.18451 2.69418 1.08514 3.00835 1.04108 3.33611C0.999956 3.64194 0.999976 4.02385 1 4.4671V4.5L11 4.5Z" />
</symbol>

<symbol id="id" viewBox="0 0 14 14">
	<path d="M3.5 10.5C3.53713 10.5 3.5754 10.5 3.61486 10.5H7M3.5 10.5C2.92351 10.4995 2.62111 10.4923 2.38688 10.373C2.16736 10.2611 1.98901 10.0822 1.87716 9.86265C1.75 9.61308 1.75 9.28684 1.75 8.63345V5.36678C1.75 4.71339 1.75 4.38645 1.87716 4.13688C1.98901 3.91736 2.16736 3.73901 2.38688 3.62716C2.63645 3.5 2.96339 3.5 3.61678 3.5H10.3834C11.0368 3.5 11.3631 3.5 11.6126 3.62716C11.8322 3.73901 12.0111 3.91736 12.123 4.13688C12.25 4.3862 12.25 4.71275 12.25 5.36486V8.63514C12.25 9.28725 12.25 9.61333 12.123 9.86265C12.0111 10.0822 11.8322 10.2611 11.6126 10.373C11.3633 10.5 11.0373 10.5 10.3851 10.5H7M3.5 10.5C3.50002 9.85565 4.28352 9.33333 5.25 9.33333C6.2165 9.33333 7 9.85567 7 10.5M3.5 10.5C3.5 10.5 3.5 10.5 3.5 10.5ZM10.5 8.16667H8.16667M10.5 6.41667H8.75M5.25 7.58333C4.60567 7.58333 4.08333 7.061 4.08333 6.41667C4.08333 5.77233 4.60567 5.25 5.25 5.25C5.89433 5.25 6.41667 5.77233 6.41667 6.41667C6.41667 7.061 5.89433 7.58333 5.25 7.58333Z" stroke-width="1.16667" stroke-linecap="round" stroke-linejoin="round"/>
</symbol>

<symbol id="check" viewBox="0 0 20 20">
	<path d="M8.294 16.998c-.435 0-.847-.203-1.111-.553L3.61 11.724a1.392 1.392 0 0 1 .27-1.951 1.392 1.392 0 0 1 1.953.27l2.351 3.104 5.911-9.492a1.396 1.396 0 0 1 1.921-.445c.653.406.854 1.266.446 1.92L9.478 16.34a1.39 1.39 0 0 1-1.12.656c-.022.002-.042.002-.064.002z"/>
</symbol>

<symbol id="file" viewBox="0 0 15 15">
	<path d="M10.7717 0C9.64181 0 8.57924 0.440067 7.77998 1.2391L1.23691 7.77985C-0.412302 9.42907 -0.412302 12.1124 1.23691 13.7616C2.03594 14.5602 3.09827 15 4.22832 15C5.35838 15 6.42083 14.5602 7.21984 13.7616L7.70906 13.2727L7.40397 13.2872C7.40243 13.2874 7.38594 13.2881 7.35719 13.2881C7.21583 13.2881 6.71893 13.2696 6.26003 13.0328L6.19032 12.9968L6.13015 13.047C5.59963 13.4904 4.9241 13.7346 4.2283 13.7346C3.43508 13.7346 2.69015 13.4269 2.13063 12.868C1.57121 12.3088 1.26305 11.5639 1.26305 10.7707C1.26305 9.97742 1.57121 9.23271 2.13063 8.67333L8.6737 2.13261C9.23312 1.57337 9.97828 1.26527 10.7717 1.26527C11.5651 1.26527 12.3101 1.57337 12.8697 2.13261C14.0252 3.28873 14.0252 5.16993 12.8698 6.32605L8.78335 10.4017C8.57805 10.6074 8.29378 10.7206 7.98277 10.7206C7.645 10.7206 7.318 10.5871 7.08536 10.354C6.86206 10.131 6.73421 9.82025 6.73434 9.50091C6.73434 9.1889 6.8526 8.89927 7.06691 8.68553L10.7084 5.0589L9.81452 4.1654L6.17267 7.79159C5.71509 8.24903 5.46599 8.86308 5.47107 9.52047C5.47617 10.1751 5.73201 10.7885 6.19139 11.2477C6.65866 11.7147 7.31126 11.9826 7.98218 11.9826C8.63203 11.9826 9.23428 11.7384 9.67801 11.2952L13.7634 7.2199C15.4122 5.57046 15.4122 2.88736 13.7634 1.2391C12.9642 0.440067 11.9017 0 10.7717 0Z" />
</symbol>

<symbol id="call" viewBox="0 0 14 14">
	<path d="M8.87135 3.5377H11.1495L10.6468 4.04679C10.5283 4.16602 10.4618 4.32731 10.4618 4.49543C10.4618 4.66354 10.5283 4.82483 10.6468 4.94406C10.766 5.06259 10.9273 5.12911 11.0954 5.12911C11.2636 5.12911 11.4248 5.06259 11.5441 4.94406L13.135 3.35315C13.2535 3.23392 13.32 3.07263 13.32 2.90452C13.32 2.7364 13.2535 2.57511 13.135 2.45588L11.5441 0.864971C11.4223 0.760718 11.2657 0.706241 11.1056 0.712428C10.9454 0.718614 10.7935 0.785007 10.6802 0.89834C10.5668 1.01167 10.5004 1.1636 10.4943 1.32376C10.4881 1.48391 10.5426 1.64051 10.6468 1.76224L11.1495 2.26497H8.87135C8.70258 2.26497 8.54072 2.33202 8.42137 2.45136C8.30203 2.5707 8.23499 2.73256 8.23499 2.90133C8.23499 3.07011 8.30203 3.23197 8.42137 3.35131C8.54072 3.47065 8.70258 3.5377 8.87135 3.5377ZM11.735 7.63588C11.595 7.63588 11.4486 7.59133 11.3086 7.55952C11.0251 7.49704 10.7465 7.4141 10.475 7.31133C10.1798 7.20394 9.85526 7.20951 9.56391 7.32699C9.27256 7.44447 9.03495 7.66556 8.89681 7.9477L8.75681 8.23406C8.13699 7.88927 7.56743 7.46103 7.06408 6.96133C6.56439 6.45798 6.13615 5.88842 5.79135 5.26861L6.05862 5.09043C6.34077 4.95228 6.56185 4.71467 6.67933 4.42332C6.79681 4.13197 6.80239 3.80746 6.69499 3.51224C6.59395 3.24015 6.51104 2.96166 6.44681 2.67861C6.41499 2.53861 6.38953 2.39224 6.37044 2.24588C6.29317 1.79764 6.05838 1.39172 5.70838 1.10121C5.35838 0.810713 4.91616 0.654722 4.46135 0.661335H2.55226C2.27801 0.65876 2.00642 0.715307 1.75598 0.827127C1.50555 0.938947 1.28215 1.10341 1.10099 1.30933C0.919828 1.51525 0.785163 1.75779 0.706161 2.02043C0.627159 2.28307 0.605674 2.55964 0.643169 2.83133C0.982184 5.4973 2.19973 7.97435 4.10349 9.87119C6.00725 11.768 8.48871 12.9766 11.1559 13.3059H11.3977C11.867 13.3066 12.3201 13.1344 12.6704 12.8222C12.8718 12.6422 13.0326 12.4214 13.1423 12.1746C13.252 11.9278 13.3081 11.6605 13.3068 11.3904V9.48133C13.299 9.03931 13.138 8.61369 12.8514 8.27712C12.5647 7.94056 12.1701 7.71392 11.735 7.63588ZM12.0532 11.4541C12.0531 11.5444 12.0337 11.6337 11.9964 11.716C11.9591 11.7983 11.9047 11.8717 11.8368 11.9313C11.7657 11.9927 11.6826 12.0386 11.5927 12.066C11.5028 12.0934 11.4082 12.1017 11.315 12.0904C8.93174 11.7848 6.71805 10.6946 5.02308 8.99152C3.32811 7.28849 2.24834 5.06964 1.95408 2.68497C1.94395 2.59176 1.95283 2.49745 1.98017 2.40777C2.00751 2.31808 2.05276 2.23486 2.11317 2.16315C2.1728 2.09527 2.24621 2.04087 2.3285 2.00356C2.41079 1.96626 2.50009 1.9469 2.59044 1.94679H4.49953C4.64752 1.9435 4.79202 1.99189 4.90817 2.08365C5.02432 2.17541 5.10485 2.30479 5.1359 2.44952C5.16135 2.62346 5.19317 2.79527 5.23135 2.96497C5.30486 3.30043 5.4027 3.63009 5.52408 3.95133L4.63317 4.36497C4.55699 4.39992 4.48847 4.44957 4.43154 4.51108C4.37461 4.57258 4.33039 4.64473 4.30141 4.72337C4.27244 4.80201 4.25929 4.8856 4.26271 4.96934C4.26613 5.05308 4.28606 5.13532 4.32135 5.21133C5.23721 7.17309 6.81414 8.75003 8.7759 9.66588C8.93083 9.72953 9.1046 9.72953 9.25953 9.66588C9.3389 9.63749 9.41183 9.59362 9.4741 9.53682C9.53636 9.48001 9.58673 9.4114 9.62226 9.33497L10.0168 8.44406C10.3458 8.56171 10.6815 8.65946 11.0223 8.73679C11.192 8.77497 11.3638 8.80679 11.5377 8.83224C11.6824 8.86329 11.8118 8.94382 11.9036 9.05997C11.9953 9.17612 12.0437 9.32062 12.0404 9.46861L12.0532 11.4541Z" />
</symbol>

<symbol id="download" viewBox="0 0 14 14">
	<path d="M6.99415 0.635742C6.62615 0.635742 6.32748 0.920642 6.32748 1.27211V7.99338L4.32748 6.10465L3.39014 6.99938L6.51482 10.0024C6.77548 10.2506 7.21281 10.2506 7.47348 10.0024L10.5982 6.99938L9.66081 6.10465L7.66081 7.99338V1.27211C7.66081 0.920642 7.36215 0.635679 6.99415 0.635742ZM1.66081 8.27211C1.29281 8.27211 0.994141 8.5572 0.994141 8.90847V10.1812C0.994141 11.5869 2.18814 12.7267 3.66081 12.7267H10.3275C11.8001 12.7267 12.9942 11.5869 12.9942 10.1812V8.90847C12.9942 8.5572 12.6955 8.27211 12.3275 8.27211C11.9595 8.27211 11.6608 8.5572 11.6608 8.90847V10.1812C11.6608 10.8844 11.0641 11.4539 10.3275 11.4539H3.66081C2.92414 11.4539 2.32748 10.8844 2.32748 10.1812V8.90847C2.32748 8.5572 2.02881 8.27211 1.66081 8.27211Z"/>
</symbol>

<symbol id="help" viewBox="0 0 14 16">
	<path d="M7.41996 11.8475C7.2819 11.7121 7.09515 11.6361 6.90049 11.6361C6.70582 11.6361 6.51907 11.7121 6.38101 11.8475C6.31216 11.9168 6.25716 11.9982 6.21891 12.0875C6.15038 12.2656 6.15038 12.4622 6.21891 12.6403C6.25896 12.7287 6.31376 12.8098 6.38101 12.8803C6.44891 12.9457 6.52898 12.9975 6.6168 13.033C6.70767 13.0712 6.8054 13.091 6.90417 13.0912C7.02485 13.0906 7.14354 13.0607 7.2498 13.0043C7.35606 12.9478 7.44665 12.8664 7.51359 12.7673C7.58053 12.6682 7.62179 12.5544 7.63373 12.4359C7.64567 12.3173 7.62793 12.1977 7.58207 12.0875C7.54657 11.9967 7.49122 11.9148 7.41996 11.8475ZM12.8947 5.77481C12.887 5.708 12.8722 5.64218 12.8505 5.57845V5.51299C12.8151 5.43822 12.7678 5.36948 12.7105 5.30936L8.28943 0.945721C8.22852 0.889151 8.15888 0.842507 8.08312 0.807539H8.0168C7.94195 0.765169 7.85928 0.737971 7.77365 0.727539H3.31575C2.72948 0.727539 2.16723 0.957409 1.75267 1.36658C1.33812 1.77575 1.10522 2.3307 1.10522 2.90936V13.0912C1.10522 13.6698 1.33812 14.2248 1.75267 14.634C2.16723 15.0431 2.72948 15.273 3.31575 15.273H10.6842C11.2704 15.273 11.8327 15.0431 12.2473 14.634C12.6618 14.2248 12.8947 13.6698 12.8947 13.0912V5.81845C12.8947 5.81845 12.8947 5.81845 12.8947 5.77481ZM8.47365 3.20754L10.3821 5.09118H9.21049C9.01507 5.09118 8.82765 5.01455 8.68946 4.87816C8.55128 4.74177 8.47365 4.55679 8.47365 4.3639V3.20754ZM11.421 13.0912C11.421 13.2841 11.3434 13.469 11.2052 13.6054C11.067 13.7418 10.8796 13.8184 10.6842 13.8184H3.31575C3.12033 13.8184 2.93291 13.7418 2.79472 13.6054C2.65654 13.469 2.57891 13.2841 2.57891 13.0912V2.90936C2.57891 2.71647 2.65654 2.53149 2.79472 2.3951C2.93291 2.25871 3.12033 2.18208 3.31575 2.18208H6.99996V4.3639C6.99996 4.94256 7.23286 5.49751 7.64741 5.90668C8.06196 6.31585 8.62422 6.54572 9.21049 6.54572H11.421V13.0912ZM6.90417 6.54572C6.5159 6.54548 6.13442 6.64617 5.7981 6.83768C5.46179 7.02919 5.18252 7.30475 4.98838 7.63663C4.93507 7.71941 4.89927 7.81197 4.88314 7.90876C4.86701 8.00554 4.87089 8.10455 4.89453 8.19982C4.91817 8.29509 4.9611 8.38466 5.02072 8.46313C5.08034 8.5416 5.15543 8.60736 5.24147 8.65644C5.3275 8.70553 5.42271 8.73693 5.52136 8.74876C5.62002 8.76059 5.72007 8.7526 5.81552 8.72527C5.91096 8.69794 5.99981 8.65184 6.07673 8.58974C6.15366 8.52763 6.21706 8.45082 6.26312 8.3639C6.32804 8.25292 6.42152 8.16084 6.53409 8.09698C6.64666 8.03312 6.77433 7.99976 6.90417 8.00027C7.09959 8.00027 7.28701 8.07689 7.4252 8.21328C7.56338 8.34967 7.64101 8.53465 7.64101 8.72754C7.64101 8.92042 7.56338 9.10541 7.4252 9.2418C7.28701 9.37819 7.09959 9.45481 6.90417 9.45481C6.70875 9.45481 6.52133 9.53144 6.38315 9.66783C6.24496 9.80422 6.16733 9.9892 6.16733 10.1821C6.16733 10.375 6.24496 10.56 6.38315 10.6963C6.52133 10.8327 6.70875 10.9094 6.90417 10.9094C7.49044 10.9094 8.0527 10.6795 8.46725 10.2703C8.8818 9.86115 9.1147 9.30619 9.1147 8.72754C9.1147 8.14889 8.8818 7.59393 8.46725 7.18476C8.0527 6.77559 7.49044 6.54572 6.90417 6.54572Z"/>
</symbol>

<symbol id="arrow" viewBox="0 0 14 24">
	<path d="M1 1L12 12L1 23" stroke-width="2" stroke-linecap="round"/>
</symbol>

<symbol id="arrow-bold" viewBox="0 0 8 13">
	<path fill-rule="evenodd" clip-rule="evenodd" d="M2.41461 6.50098L7.70614 1.58738C8.09779 1.22324 8.09779 0.635937 7.70614 0.271799C7.51952 0.0978451 7.26497 9.85804e-07 6.99947 9.97409e-07C6.73397 1.00901e-06 6.47942 0.0978451 6.29281 0.271799L0.29461 5.84221C-0.098285 6.20595 -0.098285 6.79405 0.29461 7.15779L6.29256 12.7282C6.47943 12.9022 6.73397 13 6.99947 13C7.26497 13 7.51952 12.9022 7.70639 12.7282C8.09779 12.364 8.09779 11.7767 7.70589 11.4126L2.41461 6.50098Z" />
</symbol>

<symbol id="car" viewBox="0 0 11 9">
	<path fill-rule="evenodd" clip-rule="evenodd" d="M0.48738 2.83411L0.480924 2.83829C0.180469 3.03303 0 3.36087 0 3.71194V7.875C0 8.16495 0.241766 8.4 0.54 8.4H1.08C1.37823 8.4 1.62 8.16495 1.62 7.875V7.35H9.18V7.875C9.18 8.16495 9.42177 8.4 9.72 8.4H10.26C10.5582 8.4 10.8 8.16495 10.8 7.875V3.71194C10.8 3.36087 10.6195 3.03303 10.3191 2.83829L10.3126 2.83411C10.5094 2.7236 10.6877 2.61504 10.7223 2.56667C10.8058 2.45 10.8442 2.1 10.7223 2.1H9.72L9.08776 0.870638C8.81334 0.337053 8.2524 0 7.63878 0H3.16122C2.5476 0 1.98666 0.337054 1.71224 0.870638L1.08 2.1H0.077696C-0.0442057 2.1 -0.00582936 2.45 0.077696 2.56667C0.11233 2.61504 0.290576 2.7236 0.48738 2.83411ZM2.21506 1.08088L1.29176 2.76397C1.19585 2.93882 1.32617 3.15 1.53 3.15H9.27C9.47383 3.15 9.60416 2.93882 9.50824 2.76397L8.58494 1.08088C8.39725 0.738725 8.03086 0.525 7.632 0.525H3.168C2.76914 0.525 2.40276 0.738725 2.21506 1.08088ZM0.54 4.76693V4.13202C0.54 3.92943 0.766048 3.8032 0.946045 3.90528L2.74901 4.9278C2.99749 5.06871 2.87721 5.43936 2.59055 5.41613L1.03516 5.29012C0.755278 5.26744 0.54 5.03998 0.54 4.76693ZM10.26 4.13202V4.76693C10.26 5.03998 10.0447 5.26744 9.76484 5.29012L8.20945 5.41613C7.92279 5.43936 7.80251 5.06871 8.05099 4.9278L9.85396 3.90528C10.034 3.8032 10.26 3.92943 10.26 4.13202Z" />
</symbol>

<symbol id="right-up" viewBox="0 0 4 4">
	<path d="M3.93077 0.349772C3.93077 0.156473 3.77407 -0.000227783 3.58077 -0.000227805L0.43077 -0.000227762C0.23747 -0.000227762 0.0807698 0.156473 0.0807697 0.349772C0.0807698 0.543072 0.23747 0.699772 0.43077 0.699772L3.23077 0.699772L3.23077 3.49977C3.23077 3.69307 3.38747 3.84977 3.58077 3.84977C3.77407 3.84977 3.93077 3.69307 3.93077 3.49977L3.93077 0.349772ZM0.247437 3.68311L0.494924 3.93059L3.82826 0.59726L3.58077 0.349772L3.33328 0.102285L-5.08415e-05 3.43562L0.247437 3.68311Z" />
</symbol>

<symbol id="moto" viewBox="0 0 12 8">
	<path d="M7.44384 6.52086e-05C7.44384 6.52086e-05 6.63733 -0.0184894 6.07249 0.570373C5.97695 0.669982 5.97695 0.830137 6.07249 0.929745C6.16804 1.02935 6.32166 1.02935 6.4172 0.929745C6.73194 0.601623 7.11692 0.541077 7.29396 0.523498C7.34267 0.63092 7.397 0.750059 7.42135 0.875058C7.42416 0.893613 7.42979 0.912167 7.43634 0.929745C7.41854 1.044 7.36328 1.21295 7.249 1.35162C7.15346 1.45123 7.05978 1.50005 6.96424 1.50005C5.5011 1.50005 5.21259 2.22661 5.06834 2.60161C5.04398 2.65141 5.02337 2.70024 5.02337 2.75004C4.25621 2.75004 3.68013 2.52544 3.58459 2.37505C3.24924 1.77544 2.98322 1.75005 1.92848 1.75005C0.274248 1.75005 0.0344495 2.60356 0.0100949 2.70317C-0.0142597 2.77836 0.00728479 2.84672 0.0550571 2.92192C0.0794117 2.94731 0.371666 3.25004 0.946806 3.25004H1.06671C1.40205 3.09965 1.76175 3.00004 2.1458 3.00004C3.60894 3.00004 4.78358 4.22464 4.78358 5.75002C4.78358 5.95021 4.75641 6.15138 4.70864 6.35158C5.14046 6.47658 5.62474 6.50001 5.84019 6.50001H5.88515C6.31697 6.50001 6.93989 6.37697 7.20404 6.10158C7.32394 5.97658 7.34642 5.85158 7.34642 5.72658C7.13753 4.22171 7.85974 3.5391 8.19321 3.30473C8.28875 3.53226 8.38617 3.76078 8.49295 3.98441C7.99462 4.3848 7.68363 5.0303 7.68363 5.72658C7.68363 6.97657 8.64283 7.97656 9.84182 7.97656C11.0408 7.97656 12 6.97657 12 5.72658C12 4.47659 11.0408 3.50004 9.84182 3.50004C9.50647 3.50004 9.19268 3.57621 8.90511 3.7266C9.04936 4.0264 9.21703 4.3262 9.3847 4.60159C9.52896 4.55179 9.67415 4.50003 9.84182 4.50003C10.5134 4.50003 11.0408 5.04983 11.0408 5.75002C11.0408 6.45021 10.5134 7.00001 9.84182 7.00001C9.1702 7.00001 8.64283 6.45021 8.64283 5.75002C8.64283 5.40041 8.7646 5.09963 8.98004 4.87503C8.81518 4.60452 8.65032 4.31058 8.50794 3.99222C8.62597 3.89457 8.7646 3.79984 8.90511 3.7266C8.68966 3.27641 8.47235 2.80278 8.32809 2.32817C8.31966 2.30571 8.31123 2.28423 8.29812 2.26567C8.10515 1.6065 7.91875 0.792051 7.90095 0.773496C7.89814 0.759825 7.89065 0.747129 7.88596 0.734434C7.81852 0.428773 7.65366 0.132877 7.65366 0.132877C7.61244 0.0518225 7.53189 0.0010417 7.44384 6.52086e-05ZM8.98004 4.87503C9.26761 5.37502 9.60483 5.82228 9.91675 6.17189C9.96453 6.22169 10.0338 6.25001 10.0816 6.25001C10.1294 6.25001 10.1987 6.22169 10.2465 6.17189C10.342 6.07228 10.342 5.92775 10.2465 5.82814C9.95891 5.50295 9.64979 5.0762 9.36222 4.60159C9.21797 4.67678 9.09994 4.75003 8.98004 4.87503ZM9.02501 1.00006C8.83298 1.00006 8.64564 1.02838 8.47797 1.07818C8.62222 1.62798 8.80769 2.34673 8.92759 2.67192C8.92759 2.69731 8.95756 2.72465 8.95756 2.75004H9.02501C9.33693 2.75004 9.5327 2.67192 9.67696 2.54692C9.84463 2.37212 9.84182 2.12212 9.84182 1.92192V1.82818C9.84182 1.62798 9.84463 1.37798 9.67696 1.20318C9.5327 1.07818 9.33693 1.00006 9.02501 1.00006ZM2.16828 3.50004C0.969287 3.50004 0.0100949 4.50003 0.0100949 5.75002C0.0100949 7.00001 0.969287 8 2.16828 8C3.27172 8 4.18408 7.12501 4.30398 6.00002H3.34479C3.22489 6.57521 2.74342 7.00001 2.16828 7.00001C1.49666 7.00001 0.969287 6.45021 0.969287 5.75002C0.969287 5.04983 1.49666 4.50003 2.16828 4.50003C2.74342 4.50003 3.22489 4.92483 3.34479 5.50002H4.30398C4.18408 4.37503 3.27172 3.50004 2.16828 3.50004ZM3.34479 5.50002H2.8502C2.75466 5.20412 2.49144 5.00002 2.16828 5.00002C1.76081 5.00002 1.44888 5.32522 1.44888 5.75002C1.44888 6.17482 1.76081 6.50001 2.16828 6.50001C2.49144 6.50001 2.75466 6.29591 2.8502 6.00002H3.34479C3.36914 5.92482 3.36727 5.82521 3.36727 5.75002C3.36727 5.67482 3.36914 5.57522 3.34479 5.50002Z" />
</symbol>

<symbol id="shield" viewBox="0 0 10 11">
	<path fill-rule="evenodd" clip-rule="evenodd" d="M5 11L2.39292 9.20762C0.891236 8.1752 0 6.50834 0 4.7321V2.0625L5 0L10 2.0625V4.7321C10 6.50834 9.10879 8.1752 7.60707 9.20762L5 11ZM8.00507 3.92364L6.99493 2.95136L4.28571 5.55898L3.00508 4.32636L1.99492 5.29864L4.28571 7.50351L8.00507 3.92364Z" />
</symbol>

<symbol id="doc-text" viewBox="0 0 9 11">
	<path d="M1.55691 10.7679H6.89061C7.93024 10.7679 8.44753 10.2405 8.44753 9.19586V4.6356H4.81138C4.16852 4.6356 3.86717 4.32924 3.86717 3.68638V0H1.55691C0.522321 0 0 0.532371 0 1.57701V9.19586C0 10.2455 0.522321 10.7679 1.55691 10.7679ZM4.82644 3.94755H8.39228C8.35714 3.74162 8.21149 3.54073 7.97544 3.29464L5.20311 0.477107C4.97209 0.236057 4.76115 0.0904072 4.55021 0.0552429V3.67635C4.55021 3.85714 4.64563 3.94755 4.82644 3.94755ZM2.29018 6.81026C2.08425 6.81026 1.9386 6.66463 1.9386 6.46875C1.9386 6.27287 2.08425 6.12722 2.29018 6.12722H6.16239C6.36328 6.12722 6.51896 6.27287 6.51896 6.46875C6.51896 6.66463 6.36328 6.81026 6.16239 6.81026H2.29018ZM2.29018 8.72376C2.08425 8.72376 1.9386 8.57811 1.9386 8.38226C1.9386 8.18638 2.08425 8.04073 2.29018 8.04073H6.16239C6.36328 8.04073 6.51896 8.18638 6.51896 8.38226C6.51896 8.57811 6.36328 8.72376 6.16239 8.72376H2.29018Z" />
</symbol>

<symbol id="service-report" viewBox="0 0 12 12">
	<path fill-rule="evenodd" clip-rule="evenodd" d="M9.36724 1.71471H9.05853C9.0379 1.71319 9.01723 1.71659 8.99788 1.72467C8.97853 1.73275 8.96097 1.74532 8.94635 1.76155C8.93174 1.77778 8.92041 1.79729 8.91314 1.81878C8.90586 1.84026 8.90281 1.86323 8.90417 1.88613V2.57182C8.90418 2.93346 8.77557 3.28047 8.54632 3.53731C8.31707 3.79415 8.00575 3.94003 7.68012 3.9432H4.31977C3.99415 3.94003 3.68283 3.79415 3.45358 3.53731C3.22433 3.28047 3.09571 2.93346 3.09573 2.57182V1.88613C3.09709 1.86323 3.09403 1.84026 3.08676 1.81878C3.07948 1.79729 3.06816 1.77778 3.05354 1.76155C3.03893 1.74532 3.02136 1.73275 3.00202 1.72467C2.98267 1.71659 2.96199 1.71319 2.94137 1.71471H2.63266C2.38837 1.71697 2.15478 1.82633 1.98276 2.01897C1.81074 2.21161 1.71422 2.47193 1.71423 2.74324V10.1144C1.71422 10.3857 1.81074 10.646 1.98276 10.8387C2.15478 11.0313 2.38837 11.1407 2.63266 11.1429H9.36724C9.61153 11.1407 9.84512 11.0313 10.0171 10.8387C10.1892 10.646 10.2857 10.3857 10.2857 10.1144V2.74324C10.2857 2.47193 10.1892 2.21161 10.0171 2.01897C9.84512 1.82633 9.61153 1.71697 9.36724 1.71471ZM4.93103 8.74302C4.93103 8.83394 4.8985 8.92115 4.84061 8.98544C4.78271 9.04974 4.70419 9.08586 4.62231 9.08586H4.3136C4.23172 9.08586 4.1532 9.04974 4.09531 8.98544C4.03741 8.92115 4.00489 8.83394 4.00489 8.74302V7.0288C4.00489 6.93787 4.03741 6.85066 4.09531 6.78637C4.1532 6.72207 4.23172 6.68595 4.3136 6.68595H4.62231C4.70419 6.68595 4.78271 6.72207 4.84061 6.78637C4.8985 6.85066 4.93103 6.93787 4.93103 7.0288V8.74302ZM6.46533 8.74302C6.46533 8.83394 6.43281 8.92115 6.37491 8.98544C6.31702 9.04974 6.2385 9.08586 6.15662 9.08586H5.84791C5.76603 9.08586 5.68751 9.04974 5.62961 8.98544C5.57172 8.92115 5.53919 8.83394 5.53919 8.74302V5.486C5.53919 5.39507 5.57172 5.30786 5.62961 5.24357C5.68751 5.17927 5.76603 5.14315 5.84791 5.14315H6.15662C6.2385 5.14315 6.31702 5.17927 6.37491 5.24357C6.43281 5.30786 6.46533 5.39507 6.46533 5.486V8.74302ZM7.99501 8.74302C7.99501 8.83394 7.96248 8.92115 7.90459 8.98544C7.84669 9.04974 7.76817 9.08586 7.68629 9.08586H7.37758C7.29571 9.08586 7.21718 9.04974 7.15929 8.98544C7.10139 8.92115 7.06887 8.83394 7.06887 8.74302V6.17168C7.06887 6.08076 7.10139 5.99355 7.15929 5.92926C7.21718 5.86496 7.29571 5.82884 7.37758 5.82884H7.68629C7.76817 5.82884 7.84669 5.86496 7.90459 5.92926C7.96248 5.99355 7.99501 6.08076 7.99501 6.17168V8.74302Z" />
	<path fill-rule="evenodd" clip-rule="evenodd" d="M4.55032 2.57122H7.44845C7.51897 2.57122 7.5866 2.54112 7.63646 2.48754C7.68633 2.43395 7.71434 2.36128 7.71434 2.28551V1.71408C7.71435 1.48798 7.63122 1.27104 7.48307 1.1105C7.33491 0.949955 7.13373 0.858818 6.92333 0.856934H5.07677C4.86637 0.858818 4.66519 0.949955 4.51704 1.1105C4.36888 1.27104 4.28576 1.48798 4.28577 1.71408V2.28551C4.28577 2.36103 4.3136 2.43349 4.36317 2.48703C4.41275 2.54057 4.48003 2.57084 4.55032 2.57122Z" />
</symbol>

<symbol id="wallet" viewBox="0 0 12 12">
	<path d="M6.77586 7.83333C6.43324 7.83333 6.15517 7.53467 6.15517 7.16667V6.5C6.15517 6.13167 6.43324 5.83333 6.77586 5.83333H10.5V7.83333H6.77586ZM7.24138 6.361C6.98441 6.361 6.77586 6.585 6.77586 6.861C6.77586 7.13733 6.98441 7.361 7.24138 7.361C7.49865 7.361 7.7069 7.13733 7.7069 6.861C7.7069 6.585 7.49865 6.361 7.24138 6.361ZM5.84483 6.5V7.16667C5.84483 7.71867 6.26193 8.16667 6.77586 8.16667H9.87931V9.5C9.87931 10.052 9.46252 10.5 8.94828 10.5H2.43103C1.9171 10.5 1.5 10.052 1.5 9.5V3.16667C1.5 2.61433 1.9171 2.16667 2.43103 2.16667H5.42028L4.69128 2.493H2.27617C2.01921 2.493 1.81066 2.717 1.81066 2.993C1.81066 3.269 2.01921 3.493 2.27617 3.493H9.87931V5.5H6.77586C6.26193 5.5 5.84483 5.94767 5.84483 6.5ZM2.74169 4.16667H2.121V4.83333H2.43134V4.5H2.74169V4.16667ZM2.74169 5.16667H2.121V5.83333H2.44407L2.43134 5.5L2.74169 5.507V5.16667ZM2.74169 6.16667H2.121V6.83333H2.43786L2.43134 6.5H2.74169V6.16667ZM2.74169 7.16667H2.121V7.83333H2.43786L2.43134 7.5L2.74169 7.507V7.16667ZM2.74169 8.16667H2.121V8.83333H2.43134V8.5H2.74169V8.16667ZM2.74169 9.16667H2.121V9.83333H2.43786L2.43134 9.507H2.74169V9.16667ZM3.98307 3.146L7.62962 1.5L8.3279 3.146H3.98307ZM8.21772 2.16667H8.94828C9.22014 2.16667 9.46221 2.29367 9.63259 2.493H8.36607L8.21772 2.16667Z" />
</symbol>

<symbol id="refusal" viewBox="0 0 10 10">
	<path fill-rule="evenodd" clip-rule="evenodd" d="M5 0C7.761 0 10 2.239 10 5C10 7.761 7.761 10 5 10C2.239 10 0 7.761 0 5C0 2.239 2.239 0 5 0ZM6.1465 3.1465L5 4.293L3.8535 3.1465L3.1465 3.8535L4.293 5L3.1465 6.1465L3.8535 6.8535L5 5.707L6.1465 6.8535L6.8535 6.1465L5.707 5L6.8535 3.8535L6.1465 3.1465Z" />
</symbol>

</svg>