<svg xmlns="http://www.w3.org/2000/svg">

<symbol id="entry" viewBox="0 0 14 14">
	<path d="M7.58333 5.25L9.33333 7M9.33333 7L7.58333 8.75M9.33333 7H4.66667M1.75 7C1.75 4.10051 4.10051 1.75 7 1.75C9.8995 1.75 12.25 4.10051 12.25 7C12.25 9.8995 9.8995 12.25 7 12.25C4.10051 12.25 1.75 9.8995 1.75 7Z" stroke-width="1.16667" stroke-linecap="round" stroke-linejoin="round"/>
</symbol>

<symbol id="back" viewBox="0 0 14 14">
	<path d="M6.41667 5.25L4.66667 7M4.66667 7L6.41667 8.75M4.66667 7H9.33333M12.25 7C12.25 4.10051 9.8995 1.75 7 1.75C4.10051 1.75 1.75 4.10051 1.75 7C1.75 9.8995 4.10051 12.25 7 12.25C9.8995 12.25 12.25 9.8995 12.25 7Z" stroke-width="1.16667" stroke-linecap="round" stroke-linejoin="round"/>
</symbol>


<symbol id="telegram" viewBox="0 0 15 14">
	<path d="M3.60924 8.11186L5.47485 13.0644L7.90363 10.4852L12.0679 14L15 0L0 6.63493L3.60924 8.11186ZM10.7137 4.01674L6.12247 8.4638L5.55061 10.7525L4.49421 7.94743L10.7137 4.01674Z" />
</symbol>

<symbol id="vk" viewBox="-2.5 0 32 32">
	<path d="M16.563 15.75c-0.5-0.188-0.5-0.906-0.531-1.406-0.125-1.781 0.5-4.5-0.25-5.656-0.531-0.688-3.094-0.625-4.656-0.531-0.438 0.063-0.969 0.156-1.344 0.344s-0.75 0.5-0.75 0.781c0 0.406 0.938 0.344 1.281 0.875 0.375 0.563 0.375 1.781 0.375 2.781 0 1.156-0.188 2.688-0.656 2.75-0.719 0.031-1.125-0.688-1.5-1.219-0.75-1.031-1.5-2.313-2.063-3.563-0.281-0.656-0.438-1.375-0.844-1.656-0.625-0.438-1.75-0.469-2.844-0.438-1 0.031-2.438-0.094-2.719 0.5-0.219 0.656 0.25 1.281 0.5 1.813 1.281 2.781 2.656 5.219 4.344 7.531 1.563 2.156 3.031 3.875 5.906 4.781 0.813 0.25 4.375 0.969 5.094 0 0.25-0.375 0.188-1.219 0.313-1.844s0.281-1.25 0.875-1.281c0.5-0.031 0.781 0.406 1.094 0.719 0.344 0.344 0.625 0.625 0.875 0.938 0.594 0.594 1.219 1.406 1.969 1.719 1.031 0.438 2.625 0.313 4.125 0.25 1.219-0.031 2.094-0.281 2.188-1 0.063-0.563-0.563-1.375-0.938-1.844-0.938-1.156-1.375-1.5-2.438-2.563-0.469-0.469-1.063-0.969-1.063-1.531-0.031-0.344 0.25-0.656 0.5-1 1.094-1.625 2.188-2.781 3.188-4.469 0.281-0.5 0.938-1.656 0.688-2.219-0.281-0.625-1.844-0.438-2.813-0.438-1.25 0-2.875-0.094-3.188 0.156-0.594 0.406-0.844 1.063-1.125 1.688-0.625 1.438-1.469 2.906-2.344 4-0.313 0.375-0.906 1.156-1.25 1.031z"></path>
</symbol>

<symbol id="max" viewBox="0 0 42 42">
	<path fill-rule="evenodd" clip-rule="evenodd" d="M21.39 41.58C17.28 41.58 15.37 40.98 12.05 38.58C9.95 41.28 3.3 43.39 3.01 39.78C3.01 37.07 2.41 34.78 1.73 32.28C0.92 29.2 0 25.77 0 20.8C0 8.93 9.74 0 21.28 0C32.83 0 41.88 9.37 41.88 20.91C41.8986 26.3666 39.7516 31.6076 35.9101 35.4829C32.0686 39.3581 26.8465 41.5509 21.39 41.58ZM21.56 10.26C15.94 9.97 11.56 13.86 10.59 19.96C9.79 25.01 11.21 31.16 12.42 31.48C13 31.62 14.46 30.44 15.37 29.53C16.8747 30.5695 18.627 31.1938 20.45 31.34C23.2493 31.4746 25.9896 30.5057 28.0821 28.6414C30.1745 26.777 31.452 24.1662 31.64 21.37C31.7494 18.568 30.7545 15.8351 28.8694 13.7592C26.9842 11.6833 24.3595 10.4303 21.56 10.27V10.26Z" />
</symbol>

<symbol id="instagram" viewBox="0 0 15 15">
	<path d="M9.73374 14.029H4.29509C1.92672 14.029 0 12.1023 0 9.73392V4.29509C0 1.92672 1.92672 0 4.29509 0H9.73374C12.1021 0 14.0288 1.92672 14.0288 4.29509V9.73392C14.029 12.1021 12.1023 14.029 9.73374 14.029ZM4.29509 1.05051C2.50606 1.05051 1.05051 2.50606 1.05051 4.29509V9.73392C1.05051 11.5229 2.50606 12.9785 4.29509 12.9785H9.73374C11.523 12.9785 12.9785 11.5229 12.9785 9.73392V4.29509C12.9785 2.50606 11.523 1.05051 9.73374 1.05051H4.29509Z" />
	<path d="M7.01443 10.563C5.05767 10.563 3.46588 8.97107 3.46588 7.01431C3.46588 5.05754 5.05767 3.46558 7.01443 3.46558C8.9712 3.46558 10.5632 5.05754 10.5632 7.01431C10.5632 8.97107 8.9712 10.563 7.01443 10.563ZM7.01443 4.5414C5.65085 4.5414 4.54152 5.65073 4.54152 7.01449C4.54152 8.37807 5.65085 9.4874 7.01443 9.4874C8.37801 9.4874 9.48734 8.37807 9.48734 7.01449C9.48734 5.65073 8.37801 4.5414 7.01443 4.5414Z" />
	<path d="M11.8732 3.07969C11.8732 3.59001 11.4596 4.00361 10.9493 4.00361C10.4389 4.00361 10.0253 3.59001 10.0253 3.07969C10.0253 2.56937 10.4389 2.15576 10.9493 2.15576C11.4596 2.15576 11.8732 2.56937 11.8732 3.07969Z" />
</symbol>

<symbol id="youtube" viewBox="0 0 22 14">
	<path d="M21.8 3.6C21.6 2.1 21.4 1 20.8 0.6C20.2 0.0999999 15 0 11 0C7 0 1.8 0.0999999 1.2 0.6C0.6 1 0.4 2.1 0.2 3.6C4.47035e-08 5.1 0 6 0 7C0 8 4.47035e-08 8.9 0.2 10.4C0.4 11.9 0.6 13 1.2 13.4C1.8 13.9 7 14 11 14C15 14 20.2 13.9 20.8 13.4C21.4 13 21.6 11.9 21.8 10.4C22 8.9 22 8 22 7C22 6 22 5.1 21.8 3.6ZM9 10.6V3.4L15 7L9 10.6Z" />
</symbol>

<symbol id="check" viewBox="0 0 10 8">
		<path fill-rule="evenodd" d="M3.527,5.957 L1.718,4.185 C1.620,4.089 1.488,4.036 1.350,4.036 C1.212,4.036 1.080,4.089 0.983,4.185 C0.779,4.384 0.779,4.705 0.983,4.905 L3.162,7.039 C3.365,7.238 3.693,7.238 3.897,7.039 L9.412,1.638 C9.615,1.439 9.615,1.117 9.412,0.918 C9.315,0.823 9.182,0.769 9.045,0.769 C8.907,0.769 8.774,0.823 8.677,0.918 L3.527,5.957 Z"/>
</symbol>

<symbol id="user-ok" viewBox="0 0 24 24">
		<path d="M15 19C15 16.7909 12.3137 15 9 15C5.68629 15 3 16.7909 3 19M21 10L17 14L15 12M9 12C6.79086 12 5 10.2091 5 8C5 5.79086 6.79086 4 9 4C11.2091 4 13 5.79086 13 8C13 10.2091 11.2091 12 9 12Z" stroke-width="2" stroke-linecap="round" stroke-linejoin="round"/>
</symbol>

<symbol id="chat" viewBox="0 0 15 15">
		<path d="M5.83634 9.99403C7.8091 9.88447 9.375 8.25016 9.375 6.25C9.375 4.17893 7.69607 2.5 5.625 2.5C3.55393 2.5 1.875 4.17893 1.875 6.25C1.875 6.98794 2.08809 7.67606 2.45618 8.25623L2.19116 9.05128L2.19074 9.05245C2.08923 9.35696 2.03846 9.50929 2.07461 9.61068C2.10612 9.69903 2.17605 9.76867 2.2644 9.80018C2.36545 9.83621 2.51672 9.78579 2.81918 9.68497L2.82349 9.68366L3.61877 9.41864C4.19894 9.78673 4.8871 9.99989 5.62504 9.99989C5.69595 9.99989 5.7664 9.99792 5.83634 9.99403ZM5.83634 9.99403C5.83639 9.99418 5.83629 9.99389 5.83634 9.99403ZM5.83634 9.99403C6.34942 11.4537 7.74006 12.5001 9.37509 12.5001C10.113 12.5001 10.801 12.2868 11.3812 11.9186L12.1763 12.1837L12.1778 12.184C12.4823 12.2855 12.6349 12.3363 12.7363 12.3002C12.8246 12.2687 12.8937 12.199 12.9252 12.1107C12.9614 12.0091 12.9107 11.8566 12.809 11.5513L12.5439 10.7562L12.6327 10.6091C12.9461 10.0612 13.1247 9.42644 13.1247 8.75C13.1247 6.67894 11.4461 5 9.375 5L9.23462 5.00259L9.16382 5.00605" stroke-width="1.25" stroke-linecap="round" stroke-linejoin="round"/>
</symbol>

<symbol id="user" viewBox="0 0 14 14">
		<path d="M10.043 11.2772C9.29537 10.4421 8.20905 9.91667 7 9.91667C5.79095 9.91667 4.70454 10.4421 3.95687 11.2772M7 12.25C4.10051 12.25 1.75 9.8995 1.75 7C1.75 4.10051 4.10051 1.75 7 1.75C9.8995 1.75 12.25 4.10051 12.25 7C12.25 9.8995 9.8995 12.25 7 12.25ZM7 8.16667C6.0335 8.16667 5.25 7.38317 5.25 6.41667C5.25 5.45017 6.0335 4.66667 7 4.66667C7.9665 4.66667 8.75 5.45017 8.75 6.41667C8.75 7.38317 7.9665 8.16667 7 8.16667Z" stroke-width="1.16667" stroke-linecap="round" stroke-linejoin="round"/>
</symbol>

<symbol id="layers" viewBox="0 0 14 14">
		<path d="M12.25 7.00002L7 10.5L1.75 7.00002M12.25 9.33335L7 12.8334L1.75 9.33335M12.25 4.66669L7 8.16669L1.75 4.66669L7 1.16669L12.25 4.66669Z" stroke-width="1.16667" stroke-linecap="round" stroke-linejoin="round"/>
</symbol>

<symbol id="mail" viewBox="0 0 14 14">
	<path d="M2.33333 3.50002L5.89612 6.19051L5.89731 6.19149C6.29291 6.4816 6.49083 6.62674 6.70761 6.68281C6.89922 6.73237 7.10063 6.73237 7.29224 6.68281C7.50921 6.62669 7.7077 6.48113 8.104 6.19051C8.104 6.19051 10.3892 4.43682 11.6667 3.50002M1.75 9.2168V4.78347C1.75 4.13007 1.75 3.80313 1.87716 3.55357C1.98901 3.33405 2.16736 3.1557 2.38688 3.04385C2.63645 2.91669 2.96339 2.91669 3.61678 2.91669H10.3834C11.0368 2.91669 11.3631 2.91669 11.6126 3.04385C11.8322 3.1557 12.0111 3.33405 12.123 3.55357C12.25 3.80289 12.25 4.12943 12.25 4.78155V9.21877C12.25 9.87089 12.25 10.197 12.123 10.4463C12.0111 10.6658 11.8322 10.8445 11.6126 10.9563C11.3633 11.0834 11.0373 11.0834 10.3851 11.0834H3.61486C2.96275 11.0834 2.6362 11.0834 2.38688 10.9563C2.16736 10.8445 1.98901 10.6658 1.87716 10.4463C1.75 10.1967 1.75 9.8702 1.75 9.2168Z" stroke-width="1.16667" stroke-linecap="round" stroke-linejoin="round"/>
</symbol>

<symbol id="gift" viewBox="0 0 14 14">
	<path d="M7 3.20833V4.66667M7 3.20833C7 2.40292 7.65292 1.75 8.45833 1.75C9.26375 1.75 9.91667 2.40292 9.91667 3.20833C9.91667 4.01375 9.26375 4.66667 8.45833 4.66667M7 3.20833C7 2.40292 6.34708 1.75 5.54167 1.75C4.73625 1.75 4.08333 2.40292 4.08333 3.20833C4.08333 4.01375 4.73625 4.66667 5.54167 4.66667M7 4.66667H8.45833M7 4.66667H5.54167M7 4.66667V8.16667M8.45833 4.66667H10.3834C11.0368 4.66667 11.3631 4.66667 11.6126 4.79383C11.8322 4.90568 12.0111 5.08403 12.123 5.30355C12.25 5.55287 12.25 5.87941 12.25 6.53153V8.16667M5.54167 4.66667H3.61678C2.96339 4.66667 2.63645 4.66667 2.38688 4.79383C2.16736 4.90568 1.98901 5.08403 1.87716 5.30355C1.75 5.55311 1.75 5.88005 1.75 6.53345V8.16667M1.75 8.16667V9.80011C1.75 10.4535 1.75 10.78 1.87716 11.0296C1.98901 11.2491 2.16736 11.4278 2.38688 11.5396C2.6362 11.6667 2.96275 11.6667 3.61486 11.6667H7M1.75 8.16667H7M7 8.16667V11.6667M7 8.16667H12.25M7 11.6667H10.3851C11.0373 11.6667 11.3633 11.6667 11.6126 11.5396C11.8322 11.4278 12.0111 11.2491 12.123 11.0296C12.25 10.7803 12.25 10.4542 12.25 9.80209V8.16667" stroke-width="1.16667" stroke-linecap="round" stroke-linejoin="round"/>
</symbol>

<symbol id="calc" viewBox="0 0 10 12">
	<path d="M1.11185 4.37508H8.89004M6.6677 8.75031V7.2919M3.33419 8.75031H3.33974M5.00094 8.75031H5.0065M5.00094 7.2919H5.0065M3.33419 7.2919H3.33974M6.6677 5.83349H6.67326M5.00094 5.83349H5.0065M3.33419 5.83349H3.33974M2.88972 10.2087H7.11217C7.73448 10.2087 8.04566 10.2087 8.28334 10.1027C8.49241 10.0096 8.66242 9.86079 8.76892 9.67786C8.89004 9.46989 8.89004 9.19761 8.89004 8.65308V3.01389C8.89004 2.46937 8.89004 2.1971 8.76892 1.98912C8.66242 1.80618 8.49241 1.65744 8.28334 1.56422C8.04566 1.45825 7.73448 1.45825 7.11217 1.45825H2.88972C2.26741 1.45825 1.95625 1.45825 1.71856 1.56422C1.50947 1.65744 1.33949 1.80618 1.23296 1.98912C1.11185 2.1971 1.11185 2.46936 1.11185 3.01389V8.65308C1.11185 9.19761 1.11185 9.46989 1.23296 9.67786C1.33949 9.86079 1.50947 10.0096 1.71856 10.1027C1.95625 10.2087 2.2674 10.2087 2.88972 10.2087Z" stroke-width="0.990235" stroke-linecap="round" stroke-linejoin="round"/>
</symbol>

<symbol id="partners" viewBox="0 0 13 13">
	<path d="M9.20833 10.8333C9.20833 9.93579 7.99577 9.20825 6.5 9.20825C5.00423 9.20825 3.79167 9.93579 3.79167 10.8333M11.375 9.20845C11.375 8.5421 10.7065 7.96942 9.75 7.71867M1.625 9.20845C1.625 8.5421 2.29347 7.96942 3.25 7.71867M9.75 5.54448C10.0824 5.24693 10.2917 4.81452 10.2917 4.33325C10.2917 3.43579 9.56413 2.70825 8.66667 2.70825C8.25047 2.70825 7.87083 2.86471 7.58333 3.12203M3.25 5.54448C2.91755 5.24693 2.70833 4.81452 2.70833 4.33325C2.70833 3.43579 3.43587 2.70825 4.33333 2.70825C4.74953 2.70825 5.12917 2.86471 5.41667 3.12203M6.5 7.58325C5.60254 7.58325 4.875 6.85572 4.875 5.95825C4.875 5.06079 5.60254 4.33325 6.5 4.33325C7.39746 4.33325 8.125 5.06079 8.125 5.95825C8.125 6.85572 7.39746 7.58325 6.5 7.58325Z" stroke-width="1.08333" stroke-linecap="round" stroke-linejoin="round"/>
</symbol>

<symbol id="credit" viewBox="0 0 12 12">
	<path d="M1.5 5.5V7.9001C1.5 8.46015 1.5 8.74003 1.60899 8.95394C1.70487 9.1421 1.85774 9.29524 2.0459 9.39111C2.2596 9.5 2.5395 9.5 3.09846 9.5H8.90155C9.4605 9.5 9.74 9.5 9.9537 9.39111C10.1419 9.29524 10.2952 9.1421 10.3911 8.95394C10.5 8.74024 10.5 8.46075 10.5 7.90179V5.5M1.5 5.5V4.5M1.5 5.5H10.5M1.5 4.5V4.1001C1.5 3.54005 1.5 3.25981 1.60899 3.0459C1.70487 2.85774 1.85774 2.70487 2.0459 2.60899C2.25981 2.5 2.54005 2.5 3.1001 2.5H8.9001C9.46015 2.5 9.73979 2.5 9.9537 2.60899C10.1419 2.70487 10.2952 2.85774 10.3911 3.0459C10.5 3.2596 10.5 3.5395 10.5 4.09846V4.5M1.5 4.5H10.5M3.5 7.5H5.5M10.5 5.5V4.5" stroke-linecap="round" stroke-linejoin="round"/>
</symbol>

<symbol id="id" viewBox="0 0 14 14">
	<path d="M3.5 10.5C3.53713 10.5 3.5754 10.5 3.61486 10.5H7M3.5 10.5C2.92351 10.4995 2.62111 10.4923 2.38688 10.373C2.16736 10.2611 1.98901 10.0822 1.87716 9.86265C1.75 9.61308 1.75 9.28684 1.75 8.63345V5.36678C1.75 4.71339 1.75 4.38645 1.87716 4.13688C1.98901 3.91736 2.16736 3.73901 2.38688 3.62716C2.63645 3.5 2.96339 3.5 3.61678 3.5H10.3834C11.0368 3.5 11.3631 3.5 11.6126 3.62716C11.8322 3.73901 12.0111 3.91736 12.123 4.13688C12.25 4.3862 12.25 4.71275 12.25 5.36486V8.63514C12.25 9.28725 12.25 9.61333 12.123 9.86265C12.0111 10.0822 11.8322 10.2611 11.6126 10.373C11.3633 10.5 11.0373 10.5 10.3851 10.5H7M3.5 10.5C3.50002 9.85565 4.28352 9.33333 5.25 9.33333C6.2165 9.33333 7 9.85567 7 10.5M3.5 10.5C3.5 10.5 3.5 10.5 3.5 10.5ZM10.5 8.16667H8.16667M10.5 6.41667H8.75M5.25 7.58333C4.60567 7.58333 4.08333 7.061 4.08333 6.41667C4.08333 5.77233 4.60567 5.25 5.25 5.25C5.89433 5.25 6.41667 5.77233 6.41667 6.41667C6.41667 7.061 5.89433 7.58333 5.25 7.58333Z" stroke-width="1.16667" stroke-linecap="round" stroke-linejoin="round"/>
</symbol>


</svg>

