<svg width="24" height="19" viewBox="0 0 24 19" fill="none" xmlns="http://www.w3.org/2000/svg">
<path d="M23.6484 0.5H0.351562C0.157359 0.5 0 0.661136 0 0.86V18.14C0 18.3389 0.157359 18.5 0.351562 18.5H23.6484C23.8426 18.5 24 18.3389 24 18.14V0.86C24 0.661136 23.8426 0.5 23.6484 0.5ZM23.2969 17.78H0.703125V1.22H23.2969V17.78Z" fill="white"/>
<path d="M22.8876 16.3851L15.5538 9.50258L22.8878 2.61483C23.0332 2.47826 23.0379 2.25217 22.8983 2.10988C22.7586 1.9675 22.5276 1.96288 22.3822 2.09955L14.8111 9.21002C14.7932 9.22259 14.7761 9.23668 14.7604 9.25278C14.7514 9.26187 14.7431 9.27135 14.7354 9.28111L13.8471 10.1154C12.8286 11.0776 11.1715 11.0777 10.1522 10.1146L9.26469 9.28111C9.25695 9.27135 9.24863 9.26187 9.23967 9.25273C9.2239 9.23659 9.20677 9.22249 9.1889 9.20992L1.61783 2.0996C1.4723 1.96293 1.24135 1.96765 1.10171 2.10993C0.962064 2.25217 0.966833 2.47826 1.11222 2.61488L8.44616 9.50258L1.11236 16.3851C0.966882 16.5216 0.962015 16.7477 1.10161 16.89C1.1733 16.9632 1.26909 17 1.36507 17C1.45594 17 1.54696 16.967 1.61768 16.9006L8.97329 9.99763L9.64579 10.6292C10.295 11.2426 11.1476 11.5492 12.0003 11.5492C12.8526 11.5492 13.7049 11.2427 14.3534 10.6299L15.0267 9.99758L22.3823 16.9005C22.453 16.967 22.544 17 22.6349 17C22.7309 17 22.8267 16.9632 22.8984 16.89C23.038 16.7477 23.0332 16.5216 22.8876 16.3851Z" fill="white"/>
</svg>
