<svg width="18" height="18" viewBox="0 0 18 18" fill="none" xmlns="http://www.w3.org/2000/svg">
<path d="M13.1275 0H4.87243C2.18573 0 0 2.18573 0 4.87243V13.1277C0 15.8142 2.18573 18 4.87243 18H13.1277C15.8142 18 18 15.8142 18 13.1277V4.87243C18 2.18573 15.8142 0 13.1275 0V0ZM16.9447 13.1277C16.9447 15.2324 15.2324 16.9447 13.1275 16.9447H4.87243C2.76759 16.9447 1.05523 15.2324 1.05523 13.1277V4.87243C1.05523 2.76759 2.76759 1.05523 4.87243 1.05523H13.1277C15.2324 1.05523 16.9447 2.76759 16.9447 4.87243V13.1277Z" fill="white"/>
<path d="M8.99985 4.07812C6.28596 4.07812 4.07812 6.28596 4.07812 8.99985C4.07812 11.7137 6.28596 13.9216 8.99985 13.9216C11.7137 13.9216 13.9216 11.7137 13.9216 8.99985C13.9216 6.28596 11.7137 4.07812 8.99985 4.07812ZM8.99985 12.8663C6.86796 12.8663 5.13336 11.1319 5.13336 8.99985C5.13336 6.86796 6.86796 5.13336 8.99985 5.13336C11.1319 5.13336 12.8663 6.86796 12.8663 8.99985C12.8663 11.1319 11.1319 12.8663 8.99985 12.8663Z" fill="white"/>
<path d="M14.0393 2.33008C13.2373 2.33008 12.585 2.98253 12.585 3.78439C12.585 4.58639 13.2373 5.23884 14.0393 5.23884C14.8413 5.23884 15.4937 4.58639 15.4937 3.78439C15.4937 2.98239 14.8413 2.33008 14.0393 2.33008ZM14.0393 4.18347C13.8193 4.18347 13.6402 4.00439 13.6402 3.78439C13.6402 3.56425 13.8193 3.38531 14.0393 3.38531C14.2594 3.38531 14.4385 3.56425 14.4385 3.78439C14.4385 4.00439 14.2594 4.18347 14.0393 4.18347Z" fill="white"/>
</svg>
