<svg width="100" height="26" viewBox="0 0 100 26" fill="none" xmlns="http://www.w3.org/2000/svg">
<g clip-path="url(#clip0)">
<g clip-path="url(#clip1)">
<path d="M15.8049 3.45416H6.05744V10.4448H15.5205V13.8976H6.05744V20.8937H15.8049V24.3478H2.38867V0H15.8049V3.45416Z" fill="black"/>
<path d="M33.9741 18.5884H24.2698L21.6146 24.348H17.71L27.204 -0.134766H29.1732L40.2253 24.3467H36.4042L33.9741 18.5884ZM32.5494 15.2247L29.2473 7.88444L25.8306 15.2247H32.5494Z" fill="black"/>
<path d="M86.5237 13.8301L77.9785 0H82.5234L88.5077 9.72941L94.5109 0H99.0557L90.4768 13.8301V24.3478H86.5237V13.8301Z" fill="black"/>
<path d="M13.8084 3.45416H4.05559V10.4448H13.8084V13.8976H4.05559V20.8937H13.8084L13.8017 24.3478H0V0H13.8017L13.8084 3.45416Z" fill="#0DFFF8"/>
<path d="M31.8087 18.6991H22.5087L19.8791 24.348H15.8047L27.2045 -0.134766L38.3227 24.3467H34.3695L31.8087 18.6991ZM30.2547 15.2247L27.2086 8.58634L24.1261 15.2247H30.2547Z" fill="#0DFFF8"/>
<path d="M84.5309 13.8301L75.9844 0H80.5306L86.5149 9.72941L92.5181 0H97.0656L88.4827 13.8301V24.3478H84.5309V13.8301Z" fill="#0DFFF8"/>
<path d="M53.3033 12.0742H49.245L40.251 24.348H57.9492L59.9062 20.8939H48.2638L53.3033 12.0742Z" fill="black"/>
<path d="M45.2381 12.1739H49.2964L56.2511 0H40.2363V3.45416H50.2196L45.2381 12.1739Z" fill="black"/>
<path d="M51.3021 12.0742H47.2438L40.2324 24.348H55.9426L57.905 20.8939H46.2626L51.3021 12.0742Z" fill="#0DFFF8"/>
<path d="M43.2361 12.1739H47.2944L54.2492 0H40.2035L38.2344 3.45416H48.2177L43.2361 12.1739Z" fill="#0DFFF8"/>
<path d="M73.0367 12.0742H68.9797L59.9844 24.348H77.6826L79.6396 20.8939H67.9972L73.0367 12.0742Z" fill="black"/>
<path d="M64.9728 12.1739H69.0298L75.9845 0H59.9697V3.45416H69.953L64.9728 12.1739Z" fill="black"/>
<path d="M71.0351 12.0742H66.9781L59.9668 24.348H75.6756L77.6381 20.8939H65.9956L71.0351 12.0742Z" fill="#0DFFF8"/>
<path d="M62.9701 12.1739H67.0284L73.9832 0H59.9389L57.9697 3.45416H67.953L62.9701 12.1739Z" fill="#0DFFF8"/>
</g>
</g>
<defs>
<clipPath id="clip0">
<rect width="99.1852" height="26" fill="white"/>
</clipPath>
<clipPath id="clip1">
<rect width="99.0553" height="24.3478" fill="white"/>
</clipPath>
</defs>
</svg>
