<svg xmlns="http://www.w3.org/2000/svg">

	<symbol id="walls" viewBox="0 0 97 109">
		<path d="M82.4451 0.550781C83.8191 0.502754 85.2065 0.471446 86.571 0.538086C87.556 0.58609 88.4161 0.749887 89.3103 1.26953L89.49 1.37793L89.5613 1.42285L89.614 1.49023C90.1342 2.14599 90.3964 3.01268 90.5359 3.8457C90.6767 4.68705 90.7014 5.55236 90.7058 6.24219C90.7159 7.8349 90.7997 10.6389 90.8044 13.3037C90.8092 15.976 90.7374 18.6629 90.4207 20.1318C90.293 20.7252 90.0539 21.3105 89.533 21.7773L89.5271 21.7822C89.4712 21.8309 89.4136 21.8768 89.3542 21.9199L89.3474 21.9248C89.2855 21.9682 89.2222 22.009 89.157 22.0459L89.1501 22.0498C89.0845 22.0856 89.0165 22.1166 88.948 22.1455C88.8765 22.1768 88.8034 22.204 88.7283 22.2266C88.6536 22.2492 88.5777 22.2671 88.5007 22.2812L88.5017 22.2822C88.4257 22.2964 88.3491 22.3056 88.2722 22.3115L88.2732 22.3125C88.1961 22.3187 88.1189 22.3207 88.0417 22.3184C87.9645 22.316 87.887 22.3096 87.8103 22.2988V22.2979C87.1837 22.2117 86.7237 21.8509 86.406 21.3477C86.0986 20.8605 85.9152 20.2297 85.8035 19.541C85.5799 18.1622 85.6177 16.3703 85.7029 14.5625C85.7892 12.7302 85.9238 10.8758 85.9158 9.29297C85.9118 8.50478 85.8721 7.80509 85.7771 7.22754C85.7021 6.77152 85.5966 6.42312 85.4695 6.17383C80.3734 5.88583 75.1747 6.1083 70.0193 6.11035H70.0173C61.4563 6.08473 52.8947 6.10711 44.3328 6.17676L44.3708 26.3262C46.1624 26.2476 49.7961 26.1192 53.3015 26.1445C55.2463 26.1586 57.1626 26.2191 58.7058 26.3633C59.4765 26.4353 60.1658 26.5292 60.7244 26.6514C61.2596 26.7685 61.7543 26.9278 62.0671 27.1738H62.0681C62.636 27.6226 62.9167 28.2058 62.9167 28.9326V28.9346C62.9132 29.6031 62.6405 30.4084 62.116 30.9131L62.1169 30.9141C61.5847 31.4293 60.9462 31.5838 60.3455 31.6562C56.1427 32.1646 51.671 31.8068 47.5291 31.7969L24.4167 31.8154L24.408 51.8809C30.1717 52.0208 36.0199 52.0118 41.7839 51.9287C43.2242 51.9079 44.67 51.8132 46.1453 51.7432C47.6123 51.6735 49.0967 51.6294 50.573 51.7178C51.4484 51.7704 52.5122 51.8967 53.3826 52.4238H53.3816C53.9623 52.775 54.5121 53.3864 54.6208 54.1719C54.7082 54.8034 54.6545 55.5065 54.0935 56.0791C53.5845 56.5987 52.7763 56.884 51.9207 57.0518C51.0463 57.2231 50.0297 57.2884 49.0144 57.3008C47.996 57.3131 46.9605 57.273 46.0457 57.2275C45.3767 57.1943 44.7816 57.1581 44.2957 57.1377C44.2994 63.7938 44.1869 70.457 44.407 77.085C46.8556 77.0631 49.3538 76.9071 51.9382 76.8594C54.4883 76.8122 57.0549 76.8763 59.5066 77.3115L59.9949 77.4043L60.1414 77.4336L60.2478 77.5381C60.8772 78.157 61.2758 78.7798 61.3494 79.7529C61.3972 80.384 61.2777 81.0611 60.7292 81.5889V81.5898C60.3216 81.9804 59.7407 82.1696 59.2273 82.2764C58.7019 82.3856 58.155 82.4249 57.7654 82.457C54.5268 82.7238 51.1115 82.512 47.9294 82.5088C40.0926 82.5007 32.2414 82.3202 24.4343 82.5537L24.4119 102.291L85.4392 102.308C85.6321 101.972 85.7766 101.427 85.8562 100.668C85.9488 99.7854 85.9495 98.724 85.9265 97.6084C85.9038 96.5058 85.8577 95.3418 85.863 94.3057C85.8683 93.277 85.9225 92.307 86.1228 91.5869L86.2019 91.3213C86.2849 91.061 86.385 90.8161 86.531 90.5908C86.7322 90.2804 87.0003 90.0361 87.365 89.8184L87.4646 89.7578L87.5818 89.749C87.9023 89.7237 88.3677 89.6177 88.8962 89.8535C89.6777 90.2021 90.0319 90.8342 90.2742 91.4873V91.4883C90.3713 91.7519 90.4443 92.1613 90.5027 92.6318C90.5628 93.1167 90.6132 93.7131 90.6541 94.3789C90.7358 95.7116 90.7795 97.3434 90.781 98.9619C90.7825 100.58 90.7415 102.193 90.6521 103.487C90.6075 104.134 90.5499 104.709 90.4783 105.169C90.4425 105.399 90.4025 105.607 90.3562 105.784C90.3118 105.954 90.2545 106.127 90.1736 106.267L90.1726 106.266C89.992 106.578 89.7916 106.834 89.5232 107.032C89.3226 107.18 89.103 107.283 88.8621 107.361L88.614 107.432C86.9484 107.85 85.0911 107.92 83.2625 107.887C82.3463 107.87 81.4276 107.828 80.5388 107.788C79.6468 107.748 78.7846 107.712 77.9695 107.706V107.705L63.1853 107.688L25.8601 107.711L25.8611 107.712C19.2988 107.725 12.6893 107.875 6.10718 107.743C5.58033 107.732 4.65799 107.762 3.8103 107.707C3.37661 107.679 2.93338 107.627 2.52905 107.531C2.1303 107.437 1.73299 107.292 1.4187 107.055C1.20235 106.891 1.06951 106.664 0.984131 106.455C0.897681 106.243 0.844681 106.012 0.810303 105.796C0.777154 105.588 0.757783 105.365 0.743896 105.165L0.712646 104.668C0.336193 99.9259 0.658932 94.9757 0.661865 90.2822L0.665771 61.6445L0.634521 24.3682L0.61792 21.8486C0.557142 15.9531 0.380347 9.94332 0.628662 4.06348C0.660349 3.31039 0.781146 2.3384 1.44409 1.63379L1.54761 1.5293C2.07568 1.02764 2.7275 0.831147 3.34937 0.75293C3.98891 0.672539 4.693 0.710927 5.22144 0.707031C22.7383 0.426184 40.3099 0.68948 57.8152 0.683594L78.364 0.667969V0.666992C79.7044 0.663917 81.0647 0.599033 82.4451 0.550781ZM19.6912 82.5117C14.951 82.5032 10.2089 82.3725 5.50464 82.542L5.50366 102.312L19.6941 102.297L19.6912 82.5117ZM39.4988 57.0859C30.3449 57.0377 21.1823 56.8123 12.0525 56.9619H12.0515L5.51343 57.0566C5.51017 63.7412 5.41416 70.4238 5.55444 77.0889H33.2908L39.5144 77.0908C39.5213 70.415 39.6565 63.7357 39.4988 57.0859ZM19.7537 31.8184C14.9932 31.7949 10.2328 31.8031 5.47241 31.8447L5.4812 51.96C10.2123 52.0816 15.0124 52.1319 19.7322 51.9727L19.7537 31.8184ZM39.5212 6.18164C28.232 6.06303 16.9427 6.03543 5.65308 6.10156L5.54663 6.15137C5.28428 8.38962 5.47197 10.7814 5.47632 13.127L5.49976 26.4365L39.5095 26.4092C39.6268 25.673 39.6414 24.8245 39.6179 23.9365C39.5921 22.9591 39.5185 21.886 39.5183 20.9922C39.5177 16.065 39.4742 11.118 39.5212 6.18164Z" fill="#D9D9D9" stroke="#D9D9D9"/>
        <path d="M76.158 15.0754C76.6443 15.0179 77.0791 14.9819 77.5154 15.0403C77.9637 15.1004 78.3843 15.2553 78.865 15.5354H78.866C80.7845 16.656 82.2522 18.5902 83.5203 20.2053C88.3938 26.4135 91.8689 33.1914 93.9509 40.8245C97.8687 55.197 96.3591 71.0615 88.9128 84.0813C87.9683 85.7335 86.1504 88.6891 84.1033 91.3625C83.0801 92.6987 81.9917 93.9758 80.9187 94.9866C79.8573 95.9864 78.7615 96.7737 77.7234 97.0579L77.7224 97.0569C77.4318 97.1557 77.1568 97.2008 76.8738 97.1858C76.5835 97.1704 76.3111 97.0951 76.0378 96.9905L76.0369 96.9895C75.7449 96.8766 75.5257 96.6266 75.3875 96.4338C75.2753 96.2775 75.1796 96.1066 75.1091 95.9504L75.0466 95.8C74.6394 94.6911 75.0127 93.6539 75.5339 92.8206L75.7361 92.5149C76.2225 91.8161 76.8073 91.218 77.3943 90.6624C78.0796 90.0136 78.7423 89.4444 79.3445 88.7952C82.0762 85.8476 84.4111 82.3648 86.1843 78.7522L86.532 78.0266C93.7161 62.6989 92.8922 42.3016 83.2439 28.2219C82.3774 26.9578 80.5117 24.9578 78.7205 22.9553C77.8348 21.9652 76.9741 20.9804 76.2878 20.1077C75.6157 19.2529 75.0627 18.4477 74.8513 17.8274L74.824 17.7454L74.825 17.6584C74.8324 17.1572 74.9891 16.7232 75.1804 16.344C75.3623 15.9836 75.6102 15.6133 75.7878 15.3157L75.9138 15.1038L76.158 15.0754Z" fill="#D9D9D9" stroke="#D9D9D9"/>
        <path d="M67.7625 25.4565C68.6268 25.4119 69.3005 25.4458 70.1521 25.9468L70.4392 26.1255C71.8476 27.0612 72.9107 28.5699 73.8269 29.7554C77.6215 34.651 80.364 39.8423 81.8025 45.9253L82.0398 46.9683C82.1154 47.3179 82.1861 47.6688 82.2517 48.02C82.3172 48.3704 82.3788 48.7218 82.4363 49.0737L82.5974 50.1323V50.1343L82.7312 51.1938V51.1958L82.8386 52.2612V52.2632L82.9187 53.3276V53.3306C82.9405 53.6866 82.9585 54.0427 82.9724 54.3989C82.9863 54.7552 82.9958 55.1116 82.9998 55.4683L83.0027 56.5405C82.9987 56.8981 82.9893 57.2557 82.9753 57.6128C82.9634 57.9694 82.9464 58.3261 82.9246 58.6821C82.9028 59.0379 82.8771 59.3934 82.8474 59.7485V59.7515C82.8158 60.1057 82.7815 60.4595 82.7439 60.813L82.7429 60.8159C82.7032 61.1705 82.6597 61.5251 82.6121 61.8784C82.5644 62.2326 82.5115 62.586 82.4539 62.939C82.3965 63.29 82.3345 63.6403 82.2693 63.9897L82.2703 63.9907C82.2065 64.343 82.137 64.6947 82.0613 65.0454C81.9878 65.3943 81.9092 65.7423 81.8259 66.0894C81.7445 66.4364 81.6584 66.7824 81.5671 67.1274C81.4759 67.4724 81.3802 67.8161 81.281 68.1587L81.28 68.1616C81.1791 68.5032 81.0754 68.8441 80.9685 69.1831L80.9675 69.1851C80.8587 69.5243 80.7474 69.8623 80.6326 70.1987L80.6316 70.2007C80.5145 70.5379 80.3933 70.8742 80.2683 71.2085L79.8806 72.2065C79.7477 72.5376 79.6113 72.8672 79.4705 73.1948C79.3295 73.5227 79.1838 73.8492 79.0349 74.1733C78.8861 74.4974 78.7317 74.8191 78.573 75.1392C78.4162 75.4596 78.2563 75.7789 78.0916 76.0952L77.5847 77.0386L77.0544 77.9692C76.8736 78.2775 76.6885 78.5838 76.4998 78.8872C75.6938 80.1815 74.5808 82.032 73.2712 83.646C71.9758 85.2425 70.4087 86.7114 68.658 87.1177L68.6326 87.1235L68.6072 87.1265C68.0738 87.1934 67.5092 87.0389 67.0818 86.8179L67.0798 86.8169C66.5403 86.5354 66.1764 86.1021 66.075 85.4556L66.0583 85.3159C65.9998 84.6169 66.309 83.8501 66.7234 83.1294C67.1785 82.338 67.8252 81.4954 68.5076 80.6821C69.1912 79.8674 69.9282 79.0614 70.5671 78.3511C71.2158 77.63 71.75 77.0217 72.0613 76.5737L72.4353 76.022C80.1728 64.3524 80.2007 47.8411 72.448 36.2222C72.1953 35.8435 71.703 35.2547 71.0808 34.5425C70.4576 33.8291 69.7523 33.0456 69.0486 32.2446C68.3556 31.4559 67.6837 30.6711 67.1765 30.0054C66.9233 29.673 66.703 29.3608 66.5408 29.0864C66.3901 28.8316 66.2474 28.5428 66.2214 28.2759C66.165 27.6957 66.356 27.1825 66.5984 26.7563C66.8363 26.3382 67.1561 25.9527 67.3943 25.6479L67.5349 25.4683L67.7625 25.4565Z" fill="#D9D9D9" stroke="#D9D9D9"/>
        <path d="M58.603 37.2507C58.6386 37.251 58.6947 37.2504 58.7476 37.2517L58.7466 37.2527C60.1459 37.2855 61.1468 37.9342 62.0259 38.8552H62.0249C66.4191 43.4496 68.5755 50.8369 68.3989 57.0105C68.2039 63.9208 65.4495 70.3708 60.4243 75.1472L60.3325 75.2341L60.2104 75.2673C59.8511 75.3647 59.4329 75.3703 59.0474 75.3162C58.6619 75.262 58.2606 75.1413 57.9399 74.947L57.938 74.946C57.48 74.6655 57.1547 74.2081 57.0474 73.6697L57.0464 73.6707C56.783 72.3654 57.4647 71.1092 58.2192 70.071C58.6056 69.5395 59.0397 69.0291 59.4321 68.5642C59.8319 68.0906 60.1819 67.6721 60.4341 67.2986C64.3367 61.5044 64.8734 52.5365 61.3052 46.4539L61.1323 46.1667C60.6033 45.3084 59.7719 44.4819 58.939 43.4968C58.1941 42.6159 57.4621 41.6172 57.2241 40.4871L57.1831 40.2595C57.0108 39.0863 57.7313 38.1506 58.1831 37.4734L58.3325 37.2488L58.603 37.2507Z" fill="#D9D9D9" stroke="#D9D9D9"/>
	</symbol>

</svg>