<svg xmlns="http://www.w3.org/2000/svg">

	<symbol id="work" viewBox="0 0 113 139">
		<path d="M58.2859 0.090244C54.9602 -0.357164 51.1597 0.901812 48.5269 2.91907C48.3255 3.07598 48.1282 3.23779 47.935 3.4045C47.7415 3.57118 47.5525 3.74259 47.3679 3.91871C47.1831 4.09484 47.0027 4.27543 46.8268 4.46049C46.6509 4.64558 46.4798 4.83493 46.3134 5.02854C46.1469 5.22212 45.9855 5.41972 45.8291 5.62135C45.6724 5.82297 45.5208 6.02837 45.3744 6.23755C45.2282 6.44669 45.0871 6.65936 44.9512 6.87555C44.8153 7.09171 44.6849 7.31113 44.56 7.53379C44.4351 7.75645 44.3159 7.98208 44.2023 8.21068C44.0887 8.43928 43.9808 8.67056 43.8785 8.90453C43.7763 9.13846 43.6799 9.37482 43.5895 9.6136C43.499 9.85234 43.4146 10.0932 43.3363 10.3362C43.2577 10.5791 43.1852 10.8238 43.119 11.0704C43.0527 11.3169 42.9927 11.565 42.9388 11.8145C42.8849 12.0641 42.8372 12.3148 42.7956 12.5667C42.7541 12.8187 42.7188 13.0714 42.6899 13.3251C42.6607 13.5672 42.6375 13.8099 42.6201 14.0532C42.603 14.2964 42.5919 14.54 42.5866 14.7839C42.5816 15.0277 42.5826 15.2715 42.5898 15.5155C42.5968 15.7592 42.6099 16.0027 42.6288 16.2459C42.648 16.4888 42.6732 16.7312 42.7045 16.9731C42.7358 17.2149 42.773 17.4559 42.8161 17.6959C42.8592 17.936 42.9084 18.1748 42.9636 18.4125C43.0186 18.6502 43.0794 18.8863 43.1462 19.1208C43.213 19.3553 43.2857 19.588 43.3643 19.8188C43.4426 20.0499 43.5266 20.2788 43.6163 20.5054C43.7062 20.7323 43.8016 20.9567 43.9026 21.1786C44.0036 21.4007 44.1099 21.6201 44.2216 21.8368C44.3334 22.0534 44.4505 22.2672 44.573 22.478C44.6955 22.6889 44.8232 22.8966 44.9559 23.1011C45.089 23.3057 45.2269 23.5068 45.3696 23.7045C45.5124 23.9022 45.66 24.0962 45.8125 24.2866C49.0424 28.2788 53.2791 29.325 58.1341 29.8645C56.5278 32.1546 55.2615 34.4703 54.2188 37.0739C52.0719 42.4353 50.8249 48.1375 49.2048 53.6712C47.5749 59.2397 45.0309 65.2983 44.5501 71.0561C44.3541 73.3994 45.2849 74.5375 46.7125 76.2431C43.7003 77.7981 40.7871 79.5574 37.8554 81.2587C37.0655 79.768 36.2235 78.3238 34.9091 77.2295C33.1498 75.7636 30.9765 75.1204 28.7045 75.3539C23.2437 75.9158 15.3521 81.6649 12.0118 85.952C9.55094 89.1101 9.52254 92.5971 9.98908 96.3937L9.73786 96.7214C7.86896 99.1759 -0.373299 110.386 0.220222 113.339C0.328674 113.881 0.513634 113.855 0.942703 114.146C6.13808 114.328 8.87933 99.6784 18.1647 95.8715C26.7634 92.3459 31.7226 101.876 37.6054 106.283C39.4648 107.676 41.8072 107.583 43.8274 109.521C44.9033 110.553 45.3779 111.774 46.3351 112.488C47.0556 113.025 47.6672 113.151 48.5356 112.978C49.0656 112.446 49.3117 112.181 49.363 111.376C49.6489 106.901 43.1537 105 40.1861 103.064C39.1347 102.378 38.2837 101.449 37.4433 100.527C39.7996 98.6349 42.1713 96.4276 42.7925 93.331C43.4759 89.9225 41.831 87.1852 40.0244 84.4669C43.0969 82.8164 46.0858 80.9649 49.2372 79.4675C51.463 78.4098 54.0055 77.7378 56.1327 76.52C57.5165 75.7277 58.4957 73.7957 59.7041 72.7053C61.1679 71.3849 67.9578 67.5178 69.8693 67.3419L69.6634 67.9098C66.4335 73.2953 59.796 80.9716 59.5783 87.2992C59.4966 89.6753 60.1189 92.116 60.3816 94.4739C60.7949 98.1877 60.9341 101.931 61.3569 105.647C61.7181 108.822 62.6149 112.5 65.3265 114.513C66.9505 115.719 68.9772 115.998 70.94 115.728C72.8085 115.47 74.4881 114.633 75.6317 113.104C79.4113 108.05 76.6843 94.7717 75.7469 88.7378C77.8378 85.3382 80.0045 81.9874 82.2468 78.6855C82.5383 81.5265 82.8541 84.3967 83.6851 87.1399C85.1024 91.8175 96.5083 112.96 100.384 114.94C102.185 115.86 104.271 115.868 106.151 115.198C108.286 114.438 110.233 113.096 111.142 110.955C113.028 106.51 109.579 101.469 107.31 97.8233C104.69 93.6154 101.481 89.284 99.7236 84.6337C98.2802 80.815 97.7813 76.4928 97.0509 72.4896C95.8245 65.7692 94.3282 59.5141 91.5929 53.2354C93.3486 52.2779 95.046 51.2159 96.754 50.1767C98.6339 51.4572 100.558 52.7819 102.961 52.4246C104.988 52.1229 107.219 50.7292 108.352 49.0141C109.381 47.4572 109.668 45.4968 109.31 43.6823C108.264 38.3686 98.0621 25.6377 93.5596 22.6243C88.6147 19.314 75.2169 22.4335 69.4063 23.5617C70.5629 21.5177 71.4436 19.4276 71.7918 17.091C71.8257 16.8488 71.8538 16.6062 71.8762 16.363C71.8983 16.1195 71.9144 15.8757 71.9247 15.6314C71.9349 15.3872 71.9391 15.1429 71.9373 14.8987C71.9357 14.6542 71.9281 14.4099 71.9144 14.166C71.9008 13.922 71.8812 13.6784 71.8557 13.4354C71.8302 13.1923 71.7986 12.95 71.761 12.7085C71.7237 12.467 71.6804 12.2265 71.6313 11.9871C71.5821 11.7477 71.5272 11.5096 71.4664 11.2729C71.4057 11.0362 71.3392 10.8011 71.2669 10.5676C71.1946 10.3341 71.1168 10.1026 71.0334 9.87293C70.9498 9.64328 70.8606 9.4158 70.7656 9.19048C70.671 8.96519 70.571 8.74234 70.4655 8.52191C70.3598 8.30151 70.2489 8.08383 70.1327 7.86884C70.0165 7.65386 69.8951 7.44185 69.7687 7.23281C69.642 7.02377 69.5102 6.81793 69.3735 6.61531C69.2371 6.41268 69.0956 6.21353 68.9492 6.01784C66.2935 2.46145 62.5885 0.725883 58.2859 0.090244ZM87.9107 33.1354C85.7973 33.1235 81.5693 32.6566 80.008 34.3607C79.508 34.9069 79.4117 35.6317 79.5103 36.3416C79.8538 38.8225 87.9103 53.7891 89.5178 58.3125C91.5795 64.114 92.5126 70.1944 93.603 76.2309C94.2139 79.613 94.7076 83.1659 96.039 86.3575C98.9214 93.2683 104.919 98.8951 107.111 106.135C107.441 107.225 107.862 108.504 107.196 109.551C106.613 110.466 105.689 111.414 104.584 111.61C103.582 111.788 102.682 111.321 101.915 110.723C99.0622 108.5 88.8402 90.2025 87.5909 86.2104C86.4543 82.5794 86.6834 78.6689 85.6589 75.0001C85.3927 74.0477 84.9072 71.17 83.5368 71.3274C82.1309 71.4891 81.1225 72.7341 80.3267 73.8044C78.6853 76.0113 77.3492 78.5557 75.9602 80.9286C74.503 83.2388 72.9761 85.532 71.6577 87.9239C72.3285 92.5912 75.0796 107.498 72.2315 110.974C71.7847 111.519 71.0165 111.775 70.3342 111.802C69.2312 111.845 68.095 111.49 67.3193 110.679C64.369 107.596 64.1994 91.3651 63.4356 86.2612C67.0211 79.5038 71.7326 73.479 74.9735 66.5059C73.4213 62.6951 67.7905 47.8003 64.625 46.5825C64.1237 46.3896 63.9987 46.5194 63.5061 46.6542C60.8781 49.584 58.2674 61.316 57.1277 65.6513C56.5515 67.8431 56.1741 70.2464 54.9038 72.169C54.1963 73.2397 53.1919 74.0229 51.8716 74.0824C50.9582 74.1238 50.0894 73.9121 49.4265 73.2558C48.7884 72.6237 48.6318 71.8996 48.6622 71.0213C48.7849 67.4614 56.8903 40.6548 58.685 36.8057C59.557 34.9364 60.7334 33.2482 62.2765 31.8718C67.6683 27.0629 82.4696 24.7523 89.4815 25.1672C89.5761 25.1727 89.6708 25.1806 89.765 25.1873C94.1381 27.2037 103.266 38.6892 104.916 43.1842C105.35 44.3638 105.632 45.7788 105.073 46.9611C104.781 47.579 104.247 48.1777 103.573 48.3768C102.446 48.7101 101.109 48.1083 100.167 47.51C94.9718 44.2092 92.2306 37.419 87.9107 33.1354ZM34.5407 97.7085C31.6429 95.3723 28.6083 92.3794 24.9825 91.2989C20.4997 90.2179 17.4974 91.4294 13.6559 93.7503C13.516 93.8349 13.3769 93.9209 13.2387 94.0082C14.6043 87.8036 18.0807 84.9547 23.2323 81.6625C25.6032 80.147 28.152 78.9939 31.0155 79.2514C33.8466 81.6716 38.432 87.328 38.7841 91.1388C38.9312 92.7273 38.3263 94.2854 37.2757 95.4614C36.4783 96.3546 35.5188 97.0298 34.5407 97.7085ZM94.2647 47.2115L91.0865 48.7653L90.2801 49.067C88.4273 47.805 85.2223 40.1275 84.7597 37.8102C85.2361 37.3125 85.7184 37.251 86.3616 37.1098C88.7771 40.6445 91.4797 43.9643 94.2647 47.2115ZM64.8931 54.2971C66.3156 57.1759 67.7823 60.0406 69.1543 62.9435L63.0877 66.2661L60.8548 67.5091C61.9176 63.3462 62.7206 58.0045 64.8931 54.2971ZM57.8198 4.32018C57.9941 4.32967 58.1681 4.34345 58.3419 4.36151C58.5157 4.3796 58.6888 4.40196 58.8613 4.42859C59.034 4.45519 59.206 4.48606 59.3771 4.52119C59.5483 4.55628 59.7184 4.59559 59.8874 4.6391C60.0565 4.68261 60.2245 4.73027 60.3914 4.78206C60.5581 4.83385 60.7235 4.88973 60.8876 4.9497C61.0516 5.00967 61.2141 5.07365 61.375 5.14164C61.5359 5.20963 61.695 5.28155 61.8522 5.3574C62.0097 5.43322 62.165 5.5129 62.3183 5.59642C62.4719 5.67992 62.6232 5.76717 62.7722 5.85817C62.9213 5.94913 63.0681 6.04373 63.2127 6.14195C63.3571 6.24017 63.4989 6.34191 63.6383 6.44715C63.7779 6.55237 63.9146 6.66096 64.0484 6.77294C64.1825 6.88494 64.3138 7.00016 64.4424 7.1186C64.5707 7.23707 64.6959 7.35862 64.8182 7.48327C64.9407 7.60791 65.06 7.73551 65.1759 7.86604C65.2921 7.99658 65.4049 8.1299 65.5143 8.26601C65.6239 8.40209 65.73 8.5408 65.8325 8.68214C65.9353 8.82348 66.0344 8.96727 66.1299 9.1135C66.2256 9.25973 66.3175 9.40824 66.4055 9.55902C66.4939 9.70977 66.5784 9.86261 66.6591 10.0175C66.7398 10.1725 66.8166 10.3293 66.8894 10.4881C66.9625 10.6468 67.0315 10.8072 67.0965 10.9693C67.1617 11.1315 67.2227 11.2951 67.2794 11.4603C67.3365 11.6254 67.3893 11.7919 67.438 11.9596C67.4869 12.1274 67.5316 12.2963 67.5721 12.4662C67.6123 12.6362 67.6484 12.807 67.6805 12.9788C67.7126 13.1505 67.7403 13.3229 67.7637 13.4961C67.7871 13.6692 67.8063 13.8428 67.8213 14.0169C67.8363 14.1909 67.8469 14.3652 67.8532 14.5398C67.8596 14.7144 67.8615 14.889 67.8592 15.0635C67.8568 15.2384 67.8502 15.4129 67.8394 15.5873C67.8287 15.7616 67.8134 15.9356 67.7937 16.1094C67.7742 16.2829 67.7506 16.4559 67.7227 16.6284C67.6946 16.8009 67.6622 16.9724 67.6257 17.143C67.5892 17.3139 67.5485 17.4838 67.5038 17.6526C67.4589 17.8216 67.4099 17.9893 67.3567 18.1558C67.3036 18.3222 67.2465 18.4872 67.1852 18.6507C67.1237 18.8142 67.0583 18.9762 66.9892 19.1366C66.9198 19.2969 66.8466 19.4555 66.7695 19.6122C66.6925 19.7689 66.6115 19.9237 66.5266 20.0767C66.4419 20.2295 66.3536 20.38 66.2616 20.5283C66.1693 20.6766 66.0735 20.8226 65.9741 20.9664C65.8747 21.11 65.7719 21.251 65.6657 21.3896C65.5592 21.5284 65.4494 21.6643 65.3364 21.7973C65.2233 21.9306 65.1072 22.0609 64.9878 22.1882C64.8682 22.3157 64.7455 22.4402 64.6198 22.5616C64.4944 22.6828 64.366 22.801 64.2345 22.9162C64.1031 23.0313 63.9689 23.1431 63.8319 23.2514C63.6949 23.3597 63.5553 23.4646 63.4131 23.5661C63.2711 23.6678 63.1266 23.7659 62.9797 23.8603C62.8327 23.9547 62.6835 24.0454 62.5321 24.1324C62.3804 24.2194 62.2268 24.3026 62.0714 24.382C61.9158 24.4614 61.7583 24.537 61.599 24.6088C61.4397 24.6803 61.2788 24.748 61.1163 24.8119C60.9535 24.8755 60.7895 24.9352 60.6241 24.9909C60.4585 25.0464 60.2915 25.0978 60.1233 25.1451C59.9553 25.1927 59.7861 25.236 59.6157 25.2749C59.4456 25.314 59.2746 25.3489 59.1027 25.3794C58.9307 25.4099 58.7581 25.4362 58.5848 25.4582C58.4116 25.4803 58.2379 25.4982 58.0639 25.5119C57.8896 25.5253 57.7151 25.5345 57.5406 25.5395C57.366 25.5442 57.1914 25.5447 57.0169 25.5411C56.8423 25.5374 56.6678 25.5294 56.4935 25.517C56.3211 25.5049 56.149 25.4885 55.9773 25.4677C55.8059 25.4472 55.635 25.4225 55.4646 25.3936C55.294 25.3644 55.1243 25.3313 54.9555 25.2942C54.7867 25.2569 54.619 25.2154 54.4523 25.17C54.2856 25.1245 54.1201 25.075 53.9558 25.0217C53.7915 24.968 53.6285 24.9105 53.4668 24.849C53.3053 24.7874 53.1454 24.722 52.9868 24.6526C52.8286 24.5834 52.672 24.5103 52.5171 24.4333C52.3625 24.3563 52.2098 24.2755 52.0589 24.1911C51.908 24.1068 51.7593 24.0187 51.6129 23.9269C51.4664 23.8354 51.3222 23.7403 51.1802 23.6414C51.0383 23.5425 50.8988 23.4404 50.7618 23.335C50.6251 23.2293 50.4909 23.1204 50.3592 23.0084C50.2277 22.8964 50.099 22.7812 49.9731 22.6626C49.8471 22.5443 49.7241 22.4229 49.604 22.2986C49.4841 22.1742 49.3672 22.047 49.2534 21.9168C49.1395 21.7867 49.0288 21.6538 48.9213 21.5181C48.814 21.3827 48.7102 21.2447 48.6098 21.104C48.5091 20.9634 48.4119 20.8205 48.3183 20.6754C48.2247 20.53 48.1347 20.3824 48.0482 20.2325C47.9619 20.0829 47.8793 19.9312 47.8001 19.7774C47.7212 19.6236 47.6461 19.468 47.5745 19.3105C47.5033 19.153 47.4359 18.9939 47.3722 18.8333C47.3086 18.6724 47.2489 18.5102 47.1932 18.3466C47.1375 18.1828 47.0858 18.0179 47.0382 17.8517C46.9903 17.6856 46.9467 17.5183 46.9073 17.3501C46.8678 17.1818 46.8325 17.0126 46.8012 16.8425C46.7702 16.6724 46.7431 16.5017 46.7199 16.3302C46.6971 16.1588 46.6784 15.987 46.6639 15.8148C46.6495 15.6426 46.6392 15.4701 46.6332 15.2974C46.6271 15.1244 46.6253 14.9515 46.6277 14.7788C46.63 14.6058 46.6366 14.4331 46.6474 14.2606C46.6582 14.0881 46.6732 13.9159 46.6924 13.744C46.7115 13.5722 46.7349 13.401 46.7625 13.2303C46.7901 13.0596 46.8218 12.8897 46.8576 12.7206C46.8936 12.5515 46.9336 12.3834 46.9775 12.2162C47.0216 12.049 47.0698 11.883 47.1218 11.7182C47.1741 11.5534 47.2304 11.3899 47.2906 11.2279C47.3505 11.0658 47.4146 10.9052 47.4827 10.7463C47.5508 10.5873 47.6227 10.4301 47.6984 10.2747C47.7738 10.1193 47.8532 9.96578 47.9366 9.81421C48.0197 9.66267 48.1064 9.51323 48.1968 9.3659C48.2873 9.21859 48.3813 9.07356 48.4788 8.93083C48.5764 8.78812 48.6773 8.64787 48.7817 8.51008C48.8861 8.37229 48.9939 8.23713 49.1051 8.10459C49.216 7.97206 49.3301 7.84231 49.4474 7.71535C49.5646 7.58839 49.6851 7.46438 49.8086 7.34331C49.9319 7.22224 50.0581 7.10426 50.1872 6.98937C50.3163 6.87445 50.4482 6.76276 50.5828 6.65431C50.7174 6.54583 50.8546 6.44072 50.9945 6.33898C51.1341 6.2372 51.2762 6.1389 51.4208 6.04407C51.5654 5.94926 51.7121 5.85803 51.8609 5.77038C52.01 5.68272 52.161 5.59877 52.314 5.5185C52.4673 5.43823 52.6223 5.36175 52.779 5.28906C52.936 5.21636 53.0945 5.14753 53.2546 5.08257C53.4147 5.0176 53.5764 4.95659 53.7397 4.89954C53.9027 4.84249 54.0671 4.78945 54.233 4.74041C54.3986 4.69138 54.5655 4.64644 54.7335 4.60558C54.9015 4.5647 55.0703 4.52794 55.2398 4.49531C55.4097 4.46269 55.5802 4.43423 55.7513 4.40993C55.9225 4.38564 56.094 4.36553 56.266 4.3496C56.4382 4.33369 56.6107 4.32199 56.7834 4.3145C56.9561 4.30701 57.1288 4.30373 57.3016 4.30468C57.4746 4.30562 57.6473 4.31079 57.8198 4.32018Z" />
        <path d="M62.2453 134.465C62.2094 134.452 62.1735 134.437 62.1372 134.424C59.3435 133.399 56.8803 131.788 54.2507 130.424C49.2675 127.84 42.3191 127.569 37.2705 130.12C35.1275 131.202 33.0859 132.739 30.7737 133.434C26.7472 134.644 23.1261 132.294 19.731 130.496C15.8079 128.418 6.29695 127.709 2.05278 129.174C1.09999 129.503 0.458755 129.802 0.000106812 130.722C0.131432 131.299 0.151543 131.501 0.618477 131.909C2.50039 133.552 6.2244 132.887 8.50501 132.733C17.6543 131.9 20.8183 137.91 28.1949 138.237C34.181 138.502 38.8353 132.882 44.9208 132.556C52.1929 132.167 56.4666 138.156 62.5821 138.491C66.6468 138.713 72.123 132.888 77.7537 132.701C85.2175 132.453 89.044 137.172 95.5184 138.245C101.228 139.191 104.767 134.467 109.927 133.441C114.557 132.52 119.864 133.908 124.261 132.547C124.877 132.356 125.431 132.24 125.666 131.577C125.876 130.983 125.67 130.311 125.267 129.861C123.888 128.317 118.94 128.608 116.909 128.514C108.394 128.132 104.542 131.582 97.2236 134.521C88.6091 131.557 81.514 125.768 71.9163 129.8C68.5981 131.193 65.6881 133.317 62.2453 134.465Z" />
        <path d="M77.6158 117.606C70.9743 118.145 63.9739 117.724 57.2941 117.729L13.7873 117.783C10.8603 117.812 3.58421 117.365 1.32883 118.182C0.630409 118.434 0.571259 118.815 0.334641 119.442C0.437965 120.138 0.388672 120.379 0.88636 120.899C1.83087 121.278 2.71819 121.412 3.72737 121.463C8.30399 121.695 13.0068 121.395 17.5996 121.389L47.9189 121.376L83.1795 121.382C90.0951 121.442 118.996 122.455 123.551 121.046C124.53 120.743 125.106 120.357 125.592 119.463L125.311 118.853C124.282 118.165 123.314 117.901 122.091 117.78C118.155 117.392 113.903 117.714 109.935 117.718C99.2082 117.732 88.324 118.121 77.6158 117.606Z" />
	</symbol>

</svg>