<svg width="292" height="33" viewBox="0 0 292 33" fill="none" xmlns="http://www.w3.org/2000/svg">
<g clip-path="url(#clip0_1_898)">
<path d="M45.3584 25.3986H48.0813C48.7872 25.3986 49.4092 25.5331 49.9469 25.8188C50.4848 26.1046 50.905 26.4911 51.2076 26.9954C51.5101 27.4997 51.6614 28.071 51.6614 28.7266C51.6614 29.3821 51.5101 29.9536 51.2076 30.4578C50.905 30.9621 50.4848 31.3654 49.9469 31.6343C49.4092 31.9202 48.7872 32.0546 48.0813 32.0546H45.3584V25.3818V25.3986ZM48.0308 31.4663C48.6192 31.4663 49.1233 31.3487 49.5604 31.1133C49.9974 30.878 50.3335 30.5587 50.5857 30.1552C50.8209 29.7519 50.9555 29.2813 50.9555 28.7434C50.9555 28.2055 50.8378 27.7349 50.5857 27.3315C50.3504 26.9282 49.9974 26.6087 49.5604 26.3734C49.1233 26.1382 48.6023 26.0205 48.0308 26.0205H46.0643V31.4663H48.0308Z" fill="#989898"/>
<path d="M75.1098 31.4671V32.0721H70.3867V25.3994H74.9585V26.0045H71.0926V28.3744H74.5383V28.9795H71.0926V31.4503H75.1098V31.4671Z" fill="#989898"/>
<path d="M99.3791 25.3994L96.4209 32.0721H95.7317L92.7734 25.3994H93.5298L96.0847 31.1981L98.6564 25.3994H99.3791Z" fill="#989898"/>
<path d="M122.238 31.4671V32.0721H117.515V25.3994H122.086V26.0045H118.221V28.3744H121.666V28.9795H118.221V31.4503H122.238V31.4671Z" fill="#989898"/>
<path d="M141.046 25.3994H141.752V31.4671H145.483V32.0721H141.046V25.3994Z" fill="#989898"/>
<path d="M164.815 31.7015C164.276 31.399 163.856 30.9957 163.553 30.4914C163.251 29.9872 163.1 29.3989 163.1 28.7602C163.1 28.1215 163.251 27.5333 163.553 27.029C163.856 26.5247 164.276 26.1046 164.815 25.8188C165.351 25.5162 165.956 25.3818 166.612 25.3818C167.268 25.3818 167.873 25.5331 168.394 25.8188C168.915 26.1046 169.335 26.5079 169.655 27.029C169.958 27.55 170.109 28.1215 170.109 28.777C170.109 29.4325 169.958 30.0039 169.655 30.5251C169.353 31.0461 168.932 31.4495 168.394 31.7353C167.856 32.021 167.268 32.1722 166.612 32.1722C165.956 32.1722 165.351 32.021 164.815 31.7353V31.7015ZM168.041 31.1638C168.461 30.9285 168.797 30.5923 169.05 30.1721C169.284 29.7519 169.42 29.2813 169.42 28.7602C169.42 28.2391 169.302 27.7686 169.05 27.3484C168.797 26.9282 168.479 26.592 168.041 26.3567C167.62 26.1213 167.133 26.0037 166.612 26.0037C166.092 26.0037 165.604 26.1213 165.184 26.3567C164.746 26.592 164.41 26.9282 164.176 27.3484C163.94 27.7686 163.805 28.2391 163.805 28.7602C163.805 29.2813 163.923 29.7519 164.176 30.1721C164.428 30.5923 164.764 30.9285 165.184 31.1638C165.62 31.3991 166.092 31.5167 166.612 31.5167C167.133 31.5167 167.62 31.3991 168.041 31.1638Z" fill="#989898"/>
<path d="M193.369 26.0211C193.856 26.4245 194.092 26.9792 194.092 27.702C194.092 28.4247 193.856 28.9794 193.369 29.3827C192.882 29.7862 192.226 29.9878 191.369 29.9878H189.57V32.0889H188.864V25.416H191.369C192.226 25.416 192.882 25.6178 193.369 26.0211ZM192.864 28.9289C193.218 28.6432 193.385 28.2397 193.385 27.702C193.385 27.1641 193.218 26.7439 192.864 26.4582C192.511 26.1724 192.008 26.0211 191.352 26.0211H189.57V29.366H191.352C192.008 29.366 192.511 29.2147 192.864 28.9289Z" fill="#989898"/>
<path d="M219.709 25.3994V32.0721H219.037V26.7273L216.415 31.215H216.079L213.456 26.7609V32.0721H212.784V25.3994H213.373L216.263 30.3409L219.138 25.3994H219.727H219.709Z" fill="#989898"/>
<path d="M243.76 31.4671V32.0721H239.037V25.3994H243.609V26.0045H239.743V28.3744H243.188V28.9795H239.743V31.4503H243.76V31.4671Z" fill="#989898"/>
<path d="M268.166 25.3994V32.0721H267.578L263.291 26.6601V32.0721H262.586V25.3994H263.174L267.476 30.8116V25.3994H268.166Z" fill="#989898"/>
<path d="M288.789 26.0211H286.436V25.416H291.83V26.0211H289.478V32.0889H288.772V26.0211H288.789Z" fill="#989898"/>
<path d="M47.5095 16.2334C46.3329 15.5779 45.3917 14.6703 44.7194 13.5273C44.0471 12.3676 43.7109 11.0734 43.7109 9.64467C43.7109 8.21599 44.0471 6.92178 44.7194 5.76202C45.3917 4.60227 46.3329 3.69463 47.5264 3.05593C48.7197 2.40041 50.0475 2.08105 51.5266 2.08105C52.636 2.08105 53.6612 2.26595 54.5857 2.63573C55.5269 3.0055 56.3169 3.54335 56.9725 4.24928L55.964 5.25778C54.8042 4.08121 53.325 3.49292 51.5602 3.49292C50.3837 3.49292 49.308 3.76185 48.3499 4.2997C47.3918 4.83756 46.6354 5.57712 46.0808 6.51837C45.5262 7.45962 45.2573 8.50172 45.2573 9.66147C45.2573 10.8212 45.5262 11.8801 46.0808 12.8046C46.6187 13.7458 47.3751 14.4854 48.3499 15.0232C49.308 15.5611 50.3837 15.8301 51.5602 15.8301C53.3419 15.8301 54.821 15.2417 55.964 14.0484L56.9725 15.0569C56.3169 15.7627 55.5269 16.3175 54.5857 16.6872C53.6445 17.057 52.6192 17.2587 51.5098 17.2587C50.0306 17.2587 48.7029 16.9393 47.5264 16.2839L47.5095 16.2334Z" fill="#989898"/>
<path d="M64.6201 16.2333C63.4268 15.5777 62.4856 14.6701 61.8133 13.5271C61.1408 12.3842 60.8047 11.09 60.8047 9.66127C60.8047 8.23259 61.1408 6.93837 61.8133 5.79543C62.4856 4.65247 63.4268 3.74484 64.6201 3.08932C65.8136 2.43381 67.1581 2.09766 68.6373 2.09766C70.1164 2.09766 71.4443 2.41701 72.6208 3.07253C73.7974 3.72804 74.7387 4.63567 75.4277 5.77863C76.1168 6.93838 76.453 8.23259 76.453 9.66127C76.453 11.09 76.1168 12.3842 75.4277 13.5439C74.7387 14.7037 73.8141 15.6113 72.6208 16.25C71.4274 16.9056 70.0995 17.2248 68.6373 17.2248C67.175 17.2248 65.8303 16.8887 64.6201 16.2333ZM71.8309 15.023C72.7888 14.4852 73.5285 13.7456 74.0662 12.8044C74.6041 11.8631 74.8731 10.8042 74.8731 9.64447C74.8731 8.48472 74.6041 7.42581 74.0662 6.48456C73.5285 5.54331 72.7888 4.80376 71.8309 4.26592C70.8728 3.72805 69.8139 3.47592 68.6373 3.47592C67.4607 3.47592 66.3851 3.74485 65.4269 4.26592C64.4688 4.80376 63.7125 5.54331 63.1747 6.48456C62.62 7.42581 62.351 8.48472 62.351 9.64447C62.351 10.8042 62.62 11.8631 63.1747 12.8044C63.7125 13.7456 64.4688 14.4852 65.4269 15.023C66.3851 15.5608 67.4607 15.8131 68.6373 15.8131C69.8139 15.8131 70.8728 15.5441 71.8309 15.023Z" fill="#989898"/>
<path d="M97.563 2.18281V17.0748H96.0503V5.15784L90.2011 15.1754H89.4616L83.6123 5.20827V17.0579H82.0996V2.16602H83.3939L89.865 13.2089L96.2689 2.16602H97.563V2.18281Z" fill="#989898"/>
<path d="M114.575 3.54504C115.65 4.45268 116.188 5.69646 116.188 7.29323C116.188 8.88999 115.65 10.1338 114.575 11.0246C113.499 11.9323 112.003 12.3693 110.104 12.3693H106.103V17.0756H104.523V2.18359H110.104C112.003 2.18359 113.499 2.6374 114.575 3.54504ZM113.448 10.033C114.222 9.39425 114.625 8.4698 114.625 7.29323C114.625 6.11666 114.238 5.15861 113.448 4.51991C112.675 3.8812 111.532 3.54504 110.07 3.54504H106.103V10.991H110.07C111.549 10.991 112.675 10.6717 113.448 10.0162V10.033Z" fill="#989898"/>
<path d="M124.406 16.2333C123.213 15.5777 122.272 14.6701 121.599 13.5271C120.927 12.3842 120.591 11.09 120.591 9.66127C120.591 8.23259 120.927 6.93837 121.599 5.79543C122.272 4.65247 123.213 3.74484 124.406 3.08932C125.6 2.43381 126.944 2.09766 128.423 2.09766C129.903 2.09766 131.23 2.41701 132.407 3.07253C133.584 3.72804 134.525 4.63567 135.214 5.77863C135.903 6.93838 136.239 8.23259 136.239 9.66127C136.239 11.09 135.903 12.3842 135.214 13.5439C134.525 14.7037 133.6 15.6113 132.407 16.25C131.214 16.9056 129.886 17.2248 128.423 17.2248C126.961 17.2248 125.616 16.8887 124.406 16.2333ZM131.617 15.023C132.575 14.4852 133.315 13.7456 133.852 12.8044C134.39 11.8631 134.659 10.8042 134.659 9.64447C134.659 8.48472 134.39 7.42581 133.852 6.48456C133.315 5.54331 132.575 4.80376 131.617 4.26592C130.659 3.72805 129.6 3.47592 128.423 3.47592C127.247 3.47592 126.171 3.74485 125.213 4.26592C124.255 4.80376 123.499 5.54331 122.961 6.48456C122.406 7.42581 122.137 8.48472 122.137 9.64447C122.137 10.8042 122.406 11.8631 122.961 12.8044C123.499 13.7456 124.255 14.4852 125.213 15.023C126.171 15.5608 127.247 15.8131 128.423 15.8131C129.6 15.8131 130.659 15.5441 131.617 15.023Z" fill="#989898"/>
<path d="M142.811 16.6864C141.803 16.3335 141.013 15.8629 140.458 15.2746L141.08 14.0644C141.618 14.6023 142.341 15.0393 143.231 15.3754C144.122 15.7116 145.047 15.8797 146.005 15.8797C147.333 15.8797 148.341 15.6275 149.013 15.1401C149.686 14.6527 150.022 14.014 150.022 13.2408C150.022 12.6526 149.837 12.1651 149.484 11.8121C149.115 11.4592 148.677 11.1903 148.156 10.9886C147.635 10.8037 146.895 10.5852 145.971 10.3667C144.845 10.0809 143.954 9.81201 143.282 9.54308C142.609 9.27415 142.038 8.88756 141.567 8.33289C141.097 7.79503 140.861 7.05548 140.861 6.14785C140.861 5.39148 141.063 4.71916 141.45 4.09726C141.853 3.47537 142.458 2.98792 143.282 2.61815C144.105 2.24837 145.131 2.06348 146.341 2.06348C147.197 2.06348 148.022 2.18114 148.845 2.41646C149.669 2.65177 150.374 2.97112 150.963 3.39132L150.425 4.65193C149.804 4.24853 149.131 3.92919 148.425 3.72748C147.72 3.52578 147.013 3.42495 146.341 3.42495C145.03 3.42495 144.055 3.67707 143.4 4.1813C142.744 4.68555 142.408 5.34104 142.408 6.13102C142.408 6.7193 142.593 7.20674 142.946 7.55972C143.315 7.92949 143.769 8.19842 144.307 8.38332C144.845 8.56821 145.585 8.7867 146.509 9.0052C147.602 9.27413 148.492 9.54306 149.164 9.79519C149.837 10.0641 150.409 10.4507 150.879 10.9886C151.35 11.5264 151.584 12.2492 151.584 13.1568C151.584 13.9132 151.384 14.5855 150.979 15.2074C150.576 15.8293 149.955 16.3167 149.115 16.6697C148.274 17.0394 147.248 17.2076 146.021 17.2076C144.912 17.2076 143.853 17.0226 142.845 16.6697L142.811 16.6864Z" fill="#989898"/>
<path d="M157.079 2.18359H158.66V17.0756H157.079V2.18359Z" fill="#989898"/>
<path d="M168.512 3.54504H163.267V2.18359H175.319V3.54504H170.074V17.0756H168.494V3.54504H168.512Z" fill="#989898"/>
<path d="M190.477 15.7307V17.0922H179.938V2.2002H190.157V3.56164H181.517V8.85619H189.216V10.2008H181.517V15.7307H190.477Z" fill="#989898"/>
<path d="M214.464 9.64447H215.976V15.3256C215.287 15.9307 214.464 16.4013 213.505 16.7374C212.548 17.0568 211.556 17.2248 210.497 17.2248C209 17.2248 207.674 16.9056 206.48 16.25C205.287 15.5946 204.346 14.6869 203.672 13.5439C202.984 12.3842 202.648 11.09 202.648 9.66127C202.648 8.23259 202.984 6.93838 203.672 5.77863C204.362 4.61886 205.287 3.71124 206.48 3.07253C207.674 2.41701 209.018 2.09766 210.531 2.09766C211.674 2.09766 212.715 2.28256 213.656 2.63553C214.598 2.98849 215.405 3.52634 216.061 4.24909L215.086 5.25758C213.91 4.09783 212.413 3.50952 210.598 3.50952C209.387 3.50952 208.295 3.77845 207.336 4.2995C206.379 4.82056 205.606 5.57693 205.051 6.51818C204.497 7.45943 204.228 8.51832 204.228 9.67807C204.228 10.8378 204.497 11.8968 205.051 12.8212C205.606 13.7456 206.362 14.502 207.336 15.0398C208.295 15.5777 209.387 15.8467 210.598 15.8467C212.128 15.8467 213.422 15.4601 214.497 14.7037V9.67807L214.464 9.64447Z" fill="#989898"/>
<path d="M232.699 17.0922L229.288 12.3018C228.902 12.3523 228.515 12.3691 228.094 12.3691H224.094V17.0922H222.515V2.2002H228.094C229.994 2.2002 231.489 2.65401 232.566 3.56164C233.64 4.46928 234.179 5.71309 234.179 7.30986C234.179 8.46961 233.876 9.46128 233.288 10.2513C232.699 11.0581 231.86 11.6295 230.766 11.9825L234.414 17.0922H232.683H232.699ZM231.44 10.0496C232.212 9.39404 232.616 8.48641 232.616 7.30986C232.616 6.13329 232.23 5.17521 231.44 4.53651C230.666 3.8978 229.523 3.56164 228.061 3.56164H224.094V11.0412H228.061C229.54 11.0412 230.666 10.7219 231.44 10.0664V10.0496Z" fill="#989898"/>
<path d="M242.515 16.2333C241.321 15.5777 240.38 14.6701 239.708 13.5271C239.036 12.3842 238.7 11.09 238.7 9.66127C238.7 8.23259 239.036 6.93837 239.708 5.79543C240.38 4.65247 241.321 3.74484 242.515 3.08932C243.708 2.43381 245.054 2.09766 246.533 2.09766C248.011 2.09766 249.339 2.41701 250.515 3.07253C251.692 3.72804 252.633 4.63567 253.323 5.77863C254.012 6.93838 254.348 8.23259 254.348 9.66127C254.348 11.09 254.012 12.3842 253.323 13.5439C252.633 14.7037 251.71 15.6113 250.515 16.25C249.323 16.9056 247.995 17.2248 246.533 17.2248C245.07 17.2248 243.726 16.8887 242.515 16.2333ZM249.726 15.023C250.684 14.4852 251.423 13.7456 251.961 12.8044C252.499 11.8631 252.769 10.8042 252.769 9.64447C252.769 8.48472 252.499 7.42581 251.961 6.48456C251.423 5.54331 250.684 4.80376 249.726 4.26592C248.767 3.72805 247.708 3.47592 246.533 3.47592C245.356 3.47592 244.28 3.74485 243.321 4.26592C242.364 4.78696 241.608 5.54331 241.07 6.48456C240.531 7.42581 240.246 8.48472 240.246 9.64447C240.246 10.8042 240.515 11.8631 241.07 12.8044C241.608 13.7456 242.364 14.4852 243.321 15.023C244.28 15.5608 245.356 15.8131 246.533 15.8131C247.708 15.8131 248.767 15.5441 249.726 15.023Z" fill="#989898"/>
<path d="M261.478 15.5626C260.401 14.4532 259.863 12.8397 259.863 10.7387V2.2002H261.444V10.6715C261.444 12.4027 261.83 13.6969 262.621 14.5373C263.393 15.3945 264.537 15.8148 265.999 15.8148C267.462 15.8148 268.621 15.3945 269.411 14.5373C270.185 13.6801 270.588 12.4027 270.588 10.6715V2.2002H272.116V10.7387C272.116 12.8565 271.58 14.4701 270.503 15.5626C269.428 16.6719 267.932 17.2266 265.999 17.2266C264.065 17.2266 262.57 16.6719 261.494 15.5626H261.478Z" fill="#989898"/>
<path d="M289.006 3.54504C290.081 4.45268 290.62 5.69646 290.62 7.29323C290.62 8.88999 290.081 10.1338 289.006 11.0246C287.93 11.9323 286.435 12.3693 284.535 12.3693H280.535V17.0756H278.954V2.18359H284.535C286.435 2.18359 287.93 2.6374 289.006 3.54504ZM287.879 10.033C288.653 9.39425 289.056 8.4698 289.056 7.29323C289.056 6.11666 288.67 5.15861 287.879 4.51991C287.107 3.8812 285.964 3.54504 284.502 3.54504H280.535V10.991H284.502C285.981 10.991 287.107 10.6717 287.879 10.0162V10.033Z" fill="#989898"/>
<path d="M12.5024 5.60427C13.214 5.07647 13.9731 4.67321 14.7678 4.39449C14.2518 4.28776 13.7122 4.23438 13.1607 4.23438C11.4646 4.23438 9.89311 4.75032 8.48764 5.75845C7.84124 6.64799 7.27194 7.64427 6.79159 8.74729C5.72415 11.1905 5.19043 13.9244 5.19043 16.9488C5.19043 19.9733 5.72415 22.7071 6.79159 25.1503C7.27194 26.2592 7.84124 27.2556 8.48764 28.1391C9.89311 29.1472 11.4646 29.6632 13.1607 29.6632C13.7122 29.6632 14.2459 29.6099 14.7618 29.5032C13.9612 29.2185 13.2022 28.8093 12.4905 28.2696C10.9783 27.1309 9.79229 25.5714 8.92647 23.5965C8.06065 21.6218 7.62775 19.404 7.62775 16.9429C7.62775 14.4818 8.06065 12.2639 8.92647 10.2654C9.79229 8.27286 10.9843 6.71323 12.5083 5.59241L12.5024 5.60427Z" fill="#989898"/>
<path d="M18.0343 1.8338C19.3686 2.5395 20.5309 3.55357 21.5094 4.8345C22.6776 5.45124 23.7214 6.37043 24.6465 7.59799L26.1766 5.48684C25.1565 3.98649 23.8993 2.85974 22.4107 2.09474C20.9223 1.32974 19.2915 0.950195 17.5124 0.950195C17.0202 0.950195 16.5339 0.979849 16.0654 1.04508C16.7475 1.24078 17.4056 1.50764 18.0343 1.83973V1.8338Z" fill="#989898"/>
<path d="M17.1385 17.0491H23.6794V27.5516C22.9856 28.2275 22.2206 28.7614 21.3963 29.1528C20.4416 30.3743 19.3089 31.341 18.0161 32.0348C17.3755 32.3788 16.7114 32.6515 16.0176 32.8531C16.4921 32.9184 16.9783 32.9481 17.4765 32.9481C19.1191 32.9481 20.6846 32.6041 22.1732 31.9163C23.6617 31.2283 24.9485 30.238 26.0397 28.951V14.8193H17.1325V17.055L17.1385 17.0491Z" fill="#989898"/>
<path d="M6.86893 30.8801C5.01275 29.5042 3.55985 27.5947 2.50427 25.1515C1.44869 22.7082 0.920898 19.9743 0.920898 16.9499C0.920898 13.9255 1.44869 11.1917 2.50427 8.74846C3.55985 6.30521 5.01869 4.39566 6.88672 3.01985C8.75475 1.64404 10.8422 0.950195 13.149 0.950195C14.8807 0.950195 16.4818 1.34159 17.9466 2.11845C19.4114 2.89532 20.6568 4.03392 21.6767 5.53427L20.1112 7.64544C18.2905 5.16067 15.9896 3.91532 13.2143 3.91532C11.37 3.91532 9.69172 4.48462 8.18544 5.62323C6.67323 6.76183 5.4931 8.32147 4.63915 10.2962C3.7852 12.271 3.35822 14.4949 3.35822 16.9499C3.35822 19.405 3.7852 21.6229 4.63915 23.6037C5.4931 25.5844 6.67915 27.1381 8.18544 28.2767C9.69764 29.4154 11.37 29.9847 13.2143 29.9847C16.0134 29.9847 18.3142 28.7274 20.1112 26.2071L21.6767 28.3182C20.6568 29.8186 19.4054 30.9631 17.9288 31.7578C16.4522 32.5524 14.8451 32.9498 13.1135 32.9498C10.8007 32.9498 8.71915 32.2619 6.86299 30.8801H6.86893Z" fill="#989898"/>
</g>
<defs>
<clipPath id="clip0_1_898">
<rect width="290.909" height="32" fill="white" transform="translate(0.920898 0.950195)"/>
</clipPath>
</defs>
</svg>
