<svg width="270" height="249" viewBox="0 0 270 249" fill="none" xmlns="http://www.w3.org/2000/svg">
<path d="M266.265 0.111076C266.05 -0.0624662 265.735 -0.0290233 265.561 0.185773L262.733 3.68609C262.56 3.90088 262.593 4.21569 262.808 4.38924C263.023 4.56278 263.338 4.52934 263.511 4.31454L266.025 1.20315L269.136 3.71696C269.351 3.89051 269.666 3.85706 269.84 3.64227C270.013 3.42747 269.98 3.11266 269.765 2.93912L266.265 0.111076ZM157.284 245.752C157.284 247.225 158.478 248.419 159.951 248.419C161.424 248.419 162.617 247.225 162.617 245.752C162.617 244.279 161.424 243.086 159.951 243.086C158.478 243.086 157.284 244.279 157.284 245.752ZM159.951 245.752L160.121 246.222C161.004 245.902 161.864 245.585 162.701 245.271L162.525 244.803L162.35 244.335C161.517 244.648 160.66 244.963 159.78 245.282L159.951 245.752ZM167.26 242.956L167.448 243.419C169.136 242.734 170.709 242.063 172.17 241.404L171.965 240.948L171.76 240.492C170.311 241.145 168.749 241.812 167.072 242.493L167.26 242.956ZM176.39 238.822L176.62 239.266C178.35 238.373 179.868 237.502 181.181 236.652L180.91 236.233L180.638 235.813C179.357 236.641 177.868 237.496 176.161 238.378L176.39 238.822ZM184.894 233.128L185.246 233.483C186.797 231.944 187.684 230.424 187.879 228.909L187.383 228.845L186.887 228.781C186.731 229.994 186.006 231.32 184.542 232.773L184.894 233.128ZM185.566 224.315L185.928 223.97C184.905 222.895 183.512 221.866 181.807 220.869L181.554 221.301L181.302 221.732C182.96 222.702 184.268 223.676 185.204 224.659L185.566 224.315ZM177.002 219.017L177.203 218.559C175.738 217.914 174.141 217.275 172.424 216.64L172.251 217.109L172.077 217.578C173.779 218.207 175.357 218.839 176.8 219.474L177.002 219.017ZM167.369 215.413L167.525 214.938C165.993 214.435 164.391 213.933 162.725 213.43L162.581 213.908L162.436 214.387C164.095 214.888 165.69 215.388 167.213 215.888L167.369 215.413ZM157.695 212.48L157.831 211.999C156.218 211.54 154.556 211.08 152.851 210.618L152.72 211.1L152.589 211.583C154.291 212.045 155.949 212.504 157.558 212.961L157.695 212.48ZM147.866 209.804L147.994 209.321C146.365 208.892 144.703 208.461 143.011 208.025L142.887 208.51L142.762 208.994C144.452 209.429 146.112 209.86 147.739 210.288L147.866 209.804ZM137.992 207.259L138.115 206.774C136.482 206.359 134.825 205.94 133.148 205.516L133.026 206.001L132.903 206.486C134.58 206.909 136.236 207.328 137.869 207.743L137.992 207.259ZM128.109 204.759L128.231 204.274C126.594 203.861 124.941 203.442 123.274 203.018L123.151 203.503L123.028 203.987C124.695 204.411 126.349 204.83 127.986 205.244L128.109 204.759ZM118.232 202.246L118.357 201.762C116.717 201.341 115.068 200.914 113.409 200.482L113.283 200.965L113.157 201.449C114.817 201.882 116.468 202.309 118.108 202.73L118.232 202.246ZM108.372 199.673L108.5 199.19C106.862 198.754 105.217 198.312 103.569 197.864L103.437 198.347L103.306 198.829C104.957 199.278 106.603 199.72 108.243 200.156L108.372 199.673ZM98.5378 196.997L98.6722 196.516C97.0381 196.06 95.4022 195.597 93.7665 195.126L93.6284 195.607L93.4902 196.087C95.1286 196.558 96.7669 197.022 98.4033 197.479L98.5378 196.997ZM88.7429 194.18L88.8853 193.7C87.2597 193.217 85.6363 192.727 84.0172 192.228L83.87 192.706L83.7229 193.184C85.3454 193.684 86.9719 194.175 88.6005 194.659L88.7429 194.18ZM79.0032 191.178L79.1557 190.702C77.5403 190.185 75.9311 189.659 74.3302 189.124L74.1717 189.598L74.0133 190.072C75.6184 190.608 77.2315 191.136 78.8507 191.654L79.0032 191.178ZM69.3391 187.946L69.5042 187.474C67.9013 186.913 66.3089 186.343 64.7291 185.762L64.5567 186.231L64.3842 186.701C65.9691 187.283 67.5664 187.855 69.174 188.418L69.3391 187.946ZM59.7773 184.428L59.958 183.961C58.372 183.347 56.8015 182.721 55.2486 182.083L55.0587 182.546L54.8689 183.008C56.4281 183.648 58.0048 184.277 59.5966 184.894L59.7773 184.428ZM50.3545 180.555L50.5546 180.097C48.9936 179.415 47.4538 178.72 45.9376 178.013L45.7261 178.466L45.5146 178.919C47.0388 179.63 48.5862 180.328 50.1544 181.013L50.3545 180.555ZM41.1253 176.24L41.3496 175.793C39.8271 175.029 38.3328 174.25 36.8695 173.455L36.631 173.895L36.3924 174.334C37.8657 175.134 39.3694 175.918 40.901 176.687L41.1253 176.24ZM32.1759 171.37L32.4306 170.94C30.9689 170.074 29.5443 169.191 28.1599 168.29L27.8871 168.709L27.6143 169.128C29.0113 170.037 30.4479 170.928 31.9211 171.8L32.1759 171.37ZM23.6499 165.801L23.9433 165.396C22.5651 164.397 21.2361 163.377 19.9599 162.335L19.6437 162.722L19.3275 163.109C20.6194 164.164 21.9637 165.196 23.3564 166.205L23.6499 165.801ZM15.7889 159.355L16.1309 158.99C14.8814 157.819 13.6976 156.622 12.584 155.397L12.2141 155.734L11.8442 156.07C12.9768 157.315 14.1793 158.532 15.447 159.72L15.7889 159.355ZM8.98537 151.845L9.38474 151.544C8.35482 150.177 7.41016 148.778 6.55611 147.346L6.12667 147.602L5.69723 147.858C6.57069 149.323 7.53563 150.752 8.58601 152.146L8.98537 151.845ZM3.79127 143.101L4.24834 142.898C3.5679 141.363 2.98773 139.793 2.51364 138.184L2.03404 138.326L1.55445 138.467C2.04121 140.118 2.63658 141.73 3.33419 143.303L3.79127 143.101ZM0.930401 133.381L1.4246 133.305C1.29674 132.473 1.19614 131.632 1.12355 130.78L0.625354 130.822L0.12716 130.865C0.201659 131.739 0.304916 132.603 0.436202 133.457L0.930401 133.381ZM0.625354 130.822L1.12355 130.78C1.04849 129.899 1.00742 129.036 0.999476 128.19L0.499498 128.194L-0.000480056 128.199C0.00770533 129.071 0.0500305 129.96 0.12716 130.865L0.625354 130.822ZM0.852488 123.207L1.34651 123.284C1.60988 121.597 2.02029 119.982 2.57003 118.436L2.09892 118.268L1.6278 118.101C1.05694 119.706 0.631332 121.382 0.35847 123.13L0.852488 123.207ZM4.22693 113.695L4.65887 113.946C5.48263 112.534 6.43905 111.183 7.52152 109.89L7.13811 109.569L6.7547 109.248C5.63819 110.581 4.64879 111.978 3.795 113.443L4.22693 113.695ZM10.6995 105.903L11.0331 106.275C12.2326 105.201 13.5305 104.17 14.9218 103.182L14.6322 102.774L14.3427 102.367C12.9233 103.375 11.5956 104.429 10.3658 105.531L10.6995 105.903ZM18.888 100.042L19.1396 100.474C20.5735 99.639 22.0812 98.8372 23.6586 98.0665L23.4392 97.6173L23.2197 97.168C21.6223 97.9484 20.093 98.7616 18.6363 99.61L18.888 100.042ZM27.9826 95.5602L28.1763 96.0212C29.708 95.3775 31.2928 94.7576 32.9276 94.1598L32.7559 93.6902L32.5842 93.2206C30.9358 93.8233 29.3362 94.449 27.7889 95.0993L27.9826 95.5602ZM37.5172 92.0544L37.6709 92.5302C39.2558 92.0182 40.8802 91.5237 42.5417 91.0453L42.4033 90.5649L42.265 90.0844C40.594 90.5655 38.9593 91.0631 37.3635 91.5787L37.5172 92.0544ZM47.2738 89.2344L47.3993 89.7184C49.0198 89.2981 50.6708 88.891 52.3501 88.4959L52.2356 88.0092L52.1211 87.5225C50.435 87.9192 48.7766 88.3281 47.1482 88.7504L47.2738 89.2344ZM57.1549 86.9026L57.2601 87.3914C58.9082 87.0366 60.5803 86.6918 62.2745 86.3562L62.1774 85.8657L62.0802 85.3753C60.381 85.7119 58.7035 86.0577 57.0496 86.4138L57.1549 86.9026ZM67.1156 84.9237L67.206 85.4154C68.8691 85.1097 70.5511 84.8115 72.2503 84.5202L72.1658 84.0274L72.0813 83.5346C70.3784 83.8266 68.6925 84.1254 67.0252 84.4319L67.1156 84.9237ZM77.1318 83.202L77.2114 83.6957C78.873 83.4278 80.5491 83.1655 82.2384 82.9079L82.1631 82.4137L82.0877 81.9194C80.3958 82.1773 78.7169 82.44 77.0522 82.7084L77.1318 83.202ZM87.1863 81.6668L87.2581 82.1616C88.9181 81.9207 90.5892 81.6837 92.2702 81.4498L92.2013 80.9546L92.1324 80.4593C90.4497 80.6934 88.7766 80.9308 87.1145 81.172L87.1863 81.6668ZM97.2635 80.2631L97.3301 80.7587C98.9901 80.5359 100.658 80.3155 102.334 80.0969L102.269 79.6011L102.204 79.1053C100.528 79.324 98.8584 79.5446 97.197 79.7676L97.2635 80.2631ZM107.316 78.9501L107.38 79.4461C109.053 79.2326 110.732 79.0202 112.415 78.8085L112.353 78.3124L112.29 77.8163C110.606 78.0281 108.927 78.2405 107.253 78.4542L107.316 78.9501ZM117.385 77.6823L117.447 78.1784C119.128 77.9687 120.812 77.759 122.499 77.5488L122.437 77.0526L122.375 76.5564C120.689 76.7667 119.004 76.9764 117.324 77.1861L117.385 77.6823ZM127.467 76.4241L127.529 76.9202C129.208 76.7097 130.888 76.4981 132.568 76.2849L132.505 75.7888L132.442 75.2928C130.762 75.506 129.083 75.7175 127.405 75.9279L127.467 76.4241ZM137.545 75.1435L137.609 75.6393C139.289 75.4221 140.968 75.2025 142.645 74.9802L142.58 74.4845L142.514 73.9888C140.838 74.211 139.16 74.4304 137.48 74.6476L137.545 75.1435ZM147.603 73.8086L147.671 74.304C149.356 74.0737 151.038 73.84 152.716 73.6022L152.646 73.1071L152.575 72.6121C150.899 72.8496 149.219 73.0831 147.535 73.3132L147.603 73.8086ZM157.665 72.3812L157.738 72.8758C159.418 72.6277 161.093 72.3749 162.761 72.1168L162.685 71.6226L162.608 71.1285C160.942 71.3862 159.27 71.6387 157.592 71.8866L157.665 72.3812ZM167.71 70.8253L167.791 71.3188C169.46 71.047 171.122 70.7693 172.774 70.4849L172.689 69.9922L172.605 69.4994C170.955 69.7832 169.297 70.0605 167.63 70.3318L167.71 70.8253ZM177.721 69.1003L177.811 69.5922C179.482 69.2867 181.143 68.9738 182.793 68.6525L182.697 68.1618L182.602 67.671C180.956 67.9914 179.299 68.3037 177.631 68.6084L177.721 69.1003ZM187.677 67.1586L187.779 67.6481C189.454 67.299 191.116 66.9404 192.762 66.5716L192.653 66.0837L192.543 65.5958C190.902 65.9634 189.246 66.321 187.575 66.6691L187.677 67.1586ZM197.56 64.9423L197.678 65.4284C199.355 65.0232 201.015 64.6063 202.656 64.1768L202.529 63.6931L202.402 63.2094C200.768 63.6372 199.115 64.0526 197.443 64.4563L197.56 64.9423ZM207.381 62.3687L207.518 62.8496C209.182 62.376 210.824 61.8879 212.441 61.3843L212.292 60.9069L212.144 60.4295C210.535 60.9305 208.901 61.4163 207.244 61.8878L207.381 62.3687ZM217.089 59.3426L217.251 59.8158C218.886 59.2571 220.493 58.6806 222.07 58.0853L221.893 57.6175L221.717 57.1497C220.15 57.7411 218.553 58.314 216.928 58.8695L217.089 59.3426ZM226.591 55.7485L226.785 56.2096C228.38 55.5408 229.939 54.8498 231.461 54.1354L231.248 53.6828L231.036 53.2302C229.527 53.9383 227.981 54.6237 226.398 55.2874L226.591 55.7485ZM235.772 51.4283L236.006 51.8702C237.54 51.0581 239.029 50.218 240.469 49.3484L240.211 48.9203L239.953 48.4923C238.529 49.3516 237.057 50.1825 235.538 50.9864L235.772 51.4283ZM244.439 46.1838L244.724 46.5943C246.155 45.5993 247.529 44.5688 248.84 43.501L248.525 43.1133L248.209 42.7255C246.918 43.7765 245.565 44.7918 244.153 45.7732L244.439 46.1838ZM252.288 39.7776L252.636 40.1369C253.884 38.9289 255.06 37.6773 256.159 36.3798L255.778 36.0566L255.396 35.7334C254.319 37.0045 253.166 38.2321 251.941 39.4184L252.288 39.7776ZM258.834 32.0319L259.248 32.3119C260.208 30.8918 261.084 29.4221 261.871 27.9006L261.427 27.6708L260.983 27.4411C260.214 28.9271 259.358 30.3633 258.42 31.7519L258.834 32.0319ZM263.473 23.0599L263.941 23.235C264.536 21.6452 265.041 20.0044 265.454 18.3107L264.968 18.1923L264.483 18.0739C264.079 19.7294 263.585 21.3323 263.005 22.8848L263.473 23.0599ZM265.883 13.2476L266.379 13.3116C266.593 11.6553 266.725 9.9528 266.771 8.20268L266.272 8.18933L265.772 8.17598C265.726 9.89323 265.597 11.5619 265.387 13.1836L265.883 13.2476ZM266.174 3.12951L266.673 3.09784C266.618 2.22533 266.543 1.34183 266.448 0.447181L265.95 0.5L265.453 0.552819C265.547 1.43369 265.621 2.30309 265.675 3.16118L266.174 3.12951Z" fill="white" fill-opacity="0.2"/>
</svg>
