<svg xmlns="http://www.w3.org/2000/svg">

	<symbol id="vk" viewBox="0 0 22 14">
		<path d="M11.9825 14C4.46596 14 0.178638 8.74474 0 0H3.76515C3.88882 6.41842 6.66459 9.13714 8.86321 9.6977V0H12.4085V5.53553C14.5796 5.2973 16.8607 2.77477 17.6302 0H21.1755C20.8855 1.43908 20.3075 2.80165 19.4776 4.0025C18.6477 5.20335 17.5837 6.21663 16.3523 6.97898C17.7269 7.67555 18.941 8.6615 19.9145 9.87175C20.888 11.082 21.5988 12.489 22 14H18.0974C17.7373 12.6876 17.0054 11.5128 15.9934 10.6228C14.9814 9.73284 13.7343 9.16727 12.4085 8.997V14H11.9825Z" />
	</symbol>

	<symbol id="max" viewBox="0 0 22 22">
		<path fill-rule="evenodd" clip-rule="evenodd" d="M11.2364 21.9372C9.07734 21.9372 8.074 21.6207 6.32997 20.3545C5.22682 21.7789 1.73352 22.8922 1.58118 20.9876C1.58118 19.5578 1.26599 18.3496 0.908783 17.0306C0.483284 15.4056 0 13.596 0 10.9739C0 4.71138 5.11651 0 11.1786 0C17.2459 0 21.9999 4.94352 21.9999 11.0319C22.0203 17.0262 17.2046 21.9052 11.2364 21.9372ZM11.3257 5.41308C8.37342 5.26008 6.07257 7.31241 5.56302 10.5307C5.14277 13.195 5.88871 16.4397 6.52433 16.6086C6.82901 16.6824 7.59596 16.0599 8.074 15.5798C8.86444 16.1282 9.78491 16.4576 10.7426 16.5347C13.8016 16.6825 16.4154 14.3435 16.6208 11.2746C16.7403 8.1992 14.3851 5.59435 11.3257 5.41836L11.3257 5.41308Z" />
	</symbol>

	<symbol id="telegram" viewBox="0 0 19 17">
		<path d="M19 0.602225L15.9946 16.2923C15.9946 16.2923 15.5741 17.3801 14.4189 16.8584L7.48458 11.3526L7.45242 11.3364C8.38909 10.4654 15.6524 3.70266 15.9698 3.39612C16.4613 2.92136 16.1562 2.63873 15.5856 2.99736L4.85679 10.053L0.717638 8.61077C0.717638 8.61077 0.0662573 8.37083 0.00359284 7.84911C-0.0598962 7.32653 0.739076 7.0439 0.739076 7.0439L17.6131 0.188948C17.6131 0.188948 19 -0.44207 19 0.602225Z" />
	</symbol>

	<symbol id="dzen" viewBox="0 0 22 22">
		<path d="M13.1214 13.1214C11.3929 14.905 11.2671 17.1286 11.1179 22C15.6593 22 18.7943 21.9843 20.4129 20.4129C21.9843 18.7943 22 15.51 22 11.1179C17.1286 11.275 14.905 11.3929 13.1214 13.1214ZM0 11.1179C0 15.51 0.0157143 18.7943 1.58714 20.4129C3.20571 21.9843 6.34071 22 10.8821 22C10.725 17.1286 10.6071 14.905 8.87857 13.1214C7.095 11.3929 4.87143 11.2671 0 11.1179ZM10.8821 0C6.34857 0 3.20571 0.0157143 1.58714 1.58714C0.0157143 3.20571 0 6.49 0 10.8821C4.87143 10.725 7.095 10.6071 8.87857 8.87857C10.6071 7.095 10.7329 4.87143 10.8821 0ZM13.1214 8.87857C11.3929 7.095 11.2671 4.87143 11.1179 0C15.6593 0 18.7943 0.0157143 20.4129 1.58714C21.9843 3.20571 22 6.49 22 10.8821C17.1286 10.725 14.905 10.6071 13.1214 8.87857Z" />
	</symbol>

	<symbol id="ok" viewBox="0 0 14 23">
		<path d="M13.2376 13.7928C13.7624 13.2681 13.8373 12.5185 13.3876 11.7689C13.0128 11.1692 12.3381 10.8694 11.5885 11.0193C11.2887 11.0942 10.9888 11.2442 10.689 11.469C8.36518 13.0432 5.21682 12.9683 2.89303 11.3941C2.7431 11.3191 2.59318 11.2442 2.44325 11.1692C1.61868 10.7944 0.794122 10.9443 0.344356 11.6939C-0.180371 12.4435 -0.105419 13.2681 0.56923 13.9428C0.719152 14.0927 0.869074 14.1676 0.944035 14.3176L1.019 14.3925C2.06845 15.2171 3.34279 15.7418 4.99194 15.9667L4.01744 16.9412C3.19287 17.7658 2.29334 18.6653 1.46877 19.4899C1.24389 19.7148 0.944035 20.0896 0.944035 20.6143C0.944035 21.2889 1.31885 21.9636 1.9935 22.2634C2.21838 22.4133 2.44326 22.4133 2.66814 22.4133C3.04295 22.4133 3.49271 22.2634 3.79256 21.8886C4.91697 20.7642 5.81651 19.8647 6.71604 18.9651C6.791 18.8902 6.791 18.8902 6.791 18.8902C6.791 18.8902 6.86596 18.8902 6.86596 18.9651C7.46565 19.6398 8.1403 20.2395 8.73999 20.9141C9.03983 21.214 9.33967 21.5138 9.63952 21.8137C10.0143 22.1885 10.3142 22.3384 10.7639 22.3384C11.4386 22.4134 12.1882 21.9636 12.488 21.2889C12.7879 20.6892 12.638 19.9396 12.1132 19.4899C11.3636 18.7403 10.614 17.9157 9.78944 17.1661L8.5151 15.8917C9.18975 15.8168 9.93936 15.6669 10.614 15.367C11.7384 14.9922 12.563 14.4675 13.2376 13.7928Z" />
		<path d="M6.79099 11.6939C10.0143 11.6939 12.638 9.14524 12.638 5.92191C12.638 4.34773 12.0383 2.84852 10.9138 1.72411C9.78943 0.59969 8.36518 0 6.86596 0C3.64264 0 1.09396 2.62363 1.019 5.77199C1.019 7.34618 1.61869 8.77043 2.7431 9.89485C3.79256 11.0942 5.21681 11.6939 6.79099 11.6939ZM5.14185 4.19782C5.59162 3.74805 6.19131 3.52316 6.79099 3.52316C8.14029 3.52316 9.11479 4.57262 9.11479 5.84696C9.11479 7.19626 8.06533 8.17074 6.79099 8.17074C5.4417 8.17074 4.46721 7.1213 4.46721 5.84696C4.46721 5.24727 4.69209 4.64759 5.14185 4.19782Z" />
		<path d="M13.2376 13.7928C13.7624 13.2681 13.8373 12.5185 13.3876 11.7689C13.0128 11.1692 12.3381 10.8694 11.5885 11.0193C11.2887 11.0942 10.9888 11.2442 10.689 11.469C8.36518 13.0432 5.21682 12.9683 2.89303 11.3941C2.7431 11.3191 2.59318 11.2442 2.44325 11.1692C1.61868 10.7944 0.794122 10.9443 0.344356 11.6939C-0.180371 12.4435 -0.105419 13.2681 0.56923 13.9428C0.719152 14.0927 0.869074 14.1676 0.944035 14.3176L1.019 14.3925C2.06845 15.2171 3.34279 15.7418 4.99194 15.9667L4.01744 16.9412C3.19287 17.7658 2.29334 18.6653 1.46877 19.4899C1.24389 19.7148 0.944035 20.0896 0.944035 20.6143C0.944035 21.2889 1.31885 21.9636 1.9935 22.2634C2.21838 22.4133 2.44326 22.4133 2.66814 22.4133C3.04295 22.4133 3.49271 22.2634 3.79256 21.8886C4.91697 20.7642 5.81651 19.8647 6.71604 18.9651C6.791 18.8902 6.791 18.8902 6.791 18.8902C6.791 18.8902 6.86596 18.8902 6.86596 18.9651C7.46565 19.6398 8.1403 20.2395 8.73999 20.9141C9.03983 21.214 9.33967 21.5138 9.63952 21.8137C10.0143 22.1885 10.3142 22.3384 10.7639 22.3384C11.4386 22.4134 12.1882 21.9636 12.488 21.2889C12.7879 20.6892 12.638 19.9396 12.1132 19.4899C11.3636 18.7403 10.614 17.9157 9.78944 17.1661L8.5151 15.8917C9.18975 15.8168 9.93936 15.6669 10.614 15.367C11.7384 14.9922 12.563 14.4675 13.2376 13.7928Z" />
	</symbol>

	<symbol id="instagram" viewBox="0 0 24 24">
		<path fill-rule="evenodd" clip-rule="evenodd" d="M12 18C15.3137 18 18 15.3137 18 12C18 8.68629 15.3137 6 12 6C8.68629 6 6 8.68629 6 12C6 15.3137 8.68629 18 12 18ZM12 16C14.2091 16 16 14.2091 16 12C16 9.79086 14.2091 8 12 8C9.79086 8 8 9.79086 8 12C8 14.2091 9.79086 16 12 16Z" />
		<path d="M18 5C17.4477 5 17 5.44772 17 6C17 6.55228 17.4477 7 18 7C18.5523 7 19 6.55228 19 6C19 5.44772 18.5523 5 18 5Z" />
		<path fill-rule="evenodd" clip-rule="evenodd" d="M1.65396 4.27606C1 5.55953 1 7.23969 1 10.6V13.4C1 16.7603 1 18.4405 1.65396 19.7239C2.2292 20.8529 3.14708 21.7708 4.27606 22.346C5.55953 23 7.23969 23 10.6 23H13.4C16.7603 23 18.4405 23 19.7239 22.346C20.8529 21.7708 21.7708 20.8529 22.346 19.7239C23 18.4405 23 16.7603 23 13.4V10.6C23 7.23969 23 5.55953 22.346 4.27606C21.7708 3.14708 20.8529 2.2292 19.7239 1.65396C18.4405 1 16.7603 1 13.4 1H10.6C7.23969 1 5.55953 1 4.27606 1.65396C3.14708 2.2292 2.2292 3.14708 1.65396 4.27606ZM13.4 3H10.6C8.88684 3 7.72225 3.00156 6.82208 3.0751C5.94524 3.14674 5.49684 3.27659 5.18404 3.43597C4.43139 3.81947 3.81947 4.43139 3.43597 5.18404C3.27659 5.49684 3.14674 5.94524 3.0751 6.82208C3.00156 7.72225 3 8.88684 3 10.6V13.4C3 15.1132 3.00156 16.2777 3.0751 17.1779C3.14674 18.0548 3.27659 18.5032 3.43597 18.816C3.81947 19.5686 4.43139 20.1805 5.18404 20.564C5.49684 20.7234 5.94524 20.8533 6.82208 20.9249C7.72225 20.9984 8.88684 21 10.6 21H13.4C15.1132 21 16.2777 20.9984 17.1779 20.9249C18.0548 20.8533 18.5032 20.7234 18.816 20.564C19.5686 20.1805 20.1805 19.5686 20.564 18.816C20.7234 18.5032 20.8533 18.0548 20.9249 17.1779C20.9984 16.2777 21 15.1132 21 13.4V10.6C21 8.88684 20.9984 7.72225 20.9249 6.82208C20.8533 5.94524 20.7234 5.49684 20.564 5.18404C20.1805 4.43139 19.5686 3.81947 18.816 3.43597C18.5032 3.27659 18.0548 3.14674 17.1779 3.0751C16.2777 3.00156 15.1132 3 13.4 3Z" />
	</symbol>

	<symbol id="youtube" viewBox="0 0 22 15">
		<path fill-rule="evenodd" clip-rule="evenodd" d="M2.26249 14.5568C1.87023 14.4408 1.51232 14.2343 1.21896 13.9549C0.925599 13.6754 0.705403 13.3312 0.576947 12.9512C-0.157079 10.9874 -0.374569 2.78693 1.03911 1.16807C1.50961 0.641449 2.17389 0.317218 2.88777 0.265759C6.68024 -0.13232 18.3975 -0.0792426 19.7432 0.398453C20.1217 0.518323 20.4675 0.720256 20.7547 0.989122C21.0419 1.25799 21.263 1.58681 21.4015 1.95096C22.2035 3.98117 22.2307 11.3589 21.2928 13.3095C21.044 13.8173 20.6275 14.2285 20.1102 14.4772C18.6965 15.1672 4.13833 15.1539 2.26249 14.5568ZM8.28422 10.7087L15.0808 7.25869L8.28422 3.78213V10.7087Z" />
	</symbol>

	<symbol id="avito" viewBox="0 0 22 21">
		<path d="M6.59199 20.3697C10.2292 20.3697 13.184 17.4229 13.184 13.7776C13.184 10.1403 10.2373 7.18555 6.59199 7.18555C2.94672 7.19358 0 10.1403 0 13.7776C0 17.4149 2.94672 20.3697 6.59199 20.3697Z" fill="#04E061"/>
		<path d="M18.0176 19.5354C20.2177 19.5354 22.0001 17.7529 22.0001 15.5528C22.0001 13.3528 20.2177 11.5703 18.0176 11.5703C15.8176 11.5703 14.0352 13.3528 14.0352 15.5528C14.0352 17.7529 15.8176 19.5354 18.0176 19.5354Z" fill="#FF4053"/>
		<path d="M7.85267 6.33526C9.2096 6.33526 10.3176 5.23525 10.3176 3.87027C10.3176 2.50529 9.21763 1.40527 7.85267 1.40527C6.49573 1.40527 5.3877 2.50529 5.3877 3.87027C5.3877 5.23525 6.4877 6.33526 7.85267 6.33526Z" fill="#965EEB"/>
		<path d="M16.4756 10.7111C19.4304 10.7111 21.8311 8.31032 21.8311 5.35554C21.8311 2.40076 19.4304 0 16.4756 0C13.5209 0 11.1201 2.40076 11.1201 5.35554C11.1121 8.31835 13.5128 10.7111 16.4756 10.7111Z" fill="#00AAFF"/>
	</symbol>

</svg>
