<svg xmlns="http://www.w3.org/2000/svg">

	<symbol id="right-up" viewBox="0 0 9 9">
		<path d="M8.63169 0.500024C8.63169 0.223881 8.40783 2.36519e-05 8.13169 2.35254e-05L3.63169 2.39258e-05C3.35555 2.37572e-05 3.13169 0.223882 3.13169 0.500024C3.13169 0.776166 3.35555 1.00002 3.63169 1.00002L7.63169 1.00002L7.63169 5.00002C7.63169 5.27617 7.85555 5.50002 8.13169 5.50002C8.40783 5.50002 8.63169 5.27617 8.63169 5.00002L8.63169 0.500024ZM0.353516 8.2782L0.707069 8.63175L8.48524 0.853577L8.13169 0.500024L7.77814 0.14647L-3.77595e-05 7.92464L0.353516 8.2782Z"/>
	</symbol>

	<symbol id="clock" viewBox="0 0 15 15">
		<path d="M7.49983 15C3.3643 15 0 11.6353 0 7.5C0 3.36472 3.3643 0 7.49983 0C11.6354 0 15 3.36438 15 7.49966C15 11.6349 11.6357 15 7.49983 15ZM7.49983 0.841263C3.82852 0.841263 0.841581 3.82827 0.841581 7.49966C0.841581 11.1711 3.82852 14.1581 7.49983 14.1581C11.1711 14.1581 14.1584 11.1714 14.1584 7.49966C14.1584 3.82793 11.1715 0.841263 7.49983 0.841263Z" />
		<path d="M10.1782 9.14858H6.50033C6.23709 9.14858 6.02344 8.94161 6.02344 8.6866V4.24615C6.02344 4.12363 6.07368 4.00612 6.16312 3.91949C6.25255 3.83285 6.37385 3.78418 6.50033 3.78418C6.62681 3.78418 6.74811 3.83285 6.83755 3.91949C6.92698 4.00612 6.97723 4.12363 6.97723 4.24615V8.225H10.1782C10.3022 8.22841 10.4201 8.27855 10.5066 8.36478C10.5932 8.45101 10.6416 8.56653 10.6416 8.68679C10.6416 8.80705 10.5932 8.92257 10.5066 9.0088C10.4201 9.09503 10.3022 9.14517 10.1782 9.14858Z" />
	</symbol>

	<symbol id="thermometer" viewBox="0 0 12 20">
		<path d="M7.81946 11.0228V2.62378C7.81946 1.17469 6.59461 0 5.08363 0C3.57265 0 2.3478 1.17469 2.3478 2.62378V11.0191C-0.0168847 12.466 -0.710856 15.4774 0.797837 17.7453C1.256 18.4339 1.8874 19.0011 2.63395 19.3944C3.3805 19.7878 4.21822 19.9947 5.07002 19.9963L5.09724 20C7.90224 19.995 10.1718 17.8101 10.1666 15.12C10.165 14.3031 9.94918 13.4997 9.53903 12.7838C9.12887 12.0678 8.53755 11.4622 7.81946 11.0228ZM2.94669 18.7035C0.887621 17.5634 0.182178 15.0383 1.37096 13.0636C1.7488 12.436 2.29225 11.9148 2.94669 11.5524C3.00603 11.5196 3.05526 11.4723 3.08941 11.4153C3.12355 11.3583 3.14139 11.2937 3.14113 11.228V2.62378C3.14113 1.58667 4.01778 0.745921 5.09919 0.745921C6.18059 0.745921 7.05724 1.58667 7.05724 2.62378V11.228C7.05698 11.2937 7.07482 11.3583 7.10896 11.4153C7.14311 11.4723 7.19234 11.5196 7.25168 11.5524C9.31075 12.6925 10.0162 15.2176 8.82741 17.1923C7.63863 19.167 5.00571 19.8436 2.94669 18.7035Z"/>
		<path d="M5.48622 12.4477V6.78985C5.48622 6.69094 5.44525 6.59607 5.37232 6.52613C5.29939 6.45618 5.20048 6.41689 5.09734 6.41689C4.9942 6.41689 4.89528 6.45618 4.82235 6.52613C4.74942 6.59607 4.70845 6.69094 4.70845 6.78985V12.4477C3.23937 12.6497 2.21922 13.9556 2.4299 15.3645C2.62007 16.6362 3.75776 17.5794 5.09734 17.5759C6.58143 17.5798 7.78786 16.4292 7.79199 15.0058C7.79569 13.7211 6.81224 12.63 5.48622 12.4477ZM5.09734 16.8262C4.04277 16.8262 3.18789 16.0064 3.18789 14.995C3.19003 13.9845 4.04364 13.1658 5.09734 13.1637C6.1519 13.1637 7.00678 13.9836 7.00678 14.995C7.00678 16.0064 6.15186 16.8262 5.09734 16.8262ZM11.6112 2.56421H9.18066C9.07752 2.56421 8.97861 2.6035 8.90568 2.67345C8.83275 2.74339 8.79178 2.83825 8.79178 2.93717C8.79178 3.03608 8.83275 3.13095 8.90568 3.20089C8.97861 3.27084 9.07752 3.31013 9.18066 3.31013H11.6112C11.7144 3.31013 11.8133 3.27084 11.8862 3.20089C11.9591 3.13095 12.0001 3.03608 12.0001 2.93717C12.0001 2.83825 11.9591 2.74339 11.8862 2.67345C11.8133 2.6035 11.7144 2.56421 11.6112 2.56421ZM11.094 4.42901H9.66677C9.56363 4.42901 9.46472 4.4683 9.39179 4.53825C9.31886 4.60819 9.27789 4.70306 9.27789 4.80197C9.27789 4.90089 9.31886 4.99575 9.39179 5.06569C9.46472 5.13564 9.56363 5.17493 9.66677 5.17493H11.094C11.1971 5.17493 11.2961 5.13564 11.369 5.06569C11.4419 4.99575 11.4829 4.90089 11.4829 4.80197C11.4829 4.70306 11.4419 4.60819 11.369 4.53825C11.2961 4.4683 11.1971 4.42901 11.094 4.42901ZM11.6112 6.29381H9.18066C9.07752 6.29381 8.97861 6.33311 8.90568 6.40305C8.83275 6.47299 8.79178 6.56786 8.79178 6.66677C8.79178 6.76569 8.83275 6.86055 8.90568 6.9305C8.97861 7.00044 9.07752 7.03973 9.18066 7.03973H11.6112C11.7144 7.03973 11.8133 7.00044 11.8862 6.9305C11.9591 6.86055 12.0001 6.76569 12.0001 6.66677C12.0001 6.56786 11.9591 6.47299 11.8862 6.40305C11.8133 6.33311 11.7144 6.29381 11.6112 6.29381ZM11.094 8.15861H9.66677C9.56363 8.15861 9.46472 8.19791 9.39179 8.26785C9.31886 8.3378 9.27789 8.43266 9.27789 8.53158C9.27789 8.63049 9.31886 8.72535 9.39179 8.7953C9.46472 8.86524 9.56363 8.90454 9.66677 8.90454H11.094C11.1971 8.90454 11.2961 8.86524 11.369 8.7953C11.4419 8.72535 11.4829 8.63049 11.4829 8.53158C11.4829 8.43266 11.4419 8.3378 11.369 8.26785C11.2961 8.19791 11.1971 8.15861 11.094 8.15861ZM11.6112 10.0234H9.18066C9.07752 10.0234 8.97861 10.0627 8.90568 10.1327C8.83275 10.2026 8.79178 10.2975 8.79178 10.3964C8.79178 10.4953 8.83275 10.5902 8.90568 10.6601C8.97861 10.73 9.07752 10.7693 9.18066 10.7693H11.6112C11.7144 10.7693 11.8133 10.73 11.8862 10.6601C11.9591 10.5902 12.0001 10.4953 12.0001 10.3964C12.0001 10.2975 11.9591 10.2026 11.8862 10.1327C11.8133 10.0627 11.7144 10.0234 11.6112 10.0234Z"/>	
	</symbol>

	<symbol id="fish" viewBox="0 0 15 20">
		<path d="M7.71377 0.0527919C4.73192 1.71854 2.90855 4.45696 2.57066 7.66663C0.538222 9.27581 0.0233362 14.3251 0.00212517 14.543C-0.0125233 14.685 0.049313 14.8279 0.1649 14.9149C0.221387 14.958 0.287966 14.9858 0.358276 14.9958C0.428586 15.0058 0.500278 14.9975 0.566503 14.9719C1.85151 14.4769 3.31312 13.9697 3.91109 13.8355C4.33067 14.7524 4.77684 15.5539 5.14864 16.0705C3.35582 17.1912 3.33343 19.4788 3.33343 19.5833C3.3334 19.6381 3.34415 19.6923 3.36508 19.7428C3.38601 19.7934 3.4167 19.8394 3.4554 19.8781C3.4941 19.9168 3.54005 19.9474 3.59062 19.9684C3.64119 19.9893 3.69539 20.0001 3.75012 20C6.16427 20 7.37604 19.1585 7.91682 18.5958C8.45757 19.1585 9.66933 20 12.0835 20C12.1382 20.0001 12.1924 19.9893 12.243 19.9684C12.2936 19.9474 12.3395 19.9168 12.3782 19.8781C12.4169 19.8394 12.4476 19.7934 12.4685 19.7428C12.4895 19.6923 12.5002 19.6381 12.5002 19.5833C12.5002 19.4788 12.4778 17.1911 10.685 16.0705C11.1789 15.3841 11.8036 14.1972 12.3229 12.9002C12.7865 13.1869 13.5238 13.3333 14.5835 13.3333C14.6382 13.3333 14.6924 13.3226 14.743 13.3017C14.7936 13.2807 14.8395 13.25 14.8782 13.2113C14.9169 13.1726 14.9476 13.1267 14.9685 13.0761C14.9895 13.0255 15.0002 12.9713 15.0002 12.9166C15.0002 12.7927 14.9756 9.95926 13.3204 8.54815C13.251 4.95946 11.3715 1.86929 8.11983 0.0527919C8.05776 0.0181735 7.98787 3.06518e-07 7.9168 3.09625e-07C7.84573 3.12731e-07 7.77584 0.0181735 7.71377 0.0527919ZM0.914826 13.949C1.11748 12.5489 1.61608 10.2504 2.50855 8.95152C2.55534 10.1492 3.00816 11.6773 3.57637 13.0626C2.84394 13.247 1.69967 13.6563 0.914826 13.949ZM14.1428 12.4902C12.9838 12.4347 12.6876 12.1673 12.627 12.0923C12.912 11.2804 13.1385 10.4577 13.2521 9.7107C13.8881 10.6146 14.086 11.8467 14.1428 12.4902ZM12.6117 12.1407L12.6105 12.1405C12.6109 12.1394 12.6112 12.1382 12.6117 12.1371C12.6113 12.1395 12.612 12.1382 12.6117 12.1407ZM12.5002 8.74995C12.5002 11.1848 10.5011 15.166 9.74664 15.9033C9.70693 15.9421 9.67539 15.9884 9.65387 16.0396C9.63235 16.0907 9.62128 16.1457 9.62132 16.2012C9.62132 16.2264 9.62378 16.252 9.62824 16.2773C9.65347 16.4136 9.74542 16.5287 9.87277 16.5837C11.1769 17.146 11.5329 18.4684 11.6302 19.1557C9.01909 19.0255 8.32128 17.7897 8.28749 17.7263C8.2171 17.5891 8.07506 17.5045 7.92088 17.5025C7.76502 17.5004 7.61979 17.5879 7.54654 17.7259C7.51686 17.7816 6.82388 19.0247 4.20586 19.1557C4.30637 18.4689 4.6677 17.1416 5.96083 16.5837C6.0236 16.5566 6.07874 16.5145 6.12138 16.461C6.16403 16.4076 6.19287 16.3445 6.20536 16.2773C6.23099 16.1397 6.18622 16.0002 6.08697 15.9033C5.33255 15.166 3.33343 11.1848 3.33343 8.74995C3.33343 5.46013 5.00051 2.61058 7.91678 0.896704C10.8331 2.61058 12.5002 5.46013 12.5002 8.74995Z" />
		<path d="M7.91738 7.49988C6.00006 7.49988 4.82572 6.74343 4.81392 6.7357C4.62185 6.60956 4.36388 6.66245 4.23693 6.85371C4.11079 7.04496 4.16247 7.30293 4.35291 7.42988C4.40826 7.46691 5.73311 8.33321 7.91738 8.33321C10.1016 8.33321 11.4265 7.46691 11.4819 7.42988C11.539 7.39184 11.5859 7.34023 11.6183 7.27967C11.6506 7.21911 11.6675 7.15148 11.6674 7.08281C11.6674 7.00347 11.6446 6.92331 11.5974 6.8521C11.5671 6.80655 11.5281 6.76742 11.4826 6.73696C11.4371 6.70649 11.3861 6.68529 11.3324 6.67456C11.2788 6.66382 11.2235 6.66378 11.1698 6.67441C11.1162 6.68505 11.0651 6.70617 11.0196 6.73656C11.0083 6.74425 9.85223 7.49988 7.91738 7.49988ZM4.23697 8.52039C4.11083 8.71204 4.16251 8.96923 4.35294 9.09657C4.40826 9.1336 5.73315 9.9999 7.91738 9.9999C9.08399 9.9999 10.0007 9.74845 10.5643 9.53724C10.7315 9.47458 10.8349 9.31587 10.8349 9.147C10.8349 9.09856 10.8263 9.04895 10.8084 9.00091C10.7278 8.78524 10.4878 8.67618 10.2721 8.75676C9.77286 8.94352 8.95903 9.16653 7.91738 9.16653C6.00006 9.16653 4.82572 8.41008 4.81392 8.40235C4.62189 8.27625 4.36392 8.32914 4.23697 8.52039Z" />
		<path d="M7.49867 4.9997C7.49867 4.53947 7.12558 4.16638 6.66535 4.16638C6.20512 4.16638 5.83203 4.53947 5.83203 4.99971C5.83203 5.45994 6.20512 5.83303 6.66535 5.83303C7.12558 5.83303 7.49867 5.45994 7.49867 4.9997Z" />
	</symbol>

	<symbol id="fish-fill" viewBox="0 0 30 18">
		<path d="M17.0365 0C12.3506 0 8.25838 3.08081 5.98078 5.71669L1.43235 2.00137C0.800584 1.485 -0.142643 2.03513 0.0188152 2.826L1.27819 9L0.0182943 15.1746C-0.143164 15.9654 0.800063 16.515 1.43183 15.9992L5.98026 12.2839C8.25786 14.9192 12.3506 18 17.0365 18C24.1958 18 30 10.8 30 9C30 7.2 24.1958 0 17.0365 0ZM21.5901 10.35C20.9 10.35 20.3401 9.74531 20.3401 9C20.3401 8.25412 20.9 7.65 21.5901 7.65C22.2807 7.65 22.8401 8.25412 22.8401 9C22.8401 9.74531 22.2802 10.35 21.5901 10.35Z" />
	</symbol>

	<symbol id="loc" viewBox="0 0 15 17">
		<path d="M14.6916 13.309C14.5168 13.0779 14.2659 12.8591 13.9461 12.6589C13.3614 12.2929 12.527 11.9792 11.5333 11.7519C11.3205 11.7032 11.1096 11.8406 11.0621 12.0588C11.0146 12.277 11.1486 12.4933 11.3614 12.542C12.2716 12.7502 13.0231 13.0296 13.5347 13.3498C13.9705 13.6226 14.2105 13.9127 14.2105 14.1666C14.2105 14.4126 13.9887 14.6436 13.8026 14.794C13.4851 15.0505 12.9999 15.2945 12.3993 15.4998C11.0965 15.9451 9.35658 16.1904 7.5 16.1904C5.64342 16.1904 3.90347 15.9451 2.60065 15.4998C2.00007 15.2945 1.51485 15.0505 1.19743 14.794C1.01132 14.6436 0.789473 14.4126 0.789473 14.1666C0.789473 13.9127 1.02949 13.6226 1.4653 13.3498C1.97693 13.0296 2.72846 12.7502 3.63863 12.542C3.85141 12.4933 3.98541 12.277 3.93793 12.0588C3.89046 11.8406 3.67947 11.7032 3.46671 11.7519C2.47297 11.9792 1.63865 12.2929 1.05395 12.6589C0.734059 12.8591 0.483239 13.0778 0.308441 13.309C0.103775 13.5796 0 13.8682 0 14.1666C0 14.4072 0.0681884 14.6431 0.202687 14.8678C0.320466 15.0645 0.490734 15.2536 0.708775 15.4298C1.10256 15.748 1.65509 16.0299 2.351 16.2678C3.73218 16.7399 5.56081 16.9999 7.5 16.9999C9.43919 16.9999 11.2678 16.7399 12.649 16.2678C13.3449 16.03 13.8974 15.748 14.2912 15.4298C14.5093 15.2536 14.6795 15.0645 14.7973 14.8678C14.9318 14.6431 15 14.4072 15 14.1666C15 13.8682 14.8962 13.5796 14.6916 13.309Z" />
		<path d="M4.80785 11.4656C5.99787 13.1943 7.17031 14.4024 7.21965 14.453C7.2563 14.4905 7.29981 14.5204 7.3477 14.5407C7.3956 14.561 7.44693 14.5715 7.49876 14.5715C7.5506 14.5715 7.60193 14.561 7.64982 14.5407C7.69771 14.5204 7.74123 14.4905 7.77788 14.453C7.82721 14.4024 8.99966 13.1943 10.1897 11.4656C10.8921 10.4452 11.4528 9.45595 11.8562 8.5253C12.3699 7.34014 12.6303 6.24217 12.6303 5.26193C12.6303 4.55175 12.4946 3.86261 12.2269 3.21363C11.9684 2.58699 11.5985 2.0243 11.1273 1.54119C10.6562 1.05807 10.1074 0.678722 9.49633 0.413674C8.86343 0.139177 8.19135 0 7.49876 0C6.80618 0 6.13411 0.139182 5.5012 0.413674C4.89009 0.678722 4.34134 1.05807 3.87019 1.54119C3.39904 2.0243 3.0291 2.58699 2.77061 3.21363C2.50292 3.8626 2.36719 4.55175 2.36719 5.26193C2.36719 6.24218 2.62765 7.34014 3.14134 8.5253C3.54471 9.45595 4.10542 10.4452 4.80785 11.4656ZM7.49876 0.809528C9.89302 0.809528 11.8409 2.80687 11.8409 5.26193C11.8409 6.83024 11.0493 8.81041 9.55187 10.9884C8.73801 12.172 7.91525 13.1214 7.49869 13.5805C7.08374 13.1234 6.26565 12.1795 5.45283 10.9988C3.95066 8.81665 3.15666 6.83288 3.15666 5.26193C3.15666 2.80687 5.10452 0.809528 7.49876 0.809528Z" />
		<path d="M6.42186 7.87246C6.76277 8.02031 7.12468 8.09529 7.49753 8.09529C7.87038 8.09529 8.23228 8.02032 8.57319 7.87246C8.90227 7.72974 9.19773 7.5255 9.45137 7.26542C9.705 7.00534 9.90419 6.70238 10.0434 6.36493C10.1876 6.01537 10.2607 5.64427 10.2607 5.26195C10.2607 4.87963 10.1876 4.50853 10.0434 4.15896C9.90418 3.82152 9.705 3.51855 9.45137 3.25847C9.19774 2.99839 8.90228 2.79415 8.57319 2.65143C8.23228 2.50356 7.87038 2.42859 7.49753 2.42859C7.12468 2.42859 6.76277 2.50356 6.42186 2.65141C6.09279 2.79414 5.79732 2.99838 5.54369 3.25845C5.29005 3.51854 5.09087 3.8215 4.95168 4.15894C4.80749 4.50852 4.73438 4.87961 4.73438 5.26193C4.73438 5.64425 4.80749 6.01535 4.95168 6.36492C5.09087 6.70236 5.29005 7.00532 5.54369 7.2654C5.79732 7.52549 6.09278 7.72973 6.42186 7.87246ZM7.49753 3.23812C8.58582 3.23812 9.47121 4.146 9.47121 5.26194C9.47121 6.37787 8.58582 7.28576 7.49753 7.28576C6.40924 7.28576 5.52384 6.37787 5.52384 5.26194C5.52384 4.146 6.40924 3.23812 7.49753 3.23812Z" />
	</symbol>

	<symbol id="loc-fill" viewBox="0 0 24 30">
		<path d="M11.7747 0C5.27196 0 0 5.27152 0 11.7747C0 18.6034 8.5928 27.3281 11.0975 29.7261C11.2793 29.9018 11.5221 30 11.7749 30C12.0277 30 12.2705 29.9018 12.4523 29.7261C14.9566 27.3281 23.5498 18.6034 23.5498 11.7747C23.5494 5.27152 18.2774 0 11.7747 0ZM11.7747 15.7449C9.58182 15.7449 7.8045 13.9675 7.8045 11.7747C7.8045 9.58182 9.58182 7.8045 11.7747 7.8045C13.9675 7.8045 15.7449 9.58182 15.7449 11.7747C15.7449 13.9675 13.9675 15.7449 11.7747 15.7449Z"/>
	</symbol>

	<symbol id="user" viewBox="0 0 15 19">
		<path d="M7.50003 9.4839C10.0726 9.4839 12.1579 7.36086 12.1579 4.74195C12.1579 2.12317 10.0727 0 7.50003 0C4.92768 0 2.84215 2.12317 2.84215 4.74195C2.84414 7.35999 4.92841 9.4819 7.50003 9.4839ZM7.50003 0.8037C9.63659 0.8037 11.3685 2.56684 11.3685 4.74195C11.3685 6.91706 9.63659 8.6802 7.50003 8.6802C5.36373 8.6802 3.6316 6.91706 3.6316 4.74195C3.63517 2.56848 5.36506 0.80721 7.50003 0.8037ZM7.50003 10.6694C5.47517 10.6694 3.59219 11.4691 2.19495 12.9239C0.777716 14.3987 0 16.4119 0 18.5982C0.00063265 18.8199 0.177079 18.9994 0.394773 19H14.6054C14.8232 18.9994 14.9994 18.8199 15 18.5982C15 16.4161 14.2224 14.3987 12.8053 12.9279C11.408 11.4731 9.52511 10.6694 7.5 10.6694L7.50003 10.6694ZM0.797518 18.1963C0.884381 16.38 1.57511 14.7202 2.75541 13.4905C4.00278 12.1924 5.68834 11.4772 7.4962 11.4772C9.30406 11.4772 10.9896 12.1924 12.2369 13.4905C13.4211 14.7202 14.108 16.38 14.1949 18.1963H0.797518Z" />
	</symbol>

	<symbol id="left" viewBox="0 0 10 15">
		<path d="M8.46973 14L1.46973 7.5L8.46973 1" stroke-width="2" stroke-linecap="round"/>
	</symbol>

	<symbol id="right" viewBox="0 0 10 15">
		<path d="M0.999999 1L8 7.5L0.999999 14" stroke-width="2" stroke-linecap="round"/>
	</symbol>

	<symbol id="check" viewBox="0 0 13 10">
		<path d="M0.75 5.51L3.81 8.57L11.63 0.75" stroke-width="1.5" stroke-linecap="round" stroke-linejoin="round"/>
	</symbol>

	<symbol id="nutrition" viewBox="0 0 24 22">
		<path d="M2.31724 10.11C2.52874 7.72735 3.47126 5.69469 5.14483 4.01201C6.81839 2.32933 8.84138 1.39064 11.2138 1.19595V0.792668C11.2138 0.571648 11.2874 0.384281 11.4345 0.230568C11.5816 0.0768557 11.7701 0 12 0C12.2299 0 12.4207 0.0768557 12.5724 0.230568C12.7241 0.384281 12.8 0.571648 12.8 0.792668V1.19595C15.1816 1.39064 17.2092 2.32933 18.8828 4.01201C20.5563 5.69469 21.5046 7.72735 21.7274 10.11H23.2138C23.433 10.11 23.6189 10.1868 23.7713 10.3406C23.9238 10.4943 24 10.6816 24 10.9027C24 11.1344 23.9238 11.3268 23.7713 11.4798C23.6189 11.6327 23.433 11.7092 23.2138 11.7092H0.8C0.570115 11.7092 0.37931 11.6327 0.227586 11.4798C0.0758621 11.3268 0 11.1367 0 10.9096C0 10.6825 0.0758621 10.4924 0.227586 10.3394C0.37931 10.1865 0.570115 10.11 0.8 10.11H2.31724ZM3.87586 10.11H20.1379C19.9172 8.02402 19.0371 6.27413 17.4977 4.8603C15.9583 3.44648 14.1239 2.73957 11.9942 2.73957C9.89232 2.73957 8.06897 3.44648 6.52414 4.8603C4.97931 6.27413 4.09655 8.02402 3.87586 10.11ZM14.4414 11.7092H7.37931V19.2882H13.531C13.954 19.2882 14.3609 19.2187 14.7517 19.0796C15.1425 18.9406 15.4989 18.7273 15.8207 18.4399L20.6759 14.1011C20.4092 13.8694 20.1241 13.6839 19.8207 13.5449C19.5172 13.4058 19.2046 13.3177 18.8828 13.2807C18.5789 13.2621 18.2869 13.2946 18.0066 13.378C17.7263 13.4614 17.4627 13.5999 17.2157 13.7932L14.7448 15.8116C14.5977 15.9414 14.4407 16.0318 14.2739 16.0828C14.1071 16.1338 13.9285 16.1593 13.7379 16.1593H11.28C11.052 16.1593 10.8621 16.0828 10.7103 15.9298C10.5586 15.7769 10.4828 15.5868 10.4828 15.3597C10.4828 15.1325 10.5586 14.9425 10.7103 14.7895C10.8621 14.6365 11.052 14.5601 11.28 14.5601H13.7655L15.0483 13.4893C15.2414 13.3316 15.3609 13.1485 15.4069 12.9399C15.4529 12.7314 15.4437 12.5297 15.3793 12.335C15.3057 12.1589 15.1908 12.0105 15.0345 11.89C14.8782 11.7695 14.6805 11.7092 14.4414 11.7092ZM5.7931 11.7092H2.68966V20.4008H5.7931V11.7092ZM5.7931 22H2.68966C2.26611 22 1.89582 21.8403 1.57876 21.5208C1.26189 21.2011 1.10345 20.8278 1.10345 20.4008V11.7092C1.10345 11.2822 1.26189 10.9089 1.57876 10.5892C1.89582 10.2697 2.26611 10.11 2.68966 10.11H14.4414C15.9222 10.11 17.3269 10.3835 18.6554 10.9305C19.984 11.4775 21.1448 12.2887 22.1379 13.3641H22.1655C22.3862 13.6144 22.4897 13.8925 22.4759 14.1985C22.4621 14.5044 22.3356 14.764 22.0966 14.9772L16.8828 19.6359C16.423 20.0438 15.8989 20.3544 15.3103 20.5676C14.7218 20.7809 14.1287 20.8875 13.531 20.8875H7.29655C7.17701 21.2027 6.98161 21.4669 6.71034 21.6802C6.43908 21.8934 6.13333 22 5.7931 22Z"/>
	</symbol>

	<symbol id="best" viewBox="0 0 23 30">
		<path d="M11.5 14.3172L8.71157 16.4437C8.60222 16.517 8.49591 16.5191 8.39263 16.4499C8.28936 16.3808 8.25594 16.287 8.29239 16.1687L9.34945 12.7223L6.50634 10.5485C6.38484 10.4701 6.35143 10.3728 6.4061 10.2567C6.46078 10.1406 6.55543 10.0825 6.69005 10.0825H10.1149L11.2631 6.47116C11.2942 6.34895 11.3718 6.28784 11.496 6.28784C11.6202 6.28784 11.7005 6.34895 11.7369 6.47116L12.8487 10.0825H16.3267C16.4502 10.0825 16.5392 10.1393 16.5939 10.2527C16.6486 10.3661 16.6152 10.4621 16.4937 10.5408L13.6688 12.7223L14.6894 16.1687C14.7258 16.287 14.6985 16.3808 14.6074 16.4499C14.5162 16.5191 14.416 16.517 14.3067 16.4437L11.5 14.3172ZM11.5 27.5345L4.42868 29.936C4.08848 30.0582 3.76955 30.0054 3.47187 29.7776C3.17419 29.5498 3.02536 29.2604 3.02536 28.9094V19.3768C1.944 18.2402 1.16944 16.9937 0.701664 15.6371C0.233888 14.2806 0 12.924 0 11.5674C0 8.29213 1.10261 5.5454 3.30784 3.32724C5.51307 1.10908 8.24379 0 11.5 0C14.7562 0 17.4869 1.10908 19.6922 3.32724C21.8974 5.5454 23 8.29213 23 11.5674C23 12.924 22.7661 14.2806 22.2983 15.6371C21.8306 16.9937 21.056 18.2402 19.9746 19.3768V28.9094C19.9746 29.2604 19.8258 29.5498 19.5281 29.7776C19.2305 30.0054 18.9176 30.0582 18.5895 29.936L11.5 27.5345ZM11.5044 21.0267C14.1259 21.0267 16.3479 20.1086 18.1704 18.2725C19.9929 16.4364 20.9041 14.1999 20.9041 11.563C20.9041 8.92617 19.9914 6.69114 18.166 4.85795C16.3406 3.02476 14.1171 2.10817 11.4956 2.10817C8.87414 2.10817 6.65214 3.02623 4.82964 4.86235C3.00713 6.69848 2.09588 8.93497 2.09588 11.5718C2.09588 14.2087 3.00859 16.4437 4.83401 18.2769C6.65943 20.1101 8.88288 21.0267 11.5044 21.0267ZM5.12124 27.4245L11.5 25.4263L17.8788 27.4245V21.1C16.9068 21.8211 15.8656 22.3405 14.7554 22.6582C13.6451 22.976 12.56 23.1349 11.5 23.1349C10.44 23.1349 9.35491 22.976 8.24464 22.6582C7.13437 22.3405 6.09324 21.8211 5.12124 21.1V27.4245Z"/>
	</symbol>

	<symbol id="guide" viewBox="0 0 25 25">
		<path d="M10.5443 14.4557L0.669194 10.6395C0.4401 10.5551 0.271295 10.4164 0.162777 10.2235C0.0542589 10.0306 0 9.83161 0 9.62664C0 9.42166 0.0512445 9.23778 0.153734 9.075C0.256223 8.91223 0.428043 8.78261 0.669194 8.68615L23.5665 0.0770634C23.7714 -0.00733937 23.9734 -0.0224113 24.1724 0.0318476C24.3713 0.0861066 24.5431 0.179553 24.6878 0.312185C24.8204 0.456876 24.9139 0.628696 24.9682 0.827645C25.0224 1.02659 25.0073 1.22856 24.9229 1.43354L16.3139 24.3489C16.2174 24.578 16.0878 24.7438 15.925 24.8463C15.7622 24.9488 15.5783 25 15.3734 25C15.1563 25 14.9544 24.9488 14.7675 24.8463C14.5806 24.7438 14.4449 24.572 14.3605 24.3308L10.5443 14.4557ZM15.2287 20.9487L22.1376 2.86236L4.08751 9.77133L12.1359 12.8641L15.2287 20.9487Z" />
	</symbol>

	<symbol id="like" viewBox="0 0 25 23">
		<path d="M22.7106 7.56268C23.3109 7.56268 23.8426 7.79495 24.3056 8.2595C24.7685 8.72405 25 9.25752 25 9.8599V12.2508C25 12.3903 24.9847 12.5397 24.9542 12.699C24.9237 12.8584 24.8881 13.0045 24.8474 13.1373L21.2454 21.5604C21.0724 21.9688 20.7748 22.3108 20.3526 22.5865C19.9303 22.8622 19.4953 23 19.0476 23H5.92186V7.56268L12.8663 0.625071C13.1919 0.298355 13.5684 0.0992626 13.9957 0.0277935C14.4231 -0.0436756 14.8224 0.0226886 15.1938 0.226886C15.5652 0.431083 15.8323 0.734827 15.9951 1.13812C16.1579 1.54141 16.1834 1.97277 16.0714 2.43222L14.8352 7.56268H22.7106ZM8.21123 8.52751V20.7028H19.1087L22.7106 12.295V9.8599H11.9353L13.5379 3.18264L8.21123 8.52751ZM2.28938 23C1.65975 23 1.12078 22.7751 0.672466 22.3252C0.224155 21.8754 0 21.3346 0 20.7028V9.8599C0 9.22811 0.224155 8.68729 0.672466 8.23745C1.12078 7.7876 1.65975 7.56268 2.28938 7.56268H5.92186V9.8599H2.28938V20.7028H5.92186V23H2.28938Z" />
	</symbol>

	<symbol id="avatar" viewBox="0 0 30 30">
		<path d="M25.5087 20.4333C24.1696 18.9825 22.5446 17.8247 20.7361 17.0328C18.9276 16.2409 16.9746 15.832 15.0003 15.832C13.026 15.832 11.0731 16.2409 9.26454 17.0328C7.456 17.8247 5.83104 18.9825 4.49199 20.4333C4.28458 20.6615 4.16883 20.9583 4.16699 21.2667V26.2667C4.17137 26.5953 4.305 26.909 4.53895 27.1398C4.7729 27.3706 5.08834 27.5 5.41699 27.5H24.5837C24.9152 27.5 25.2331 27.3683 25.4675 27.1339C25.702 26.8995 25.8337 26.5815 25.8337 26.25V21.25C25.8278 20.9474 25.7123 20.6572 25.5087 20.4333Z" />
		<path d="M15.0003 14.1667C18.222 14.1667 20.8337 11.555 20.8337 8.33333C20.8337 5.11167 18.222 2.5 15.0003 2.5C11.7787 2.5 9.16699 5.11167 9.16699 8.33333C9.16699 11.555 11.7787 14.1667 15.0003 14.1667Z" />
	</symbol>

	<symbol id="plus" viewBox="0 0 25 27">
		<path d="M11.8812 13.791H0.5V12.4874H11.8812V0.5H13.1188V12.4874H24.5V13.791H13.1188V25.7783H11.8812V13.791Z" stroke-linejoin="round"/>
	</symbol>

	<symbol id="star" viewBox="0 0 17 17">
		<path d="M7.99713 0.345483C8.1468 -0.115172 8.79851 -0.115172 8.94818 0.345483L10.6055 5.4463C10.6725 5.65231 10.8645 5.79179 11.0811 5.79179H16.4444C16.9287 5.79179 17.1301 6.4116 16.7383 6.6963L12.3993 9.84877C12.224 9.97609 12.1507 10.2018 12.2176 10.4078L13.875 15.5086C14.0247 15.9693 13.4974 16.3523 13.1056 16.0676L8.76655 12.9151C8.5913 12.7878 8.35401 12.7878 8.17876 12.9151L3.83975 16.0676C3.4479 16.3523 2.92066 15.9693 3.07033 15.5086L4.72769 10.4078C4.79462 10.2018 4.72129 9.97609 4.54605 9.84877L0.20704 6.6963C-0.184816 6.4116 0.0165714 5.79179 0.500933 5.79179H5.86424C6.08086 5.79179 6.27284 5.65231 6.33977 5.4463L7.99713 0.345483Z" />
	</symbol>

	<symbol id="boat" viewBox="0 0 20 9">
		<path d="M19.6875 8.7532C18.93 8.7659 18.1893 8.52879 17.58 8.0785C17.066 7.70459 16.4468 7.50317 15.8113 7.50317C15.1757 7.50317 14.5565 7.70459 14.0425 8.0785C13.4276 8.5174 12.691 8.75333 11.9355 8.75333C11.18 8.75333 10.4434 8.5174 9.82844 8.0785C9.32207 7.692 8.69936 7.48913 8.0625 7.50318C7.42505 7.48868 6.80163 7.69146 6.29469 8.07819C5.68557 8.52867 4.94499 8.7659 4.1875 8.7532C3.4302 8.76588 2.68983 8.52865 2.08094 8.07819C1.57387 7.69124 0.950175 7.48844 0.3125 7.50318C0.22962 7.50318 0.150134 7.47026 0.0915291 7.41165C0.032924 7.35305 0 7.27356 0 7.19068C0 7.1078 0.032924 7.02831 0.0915291 6.9697C0.150134 6.9111 0.22962 6.87817 0.3125 6.87817C1.06962 6.86541 1.80981 7.10267 2.41844 7.55318C2.92574 7.94014 3.54963 8.14292 4.1875 8.12819C4.82509 8.14269 5.44865 7.9398 5.95563 7.55287C6.56469 7.10254 7.30515 6.86542 8.0625 6.87817C8.8197 6.86546 9.55998 7.10271 10.1688 7.55318C10.6752 7.93953 11.2979 8.14228 11.9347 8.12819C12.5726 8.14263 13.1964 7.93976 13.7038 7.55287C14.3189 7.11406 15.0556 6.87821 15.8113 6.87821C16.5669 6.87821 17.3036 7.11406 17.9188 7.55287C18.4259 7.93989 19.0497 8.14279 19.6875 8.12819C19.7704 8.12819 19.8499 8.16111 19.9085 8.21972C19.9671 8.27832 20 8.35781 20 8.44069C20 8.52357 19.9671 8.60306 19.9085 8.66167C19.8499 8.72027 19.7704 8.7532 19.6875 8.7532Z" />
		<path d="M2.21062 8.10367C2.16551 8.10375 2.12093 8.09401 2.07997 8.07512C2.03901 8.05624 2.00265 8.02865 1.97343 7.99429L0.387491 6.14396C0.353615 6.10434 0.330187 6.05688 0.31934 6.0059C0.308494 5.95491 0.310573 5.90202 0.325389 5.85205C0.340204 5.80207 0.367286 5.75659 0.404168 5.71976C0.441049 5.68292 0.486559 5.6559 0.536553 5.64114C0.643428 5.60958 11.2981 2.5033 19.3747 2.5033C19.4216 2.50326 19.4679 2.5138 19.5102 2.53412C19.5525 2.55444 19.5897 2.58402 19.619 2.62068C19.6483 2.65733 19.669 2.70011 19.6795 2.74585C19.69 2.79158 19.69 2.8391 19.6797 2.88486C19.3272 4.29557 18.6587 5.6077 17.7247 6.72209C17.6694 6.78388 17.5918 6.82118 17.5091 6.82578C17.4263 6.83038 17.3451 6.80191 17.2833 6.74662C17.2215 6.69134 17.1842 6.61378 17.1796 6.531C17.175 6.44822 17.2035 6.367 17.2587 6.30521C18.0389 5.37595 18.6192 4.29587 18.9634 3.13237C11.9987 3.22143 3.27593 5.5277 1.17968 6.10959L2.4478 7.58929C2.48662 7.63467 2.51162 7.69022 2.51984 7.74936C2.52807 7.8085 2.51918 7.86877 2.49423 7.92301C2.46927 7.97726 2.4293 8.02323 2.37904 8.05546C2.32877 8.0877 2.27033 8.10487 2.21062 8.10492V8.10367Z" />
		<path d="M2.55125 4.69074C2.5224 4.69081 2.49368 4.68681 2.46594 4.67887C2.38622 4.6563 2.31873 4.60301 2.27829 4.53069C2.23786 4.45838 2.22779 4.37297 2.25031 4.29324L3.03531 1.52633C2.81117 1.49966 2.60351 1.39513 2.44856 1.23099C2.29362 1.06685 2.20122 0.853507 2.1875 0.628198V0.315695C2.1875 0.232814 2.22042 0.153327 2.27903 0.0947213C2.33763 0.0361155 2.41712 0.00319135 2.5 0.00319135H11.25C11.6507 -0.0154321 12.051 0.0475998 12.4265 0.188457C12.8021 0.329315 13.1451 0.545057 13.4347 0.822576C14.0168 1.46854 14.3464 2.30286 14.3628 3.17229C14.3628 3.25517 14.3299 3.33466 14.2713 3.39326C14.2127 3.45187 14.1332 3.48479 14.0503 3.48479C13.9674 3.48479 13.8879 3.45187 13.8293 3.39326C13.7707 3.33466 13.7378 3.25517 13.7378 3.17229C13.7378 3.06573 13.7087 0.628198 11.25 0.628198H2.8125C2.81594 0.672886 2.86219 0.940702 3.4375 0.940702C3.48579 0.940716 3.53341 0.95192 3.57664 0.973435C3.61987 0.994949 3.65753 1.02619 3.68665 1.0647C3.71578 1.10321 3.73559 1.14795 3.74452 1.19541C3.75345 1.24286 3.75126 1.29174 3.73812 1.33821L2.85156 4.46324C2.83307 4.52867 2.79374 4.58628 2.73955 4.62734C2.68535 4.66839 2.61924 4.69066 2.55125 4.69074Z" />
		<path d="M4.99062 5.07897L4.38437 4.92772L5.32188 1.17767C5.33874 1.11004 5.37774 1.04998 5.43267 1.00706C5.48759 0.96414 5.55529 0.940815 5.625 0.940796H8.75438C8.83136 0.940799 8.90563 0.969216 8.96295 1.0206C9.02027 1.07198 9.05661 1.14271 9.065 1.21924L9.37313 4.03177L8.75188 4.09989L8.47406 1.5658H5.86906L4.99062 5.07897ZM9.65844 3.82177L9.37719 1.28768C9.37236 1.24403 9.37678 1.19985 9.39017 1.15803C9.40356 1.1162 9.42561 1.07767 9.45489 1.04494C9.48417 1.01221 9.52001 0.986022 9.56009 0.968077C9.60017 0.950133 9.64359 0.940837 9.6875 0.940796H11.5625C11.5835 0.940775 11.6044 0.942869 11.625 0.947046C12.1435 1.07714 12.6034 1.37713 12.9315 1.79917C13.2596 2.22121 13.4368 2.74096 13.435 3.27551L12.81 3.30457C12.8169 2.91393 12.6949 2.53188 12.4629 2.21756C12.2308 1.90324 11.9016 1.67417 11.5262 1.5658H10.0366L10.28 3.75333L9.65844 3.82177ZM1.32563 6.9818L1.1875 6.37273C1.30156 6.34711 12.7516 3.75333 19.0625 3.75333V4.37833C12.8209 4.37833 1.43969 6.95586 1.32563 6.9818Z" />
	</symbol>

	<symbol id="boat-fill" viewBox="0 0 33 17">
		<path d="M32.6171 4.30921C29.8752 3.43258 27.207 3.4523 23.4968 3.53179L20.3001 0.955839C19.7332 0.491428 19.0481 0.194101 18.3217 0.0971901C14.0151 -0.499223 6.29019 1.7907 2.92985 3.11407C2.78675 3.16946 2.67152 3.27943 2.6095 3.41978C2.54748 3.56014 2.54376 3.71938 2.59916 3.86248C2.65455 4.00558 2.76452 4.12081 2.90487 4.18283C3.04523 4.24485 3.20447 4.24857 3.34757 4.19318C3.35337 4.19318 3.62025 4.08875 4.10179 3.9147L4.34546 5.69581C2.44251 6.01491 1.20095 6.24697 0.986289 6.28758C0.905892 6.30393 0.829793 6.33688 0.76286 6.38432C0.695927 6.43176 0.639635 6.49266 0.597586 6.5631C0.555537 6.63355 0.528656 6.712 0.518664 6.79343C0.508672 6.87486 0.515789 6.95748 0.539559 7.036L1.68249 10.6446C1.22184 10.5478 0.0249499 10.2461 2.62676e-06 11.0972C-0.000227169 11.1734 0.0146225 11.249 0.0436973 11.3195C0.0727721 11.39 0.115498 11.454 0.169418 11.5079C0.223337 11.5619 0.287385 11.6046 0.357878 11.6337C0.428371 11.6627 0.503918 11.6776 0.580171 11.6773C2.50053 11.7145 2.55854 12.8609 4.68196 12.8261C6.82626 12.8568 6.84947 11.7209 8.78955 11.6773C9.41711 11.6608 10.0347 11.837 10.5591 12.1821C11.2684 12.5971 12.0753 12.8159 12.8971 12.8159C13.7189 12.8159 14.5259 12.5971 15.2352 12.1821C15.7574 11.8369 16.3732 11.6607 16.9989 11.6773C17.6283 11.6609 18.2477 11.837 18.7742 12.1821C19.4813 12.6036 20.2892 12.8261 21.1123 12.8261C21.9355 12.8261 22.7433 12.6036 23.4504 12.1821C23.9827 11.8522 24.5965 11.6774 25.2228 11.6774C25.8491 11.6774 26.4629 11.8522 26.9952 12.1821C27.6951 12.6202 28.5078 12.844 29.3333 12.8261C29.4872 12.8261 29.6347 12.765 29.7435 12.6562C29.8524 12.5473 29.9135 12.3998 29.9135 12.2459C29.9135 12.092 29.8524 11.9445 29.7435 11.8357C29.6347 11.7269 29.4872 11.6657 29.3333 11.6657C28.1561 11.6646 27.8324 11.2596 27.001 10.8767C28.9038 9.32672 30.4511 7.3857 31.5379 5.18527C32.0375 5.31464 32.7058 5.70858 32.9652 5.05183C32.9912 4.98022 33.0028 4.90418 32.9994 4.82806C32.996 4.75194 32.9776 4.67725 32.9453 4.60826C32.9129 4.53927 32.8673 4.47734 32.811 4.42603C32.7546 4.37471 32.6888 4.33501 32.6171 4.30921ZM18.1825 1.25172C18.6929 1.31971 19.1737 1.53093 19.5691 1.8609L21.7505 3.61301C19.2506 3.75225 16.6294 4.00172 14.1236 4.29761C13.9497 3.32449 13.6647 2.37454 13.2743 1.46639C14.8936 1.17773 16.5441 1.10555 18.1825 1.25172ZM5.22152 3.52598C7.46663 2.75661 9.76072 2.13832 12.0884 1.67525C12.5045 2.5519 12.8 3.48088 12.9668 4.43685C10.1645 4.78495 7.55379 5.17946 5.48839 5.51016L5.22152 3.52598ZM25.966 15.5598C25.5116 15.5674 25.0713 15.4019 24.7343 15.0969C24.1943 14.6529 23.5168 14.4102 22.8177 14.4102C22.1186 14.4102 21.4412 14.6529 20.9011 15.0969C20.5604 15.3955 20.1228 15.5602 19.6697 15.5602C19.2167 15.5602 18.779 15.3955 18.4383 15.0969C17.8989 14.6527 17.2219 14.4098 16.5232 14.4098C15.8245 14.4098 15.1475 14.6527 14.6081 15.0969C14.2679 15.3954 13.8307 15.56 13.3781 15.56C12.9255 15.56 12.4883 15.3954 12.1481 15.0969C11.6067 14.6574 10.9306 14.4175 10.2333 14.4175C9.53597 14.4175 8.85987 14.6574 8.31845 15.0969C7.97833 15.3955 7.54114 15.5602 7.0885 15.5602C6.63585 15.5602 6.19867 15.3955 5.85854 15.0969C5.32328 14.6459 4.64386 14.4021 3.94399 14.4099C3.79012 14.4099 3.64255 14.4711 3.53375 14.5799C3.42494 14.6887 3.36382 14.8362 3.36382 14.9901C3.36382 15.144 3.42494 15.2915 3.53375 15.4003C3.64255 15.5091 3.79012 15.5703 3.94399 15.5703C4.3979 15.5628 4.83765 15.7283 5.17394 16.0332C5.71316 16.4773 6.38996 16.7201 7.0885 16.7201C7.78703 16.7201 8.46384 16.4773 9.00305 16.0332C9.34324 15.7347 9.7804 15.5701 10.233 15.5701C10.6856 15.5701 11.1228 15.7347 11.463 16.0332C12.0023 16.4775 12.6793 16.7204 13.3781 16.7204C14.0769 16.7204 14.7539 16.4775 15.2932 16.0332C15.6334 15.7347 16.0706 15.5701 16.5232 15.5701C16.9758 15.5701 17.413 15.7347 17.7531 16.0332C18.293 16.4774 18.9704 16.7202 19.6694 16.7202C20.3685 16.7202 21.0459 16.4774 21.5857 16.0332C21.9267 15.7346 22.3645 15.57 22.8177 15.57C23.271 15.57 23.7088 15.7346 24.0497 16.0332C24.5856 16.4844 25.2656 16.7281 25.966 16.7202C26.1199 16.7202 26.2674 16.659 26.3763 16.5502C26.4851 16.4414 26.5462 16.2939 26.5462 16.14C26.5462 15.9861 26.4851 15.8386 26.3763 15.7298C26.2674 15.621 26.1199 15.5598 25.966 15.5598Z" />
	</symbol>

	<symbol id="tent" viewBox="0 0 19 13">
		<path d="M18.7667 8.31386C18.5946 8.26207 18.4126 8.36197 18.3611 8.53557L18.2345 8.97123L18.102 8.81923L17.6055 8.22815L17.1288 7.62082L16.6658 6.99761L16.2185 6.3644L15.7913 5.72106L15.376 5.06979L14.984 4.40266L14.6062 3.7255L14.2481 3.03831L13.9098 2.34518L13.5874 1.63807L13.2846 0.924905L12.9998 0.203798C12.9998 0.203798 12.9998 0.201829 12.9979 0.199891C12.9939 0.191701 12.9919 0.185825 12.9879 0.177917L12.9859 0.175948C12.9821 0.167758 12.9781 0.161882 12.974 0.153849C12.972 0.151786 12.972 0.149816 12.9701 0.147879C12.9682 0.145941 12.9682 0.143815 12.9661 0.141877C12.9642 0.139939 12.9622 0.135782 12.9603 0.133813C12.9583 0.131844 12.9562 0.127843 12.9562 0.127843C12.9523 0.121997 12.9464 0.115871 12.9405 0.109901C12.9385 0.107932 12.9365 0.103899 12.9365 0.103899C12.9321 0.0996907 12.9281 0.095029 12.9246 0.0899899C12.9227 0.087909 12.9207 0.0859169 12.9186 0.0840198C12.9128 0.0778933 12.9068 0.0740174 12.9029 0.0699539L12.9008 0.068016C12.8949 0.0620458 12.887 0.0578886 12.881 0.0539502C12.879 0.0520122 12.8771 0.0520122 12.8752 0.0500743C12.8693 0.0460108 12.8632 0.0440729 12.8593 0.0399469L12.8534 0.0379777C12.8454 0.0339455 12.8395 0.0300383 12.8316 0.0281003L12.8256 0.0261311C12.8198 0.0239431 12.8138 0.0219739 12.8078 0.0179417C12.8078 0.0179417 12.804 0.0160038 12.8 0.0160038C12.7921 0.0140346 12.786 0.0120966 12.7782 0.0101274C12.7782 0.0101274 12.7763 0.0101274 12.7743 0.00806439C12.7664 0.00609518 12.7604 0.00403219 12.7525 0.00403219C12.7525 0.00403219 12.7465 0.00403219 12.7446 0.0019692C12.7386 0.0019692 12.7326 0 12.7268 0H6.38201C6.20608 0 6.04767 0.107932 5.98043 0.267782L5.97848 0.273752L5.69358 0.990827L5.39103 1.69987L5.07239 2.40316L4.73208 3.08238L4.3739 3.76542L3.99613 4.43854L3.60446 5.09982L3.19694 5.74707L2.76957 6.38431L2.32626 7.01362L1.8694 7.63083L1.39256 8.23203L0.899909 8.82336L0.767412 8.9712L0.638846 8.5336C0.587333 8.35987 0.405336 8.25988 0.233244 8.31189C0.0611839 8.3639 -0.0378793 8.54767 0.0136336 8.72143L1.0998 12.4329V12.435C1.10175 12.439 1.10367 12.445 1.10367 12.4489C1.10562 12.455 1.10769 12.459 1.10974 12.4629L1.11565 12.475C1.1176 12.4808 1.11952 12.4849 1.12351 12.491C1.12543 12.4949 1.12751 12.4968 1.12943 12.5009C1.13345 12.5067 1.13729 12.5128 1.13933 12.5188C1.14128 12.5208 1.14128 12.5229 1.14323 12.5248C1.14927 12.5329 1.15314 12.5408 1.15905 12.5469L1.161 12.5489C1.16704 12.5568 1.17493 12.5647 1.18081 12.5708L1.18289 12.5728C1.1888 12.5788 1.19475 12.5849 1.2027 12.5907C1.20465 12.5927 1.2066 12.5948 1.21056 12.5967C1.21638 12.6006 1.22047 12.6048 1.22642 12.6088C1.23028 12.6107 1.23236 12.6127 1.23623 12.6147C1.24031 12.6187 1.24613 12.6207 1.25013 12.6227C1.254 12.6248 1.25812 12.6268 1.26003 12.6287C1.26598 12.6307 1.27189 12.6347 1.2778 12.6367C1.28372 12.6386 1.28771 12.6408 1.29378 12.6428C1.29957 12.6447 1.30743 12.6487 1.3135 12.6507C1.31737 12.6526 1.32136 12.6526 1.32523 12.6546C1.33127 12.6565 1.33718 12.6588 1.34312 12.6588C1.34699 12.6588 1.34916 12.6607 1.35303 12.6607C1.36089 12.6627 1.36696 12.6627 1.37479 12.6647H1.38266C1.39256 12.6647 1.40238 12.6667 1.41436 12.6667H17.5876C17.7321 12.6667 17.8606 12.5708 17.9002 12.4309L18.9863 8.71946C19.0379 8.54767 18.939 8.3639 18.7667 8.31386ZM8.04791 12.0095L7.37521 9.71628L7.78075 9.25486C7.7827 9.2528 7.78477 9.24889 7.78477 9.24889L8.28721 8.6495C8.28928 8.64753 8.29132 8.64353 8.29327 8.64156L8.7759 8.02629C8.77837 8.02409 8.78038 8.0214 8.78178 8.01839L9.24883 7.38908C9.25075 7.38711 9.25283 7.38295 9.25283 7.38295L9.7057 6.74377C9.70774 6.74184 9.70979 6.73793 9.71174 6.73596L10.145 6.08665C10.1469 6.08468 10.1469 6.08274 10.1489 6.08077L10.5663 5.42146C10.5684 5.41949 10.5703 5.41546 10.5723 5.41155L10.97 4.73624C10.9719 4.73427 10.9719 4.73233 10.974 4.73024L11.3558 4.04514C11.3579 4.04293 11.3592 4.04017 11.3597 4.0372L11.7218 3.3421C11.7238 3.33991 11.7238 3.336 11.7258 3.33403L12.0679 2.63284C12.0699 2.63074 12.0699 2.62684 12.072 2.6249L12.3687 1.97362V12.0115H8.04791V12.0095ZM1.65765 12.0095L1.05435 9.9479H6.76389L7.36731 12.0095H1.65765ZM13.0216 6.17858L13.0711 6.39616L13.073 6.40226L13.2432 7.09739C13.2432 7.10142 13.2451 7.10542 13.247 7.10945L13.4429 7.79468L13.445 7.79858L13.6507 8.47968L13.6526 8.48784L13.8781 9.16894C13.8802 9.17281 13.8802 9.175 13.8823 9.17894L14.1294 9.84816L14.1313 9.85607L14.3926 10.5153C14.3945 10.5174 14.3945 10.5213 14.3967 10.5232L14.6141 11.0307C14.1395 11.4122 13.5972 11.7078 13.0216 11.8976V6.17858ZM1.39656 9.2528L1.89503 8.65366C1.89707 8.65147 1.89902 8.64753 1.89902 8.64753L2.38186 8.03839C2.38381 8.0362 2.38573 8.0323 2.38768 8.0302L2.85071 7.40505C2.85263 7.40299 2.85458 7.39896 2.85458 7.39896L3.30163 6.76381C3.30359 6.76184 3.30359 6.7599 3.30575 6.75781L3.73891 6.11253C3.74086 6.11056 3.74293 6.10665 3.74485 6.10472L4.15649 5.44953C4.15854 5.44724 4.15989 5.4444 4.16036 5.44134L4.55794 4.77225C4.56002 4.77018 4.56002 4.76821 4.56206 4.76628L4.9437 4.08509C4.94565 4.08299 4.94782 4.07715 4.94782 4.07715L5.30977 3.38592C5.31169 3.38398 5.31169 3.37995 5.31373 3.37789L5.65597 2.68276C5.65804 2.67885 5.65996 2.67679 5.65996 2.67288L5.98247 1.96165L5.98439 1.95568L6.29108 1.24051C6.293 1.23857 6.293 1.23442 6.29508 1.23248L6.52651 0.653247H12.2143L12.1075 0.922967L11.8048 1.63601L11.4805 2.34518L11.1421 3.03831L10.784 3.7255L10.4061 4.40266L10.0144 5.06982L9.60292 5.723L9.17571 6.36634L8.72838 6.99955L8.26548 7.62273L7.78867 8.23006L7.29227 8.82139L7.15959 8.97314L7.0331 8.53763C6.98159 8.36387 6.79962 8.26401 6.62753 8.31589C6.45531 8.36778 6.3564 8.55167 6.40792 8.7253L6.57406 9.29269H1.36281L1.38869 9.26277C1.39256 9.2568 1.39451 9.25486 1.39656 9.2528ZM17.3443 12.0095H14.3588C14.6419 11.8417 14.9109 11.6479 15.1622 11.4323C15.3145 11.3004 15.358 11.0866 15.273 10.9108L14.996 10.2676L14.7388 9.61629L14.4955 8.95523L14.272 8.28407L14.0701 7.61079L13.8762 6.93351L13.708 6.24853L13.5538 5.56137L13.4193 4.87018L13.3045 4.17298L13.2055 3.47594L13.1265 2.77472L13.067 2.07155L13.3183 2.6249C13.3203 2.62684 13.3203 2.63074 13.3223 2.63284L13.6646 3.33403C13.6665 3.336 13.6665 3.33991 13.6684 3.3421L14.0306 4.0372C14.0326 4.03917 14.0326 4.04308 14.0345 4.04514L14.4164 4.73024C14.4183 4.73233 14.4183 4.7343 14.4202 4.73624L14.8179 5.41155C14.8198 5.41546 14.822 5.41752 14.8239 5.42143L15.2412 6.08077C15.2433 6.08274 15.2433 6.08468 15.2453 6.08665L15.6785 6.73596C15.6805 6.73793 15.6825 6.74184 15.6844 6.74377L16.1375 7.38299C16.1395 7.38517 16.1416 7.38908 16.1416 7.38908L16.6083 8.01839C16.6103 8.02032 16.6124 8.02239 16.6143 8.02629L17.0971 8.64156C17.099 8.64353 17.101 8.64753 17.103 8.6495L17.6055 9.24889C17.6075 9.25083 17.6095 9.25486 17.6095 9.25486L18.0151 9.71628L17.3443 12.0095Z" />
	</symbol>

	<symbol id="fork" viewBox="0 0 13 19">
		<path d="M3.72883 4.40709V0.338953C3.72883 -0.109559 3.05078 -0.109898 3.05078 0.338953V4.40709C3.05078 4.8556 3.72883 4.85594 3.72883 4.40709Z" />
		<path d="M4.44124 17.2895C4.44124 16.164 4.32766 14.7449 4.20799 13.2424C4.07 11.5222 3.92795 9.74413 3.92795 8.1362C3.92795 7.945 4.16595 7.50292 4.83417 6.83677C5.03498 6.63648 5.19105 6.3959 5.29208 6.1309C5.39312 5.86589 5.43684 5.58248 5.42034 5.29935L5.06267 0.314528C5.03114 -0.129577 4.35411 -0.0855055 4.38665 0.363346L4.74432 5.34376C4.75448 5.53044 4.72513 5.71715 4.65818 5.89171C4.59123 6.06626 4.48819 6.22472 4.3558 6.35673C3.25024 7.45885 3.25024 7.96873 3.25024 8.1362C3.25024 9.77091 3.39365 11.5629 3.53197 13.2963C3.65131 14.7849 3.76352 16.1911 3.76352 17.2895C3.76352 18.0089 3.23804 18.3689 2.71221 18.3689C2.18672 18.3689 1.66089 18.0089 1.66089 17.2895C1.66089 16.1908 1.77311 14.7849 1.89245 13.2963C2.03043 11.5629 2.17384 9.77091 2.17384 8.1362C2.17384 7.96873 2.17384 7.45885 1.06828 6.35673C0.93573 6.22484 0.832589 6.06639 0.765628 5.89181C0.698667 5.71723 0.669401 5.53046 0.679752 5.34376L1.03742 0.363346C1.06997 -0.0855055 0.392937 -0.129577 0.361408 0.314528L0.00339709 5.29935C-0.0130988 5.58248 0.0306141 5.86589 0.131653 6.1309C0.232692 6.3959 0.388762 6.63648 0.589571 6.83677C1.25779 7.50292 1.49579 7.945 1.49579 8.1362C1.49579 9.74413 1.35373 11.5222 1.21609 13.2424C1.09607 14.7449 0.982502 16.164 0.982502 17.2895C0.982502 19.5711 4.44124 19.5694 4.44124 17.2895Z" />
		<path d="M2.37336 4.40715V0.339011C2.37336 -0.109501 1.69531 -0.10984 1.69531 0.339011V4.40715C1.69531 4.85566 2.37336 4.856 2.37336 4.40715ZM10.1709 18.9829C11.188 18.9829 11.9006 18.3731 11.9006 17.2896C11.9006 16.1641 11.7871 14.7446 11.6671 13.2421C11.5294 11.5223 11.387 9.74387 11.387 8.13627C11.387 7.94541 11.625 7.50334 12.2936 6.83684C12.493 6.63775 12.6482 6.39896 12.7494 6.13596C12.8505 5.87297 12.8951 5.59165 12.8804 5.31027C12.8767 3.43249 11.8488 0 10.1709 0C8.4931 0 7.46518 3.43249 7.46145 5.30994C7.44674 5.59131 7.49139 5.87264 7.5925 6.13564C7.6936 6.39864 7.8489 6.63743 8.0483 6.8365C8.71686 7.50334 8.95486 7.94507 8.95486 8.13593C8.95486 9.74353 8.81247 11.522 8.67516 13.2418C8.55481 14.7446 8.44123 16.1641 8.44123 17.2896C8.44123 18.3731 9.15386 18.9829 10.1709 18.9829ZM10.1709 0.678023C11.1789 0.678023 12.2024 3.37859 12.2024 5.31943L12.2031 5.33943C12.2137 5.52681 12.1845 5.71432 12.1176 5.88966C12.0506 6.06499 11.9474 6.22419 11.8145 6.3568C11.0707 7.0989 10.709 7.68098 10.709 8.13627C10.709 9.77099 10.8524 11.563 10.991 13.2964C11.11 14.785 11.2226 16.1912 11.2226 17.2896C11.2226 18.6711 9.11962 18.6704 9.11962 17.2896C9.11962 16.1912 9.23218 14.785 9.35118 13.2964C9.4895 11.563 9.63291 9.77099 9.63291 8.13627C9.63291 7.68098 9.27151 7.0989 8.52735 6.3568C8.3944 6.22428 8.29105 6.0651 8.22408 5.88974C8.15711 5.71438 8.12806 5.52683 8.13882 5.33943L8.1395 5.31943C8.1395 3.37859 9.16302 0.678023 10.1709 0.678023Z" />
	</symbol>

	<symbol id="flag" viewBox="0 0 13 20">
		<path d="M0.375326 11.1912C0.275796 11.1912 0.180348 11.1517 0.109966 11.0813C0.0395837 11.0109 2.98481e-05 10.9155 0 10.816V1.68142C9.38383e-06 1.62085 0.0146796 1.56117 0.0427583 1.5075C0.0708369 1.45383 0.11149 1.40775 0.161244 1.3732C0.210998 1.33864 0.268376 1.31665 0.328477 1.30909C0.388577 1.30153 0.449615 1.30862 0.506377 1.32977L12.7558 5.89704C12.8275 5.92377 12.8893 5.97178 12.933 6.03463C12.9766 6.09748 13 6.17217 13 6.24869C13 6.32521 12.9766 6.3999 12.933 6.46275C12.8893 6.5256 12.8275 6.5736 12.7558 6.60033L0.506377 11.1676C0.464454 11.1832 0.420071 11.1912 0.375326 11.1912ZM0.750578 2.22187V10.2755L11.5505 6.24869L0.750578 2.22187Z" />
		<path d="M0.375289 19.2148C0.168017 19.2148 0 19.0467 0 18.8395V0.375289C0 0.168054 0.168017 0 0.375289 0C0.582561 0 0.750578 0.168054 0.750578 0.375289V18.8395C0.750578 19.0467 0.582561 19.2148 0.375289 19.2148Z" />
	</symbol>

	<symbol id="loc-marker" viewBox="0 0 71 100">
		<path d="M16.7286 78.6852C24.8851 90.5486 32.9212 98.8393 33.2593 99.1864C33.5105 99.4443 33.8088 99.6489 34.137 99.7886C34.4653 99.9281 34.8171 100 35.1724 100C35.5277 100 35.8795 99.9281 36.2078 99.7885C36.536 99.6489 36.8343 99.4443 37.0855 99.1863C37.4236 98.8393 45.4597 90.5486 53.6162 78.6852C58.4309 71.6824 62.274 64.8934 65.0388 58.5066C68.5596 50.3732 70.3449 42.8382 70.3449 36.1111C70.3449 31.2373 69.4146 26.508 67.5797 22.0542C65.8081 17.7538 63.2724 13.8922 60.0431 10.5767C56.8138 7.26121 53.0526 4.65787 48.864 2.83892C44.526 0.955128 39.9195 0 35.1724 0C30.4254 0 25.8189 0.955164 21.4809 2.83892C17.2923 4.65787 13.5311 7.26125 10.3018 10.5767C7.07243 13.8922 4.53679 17.7538 2.76513 22.0542C0.930302 26.5079 0 31.2373 0 36.1111C0 42.8382 1.78523 50.3732 5.30611 58.5066C8.0709 64.8934 11.914 71.6824 16.7286 78.6852Z" />
	</symbol>

	<symbol id="air" viewBox="0 0 31 27">
		<path d="M0 23.8485H30.3486V26.0162H0V23.8485ZM18.7728 7.56858L17.0549 2.43099L12.6001 1.18994L13.5214 6.10534L18.7728 7.56858Z" />
		<path d="M4.37044 11.075L11.9197 13.1777L7.90389 17.4753L12.3532 18.7163L17.3282 14.6843L26.3299 17.1935C26.5184 17.2462 26.7156 17.2613 26.91 17.2378C27.1045 17.2144 27.2923 17.1528 27.463 17.0567C27.6336 16.9605 27.7836 16.8317 27.9044 16.6776C28.0252 16.5235 28.1145 16.347 28.167 16.1584C28.1995 16.05 28.2104 15.9362 28.2158 15.8224L23.3221 14.4621C22.922 14.3496 22.5625 14.125 22.286 13.8149C22.0094 13.5047 21.8274 13.1219 21.7613 12.7116L21.2356 9.37868L6.66826 5.31413L5.85535 1.11951C5.83724 1.02563 5.79308 0.938739 5.72791 0.868778C5.66274 0.798817 5.5792 0.748608 5.48683 0.723893L2.96139 0.0193695C2.88614 -0.00196131 2.80699 -0.00573266 2.73004 0.00834597C2.6531 0.0224246 2.58042 0.0539776 2.51759 0.100574C2.45476 0.147171 2.40347 0.207567 2.36767 0.277111C2.33186 0.346655 2.31249 0.42349 2.31106 0.501697L2.11055 8.02383C2.09159 8.71113 2.30329 9.38499 2.71189 9.93798C3.12049 10.491 3.70246 10.8912 4.36502 11.075H4.37044Z" />
		<path d="M23.6169 13.4214L27.8278 14.592L27.172 13.2209C26.7919 12.4291 26.2471 11.7276 25.5743 11.1632C24.9014 10.5987 24.1159 10.1843 23.2701 9.94754L22.3867 9.69824L22.8365 12.5489C22.9016 12.9661 23.205 13.3076 23.6169 13.4214Z" />
	</symbol>

	<symbol id="car" viewBox="0 0 40 14">
		<path d="M38.5954 5.61367C36.3786 4.56422 33.1937 3.90124 28.577 3.52703C24.9813 1.34686 22.012 0.224163 19.2419 0.000470484H19.185C19.1646 0.000470484 17.2773 0.0289236 13.9541 0.000470484C11.0824 -0.0320694 7.62089 1.63155 5.96537 2.42477C5.65216 2.57937 5.37965 2.70953 5.27394 2.74608C5.03799 2.83152 4.08616 2.96167 2.12559 3.07556C1.369 3.12029 0.779198 3.74263 0.779198 4.49922V5.82935C0.779198 5.90252 0.742571 5.9676 0.673482 6.00831C0.152844 6.3378 -0.103465 6.95606 0.0389549 7.54586L0.563679 9.80746C0.714195 10.4502 1.27956 10.9016 1.93853 10.9098L4.96072 10.9464C5.44473 12.2725 6.71788 13.2283 8.21479 13.2283C9.67908 13.2283 10.9319 12.309 11.4403 11.0196L30.1633 11.2392C30.7206 12.4106 31.9124 13.2282 33.2953 13.2282C34.6498 13.2282 35.8212 12.4432 36.3907 11.3083L37.7493 11.3246H37.7697C38.7337 11.3246 39.4537 10.4297 39.2421 9.48599C39.0998 8.8392 39.1445 8.1844 39.3845 7.42372C39.6083 6.71602 39.2707 5.93915 38.5954 5.61367ZM19.1728 1.22071C21.2595 1.39151 23.4926 2.13183 26.0917 3.51485L18.0827 3.50668L17.5092 1.2329C18.4651 1.22889 19.0386 1.2248 19.1728 1.22071ZM10.993 2.30679L11.4567 1.58274C12.2864 1.36313 13.1244 1.22071 13.8931 1.22071H13.946C14.8408 1.22889 15.6259 1.2329 16.3052 1.2329C16.2645 1.45659 16.3174 1.41996 16.8258 3.50668L11.6437 3.50259C11.359 3.50259 11.1027 3.35207 10.9645 3.09993C10.8262 2.84778 10.8384 2.55084 10.993 2.30679ZM8.21486 12.0079C6.97426 12.0079 5.96553 10.9992 5.96553 9.76258C5.96553 8.52198 6.97426 7.51324 8.21486 7.51324C9.45138 7.51324 10.4602 8.52198 10.4602 9.76258C10.4602 10.9992 9.45138 12.0079 8.21486 12.0079ZM33.2954 12.0079C32.0589 12.0079 31.0501 10.9992 31.0501 9.76258C31.0501 8.52198 32.0589 7.51324 33.2954 7.51324C34.5319 7.51324 35.5407 8.52198 35.5407 9.76258C35.5407 10.9992 34.532 12.0079 33.2954 12.0079Z" />
	</symbol>

	<symbol id="ok" viewBox="0 0 15 15">
		<path d="M7.5 0C6.01664 0 4.56659 0.439867 3.33323 1.26398C2.09986 2.08809 1.13856 3.25943 0.570907 4.62987C0.00324963 6.00032 -0.145275 7.50832 0.144114 8.96317C0.433503 10.418 1.14781 11.7544 2.1967 12.8033C3.2456 13.8522 4.58197 14.5665 6.03683 14.8559C7.49168 15.1453 8.99968 14.9967 10.3701 14.4291C11.7406 13.8614 12.9119 12.9001 13.736 11.6668C14.5601 10.4334 15 8.98336 15 7.5C15 6.51508 14.806 5.53981 14.4291 4.62987C14.0522 3.71993 13.4997 2.89314 12.8033 2.1967C12.1069 1.50026 11.2801 0.947814 10.3701 0.570903C9.46019 0.193993 8.48492 0 7.5 0ZM11.0325 6.5325L7.2825 10.2825C7.21278 10.3528 7.12983 10.4086 7.03843 10.4467C6.94704 10.4847 6.84901 10.5043 6.75 10.5043C6.65099 10.5043 6.55296 10.4847 6.46157 10.4467C6.37018 10.4086 6.28722 10.3528 6.2175 10.2825L3.9675 8.0325C3.89757 7.96257 3.8421 7.87955 3.80426 7.78818C3.76641 7.69682 3.74693 7.59889 3.74693 7.5C3.74693 7.30027 3.82627 7.10873 3.9675 6.9675C4.10873 6.82627 4.30028 6.74693 4.5 6.74693C4.69973 6.74693 4.89127 6.82627 5.0325 6.9675L6.75 8.6925L9.9675 5.4675C10.1087 5.32627 10.3003 5.24693 10.5 5.24693C10.6997 5.24693 10.8913 5.32627 11.0325 5.4675C11.1737 5.60873 11.2531 5.80027 11.2531 6C11.2531 6.19972 11.1737 6.39127 11.0325 6.5325Z"/>
	</symbol>

	<symbol id="not" viewBox="0 0 15 15">
		<path d="M7.5 0C3.36434 0 0 3.36434 0 7.5C0 11.6357 3.36434 15 7.5 15C11.6357 15 15 11.6357 15 7.5C15 3.36434 11.6357 0 7.5 0ZM10.2619 9.37808C10.5062 9.62253 10.5062 10.0175 10.2619 10.2619C10.2039 10.32 10.135 10.3661 10.0592 10.3975C9.98334 10.429 9.90203 10.4451 9.81993 10.445C9.65997 10.445 9.49998 10.3838 9.37808 10.2619L7.5 8.38371L5.62192 10.2619C5.56396 10.3201 5.49508 10.3661 5.41925 10.3976C5.34342 10.429 5.26212 10.4451 5.18004 10.445C5.09795 10.4451 5.01664 10.429 4.9408 10.3976C4.86496 10.3661 4.79607 10.3201 4.7381 10.2619C4.49376 10.0175 4.49376 9.62253 4.7381 9.37808L6.61629 7.5L4.73807 5.62192C4.49373 5.37747 4.49373 4.98252 4.73807 4.7381C4.98252 4.49376 5.37747 4.49376 5.62192 4.7381L7.5 6.61629L9.37808 4.73807C9.62253 4.49373 10.0175 4.49373 10.2619 4.73807C10.5062 4.98252 10.5062 5.37747 10.2619 5.62192L8.38371 7.5L10.2619 9.37808Z" />
	</symbol>

	<symbol id="calendar" viewBox="0 0 18 20">
		<path d="M0.482143 7.5H17.5179C17.783 7.5 18 7.71094 18 7.96875V18.125C18 19.1602 17.1362 20 16.0714 20H1.92857C0.863839 20 0 19.1602 0 18.125V7.96875C0 7.71094 0.216964 7.5 0.482143 7.5ZM18 5.78125V4.375C18 3.33984 17.1362 2.5 16.0714 2.5H14.1429V0.46875C14.1429 0.210938 13.9259 0 13.6607 0H12.0536C11.7884 0 11.5714 0.210938 11.5714 0.46875V2.5H6.42857V0.46875C6.42857 0.210938 6.21161 0 5.94643 0H4.33929C4.07411 0 3.85714 0.210938 3.85714 0.46875V2.5H1.92857C0.863839 2.5 0 3.33984 0 4.375V5.78125C0 6.03906 0.216964 6.25 0.482143 6.25H17.5179C17.783 6.25 18 6.03906 18 5.78125Z" />
	</symbol>

	<symbol id="chat" viewBox="0 0 30 30">
		<path d="M12.2148 5.62598C5.50127 5.62598 0.0535193 11.0832 0.0535193 17.7875C0.0535193 19.5316 0.409826 21.21 1.12244 22.7947L0.0160133 28.8989C-0.0402457 29.1989 0.0535193 29.5084 0.269179 29.7334C0.447332 29.9116 0.691121 30.0053 0.93491 30.0053C0.99117 30.0053 1.04743 30.0053 1.10369 29.9866L7.20779 28.8801C8.79242 29.5928 10.4708 29.9585 12.2148 29.9585C18.919 29.9585 24.3762 24.5012 24.3762 17.7875C24.3762 11.0832 18.919 5.62598 12.2148 5.62598ZM6.56081 19.9723C6.31108 19.9779 6.06273 19.9336 5.83036 19.842C5.59798 19.7503 5.38626 19.6132 5.20762 19.4386C5.02898 19.264 4.88702 19.0554 4.79008 18.8252C4.69314 18.595 4.64318 18.3477 4.64311 18.0979C4.64305 17.8481 4.6929 17.6008 4.78972 17.3705C4.88654 17.1403 5.0284 16.9317 5.20695 16.757C5.3855 16.5823 5.59716 16.445 5.82949 16.3532C6.06182 16.2615 6.31014 16.217 6.55987 16.2226C7.04985 16.2334 7.51612 16.4356 7.85887 16.7859C8.20161 17.1363 8.39359 17.6069 8.39371 18.097C8.39384 18.5871 8.20209 19.0578 7.85952 19.4083C7.51695 19.7588 7.05079 19.9612 6.56081 19.9723ZM12.1867 19.9723C11.937 19.9779 11.6886 19.9336 11.4563 19.842C11.2239 19.7503 11.0122 19.6132 10.8335 19.4386C10.6549 19.264 10.5129 19.0554 10.416 18.8252C10.319 18.595 10.2691 18.3477 10.269 18.0979C10.269 17.8481 10.3188 17.6008 10.4156 17.3705C10.5124 17.1403 10.6543 16.9317 10.8329 16.757C11.0114 16.5823 11.2231 16.445 11.4554 16.3532C11.6877 16.2615 11.936 16.217 12.1858 16.2226C12.6758 16.2334 13.142 16.4356 13.4848 16.7859C13.8275 17.1363 14.0195 17.6069 14.0196 18.097C14.0197 18.5871 13.828 19.0578 13.4854 19.4083C13.1429 19.7588 12.6767 19.9612 12.1867 19.9723ZM17.8126 19.9723C17.5629 19.9779 17.3145 19.9336 17.0822 19.842C16.8498 19.7503 16.6381 19.6132 16.4594 19.4386C16.2808 19.264 16.1388 19.0554 16.0419 18.8252C15.9449 18.595 15.895 18.3477 15.8949 18.0979C15.8949 17.8481 15.9447 17.6008 16.0415 17.3705C16.1383 17.1403 16.2802 16.9317 16.4588 16.757C16.6373 16.5823 16.849 16.445 17.0813 16.3532C17.3136 16.2615 17.5619 16.217 17.8117 16.2226C18.3017 16.2334 18.7679 16.4356 19.1107 16.7859C19.4534 17.1363 19.6454 17.6069 19.6455 18.097C19.6456 18.5871 19.4539 19.0578 19.1113 19.4083C18.7688 19.7588 18.3026 19.9612 17.8126 19.9723Z" />
		<path d="M29.732 22.2321C29.5539 22.4103 29.3101 22.504 29.0663 22.504C29.01 22.504 28.9538 22.504 28.8975 22.4853L25.6439 21.8945C26.0377 20.5912 26.2533 19.2128 26.2533 17.7876C26.2533 10.0518 19.9523 3.75067 12.2167 3.75067C11.5416 3.75067 10.8853 3.79755 10.2383 3.89132C12.348 1.46276 15.4329 0 18.724 0C24.9219 0 29.9571 5.03528 29.9571 11.2239C29.9571 12.8273 29.6289 14.3744 28.9725 15.8278L29.9852 21.3976C30.0415 21.6976 29.9477 22.0071 29.732 22.2321Z" />
	</symbol>

	<symbol id="search" viewBox="0 0 16 16">
		<path d="M15.7567 14.5735L11.8125 10.6129C12.8266 9.44901 13.3823 7.98455 13.3823 6.45999C13.3823 2.89801 10.3806 0 6.69113 0C3.0017 0 0 2.89801 0 6.45999C0 10.022 3.0017 12.92 6.69113 12.92C8.07619 12.92 9.39609 12.5167 10.5246 11.751L14.4988 15.7416C14.6649 15.9082 14.8883 16 15.1278 16C15.3544 16 15.5694 15.9166 15.7326 15.7649C16.0794 15.4428 16.0904 14.9085 15.7567 14.5735ZM6.69113 1.68522C9.4182 1.68522 11.6367 3.82713 11.6367 6.45999C11.6367 9.09286 9.4182 11.2348 6.69113 11.2348C3.96406 11.2348 1.74551 9.09286 1.74551 6.45999C1.74551 3.82713 3.96406 1.68522 6.69113 1.68522Z" />
	</symbol>

	<symbol id="king" viewBox="0 0 16 10">
		<path d="M15.3705 3.14389C15.3732 3.18548 15.3692 3.22723 15.3586 3.26772L14.3717 6.93439C14.3475 7.02417 14.2918 7.10392 14.2134 7.16107C14.1351 7.21821 14.0384 7.2495 13.9388 7.25L8.01729 7.27778H2.09346C1.99335 7.27777 1.89612 7.24665 1.81724 7.18939C1.73837 7.13213 1.68238 7.05201 1.6582 6.96178L0.671282 3.28122C0.660335 3.23965 0.656361 3.19676 0.659499 3.15406C0.277712 3.04233 0 2.7105 0 2.31944C0 1.83694 0.422579 1.44444 0.942056 1.44444C1.46153 1.44444 1.88411 1.83694 1.88411 2.31944C1.88411 2.59117 1.75007 2.83428 1.54019 2.99489L2.77581 4.15122C3.08809 4.4435 3.52144 4.61106 3.96477 4.61106C4.48897 4.61106 4.98877 4.37983 5.30351 3.99244L7.33416 1.49333C7.24653 1.41225 7.17702 1.31589 7.12961 1.20977C7.08221 1.10366 7.05785 0.989886 7.05794 0.875C7.05794 0.3925 7.48052 0 8 0C8.51948 0 8.94206 0.3925 8.94206 0.875C8.94206 1.109 8.84205 1.32139 8.68037 1.47856C8.68091 1.47922 8.68157 1.47978 8.68211 1.4805L10.698 3.9865C11.0127 4.37761 11.5143 4.61111 12.04 4.61111C12.4874 4.61111 12.9081 4.44928 13.2244 4.15539L14.4678 3.0005C14.2535 2.83994 14.1159 2.5945 14.1159 2.31944C14.1159 1.83694 14.5385 1.44444 15.0579 1.44444C15.5774 1.44444 16 1.83694 16 2.31944C16 2.70006 15.7365 3.02378 15.3705 3.14389ZM14.2754 8.58333C14.2754 8.47283 14.2281 8.36685 14.144 8.28871C14.0599 8.21057 13.9458 8.16667 13.8268 8.16667H2.22307C2.1041 8.16667 1.98999 8.21057 1.90587 8.28871C1.82174 8.36685 1.77447 8.47283 1.77447 8.58333V9.58333C1.77447 9.69384 1.82174 9.79982 1.90587 9.87796C1.98999 9.9561 2.1041 10 2.22307 10H13.8268C13.9458 10 14.0599 9.9561 14.144 9.87796C14.2281 9.79982 14.2754 9.69384 14.2754 9.58333V8.58333Z" />
	</symbol>

	<symbol id="hot" viewBox="0 0 10 14">
		<path d="M8.81487 5.31361C8.7774 5.2663 8.73199 5.2756 8.7082 5.28525C8.68826 5.2934 8.64257 5.31943 8.64889 5.38467C8.65649 5.46301 8.66075 5.54288 8.66156 5.6221C8.66495 5.95071 8.53416 6.27266 8.30275 6.50538C8.07281 6.7366 7.77037 6.86118 7.44835 6.85757C7.00848 6.85191 6.64365 6.62066 6.39328 6.18882C6.18626 5.83174 6.27725 5.37119 6.37358 4.88357C6.42996 4.59816 6.48826 4.30301 6.48826 4.02211C6.48826 1.83492 5.02942 0.573068 4.15983 0.0155585C4.14184 0.00404686 4.12472 0 4.10956 0C4.0849 0 4.06536 0.0107187 4.05573 0.0172812C4.03707 0.0300233 4.0072 0.0590623 4.0168 0.110468C4.34919 1.8895 3.35778 2.95948 2.30816 4.09228C1.22626 5.25993 0 6.58339 0 8.97027C0 11.7437 2.23861 14 4.99025 14C7.25584 14 9.25338 12.4079 9.84783 10.1284C10.2532 8.57412 9.82841 6.59422 8.81487 5.31361ZM5.11474 12.9264C4.42572 12.9581 3.77044 12.709 3.26994 12.2267C2.77481 11.7495 2.49082 11.0835 2.49082 10.3995C2.49082 9.11599 2.97774 8.17373 4.28736 6.92281C4.30879 6.90233 4.33074 6.89585 4.34987 6.89585C4.3672 6.89585 4.38223 6.90118 4.39257 6.90618C4.41435 6.91677 4.45016 6.94296 4.44533 6.99962C4.39851 7.54881 4.39932 8.00466 4.44772 8.35455C4.57143 9.24828 5.22054 9.84877 6.06304 9.84877C6.4761 9.84877 6.86955 9.69209 7.17093 9.40758C7.18256 9.39631 7.19676 9.38808 7.21228 9.38362C7.22779 9.37915 7.24416 9.37858 7.25994 9.38196C7.27977 9.38628 7.30633 9.39853 7.32025 9.43235C7.4452 9.73644 7.50907 10.0592 7.51004 10.3917C7.51403 11.7295 6.43951 12.8666 5.11474 12.9264Z" />
	</symbol>

	<symbol id="next" viewBox="0 0 17 8">
		<path d="M16.3536 4.03544C16.5488 3.84018 16.5488 3.52359 16.3536 3.32833L13.1716 0.146351C12.9763 -0.0489113 12.6597 -0.0489113 12.4645 0.146351C12.2692 0.341613 12.2692 0.658195 12.4645 0.853458L15.2929 3.68188L12.4645 6.51031C12.2692 6.70557 12.2692 7.02216 12.4645 7.21742C12.6597 7.41268 12.9763 7.41268 13.1716 7.21742L16.3536 4.03544ZM0 3.68188L0 4.18188L16 4.18188V3.68188V3.18188L0 3.18188L0 3.68188Z" />
	</symbol>

	<symbol id="arrow" viewBox="0 0 15 8">
		<path d="M8.03535 7.78764L14.7786 1.25367C15.0738 0.966969 15.0738 0.502459 14.7786 0.215028C14.4833 -0.0716782 14.0038 -0.0716782 13.7085 0.215028L7.50037 6.23073L1.2922 0.215753C0.99696 -0.0709534 0.517415 -0.0709534 0.221429 0.215753C-0.07381 0.502459 -0.07381 0.967692 0.221429 1.2544L6.96458 7.78836C7.25677 8.07067 7.74385 8.07067 8.03535 7.78764Z" />
	</symbol>

</svg>

