<svg 
 xmlns="http://www.w3.org/2000/svg"
 xmlns:xlink="http://www.w3.org/1999/xlink"
 width="221px" height="42px">
<defs>
<linearGradient id="PSgrad_0" x1="0%" x2="99.619%" y1="8.716%" y2="0%">
  <stop offset="0%" stop-color="rgb(125,91,40)" stop-opacity="1" />
  <stop offset="50%" stop-color="rgb(242,220,150)" stop-opacity="1" />
  <stop offset="100%" stop-color="rgb(158,118,55)" stop-opacity="1" />
</linearGradient>

</defs>
<path fill-rule="evenodd"  fill="url(#PSgrad_0)"
 d="M215.284,16.087 L215.284,30.492 L210.018,30.492 L210.018,16.087 L204.317,16.087 L204.317,11.466 L220.985,11.466 L220.985,16.087 L215.284,16.087 ZM197.262,30.492 L193.434,24.730 L191.127,24.730 L191.127,30.492 L185.860,30.492 L185.860,11.466 L194.846,11.466 C197.750,11.466 199.759,12.227 201.035,13.504 C202.148,14.619 202.718,16.087 202.718,18.016 C202.718,20.925 201.171,22.855 198.809,23.859 L203.343,30.492 L197.262,30.492 ZM194.574,16.032 L191.127,16.032 L191.127,20.598 L194.601,20.598 C196.393,20.598 197.425,19.729 197.425,18.288 C197.425,16.793 196.339,16.032 194.574,16.032 ZM176.986,27.095 L169.657,27.095 L168.299,30.492 L162.761,30.492 L170.851,11.330 L175.927,11.330 L184.017,30.492 L178.371,30.492 L176.986,27.095 ZM173.349,17.581 L171.204,22.990 L175.466,22.990 L173.349,17.581 ZM158.719,30.492 L153.452,30.492 L153.452,16.087 L147.751,16.087 L147.751,11.466 L164.420,11.466 L164.420,16.087 L158.719,16.087 L158.719,30.492 ZM146.804,24.621 C146.804,28.508 143.736,30.818 139.121,30.818 C135.755,30.818 132.551,29.758 130.217,27.665 L133.149,24.159 C135.022,25.654 137.112,26.443 139.311,26.443 C140.723,26.443 141.483,25.953 141.483,25.083 C141.483,24.295 140.858,23.859 138.279,23.262 C134.235,22.338 131.113,21.197 131.113,17.228 C131.113,13.695 133.909,11.140 138.469,11.140 C141.700,11.140 144.225,12.010 146.288,13.667 L143.655,17.391 C141.917,16.168 140.017,15.516 138.334,15.516 C137.058,15.516 136.433,16.059 136.433,16.793 C136.433,17.663 137.085,18.043 139.718,18.641 C144.089,19.593 146.804,21.006 146.804,24.621 ZM125.523,30.492 L119.035,21.930 L116.076,24.975 L116.076,30.492 L112.737,30.492 L112.737,11.466 L116.076,11.466 L116.076,21.033 L125.116,11.466 L129.215,11.466 L121.316,19.647 L129.568,30.492 L125.523,30.492 ZM101.637,27.747 C103.972,27.747 105.465,26.795 107.094,25.273 L109.238,27.448 C107.257,29.514 105.085,30.818 101.529,30.818 C95.991,30.818 91.864,26.497 91.864,20.979 C91.864,15.570 95.909,11.140 101.664,11.140 C105.166,11.140 107.284,12.363 109.103,14.102 L106.958,16.576 C105.438,15.162 103.809,14.211 101.637,14.211 C98.000,14.211 95.366,17.201 95.366,20.979 C95.366,24.703 98.000,27.747 101.637,27.747 ZM78.702,30.818 C72.865,30.818 68.793,26.388 68.793,20.979 C68.793,15.624 72.919,11.140 78.756,11.140 C84.593,11.140 88.665,15.570 88.665,20.979 C88.665,26.334 84.538,30.818 78.702,30.818 ZM78.702,14.211 C74.928,14.211 72.295,17.228 72.295,20.979 C72.295,24.675 74.982,27.747 78.756,27.747 C82.529,27.747 85.163,24.730 85.163,20.979 C85.163,17.282 82.475,14.211 78.702,14.211 ZM62.199,30.492 L57.476,23.859 L53.349,23.859 L53.349,30.492 L50.010,30.492 L50.010,11.466 L58.480,11.466 C62.932,11.466 65.538,13.858 65.538,17.527 C65.538,20.653 63.665,22.529 61.005,23.289 L66.136,30.492 L62.199,30.492 ZM62.145,17.663 C62.145,15.624 60.679,14.510 58.209,14.510 L53.349,14.510 L53.349,20.898 L58.236,20.898 C60.625,20.898 62.145,19.647 62.145,17.663 ZM17.890,41.997 L17.014,41.621 C16.319,41.324 0.002,34.182 0.002,22.001 L0.002,7.182 L0.707,6.501 C0.981,6.235 7.545,0.001 17.890,0.001 C28.236,0.001 34.796,6.235 35.073,6.501 L35.779,7.182 L35.779,22.001 C35.779,34.182 19.462,41.324 18.767,41.621 L17.890,41.997 ZM31.260,9.251 C29.512,7.878 24.631,4.604 17.890,4.604 C11.096,4.604 6.258,7.868 4.521,9.242 L4.521,22.001 C4.521,29.785 14.785,35.432 17.890,36.965 C20.996,35.432 31.260,29.785 31.260,22.001 L31.260,9.251 ZM13.926,26.510 C12.312,26.366 10.854,26.354 10.854,26.354 C11.045,25.949 11.165,25.546 11.238,25.167 C10.956,24.996 10.766,24.681 10.766,24.324 C10.766,23.950 10.966,23.626 11.265,23.458 C11.137,22.623 10.854,22.085 10.854,22.085 L7.393,13.489 C7.393,13.489 10.472,14.704 10.425,17.415 C10.679,17.020 11.108,16.657 11.784,16.349 C11.784,16.349 10.713,17.279 11.946,18.848 C13.013,20.206 11.783,20.861 11.434,21.014 C11.558,21.148 11.696,21.289 11.849,21.425 C14.757,23.670 16.658,21.073 17.030,20.491 C17.047,20.453 17.060,20.414 17.075,20.379 C16.856,20.374 15.187,20.277 15.710,18.521 C16.273,16.644 14.919,16.131 14.919,16.131 C15.743,16.197 16.315,16.432 16.703,16.755 C15.545,14.200 18.023,11.993 18.023,11.993 C18.023,11.993 20.447,14.152 19.382,16.669 C19.767,16.390 20.304,16.189 21.055,16.131 C21.055,16.131 19.701,16.644 20.264,18.521 C20.752,20.148 19.351,20.350 18.971,20.377 C18.985,20.413 19.000,20.453 19.015,20.491 C19.389,21.073 21.290,23.670 24.198,21.425 C24.349,21.289 24.487,21.148 24.612,21.014 C24.263,20.861 23.033,20.206 24.100,18.848 C25.334,17.279 24.259,16.349 24.259,16.349 C24.940,16.657 25.369,17.020 25.622,17.415 C25.576,14.704 28.655,13.489 28.655,13.489 L25.194,22.085 C25.194,22.085 24.914,22.612 24.785,23.430 C25.113,23.589 25.340,23.928 25.340,24.324 C25.340,24.706 25.127,25.035 24.816,25.197 C24.887,25.570 25.007,25.962 25.194,26.354 C25.194,26.354 23.700,26.366 22.065,26.516 L20.490,28.112 L15.506,28.112 L13.926,26.510 Z"/>
</svg>