<svg xmlns="http://www.w3.org/2000/svg">
	<symbol id="curve-line-1" fill="none" viewBox="0 0 156 155">
		<path d="M0.999992 155L0.999992 141.5C0.999993 122.446 16.4462 107 35.5 107V107C54.5538 107 70 91.5538 70 72.5L70 59" stroke="#246EDE"/>
		<path d="M155 155L155 141.5C155 122.446 139.554 107 120.5 107V107C101.446 107 86 91.5538 86 72.5L86 59" stroke="#246EDE"/>
		<circle opacity="0.1" cx="76.5" cy="42.5" r="42.5" fill="#246EDE"/>
	</symbol>

	<symbol id="curve-line-2" fill="none" viewBox="0 0 277 155">
		<path d="M276 112V112C276 97.3644 264.136 85.5 249.5 85.5L192.5 85.5C177.864 85.5 166 73.6355 166 59V59" stroke="#246EDE"/>
		<path d="M60 155L60 141.5C60 122.446 75.4462 107 94.5 107V107C113.554 107 129 91.5538 129 72.5L129 59" stroke="#246EDE"/>
		<path d="M214 155L214 141.5C214 122.446 198.554 107 179.5 107V107C160.446 107 145 91.5538 145 72.5L145 59" stroke="#246EDE"/>
		<path d="M0.999999 112V112C0.999999 97.3644 12.8645 85.5 27.5 85.5L84.5 85.5C99.1355 85.5 111 73.6355 111 59V59" stroke="#246EDE"/>
		<circle opacity="0.1" cx="137.5" cy="42.5" r="42.5" fill="#246EDE"/>
	</symbol>

	<symbol id="curve-line-3" fill="none" viewBox="0 0 327 151">
		<path d="M326 108V108C326 93.3644 314.136 81.5 299.5 81.5L222.5 81.5C207.864 81.5 196 69.6355 196 55V55" stroke="#246EDE"/>
		<path d="M68 151L68 138C68 118.67 83.67 103 103 103L117 103C136.33 103 152 87.33 152 68L152 55" stroke="#246EDE"/>
		<path d="M256 151L256 138C256 118.67 240.33 103 221 103L207 103C187.67 103 172 87.33 172 68L172 55" stroke="#246EDE"/>
		<path d="M1 108V108C1 93.3644 12.8645 81.5 27.5 81.5L104.5 81.5C119.136 81.5 131 69.6355 131 55V55" stroke="#246EDE"/>
		<path d="M162 151V55" stroke="#246EDE"/>
		<circle opacity="0.1" cx="164.5" cy="42.5" r="42.5" fill="#246EDE"/>
	</symbol>
</svg>