<svg width="675" height="526" fill="none" xmlns="http://www.w3.org/2000/svg"><g opacity=".1"><rect x="325.9" y="52.8" width="163.1" height="87" rx="10" fill="#E6E7E8"/><path d="M390 68.8c0-.8.6-1.5 1.4-1.5H409a1.5 1.5 0 1 1 0 3h-17.7a1.5 1.5 0 0 1-1.5-1.5zm-38.5 0c0-.8.6-1.5 1.4-1.5h13.8a1.5 1.5 0 1 1 0 3H353a1.5 1.5 0 0 1-1.4-1.5zm21.2 0c0-.8.6-1.5 1.4-1.5h9.4a1.5 1.5 0 1 1 0 3h-9.4a1.5 1.5 0 0 1-1.4-1.5z" fill="#E6E7E8"/><path d="M414.6 68.8c0-.8.6-1.5 1.4-1.5h11.4a1.5 1.5 0 1 1 0 3H416a1.5 1.5 0 0 1-1.4-1.5z" fill="#fff"/><path d="M372.2 97.9c0-.8.6-1.5 1.4-1.5h16.8a1.5 1.5 0 1 1 0 3h-16.8a1.5 1.5 0 0 1-1.4-1.5zm4.9 5c0-.9.7-1.6 1.5-1.6h11.8a1.5 1.5 0 1 1 0 3h-11.8a1.5 1.5 0 0 1-1.5-1.5zm-42.4-5c0-.8.7-1.5 1.5-1.5h12.3a1.5 1.5 0 1 1 0 3h-12.3a1.5 1.5 0 0 1-1.5-1.5zm18.7 0c0-.8.7-1.5 1.5-1.5h12.3a1.5 1.5 0 1 1 0 3H355a1.5 1.5 0 0 1-1.5-1.5zm-18.7 5c0-.9.7-1.6 1.5-1.6h21.2a1.5 1.5 0 0 1 0 3h-21.2a1.5 1.5 0 0 1-1.5-1.5zm27.6 0c0-.9.7-1.6 1.5-1.6h8.4a1.5 1.5 0 1 1 0 3h-8.4a1.5 1.5 0 0 1-1.5-1.5zm-27.6 4.8c0-.8.7-1.4 1.5-1.4h9.3a1.5 1.5 0 1 1 0 3h-9.3a1.5 1.5 0 0 1-1.5-1.6zm15.8 0c0-.8.6-1.4 1.5-1.4h8.3a1.5 1.5 0 1 1 0 3H352a1.5 1.5 0 0 1-1.5-1.6zm14.8 0c0-.8.6-1.4 1.4-1.4h7.4a1.5 1.5 0 0 1 0 3h-7.4a1.5 1.5 0 0 1-1.4-1.6zm13.8 0c0-.8.6-1.4 1.4-1.4h9.9a1.5 1.5 0 1 1 0 3h-9.9a1.5 1.5 0 0 1-1.4-1.6z" fill="#E6E7E8"/><rect x="468" y="61.4" width="2.9" height="2.9" rx="1.5" stroke="#fff"/><circle cx="339.6" cy="68.3" r="4.4" stroke="#fff"/><path d="M477.3 61.4l-3 3m0-3l3 3m-12.8-1.5h-3.4" stroke="#fff"/><path d="M414.6 94.6a10 10 0 0 1 10-10H468a10 10 0 0 1 10 10v20.9a10 10 0 0 1-10 10h-43.5a10 10 0 0 1-10-10v-21zm-79.9 26.7a4.7 4.7 0 0 1 4.7-4.7h26.1a4.7 4.7 0 0 1 0 9.4h-26.1a4.7 4.7 0 0 1-4.7-4.7zm0-34.5c0-1.2 1-2.2 2.2-2.2h22.2a2.2 2.2 0 0 1 0 4.4h-22.2a2.2 2.2 0 0 1-2.2-2.2zm49.4 0c0-1.2 1-2.2 2.2-2.2h12.8a2.2 2.2 0 0 1 0 4.4h-12.8a2.2 2.2 0 0 1-2.2-2.2zm-19.8 0c0-1.2 1-2.2 2.2-2.2h12.4a2.2 2.2 0 0 1 0 4.4h-12.4a2.2 2.2 0 0 1-2.2-2.2z" fill="#fff"/></g><g opacity=".1"><rect x="33.3" y="274.1" width="246.3" height="131.5" rx="10" fill="#E6E7E8"/><path d="M130 298.3a2.2 2.2 0 0 1 2.2-2.2H159a2.2 2.2 0 1 1 0 4.4h-26.8c-1.2 0-2.2-1-2.2-2.2zm-58.1 0c0-1.2 1-2.2 2.2-2.2H95a2.2 2.2 0 1 1 0 4.4H74c-1.2 0-2.2-1-2.2-2.2zm32 0c0-1.2 1-2.2 2.2-2.2h14.2a2.2 2.2 0 1 1 0 4.4H106c-1.2 0-2.2-1-2.2-2.2z" fill="#E6E7E8"/><path d="M167.2 298.3c0-1.2 1-2.2 2.2-2.2h17.2a2.2 2.2 0 1 1 0 4.4h-17.2c-1.2 0-2.2-1-2.2-2.2z" fill="#fff"/><path d="M103.2 342.2c0-1.2 1-2.2 2.2-2.2h25.3a2.2 2.2 0 1 1 0 4.5h-25.3c-1.2 0-2.2-1-2.2-2.3zm7.4 7.5c0-1.3 1-2.3 2.2-2.3h18a2.2 2.2 0 1 1 0 4.5h-18c-1.2 0-2.2-1-2.2-2.2zm-64-7.5c0-1.2 1-2.2 2.2-2.2h18.6a2.2 2.2 0 1 1 0 4.5H48.8c-1.2 0-2.2-1-2.2-2.3zm28.3 0c0-1.2 1-2.2 2.2-2.2h18.6a2.2 2.2 0 1 1 0 4.5H77.1c-1.2 0-2.2-1-2.2-2.3zm-28.3 7.5c0-1.3 1-2.3 2.2-2.3h32a2.2 2.2 0 1 1 0 4.5h-32c-1.2 0-2.2-1-2.2-2.2zm41.7 0c0-1.3 1-2.3 2.2-2.3h12.7a2.2 2.2 0 1 1 0 4.5H90.5c-1.2 0-2.2-1-2.2-2.2zM46.6 357c0-1.2 1-2.2 2.2-2.2h14.1a2.2 2.2 0 1 1 0 4.5H48.8c-1.2 0-2.2-1-2.2-2.3zm23.8 0c0-1.2 1-2.2 2.2-2.2h12.7a2.2 2.2 0 1 1 0 4.5H72.6c-1.2 0-2.2-1-2.2-2.3zm22.3 0c0-1.2 1-2.2 2.3-2.2H106a2.2 2.2 0 1 1 0 4.5H95c-1.3 0-2.3-1-2.3-2.3zm20.9 0c0-1.2 1-2.2 2.2-2.2h15a2.2 2.2 0 1 1 0 4.5h-15c-1.2 0-2.2-1-2.2-2.3z" fill="#E6E7E8"/><rect x="247.6" y="286.9" width="5" height="5" rx="1.5" stroke="#fff"/><circle cx="54" cy="297.6" r="6.9" stroke="#fff"/><path d="M262 287.1l-4.4 4.5m0-4.5l4.4 4.5m-19.3-2.2h-5.3" stroke="#fff"/><path d="M167.2 332.1a10 10 0 0 1 10-10h76a10 10 0 0 1 10 10V374a10 10 0 0 1-10 10h-76a10 10 0 0 1-10-10v-41.8zM46.6 377.6a7 7 0 0 1 7-7h39.5a7 7 0 0 1 7 7 7 7 0 0 1-7 7H53.6a7 7 0 0 1-7-7zm0-52.1a3.4 3.4 0 0 1 3.3-3.4h33.5a3.4 3.4 0 1 1 0 6.7H50a3.4 3.4 0 0 1-3.3-3.3zm74.6 0a3.4 3.4 0 0 1 3.3-3.4H144a3.4 3.4 0 1 1 0 6.7h-19.4a3.4 3.4 0 0 1-3.3-3.3zm-30 0a3.4 3.4 0 0 1 3.4-3.4h18.8a3.4 3.4 0 1 1 0 6.7H94.6a3.4 3.4 0 0 1-3.4-3.3z" fill="#fff"/></g><g opacity=".5"><path opacity=".1" d="M428.3 250.8a9.5 9.5 0 0 1 9.5-9.5h226.3a9.5 9.5 0 0 1 9.5 9.5v111.4a9.5 9.5 0 0 1-9.5 9.5H437.8a9.5 9.5 0 0 1-9.5-9.5V250.8z" fill="#246EDE" stroke="#246EDE"/><path opacity=".2" d="M524.4 265c0-1.3 1-2.3 2.3-2.3h26.8a2.2 2.2 0 0 1 0 4.5h-26.8c-1.3 0-2.3-1-2.3-2.2zm-58 0c0-1.3 1-2.3 2.2-2.3h20.8a2.2 2.2 0 1 1 0 4.5h-20.8c-1.3 0-2.3-1-2.3-2.2zm32 0c0-1.3 1-2.3 2.2-2.3h14.2a2.2 2.2 0 1 1 0 4.5h-14.2c-1.2 0-2.2-1-2.2-2.2z" fill="#246EDE"/><path d="M561.7 265c0-1.3 1-2.3 2.2-2.3H581a2.2 2.2 0 1 1 0 4.5H564c-1.2 0-2.2-1-2.2-2.2z" fill="#fff"/><path opacity=".2" d="M497.6 308.9c0-1.2 1-2.2 2.3-2.2h25.3a2.2 2.2 0 1 1 0 4.4h-25.3c-1.3 0-2.3-1-2.3-2.2zm7.5 7.4c0-1.2 1-2.2 2.2-2.2h17.9a2.2 2.2 0 1 1 0 4.5h-17.9c-1.2 0-2.2-1-2.2-2.3zm-64-7.4c0-1.2 1-2.2 2.2-2.2h18.6a2.2 2.2 0 0 1 0 4.4h-18.6c-1.3 0-2.3-1-2.3-2.2zm28.2 0c0-1.2 1-2.2 2.3-2.2h18.6a2.2 2.2 0 1 1 0 4.4h-18.6c-1.3 0-2.3-1-2.3-2.2zm-28.3 7.4c0-1.2 1-2.2 2.3-2.2h32a2.2 2.2 0 1 1 0 4.5h-32c-1.3 0-2.3-1-2.3-2.3zm41.7 0c0-1.2 1-2.2 2.3-2.2h12.6a2.2 2.2 0 0 1 0 4.5H485c-1.3 0-2.3-1-2.3-2.3zm-41.7 7.5c0-1.2 1-2.2 2.3-2.2h14.1a2.2 2.2 0 0 1 0 4.4h-14.1c-1.3 0-2.3-1-2.3-2.2zm23.9 0c0-1.2 1-2.2 2.2-2.2h12.7a2.2 2.2 0 0 1 0 4.4H467c-1.2 0-2.2-1-2.2-2.2z" fill="#246EDE"/><path d="M487.2 323.8c0-1.2 1-2.2 2.2-2.2h11.2a2.2 2.2 0 1 1 0 4.4h-11.2c-1.2 0-2.2-1-2.2-2.2z" fill="#E6E7E8"/><path opacity=".2" d="M508 323.8a2.2 2.2 0 0 1 2.3-2.2h14.9a2.2 2.2 0 1 1 0 4.4h-15c-1.2 0-2.2-1-2.2-2.2z" fill="#246EDE"/><rect x="642.1" y="253.6" width="5" height="5" rx="1.5" stroke="#fff"/><circle cx="448.5" cy="264.2" r="6.9" stroke="#fff"/><path d="M656.5 253.8l-4.5 4.5m0-4.5l4.5 4.5M637 256H632" stroke="#fff"/><path d="M561.7 298.8a10 10 0 0 1 10-10h76a10 10 0 0 1 10 10v41.8a10 10 0 0 1-10 10h-76a10 10 0 0 1-10-10v-41.8zM441 344.3a7 7 0 0 1 7.1-7.1h39.5a7 7 0 1 1 0 14.1H448a7 7 0 0 1-7-7zm0-52.2a3.4 3.4 0 0 1 3.4-3.3h33.5a3.4 3.4 0 1 1 0 6.7h-33.5a3.4 3.4 0 0 1-3.4-3.4zm74.6 0a3.4 3.4 0 0 1 3.4-3.3h19.4a3.4 3.4 0 0 1 0 6.7H519a3.4 3.4 0 0 1-3.4-3.4zm-29.9 0a3.4 3.4 0 0 1 3.4-3.3h18.7a3.4 3.4 0 1 1 0 6.7h-18.7a3.4 3.4 0 0 1-3.4-3.4z" fill="#fff"/></g><rect opacity=".1" x="167.1" y="139.7" width="158" height="99" rx="10" fill="#246EDE"/><rect opacity=".3" x="561.1" y="216.7" width="69.4" height="129.6" rx="10" fill="#246EDE" fill-opacity=".3"/><rect x="552.4" y="226.4" width="68.4" height="128.6" rx="9.5" fill="#fff" stroke="#246EDE"/><path d="M559.8 314a4.1 4.1 0 0 1 4.1-4.2h46.3a4.1 4.1 0 1 1 0 8.2H564a4.1 4.1 0 0 1-4.1-4zm0-14a4.1 4.1 0 0 1 4.1-4.1h46.3a4.1 4.1 0 1 1 0 8.2H564a4.1 4.1 0 0 1-4.1-4z" stroke="#246EDE"/><path d="M559.8 333.4a7 7 0 0 1 6.9-7h40.7a7 7 0 0 1 0 13.9h-40.7a7 7 0 0 1-7-7z" fill="#246EDE" stroke="#246EDE"/><path d="M570 251c0-9 7.4-16.2 16.6-16.2 9.2 0 16.6 7.3 16.6 16.3v22.5h-7.7V251c0-1.6-.6-3.8-2-5.7a8.7 8.7 0 0 0-7.2-3.4c-3.5 0-5.9 1.5-7.3 3.5a9.9 9.9 0 0 0-1.9 5.6v22.5H570V251zm26.3 29.6a4 4 0 0 0 3.3 1.8c1.3 0 2.5-.7 3.2-1.8m-9.2 2.8a7.7 7.7 0 0 0 6 2.7c2.4 0 4.6-1 6-2.7m-35.2-2.8c.7 1.1 2 1.8 3.2 1.8 1.4 0 2.5-.7 3.3-1.8m-9.3 2.8a7.7 7.7 0 0 0 6 2.7c2.5 0 4.7-1 6-2.7" stroke="#246EDE"/><rect opacity=".3" x="481.5" y="31.5" width="78.7" height="148.2" rx="10" fill="#246EDE" fill-opacity=".3"/><rect x="472.8" y="41.2" width="77.7" height="147.2" rx="9.5" fill="#fff" stroke="#246EDE"/><rect x="476.9" y="48.2" width="69.4" height="129.6" rx="10" fill="#fff"/><rect x="477.4" y="48.7" width="68.4" height="128.6" rx="9.5" stroke="#246EDE" stroke-opacity=".3"/><rect opacity=".3" x="491.7" y="306.5" width="27.8" height="20.4" rx="3" fill="#246EDE"/><rect x="490.3" y="308.9" width="26.9" height="19.3" rx="2.5" fill="#fff" stroke="#246EDE"/><path d="M516.8 309.4l-13 11.9-13-12m26 18.6l-10.1-9.3m-15.9 9.3l10.1-9.3" stroke="#246EDE"/><rect opacity=".3" x="474.1" y="320.4" width="36.1" height="25.9" rx="2" fill="#246EDE"/><rect x="470.9" y="323.7" width="36" height="25.9" rx="2.5" fill="#fff" stroke="#246EDE"/><path d="M506 324.5L489 340.3l-17.2-15.8M506 349l-13.4-12.3m-21 12.3l13.4-12.3" stroke="#246EDE"/><rect opacity=".3" x="501" y="338" width="46.3" height="33.3" rx="5" fill="#246EDE"/><rect x="497.8" y="342.2" width="45.2" height="32.6" rx="3.5" fill="#fff" stroke="#246EDE"/><path d="M541.9 343.4L520.4 363l-21.6-19.7m43 30.6l-16.7-15.3M498.8 374l16.8-15.3" stroke="#246EDE"/><rect opacity=".3" x="472.3" y="363" width="65" height="47.2" rx="6" fill="#246EDE"/><rect x="468.1" y="368.1" width="64" height="46.2" rx="5.5" fill="#fff" stroke="#246EDE"/><path d="M530.4 370L500 397.7 470 370m60.5 43l-23.6-21.5m-37 21.6l23.6-21.6" stroke="#246EDE"/><rect opacity=".3" x="163" y="104.6" width="246.3" height="315.8" rx="10" fill="#E6E7E8"/><rect x="153.7" y="113.9" width="246.3" height="315.8" rx="10" fill="#fff"/><rect x="154.2" y="114.4" width="245.3" height="314.8" rx="9.5" stroke="#246EDE" stroke-opacity=".3"/><path d="M248.5 140c0-1.3 1-2.3 2.2-2.3h26.8a2.2 2.2 0 1 1 0 4.5h-26.8c-1.2 0-2.2-1-2.2-2.2zm-58 0c0-1.3 1-2.3 2.1-2.3h20.9a2.2 2.2 0 1 1 0 4.5h-20.9c-1.2 0-2.2-1-2.2-2.2zm32 0c0-1.3 1-2.3 2.2-2.3h14.1a2.2 2.2 0 1 1 0 4.5h-14.1c-1.3 0-2.3-1-2.3-2.2zm63.2 0a2.2 2.2 0 0 1 2.3-2.3h17a2.2 2.2 0 0 1 0 4.5h-17c-1.3 0-2.3-1-2.3-2.2zm-64 43.9c0-1.2 1-2.2 2.2-2.2h25.3a2.2 2.2 0 0 1 0 4.4H224c-1.2 0-2.2-1-2.2-2.2zm7.4 7.4c0-1.2 1-2.2 2.3-2.2h17.8a2.2 2.2 0 0 1 0 4.5h-17.8c-1.3 0-2.3-1-2.3-2.3zm16.4 98.3a2.2 2.2 0 0 1 2.2-2.2h27.6a2.2 2.2 0 0 1 0 4.5h-27.6c-1.2 0-2.2-1-2.2-2.3zm37.2 0c0-1.2 1-2.2 2.3-2.2h16.4a2.2 2.2 0 0 1 0 4.5H285c-1.3 0-2.3-1-2.3-2.3zm-37.2 7.5a2.2 2.2 0 0 1 2.2-2.3h24.6a2.2 2.2 0 1 1 0 4.5h-24.6c-1.2 0-2.2-1-2.2-2.2zm34.3 0a2.2 2.2 0 0 1 2.2-2.3h19.4a2.2 2.2 0 0 1 0 4.5H282c-1.2 0-2.2-1-2.2-2.2zm6 7.4c0-1.2 1-2.2 2.2-2.2h13.4a2.2 2.2 0 1 1 0 4.5H288c-1.3 0-2.3-1-2.3-2.3zm-40.3 0a2.2 2.2 0 0 1 2.2-2.2H262a2.2 2.2 0 1 1 0 4.5h-14.2c-1.2 0-2.2-1-2.2-2.3zm23.8 0a2.2 2.2 0 0 1 2.3-2.2h6.7a2.2 2.2 0 1 1 0 4.5h-6.7c-1.3 0-2.3-1-2.3-2.3zm-102-14.9c0-1.2 1-2.2 2.3-2.2h18.6a2.2 2.2 0 1 1 0 4.5h-18.6c-1.3 0-2.3-1-2.3-2.3zm28.3 0c0-1.2 1-2.2 2.3-2.2h25.3a2.2 2.2 0 0 1 0 4.5h-25.3c-1.3 0-2.3-1-2.3-2.3zm-28.3 7.5c0-1.3 1-2.3 2.3-2.3h32a2.2 2.2 0 0 1 0 4.5h-32c-1.3 0-2.3-1-2.3-2.2zm41 0c0-1.3 1-2.3 2.2-2.3h12.7a2.2 2.2 0 0 1 0 4.5h-12.7c-1.2 0-2.2-1-2.2-2.2zm-41 7.4c0-1.2 1-2.2 2.3-2.2h14.1a2.2 2.2 0 1 1 0 4.5h-14.1c-1.3 0-2.3-1-2.3-2.3zm25.3 0c0-1.2 1-2.2 2.3-2.2h28.3a2.2 2.2 0 0 1 0 4.5h-28.3c-1.3 0-2.3-1-2.3-2.3zM165.1 184c0-1.2 1-2.2 2.2-2.2H186a2.2 2.2 0 1 1 0 4.4h-18.6c-1.2 0-2.2-1-2.2-2.2zm28.3 0a2.2 2.2 0 0 1 2.2-2.2h18.6a2.2 2.2 0 1 1 0 4.4h-18.6c-1.2 0-2.2-1-2.2-2.2zm-28.3 7.4c0-1.2 1-2.2 2.2-2.2h32a2.2 2.2 0 0 1 0 4.5h-32c-1.2 0-2.2-1-2.2-2.3zm41.7 0c0-1.2 1-2.2 2.2-2.2h12.7a2.2 2.2 0 1 1 0 4.5H209c-1.2 0-2.2-1-2.2-2.3zm-41.7 7.5c0-1.3 1-2.3 2.2-2.3h14.2a2.2 2.2 0 1 1 0 4.5h-14.2a2.2 2.2 0 0 1-2.2-2.2zm23.8 0c0-1.3 1-2.3 2.3-2.3h12.6a2.2 2.2 0 1 1 0 4.5h-12.6a2.2 2.2 0 0 1-2.3-2.2zm22.4 0c0-1.3 1-2.3 2.2-2.3h11.2a2.2 2.2 0 1 1 0 4.5h-11.2a2.2 2.2 0 0 1-2.2-2.2zm20.8 0c0-1.3 1-2.3 2.2-2.3h15a2.2 2.2 0 0 1 0 4.5h-15a2.2 2.2 0 0 1-2.2-2.2zm110.2 90.8c0-1.2 1-2.2 2.2-2.2h18.7a2.2 2.2 0 0 1 0 4.5h-18.7c-1.2 0-2.2-1-2.2-2.3zm28.3 0c0-1.2 1-2.2 2.2-2.2h6.7a2.2 2.2 0 1 1 0 4.5h-6.7c-1.2 0-2.2-1-2.2-2.3zm-47 7.5c0-1.3 1-2.3 2.3-2.3h26.8a2.2 2.2 0 0 1 0 4.5H326c-1.2 0-2.2-1-2.2-2.2zm36.6 0c0-1.3 1-2.3 2.2-2.3h17.1a2.2 2.2 0 1 1 0 4.5h-17c-1.3 0-2.3-1-2.3-2.2zm-36.5-7.5c0-1.2 1-2.2 2.2-2.2h9a2.2 2.2 0 0 1 0 4.5h-9c-1.2 0-2.2-1-2.2-2.3zm0 15c0-1.3 1-2.3 2.2-2.3h11.2a2.2 2.2 0 0 1 0 4.5h-11.2c-1.2 0-2.2-1-2.2-2.3zm20.8 0c0-1.3 1-2.3 2.3-2.3h32.7a2.2 2.2 0 1 1 0 4.5h-32.7c-1.3 0-2.3-1-2.3-2.3z" fill="#E6E7E8"/><rect x="366.2" y="128.5" width="5" height="5" rx="1.5" stroke="#246EDE"/><circle opacity=".3" cx="172.5" cy="139.2" r="6.9" fill="#E6E7E8" stroke="#E6E7E8"/><circle cx="196.4" cy="273.2" r="6.9" stroke="#E6E7E8"/><circle cx="274.6" cy="274" r="6.9" stroke="#000"/><circle cx="352.7" cy="274" r="6.9" stroke="#000"/><path d="M380.5 128.8l-4.4 4.5m0-4.5l4.4 4.5m-19.3-2.3H356" stroke="#246EDE"/><path opacity=".3" d="M285.7 173.8a10 10 0 0 1 10-10h76a10 10 0 0 1 10 10v41.8a10 10 0 0 1-10 10h-76a10 10 0 0 1-10-10v-41.8z" fill="#F1F1F1"/><path opacity=".3" d="M167.3 354a10 10 0 0 1 10-10h108.8a10 10 0 0 1 10 10v50a10 10 0 0 1-10 10H177.3a10 10 0 0 1-10-10v-50z" fill="#E6E7E8"/><path d="M308.7 354a9.5 9.5 0 0 1 9.5-9.5h53.7a9.5 9.5 0 0 1 9.5 9.5v50a9.5 9.5 0 0 1-9.5 9.5h-53.7a9.5 9.5 0 0 1-9.5-9.5v-50z" stroke="#000"/><path opacity=".3" d="M165.6 219.3a6.6 6.6 0 0 1 6.6-6.6h39.4a6.6 6.6 0 1 1 0 13.1h-39.4a6.6 6.6 0 0 1-6.6-6.5z" fill="#F1F1F1" stroke="#E6E7E8"/><path d="M165.6 167.1a2.9 2.9 0 0 1 2.8-2.8H202a2.9 2.9 0 0 1 0 5.7h-33.5a2.9 2.9 0 0 1-2.8-2.9z" fill="#fff" fill-opacity=".3" stroke="#E6E7E8"/><path d="M246 251.3a2.9 2.9 0 0 1 2.9-2.9h54.3a2.9 2.9 0 1 1 0 5.7H249a2.9 2.9 0 0 1-2.9-2.8z" fill="#fff" fill-opacity=".3" stroke="#000"/><path d="M240.2 167.1a2.9 2.9 0 0 1 2.9-2.8h19.3a2.9 2.9 0 1 1 0 5.7h-19.3a2.9 2.9 0 0 1-2.9-2.9zm-30 0a2.9 2.9 0 0 1 3-2.8h18.7a2.9 2.9 0 0 1 0 5.7H213a2.9 2.9 0 0 1-2.8-2.9zm-42.4 165.3a2.9 2.9 0 0 1 2.9-2.8h33.5a2.9 2.9 0 0 1 0 5.7h-33.5a2.9 2.9 0 0 1-2.9-2.9z" fill="#fff" fill-opacity=".3" stroke="#E6E7E8"/><path d="M212.5 332.4a2.9 2.9 0 0 1 2.9-2.8H234a2.9 2.9 0 0 1 0 5.7h-18.7a2.9 2.9 0 0 1-2.9-2.9zm30 0a2.9 2.9 0 0 1 2.8-2.8h34.2a2.9 2.9 0 0 1 0 5.7h-34.2a2.9 2.9 0 0 1-2.9-2.9z" fill="#fff" fill-opacity=".3" stroke="#000"/><path d="M319 375.6a4.3 4.3 0 0 1 4.4-4.3h44a4.3 4.3 0 0 1 0 8.7h-44a4.3 4.3 0 0 1-4.4-4.4zm0-15.6a4.3 4.3 0 0 1 4.4-4.3h44a4.3 4.3 0 1 1 0 8.6h-44a4.3 4.3 0 0 1-4.4-4.3z" stroke="#000"/><path d="M319 395a6.6 6.6 0 0 1 6.6-6.6h39.5a6.6 6.6 0 0 1 0 13.2h-39.5a6.6 6.6 0 0 1-6.6-6.6z" fill="#fff" fill-opacity=".8" stroke="#246EDE"/><rect opacity=".6" x="153.7" y="113.9" width="246.3" height="315.8" rx="10" fill="#fff"/><rect opacity=".3" x="200.9" y="172.2" width="246.3" height="315.8" rx="10" fill="#246EDE" fill-opacity=".3"/><rect x="192.2" y="182" width="245.3" height="314.8" rx="9.5" fill="#fff" stroke="#246EDE"/><path d="M286.5 207.6c0-1.3 1-2.3 2.2-2.3h26.8a2.2 2.2 0 0 1 0 4.5h-26.8a2.2 2.2 0 0 1-2.2-2.2zm-58.1 0a2.2 2.2 0 0 1 2.2-2.3h20.9a2.2 2.2 0 1 1 0 4.5h-20.9a2.2 2.2 0 0 1-2.2-2.2zm32 0c0-1.3 1-2.3 2.2-2.3h14.2a2.2 2.2 0 1 1 0 4.5h-14.2a2.2 2.2 0 0 1-2.2-2.2zm63.3 0c0-1.3 1-2.3 2.2-2.3H343a2.2 2.2 0 1 1 0 4.5h-17a2.2 2.2 0 0 1-2.3-2.2zm-64 43.9c0-1.2 1-2.2 2.2-2.2h25.3a2.2 2.2 0 1 1 0 4.4h-25.3c-1.3 0-2.3-1-2.3-2.2zm7.4 7.4c0-1.2 1-2.2 2.2-2.2h17.9a2.2 2.2 0 1 1 0 4.5h-17.9c-1.2 0-2.2-1-2.2-2.3zm16.4 98.3c0-1.2 1-2.2 2.2-2.2h27.6a2.2 2.2 0 1 1 0 4.5h-27.6c-1.2 0-2.2-1-2.2-2.3zm37.2 0c0-1.2 1-2.2 2.2-2.2h16.4a2.2 2.2 0 1 1 0 4.5H323c-1.2 0-2.2-1-2.2-2.3zm-37.2 7.5c0-1.3 1-2.3 2.2-2.3h24.6a2.2 2.2 0 1 1 0 4.5h-24.6c-1.2 0-2.2-1-2.2-2.2zm34.2 0c0-1.3 1-2.3 2.3-2.3h19.3a2.2 2.2 0 1 1 0 4.5H320c-1.3 0-2.3-1-2.3-2.2zm6 7.4c0-1.2 1-2.2 2.2-2.2h13.4a2.2 2.2 0 1 1 0 4.5H326c-1.2 0-2.2-1-2.2-2.3zm-40.2 0c0-1.2 1-2.2 2.2-2.2H300a2.2 2.2 0 0 1 0 4.5h-14.2c-1.2 0-2.2-1-2.2-2.3zm23.8 0c0-1.2 1-2.2 2.2-2.2h6.7a2.2 2.2 0 1 1 0 4.5h-6.7c-1.2 0-2.2-1-2.2-2.3zm-102-14.9c0-1.2 1-2.2 2.2-2.2h18.6a2.2 2.2 0 1 1 0 4.5h-18.6c-1.2 0-2.2-1-2.2-2.3zm28.3 0c0-1.2 1-2.2 2.2-2.2h25.3a2.2 2.2 0 1 1 0 4.5h-25.3c-1.2 0-2.2-1-2.2-2.3zm-28.3 7.5c0-1.3 1-2.3 2.2-2.3h32a2.2 2.2 0 1 1 0 4.5h-32c-1.2 0-2.2-1-2.2-2.2zm41 0a2.2 2.2 0 0 1 2.2-2.3H261a2.2 2.2 0 1 1 0 4.5h-12.6c-1.3 0-2.3-1-2.3-2.2zm-41 7.4c0-1.2 1-2.2 2.2-2.2h14.2a2.2 2.2 0 0 1 0 4.5h-14.2c-1.2 0-2.2-1-2.2-2.3zm25.3 0c0-1.2 1-2.2 2.2-2.2h28.3a2.2 2.2 0 1 1 0 4.5h-28.3c-1.2 0-2.2-1-2.2-2.3zm-27.5-120.6c0-1.2 1-2.2 2.2-2.2h18.6a2.2 2.2 0 0 1 0 4.4h-18.6c-1.2 0-2.2-1-2.2-2.2zm28.3 0c0-1.2 1-2.2 2.2-2.2h18.6a2.2 2.2 0 1 1 0 4.4h-18.6c-1.2 0-2.2-1-2.2-2.2zm-28.3 7.4c0-1.2 1-2.2 2.2-2.2h32a2.2 2.2 0 1 1 0 4.5h-32c-1.2 0-2.2-1-2.2-2.3zm41.7 0c0-1.2 1-2.2 2.2-2.2h12.6a2.2 2.2 0 0 1 0 4.5H247c-1.2 0-2.2-1-2.2-2.3zm-41.7 7.5c0-1.3 1-2.3 2.2-2.3h14.1a2.2 2.2 0 0 1 0 4.5h-14.1c-1.2 0-2.2-1-2.2-2.2zm23.8 0c0-1.3 1-2.3 2.2-2.3h12.7a2.2 2.2 0 0 1 0 4.5H229c-1.2 0-2.2-1-2.2-2.2zm22.3 0c0-1.3 1-2.3 2.3-2.3h11.1a2.2 2.2 0 0 1 0 4.5h-11.1c-1.3 0-2.3-1-2.3-2.2zm20.9 0a2.2 2.2 0 0 1 2.2-2.3h14.9a2.2 2.2 0 0 1 0 4.5h-14.9c-1.2 0-2.2-1-2.2-2.2zm110.2 90.8c0-1.2 1-2.2 2.2-2.2h18.6a2.2 2.2 0 1 1 0 4.5h-18.6c-1.2 0-2.2-1-2.2-2.3zm28.3 0c0-1.2 1-2.2 2.2-2.2h6.7a2.2 2.2 0 0 1 0 4.5h-6.7c-1.2 0-2.2-1-2.2-2.3zm-47 7.5c0-1.3 1-2.3 2.3-2.3h26.8a2.2 2.2 0 1 1 0 4.5h-26.8c-1.2 0-2.2-1-2.2-2.2zm36.5 0c0-1.3 1-2.3 2.3-2.3h17.1a2.2 2.2 0 0 1 0 4.5h-17.1c-1.3 0-2.3-1-2.3-2.2zm-36.4-7.5c0-1.2 1-2.2 2.2-2.2h9a2.2 2.2 0 1 1 0 4.5h-9c-1.2 0-2.2-1-2.2-2.3zm0 15c0-1.3 1-2.3 2.2-2.3H375a2.2 2.2 0 1 1 0 4.5h-11.2c-1.2 0-2.2-1-2.2-2.3zm20.8 0c0-1.3 1-2.3 2.2-2.3h32.8a2.2 2.2 0 0 1 0 4.5h-32.8c-1.2 0-2.2-1-2.2-2.3z" fill="#E6E7E8"/><rect x="404.1" y="196.1" width="5" height="5" rx="1.5" stroke="#246EDE"/><g opacity=".3"><circle cx="210.5" cy="206.8" r="7.4" fill="#E6E7E8"/><circle cx="210.5" cy="206.8" r="6.9" stroke="#246EDE" stroke-opacity=".3"/></g><circle opacity=".3" cx="233.3" cy="338" r="8.8" fill="#246EDE" fill-opacity=".3" stroke="#E6E7E8"/><circle opacity=".3" cx="313" cy="338" r="8.8" fill="#246EDE" fill-opacity=".3" stroke="#E6E7E8"/><circle opacity=".3" cx="389.8" cy="338" r="8.8" fill="#246EDE" fill-opacity=".3" stroke="#E6E7E8"/><path d="M418.5 196.4l-4.5 4.5m0-4.5l4.5 4.5m-19.4-2.3H394" stroke="#246EDE"/><path opacity=".1" d="M323.7 241.4a10 10 0 0 1 10-10h76a10 10 0 0 1 10 10v41.8a10 10 0 0 1-10 10h-76a10 10 0 0 1-10-10v-41.8zM205.3 421.6a10 10 0 0 1 10-10H324a10 10 0 0 1 10 10v50a10 10 0 0 1-10 10H215.3a10 10 0 0 1-10-10v-50z" fill="#246EDE" fill-opacity=".3"/><path d="M346.6 421.6a9.5 9.5 0 0 1 9.5-9.5H410a9.5 9.5 0 0 1 9.5 9.5v50a9.5 9.5 0 0 1-9.5 9.5H356a9.5 9.5 0 0 1-9.5-9.5v-50z" stroke="#246EDE"/><path d="M203.6 286.9a6.6 6.6 0 0 1 6.5-6.6h39.5a6.6 6.6 0 1 1 0 13.1H210a6.6 6.6 0 0 1-6.5-6.5z" fill="#246EDE" stroke="#246EDE"/><path d="M203.6 234.7a2.9 2.9 0 0 1 2.8-2.8H240a2.9 2.9 0 0 1 0 5.7h-33.5a2.9 2.9 0 0 1-2.8-2.9z" fill="#fff" fill-opacity=".3" stroke="#E6E7E8"/><path d="M283.5 317.3a3.4 3.4 0 0 1 3.3-3.4h54.4a3.4 3.4 0 1 1 0 6.7h-54.4a3.4 3.4 0 0 1-3.3-3.3z" fill="#fff" fill-opacity=".3"/><path d="M284 317.3a2.9 2.9 0 0 1 2.8-2.9h54.4a2.9 2.9 0 0 1 0 5.7h-54.4a2.9 2.9 0 0 1-2.8-2.8z" stroke="#246EDE" stroke-opacity=".3"/><path d="M278.2 234.7a2.9 2.9 0 0 1 2.8-2.8h19.4a2.9 2.9 0 0 1 0 5.7H281a2.9 2.9 0 0 1-2.8-2.9zm-30 0a2.9 2.9 0 0 1 2.9-2.8h18.7a2.9 2.9 0 1 1 0 5.7h-18.7a2.9 2.9 0 0 1-2.9-2.9zM205.8 400a2.9 2.9 0 0 1 2.8-2.8h33.5a2.9 2.9 0 0 1 0 5.7h-33.5a2.9 2.9 0 0 1-2.8-2.9zm44.7 0a2.9 2.9 0 0 1 2.8-2.8h18.8a2.9 2.9 0 0 1 0 5.7h-18.8a2.9 2.9 0 0 1-2.8-2.9zm29.9 0a2.9 2.9 0 0 1 2.9-2.8h34.2a2.9 2.9 0 1 1 0 5.7h-34.2a2.9 2.9 0 0 1-2.9-2.9z" fill="#fff" fill-opacity=".3" stroke="#E6E7E8"/><path d="M357 443.2a4.3 4.3 0 0 1 4.3-4.3h44a4.3 4.3 0 1 1 0 8.7h-44a4.3 4.3 0 0 1-4.3-4.4zm0-15.6a4.3 4.3 0 0 1 4.3-4.3h44a4.3 4.3 0 1 1 0 8.6h-44a4.3 4.3 0 0 1-4.3-4.3z" stroke="#246EDE"/><path d="M357 462.6a6.6 6.6 0 0 1 6.6-6.6H403a6.6 6.6 0 1 1 0 13.2h-39.4a6.6 6.6 0 0 1-6.6-6.6z" fill="#246EDE" stroke="#246EDE"/><circle opacity=".3" cx="19.9" cy="386.6" r="16.2" fill="#246EDE"/><circle cx="16.2" cy="389.4" r="15.7" fill="#fff" stroke="#246EDE"/><circle cx="16.2" cy="389.4" r="12.9" stroke="#246EDE"/><path d="M16 389.8v1.7h3.5v2.6H16v3.1h-3.3v-3H11v-2.7h1.6v-10H18c1.6 0 2.9.4 3.8 1 .9.8 1.3 1.8 1.3 3.2 0 1.3-.4 2.3-1.3 3-1 .7-2.2 1.1-3.8 1.1h-2zm3.8-4.1c0-.5-.1-.8-.5-1-.3-.3-.8-.5-1.4-.5h-2v3h2c.6 0 1.1-.2 1.4-.4.4-.3.5-.6.5-1.1z" stroke="#246EDE"/><circle opacity=".3" cx="57.9" cy="366.2" r="16.2" fill="#246EDE"/><circle cx="54.2" cy="369" r="15.7" fill="#fff" stroke="#246EDE"/><circle cx="54.2" cy="369" r="12.9" stroke="#246EDE"/><path d="M54 369.4v1.7h3.5v2.7h-3.6v3h-3.3v-3h-1.5V371h1.5v-10H56c1.7 0 3 .4 3.9 1 .9.8 1.3 1.8 1.3 3.2 0 1.3-.4 2.4-1.3 3-1 .8-2.2 1.1-3.9 1.1h-2zm3.8-4c0-.6-.2-1-.5-1.2-.3-.2-.8-.3-1.4-.3h-2v2.9h2c.6 0 1-.1 1.4-.4.3-.3.5-.6.5-1z" stroke="#246EDE"/><circle opacity=".3" cx="64.4" cy="418.1" r="16.2" fill="#246EDE"/><circle cx="60.7" cy="420.9" r="15.7" fill="#fff" stroke="#246EDE"/><circle cx="60.7" cy="420.9" r="12.9" stroke="#246EDE"/><path d="M60.4 421.3v1.7H64v2.6h-3.6v3.1h-3.3v-3h-1.5V423H57v-10h5.3c1.7 0 3 .3 3.8 1 1 .7 1.4 1.8 1.4 3.1s-.5 2.4-1.4 3.1c-.9.7-2.1 1-3.8 1h-2zm3.9-4.1c0-.5-.2-.9-.5-1.1-.3-.3-.8-.4-1.4-.4h-2v3h2c.6 0 1-.2 1.4-.4.3-.3.5-.7.5-1.1z" stroke="#246EDE"/><path opacity=".3" d="M86 396.7h30" stroke="#246EDE"/><path d="M109 426.7h30m-45-10h30" stroke="#246EDE"/><path opacity=".3" d="M88 431.7h30" stroke="#246EDE"/><path d="M86 371.7h30" stroke="#246EDE"/><path opacity=".3" d="M98 385.7h30" stroke="#246EDE"/><path d="M242 80.3a.5.5 0 0 0-.6-.1l-3.7 2.5a.5.5 0 0 0 .6.8l3.3-2.2 2.2 3.2a.5.5 0 1 0 .9-.5l-2.6-3.7zm158.6 46.2c-25.8 30.9-68.4 36.2-103 25.3-34.8-10.8-61.4-37.7-55.4-71.2l-1-.1c-6.1 34.1 21 61.4 56 72.3 35 11 78 5.6 104.1-25.6l-.7-.7zM594 212.1a.5.5 0 0 0 .6.4l4.4-.7a.5.5 0 1 0-.2-1l-4 .7-.6-4a.5.5 0 0 0-1 .2l.8 4.4zm-30.3-158c35.5 13.4 50 43 52.2 74.3 2.2 31.3-8 64-21.8 83.4l.8.5c14-19.5 24.2-52.5 22-84-2.3-31.5-17-61.5-52.8-75l-.4.9zM557.1 384a.5.5 0 0 0 0 .7l3.2 3.2a.5.5 0 0 0 .7 0 .5.5 0 0 0 0-.7l-2.9-2.8 2.9-2.8a.5.5 0 0 0-.7-.8L557 384zm32.3-27c0 10.8-3.7 17.5-9.4 21.5-5.8 4-13.8 5.4-22.6 5.4v1c8.9 0 17.1-1.4 23.1-5.6 6-4.2 9.9-11.2 9.9-22.2h-1zM449.7 463.7a.5.5 0 0 0 0 .7l3.2 3.2a.5.5 0 0 0 .7-.8l-2.9-2.8 2.9-2.8a.5.5 0 0 0-.7-.7l-3.2 3.2zm60-45c0 9.4-2 16.9-5.5 22.8-3.5 6-8.5 10.4-14.3 13.6a83.2 83.2 0 0 1-39.9 8.4v1c13.5 0 28.6-1.8 40.4-8.5 6-3.3 11-7.9 14.6-14a45.3 45.3 0 0 0 5.7-23.4h-1zM101 440.2a.5.5 0 0 0-.6.4l-.3 4.5a.5.5 0 0 0 1 0l.3-3.9 4 .3a.5.5 0 0 0 0-1l-4.4-.3zm242.9 25c-24.9-19.9-48.6-26.8-71.2-27.1-22.6-.3-44 6-64.2 12.5-20.2 6.5-39.2 13.1-57 13.5a60.3 60.3 0 0 1-50.2-23.8l-.7.7a61.3 61.3 0 0 0 50.9 24.1c18-.4 37.2-7 57.3-13.5 20.2-6.5 41.5-12.8 63.9-12.5 22.3.3 45.8 7.1 70.5 27l.7-.8zM468.5 68.2a.5.5 0 0 0 .5-.4l.8-4.5a.5.5 0 0 0-1-.1l-.7 4-4-.7a.5.5 0 0 0 0 1l4.4.7zM269.4 38.3C290 13.5 330 7.3 369.7 14.1c39.8 6.8 79.1 26.6 98.4 53.8l.9-.6c-19.6-27.5-59.2-47.4-99.1-54.2-39.9-6.9-80.3-.6-101.3 24.6l.8.6zM153.5 147.5a.5.5 0 0 1-.2.7l-4 2.1a.5.5 0 0 1-.4-.8l3.5-2-2-3.5a.5.5 0 0 1 1-.5l2.1 4zM64 186.7a32.3 32.3 0 0 1 7.2-27.2 47.7 47.7 0 0 1 24.2-13.3c19.4-5 43.3-3.2 57.8 1l-.3 1c-14.3-4.2-38-6-57.2-1-9.7 2.4-18.1 6.6-23.8 13-5.6 6.3-8.5 15-6.9 26.4l-1 .1z" fill="#BEBEBE"/><path opacity=".3" d="M256 35.1a3 3 0 0 1 3 0l16.2 9.4a3 3 0 0 1 1.5 2.6V66a3 3 0 0 1-1.5 2.6l-16.3 9.3a3 3 0 0 1-3 0l-16.2-9.3a3 3 0 0 1-1.5-2.6V47c0-1 .5-2 1.5-2.6l16.2-9.4z" fill="#246EDE" fill-opacity=".3"/><path d="M254.3 39.3a2.5 2.5 0 0 1 2.5 0l16.3 9.3a2.5 2.5 0 0 1 1.2 2.2v18.8c0 .9-.5 1.7-1.2 2.1l-16.3 9.4a2.5 2.5 0 0 1-2.5 0l-16.2-9.4a2.5 2.5 0 0 1-1.3-2.1V50.8c0-.9.5-1.7 1.3-2.2l16.2-9.3z" fill="#fff" stroke="#246EDE"/><path d="M254.3 43a2.5 2.5 0 0 1 2.5 0l13 7.5a2.5 2.5 0 0 1 1.3 2.2v15c0 1-.5 1.7-1.2 2.2l-13 7.5a2.5 2.5 0 0 1-2.6 0l-13-7.5a2.5 2.5 0 0 1-1.3-2.2v-15a2.5 2.5 0 0 1 1.3-2.2l13-7.5z" fill="#246EDE" fill-opacity=".1" stroke="#246EDE"/><path d="M249 55.6l-4.5 5 4.6 5.1m12-10.1l4.7 5-4.7 5.1m-1.8-13l-8.4 15.8" stroke="#246EDE" stroke-linecap="round"/><path d="M485.7 23.1a11.6 11.6 0 1 1 0-23 11.6 11.6 0 0 1 0 23z" fill="#246EDE" fill-opacity=".3" opacity=".3"/><path d="M482 25a11.6 11.6 0 1 1 0-23.1 11.6 11.6 0 0 1 0 23.1z" fill="#fff" stroke="#246EDE" stroke-opacity=".3" stroke-miterlimit="10"/><path d="M489.3 17.6v-.2c-.3-.4-.7-1-1.5-1.7l-.6-.6c-.2-.1-.2-.4-.1-.6 0-.2.3-.5.7-1l.5-.7c1-1.2 1.3-2 1.2-2.3v-.1l-.3-.1H486h0l-.1.1-.9 1.8-.5.9-.5.5-.3.3H483.4l-.1-.2-.1-.3v-3-.3l-.3-.1-.2-.2h-1a6 6 0 0 0-2 .3 1 1 0 0 0-.2.2c-.1.1-.1.2 0 .2l.6.3v.1l.2.4v2.1c0 .1 0 .3-.2.4v.2h-.1l-.2.1a.5.5 0 0 1-.3-.1l-.3-.3a2.1 2.1 0 0 1-.3-.6l-.5-.8v-.2l-.4-.6a9.6 9.6 0 0 0-.4-.8.8.8 0 0 0-.1-.3h0-.2H474.5v.4a23 23 0 0 0 2 3.8l1 1.1.5.8.2.2.2.2.5.4.8.5 1 .4c.4.2.8.2 1.2.2h.8l.4-.2h0l.2-.2v-.2-.7l.1-.4.2-.2.1-.1h.1c.1-.1.2 0 .4 0l.5.5.6.6c.1.3.3.4.5.5l.2.1.4.2h2.4l.5-.1c.2 0 .2-.1.2-.3v-.2l-.2-.1z" stroke="#246EDE" stroke-opacity=".3" stroke-miterlimit="10"/><path opacity=".3" d="M538.5 216.7a11.6 11.6 0 1 1 0-23.2 11.6 11.6 0 0 1 0 23.2z" fill="#246EDE" fill-opacity=".3"/><path d="M534.8 220.4a11.6 11.6 0 1 1 0-23.2 11.6 11.6 0 0 1 0 23.2z" fill="#fff" stroke="#246EDE" stroke-opacity=".3" stroke-miterlimit="10"/><path d="M539.8 205h0a2 2 0 0 0-.5-.7 2 2 0 0 0-.8-.5l-1.2-.2-2.5-.1h0-2.6 0l-1 .3h-.2v0h0a2 2 0 0 0-.7.5 2 2 0 0 0-.5.8c-.2.2-.3.5-.3 1.1v5.2h0l.2 1v.1h0c.2.4.3.6.6.8.2.3.4.4.7.5.2.1.6.3 1.2.3H537.3v0h0a5 5 0 0 0 1-.2h.2v0h0l.8-.6.5-.7.2-1.2v-2.6-1.9-.6h0a5 5 0 0 0-.2-1 4.8 4.8 0 0 1 0-.2zm-9.2-2.2h0l1.5-.3H537.4l1.5.3c.3.2.7.4 1 .8h0c.4.3.6.6.8 1h0l.3 1.5V211.4l-.3 1.5c-.2.3-.4.7-.8 1h0c-.3.4-.6.6-1 .7h0c-.4.2-.9.3-1.5.3l-2.6.1H532l-1.5-.4c-.3-.1-.7-.3-1-.7h0c-.4-.3-.6-.6-.7-1h0c-.2-.4-.3-.9-.3-1.5l-.1-2.7v-2.6l.4-1.5c.1-.3.3-.7.7-1h0c.3-.4.6-.6 1-.8z" fill="#246EDE" fill-opacity=".3" stroke="#fff" stroke-width=".1"/><path d="M531.5 208.8a3.2 3.2 0 0 1 3.3-3.2c1.7 0 3.1 1.4 3.2 3.2a3.2 3.2 0 0 1-3.2 3.2 3.2 3.2 0 0 1-3.3-3.2zm1 0c0 1.2 1 2.2 2.3 2.2 1.2 0 2.2-1 2.2-2.2 0-1.2-1-2.2-2.2-2.2-1.2 0-2.3 1-2.3 2.2zm6.3-3.4a.7.7 0 0 1-.7.7.7.7 0 0 1-.7-.7c0-.4.3-.7.7-.7.4 0 .7.3.7.7z" fill="#246EDE" fill-opacity=".3" stroke="#fff" stroke-width=".1"/><path opacity=".3" d="M588 109.7c-6 0-11-5.2-11-11.5 0-6.4 5-11.5 11-11.5s11 5.1 11 11.5c0 6.3-4.8 11.5-11 11.5z" fill="#246EDE" fill-opacity=".3"/><g clip-path="url(#clip0)" fill="#fff" stroke="#246EDE" stroke-opacity=".3" stroke-miterlimit="10"><path d="M584.6 111.2a11 11 0 0 1-11-11 11 11 0 0 1 11-11 11 11 0 0 1 11 11 11 11 0 0 1-11 11z"/><path d="M582.9 106.9h2.7V100h1.8l.2-2.2h-2v-1.3c0-.5 0-.8.6-.8h1.4v-2.3h-1.9c-2 0-2.9.9-2.9 2.6v1.8h-1.4v2.2h1.4v6.8h.1z" stroke-linecap="round" stroke-linejoin="round"/></g><g opacity=".3"><rect x="480" y="54" width="63" height="69" rx="8" fill="#246EDE" fill-opacity=".3"/><rect x="480.5" y="54.5" width="62" height="68" rx="7.5" stroke="#246EDE" stroke-opacity=".3"/></g><g opacity=".3"><path d="M486.1 147.8c0-1.3 1-2.3 2.3-2.3H507a2.2 2.2 0 1 1 0 4.5h-18.6c-1.3 0-2.3-1-2.3-2.2zm0 15.8a2.3 2.3 0 0 1 2.4-2.3h13a2.3 2.3 0 1 1 0 4.6h-13a2.3 2.3 0 0 1-2.4-2.3zm22.3 0a2.3 2.3 0 0 1 2.3-2.3h24a2.3 2.3 0 0 1 0 4.6h-24a2.3 2.3 0 0 1-2.3-2.3zm6-15.8a2.2 2.2 0 0 1 2.3-2.3h18.6a2.2 2.2 0 1 1 0 4.5h-18.6c-1.3 0-2.3-1-2.3-2.2zm-28.3 7.4c0-1.2 1-2.2 2.3-2.2h32a2.2 2.2 0 1 1 0 4.4h-32c-1.3 0-2.3-1-2.3-2.2zm39.9 0a2.3 2.3 0 0 1 2.3-2.3h6.5a2.3 2.3 0 0 1 0 4.7h-6.5a2.3 2.3 0 0 1-2.3-2.3z" fill="#E6E7E8"/><path d="M506 134.9c0-1 .9-1.8 1.9-1.8h26.9a1.8 1.8 0 0 1 0 3.6h-26.9a1.8 1.8 0 0 1-1.8-1.8z" stroke="#000"/><circle cx="493.6" cy="134.5" r="6.9" stroke="#000"/></g><path opacity=".3" d="M458.4 161.8a11.6 11.6 0 1 1 0-23.1 11.6 11.6 0 0 1 0 23.1z" fill="#246EDE" fill-opacity=".3"/><path d="M454.7 163.7a11.6 11.6 0 1 1 0-23.2 11.6 11.6 0 0 1 0 23.2z" fill="#fff" stroke="#246EDE" stroke-opacity=".3" stroke-miterlimit="10"/><path d="M463.6 147.6c-.3-.8-.9-1.5-1.7-1.6-1.5-.5-7.2-.5-7.2-.5s-5.8 0-7.3.5a2.5 2.5 0 0 0-1.6 1.6c-.4 1.5-.4 4.5-.4 4.5s0 3 .4 4.5c.2.8.8 1.5 1.6 1.7 1.5.3 7.3.3 7.3.3s5.7 0 7.2-.3a2.5 2.5 0 0 0 1.7-1.7c.3-1.4.3-4.5.3-4.5s0-3-.3-4.5z" stroke="#246EDE" stroke-opacity=".3" stroke-miterlimit="10"/><path d="M452.8 154.8v-5.4l4.8 2.7-4.8 2.7z" fill="#246EDE" fill-opacity=".3"/><path d="M456.6 152.1l-3.3 1.9v-3.8l3.3 2z" stroke="#246EDE" stroke-opacity=".3"/><rect opacity=".3" x="18.5" y="188" width="153.4" height="105.7" rx="10" fill="#246EDE" fill-opacity=".3"/><rect x="9.8" y="197.7" width="152.4" height="104.7" rx="9.5" fill="#fff" stroke="#246EDE"/><rect x="21.9" y="208.4" width="131.1" height="15.6" rx="7.8" fill="#246EDE" fill-opacity=".3"/><path d="M125 215.4h.3v2.2l1.9-2.2h.3v2.8h-.4v-2.3l-1.8 2.3h-.4v-2.8zm4.8 2.8c-.3 0-.5 0-.8-.2a1.3 1.3 0 0 1-.5-.5 1.5 1.5 0 0 1-.2-.7l.2-.8.5-.5.8-.2c.2 0 .5 0 .6.2.2 0 .4.2.5.4l-.3.2a.9.9 0 0 0-.3-.3 1 1 0 0 0-.5-.1l-.6.1a1 1 0 0 0-.3.4 1.2 1.2 0 0 0-.2.6c0 .2 0 .4.2.6a1 1 0 0 0 .9.5l.5-.1a.9.9 0 0 0 .3-.3l.3.2a1.1 1.1 0 0 1-.5.4 1.5 1.5 0 0 1-.6.1zm2.9-1.3h-.7v1.3h-.4v-2.8h.4v1.2h.7l1-1.2h.4l-1.1 1.3 1.1 1.5h-.4l-1-1.3zm3-1.6c.3 0 .6.1.8.3.2.2.3.5.3.8v1.8h-.4v-.4a.9.9 0 0 1-.3.3 1.3 1.3 0 0 1-.6.1c-.3 0-.6 0-.8-.2a.7.7 0 0 1-.3-.6.7.7 0 0 1 .3-.6l.8-.2h1v-.2c0-.2-.1-.4-.3-.5-.1-.2-.3-.2-.6-.2h-.5a1.3 1.3 0 0 0-.4.3l-.2-.3.5-.3h.7zm-.2 2.6l.6-.1a.9.9 0 0 0 .3-.5v-.4h-.9c-.4 0-.7.2-.7.5a.5.5 0 0 0 .2.4l.5.1zm4.3-2.2h-1v2.5h-.4v-2.5h-1.1v-.3h2.5v.3zm1.8.7c.3 0 .6 0 .8.2.2.2.3.4.3.7 0 .3-.1.5-.3.7l-1 .2h-1v-2.8h.3v1h.9zm-.1 1.5l.6-.1.2-.5-.2-.5a1 1 0 0 0-.6-.1h-.8v1.2h.8z" fill="#151515"/><path d="M32.2 215.4a2 2 0 0 1-2 2 2 2 0 0 1-2-2 2 2 0 0 1 2-2 2 2 0 0 1 2 2zm1.9 3.9l-2.3-2.3" stroke="#246EDE"/><path d="M115.7 208.4h29.5a7.8 7.8 0 1 1 0 15.6h-29.5v-15.6z" fill="#fff" fill-opacity=".5"/><path d="M21 238.6a2.9 2.9 0 0 1 2.8-2.9h33.5a2.9 2.9 0 0 1 0 5.7H23.8a2.9 2.9 0 0 1-2.9-2.8zm44.6 0a2.9 2.9 0 0 1 2.9-2.9h18.7a2.9 2.9 0 0 1 0 5.7H68.5a2.9 2.9 0 0 1-2.9-2.8zm30 0a2.9 2.9 0 0 1 2.8-2.9h50a2.9 2.9 0 0 1 0 5.7h-50a2.9 2.9 0 0 1-2.9-2.8z" fill="#fff" fill-opacity=".3" stroke="#246EDE"/><path d="M20.4 249.4c0-1.3 1-2.3 2.3-2.3h20.5a2.2 2.2 0 1 1 0 4.5H22.7c-1.3 0-2.3-1-2.3-2.2zm30.1 0c0-1.3 1-2.3 2.2-2.3h30.9a2.2 2.2 0 1 1 0 4.5H52.7c-1.2 0-2.2-1-2.2-2.2zm40.2 0c0-1.3 1-2.3 2.3-2.3h22.7a2.2 2.2 0 1 1 0 4.5H93c-1.3 0-2.3-1-2.3-2.2zm32.8 0c0-1.3 1-2.3 2.2-2.3h23.8a2.2 2.2 0 1 1 0 4.5h-23.8c-1.2 0-2.2-1-2.2-2.2zm-103 7.8c0-1.3 1-2.3 2.2-2.3h32.1a2.2 2.2 0 1 1 0 4.5H22.7c-1.3 0-2.3-1-2.3-2.2zm41.8 0c0-1.3 1-2.3 2.2-2.3H78a2.2 2.2 0 1 1 0 4.5H64.5c-1.2 0-2.2-1-2.2-2.2zm23 0c0-1.3 1-2.3 2.3-2.3h44.7a2.2 2.2 0 1 1 0 4.5H87.6c-1.2 0-2.2-1-2.2-2.2zm54.6 0c0-1.3 1-2.3 2.2-2.3h7.4a2.2 2.2 0 1 1 0 4.5h-7.4c-1.2 0-2.2-1-2.2-2.2z" fill="#E6E7E8"/><path opacity=".7" d="M21 270.2a2.9 2.9 0 0 1 2.8-2.8h45.1a2.9 2.9 0 1 1 0 5.7H23.8a2.9 2.9 0 0 1-2.9-2.9zm56.2 0a2.9 2.9 0 0 1 2.9-2.8h23.2a2.9 2.9 0 1 1 0 5.7H80.1a2.9 2.9 0 0 1-2.9-2.9zm34.1 0a2.9 2.9 0 0 1 2.9-2.8h34.2a2.9 2.9 0 0 1 0 5.7h-34.2a2.9 2.9 0 0 1-2.9-2.9z" fill="#fff" fill-opacity=".3" stroke="#BEBEBE"/><path opacity=".7" d="M20.4 282c0-1.3 1-2.3 2.3-2.3h39.7a2.2 2.2 0 1 1 0 4.5H22.7c-1.3 0-2.3-1-2.3-2.3zm49.5 0c0-1.3 1-2.3 2.2-2.3h13a2.2 2.2 0 1 1 0 4.5H72c-1.2 0-2.2-1-2.2-2.3zm22.6 0c0-1.3 1-2.3 2.2-2.3h22.8a2.2 2.2 0 0 1 0 4.5H94.7c-1.2 0-2.2-1-2.2-2.3zm32.5 0c0-1.3 1-2.3 2.2-2.3h22.3a2.2 2.2 0 0 1 0 4.5h-22.3c-1.2 0-2.2-1-2.2-2.3zm-104.6 7.6c0-1.3 1-2.3 2.3-2.3h12a2.2 2.2 0 0 1 0 4.5h-12c-1.3 0-2.3-1-2.3-2.2zm21.8 0c0-1.3 1-2.3 2.2-2.3h33a2.2 2.2 0 0 1 0 4.5h-33c-1.2 0-2.2-1-2.2-2.2zm42.7 0c0-1.3 1-2.3 2.2-2.3h16.6a2.2 2.2 0 0 1 0 4.5H87c-1.2 0-2.2-1-2.2-2.2zm26 0c0-1.3 1-2.3 2.2-2.3h36.4a2.2 2.2 0 0 1 0 4.5h-36.4c-1.3 0-2.3-1-2.3-2.2z" fill="#E6E7E8"/><rect opacity=".3" x="395.4" y="88.9" width="30.6" height="30.6" rx="7" fill="#246EDE" fill-opacity=".2"/><rect x="391.3" y="94" width="29.6" height="29.6" rx="6.5" fill="#fff" stroke="#246EDE"/><mask id="a" fill="#fff"><path fill-rule="evenodd" clip-rule="evenodd" d="M395.5 98.3a3.2 3.2 0 0 0 0 4.5l6 6-5.7 5.7a3.2 3.2 0 0 0 4.5 4.5l5.7-5.7 5.7 5.7a3.2 3.2 0 1 0 4.5-4.5l-5.7-5.7 6-6a3.2 3.2 0 1 0-4.5-4.5l-6 6-6-6a3.2 3.2 0 0 0-4.5 0z"/></mask><path fill-rule="evenodd" clip-rule="evenodd" d="M395.5 98.3a3.2 3.2 0 0 0 0 4.5l6 6-5.7 5.7a3.2 3.2 0 0 0 4.5 4.5l5.7-5.7 5.7 5.7a3.2 3.2 0 1 0 4.5-4.5l-5.7-5.7 6-6a3.2 3.2 0 1 0-4.5-4.5l-6 6-6-6a3.2 3.2 0 0 0-4.5 0z" fill="#fff"/><path d="M395.5 102.8l.7-.7-.7.7zm0-4.5l-.7-.7.7.7zm6 10.5l.7.7.8-.7-.8-.7-.7.7zm-5.7 5.7l.7.7-.7-.7zm0 4.5l.7-.7-.7.7zm10.2-5.7l.8-.7-.8-.7-.7.7.7.7zm10.2 1.2l.7-.7-.7.7zm-5.7-5.7l-.7-.7-.7.7.7.7.7-.7zm6-6l.7.7-.7-.7zm0-4.5l.7-.7-.7.7zm-4.5 0l.7.7-.7-.7zm-6 6l-.7.7.7.7.8-.7-.8-.7zm-6-6l-.7.7.7-.7zm-3.8 3.8a2.2 2.2 0 0 1 0-3.1l-1.4-1.4a4.2 4.2 0 0 0 0 5.9l1.4-1.4zm6 6l-6-6-1.4 1.4 6 6 1.5-1.4zm-5.7 7.1l5.8-5.7-1.5-1.4-5.7 5.7 1.4 1.4zm0 3.1a2.2 2.2 0 0 1 0-3l-1.4-1.5a4.2 4.2 0 0 0 0 6l1.4-1.5zm3.1 0a2.2 2.2 0 0 1-3 0l-1.5 1.4a4.2 4.2 0 0 0 6 0l-1.5-1.4zm5.7-5.7l-5.7 5.7 1.4 1.4 5.8-5.7-1.5-1.4zm7.1 5.7l-5.6-5.7-1.5 1.4 5.7 5.7 1.4-1.4zm3.1 0a2.2 2.2 0 0 1-3 0l-1.5 1.4a4.2 4.2 0 0 0 6 0l-1.5-1.4zm0-3.1a2.2 2.2 0 0 1 0 3l1.4 1.5a4.2 4.2 0 0 0 0-6l-1.4 1.5zm-5.7-5.7l5.7 5.7 1.4-1.4-5.6-5.7-1.5 1.4zm6-7.4l-6 6 1.5 1.4 6-6-1.5-1.4zm0-3a2.2 2.2 0 0 1 0 3l1.4 1.4a4.2 4.2 0 0 0 0-5.9l-1.4 1.4zm-3 0a2.2 2.2 0 0 1 3 0l1.4-1.5a4.2 4.2 0 0 0-5.9 0l1.4 1.4zm-6 6l6-6-1.5-1.5-6 6 1.5 1.4zm-7.5-6.1l6 6 1.5-1.4-6-6-1.5 1.4zm-3 0a2.2 2.2 0 0 1 3 0l1.4-1.4a4.2 4.2 0 0 0-5.9 0l1.4 1.4z" fill="#246EDE" mask="url(#a)"/><g opacity=".3" stroke="#E6E7E8"><path d="M619 25.5a1.8 1.8 0 0 0-1.8-1.9h-39a1.8 1.8 0 1 0 0 3.7h39a1.8 1.8 0 0 0 1.8-1.8zm0-14.9a1.8 1.8 0 0 0-1.8-1.8h-39a1.8 1.8 0 1 0 0 3.7h39a1.8 1.8 0 0 0 1.8-1.9zM599.5 33a1.8 1.8 0 0 0-1.8-1.8h-19.4a1.8 1.8 0 1 0 0 3.6h19.4a1.8 1.8 0 0 0 1.8-1.8zm0-14.8a1.8 1.8 0 0 0-1.8-1.9h-19.4a1.8 1.8 0 1 0 0 3.7h19.4a1.8 1.8 0 0 0 1.8-1.8zM619 32.9a1.8 1.8 0 0 0-1.8-1.8H606a1.8 1.8 0 0 0 0 3.6h11a1.8 1.8 0 0 0 1.9-1.8zm0-14.8a1.8 1.8 0 0 0-1.8-1.9H606a1.8 1.8 0 0 0 0 3.7h11A1.8 1.8 0 0 0 619 18z" fill="#fff"/><path d="M569 5a4.5 4.5 0 0 1 4.6-4.5h49.2a4.5 4.5 0 0 1 4.5 4.5v33.5a4.5 4.5 0 0 1-4.5 4.5h-45.5c-.6 0-1.3.1-1.9.4l-10.6 3.9 4-10.6a5.5 5.5 0 0 0 .3-2V5z"/></g><g opacity=".3" stroke="#E6E7E8"><path d="M409.8 56c0-1 .8-1.8 1.8-1.8h38.9a1.8 1.8 0 1 1 0 3.6h-38.9a1.8 1.8 0 0 1-1.8-1.8zm19.4 7.4c0-1 .8-1.8 1.8-1.8h19.5a1.8 1.8 0 1 1 0 3.6H431a1.8 1.8 0 0 1-1.8-1.8zm-19.4 0c0-1 .8-1.8 1.8-1.8h11.1a1.8 1.8 0 0 1 0 3.6h-11.1a1.8 1.8 0 0 1-1.8-1.8z" fill="#fff"/><path d="M459.7 50.4a4.5 4.5 0 0 0-4.5-4.5H406a4.5 4.5 0 0 0-4.5 4.5V69a4.5 4.5 0 0 0 4.5 4.5h45.4c.7 0 1.3 0 2 .3l10.6 4-4-10.7a5.5 5.5 0 0 1-.3-1.9v-15z"/></g><g opacity=".3" stroke="#E6E7E8"><path d="M619 130.1a1.8 1.8 0 0 0-1.8-1.8h-39a1.8 1.8 0 1 0 0 3.6h39a1.8 1.8 0 0 0 1.8-1.8zm-19.5 7.4a1.8 1.8 0 0 0-1.8-1.8h-19.4a1.8 1.8 0 1 0 0 3.6h19.4a1.8 1.8 0 0 0 1.8-1.8zm19.5 0a1.8 1.8 0 0 0-1.8-1.8H606a1.8 1.8 0 1 0 0 3.6h11a1.8 1.8 0 0 0 1.9-1.8z" fill="#fff"/><path d="M569 124.5a4.5 4.5 0 0 1 4.6-4.5h49.2a4.5 4.5 0 0 1 4.5 4.5v18.7a4.5 4.5 0 0 1-4.5 4.5h-45.5c-.6 0-1.3 0-1.9.3l-10.6 4 4-10.7a5.5 5.5 0 0 0 .3-2v-14.8z"/></g><path opacity=".3" d="M304 78.3v-.1m0 0l-10.2-9.5V74h-16.7V82h16.7v5.8l10.2-9.5zm1-37.5h0m0 0l-6.4-6V38h-10.5v5h10.5v3.6l6.4-6zm52 17.6v-.1m0 0l-17-16.5V51h-28v13.6h28v10l17-16.5z" stroke="#E6E7E8"/><defs><clipPath id="clip0"><path fill="#fff" d="M573 88.7h23v23h-23z"/></clipPath></defs></svg>