<svg xmlns="http://www.w3.org/2000/svg">
	<symbol id="advantages__bg--left" fill="none" viewBox="0 0 150 380">
		<path d="M76.0005 0V100C76.0005 116.569 89.4319 130 106 130H146" stroke="#246EDE"/>
		<path d="M21.0005 100V130C21.0005 146.569 34.4319 160 51.0005 160H146" stroke="#246EDE"/>
		<path d="M21.0005 280V250 C21.0005 233.431 34.4319 220 51.0005 220H146" stroke="#246EDE"/>
		<path d="M80.0005 380V280C80.0005 263.431 93.4319 250 110 250H150" stroke="#246EDE"/>
		<path d="M146 190L0.999883 190" stroke="#246EDE"/>
	</symbol>
		<symbol id="advantages__bg--left-sm" fill="none" viewBox="0 0 69 362">
			<path d="M0.999999 76V118C0.999999 133.464 13.536 146 29 146V146" stroke="#246EDE" stroke-width="0.5"/>
			<path d="M50 0V86C50 95.3888 57.6112 103 67 103V103" stroke="#246EDE" stroke-width="0.5"/>
			<path d="M68 362L68 226" stroke="#246EDE" stroke-width="0.5"/>
			<path d="M0.999999 224V182C0.999999 166.536 13.536 154 29 154V154" stroke="#246EDE" stroke-width="0.5"/>
			<path d="M40 310V222C40 212.611 47.6112 205 57 205V205" stroke="#246EDE" stroke-width="0.5"/>
		</symbol>


	<symbol id="advantages__bg--right" fill="none" viewBox="0 0 138 380">
		<path d="M71 0V100C71 116.569 57.5685 130 41 130H1" stroke="#246EDE"/>
		<path d="M126 100V130C126 146.569 112.569 160 96 160H1" stroke="#246EDE"/>
		<path d="M126 280V250C126 233.431 112.569 220 96 220H1" stroke="#246EDE"/>
		<path d="M71 380V280C71 263.431 57.5685 250 41 250H1" stroke="#246EDE"/>
		<path d="M1 189.958L137 189.958" stroke="#246EDE"/>
	</symbol>
		<symbol id="advantages__bg--right-sm" fill="none" viewBox="0 0 69 365">
			<path d="M18 0V88C18 97.3888 10.3888 105 1 105V105" stroke="#246EDE" stroke-width="0.5"/>
			<path d="M68 78V118C68 134.569 54.5685 148 38 148H37" stroke="#246EDE" stroke-width="0.5"/>
			<path d="M1 365L1 228" stroke="#246EDE" stroke-width="0.5"/>
			<path d="M26 312V224C26 214.611 18.3888 207 9 207V207" stroke="#246EDE" stroke-width="0.5"/>
			<path d="M68 226V186C68 169.431 54.5685 156 38 156H37" stroke="#246EDE" stroke-width="0.5"/>
		</symbol>
</svg>
