<svg width="94" height="107" viewBox="0 0 94 107" fill="none" xmlns="http://www.w3.org/2000/svg">
<path d="M67.9789 1.76624C68.762 2.4694 69.7211 3.45466 70.4172 4.22694C70.6357 4.46879 70.4828 4.38737 70.6313 4.55616C70.92 4.88514 71.2242 5.16758 71.5059 5.50443C71.599 5.61622 71.4143 5.54157 71.5131 5.65742C72.0544 6.29195 72.5983 6.8598 73.1401 7.50156C75.7976 10.6541 78.2417 13.9143 80.501 17.4444C81.2423 18.6005 82.0566 20.0652 82.801 21.2849C82.8879 21.4269 82.9019 21.3042 82.923 21.3285C83.2519 21.7124 83.0403 21.6436 83.1836 21.9345C83.7531 23.0924 84.4109 24.3299 85.0036 25.4338C85.2533 25.8993 85.1453 25.3607 85.311 25.8728C85.3225 25.9082 85.1926 25.8236 85.2499 25.9567C85.3804 26.2582 85.6663 26.8095 85.7702 27.0405C85.9706 27.4855 86.0057 27.558 86.2004 27.9752C86.4661 28.5474 86.7361 29.2365 87.025 29.8526C87.087 29.9845 87.0833 29.7755 87.1888 29.9832C87.2948 30.191 87.5301 30.7589 87.5922 30.957C87.6547 31.155 87.5624 31.0981 87.5632 31.1374C87.5674 31.4614 87.9902 32.0512 88.0275 32.1344C88.7112 33.6469 89.1064 34.9991 89.6099 36.4863C89.9896 37.6085 90.394 38.8011 90.6969 39.872C91.0627 41.1678 91.3089 42.2864 91.6126 43.5444C91.6444 43.6774 91.6998 43.4999 91.7388 43.6624C92.1472 45.3691 92.4852 47.1547 92.6927 48.9033C92.7135 49.0792 92.5967 48.8666 92.6124 49.0429C92.714 50.112 92.7606 51.8495 93.1803 52.4569C93.2424 53.1947 93.3019 54.0862 93.2721 54.743C93.2526 55.1661 93.1372 54.7642 93.2069 55.2767C93.2222 55.3923 93.2924 55.2367 93.3092 55.4105C93.3803 56.1519 93.3859 56.9791 93.4403 57.714C93.4516 57.8639 93.5215 57.8217 93.535 57.8641C93.645 58.2208 93.4765 58.8155 93.4634 58.9436C93.368 59.9254 93.3869 60.6262 93.3424 61.5602C93.3316 61.7748 93.4389 61.5256 93.4317 61.7324C93.3923 62.8048 93.2968 63.9036 93.1428 64.924C93.1082 65.1509 93.0508 64.9325 93.0301 65.0403C92.9388 65.5116 93.0767 65.6449 92.9829 66.1094C92.963 66.2074 92.9017 66.1425 92.8917 66.1596C92.7357 66.4251 92.8682 66.6918 92.8614 66.7649C92.777 67.6858 92.5037 68.2335 92.3619 69.0992C92.3447 69.2029 92.4767 68.9872 92.4229 69.2779C92.0632 71.2224 91.4925 73.2695 90.7865 75.0933C90.6754 75.3806 90.6852 75.1512 90.6711 75.167C90.4479 75.4222 90.5386 75.6697 90.5103 75.7662C90.2831 76.5248 89.8773 77.1485 89.8564 77.7161C88.4964 80.7492 86.8919 83.7106 84.6716 86.1643C84.6436 86.1955 84.6256 86.0846 84.5702 86.1469C83.8958 86.8915 84.1174 86.8233 83.7962 87.4321C83.7143 87.586 83.2262 87.8344 83.185 87.8566C83.0348 87.9415 83.06 87.7318 83.0151 87.7652C82.6469 88.0407 82.9984 88.2728 82.5635 88.7149C82.5494 88.7282 82.5527 88.6171 82.5109 88.6486C82.3807 88.7462 82.2885 88.8801 82.1575 88.9717C81.8564 89.1799 81.626 89.1258 81.3072 89.5783C81.266 89.6355 81.5047 89.7387 81.0878 90.0967C80.9239 90.2412 80.1864 90.8735 79.9616 91.0307C79.7397 91.19 79.8384 91.0137 79.8212 91.0235C79.1854 91.4014 79.3769 91.1954 78.9977 91.3018C78.6182 91.405 78.9091 91.6237 78.8119 91.7451C78.7159 91.8665 78.2242 92.1198 78.1048 92.1672C77.9825 92.2181 78.087 92.0864 77.9837 92.139C77.2969 92.4849 77.8062 92.4726 77.6283 92.661C77.2034 93.1046 76.6658 93.1373 76.1827 93.3994C76.0513 93.4703 76.1862 93.4584 76.0748 93.5314C75.6311 93.8189 75.3155 93.9063 74.8177 94.2601C74.7372 94.318 74.3711 94.6884 74.0484 94.7215C74.002 94.7262 74.0834 94.6131 73.8802 94.6986C73.577 94.8269 73.0341 95.0702 72.7164 95.2367C72.482 95.3598 72.8027 95.3331 72.4843 95.4389C72.3425 95.4853 72.5689 95.3173 72.3048 95.4089C72.0432 95.5008 71.3864 95.7774 71.1319 95.8785C70.8789 95.9805 71.0472 96.0012 71.0288 96.0143C70.9165 96.093 70.4358 96.3164 70.391 96.3319C68.2841 97.1207 66.0715 97.5675 63.9515 98.0106C63.7817 98.0458 63.9108 98.1085 63.8851 98.1148C63.305 98.2568 63.7271 97.9501 63.3046 97.9474C63.3933 98.1076 63.1465 98.1202 62.7305 98.2057C62.5298 98.2468 62.6502 98.2957 62.6328 98.3054C62.3474 98.4531 62.116 98.3531 62.0581 98.3342C61.8436 98.265 61.64 98.4107 61.4933 98.363C61.3472 98.3157 61.6512 98.1785 61.2416 98.2322C61.1339 98.3082 61.4603 98.4307 61.1502 98.4959C59.9127 98.7587 57.8697 98.7775 56.899 98.7921C55.9573 98.812 55.6456 98.8241 55.0854 98.806C54.0686 98.7658 54.4355 98.8853 53.8406 98.933C53.2447 98.9766 53.5403 98.686 53.4564 98.6208C53.3742 98.5552 53.281 98.6183 53.1774 98.5805C53.0743 98.5425 53.3009 98.5059 53.0564 98.4856C52.8129 98.4662 52.1322 98.5515 52.0396 98.6129C51.8456 98.7442 52.148 98.9088 51.4858 98.8216C51.4477 98.8164 51.5763 98.7457 51.4302 98.7296C50.2786 98.6053 49.0066 98.4936 47.8547 98.3118C47.7023 98.2874 47.8489 98.2167 47.7604 98.2015C46.8363 98.0389 47.1519 98.2217 46.6162 98.3183C46.7588 98.1184 46.4931 97.9546 45.7748 97.8531C45.3419 97.7908 45.4027 97.8943 45.111 97.9184C45.0235 97.9257 44.7236 97.8145 44.6604 97.8494C44.452 97.9629 44.7219 98.1716 43.9735 97.9852C43.9407 97.9767 44.0596 97.9159 43.9453 97.8923C43.205 97.7368 43.0899 97.871 42.2681 97.739C41.5904 97.629 40.5708 97.3303 39.8825 97.1654C39.948 96.9318 39.2885 96.845 38.9854 96.9471C38.5375 96.8389 38.0464 96.7336 37.6116 96.6044C37.462 96.56 37.5781 96.5159 37.5608 96.5039C37.2963 96.3171 37.0586 96.4255 36.958 96.407C35.881 96.2017 34.98 95.8327 33.9667 95.6722C33.9313 95.6666 33.83 95.8134 33.6051 95.6212C33.5907 95.6082 33.9311 95.626 33.4778 95.4899C33.0243 95.354 32.1866 95.0122 31.5202 94.8878C31.3594 94.858 30.9237 94.8659 30.6373 94.6629C30.5993 94.6356 30.6603 94.6043 30.6072 94.5592C30.4354 94.4147 30.2752 94.5423 30.086 94.3293C29.8968 94.1161 29.4462 93.8564 28.752 93.7282C28.73 93.7238 28.53 93.799 28.3214 93.7258C27.9885 93.609 27.5214 93.4178 27.169 93.2947C27.0003 93.2359 27.0803 93.3529 27.0505 93.344C25.9395 93.0011 25.2511 92.6701 24.1142 92.2053C23.9077 92.1207 23.2632 91.9962 22.8866 91.7517C22.4729 91.4829 23.087 91.2845 22.0162 90.9645C21.5842 90.834 20.855 91.1034 20.1949 90.5374C18.6392 89.9643 17.4784 89.3101 16.0245 88.7638C15.9597 88.7394 15.7001 88.7824 15.5518 88.7132C15.3319 88.6102 15.2384 88.4929 15.0819 88.4166C14.4267 88.0953 13.7908 87.8646 13.1463 87.5511C12.9014 87.432 13.0177 87.4091 12.7252 87.2662C12.4327 87.123 12.1962 87.113 11.8146 86.8799C11.5264 86.7032 11.3058 86.3859 10.9115 86.1687C10.8155 86.3297 10.5331 86.1879 10.0249 85.9916C9.9328 85.9567 9.99821 86.0617 9.95312 86.0482C9.7689 85.9944 9.636 85.8681 9.4585 85.8204C9.41533 85.8087 9.38504 85.8649 9.34811 85.8585C9.03327 85.8066 8.64625 85.451 8.57992 85.3893C8.32539 85.1543 8.14856 85.1576 7.93656 85.0076C7.72492 84.8576 8.08801 84.9905 7.83125 84.8339C7.29916 84.5096 6.57926 84.1487 6.01168 83.8477C5.78504 83.7279 5.90034 83.8846 5.86698 83.8692C5.38724 83.642 4.9524 83.3085 4.61013 83.3182C4.48846 82.7555 4.30533 83.2046 3.66686 82.7606C3.61662 82.7254 3.64724 82.5061 3.86719 82.5902C4.08702 82.6742 4.3673 82.8985 4.67327 83.0079C4.7459 83.0342 5.22115 83.0668 5.27875 83.0838C5.73108 83.2193 5.6438 83.5234 5.65763 83.5501C5.81753 83.8423 6.38097 83.9006 6.50973 83.9512C7.10034 84.184 7.5534 84.4662 8.039 84.6609C8.35624 84.7883 8.47772 84.6221 8.71213 84.7478C9.49559 85.1665 9.61928 85.5449 10.4992 85.7054C10.6931 85.7423 10.6219 85.4608 11.1556 85.9162C11.1891 85.9449 11.5721 86.3091 11.8765 86.3435C11.9147 86.3478 11.9418 86.2891 11.9873 86.3049C12.2913 86.4124 12.4612 86.551 12.7851 86.6778C13.1087 86.8045 13.4995 86.9484 13.845 87.1342C14.0533 87.2462 14.2762 87.4826 14.3658 87.5566C14.6185 87.7674 14.9846 87.782 15.1193 87.9568C15.2555 88.1327 14.8398 88.116 15.2821 88.3909C15.3691 88.2458 15.4804 88.1068 15.5781 87.9655C16.6011 88.4364 17.5779 88.9273 18.5887 89.3532C18.714 89.4058 18.6219 89.268 18.7571 89.3221C19.3448 89.5581 19.8743 89.8511 20.5079 90.0854C21.0022 90.2679 21.5687 90.3951 22.08 90.5737C22.3159 90.8758 23.0838 91.1093 23.6124 91.3317C23.7978 91.4097 23.7668 91.4528 23.8941 91.5195C24.3741 91.7694 24.1991 91.5204 24.3461 91.5478C24.974 91.6632 24.8894 92.0429 25.5821 92.2883C25.619 92.3017 26.1338 92.2713 26.1987 92.281C26.6144 92.3428 26.2387 92.3715 26.4759 92.4731C26.8976 92.654 27.2233 92.8218 27.8018 92.9592C27.971 92.9992 28.4023 93.0126 28.6846 93.2124C28.7218 93.2386 28.6772 93.2951 28.7092 93.3102C29.2902 93.5757 29.3727 93.3777 29.7365 93.4218C30.1001 93.4657 30.5781 93.7738 30.6716 93.8479C30.9167 94.041 30.444 93.8245 30.4254 93.8296C30.2085 93.8943 30.5982 93.9968 30.8859 94.099C30.8653 94.3117 31.2761 94.4274 31.1843 94.2037C31.1736 94.1792 30.9416 94.1267 30.8859 94.099C31.2035 93.9845 31.6555 94.0987 32.0886 94.4304C32.291 94.5853 32.0458 94.622 32.7498 94.7921C33.0685 94.8683 32.9881 94.6947 33.2748 94.7377C33.928 94.8355 34.6982 95.1918 35.4198 95.3633C35.6735 95.4233 35.4488 95.2817 35.6226 95.3199C36.0835 95.4205 36.468 95.5813 36.9276 95.6659C36.9692 95.6735 36.8894 95.5684 37.03 95.6027C38.0952 95.8595 38.9964 96.1246 40.075 96.3589C40.6095 96.4754 41.4862 96.6079 42.0911 96.7313C43.0868 96.9378 44.2738 97.2588 45.1036 97.3528C45.6444 97.4144 45.5377 97.3146 45.7747 97.2919C46.2316 97.2479 46.9779 97.5398 47.0781 97.5818C47.0814 97.5835 46.6246 97.5455 46.8618 97.6181C46.9919 97.7233 47.073 97.5815 47.0781 97.5818C47.145 97.6111 48.0425 97.7341 48.2214 97.7357C48.3271 97.7382 48.2766 97.6543 48.3315 97.6571C49.6349 97.7236 50.9008 97.7997 52.1508 97.8934C52.1728 97.896 52.1356 97.9817 52.1873 97.9867C52.9106 98.0573 53.3721 97.9625 53.9561 97.9087C54.5227 97.8541 55.0589 97.8739 55.4172 98.0199C55.8851 97.9969 56.5492 98.0456 56.9287 98.0704C57.3086 98.0955 57.3523 97.9221 57.3851 97.9174C58.4069 97.7581 58.9862 97.8138 60.0261 97.727C60.5533 97.6839 61.573 97.5334 62.1153 97.4317C62.5451 97.3526 62.8093 97.3502 63.1965 97.2577C63.2488 97.2452 63.1824 97.1799 63.198 97.1742C63.6166 97.0086 63.4402 97.2273 63.5359 97.2438C63.8817 97.3026 64.0968 97.3287 64.6329 97.1604C64.7601 97.121 65.0548 96.7854 65.3009 96.7131C65.6082 96.6222 65.5127 96.7427 65.8321 96.6427C65.8594 96.6341 65.8401 96.5785 66.0397 96.532C66.9657 96.3153 67.9543 96.0674 68.8565 95.7623C68.9797 95.7208 68.7924 95.6846 68.9693 95.6231C69.7743 95.3435 70.7477 94.9801 71.5607 94.6806C71.7631 94.6064 71.6647 94.7194 71.7153 94.7189C72.0271 94.7139 72.328 94.3911 72.3863 94.3606C73.7723 93.633 74.954 93.1774 76.2899 92.2528C76.3644 92.2024 76.8296 91.6831 77.1635 91.6432C77.186 91.6406 77.5238 91.6047 77.6746 91.3629C77.6846 91.3472 77.4829 91.3894 77.7555 91.2056C78.0295 91.0206 78.4205 90.6623 78.8305 90.4562C78.9599 90.3914 79.3272 90.3068 79.5732 89.9365C79.5912 89.9118 79.9003 89.272 80.2037 89.2675C80.253 89.2669 80.3659 89.4529 80.6683 89.0334C80.7253 88.9529 80.5649 89.0361 80.7317 88.8433C80.9838 88.5501 81.4023 88.2285 81.6728 87.8218C81.7206 87.7504 81.8664 87.3981 82.1403 87.2662C82.1833 87.2455 82.1762 87.3557 82.2854 87.2514C82.8051 86.7544 83.2647 86.159 83.7628 85.6261C83.9389 85.4366 83.9444 85.6112 84.1371 85.4193C84.3301 85.2278 84.6866 84.8129 84.8128 84.5537C84.9389 84.2951 84.6109 84.4362 84.8474 84.0871C85.8713 82.5645 86.896 81.0707 87.7393 79.4303C87.8635 79.1867 87.7052 79.3611 87.8816 78.9989C88.548 77.6669 89.4206 75.29 89.9401 74.0846C90.3575 73.1439 90.046 74.3983 90.3262 73.6638C90.4605 73.3072 90.374 72.8519 90.3928 72.7624C90.5757 71.8833 90.822 71.2997 90.9811 70.4963C91.0135 70.3304 90.8929 70.4725 90.9211 70.3316C91.0176 69.8445 91.1576 69.3666 91.2397 68.9114C91.276 68.7078 91.2047 68.7329 91.245 68.5469C91.3403 68.1012 91.4365 67.7076 91.568 67.2743C91.5799 67.2346 91.6166 67.5203 91.6733 67.1839C91.7644 66.6395 91.9204 65.9635 91.9343 65.3169C91.9373 65.13 91.7907 65.1067 91.9365 64.7207C91.9665 64.6396 92.1349 64.7651 92.0277 64.2842C92.0111 64.2028 91.8751 63.4032 92.0366 63.0268C92.0797 62.9277 92.2448 62.6766 92.2362 62.4479C92.2345 62.4169 92.1467 62.5349 92.1508 62.3466C92.1658 61.6855 92.2053 60.9765 92.197 60.3017C92.1945 60.1225 92.1053 60.387 92.1039 60.1202C92.1 59.3868 92.122 58.4649 92.1331 57.7361C92.1375 57.4675 92.2099 57.6516 92.217 57.6319C92.332 57.3143 92.162 57.1315 92.1492 57.0275C92.0716 56.382 92.1244 55.8659 92.0697 55.2833C92.0545 55.121 91.9833 55.2411 91.9744 55.2091C91.8854 54.878 92.0415 55.1191 92.0432 54.9054C92.0481 54.3062 91.9881 53.6383 91.92 53.0312C91.8947 52.8082 91.8286 53.0679 91.8068 52.8678C91.6757 51.6846 91.5259 50.4377 91.4017 49.2987C91.3781 49.0821 91.468 49.2068 91.4769 49.1595C91.5397 48.8326 91.3144 48.402 91.2823 48.3002C91.1366 47.8361 91.1646 47.6409 91.0763 47.2222C90.6413 45.1483 90.1063 42.6976 89.5874 40.7668C88.9287 38.3115 88.3532 36.3722 87.4788 34.1005C87.423 33.9562 87.3914 34.135 87.3421 34.0112C86.7108 32.4171 86.0747 30.8029 85.3375 29.2509C85.2769 29.1232 85.2814 29.345 85.1814 29.1414C84.9757 28.7241 84.7292 28.1877 84.5494 27.7496C84.4615 27.5359 84.6641 27.7818 84.574 27.5673C84.3642 27.0676 84.1114 26.5432 83.8454 26.0515C83.732 25.8424 83.8145 26.2029 83.6732 25.9282C82.707 24.06 81.7038 22.2968 80.6929 20.4122C80.6242 20.2842 80.7115 20.0753 80.5207 19.8337C80.4653 19.8408 80.4151 19.8734 80.3636 19.8934C78.7439 17.3345 77.0559 14.7991 75.1872 12.3877C75.108 12.2857 75.1689 12.5213 75.0151 12.3242C74.1219 11.182 73.2095 10.1178 72.3168 8.94361C72.2277 8.82707 72.4065 8.77111 72.1015 8.46299C72.0481 8.40847 71.598 7.93589 71.457 7.83569C71.4375 7.82243 71.4579 7.9641 71.3155 7.80957C70.4895 6.91104 69.6193 5.96189 68.8059 5.068C68.674 4.92295 68.881 5.01178 68.7875 4.90791C68.1228 4.17094 67.3031 3.4626 66.661 2.75378C66.2304 2.27924 66.5029 2.33371 66.3511 1.99591C66.3297 1.94804 66.0388 1.67661 66.08 1.60075C66.1833 1.40881 66.4825 1.36879 66.5758 1.14885C66.5964 1.10145 66.1626 0.777897 66.4776 0.905579C66.4995 0.914617 66.8141 1.14938 66.9117 1.18549C66.9796 1.21067 66.9487 1.06588 67.0732 1.13277C67.1977 1.1998 67.2594 1.35445 67.4533 1.47887C67.6473 1.60317 67.6416 1.46359 67.9789 1.76624ZM58.6234 98.1572C58.972 98.2135 58.9987 97.9114 58.6355 98.0101C58.6179 98.0152 58.6054 98.1545 58.6234 98.1572ZM17.4783 89.1258C17.8353 89.4261 18.1914 89.3683 17.9441 89.1501C17.6969 88.9318 17.3695 89.0345 17.4783 89.1258ZM13.1245 87.2506C13.5736 87.577 13.8307 87.2291 13.2671 87.0587C13.2344 87.0486 13.0983 87.2315 13.1245 87.2506ZM67.5297 3.04887C67.5291 3.04257 67.3257 2.84277 67.3179 2.84099C67.1428 2.80502 67.5491 3.20393 67.5297 3.04887ZM8.78541 85.2486C8.90572 85.3737 9.35464 85.5246 9.20572 85.3701C9.08608 85.2461 8.63586 85.0932 8.78541 85.2486ZM76.0947 93.282C76.1018 93.283 76.2788 93.1804 76.262 93.1609C76.2081 93.0992 75.977 93.2654 76.0947 93.282ZM1.63287 81.466C2.70293 82.0763 3.18441 82.7363 2.03269 82.0602C1.82384 81.9372 2.54398 82.2138 2.28907 82.0376C1.82288 81.7157 1.38689 81.7258 0.936201 81.3394C0.855084 81.2697 1.57255 81.431 1.63502 81.4667C1.63432 81.4665 1.63354 81.4662 1.63287 81.466ZM58.8475 98.501C58.8548 98.5046 59.1307 98.4867 59.1368 98.482C59.278 98.3757 58.7235 98.4117 58.8475 98.501ZM85.0791 85.5167C85.0965 85.5105 85.5004 84.9889 85.5057 84.966C85.587 84.6004 84.7751 85.6499 85.0791 85.5167ZM39.873 97.1567C39.5573 97.1865 39.1981 97.1184 38.9868 96.9475C39.2817 97.0207 39.5788 97.0873 39.873 97.1567ZM0.951869 80.206C1.09187 80.1368 1.29319 80.1055 1.45109 80.0981C1.50054 80.0957 1.49245 80.1534 1.52728 80.154C1.59536 80.1551 1.64581 80.1128 1.7143 80.1179C1.73707 80.1199 1.73584 80.2079 1.75917 80.2081C1.88681 80.2086 1.99134 80.1549 2.11497 80.1365C2.724 80.0458 3.30685 79.9039 3.90871 79.7634C4.10714 79.717 4.36586 79.719 4.55753 79.6267C4.57988 79.6159 4.54471 79.5495 4.54743 79.5423C4.59083 79.4322 4.61025 79.5818 4.6617 79.587C4.86578 79.6073 5.06974 79.5532 5.2364 79.4735C5.30724 79.4394 5.19063 79.3216 5.28911 79.3778C5.29591 79.3816 5.29952 79.4622 5.32231 79.4641C5.37396 79.4682 5.45771 79.4285 5.49534 79.4237C5.56798 79.4148 5.57918 79.4106 5.64479 79.3918C5.73468 79.3669 5.85211 79.3723 5.94287 79.3266C5.96217 79.3166 5.91204 79.2479 5.94075 79.225C5.9695 79.2021 6.05785 79.1828 6.09241 79.1921C6.12698 79.2015 6.13268 79.2656 6.14199 79.2779C6.21945 79.3821 6.27086 79.1903 6.28251 79.1824C6.49652 79.0439 6.72522 79.0758 6.94522 79.0096C7.11218 78.9591 7.2817 78.8751 7.44192 78.8316C7.6329 78.7801 7.8059 78.7736 7.98775 78.7113C8.00697 78.7048 7.95712 78.6212 7.98054 78.6131C8.22936 78.5271 8.48253 78.4619 8.75171 78.4477C8.77872 78.4463 8.77008 78.5354 8.7985 78.5388C8.97195 78.5578 9.26243 78.6414 9.25027 78.2686C9.35857 78.2508 9.48931 78.2268 9.60345 78.2685C9.67702 78.2953 9.64453 78.3992 9.70734 78.3402C9.72154 78.327 9.67718 78.2578 9.70019 78.2437C9.79707 78.1844 9.91938 78.1746 10.0117 78.1043C10.0304 78.0898 10.0043 78.0237 10.0067 78.0097C10.0274 77.8957 10.1603 78.034 10.1822 78.0404C10.348 78.0873 10.4393 78.0219 10.5697 77.9851C10.6 77.9767 10.5371 77.8962 10.5652 77.8848C10.7116 77.8267 10.8696 77.7878 11.0289 77.7841C11.0644 77.7835 11.0575 77.8702 11.0757 77.8738C11.1554 77.8891 11.1268 77.738 11.2024 77.7498C11.2183 77.7521 11.2304 77.8209 11.2351 77.8274C11.3092 77.93 11.2952 77.7574 11.3043 77.7507C11.4192 77.6629 11.5528 77.8075 11.6707 77.746C11.6848 77.7385 11.6258 77.6646 11.6669 77.6485C11.9402 77.5413 12.2436 77.4755 12.5413 77.4595C12.5875 77.4569 12.5756 77.5293 12.5807 77.5363C12.6614 77.6446 12.6412 77.4731 12.6534 77.4627C12.7511 77.3853 12.8958 77.4908 12.913 77.2741C13.4032 77.2006 13.8383 76.9513 14.3566 76.9854C14.3631 76.9857 14.3765 77.0691 14.3895 77.0692C14.5453 77.0716 14.4806 76.9551 14.5291 76.7743C14.5413 76.7289 14.6687 76.8914 14.6791 76.903C14.7173 76.9458 14.729 77.0724 14.7397 77.0797C14.8268 77.136 14.6979 76.7443 14.7849 76.7181C14.7878 76.7179 14.7982 76.794 14.8076 76.7991C14.8371 76.815 14.851 76.7793 14.8807 76.7977C14.9488 76.8404 15.0244 77.0268 15.0685 76.8919C15.074 76.8744 14.9919 76.655 15.0727 76.6423C15.105 76.6374 15.2409 76.5925 15.2836 76.5955C15.3263 76.5984 15.3216 76.6785 15.3253 76.6808C15.4573 76.7453 15.43 76.7966 15.5241 76.9224C15.6181 77.0476 15.5031 76.7162 15.513 76.6724C15.5229 76.6286 15.6223 76.6847 15.6491 76.7065C15.6759 76.7283 15.6665 76.7811 15.6877 76.7916C15.8278 76.86 15.6859 76.6105 15.7061 76.5464C15.7535 76.3947 15.8945 76.6237 15.9799 76.6247C16.003 76.625 15.9688 76.5735 15.986 76.5625C16.0544 76.5199 16.1225 76.5842 16.1859 76.4875C16.1962 76.4718 16.2199 76.3015 16.2971 76.3981C16.3082 76.4121 16.3089 76.4795 16.3448 76.4838C16.3985 76.4905 16.488 76.4784 16.5328 76.4424C16.5658 76.4158 16.492 76.3265 16.5489 76.344C16.5742 76.3519 16.5531 76.4234 16.5992 76.4332C16.645 76.4431 16.7448 76.4103 16.7824 76.3967C16.82 76.3832 16.7758 76.3119 16.7774 76.3057C16.7871 76.2702 16.8492 76.2108 16.8557 76.209C17.1797 76.1015 17.5203 76.1419 17.8255 76.0032C17.8495 75.9924 17.8084 75.9156 17.8118 75.9131C17.887 75.8532 17.8848 76.0909 17.9663 76.1457C17.9079 75.9824 17.9522 76.0019 18.0069 75.9656C18.0333 75.948 17.9982 75.8885 17.9989 75.8811C18.0127 75.7706 18.0804 75.8877 18.0959 75.9111C18.1528 75.9975 18.1502 75.8761 18.1886 75.9337C18.2269 75.9908 18.2103 76.0975 18.2677 76.079C18.266 76.0147 18.1766 75.8723 18.2129 75.834C18.3498 75.6892 18.6952 75.7184 18.832 75.6912C18.9686 75.664 19.0081 75.6402 19.0919 75.6385C19.2433 75.6354 19.1576 75.5356 19.2285 75.4569C19.2997 75.378 19.3424 75.6741 19.3732 75.7313C19.4037 75.7885 19.3983 75.7218 19.4237 75.7507C19.4489 75.7796 19.4284 75.8309 19.468 75.8328C19.5075 75.8346 19.573 75.6969 19.5666 75.6293C19.553 75.4863 19.4664 75.3579 19.5761 75.3793C19.5824 75.3806 19.5871 75.4604 19.6102 75.4617C19.7932 75.4693 19.9666 75.4212 20.1474 75.4223C20.1723 75.4226 20.1768 75.5116 20.1916 75.5127C20.3455 75.5243 20.2542 75.3993 20.2833 75.2214C20.3283 75.4331 20.4081 75.547 20.5132 75.5168C20.5764 75.4987 20.5385 75.4117 20.5602 75.3359C20.5666 75.3131 20.6298 75.3617 20.6251 75.3168C20.6101 75.1701 20.5216 75.0273 20.6482 75.0568C20.6538 75.0583 20.6615 75.1388 20.6792 75.1385C20.7941 75.1369 20.7632 74.9879 20.8724 74.9361C20.9579 74.8954 21.1439 74.9361 21.2504 74.9198C21.3179 75.1528 21.3984 75.0707 21.3895 74.8988C21.4577 74.8854 21.5266 74.8549 21.5973 74.8579C21.6216 74.8588 21.6273 74.9304 21.6322 74.9369C21.709 75.0381 21.6911 74.8736 21.7036 74.8632C21.8408 74.7573 22.0025 74.8376 22.1159 74.6778C22.1199 74.672 22.08 74.5081 22.1549 74.6141C22.1599 74.6214 22.133 74.7095 22.2043 74.6943C22.2756 74.6791 22.4328 74.7263 22.507 74.6226C22.525 74.5975 22.5449 74.4488 22.6231 74.5369C22.6336 74.5489 22.6405 74.5973 22.6574 74.6203C22.7115 74.6935 22.6787 74.5256 22.7549 74.6537C22.8312 74.7819 22.9344 74.8641 23.0032 74.7392C23.0055 74.7355 22.9898 74.5993 23.0211 74.5922C23.071 74.5809 23.1485 74.587 23.1994 74.5708C23.2237 74.563 23.184 74.4875 23.1878 74.4847C23.3388 74.3904 23.4773 74.4269 23.6628 74.4051C23.6968 74.4013 23.7568 74.264 23.8453 74.3318C23.9424 74.4059 23.99 74.8212 24.1196 74.68C24.172 74.6234 24.1027 74.0992 24.2947 74.324C24.4973 74.1932 24.7423 74.2643 24.9372 74.106C24.946 74.0989 24.9358 73.9499 24.9599 73.9447C24.9957 73.9373 25.0345 73.9968 25.0607 73.9936C25.1711 73.9819 25.2499 73.8975 25.3532 73.876C25.3924 73.8676 25.3993 73.9391 25.446 73.9292C25.4927 73.9192 25.4965 73.8213 25.5711 73.8457C25.6275 73.8644 25.7286 74.0319 25.7969 74.0345C25.7456 73.8548 25.7892 73.8457 25.8506 73.7758C25.8624 73.7622 25.8281 73.7046 25.8327 73.695C25.8511 73.6545 25.8924 73.6984 25.9085 73.6554C25.9125 73.6451 25.8944 73.5839 25.8966 73.572C25.9145 73.4684 26.0298 73.5838 26.0497 73.6039C26.1256 73.6803 26.1246 73.5939 26.1727 73.6185C26.2207 73.6432 26.1784 73.7047 26.2284 73.7133C26.3322 73.7312 26.4453 73.6865 26.5379 73.6618C26.5747 73.6516 26.5253 73.5775 26.53 73.5741C26.5994 73.5307 26.702 73.5946 26.6952 73.4194C26.8737 73.8241 26.7286 73.365 26.862 73.4167C26.8726 73.4209 26.943 73.6165 26.9191 73.6555C26.8951 73.6945 26.8269 73.6472 26.7951 73.7063C26.7876 73.7202 26.7818 73.9249 26.7768 73.9387C26.7375 74.0467 26.6391 73.7524 26.6307 73.7371C26.5384 73.5729 26.5233 73.7961 26.5077 73.8159C26.4361 73.9066 26.3466 73.8879 26.2844 73.956C26.2436 74.0002 26.2971 74.1963 26.2563 74.202C26.121 74.2211 25.9944 73.9632 25.943 74.2351C25.9319 74.2932 26.0217 74.4981 25.8779 74.3589C25.8688 74.3501 25.7534 74.218 25.7422 74.3268C25.7408 74.3405 25.7595 74.4025 25.7544 74.4097C25.7199 74.4567 25.6753 74.4163 25.6338 74.4545C25.5923 74.4927 25.5444 74.5455 25.4827 74.5411C25.4454 74.5386 25.3679 74.436 25.3434 74.4125C25.2738 74.3446 25.2654 74.4927 25.2078 74.4024C25.1498 74.3118 25.1599 74.1447 25.0666 74.1028C25.1122 74.2647 25.1554 74.4319 25.1996 74.5952C25.0356 74.6381 24.8603 74.634 24.6996 74.6899C24.6797 74.697 24.7263 74.7774 24.7057 74.7872C24.6185 74.8283 24.5202 74.7905 24.4329 74.8435C24.3654 74.8848 24.3125 75.0006 24.2428 75.0467C24.1408 74.8764 24.0458 74.9731 23.9581 74.981C23.9274 74.9839 23.9146 74.9341 23.8892 74.9242C23.7938 74.8881 23.879 75.04 23.8654 75.0721C23.8068 75.2088 23.6885 74.8426 23.5836 74.884C23.578 74.886 23.5671 75.1034 23.5612 75.1185C23.5241 75.2166 23.5306 75.0532 23.4881 75.0501C23.4104 75.0445 23.3479 75.0121 23.2833 75.0942C23.2646 75.1184 23.2441 75.258 23.1693 75.1771C23.1595 75.1666 23.1434 75.1006 23.1374 75.0983C23.0296 75.0615 23.0884 75.2663 23.0584 75.3506C23.0284 75.4349 22.9078 75.3175 22.8796 75.2817C22.8064 75.1892 22.8982 75.2272 22.8973 75.2163C22.8871 75.0856 22.8363 75.1239 22.7895 75.1266C22.7232 74.9285 22.6657 74.9588 22.7412 75.1303C22.7496 75.149 22.778 75.1201 22.7895 75.1266C22.81 75.3344 22.7504 75.3797 22.6213 75.2185C22.5608 75.1429 22.5635 75.0328 22.4691 75.1011C22.4262 75.132 22.486 75.2642 22.4551 75.3145C22.3843 75.4291 22.2204 75.3382 22.127 75.3882C22.0931 75.4064 22.1509 75.4713 22.1285 75.4863C22.0692 75.5264 21.9945 75.4871 21.9374 75.5358C21.9323 75.5403 21.9705 75.6149 21.9504 75.622C21.7981 75.6777 21.648 75.6676 21.4858 75.7147C21.4074 75.7375 21.2806 75.8229 21.197 75.8385C21.0522 75.8659 20.8451 75.8029 20.7335 75.8667C20.6607 75.908 20.7015 75.9818 20.6841 76.0457C20.6507 76.1693 20.4802 76.0169 20.4561 75.9926C20.4554 75.9917 20.5171 75.953 20.469 75.9232C20.4228 75.845 20.4568 75.992 20.4561 75.9926C20.4404 75.9769 20.3006 75.9993 20.2784 76.0224C20.2664 76.035 20.2969 76.1074 20.2902 76.1125C20.1305 76.2334 19.9561 76.3064 19.7633 76.3261C19.7596 76.3255 19.7393 76.2404 19.731 76.2402C19.6143 76.2346 19.5774 76.3572 19.5086 76.4441C19.4397 76.531 19.3646 76.5313 19.27 76.4031C19.2097 76.4409 19.0965 76.4057 19.0307 76.3834C18.9649 76.3611 19.0062 76.5263 19.0024 76.5309C18.8845 76.6786 18.7705 76.6112 18.6117 76.6429C18.5362 76.6578 18.3977 76.7251 18.3235 76.7667C18.265 76.7999 18.2157 76.7731 18.1652 76.8148C18.1583 76.8204 18.188 76.8906 18.1864 76.8941C18.1478 77.0002 18.1257 76.8136 18.1029 76.786C18.02 76.6853 17.9718 76.6329 17.9053 76.7119C17.8899 76.73 17.9109 77.002 17.8806 77.0273C17.8411 77.0598 17.8307 76.9632 17.79 76.9996C17.7865 77.0026 17.8043 77.0588 17.7743 77.0651C17.6354 77.0949 17.4777 77.1064 17.3384 77.1543C17.3193 77.1607 17.3709 77.2428 17.3437 77.2534C17.2164 77.3032 17.0723 77.3428 16.9326 77.339C16.8981 77.3378 16.8989 77.2692 16.8865 77.2526C16.811 77.1525 16.8009 77.3339 16.7921 77.3399C16.5829 77.4884 16.3603 77.3937 16.1441 77.5354C16.1324 77.5434 16.0856 77.7486 15.9961 77.6115C15.9901 77.6024 15.9 77.4616 15.8928 77.5785C15.8923 77.5858 15.9434 77.6568 15.8933 77.6631C15.8431 77.6693 15.7822 77.7453 15.6905 77.6779C15.6615 77.6567 15.5663 77.5179 15.5411 77.6588C15.5396 77.6686 15.5269 77.974 15.4355 77.7933C15.4206 77.7635 15.3658 77.5597 15.3229 77.6855C15.3148 77.7098 15.354 77.7472 15.3252 77.7865C15.2812 77.847 15.1894 77.8155 15.1463 77.9266C15.1388 77.9462 15.1279 78.0989 15.0549 78.0074C15.0435 77.993 15.0357 77.9218 15.0114 77.9209C14.8957 77.9161 14.7994 77.9941 14.679 77.9794C14.6364 77.9743 14.6229 77.8594 14.5749 77.842C14.5268 77.8246 14.4392 77.8202 14.413 77.8824C14.3868 77.9446 14.4839 78.1049 14.4264 78.1373C14.1766 78.2781 13.8806 78.2557 13.6086 78.321C13.5683 78.3306 13.6198 78.383 13.5617 78.4017C13.3475 78.471 12.9928 78.6409 12.7661 78.5648C12.5845 78.5039 12.7489 78.3667 12.6215 78.358C12.56 78.354 12.5608 78.574 12.5494 78.5844C12.4384 78.6881 12.321 78.6257 12.2119 78.6884C12.1894 78.7013 12.2377 78.7761 12.2183 78.7863C12.1521 78.8216 12.0671 78.8072 12.0019 78.8341C11.9726 78.8463 11.9969 78.9072 11.9677 78.9107C11.898 78.9198 11.8313 78.9111 11.749 78.8719C11.7414 78.8684 11.7579 78.7786 11.7079 78.7904C11.627 78.8099 11.5108 78.7816 11.4372 78.8688C11.4154 78.8949 11.4572 79.0382 11.3692 78.957C11.3507 78.9401 11.3149 78.7637 11.2913 78.9324C11.2873 78.9605 11.233 79.1949 11.1382 79.0827C11.1132 79.0532 11.0334 78.924 11.0073 78.9559C11.0039 78.9608 11.0447 79.0322 11.0199 79.0478C10.932 79.1015 10.8295 79.1233 10.7387 79.1768C10.7145 79.1912 10.7773 79.259 10.7405 79.2779C10.6392 79.3302 10.4992 79.3501 10.3868 79.3567C10.3453 79.359 10.3523 79.2851 10.3473 79.2788C10.2672 79.1758 10.2875 79.3412 10.2753 79.3548C10.1983 79.4378 10.105 79.3852 10.0248 79.4306C10.0026 79.4429 10.0419 79.5128 10.0392 79.5209C10.0097 79.601 10.0059 79.4554 9.97035 79.4498C9.87074 79.4339 9.77556 79.469 9.69045 79.5049C9.65922 79.5183 9.72162 79.5943 9.69329 79.6053C9.52612 79.6717 9.34517 79.7169 9.16327 79.7192C9.12897 79.7195 9.12874 79.6466 9.11758 79.6333C9.04019 79.5398 9.01754 79.7057 9.00643 79.7242C8.95598 79.8085 8.91124 79.7574 8.8532 79.7868C8.56996 79.9317 8.18811 80.0035 7.89791 80.0641C7.51987 80.1434 7.21467 80.1655 6.86804 80.2875C6.84599 80.2952 6.89523 80.3775 6.87656 80.3852C6.6343 80.4813 6.37902 80.5199 6.13754 80.6203C6.11768 80.6284 6.17248 80.704 6.14144 80.7198C6.07798 80.7529 5.99132 80.7738 5.91516 80.7673C5.87807 80.7642 5.90087 80.6784 5.86398 80.6769C5.77802 80.673 5.6928 80.692 5.61693 80.7295C5.5847 80.7457 5.66192 80.8166 5.61801 80.8309C5.31942 80.9298 5.02811 81.0333 4.69024 81.0127C4.66707 81.0113 4.59614 80.8413 4.56187 80.8882C4.57314 80.9379 4.5905 80.9952 4.60465 81.0477C4.17465 81.2072 3.72248 81.2764 3.28001 81.3989C3.26136 81.404 3.32129 81.4874 3.28532 81.4979C3.07721 81.5588 2.88324 81.6451 2.64306 81.6164C2.61927 81.6136 2.58103 81.4468 2.52633 81.4901C2.51672 81.4979 2.42971 81.5478 2.41616 81.5906C2.41448 81.5969 2.45445 81.6682 2.42497 81.6794C2.25324 81.7436 2.06441 81.7812 1.87552 81.787C1.84499 81.7878 1.85067 81.6974 1.82871 81.6973C1.67315 81.6969 1.53657 81.8052 1.37815 81.7722C1.27203 81.7498 1.26365 81.5991 1.17368 81.4753C1.16097 81.4578 1.10356 81.4717 1.0765 81.392C1.00829 81.1918 0.969184 80.9619 0.893253 80.7495C0.876945 80.7037 0.816309 80.7765 0.827417 80.6507C0.828293 80.6423 0.87196 80.5885 0.874044 80.5464C0.875549 80.5172 0.83405 80.4404 0.843129 80.4009C0.852212 80.3615 0.893877 80.4238 0.91381 80.3747C0.933581 80.325 0.891669 80.2361 0.951869 80.206ZM18.7349 76.2844C18.6612 76.2212 18.7397 76.5099 18.7735 76.4251C18.775 76.4206 18.7386 76.2874 18.7349 76.2844ZM24.7964 74.4176C24.6929 74.3109 24.7037 74.5102 24.7792 74.5939C24.8548 74.6775 24.8279 74.4499 24.7964 74.4176ZM25.4494 74.1212C25.3428 74.0446 25.4526 74.4545 25.5101 74.3477C25.5135 74.3417 25.4557 74.1257 25.4494 74.1212ZM1.38665 81.3685C1.38482 81.3649 1.3431 81.3734 1.34326 81.3774C1.34893 81.4749 1.43232 81.4579 1.38665 81.3685ZM26.0948 73.8183C26.0544 73.7705 26.0044 73.8546 26.0547 73.914C26.0951 73.9618 26.1451 73.8777 26.0948 73.8183ZM16.024 76.7639C16.0219 76.7599 15.9916 76.7648 15.9994 76.7888C16.0247 76.8659 16.0587 76.8318 16.024 76.7639ZM27.2414 73.4694C27.0672 73.5049 26.8638 73.2002 27.0598 73.1827C27.0953 73.1795 27.0198 73.3113 27.0715 73.3288C27.1659 73.3605 27.1544 73.1343 27.2678 73.2234C27.2884 73.2398 27.2516 73.4681 27.2413 73.4699C27.2413 73.4697 27.2414 73.4696 27.2414 73.4694ZM18.6028 75.9489C18.6006 75.9454 18.5593 75.9539 18.5594 75.958C18.5649 76.0555 18.6482 76.0384 18.6028 75.9489ZM14.2722 77.0961C14.2676 77.0887 14.1718 77.1092 14.171 77.1175C14.1668 77.2809 14.3606 77.2399 14.2722 77.0961ZM21.2538 74.9255C21.2704 74.8209 21.3197 74.7943 21.3892 74.8987C21.3437 74.9057 21.2995 74.918 21.2538 74.9255ZM1.99727 81.0761C2.08167 81.2061 2.13535 81.4011 2.16048 81.556C2.16847 81.6045 2.11023 81.6033 2.11355 81.6377C2.12011 81.705 2.16773 81.7499 2.17037 81.818C2.17101 81.8407 2.08351 81.8498 2.08594 81.8729C2.09983 81.9989 2.16485 82.0957 2.19704 82.2155C2.35551 82.8058 2.56183 83.3642 2.76896 83.9416C2.83732 84.1319 2.86444 84.3874 2.97756 84.5657C2.99083 84.5865 3.05277 84.544 3.06018 84.5458C3.17432 84.5757 3.02813 84.6124 3.02874 84.6638C3.03155 84.8676 3.10814 85.0625 3.20594 85.2176C3.24775 85.2835 3.35161 85.1546 3.30686 85.2583C3.30389 85.2655 3.22428 85.2785 3.22498 85.3012C3.2267 85.3527 3.27553 85.4306 3.28454 85.4672C3.30153 85.5378 3.30694 85.5484 3.33291 85.6109C3.3678 85.6967 3.37564 85.8132 3.43122 85.8974C3.4433 85.9152 3.50587 85.8577 3.53179 85.8834C3.5577 85.909 3.58688 85.9939 3.58145 86.0291C3.57602 86.0643 3.51302 86.0775 3.50186 86.0881C3.40722 86.1768 3.60337 86.205 3.61247 86.2156C3.77399 86.4105 3.76803 86.6399 3.85851 86.8492C3.92739 87.008 4.02982 87.1654 4.091 87.3184C4.1636 87.5007 4.18949 87.6707 4.27179 87.8428C4.2804 87.861 4.3577 87.802 4.36838 87.8242C4.48177 88.0596 4.57492 88.3017 4.6193 88.5656C4.62367 88.5921 4.53432 88.5941 4.53414 88.6225C4.53473 88.7959 4.48442 89.0923 4.85306 89.0366C4.88287 89.1413 4.9214 89.2675 4.89289 89.385C4.87458 89.4607 4.76777 89.4409 4.83342 89.4959C4.84813 89.5084 4.91181 89.4565 4.92838 89.4775C4.99807 89.5662 5.02161 89.6857 5.10177 89.7686C5.11824 89.7853 5.18089 89.7518 5.19506 89.7525C5.31055 89.7596 5.1882 89.907 5.18431 89.9293C5.15648 90.0984 5.23162 90.1808 5.28274 90.3051C5.29457 90.334 5.36731 90.2625 5.38183 90.289C5.45597 90.4265 5.51228 90.5779 5.53386 90.7346C5.53845 90.7695 5.45171 90.773 5.4501 90.7913C5.44389 90.8718 5.59068 90.8258 5.58743 90.9018C5.58693 90.9177 5.52002 90.9377 5.51407 90.9432C5.42059 91.0283 5.59035 90.9942 5.59799 91.0025C5.69802 91.1055 5.56955 91.2542 5.64385 91.3634C5.6529 91.3764 5.71965 91.3095 5.74017 91.3482C5.87735 91.6053 5.97677 91.8969 6.02608 92.1887C6.03386 92.234 5.96069 92.2308 5.95434 92.2366C5.85588 92.329 6.02385 92.2889 6.0355 92.2997C6.12336 92.3871 6.03484 92.5422 6.25185 92.5337C6.37997 93.0088 6.67629 93.4089 6.70069 93.9242C6.70119 93.9307 6.61989 93.9537 6.62121 93.9665C6.63638 94.1206 6.74476 94.043 6.92964 94.0697C6.97609 94.0764 6.82911 94.2212 6.81879 94.2328C6.78063 94.2755 6.65626 94.3019 6.65022 94.3133C6.60412 94.4059 6.97838 94.2328 7.01417 94.3155C7.01465 94.3183 6.94029 94.3375 6.93635 94.3474C6.9239 94.3784 6.96081 94.3878 6.94592 94.4193C6.91125 94.4916 6.73471 94.588 6.87359 94.6157C6.89151 94.6191 7.1001 94.5123 7.1218 94.5905C7.13026 94.6218 7.19014 94.7506 7.19197 94.7932C7.1938 94.8357 7.1138 94.8404 7.11192 94.8443C7.0628 94.9821 7.0088 94.9611 6.89457 95.0688C6.78083 95.1762 7.09684 95.0239 7.14143 95.0285C7.18592 95.0331 7.1415 95.1378 7.12289 95.1668C7.10426 95.1958 7.05077 95.1927 7.0427 95.2148C6.99062 95.3611 7.22223 95.1918 7.28814 95.2042C7.44407 95.2332 7.23258 95.3993 7.24119 95.4836C7.24353 95.5064 7.29083 95.4666 7.30363 95.4823C7.35358 95.5448 7.29746 95.6195 7.4005 95.6707C7.41731 95.6791 7.58892 95.6824 7.50178 95.77C7.48916 95.7825 7.42236 95.7912 7.42205 95.8271C7.42149 95.8809 7.44352 95.9678 7.4843 96.0077C7.51444 96.0372 7.59478 95.9539 7.58375 96.0121C7.57879 96.038 7.50545 96.0255 7.5009 96.0721C7.49628 96.1185 7.54004 96.2131 7.55771 96.2487C7.5754 96.2842 7.64118 96.2322 7.64746 96.233C7.68381 96.2384 7.74973 96.2927 7.7523 96.2989C7.89538 96.606 7.89362 96.9468 8.06557 97.2317C8.07896 97.2541 8.15054 97.2045 8.1534 97.2075C8.2213 97.2747 7.9852 97.3004 7.9399 97.3873C8.09548 97.3106 8.08112 97.3565 8.12326 97.4063C8.1437 97.4302 8.19883 97.3886 8.20622 97.3884C8.31744 97.3891 8.20887 97.4697 8.1873 97.4877C8.10803 97.554 8.22822 97.5372 8.17538 97.5818C8.12298 97.6263 8.01524 97.6224 8.04006 97.6768C8.10366 97.6677 8.23492 97.5627 8.27703 97.5941C8.43611 97.7122 8.44595 98.0564 8.48836 98.1882C8.53067 98.3197 8.55876 98.356 8.56989 98.4384C8.58997 98.5874 8.67941 98.4911 8.76553 98.5519C8.85175 98.6129 8.56269 98.6898 8.5094 98.7268C8.45605 98.7637 8.52165 98.7505 8.49582 98.7789C8.46997 98.8072 8.41674 98.793 8.41937 98.8322C8.42202 98.8715 8.56606 98.9199 8.63234 98.9057C8.77274 98.8755 8.89045 98.775 8.8816 98.8857C8.88101 98.8921 8.8023 98.9061 8.80364 98.9291C8.81662 99.1105 8.88385 99.2759 8.9031 99.4545C8.90563 99.4791 8.8178 99.4939 8.81838 99.5086C8.82414 99.6619 8.93793 99.5572 9.11782 99.565C8.91273 99.6342 8.80867 99.7263 8.85046 99.8265C8.8755 99.8867 8.95759 99.8391 9.03528 99.8516C9.05867 99.8553 9.01753 99.9233 9.06153 99.9134C9.20547 99.8814 9.33717 99.7773 9.32217 99.9057C9.32129 99.9114 9.24229 99.9284 9.24459 99.9459C9.25913 100.059 9.40346 100.011 9.46722 100.113C9.51721 100.192 9.49776 100.381 9.52583 100.484C9.3022 100.578 9.39275 100.648 9.56237 100.619C9.58326 100.684 9.62129 100.749 9.62632 100.819C9.62812 100.843 9.55769 100.857 9.55186 100.863C9.46003 100.95 9.62126 100.913 9.63298 100.924C9.75349 101.047 9.69203 101.216 9.86337 101.309C9.8695 101.313 10.0277 101.254 9.93096 101.34C9.92422 101.346 9.83379 101.33 9.85688 101.399C9.87997 101.467 9.85082 101.628 9.96214 101.689C9.98899 101.704 10.1389 101.706 10.0602 101.793C10.0494 101.805 10.0022 101.818 9.98128 101.837C9.9147 101.899 10.0777 101.847 9.95906 101.937C9.84043 102.027 9.77051 102.139 9.90214 102.192C9.90607 102.194 10.0395 102.162 10.0501 102.192C10.0669 102.24 10.0696 102.318 10.0913 102.366C10.1018 102.389 10.1723 102.341 10.1755 102.344C10.2861 102.482 10.2654 102.623 10.3079 102.804C10.3155 102.837 10.4585 102.88 10.4012 102.975C10.3385 103.08 9.93169 103.175 10.0864 103.287C10.1485 103.332 10.661 103.202 10.4595 103.418C10.612 103.602 10.569 103.852 10.7481 104.026C10.7561 104.034 10.9029 104.006 10.9107 104.029C10.922 104.064 10.8674 104.109 10.8735 104.135C10.8975 104.242 10.9902 104.31 11.0231 104.409C11.0358 104.447 10.9656 104.462 10.9807 104.507C10.9959 104.552 11.0935 104.544 11.0777 104.621C11.0655 104.679 10.9105 104.798 10.9156 104.866C11.0883 104.794 11.1022 104.836 11.1785 104.888C11.1932 104.899 11.2466 104.858 11.2567 104.861C11.2989 104.875 11.26 104.921 11.3044 104.931C11.3151 104.934 11.3739 104.909 11.3859 104.91C11.4907 104.915 11.3892 105.043 11.3714 105.065C11.3042 105.149 11.3898 105.137 11.3707 105.188C11.3517 105.238 11.2859 105.203 11.2829 105.254C11.2769 105.358 11.3339 105.465 11.3688 105.553C11.3831 105.588 11.4511 105.531 11.455 105.535C11.5059 105.599 11.454 105.707 11.6271 105.68C11.2456 105.904 11.6849 105.707 11.6486 105.844C11.6455 105.855 11.4594 105.948 11.418 105.929C11.3766 105.909 11.4159 105.837 11.3536 105.812C11.339 105.806 11.1351 105.825 11.1209 105.821C11.0093 105.795 11.2903 105.664 11.3046 105.654C11.4572 105.543 11.2339 105.555 11.2125 105.541C11.1144 105.482 11.1229 105.391 11.0483 105.338C10.9999 105.302 10.8114 105.378 10.8011 105.339C10.7669 105.207 11.0087 105.052 10.733 105.034C10.6741 105.029 10.4809 105.142 10.6028 104.984C10.6105 104.974 10.7286 104.844 10.6194 104.846C10.6056 104.846 10.5463 104.872 10.5385 104.868C10.4879 104.839 10.5231 104.791 10.4805 104.754C10.4379 104.718 10.3801 104.677 10.3775 104.615C10.3759 104.578 10.469 104.49 10.4895 104.463C10.5491 104.386 10.4012 104.395 10.4843 104.328C10.5677 104.26 10.7347 104.25 10.7657 104.153C10.6102 104.217 10.4491 104.28 10.2921 104.342C10.231 104.185 10.2154 104.012 10.1418 103.86C10.1325 103.841 10.058 103.897 10.0459 103.877C9.9953 103.796 10.0218 103.695 9.95939 103.615C9.91077 103.553 9.78994 103.515 9.73637 103.451C9.89385 103.331 9.78725 103.248 9.76952 103.163C9.76323 103.133 9.81121 103.114 9.81817 103.088C9.84327 102.99 9.70205 103.091 9.66876 103.082C9.52645 103.04 9.87663 102.88 9.82375 102.782C9.82107 102.776 9.60411 102.791 9.58844 102.787C9.48693 102.762 9.64987 102.749 9.64812 102.707C9.64497 102.63 9.67009 102.564 9.58137 102.51C9.55525 102.494 9.41438 102.491 9.4862 102.407C9.49559 102.396 9.55924 102.373 9.56087 102.367C9.58525 102.256 9.38865 102.338 9.30159 102.318C9.21454 102.298 9.31746 102.166 9.34985 102.134C9.43343 102.051 9.40599 102.146 9.4168 102.144C9.54527 102.118 9.50159 102.072 9.49362 102.027C9.68285 101.938 9.64629 101.885 9.48458 101.979C9.46696 101.99 9.49879 102.014 9.49362 102.027C9.28969 102.071 9.23806 102.018 9.38354 101.871C9.45174 101.803 9.56131 101.793 9.48292 101.708C9.44743 101.669 9.32293 101.743 9.26961 101.719C9.14789 101.662 9.21971 101.49 9.15952 101.404C9.13767 101.372 9.07979 101.437 9.06236 101.417C9.0159 101.363 9.04648 101.285 8.99173 101.234C8.98668 101.229 8.91697 101.276 8.90762 101.257C8.83528 101.113 8.82842 100.964 8.76341 100.809C8.73197 100.735 8.63291 100.62 8.60809 100.539C8.56463 100.399 8.60388 100.187 8.52797 100.085C8.47879 100.018 8.41013 100.067 8.34481 100.057C8.21831 100.039 8.35046 99.8526 8.37187 99.826C8.37259 99.8251 8.41803 99.8815 8.44217 99.8306C8.51457 99.7758 8.37253 99.8265 8.37187 99.826C8.38563 99.8086 8.34769 99.6733 8.32227 99.6541C8.30841 99.6437 8.24002 99.6823 8.23415 99.6763C8.09625 99.5329 8.00418 99.3694 7.96295 99.1815C7.96308 99.1778 8.04529 99.1478 8.0446 99.1396C8.03699 99.0238 7.91113 99.0018 7.81717 98.944C7.72323 98.8863 7.71443 98.8122 7.83103 98.7038C7.78676 98.6488 7.80901 98.5329 7.82372 98.4654C7.83843 98.3979 7.67916 98.458 7.67412 98.4547C7.51429 98.3557 7.5684 98.2354 7.51901 98.0825C7.4958 98.0097 7.41345 97.8809 7.36379 97.8126C7.32428 97.7588 7.34536 97.707 7.29823 97.662C7.29189 97.6559 7.2256 97.6934 7.22195 97.6923C7.11227 97.6667 7.29498 97.623 7.31987 97.5972C7.41045 97.5036 7.457 97.4499 7.37115 97.3935C7.35143 97.3805 7.0839 97.4331 7.05532 97.4062C7.01863 97.371 7.11335 97.3494 7.07269 97.3135C7.06929 97.3104 7.01551 97.3345 7.00592 97.3057C6.96067 97.1722 6.93153 97.0179 6.86831 96.8861C6.85989 96.868 6.78416 96.9285 6.77057 96.903C6.70687 96.7832 6.65139 96.6457 6.63943 96.5073C6.63675 96.4732 6.70491 96.4659 6.71997 96.4518C6.81085 96.3656 6.62969 96.3769 6.6227 96.3689C6.45184 96.1798 6.52076 95.9491 6.35586 95.7524C6.34659 95.7418 6.13762 95.7197 6.26369 95.6153C6.27204 95.6083 6.40163 95.5029 6.28481 95.5095C6.27751 95.5099 6.21274 95.5687 6.20092 95.5199C6.18907 95.4712 6.10684 95.42 6.16342 95.3216C6.1812 95.2905 6.3083 95.1803 6.16554 95.1719C6.15569 95.1716 5.85111 95.195 6.0202 95.0836C6.04807 95.0653 6.24419 94.9874 6.11453 94.9598C6.08948 94.9547 6.05678 94.9977 6.01454 94.9739C5.94956 94.9376 5.97047 94.8433 5.85542 94.8138C5.83513 94.8087 5.68229 94.8159 5.76498 94.7331C5.77793 94.7202 5.84771 94.7041 5.84591 94.68C5.83764 94.5653 5.74937 94.4795 5.75048 94.3589C5.75074 94.3163 5.86321 94.2896 5.87512 94.2401C5.88701 94.1906 5.88149 94.1037 5.81684 94.0851C5.75217 94.0666 5.60394 94.1811 5.56534 94.1283C5.39757 93.8983 5.38651 93.6036 5.29112 93.3429C5.27699 93.3042 5.23084 93.3612 5.20573 93.3061C5.11291 93.1029 4.90439 92.7728 4.9544 92.5402C4.99444 92.3539 5.14904 92.5 5.14338 92.3733C5.14043 92.3122 4.92215 92.3388 4.91058 92.3287C4.79518 92.2314 4.84387 92.1082 4.76944 92.0079C4.75404 91.9873 4.68525 92.0437 4.67301 92.0257C4.63052 91.9646 4.63523 91.879 4.60122 91.8178C4.58579 91.7904 4.52809 91.8215 4.52133 91.7931C4.50446 91.7254 4.50557 91.6586 4.53522 91.5727C4.53792 91.5649 4.62886 91.5706 4.61147 91.5226C4.58312 91.445 4.59806 91.3271 4.50325 91.2647C4.47488 91.2462 4.33737 91.3043 4.40809 91.2079C4.42283 91.1878 4.59385 91.1317 4.42373 91.1283C4.3954 91.1275 4.15671 91.1015 4.25737 90.9948C4.28384 90.9667 4.40306 90.8727 4.36849 90.8508C4.3633 90.848 4.29695 90.8966 4.27866 90.874C4.21551 90.7935 4.18236 90.695 4.1191 90.6116C4.10207 90.5895 4.04186 90.6594 4.0189 90.6253C3.95565 90.5315 3.92013 90.3957 3.90096 90.2856C3.89404 90.2449 3.96811 90.2431 3.97383 90.2375C4.06699 90.1463 3.90522 90.1858 3.89027 90.1753C3.79932 90.1091 3.84098 90.0109 3.78693 89.937C3.7722 89.9166 3.70721 89.9636 3.69886 89.9618C3.6161 89.9421 3.76021 89.9213 3.76171 89.8856C3.76634 89.7854 3.72079 89.6956 3.67553 89.6159C3.6588 89.5866 3.59032 89.6571 3.57627 89.6305C3.49152 89.4733 3.42633 89.3001 3.4036 89.1209C3.39948 89.0871 3.47181 89.0783 3.48378 89.0657C3.56778 88.9784 3.40063 88.9755 3.38103 88.9667C3.29169 88.9268 3.33739 88.8767 3.30164 88.8229C3.12599 88.5604 3.01185 88.1921 2.91907 87.9128C2.7978 87.5492 2.74157 87.2506 2.58155 86.9229C2.57147 86.9021 2.4953 86.9603 2.48551 86.9428C2.36295 86.715 2.29594 86.4677 2.1691 86.2412C2.15884 86.2226 2.08996 86.2855 2.07078 86.2567C2.03086 86.198 2.00029 86.1149 1.99824 86.039C1.99708 86.0021 2.08481 86.0145 2.08223 85.9779C2.07637 85.8927 2.04794 85.8108 2.00219 85.7404C1.98254 85.7104 1.92078 85.7949 1.9017 85.7533C1.77 85.4703 1.63447 85.195 1.61692 84.8592C1.61573 84.8362 1.77652 84.7463 1.72606 84.718C1.67798 84.7349 1.62311 84.7588 1.5726 84.7789C1.36595 84.3733 1.24638 83.9353 1.07514 83.5131C1.0679 83.4953 0.991868 83.5642 0.977398 83.53C0.893556 83.3318 0.786157 83.1505 0.787675 82.9102C0.787701 82.8864 0.949005 82.8291 0.899808 82.7802C0.890987 82.7716 0.831706 82.6916 0.787733 82.6833C0.781251 82.6824 0.715028 82.7302 0.700533 82.7024C0.61758 82.5405 0.559015 82.3586 0.532042 82.1729C0.527829 82.1429 0.618128 82.1379 0.615803 82.1162C0.598723 81.9626 0.475845 81.8406 0.490767 81.6804C0.501036 81.5731 0.649667 81.5471 0.762466 81.4438C0.778373 81.4292 0.758179 81.3742 0.834175 81.3382C1.02521 81.2474 1.24897 81.1818 1.45126 81.082C1.49486 81.0606 1.41584 81.0093 1.5419 81.0055C1.55039 81.0053 1.60861 81.0421 1.65069 81.0392C1.6798 81.0373 1.75136 80.9873 1.79156 80.9917C1.83173 80.996 1.77456 81.0444 1.8256 81.0583C1.87709 81.072 1.96067 81.0202 1.99727 81.0761ZM7.88874 98.1619C7.94315 98.0818 7.66543 98.1931 7.75342 98.2165C7.758 98.2175 7.88612 98.166 7.88874 98.1619ZM10.423 103.924C10.5172 103.809 10.3207 103.843 10.2461 103.927C10.1716 104.012 10.3944 103.958 10.423 103.924ZM10.7905 104.533C10.8546 104.419 10.4601 104.575 10.5726 104.62C10.579 104.622 10.7868 104.54 10.7905 104.533ZM0.89241 81.6414C0.895775 81.6392 0.88268 81.599 0.878668 81.5997C0.782566 81.6167 0.808807 81.697 0.89241 81.6414ZM11.1638 105.134C11.2066 105.089 11.1175 105.049 11.0642 105.106C11.0213 105.152 11.1104 105.191 11.1638 105.134ZM7.10798 95.5434C7.11174 95.5409 7.10349 95.5116 7.0806 95.5221C7.00689 95.5561 7.04453 95.5856 7.10798 95.5434ZM11.6389 106.225C11.5841 106.057 11.8636 105.821 11.9031 106.012C11.9102 106.047 11.7709 105.988 11.7594 106.041C11.7385 106.137 11.9617 106.1 11.886 106.222C11.8721 106.244 11.6414 106.235 11.6384 106.225C11.6386 106.225 11.6388 106.225 11.6389 106.225ZM8.20681 97.9922C8.21003 97.9897 8.19695 97.9499 8.19295 97.9505C8.0968 97.9673 8.1231 98.0476 8.20681 97.9922ZM6.58137 93.854C6.58819 93.8485 6.55709 93.7564 6.54871 93.7566C6.38611 93.7716 6.44857 93.958 6.58137 93.854ZM9.52054 100.488C9.6263 100.492 9.6582 100.538 9.5624 100.618C9.55033 100.574 9.53316 100.532 9.52054 100.488Z" fill="#747474"/>
</svg>
