<svg width="252" height="210" fill="none" xmlns="http://www.w3.org/2000/svg"><path d="M48.5 72.9a22.5 22.5 0 0 0 1.3-6.3L54 65l-.9-4.8-.9-4.8h-4.4a22.6 22.6 0 0 0-3.5-5.4l1.8-4-4-2.9-4-2.7-3.2 3a22.5 22.5 0 0 0-6.3-1.2L27 38l-4.8.9-4.8.9v4.4a22.6 22.6 0 0 0-5.4 3.5L8 45.9l-2.8 4-2.7 4 3 3.2a22.5 22.5 0 0 0-1.3 6.3L0 65l.9 4.8.9 4.8h4.4A22.6 22.6 0 0 0 9.7 80l-1.8 4 4 2.9 4 2.7 3.3-3a22.5 22.5 0 0 0 6.2 1.2L27 92l4.8-.9 4.8-.9v-4.4a22.6 22.6 0 0 0 5.4-3.5l4.1 1.8 2.8-4 2.7-4-3-3.2zm-28.3 2a12 12 0 1 1 13.6-19.7 12 12 0 0 1-13.6 19.6z" fill="#fff"/><path d="M48 72.7v.3l.2.2 2.8 3-2.5 3.6-2.6 3.7-3.7-1.7h-.3l-.2.1a22.1 22.1 0 0 1-5.2 3.4l-.3.1v.3l-.1 4.1-4.4.8-4.3.8-1.6-3.7v-.3h-.4a22 22 0 0 1-6-1.4H19l-.2.2-3 2.8-3.6-2.6L8.5 84l1.7-3.7v-.3l-.1-.2a22.1 22.1 0 0 1-3.4-5.3l-.1-.2h-.3L2.2 74l-.8-4.4-.8-4.4 3.7-1.5h.3v-.4c.2-2 .6-4.1 1.3-6l.2-.4-.3-.2-2.8-3 2.5-3.6 2.6-3.7 3.7 1.7h.3l.3-.1a22.1 22.1 0 0 1 5.2-3.4l.3-.1V40.2l4.4-.8 4.4-.8 1.5 3.7v.3h.4c2 .2 4.1.6 6 1.3l.4.2.2-.3 3-2.8 3.6 2.5h0l3.7 2.6-1.7 3.7v.3l.1.2a22.1 22.1 0 0 1 3.4 5.3l.1.2h.3l4.1.1.8 4.4.8 4.4-3.7 1.5-.3.1v.3a22 22 0 0 1-1.4 6zM16.8 57.9A12.4 12.4 0 1 0 37.2 72a12.4 12.4 0 0 0-20.4-14z" stroke="#246EDE" stroke-opacity=".2"/><path d="M108.4 154a4 4 0 0 0-4-4H51.1a4 4 0 0 0 0 8h53.3a4 4 0 0 0 4-4z" fill="#fff"/><path d="M108 154a3.5 3.5 0 0 0-3.6-3.5H51.1a3.5 3.5 0 1 0 0 7h53.3a3.5 3.5 0 0 0 3.5-3.5z" stroke="#246EDE" stroke-opacity=".3"/><rect x="17" y="150" width="21" height="21" rx="4" fill="#fff"/><rect x="17.5" y="150.5" width="20" height="20" rx="3.5" stroke="#246EDE" stroke-opacity=".3"/><path d="M89 167a4 4 0 0 0-4-4H51a4 4 0 0 0 0 8h34a4 4 0 0 0 4-4z" fill="#fff"/><path d="M88.5 167a3.5 3.5 0 0 0-3.5-3.5H51a3.5 3.5 0 1 0 0 7h34a3.5 3.5 0 0 0 3.5-3.5z" stroke="#246EDE" stroke-opacity=".3"/><path d="M122 167a4 4 0 0 0-4-4H99a4 4 0 0 0 0 8h19a4 4 0 0 0 4-4z" fill="#fff"/><path d="M121.5 167a3.5 3.5 0 0 0-3.5-3.5H99a3.5 3.5 0 1 0 0 7h19a3.5 3.5 0 0 0 3.5-3.5z" stroke="#246EDE" stroke-opacity=".3"/><path d="M196.5 145.5c0-15-17.8-10-25.6-10-7.8 0-20.6 1.5-20.6 9.2 0 7.8-.7 16.3 23.4 19.2 3 .3 5.5.5 7.8.4 12.5-.1 15-6.2 15-18.8z" fill="#fff"/><path d="M88.5 129.2c-.8 2-2 3.6-3.6 4.6m0 0c-4.7 3-17.4 3.5-18.5-2.3-20.5 2.3-23-18.6-13.5-25-9-6-7.4-17.9 2.9-24.1-4.3-8.5 1.4-22.7 13.5-20.5.7-5.7 6.4-17 19.2-15 2.3-5.5 10-14.5 22-5.5m-25.6 92.4c1.4 6.7 18.4 14.5 44.7 11m-24-96.4c1.3-3.5 2.5-5 4.9-7m-5 7c-7 .5-9.2 6.4-9.2 7.8m9.2-7.8c3-.2 9.4.7 10 6.4m-5-13.4c5.7-4.9 15-6.9 23.4.6 3.6-7 20-9.9 23.5 2.9 6-1.5 18.3-1 20.6 12 11.4-3.5 20.6 2.8 19.2 17 12.8 1.4 15 14.9 11.4 20.5 6.4 5.7 6.4 14.2 0 21.3m-8.6-9.2c8.6 4.2 20.4 25-8.1 30m-61.5 3.3c-.7 4.2-7.1 26.2 22.7 37.5 14.2 5 20 21.3 22.8 28.4 2.8 7 16.3 2.8 11.3-12.8a86.5 86.5 0 0 1-5.7-28.6m0-.4a7.3 7.3 0 0 0 0 .4M124 76c.7-3.8 5-6.5 10-7.1m13.4 5a11.5 11.5 0 0 0-6.4-4.5c-2.2-.7-4.7-.8-7-.5m0 0c2.8-7 15.6-14.8 26.2-5M134 69c0-7-7.8-9.9-13.5-7m-32 5c-9.2-5-20.6 2-16.3 12.7-7.8 1.4-8.5 8.5-5.7 12.7m120.1 10c0-4.7-3.5-9.4-8.5-11.8m-19.9 4c6.8-6.4 14.3-6.6 20-4m0 0c3.5-11 13.4-8.1 16.3-1.7M84.9 112.2c-5 8.5 9.2 21.6 20.6 12m-17-28.3a9.3 9.3 0 0 1 11.3-9m5.7 3.6a12 12 0 0 0-5.7-3.5m0 0c1.4-8.8 18.5-11.7 21.3 3.2m1.5 22c3.5 8.5 15.6 10.6 19.9-1.5m0 44.7c0 5 10.8 11.1 20.6 15.6 7.8 3.5 17 15.5 18.5 28.3m-27.8-71.6c5.5-.4 10.2-2.3 12.5-5.6m1-9.2c1.2 3.8.7 6.8-1 9.2m0 0c8.2 5.6 18.8-4.3 11.7-13.5m3.5 55.8a60 60 0 0 1-7.8-.5c-24.1-2.9-23.4-11.4-23.4-19.1 0-7.8 12.8-9.3 20.6-9.3 7.8 0 25.6-5 25.6 10 0 12.6-2.5 18.7-15 18.9z" stroke="#246EDE"/><path d="M208.5 48c0-3.4.7-6.2 2.1-8.4 1.5-2.3 3.6-4.7 6.3-7.4 1.9-1.8 3.3-3.4 4.2-4.6a7 7 0 0 0 1.4-4c0-2-.8-3.6-2.5-4.8A9.7 9.7 0 0 0 214 17a13.6 13.6 0 0 0-12.3 7.3L187 16.1c2.7-4.7 6.5-8.4 11.4-11.1 4.9-2.7 10.8-4 17.7-4 7.8 0 14 1.7 18.7 5.1 4.8 3.4 7.2 8 7.2 14.1a19.2 19.2 0 0 1-4.7 13 60 60 0 0 1-5 4.9 35 35 0 0 0-4.8 5c-1 1.4-1.6 3-1.6 4.9h-17.4zm8.7 27c-3.2 0-5.9-1-8-3-2-2.2-3-4.7-3-7.7 0-3.1 1-5.6 3-7.6s4.7-3 8-3 6 1 8 3c2.1 2 3.2 4.5 3.2 7.6 0 3-1 5.5-3.2 7.6-2 2-4.7 3.1-8 3.1z" fill="#fff"/><path d="M208 48v.5h18.4V48c0-1.8.5-3.3 1.5-4.5h0c1-1.4 2.6-3.1 4.8-5h0l5-5c1.3-1.6 2.5-3.4 3.4-5.6h0c1-2.2 1.4-4.8 1.4-7.7 0-6.2-2.5-11-7.4-14.5a31.7 31.7 0 0 0-19-5.2c-7 0-13 1.3-18 4-5 2.8-8.8 6.5-11.5 11.4l-.3.4.5.3 14.6 8.2.4.2.2-.4a13.1 13.1 0 0 1 11.8-7.1c2.5 0 4.5.6 6 1.7h0a5 5 0 0 1 2.2 4.3c0 1.3-.4 2.6-1.3 3.8a41 41 0 0 1-4.1 4.6 43 43 0 0 0-6.4 7.4A15.5 15.5 0 0 0 208 48zm.9 24.3h0c2.2 2.1 5 3.2 8.3 3.2 3.4 0 6.2-1 8.4-3.2h0a11 11 0 0 0 3.3-8c0-3.2-1.1-5.9-3.3-8-2.2-2-5-3-8.4-3-3.4 0-6.2 1-8.4 3h0c-2.1 2.1-3.2 4.8-3.2 8a11 11 0 0 0 3.3 8h0z" stroke="#246EDE" stroke-opacity=".3"/><path d="M54.8 29.1c0-1.2.3-2.2.8-3 .5-.8 1.3-1.7 2.3-2.7a15 15 0 0 0 1.5-1.7c.3-.5.5-1 .5-1.5a2 2 0 0 0-.9-1.7c-.6-.5-1.3-.7-2.2-.7a5 5 0 0 0-4.5 2.7l-5.3-3c1-1.7 2.4-3 4.1-4 1.8-1 4-1.5 6.5-1.5 2.8 0 5 .6 6.8 1.9A6 6 0 0 1 67 19a7 7 0 0 1-1.7 4.7l-1.8 1.8-1.8 1.9c-.4.5-.5 1-.5 1.7h-6.4zM58 39a3.8 3.8 0 0 1-4-4c0-1 .3-2 1-2.7a4 4 0 0 1 3-1 4 4 0 0 1 2.9 1c.8.7 1.1 1.7 1.1 2.8a3.8 3.8 0 0 1-4 3.9z" fill="#fff"/><path d="M65.7 24a8 8 0 0 0 1.3-2h0c.3-1 .5-1.9.5-3 0-2.3-1-4.2-2.8-5.5-1.8-1.4-4.2-2-7.1-2-2.6 0-4.8.5-6.7 1.5-1.9 1-3.3 2.5-4.3 4.3l-.3.4.5.3 5.3 3 .4.2.2-.4c.5-.8 1-1.4 1.7-1.8a4.4 4.4 0 0 1 2.4-.7 3 3 0 0 1 2 .6h0c.4.3.6.8.6 1.3 0 .4-.1.8-.4 1.2-.3.4-.8 1-1.5 1.6-1 1-1.8 2-2.3 2.8a6 6 0 0 0-.9 3.3v.5h7.4v-.5c0-.5.1-1 .4-1.4h0l1.7-1.8h0l1.9-1.8zm0 0s0 0 0 0l-.4-.3.4.4s0 0 0 0zM47 17.6l.3-.4h0l-.3.4zm5.3 3l-.4-.2s0 0 0 0l.4.2zm2.5 8.6v-.5h0v.5zm0 9.1h0c.8.9 1.9 1.3 3.2 1.3 1.3 0 2.4-.4 3.3-1.3h0c.8-.8 1.2-1.9 1.2-3.1 0-1.3-.4-2.3-1.3-3.1-.8-.9-2-1.3-3.2-1.3-1.3 0-2.4.4-3.3 1.3h0c-.8.8-1.2 1.8-1.2 3 0 1.3.4 2.4 1.2 3.2z" stroke="#246EDE" stroke-opacity=".3"/><path d="M225.4 97.6c0-2.6.5-4.7 1.6-6.4 1.1-1.7 2.7-3.6 4.8-5.6 1.5-1.4 2.6-2.5 3.3-3.5.7-1 1-2 1-3 0-1.6-.6-2.7-1.9-3.6a7.5 7.5 0 0 0-4.7-1.4 10.5 10.5 0 0 0-9.3 5.6L209 73.5c2-3.7 5-6.5 8.7-8.5 3.7-2 8.2-3 13.5-3a24 24 0 0 1 14.3 3.9c3.7 2.5 5.5 6 5.5 10.7a14.4 14.4 0 0 1-3.6 9.7l-3.7 3.7c-1.7 1.5-3 2.8-3.8 4-.8 1-1.2 2.2-1.2 3.6h-13.3zm6.7 20.4c-2.5 0-4.5-.8-6.1-2.3a8 8 0 0 1-2.4-5.8c0-2.4.8-4.3 2.3-5.8a8.6 8.6 0 0 1 6.2-2.2c2.5 0 4.5.7 6.1 2.2a7.5 7.5 0 0 1 2.4 5.8 8 8 0 0 1-2.4 5.8 8.5 8.5 0 0 1-6.1 2.3z" fill="#fff"/><path d="M224.9 97.6v.5h14.3v-.5c0-1.3.4-2.4 1.1-3.4h0c.8-1 2-2.3 3.7-3.8h0c1.6-1.4 2.8-2.6 3.8-3.7 1-1.2 1.9-2.6 2.6-4.3h0a15 15 0 0 0 1.1-5.8c0-4.8-1.9-8.5-5.7-11.1-3.7-2.7-8.6-4-14.6-4-5.3 0-10 1-13.8 3a22 22 0 0 0-8.8 8.7l-.3.5.5.2 11.1 6.2.4.2.3-.4c1-1.7 2.2-3 3.7-4a10 10 0 0 1 5.2-1.3 7 7 0 0 1 4.4 1.3h0c1.2.8 1.7 1.8 1.7 3.1 0 1-.3 2-1 2.8-.6 1-1.7 2-3.1 3.5-2.1 2-3.8 3.9-4.9 5.6-1.1 1.8-1.7 4-1.7 6.7zm.7 18.4h0a8.9 8.9 0 0 0 6.5 2.5 9 9 0 0 0 6.4-2.5h0a8.4 8.4 0 0 0 2.6-6.1 8 8 0 0 0-2.6-6.1 9.1 9.1 0 0 0-6.4-2.4c-2.6 0-4.8.8-6.5 2.4h0a8.1 8.1 0 0 0-2.5 6c0 2.5.8 4.5 2.5 6.2z" stroke="#246EDE" stroke-opacity=".3"/></svg>