<svg width="1094" height="290" fill="none" xmlns="http://www.w3.org/2000/svg"><mask id="a" maskUnits="userSpaceOnUse" x="0" y="0" width="1094" height="290"><path fill="url(#paint0_linear)" d="M0 0h1094v290H0z"/></mask><g mask="url(#a)"><path d="M796.7 30.3h-2V35h-2.1V23.8h2v4.7h2.2l3.2-4.7h2.2l-3.8 5.4 4 5.8H800l-3.3-4.7zm10.5 4.8c-.9 0-1.6-.2-2.3-.5a4.2 4.2 0 0 1-2.2-3.9c0-.8.2-1.6.5-2.2.4-.7 1-1.2 1.7-1.6.7-.4 1.5-.5 2.3-.5.9 0 1.7.1 2.4.5a4 4 0 0 1 1.6 1.6c.4.6.6 1.4.6 2.2 0 .9-.2 1.6-.6 2.3a4 4 0 0 1-1.6 1.6c-.7.3-1.5.5-2.4.5zm0-1.7c.8 0 1.4-.2 1.8-.7.5-.5.8-1.2.8-2s-.3-1.4-.8-2c-.4-.4-1-.6-1.8-.6-.7 0-1.3.2-1.8.7-.5.5-.7 1.1-.7 2 0 .7.2 1.4.7 1.9.5.5 1 .7 1.8.7zm15 1.6v-5.7l-3 4.8h-.8l-2.8-4.8V35h-1.9v-8.5h2.1l3 5.3 3.3-5.3h1.8V35h-1.8zm7.6-8.6c1.3 0 2.2.3 3 .9.6.6 1 1.5 1 2.7v5h-2v-1c-.2.3-.6.6-1 .8-.5.2-1 .3-1.7.3-.6 0-1.2 0-1.6-.3-.5-.2-.9-.5-1.2-1-.2-.3-.3-.8-.3-1.2 0-.8.2-1.4.8-1.9.6-.5 1.5-.7 2.7-.7h2.2V30c0-.6-.2-1-.5-1.4-.4-.3-1-.5-1.6-.5l-1.4.2c-.5.2-.9.4-1.2.7l-.8-1.5 1.6-.8 2-.2zm-.2 7.3c.5 0 .9-.2 1.3-.4s.7-.5.8-1v-1h-2c-1.2 0-1.8.4-1.8 1.2 0 .3.2.6.5.8.2.2.6.4 1.2.4zm6.6-7.2h2v3.4h4.3v-3.4h2V35h-2v-3.4h-4.3V35h-2v-8.5zm20 6.8v3.6h-1.8V35h-6.6v1.9H846v-3.6h.4c.5 0 .9-.4 1-1 .3-.7.4-1.7.5-3v-2.8h7.1v6.8h1.3zm-6.5-3.8l-.2 2.4c-.2.6-.4 1.1-.7 1.4h4.2v-5.1h-3.3v1.3zm11.6-3.1c1.2 0 2.2.3 2.8.9.7.6 1 1.5 1 2.7v5h-1.8v-1l-1 .8c-.5.2-1 .3-1.7.3s-1.2 0-1.7-.3c-.5-.2-.9-.5-1.1-1-.3-.3-.4-.8-.4-1.2 0-.8.3-1.4.8-1.9.6-.5 1.5-.7 2.7-.7h2.3V30c0-.6-.2-1-.6-1.4-.3-.3-.9-.5-1.6-.5l-1.4.2c-.5.2-.9.4-1.2.7l-.8-1.5c.5-.3 1-.6 1.7-.8l2-.2zm-.3 7.3c.5 0 1-.2 1.3-.4.4-.2.7-.5.9-1v-1H861c-1.2 0-1.7.4-1.7 1.2 0 .3.1.6.4.8.3.2.7.4 1.2.4z" fill="#151515"/><rect opacity=".1" x="10" y="4" width="1084" height="276" rx="20" fill="#246EDE"/><rect y="14" width="1084" height="276" rx="20" fill="#fff"/><rect x=".5" y="14.5" width="1083" height="275" rx="19.5" stroke="#246EDE" stroke-opacity=".3"/><path opacity=".2" d="M22 78v4h-4v5h4v4h5v-4h4v-5h-4v-4h-5zM22 128v4h-4v5h4v4h5v-4h4v-5h-4v-4h-5zM22 178v4h-4v5h4v4h5v-4h4v-5h-4v-4h-5zM22 228v4h-4v5h4v4h5v-4h4v-5h-4v-4h-5zM145 76a4 4 0 0 0-4-4H83a4 4 0 0 0 0 8h58a4 4 0 0 0 4-4zM145 127a4 4 0 0 0-4-4H83a4 4 0 0 0 0 8h58a4 4 0 0 0 4-4zM128 235a4 4 0 0 0-4-4H83a4 4 0 0 0 0 8h41a4 4 0 0 0 4-4zM96 185a4 4 0 0 0-4-4h-9a4 4 0 0 0 0 8h9a4 4 0 0 0 4-4zM182 76a4 4 0 0 0-4-4h-9a4 4 0 0 0 0 8h9a4 4 0 0 0 4-4zM344 76a4 4 0 0 0-4-4h-10a4 4 0 0 0 0 8h10a4 4 0 0 0 4-4z" fill="#246EDE"/><path d="M780 76a4 4 0 0 0-4-4h-10a4 4 0 0 0 0 8h10a4 4 0 0 0 4-4zM922 76a4 4 0 0 0-4-4h-10a4 4 0 0 0 0 8h10a4 4 0 0 0 4-4z" fill="#F1F1F1"/><path opacity=".2" d="M437 127a4 4 0 0 0-4-4h-10a4 4 0 0 0 0 8h10a4 4 0 0 0 4-4zM196 127a4 4 0 0 0-4-4h-23a4 4 0 0 0 0 8h23a4 4 0 0 0 4-4zM358 127a4 4 0 0 0-4-4h-24a4 4 0 0 0 0 8h24a4 4 0 0 0 4-4z" fill="#246EDE"/><path d="M794 127a4 4 0 0 0-4-4h-24a4 4 0 0 0 0 8h24a4 4 0 0 0 4-4zM936 127a4 4 0 0 0-4-4h-24a4 4 0 0 0 0 8h24a4 4 0 0 0 4-4z" fill="#F1F1F1"/><path opacity=".2" d="M182 192a4 4 0 0 1-4 4h-9a4 4 0 0 1 0-8h9a4 4 0 0 1 4 4zM344 192a4 4 0 0 1-4 4h-10a4 4 0 0 1 0-8h10a4 4 0 0 1 4 4z" fill="#246EDE"/><path d="M780 192a4 4 0 0 1-4 4h-10a4 4 0 0 1 0-8h10a4 4 0 0 1 4 4zM922 192a4 4 0 0 1-4 4h-10a4 4 0 0 1 0-8h10a4 4 0 0 1 4 4z" fill="#F1F1F1"/><path opacity=".2" d="M439 242a4 4 0 0 1-4 4h-10a4 4 0 0 1 0-8h10a4 4 0 0 1 4 4zM189 226a4 4 0 0 0-4-4h-16a4 4 0 0 0 0 8h16a4 4 0 0 0 4-4zM351 226a4 4 0 0 0-4-4h-17a4 4 0 0 0 0 8h17a4 4 0 0 0 4-4z" fill="#246EDE"/><path d="M787 226a4 4 0 0 0-4-4h-17a4 4 0 0 0 0 8h17a4 4 0 0 0 4-4zM929 226a4 4 0 0 0-4-4h-17a4 4 0 0 0 0 8h17a4 4 0 0 0 4-4z" fill="#F1F1F1"/><path opacity=".2" d="M445 176a4 4 0 0 0-4-4h-17a4 4 0 0 0 0 8h17a4 4 0 0 0 4-4zM444 75a4 4 0 0 0-4-4h-17a4 4 0 0 0 0 8h17a4 4 0 0 0 4-4zM134 185a4 4 0 0 0-4-4h-23a4 4 0 0 0 0 8h23a4 4 0 0 0 4-4zM220 76a4 4 0 0 0-4-4h-23a4 4 0 0 0 0 8h23a4 4 0 0 0 4-4zM383 76a4 4 0 0 0-4-4h-24a4 4 0 0 0 0 8h24a4 4 0 0 0 4-4z" fill="#246EDE"/><path d="M819 76a4 4 0 0 0-4-4h-24a4 4 0 0 0 0 8h24a4 4 0 0 0 4-4zM961 76a4 4 0 0 0-4-4h-24a4 4 0 0 0 0 8h24a4 4 0 0 0 4-4z" fill="#F1F1F1"/><path opacity=".2" d="M476 127a4 4 0 0 0-4-4h-24a4 4 0 0 0 0 8h24a4 4 0 0 0 4-4zM220 127a4 4 0 0 0-4-4h-11a4 4 0 0 0 0 8h11a4 4 0 0 0 4-4zM383 127a4 4 0 0 0-4-4h-12a4 4 0 0 0 0 8h12a4 4 0 0 0 4-4z" fill="#246EDE"/><path d="M819 127a4 4 0 0 0-4-4h-12a4 4 0 0 0 0 8h12a4 4 0 0 0 4-4zM961 127a4 4 0 0 0-4-4h-12a4 4 0 0 0 0 8h12a4 4 0 0 0 4-4z" fill="#F1F1F1"/><path opacity=".2" d="M220 192a4 4 0 0 1-4 4h-23a4 4 0 0 1 0-8h23a4 4 0 0 1 4 4zM383 192a4 4 0 0 1-4 4h-24a4 4 0 0 1 0-8h24a4 4 0 0 1 4 4z" fill="#246EDE"/><path d="M819 192a4 4 0 0 1-4 4h-24a4 4 0 0 1 0-8h24a4 4 0 0 1 4 4zM961 192a4 4 0 0 1-4 4h-24a4 4 0 0 1 0-8h24a4 4 0 0 1 4 4z" fill="#F1F1F1"/><path opacity=".2" d="M478 242a4 4 0 0 1-4 4h-24a4 4 0 0 1 0-8h24a4 4 0 0 1 4 4zM220 226a4 4 0 0 0-4-4h-16a4 4 0 0 0 0 8h16a4 4 0 0 0 4-4zM383 226a4 4 0 0 0-4-4h-17a4 4 0 0 0 0 8h17a4 4 0 0 0 4-4z" fill="#246EDE"/><path d="M819 226a4 4 0 0 0-4-4h-17a4 4 0 0 0 0 8h17a4 4 0 0 0 4-4zM961 226a4 4 0 0 0-4-4h-17a4 4 0 0 0 0 8h17a4 4 0 0 0 4-4z" fill="#F1F1F1"/><path opacity=".2" d="M477 176a4 4 0 0 0-4-4h-17a4 4 0 0 0 0 8h17a4 4 0 0 0 4-4zM476 75a4 4 0 0 0-4-4h-17a4 4 0 0 0 0 8h17a4 4 0 0 0 4-4zM108 91a4 4 0 0 0-4-4H83a4 4 0 0 0 0 8h21a4 4 0 0 0 4-4zM108 142a4 4 0 0 0-4-4H83a4 4 0 0 0 0 8h21a4 4 0 0 0 4-4zM220 91a4 4 0 0 0-4-4h-46a4 4 0 0 0 0 8h46a4 4 0 0 0 4-4zM383 91a4 4 0 0 0-4-4h-48a4 4 0 0 0 0 8h48a4 4 0 0 0 4-4z" fill="#246EDE"/><path d="M819 91a4 4 0 0 0-4-4h-48a4 4 0 0 0 0 8h48a4 4 0 0 0 4-4zM961 91a4 4 0 0 0-4-4h-48a4 4 0 0 0 0 8h48a4 4 0 0 0 4-4z" fill="#F1F1F1"/><path opacity=".2" d="M476 142a4 4 0 0 0-4-4h-48a4 4 0 0 0 0 8h48a4 4 0 0 0 4-4zM220 142a4 4 0 0 0-4-4h-46a4 4 0 0 0 0 8h46a4 4 0 0 0 4-4zM383 142a4 4 0 0 0-4-4h-48a4 4 0 0 0 0 8h48a4 4 0 0 0 4-4z" fill="#246EDE"/><path d="M819 142a4 4 0 0 0-4-4h-48a4 4 0 0 0 0 8h48a4 4 0 0 0 4-4zM961 142a4 4 0 0 0-4-4h-48a4 4 0 0 0 0 8h48a4 4 0 0 0 4-4z" fill="#F1F1F1"/><path opacity=".2" d="M572 84.5c0-4.1-3.4-7.5-7.5-7.5h-39a7.5 7.5 0 0 0 0 15h39c4.1 0 7.5-3.4 7.5-7.5zM265 84.5c0-4.1-3.4-7.5-7.5-7.5h-13a7.5 7.5 0 0 0 0 15h13c4.1 0 7.5-3.4 7.5-7.5zM635 84.5c0-4.1-3.4-7.5-7.5-7.5h-13a7.5 7.5 0 0 0 0 15h13c4.1 0 7.5-3.4 7.5-7.5zM313 84.5c0-4.1-3.4-7.5-7.5-7.5h-13a7.5 7.5 0 0 0 0 15h13c4.1 0 7.5-3.4 7.5-7.5z" fill="#246EDE"/><path d="M729 84.5c0-4.1-3.4-7.5-7.5-7.5h-7a7.5 7.5 0 0 0 0 15h7c4.1 0 7.5-3.4 7.5-7.5zM729 134.5c0-4.1-3.4-7.5-7.5-7.5h-7a7.5 7.5 0 0 0 0 15h7c4.1 0 7.5-3.4 7.5-7.5zM729 183.5c0-4.1-3.4-7.5-7.5-7.5h-7a7.5 7.5 0 0 0 0 15h7c4.1 0 7.5-3.4 7.5-7.5zM729 233.5c0-4.1-3.4-7.5-7.5-7.5h-7a7.5 7.5 0 0 0 0 15h7c4.1 0 7.5-3.4 7.5-7.5zM1017 84.5c0-4.1-3.4-7.5-7.5-7.5h-21a7.5 7.5 0 0 0 0 15h21c4.1 0 7.5-3.4 7.5-7.5zM883 184.5c0-4.1-3.4-7.5-7.5-7.5h-21a7.5 7.5 0 0 0 0 15h21c4.1 0 7.5-3.4 7.5-7.5zM883 133.5c0-4.1-3.4-7.5-7.5-7.5h-21a7.5 7.5 0 0 0 0 15h21c4.1 0 7.5-3.4 7.5-7.5zM1017 134.5c0-4.1-3.4-7.5-7.5-7.5h-21a7.5 7.5 0 0 0 0 15h21c4.1 0 7.5-3.4 7.5-7.5zM885 234.5c0-4.1-3.4-7.5-7.5-7.5h-21a7.5 7.5 0 0 0 0 15h21c4.1 0 7.5-3.4 7.5-7.5zM883 81.5c0-4.1-3.4-7.5-7.5-7.5h-21a7.5 7.5 0 0 0 0 15h21c4.1 0 7.5-3.4 7.5-7.5zM1017 183.5c0-4.1-3.4-7.5-7.5-7.5h-21a7.5 7.5 0 0 0 0 15h21c4.1 0 7.5-3.4 7.5-7.5zM1017 233.5c0-4.1-3.4-7.5-7.5-7.5h-21a7.5 7.5 0 0 0 0 15h21c4.1 0 7.5-3.4 7.5-7.5z" fill="#F1F1F1"/><path d="M733.5 82c0-5.2-4.3-9.5-9.5-9.5h-51a9.5 9.5 0 0 0-9.5 9.5v5c0 5.2 4.3 9.5 9.5 9.5h51c5.2 0 9.5-4.3 9.5-9.5v-5zM733.5 132c0-5.2-4.3-9.5-9.5-9.5h-51a9.5 9.5 0 0 0-9.5 9.5v5c0 5.2 4.3 9.5 9.5 9.5h51c5.2 0 9.5-4.3 9.5-9.5v-5zM733.5 181c0-5.2-4.3-9.5-9.5-9.5h-51a9.5 9.5 0 0 0-9.5 9.5v5c0 5.2 4.3 9.5 9.5 9.5h51c5.2 0 9.5-4.3 9.5-9.5v-5zM733.5 231c0-5.2-4.3-9.5-9.5-9.5h-51a9.5 9.5 0 0 0-9.5 9.5v5c0 5.2 4.3 9.5 9.5 9.5h51c5.2 0 9.5-4.3 9.5-9.5v-5z" stroke="#246EDE"/><path opacity=".2" d="M663 82a10 10 0 0 1 10-10h49v25h-49a10 10 0 0 1-10-10v-5zM663 132a10 10 0 0 1 10-10h36v25h-36a10 10 0 0 1-10-10v-5zM663 181a10 10 0 0 1 10-10h26v25h-26a10 10 0 0 1-10-10v-5zM663 231a10 10 0 0 1 10-10h5v25h-5a10 10 0 0 1-10-10v-5zM572 134.5c0-4.1-3.4-7.5-7.5-7.5h-39a7.5 7.5 0 0 0 0 15h39c4.1 0 7.5-3.4 7.5-7.5zM265 134.5c0-4.1-3.4-7.5-7.5-7.5h-13a7.5 7.5 0 0 0 0 15h13c4.1 0 7.5-3.4 7.5-7.5zM635 134.5c0-4.1-3.4-7.5-7.5-7.5h-13a7.5 7.5 0 0 0 0 15h13c4.1 0 7.5-3.4 7.5-7.5zM313 134.5c0-4.1-3.4-7.5-7.5-7.5h-13a7.5 7.5 0 0 0 0 15h13c4.1 0 7.5-3.4 7.5-7.5zM572 183.5c0-4.1-3.4-7.5-7.5-7.5h-39a7.5 7.5 0 0 0 0 15h39c4.1 0 7.5-3.4 7.5-7.5zM265 183.5c0-4.1-3.4-7.5-7.5-7.5h-13a7.5 7.5 0 0 0 0 15h13c4.1 0 7.5-3.4 7.5-7.5zM635 183.5c0-4.1-3.4-7.5-7.5-7.5h-13a7.5 7.5 0 0 0 0 15h13c4.1 0 7.5-3.4 7.5-7.5zM313 183.5c0-4.1-3.4-7.5-7.5-7.5h-13a7.5 7.5 0 0 0 0 15h13c4.1 0 7.5-3.4 7.5-7.5zM572 233.5c0-4.1-3.4-7.5-7.5-7.5h-39a7.5 7.5 0 0 0 0 15h39c4.1 0 7.5-3.4 7.5-7.5zM265 233.5c0-4.1-3.4-7.5-7.5-7.5h-13a7.5 7.5 0 0 0 0 15h13c4.1 0 7.5-3.4 7.5-7.5z" fill="#246EDE"/><path d="M635 233.5c0-4.1-3.4-7.5-7.5-7.5h-13a7.5 7.5 0 0 0 0 15h13c4.1 0 7.5-3.4 7.5-7.5z" fill="#246EDE" fill-opacity=".2"/><path opacity=".2" d="M313 233.5c0-4.1-3.4-7.5-7.5-7.5h-13a7.5 7.5 0 0 0 0 15h13c4.1 0 7.5-3.4 7.5-7.5zM220 177a4 4 0 0 1-4 4h-46a4 4 0 0 1 0-8h46a4 4 0 0 1 4 4zM383 177a4 4 0 0 1-4 4h-48a4 4 0 0 1 0-8h48a4 4 0 0 1 4 4z" fill="#246EDE"/><path d="M819 177a4 4 0 0 1-4 4h-48a4 4 0 0 1 0-8h48a4 4 0 0 1 4 4zM961 177a4 4 0 0 1-4 4h-48a4 4 0 0 1 0-8h48a4 4 0 0 1 4 4z" fill="#F1F1F1"/><path opacity=".2" d="M478 227a4 4 0 0 1-4 4h-48a4 4 0 0 1 0-8h48a4 4 0 0 1 4 4zM205 241a4 4 0 0 0-4-4h-31a4 4 0 0 0 0 8h31a4 4 0 0 0 4-4zM367 241a4 4 0 0 0-4-4h-32a4 4 0 0 0 0 8h32a4 4 0 0 0 4-4z" fill="#246EDE"/><path d="M803 241a4 4 0 0 0-4-4h-32a4 4 0 0 0 0 8h32a4 4 0 0 0 4-4zM945 241a4 4 0 0 0-4-4h-32a4 4 0 0 0 0 8h32a4 4 0 0 0 4-4z" fill="#F1F1F1"/><path opacity=".2" d="M461 191a4 4 0 0 0-4-4h-32a4 4 0 0 0 0 8h32a4 4 0 0 0 4-4zM459 90a4 4 0 0 0-4-4h-32a4 4 0 0 0 0 8h32a4 4 0 0 0 4-4z" fill="#246EDE"/><path d="M17 109h1025M17 59h1025M17 159h1025M17 209h1025M17 259h1025M155 26v248M229 26v248M390 26v248M319 26v248M275 26v248M505 26v248M585 26v248M656 26v248M739 26v248M841 26v248M889 26v248M975 26v248M1024 26v248M519 97h52M981 146h36M847 196h36M847 93h36M981 246h36" stroke="#246EDE" stroke-opacity=".3"/><path opacity=".3" fill-rule="evenodd" clip-rule="evenodd" d="M65 87V73H45v22h4v-7.7h1.5V95h4v-7.7H56v2.2h4v-2.2h1l2 5.7h4l-2-6zm-15-4v-2h10v2H50zm10-4H50v-2h10v2z" fill="#246EDE"/><g opacity=".3" stroke="#246EDE"><rect x="53.5" y="119.7" width="7.5" height="23.6" rx="3.7" transform="rotate(30 53.5 119.7)" fill="#fff"/><circle cx="46.8" cy="138.8" r="3.7" transform="rotate(30 46.8 138.8)" fill="#fff"/><rect x="50.2" y="123.4" width="7.5" height="23.6" rx="3.7" transform="rotate(-30 50.2 123.4)" fill="#246EDE"/></g><path d="M67.2 189.7v-.2c-.5-.8-1.3-1.7-2.5-2.8l-1-1a1 1 0 0 1-.1-1c0-.3.4-.8 1.1-1.6l.8-1.1c1.5-2 2.1-3.2 2-3.8l-.2-.1-.4-.2c-.2-.1-.5-.1-.8 0H61.7l-.1.3-1.4 2.9-1 1.4-.6.9-.5.4h-.5a76 76 0 0 0-.3-.3l-.1-.5v-.5-.6-.5-1.1-1-.6-.6l-.1-.4-.3-.3-.4-.2-1.7-.2c-1.6 0-2.6.1-3 .3l-.5.5c-.2.2-.2.3 0 .3.4 0 .8.3 1 .5l.1.2.2.6.1.9v2.6l-.3.6c0 .2 0 .3-.2.3l-.4.1a.8.8 0 0 1-.4-.1l-.5-.5-.7-1-.6-1.2-.2-.4-.5-1-.6-1.3-.3-.5h-.1l-.2-.1-.3-.1h-3.5c-.4 0-.6 0-.7.2l-.1.2v.2l.1.3 1.6 3.5c.6 1 1 2 1.6 2.6l1.4 2 .9 1.1c0 .2.3.3.4.4l.3.3.8.7 1.3.8a6.6 6.6 0 0 0 3.6.9h1.5c.3 0 .5-.1.7-.3l.1-.1.1-.2v-.4l.1-1 .2-.7.3-.4.2-.2c.3 0 .5 0 .8.2l.8.7.9 1 .9.8.3.2.7.3c0 .2.3.2.5.2l3.2-.1.8-.2c.2-.1.3-.2.3-.4v-.4s0-.2-.2-.2zM51.4 245H56v-11.6h3.2l.3-3.9H56v-2.2c0-.9.2-1.3 1.1-1.3h2.5v-4h-3.2c-3.4 0-5 1.5-5 4.4v3.1H49v3.9h2.4V245zM50 39.9h-1.8V44h-1.8v-9.8h1.8v4.1H50l2.9-4.1h1.9l-3.4 4.7L55 44h-2l-3-4.1zm8.8-3.5c1.1 0 2 .3 2.6.8.5.6.8 1.4.8 2.4V44h-1.6v-1a2 2 0 0 1-1 .8c-.3.2-.8.3-1.4.3-.5 0-1-.1-1.4-.3-.5-.2-.8-.4-1-.8a2 2 0 0 1-.4-1.1c0-.7.3-1.3.8-1.7.5-.4 1.3-.6 2.4-.6h1.9c0-.6-.2-1-.5-1.3-.3-.3-.8-.4-1.4-.4a4 4 0 0 0-1.2.2 3 3 0 0 0-1 .5l-.7-1.2c.4-.3.8-.6 1.4-.7.5-.2 1.1-.3 1.7-.3zm-.2 6.4c.4 0 .8 0 1.2-.3l.7-.8v-1h-1.8c-1 0-1.5.4-1.5 1 0 .4 0 .7.3.8.3.2.6.3 1.1.3zm5.8-6.3h1.8v3h3.7v-3h1.8V44h-1.8v-3h-3.7v3h-1.8v-7.5zm12.4 0c1.1 0 2 .2 2.5.7.6.6.9 1.4.9 2.4V44h-1.7v-1a2 2 0 0 1-.9.8c-.4.2-.8.3-1.4.3-.6 0-1-.1-1.5-.3-.4-.2-.7-.4-1-.8a2 2 0 0 1-.3-1.1c0-.7.3-1.3.8-1.7.5-.4 1.2-.6 2.3-.6h2c0-.6-.2-1-.5-1.3-.3-.3-.8-.4-1.4-.4a4 4 0 0 0-1.3.2 3 3 0 0 0-1 .5l-.7-1.2c.4-.3.9-.6 1.4-.7l1.8-.3zm-.2 6.3c.4 0 .8 0 1.1-.3.4-.2.6-.5.7-.8v-1h-1.8c-1 0-1.5.4-1.5 1 0 .4.2.7.4.8.3.2.6.3 1 .3zM89 36.5V44h-1.7v-6h-2.8v1.5l-.4 2.5c0 .6-.3 1.2-.6 1.6-.4.3-.8.5-1.4.5l-1-.1.2-1.5h.3c.3 0 .6 0 .8-.4.2-.3.3-.6.3-1l.2-1.7v-2.9h6.1zm6 2.5c1 0 1.7.2 2.2.6.5.5.8 1 .8 1.9 0 .8-.3 1.4-.9 1.9-.5.4-1.3.6-2.3.6h-3.4v-7.5h1.7V39h2zm4-2.5h1.7V44H99v-7.5zm-4.4 6.2c.5 0 1 0 1.2-.3.3-.2.4-.5.4-1 0-.4-.1-.7-.4-.9a2 2 0 0 0-1.2-.3h-1.5v2.5h1.5zM173 34.2V44h-1.7v-8.3h-5.1V44h-1.8v-9.8h8.7zm6 9.9c-.8 0-1.5-.2-2-.5a3.6 3.6 0 0 1-2-3.3 3.6 3.6 0 0 1 2-3.3c.5-.4 1.2-.6 2-.6.7 0 1.4.2 2 .5.6.4 1 .8 1.4 1.4.4.6.5 1.2.5 2 0 .7-.1 1.4-.5 2-.3.5-.8 1-1.4 1.3-.6.3-1.3.5-2 .5zm0-1.5c.6 0 1.1-.2 1.5-.6.5-.5.7-1 .7-1.7s-.2-1.3-.7-1.7c-.4-.5-1-.7-1.5-.7-.7 0-1.2.2-1.6.7-.5.4-.7 1-.7 1.7s.2 1.2.7 1.7c.4.4 1 .6 1.6.6zm8.8-1.6h-1.4v3h-1.7v-7.5h1.7v3h1.4l2.2-3h2l-2.8 3.6L192 44h-2l-2.3-3zm8.2-4.6c1 0 2 .3 2.5.8.6.6.9 1.4.9 2.4V44h-1.7v-1a2 2 0 0 1-.9.8c-.4.2-.9.3-1.4.3-.6 0-1-.1-1.5-.3-.4-.2-.7-.4-1-.8a2 2 0 0 1-.3-1.1c0-.7.2-1.3.7-1.7.5-.4 1.3-.6 2.4-.6h2c0-.6-.2-1-.5-1.3-.4-.3-.8-.4-1.4-.4a4 4 0 0 0-1.3.2 3 3 0 0 0-1 .5l-.7-1.2c.4-.3.9-.6 1.4-.7l1.8-.3zm-.3 6.4c.5 0 .9 0 1.2-.3.3-.2.6-.5.7-.8v-1h-1.8c-1 0-1.5.4-1.5 1 0 .4.1.7.4.8.2.2.6.3 1 .3zm10.2-2.7c.5.1.8.4 1 .7.4.2.5.6.5 1 0 .5-.2.9-.5 1.2a3 3 0 0 1-1.3.8c-.5.2-1.1.3-1.8.3-.6 0-1.1 0-1.7-.2l-1.5-.6.5-1.3 1.2.5 1.4.2c.6 0 1-.1 1.4-.3.3-.2.5-.4.5-.7 0-.3-.1-.6-.4-.7a2 2 0 0 0-1-.2h-1.5v-1.2h1.3l1-.2c.3-.2.4-.4.4-.7 0-.2-.2-.5-.5-.6-.3-.2-.7-.3-1.2-.3-.7 0-1.5.2-2.4.6L201 37c1-.5 2-.7 3-.7.6 0 1.2.1 1.7.3.5.1.9.4 1.1.7.3.3.5.7.5 1 0 .4-.1.8-.4 1-.2.3-.5.5-.9.7zm7-1.1c.9 0 1.6.2 2.1.6.5.5.8 1 .8 1.9 0 .8-.3 1.4-.9 1.9-.5.4-1.3.6-2.3.6h-3.4v-7.5h1.7V39h2zm3.8-2.5h1.8V44h-1.8v-7.5zm-4.3 6.2c.5 0 1 0 1.2-.3.3-.2.4-.5.4-1 0-.4-.1-.7-.4-.9a2 2 0 0 0-1.2-.3H211v2.5h1.5zM242.9 44.1a5 5 0 0 1-5.2-5c0-1 .1-1.8.6-2.6s1-1.4 1.9-1.8c.8-.4 1.7-.6 2.7-.6.8 0 1.5.1 2.2.4.6.3 1.2.7 1.6 1.2l-1.1 1.1a3.4 3.4 0 0 0-2.7-1.1c-.6 0-1.2.1-1.8.4-.5.3-.9.7-1.2 1.2-.3.5-.5 1.1-.5 1.8s.2 1.3.5 1.8.7 1 1.2 1.2c.6.3 1.2.4 1.8.4 1 0 2-.3 2.7-1.1l1.1 1.1c-.4.5-1 1-1.6 1.2-.7.3-1.4.4-2.2.4zm7.5-8.4H247v-1.5h8.3v1.5h-3.2V44h-1.8v-8.3zm12.8 8.3l-2-2.9h-2.6V44h-1.8v-9.8h4c.9 0 1.6.1 2.2.4.7.3 1.2.7 1.5 1.2.3.5.5 1.2.5 1.9s-.2 1.4-.5 1.9c-.4.5-1 1-1.6 1.2l2.3 3.2h-2zm0-6.3c0-.6-.2-1.1-.6-1.5-.5-.3-1-.5-1.9-.5h-2v4h2c.8 0 1.4-.2 1.9-.6.4-.3.6-.8.6-1.4zM412 28.2V38h-1.7v-8.3h-5.1V38h-1.8v-9.8h8.7zm6 9.9c-.8 0-1.5-.2-2-.5a3.6 3.6 0 0 1-2-3.3 3.6 3.6 0 0 1 2-3.3c.5-.4 1.2-.6 2-.6.7 0 1.4.2 2 .5.6.4 1 .8 1.4 1.4.4.6.5 1.2.5 2 0 .7-.1 1.4-.5 2-.3.5-.8 1-1.4 1.3-.6.3-1.3.5-2 .5zm0-1.5c.6 0 1.1-.2 1.5-.6.5-.5.7-1 .7-1.7s-.2-1.3-.7-1.7c-.4-.5-.9-.7-1.5-.7-.7 0-1.2.2-1.6.7-.5.4-.7 1-.7 1.7s.2 1.2.7 1.7c.4.4 1 .6 1.6.6zm8.8-1.6h-1.4v3h-1.7v-7.5h1.7v3h1.4l2.2-3h2l-2.8 3.6L431 38h-2l-2.3-3zm8.2-4.6c1 0 2 .3 2.5.8.6.6.9 1.4.9 2.4V38h-1.7v-1a2 2 0 0 1-.9.8c-.4.2-.9.3-1.4.3-.6 0-1-.1-1.5-.3-.4-.2-.7-.4-1-.8a2 2 0 0 1-.3-1.1c0-.7.2-1.3.7-1.7.5-.4 1.3-.6 2.4-.6h2c0-.6-.2-1-.6-1.3-.3-.3-.7-.4-1.3-.4a4 4 0 0 0-1.3.2 3 3 0 0 0-1 .5l-.7-1.2c.4-.3.9-.6 1.4-.7l1.8-.3zm-.3 6.4c.5 0 .9 0 1.2-.3.3-.2.6-.5.7-.8v-1h-1.8c-1 0-1.5.4-1.5 1 0 .4.1.7.4.8.2.2.6.3 1 .3zm10.2-2.7c.5.1.8.4 1 .7.4.2.5.6.5 1 0 .5-.2.9-.5 1.2a3 3 0 0 1-1.3.8c-.5.2-1.1.3-1.8.3-.6 0-1.1 0-1.7-.2l-1.5-.6.5-1.3 1.2.5 1.4.2c.6 0 1-.1 1.4-.3.3-.2.5-.4.5-.7 0-.3-.1-.6-.4-.7a2 2 0 0 0-1-.2h-1.5v-1.2h1.3l1-.2c.3-.2.4-.4.4-.7 0-.2-.2-.5-.5-.6-.3-.2-.7-.3-1.2-.3-.7 0-1.5.2-2.4.6L440 31c1-.5 2-.7 3-.7.6 0 1.2.1 1.7.3.5.1.9.4 1.1.7.3.3.5.7.5 1 0 .4-.1.8-.4 1-.2.3-.5.5-.9.7zm6-3.7c1.2 0 2 .3 2.6.8.6.6.9 1.4.9 2.4V38h-1.7v-1a2 2 0 0 1-.9.8c-.4.2-.9.3-1.4.3-.6 0-1-.1-1.5-.3-.4-.2-.7-.4-1-.8a2 2 0 0 1-.3-1.1c0-.7.2-1.3.7-1.7.5-.4 1.3-.6 2.4-.6h2c0-.6-.2-1-.5-1.3-.3-.3-.8-.4-1.4-.4a4 4 0 0 0-1.3.2 3 3 0 0 0-1 .5l-.7-1.2c.4-.3.9-.6 1.4-.7l1.8-.3zm-.2 6.4c.5 0 .9 0 1.2-.3.4-.2.6-.5.7-.8v-1h-1.8c-1 0-1.5.4-1.5 1 0 .4.1.7.4.8.2.2.6.3 1 .3zm11.8-4.8h-2.6v6H458v-6h-2.6v-1.5h7V32zm8 2.3l-.1.5h-5.9c.1.6.4 1 .8 1.3.5.4 1 .5 1.6.5.9 0 1.5-.3 2-.8l1 1c-.3.5-.8.8-1.3 1-.5.2-1 .3-1.7.3-.8 0-1.5-.2-2.2-.5a3.6 3.6 0 0 1-2-3.3c0-.8.2-1.4.6-2 .3-.6.8-1 1.3-1.4a4 4 0 0 1 2-.5c.8 0 1.4.2 2 .5.6.3 1 .8 1.3 1.4.4.6.5 1.2.5 2zm-3.9-2.5c-.5 0-1 .2-1.4.5a2 2 0 0 0-.7 1.4h4.2c0-.6-.3-1-.6-1.4a2 2 0 0 0-1.5-.5zm12.4-1.3V38h-1.7v-6h-2.8l-.1 1.5c0 1-.2 1.8-.3 2.5-.1.6-.4 1.2-.7 1.6-.3.3-.7.5-1.3.5l-1-.1.1-1.5h.4c.3 0 .6 0 .8-.4l.3-1 .1-1.7.2-2.9h6zm6.1 2.5c1 0 1.7.2 2.2.6.5.5.8 1 .8 1.9 0 .8-.3 1.4-.9 1.9-.5.4-1.3.6-2.3.6h-3.5v-7.5h1.7V33h2zm-.4 3.7c.5 0 1 0 1.2-.3.3-.2.4-.5.4-1 0-.4-.1-.7-.4-.9a2 2 0 0 0-1.2-.3h-1.6v2.5h1.6zm-78.2 15.4c-.7 0-1.4-.2-2-.5a3.6 3.6 0 0 1-2-3.3c0-.8.2-1.4.5-2 .4-.6.9-1 1.5-1.4.6-.3 1.3-.5 2-.5.8 0 1.5.2 2 .5.7.4 1.1.8 1.5 1.4.3.6.5 1.2.5 2 0 .7-.2 1.4-.5 2-.4.5-.8 1-1.4 1.3-.6.3-1.3.5-2 .5zm0-1.5c.7 0 1.2-.2 1.6-.6.4-.5.6-1 .6-1.7s-.2-1.3-.6-1.7c-.4-.5-1-.7-1.6-.7-.6 0-1.2.2-1.6.7-.4.4-.6 1-.6 1.7s.2 1.2.6 1.7c.4.4 1 .6 1.6.6zM418 46h-2.6v6h-1.8v-6H411v-1.5h7V46zm4.4 3h-1.4v3H419v-7.5h1.8v3h1.4l2.2-3h1.9l-2.7 3.6 2.9 3.9h-2l-2.3-3zm8.1-4.6c1.2 0 2 .3 2.6.8.6.6.9 1.4.9 2.4V52h-1.7v-1a2 2 0 0 1-1 .8c-.3.2-.8.3-1.4.3-.5 0-1-.1-1.4-.3-.4-.2-.8-.4-1-.8a2 2 0 0 1-.3-1.1c0-.7.2-1.3.7-1.7.5-.4 1.3-.6 2.4-.6h1.9c0-.6-.2-1-.5-1.3-.3-.3-.7-.4-1.4-.4a4 4 0 0 0-1.2.2 3 3 0 0 0-1 .5l-.7-1.2c.4-.3.8-.6 1.4-.7.5-.2 1.1-.3 1.7-.3zm-.2 6.4c.4 0 .8 0 1.2-.3.3-.2.6-.5.7-.8v-1h-1.8c-1 0-1.5.4-1.5 1 0 .4.1.7.4.8.2.2.6.3 1 .3zm10.2-2.7c.5.1.8.4 1 .7.3.2.5.6.5 1 0 .5-.2.9-.5 1.2a3 3 0 0 1-1.3.8c-.5.2-1.1.3-1.8.3-.6 0-1.2 0-1.7-.2-.6-.1-1-.3-1.5-.6l.5-1.3 1.2.5 1.4.2c.6 0 1-.1 1.4-.3.3-.2.5-.4.5-.7 0-.3-.2-.6-.4-.7a2 2 0 0 0-1.1-.2H437v-1.2h1.4l1-.2c.2-.2.4-.4.4-.7 0-.2-.2-.5-.5-.6-.3-.2-.7-.3-1.2-.3-.8 0-1.6.2-2.4.6l-.4-1.3c1-.5 2-.7 3-.7.6 0 1.1.1 1.6.3.5.1 1 .4 1.2.7.3.3.4.7.4 1 0 .4 0 .8-.3 1-.2.3-.5.5-1 .7zm6.6 4c-.8 0-1.4-.2-2-.5a3.6 3.6 0 0 1-2-3.3c0-.8.2-1.4.5-2 .4-.6.9-1 1.5-1.4.6-.3 1.2-.5 2-.5s1.5.2 2 .5c.7.4 1.1.8 1.5 1.4.3.6.5 1.2.5 2 0 .7-.2 1.4-.5 2-.4.5-.8 1-1.4 1.3-.6.3-1.3.5-2.1.5zm0-1.5c.6 0 1.2-.2 1.6-.6.4-.5.6-1 .6-1.7s-.2-1.3-.6-1.7c-.4-.5-1-.7-1.6-.7-.6 0-1.2.2-1.6.7-.4.4-.6 1-.6 1.7s.2 1.2.6 1.7c.4.4 1 .6 1.6.6zm11.1-2.5c1 .3 1.4.9 1.4 1.8 0 .7-.2 1.2-.7 1.6-.5.3-1.3.5-2.3.5h-3.8v-7.5h3.7c.9 0 1.6.2 2.1.5.5.4.8.8.8 1.5 0 .3-.1.7-.3 1a2 2 0 0 1-.9.6zm-3.7-.5h1.8c1 0 1.4-.3 1.4-.9 0-.6-.5-.9-1.4-.9h-1.8v1.8zm2 3.1c1 0 1.4-.3 1.4-1 0-.2 0-.5-.3-.6-.2-.2-.6-.3-1-.3h-2.1v2h2zM287.9 44.1a5 5 0 0 1-5.2-5c0-1 .1-1.8.6-2.6s1-1.4 1.9-1.8c.8-.4 1.7-.6 2.7-.6.8 0 1.5.1 2.2.4.6.3 1.2.7 1.6 1.2l-1.1 1.1a3.4 3.4 0 0 0-2.7-1.1c-.6 0-1.2.1-1.8.4-.5.3-.9.7-1.2 1.2-.3.5-.4 1.1-.4 1.8s.1 1.3.4 1.8c.3.5.7 1 1.2 1.2.6.3 1.2.4 1.8.4 1 0 2-.3 2.7-1.1l1.1 1.1c-.4.5-1 1-1.6 1.2-.7.3-1.4.4-2.2.4zm9.6-9.9c.9 0 1.6.1 2.2.4.7.3 1.2.7 1.5 1.2.3.5.5 1.2.5 1.9s-.2 1.3-.5 1.8c-.3.6-.8 1-1.5 1.3-.6.2-1.3.4-2.2.4h-2.2V44h-1.8v-9.8h4zm0 5.4c.7 0 1.3-.1 1.7-.5.5-.3.7-.8.7-1.4 0-.6-.2-1.1-.7-1.5-.4-.3-1-.5-1.8-.5h-2v4h2zm10.7 4.5c-1 0-1.9-.2-2.7-.6a5 5 0 0 1-2.6-4.4c0-1 .3-1.8.7-2.6.5-.8 1.1-1.4 2-1.8.7-.4 1.6-.6 2.6-.6.8 0 1.5.1 2.2.4.7.3 1.2.7 1.7 1.2l-1.2 1.1a3.4 3.4 0 0 0-2.6-1.1c-.7 0-1.3.1-1.8.4-.6.3-1 .7-1.3 1.2-.3.5-.4 1.1-.4 1.8s.1 1.3.4 1.8c.3.5.7 1 1.3 1.2.5.3 1.1.4 1.8.4 1 0 1.9-.3 2.6-1.1l1.2 1.1c-.5.5-1 1-1.7 1.2-.7.3-1.4.4-2.2.4zM518.4 35.2c.9 0 1.6.1 2.2.4.7.3 1.1.7 1.5 1.2.3.5.5 1.2.5 1.9s-.2 1.3-.5 1.8c-.4.6-.8 1-1.5 1.3-.6.2-1.3.4-2.2.4h-2.2V45h-1.8v-9.8h4zm0 5.4c.7 0 1.3-.1 1.7-.5.4-.3.6-.8.6-1.4 0-.6-.2-1.1-.6-1.5-.4-.3-1-.5-1.8-.5h-2.1v4h2.1zm8.4-3.2c1.1 0 2 .3 2.5.8.6.6 1 1.4 1 2.4V45h-1.7v-1a2 2 0 0 1-1 .8c-.3.2-.8.3-1.4.3l-1.5-.3c-.4-.2-.7-.4-1-.8a2 2 0 0 1-.3-1.1c0-.7.3-1.3.8-1.7.5-.4 1.3-.6 2.3-.6h2c0-.6-.2-1-.5-1.3-.3-.3-.8-.4-1.4-.4a4 4 0 0 0-1.2.2 3 3 0 0 0-1 .5l-.7-1.2c.3-.3.8-.6 1.4-.7.5-.2 1.1-.3 1.7-.3zm-.2 6.4c.4 0 .8 0 1.1-.3.4-.2.6-.5.8-.8v-1h-1.8c-1 0-1.5.4-1.5 1 0 .4 0 .7.3.8.3.2.6.3 1 .3zm9.2 1.3c-.8 0-1.5-.2-2.1-.5a3.6 3.6 0 0 1-2-3.3c0-.8.2-1.4.6-2 .3-.6.8-1 1.4-1.4.6-.3 1.3-.5 2-.5a4 4 0 0 1 2 .5c.6.3 1 .7 1.3 1.3l-1.4.8a2 2 0 0 0-.8-.8c-.3-.2-.6-.3-1-.3a2.2 2.2 0 0 0-2.3 2.4c0 .7.2 1.2.6 1.7.5.4 1 .6 1.7.6.4 0 .7 0 1-.3.4-.1.6-.4.8-.7l1.4.7a3 3 0 0 1-1.3 1.4 4 4 0 0 1-2 .4zm9.2-.1l-2-2.6-1.9 2.6h-1.9l3-3.8-2.9-3.7h2L543 40l1.9-2.5h1.8l-2.8 3.7 3 3.8h-2zm6.3.1c-.8 0-1.4-.2-2-.5a3.6 3.6 0 0 1-2-3.3c0-.8.2-1.4.5-2 .4-.6.9-1 1.5-1.4.6-.3 1.2-.5 2-.5s1.5.2 2 .5c.7.4 1.1.8 1.5 1.4.3.6.5 1.2.5 2 0 .7-.2 1.4-.5 2-.4.5-.8 1-1.4 1.3-.6.3-1.3.5-2.1.5zm0-1.5c.6 0 1.2-.2 1.6-.6.4-.5.6-1 .6-1.7s-.2-1.3-.6-1.7c-.4-.5-1-.7-1.6-.7-.6 0-1.2.2-1.6.7-.4.4-.6 1-.6 1.7s.2 1.2.6 1.7c.4.4 1 .6 1.6.6zm13.6 0v3h-1.6V45h-5.8v1.7H556v-3.2h.3c.5 0 .8-.3 1-.9.2-.6.3-1.4.4-2.5v-2.6h6.2v6h1.1zm-5.7-3.4c0 .9-.2 1.6-.3 2.1 0 .6-.2 1-.5 1.2h3.7V39h-2.9v1.2zm11-.2c.9 0 1.6.2 2.1.6.5.5.8 1 .8 1.9 0 .8-.3 1.4-.9 1.9-.5.4-1.3.6-2.3.6h-3.4v-7.5h1.7V40h2zm3.8-2.5h1.8V45H574v-7.5zm-4.3 6.2c.5 0 1 0 1.2-.3.3-.2.4-.5.4-1 0-.4-.1-.7-.4-.9a2 2 0 0 0-1.2-.3h-1.5v2.5h1.5zM333.8 38.9c.7.2 1.1.5 1.5.9.3.4.4.9.4 1.5 0 .8-.3 1.5-1 2-.5.5-1.5.7-2.7.7h-4.6v-9.8h4.4c1 0 2 .2 2.5.7.7.4 1 1 1 1.8 0 .5-.2 1-.4 1.3-.3.4-.6.7-1 .9zm-4.6-.5h2.4c.6 0 1-.1 1.4-.4.3-.2.4-.5.4-1s-.1-.8-.4-1c-.4-.3-.8-.4-1.4-.4h-2.4v2.8zm2.8 4.2c1.3 0 2-.5 2-1.5s-.7-1.4-2-1.4h-2.8v2.9h2.8zm5.6-6h1.8v4.9l4.1-5h1.6V44h-1.8v-5l-4 5h-1.7v-7.5zm14.2 3.5c.5.1.8.4 1.1.7.3.2.4.6.4 1 0 .5-.2.9-.5 1.2a3 3 0 0 1-1.2.8c-.6.2-1.2.3-1.9.3-.6 0-1.1 0-1.7-.2l-1.5-.6.5-1.3 1.3.5 1.3.2c.6 0 1-.1 1.4-.3.3-.2.5-.4.5-.7 0-.3-.1-.6-.4-.7a2 2 0 0 0-1-.2h-1.5v-1.2h1.3l1-.2c.3-.2.4-.4.4-.7 0-.2-.2-.5-.5-.6-.3-.2-.7-.3-1.2-.3-.7 0-1.5.2-2.4.6l-.4-1.3c1-.5 2-.7 3-.7.6 0 1.2.1 1.7.3.5.1.9.4 1.1.7.3.3.5.7.5 1 0 .4-.1.8-.4 1-.2.3-.5.5-.9.7zm3.3-3.6h1.8v5l4-5h1.7V44h-1.8v-5l-4 5H355v-7.5zM371 38h-2.7v6h-1.7v-6h-2.6v-1.5h7V38zm4.9 1c1 0 1.6.2 2.2.6.5.5.7 1 .7 1.9 0 .8-.3 1.4-.8 1.9-.6.4-1.4.6-2.4.6h-3.4v-7.5h1.8V39h1.9zm3.9-2.5h1.7V44h-1.7v-7.5zm-4.3 6.2c.5 0 .9 0 1.1-.3.3-.2.4-.5.4-1 0-.4 0-.7-.3-.9a2 2 0 0 0-1.2-.3h-1.5v2.5h1.5zM600.5 39.9c.6.2 1 .5 1.4.9.3.4.5.9.5 1.5 0 .5-.2 1-.6 1.5-.4.4-.9.8-1.5 1a6 6 0 0 1-2.1.3c-.7 0-1.3 0-2-.2l-1.8-.9.6-1.3a5.3 5.3 0 0 0 3 1c.7 0 1.3-.2 1.8-.5s.8-.7.8-1.2a1 1 0 0 0-.6-1c-.3-.2-.8-.3-1.5-.3h-2.2v-1.5h2.1c.6 0 1 0 1.3-.3.3-.2.4-.5.4-.9 0-.5-.2-.8-.6-1a3 3 0 0 0-1.6-.4 5 5 0 0 0-1.3.2 5 5 0 0 0-1.3.5l-.6-1.5 1.6-.6a7 7 0 0 1 1.7-.2c.7 0 1.4.1 2 .4.6.2 1 .5 1.4 1 .4.3.6.8.6 1.4 0 .5-.1.9-.4 1.3l-1 .8zm9.2 1.2c1 .3 1.4.9 1.4 1.8 0 .7-.3 1.2-.8 1.6-.5.3-1.2.5-2.2.5h-3.8v-7.5h3.6c1 0 1.6.2 2.2.5.5.4.7.8.7 1.5 0 .3 0 .7-.3 1a2 2 0 0 1-.8.6zm-3.8-.5h1.9c.9 0 1.3-.3 1.3-.9 0-.6-.4-.9-1.3-.9h-1.9v1.8zm2 3.1c1 0 1.5-.3 1.5-1 0-.2-.1-.5-.4-.6-.2-.2-.5-.3-1-.3h-2v2h2zm8.4 1.4c-.8 0-1.5-.2-2-.5a3.6 3.6 0 0 1-2-3.3c0-.8.2-1.4.5-2 .3-.6.8-1 1.4-1.4.6-.3 1.3-.5 2-.5.8 0 1.5.2 2.1.5a3.8 3.8 0 0 1 2 3.3c0 .8-.2 1.5-.6 2-.3.6-.8 1-1.4 1.4-.6.3-1.3.5-2 .5zm0-1.5c.6 0 1.1-.2 1.6-.6.4-.5.6-1 .6-1.7s-.2-1.3-.6-1.7c-.5-.5-1-.7-1.6-.7-.7 0-1.2.2-1.6.7-.4.4-.6 1-.6 1.7s.2 1.2.6 1.7c.4.4 1 .6 1.6.6zm5.7-6h1.7v3h3.8v-3h1.8V45h-1.8v-3h-3.8v3H622v-7.5zm12.7 4.4h-1.4v3h-1.7v-7.5h1.7v3h1.4l2.3-3h1.8l-2.7 3.6 3 3.9H637l-2.3-3zm5.6-4.5h1.7v5l4.1-5h1.6V45H646v-5l-4.1 5h-1.6v-7.5zM908 35.2V45h-1.7v-8.3h-5.1V45h-1.8v-9.8h8.7zm6.8 2.2a4 4 0 0 1 2 .5 4 4 0 0 1 1.8 3.3 4 4 0 0 1-.5 2c-.4.7-.8 1.1-1.4 1.4a4 4 0 0 1-2 .5 3 3 0 0 1-2.3-1v3.6h-1.8V37.5h1.7v1c.3-.4.6-.6 1-.8l1.5-.3zm-.2 6.2a2 2 0 0 0 1.5-.6c.5-.5.7-1 .7-1.7s-.2-1.3-.7-1.7a2 2 0 0 0-1.5-.7c-.5 0-.8.1-1.2.3a2 2 0 0 0-.8.8c-.2.4-.3.8-.3 1.3l.3 1.2.8.8c.4.2.7.3 1.2.3zm9 1.5c-.7 0-1.4-.2-2-.5a3.6 3.6 0 0 1-2-3.3c0-.8.2-1.4.6-2 .3-.6.8-1 1.4-1.4.6-.3 1.3-.5 2-.5.8 0 1.5.2 2 .5.7.4 1.2.8 1.5 1.4.3.6.5 1.2.5 2 0 .7-.2 1.4-.5 2-.3.5-.8 1-1.4 1.3-.6.3-1.3.5-2 .5zm0-1.5c.7 0 1.2-.2 1.6-.6.4-.5.7-1 .7-1.7s-.3-1.3-.7-1.7c-.4-.5-1-.7-1.6-.7-.6 0-1.1.2-1.6.7-.4.4-.6 1-.6 1.7s.2 1.2.6 1.7c.5.4 1 .6 1.6.6zm13.6 0v3h-1.6V45h-5.8v1.7h-1.6v-3.2h.4c.4 0 .8-.3 1-.9l.3-2.5v-2.6h6.2v6h1.1zm-5.7-3.4l-.2 2.1c-.1.6-.3 1-.6 1.2h3.7V39h-2.9v1.2zm10.1-2.8c1.1 0 2 .3 2.5.8.6.6.9 1.4.9 2.4V45h-1.7v-1a2 2 0 0 1-.9.8c-.4.2-.8.3-1.4.3-.6 0-1-.1-1.5-.3-.4-.2-.7-.4-1-.8a2 2 0 0 1-.3-1.1c0-.7.3-1.3.8-1.7.5-.4 1.2-.6 2.3-.6h2c0-.6-.2-1-.5-1.3-.3-.3-.8-.4-1.4-.4a4 4 0 0 0-1.3.2 3 3 0 0 0-1 .5l-.7-1.2c.4-.3.9-.6 1.4-.7l1.8-.3zm-.2 6.4c.4 0 .8 0 1.1-.3.4-.2.6-.5.7-.8v-1h-1.8c-1 0-1.5.4-1.5 1 0 .4.2.7.4.8.3.2.6.3 1 .3zm12.9-1.8H953v3h-1.7v-3H950l-1.8 3h-2l2.4-3.9-2.3-3.6h1.9l1.8 3h1.3v-3h1.7v3h1.3l1.8-3h1.9l-2.3 3.6 2.5 3.9H956l-1.8-3zm5.2-4.5h1.7v5l4.1-5h1.6V45h-1.7v-5l-4.1 5h-1.6v-7.5zM669.5 39.9c.6.2 1 .5 1.4.9.3.4.5.9.5 1.5 0 .5-.2 1-.6 1.5-.4.4-.9.8-1.5 1a6 6 0 0 1-2.1.3c-.7 0-1.3 0-2-.2l-1.8-.9.6-1.3a5.3 5.3 0 0 0 3 1c.7 0 1.3-.2 1.8-.5s.8-.7.8-1.2a1 1 0 0 0-.6-1c-.3-.2-.8-.3-1.5-.3h-2.2v-1.5h2.1c.6 0 1 0 1.3-.3.3-.2.4-.5.4-.9 0-.5-.2-.8-.6-1a3 3 0 0 0-1.6-.4 5 5 0 0 0-1.3.2 5 5 0 0 0-1.3.5l-.6-1.5 1.6-.6a7 7 0 0 1 1.7-.2c.7 0 1.4.1 2 .4.6.2 1 .5 1.4 1 .4.3.6.8.6 1.4 0 .5-.1.9-.4 1.3l-1 .8zm6.6-2.5c1 0 1.9.3 2.5.8.6.6.9 1.4.9 2.4V45h-1.7v-1a2 2 0 0 1-1 .8c-.3.2-.8.3-1.3.3-.6 0-1.1-.1-1.5-.3-.4-.2-.8-.4-1-.8a2 2 0 0 1-.3-1.1c0-.7.2-1.3.7-1.7.5-.4 1.3-.6 2.4-.6h2c0-.6-.3-1-.6-1.3-.3-.3-.7-.4-1.4-.4a4 4 0 0 0-1.2.2 3 3 0 0 0-1 .5l-.7-1.2c.4-.3.9-.6 1.4-.7.6-.2 1.1-.3 1.8-.3zm-.3 6.4c.5 0 .8 0 1.2-.3.3-.2.6-.5.7-.8v-1H676c-1 0-1.5.4-1.5 1 0 .4.1.7.4.8.2.2.6.3 1 .3zm12.1-6.3V45h-1.5v-2.3h-2l-1.5 2.3h-2l1.9-2.5c-.6-.2-1-.5-1.3-.8-.3-.4-.4-1-.4-1.5 0-.8.3-1.5.9-2a4 4 0 0 1 2.5-.7h3.4zm-3.3 1.5c-1.2 0-1.7.4-1.7 1.3 0 .8.5 1.2 1.6 1.2h1.9V39h-1.8zm11.1 2.1c1 .3 1.4.9 1.4 1.8 0 .7-.3 1.2-.8 1.6-.5.3-1.2.5-2.2.5h-3.8v-7.5h3.6c1 0 1.7.2 2.2.5.5.4.8.8.8 1.5 0 .3-.1.7-.4 1a2 2 0 0 1-.8.6zm-3.7-.5h1.8c.9 0 1.3-.3 1.3-.9 0-.6-.4-.9-1.3-.9H692v1.8zm2 3.1c1 0 1.4-.3 1.4-1 0-.2-.1-.5-.3-.6-.3-.2-.6-.3-1-.3H692v2h2zm8-1.7h-1.3v3H699v-7.5h1.7v3h1.4l2.2-3h1.9l-2.7 3.6 2.9 3.9h-2l-2.3-3zm5.6-4.5h1.8v5l4-5h1.7V45h-1.8v-5l-4 5h-1.7v-7.5zM752 33.9h-1.8V38h-1.8v-9.8h1.8v4.1h1.8l2.9-4.1h1.9l-3.4 4.7L757 38h-2l-3-4.1zm9.2 4.2c-.8 0-1.5-.2-2-.5a3.6 3.6 0 0 1-2-3.3c0-.8.2-1.4.5-2 .4-.6.8-1 1.4-1.4.6-.3 1.3-.5 2-.5.9 0 1.5.2 2.1.5.7.4 1.1.8 1.5 1.4.3.6.5 1.2.5 2 0 .7-.2 1.4-.5 2-.4.5-.8 1-1.5 1.3-.6.3-1.2.5-2 .5zm0-1.5c.6 0 1.2-.2 1.6-.6.4-.5.6-1 .6-1.7s-.2-1.3-.6-1.7c-.4-.5-1-.7-1.6-.7-.7 0-1.2.2-1.6.7-.4.4-.6 1-.6 1.7s.2 1.2.6 1.7c.4.4 1 .6 1.6.6zm5.7-6h1.8v3h3.7v-3h1.8V38h-1.8v-3h-3.7v3h-1.8v-7.5zm15 3.5c1 .3 1.4.9 1.4 1.8 0 .7-.2 1.2-.7 1.6-.5.3-1.3.5-2.3.5h-3.8v-7.5h3.7c.9 0 1.6.2 2.1.5.5.4.8.8.8 1.5 0 .3-.1.7-.3 1a2 2 0 0 1-.9.6zm-3.7-.5h1.8c1 0 1.4-.3 1.4-.9 0-.6-.5-.9-1.4-.9h-1.8v1.8zm2 3.1c1 0 1.4-.3 1.4-1 0-.2 0-.5-.3-.6-.2-.2-.6-.3-1-.3h-2.1v2h2zm12-2.4v.5h-6c.2.6.5 1 .9 1.3.4.4 1 .5 1.6.5.8 0 1.5-.3 2-.8l1 1c-.4.5-.8.8-1.3 1-.5.2-1 .3-1.7.3-.9 0-1.6-.2-2.2-.5a3.6 3.6 0 0 1-2-3.3c0-.8.2-1.4.5-2 .4-.6.8-1 1.4-1.4a4 4 0 0 1 2-.5c.7 0 1.4.2 2 .5.5.3 1 .8 1.3 1.4.3.6.5 1.2.5 2zm-3.8-2.5c-.6 0-1 .2-1.4.5a2 2 0 0 0-.7 1.4h4.2c0-.6-.3-1-.7-1.4a2 2 0 0 0-1.4-.5zm9.8-1.4a4 4 0 0 1 2 .5c.6.3 1 .8 1.3 1.4.4.5.5 1.2.5 2a4 4 0 0 1-.5 2c-.3.6-.7 1-1.3 1.3a4 4 0 0 1-2 .5 3 3 0 0 1-2.4-1v3.6h-1.7V30.5h1.7v1c.3-.4.6-.6 1-.8l1.4-.3zm-.2 6.2a2 2 0 0 0 1.6-.6c.4-.5.7-1 .7-1.7s-.3-1.3-.7-1.7a2 2 0 0 0-1.6-.7c-.4 0-.8.1-1 .3a2 2 0 0 0-.9.8c-.2.4-.3.8-.3 1.3l.3 1.2.8.8c.4.2.7.3 1.1.3zm9.2 1.5c-.8 0-1.5-.2-2.1-.5a3.6 3.6 0 0 1-2-3.3c0-.8.2-1.4.6-2 .3-.6.8-1 1.4-1.4.6-.3 1.3-.5 2-.5a4 4 0 0 1 2 .5c.6.3 1 .7 1.3 1.3l-1.4.8a2 2 0 0 0-.8-.8c-.3-.2-.7-.3-1-.3a2.2 2.2 0 0 0-2.3 2.4c0 .7.2 1.2.6 1.7.5.4 1 .6 1.7.6.3 0 .7 0 1-.3.3-.1.6-.4.8-.7l1.4.7a3 3 0 0 1-1.3 1.4 4 4 0 0 1-2 .4zm4.7-7.6h1.8v5l4-5h1.7V38h-1.8v-5l-4 5h-1.7v-7.5zm16.2 0V38h-1.6v-2.3h-2L823 38H821l1.8-2.5c-.6-.2-1-.5-1.3-.8-.2-.4-.4-1-.4-1.5 0-.8.3-1.5 1-2a4 4 0 0 1 2.4-.7h3.5zm-3.4 1.5c-1.1 0-1.7.4-1.7 1.3 0 .8.5 1.2 1.6 1.2h1.9V32h-1.8zM753.6 48c1 .3 1.4.9 1.4 1.8 0 .7-.3 1.2-.8 1.6-.5.3-1.2.5-2.2.5h-3.8v-7.5h3.6c1 0 1.7.2 2.2.5.5.4.7.8.7 1.5 0 .3 0 .7-.3 1a2 2 0 0 1-.8.6zm-3.8-.5h1.9c.9 0 1.3-.3 1.3-.9 0-.6-.4-.9-1.3-.9h-1.9v1.8zm2 3.1c1 0 1.5-.3 1.5-1 0-.2-.1-.5-.3-.6-.3-.2-.6-.3-1.1-.3h-2v2h2zm13.4-2.6c.4.1.8.4 1 .7.3.2.4.6.4 1 0 .5-.1.9-.4 1.2a3 3 0 0 1-1.3.8c-.5.2-1.1.3-1.8.3-.6 0-1.2 0-1.7-.2-.6-.1-1-.3-1.5-.6l.5-1.3 1.2.5 1.4.2c.6 0 1-.1 1.4-.3.3-.2.5-.4.5-.7 0-.3-.2-.6-.4-.7a2 2 0 0 0-1.1-.2h-1.5v-1.2h1.3l1-.2c.3-.2.4-.4.4-.7 0-.2-.1-.5-.4-.6-.3-.2-.7-.3-1.2-.3-.8 0-1.6.2-2.4.6l-.4-1.3c1-.5 2-.7 3-.7.6 0 1.1.1 1.6.3.5.1 1 .4 1.2.7.3.3.4.7.4 1 0 .4 0 .8-.3 1-.2.3-.5.5-1 .7zm6-3.7c1.2 0 2 .3 2.6.8.6.6.9 1.4.9 2.4V52H773v-1a2 2 0 0 1-1 .8c-.3.2-.8.3-1.4.3-.5 0-1-.1-1.4-.3-.4-.2-.8-.4-1-.8a2 2 0 0 1-.3-1.1c0-.7.2-1.3.7-1.7.5-.4 1.3-.6 2.4-.6h1.9c0-.6-.2-1-.5-1.3-.3-.3-.7-.4-1.4-.4a4 4 0 0 0-1.2.2 3 3 0 0 0-1 .5l-.7-1.2c.4-.3.9-.6 1.4-.7.6-.2 1.1-.3 1.8-.3zm-.2 6.4c.5 0 .8 0 1.2-.3.3-.2.6-.5.7-.8v-1h-1.8c-1 0-1.5.4-1.5 1 0 .4.1.7.4.8.2.2.6.3 1 .3zm12.1-6.3V52h-1.5v-2.3h-2L778 52h-2l1.9-2.5c-.6-.2-1-.5-1.3-.8-.3-.4-.4-1-.4-1.5 0-.8.3-1.5.9-2a4 4 0 0 1 2.5-.7h3.4zm-3.3 1.5c-1.2 0-1.7.4-1.7 1.3 0 .8.5 1.2 1.6 1.2h1.9V46h-1.8zm11.1 2.1c1 .3 1.4.9 1.4 1.8 0 .7-.3 1.2-.8 1.6-.5.3-1.2.5-2.2.5h-3.8v-7.5h3.6c1 0 1.7.2 2.2.5.5.4.8.8.8 1.5 0 .3-.1.7-.4 1a2 2 0 0 1-.8.6zm-3.7-.5h1.8c.9 0 1.3-.3 1.3-.9 0-.6-.4-.9-1.3-.9h-1.8v1.8zm2 3.1c1 0 1.4-.3 1.4-1 0-.2-.1-.5-.3-.6-.3-.2-.6-.3-1-.3h-2.1v2h2zm8-1.7H796v3h-1.7v-7.5h1.7v3h1.4l2.2-3h1.9l-2.7 3.6 2.9 3.9h-2l-2.3-3zm5.6-4.5h1.8v5l4-5h1.7V52h-1.8v-5l-4 5h-1.7v-7.5zM856.9 44.1a5 5 0 0 1-5.2-5c0-1 .1-1.8.6-2.6s1-1.4 1.9-1.8c.8-.4 1.7-.6 2.7-.6.8 0 1.5.1 2.2.4.6.3 1.2.7 1.6 1.2l-1.1 1.1a3.4 3.4 0 0 0-2.6-1.1c-.7 0-1.3.1-1.9.4-.5.3-.9.7-1.2 1.2-.3.5-.4 1.1-.4 1.8s.1 1.3.4 1.8c.3.5.7 1 1.2 1.2.6.3 1.2.4 1.9.4 1 0 1.9-.3 2.6-1.1l1.1 1.1c-.4.5-1 1-1.7 1.2-.6.3-1.3.4-2.1.4zm9.6-9.9c.9 0 1.6.1 2.2.4.7.3 1.2.7 1.5 1.2.3.5.5 1.2.5 1.9s-.2 1.3-.5 1.8c-.3.6-.8 1-1.5 1.3-.6.2-1.3.4-2.2.4h-2.2V44h-1.8v-9.8h4zm0 5.4c.7 0 1.3-.1 1.7-.5.5-.3.7-.8.7-1.4 0-.6-.2-1.1-.7-1.5-.4-.3-1-.5-1.8-.5h-2v4h2zm6-5.4h1.8v8.3h5.2V44h-7v-9.8zM988.9 44.1a5 5 0 0 1-5.2-5c0-1 .1-1.8.6-2.6s1-1.4 1.9-1.8c.8-.4 1.7-.6 2.7-.6.8 0 1.5.1 2.2.4.6.3 1.2.7 1.6 1.2l-1.1 1.1a3.4 3.4 0 0 0-2.6-1.1c-.7 0-1.3.1-1.9.4-.5.3-.9.7-1.2 1.2-.3.5-.4 1.1-.4 1.8s.1 1.3.4 1.8c.3.5.7 1 1.2 1.2.6.3 1.2.4 1.9.4 1 0 1.9-.3 2.6-1.1l1.1 1.1c-.4.5-1 1-1.7 1.2-.6.3-1.3.4-2.1.4zm9.6-9.9c.9 0 1.6.1 2.2.4.7.3 1.1.7 1.5 1.2.3.5.5 1.2.5 1.9s-.2 1.3-.5 1.8c-.4.6-.8 1-1.5 1.3-.6.2-1.3.4-2.2.4h-2.2V44h-1.8v-9.8h4zm0 5.4c.7 0 1.3-.1 1.7-.5.4-.3.7-.8.7-1.4 0-.6-.3-1.1-.7-1.5-.4-.3-1-.5-1.8-.5h-2v4h2zm10.7 4.5c-1 0-1.9-.2-2.7-.6a5 5 0 0 1-2.5-4.4 4.9 4.9 0 0 1 2.5-4.4c.8-.4 1.7-.6 2.7-.6 1 0 2 .2 2.7.6a4.8 4.8 0 0 1 2.6 4.4 5 5 0 0 1-2.6 4.4c-.8.4-1.7.6-2.7.6zm0-1.6c.7 0 1.3-.1 1.8-.4.5-.3 1-.7 1.2-1.2.3-.6.5-1.1.5-1.8s-.2-1.2-.5-1.8c-.3-.5-.7-1-1.2-1.2-.5-.3-1.1-.4-1.8-.4a3.1 3.1 0 0 0-3 1.7c-.3.5-.4 1-.4 1.7s.1 1.2.4 1.8a3.3 3.3 0 0 0 3 1.6z" fill="#246EDE" opacity=".3"/></g><defs><linearGradient id="paint0_linear" x1="424" y1="10" x2="453" y2="290" gradientUnits="userSpaceOnUse"><stop offset=".1" stop-color="#fff"/><stop offset="1" stop-color="#fff" stop-opacity=".1"/></linearGradient></defs></svg>