<svg xmlns="http://www.w3.org/2000/svg">

	<symbol id="block" viewBox="0 0 135 117">
		<path d="M43.5092 0.323959C47.4238 -0.241749 51.7009 0.100879 55.6577 0.122201L76.8491 0.204583L109.949 0.221143C116.046 0.204793 122.27 -0.0776193 128.355 0.234668C129.943 0.316079 131.401 0.531407 132.809 1.30342C133.39 1.95754 133.635 2.59181 133.837 3.42627C135.126 8.76217 134.157 23.4335 134.157 30.0256C134.153 39.2805 134.663 48.6487 134.153 57.8841C134.086 59.1386 134.081 60.4057 133.403 61.4975C133.382 61.5586 133.365 61.6226 133.34 61.6812C132.017 64.4345 102.317 84.3184 98.1795 86.1851C92.8869 88.5701 85.8751 84.7368 80.907 82.8705C80.8733 82.8174 80.8438 82.7588 80.8016 82.7104C79.8957 81.6725 77.4011 80.8361 76.0863 80.4859C66.5799 77.9525 59.842 86.6364 50.7528 86.5648C42.6243 86.5007 36.3499 79.1788 28.2593 79.9887C20.5395 80.7623 14.893 87.4016 6.64656 86.7291C4.66606 86.5677 2.66445 85.9205 1.4003 84.2842C0.806151 83.5114 0.544897 82.6379 0.456407 81.6784C-0.373719 72.6621 0.300493 61.0306 0.296279 51.6375C0.292065 44.2587 -0.403216 34.2668 0.351061 27.1501C0.452193 26.1691 0.633394 24.0074 1.25283 23.2072C2.93836 21.0278 28.1708 8.55527 32.4942 6.372C35.9622 4.61883 40.353 2.90932 43.3575 0.455812C43.4081 0.412788 43.4586 0.367909 43.5092 0.323959ZM84.9902 79.7746C87.9146 80.7893 92.7689 83.291 95.7987 81.8722C96.4813 80.8925 96.5445 79.6081 96.6246 78.4443C96.9153 74.174 96.7763 69.8202 96.7974 65.5377C96.8423 58.0598 96.8479 50.582 96.8142 43.1041C96.7932 38.8574 97.2651 32.0685 96.5361 28.1555C96.456 27.7303 96.2664 27.3406 96.0389 26.9756C78.0753 26.6558 60.0737 26.9744 42.106 26.9124L18.8245 26.8185C14.2188 26.7987 9.54988 26.6263 4.94837 26.8779C4.82617 27.0869 4.64076 27.2693 4.58177 27.5045C4.38372 28.2984 4.57336 78.789 4.75455 79.4219C5.03266 80.405 5.48773 81.3202 6.40634 81.8444C8.0076 82.7567 10.1145 82.2131 11.7537 81.6847C17.08 79.9672 22.6844 75.7436 28.2298 75.2489C36.4384 74.5166 42.127 81.3704 49.8721 81.93C61.3169 82.7571 65.5981 69.6685 82.5546 78.1118C83.3721 78.5189 84.4424 79.0325 84.9902 79.7746ZM100.421 25.7844C100.855 26.5475 101.104 27.2639 101.205 28.1315C101.774 32.9466 101.441 38.1212 101.42 42.968L101.226 69.2783C101.205 71.5028 100.539 76.7979 101.487 78.735C101.951 78.6967 101.778 78.7915 102.044 78.5458C104.981 77.3883 128.03 61.5679 128.919 59.7049C128.953 59.632 128.966 59.5511 128.991 59.4744C129.471 58.6713 129.547 57.9414 129.615 57.0232C129.952 52.3105 129.825 47.4983 129.872 42.7712C129.995 34.1775 130.002 25.5838 129.893 16.9901C129.859 14.372 130.302 10.3116 129.8 7.9055C129.674 7.3062 129.64 7.14561 129.139 6.8249L128.178 6.96197C127.065 8.98929 103.489 24.7849 100.421 25.7844ZM10.1145 22.5954L88.9302 22.6067L97.5769 22.6025C100.847 21.3872 122.329 6.75305 123.5 4.60416L69.8541 4.55309L54.2924 4.52857C51.2205 4.52385 47.9126 4.30216 44.8703 4.74942C38.9119 8.20889 32.6417 11.1771 26.5485 14.3965C21.3233 17.1566 15.7948 20.9659 10.1145 22.5954Z" />
        <path d="M76.6641 50.2601C76.8017 50.2427 76.9408 50.2288 77.0812 50.2184C77.2189 50.208 77.358 50.201 77.4984 50.1973C77.6361 50.1937 77.7751 50.1934 77.9156 50.1965C78.0561 50.1996 78.1951 50.2062 78.3328 50.2163C78.4732 50.2264 78.6123 50.2399 78.7499 50.2567C78.8876 50.2736 79.0252 50.2938 79.1629 50.3174C79.3005 50.341 79.4368 50.368 79.5716 50.3983C79.7093 50.4286 79.8441 50.4624 79.9762 50.4994C80.111 50.5365 80.2444 50.5768 80.3765 50.6204C80.5113 50.6639 80.6433 50.7107 80.7725 50.7607C80.9018 50.8107 81.031 50.8638 81.1602 50.92C81.2867 50.9764 81.4117 51.036 81.5353 51.0986C81.6617 51.161 81.7853 51.2266 81.9061 51.2954C82.0269 51.364 82.1463 51.4355 82.2643 51.5099C82.3822 51.5844 82.4988 51.6616 82.614 51.7417C82.7264 51.822 82.8373 51.905 82.9469 51.9907C83.0565 52.0764 83.1646 52.1647 83.2714 52.2558C83.3781 52.3468 83.4821 52.4402 83.5832 52.536C83.6815 52.6321 83.7798 52.7307 83.8781 52.8318C83.9737 52.9326 84.0664 53.0357 84.1563 53.1411C84.249 53.2467 84.3375 53.3545 84.4217 53.4643C84.5088 53.5741 84.5917 53.6861 84.6703 53.8001C84.7518 53.9139 84.8305 54.0298 84.9063 54.1478C84.9794 54.2655 85.051 54.385 85.1213 54.5064C85.1887 54.6274 85.2533 54.7502 85.3151 54.8747C85.3797 54.9994 85.4401 55.1254 85.4963 55.2526C85.5525 55.3802 85.6059 55.509 85.6564 55.6391C85.707 55.7691 85.7533 55.9003 85.7955 56.0326C85.8404 56.1649 85.8812 56.2984 85.9177 56.4329C85.9542 56.5672 85.9879 56.7023 86.0188 56.8383C86.0497 56.9746 86.0764 57.1112 86.0988 57.2483C86.1241 57.3857 86.1452 57.5236 86.1621 57.6621C86.1789 57.8003 86.193 57.939 86.2042 58.078C86.2126 58.2171 86.2197 58.3563 86.2253 58.4956C86.2281 58.6349 86.2281 58.7743 86.2253 58.9136C86.2197 59.053 86.2126 59.1922 86.2042 59.3312C86.193 59.47 86.1789 59.6086 86.1621 59.7471C86.1452 59.8853 86.1241 60.0231 86.0988 60.1605C86.0764 60.2979 86.0497 60.4345 86.0188 60.5705C85.9879 60.7065 85.9542 60.8416 85.9177 60.9759C85.8783 61.1102 85.8376 61.2435 85.7955 61.3758C85.7505 61.5081 85.7028 61.6393 85.6522 61.7693C85.6016 61.8991 85.5483 62.0278 85.4921 62.1553C85.4359 62.2826 85.3769 62.4084 85.3151 62.5329C85.2505 62.6573 85.1845 62.7802 85.117 62.9016C85.0496 63.0227 84.978 63.1421 84.9021 63.2598C84.8263 63.3775 84.749 63.4932 84.6703 63.607C84.5889 63.721 84.506 63.8329 84.4217 63.9424C84.3347 64.0523 84.2462 64.1598 84.1563 64.2652C84.0636 64.3708 83.9695 64.4741 83.874 64.5749C83.7785 64.6758 83.6801 64.7741 83.579 64.8699C83.4778 64.966 83.3739 65.0594 83.2672 65.1501C83.1632 65.2411 83.0551 65.3295 82.9427 65.4152C82.8331 65.5006 82.7222 65.5834 82.6098 65.6638C82.4946 65.7438 82.378 65.8211 82.26 65.8955C82.1421 65.9697 82.0227 66.041 81.9019 66.1096C81.7811 66.1781 81.6575 66.2437 81.5311 66.3064C81.4075 66.3687 81.2824 66.428 81.156 66.4842C81.0268 66.5407 80.8976 66.5938 80.7683 66.6435C80.6391 66.6935 80.5085 66.7403 80.3765 66.7838C80.2416 66.8273 80.1082 66.8675 79.9762 66.9043C79.8413 66.9414 79.705 66.9751 79.5674 67.0055C79.4326 67.0355 79.2963 67.0623 79.1587 67.0859C79.021 67.1095 78.8834 67.1298 78.7457 67.1466C78.6081 67.1635 78.469 67.1768 78.3286 67.1866C78.1909 67.1968 78.0533 67.2034 77.9156 67.2065C77.7751 67.2098 77.6361 67.2097 77.4984 67.206C77.358 67.2024 77.2189 67.1954 77.0812 67.185C76.9408 67.1746 76.8017 67.1607 76.6641 67.1432C76.5264 67.1261 76.3888 67.1056 76.2511 67.0817C76.1163 67.0576 75.98 67.0302 75.8424 66.9995C75.7075 66.9689 75.5727 66.9349 75.4379 66.8976C75.3058 66.8605 75.1738 66.82 75.0417 66.7762C74.9097 66.7324 74.7791 66.6853 74.6499 66.6351C74.5178 66.5848 74.3886 66.5314 74.2622 66.4749C74.1358 66.4185 74.0108 66.3589 73.8872 66.2963C73.7635 66.2336 73.6413 66.1679 73.5205 66.0991C73.3969 66.0305 73.2776 65.9589 73.1624 65.8842C73.0444 65.8097 72.9278 65.7325 72.8127 65.6524C72.7003 65.572 72.5893 65.489 72.4797 65.4034C72.3702 65.3177 72.2634 65.2293 72.1595 65.1383C72.0527 65.0476 71.9488 64.9542 71.8477 64.8581C71.7465 64.762 71.6482 64.6635 71.5527 64.5627C71.4572 64.4618 71.3645 64.3587 71.2746 64.2534C71.1847 64.148 71.0962 64.0405 71.0091 63.9306C70.9248 63.8211 70.8419 63.7094 70.7605 63.5956C70.6818 63.4818 70.6046 63.3661 70.5287 63.2484C70.4557 63.131 70.3855 63.0117 70.318 62.8906C70.2478 62.7696 70.1818 62.6468 70.12 62.5223C70.0582 62.3982 69.9992 62.2725 69.943 62.1452C69.8868 62.0182 69.8334 61.8897 69.7829 61.7596C69.7323 61.6299 69.6846 61.499 69.6396 61.3669C69.5975 61.2349 69.5581 61.1019 69.5216 60.9679C69.4851 60.8339 69.4514 60.6989 69.4205 60.5629C69.3896 60.4272 69.3615 60.2908 69.3362 60.1538C69.3138 60.0167 69.2941 59.8792 69.2772 59.7412C69.2604 59.6033 69.2463 59.4649 69.2351 59.3262C69.2266 59.1874 69.2196 59.0485 69.214 58.9094C69.2112 58.7704 69.2112 58.6314 69.214 58.4927C69.2196 58.3536 69.2266 58.2147 69.2351 58.0759C69.2463 57.9371 69.2604 57.7988 69.2772 57.6609C69.2941 57.5229 69.3151 57.3854 69.3404 57.2483C69.3629 57.1112 69.3896 56.9748 69.4205 56.8391C69.4514 56.7035 69.4851 56.5686 69.5216 56.4346C69.5581 56.3006 69.5989 56.1676 69.6438 56.0356C69.686 55.9035 69.7323 55.7726 69.7829 55.6428C69.8334 55.5131 69.8868 55.3845 69.943 55.2573C69.9992 55.13 70.0582 55.0043 70.12 54.8801C70.1818 54.756 70.2478 54.6334 70.318 54.5123C70.3855 54.3912 70.4557 54.2719 70.5287 54.1545C70.6046 54.0368 70.6818 53.9211 70.7605 53.8073C70.8419 53.6938 70.9248 53.5821 71.0091 53.4723C71.0962 53.3627 71.1847 53.2553 71.2746 53.1499C71.3645 53.0443 71.4572 52.9412 71.5527 52.8406C71.6482 52.7398 71.7465 52.6413 71.8477 52.5453C71.9488 52.4495 72.0513 52.3561 72.1553 52.265C72.262 52.174 72.3702 52.0857 72.4797 52C72.5893 51.9143 72.7003 51.8314 72.8127 51.7514C72.9278 51.671 73.0444 51.5936 73.1624 51.5192C73.2776 51.4447 73.3955 51.3731 73.5163 51.3043C73.6371 51.2357 73.7607 51.1701 73.8872 51.1075C74.0108 51.0448 74.1358 50.9852 74.2622 50.9284C74.3886 50.8719 74.5164 50.8186 74.6457 50.7683C74.7777 50.7183 74.9083 50.6714 75.0375 50.6275C75.1696 50.5837 75.303 50.5431 75.4379 50.5058C75.5727 50.4684 75.7075 50.4344 75.8424 50.4038C75.9772 50.3732 76.1135 50.3459 76.2511 50.322C76.3888 50.2979 76.5264 50.2772 76.6641 50.2601ZM79.0491 62.4187C79.1081 62.3962 79.1671 62.3723 79.2261 62.3471C79.2851 62.3218 79.3441 62.2951 79.403 62.267C79.4592 62.2389 79.5154 62.2094 79.5716 62.1785C79.6278 62.1476 79.684 62.1153 79.7402 62.0816C79.7936 62.0479 79.8469 62.0129 79.9003 61.9767C79.9537 61.9404 80.0056 61.9029 80.0562 61.8642C80.1068 61.8254 80.1559 61.7853 80.2037 61.7441C80.2543 61.7028 80.302 61.6603 80.3469 61.6168C80.3947 61.5733 80.4411 61.5286 80.486 61.4828C80.531 61.437 80.5745 61.3901 80.6166 61.3421C80.6588 61.294 80.7009 61.2451 80.7431 61.1954C80.7824 61.1454 80.8203 61.0944 80.8569 61.0425C80.8962 60.9905 80.9327 60.9377 80.9664 60.884C81.0001 60.8304 81.0338 60.776 81.0675 60.7209C81.0984 60.6656 81.1293 60.6096 81.1602 60.5528C81.1911 60.4958 81.2192 60.4382 81.2445 60.38C81.2726 60.3219 81.2979 60.2632 81.3204 60.2039C81.3456 60.1443 81.3681 60.0844 81.3878 60.024C81.4103 59.9633 81.4299 59.9022 81.4468 59.8407C81.4637 59.7794 81.4805 59.7176 81.4974 59.6553C81.5114 59.5929 81.524 59.5302 81.5353 59.4673C81.5493 59.4044 81.5605 59.3412 81.569 59.2777C81.5774 59.2142 81.5844 59.1506 81.5901 59.0868C81.5957 59.023 81.5999 58.9591 81.6027 58.8951C81.6055 58.831 81.6069 58.767 81.6069 58.7029C81.6041 58.6389 81.6013 58.575 81.5985 58.5112C81.5957 58.4472 81.59 58.3832 81.5816 58.3195C81.576 58.256 81.5676 58.1925 81.5564 58.129C81.5479 58.0658 81.5367 58.0029 81.5226 57.9402C81.5114 57.8773 81.4973 57.8148 81.4805 57.7527C81.4636 57.6909 81.4468 57.6294 81.4299 57.5681C81.4103 57.5069 81.3892 57.4462 81.3667 57.3861C81.3442 57.326 81.3203 57.2664 81.2951 57.2074C81.2698 57.1484 81.2445 57.09 81.2192 57.0321C81.1911 56.9746 81.1617 56.9175 81.1308 56.8611C81.0999 56.8049 81.0675 56.7494 81.0338 56.6946C81.0001 56.6398 80.9664 56.5859 80.9327 56.5328C80.8962 56.4797 80.8583 56.4276 80.8189 56.3765C80.7796 56.3253 80.7403 56.2751 80.7009 56.2256C80.6588 56.1765 80.6166 56.1281 80.5745 56.0807C80.5324 56.0335 80.4874 55.9874 80.4397 55.9424C80.3947 55.8972 80.3484 55.8533 80.3006 55.8106C80.2528 55.7679 80.2051 55.7263 80.1573 55.6858C80.1068 55.6454 80.0562 55.6062 80.0057 55.5683C79.9523 55.5303 79.8989 55.4937 79.8455 55.4583C79.7921 55.4229 79.7388 55.3888 79.6854 55.3559C79.6292 55.3233 79.573 55.292 79.5168 55.2619C79.4606 55.2319 79.4031 55.2032 79.3441 55.176C79.2851 55.149 79.2261 55.1233 79.1671 55.0988C79.1081 55.0744 79.0491 55.0515 78.9901 55.0301C78.9283 55.0088 78.8665 54.9889 78.8047 54.9703C78.7457 54.9518 78.6839 54.9349 78.6193 54.9197C78.5575 54.9043 78.4957 54.8904 78.4339 54.878C78.3721 54.8657 78.3089 54.8549 78.2442 54.8456C78.1824 54.836 78.1193 54.8283 78.0546 54.8224C77.99 54.8162 77.9254 54.8116 77.8608 54.8085C77.799 54.8054 77.7358 54.8039 77.6712 54.8039C77.6066 54.8039 77.542 54.8056 77.4773 54.8089C77.4155 54.812 77.3524 54.8168 77.2877 54.8233C77.2231 54.8294 77.1599 54.8373 77.0981 54.8468C77.0335 54.8561 76.9703 54.8671 76.9085 54.8797C76.8439 54.8921 76.7806 54.9061 76.7188 54.9219C76.657 54.9373 76.5953 54.9543 76.5335 54.9728C76.4717 54.9914 76.4112 55.0115 76.3522 55.0331C76.2904 55.0547 76.2301 55.078 76.1711 55.1031C76.1121 55.1278 76.0531 55.1539 75.9941 55.1814C75.9351 55.209 75.8775 55.238 75.8213 55.2687C75.7651 55.299 75.709 55.3309 75.6528 55.3643C75.5966 55.3975 75.5418 55.432 75.4884 55.468C75.4351 55.5039 75.3831 55.5413 75.3325 55.5801C75.2791 55.6185 75.2272 55.6583 75.1766 55.6993C75.1289 55.7403 75.0811 55.7826 75.0333 55.8261C74.9855 55.8697 74.9378 55.9144 74.89 55.9601C74.8451 56.0059 74.8016 56.0527 74.7594 56.1005C74.7145 56.1485 74.6723 56.1975 74.633 56.2475C74.5909 56.2975 74.5515 56.3485 74.515 56.4005C74.4757 56.4527 74.4377 56.5057 74.4012 56.5594C74.3647 56.6133 74.331 56.6679 74.3001 56.7233C74.2664 56.7789 74.2341 56.8352 74.2032 56.8922C74.1723 56.9493 74.1442 57.0071 74.1189 57.0659C74.0908 57.1243 74.0641 57.1834 74.0388 57.2433C74.0136 57.3031 73.9911 57.3634 73.9715 57.424C73.949 57.485 73.9279 57.5465 73.9082 57.6086C73.8914 57.6704 73.8745 57.7326 73.8577 57.7953C73.8436 57.8582 73.8295 57.9214 73.8155 57.9849C73.8043 58.0481 73.7945 58.1117 73.786 58.1758C73.7776 58.2398 73.7692 58.304 73.7608 58.3684C73.7551 58.4327 73.7509 58.4972 73.7481 58.5618C73.7453 58.6264 73.7439 58.691 73.7439 58.7556C73.7439 58.8202 73.7467 58.8847 73.7523 58.949C73.7551 59.0136 73.7593 59.0781 73.7649 59.1424C73.7734 59.2068 73.7818 59.2708 73.7902 59.3346C73.8015 59.3984 73.8127 59.462 73.8239 59.5255C73.838 59.5887 73.8534 59.6516 73.8703 59.7143C73.8843 59.7769 73.9012 59.839 73.9208 59.9005C73.9405 59.9623 73.9616 60.0235 73.9841 60.0842C74.0065 60.1449 74.0304 60.205 74.0557 60.2646C74.081 60.3241 74.1077 60.383 74.1358 60.4411C74.1638 60.4993 74.1934 60.5567 74.2243 60.6135C74.2552 60.6702 74.2875 60.7263 74.3212 60.7816C74.3549 60.8367 74.39 60.8909 74.4265 60.9443C74.4631 60.9976 74.4996 61.0502 74.5361 61.1019C74.5754 61.1536 74.6161 61.2041 74.6583 61.2536C74.7004 61.3033 74.7426 61.3519 74.7847 61.3994C74.8296 61.4468 74.8746 61.4932 74.9196 61.5384C74.9673 61.5839 75.0151 61.6282 75.0628 61.6712C75.1106 61.7141 75.1597 61.7559 75.2103 61.7963C75.2609 61.8368 75.3114 61.8759 75.362 61.9139C75.4154 61.9521 75.4687 61.9889 75.5221 62.0243C75.5755 62.0597 75.6303 62.0937 75.6865 62.1263C75.7427 62.1588 75.7988 62.1902 75.855 62.2202C75.914 62.25 75.973 62.2785 76.032 62.3058C76.091 62.3327 76.15 62.3583 76.209 62.3825C76.268 62.4066 76.3284 62.4292 76.3902 62.4503C76.452 62.4714 76.5138 62.4909 76.5756 62.5089C76.6374 62.5271 76.6992 62.5437 76.761 62.5586C76.8256 62.5738 76.8888 62.5872 76.9506 62.599C77.0152 62.6111 77.0798 62.6215 77.1444 62.6302C77.2062 62.6389 77.2695 62.6461 77.3341 62.6517C77.3987 62.6573 77.4633 62.6613 77.5279 62.6635C77.5925 62.666 77.6571 62.6669 77.7217 62.666C77.7863 62.6655 77.851 62.6631 77.9156 62.6589C77.9802 62.6549 78.0448 62.6495 78.1094 62.6424C78.174 62.6354 78.2372 62.6267 78.299 62.6163C78.3636 62.6062 78.4283 62.5944 78.4929 62.5809C78.5547 62.5674 78.6165 62.5524 78.6783 62.5358C78.7429 62.5195 78.8061 62.5016 78.8679 62.4819C78.9269 62.4622 78.9873 62.4412 79.0491 62.4187Z" />
        <path d="M53.7318 32.8539C53.8301 32.8346 53.9284 32.8174 54.0268 32.8025C54.1251 32.7877 54.2234 32.7751 54.3218 32.765C54.4201 32.7549 54.5184 32.7472 54.6167 32.7419C54.715 32.7365 54.8148 32.7336 54.9159 32.733C55.0142 32.7324 55.1126 32.7343 55.2109 32.7385C55.312 32.7427 55.4117 32.7493 55.51 32.7583C55.6084 32.7673 55.7067 32.7785 55.805 32.792C55.9033 32.8058 56.0017 32.8218 56.1 32.84C56.1955 32.8583 56.2924 32.8789 56.3907 32.902C56.4862 32.925 56.5818 32.9503 56.6773 32.9778C56.7728 33.0056 56.8683 33.0356 56.9638 33.0676C57.0565 33.0999 57.1492 33.1343 57.2419 33.1708C57.3346 33.2073 57.4259 33.2461 57.5158 33.2871C57.6057 33.3281 57.6942 33.3713 57.7813 33.4165C57.8712 33.4617 57.9597 33.5091 58.0468 33.5585C58.1311 33.6079 58.2153 33.6595 58.2996 33.7131C58.3839 33.7665 58.4667 33.822 58.5482 33.8796C58.6269 33.9372 58.7055 33.9966 58.7842 34.0578C58.8629 34.1191 58.9401 34.1821 59.0159 34.247C59.089 34.3119 59.162 34.3787 59.2351 34.4472C59.3081 34.5157 59.3783 34.586 59.4458 34.6579C59.5132 34.7295 59.5792 34.8029 59.6438 34.8779C59.7113 34.9531 59.7745 35.0298 59.8334 35.1079C59.8953 35.1857 59.9556 35.2652 60.0146 35.3464C60.0708 35.4273 60.1256 35.5095 60.179 35.5929C60.2323 35.6767 60.2843 35.7615 60.3349 35.8475C60.3854 35.9334 60.4332 36.0206 60.4782 36.1091C60.5231 36.1973 60.5652 36.2867 60.6046 36.3771C60.6467 36.4676 60.686 36.5589 60.7226 36.651C60.7591 36.7435 60.7942 36.8366 60.8279 36.9304C60.8588 37.0242 60.8883 37.1189 60.9164 37.2144C60.9445 37.3097 60.9698 37.4056 60.9923 37.5022C61.0147 37.5989 61.0358 37.6959 61.0555 37.7934C61.0723 37.8912 61.0878 37.9892 61.1018 38.0875C61.1159 38.1859 61.1271 38.2845 61.1355 38.3833C61.1439 38.4822 61.151 38.5813 61.1566 38.6804C61.1594 38.7796 61.1608 38.8789 61.1608 38.9783C61.1608 39.0775 61.158 39.1767 61.1524 39.2758C61.1468 39.375 61.1397 39.474 61.1313 39.5729C61.1201 39.6715 61.1074 39.77 61.0934 39.8683C61.0793 39.9663 61.0625 40.0641 61.0428 40.1616C61.0232 40.2591 61.0007 40.356 60.9754 40.4523C60.9529 40.5484 60.9277 40.6441 60.8996 40.7393C60.8687 40.8343 60.8364 40.9285 60.8027 41.022C60.7718 41.1159 60.7366 41.2087 60.6973 41.3006C60.6608 41.3924 60.6214 41.4833 60.5793 41.5732C60.5372 41.6631 60.4936 41.752 60.4487 41.84C60.4009 41.9279 60.3517 42.0145 60.3012 42.0999C60.2506 42.1856 60.1986 42.2699 60.1453 42.3528C60.0891 42.4359 60.0329 42.5177 59.9767 42.598C59.9177 42.6784 59.8573 42.7572 59.7955 42.8344C59.7337 42.912 59.6691 42.9879 59.6017 43.0624C59.5371 43.1365 59.4696 43.2093 59.3994 43.2807C59.3292 43.3517 59.2589 43.4211 59.1887 43.4888C59.1157 43.5565 59.0412 43.6224 58.9654 43.6865C58.8895 43.7508 58.8123 43.8132 58.7336 43.8736C58.655 43.9339 58.5749 43.9925 58.4934 44.0493C58.412 44.1057 58.3291 44.1602 58.2448 44.2128C58.1605 44.2656 58.0749 44.3163 57.9878 44.3649C57.9007 44.4132 57.8122 44.4596 57.7223 44.5039C57.6352 44.5483 57.5453 44.5906 57.4526 44.6308C57.3627 44.6707 57.2714 44.7085 57.1787 44.7441C57.086 44.7798 56.9933 44.8132 56.9006 44.8444C56.8051 44.8753 56.7096 44.9041 56.6141 44.9308C56.4792 44.9679 56.3444 45.0006 56.2096 45.029C56.0747 45.0571 55.9384 45.0807 55.8008 45.0998C55.6631 45.1186 55.5255 45.1329 55.3878 45.1428C55.2474 45.1526 55.1083 45.1576 54.9707 45.1579C54.833 45.1585 54.694 45.1544 54.5535 45.1457C54.4158 45.1367 54.2782 45.1232 54.1406 45.1053C54.0029 45.0873 53.8667 45.0647 53.7318 45.0374C53.5942 45.0102 53.4579 44.9783 53.3231 44.9418C53.1911 44.9055 53.059 44.8648 52.927 44.8196C52.7949 44.7743 52.6657 44.7249 52.5393 44.6712C52.41 44.6173 52.2837 44.5591 52.1601 44.4968C52.0365 44.4344 51.9156 44.3681 51.7976 44.2979C51.6768 44.2274 51.5589 44.1529 51.4437 44.0746C51.3285 43.9962 51.2176 43.9141 51.1108 43.8285C51.0013 43.7425 50.8945 43.653 50.7906 43.56C50.6866 43.4673 50.5869 43.3711 50.4914 43.2714C50.3958 43.1719 50.3032 43.0693 50.2133 42.9634C50.1234 42.8575 50.0363 42.7487 49.952 42.6372C49.8706 42.5257 49.7919 42.4115 49.716 42.2946C49.643 42.1778 49.5728 42.0585 49.5053 41.9369C49.4379 41.8152 49.3747 41.6915 49.3157 41.5656C49.2567 41.4398 49.2034 41.3122 49.1556 41.183C49.105 41.0535 49.0586 40.9225 49.0165 40.7899C48.9772 40.6576 48.9407 40.5238 48.9069 40.3887C48.876 40.2539 48.848 40.118 48.8227 39.9812C48.8002 39.8444 48.782 39.7069 48.7679 39.5687C48.7539 39.4308 48.7441 39.2924 48.7384 39.1536C48.7356 39.0149 48.7356 38.8762 48.7384 38.7377C48.7441 38.599 48.7539 38.4605 48.7679 38.3222C48.782 38.1843 48.8002 38.0469 48.8227 37.9101C48.8452 37.7733 48.8732 37.6374 48.9069 37.5022C48.9378 37.3674 48.9744 37.2337 49.0165 37.1011C49.0586 36.9685 49.1036 36.8374 49.1514 36.7079C49.2019 36.5784 49.2567 36.4507 49.3157 36.3249C49.3747 36.199 49.4379 36.0753 49.5053 35.9536C49.5728 35.832 49.643 35.7128 49.716 35.5959C49.7919 35.4787 49.8706 35.3644 49.952 35.2529C50.0363 35.1414 50.1234 35.0326 50.2133 34.9267C50.3032 34.8208 50.3958 34.7182 50.4914 34.6187C50.5869 34.519 50.6866 34.4226 50.7906 34.3296C50.8945 34.2369 51.0013 34.1476 51.1108 34.0616C51.2204 33.976 51.3313 33.8939 51.4437 33.8155C51.5589 33.7374 51.6768 33.6631 51.7976 33.5926C51.9156 33.5221 52.0365 33.4557 52.1601 33.3933C52.2865 33.3312 52.4129 33.2732 52.5393 33.2193C52.6685 33.1656 52.7977 33.1162 52.927 33.071C53.059 33.026 53.1924 32.9854 53.3273 32.9492C53.4621 32.9129 53.597 32.8812 53.7318 32.8539Z" />
        <path d="M32.077 42.9879C32.1584 42.9787 32.2399 42.9715 32.3214 42.9664C32.4056 42.9611 32.4885 42.9579 32.57 42.9568C32.6515 42.9554 32.7329 42.9561 32.8144 42.9589C32.8987 42.9614 32.9815 42.966 33.063 42.9728C33.1445 42.9792 33.226 42.9878 33.3074 42.9985C33.3889 43.0091 33.4704 43.0217 33.5518 43.036C33.6333 43.0506 33.7133 43.067 33.792 43.0853C33.8735 43.1035 33.9535 43.1238 34.0322 43.146C34.1109 43.1682 34.1895 43.1923 34.2682 43.2184C34.3468 43.2443 34.4241 43.2721 34.4999 43.3019C34.5786 43.3316 34.6545 43.3632 34.7275 43.3967C34.8033 43.4301 34.8778 43.4652 34.9508 43.502C35.0266 43.5391 35.0997 43.5779 35.1699 43.6183C35.243 43.6585 35.3132 43.7006 35.3806 43.7447C35.4508 43.7886 35.5197 43.8339 35.5871 43.8808C35.6545 43.928 35.7205 43.9768 35.7851 44.0271C35.8525 44.0774 35.9172 44.1293 35.979 44.183C36.0408 44.2364 36.1012 44.2911 36.1602 44.3473C36.222 44.4038 36.281 44.4615 36.3372 44.5205C36.3962 44.5798 36.4523 44.6403 36.5057 44.7021C36.5591 44.7639 36.6111 44.8271 36.6616 44.8917C36.715 44.9561 36.7656 45.0217 36.8133 45.0885C36.8611 45.1551 36.9074 45.223 36.9524 45.2921C36.9973 45.3612 37.0409 45.4313 37.083 45.5023C37.1223 45.5734 37.1617 45.6455 37.201 45.7185C37.2375 45.7915 37.2741 45.8654 37.3106 45.9402C37.3443 46.0149 37.3766 46.0904 37.4075 46.1669C37.4384 46.243 37.4679 46.32 37.496 46.3978C37.5212 46.4756 37.5451 46.5538 37.5676 46.6325C37.5929 46.7114 37.6153 46.7909 37.635 46.871C37.6547 46.9511 37.6715 47.0314 37.6856 47.112C37.7024 47.1929 37.7165 47.2741 37.7277 47.3556C37.739 47.437 37.7488 47.5188 37.7572 47.6008C37.7656 47.6826 37.7713 47.7646 37.7741 47.8469C37.7797 47.9289 37.7825 48.0111 37.7825 48.0934C37.7797 48.1757 37.7769 48.258 37.7741 48.3404C37.7713 48.4224 37.7656 48.5044 37.7572 48.5864C37.7488 48.6685 37.739 48.7502 37.7277 48.8317C37.7137 48.9129 37.6996 48.9939 37.6856 49.0748C37.6687 49.1554 37.6505 49.2358 37.6308 49.3159C37.6111 49.3956 37.5901 49.475 37.5676 49.5539C37.5423 49.6329 37.517 49.7111 37.4917 49.7886C37.4637 49.8665 37.4342 49.9434 37.4033 50.0196C37.3724 50.0957 37.3401 50.1711 37.3064 50.2459C37.2698 50.3206 37.2333 50.3945 37.1968 50.4675C37.1575 50.5403 37.1167 50.6122 37.0746 50.6832C37.0353 50.7543 36.9931 50.8243 36.9481 50.8931C36.9032 50.9622 36.8555 51.03 36.8049 51.0966C36.7571 51.1632 36.708 51.2287 36.6574 51.293C36.6069 51.3573 36.5535 51.4204 36.4973 51.4822C36.4439 51.544 36.3891 51.6044 36.3329 51.6634C36.2739 51.7224 36.2149 51.78 36.1559 51.8362C36.0941 51.8923 36.0324 51.9471 35.9706 52.0005C35.9088 52.0539 35.8456 52.1056 35.781 52.1556C35.7135 52.2058 35.6461 52.2544 35.5786 52.3014C35.5112 52.3486 35.4438 52.3939 35.3764 52.4375C35.3062 52.4813 35.2345 52.5233 35.1615 52.5635C35.0913 52.6039 35.0182 52.6425 34.9424 52.6793C34.8693 52.7161 34.7949 52.7511 34.7191 52.7843C34.646 52.8177 34.5702 52.8492 34.4915 52.8787C34.4156 52.9082 34.3384 52.9358 34.2597 52.9617C34.1811 52.9875 34.1024 53.0115 34.0238 53.0337C33.9451 53.0556 33.865 53.0757 33.7836 53.094C33.7049 53.1122 33.6249 53.1285 33.5434 53.1429C33.431 53.1628 33.3173 53.179 33.2021 53.1913C33.0897 53.2037 32.9759 53.2123 32.8607 53.217C32.7484 53.2215 32.6346 53.2224 32.5194 53.2196C32.4042 53.2167 32.2905 53.21 32.1781 53.1993C32.0629 53.1889 31.9491 53.1747 31.8368 53.1568C31.7244 53.1385 31.6121 53.1166 31.4997 53.091C31.3901 53.0655 31.2806 53.0363 31.171 53.0034C31.0614 52.9705 30.9533 52.934 30.8465 52.8938C30.7398 52.8534 30.6344 52.8096 30.5305 52.7624C30.4265 52.7152 30.324 52.6646 30.2229 52.6107C30.1217 52.5564 30.0234 52.499 29.9279 52.4383C29.8296 52.3776 29.7341 52.3139 29.6414 52.247C29.5487 52.1799 29.4588 52.1098 29.3717 52.0367C29.2846 51.9637 29.1989 51.8878 29.1146 51.8092C29.0332 51.7305 28.9531 51.6491 28.8745 51.5648C28.7958 51.4808 28.7214 51.3943 28.6511 51.3052C28.5809 51.2162 28.5121 51.1249 28.4447 51.0313C28.38 50.9378 28.3182 50.842 28.2592 50.7439C28.2002 50.6462 28.1441 50.5466 28.0907 50.4452C28.0373 50.3438 27.9881 50.2407 27.9432 50.1359C27.8982 50.0311 27.8561 49.9249 27.8168 49.8173C27.7803 49.7097 27.7466 49.601 27.7157 49.4912C27.682 49.381 27.6538 49.2702 27.6314 49.1587C27.6061 49.0469 27.5864 48.9344 27.5724 48.8211C27.5555 48.7082 27.5429 48.5947 27.5344 48.4807C27.526 48.3666 27.5204 48.2526 27.5176 48.1385C27.5176 48.0242 27.5204 47.91 27.526 47.7959C27.5316 47.6819 27.5415 47.5681 27.5555 47.4546C27.5696 47.3414 27.5878 47.2286 27.6103 47.1162C27.6328 47.0041 27.658 46.8929 27.6861 46.7825C27.717 46.6718 27.7507 46.5624 27.7873 46.4542C27.821 46.3458 27.8603 46.2388 27.9053 46.1331C27.9474 46.0275 27.9937 45.9234 28.0443 45.8209C28.0949 45.7184 28.1497 45.6177 28.2087 45.5188C28.2648 45.4199 28.3253 45.323 28.3899 45.228C28.4517 45.1333 28.5177 45.0408 28.5879 44.9503C28.6581 44.8599 28.7312 44.7718 28.807 44.6861C28.8829 44.6007 28.9615 44.5178 29.043 44.4375C29.1245 44.3572 29.2088 44.2796 29.2959 44.2049C29.3801 44.1302 29.4686 44.0585 29.5613 43.99C29.6512 43.9212 29.7439 43.8554 29.8394 43.7928C29.9349 43.7304 30.0333 43.6711 30.1344 43.615C30.2327 43.5591 30.3338 43.5064 30.4378 43.4569C30.5417 43.4078 30.6457 43.3621 30.7496 43.32C30.8564 43.2776 30.9645 43.2388 31.0741 43.2037C31.1836 43.1686 31.2932 43.1372 31.4028 43.1097C31.5151 43.0819 31.6275 43.0579 31.7399 43.0377C31.8522 43.0172 31.9646 43.0006 32.077 42.9879Z" />
        <path d="M50.3477 63.1818C50.4011 63.165 50.4545 63.1495 50.5078 63.1355C50.5612 63.1211 50.6146 63.1082 50.668 63.0967C50.7241 63.0852 50.7789 63.0749 50.8323 63.0659C50.8885 63.0572 50.9433 63.0498 50.9966 63.0436C51.0528 63.0371 51.109 63.0322 51.1652 63.0289C51.2185 63.0252 51.2733 63.023 51.3295 63.0221C51.3857 63.0213 51.4419 63.0218 51.4981 63.0238C51.5514 63.0255 51.6062 63.0286 51.6624 63.0331C51.7186 63.0378 51.7734 63.0437 51.8268 63.0508C51.8829 63.0581 51.9377 63.0666 51.9911 63.0765C52.0473 63.0863 52.1021 63.0975 52.1555 63.1102C52.2088 63.1228 52.2622 63.1367 52.3156 63.1519C52.369 63.1671 52.4223 63.1835 52.4757 63.2012C52.5291 63.2189 52.5811 63.2379 52.6316 63.2581C52.6822 63.2783 52.7327 63.2998 52.7833 63.3226C52.8339 63.3453 52.8844 63.3692 52.935 63.3942C52.9856 63.4195 53.0347 63.4459 53.0825 63.4734C53.1302 63.5009 53.178 63.5297 53.2257 63.5598C53.2707 63.5896 53.3157 63.6205 53.3606 63.6525C53.4056 63.6845 53.4505 63.7177 53.4954 63.7519C53.5376 63.7862 53.5797 63.8216 53.6219 63.8581C53.664 63.8944 53.7061 63.9317 53.7482 63.9702C53.7876 64.0084 53.8255 64.0476 53.862 64.0878C53.9014 64.1282 53.9393 64.1694 53.9758 64.2113C54.0123 64.2534 54.0474 64.2964 54.0812 64.3402C54.1149 64.384 54.1486 64.4285 54.1823 64.4738C54.2132 64.5193 54.2427 64.5654 54.2708 64.612C54.3017 64.6589 54.3312 64.7065 54.3593 64.7548C54.3874 64.8032 54.4126 64.852 54.4351 64.9015C54.4604 64.9509 54.4843 65.0011 54.5068 65.0519C54.5292 65.1025 54.5517 65.1536 54.5742 65.2053C54.5939 65.2573 54.6121 65.3095 54.629 65.3621C54.6458 65.4146 54.6627 65.4677 54.6795 65.5213C54.6936 65.5747 54.7062 65.6284 54.7174 65.6823C54.7315 65.7365 54.7427 65.7909 54.7511 65.8454C54.7624 65.9002 54.7708 65.9551 54.7764 66.0101C54.7849 66.0652 54.7905 66.1204 54.7933 66.1757C54.7989 66.2311 54.8017 66.2864 54.8017 66.3418C54.8045 66.3971 54.8059 66.4526 54.8059 66.5082C54.8031 66.5636 54.8003 66.619 54.7975 66.6747C54.7947 66.73 54.7891 66.7852 54.7807 66.8403C54.775 66.8953 54.768 66.9502 54.7596 67.005C54.7511 67.0598 54.7399 67.1143 54.7259 67.1685C54.7146 67.2227 54.702 67.2767 54.688 67.3303C54.6739 67.384 54.6584 67.4372 54.6416 67.49C54.6247 67.5429 54.6065 67.5952 54.5868 67.6472C54.5672 67.6992 54.5461 67.7506 54.5236 67.8014C54.5012 67.8523 54.4787 67.9027 54.4562 67.9527C54.4309 68.0024 54.4042 68.0516 54.3762 68.1002C54.3509 68.1488 54.3242 68.1967 54.2961 68.2439C54.2652 68.2911 54.2343 68.3376 54.2034 68.3834C54.1725 68.4292 54.1402 68.4741 54.1065 68.5182C54.0727 68.5623 54.0376 68.6056 54.0011 68.648C53.9646 68.6907 53.9281 68.7323 53.8916 68.7727C53.855 68.8135 53.8171 68.8532 53.7778 68.892C53.7356 68.931 53.6949 68.969 53.6556 69.0058C53.6134 69.0426 53.5699 69.0784 53.5249 69.1132C53.4828 69.1478 53.4392 69.1815 53.3943 69.2143C53.3493 69.2469 53.3044 69.2784 53.2595 69.3087C53.2117 69.3391 53.1639 69.3683 53.1162 69.3964C53.0684 69.4245 53.0207 69.4514 52.9729 69.4773C52.9223 69.5031 52.8718 69.5277 52.8212 69.551C52.7707 69.5743 52.7201 69.5964 52.6695 69.6172C52.619 69.6383 52.567 69.6579 52.5136 69.6762C52.4434 69.7012 52.3717 69.7238 52.2987 69.744C52.2257 69.7642 52.1526 69.7821 52.0796 69.7975C52.0037 69.813 51.9293 69.8259 51.8562 69.8363C51.7804 69.847 51.7046 69.855 51.6287 69.8603C51.5529 69.8659 51.4784 69.869 51.4054 69.8696C51.3295 69.8702 51.2537 69.8682 51.1778 69.8637C51.102 69.8592 51.0261 69.8522 50.9503 69.8426C50.8773 69.8334 50.8028 69.8216 50.727 69.8072C50.6539 69.7929 50.5809 69.776 50.5078 69.7567C50.4348 69.7376 50.3631 69.7159 50.2929 69.6918C50.2199 69.6679 50.1482 69.6416 50.078 69.613C50.0078 69.584 49.939 69.553 49.8715 69.5198C49.8041 69.4867 49.7381 69.4513 49.6735 69.4137C49.6089 69.376 49.5442 69.3363 49.4796 69.2944C49.4178 69.2523 49.3575 69.2083 49.2985 69.1625C49.2367 69.1164 49.1776 69.0685 49.1215 69.0188C49.0653 68.9691 49.0105 68.9175 48.9571 68.8642C48.9037 68.8108 48.8518 68.7556 48.8012 68.6986C48.7534 68.6418 48.7057 68.5835 48.6579 68.5237C48.613 68.4636 48.5695 68.4022 48.5273 68.3395C48.4852 68.2766 48.4459 68.2124 48.4093 68.147C48.3728 68.0815 48.3377 68.0149 48.304 67.9472C48.2703 67.8793 48.2394 67.8104 48.2113 67.7408C48.1832 67.6708 48.1565 67.6 48.1312 67.5284C48.1087 67.457 48.0877 67.3848 48.068 67.3118C48.0483 67.2388 48.0315 67.1653 48.0174 67.0914C48.0034 67.0172 47.9922 66.9427 47.9837 66.8677C47.9753 66.7929 47.9683 66.7179 47.9627 66.6426C47.957 66.5673 47.9556 66.4919 47.9584 66.4164C47.9584 66.3411 47.9613 66.2658 47.9669 66.1905C47.9725 66.1152 47.9809 66.0403 47.9922 65.9659C48.0006 65.8912 48.0132 65.8169 48.0301 65.743C48.0469 65.6691 48.0652 65.5958 48.0849 65.523C48.1045 65.4505 48.127 65.3786 48.1523 65.3073C48.1776 65.2362 48.2043 65.166 48.2323 65.0966C48.2632 65.0272 48.2955 64.9589 48.3293 64.8918C48.363 64.8246 48.3995 64.7586 48.4388 64.6937C48.4781 64.6288 48.5189 64.5654 48.561 64.5033C48.6032 64.4412 48.6481 64.3805 48.6959 64.3212C48.7436 64.262 48.7928 64.2044 48.8434 64.1485C48.8939 64.0926 48.9459 64.0383 48.9993 63.9858C49.0527 63.9333 49.1088 63.8827 49.1678 63.8341C49.224 63.7852 49.283 63.7383 49.3448 63.6934C49.4066 63.6487 49.4684 63.606 49.5302 63.5653C49.5949 63.5243 49.6594 63.4856 49.7241 63.4494C49.7915 63.4129 49.8589 63.3786 49.9263 63.3466C49.9937 63.3146 50.0626 63.2848 50.1328 63.2572C50.203 63.2297 50.2747 63.2046 50.3477 63.1818Z" />
        <path d="M15.4193 56.5677C15.4698 56.5536 15.519 56.5409 15.5667 56.5293C15.6173 56.5178 15.6679 56.5076 15.7184 56.4986C15.769 56.4896 15.8196 56.4819 15.8702 56.4754C15.9207 56.4687 15.9713 56.4633 16.0219 56.4594C16.0752 56.4552 16.1272 56.4522 16.1778 56.4505C16.2283 56.4491 16.2789 56.4489 16.3295 56.4497C16.3828 56.4505 16.4348 56.4528 16.4854 56.4564C16.5359 56.4598 16.5865 56.4644 16.6371 56.4703C16.6876 56.4762 16.7382 56.4834 16.7888 56.4918C16.8393 56.5 16.8899 56.5095 16.9404 56.5205C16.991 56.5314 17.0402 56.5435 17.0879 56.5567C17.1385 56.5699 17.1877 56.5844 17.2354 56.6001C17.286 56.6159 17.3352 56.6327 17.3829 56.6507C17.4307 56.6687 17.4784 56.6879 17.5262 56.7084C17.5711 56.7286 17.6175 56.7501 17.6652 56.7729C17.7102 56.7956 17.7551 56.8194 17.8001 56.8441C17.845 56.8691 17.89 56.8951 17.9349 56.9221C17.977 56.949 18.0192 56.9771 18.0613 57.0063C18.1035 57.0353 18.1456 57.0653 18.1878 57.0965C18.2271 57.1277 18.2664 57.1599 18.3057 57.193C18.3451 57.2259 18.383 57.2599 18.4195 57.295C18.4588 57.3298 18.4954 57.3656 18.5291 57.4024C18.5656 57.4392 18.6007 57.4769 18.6344 57.5154C18.6681 57.5539 18.7018 57.593 18.7355 57.6329C18.7664 57.6731 18.7973 57.714 18.8282 57.7556C18.8563 57.7971 18.8845 57.8394 18.9125 57.8824C18.9406 57.9254 18.9673 57.9691 18.9926 58.0134C19.0179 58.0576 19.0432 58.1024 19.0685 58.1479C19.0909 58.1934 19.1134 58.2395 19.1359 58.2861C19.1556 58.3327 19.1752 58.3798 19.1948 58.4273C19.2145 58.475 19.2328 58.523 19.2496 58.5714C19.2665 58.62 19.282 58.6688 19.296 58.718C19.3101 58.7672 19.3227 58.8167 19.3339 58.8668C19.348 58.9165 19.3592 58.9665 19.3676 59.0168C19.376 59.0673 19.3845 59.118 19.3929 59.1689C19.3985 59.2194 19.4041 59.2703 19.4097 59.3214C19.4126 59.3726 19.4154 59.4237 19.4182 59.4748C19.421 59.5259 19.4224 59.5772 19.4224 59.6286C19.4196 59.6797 19.4168 59.7309 19.414 59.782C19.4112 59.8334 19.407 59.8845 19.4014 59.9354C19.3957 59.9862 19.3901 60.0371 19.3845 60.0879C19.3761 60.1385 19.3662 60.1888 19.355 60.2388C19.3437 60.2891 19.3325 60.3391 19.3213 60.3888C19.3072 60.4382 19.2932 60.4874 19.2791 60.5363C19.2623 60.5852 19.2454 60.6338 19.2286 60.6821C19.2117 60.7301 19.1921 60.7777 19.1696 60.8249C19.1499 60.8721 19.1288 60.9187 19.1064 60.9648C19.0839 61.0109 19.0614 61.0565 19.0389 61.1018C19.0136 61.1467 18.9884 61.1911 18.9631 61.2349C18.935 61.2785 18.9069 61.3215 18.8788 61.3639C18.8507 61.4063 18.8212 61.448 18.7903 61.489C18.7594 61.53 18.7271 61.5702 18.6934 61.6095C18.6597 61.6489 18.626 61.6875 18.5923 61.7254C18.5586 61.7631 18.5235 61.7999 18.4869 61.8358C18.4504 61.8721 18.4125 61.9072 18.3732 61.9412C18.3338 61.9754 18.2945 62.0087 18.2552 62.041C18.2158 62.0733 18.1751 62.1047 18.133 62.135C18.0937 62.1653 18.0529 62.1946 18.0108 62.2226C17.9658 62.251 17.9223 62.2783 17.8801 62.3044C17.8352 62.3305 17.7902 62.3555 17.7453 62.3794C17.7004 62.4033 17.654 62.4262 17.6063 62.4481C17.5613 62.4697 17.5149 62.4902 17.4672 62.5096C17.4194 62.529 17.3717 62.5473 17.3239 62.5644C17.2734 62.5815 17.2242 62.5974 17.1764 62.612C17.1259 62.6269 17.0753 62.6405 17.0248 62.6529C16.977 62.6652 16.9278 62.6763 16.8772 62.6862C16.8239 62.696 16.7719 62.7046 16.7213 62.7119C16.6708 62.7192 16.6202 62.7254 16.5696 62.7304C16.5162 62.7352 16.4643 62.7387 16.4137 62.741C16.3603 62.7432 16.3084 62.7442 16.2578 62.7439C16.2072 62.7436 16.1553 62.7421 16.1019 62.7393C16.0513 62.7365 16.0008 62.7324 15.9502 62.727C15.8968 62.7217 15.8449 62.7151 15.7943 62.7072C15.7437 62.6991 15.6932 62.6898 15.6426 62.6794C15.592 62.669 15.5415 62.6574 15.4909 62.6445C15.4403 62.6315 15.3898 62.6175 15.3392 62.6023C15.2915 62.5869 15.2437 62.5703 15.1959 62.5526C15.1453 62.5346 15.0962 62.5157 15.0484 62.4957C15.0007 62.4755 14.9543 62.4541 14.9094 62.4317C14.8616 62.4092 14.8153 62.3856 14.7703 62.3609C14.7254 62.3361 14.6804 62.3103 14.6355 62.2833C14.5905 62.2564 14.547 62.2283 14.5048 62.1991C14.4627 62.1701 14.4206 62.1401 14.3785 62.1089C14.3363 62.0777 14.2956 62.0455 14.2562 62.0124C14.2169 61.979 14.179 61.9448 14.1425 61.91C14.1031 61.8749 14.0652 61.8388 14.0287 61.8017C13.9922 61.7649 13.9571 61.7271 13.9234 61.6883C13.8897 61.6496 13.8559 61.6101 13.8222 61.5699C13.7913 61.5295 13.7604 61.4883 13.7295 61.4465C13.6986 61.4046 13.6691 61.362 13.641 61.3188C13.6129 61.2755 13.5862 61.2316 13.5609 61.1869C13.5328 61.1422 13.5076 61.0969 13.4851 61.0508C13.4598 61.005 13.4373 60.9586 13.4177 60.9117C13.3952 60.8645 13.3741 60.8169 13.3545 60.7689C13.3348 60.7208 13.3165 60.6724 13.2997 60.6235C13.2828 60.5746 13.2674 60.5253 13.2533 60.4756C13.2393 60.4259 13.2267 60.3759 13.2154 60.3256C13.2014 60.2753 13.1902 60.2246 13.1817 60.1735C13.1733 60.1226 13.1649 60.0716 13.1564 60.0205C13.1508 59.9691 13.1452 59.9177 13.1396 59.8663C13.1339 59.8146 13.1312 59.7629 13.1312 59.7112C13.1284 59.6595 13.127 59.6077 13.127 59.5557C13.1298 59.504 13.1325 59.4523 13.1353 59.4006C13.1381 59.349 13.1424 59.2974 13.148 59.246C13.1536 59.1946 13.1607 59.1433 13.1691 59.0922C13.1775 59.0411 13.1873 58.9902 13.1986 58.9396C13.2098 58.8891 13.2211 58.8388 13.2323 58.7888C13.2463 58.7388 13.2618 58.6891 13.2786 58.6396C13.2927 58.5905 13.3095 58.5416 13.3292 58.493C13.3461 58.4447 13.3643 58.3968 13.384 58.3493C13.4065 58.3015 13.4289 58.2545 13.4514 58.2081C13.4738 58.1618 13.4977 58.1158 13.523 58.0703C13.5483 58.0251 13.575 57.9806 13.6031 57.9368C13.6284 57.8927 13.6565 57.8494 13.6874 57.807C13.7155 57.7643 13.7449 57.7224 13.7758 57.6814C13.8096 57.6404 13.8433 57.6001 13.877 57.5605C13.9107 57.5211 13.9444 57.4825 13.9781 57.4446C14.0146 57.4069 14.0511 57.3701 14.0877 57.3342C14.1242 57.2982 14.1621 57.2631 14.2015 57.2288C14.2408 57.1948 14.2801 57.1617 14.3195 57.1294C14.3616 57.0974 14.4037 57.0663 14.4459 57.0363C14.488 57.0062 14.5301 56.9771 14.5723 56.949C14.6172 56.9209 14.6622 56.894 14.7071 56.8681C14.7521 56.8426 14.797 56.818 14.842 56.7944C14.8869 56.7708 14.9332 56.7483 14.981 56.727C15.0288 56.7056 15.0766 56.6855 15.1243 56.6667C15.1721 56.6479 15.2212 56.6302 15.2718 56.6136C15.3195 56.597 15.3687 56.5817 15.4193 56.5677Z" />
        <path d="M16.296 33.8223C16.3325 33.8029 16.369 33.7842 16.4055 33.7662C16.4449 33.7485 16.4828 33.7318 16.5193 33.7161C16.5587 33.7001 16.598 33.6852 16.6373 33.6714C16.6767 33.6574 16.716 33.6443 16.7553 33.6322C16.7947 33.6202 16.834 33.6091 16.8733 33.599C16.9127 33.5888 16.9534 33.5796 16.9955 33.5711C17.0348 33.563 17.0756 33.5558 17.1177 33.5496C17.157 33.5435 17.1978 33.5383 17.2399 33.5341C17.2821 33.5298 17.3228 33.5268 17.3621 33.5248C17.4042 33.5225 17.4464 33.5213 17.4885 33.521C17.5307 33.521 17.5714 33.5218 17.6108 33.5235C17.6529 33.5255 17.695 33.5283 17.7371 33.532C17.7793 33.5359 17.82 33.5408 17.8594 33.5467C17.9015 33.5526 17.9422 33.5593 17.9815 33.5669C18.0237 33.5748 18.0644 33.5836 18.1037 33.5935C18.1431 33.6033 18.1824 33.6141 18.2217 33.6259C18.2639 33.6377 18.3032 33.6504 18.3397 33.6638C18.3791 33.6776 18.4184 33.6922 18.4577 33.7077C18.497 33.7234 18.5349 33.74 18.5715 33.7574C18.608 33.7745 18.6459 33.7928 18.6852 33.8122C18.7218 33.8313 18.7569 33.8514 18.7906 33.8724C18.8271 33.8932 18.8622 33.915 18.8959 33.9377C18.9325 33.9605 18.9676 33.984 19.0013 34.0081C19.035 34.0326 19.0673 34.0577 19.0982 34.0835C19.1319 34.1097 19.1642 34.1364 19.1951 34.1636C19.226 34.1911 19.2555 34.2194 19.2836 34.2483C19.3145 34.2772 19.344 34.3069 19.3721 34.3372C19.4002 34.3676 19.4269 34.3986 19.4522 34.4303C19.4803 34.4621 19.507 34.4944 19.5322 34.5273C19.5575 34.5601 19.5814 34.5937 19.6039 34.628C19.6264 34.662 19.6488 34.6967 19.6713 34.732C19.6937 34.7672 19.7148 34.8028 19.7345 34.8391C19.7542 34.8753 19.7738 34.912 19.7935 34.9491C19.8103 34.9864 19.8272 35.0241 19.8441 35.062C19.8609 35.0999 19.8764 35.1383 19.8904 35.177C19.9044 35.2158 19.9185 35.255 19.9325 35.2946C19.9438 35.3339 19.955 35.3735 19.9663 35.4134C19.9775 35.4536 19.9873 35.4939 19.9957 35.5344C20.0042 35.5748 20.0126 35.6154 20.0211 35.6561C20.0267 35.6972 20.0323 35.7382 20.0379 35.7792C20.0407 35.8205 20.0435 35.8618 20.0463 35.9031C20.0491 35.9444 20.0519 35.9857 20.0547 36.027C20.0547 36.0685 20.0547 36.11 20.0547 36.1513C20.0519 36.1926 20.0491 36.2339 20.0463 36.2752C20.0435 36.3165 20.0393 36.3578 20.0337 36.399C20.0281 36.4401 20.0225 36.4809 20.0168 36.5217C20.0084 36.5624 20 36.603 19.9915 36.6435C19.9803 36.6839 19.9691 36.7241 19.9578 36.764C19.9466 36.8039 19.9354 36.8435 19.9241 36.8828C19.9101 36.9221 19.896 36.961 19.882 36.9995C19.8679 37.0383 19.8511 37.0765 19.8314 37.1141C19.8174 37.1521 19.8005 37.1896 19.7808 37.2266C19.7612 37.2634 19.7415 37.3 19.7218 37.3362C19.7022 37.3722 19.6811 37.4076 19.6587 37.4424C19.6362 37.4775 19.6123 37.5121 19.587 37.5461C19.5645 37.5798 19.5406 37.6131 19.5154 37.6459C19.4901 37.6785 19.4634 37.7105 19.4353 37.742C19.41 37.7735 19.3833 37.8042 19.3552 37.8343C19.3243 37.8643 19.2949 37.8937 19.2668 37.9223C19.2359 37.9507 19.205 37.9785 19.1741 38.0058C19.1432 38.033 19.1109 38.0594 19.0772 38.085C19.0463 38.1106 19.014 38.1353 18.9802 38.1592C18.9465 38.1833 18.9114 38.2065 18.8749 38.2287C18.8412 38.2512 18.8061 38.2727 18.7696 38.2932C18.7218 38.3213 18.6726 38.3477 18.622 38.3724C18.5715 38.3971 18.5195 38.4201 18.4661 38.4415C18.4127 38.4628 18.3594 38.4825 18.306 38.5005C18.2526 38.5182 18.1992 38.5342 18.1459 38.5485C18.0925 38.5629 18.0377 38.5754 17.9815 38.586C17.9253 38.5967 17.8692 38.6055 17.813 38.6126C17.7568 38.6196 17.7006 38.6247 17.6444 38.6277C17.5883 38.6311 17.5321 38.6325 17.4759 38.632C17.4197 38.6317 17.3635 38.6294 17.3073 38.6252C17.2511 38.621 17.1949 38.615 17.1388 38.6071C17.0854 38.5992 17.0306 38.5894 16.9745 38.5776C16.9183 38.5661 16.8635 38.5527 16.8101 38.5376C16.7567 38.5224 16.7034 38.5055 16.65 38.487C16.5966 38.4682 16.5432 38.4477 16.4899 38.4255C16.4393 38.4033 16.3887 38.3794 16.3382 38.3538C16.2876 38.3283 16.2384 38.301 16.1906 38.2721C16.1429 38.2434 16.0951 38.2131 16.0474 38.1811C16.0024 38.149 15.9575 38.1156 15.9126 38.0808C15.8676 38.046 15.824 38.0096 15.7819 37.9716C15.7426 37.934 15.7032 37.895 15.6639 37.8545C15.6246 37.8141 15.5867 37.7723 15.5502 37.7294C15.5137 37.6864 15.4785 37.6423 15.4448 37.597C15.4111 37.5518 15.3788 37.5056 15.3479 37.4584C15.317 37.4109 15.2889 37.3626 15.2636 37.3134C15.2355 37.2643 15.2089 37.2141 15.1836 37.163C15.1611 37.1122 15.14 37.0605 15.1204 37.0079C15.0979 36.9557 15.0782 36.9027 15.0614 36.8491C15.0445 36.7954 15.0291 36.7412 15.015 36.6864C15.0038 36.6319 14.9925 36.5769 14.9813 36.5212C14.9728 36.4659 14.9644 36.4103 14.956 36.3544C14.9504 36.2985 14.9462 36.2424 14.9434 36.1862C14.9434 36.1298 14.9434 36.0735 14.9434 36.0173C14.9434 35.9611 14.9462 35.9049 14.9518 35.8487C14.9574 35.7925 14.9645 35.7366 14.9729 35.681C14.9813 35.6254 14.9925 35.57 15.0066 35.515C15.0178 35.4602 15.0318 35.4058 15.0487 35.3519C15.0628 35.2977 15.0796 35.2442 15.0993 35.1914C15.1189 35.1385 15.1414 35.0864 15.1667 35.035C15.1892 34.9836 15.2131 34.9331 15.2384 34.8833C15.2636 34.8333 15.2917 34.7844 15.3226 34.7367C15.3535 34.6886 15.3844 34.6417 15.4153 34.5959C15.449 34.5499 15.4827 34.5051 15.5164 34.4615C15.553 34.418 15.5909 34.3756 15.6302 34.3343C15.6667 34.2932 15.7061 34.2534 15.7482 34.2146C15.7904 34.1761 15.8325 34.139 15.8746 34.1033C15.9195 34.0674 15.9645 34.0331 16.0095 34.0005C16.0544 33.9677 16.1008 33.9363 16.1485 33.9066C16.1963 33.8768 16.2454 33.8487 16.296 33.8223Z" />
        <path d="M86.452 35.0649C86.4885 35.0515 86.5264 35.039 86.5657 35.0274C86.6051 35.0156 86.643 35.0048 86.6795 34.995C86.7188 34.9854 86.7582 34.9767 86.7975 34.9689C86.8368 34.9607 86.8762 34.9537 86.9155 34.9478C86.9548 34.9419 86.9942 34.9368 87.0335 34.9326C87.0728 34.9287 87.1135 34.9256 87.1557 34.9234C87.195 34.9214 87.2343 34.9203 87.2737 34.92C87.313 34.9197 87.3523 34.9204 87.3917 34.9221C87.4338 34.9238 87.4745 34.9264 87.5138 34.9301C87.5532 34.9337 87.5925 34.9384 87.6318 34.944C87.6712 34.9496 87.7105 34.9561 87.7498 34.9634C87.7892 34.971 87.8285 34.9794 87.8678 34.9887C87.9072 34.9979 87.9451 35.0082 87.9816 35.0194C88.021 35.0307 88.0588 35.0427 88.0954 35.0557C88.1347 35.0689 88.1726 35.0829 88.2091 35.0978C88.2457 35.1124 88.2822 35.1282 88.3187 35.145C88.3552 35.1616 88.3917 35.179 88.4283 35.1973C88.462 35.2158 88.4971 35.235 88.5336 35.255C88.5673 35.2749 88.601 35.2959 88.6347 35.3178C88.6685 35.3394 88.7007 35.3619 88.7316 35.3852C88.7654 35.4085 88.7977 35.4325 88.8286 35.4572C88.8595 35.482 88.8904 35.5075 88.9213 35.5339C88.9494 35.5603 88.9789 35.5875 89.0098 35.6153C89.0379 35.6428 89.0659 35.6712 89.094 35.7004C89.1193 35.7293 89.146 35.7591 89.1741 35.7897C89.1994 35.8201 89.2247 35.851 89.2499 35.8824C89.2724 35.9142 89.2949 35.9463 89.3174 35.9789C89.3427 36.0118 89.3652 36.0451 89.3848 36.0788C89.4073 36.1125 89.4284 36.1468 89.448 36.1816C89.4677 36.2164 89.486 36.2517 89.5028 36.2874C89.5197 36.3231 89.5365 36.3591 89.5534 36.3957C89.5702 36.4322 89.5857 36.4691 89.5997 36.5065C89.6138 36.5439 89.6278 36.5815 89.6419 36.6194C89.6531 36.6573 89.6643 36.6956 89.6755 36.734C89.6868 36.7725 89.6966 36.8112 89.7051 36.8499C89.7135 36.889 89.7205 36.9282 89.7261 36.9675C89.7345 37.0068 89.7416 37.0463 89.7472 37.0859C89.7528 37.1255 89.757 37.1653 89.7599 37.2051C89.7627 37.245 89.7641 37.2849 89.7641 37.3248C89.7669 37.3647 89.7669 37.4046 89.7641 37.4445C89.7641 37.4847 89.7627 37.5247 89.7599 37.5646C89.757 37.6045 89.7542 37.6442 89.7514 37.6838C89.7458 37.7234 89.7402 37.7629 89.7345 37.8023C89.7261 37.8419 89.7177 37.8812 89.7093 37.9202C89.7009 37.9593 89.6924 37.9981 89.684 38.0365C89.6727 38.0753 89.6615 38.1137 89.6503 38.1516C89.6362 38.1898 89.6222 38.2276 89.6082 38.2649C89.5941 38.3023 89.58 38.3394 89.566 38.3762C89.5491 38.413 89.5323 38.4492 89.5154 38.4849C89.4986 38.5208 89.4803 38.5564 89.4606 38.5915C89.441 38.6266 89.4214 38.6612 89.4017 38.6952C89.3792 38.7291 89.3567 38.7627 89.3343 38.7959C89.3118 38.8287 89.2893 38.8612 89.2668 38.8932C89.2415 38.925 89.2163 38.9561 89.191 38.9868C89.1657 39.0174 89.139 39.0474 89.1109 39.0769C89.0856 39.1064 89.0576 39.1352 89.0266 39.1633C88.9986 39.1914 88.9704 39.2187 88.9423 39.2451C88.9114 39.2718 88.8806 39.2977 88.8496 39.323C88.8187 39.3483 88.7879 39.3727 88.757 39.3963C88.7232 39.4199 88.6895 39.4428 88.6558 39.465C88.6221 39.4869 88.5884 39.5082 88.5547 39.5287C88.521 39.5492 88.4859 39.5688 88.4494 39.5877C88.4156 39.6062 88.3805 39.624 88.344 39.6412C88.3075 39.6583 88.271 39.6745 88.2344 39.6896C88.1839 39.7107 88.1319 39.7301 88.0785 39.7478C88.028 39.7652 87.976 39.7811 87.9226 39.7954C87.8693 39.8094 87.8159 39.8217 87.7625 39.832C87.7091 39.8427 87.6543 39.8516 87.5982 39.8586C87.5448 39.8656 87.49 39.8707 87.4338 39.8738C87.3804 39.8771 87.3256 39.8787 87.2695 39.8784C87.2161 39.8781 87.1613 39.8759 87.1051 39.8717C87.0517 39.8677 86.997 39.862 86.9408 39.8544C86.8874 39.8468 86.834 39.8374 86.7806 39.8262C86.7273 39.8149 86.6739 39.8019 86.6205 39.787C86.5671 39.7721 86.5138 39.7555 86.4604 39.7372C86.4098 39.719 86.3593 39.699 86.3087 39.6774C86.2581 39.6558 86.209 39.6325 86.1612 39.6075C86.1107 39.5825 86.0615 39.5559 86.0137 39.5278C85.966 39.4994 85.9197 39.4697 85.8747 39.4385C85.8298 39.4073 85.7862 39.3746 85.7441 39.3403C85.7019 39.306 85.6598 39.2705 85.6176 39.2337C85.5783 39.1966 85.539 39.1583 85.4997 39.1187C85.4631 39.079 85.4266 39.0383 85.3901 38.9965C85.3564 38.9543 85.3227 38.911 85.289 38.8667C85.2553 38.8226 85.2243 38.7773 85.1962 38.731C85.1653 38.6846 85.1373 38.6373 85.112 38.589C85.0867 38.5409 85.0628 38.4921 85.0403 38.4423C85.015 38.3923 84.9926 38.3418 84.9729 38.2906C84.9533 38.2392 84.935 38.1874 84.9182 38.1351C84.9041 38.0826 84.89 38.0297 84.876 37.9763C84.8647 37.9229 84.8535 37.8691 84.8423 37.8149C84.8339 37.7607 84.8269 37.7063 84.8212 37.6518C84.8156 37.597 84.8114 37.5423 84.8086 37.4875C84.8086 37.4327 84.8086 37.3778 84.8086 37.3227C84.8114 37.2679 84.8156 37.2132 84.8212 37.1584C84.8269 37.1039 84.8339 37.0495 84.8423 36.9953C84.8507 36.9411 84.8619 36.8873 84.876 36.8339C84.8872 36.7803 84.9013 36.7272 84.9182 36.6746C84.935 36.6221 84.9519 36.5701 84.9687 36.5187C84.9884 36.4673 85.0108 36.4167 85.0361 36.367C85.0586 36.317 85.0825 36.2678 85.1078 36.2195C85.133 36.1712 85.1611 36.1237 85.192 36.0771C85.2201 36.0308 85.251 35.9854 85.2848 35.941C85.3157 35.8963 85.3494 35.8529 85.3859 35.8108C85.4196 35.7686 85.4561 35.7278 85.4955 35.6882C85.532 35.6483 85.5713 35.6098 85.6134 35.5727C85.6527 35.5353 85.6935 35.4995 85.7356 35.4653C85.7778 35.431 85.8213 35.3981 85.8663 35.3666C85.914 35.3352 85.9604 35.3053 86.0053 35.2769C86.0531 35.2485 86.1008 35.2217 86.1486 35.1964C86.1991 35.1711 86.2497 35.1475 86.3003 35.1256C86.3508 35.1037 86.4014 35.0835 86.452 35.0649Z" />
        <path d="M119.619 29.1052C119.661 29.0853 119.703 29.0663 119.745 29.0484C119.79 29.0304 119.834 29.0134 119.876 28.9974C119.921 28.9816 119.966 28.967 120.011 28.9535C120.056 28.9398 120.101 28.9273 120.146 28.916C120.191 28.9045 120.237 28.8943 120.285 28.8853C120.33 28.876 120.375 28.868 120.42 28.8613C120.467 28.8542 120.515 28.8485 120.563 28.844C120.608 28.8392 120.654 28.8357 120.702 28.8334C120.747 28.8312 120.793 28.8301 120.841 28.8301C120.889 28.8301 120.935 28.8313 120.98 28.8339C121.028 28.8361 121.074 28.8395 121.119 28.844C121.167 28.8488 121.215 28.8545 121.262 28.8613C121.307 28.8683 121.352 28.8764 121.397 28.8857C121.445 28.8947 121.491 28.9049 121.536 28.9165C121.581 28.928 121.626 28.9405 121.671 28.954C121.716 28.9677 121.76 28.9825 121.802 28.9982C121.847 29.0142 121.892 29.0312 121.937 29.0492C121.979 29.0672 122.021 29.0861 122.063 29.1061C122.105 29.1263 122.147 29.1475 122.189 29.1697C122.229 29.1919 122.27 29.2151 122.312 29.2392C122.351 29.2634 122.39 29.2885 122.43 29.3147C122.469 29.3408 122.507 29.3678 122.543 29.3956C122.58 29.4237 122.616 29.4526 122.653 29.4824C122.689 29.5122 122.725 29.5428 122.758 29.5742C122.792 29.6057 122.826 29.6381 122.859 29.6716C122.893 29.7047 122.926 29.7387 122.956 29.7736C122.987 29.8081 123.018 29.8436 123.049 29.8802C123.077 29.9164 123.105 29.9533 123.133 29.991C123.161 30.0286 123.188 30.067 123.213 30.106C123.239 30.1451 123.264 30.1847 123.289 30.2249C123.312 30.2653 123.334 30.3062 123.357 30.3475C123.379 30.3888 123.4 30.4306 123.42 30.4731C123.44 30.5155 123.458 30.5583 123.475 30.6016C123.494 30.6448 123.511 30.6885 123.525 30.7326C123.542 30.7767 123.556 30.8213 123.567 30.8662C123.581 30.9109 123.594 30.956 123.605 31.0015C123.617 31.0467 123.626 31.0923 123.635 31.1384C123.643 31.1842 123.652 31.2303 123.66 31.2766C123.666 31.323 123.671 31.3695 123.677 31.4161C123.68 31.4625 123.683 31.5091 123.685 31.556C123.688 31.6026 123.69 31.6494 123.69 31.6963C123.69 31.743 123.688 31.7896 123.685 31.8362C123.683 31.8829 123.678 31.9295 123.673 31.9761C123.667 32.0228 123.661 32.0691 123.656 32.1152C123.647 32.1615 123.639 32.2076 123.631 32.2534C123.619 32.2992 123.608 32.3447 123.597 32.3899C123.586 32.4352 123.573 32.4801 123.559 32.5248C123.545 32.5694 123.531 32.6138 123.517 32.6579C123.5 32.7018 123.482 32.7452 123.462 32.7881C123.445 32.8314 123.427 32.8741 123.407 32.9162C123.385 32.9584 123.362 32.9999 123.34 33.041C123.32 33.082 123.298 33.1224 123.272 33.1623C123.247 33.2022 123.222 33.2415 123.197 33.2803C123.168 33.3191 123.14 33.3571 123.112 33.3945C123.084 33.4319 123.056 33.4684 123.028 33.5041C122.997 33.54 122.966 33.5753 122.935 33.6098C122.904 33.6441 122.872 33.6777 122.838 33.7105C122.805 33.7434 122.77 33.7753 122.733 33.8062C122.699 33.8374 122.664 33.8677 122.628 33.8972C122.591 33.9264 122.555 33.9548 122.518 33.9823C122.479 34.0099 122.439 34.0364 122.4 34.062C122.361 34.0875 122.321 34.1123 122.282 34.1361C122.243 34.1597 122.202 34.1824 122.16 34.204C122.118 34.2256 122.076 34.2463 122.034 34.2659C121.991 34.2853 121.949 34.3039 121.907 34.3215C121.862 34.339 121.819 34.3553 121.777 34.3704C121.732 34.3859 121.687 34.4001 121.642 34.413C121.597 34.4262 121.552 34.4383 121.507 34.4492C121.462 34.4602 121.417 34.47 121.372 34.4787C121.327 34.4874 121.281 34.495 121.233 34.5015C121.188 34.5079 121.142 34.5133 121.094 34.5175C121.049 34.5217 121.003 34.5248 120.955 34.5268C120.91 34.5287 120.864 34.5294 120.816 34.5289C120.771 34.5286 120.724 34.5272 120.677 34.5247C120.632 34.5219 120.585 34.5181 120.538 34.5133C120.493 34.5085 120.446 34.5025 120.399 34.4952C120.354 34.4881 120.309 34.4798 120.264 34.4703C120.219 34.461 120.174 34.4506 120.129 34.4391C120.084 34.4273 120.039 34.4145 119.994 34.4008C119.949 34.387 119.904 34.3721 119.859 34.3561C119.817 34.3401 119.775 34.3231 119.733 34.3051C119.688 34.2871 119.644 34.268 119.602 34.2478C119.563 34.2276 119.522 34.2064 119.48 34.1842C119.438 34.162 119.397 34.1388 119.358 34.1147C119.318 34.0905 119.279 34.0655 119.24 34.0396C119.203 34.0135 119.165 33.9864 119.126 33.9583C119.089 33.9305 119.054 33.9017 119.021 33.8719C118.984 33.8422 118.949 33.8117 118.915 33.7805C118.879 33.749 118.845 33.7167 118.814 33.6836C118.78 33.6504 118.748 33.6166 118.717 33.582C118.686 33.5475 118.657 33.5121 118.629 33.4758C118.598 33.4399 118.568 33.4031 118.54 33.3654C118.515 33.3281 118.488 33.29 118.46 33.2512C118.435 33.2125 118.411 33.173 118.389 33.1328C118.363 33.0929 118.341 33.0523 118.321 33.011C118.299 32.97 118.278 32.9285 118.258 32.8863C118.238 32.8442 118.22 32.8016 118.203 32.7586C118.184 32.7157 118.167 32.6723 118.153 32.6284C118.136 32.5846 118.122 32.5404 118.11 32.4957C118.096 32.4513 118.084 32.4065 118.073 32.3613C118.061 32.3163 118.051 32.271 118.043 32.2252C118.035 32.1797 118.026 32.1339 118.018 32.0878C118.012 32.0417 118.007 31.9957 118.001 31.9496C117.998 31.9032 117.995 31.8569 117.992 31.8105C117.99 31.7642 117.988 31.7177 117.988 31.671C117.988 31.6247 117.99 31.5782 117.992 31.5316C117.995 31.4852 118 31.439 118.005 31.3929C118.008 31.3466 118.014 31.3004 118.022 31.2543C118.028 31.2085 118.036 31.1629 118.047 31.1173C118.056 31.0716 118.066 31.0262 118.077 30.9812C118.088 30.9363 118.101 30.8915 118.115 30.8468C118.129 30.8024 118.143 30.7585 118.157 30.7149C118.174 30.6711 118.191 30.6277 118.207 30.5847C118.227 30.542 118.247 30.4996 118.266 30.4575C118.286 30.4156 118.307 30.3742 118.33 30.3332C118.349 30.2921 118.372 30.2517 118.397 30.2118C118.422 30.1722 118.448 30.133 118.473 30.0942C118.498 30.0557 118.525 30.0178 118.553 29.9805C118.581 29.9431 118.609 29.9064 118.637 29.8705C118.668 29.8348 118.699 29.7997 118.73 29.7651C118.761 29.7309 118.793 29.6973 118.827 29.6644C118.858 29.6315 118.891 29.5995 118.928 29.5683C118.962 29.5372 118.997 29.5068 119.033 29.4773C119.067 29.4478 119.104 29.4192 119.143 29.3914C119.179 29.3638 119.217 29.3371 119.257 29.3113C119.296 29.2855 119.335 29.2606 119.375 29.2367C119.414 29.2128 119.453 29.1899 119.493 29.168C119.535 29.1461 119.577 29.1252 119.619 29.1052Z" />
        <path d="M111.579 47.409C111.621 47.3986 111.662 47.3891 111.701 47.3804C111.743 47.372 111.785 47.3645 111.828 47.358C111.87 47.3516 111.912 47.3461 111.954 47.3416C111.996 47.3371 112.038 47.3336 112.08 47.3311C112.125 47.3286 112.169 47.3272 112.211 47.3269C112.253 47.3263 112.295 47.3269 112.337 47.3286C112.38 47.33 112.422 47.3325 112.464 47.3361C112.506 47.3398 112.548 47.3444 112.59 47.35C112.632 47.3557 112.675 47.3623 112.717 47.3698C112.759 47.3774 112.801 47.386 112.843 47.3956C112.882 47.4054 112.923 47.4161 112.965 47.4276C113.007 47.4391 113.048 47.4516 113.088 47.4651C113.127 47.4786 113.166 47.493 113.206 47.5085C113.245 47.5239 113.284 47.5402 113.323 47.5574C113.363 47.5748 113.402 47.593 113.441 47.6121C113.478 47.6313 113.515 47.6512 113.551 47.672C113.59 47.6928 113.627 47.7145 113.661 47.7373C113.697 47.7598 113.734 47.7832 113.77 47.8077C113.804 47.8321 113.838 47.8572 113.871 47.8831C113.905 47.9089 113.937 47.9356 113.968 47.9632C114.002 47.9907 114.034 48.0191 114.065 48.0483C114.096 48.0772 114.127 48.107 114.158 48.1376C114.186 48.168 114.214 48.1991 114.242 48.2312C114.27 48.2629 114.298 48.2954 114.326 48.3285C114.352 48.3616 114.377 48.3955 114.402 48.4301C114.428 48.4643 114.451 48.4993 114.474 48.535C114.499 48.5704 114.522 48.6065 114.541 48.6433C114.564 48.6798 114.585 48.7169 114.604 48.7545C114.624 48.7922 114.644 48.8302 114.663 48.8687C114.68 48.9072 114.697 48.9461 114.714 48.9854C114.728 49.0248 114.744 49.0645 114.76 49.1047C114.774 49.1446 114.787 49.1849 114.798 49.2256C114.81 49.2664 114.821 49.3072 114.832 49.3482C114.843 49.3895 114.853 49.431 114.862 49.4726C114.87 49.5144 114.877 49.5563 114.883 49.5981C114.888 49.6403 114.894 49.6824 114.899 49.7245C114.905 49.767 114.908 49.8094 114.908 49.8518C114.911 49.8942 114.912 49.9366 114.912 49.9791C114.912 50.0215 114.912 50.064 114.912 50.1067C114.909 50.1492 114.906 50.1914 114.904 50.2336C114.901 50.276 114.897 50.3183 114.891 50.3604C114.885 50.4025 114.878 50.4445 114.87 50.4864C114.862 50.5283 114.853 50.5698 114.845 50.6111C114.833 50.6524 114.822 50.6936 114.811 50.7346C114.8 50.7753 114.787 50.8159 114.773 50.8564C114.759 50.8965 114.745 50.9364 114.731 50.9761C114.714 51.0157 114.697 51.0549 114.68 51.0936C114.664 51.1324 114.645 51.1707 114.626 51.2087C114.606 51.2466 114.586 51.2841 114.567 51.3212C114.547 51.3582 114.526 51.3948 114.503 51.4307C114.478 51.4667 114.454 51.5021 114.432 51.5369C114.406 51.5717 114.381 51.6059 114.356 51.6393C114.331 51.673 114.304 51.706 114.276 51.7383C114.248 51.7706 114.22 51.8024 114.192 51.8336C114.161 51.8645 114.13 51.8948 114.099 51.9246C114.071 51.9541 114.04 51.9829 114.006 52.011C113.975 52.0391 113.943 52.0663 113.909 52.0927C113.875 52.1194 113.842 52.1453 113.808 52.1703C113.774 52.1953 113.739 52.2193 113.703 52.2423C113.666 52.2656 113.63 52.2881 113.593 52.3097C113.557 52.3314 113.52 52.352 113.484 52.3717C113.447 52.3916 113.409 52.4106 113.37 52.4286C113.331 52.4465 113.291 52.4635 113.252 52.4795C113.213 52.4956 113.173 52.5107 113.134 52.5251C113.078 52.5453 113.02 52.5635 112.961 52.5798C112.905 52.5959 112.847 52.61 112.788 52.6224C112.729 52.6348 112.67 52.6452 112.611 52.6536C112.55 52.662 112.489 52.6683 112.43 52.6725C112.371 52.6768 112.311 52.679 112.249 52.6793C112.19 52.6796 112.131 52.6779 112.072 52.6742C112.01 52.6703 111.95 52.6645 111.891 52.657C111.832 52.6491 111.773 52.6393 111.714 52.6275C111.655 52.6157 111.596 52.6019 111.537 52.5862C111.481 52.5704 111.423 52.5527 111.364 52.5331C111.308 52.5134 111.252 52.4919 111.196 52.4686C111.142 52.4453 111.089 52.4201 111.035 52.3932C110.982 52.3659 110.929 52.337 110.875 52.3064C110.825 52.2757 110.774 52.2434 110.724 52.2094C110.673 52.1754 110.625 52.1398 110.58 52.1024C110.533 52.0653 110.486 52.0266 110.441 51.9861C110.396 51.9457 110.353 51.9038 110.311 51.8605C110.268 51.8173 110.229 51.7726 110.193 51.7265C110.153 51.6805 110.115 51.6333 110.079 51.585C110.042 51.5364 110.009 51.4866 109.978 51.4358C109.947 51.3849 109.916 51.3331 109.885 51.2803C109.857 51.2275 109.83 51.1737 109.805 51.1189C109.78 51.0641 109.757 51.0086 109.737 50.9525C109.715 50.8963 109.695 50.8394 109.679 50.7818C109.659 50.7242 109.643 50.6661 109.632 50.6073C109.618 50.5486 109.605 50.4896 109.594 50.4304C109.586 50.3711 109.579 50.3114 109.573 50.2513C109.568 50.1914 109.563 50.1315 109.561 50.0713C109.561 50.0112 109.562 49.9511 109.565 49.891C109.568 49.8309 109.572 49.7709 109.577 49.7111C109.583 49.6512 109.591 49.5917 109.603 49.5324C109.614 49.4731 109.627 49.4143 109.641 49.3558C109.655 49.2974 109.671 49.2397 109.691 49.1826C109.708 49.1253 109.728 49.0687 109.75 49.0128C109.773 48.9569 109.797 48.9019 109.822 48.8476C109.85 48.7934 109.878 48.7402 109.906 48.6879C109.937 48.6354 109.968 48.584 109.999 48.5337C110.033 48.4834 110.068 48.4344 110.104 48.3867C110.141 48.3386 110.179 48.292 110.218 48.2468C110.257 48.2012 110.298 48.1573 110.34 48.1149C110.382 48.0722 110.426 48.031 110.471 47.9914C110.516 47.9518 110.563 47.9137 110.614 47.8772C110.662 47.8407 110.71 47.8057 110.757 47.7723C110.808 47.7391 110.86 47.7077 110.913 47.6779C110.964 47.6481 111.017 47.6202 111.073 47.594C111.127 47.5679 111.181 47.5436 111.238 47.5211C111.294 47.4987 111.35 47.478 111.406 47.4592C111.462 47.4406 111.52 47.4239 111.579 47.409Z" />
        <path d="M25.8949 98.0032C34.3943 97.211 38.0561 100.657 45.4472 103.324C52.3073 105.8 56.951 102.84 63.0105 99.9761C74.2656 94.6583 78.1971 99.9909 88.226 103.488C95.1494 105.902 99.4685 102.56 105.435 99.6908C110.21 97.396 114.98 97.3577 119.948 99.0929C122.973 100.149 132.88 103.638 134.157 106.248C134.148 106.769 134.212 107.024 133.925 107.462C131.485 111.234 120.42 103.376 116.257 102.619C113.421 102.103 110.458 102.816 107.711 103.49C107.622 103.568 107.538 103.651 107.445 103.725C105.692 105.125 103.299 106.115 101.272 107.042C86.7849 113.673 83.0388 101.517 71.3707 102.233C63.7521 102.702 58.1603 109.158 50.2931 108.988C42.1056 108.811 36.0293 101.381 27.8249 102.389C19.2118 103.446 13.6074 110.611 4.10943 108.89C2.87899 108.667 1.14288 108.168 0.46867 107.036C0.076783 106.379 0.114708 106.059 0.257978 105.334C2.29748 103.157 7.40884 104.685 10.0888 104.44C13.9108 104.091 21.6095 99.4279 25.8949 98.0032Z" />
	</symbol>

</svg>