<svg xmlns="http://www.w3.org/2000/svg">

	<symbol id="oil" viewBox="0 0 156 139">
        <path d="M101.084 0.279358C103.978 -0.150092 106.382 -0.20152 109.105 0.978613C113.742 2.98582 149.411 38.5034 150.973 43.0442C151.8 45.4412 151.399 48.8494 150.317 51.1147C149.504 52.8222 148.03 54.3475 146.752 55.726C140.41 62.5521 133.379 68.9141 126.807 75.5385C119.031 83.3788 111.407 91.8351 103.067 99.0457C101.593 100.318 100.129 101.397 98.2684 102.01C95.9032 102.79 92.5881 102.869 90.2523 101.99C83.5192 99.4531 72.0852 86.0319 66.7868 80.5146C65.1513 78.8155 63.266 76.3685 61.175 75.2829L60.2447 75.9499C60.7686 80.1587 61.2534 84.4806 61.9928 88.6546C63.1534 95.2026 65.9543 102.76 64.9946 109.409C64.4755 112.982 62.9771 116.466 59.9802 118.636C57.3702 120.529 54.0355 121.123 50.8868 120.567C50.6746 120.529 50.4641 120.486 50.2552 120.438C50.0462 120.389 49.8389 120.336 49.6332 120.277C49.4276 120.218 49.2235 120.154 49.0211 120.085C48.8187 120.016 48.618 119.941 48.4188 119.862C48.2197 119.782 48.0222 119.698 47.8263 119.608C47.6337 119.519 47.4411 119.425 47.2485 119.325C47.0592 119.226 46.8731 119.122 46.6903 119.013C46.5042 118.905 46.3214 118.791 46.1418 118.673C45.9623 118.555 45.786 118.433 45.613 118.306C45.4432 118.179 45.2751 118.048 45.1086 117.912C44.9421 117.777 44.7789 117.637 44.6189 117.493C44.459 117.349 44.3039 117.202 44.1537 117.05C44.0035 116.898 43.8567 116.743 43.713 116.584C43.5694 116.425 43.429 116.262 43.2919 116.096C43.1581 115.93 43.0274 115.76 42.9001 115.587C42.7728 115.414 42.6504 115.238 42.5329 115.059C36.3825 105.881 41.813 89.6443 47.2289 81.1199C48.8253 78.6029 54.8973 72.55 55.1275 70.2906C55.1422 70.1432 55.1373 69.9943 55.1422 69.8464C54.7112 67.1366 50.6812 64.5731 49.2268 62.1648C47.8753 59.9309 47.3709 56.6809 48.13 54.1585C48.889 51.6102 51.1611 48.9596 52.8749 46.9915C59.9312 38.8883 68.2558 31.6763 75.8998 24.122C83.1275 16.975 92.4901 5.29468 101.084 0.279358ZM64.1131 58.1651C75.7186 58.3143 87.3257 58.3502 98.9344 58.2728C111.363 58.2298 124.045 58.7062 136.439 57.9888C139.857 56.5051 144.103 51.716 145.503 48.2388C145.959 47.111 146.291 45.7218 145.841 44.5412C144.534 41.1134 114.766 12.1615 110.623 8.50797C109.169 7.22746 107.621 5.77751 105.795 5.06992C104.791 4.68063 103.665 4.89461 102.627 5.05474C91.8585 14.9213 81.8102 25.4128 71.5563 35.8131C66.684 40.752 61.8704 46.2232 56.5377 50.6411C58.4377 51.8139 63.5745 56.0835 64.1131 58.1651ZM100.056 94.1249C102.347 92.8512 113.209 82.9361 113.977 80.736C116.886 79.0353 129.53 66.1048 130.534 63.583C125.127 62.6712 117.65 63.5286 111.96 63.5393C98.7728 63.5638 85.571 63.3357 72.3887 63.4644C71.5465 63.4987 70.3957 63.3856 69.6514 63.7778C73.1722 66.9691 99.6395 91.7842 100.056 94.1249ZM50.2552 115.512C52.6742 115.911 54.8533 116.131 56.9834 114.608C58.854 113.272 59.657 111.54 59.9753 109.315C60.9106 102.838 58.139 95.8128 56.9099 89.49C56.2684 86.2028 55.9551 82.9371 55.6466 79.6078C55.2548 79.1 55.2646 79.0246 54.6476 78.8909C54.628 78.9565 54.6133 79.0226 54.5888 79.0877C53.7955 81.59 51.8466 84.2416 50.544 86.5666C46.8274 93.2204 42.4986 103.338 46.0978 110.727C47.1065 112.806 48.3797 114.194 50.2552 115.512ZM95.9375 96.9253L96.0502 96.3563L69.0834 70.0776C64.6322 65.6798 60.4111 60.7266 55.6417 56.7063C54.7162 55.9277 54.0844 55.4102 52.8455 55.3813C53.0855 56.8738 53.2226 58.8957 54.0844 60.1708C57.8795 65.7811 68.9267 75.5312 74.2397 80.8001C79.3031 85.8233 84.3614 92.057 90.1348 96.2271C91.4912 97.2084 93.0337 97.581 94.7036 97.2985C95.1394 97.2246 95.5409 97.1168 95.9375 96.9253Z" />
        <path d="M4.14269 125.861C10.391 125.546 16.6198 125.63 22.4519 128.231C25.3116 129.504 28.0392 131.126 30.9626 132.242C39.5124 135.504 44.3553 131.245 51.8181 127.869C62.1357 123.205 65.5634 129.372 74.2259 132.532C81.341 135.127 85.8167 130.261 91.7761 127.488C100.757 123.312 106.658 129.777 114.507 132.65C122.092 135.426 128.027 130.847 134.667 127.857C138.32 126.213 149.916 124.869 153.682 126.513C154.72 126.966 155.258 127.525 155.621 128.58C155.493 129.237 155.494 129.512 155.058 130.016C153.966 131.283 152.693 131.25 151.145 131.373C147.933 131.675 144.632 130.837 141.386 131.228C135.627 131.921 131.034 135.986 125.628 137.761C116.069 140.902 111.76 136.997 103.778 133.023C94.9394 128.626 90.4589 135.539 82.7464 137.999C76.1602 140.102 71.0136 136.205 65.4264 133.369C56.4456 128.81 50.9367 135.173 42.7639 137.825C40.0461 138.706 37.2305 139.039 34.4001 138.566C28.0686 137.507 22.8241 132.914 16.4631 131.497C11.9335 130.489 5.78311 132.526 1.62082 130.694C1.51798 130.649 1.42005 130.6 1.32212 130.542C0.435793 129.996 0.166492 129.241 0 128.285C0.137111 127.938 0.244846 127.647 0.494583 127.361C1.48864 126.202 2.72751 126.046 4.14269 125.861Z" />
	</symbol>

</svg>