<svg xmlns="http://www.w3.org/2000/svg">

	<symbol id="partition" viewBox="0 0 112 144">
		<path d="M102.789 54.4897C103.453 54.4864 104.378 54.5851 104.984 55.2632C105.425 55.7559 105.55 56.4137 105.585 56.9263C105.778 59.7449 105.659 62.6922 105.672 65.4683V65.4722L105.626 83.8979V83.8989C105.573 94.9011 105.879 106.019 105.562 117.042L105.557 117.2L105.464 117.327C104.842 118.163 104.153 118.739 103.311 119.286C98.9046 122.145 93.0694 125.008 88.4187 127.616L88.4177 127.615L61.0984 143.03L60.9968 143.087L60.8816 143.094C60.5853 143.111 60.2419 143.121 59.8875 143.047C59.269 142.919 58.6972 142.619 58.3298 141.994C58.0225 141.47 57.9173 140.853 57.8962 140.325C57.8459 139.046 57.8685 137.744 57.9021 136.454C57.9274 135.482 57.9593 134.519 57.9724 133.567L57.9783 132.62L57.9158 114.211V114.208L57.9802 98.3638L57.9539 96.603C57.9083 94.4454 57.8163 91.2221 57.7722 88.0718C57.743 85.9811 57.7351 83.9302 57.7771 82.272C57.7981 81.4434 57.8313 80.707 57.8816 80.1099C57.9306 79.5276 57.9984 79.032 58.1033 78.7144C58.3132 78.0785 58.8491 77.5455 59.3621 77.1362C59.8887 76.7161 60.4774 76.3612 60.8816 76.1128C65.6712 73.1684 71.0936 70.8427 76.0427 68.3188L82.6599 64.9077C89.2716 61.486 95.8675 58.0335 102.447 54.5493L102.552 54.4937L102.671 54.4907C102.696 54.4902 102.744 54.4898 102.786 54.4897V54.4888L102.787 54.4897L102.789 54.4888V54.4897ZM62.1814 80.7329L62.1521 121.333C62.1508 122.754 62.0274 126.438 61.9851 129.944C61.9638 131.708 61.9632 133.437 62.0066 134.842C62.0283 135.545 62.061 136.162 62.1072 136.659C62.122 136.818 62.1384 136.96 62.155 137.087C71.4686 132.046 80.6288 126.669 89.8474 121.42C93.6457 119.258 97.4632 116.907 101.384 114.89L101.406 74.9849L101.382 65.4819C101.376 63.84 101.502 62.0635 101.295 60.5063L62.1814 80.7329Z" />
        <path d="M19.8298 31.5825C20.2259 31.5354 20.6893 31.4824 21.157 31.5317C21.8628 31.6061 22.5565 31.8496 23.1589 32.1479C24.0753 32.6017 24.9648 33.1536 25.8308 33.7085C26.704 34.268 27.5472 34.8263 28.4021 35.3179C29.815 36.1303 34.1551 38.4331 38.3826 40.8149C40.4821 41.9978 42.5398 43.1934 44.155 44.2124C44.9621 44.7216 45.6659 45.1904 46.2107 45.5952C46.7355 45.9852 47.1726 46.3572 47.3855 46.6724C47.6005 46.9907 47.7215 47.2899 47.7576 47.6167C47.7918 47.9271 47.7438 48.2284 47.6882 48.5239L47.6677 48.6323L47.6033 48.7222C47.293 49.1561 46.9681 49.4743 46.3884 49.6694C45.3643 50.0145 44.2441 49.7307 43.4041 49.3765C42.1172 48.8336 40.7926 48.042 39.5066 47.2231C38.2057 46.3948 36.9581 45.5486 35.7703 44.8501C31.618 42.4086 27.3451 40.1071 23.0798 37.8403C23.3044 44.4037 23.1321 51.041 23.075 57.6021L23.0593 60.5327L23.0261 106.23C30.9661 110.657 38.82 115.353 46.8757 119.484L46.8689 93.063L46.8621 92.2642C46.809 88.2487 46.4553 83.9103 46.908 79.8755C46.9578 79.4318 47.0288 79.0372 47.1775 78.6567C47.3282 78.2713 47.5485 77.9248 47.8689 77.5581L47.9802 77.4312L48.1453 77.397C48.3881 77.3473 48.7285 77.2706 49.0632 77.2759C49.3819 77.2808 49.6677 77.3432 49.9324 77.4741C50.128 77.5709 50.2976 77.6981 50.4519 77.8442L50.6023 77.9966L50.6541 78.0532L50.6863 78.1216C51.0612 78.914 51.0736 79.8301 51.0945 80.5435C51.3088 87.9316 51.0556 95.4069 51.0583 102.77C51.0606 108.963 51.3385 115.277 51.2156 121.5C51.2076 121.899 51.2104 122.412 51.1775 122.909C51.1445 123.406 51.0734 123.94 50.8982 124.403V124.404C50.6908 124.95 50.2689 125.169 49.8738 125.295C49.1653 125.522 48.4372 125.257 47.9626 125.065C44.3723 123.613 40.9127 121.399 37.6033 119.55L37.6023 119.549C32.0188 116.412 26.4165 113.31 20.7966 110.239C18.9958 111.422 15.4174 113.866 11.9109 116.115C10.0646 117.299 8.2196 118.442 6.63062 119.338C5.06103 120.224 3.68483 120.903 2.80054 121.118C2.55212 121.178 2.30285 121.231 2.04272 121.208C1.7673 121.185 1.52909 121.082 1.27808 120.932L1.1394 120.85L1.07495 120.702C0.726817 119.896 0.673084 119.009 0.643311 118.249C0.4114 112.301 0.584664 106.291 0.58667 100.371L0.641357 67.3765L0.627686 54.6362C0.588315 51.054 0.226331 47.4023 0.932373 43.731L0.967529 43.5474L1.11304 43.4321C6.24205 39.3834 13.8629 34.6769 19.657 31.6362L19.739 31.5933L19.8298 31.5825ZM18.7693 37.853C14.0348 40.6374 9.29988 43.463 4.67358 46.4097C4.66788 50.2105 4.58749 66.95 4.56128 83.0503C4.54782 91.3166 4.54944 99.4172 4.58276 105.519C4.59942 108.57 4.624 111.12 4.65894 112.94C4.67641 113.851 4.69685 114.576 4.71948 115.088C4.72268 115.161 4.72794 115.228 4.7312 115.292C9.36344 112.254 14.0167 109.189 18.7742 106.328L18.8015 58.7612L18.8064 44.8774V44.8765C18.8112 42.5241 18.9917 40.111 18.7693 37.853Z" />
        <path d="M103.879 0.504883C105.741 0.570216 107.621 1.48275 108.86 2.85547H108.861C110.695 4.88793 111.451 8.23362 111.276 10.8281C111.203 11.9056 111 12.9611 110.459 13.9688C109.396 15.9508 108.037 17.7826 106.614 19.541C105.169 21.3267 103.716 22.9713 102.347 24.707C101.174 26.1943 100.094 27.76 98.8726 29.3564C97.6747 30.9225 96.391 32.448 94.9194 33.7021C94.3347 34.2004 93.504 34.9122 92.4009 34.7705C91.3939 34.6409 90.562 34.0223 89.8872 33.3447C89.3745 32.8299 88.9056 32.2306 88.5024 31.7158L87.7173 32.5508L87.7183 32.5518C86.0677 34.3193 84.8844 35.647 84.1196 37.1387C83.396 38.55 83.0346 40.1377 83.0757 42.4258C83.7699 42.7853 84.5372 43.134 85.3442 43.501C86.2445 43.9104 87.1878 44.3433 88.0864 44.835C89.8757 45.8138 91.5644 47.0653 92.4341 48.9404L92.436 48.9434C92.4754 49.0297 92.5121 49.1171 92.5474 49.2051L92.5483 49.2061C92.5837 49.2945 92.617 49.3837 92.6479 49.4736C92.6789 49.5638 92.7075 49.6547 92.7339 49.7461L92.8062 50.0234L92.8657 50.3027C92.8832 50.3965 92.898 50.4912 92.9106 50.5859L92.9419 50.8711C92.9499 50.9657 92.956 51.0604 92.9595 51.1553C92.963 51.2508 92.9637 51.3468 92.9624 51.4424C92.9611 51.5379 92.9577 51.6333 92.9517 51.7285C92.9458 51.8237 92.9379 51.919 92.9272 52.0137C92.9166 52.1083 92.9034 52.2029 92.8882 52.2969C92.8729 52.3913 92.8555 52.4856 92.8354 52.5791L92.769 52.8564L92.689 53.1309C92.66 53.2217 92.6286 53.3121 92.5952 53.4014L92.5942 53.4043C92.1502 54.5684 91.3415 55.5156 90.353 56.208C88.4102 57.5691 86.2034 58.6951 83.9722 59.7285C81.7153 60.7738 79.4895 61.7011 77.3862 62.7139C70.446 66.0563 63.5291 69.6433 56.478 72.8086L56.4702 72.8125L56.4614 72.8164C56.3794 72.8498 56.2819 72.8898 56.1831 72.9258C53.5395 73.8887 50.4912 73.9158 47.8872 72.666C45.6978 71.6153 43.9273 69.5297 43.1567 67.2451C42.5198 65.3562 42.3465 62.6365 43.3198 60.7227C44.541 58.321 46.534 55.791 48.6353 53.3652C49.6885 52.1493 50.7768 50.9507 51.8159 49.8027C52.8569 48.6526 53.848 47.5534 54.7163 46.5273L55.6616 45.3877C57.8643 42.6845 60.0717 39.7188 62.6675 37.3477C63.456 36.6272 64.3499 36.0795 65.3833 35.748C67.6102 35.0341 70.3073 35.8419 72.7944 36.9727C74.9887 37.9703 77.1846 39.3024 78.8706 40.2383C79.4943 34.9614 82.5306 31.9995 85.6831 28.2529C84.9162 27.41 84.0385 26.3864 83.6636 25.2021C83.344 24.1938 83.3875 23.1886 83.8755 22.2256C84.2479 21.4908 85.2748 19.987 86.6069 18.1504C87.9501 16.2986 89.6317 14.07 91.3403 11.8672C93.0489 9.66443 94.787 7.48355 96.2437 5.72559C97.6878 3.98265 98.8848 2.61922 99.4985 2.08203C100.427 1.26951 101.597 0.879394 102.631 0.550781L102.692 0.53125L102.756 0.52832C103.115 0.509385 103.496 0.491403 103.879 0.504883ZM73.1978 42.1904C70.7461 40.9061 68.3305 39.9835 66.2505 40.1504C65.5534 40.7207 64.2706 42.0362 62.6655 43.7939C60.9839 45.6355 58.979 47.9248 56.9878 50.2539C52.998 54.9207 49.088 59.716 47.9253 61.3887C47.3835 62.1679 46.9481 62.8362 46.8491 63.6494C46.7029 64.8527 47.1074 66.0927 47.8735 67.0596C48.7612 68.1801 50.131 68.8462 51.5747 69.001C53.2964 69.1855 55.5077 68.369 57.8179 67.2334C58.9588 66.6726 60.094 66.05 61.1763 65.4629C62.252 64.8793 63.2812 64.3273 64.188 63.9238C68.9217 61.614 73.6699 59.3339 78.4321 57.084C81.434 55.666 84.5887 54.4112 87.3345 52.6953C87.6678 52.487 88.0056 52.2677 88.2905 52.0156C88.5343 51.7998 88.7163 51.5789 88.8237 51.3477C88.6958 50.8423 88.2949 50.4404 87.7446 50.041C86.6569 49.2517 85.3928 48.5992 84.0728 47.9805C82.7707 47.3702 81.3823 46.7793 80.1323 46.1436C79.1266 45.6319 78.0069 44.9641 76.8403 44.2695C75.6677 43.5713 74.4407 42.8415 73.1978 42.1904ZM103.219 5.26855C102.939 5.45242 102.552 5.78476 102.069 6.26367C101.533 6.79448 100.907 7.47673 100.218 8.26953C98.8407 9.85469 97.2275 11.862 95.603 13.9385C92.5451 17.8472 89.4273 22.0261 87.8442 24.0059C89.4233 25.894 90.9626 27.792 92.6079 29.5869C92.7731 29.4385 93.0151 29.1989 93.3286 28.8613C93.768 28.3882 94.3167 27.7632 94.9399 27.0312C96.1859 25.5681 97.7184 23.6897 99.2505 21.7715C102.323 17.9243 105.362 13.9534 106.082 12.8389C106.568 12.086 106.941 11.3588 107.093 10.5352C107.307 9.38432 107.077 8.06208 106.472 7.05664L106.346 6.86035C105.77 6.01478 104.913 5.47685 103.905 5.30762C103.686 5.27074 103.462 5.26241 103.219 5.26855Z" />
	</symbol>

</svg>