<svg width="116" height="121" viewBox="0 0 116 121" fill="none" xmlns="http://www.w3.org/2000/svg">
<g clip-path="url(#clip0_1_2467)">
<mask id="path-1-outside-1_1_2467" maskUnits="userSpaceOnUse" x="0.279297" y="0.786133" width="115" height="120" fill="black">
<rect fill="white" x="0.279297" y="0.786133" width="115" height="120"/>
<path d="M112.379 1.78678C112.896 1.77737 113.362 1.86735 113.741 2.24563C114.216 2.71898 114.225 3.32336 114.236 3.95197C114.255 5.12107 114.196 6.29542 114.192 7.46545L114.189 16.3923L114.169 50.3627L114.134 93.5001C114.185 101.448 114.188 109.395 114.14 117.343C114.135 117.783 114.206 118.507 113.876 118.828C113.477 119.214 112.944 119.34 112.404 119.373C111.62 119.421 110.81 119.354 110.023 119.34C108.561 119.321 107.098 119.317 105.636 119.329C96.7958 119.401 87.9559 119.396 79.116 119.315L30.8465 119.277C24.0232 119.2 17.1998 119.183 10.3762 119.225C7.65925 119.223 4.95419 119.156 2.23553 119.203C2.05077 119.082 1.85534 118.961 1.69267 118.81C1.40331 118.542 1.29208 118.222 1.28034 117.833C1.26937 117.471 1.34245 117.153 1.61542 116.9C2.41427 116.158 4.65588 116.464 5.71844 116.495C5.61308 116.331 5.509 116.165 5.40622 115.999C4.57292 114.647 4.27414 113.159 4.46509 111.582C4.73003 109.394 5.85099 107.341 6.6812 105.323C7.84232 102.448 8.98604 99.565 10.1123 96.6755C10.9609 94.5032 11.9443 92.2966 12.4351 90.011C12.8781 87.9479 12.9906 85.7833 13.1996 83.6863C13.5363 80.1304 13.9206 76.5796 14.3525 73.034C14.9262 68.5988 15.8707 64.322 16.8276 59.9626C17.4159 57.1555 18.031 54.3543 18.6729 51.559C17.9822 52.3131 17.103 52.9943 16.5707 53.8751C15.7164 55.2885 15.5234 57.1531 15.2829 58.7591L14.4771 64.3192C14.1934 66.2804 14.0145 68.2406 13.2447 70.0843C12.9532 70.7015 12.4834 71.2338 11.949 71.6532C10.6914 72.64 9.15391 72.9893 7.58016 72.7781C6.1252 72.5827 4.74161 71.8823 3.85718 70.6912C3.24248 69.8632 2.89117 68.8733 2.7733 67.8534C2.52149 65.6755 3.11951 61.5481 3.31045 59.2591C3.49182 57.0855 3.51252 54.8325 3.83941 52.6781C4.02248 51.4716 4.43202 50.3831 5.03483 49.3239C6.37609 46.967 8.25325 44.8717 9.88865 42.7119C11.6696 40.3603 13.3458 37.8611 15.3158 35.666C15.7196 35.2082 16.1478 34.7746 16.6005 34.3649C17.0531 33.9553 17.5274 33.5724 18.0232 33.2162C21.0682 31.0115 24.4461 30.2111 28.1447 29.985C29.346 29.9117 30.6189 29.8619 31.8103 30.0517C29.432 28.2705 27.6637 26.2817 26.695 23.4246C26.6595 23.3215 26.6254 23.218 26.5925 23.114C26.5597 23.01 26.5281 22.9057 26.4978 22.801C26.4676 22.6962 26.4386 22.5911 26.411 22.4857C26.3833 22.3802 26.357 22.2744 26.3321 22.1683C26.307 22.0622 26.2834 21.9557 26.261 21.849C26.2387 21.7423 26.2176 21.6354 26.198 21.5281C26.1783 21.4209 26.1599 21.3135 26.1428 21.2057C26.1258 21.098 26.1102 20.9901 26.0959 20.8821C26.0815 20.774 26.0686 20.6657 26.0571 20.5574C26.0454 20.4489 26.0351 20.3404 26.0262 20.2317C26.0173 20.1231 26.0098 20.0143 26.0036 19.9054C25.9974 19.7967 25.9926 19.6878 25.9891 19.5789C25.9856 19.4698 25.9835 19.3608 25.9828 19.2518C25.982 19.1428 25.9825 19.0338 25.9845 18.9248C25.9864 18.8158 25.9898 18.7069 25.9945 18.5979C25.9991 18.4889 26.0052 18.3801 26.0126 18.2713C26.0199 18.1626 26.0286 18.0539 26.0387 17.9454C26.0488 17.8368 26.0603 17.7284 26.0731 17.6202C26.0859 17.5119 26.1 17.4039 26.1155 17.2959C26.131 17.188 26.1479 17.0803 26.166 16.9727C26.1842 16.8652 26.2037 16.758 26.2245 16.6509C26.2455 16.5439 26.2676 16.4372 26.2911 16.3309C26.3146 16.2244 26.3394 16.1182 26.3656 16.0123C26.3919 15.9064 26.4194 15.8009 26.4481 15.6958C26.4769 15.5906 26.507 15.4859 26.5385 15.3815C26.5698 15.2771 26.6025 15.1731 26.6366 15.0695C26.6705 14.9659 26.7058 14.8627 26.7424 14.76C26.7789 14.6573 26.8168 14.5551 26.8559 14.4532C26.895 14.3514 26.9353 14.2502 26.9771 14.1495C27.0187 14.0487 27.0616 13.9485 27.1057 13.8488C27.1498 13.7491 27.1952 13.6499 27.2418 13.5513C27.2885 13.4527 27.3363 13.3547 27.3854 13.2574C27.4356 13.1573 27.4871 13.0578 27.5398 12.9589C27.5926 12.86 27.6465 12.7618 27.7017 12.6643C27.757 12.5667 27.8134 12.4699 27.8711 12.3738C27.9286 12.2776 27.9874 12.1822 28.0475 12.0875C28.1074 11.9929 28.1686 11.899 28.231 11.8059C28.2933 11.7127 28.3568 11.6204 28.4215 11.5288C28.4861 11.4373 28.5518 11.3466 28.6188 11.2567C28.6857 11.1668 28.7538 11.0777 28.8229 10.9894C28.8921 10.9012 28.9623 10.8139 29.0336 10.7275C29.105 10.641 29.1774 10.5554 29.2508 10.4707C29.3242 10.3861 29.3987 10.3024 29.4743 10.2196C29.5498 10.1368 29.6264 10.0549 29.7041 9.97404C29.7816 9.89316 29.8602 9.81322 29.9398 9.7342C30.0194 9.65528 30.0999 9.57739 30.1814 9.50053C30.263 9.42357 30.3455 9.34763 30.4289 9.27273C30.5123 9.19793 30.5967 9.1241 30.682 9.05126C30.7672 8.97851 30.8534 8.90685 30.9406 8.83627C31.0276 8.76558 31.1155 8.69603 31.2043 8.6276C31.2932 8.55918 31.3828 8.49189 31.4732 8.42573C31.5638 8.35957 31.6551 8.29449 31.7471 8.23049C31.8392 8.1666 31.9321 8.10384 32.0258 8.0422C32.1195 7.98067 32.2139 7.92028 32.3092 7.86101C32.4043 7.80175 32.5002 7.74366 32.5968 7.68676C32.6934 7.62997 32.7908 7.57436 32.8888 7.51993C32.9868 7.4655 33.0856 7.41225 33.1849 7.36019C33.2842 7.30823 33.3842 7.2575 33.4848 7.20801C33.5854 7.15852 33.6867 7.11032 33.7885 7.0634C33.8904 7.01648 33.9928 6.9708 34.0958 6.92635C34.1987 6.8819 34.3021 6.83879 34.4062 6.79701C34.5103 6.75514 34.6149 6.7146 34.7199 6.6754C34.825 6.6362 34.9305 6.59828 35.0365 6.56165C35.1424 6.52512 35.2489 6.48988 35.3558 6.45593C35.4607 6.42187 35.566 6.3891 35.6717 6.35762C35.7775 6.32613 35.8836 6.29594 35.9901 6.26702C36.0965 6.23821 36.2033 6.21074 36.3105 6.18461C36.4177 6.15847 36.5252 6.13362 36.6329 6.11006C36.7408 6.0866 36.8489 6.06448 36.9572 6.0437C37.0656 6.02291 37.1741 6.00347 37.2829 5.98536C37.3917 5.96735 37.5008 5.95063 37.6101 5.9352C37.7192 5.91987 37.8287 5.90588 37.9383 5.89322C38.0479 5.88056 38.1577 5.8693 38.2676 5.85942C38.3774 5.84954 38.4873 5.84105 38.5974 5.83395C38.7075 5.82675 38.8177 5.82094 38.928 5.81651C39.0382 5.81219 39.1484 5.80921 39.2588 5.80756C39.3691 5.80592 39.4794 5.80561 39.5897 5.80664C39.7 5.80777 39.8103 5.81029 39.9206 5.8142C40.0308 5.818 40.141 5.8232 40.2512 5.82979C40.3613 5.83637 40.4713 5.84434 40.5812 5.85371C40.691 5.86307 40.8008 5.87382 40.9105 5.88596C41.0202 5.898 41.1297 5.91143 41.239 5.92625C41.3483 5.94106 41.4575 5.95727 41.5663 5.97486C41.6753 5.99235 41.784 6.01124 41.8924 6.03151C42.0009 6.05177 42.109 6.07338 42.2169 6.09633C42.3248 6.11927 42.4324 6.14355 42.5397 6.16917C42.6471 6.19479 42.754 6.22175 42.8606 6.25005C42.9672 6.27834 43.0734 6.30797 43.1793 6.33894C43.2852 6.36991 43.3907 6.40217 43.4957 6.43571C43.6009 6.46936 43.7055 6.50429 43.8096 6.54051C43.9138 6.57662 44.0176 6.61407 44.1209 6.65286C44.2242 6.69165 44.327 6.73173 44.4293 6.77309C44.5314 6.81445 44.6331 6.8571 44.7344 6.90104C44.8356 6.94487 44.9362 6.98999 45.0362 7.03639C45.1364 7.0828 45.2358 7.13043 45.3347 7.17931C45.4336 7.22818 45.5318 7.27829 45.6295 7.32963C45.7253 7.37964 45.8204 7.43077 45.9148 7.48304C46.0094 7.53531 46.1032 7.58876 46.1963 7.6434C46.2895 7.69803 46.382 7.7538 46.4737 7.8107C46.5656 7.8676 46.6567 7.92563 46.747 7.98479C46.8374 8.04395 46.927 8.10419 47.0158 8.16552C47.1047 8.22694 47.1928 8.2894 47.2802 8.35288C47.3675 8.41647 47.454 8.48109 47.5397 8.54673C47.6254 8.61237 47.7103 8.6791 47.7944 8.7469C47.8785 8.81471 47.9617 8.88349 48.0441 8.95325C48.1265 9.02312 48.208 9.09396 48.2885 9.16577C48.3691 9.2377 48.4489 9.31054 48.5276 9.38432C48.6065 9.45809 48.6844 9.53284 48.7614 9.60857C48.8383 9.6843 48.9143 9.761 48.9894 9.83868C49.0645 9.91626 49.1386 9.99477 49.2117 10.0742C49.2848 10.1536 49.357 10.2339 49.4282 10.3151C49.4993 10.3964 49.5695 10.4785 49.6386 10.5614C49.7077 10.6444 49.7757 10.7281 49.8428 10.8127C49.9098 10.8974 49.9758 10.9828 50.0407 11.0691C50.1057 11.1554 50.1695 11.2424 50.2323 11.3302C50.2951 11.4181 50.3568 11.5067 50.4173 11.596C50.4779 11.6854 50.5374 11.7755 50.5958 11.8664C50.654 11.9571 50.7113 12.0486 50.7674 12.1409C50.8234 12.2331 50.8784 12.326 50.9322 12.4197C50.986 12.5133 51.0386 12.6075 51.0901 12.7024C51.1415 12.7973 51.1918 12.8927 51.2409 12.9888C51.29 13.0851 51.3379 13.1818 51.3846 13.2792C51.4313 13.3764 51.4769 13.4742 51.5211 13.5727C51.5654 13.6712 51.6085 13.7702 51.6503 13.8696C51.6921 13.9691 51.7327 14.0692 51.772 14.1697C51.8114 14.2702 51.8495 14.3712 51.8863 14.4726C51.9232 14.5741 51.9588 14.676 51.9932 14.7782C52.0275 14.8806 52.0606 14.9833 52.0924 15.0864C53.0954 18.3948 52.8366 22.1902 51.1929 25.2534C49.0957 29.1612 46.1299 30.7732 42.0353 32.0007C42.6669 32.3459 43.3513 32.6055 44.005 32.9069C44.6434 33.1939 45.2601 33.5214 45.8553 33.8896C46.4504 34.2578 47.0188 34.6635 47.5604 35.1065C50.0566 37.183 52.4295 41.6935 54.1996 44.5056C55.7803 47.017 57.4077 49.496 58.9299 52.0441C61.3653 52.4494 63.8198 52.6591 66.2785 52.8651C67.4263 52.9613 68.6584 53.1466 69.805 53.0505C72.8656 52.794 72.2642 50.8358 76.6813 51.7945C77.8418 50.8927 79.0232 50.0121 80.1247 49.0384L77.7613 46.765C76.6833 45.7135 74.939 44.2227 74.9611 42.595C74.968 42.079 75.1632 41.6009 75.446 41.1757C76.0087 40.3298 76.8479 39.6118 77.5662 38.8997C78.5871 37.8977 79.5972 36.8852 80.5968 35.862C79.9711 34.9755 79.4545 34.0765 79.1041 33.0455C78.6033 31.5721 78.3691 29.9451 78.3997 28.3904C78.5338 21.5715 84.9321 22.4833 86.4134 19.4404L86.4599 19.3427C86.4339 18.3959 86.1849 17.5396 85.9567 16.6286C85.4716 14.6923 85.357 12.782 86.1847 10.9184C87.3571 8.27865 90.7615 5.4691 93.8222 5.98922C95.1334 6.21192 96.2933 7.07374 97.6705 6.86971C98.9636 6.67802 100.78 5.26908 102.121 4.75745C105.239 3.56752 108.424 5.35428 111.227 6.61922C111.189 5.43931 110.988 3.89425 111.413 2.77207C111.612 2.24485 111.88 2.024 112.379 1.78678ZM79.2581 53.8284C79.7482 54.9194 80.0865 56.1971 79.6493 57.3711C79.412 58.0084 78.9433 58.6285 78.5131 59.1477C77.3927 60.4991 71.5 66.4957 70.2409 67.0274C69.0419 67.5336 67.6123 67.552 66.4082 67.0482C66.3384 67.0185 66.2694 66.9871 66.2011 66.9541C66.1328 66.9209 66.0653 66.8862 65.9987 66.8499C65.9321 66.8135 65.8664 66.7754 65.8017 66.7358C65.737 66.6963 65.6732 66.6552 65.6105 66.6125C65.5478 66.5698 65.4861 66.5256 65.4256 66.4799C65.365 66.4342 65.3056 66.387 65.2474 66.3384C65.1892 66.2899 65.1321 66.2398 65.0763 66.1884C65.0204 66.1371 64.9659 66.0843 64.9127 66.0302C64.8595 65.9762 64.8077 65.9209 64.7571 65.8643C64.7065 65.8077 64.6574 65.7499 64.6097 65.691C64.562 65.6319 64.5158 65.5718 64.4711 65.5106C64.4263 65.4493 64.3831 65.387 64.3414 65.3237C64.2997 65.2603 64.2595 65.196 64.221 65.1307C64.1825 65.0654 64.1456 64.9992 64.1103 64.9321C64.0749 64.8649 64.0413 64.797 64.0092 64.7282C63.9773 64.6595 63.947 64.59 63.9184 64.5197C63.8005 64.2269 63.7061 63.9181 63.6297 63.6122L58.2979 63.4182C55.2375 63.3051 51.8802 63.4758 49.6118 61.0473C48.9258 60.3126 48.3812 59.4453 47.8148 58.6179C46.764 57.0827 45.727 55.4672 44.5182 54.0535C43.867 57.1442 43.1794 60.2267 42.4554 63.3012C41.9922 65.2696 41.3148 67.3822 41.1707 69.3995C42.0681 71.2798 43.2031 73.0669 44.2558 74.8647L48.9837 83.0305C49.8589 84.5617 50.9078 86.0614 51.5122 87.7279C52.5832 90.6818 52.2821 98.1793 52.3328 101.575C52.3737 104.32 52.5299 107.079 52.5049 109.823C54.7334 110.707 56.6496 111.595 57.6578 113.917C58.0219 114.755 58.1928 115.632 58.3277 116.531C58.9554 116.533 59.5831 116.531 60.2107 116.524L93.7686 116.531C99.6022 116.532 105.465 116.661 111.295 116.52L111.235 90.6134L111.224 82.2374C111.221 80.6181 111.137 78.9439 111.275 77.3327C110.241 76.9625 109.25 76.4975 108.225 76.1045C107.212 75.7162 106.165 75.3915 105.175 74.9493C102.401 73.7108 99.9175 71.6096 98.6025 68.8364C98.4486 68.5116 98.3106 68.1802 98.1888 67.842C98.067 67.5039 97.9618 67.1606 97.8733 66.8122C97.7849 66.4639 97.7135 66.1122 97.6592 65.7569C97.6049 65.4017 97.568 65.0447 97.5485 64.6858C97.309 60.4773 98.8404 56.789 95.2126 53.5277C93.8023 54.9695 92.0263 57.2559 89.8326 57.2708C87.5519 57.2864 84.8841 53.8669 83.3354 52.3498C83.0337 52.0542 82.6668 51.6005 82.3162 51.3818C81.2356 52.1222 80.2521 52.978 79.2581 53.8284ZM20.5932 116.371C20.3965 115.49 20.1019 114.793 19.3162 114.271C18.4046 113.665 16.37 113.468 16.0692 112.29C16.0056 112.04 16.0137 111.814 16.0785 111.564C16.3389 110.56 16.8642 109.572 17.2934 108.63C17.9478 107.203 18.5943 105.773 19.2329 104.339L22.1569 97.6695C23.1132 95.5053 24.2303 93.3287 24.7409 91.009C25.2091 88.8824 25.5746 86.7212 25.9604 84.5781C26.2431 83.0077 26.7523 78.8985 27.5046 77.6746C27.9458 77.4156 28.3705 77.2033 28.8924 77.3439C29.052 77.3868 29.2052 77.4453 29.3486 77.5277C30.2874 78.4698 31.0467 79.679 31.8329 80.7535L35.6197 85.8756C36.3366 86.8463 37.0675 87.8063 37.8124 88.7557C38.565 89.7172 39.5994 90.7895 40.0894 91.9063C40.7435 93.3966 40.6304 95.3485 40.6269 96.9475L40.5958 107.418C40.5895 109.346 40.3598 111.389 40.7509 113.287C40.7707 113.38 40.7938 113.473 40.8203 113.566C40.8468 113.658 40.8765 113.749 40.9094 113.839C40.9425 113.929 40.9787 114.018 41.018 114.105C41.0575 114.193 41.1 114.279 41.1455 114.363C41.1911 114.447 41.2397 114.53 41.2912 114.611C41.3427 114.692 41.397 114.771 41.4542 114.848C41.5113 114.925 41.5712 115 41.6337 115.073C41.6963 115.145 41.7614 115.216 41.8289 115.284C42.3806 115.829 43.1033 116.084 43.8512 116.226C45.2195 116.487 46.6894 116.384 48.0793 116.379C50.4969 116.371 52.931 116.318 55.3473 116.39C55.2418 115.41 55.0558 114.52 54.2495 113.855C52.7135 112.587 49.7294 113.274 49.4319 110.814C49.2639 109.427 49.4312 107.91 49.428 106.506L49.4031 99.3603C49.4059 97.5333 49.4556 95.6925 49.3673 93.8673C49.2922 92.3164 49.2792 90.623 48.8056 89.1347C48.1624 87.1134 46.8275 85.2086 45.7616 83.3803L41.1854 75.4843C40.1458 73.7043 39.017 71.9364 38.1355 70.0718C38.2277 68.7282 38.6005 67.3831 38.8945 66.0719L40.0661 60.7787C40.6433 58.0781 41.2403 55.3817 41.8574 52.6898C42.0662 51.7854 42.1917 50.8236 42.4562 49.9371C42.5581 49.5954 42.7066 49.1774 42.989 48.9404C43.2491 48.7221 43.6184 48.6036 43.9572 48.6417C44.5317 48.7067 44.9911 49.3321 45.3122 49.7704C46.5973 51.5243 47.7733 53.3795 48.9832 55.187C49.9568 56.6411 50.9427 58.4751 52.3242 59.5706C52.873 60.0057 53.6535 60.1943 54.336 60.3022C57.4928 60.8017 60.7526 60.4841 63.8651 60.7791C64.5822 58.736 66.3461 57.3569 67.857 55.8897C65.5077 55.7432 63.1835 55.4685 60.8489 55.1786C59.8104 55.0498 58.6243 55.005 57.6346 54.6633C57.2127 54.5176 56.9008 54.3316 56.6005 53.9989C55.9704 53.301 55.5074 52.3635 55.0142 51.5622C54.404 50.5706 53.7621 49.5954 53.1419 48.6096L49.1607 42.2798C45.9279 37.1476 44.0654 35.3981 38.1091 34.0259C36.8346 33.7266 35.5503 33.4786 34.256 33.282C32.9617 33.0853 31.6616 32.9407 30.3557 32.8481C29.4847 32.7898 28.6133 32.7828 27.7415 32.8271C22.9694 33.3209 19.9104 34.6401 16.8441 38.4049C15.3941 40.1853 14.0584 42.0696 12.6706 43.8988C11.2134 45.8198 7.49967 50.1249 6.8964 52.2771C6.33499 54.2802 6.31785 57.8874 6.12906 60.0595C5.94213 62.2113 5.41348 65.3712 5.64305 67.4287C5.73589 68.2619 6.08689 69.0635 6.7569 69.5903C6.82878 69.6466 6.9033 69.6992 6.98044 69.7482C7.05748 69.7972 7.13678 69.8422 7.21835 69.8832C7.30002 69.9243 7.38344 69.9612 7.46862 69.9939C7.55389 70.0267 7.64056 70.0552 7.72862 70.0794C7.81678 70.1035 7.90587 70.1232 7.99588 70.1385C8.086 70.1538 8.17658 70.1647 8.26762 70.1711C8.35877 70.1773 8.45002 70.1791 8.54137 70.1765C8.63262 70.1737 8.72356 70.1664 8.8142 70.1547C9.49471 70.0664 10.0714 69.7139 10.4822 69.1674C10.8058 68.7368 10.9948 68.2056 11.1392 67.6912C11.5233 66.3231 11.6918 64.8611 11.926 63.4596C12.261 61.4563 12.6258 59.4606 12.9297 57.4519C13.1639 55.9028 13.2501 54.1395 13.9323 52.7091C14.7939 50.9026 16.7862 49.1185 18.0734 47.5397C18.8248 46.6179 19.9943 44.6831 21.2315 44.4529C21.5811 44.3877 21.9326 44.5073 22.2101 44.7191C22.5763 44.9987 22.8461 45.4556 22.9059 45.9135C22.9581 46.314 22.8777 46.7878 22.8044 47.1848C22.5315 48.6598 22.1001 50.1408 21.7661 51.6082L18.9722 63.8323C18.4591 66.1779 17.9397 68.5454 17.5898 70.9208C17.0313 74.7135 16.7403 78.5557 16.3332 82.3675C16.0765 84.7721 15.9598 88.3283 15.4 90.562C14.7854 93.013 13.7456 95.3611 12.8166 97.7049C11.7445 100.41 10.7076 103.133 9.60857 105.828C8.88449 107.603 7.8967 109.461 7.50322 111.34C7.19981 112.789 7.4025 114.257 8.59405 115.269C9.11158 115.708 9.7269 115.991 10.3864 116.141C12.3071 116.577 14.524 116.379 16.4888 116.375C17.8503 116.372 19.2343 116.435 20.5932 116.371ZM39.5333 8.83364C39.3655 8.83045 39.1978 8.83143 39.0301 8.83658C38.8624 8.84162 38.695 8.85083 38.5277 8.8642C38.3605 8.87747 38.1937 8.89486 38.0273 8.91637C37.8609 8.93787 37.6951 8.96344 37.53 8.99307C37.3648 9.0227 37.2005 9.0564 37.0371 9.09416C36.8736 9.13182 36.7112 9.17349 36.5498 9.21917C36.3883 9.26486 36.2281 9.3145 36.0692 9.36811C35.9102 9.42161 35.7526 9.47903 35.5965 9.54035C35.4404 9.60157 35.2858 9.66665 35.1329 9.73559C34.9799 9.80442 34.8287 9.87696 34.6793 9.9532C34.53 10.0295 34.3825 10.1095 34.237 10.193C34.0916 10.2766 33.9483 10.3636 33.8071 10.4542C33.666 10.5447 33.5271 10.6387 33.3906 10.7362C33.254 10.8335 33.1199 10.9342 32.9883 11.0382C32.8568 11.1421 32.7278 11.2492 32.6014 11.3595C32.4752 11.4698 32.3516 11.5831 32.2308 11.6995C32.1101 11.8159 31.9923 11.9351 31.8774 12.0573C31.7625 12.1795 31.6507 12.3044 31.542 12.432C31.4332 12.5597 31.3277 12.6899 31.2254 12.8228C31.1231 12.9556 31.024 13.0909 30.9284 13.2285C30.8327 13.3662 30.7405 13.5061 30.6517 13.6483C30.5629 13.7905 30.4777 13.9348 30.396 14.0812C30.3143 14.2277 30.2363 14.376 30.162 14.5262C30.0875 14.6764 30.0168 14.8284 29.95 14.9821C29.8831 15.1358 29.8199 15.2911 29.7606 15.4479C29.7014 15.6047 29.646 15.7628 29.5945 15.9223C29.543 16.0818 29.4954 16.2425 29.4518 16.4043C29.4082 16.5662 29.3686 16.729 29.333 16.8928C29.2974 17.0566 29.2659 17.2212 29.2384 17.3865C29.2109 17.5519 29.1875 17.7178 29.1681 17.8843C29.1489 18.0507 29.1337 18.2176 29.1226 18.3849C29.1114 18.5521 29.1044 18.7195 29.1016 18.8871C29.0987 19.0547 29.0999 19.2223 29.1053 19.3898C29.1106 19.5573 29.1201 19.7246 29.1337 19.8917C29.1473 20.0587 29.165 20.2253 29.1868 20.3916C29.2086 20.5578 29.2344 20.7233 29.2644 20.8883C29.2943 21.0532 29.3282 21.2173 29.3662 21.3804C29.4042 21.5437 29.4462 21.7059 29.4922 21.8671C29.5382 22.0283 29.5881 22.1883 29.642 22.3471C29.6958 22.5058 29.7535 22.6631 29.8151 22.819C29.8767 22.9749 29.9421 23.1292 30.0113 23.2819C30.0805 23.4346 30.1535 23.5855 30.2301 23.7345C30.3066 23.8837 30.3868 24.0309 30.4708 24.1761C30.5546 24.3213 30.6419 24.4643 30.7328 24.6052C30.8237 24.746 30.918 24.8846 31.0156 25.0208C31.1134 25.1571 31.2144 25.2909 31.3186 25.4222C31.4229 25.5535 31.5304 25.6822 31.641 25.8082C31.7516 25.9343 31.8653 26.0575 31.982 26.1778C32.0986 26.2983 32.2182 26.4158 32.3407 26.5304C32.4631 26.645 32.5883 26.7565 32.7162 26.865C32.8442 26.9733 32.9747 27.0785 33.1079 27.1806C33.2409 27.2825 33.3765 27.3812 33.5145 27.4766C33.6524 27.572 33.7926 27.6639 33.9351 27.7524C34.0777 27.8409 34.2223 27.9258 34.3689 28.0072C34.5156 28.0886 34.6642 28.1663 34.8146 28.2404C34.9651 28.3145 35.1173 28.3848 35.2713 28.4514C35.4253 28.518 35.5808 28.5807 35.7378 28.6397C35.8949 28.6987 36.0533 28.7538 36.213 28.805C36.3728 28.8562 36.5337 28.9034 36.6958 28.9466C36.8578 28.99 37.0209 29.0293 37.1849 29.0646C37.3489 29.0999 37.5137 29.1311 37.6793 29.1584C37.8448 29.1856 38.0109 29.2087 38.1777 29.2277C38.3443 29.2467 38.5113 29.2616 38.6788 29.2725C38.8462 29.2834 39.0137 29.2901 39.1815 29.2927C39.349 29.2952 39.5163 29.2938 39.6836 29.2882C39.851 29.2826 40.0181 29.2729 40.1849 29.259C40.3517 29.2452 40.5182 29.2274 40.6842 29.2055C40.8502 29.1836 41.0156 29.1576 41.1803 29.1275C41.3449 29.0975 41.5088 29.0634 41.6718 29.0254C41.8349 28.9873 41.9969 28.9453 42.1578 28.8993C42.3188 28.8533 42.4786 28.8033 42.6371 28.7494C42.7956 28.6956 42.9527 28.6379 43.1084 28.5764C43.264 28.5149 43.4181 28.4496 43.5706 28.3805C43.7232 28.3114 43.8738 28.2386 44.0227 28.1622C44.1716 28.0857 44.3186 28.0057 44.4636 27.922C44.6086 27.8383 44.7514 27.7511 44.8921 27.6604C45.0328 27.5698 45.1712 27.4757 45.3072 27.3783C45.4433 27.2808 45.5769 27.1801 45.7081 27.0761C45.8392 26.9721 45.9677 26.8649 46.0936 26.7546C46.2194 26.6443 46.3425 26.531 46.4628 26.4148C46.5832 26.2984 46.7006 26.1792 46.815 26.0572C46.9294 25.935 47.0408 25.8102 47.1492 25.6827C47.2575 25.5552 47.3627 25.425 47.4646 25.2924C47.5666 25.1597 47.6652 25.0246 47.7605 24.8871C47.8558 24.7496 47.9477 24.6098 48.0361 24.4678C48.1245 24.3258 48.2095 24.1817 48.2908 24.0355C48.3722 23.8893 48.4499 23.7412 48.5241 23.5912C48.5982 23.4413 48.6686 23.2895 48.7353 23.136C48.8019 22.9826 48.8647 22.8277 48.9237 22.6712C48.9829 22.5147 49.0381 22.3568 49.0894 22.1975C49.1406 22.0383 49.188 21.878 49.2313 21.7164C49.2748 21.5549 49.3142 21.3924 49.3497 21.2289C49.3851 21.0654 49.4165 20.9011 49.4439 20.7361C49.4713 20.5711 49.4946 20.4055 49.5139 20.2394C49.5331 20.0733 49.5483 19.9067 49.5595 19.7398C49.5705 19.5729 49.5774 19.4058 49.5803 19.2386C49.5832 19.0714 49.582 18.9042 49.5766 18.737C49.5713 18.5698 49.5618 18.4028 49.5483 18.2361C49.5348 18.0694 49.5172 17.903 49.4955 17.7372C49.4738 17.5713 49.448 17.4061 49.4183 17.2416C49.3885 17.077 49.3547 16.9132 49.3168 16.7502C49.279 16.5873 49.2371 16.4254 49.1913 16.2645C49.1455 16.1036 49.0958 15.9439 49.0422 15.7854C48.9886 15.627 48.9311 15.47 48.8697 15.3144C48.8084 15.1587 48.7433 15.0047 48.6744 14.8523C48.6054 14.6998 48.5328 14.5491 48.4566 14.4003C48.3803 14.2514 48.3003 14.1044 48.2168 13.9595C48.1333 13.8145 48.0463 13.6716 47.9557 13.5309C47.8652 13.3902 47.7713 13.2518 47.674 13.1157C47.5766 12.9796 47.476 12.8459 47.3721 12.7147C47.2683 12.5836 47.1613 12.455 47.0511 12.3292C46.9409 12.2033 46.8276 12.0801 46.7113 11.9597C46.5951 11.8393 46.476 11.7218 46.354 11.6072C46.232 11.4927 46.1072 11.3812 45.9797 11.2728C45.8523 11.1643 45.7223 11.0591 45.5896 10.957C45.457 10.855 45.3219 10.7563 45.1844 10.6608C45.0469 10.5654 44.9071 10.4733 44.7651 10.3847C44.6231 10.2961 44.479 10.2111 44.3327 10.1296C44.1866 10.048 44.0385 9.97013 43.8884 9.89594C43.7385 9.82165 43.5867 9.75107 43.4331 9.68419C43.2797 9.61731 43.1247 9.55429 42.9681 9.49513C42.8116 9.43586 42.6536 9.38046 42.4943 9.32891C42.335 9.27746 42.1745 9.22993 42.0129 9.1863C41.8513 9.14257 41.6887 9.10291 41.5251 9.06731C41.3615 9.0316 41.1972 8.99991 41.0321 8.97224C40.8669 8.94466 40.7012 8.9211 40.535 8.90155C40.3686 8.8821 40.2019 8.86672 40.0349 8.8554C39.8678 8.84409 39.7006 8.83683 39.5333 8.83364ZM86.1229 44.6643C86.6354 44.8052 87.198 45.0586 87.4761 45.5443C87.6582 45.8624 87.638 46.2473 87.5294 46.5859C87.103 47.9159 85.6018 48.5797 84.6707 49.5051C85.4869 50.3964 86.3452 51.2506 87.191 52.1138C88.0446 52.9804 88.881 53.8541 89.8481 54.5973C91.4263 53.4528 92.7656 51.8073 94.1414 50.4245C96.883 47.6712 99.6426 44.9359 102.42 42.2185C99.5707 38.9029 96.3313 35.7737 93.1575 32.7663C92.3245 31.977 91.326 30.843 90.324 30.2949C88.4751 31.859 86.8543 33.6465 85.1402 35.3519C82.734 37.7458 80.2782 40.097 77.949 42.5664C79.3298 44.313 80.8205 45.7812 82.4661 47.2727C83.729 46.3941 84.5547 44.9975 86.1229 44.6643ZM103.813 7.3355C101.84 7.85546 100.318 9.36857 98.3601 9.81399C95.5309 10.4576 93.5601 7.7715 90.751 9.87943C90.1365 10.3406 89.5561 10.9269 89.1672 11.5938C87.3602 14.6927 90.6217 17.9772 89.0662 21.044C88.6837 21.7981 88.0488 22.3472 87.357 22.8085C84.868 24.4683 81.4851 24.8553 81.5033 28.5508C81.5078 29.4766 81.6224 30.4448 81.8642 31.3396C82.0823 32.147 82.4315 32.9227 82.8327 33.6548C84.4787 31.7733 87.7052 27.7873 90.2938 27.5902C91.4054 27.5056 92.3841 28.0104 93.1871 28.7307C95.9369 31.1973 98.4287 34.0104 101.036 36.6294C102.127 37.7259 103.573 38.7794 104.494 39.9907C104.827 40.4282 105.026 41.0692 105.048 41.6145C105.11 43.191 104.097 44.5302 103.053 45.6003C101.359 47.3351 99.5243 48.9448 97.8818 50.7276L97.3669 51.3105C97.9526 51.9968 98.6419 52.606 99.1412 53.361C100.445 55.3322 100.928 58.335 100.743 60.6531C100.467 64.1039 100.071 66.323 102.53 69.1981C104.77 71.8166 108.051 72.907 111.226 73.9261L111.209 9.64144C109.268 9.00326 105.698 7.21326 103.813 7.3355ZM68.9693 64.4984C70.4609 63.5462 71.6803 61.9221 72.9401 60.6838C74.0896 59.5538 75.4887 58.4734 76.47 57.1972C76.7077 56.8881 76.7927 56.4982 76.8772 56.1258C76.7036 55.5063 76.4897 54.951 75.8942 54.6133C75.3952 54.3304 74.8596 54.3068 74.3011 54.3327C73.9291 54.4948 73.5842 54.6619 73.2548 54.9007C71.9305 55.8602 67.1405 60.2421 66.6421 61.5259C66.4064 62.1332 66.4221 62.8067 66.7158 63.3921C66.9686 63.8956 67.4572 64.3481 68.0077 64.4975C68.3396 64.5878 68.6356 64.5597 68.9693 64.4984ZM29.381 82.4573L28.3362 88.2107C28.0586 89.7538 27.821 91.3243 27.3574 92.8248C26.711 94.9169 25.6098 96.9349 24.7381 98.9453L19.5258 111.055C21.185 111.921 22.6605 112.963 23.2473 114.829C23.4208 115.38 23.4637 115.923 23.534 116.493C25.6021 116.477 27.6701 116.48 29.7382 116.502C32.785 116.498 35.9147 116.334 38.9535 116.523C38.4091 115.655 38.0031 114.822 37.8175 113.807C37.4602 111.852 37.6637 109.65 37.6712 107.655L37.68 97.7719C37.6814 96.3787 37.9493 94.8574 37.4514 93.5211C36.8515 91.9112 34.074 88.6083 32.9231 87.0666C32.2772 86.2015 30.0669 82.8796 29.381 82.4573Z"/>
</mask>
<path d="M112.379 1.78678C112.896 1.77737 113.362 1.86735 113.741 2.24563C114.216 2.71898 114.225 3.32336 114.236 3.95197C114.255 5.12107 114.196 6.29542 114.192 7.46545L114.189 16.3923L114.169 50.3627L114.134 93.5001C114.185 101.448 114.188 109.395 114.14 117.343C114.135 117.783 114.206 118.507 113.876 118.828C113.477 119.214 112.944 119.34 112.404 119.373C111.62 119.421 110.81 119.354 110.023 119.34C108.561 119.321 107.098 119.317 105.636 119.329C96.7958 119.401 87.9559 119.396 79.116 119.315L30.8465 119.277C24.0232 119.2 17.1998 119.183 10.3762 119.225C7.65925 119.223 4.95419 119.156 2.23553 119.203C2.05077 119.082 1.85534 118.961 1.69267 118.81C1.40331 118.542 1.29208 118.222 1.28034 117.833C1.26937 117.471 1.34245 117.153 1.61542 116.9C2.41427 116.158 4.65588 116.464 5.71844 116.495C5.61308 116.331 5.509 116.165 5.40622 115.999C4.57292 114.647 4.27414 113.159 4.46509 111.582C4.73003 109.394 5.85099 107.341 6.6812 105.323C7.84232 102.448 8.98604 99.565 10.1123 96.6755C10.9609 94.5032 11.9443 92.2966 12.4351 90.011C12.8781 87.9479 12.9906 85.7833 13.1996 83.6863C13.5363 80.1304 13.9206 76.5796 14.3525 73.034C14.9262 68.5988 15.8707 64.322 16.8276 59.9626C17.4159 57.1555 18.031 54.3543 18.6729 51.559C17.9822 52.3131 17.103 52.9943 16.5707 53.8751C15.7164 55.2885 15.5234 57.1531 15.2829 58.7591L14.4771 64.3192C14.1934 66.2804 14.0145 68.2406 13.2447 70.0843C12.9532 70.7015 12.4834 71.2338 11.949 71.6532C10.6914 72.64 9.15391 72.9893 7.58016 72.7781C6.1252 72.5827 4.74161 71.8823 3.85718 70.6912C3.24248 69.8632 2.89117 68.8733 2.7733 67.8534C2.52149 65.6755 3.11951 61.5481 3.31045 59.2591C3.49182 57.0855 3.51252 54.8325 3.83941 52.6781C4.02248 51.4716 4.43202 50.3831 5.03483 49.3239C6.37609 46.967 8.25325 44.8717 9.88865 42.7119C11.6696 40.3603 13.3458 37.8611 15.3158 35.666C15.7196 35.2082 16.1478 34.7746 16.6005 34.3649C17.0531 33.9553 17.5274 33.5724 18.0232 33.2162C21.0682 31.0115 24.4461 30.2111 28.1447 29.985C29.346 29.9117 30.6189 29.8619 31.8103 30.0517C29.432 28.2705 27.6637 26.2817 26.695 23.4246C26.6595 23.3215 26.6254 23.218 26.5925 23.114C26.5597 23.01 26.5281 22.9057 26.4978 22.801C26.4676 22.6962 26.4386 22.5911 26.411 22.4857C26.3833 22.3802 26.357 22.2744 26.3321 22.1683C26.307 22.0622 26.2834 21.9557 26.261 21.849C26.2387 21.7423 26.2176 21.6354 26.198 21.5281C26.1783 21.4209 26.1599 21.3135 26.1428 21.2057C26.1258 21.098 26.1102 20.9901 26.0959 20.8821C26.0815 20.774 26.0686 20.6657 26.0571 20.5574C26.0454 20.4489 26.0351 20.3404 26.0262 20.2317C26.0173 20.1231 26.0098 20.0143 26.0036 19.9054C25.9974 19.7967 25.9926 19.6878 25.9891 19.5789C25.9856 19.4698 25.9835 19.3608 25.9828 19.2518C25.982 19.1428 25.9825 19.0338 25.9845 18.9248C25.9864 18.8158 25.9898 18.7069 25.9945 18.5979C25.9991 18.4889 26.0052 18.3801 26.0126 18.2713C26.0199 18.1626 26.0286 18.0539 26.0387 17.9454C26.0488 17.8368 26.0603 17.7284 26.0731 17.6202C26.0859 17.5119 26.1 17.4039 26.1155 17.2959C26.131 17.188 26.1479 17.0803 26.166 16.9727C26.1842 16.8652 26.2037 16.758 26.2245 16.6509C26.2455 16.5439 26.2676 16.4372 26.2911 16.3309C26.3146 16.2244 26.3394 16.1182 26.3656 16.0123C26.3919 15.9064 26.4194 15.8009 26.4481 15.6958C26.4769 15.5906 26.507 15.4859 26.5385 15.3815C26.5698 15.2771 26.6025 15.1731 26.6366 15.0695C26.6705 14.9659 26.7058 14.8627 26.7424 14.76C26.7789 14.6573 26.8168 14.5551 26.8559 14.4532C26.895 14.3514 26.9353 14.2502 26.9771 14.1495C27.0187 14.0487 27.0616 13.9485 27.1057 13.8488C27.1498 13.7491 27.1952 13.6499 27.2418 13.5513C27.2885 13.4527 27.3363 13.3547 27.3854 13.2574C27.4356 13.1573 27.4871 13.0578 27.5398 12.9589C27.5926 12.86 27.6465 12.7618 27.7017 12.6643C27.757 12.5667 27.8134 12.4699 27.8711 12.3738C27.9286 12.2776 27.9874 12.1822 28.0475 12.0875C28.1074 11.9929 28.1686 11.899 28.231 11.8059C28.2933 11.7127 28.3568 11.6204 28.4215 11.5288C28.4861 11.4373 28.5518 11.3466 28.6188 11.2567C28.6857 11.1668 28.7538 11.0777 28.8229 10.9894C28.8921 10.9012 28.9623 10.8139 29.0336 10.7275C29.105 10.641 29.1774 10.5554 29.2508 10.4707C29.3242 10.3861 29.3987 10.3024 29.4743 10.2196C29.5498 10.1368 29.6264 10.0549 29.7041 9.97404C29.7816 9.89316 29.8602 9.81322 29.9398 9.7342C30.0194 9.65528 30.0999 9.57739 30.1814 9.50053C30.263 9.42357 30.3455 9.34763 30.4289 9.27273C30.5123 9.19793 30.5967 9.1241 30.682 9.05126C30.7672 8.97851 30.8534 8.90685 30.9406 8.83627C31.0276 8.76558 31.1155 8.69603 31.2043 8.6276C31.2932 8.55918 31.3828 8.49189 31.4732 8.42573C31.5638 8.35957 31.6551 8.29449 31.7471 8.23049C31.8392 8.1666 31.9321 8.10384 32.0258 8.0422C32.1195 7.98067 32.2139 7.92028 32.3092 7.86101C32.4043 7.80175 32.5002 7.74366 32.5968 7.68676C32.6934 7.62997 32.7908 7.57436 32.8888 7.51993C32.9868 7.4655 33.0856 7.41225 33.1849 7.36019C33.2842 7.30823 33.3842 7.2575 33.4848 7.20801C33.5854 7.15852 33.6867 7.11032 33.7885 7.0634C33.8904 7.01648 33.9928 6.9708 34.0958 6.92635C34.1987 6.8819 34.3021 6.83879 34.4062 6.79701C34.5103 6.75514 34.6149 6.7146 34.7199 6.6754C34.825 6.6362 34.9305 6.59828 35.0365 6.56165C35.1424 6.52512 35.2489 6.48988 35.3558 6.45593C35.4607 6.42187 35.566 6.3891 35.6717 6.35762C35.7775 6.32613 35.8836 6.29594 35.9901 6.26702C36.0965 6.23821 36.2033 6.21074 36.3105 6.18461C36.4177 6.15847 36.5252 6.13362 36.6329 6.11006C36.7408 6.0866 36.8489 6.06448 36.9572 6.0437C37.0656 6.02291 37.1741 6.00347 37.2829 5.98536C37.3917 5.96735 37.5008 5.95063 37.6101 5.9352C37.7192 5.91987 37.8287 5.90588 37.9383 5.89322C38.0479 5.88056 38.1577 5.8693 38.2676 5.85942C38.3774 5.84954 38.4873 5.84105 38.5974 5.83395C38.7075 5.82675 38.8177 5.82094 38.928 5.81651C39.0382 5.81219 39.1484 5.80921 39.2588 5.80756C39.3691 5.80592 39.4794 5.80561 39.5897 5.80664C39.7 5.80777 39.8103 5.81029 39.9206 5.8142C40.0308 5.818 40.141 5.8232 40.2512 5.82979C40.3613 5.83637 40.4713 5.84434 40.5812 5.85371C40.691 5.86307 40.8008 5.87382 40.9105 5.88596C41.0202 5.898 41.1297 5.91143 41.239 5.92625C41.3483 5.94106 41.4575 5.95727 41.5663 5.97486C41.6753 5.99235 41.784 6.01124 41.8924 6.03151C42.0009 6.05177 42.109 6.07338 42.2169 6.09633C42.3248 6.11927 42.4324 6.14355 42.5397 6.16917C42.6471 6.19479 42.754 6.22175 42.8606 6.25005C42.9672 6.27834 43.0734 6.30797 43.1793 6.33894C43.2852 6.36991 43.3907 6.40217 43.4957 6.43571C43.6009 6.46936 43.7055 6.50429 43.8096 6.54051C43.9138 6.57662 44.0176 6.61407 44.1209 6.65286C44.2242 6.69165 44.327 6.73173 44.4293 6.77309C44.5314 6.81445 44.6331 6.8571 44.7344 6.90104C44.8356 6.94487 44.9362 6.98999 45.0362 7.03639C45.1364 7.0828 45.2358 7.13043 45.3347 7.17931C45.4336 7.22818 45.5318 7.27829 45.6295 7.32963C45.7253 7.37964 45.8204 7.43077 45.9148 7.48304C46.0094 7.53531 46.1032 7.58876 46.1963 7.6434C46.2895 7.69803 46.382 7.7538 46.4737 7.8107C46.5656 7.8676 46.6567 7.92563 46.747 7.98479C46.8374 8.04395 46.927 8.10419 47.0158 8.16552C47.1047 8.22694 47.1928 8.2894 47.2802 8.35288C47.3675 8.41647 47.454 8.48109 47.5397 8.54673C47.6254 8.61237 47.7103 8.6791 47.7944 8.7469C47.8785 8.81471 47.9617 8.88349 48.0441 8.95325C48.1265 9.02312 48.208 9.09396 48.2885 9.16577C48.3691 9.2377 48.4489 9.31054 48.5276 9.38432C48.6065 9.45809 48.6844 9.53284 48.7614 9.60857C48.8383 9.6843 48.9143 9.761 48.9894 9.83868C49.0645 9.91626 49.1386 9.99477 49.2117 10.0742C49.2848 10.1536 49.357 10.2339 49.4282 10.3151C49.4993 10.3964 49.5695 10.4785 49.6386 10.5614C49.7077 10.6444 49.7757 10.7281 49.8428 10.8127C49.9098 10.8974 49.9758 10.9828 50.0407 11.0691C50.1057 11.1554 50.1695 11.2424 50.2323 11.3302C50.2951 11.4181 50.3568 11.5067 50.4173 11.596C50.4779 11.6854 50.5374 11.7755 50.5958 11.8664C50.654 11.9571 50.7113 12.0486 50.7674 12.1409C50.8234 12.2331 50.8784 12.326 50.9322 12.4197C50.986 12.5133 51.0386 12.6075 51.0901 12.7024C51.1415 12.7973 51.1918 12.8927 51.2409 12.9888C51.29 13.0851 51.3379 13.1818 51.3846 13.2792C51.4313 13.3764 51.4769 13.4742 51.5211 13.5727C51.5654 13.6712 51.6085 13.7702 51.6503 13.8696C51.6921 13.9691 51.7327 14.0692 51.772 14.1697C51.8114 14.2702 51.8495 14.3712 51.8863 14.4726C51.9232 14.5741 51.9588 14.676 51.9932 14.7782C52.0275 14.8806 52.0606 14.9833 52.0924 15.0864C53.0954 18.3948 52.8366 22.1902 51.1929 25.2534C49.0957 29.1612 46.1299 30.7732 42.0353 32.0007C42.6669 32.3459 43.3513 32.6055 44.005 32.9069C44.6434 33.1939 45.2601 33.5214 45.8553 33.8896C46.4504 34.2578 47.0188 34.6635 47.5604 35.1065C50.0566 37.183 52.4295 41.6935 54.1996 44.5056C55.7803 47.017 57.4077 49.496 58.9299 52.0441C61.3653 52.4494 63.8198 52.6591 66.2785 52.8651C67.4263 52.9613 68.6584 53.1466 69.805 53.0505C72.8656 52.794 72.2642 50.8358 76.6813 51.7945C77.8418 50.8927 79.0232 50.0121 80.1247 49.0384L77.7613 46.765C76.6833 45.7135 74.939 44.2227 74.9611 42.595C74.968 42.079 75.1632 41.6009 75.446 41.1757C76.0087 40.3298 76.8479 39.6118 77.5662 38.8997C78.5871 37.8977 79.5972 36.8852 80.5968 35.862C79.9711 34.9755 79.4545 34.0765 79.1041 33.0455C78.6033 31.5721 78.3691 29.9451 78.3997 28.3904C78.5338 21.5715 84.9321 22.4833 86.4134 19.4404L86.4599 19.3427C86.4339 18.3959 86.1849 17.5396 85.9567 16.6286C85.4716 14.6923 85.357 12.782 86.1847 10.9184C87.3571 8.27865 90.7615 5.4691 93.8222 5.98922C95.1334 6.21192 96.2933 7.07374 97.6705 6.86971C98.9636 6.67802 100.78 5.26908 102.121 4.75745C105.239 3.56752 108.424 5.35428 111.227 6.61922C111.189 5.43931 110.988 3.89425 111.413 2.77207C111.612 2.24485 111.88 2.024 112.379 1.78678ZM79.2581 53.8284C79.7482 54.9194 80.0865 56.1971 79.6493 57.3711C79.412 58.0084 78.9433 58.6285 78.5131 59.1477C77.3927 60.4991 71.5 66.4957 70.2409 67.0274C69.0419 67.5336 67.6123 67.552 66.4082 67.0482C66.3384 67.0185 66.2694 66.9871 66.2011 66.9541C66.1328 66.9209 66.0653 66.8862 65.9987 66.8499C65.9321 66.8135 65.8664 66.7754 65.8017 66.7358C65.737 66.6963 65.6732 66.6552 65.6105 66.6125C65.5478 66.5698 65.4861 66.5256 65.4256 66.4799C65.365 66.4342 65.3056 66.387 65.2474 66.3384C65.1892 66.2899 65.1321 66.2398 65.0763 66.1884C65.0204 66.1371 64.9659 66.0843 64.9127 66.0302C64.8595 65.9762 64.8077 65.9209 64.7571 65.8643C64.7065 65.8077 64.6574 65.7499 64.6097 65.691C64.562 65.6319 64.5158 65.5718 64.4711 65.5106C64.4263 65.4493 64.3831 65.387 64.3414 65.3237C64.2997 65.2603 64.2595 65.196 64.221 65.1307C64.1825 65.0654 64.1456 64.9992 64.1103 64.9321C64.0749 64.8649 64.0413 64.797 64.0092 64.7282C63.9773 64.6595 63.947 64.59 63.9184 64.5197C63.8005 64.2269 63.7061 63.9181 63.6297 63.6122L58.2979 63.4182C55.2375 63.3051 51.8802 63.4758 49.6118 61.0473C48.9258 60.3126 48.3812 59.4453 47.8148 58.6179C46.764 57.0827 45.727 55.4672 44.5182 54.0535C43.867 57.1442 43.1794 60.2267 42.4554 63.3012C41.9922 65.2696 41.3148 67.3822 41.1707 69.3995C42.0681 71.2798 43.2031 73.0669 44.2558 74.8647L48.9837 83.0305C49.8589 84.5617 50.9078 86.0614 51.5122 87.7279C52.5832 90.6818 52.2821 98.1793 52.3328 101.575C52.3737 104.32 52.5299 107.079 52.5049 109.823C54.7334 110.707 56.6496 111.595 57.6578 113.917C58.0219 114.755 58.1928 115.632 58.3277 116.531C58.9554 116.533 59.5831 116.531 60.2107 116.524L93.7686 116.531C99.6022 116.532 105.465 116.661 111.295 116.52L111.235 90.6134L111.224 82.2374C111.221 80.6181 111.137 78.9439 111.275 77.3327C110.241 76.9625 109.25 76.4975 108.225 76.1045C107.212 75.7162 106.165 75.3915 105.175 74.9493C102.401 73.7108 99.9175 71.6096 98.6025 68.8364C98.4486 68.5116 98.3106 68.1802 98.1888 67.842C98.067 67.5039 97.9618 67.1606 97.8733 66.8122C97.7849 66.4639 97.7135 66.1122 97.6592 65.7569C97.6049 65.4017 97.568 65.0447 97.5485 64.6858C97.309 60.4773 98.8404 56.789 95.2126 53.5277C93.8023 54.9695 92.0263 57.2559 89.8326 57.2708C87.5519 57.2864 84.8841 53.8669 83.3354 52.3498C83.0337 52.0542 82.6668 51.6005 82.3162 51.3818C81.2356 52.1222 80.2521 52.978 79.2581 53.8284ZM20.5932 116.371C20.3965 115.49 20.1019 114.793 19.3162 114.271C18.4046 113.665 16.37 113.468 16.0692 112.29C16.0056 112.04 16.0137 111.814 16.0785 111.564C16.3389 110.56 16.8642 109.572 17.2934 108.63C17.9478 107.203 18.5943 105.773 19.2329 104.339L22.1569 97.6695C23.1132 95.5053 24.2303 93.3287 24.7409 91.009C25.2091 88.8824 25.5746 86.7212 25.9604 84.5781C26.2431 83.0077 26.7523 78.8985 27.5046 77.6746C27.9458 77.4156 28.3705 77.2033 28.8924 77.3439C29.052 77.3868 29.2052 77.4453 29.3486 77.5277C30.2874 78.4698 31.0467 79.679 31.8329 80.7535L35.6197 85.8756C36.3366 86.8463 37.0675 87.8063 37.8124 88.7557C38.565 89.7172 39.5994 90.7895 40.0894 91.9063C40.7435 93.3966 40.6304 95.3485 40.6269 96.9475L40.5958 107.418C40.5895 109.346 40.3598 111.389 40.7509 113.287C40.7707 113.38 40.7938 113.473 40.8203 113.566C40.8468 113.658 40.8765 113.749 40.9094 113.839C40.9425 113.929 40.9787 114.018 41.018 114.105C41.0575 114.193 41.1 114.279 41.1455 114.363C41.1911 114.447 41.2397 114.53 41.2912 114.611C41.3427 114.692 41.397 114.771 41.4542 114.848C41.5113 114.925 41.5712 115 41.6337 115.073C41.6963 115.145 41.7614 115.216 41.8289 115.284C42.3806 115.829 43.1033 116.084 43.8512 116.226C45.2195 116.487 46.6894 116.384 48.0793 116.379C50.4969 116.371 52.931 116.318 55.3473 116.39C55.2418 115.41 55.0558 114.52 54.2495 113.855C52.7135 112.587 49.7294 113.274 49.4319 110.814C49.2639 109.427 49.4312 107.91 49.428 106.506L49.4031 99.3603C49.4059 97.5333 49.4556 95.6925 49.3673 93.8673C49.2922 92.3164 49.2792 90.623 48.8056 89.1347C48.1624 87.1134 46.8275 85.2086 45.7616 83.3803L41.1854 75.4843C40.1458 73.7043 39.017 71.9364 38.1355 70.0718C38.2277 68.7282 38.6005 67.3831 38.8945 66.0719L40.0661 60.7787C40.6433 58.0781 41.2403 55.3817 41.8574 52.6898C42.0662 51.7854 42.1917 50.8236 42.4562 49.9371C42.5581 49.5954 42.7066 49.1774 42.989 48.9404C43.2491 48.7221 43.6184 48.6036 43.9572 48.6417C44.5317 48.7067 44.9911 49.3321 45.3122 49.7704C46.5973 51.5243 47.7733 53.3795 48.9832 55.187C49.9568 56.6411 50.9427 58.4751 52.3242 59.5706C52.873 60.0057 53.6535 60.1943 54.336 60.3022C57.4928 60.8017 60.7526 60.4841 63.8651 60.7791C64.5822 58.736 66.3461 57.3569 67.857 55.8897C65.5077 55.7432 63.1835 55.4685 60.8489 55.1786C59.8104 55.0498 58.6243 55.005 57.6346 54.6633C57.2127 54.5176 56.9008 54.3316 56.6005 53.9989C55.9704 53.301 55.5074 52.3635 55.0142 51.5622C54.404 50.5706 53.7621 49.5954 53.1419 48.6096L49.1607 42.2798C45.9279 37.1476 44.0654 35.3981 38.1091 34.0259C36.8346 33.7266 35.5503 33.4786 34.256 33.282C32.9617 33.0853 31.6616 32.9407 30.3557 32.8481C29.4847 32.7898 28.6133 32.7828 27.7415 32.8271C22.9694 33.3209 19.9104 34.6401 16.8441 38.4049C15.3941 40.1853 14.0584 42.0696 12.6706 43.8988C11.2134 45.8198 7.49967 50.1249 6.8964 52.2771C6.33499 54.2802 6.31785 57.8874 6.12906 60.0595C5.94213 62.2113 5.41348 65.3712 5.64305 67.4287C5.73589 68.2619 6.08689 69.0635 6.7569 69.5903C6.82878 69.6466 6.9033 69.6992 6.98044 69.7482C7.05748 69.7972 7.13678 69.8422 7.21835 69.8832C7.30002 69.9243 7.38344 69.9612 7.46862 69.9939C7.55389 70.0267 7.64056 70.0552 7.72862 70.0794C7.81678 70.1035 7.90587 70.1232 7.99588 70.1385C8.086 70.1538 8.17658 70.1647 8.26762 70.1711C8.35877 70.1773 8.45002 70.1791 8.54137 70.1765C8.63262 70.1737 8.72356 70.1664 8.8142 70.1547C9.49471 70.0664 10.0714 69.7139 10.4822 69.1674C10.8058 68.7368 10.9948 68.2056 11.1392 67.6912C11.5233 66.3231 11.6918 64.8611 11.926 63.4596C12.261 61.4563 12.6258 59.4606 12.9297 57.4519C13.1639 55.9028 13.2501 54.1395 13.9323 52.7091C14.7939 50.9026 16.7862 49.1185 18.0734 47.5397C18.8248 46.6179 19.9943 44.6831 21.2315 44.4529C21.5811 44.3877 21.9326 44.5073 22.2101 44.7191C22.5763 44.9987 22.8461 45.4556 22.9059 45.9135C22.9581 46.314 22.8777 46.7878 22.8044 47.1848C22.5315 48.6598 22.1001 50.1408 21.7661 51.6082L18.9722 63.8323C18.4591 66.1779 17.9397 68.5454 17.5898 70.9208C17.0313 74.7135 16.7403 78.5557 16.3332 82.3675C16.0765 84.7721 15.9598 88.3283 15.4 90.562C14.7854 93.013 13.7456 95.3611 12.8166 97.7049C11.7445 100.41 10.7076 103.133 9.60857 105.828C8.88449 107.603 7.8967 109.461 7.50322 111.34C7.19981 112.789 7.4025 114.257 8.59405 115.269C9.11158 115.708 9.7269 115.991 10.3864 116.141C12.3071 116.577 14.524 116.379 16.4888 116.375C17.8503 116.372 19.2343 116.435 20.5932 116.371ZM39.5333 8.83364C39.3655 8.83045 39.1978 8.83143 39.0301 8.83658C38.8624 8.84162 38.695 8.85083 38.5277 8.8642C38.3605 8.87747 38.1937 8.89486 38.0273 8.91637C37.8609 8.93787 37.6951 8.96344 37.53 8.99307C37.3648 9.0227 37.2005 9.0564 37.0371 9.09416C36.8736 9.13182 36.7112 9.17349 36.5498 9.21917C36.3883 9.26486 36.2281 9.3145 36.0692 9.36811C35.9102 9.42161 35.7526 9.47903 35.5965 9.54035C35.4404 9.60157 35.2858 9.66665 35.1329 9.73559C34.9799 9.80442 34.8287 9.87696 34.6793 9.9532C34.53 10.0295 34.3825 10.1095 34.237 10.193C34.0916 10.2766 33.9483 10.3636 33.8071 10.4542C33.666 10.5447 33.5271 10.6387 33.3906 10.7362C33.254 10.8335 33.1199 10.9342 32.9883 11.0382C32.8568 11.1421 32.7278 11.2492 32.6014 11.3595C32.4752 11.4698 32.3516 11.5831 32.2308 11.6995C32.1101 11.8159 31.9923 11.9351 31.8774 12.0573C31.7625 12.1795 31.6507 12.3044 31.542 12.432C31.4332 12.5597 31.3277 12.6899 31.2254 12.8228C31.1231 12.9556 31.024 13.0909 30.9284 13.2285C30.8327 13.3662 30.7405 13.5061 30.6517 13.6483C30.5629 13.7905 30.4777 13.9348 30.396 14.0812C30.3143 14.2277 30.2363 14.376 30.162 14.5262C30.0875 14.6764 30.0168 14.8284 29.95 14.9821C29.8831 15.1358 29.8199 15.2911 29.7606 15.4479C29.7014 15.6047 29.646 15.7628 29.5945 15.9223C29.543 16.0818 29.4954 16.2425 29.4518 16.4043C29.4082 16.5662 29.3686 16.729 29.333 16.8928C29.2974 17.0566 29.2659 17.2212 29.2384 17.3865C29.2109 17.5519 29.1875 17.7178 29.1681 17.8843C29.1489 18.0507 29.1337 18.2176 29.1226 18.3849C29.1114 18.5521 29.1044 18.7195 29.1016 18.8871C29.0987 19.0547 29.0999 19.2223 29.1053 19.3898C29.1106 19.5573 29.1201 19.7246 29.1337 19.8917C29.1473 20.0587 29.165 20.2253 29.1868 20.3916C29.2086 20.5578 29.2344 20.7233 29.2644 20.8883C29.2943 21.0532 29.3282 21.2173 29.3662 21.3804C29.4042 21.5437 29.4462 21.7059 29.4922 21.8671C29.5382 22.0283 29.5881 22.1883 29.642 22.3471C29.6958 22.5058 29.7535 22.6631 29.8151 22.819C29.8767 22.9749 29.9421 23.1292 30.0113 23.2819C30.0805 23.4346 30.1535 23.5855 30.2301 23.7345C30.3066 23.8837 30.3868 24.0309 30.4708 24.1761C30.5546 24.3213 30.6419 24.4643 30.7328 24.6052C30.8237 24.746 30.918 24.8846 31.0156 25.0208C31.1134 25.1571 31.2144 25.2909 31.3186 25.4222C31.4229 25.5535 31.5304 25.6822 31.641 25.8082C31.7516 25.9343 31.8653 26.0575 31.982 26.1778C32.0986 26.2983 32.2182 26.4158 32.3407 26.5304C32.4631 26.645 32.5883 26.7565 32.7162 26.865C32.8442 26.9733 32.9747 27.0785 33.1079 27.1806C33.2409 27.2825 33.3765 27.3812 33.5145 27.4766C33.6524 27.572 33.7926 27.6639 33.9351 27.7524C34.0777 27.8409 34.2223 27.9258 34.3689 28.0072C34.5156 28.0886 34.6642 28.1663 34.8146 28.2404C34.9651 28.3145 35.1173 28.3848 35.2713 28.4514C35.4253 28.518 35.5808 28.5807 35.7378 28.6397C35.8949 28.6987 36.0533 28.7538 36.213 28.805C36.3728 28.8562 36.5337 28.9034 36.6958 28.9466C36.8578 28.99 37.0209 29.0293 37.1849 29.0646C37.3489 29.0999 37.5137 29.1311 37.6793 29.1584C37.8448 29.1856 38.0109 29.2087 38.1777 29.2277C38.3443 29.2467 38.5113 29.2616 38.6788 29.2725C38.8462 29.2834 39.0137 29.2901 39.1815 29.2927C39.349 29.2952 39.5163 29.2938 39.6836 29.2882C39.851 29.2826 40.0181 29.2729 40.1849 29.259C40.3517 29.2452 40.5182 29.2274 40.6842 29.2055C40.8502 29.1836 41.0156 29.1576 41.1803 29.1275C41.3449 29.0975 41.5088 29.0634 41.6718 29.0254C41.8349 28.9873 41.9969 28.9453 42.1578 28.8993C42.3188 28.8533 42.4786 28.8033 42.6371 28.7494C42.7956 28.6956 42.9527 28.6379 43.1084 28.5764C43.264 28.5149 43.4181 28.4496 43.5706 28.3805C43.7232 28.3114 43.8738 28.2386 44.0227 28.1622C44.1716 28.0857 44.3186 28.0057 44.4636 27.922C44.6086 27.8383 44.7514 27.7511 44.8921 27.6604C45.0328 27.5698 45.1712 27.4757 45.3072 27.3783C45.4433 27.2808 45.5769 27.1801 45.7081 27.0761C45.8392 26.9721 45.9677 26.8649 46.0936 26.7546C46.2194 26.6443 46.3425 26.531 46.4628 26.4148C46.5832 26.2984 46.7006 26.1792 46.815 26.0572C46.9294 25.935 47.0408 25.8102 47.1492 25.6827C47.2575 25.5552 47.3627 25.425 47.4646 25.2924C47.5666 25.1597 47.6652 25.0246 47.7605 24.8871C47.8558 24.7496 47.9477 24.6098 48.0361 24.4678C48.1245 24.3258 48.2095 24.1817 48.2908 24.0355C48.3722 23.8893 48.4499 23.7412 48.5241 23.5912C48.5982 23.4413 48.6686 23.2895 48.7353 23.136C48.8019 22.9826 48.8647 22.8277 48.9237 22.6712C48.9829 22.5147 49.0381 22.3568 49.0894 22.1975C49.1406 22.0383 49.188 21.878 49.2313 21.7164C49.2748 21.5549 49.3142 21.3924 49.3497 21.2289C49.3851 21.0654 49.4165 20.9011 49.4439 20.7361C49.4713 20.5711 49.4946 20.4055 49.5139 20.2394C49.5331 20.0733 49.5483 19.9067 49.5595 19.7398C49.5705 19.5729 49.5774 19.4058 49.5803 19.2386C49.5832 19.0714 49.582 18.9042 49.5766 18.737C49.5713 18.5698 49.5618 18.4028 49.5483 18.2361C49.5348 18.0694 49.5172 17.903 49.4955 17.7372C49.4738 17.5713 49.448 17.4061 49.4183 17.2416C49.3885 17.077 49.3547 16.9132 49.3168 16.7502C49.279 16.5873 49.2371 16.4254 49.1913 16.2645C49.1455 16.1036 49.0958 15.9439 49.0422 15.7854C48.9886 15.627 48.9311 15.47 48.8697 15.3144C48.8084 15.1587 48.7433 15.0047 48.6744 14.8523C48.6054 14.6998 48.5328 14.5491 48.4566 14.4003C48.3803 14.2514 48.3003 14.1044 48.2168 13.9595C48.1333 13.8145 48.0463 13.6716 47.9557 13.5309C47.8652 13.3902 47.7713 13.2518 47.674 13.1157C47.5766 12.9796 47.476 12.8459 47.3721 12.7147C47.2683 12.5836 47.1613 12.455 47.0511 12.3292C46.9409 12.2033 46.8276 12.0801 46.7113 11.9597C46.5951 11.8393 46.476 11.7218 46.354 11.6072C46.232 11.4927 46.1072 11.3812 45.9797 11.2728C45.8523 11.1643 45.7223 11.0591 45.5896 10.957C45.457 10.855 45.3219 10.7563 45.1844 10.6608C45.0469 10.5654 44.9071 10.4733 44.7651 10.3847C44.6231 10.2961 44.479 10.2111 44.3327 10.1296C44.1866 10.048 44.0385 9.97013 43.8884 9.89594C43.7385 9.82165 43.5867 9.75107 43.4331 9.68419C43.2797 9.61731 43.1247 9.55429 42.9681 9.49513C42.8116 9.43586 42.6536 9.38046 42.4943 9.32891C42.335 9.27746 42.1745 9.22993 42.0129 9.1863C41.8513 9.14257 41.6887 9.10291 41.5251 9.06731C41.3615 9.0316 41.1972 8.99991 41.0321 8.97224C40.8669 8.94466 40.7012 8.9211 40.535 8.90155C40.3686 8.8821 40.2019 8.86672 40.0349 8.8554C39.8678 8.84409 39.7006 8.83683 39.5333 8.83364ZM86.1229 44.6643C86.6354 44.8052 87.198 45.0586 87.4761 45.5443C87.6582 45.8624 87.638 46.2473 87.5294 46.5859C87.103 47.9159 85.6018 48.5797 84.6707 49.5051C85.4869 50.3964 86.3452 51.2506 87.191 52.1138C88.0446 52.9804 88.881 53.8541 89.8481 54.5973C91.4263 53.4528 92.7656 51.8073 94.1414 50.4245C96.883 47.6712 99.6426 44.9359 102.42 42.2185C99.5707 38.9029 96.3313 35.7737 93.1575 32.7663C92.3245 31.977 91.326 30.843 90.324 30.2949C88.4751 31.859 86.8543 33.6465 85.1402 35.3519C82.734 37.7458 80.2782 40.097 77.949 42.5664C79.3298 44.313 80.8205 45.7812 82.4661 47.2727C83.729 46.3941 84.5547 44.9975 86.1229 44.6643ZM103.813 7.3355C101.84 7.85546 100.318 9.36857 98.3601 9.81399C95.5309 10.4576 93.5601 7.7715 90.751 9.87943C90.1365 10.3406 89.5561 10.9269 89.1672 11.5938C87.3602 14.6927 90.6217 17.9772 89.0662 21.044C88.6837 21.7981 88.0488 22.3472 87.357 22.8085C84.868 24.4683 81.4851 24.8553 81.5033 28.5508C81.5078 29.4766 81.6224 30.4448 81.8642 31.3396C82.0823 32.147 82.4315 32.9227 82.8327 33.6548C84.4787 31.7733 87.7052 27.7873 90.2938 27.5902C91.4054 27.5056 92.3841 28.0104 93.1871 28.7307C95.9369 31.1973 98.4287 34.0104 101.036 36.6294C102.127 37.7259 103.573 38.7794 104.494 39.9907C104.827 40.4282 105.026 41.0692 105.048 41.6145C105.11 43.191 104.097 44.5302 103.053 45.6003C101.359 47.3351 99.5243 48.9448 97.8818 50.7276L97.3669 51.3105C97.9526 51.9968 98.6419 52.606 99.1412 53.361C100.445 55.3322 100.928 58.335 100.743 60.6531C100.467 64.1039 100.071 66.323 102.53 69.1981C104.77 71.8166 108.051 72.907 111.226 73.9261L111.209 9.64144C109.268 9.00326 105.698 7.21326 103.813 7.3355ZM68.9693 64.4984C70.4609 63.5462 71.6803 61.9221 72.9401 60.6838C74.0896 59.5538 75.4887 58.4734 76.47 57.1972C76.7077 56.8881 76.7927 56.4982 76.8772 56.1258C76.7036 55.5063 76.4897 54.951 75.8942 54.6133C75.3952 54.3304 74.8596 54.3068 74.3011 54.3327C73.9291 54.4948 73.5842 54.6619 73.2548 54.9007C71.9305 55.8602 67.1405 60.2421 66.6421 61.5259C66.4064 62.1332 66.4221 62.8067 66.7158 63.3921C66.9686 63.8956 67.4572 64.3481 68.0077 64.4975C68.3396 64.5878 68.6356 64.5597 68.9693 64.4984ZM29.381 82.4573L28.3362 88.2107C28.0586 89.7538 27.821 91.3243 27.3574 92.8248C26.711 94.9169 25.6098 96.9349 24.7381 98.9453L19.5258 111.055C21.185 111.921 22.6605 112.963 23.2473 114.829C23.4208 115.38 23.4637 115.923 23.534 116.493C25.6021 116.477 27.6701 116.48 29.7382 116.502C32.785 116.498 35.9147 116.334 38.9535 116.523C38.4091 115.655 38.0031 114.822 37.8175 113.807C37.4602 111.852 37.6637 109.65 37.6712 107.655L37.68 97.7719C37.6814 96.3787 37.9493 94.8574 37.4514 93.5211C36.8515 91.9112 34.074 88.6083 32.9231 87.0666C32.2772 86.2015 30.0669 82.8796 29.381 82.4573Z" fill="#D9D9D9"/>
<path d="M112.379 1.78678C112.896 1.77737 113.362 1.86735 113.741 2.24563C114.216 2.71898 114.225 3.32336 114.236 3.95197C114.255 5.12107 114.196 6.29542 114.192 7.46545L114.189 16.3923L114.169 50.3627L114.134 93.5001C114.185 101.448 114.188 109.395 114.14 117.343C114.135 117.783 114.206 118.507 113.876 118.828C113.477 119.214 112.944 119.34 112.404 119.373C111.62 119.421 110.81 119.354 110.023 119.34C108.561 119.321 107.098 119.317 105.636 119.329C96.7958 119.401 87.9559 119.396 79.116 119.315L30.8465 119.277C24.0232 119.2 17.1998 119.183 10.3762 119.225C7.65925 119.223 4.95419 119.156 2.23553 119.203C2.05077 119.082 1.85534 118.961 1.69267 118.81C1.40331 118.542 1.29208 118.222 1.28034 117.833C1.26937 117.471 1.34245 117.153 1.61542 116.9C2.41427 116.158 4.65588 116.464 5.71844 116.495C5.61308 116.331 5.509 116.165 5.40622 115.999C4.57292 114.647 4.27414 113.159 4.46509 111.582C4.73003 109.394 5.85099 107.341 6.6812 105.323C7.84232 102.448 8.98604 99.565 10.1123 96.6755C10.9609 94.5032 11.9443 92.2966 12.4351 90.011C12.8781 87.9479 12.9906 85.7833 13.1996 83.6863C13.5363 80.1304 13.9206 76.5796 14.3525 73.034C14.9262 68.5988 15.8707 64.322 16.8276 59.9626C17.4159 57.1555 18.031 54.3543 18.6729 51.559C17.9822 52.3131 17.103 52.9943 16.5707 53.8751C15.7164 55.2885 15.5234 57.1531 15.2829 58.7591L14.4771 64.3192C14.1934 66.2804 14.0145 68.2406 13.2447 70.0843C12.9532 70.7015 12.4834 71.2338 11.949 71.6532C10.6914 72.64 9.15391 72.9893 7.58016 72.7781C6.1252 72.5827 4.74161 71.8823 3.85718 70.6912C3.24248 69.8632 2.89117 68.8733 2.7733 67.8534C2.52149 65.6755 3.11951 61.5481 3.31045 59.2591C3.49182 57.0855 3.51252 54.8325 3.83941 52.6781C4.02248 51.4716 4.43202 50.3831 5.03483 49.3239C6.37609 46.967 8.25325 44.8717 9.88865 42.7119C11.6696 40.3603 13.3458 37.8611 15.3158 35.666C15.7196 35.2082 16.1478 34.7746 16.6005 34.3649C17.0531 33.9553 17.5274 33.5724 18.0232 33.2162C21.0682 31.0115 24.4461 30.2111 28.1447 29.985C29.346 29.9117 30.6189 29.8619 31.8103 30.0517C29.432 28.2705 27.6637 26.2817 26.695 23.4246C26.6595 23.3215 26.6254 23.218 26.5925 23.114C26.5597 23.01 26.5281 22.9057 26.4978 22.801C26.4676 22.6962 26.4386 22.5911 26.411 22.4857C26.3833 22.3802 26.357 22.2744 26.3321 22.1683C26.307 22.0622 26.2834 21.9557 26.261 21.849C26.2387 21.7423 26.2176 21.6354 26.198 21.5281C26.1783 21.4209 26.1599 21.3135 26.1428 21.2057C26.1258 21.098 26.1102 20.9901 26.0959 20.8821C26.0815 20.774 26.0686 20.6657 26.0571 20.5574C26.0454 20.4489 26.0351 20.3404 26.0262 20.2317C26.0173 20.1231 26.0098 20.0143 26.0036 19.9054C25.9974 19.7967 25.9926 19.6878 25.9891 19.5789C25.9856 19.4698 25.9835 19.3608 25.9828 19.2518C25.982 19.1428 25.9825 19.0338 25.9845 18.9248C25.9864 18.8158 25.9898 18.7069 25.9945 18.5979C25.9991 18.4889 26.0052 18.3801 26.0126 18.2713C26.0199 18.1626 26.0286 18.0539 26.0387 17.9454C26.0488 17.8368 26.0603 17.7284 26.0731 17.6202C26.0859 17.5119 26.1 17.4039 26.1155 17.2959C26.131 17.188 26.1479 17.0803 26.166 16.9727C26.1842 16.8652 26.2037 16.758 26.2245 16.6509C26.2455 16.5439 26.2676 16.4372 26.2911 16.3309C26.3146 16.2244 26.3394 16.1182 26.3656 16.0123C26.3919 15.9064 26.4194 15.8009 26.4481 15.6958C26.4769 15.5906 26.507 15.4859 26.5385 15.3815C26.5698 15.2771 26.6025 15.1731 26.6366 15.0695C26.6705 14.9659 26.7058 14.8627 26.7424 14.76C26.7789 14.6573 26.8168 14.5551 26.8559 14.4532C26.895 14.3514 26.9353 14.2502 26.9771 14.1495C27.0187 14.0487 27.0616 13.9485 27.1057 13.8488C27.1498 13.7491 27.1952 13.6499 27.2418 13.5513C27.2885 13.4527 27.3363 13.3547 27.3854 13.2574C27.4356 13.1573 27.4871 13.0578 27.5398 12.9589C27.5926 12.86 27.6465 12.7618 27.7017 12.6643C27.757 12.5667 27.8134 12.4699 27.8711 12.3738C27.9286 12.2776 27.9874 12.1822 28.0475 12.0875C28.1074 11.9929 28.1686 11.899 28.231 11.8059C28.2933 11.7127 28.3568 11.6204 28.4215 11.5288C28.4861 11.4373 28.5518 11.3466 28.6188 11.2567C28.6857 11.1668 28.7538 11.0777 28.8229 10.9894C28.8921 10.9012 28.9623 10.8139 29.0336 10.7275C29.105 10.641 29.1774 10.5554 29.2508 10.4707C29.3242 10.3861 29.3987 10.3024 29.4743 10.2196C29.5498 10.1368 29.6264 10.0549 29.7041 9.97404C29.7816 9.89316 29.8602 9.81322 29.9398 9.7342C30.0194 9.65528 30.0999 9.57739 30.1814 9.50053C30.263 9.42357 30.3455 9.34763 30.4289 9.27273C30.5123 9.19793 30.5967 9.1241 30.682 9.05126C30.7672 8.97851 30.8534 8.90685 30.9406 8.83627C31.0276 8.76558 31.1155 8.69603 31.2043 8.6276C31.2932 8.55918 31.3828 8.49189 31.4732 8.42573C31.5638 8.35957 31.6551 8.29449 31.7471 8.23049C31.8392 8.1666 31.9321 8.10384 32.0258 8.0422C32.1195 7.98067 32.2139 7.92028 32.3092 7.86101C32.4043 7.80175 32.5002 7.74366 32.5968 7.68676C32.6934 7.62997 32.7908 7.57436 32.8888 7.51993C32.9868 7.4655 33.0856 7.41225 33.1849 7.36019C33.2842 7.30823 33.3842 7.2575 33.4848 7.20801C33.5854 7.15852 33.6867 7.11032 33.7885 7.0634C33.8904 7.01648 33.9928 6.9708 34.0958 6.92635C34.1987 6.8819 34.3021 6.83879 34.4062 6.79701C34.5103 6.75514 34.6149 6.7146 34.7199 6.6754C34.825 6.6362 34.9305 6.59828 35.0365 6.56165C35.1424 6.52512 35.2489 6.48988 35.3558 6.45593C35.4607 6.42187 35.566 6.3891 35.6717 6.35762C35.7775 6.32613 35.8836 6.29594 35.9901 6.26702C36.0965 6.23821 36.2033 6.21074 36.3105 6.18461C36.4177 6.15847 36.5252 6.13362 36.6329 6.11006C36.7408 6.0866 36.8489 6.06448 36.9572 6.0437C37.0656 6.02291 37.1741 6.00347 37.2829 5.98536C37.3917 5.96735 37.5008 5.95063 37.6101 5.9352C37.7192 5.91987 37.8287 5.90588 37.9383 5.89322C38.0479 5.88056 38.1577 5.8693 38.2676 5.85942C38.3774 5.84954 38.4873 5.84105 38.5974 5.83395C38.7075 5.82675 38.8177 5.82094 38.928 5.81651C39.0382 5.81219 39.1484 5.80921 39.2588 5.80756C39.3691 5.80592 39.4794 5.80561 39.5897 5.80664C39.7 5.80777 39.8103 5.81029 39.9206 5.8142C40.0308 5.818 40.141 5.8232 40.2512 5.82979C40.3613 5.83637 40.4713 5.84434 40.5812 5.85371C40.691 5.86307 40.8008 5.87382 40.9105 5.88596C41.0202 5.898 41.1297 5.91143 41.239 5.92625C41.3483 5.94106 41.4575 5.95727 41.5663 5.97486C41.6753 5.99235 41.784 6.01124 41.8924 6.03151C42.0009 6.05177 42.109 6.07338 42.2169 6.09633C42.3248 6.11927 42.4324 6.14355 42.5397 6.16917C42.6471 6.19479 42.754 6.22175 42.8606 6.25005C42.9672 6.27834 43.0734 6.30797 43.1793 6.33894C43.2852 6.36991 43.3907 6.40217 43.4957 6.43571C43.6009 6.46936 43.7055 6.50429 43.8096 6.54051C43.9138 6.57662 44.0176 6.61407 44.1209 6.65286C44.2242 6.69165 44.327 6.73173 44.4293 6.77309C44.5314 6.81445 44.6331 6.8571 44.7344 6.90104C44.8356 6.94487 44.9362 6.98999 45.0362 7.03639C45.1364 7.0828 45.2358 7.13043 45.3347 7.17931C45.4336 7.22818 45.5318 7.27829 45.6295 7.32963C45.7253 7.37964 45.8204 7.43077 45.9148 7.48304C46.0094 7.53531 46.1032 7.58876 46.1963 7.6434C46.2895 7.69803 46.382 7.7538 46.4737 7.8107C46.5656 7.8676 46.6567 7.92563 46.747 7.98479C46.8374 8.04395 46.927 8.10419 47.0158 8.16552C47.1047 8.22694 47.1928 8.2894 47.2802 8.35288C47.3675 8.41647 47.454 8.48109 47.5397 8.54673C47.6254 8.61237 47.7103 8.6791 47.7944 8.7469C47.8785 8.81471 47.9617 8.88349 48.0441 8.95325C48.1265 9.02312 48.208 9.09396 48.2885 9.16577C48.3691 9.2377 48.4489 9.31054 48.5276 9.38432C48.6065 9.45809 48.6844 9.53284 48.7614 9.60857C48.8383 9.6843 48.9143 9.761 48.9894 9.83868C49.0645 9.91626 49.1386 9.99477 49.2117 10.0742C49.2848 10.1536 49.357 10.2339 49.4282 10.3151C49.4993 10.3964 49.5695 10.4785 49.6386 10.5614C49.7077 10.6444 49.7757 10.7281 49.8428 10.8127C49.9098 10.8974 49.9758 10.9828 50.0407 11.0691C50.1057 11.1554 50.1695 11.2424 50.2323 11.3302C50.2951 11.4181 50.3568 11.5067 50.4173 11.596C50.4779 11.6854 50.5374 11.7755 50.5958 11.8664C50.654 11.9571 50.7113 12.0486 50.7674 12.1409C50.8234 12.2331 50.8784 12.326 50.9322 12.4197C50.986 12.5133 51.0386 12.6075 51.0901 12.7024C51.1415 12.7973 51.1918 12.8927 51.2409 12.9888C51.29 13.0851 51.3379 13.1818 51.3846 13.2792C51.4313 13.3764 51.4769 13.4742 51.5211 13.5727C51.5654 13.6712 51.6085 13.7702 51.6503 13.8696C51.6921 13.9691 51.7327 14.0692 51.772 14.1697C51.8114 14.2702 51.8495 14.3712 51.8863 14.4726C51.9232 14.5741 51.9588 14.676 51.9932 14.7782C52.0275 14.8806 52.0606 14.9833 52.0924 15.0864C53.0954 18.3948 52.8366 22.1902 51.1929 25.2534C49.0957 29.1612 46.1299 30.7732 42.0353 32.0007C42.6669 32.3459 43.3513 32.6055 44.005 32.9069C44.6434 33.1939 45.2601 33.5214 45.8553 33.8896C46.4504 34.2578 47.0188 34.6635 47.5604 35.1065C50.0566 37.183 52.4295 41.6935 54.1996 44.5056C55.7803 47.017 57.4077 49.496 58.9299 52.0441C61.3653 52.4494 63.8198 52.6591 66.2785 52.8651C67.4263 52.9613 68.6584 53.1466 69.805 53.0505C72.8656 52.794 72.2642 50.8358 76.6813 51.7945C77.8418 50.8927 79.0232 50.0121 80.1247 49.0384L77.7613 46.765C76.6833 45.7135 74.939 44.2227 74.9611 42.595C74.968 42.079 75.1632 41.6009 75.446 41.1757C76.0087 40.3298 76.8479 39.6118 77.5662 38.8997C78.5871 37.8977 79.5972 36.8852 80.5968 35.862C79.9711 34.9755 79.4545 34.0765 79.1041 33.0455C78.6033 31.5721 78.3691 29.9451 78.3997 28.3904C78.5338 21.5715 84.9321 22.4833 86.4134 19.4404L86.4599 19.3427C86.4339 18.3959 86.1849 17.5396 85.9567 16.6286C85.4716 14.6923 85.357 12.782 86.1847 10.9184C87.3571 8.27865 90.7615 5.4691 93.8222 5.98922C95.1334 6.21192 96.2933 7.07374 97.6705 6.86971C98.9636 6.67802 100.78 5.26908 102.121 4.75745C105.239 3.56752 108.424 5.35428 111.227 6.61922C111.189 5.43931 110.988 3.89425 111.413 2.77207C111.612 2.24485 111.88 2.024 112.379 1.78678ZM79.2581 53.8284C79.7482 54.9194 80.0865 56.1971 79.6493 57.3711C79.412 58.0084 78.9433 58.6285 78.5131 59.1477C77.3927 60.4991 71.5 66.4957 70.2409 67.0274C69.0419 67.5336 67.6123 67.552 66.4082 67.0482C66.3384 67.0185 66.2694 66.9871 66.2011 66.9541C66.1328 66.9209 66.0653 66.8862 65.9987 66.8499C65.9321 66.8135 65.8664 66.7754 65.8017 66.7358C65.737 66.6963 65.6732 66.6552 65.6105 66.6125C65.5478 66.5698 65.4861 66.5256 65.4256 66.4799C65.365 66.4342 65.3056 66.387 65.2474 66.3384C65.1892 66.2899 65.1321 66.2398 65.0763 66.1884C65.0204 66.1371 64.9659 66.0843 64.9127 66.0302C64.8595 65.9762 64.8077 65.9209 64.7571 65.8643C64.7065 65.8077 64.6574 65.7499 64.6097 65.691C64.562 65.6319 64.5158 65.5718 64.4711 65.5106C64.4263 65.4493 64.3831 65.387 64.3414 65.3237C64.2997 65.2603 64.2595 65.196 64.221 65.1307C64.1825 65.0654 64.1456 64.9992 64.1103 64.9321C64.0749 64.8649 64.0413 64.797 64.0092 64.7282C63.9773 64.6595 63.947 64.59 63.9184 64.5197C63.8005 64.2269 63.7061 63.9181 63.6297 63.6122L58.2979 63.4182C55.2375 63.3051 51.8802 63.4758 49.6118 61.0473C48.9258 60.3126 48.3812 59.4453 47.8148 58.6179C46.764 57.0827 45.727 55.4672 44.5182 54.0535C43.867 57.1442 43.1794 60.2267 42.4554 63.3012C41.9922 65.2696 41.3148 67.3822 41.1707 69.3995C42.0681 71.2798 43.2031 73.0669 44.2558 74.8647L48.9837 83.0305C49.8589 84.5617 50.9078 86.0614 51.5122 87.7279C52.5832 90.6818 52.2821 98.1793 52.3328 101.575C52.3737 104.32 52.5299 107.079 52.5049 109.823C54.7334 110.707 56.6496 111.595 57.6578 113.917C58.0219 114.755 58.1928 115.632 58.3277 116.531C58.9554 116.533 59.5831 116.531 60.2107 116.524L93.7686 116.531C99.6022 116.532 105.465 116.661 111.295 116.52L111.235 90.6134L111.224 82.2374C111.221 80.6181 111.137 78.9439 111.275 77.3327C110.241 76.9625 109.25 76.4975 108.225 76.1045C107.212 75.7162 106.165 75.3915 105.175 74.9493C102.401 73.7108 99.9175 71.6096 98.6025 68.8364C98.4486 68.5116 98.3106 68.1802 98.1888 67.842C98.067 67.5039 97.9618 67.1606 97.8733 66.8122C97.7849 66.4639 97.7135 66.1122 97.6592 65.7569C97.6049 65.4017 97.568 65.0447 97.5485 64.6858C97.309 60.4773 98.8404 56.789 95.2126 53.5277C93.8023 54.9695 92.0263 57.2559 89.8326 57.2708C87.5519 57.2864 84.8841 53.8669 83.3354 52.3498C83.0337 52.0542 82.6668 51.6005 82.3162 51.3818C81.2356 52.1222 80.2521 52.978 79.2581 53.8284ZM20.5932 116.371C20.3965 115.49 20.1019 114.793 19.3162 114.271C18.4046 113.665 16.37 113.468 16.0692 112.29C16.0056 112.04 16.0137 111.814 16.0785 111.564C16.3389 110.56 16.8642 109.572 17.2934 108.63C17.9478 107.203 18.5943 105.773 19.2329 104.339L22.1569 97.6695C23.1132 95.5053 24.2303 93.3287 24.7409 91.009C25.2091 88.8824 25.5746 86.7212 25.9604 84.5781C26.2431 83.0077 26.7523 78.8985 27.5046 77.6746C27.9458 77.4156 28.3705 77.2033 28.8924 77.3439C29.052 77.3868 29.2052 77.4453 29.3486 77.5277C30.2874 78.4698 31.0467 79.679 31.8329 80.7535L35.6197 85.8756C36.3366 86.8463 37.0675 87.8063 37.8124 88.7557C38.565 89.7172 39.5994 90.7895 40.0894 91.9063C40.7435 93.3966 40.6304 95.3485 40.6269 96.9475L40.5958 107.418C40.5895 109.346 40.3598 111.389 40.7509 113.287C40.7707 113.38 40.7938 113.473 40.8203 113.566C40.8468 113.658 40.8765 113.749 40.9094 113.839C40.9425 113.929 40.9787 114.018 41.018 114.105C41.0575 114.193 41.1 114.279 41.1455 114.363C41.1911 114.447 41.2397 114.53 41.2912 114.611C41.3427 114.692 41.397 114.771 41.4542 114.848C41.5113 114.925 41.5712 115 41.6337 115.073C41.6963 115.145 41.7614 115.216 41.8289 115.284C42.3806 115.829 43.1033 116.084 43.8512 116.226C45.2195 116.487 46.6894 116.384 48.0793 116.379C50.4969 116.371 52.931 116.318 55.3473 116.39C55.2418 115.41 55.0558 114.52 54.2495 113.855C52.7135 112.587 49.7294 113.274 49.4319 110.814C49.2639 109.427 49.4312 107.91 49.428 106.506L49.4031 99.3603C49.4059 97.5333 49.4556 95.6925 49.3673 93.8673C49.2922 92.3164 49.2792 90.623 48.8056 89.1347C48.1624 87.1134 46.8275 85.2086 45.7616 83.3803L41.1854 75.4843C40.1458 73.7043 39.017 71.9364 38.1355 70.0718C38.2277 68.7282 38.6005 67.3831 38.8945 66.0719L40.0661 60.7787C40.6433 58.0781 41.2403 55.3817 41.8574 52.6898C42.0662 51.7854 42.1917 50.8236 42.4562 49.9371C42.5581 49.5954 42.7066 49.1774 42.989 48.9404C43.2491 48.7221 43.6184 48.6036 43.9572 48.6417C44.5317 48.7067 44.9911 49.3321 45.3122 49.7704C46.5973 51.5243 47.7733 53.3795 48.9832 55.187C49.9568 56.6411 50.9427 58.4751 52.3242 59.5706C52.873 60.0057 53.6535 60.1943 54.336 60.3022C57.4928 60.8017 60.7526 60.4841 63.8651 60.7791C64.5822 58.736 66.3461 57.3569 67.857 55.8897C65.5077 55.7432 63.1835 55.4685 60.8489 55.1786C59.8104 55.0498 58.6243 55.005 57.6346 54.6633C57.2127 54.5176 56.9008 54.3316 56.6005 53.9989C55.9704 53.301 55.5074 52.3635 55.0142 51.5622C54.404 50.5706 53.7621 49.5954 53.1419 48.6096L49.1607 42.2798C45.9279 37.1476 44.0654 35.3981 38.1091 34.0259C36.8346 33.7266 35.5503 33.4786 34.256 33.282C32.9617 33.0853 31.6616 32.9407 30.3557 32.8481C29.4847 32.7898 28.6133 32.7828 27.7415 32.8271C22.9694 33.3209 19.9104 34.6401 16.8441 38.4049C15.3941 40.1853 14.0584 42.0696 12.6706 43.8988C11.2134 45.8198 7.49967 50.1249 6.8964 52.2771C6.33499 54.2802 6.31785 57.8874 6.12906 60.0595C5.94213 62.2113 5.41348 65.3712 5.64305 67.4287C5.73589 68.2619 6.08689 69.0635 6.7569 69.5903C6.82878 69.6466 6.9033 69.6992 6.98044 69.7482C7.05748 69.7972 7.13678 69.8422 7.21835 69.8832C7.30002 69.9243 7.38344 69.9612 7.46862 69.9939C7.55389 70.0267 7.64056 70.0552 7.72862 70.0794C7.81678 70.1035 7.90587 70.1232 7.99588 70.1385C8.086 70.1538 8.17658 70.1647 8.26762 70.1711C8.35877 70.1773 8.45002 70.1791 8.54137 70.1765C8.63262 70.1737 8.72356 70.1664 8.8142 70.1547C9.49471 70.0664 10.0714 69.7139 10.4822 69.1674C10.8058 68.7368 10.9948 68.2056 11.1392 67.6912C11.5233 66.3231 11.6918 64.8611 11.926 63.4596C12.261 61.4563 12.6258 59.4606 12.9297 57.4519C13.1639 55.9028 13.2501 54.1395 13.9323 52.7091C14.7939 50.9026 16.7862 49.1185 18.0734 47.5397C18.8248 46.6179 19.9943 44.6831 21.2315 44.4529C21.5811 44.3877 21.9326 44.5073 22.2101 44.7191C22.5763 44.9987 22.8461 45.4556 22.9059 45.9135C22.9581 46.314 22.8777 46.7878 22.8044 47.1848C22.5315 48.6598 22.1001 50.1408 21.7661 51.6082L18.9722 63.8323C18.4591 66.1779 17.9397 68.5454 17.5898 70.9208C17.0313 74.7135 16.7403 78.5557 16.3332 82.3675C16.0765 84.7721 15.9598 88.3283 15.4 90.562C14.7854 93.013 13.7456 95.3611 12.8166 97.7049C11.7445 100.41 10.7076 103.133 9.60857 105.828C8.88449 107.603 7.8967 109.461 7.50322 111.34C7.19981 112.789 7.4025 114.257 8.59405 115.269C9.11158 115.708 9.7269 115.991 10.3864 116.141C12.3071 116.577 14.524 116.379 16.4888 116.375C17.8503 116.372 19.2343 116.435 20.5932 116.371ZM39.5333 8.83364C39.3655 8.83045 39.1978 8.83143 39.0301 8.83658C38.8624 8.84162 38.695 8.85083 38.5277 8.8642C38.3605 8.87747 38.1937 8.89486 38.0273 8.91637C37.8609 8.93787 37.6951 8.96344 37.53 8.99307C37.3648 9.0227 37.2005 9.0564 37.0371 9.09416C36.8736 9.13182 36.7112 9.17349 36.5498 9.21917C36.3883 9.26486 36.2281 9.3145 36.0692 9.36811C35.9102 9.42161 35.7526 9.47903 35.5965 9.54035C35.4404 9.60157 35.2858 9.66665 35.1329 9.73559C34.9799 9.80442 34.8287 9.87696 34.6793 9.9532C34.53 10.0295 34.3825 10.1095 34.237 10.193C34.0916 10.2766 33.9483 10.3636 33.8071 10.4542C33.666 10.5447 33.5271 10.6387 33.3906 10.7362C33.254 10.8335 33.1199 10.9342 32.9883 11.0382C32.8568 11.1421 32.7278 11.2492 32.6014 11.3595C32.4752 11.4698 32.3516 11.5831 32.2308 11.6995C32.1101 11.8159 31.9923 11.9351 31.8774 12.0573C31.7625 12.1795 31.6507 12.3044 31.542 12.432C31.4332 12.5597 31.3277 12.6899 31.2254 12.8228C31.1231 12.9556 31.024 13.0909 30.9284 13.2285C30.8327 13.3662 30.7405 13.5061 30.6517 13.6483C30.5629 13.7905 30.4777 13.9348 30.396 14.0812C30.3143 14.2277 30.2363 14.376 30.162 14.5262C30.0875 14.6764 30.0168 14.8284 29.95 14.9821C29.8831 15.1358 29.8199 15.2911 29.7606 15.4479C29.7014 15.6047 29.646 15.7628 29.5945 15.9223C29.543 16.0818 29.4954 16.2425 29.4518 16.4043C29.4082 16.5662 29.3686 16.729 29.333 16.8928C29.2974 17.0566 29.2659 17.2212 29.2384 17.3865C29.2109 17.5519 29.1875 17.7178 29.1681 17.8843C29.1489 18.0507 29.1337 18.2176 29.1226 18.3849C29.1114 18.5521 29.1044 18.7195 29.1016 18.8871C29.0987 19.0547 29.0999 19.2223 29.1053 19.3898C29.1106 19.5573 29.1201 19.7246 29.1337 19.8917C29.1473 20.0587 29.165 20.2253 29.1868 20.3916C29.2086 20.5578 29.2344 20.7233 29.2644 20.8883C29.2943 21.0532 29.3282 21.2173 29.3662 21.3804C29.4042 21.5437 29.4462 21.7059 29.4922 21.8671C29.5382 22.0283 29.5881 22.1883 29.642 22.3471C29.6958 22.5058 29.7535 22.6631 29.8151 22.819C29.8767 22.9749 29.9421 23.1292 30.0113 23.2819C30.0805 23.4346 30.1535 23.5855 30.2301 23.7345C30.3066 23.8837 30.3868 24.0309 30.4708 24.1761C30.5546 24.3213 30.6419 24.4643 30.7328 24.6052C30.8237 24.746 30.918 24.8846 31.0156 25.0208C31.1134 25.1571 31.2144 25.2909 31.3186 25.4222C31.4229 25.5535 31.5304 25.6822 31.641 25.8082C31.7516 25.9343 31.8653 26.0575 31.982 26.1778C32.0986 26.2983 32.2182 26.4158 32.3407 26.5304C32.4631 26.645 32.5883 26.7565 32.7162 26.865C32.8442 26.9733 32.9747 27.0785 33.1079 27.1806C33.2409 27.2825 33.3765 27.3812 33.5145 27.4766C33.6524 27.572 33.7926 27.6639 33.9351 27.7524C34.0777 27.8409 34.2223 27.9258 34.3689 28.0072C34.5156 28.0886 34.6642 28.1663 34.8146 28.2404C34.9651 28.3145 35.1173 28.3848 35.2713 28.4514C35.4253 28.518 35.5808 28.5807 35.7378 28.6397C35.8949 28.6987 36.0533 28.7538 36.213 28.805C36.3728 28.8562 36.5337 28.9034 36.6958 28.9466C36.8578 28.99 37.0209 29.0293 37.1849 29.0646C37.3489 29.0999 37.5137 29.1311 37.6793 29.1584C37.8448 29.1856 38.0109 29.2087 38.1777 29.2277C38.3443 29.2467 38.5113 29.2616 38.6788 29.2725C38.8462 29.2834 39.0137 29.2901 39.1815 29.2927C39.349 29.2952 39.5163 29.2938 39.6836 29.2882C39.851 29.2826 40.0181 29.2729 40.1849 29.259C40.3517 29.2452 40.5182 29.2274 40.6842 29.2055C40.8502 29.1836 41.0156 29.1576 41.1803 29.1275C41.3449 29.0975 41.5088 29.0634 41.6718 29.0254C41.8349 28.9873 41.9969 28.9453 42.1578 28.8993C42.3188 28.8533 42.4786 28.8033 42.6371 28.7494C42.7956 28.6956 42.9527 28.6379 43.1084 28.5764C43.264 28.5149 43.4181 28.4496 43.5706 28.3805C43.7232 28.3114 43.8738 28.2386 44.0227 28.1622C44.1716 28.0857 44.3186 28.0057 44.4636 27.922C44.6086 27.8383 44.7514 27.7511 44.8921 27.6604C45.0328 27.5698 45.1712 27.4757 45.3072 27.3783C45.4433 27.2808 45.5769 27.1801 45.7081 27.0761C45.8392 26.9721 45.9677 26.8649 46.0936 26.7546C46.2194 26.6443 46.3425 26.531 46.4628 26.4148C46.5832 26.2984 46.7006 26.1792 46.815 26.0572C46.9294 25.935 47.0408 25.8102 47.1492 25.6827C47.2575 25.5552 47.3627 25.425 47.4646 25.2924C47.5666 25.1597 47.6652 25.0246 47.7605 24.8871C47.8558 24.7496 47.9477 24.6098 48.0361 24.4678C48.1245 24.3258 48.2095 24.1817 48.2908 24.0355C48.3722 23.8893 48.4499 23.7412 48.5241 23.5912C48.5982 23.4413 48.6686 23.2895 48.7353 23.136C48.8019 22.9826 48.8647 22.8277 48.9237 22.6712C48.9829 22.5147 49.0381 22.3568 49.0894 22.1975C49.1406 22.0383 49.188 21.878 49.2313 21.7164C49.2748 21.5549 49.3142 21.3924 49.3497 21.2289C49.3851 21.0654 49.4165 20.9011 49.4439 20.7361C49.4713 20.5711 49.4946 20.4055 49.5139 20.2394C49.5331 20.0733 49.5483 19.9067 49.5595 19.7398C49.5705 19.5729 49.5774 19.4058 49.5803 19.2386C49.5832 19.0714 49.582 18.9042 49.5766 18.737C49.5713 18.5698 49.5618 18.4028 49.5483 18.2361C49.5348 18.0694 49.5172 17.903 49.4955 17.7372C49.4738 17.5713 49.448 17.4061 49.4183 17.2416C49.3885 17.077 49.3547 16.9132 49.3168 16.7502C49.279 16.5873 49.2371 16.4254 49.1913 16.2645C49.1455 16.1036 49.0958 15.9439 49.0422 15.7854C48.9886 15.627 48.9311 15.47 48.8697 15.3144C48.8084 15.1587 48.7433 15.0047 48.6744 14.8523C48.6054 14.6998 48.5328 14.5491 48.4566 14.4003C48.3803 14.2514 48.3003 14.1044 48.2168 13.9595C48.1333 13.8145 48.0463 13.6716 47.9557 13.5309C47.8652 13.3902 47.7713 13.2518 47.674 13.1157C47.5766 12.9796 47.476 12.8459 47.3721 12.7147C47.2683 12.5836 47.1613 12.455 47.0511 12.3292C46.9409 12.2033 46.8276 12.0801 46.7113 11.9597C46.5951 11.8393 46.476 11.7218 46.354 11.6072C46.232 11.4927 46.1072 11.3812 45.9797 11.2728C45.8523 11.1643 45.7223 11.0591 45.5896 10.957C45.457 10.855 45.3219 10.7563 45.1844 10.6608C45.0469 10.5654 44.9071 10.4733 44.7651 10.3847C44.6231 10.2961 44.479 10.2111 44.3327 10.1296C44.1866 10.048 44.0385 9.97013 43.8884 9.89594C43.7385 9.82165 43.5867 9.75107 43.4331 9.68419C43.2797 9.61731 43.1247 9.55429 42.9681 9.49513C42.8116 9.43586 42.6536 9.38046 42.4943 9.32891C42.335 9.27746 42.1745 9.22993 42.0129 9.1863C41.8513 9.14257 41.6887 9.10291 41.5251 9.06731C41.3615 9.0316 41.1972 8.99991 41.0321 8.97224C40.8669 8.94466 40.7012 8.9211 40.535 8.90155C40.3686 8.8821 40.2019 8.86672 40.0349 8.8554C39.8678 8.84409 39.7006 8.83683 39.5333 8.83364ZM86.1229 44.6643C86.6354 44.8052 87.198 45.0586 87.4761 45.5443C87.6582 45.8624 87.638 46.2473 87.5294 46.5859C87.103 47.9159 85.6018 48.5797 84.6707 49.5051C85.4869 50.3964 86.3452 51.2506 87.191 52.1138C88.0446 52.9804 88.881 53.8541 89.8481 54.5973C91.4263 53.4528 92.7656 51.8073 94.1414 50.4245C96.883 47.6712 99.6426 44.9359 102.42 42.2185C99.5707 38.9029 96.3313 35.7737 93.1575 32.7663C92.3245 31.977 91.326 30.843 90.324 30.2949C88.4751 31.859 86.8543 33.6465 85.1402 35.3519C82.734 37.7458 80.2782 40.097 77.949 42.5664C79.3298 44.313 80.8205 45.7812 82.4661 47.2727C83.729 46.3941 84.5547 44.9975 86.1229 44.6643ZM103.813 7.3355C101.84 7.85546 100.318 9.36857 98.3601 9.81399C95.5309 10.4576 93.5601 7.7715 90.751 9.87943C90.1365 10.3406 89.5561 10.9269 89.1672 11.5938C87.3602 14.6927 90.6217 17.9772 89.0662 21.044C88.6837 21.7981 88.0488 22.3472 87.357 22.8085C84.868 24.4683 81.4851 24.8553 81.5033 28.5508C81.5078 29.4766 81.6224 30.4448 81.8642 31.3396C82.0823 32.147 82.4315 32.9227 82.8327 33.6548C84.4787 31.7733 87.7052 27.7873 90.2938 27.5902C91.4054 27.5056 92.3841 28.0104 93.1871 28.7307C95.9369 31.1973 98.4287 34.0104 101.036 36.6294C102.127 37.7259 103.573 38.7794 104.494 39.9907C104.827 40.4282 105.026 41.0692 105.048 41.6145C105.11 43.191 104.097 44.5302 103.053 45.6003C101.359 47.3351 99.5243 48.9448 97.8818 50.7276L97.3669 51.3105C97.9526 51.9968 98.6419 52.606 99.1412 53.361C100.445 55.3322 100.928 58.335 100.743 60.6531C100.467 64.1039 100.071 66.323 102.53 69.1981C104.77 71.8166 108.051 72.907 111.226 73.9261L111.209 9.64144C109.268 9.00326 105.698 7.21326 103.813 7.3355ZM68.9693 64.4984C70.4609 63.5462 71.6803 61.9221 72.9401 60.6838C74.0896 59.5538 75.4887 58.4734 76.47 57.1972C76.7077 56.8881 76.7927 56.4982 76.8772 56.1258C76.7036 55.5063 76.4897 54.951 75.8942 54.6133C75.3952 54.3304 74.8596 54.3068 74.3011 54.3327C73.9291 54.4948 73.5842 54.6619 73.2548 54.9007C71.9305 55.8602 67.1405 60.2421 66.6421 61.5259C66.4064 62.1332 66.4221 62.8067 66.7158 63.3921C66.9686 63.8956 67.4572 64.3481 68.0077 64.4975C68.3396 64.5878 68.6356 64.5597 68.9693 64.4984ZM29.381 82.4573L28.3362 88.2107C28.0586 89.7538 27.821 91.3243 27.3574 92.8248C26.711 94.9169 25.6098 96.9349 24.7381 98.9453L19.5258 111.055C21.185 111.921 22.6605 112.963 23.2473 114.829C23.4208 115.38 23.4637 115.923 23.534 116.493C25.6021 116.477 27.6701 116.48 29.7382 116.502C32.785 116.498 35.9147 116.334 38.9535 116.523C38.4091 115.655 38.0031 114.822 37.8175 113.807C37.4602 111.852 37.6637 109.65 37.6712 107.655L37.68 97.7719C37.6814 96.3787 37.9493 94.8574 37.4514 93.5211C36.8515 91.9112 34.074 88.6083 32.9231 87.0666C32.2772 86.2015 30.0669 82.8796 29.381 82.4573Z" stroke="#D9D9D9" stroke-width="2" mask="url(#path-1-outside-1_1_2467)"/>
</g>
<defs>
<clipPath id="clip0_1_2467">
<rect width="116" height="121" fill="white"/>
</clipPath>
</defs>
</svg>
