<svg xmlns="http://www.w3.org/2000/svg">

	<symbol id="pump" viewBox="0 0 165 133">
		<path d="M115.848 0.119369C127.724 -0.468415 140.177 0.939379 149.933 8.29924C156.264 13.0752 160.71 19.5898 162.718 27.2715C165.644 38.4666 163.084 50.638 156.955 60.3177C154.176 64.7065 150.771 68.7223 148.587 73.4686C146.044 78.9979 145.141 85.6804 145.957 91.7174C146.934 91.8551 149.097 91.9583 149.774 92.6225C151.552 94.3693 152.508 106.904 152.429 109.789C152.396 110.986 152.32 112.747 151.42 113.606C147.074 114.432 139.524 113.832 134.892 113.614C134.055 108.711 134.523 97.7504 136.886 93.3423C137.576 92.0569 138.842 91.9448 140.158 91.5779C141.61 90.0984 141.061 83.6106 141.288 81.3659C141.474 79.5086 141.81 77.6789 142.297 75.8769C146.501 60.4944 159.229 55.1915 159 36.6847C158.899 28.5784 155.883 20.6375 150.006 14.9597C140.989 6.24876 128.325 4.90237 116.388 5.17877C109.472 5.33897 102.001 6.40425 97.0386 11.7342C89.7722 19.5374 91.2697 33.544 91.6859 43.342C93.4937 43.3255 95.4734 43.0586 96.8789 44.4399C98.7675 46.2958 98.0244 50.7344 97.9391 53.1679C100.724 53.4339 103.316 53.7133 105.91 54.8569C111.142 57.1639 114.291 61.4927 116.293 66.6911C116.508 67.6368 116.691 68.5886 116.844 69.5466C117.582 74.3158 116.262 79.3796 113.39 83.2402C109.46 88.5224 104.215 90.2276 97.9934 91.1972C98.0714 93.9289 98.4764 97.119 97.8458 99.7857C97.3135 102.037 96.2044 102.943 94.3351 104.108C94.3508 108.463 94.7571 112.814 94.7755 117.167C94.7854 119.613 94.5602 122.346 92.6596 124.122C90.497 126.143 87.3374 125.993 84.594 125.922C82.6131 125.871 79.4858 126.085 78.0775 124.429C75.3449 121.216 76.4249 108.223 76.8321 104.069C67.9328 103.613 58.6864 103.666 49.7813 104.033C48.974 108.526 47.9618 112.674 45.2606 116.464C45.0408 116.771 44.8136 117.071 44.5789 117.366C44.3442 117.661 44.1024 117.95 43.8537 118.234C43.6049 118.517 43.3494 118.794 43.0872 119.064C42.8247 119.335 42.5558 119.599 42.2804 119.856C42.005 120.114 41.7237 120.364 41.4363 120.608C41.1487 120.852 40.8552 121.088 40.556 121.317C40.2567 121.547 39.952 121.768 39.642 121.983C39.3319 122.197 39.0168 122.403 38.6965 122.602C38.3766 122.801 38.0518 122.992 37.722 123.175C37.3925 123.358 37.0587 123.533 36.7205 123.699C36.3827 123.866 36.0408 124.024 35.6948 124.174C35.3489 124.324 34.9995 124.465 34.6467 124.597C34.2939 124.73 33.9381 124.854 33.5793 124.969C33.2206 125.084 32.8591 125.19 32.4949 125.288C32.1307 125.385 31.7645 125.474 31.3961 125.553C31.0277 125.633 30.6576 125.703 30.2857 125.765C29.9173 125.823 29.5477 125.872 29.177 125.912C28.8062 125.952 28.4348 125.983 28.0625 126.004C27.6903 126.026 27.3176 126.038 26.9445 126.041C26.5716 126.045 26.1989 126.039 25.8264 126.023C25.4538 126.008 25.0819 125.984 24.7105 125.951C24.3389 125.917 23.9684 125.874 23.5992 125.822C23.2299 125.771 22.8622 125.71 22.4959 125.64C22.1297 125.57 21.7653 125.491 21.403 125.403C21.0406 125.315 20.6806 125.218 20.323 125.113C19.9651 125.007 19.6102 124.893 19.2583 124.769C18.9064 124.646 18.5576 124.515 18.212 124.374C17.8667 124.234 17.5249 124.085 17.1868 123.928C16.8486 123.77 16.5145 123.605 16.1844 123.431C15.8546 123.257 15.5292 123.076 15.2081 122.886C14.8869 122.696 14.5708 122.499 14.2595 122.293C13.9483 122.088 13.6423 121.875 13.3415 121.654C7.37438 117.313 5.00683 111.219 3.88158 104.171C2.97878 103.612 2.00735 103.045 1.25883 102.286C0.683872 101.701 0.436309 101.145 0.278891 100.344C-0.215788 97.8213 0.101301 94.8039 0.0869493 92.2287C0.0569008 86.7922 -0.0579248 81.3413 0.0618206 75.9056C0.101287 74.1099 0.0757448 71.9105 0.683442 70.2162C2.17869 66.0493 7.53806 61.5644 10.6887 58.5497C16.937 52.571 18.8488 52.6091 27.2875 52.7871C27.0494 49.3612 26.3498 43.778 28.1069 40.7722C29.5367 39.7452 31.933 39.5402 33.6542 39.3994C37.957 39.0478 60.784 38.4051 63.3125 40.8005C65.0334 42.4307 64.1462 50.2976 64.0548 52.7979L80.6173 52.8244C80.5567 50.5976 80.0042 46.7945 81.5192 45.018C82.8207 43.4923 85.1398 43.5524 86.9683 43.3941C86.5992 32.1681 85.2676 17.8672 93.3166 8.81993C99.168 2.24299 107.498 0.678226 115.848 0.119369ZM4.94134 71.8491C4.20717 80.0102 4.99111 88.1475 4.76866 96.3157C8.05561 89.7042 11.7987 84.1927 19.1238 81.6857C19.4817 81.5607 19.8423 81.4446 20.2055 81.3372C20.5691 81.2302 20.9351 81.1321 21.3034 81.043C21.6718 80.9539 22.0421 80.8741 22.4143 80.8035C22.7868 80.7327 23.1607 80.6712 23.536 80.6192C23.9112 80.5669 24.2876 80.524 24.6652 80.4905C25.0429 80.457 25.4209 80.4329 25.7995 80.4183C26.1783 80.4033 26.5571 80.3978 26.9359 80.4017C27.3147 80.4059 27.6934 80.4193 28.0719 80.4421C28.4502 80.4648 28.8276 80.4968 29.2044 80.538C29.5811 80.5796 29.9565 80.6304 30.3305 80.6905C30.7048 80.7503 31.0774 80.8195 31.4481 80.8982C31.8189 80.9765 32.1874 81.0641 32.5536 81.161C32.9202 81.2579 33.2841 81.3636 33.6453 81.4781C34.0064 81.5929 34.3645 81.7165 34.7194 81.849C35.0746 81.9817 35.4262 82.123 35.7742 82.2728C36.1222 82.4229 36.4664 82.5813 36.8066 82.7482C42.1902 85.4499 46.3952 89.9858 48.2533 95.7228C48.5592 96.6669 48.874 98.542 49.6068 99.1977L51.2227 99.3148L81.4075 99.3166C81.1295 85.4256 80.9043 71.4513 80.9438 57.5604C60.2574 57.3393 39.4684 57.2132 18.7865 57.5774C13.9949 61.7331 8.4588 66.5319 4.94134 71.8491ZM86.0251 99.239L91.2477 99.3255L92.9905 99.2632C93.1049 99.1268 93.2744 99.0223 93.3336 98.855C93.7947 97.5531 93.5287 53.3608 93.3211 48.2337C91.8406 48.2332 90.3445 48.1861 88.8663 48.24C87.8733 48.2987 86.4315 48.196 85.565 48.6893C85.3493 58.5524 85.7403 68.4734 85.8296 78.3418C85.8924 85.2507 85.5314 92.3579 86.0251 99.239ZM98.0136 86.7105C101.856 85.9342 105.228 85.0574 108.161 82.2871C110.983 79.1267 112.714 75.6285 112.446 71.2934C112.43 71.056 112.408 70.8192 112.38 70.583C112.352 70.3468 112.319 70.1115 112.279 69.8771C112.24 69.6424 112.195 69.4089 112.144 69.1766C112.092 68.9443 112.036 68.7133 111.974 68.4837C111.911 68.2543 111.843 68.0265 111.769 67.8002C111.695 67.5741 111.616 67.35 111.531 67.1279C111.446 66.9054 111.356 66.6854 111.26 66.4677C111.165 66.2501 111.064 66.0348 110.957 65.8219C110.851 65.6093 110.74 65.3994 110.623 65.1922C110.506 64.985 110.384 64.7808 110.257 64.5796C110.13 64.3784 109.999 64.1804 109.862 63.9858C109.725 63.7912 109.584 63.6001 109.438 63.4126C109.292 63.2249 109.141 63.0409 108.986 62.8606C108.83 62.6806 108.671 62.5045 108.507 62.3322C108.343 62.16 108.174 61.9918 108.002 61.8277C107.83 61.6638 107.654 61.5043 107.473 61.3492C104.942 59.1493 101.256 57.5631 97.8911 57.429C98.0107 67.1892 98.0515 76.9497 98.0136 86.7105ZM141.379 96.6826L140.721 96.8221C139.507 99.9067 139.583 105.602 139.341 109.022L146.245 109.01L147.315 108.897C148.563 106.739 146.599 99.3085 146.168 96.775C144.568 96.696 142.981 96.6108 141.379 96.6826ZM89.6843 121.029C89.7094 115.384 89.6063 109.701 89.8265 104.062C86.9436 103.944 84.1204 103.927 81.2389 104.081L81.238 121.099C84.0464 121.13 86.8826 121.25 89.6843 121.029ZM59.439 44.0255C50.3724 43.7928 41.1462 43.7354 32.0836 44.0462L32.1025 52.7916L59.4215 52.7844L59.439 44.0255ZM29.273 121.192C29.5672 121.151 29.8601 121.103 30.1516 121.047C30.4434 120.992 30.7335 120.93 31.0221 120.86C31.3109 120.79 31.5978 120.713 31.8827 120.629C32.1674 120.546 32.4499 120.455 32.7304 120.357C33.0108 120.259 33.2887 120.155 33.5641 120.044C33.8392 119.932 34.1114 119.814 34.3808 119.689C34.6505 119.565 34.9167 119.433 35.1795 119.296C35.4426 119.158 35.7021 119.014 35.9581 118.863C36.214 118.712 36.4661 118.555 36.7142 118.392C36.9624 118.229 37.2065 118.06 37.4466 117.885C37.6864 117.71 37.9219 117.53 38.153 117.343C38.3838 117.156 38.61 116.964 38.8315 116.767C39.0531 116.569 39.2697 116.366 39.4814 116.157C39.6931 115.949 39.8994 115.735 40.1003 115.517C40.3015 115.299 40.4972 115.075 40.6874 114.847C40.8775 114.619 41.0618 114.386 41.2403 114.149C41.4191 113.912 41.592 113.67 41.7588 113.425C41.9256 113.179 42.0863 112.929 42.2409 112.676C42.3955 112.422 42.5436 112.165 42.6854 111.904C42.8274 111.643 42.9628 111.379 43.0917 111.111C43.2205 110.844 43.3428 110.573 43.4585 110.299C43.5742 110.026 43.6831 109.75 43.785 109.471C43.887 109.192 43.9821 108.911 44.0703 108.627C44.1585 108.344 44.2397 108.058 44.3138 107.77C44.3883 107.483 44.4554 107.194 44.5152 106.903C44.5753 106.612 44.6281 106.319 44.6735 106.026C44.7192 105.733 44.7577 105.438 44.7887 105.143C44.8198 104.847 44.8436 104.551 44.8601 104.255C44.8768 103.959 44.8862 103.662 44.8883 103.365C44.8901 103.068 44.8847 102.771 44.8722 102.474C44.8596 102.177 44.8397 101.881 44.8125 101.585C44.7853 101.29 44.7509 100.995 44.7094 100.701C44.6678 100.406 44.6189 100.114 44.5627 99.822C44.5068 99.5305 44.4437 99.2403 44.3735 98.9515C44.3029 98.663 44.2255 98.3764 44.1411 98.0917C44.0568 97.8071 43.9655 97.5246 43.8671 97.2441C43.7687 96.9639 43.6637 96.6863 43.5518 96.4113C43.44 96.1362 43.3213 95.864 43.1957 95.5946C43.0705 95.3255 42.9388 95.0595 42.8006 94.7967C42.6622 94.5339 42.5173 94.2747 42.366 94.019C42.2151 93.7634 42.0578 93.5117 41.8942 93.2638C41.7307 93.0156 41.5612 92.7718 41.3857 92.5323C41.2102 92.2928 41.029 92.0577 40.8421 91.8268C40.6549 91.5963 40.4622 91.3704 40.264 91.1492C40.0661 90.9279 39.8626 90.7118 39.6536 90.5007C39.4449 90.2896 39.2311 90.0836 39.0123 89.8827C38.7934 89.682 38.5698 89.487 38.3413 89.2974C38.1129 89.1075 37.8798 88.9235 37.6421 88.7453C37.4047 88.5671 37.163 88.3949 36.9169 88.2286C36.6709 88.0624 36.4209 87.9022 36.1671 87.7479C35.9132 87.5939 35.6558 87.4462 35.3948 87.3048C35.1335 87.1633 34.869 87.0285 34.6014 86.9002C34.3335 86.772 34.0628 86.6503 33.7892 86.5352C33.5153 86.4201 33.2389 86.3118 32.96 86.2105C32.6807 86.1088 32.3992 86.0142 32.1155 85.9266C31.832 85.839 31.5463 85.7584 31.2584 85.6848C30.9708 85.6113 30.6815 85.5449 30.3906 85.4857C30.0997 85.4262 29.8074 85.374 29.5138 85.3292C29.2205 85.284 28.9262 85.2462 28.6308 85.2157C28.3354 85.1852 28.0393 85.1621 27.7427 85.1462C27.4464 85.1301 27.1498 85.1214 26.8529 85.1202C26.5561 85.1187 26.2593 85.1245 25.9627 85.1377C25.6658 85.1511 25.3697 85.1718 25.0743 85.1996C24.7786 85.2274 24.4838 85.2624 24.1899 85.3045C23.8968 85.3467 23.6049 85.396 23.314 85.4525C23.0233 85.509 22.7342 85.5726 22.4466 85.6431C22.159 85.714 21.8734 85.7917 21.59 85.8764C21.3059 85.961 21.0243 86.0526 20.7451 86.1513C20.4658 86.2496 20.1892 86.3549 19.9153 86.467C19.6412 86.5788 19.3698 86.6975 19.1013 86.8231C18.8331 86.9484 18.5681 87.0802 18.3062 87.2187C18.0446 87.3568 17.7864 87.5015 17.5316 87.6528C17.2769 87.8038 17.0259 87.9609 16.7787 88.1242C16.5317 88.2874 16.2889 88.4566 16.0503 88.6318C15.8114 88.8071 15.577 88.9881 15.3471 89.175C15.1175 89.3615 14.8923 89.5538 14.6717 89.7517C14.4513 89.9493 14.2359 90.1524 14.0254 90.3608C13.8149 90.5692 13.6097 90.7825 13.4096 91.0007C13.2096 91.2193 13.0151 91.4425 12.8261 91.6703C12.6369 91.8985 12.4535 92.1309 12.2759 92.3677C12.0983 92.6048 11.9265 92.846 11.7606 93.0911C11.5946 93.3366 11.4348 93.586 11.2811 93.8392C11.1275 94.0921 10.98 94.3488 10.8389 94.6093C10.6981 94.87 10.5635 95.1338 10.4353 95.4008C10.307 95.6678 10.1855 95.9378 10.0707 96.2108C9.95585 96.4838 9.84775 96.7594 9.7464 97.0378C9.64504 97.3159 9.55041 97.5965 9.46251 97.8796C9.3749 98.1624 9.29432 98.4472 9.22077 98.734C9.14722 99.021 9.08055 99.3095 9.02076 99.5995C8.96126 99.8899 8.90895 100.181 8.8638 100.474C8.81865 100.767 8.78053 101.06 8.74943 101.355C8.71864 101.649 8.69517 101.945 8.67903 102.24C8.66258 102.536 8.65331 102.832 8.65122 103.128C8.64942 103.425 8.65481 103.721 8.66737 104.016C8.68022 104.312 8.7001 104.608 8.72701 104.903C8.75422 105.198 8.7886 105.492 8.83016 105.785C8.87172 106.078 8.92045 106.37 8.97636 106.661C9.03227 106.952 9.09521 107.242 9.16518 107.529C9.23514 107.817 9.31214 108.103 9.39615 108.387C9.48017 108.671 9.57119 108.953 9.66926 109.233C9.76703 109.512 9.87168 109.789 9.9832 110.063C10.0944 110.338 10.2125 110.609 10.3375 110.878C10.4622 111.147 10.5935 111.412 10.7313 111.674C10.8688 111.936 11.0129 112.195 11.1636 112.45C11.314 112.705 11.4705 112.956 11.6332 113.204C11.7958 113.451 11.9646 113.695 12.1395 113.934C12.3141 114.173 12.4946 114.408 12.6808 114.638C12.8671 114.868 13.0588 115.094 13.2558 115.315C13.4531 115.536 13.6557 115.752 13.8635 115.963C14.0713 116.174 14.2842 116.379 14.5021 116.58C14.7201 116.781 14.9429 116.976 15.1704 117.165C15.3979 117.355 15.6299 117.539 15.8664 117.717C16.1029 117.895 16.3436 118.068 16.5885 118.234C16.8334 118.401 17.0823 118.561 17.3352 118.715C17.5879 118.87 17.8443 119.017 18.1044 119.159C18.3645 119.301 18.6279 119.436 18.8946 119.565C19.1613 119.693 19.431 119.815 19.7037 119.931C19.9763 120.047 20.2516 120.155 20.5293 120.257C20.8074 120.359 21.0878 120.454 21.3707 120.543C21.6532 120.631 21.9379 120.712 22.2246 120.786C22.5113 120.861 22.7996 120.928 23.0893 120.988C23.3793 121.048 23.6707 121.101 23.9634 121.147C24.2558 121.193 24.5492 121.232 24.8437 121.263C25.1383 121.295 25.4334 121.319 25.7291 121.336C26.0245 121.353 26.3203 121.363 26.6166 121.365C26.9126 121.368 27.2086 121.363 27.5046 121.351C27.8003 121.339 28.0957 121.32 28.3908 121.293C28.6856 121.267 28.9797 121.233 29.273 121.192Z" />
        <path d="M25.368 94.2802C25.5142 94.2578 25.6609 94.2389 25.808 94.2237C25.9551 94.2084 26.1025 94.1968 26.2502 94.1887C26.3979 94.1806 26.5456 94.1763 26.6933 94.1757C26.8413 94.1748 26.9891 94.1775 27.1368 94.1838C27.2845 94.1904 27.4321 94.2004 27.5795 94.2138C27.7266 94.2276 27.8734 94.2448 28.0199 94.2654C28.1664 94.2863 28.3122 94.3107 28.4572 94.3385C28.6025 94.3666 28.747 94.3982 28.8909 94.4331C29.0344 94.4681 29.177 94.5065 29.3187 94.5484C29.4607 94.5903 29.6016 94.6356 29.7412 94.6843C29.8808 94.7333 30.0191 94.7856 30.1561 94.8413C30.293 94.8966 30.4286 94.9553 30.5628 95.0175C30.6971 95.0797 30.8297 95.1452 30.9606 95.2139C31.0916 95.2827 31.2207 95.3546 31.3481 95.4297C31.4758 95.5044 31.6014 95.5824 31.7248 95.6638C31.8486 95.7448 31.9703 95.8288 32.0899 95.9158C32.2095 96.0031 32.3269 96.0931 32.442 96.1858C32.5571 96.2785 32.67 96.374 32.7806 96.4724C32.8909 96.5708 32.9988 96.6717 33.1044 96.7751C33.2099 96.8789 33.3129 96.985 33.4134 97.0936C33.5139 97.2021 33.6115 97.3132 33.7062 97.4268C33.8013 97.5401 33.8936 97.6556 33.983 97.7735C34.0721 97.8913 34.1585 98.0113 34.2422 98.1336C34.3256 98.2556 34.406 98.3797 34.4835 98.5058C34.5606 98.6317 34.6348 98.7595 34.7059 98.8893C34.7771 99.019 34.8451 99.1505 34.91 99.2835C34.9746 99.4163 35.036 99.5506 35.0943 99.6867C35.1526 99.8227 35.2075 99.9601 35.2589 100.099C35.3103 100.238 35.3583 100.377 35.4029 100.518C35.4477 100.659 35.489 100.801 35.5266 100.944C35.5643 101.087 35.5984 101.231 35.6289 101.376C35.6597 101.521 35.6869 101.666 35.7105 101.812C35.7341 101.958 35.7542 102.104 35.7706 102.252C35.7871 102.399 35.7999 102.546 35.8092 102.694C35.8185 102.841 35.824 102.989 35.8258 103.137C35.8279 103.285 35.8264 103.433 35.8213 103.58C35.8159 103.728 35.8071 103.876 35.7949 104.023C35.7823 104.17 35.7663 104.318 35.7469 104.464C35.7271 104.611 35.7039 104.757 35.6773 104.903C35.6507 105.048 35.6205 105.193 35.5867 105.337C35.5529 105.481 35.5156 105.624 35.4746 105.766C35.4339 105.908 35.3897 106.049 35.3419 106.189C35.2943 106.329 35.2434 106.468 35.1889 106.605C35.1345 106.743 35.0768 106.879 35.0158 107.014C34.9545 107.149 34.8901 107.282 34.8225 107.414C34.755 107.545 34.6842 107.675 34.6104 107.803C34.5365 107.931 34.4596 108.057 34.3794 108.181C34.2993 108.306 34.2162 108.428 34.1301 108.549C34.0439 108.669 33.955 108.787 33.8632 108.903C33.7714 109.019 33.6768 109.133 33.5793 109.244C33.4822 109.355 33.3821 109.464 33.2793 109.57C33.1767 109.677 33.0715 109.781 32.9635 109.882C32.8559 109.983 32.7457 110.082 32.633 110.178C32.5206 110.274 32.4058 110.367 32.2886 110.457C32.1714 110.547 32.0521 110.635 31.9307 110.719C31.8093 110.804 31.686 110.885 31.5607 110.964C31.4351 111.042 31.3079 111.118 31.179 111.19C31.0499 111.262 30.919 111.331 30.7866 111.397C30.6541 111.463 30.5202 111.525 30.3848 111.585C30.2493 111.644 30.1125 111.7 29.9744 111.752C29.8363 111.805 29.6968 111.854 29.556 111.9C29.4154 111.946 29.2739 111.988 29.1312 112.027C28.9886 112.066 28.8451 112.102 28.7007 112.133C28.5563 112.165 28.4111 112.193 28.2652 112.218C28.1178 112.243 27.97 112.265 27.8217 112.282C27.6734 112.3 27.5246 112.314 27.3754 112.325C27.2265 112.335 27.0774 112.342 26.9279 112.345C26.7784 112.348 26.629 112.347 26.4798 112.343C26.3303 112.338 26.1811 112.33 26.0322 112.319C25.8833 112.307 25.7347 112.292 25.5864 112.273C25.4381 112.254 25.2904 112.231 25.1433 112.204C24.9965 112.178 24.8502 112.148 24.7043 112.115C24.559 112.081 24.4144 112.044 24.2706 112.003C24.1267 111.963 23.984 111.919 23.8423 111.871C23.7009 111.823 23.5605 111.772 23.4211 111.717C23.2821 111.663 23.1446 111.604 23.0085 111.543C22.8722 111.482 22.7375 111.417 22.6045 111.349C22.4714 111.28 22.3402 111.209 22.2107 111.135C22.0812 111.06 21.9537 110.982 21.8281 110.902C21.7025 110.82 21.5789 110.736 21.4572 110.649C21.3358 110.562 21.2165 110.473 21.0993 110.38C20.9824 110.287 20.8678 110.191 20.7554 110.092C20.6429 109.994 20.533 109.893 20.4257 109.789C20.3184 109.685 20.2136 109.578 20.1113 109.469C20.0094 109.36 19.9101 109.249 19.8135 109.134C19.717 109.021 19.6232 108.904 19.5323 108.786C19.4414 108.667 19.3535 108.546 19.2686 108.423C19.1837 108.3 19.1019 108.175 19.0233 108.048C18.9447 107.921 18.869 107.792 18.7964 107.661C18.724 107.531 18.6549 107.398 18.5892 107.264C18.5234 107.13 18.4609 106.994 18.4017 106.857C18.3425 106.719 18.2869 106.581 18.2348 106.441C18.1825 106.301 18.1337 106.16 18.0882 106.017C18.0431 105.875 18.0014 105.731 17.9631 105.587C17.9248 105.442 17.8901 105.297 17.859 105.151C17.8279 105.005 17.8004 104.858 17.7765 104.71C17.7526 104.563 17.7324 104.415 17.716 104.266C17.6995 104.118 17.6867 103.969 17.6774 103.819C17.6681 103.67 17.6626 103.521 17.6608 103.371C17.659 103.222 17.661 103.073 17.6666 102.923C17.672 102.774 17.6811 102.625 17.694 102.476C17.7071 102.327 17.7237 102.178 17.7438 102.03C17.7641 101.882 17.788 101.735 17.8155 101.588C17.843 101.441 17.8741 101.295 17.9088 101.15C17.9435 101.004 17.9819 100.859 18.0241 100.716C18.0656 100.573 18.1109 100.43 18.16 100.289C18.2087 100.148 18.261 100.008 18.3169 99.8692C18.3729 99.7305 18.4321 99.5933 18.4945 99.4575C18.557 99.3218 18.6228 99.1877 18.6919 99.0552C18.7612 98.9228 18.8337 98.7921 18.9094 98.6632C18.985 98.5344 19.0637 98.4075 19.1453 98.2825C19.2272 98.1572 19.3121 98.0342 19.4 97.9134C19.4882 97.7926 19.5791 97.674 19.6727 97.5577C19.7666 97.4414 19.8633 97.3275 19.9629 97.216C20.0621 97.1042 20.1642 96.995 20.2692 96.8886C20.3738 96.7822 20.4812 96.6783 20.5912 96.5769C20.7009 96.4758 20.8132 96.3775 20.928 96.2818C21.0428 96.1858 21.16 96.093 21.2796 96.0033C21.3989 95.9133 21.5203 95.8263 21.6438 95.7423C21.7676 95.6586 21.8933 95.5778 22.021 95.5001C22.1486 95.4223 22.2781 95.3478 22.4094 95.2763C22.5406 95.2051 22.6737 95.1371 22.8085 95.0722C22.943 95.0076 23.0792 94.9464 23.2171 94.8884C23.3546 94.8301 23.4936 94.7753 23.6342 94.7242C23.7744 94.6731 23.916 94.6255 24.0589 94.5816C24.2015 94.5373 24.3452 94.4967 24.4899 94.4596C24.6349 94.4225 24.7805 94.389 24.9267 94.3591C25.0732 94.3292 25.2203 94.3029 25.368 94.2802ZM28.2361 107.432C28.3043 107.408 28.3718 107.382 28.4388 107.354C28.5058 107.326 28.572 107.297 28.6375 107.266C28.7029 107.235 28.7675 107.203 28.8312 107.169C28.8952 107.135 28.9583 107.099 29.0205 107.062C29.0827 107.025 29.1438 106.986 29.2039 106.946C29.2643 106.906 29.3235 106.864 29.3815 106.821C29.4398 106.778 29.4969 106.734 29.5528 106.688C29.609 106.642 29.6639 106.595 29.7174 106.546C29.7712 106.497 29.8239 106.448 29.8753 106.396C29.9264 106.345 29.9763 106.293 30.0251 106.24C30.0738 106.186 30.1212 106.131 30.1672 106.075C30.2133 106.019 30.2579 105.962 30.3009 105.904C30.3443 105.846 30.3861 105.787 30.4265 105.727C30.4668 105.667 30.5056 105.606 30.5426 105.543C30.58 105.482 30.6159 105.419 30.6503 105.355C30.6844 105.291 30.7169 105.226 30.748 105.161C30.7791 105.095 30.8087 105.029 30.8368 104.963C30.8646 104.896 30.8908 104.828 30.9153 104.76C30.9399 104.692 30.9627 104.623 30.9839 104.554C31.0049 104.485 31.0243 104.415 31.0422 104.345C31.0599 104.274 31.0759 104.204 31.0902 104.133C31.1046 104.062 31.1172 103.991 31.1279 103.919C31.1387 103.848 31.1476 103.776 31.1548 103.704C31.1623 103.632 31.1678 103.559 31.1714 103.487C31.1753 103.415 31.1772 103.342 31.1772 103.27C31.1775 103.197 31.176 103.125 31.1728 103.053C31.1692 102.981 31.1639 102.908 31.1571 102.836C31.1502 102.764 31.1415 102.692 31.131 102.621C31.1206 102.549 31.1085 102.477 31.0947 102.406C31.0807 102.335 31.065 102.265 31.0476 102.194C31.0303 102.124 31.0112 102.054 30.9902 101.985C30.9696 101.915 30.9472 101.847 30.9229 101.778C30.8987 101.71 30.8729 101.643 30.8454 101.576C30.8179 101.508 30.7887 101.442 30.7579 101.377C30.7271 101.311 30.6948 101.246 30.661 101.182C30.6272 101.118 30.5918 101.055 30.5547 100.993C30.5177 100.931 30.4791 100.87 30.439 100.809C30.399 100.749 30.3575 100.69 30.3148 100.631C30.2717 100.573 30.2273 100.516 30.1816 100.459C30.1358 100.403 30.0888 100.348 30.0403 100.294C29.9919 100.241 29.9423 100.188 29.8914 100.137C29.8403 100.085 29.788 100.035 29.7345 99.9863C29.681 99.9372 29.6264 99.8897 29.5708 99.8437C29.5148 99.7976 29.4579 99.7529 29.3999 99.7096C29.3419 99.6662 29.283 99.6242 29.2232 99.5835C29.1631 99.5432 29.1021 99.5042 29.0402 99.4665C28.978 99.4291 28.9151 99.3932 28.8514 99.3588C28.7877 99.3245 28.7233 99.2916 28.6581 99.2602C28.5926 99.2291 28.5265 99.1995 28.4599 99.1714C28.3932 99.1436 28.3258 99.1173 28.2576 99.0925C28.1894 99.0676 28.1208 99.0446 28.0518 99.0234C27.9824 99.0021 27.9127 98.9826 27.8428 98.9646C27.7725 98.9467 27.7019 98.9305 27.6311 98.9162C27.5599 98.9015 27.4886 98.8888 27.4171 98.8781C27.3457 98.867 27.2739 98.8577 27.2019 98.8503C27.1298 98.8428 27.0576 98.8371 26.9853 98.8332C26.9129 98.8293 26.8405 98.8272 26.7682 98.8269C26.6958 98.8266 26.6235 98.8281 26.5511 98.8314C26.4788 98.8344 26.4065 98.8394 26.3345 98.8462C26.2624 98.8528 26.1905 98.8613 26.1188 98.8718C26.047 98.882 25.9757 98.8939 25.9049 98.9077C25.8337 98.9214 25.763 98.937 25.6927 98.9543C25.6225 98.9714 25.5525 98.9902 25.4828 99.0108C25.4135 99.0318 25.3447 99.0542 25.2765 99.0781C25.2081 99.1023 25.1402 99.128 25.0729 99.1552C25.0056 99.1827 24.9391 99.2119 24.8733 99.2427C24.8075 99.2735 24.7425 99.3058 24.6782 99.3396C24.6143 99.3733 24.551 99.4088 24.4885 99.4459C24.426 99.4829 24.3645 99.5215 24.3038 99.5616C24.2434 99.6016 24.1839 99.6432 24.1253 99.6862C24.0667 99.7293 24.0092 99.7737 23.953 99.8194C23.8965 99.8652 23.8414 99.9123 23.7876 99.9607C23.7334 100.009 23.6805 100.059 23.6288 100.111C23.5774 100.161 23.5271 100.214 23.4781 100.267C23.4291 100.321 23.3814 100.376 23.335 100.432C23.2887 100.488 23.2438 100.545 23.2005 100.603C23.1568 100.661 23.1147 100.72 23.074 100.78C23.0337 100.84 22.9946 100.902 22.957 100.964C22.9193 101.026 22.8833 101.089 22.8489 101.153C22.8142 101.217 22.7813 101.281 22.7502 101.347C22.7188 101.412 22.6891 101.479 22.661 101.546C22.6328 101.613 22.6064 101.68 22.5816 101.749C22.5571 101.817 22.534 101.886 22.5125 101.955C22.4913 102.024 22.4717 102.094 22.4538 102.165C22.4358 102.235 22.4197 102.306 22.4053 102.377C22.391 102.448 22.3783 102.52 22.3672 102.592C22.3561 102.663 22.347 102.735 22.3398 102.808C22.3324 102.88 22.3267 102.952 22.3228 103.025C22.3192 103.097 22.3173 103.17 22.317 103.243C22.3167 103.315 22.3182 103.388 22.3214 103.46C22.3247 103.533 22.3298 103.605 22.3367 103.678C22.3436 103.75 22.3523 103.822 22.3627 103.894C22.3732 103.966 22.3853 104.037 22.399 104.109C22.4131 104.18 22.4288 104.251 22.4461 104.321C22.4635 104.392 22.4826 104.462 22.5035 104.531C22.5245 104.601 22.547 104.67 22.5713 104.738C22.5955 104.807 22.6213 104.875 22.6489 104.942C22.6767 105.009 22.706 105.075 22.7368 105.141C22.7675 105.207 22.8 105.272 22.8341 105.336C22.8681 105.4 22.9037 105.463 22.9408 105.526C22.9779 105.588 23.0166 105.65 23.057 105.71C23.097 105.771 23.1386 105.83 23.1817 105.889C23.2247 105.947 23.2692 106.004 23.3153 106.061C23.361 106.117 23.4083 106.172 23.457 106.226C23.5058 106.28 23.5557 106.332 23.6068 106.384C23.6579 106.436 23.7104 106.486 23.7642 106.535C23.8178 106.584 23.8726 106.631 23.9288 106.677C23.9847 106.724 24.0418 106.768 24.1001 106.812C24.1581 106.855 24.2173 106.897 24.2777 106.937C24.3381 106.978 24.3994 107.017 24.4616 107.054C24.5238 107.092 24.5869 107.128 24.6509 107.162C24.7149 107.196 24.7796 107.229 24.8451 107.261C24.9106 107.292 24.9768 107.321 25.0438 107.349C25.111 107.377 25.1787 107.403 25.2469 107.428C25.3154 107.453 25.3843 107.475 25.4537 107.497C25.523 107.518 25.593 107.537 25.6636 107.555C25.7338 107.573 25.8045 107.589 25.8757 107.603C25.9469 107.617 26.0183 107.63 26.0901 107.641C26.1621 107.651 26.2342 107.66 26.3062 107.668C26.3786 107.675 26.451 107.68 26.5233 107.684C26.596 107.688 26.6686 107.69 26.7413 107.69C26.8139 107.69 26.8864 107.688 26.9588 107.685C27.0314 107.681 27.1038 107.676 27.1759 107.669C27.2482 107.662 27.3203 107.653 27.392 107.642C27.4641 107.632 27.5357 107.62 27.6069 107.606C27.678 107.592 27.7489 107.576 27.8194 107.558C27.8897 107.54 27.9597 107.521 28.0293 107.5C28.0987 107.479 28.1676 107.457 28.2361 107.432Z" />
        <path d="M119.075 118.784C124.442 118.436 128.577 120.975 133.163 123.378C142.088 128.053 145.458 126.408 153.778 121.848C155.552 120.875 157.342 119.838 159.292 119.253C160.642 118.849 162.11 118.66 163.392 119.347C163.869 119.991 164.176 120.408 164.077 121.276C163.959 122.308 163.414 122.678 162.691 123.313C157.844 125.041 153.705 128.188 148.891 129.938C140.345 133.043 134.098 128.891 126.484 125.59C124.051 124.536 121.348 123.869 118.998 122.697C118.2 122.299 118.266 122.07 118.011 121.283C118.127 120.256 118.534 119.636 119.075 118.784Z" />
	</symbol>

</svg>