<svg xmlns="http://www.w3.org/2000/svg">

<symbol id="soundproofing" viewBox="0 0 126 133">
        <path d="M60.9768 51.0045C66.2069 50.7068 116.741 67.197 124.667 70.1928C125.692 77.5203 125.49 85.153 124.856 92.5004C119.027 95.8091 111.633 97.8826 105.329 100.172L64.4099 114.738C63.5869 114.914 62.8483 115.004 62.0139 114.834C54.6458 113.334 43.4601 108.622 36.1867 105.97C24.3414 101.65 11.9853 97.7723 0.559355 92.4742C-0.462503 85.4389 0.182389 77.7681 0.419227 70.665C6.47439 66.843 19.2163 64.1202 26.4226 61.8959C37.9609 58.3306 49.4789 54.7001 60.9768 51.0045ZM10.7089 72.1233C21.7847 76.1051 32.8292 80.1725 43.8425 84.3257C49.4186 86.416 55.1249 88.9919 60.8608 90.5476C61.9606 90.8458 62.9262 90.9739 64.0458 90.69L94.2648 79.4855C101.041 77.0332 107.947 74.7818 114.613 72.0526C106.329 69.3892 66.6298 55.7928 61.146 56.1414C44.371 61.5874 27.4666 66.6224 10.7089 72.1233ZM65.9385 108.815L101.35 96.0089C107.507 93.7767 113.861 91.0154 120.175 89.342C120.248 86.3235 121.019 78.1568 119.788 75.837L119.024 75.8351L65.1135 95.4373C65.0671 99.2089 64.2609 105.236 65.4821 108.697L65.9385 108.815ZM5.45006 89.1051C11.8531 91.3655 57.0596 108.567 60.0501 108.605L60.1153 95.6623L5.44809 75.6091L5.45006 89.1051Z" />
        <path d="M1.64377 106.199C7.08266 106.165 25.6893 113.932 31.661 116.071C42.0572 119.801 52.4776 123.461 62.9222 127.052L101.364 113.456C107.3 111.368 113.346 108.697 119.393 107.065C120.902 106.657 122.337 106.369 123.887 106.748C124.543 107.239 124.966 107.556 125.005 108.447C125.06 109.69 124.472 110.173 123.71 111.03C114.895 114.465 105.819 117.325 96.8853 120.436C85.4795 124.408 74.1128 128.582 62.6286 132.314C54.2139 130.324 45.6251 126.487 37.4522 123.573C27.0496 119.863 16.4299 116.624 6.14616 112.601C4.10146 111.801 1.51499 111.149 0.589844 109.031C0.640172 107.895 1.09855 107.154 1.64377 106.199Z" />
        <path d="M46.4852 0.0465492C47.5298 0.0425932 48.5595 0.106877 49.4669 0.681493C54.2288 3.69748 56.7551 13.1218 57.7898 18.4763C60.2593 31.2493 57.6985 42.6813 50.4424 53.4166C49.3653 53.9051 49.1235 53.9031 47.9393 53.7785C47.2811 53.3162 46.9248 53.1584 46.6416 52.3707C45.674 49.6821 49.9258 43.3677 51.0142 40.8091C54.4454 32.7418 53.8987 21.3325 50.7157 13.3814C49.4245 10.1557 47.477 7.21047 46.2079 3.98382C45.5768 2.37915 45.8285 1.56715 46.4852 0.0465492Z" />
        <path d="M76.3238 0C77.1592 0.0296703 78.1573 0.111773 78.9024 0.528642C79.566 0.90051 80.0382 1.62694 79.9904 2.41271C79.8517 4.70474 76.0411 10.5424 74.9763 12.9951C73.9875 15.2718 73.2163 17.7117 72.6508 20.1293C70.9165 27.5415 72.2221 36.2591 75.483 43.0442C76.6603 45.493 78.4085 48.2464 78.8555 50.9262C79.0958 52.3676 78.3266 53.1292 77.5134 54.224C76.4156 53.9852 75.5491 53.5332 74.6955 52.7919C69.7713 48.5154 67.3689 37.4786 66.838 31.0935C65.9246 20.112 69.1797 8.42736 76.3238 0Z" />
        <path d="M90.8197 10.8384C91.5815 11.0451 92.5802 11.2132 93.0751 11.8511C95.4114 14.8671 89.6217 23.2099 89.3331 26.9133C88.9304 32.0744 94.8997 37.2702 94.0239 42.0293C93.8261 43.1039 92.9873 43.5756 92.1361 44.1354C91.2159 43.7121 90.4324 43.2097 89.7051 42.4981C86.0272 38.8996 84.5489 32.9423 84.4715 27.9522C84.3792 21.9895 86.6449 15.1594 90.8197 10.8384Z" />
        <path d="M32.414 10.8579C33.3579 11.0453 34.2095 11.2604 35.0019 11.8341C38.6433 14.4698 40.0564 19.5419 40.574 23.7769C41.4755 31.1588 39.4707 37.7718 34.9279 43.5719C33.7832 43.6421 33.1412 43.6797 32.1357 43.0917C31.3956 41.7951 31.36 40.9649 31.7789 39.4769C32.7598 35.9901 35.0256 32.8693 35.8733 29.3376C37.1152 24.1616 31.9013 19.0296 31.3107 14.1137C31.14 12.6925 31.5643 11.9577 32.414 10.8579Z" />
</symbol>

</svg>