<svg xmlns="http://www.w3.org/2000/svg">

	<symbol id="trowel" viewBox="0 0 147 126">
		<path d="M121.958 0.104159C125.661 -0.25184 129.153 0.240078 132.148 2.5912C135.039 4.86131 137.565 8.39745 137.996 12.1253C138.348 15.1722 137.34 17.3568 135.491 19.7052C131.831 24.3544 110.111 46.8421 105.139 47.2467C101.444 47.5474 99.0184 45.3439 96.4486 43.0454C94.4949 44.8664 93.0191 47.069 91.6181 49.3215C97.5076 50.7883 117.623 53.9963 120.6 58.7224C120.706 58.8904 120.803 59.0634 120.892 59.2413C120.981 59.4189 121.06 59.6006 121.131 59.7863C121.202 59.9721 121.263 60.1608 121.315 60.3525C121.368 60.5443 121.41 60.7381 121.443 60.934C121.476 61.1299 121.499 61.3271 121.512 61.5254C121.526 61.7237 121.53 61.9222 121.523 62.1208C121.517 62.3194 121.501 62.5172 121.475 62.714C121.449 62.9111 121.414 63.1065 121.369 63.3C121.024 64.733 120.346 65.6146 119.296 66.5994C114.349 71.2346 108.174 74.9039 102.703 78.9117C93.4525 85.6874 84.3289 93.2588 74.3825 98.9786C81.4093 99.3814 88.5554 99.1955 95.5984 99.1838L125.954 99.1037C130.69 99.065 141.499 98.2391 145.736 99.2743C146.807 99.5358 147.361 99.8783 147.93 100.814C147.999 101.836 147.995 101.965 147.485 102.846C146.675 103.409 145.866 103.621 144.893 103.702C142.597 103.891 140.107 103.678 137.791 103.677L121.444 103.679L70.0151 103.68L25.4037 103.699C20.0057 103.706 6.35892 104.558 1.8187 103.219C0.880327 102.942 0.446911 102.712 0 101.868L0.285326 101.096C1.56575 99.8526 3.16122 99.2063 4.91601 98.9606C9.03857 98.3841 17.2441 99.0078 21.8248 99.0308C36.2817 99.1037 50.8182 99.4413 65.2661 98.9669C57.3072 95.6612 43.0182 92.6575 34.1277 90.4126C30.2914 89.4436 26.3277 88.5966 22.6507 87.106C21.1322 86.4908 19.3162 85.6842 18.4111 84.2481C17.3377 82.5446 17.024 80.3249 17.4867 78.3707C17.8895 76.6682 19.2613 75.4719 20.5025 74.3368C25.3803 69.8767 31.1442 66.287 36.4275 62.3188C43.8364 56.7538 51.1423 50.412 59.1466 45.7287C59.9518 45.257 60.887 44.6733 61.7876 44.4123C68.2626 42.5355 80.4143 46.5537 86.9127 48.2625C88.6499 45.2278 90.4592 42.3717 93.0065 39.9373C92.0425 38.5583 91.0474 37.1861 90.5285 35.5672C89.9402 33.7318 89.9812 31.401 90.8917 29.6764C93.4899 24.7522 113.379 5.46528 118.438 1.75588C119.522 0.960168 120.69 0.521816 121.958 0.104159ZM89.2697 53.8019C88.6846 55.2889 88.1234 56.7813 87.1211 58.0442C84.1097 61.8382 74.5342 68.9235 70.0206 70.9191C69.1146 71.3196 68.2613 71.5617 67.2621 71.5257C66.3885 71.0217 66.4529 71.0185 66.1734 70.1171C66.393 68.2223 68.1532 66.7547 69.57 65.6286C74.8519 61.4322 81.4548 58.9083 84.8879 52.737C77.9227 50.718 70.9675 48.9786 63.726 48.3629C58.2411 50.9656 23.8627 76.4008 21.7902 80.7795C22.0661 81.6116 22.26 81.8574 23.0521 82.2939C27.0149 84.4785 35.608 86.0015 40.2683 87.2856C48.9707 89.6821 57.7802 92.8002 66.6838 94.2741C68.705 94.6085 70.9211 94.9429 72.9032 94.2543C78.1639 92.4262 89.6972 82.6576 95.0165 78.8356C99.2925 75.7982 114.158 66.1768 115.965 62.5475C115.995 61.6492 116.039 61.2828 115.333 60.6064C112.724 58.1081 93.6767 54.6908 89.2697 53.8019ZM104.651 42.6323C108.45 41.2668 130.868 19.0378 132.724 15.3694C133.409 14.0129 133.289 12.3602 132.777 10.9677C131.869 8.4978 129.626 6.16558 127.214 5.12054C126.025 4.60522 124.713 4.40179 123.424 4.45715C119.595 6.01841 96.3685 28.6506 95.0489 32.2426C94.687 33.2278 95.1335 34.5163 95.5975 35.3885C97.0665 38.1469 101.03 41.6903 104.053 42.4901C104.251 42.5417 104.451 42.5891 104.651 42.6323Z" />
        <path d="M20.4342 110.429C24.9825 111.064 35.4059 121.448 39.0987 124.802C42.6699 121.723 52.9925 111.548 57.2407 111.283C61.428 111.02 71.7938 121.765 75.2148 124.819C78.9597 121.48 88.7157 111.674 93.2154 111.311C94.5188 111.206 95.6646 111.65 96.7763 112.283C100.39 114.338 107.624 121.703 111.329 124.839C114.451 122.405 126.013 111.019 129.061 111.231C133.129 111.513 144.9 121.298 147.628 124.546C148.471 125.55 149.054 126.482 148.93 127.831C148.385 128.449 148.131 128.73 147.264 128.75C144.017 128.829 132.636 118.479 129.649 115.883C125.111 118.206 115.616 129.113 112.196 129.443C108.116 129.839 97.0153 118.688 93.6866 115.677C90.2306 118.559 79.3319 128.821 75.2094 129.08C70.7155 129.361 60.9586 118.913 57.5701 115.672C54.0425 118.721 43.7978 128.782 39.564 129.182C35.3047 129.584 24.8808 118.888 21.3195 115.763C17.0722 119.386 9.28932 126.752 4.48761 128.91C3.60279 129.307 2.79357 129.563 1.85789 129.203C1.37003 128.461 1.28948 128.059 1.39569 127.154C1.72334 124.369 17.3549 112.871 20.4342 110.429Z" />
	</symbol>

</svg>