<svg id="Capa_1" enable-background="new 0 0 512 512" height="512" viewBox="0 0 512 512" width="512" xmlns="http://www.w3.org/2000/svg"><g><path d="m497 0h-482c-8.284 0-15 6.716-15 15v321c0 8.284 6.716 15 15 15h74.787l27.606 27.606c5.858 5.858 15.355 5.858 21.213 0 5.858-5.857 5.858-15.355 0-21.213l-31.998-31.998c-1.429-1.429-3.348-2.708-5.517-3.49-3.588-1.3-.396-.905-71.091-.905v-100.787l6.394 6.394c5.859 5.859 15.355 5.858 21.213 0 5.858-5.857 5.858-15.355 0-21.213l-27.607-27.607v-147.787h155v139h-81c-8.284 0-15 6.716-15 15s6.716 15 15 15h152c8.284 0 15-6.716 15-15s-6.716-15-15-15h-41v-139h267v139c-157.48 0-147.507-.394-151.092.906-2.141.772-4.06 2.034-5.517 3.49l-31.998 31.998c-5.858 5.857-5.858 15.355 0 21.213 5.858 5.859 15.355 5.858 21.213 0l27.607-27.607h139.787v122h-146c-8.284 0-15 6.716-15 15s6.716 15 15 15h146v131h-131v-66c0-8.284-6.716-15-15-15h-65v-58.787l27.606-27.606c5.858-5.857 5.858-15.355 0-21.213-5.857-5.857-15.355-5.857-21.213 0l-27.606 27.606h-73.787c-8.284 0-15 6.716-15 15s6.716 15 15 15h65v65c0 8.284 6.716 15 15 15h65v66c0 8.284 6.716 15 15 15h161c8.284 0 15-6.716 15-15v-482c0-8.284-6.716-15-15-15z"/></g></svg>