<svg width="112" height="51" viewBox="0 0 112 51" fill="none" xmlns="http://www.w3.org/2000/svg">
<path d="M82.0364 28.396C81.5555 28.9321 80.9684 29.3607 80.3131 29.6541C79.6578 29.9474 78.9487 30.0991 78.2316 30.0992C76.8812 30.0752 75.5941 29.5176 74.6475 28.5464C73.7008 27.5752 73.1704 26.268 73.1704 24.9065C73.1704 23.5449 73.7008 22.2378 74.6475 21.2666C75.5941 20.2954 76.8812 19.7377 78.2316 19.7137C79.342 19.7137 80.3692 20.0734 81.2124 20.6766L84.0204 16.696C82.3312 15.4801 80.3073 14.8266 78.2316 14.8266C75.5795 14.8266 73.0359 15.8887 71.1606 17.7792C69.2852 19.6697 68.2316 22.2337 68.2316 24.9073C68.2316 27.5808 69.2852 30.1449 71.1606 32.0354C73.0359 33.9259 75.5795 34.9879 78.2316 34.9879C80.6846 34.986 83.0508 34.073 84.878 32.4234L82.0364 28.396ZM59.2988 15.425L56.502 19.396C57.9073 19.5374 59.2047 20.2185 60.1252 21.2981C61.0458 22.3777 61.5189 23.773 61.4465 25.1947C61.3741 26.6165 60.7617 27.9556 59.7363 28.9345C58.7108 29.9134 57.3511 30.4569 55.9389 30.4524V10.4492H51.2812V14.8266C49.968 14.8266 48.6677 15.0874 47.4544 15.594C46.2412 16.1006 45.1388 16.8431 44.2102 17.7792C43.2816 18.7153 42.545 19.8265 42.0425 21.0496C41.5399 22.2726 41.2812 23.5835 41.2812 24.9073C41.2812 26.2311 41.5399 27.5419 42.0425 28.765C42.545 29.988 43.2816 31.0993 44.2102 32.0354C45.1388 32.9714 46.2412 33.714 47.4544 34.2206C48.6677 34.7272 49.968 34.9879 51.2812 34.9879V39.525H55.9389V34.9863C58.2958 34.9903 60.5782 34.1542 62.3827 32.6256C64.1872 31.0971 65.3975 28.9747 65.7996 26.6336C66.2017 24.2925 65.7698 21.8834 64.5802 19.8323C63.3906 17.7812 61.5199 16.2201 59.2988 15.425ZM45.7788 24.9073C45.7788 24.1794 45.9211 23.4586 46.1975 22.7861C46.4739 22.1136 46.879 21.5026 47.3896 20.988C47.9003 20.4733 48.5065 20.0652 49.1737 19.7867C49.8409 19.5083 50.556 19.3651 51.278 19.3653V30.4492C50.556 30.4494 49.8411 30.3062 49.174 30.0278C48.5069 29.7494 47.9007 29.3412 47.3902 28.8265C46.8796 28.3118 46.4747 27.7008 46.1985 27.0283C45.9223 26.3559 45.7802 25.6351 45.7805 24.9073H45.7788ZM92.8396 34.5831H87.75V15.2283H92.838L92.8396 34.5831ZM93.4844 24.9057L100.369 15.2283H105.665L98.7244 24.767L106.03 34.5831H100.66L93.4844 24.9057Z" fill="#989898"/>
<path d="M13.819 17.666H33.8622C32.8682 15.4183 31.4246 13.4017 29.6219 11.7423C27.8191 10.083 25.696 8.81658 23.3854 8.02246L13.8174 17.666H13.819Z" fill="#989898"/>
<path d="M34.856 20.5029H10.424C10.145 20.5033 9.87212 20.4202 9.64003 20.2641C9.40795 20.108 9.22711 19.8859 9.12048 19.626C9.01385 19.366 8.98623 19.08 9.04112 18.8043C9.09602 18.5285 9.23095 18.2754 9.4288 18.0771L20.176 7.2448C19.3554 7.12821 18.5279 7.06893 17.6992 7.06738C7.9232 7.06738 0 15.0545 0 24.9093C0 26.2271 0.1472 27.5109 0.416 28.7513H25.1088C25.3878 28.7508 25.6607 28.8339 25.8928 28.99C26.1249 29.1461 26.3057 29.3683 26.4123 29.6282C26.5189 29.8881 26.5466 30.1741 26.4917 30.4499C26.4368 30.7256 26.3019 30.9787 26.104 31.1771L14.8528 42.519C15.7808 42.6706 16.728 42.7529 17.696 42.7529C27.472 42.7529 35.3952 34.7658 35.3952 24.9125C35.4016 23.3884 35.2112 21.9125 34.856 20.5029Z" fill="#989898"/>
<path d="M21.7249 31.5947H1.30566C2.24054 33.9184 3.64949 36.018 5.44113 37.7574C7.23277 39.4968 9.36709 40.8371 11.7057 41.6915L21.7249 31.5947Z" fill="#989898"/>
</svg>
