<svg width="36" height="36" viewBox="0 0 36 36" fill="none" xmlns="http://www.w3.org/2000/svg">
<path d="M16.257 19.7888H0C0.11049 20.9642 0.341082 22.1252 0.688186 23.2538H10.3228L4.05014 29.5088C4.7833 30.4083 5.60746 31.2302 6.50956 31.9613L12.7822 25.7063V35.3138C13.914 35.6599 15.0783 35.8898 16.257 36V19.7888ZM36 19.7888H19.743V36C20.9217 35.8898 22.086 35.6599 23.2178 35.3138V23.2538H31.5888C30.9052 25.0146 29.8862 26.6268 28.5879 28.0013V32.625C31.7754 30.3121 34.1201 27.0261 35.2667 23.265V23.1975C35.3344 22.9838 35.3908 22.7588 35.4472 22.5338C35.4511 22.4739 35.4511 22.4137 35.4472 22.3538C35.5149 22.1063 35.56 21.8701 35.6164 21.6338V21.4313C35.6164 21.2288 35.6954 21.0263 35.7292 20.8126C35.7244 20.7527 35.7244 20.6925 35.7292 20.6326C35.7292 20.4413 35.7856 20.2501 35.8082 20.0588C35.8639 19.9633 35.9281 19.8729 36 19.7888ZM18.0508 0.000136336C13.5267 -0.0174125 9.16092 1.65974 5.81797 4.69951C2.47503 7.73927 0.398654 11.92 0 16.4138H12.2971L14.2375 12.9601H4.3209C4.62355 12.129 5.00115 11.3269 5.44908 10.5638H15.6026L17.5431 7.09886H8.35976C11.0212 4.75542 14.4495 3.46214 18 3.46214C21.5505 3.46214 24.9788 4.75542 27.6402 7.09886H18.4795L20.4199 10.5638H30.5735C31.0211 11.3271 31.3987 12.1291 31.7017 12.9601H21.7737L23.6916 16.4138H35.9887C35.5918 11.9393 33.5314 7.77455 30.2123 4.73753C26.8933 1.7005 22.5554 0.0107359 18.0508 0.000136336Z" fill="#0450F2"/>
</svg>
