<svg width="36" height="40" viewBox="0 0 36 40" fill="none" xmlns="http://www.w3.org/2000/svg">
<path d="M2.99998 0H24.2412L35.4999 11.215V37.5C35.4999 38.8812 34.38 40 32.9999 40H2.99998C1.61994 40 0.5 38.8812 0.5 37.5V2.49998C0.5 1.11877 1.62007 0 2.99998 0Z" fill="#E2574C"/>
<path d="M35.4639 11.2499H26.7501C25.3701 11.2499 24.2501 10.13 24.2501 8.74992V0.0249023L35.4639 11.2499Z" fill="#B53629"/>
<path d="M26.1226 18.9538C26.5414 18.9538 26.7464 18.5888 26.7464 18.235C26.7464 17.8688 26.5326 17.515 26.1226 17.515H23.7376C23.2713 17.515 23.0113 17.9012 23.0113 18.3275V24.1887C23.0113 24.7113 23.3088 25.0012 23.7113 25.0012C24.1114 25.0012 24.4101 24.7113 24.4101 24.1887V22.58H25.8526C26.3001 22.58 26.5239 22.2137 26.5239 21.85C26.5239 21.4938 26.3001 21.14 25.8526 21.14H24.4101V18.9538H26.1226ZM18.0613 17.515H16.3163C15.8425 17.515 15.5062 17.84 15.5062 18.3225V24.1938C15.5062 24.7925 15.99 24.98 16.3362 24.98H18.1675C20.3349 24.98 21.7662 23.5538 21.7662 21.3525C21.765 19.025 20.4176 17.515 18.0613 17.515ZM18.1451 23.5326H17.0813V18.9626H18.0401C19.4914 18.9626 20.1226 19.9364 20.1226 21.28C20.1226 22.5376 19.5025 23.5326 18.1451 23.5326ZM11.7526 17.515H10.0239C9.53509 17.515 9.26257 17.8375 9.26257 18.3275V24.1887C9.26257 24.7113 9.57505 25.0012 9.99501 25.0012C10.415 25.0012 10.7275 24.7113 10.7275 24.1887V22.4775H11.8112C13.1487 22.4775 14.2524 21.5299 14.2524 20.0062C14.2526 18.5151 13.1876 17.515 11.7526 17.515ZM11.7239 21.1026H10.7276V18.8913H11.7239C12.3389 18.8913 12.7301 19.3713 12.7301 19.9975C12.7288 20.6226 12.3389 21.1026 11.7239 21.1026Z" fill="white"/>
</svg>
