<svg width="136" height="24" viewBox="0 0 136 24" fill="none" xmlns="http://www.w3.org/2000/svg">
<mask id="mask0_1_883" style="mask-type:luminance" maskUnits="userSpaceOnUse" x="0" y="0" width="136" height="24">
<path d="M6.09383 9.7178L6.14169 14.1873H13.6688L15.405 9.7178H6.09383ZM22.7008 0.457145V4.90268H28.5502V23.4825H32.9957V4.90268H38.8132V0.457145H22.7008ZM0.78418 3.88967L3.93487 7.04037C5.21376 5.72692 7.00049 4.91066 8.9813 4.91066C12.8711 4.91066 16.0245 8.06402 16.0245 11.9539C16.0245 15.8437 12.8711 18.9971 8.9813 18.9971C7.00314 18.9971 5.21376 18.1808 3.93487 16.8647L0.78418 20.0154C2.87135 22.1371 5.77211 23.4506 8.9813 23.4506C15.3305 23.4506 20.4807 18.3031 20.4807 11.9539C20.4807 5.60461 15.3332 0.457145 8.9813 0.457145C5.77211 0.457145 2.87135 1.77326 0.78418 3.89234M47.7548 0.438536L38.8132 23.4692H43.5645L45.314 18.9598H51.5968L53.333 14.4904H47.0502L50.2089 6.35705L56.8532 23.4692H61.6045L52.6629 0.438536H47.7548ZM72.7689 0.438536L63.8273 23.4692H68.5786L75.223 6.35705L81.8674 23.4692H86.6187L77.6771 0.438536H72.7689ZM115.419 0.438536V23.4692H119.918V14.1899H129.41L131.146 9.72045H119.918V0.441193H115.419V0.438536ZM131.223 0.438536L131.215 10.7866V23.4692H135.719V0.438536H131.223ZM92.4335 11.9166C92.4335 8.02679 95.5868 4.87344 99.4767 4.87344C103.367 4.87344 106.52 8.02679 106.52 11.9166C106.52 15.8065 103.367 18.9598 99.4767 18.9598C95.5868 18.9598 92.4335 15.8065 92.4335 11.9166ZM87.9773 11.9166C87.9773 18.2659 93.1248 23.4133 99.474 23.4133C105.823 23.4133 110.973 18.2659 110.973 11.9166C110.973 5.56739 105.826 0.419922 99.474 0.419922C93.1221 0.419922 87.9773 5.56739 87.9773 11.9166Z" fill="white"/>
</mask>
<g mask="url(#mask0_1_883)">
<path d="M68.2533 -67.0492L-10.7471 11.9512L68.2533 90.9515L147.254 11.9512L68.2533 -67.0492Z" fill="#989898"/>
</g>
</svg>
