<svg width="165" height="23" viewBox="0 0 165 23" fill="none" xmlns="http://www.w3.org/2000/svg">
<path d="M47.1152 1.16113H54.4558L60.3734 16.7902L66.2426 1.16113H73.3245V21.9998H68.6194V6.06436L62.4915 21.9998H57.6571L51.5293 6.16113V21.9998H47.1314V1.16113H47.1152Z" fill="#989898"/>
<path d="M104.045 1.16113H120.229V21.9998H115.217V5.54823H108.62C108.572 8.48372 108.491 12.3869 108.41 14.5966C108.232 20.0644 106.648 21.9998 101.943 21.9998H99.6953V17.6127H100.94C103.058 17.6127 103.737 16.6611 103.883 13.6934C103.996 10.4998 104.045 4.17726 104.045 1.16113Z" fill="#989898"/>
<path d="M145.824 1.16113H164.855V5.54823H157.821V21.9998H152.858V5.54823H145.824V1.16113Z" fill="#989898"/>
<path d="M34.1486 0.725586H32.3539C28.053 0.725586 24.787 3.33849 24.0432 7.22559L28.6189 7.95139C29.2495 6.09655 30.6885 4.83849 32.4994 4.75784C33.0815 4.72559 32.9521 4.74171 33.5342 4.75784C36.2343 4.85462 37.4631 6.14494 37.4631 9.33849C32.3377 9.33849 28.8453 9.09655 26.2583 10.7901C24.1564 12.1772 23.251 13.7095 23.251 16.1288C23.251 19.6449 25.9835 22.4191 30.3975 22.4191C31.0927 22.4191 30.8017 22.4191 31.0119 22.4191C34.1324 22.4191 36.6547 21.2095 37.6733 19.7417V21.9837H42.2814V9.41913C42.2975 4.59655 39.6944 0.725586 34.1486 0.725586ZM31.3352 18.3546C29.3789 18.3062 28.2471 17.1611 28.2471 15.7417C28.2471 14.5643 28.7806 13.9837 29.492 13.5643C30.2358 13.1288 31.2059 12.9836 32.6934 12.9353C34.1324 12.8869 35.3127 12.8224 37.544 12.8224C37.544 16.3707 35.2965 18.1611 32.5156 18.3546C32.079 18.3869 31.8041 18.3707 31.3352 18.3546Z" fill="#989898"/>
<path d="M144.66 12.9836V11.0319C144.66 4.30614 140.424 0.822266 134.959 0.822266H133.892C128.006 0.822266 124.255 4.82227 124.061 10.4674C124.029 11.29 124.029 11.6448 124.061 12.7739C124.207 18.4029 128.152 22.1771 133.423 22.3223C134.393 22.3545 134.264 22.3545 135.185 22.3223C139.777 22.1932 143.253 19.5481 144.288 16.0965L139.842 15.3223C138.759 17.4836 136.689 18.3223 135.024 18.4029C134.506 18.4352 134.425 18.419 133.892 18.4029C131.289 18.29 128.977 16.2739 128.977 13.3223V12.9836H144.66ZM133.811 4.75775C134.328 4.72549 134.522 4.72549 135.04 4.75775C137.223 4.87065 139.518 6.27388 139.745 9.09646H128.993C129.251 6.58033 131.273 4.90291 133.811 4.75775Z" fill="#989898"/>
<path d="M98.3215 9.74209C98.2083 4.69371 94.1338 0.838867 88.7497 0.838867H86.7933C81.4092 0.838867 77.3347 4.69371 77.2215 9.77435C77.1892 11.1776 77.1892 12.0002 77.2215 13.4034C77.3347 18.4679 81.4092 22.3389 86.7933 22.3389H88.7497C94.1338 22.3389 98.2083 18.484 98.3215 13.4034C98.3376 11.984 98.3376 11.1453 98.3215 9.74209ZM93.3901 13.1453C93.3254 16.0969 91.1911 18.0969 88.297 18.2421C87.7472 18.2744 87.7796 18.2744 87.2298 18.2421C84.3195 18.0969 82.2014 16.0969 82.1368 13.1453C82.1044 11.9195 82.1044 11.226 82.1368 10.0002C82.2014 7.0808 84.3195 5.0808 87.2298 4.93564C87.7796 4.90338 87.7472 4.90338 88.297 4.93564C91.1911 5.0808 93.3254 7.0808 93.3901 10.0324C93.4224 11.2421 93.4224 11.9195 93.3901 13.1453Z" fill="#989898"/>
<path d="M15.4897 14.6453C14.9077 16.5808 13.3555 17.9034 11.2536 18.1937C10.6553 18.2744 10.0571 18.2582 9.57204 18.1937C6.96891 17.8227 5.14186 15.8873 5.07719 13.1453C5.04485 11.9195 5.04485 11.226 5.07719 10.0002C5.14186 7.24209 7.06592 5.22596 9.71756 4.93564C9.86308 4.91951 10.4451 4.87113 11.011 4.91951C13.2423 5.16145 14.9238 6.50016 15.5221 8.51629L20.3726 7.5808C19.3217 3.64532 15.7323 0.838867 11.1404 0.838867H9.7499C4.3496 0.838867 0.275128 4.69371 0.161948 9.75822C0.129611 11.1614 0.129611 11.984 0.161948 13.3873C0.275128 18.4518 4.3496 22.3227 9.73373 22.3227H11.1242C15.8131 22.3227 19.4349 19.4034 20.3888 15.3066L15.4897 14.6453Z" fill="#989898"/>
</svg>
