<svg width="201" height="33" viewBox="0 0 201 33" fill="none" xmlns="http://www.w3.org/2000/svg">
<path d="M200.88 0.978516H0.879883V32.4071H200.88V0.978516Z" fill="white"/>
<path d="M28.4109 7.03125C29.141 7.98787 29.7591 9.02717 30.2526 10.1283L16.2524 20.5875L10.4014 16.8704V12.3984L16.2524 16.1156L28.4109 7.03125Z" fill="#989898"/>
<path d="M4.43061 16.5546C4.43061 16.354 4.43544 16.1546 4.4451 15.9564L0.899195 15.7803C0.887126 16.0372 0.879887 16.2965 0.879887 16.5582C0.878379 18.6032 1.27527 20.6282 2.04779 22.5173C2.82032 24.4064 3.95327 26.1223 5.38166 27.5666L7.89686 25.0188C6.79734 23.909 5.92508 22.5899 5.33022 21.1373C4.73537 19.6847 4.42964 18.1273 4.43061 16.5546Z" fill="#989898"/>
<path d="M16.2501 4.57654C16.448 4.57654 16.6447 4.58389 16.8402 4.59367L17.0177 0.998826C16.7635 0.986595 16.5076 0.98048 16.2501 0.98048C14.2314 0.977985 12.2321 1.37964 10.367 2.16236C8.50194 2.9451 6.80779 4.0935 5.38184 5.54162L7.89704 8.09067C8.99218 6.97598 10.2939 6.09167 11.7275 5.48859C13.161 4.88552 14.6979 4.57555 16.2501 4.57654Z" fill="#989898"/>
<path d="M16.2501 28.5323C16.0522 28.5323 15.8555 28.5323 15.6588 28.5164L15.4814 32.1101C15.7364 32.1231 15.9927 32.1297 16.2501 32.1297C18.268 32.1318 20.2663 31.7299 22.1304 30.9469C23.9945 30.164 25.6876 29.0154 27.1124 27.5673L24.602 25.0195C23.5067 26.1336 22.2051 27.0174 20.7718 27.6202C19.3386 28.2231 17.8019 28.5331 16.2501 28.5323Z" fill="#989898"/>
<path d="M22.9122 6.66621L25.9005 4.43395C23.1691 2.19247 19.7597 0.972293 16.2451 0.978539V4.57583C18.625 4.57284 20.9497 5.30174 22.9122 6.66621Z" fill="#989898"/>
<path d="M31.6198 16.554C31.6217 15.6182 31.541 14.684 31.3784 13.7627L28.0703 16.2335C28.0703 16.34 28.0703 16.4464 28.0703 16.554C28.0712 18.2276 27.725 19.8827 27.0543 21.4121C26.3835 22.9414 25.4032 24.3108 24.1768 25.4316L26.5629 28.1043C28.1573 26.6455 29.4313 24.8635 30.3025 22.8738C31.1737 20.884 31.6225 18.7308 31.6198 16.554Z" fill="#989898"/>
<path d="M16.2494 28.5328C14.5979 28.5334 12.9647 28.1824 11.4554 27.5027C9.94625 26.823 8.59474 25.8295 7.48842 24.5869L4.85254 27.0038C6.29173 28.6199 8.05001 29.9114 10.0134 30.7945C11.9768 31.6775 14.1013 32.1326 16.2494 32.13V28.5328Z" fill="#989898"/>
<path d="M8.32412 7.6765L5.93926 5.00391C4.34441 6.46237 3.06986 8.24427 2.19826 10.2341C1.32668 12.2238 0.877507 14.3771 0.879892 16.5541H4.43062C4.42989 14.8806 4.77611 13.2255 5.44682 11.6961C6.11755 10.1668 7.09781 8.79737 8.32412 7.6765Z" fill="#989898"/>
<mask id="mask0_1_836" style="mask-type:luminance" maskUnits="userSpaceOnUse" x="39" y="6" width="162" height="21">
<path d="M200.29 6.39746H39.8955V26.9886H200.29V6.39746Z" fill="white"/>
</mask>
<g mask="url(#mask0_1_836)">
<path d="M89.5752 9.88595L93.9728 6.63965H79.2549V26.1471H93.9728V22.9008H83.4545V17.9039H92.4271V14.6576H83.4545V9.88595H89.5752Z" fill="#989898"/>
<path d="M69.3528 14.2395H64.2431V9.88507H72.398L76.793 6.62891H60.0459V26.1363H68.8123C73.7271 26.1363 76.5478 23.9044 76.5478 20.0118C76.5478 16.2879 73.993 14.2395 69.3528 14.2395ZM68.6233 22.889H64.2431V17.4838H68.6233C71.2815 17.4838 72.5279 18.3896 72.5279 20.1864C72.5279 21.9832 71.2017 22.889 68.6233 22.889Z" fill="#989898"/>
<path d="M104.792 6.6377H96.7803V26.145H100.979V20.6189H104.792C109.903 20.6189 113.065 17.924 113.065 13.6179C113.065 9.31193 109.903 6.6377 104.792 6.6377ZM104.703 17.3702H100.979V9.88647H104.703C107.392 9.88647 108.876 11.2162 108.876 13.6298C108.876 16.0434 107.392 17.3702 104.703 17.3702Z" fill="#989898"/>
<path d="M53.7438 21.5411C52.659 22.1297 51.4437 22.4344 50.2103 22.4272C46.5185 22.4272 43.8403 19.7863 43.8403 16.1499C43.8403 12.5133 46.5185 9.86668 50.2103 9.86668C51.5416 9.84402 52.8453 10.2485 53.9309 11.0212L56.8683 8.85364L56.6696 8.71222C54.9562 7.20277 52.6667 6.40332 50.0462 6.40332C47.2038 6.40332 44.6265 7.36151 42.7863 9.10474C41.8558 10.0023 41.12 11.0824 40.6245 12.2777C40.129 13.4729 39.8846 14.7576 39.9066 16.0517C39.8868 17.3589 40.1302 18.6567 40.622 19.8677C41.1138 21.0786 41.844 22.1778 42.769 23.0997C44.6178 24.9121 47.1894 25.9107 50.0116 25.9107C52.9605 25.9107 55.5379 24.8803 57.283 23.0044L54.6538 21.0419L53.7438 21.5411Z" fill="#989898"/>
<path d="M129.717 14.2395H124.609V9.88507H135.585V6.62891H120.409V26.1363H129.165C134.079 26.1363 136.9 23.9044 136.9 20.0118C136.911 16.2879 134.357 14.2395 129.717 14.2395ZM128.987 22.889H124.609V17.4838H128.987C131.645 17.4838 132.891 18.3896 132.891 20.1864C132.891 21.9832 131.577 22.889 128.987 22.889Z" fill="#989898"/>
<path d="M184.639 26.108H180.382V6.60059H184.639V14.7938H186.956L193.213 6.60059H198.038L190.616 15.8805L199.234 26.108H193.586L187.251 18.4359H184.639V26.108Z" fill="#989898"/>
<path d="M152.365 22.4009H143.359L141.832 26.189H137.302L145.749 6.68164H150.278L158.588 26.189H153.891L152.365 22.4009ZM150.954 18.8663L147.889 11.29L144.806 18.8663H150.954Z" fill="#989898"/>
<path d="M164.32 6.68164V14.8275H173.13V6.68164H177.519V26.189H173.13V18.5024H164.32V26.189H159.931V6.68164H164.32Z" fill="#989898"/>
</g>
</svg>
