<svg width="24" height="22" viewBox="0 0 24 22" fill="none" xmlns="http://www.w3.org/2000/svg">
<path d="M6.22184 2.15531C6.19754 0.962879 5.21026 0 4 0H0.74074C0.3316 0 0 0.328284 0 0.733333C0 1.13838 0.3316 1.46667 0.74074 1.46667H4C4.40837 1.46667 4.74074 1.79571 4.74074 2.2C4.74074 2.26321 4.647 1.40499 6.15239 14.8189C5.32697 15.1403 4.74074 15.9366 4.74074 16.8667C4.74074 18.0797 5.73765 19.0661 6.96296 19.0661H7.83101C7.74884 19.2956 7.7037 19.543 7.7037 19.8C7.7037 21.0131 8.70061 22 9.92592 22C11.1512 22 12.1481 21.0131 12.1481 19.8C12.1481 19.543 12.103 19.2956 12.0208 19.0661H16.7201C16.6377 19.2956 16.5926 19.543 16.5926 19.8C16.5926 21.0131 17.5895 22 18.8148 22C20.0401 22 21.037 21.0131 21.037 19.8C21.037 18.5869 20.0401 17.6 18.8148 17.6H6.96296C6.55459 17.6 6.22222 17.271 6.22222 16.8667C6.22222 16.4624 6.55459 16.1333 6.96296 16.1333H20.5227C21.6136 16.1333 22.5355 15.3603 22.7147 14.295L23.9899 4.66273C24.0257 4.45018 23.9653 4.23265 23.8244 4.06823C23.6836 3.9038 23.477 3.80889 23.2592 3.80889C17.9523 3.80302 10.0245 3.78902 9.77495 3.79408C9.71584 3.79554 9.48736 3.8865 9.5 4.09976C9.51859 4.41359 9.55149 4.8285 9.56363 5.04098C9.5803 5.25994 9.81994 5.27003 9.86405 5.27003C9.86405 5.27003 17.8996 5.27517 22.3847 5.27517L21.2534 14.0534C21.1936 14.4087 20.8863 14.6663 20.5227 14.6663H7.62588C7.25775 10.4815 6.85444 5.22748 6.22184 2.15531ZM10.6667 19.8C10.6667 20.2043 10.3343 20.5333 9.92592 20.5333C9.51755 20.5333 9.18518 20.2043 9.18518 19.8C9.18518 19.3957 9.51755 19.0661 9.92592 19.0661C10.3343 19.0661 10.6667 19.3957 10.6667 19.8ZM18.8148 20.5333C18.4064 20.5333 18.0741 20.2043 18.0741 19.8C18.0741 19.3944 18.4064 19.0667 18.8148 19.0667C19.2232 19.0667 19.5555 19.3957 19.5555 19.8C19.5555 20.2043 19.2232 20.5333 18.8148 20.5333Z" fill="black"/>
</svg>
