<svg width="16" height="17" viewBox="0 0 16 17" fill="none" xmlns="http://www.w3.org/2000/svg">
<path d="M15.3751 0.691895H0.625033C0.2798 0.691895 0 0.97168 0 1.3169C0 3.05738 0.746134 4.719 2.04711 5.87538L4.78444 8.30825C5.25907 8.73012 5.5313 9.33632 5.5313 9.97146V16.0662C5.5313 16.5642 6.08797 16.8628 6.50291 16.5861L10.1905 14.128C10.3643 14.012 10.4688 13.8169 10.4688 13.6079V9.97146C10.4688 9.33632 10.7411 8.73012 11.2157 8.30825L13.9529 5.87538C15.2539 4.719 16 3.05738 16 1.3169C16 0.97168 15.7202 0.691895 15.3751 0.691895ZM13.1224 4.94105L10.3852 7.37404C9.64395 8.03298 9.21875 8.97963 9.21875 9.97134V13.2735L6.78125 14.8983V9.97146C6.78125 8.97963 6.35605 8.03298 5.6148 7.37404L2.8776 4.94117C2.00035 4.16126 1.44038 3.09266 1.29047 1.94178H14.7095C14.5596 3.09266 13.9998 4.16126 13.1224 4.94105Z" fill="black"/>
</svg>
