<svg width="56" height="56" viewBox="0 0 56 56" fill="none" xmlns="http://www.w3.org/2000/svg">
<path d="M52.1983 14.3241H47.0747L45.8976 9.00507C45.3949 6.73292 43.4185 5.146 41.0914 5.146H23.3038C20.9767 5.146 19.0003 6.73281 18.4975 9.00497L17.3204 14.3241H16.1046V12.0546C16.1046 10.7756 15.064 9.73504 13.785 9.73504H6.28491C5.00588 9.73504 3.96528 10.7756 3.96528 12.0546V14.3241H3.80155C1.70537 14.3241 0 16.0295 0 18.1257V43.8734C0 45.9697 1.70537 47.675 3.80166 47.675H7.68961H21.4325C24.5359 49.6854 28.2325 50.8542 32.1975 50.8542C36.1624 50.8542 39.8592 49.6854 42.9625 47.675H52.1983C54.2946 47.675 56 45.9697 56 43.8734V18.1257C56 16.0295 54.2946 14.3241 52.1983 14.3241ZM20.6332 9.47757C20.9126 8.21517 22.0107 7.33339 23.3037 7.33339H41.0913C42.3842 7.33339 43.4824 8.21506 43.7617 9.47757L44.8342 14.3241H42.9625C39.8591 12.3138 36.1624 11.1449 32.1975 11.1449C28.2325 11.1449 24.5359 12.3138 21.4325 14.3241H19.5606L20.6332 9.47757ZM6.15278 12.0546C6.15278 11.9817 6.21206 11.9225 6.28491 11.9225H13.7849C13.8577 11.9225 13.917 11.9818 13.917 12.0546V14.3241H6.15278V12.0546ZM8.78336 45.4874V33.6074C8.78336 33.0034 8.29369 32.5137 7.68961 32.5137C7.08553 32.5137 6.59586 33.0034 6.59586 33.6074V45.4875H3.80166C2.91167 45.4875 2.1875 44.7634 2.1875 43.8734V18.1257C2.1875 17.2357 2.91167 16.5116 3.80166 16.5116H5.05914H15.0107H18.1985H18.6368C14.766 20.1369 12.3427 25.2902 12.3427 30.9995C12.3427 36.7088 14.766 41.8621 18.6368 45.4874H8.78336ZM42.2961 45.4875C40.9923 46.3991 39.5605 47.139 38.0333 47.675C36.2054 48.3166 34.2417 48.6667 32.1975 48.6667C30.1533 48.6667 28.1894 48.3165 26.3617 47.675C24.8345 47.139 23.4028 46.3991 22.0989 45.4875C17.5269 42.2911 14.5303 36.9891 14.5303 30.9996C14.5303 25.0101 17.5269 19.7082 22.0989 16.5117C23.4026 15.6002 24.8345 14.8602 26.3617 14.3242C28.1895 13.6826 30.1533 13.3325 32.1975 13.3325C34.2417 13.3325 36.2055 13.6827 38.0333 14.3242C39.5605 14.8602 40.9922 15.6002 42.2961 16.5117C46.8681 19.7082 49.8647 25.0101 49.8647 30.9996C49.8647 36.9891 46.8681 42.2911 42.2961 45.4875ZM53.8125 43.8733C53.8125 44.7634 53.0884 45.4874 52.1983 45.4874H45.7581C49.629 41.8621 52.0522 36.7088 52.0522 30.9995C52.0522 25.2902 49.629 20.1369 45.7581 16.5116H46.1965H52.1983C53.0884 16.5116 53.8125 17.2357 53.8125 18.1257V43.8733Z" fill="black"/>
<path d="M32.1975 16.6396C24.2795 16.6396 17.8378 23.0814 17.8378 30.9995C17.8378 38.9175 24.2795 45.3592 32.1975 45.3592C33.3512 45.3592 34.4995 45.2219 35.6105 44.9509C36.1975 44.8078 36.5571 44.216 36.414 43.6292C36.271 43.0423 35.6791 42.6825 35.0923 42.8258C34.1507 43.0555 33.1767 43.1718 32.1975 43.1718C25.4857 43.1718 20.0253 37.7114 20.0253 30.9996C20.0253 24.2878 25.4857 18.8273 32.1975 18.8273C38.9093 18.8273 44.3697 24.2877 44.3697 30.9996C44.3697 33.4459 43.6474 35.8046 42.2806 37.8207C41.9416 38.3206 42.0722 39.0008 42.5722 39.3398C43.0718 39.6786 43.7522 39.5482 44.0913 39.0482C45.7045 36.6685 46.5572 33.8853 46.5572 30.9997C46.5572 23.0814 40.1155 16.6396 32.1975 16.6396Z" fill="black"/>
<path d="M7.68964 20.292C5.44396 20.292 3.61707 22.119 3.61707 24.3646C3.61707 26.6101 5.44407 28.4371 7.68964 28.4371C9.93522 28.4371 11.7622 26.6101 11.7622 24.3646C11.7622 22.119 9.93522 20.292 7.68964 20.292ZM7.68964 26.2497C6.65025 26.2497 5.80457 25.4041 5.80457 24.3647C5.80457 23.3253 6.65025 22.4796 7.68964 22.4796C8.72903 22.4796 9.57472 23.3253 9.57472 24.3647C9.57472 25.4041 8.72914 26.2497 7.68964 26.2497Z" fill="black"/>
<path d="M41.0256 41.5484C41.0113 41.4795 40.9905 41.4106 40.9632 41.3438C40.9358 41.2782 40.9019 41.2148 40.8625 41.1557C40.8233 41.0956 40.7772 41.0398 40.7269 40.9895C40.6766 40.9392 40.6198 40.8932 40.5607 40.8528C40.5005 40.8134 40.4371 40.7795 40.3714 40.7521C40.3058 40.7248 40.237 40.704 40.167 40.6898C40.0259 40.6613 39.8805 40.6613 39.7394 40.6898C39.6693 40.704 39.6004 40.7248 39.5348 40.7521C39.4691 40.7795 39.4058 40.8134 39.3456 40.8528C39.2866 40.8932 39.2308 40.9392 39.1794 40.9895C39.1291 41.0398 39.0831 41.0956 39.0437 41.1557C39.0044 41.2148 38.9705 41.2782 38.9431 41.3438C38.9158 41.4106 38.895 41.4795 38.8808 41.5484C38.8666 41.6195 38.859 41.6917 38.859 41.7627C38.859 41.8338 38.8666 41.906 38.8808 41.976C38.895 42.046 38.9158 42.1149 38.9431 42.1806C38.9705 42.2473 39.0044 42.3107 39.0437 42.3698C39.0831 42.4299 39.1291 42.4857 39.1794 42.536C39.2308 42.5863 39.2864 42.6323 39.3456 42.6717C39.4059 42.711 39.4692 42.7449 39.5348 42.7723C39.6005 42.7996 39.6693 42.8204 39.7394 42.8346C39.8104 42.8488 39.8816 42.8565 39.9526 42.8565C40.0247 42.8565 40.0959 42.8488 40.167 42.8346C40.237 42.8204 40.3059 42.7996 40.3714 42.7723C40.4372 42.7449 40.5006 42.711 40.5607 42.6717C40.6197 42.6323 40.6766 42.5863 40.7269 42.536C40.9303 42.3326 41.0464 42.0504 41.0464 41.7627C41.0464 41.6917 41.0397 41.6195 41.0256 41.5484Z" fill="black"/>
</svg>
