<svg width="56" height="56" viewBox="0 0 56 56" fill="none" xmlns="http://www.w3.org/2000/svg">
<g clip-path="url(#clip0)">
<path d="M18.4586 0.589731C18.3272 0.236037 17.9898 0.000976562 17.6119 0.000976562C17.2343 0.000976562 16.8965 0.236037 16.7651 0.589731L5.97744 29.5926C5.65241 30.5073 6.10313 31.5163 7.00192 31.8846L14.9027 35.1026V37.9362C13.4063 37.9362 12.1931 39.1494 12.1931 40.6457V54.1937C12.1931 55.1913 13.0019 56.0001 13.9995 56.0001H21.2251C22.2231 56.0001 23.0315 55.1913 23.0315 54.1937V40.6457C23.0315 39.1494 21.8187 37.9362 20.3219 37.9362V35.1026L28.2315 31.8775C29.1268 31.5048 29.5722 30.4949 29.2441 29.5825L18.4586 0.589731ZM18.5155 39.7426C18.5155 40.2413 18.1115 40.6457 17.6123 40.6457C17.1135 40.6457 16.7091 40.2413 16.7091 39.7426V31.6138C16.7091 31.115 17.1135 30.7106 17.6123 30.7106C18.1115 30.7106 18.5155 31.115 18.5155 31.6138V39.7426ZM21.2251 40.6457V54.1937H13.9995V40.6457C13.9995 40.147 14.4039 39.7426 14.9027 39.7426C14.9027 41.2389 16.1159 42.4521 17.6123 42.4521C19.1091 42.4521 20.3219 41.2389 20.3219 39.7426C20.8211 39.7426 21.2251 40.147 21.2251 40.6457ZM20.3219 33.1494V31.6138C20.3219 30.1174 19.1091 28.9042 17.6123 28.9042C16.1159 28.9042 14.9027 30.1174 14.9027 31.6138V33.1494L7.67711 30.2118L17.6123 3.49646L27.5404 30.2083L20.3219 33.1494Z" fill="#EE2721"/>
<path d="M22.2721 23.8011C22.4044 24.1552 22.7435 24.3898 23.1219 24.3881C23.2295 24.3881 23.3358 24.3687 23.4363 24.3312C23.9038 24.1574 24.1424 23.6375 23.9682 23.1696L20.2743 13.2344C20.0996 12.7669 19.5788 12.5292 19.1113 12.7038C18.6438 12.8785 18.4061 13.3989 18.5808 13.8668L22.2721 23.8011Z" fill="#EE2721"/>
<path d="M49.2345 11.633L36.8795 0.470489C36.3595 -0.0119809 35.6005 -0.135906 34.954 0.156046C34.2929 0.452848 33.8682 1.1104 33.87 1.83499V34.3232C33.87 35.3208 34.6788 36.1296 35.6764 36.1296H39.2892V37.936C37.7928 37.936 36.5796 39.1492 36.5796 40.6456V54.1936C36.5796 55.1911 37.3884 56 38.386 56H45.6116C46.6096 56 47.418 55.1911 47.418 54.1936V40.6456C47.418 39.1492 46.2052 37.936 44.7084 37.936V36.1296H48.3212C49.3192 36.1296 50.1276 35.3208 50.1276 34.3232V13.6401C50.1267 12.8749 49.8021 12.1459 49.2345 11.633ZM42.902 39.7424C42.902 40.2412 42.498 40.6456 41.9988 40.6456C41.5 40.6456 41.0956 40.2412 41.0956 39.7424V31.6136C41.0956 31.1148 41.5 30.7104 41.9988 30.7104C42.498 30.7104 42.902 31.1148 42.902 31.6136V39.7424ZM45.6116 40.6456V54.1936H38.386V40.6456C38.386 40.1468 38.7904 39.7424 39.2892 39.7424C39.2892 41.2388 40.5024 42.452 41.9988 42.452C43.4956 42.452 44.7084 41.2388 44.7084 39.7424C45.2076 39.7424 45.6116 40.1468 45.6116 40.6456ZM48.3212 34.3232H44.7084V31.6136C44.7084 30.1173 43.4956 28.904 41.9988 28.904C40.5024 28.904 39.2892 30.1173 39.2892 31.6136V34.3232H35.6764L35.6667 1.80809L48.0226 12.9706C48.2123 13.1413 48.3207 13.3847 48.3212 13.6401V34.3232Z" fill="#EE2721"/>
<path d="M46.5148 15.356C46.016 15.356 45.6116 15.7604 45.6116 16.2592V27.0975C45.6116 27.5963 46.016 28.0007 46.5148 28.0007C47.014 28.0007 47.418 27.5963 47.418 27.0975V16.2592C47.418 15.7604 47.014 15.356 46.5148 15.356Z" fill="#EE2721"/>
</g>
<defs>
<clipPath id="clip0">
<rect width="56" height="56" fill="white"/>
</clipPath>
</defs>
</svg>
