<svg width="30" height="30" viewBox="0 0 30 30" fill="none" xmlns="http://www.w3.org/2000/svg">
<path d="M0 14.9998C0 21.1419 3.69342 26.4185 8.97854 28.7384C8.93636 27.691 8.97104 26.4336 9.23963 25.294C9.52802 24.0763 11.1697 17.1206 11.1697 17.1206C11.1697 17.1206 10.6905 16.1629 10.6905 14.7474C10.6905 12.5245 11.9788 10.8644 13.5833 10.8644C14.9477 10.8644 15.6068 11.8892 15.6068 13.1163C15.6068 14.4878 14.7321 16.5394 14.2822 18.4395C13.9064 20.0307 15.08 21.3285 16.6497 21.3285C19.4916 21.3285 21.4057 17.6783 21.4057 13.3535C21.4057 10.066 19.1915 7.60538 15.1642 7.60538C10.6142 7.60538 7.77963 10.9986 7.77963 14.7888C7.77963 16.0956 8.16493 17.0172 8.76843 17.7308C9.04593 18.0586 9.08448 18.1904 8.98405 18.5668C8.9121 18.8428 8.74687 19.5072 8.67844 19.7705C8.57859 20.1504 8.27075 20.2862 7.9274 20.146C5.83168 19.2904 4.85565 16.9954 4.85565 14.4154C4.85565 10.1545 8.44922 5.04525 15.5759 5.04525C21.3027 5.04525 25.0719 9.18936 25.0719 13.6378C25.0719 19.522 21.8006 23.9179 16.9785 23.9179C15.3591 23.9179 13.8358 23.0425 13.314 22.0482C13.314 22.0482 12.4432 25.5042 12.2588 26.1716C11.9407 27.3281 11.3182 28.484 10.7491 29.3849C12.1292 29.793 13.561 30.0001 15.0002 30C23.2832 30 29.9993 23.2843 29.9993 14.9998C29.9993 6.71571 23.2832 0 15.0002 0C6.7163 0 0 6.71571 0 14.9998Z" fill="#CB1F27"/>
</svg>
