<svg width="20" height="16" viewBox="0 0 20 16" fill="none" xmlns="http://www.w3.org/2000/svg">
<path fill-rule="evenodd" clip-rule="evenodd" d="M3.125 0H16.875C18.5981 0 20 1.4682 20 3.27285V8.38667C20 8.83856 19.6502 9.20488 19.2188 9.20488C18.7873 9.20488 18.4375 8.83856 18.4375 8.38667V3.44622L11.6502 7.86645C11.1413 8.19782 10.5705 8.36359 10 8.36359C9.4293 8.36359 8.85883 8.1979 8.3498 7.86641L1.5625 3.44622V12.7232C1.5625 13.6255 2.26344 14.3596 3.125 14.3596H16.7797C16.8276 14.3596 16.8746 14.3641 16.9201 14.3728C17.7608 14.3478 18.4375 13.628 18.4375 12.7469C18.4375 12.2976 18.7872 11.9336 19.2188 11.9336C19.6503 11.9336 20 12.2976 20 12.7469C20 14.5407 18.5982 16 16.875 16C16.8482 16 16.8216 15.9986 16.7955 15.9959C16.7903 15.996 16.785 15.996 16.7797 15.996H3.125C1.40188 15.996 0 14.5278 0 12.7232V3.27285C0 1.4682 1.40188 0 3.125 0ZM9.17492 6.47672C9.68387 6.80821 10.3162 6.80821 10.8251 6.47672L17.7852 1.94403C17.5287 1.75073 17.2145 1.63642 16.875 1.63642H3.125C2.78559 1.63642 2.47133 1.75073 2.2148 1.94399L9.17492 6.47672Z" fill="black"/>
</svg>
