<svg width="22" height="20" viewBox="0 0 22 20" fill="none" xmlns="http://www.w3.org/2000/svg">
<path d="M2.86957 2.80238V0H4.78261V2.80238H7.65217V4.67063H4.78261V7.47302H2.86957V4.67063H0V2.80238H2.86957ZM5.73913 8.40714V5.60476H8.6087V2.80238H15.3043L17.0548 4.67063H20.087C21.1391 4.67063 22 5.51135 22 6.53889V17.7484C22 18.776 21.1391 19.6167 20.087 19.6167H4.78261C3.73043 19.6167 2.86957 18.776 2.86957 17.7484V8.40714H5.73913ZM12.4348 16.8143C15.0748 16.8143 17.2174 14.7218 17.2174 12.1437C17.2174 9.56546 15.0748 7.47302 12.4348 7.47302C9.79478 7.47302 7.65217 9.56546 7.65217 12.1437C7.65217 14.7218 9.79478 16.8143 12.4348 16.8143ZM9.37391 12.1437C9.37391 13.7971 10.7417 15.1329 12.4348 15.1329C14.1278 15.1329 15.4957 13.7971 15.4957 12.1437C15.4957 10.4902 14.1278 9.15444 12.4348 9.15444C10.7417 9.15444 9.37391 10.4902 9.37391 12.1437Z" fill="black"/>
</svg>
