<svg width="10" height="13" viewBox="0 0 10 13" fill="none" xmlns="http://www.w3.org/2000/svg">
<path d="M1.8 10.3879C1.8 8.8879 2.8 7.4879 4.2 7.0879C5.7 6.6879 7.1 7.3879 7.7 8.5879C7.9 8.7879 8.1 8.9879 8.4 8.9879H9.4C9.6 8.9879 9.8 8.7879 9.7 8.4879C9.3 7.4879 8.5 6.5879 7.5 5.9879C8.3 5.1879 8.7 3.9879 8.4 2.7879C8.2 1.4879 7.1 0.387902 5.8 0.0879023C3.5 -0.412098 1.5 1.2879 1.5 3.4879C1.5 4.4879 1.9 5.2879 2.5 5.9879C1 6.8879 0 8.4879 0 10.2879V11.4879C0 11.9879 0.4 12.3879 0.9 12.3879H9.1C9.6 12.3879 10 11.9879 10 11.4879C10 10.7879 9.1 10.6879 9 10.6879H1.9C1.8 10.5879 1.8 10.4879 1.8 10.3879ZM5 1.7879C6 1.7879 6.8 2.5879 6.8 3.5879C6.8 4.5879 6 5.3879 5 5.3879C4 5.3879 3.2 4.4879 3.2 3.4879C3.2 2.5879 4 1.7879 5 1.7879Z" fill="white"/>
</svg>
