<svg xmlns="http://www.w3.org/2000/svg">

	<symbol id="logo" viewBox="0 0 24 24">
		<path d="M12.2734 0.82692C11.9235 1.20345 11.3969 2.18041 11.2236 2.77065C11.1862 2.89277 11.1454 3.03524 11.125 3.09291C11.0469 3.34393 10.9212 3.98505 10.8872 4.30053C10.8702 4.4871 10.8532 5.0943 10.8532 5.64384V6.64114L10.6868 6.81754C10.4727 7.04821 10.0378 7.60453 9.82376 7.92678C9.57913 8.29314 9.55535 8.38473 9.59612 8.73752C9.61311 8.89695 9.6301 9.2226 9.6301 9.45666C9.6301 9.99942 9.66407 10.5049 9.70145 10.5049C9.71844 10.5049 9.73203 10.4879 9.73203 10.4675C9.73203 10.4167 10.1703 9.92818 10.4625 9.6568C10.6969 9.43631 11.2168 9.01229 11.2474 9.01229C11.2576 9.01229 11.3017 9.0937 11.3493 9.19546C11.3935 9.29723 11.4546 9.38882 11.4818 9.399C11.509 9.40917 11.6041 9.40239 11.6958 9.38543C11.7842 9.37186 12.1783 9.3549 12.569 9.3549C12.9632 9.3549 13.2995 9.3549 13.3199 9.3549C13.3403 9.35151 13.3912 9.27349 13.4354 9.1819C13.4796 9.08691 13.5204 9.01229 13.5272 9.01229C13.5339 9.01229 13.6563 9.10727 13.8024 9.2226C14.1081 9.46345 14.7163 10.074 14.91 10.3285C14.9847 10.4234 15.0493 10.4981 15.0561 10.4913C15.0799 10.4675 15.1342 8.32367 15.1104 8.23887C15.0901 8.14728 14.5396 7.40099 14.1727 6.96001C14.047 6.81414 13.9417 6.6615 13.9417 6.62079C13.9383 6.58347 13.9383 6.27139 13.9417 5.92539C13.9519 5.28426 13.9043 4.44639 13.8397 3.99184C13.7072 3.08273 13.3233 2.04472 12.8578 1.32896C12.6676 1.04063 12.4263 0.735331 12.3856 0.735331C12.372 0.735331 12.321 0.776037 12.2734 0.82692ZM12.6404 3.22859C12.8306 3.35071 12.868 3.51015 12.8714 4.20215C12.8748 4.44639 12.868 4.47014 12.7729 4.56851C12.6506 4.69402 12.4773 4.7449 12.304 4.7042C12.0832 4.65671 11.971 4.51084 11.9031 4.20215C11.8623 4.0088 11.9133 3.5305 11.9914 3.38124C12.1036 3.16414 12.4263 3.08612 12.6404 3.22859Z"/>
		<path d="M11.8386 9.918C11.6653 9.93496 11.6347 9.96549 11.6347 10.1317C11.6347 10.2945 11.509 11.2681 11.4444 11.6209C11.2304 12.7573 10.8872 13.9852 10.5747 14.7383C10.4489 15.0402 10.0005 15.929 9.88494 16.102C9.84417 16.1664 9.70827 16.3767 9.58255 16.5633C9.34472 16.9331 8.76033 17.7167 8.47833 18.0525C8.3832 18.1644 8.30505 18.2696 8.30505 18.2832C8.30505 18.3103 8.58706 18.2832 8.78072 18.2391C9.3719 18.0932 11.3187 17.9338 12.5011 17.9338C13.6427 17.9338 15.3109 18.0762 16.0856 18.2357C16.3744 18.2967 16.4559 18.3035 16.4763 18.273C16.4865 18.256 16.4797 18.2323 16.4593 18.2221C16.4389 18.2085 16.3608 18.1135 16.2826 18.0084C16.2079 17.9032 16.1161 17.7845 16.0822 17.7472C15.79 17.4385 15.124 16.4955 14.8149 15.9527C13.9213 14.4025 13.3403 12.4859 13.1636 10.4879C13.1432 10.2437 13.1161 10.013 13.1093 9.96889C13.0957 9.89426 13.0889 9.89426 12.5419 9.90104C12.2395 9.90443 11.9235 9.91122 11.8386 9.918Z"/>
		<path d="M10.2927 11.5904C7.5678 12.0788 5.19287 13.9513 3.93576 16.5972C3.49067 17.5369 3.13732 18.7275 3.04218 19.6027C2.95045 20.4168 3.015 21.9026 3.17129 22.6659L3.23245 22.9712L3.5824 22.9813L3.92896 22.9915L4.05467 22.8457C4.52694 22.2826 5.58699 21.3667 6.02528 21.1428L6.13061 21.0851V22.0383V22.9881H6.74218H7.35035V21.75C7.35035 21.0681 7.35714 20.4983 7.36734 20.4813C7.39452 20.4372 8.33566 20.1319 8.8419 20.003C9.87137 19.7384 11.3391 19.562 12.5011 19.562C12.902 19.562 14.2917 19.674 14.5906 19.7282C14.6756 19.7452 14.9338 19.7893 15.1682 19.83C15.4027 19.8707 15.7934 19.9589 16.0346 20.0233C16.5273 20.159 17.3427 20.4304 17.3869 20.4745C17.4039 20.4915 17.4141 21.0614 17.4107 21.7432L17.4073 22.9813L17.4854 22.9949C17.5296 23.0017 17.8116 23.0017 18.1174 22.9949L18.6678 22.9847V22.0383C18.6678 21.5159 18.6746 21.0885 18.6814 21.0885C18.7187 21.0885 19.2895 21.4956 19.5478 21.7059C19.8603 21.9603 20.5127 22.5845 20.7233 22.8321L20.8558 22.9881H21.1854H21.5184L21.5489 22.8083C21.5659 22.7134 21.5999 22.537 21.6203 22.4216C21.7562 21.6889 21.797 20.366 21.712 19.5959C21.5184 17.9032 20.7709 16.1359 19.6633 14.7519C18.5013 13.3 16.8263 12.1976 15.0493 11.7193C14.7639 11.6446 14.1014 11.5225 13.9689 11.5225H13.8704L13.8941 11.6989C13.9281 11.9431 14.1014 12.7742 14.1218 12.798C14.132 12.8081 14.2679 12.8455 14.4242 12.8828C14.7809 12.9676 15.3483 13.144 15.4672 13.205C15.5182 13.2322 15.5726 13.2525 15.5895 13.2525C15.6065 13.2525 15.8342 13.3577 16.0992 13.4866C16.5375 13.7003 17.149 14.0768 17.3325 14.2464L17.4107 14.3143L17.4175 16.4208L17.4276 18.524L17.7164 18.602C17.8761 18.6461 18.1445 18.7241 18.3178 18.7818C18.4877 18.8361 18.6372 18.8836 18.6474 18.8836C18.6576 18.8836 18.6678 18.1339 18.6678 17.2214C18.6678 16.2512 18.6814 15.5592 18.6984 15.5592C18.7153 15.5592 18.7867 15.6372 18.8614 15.7356C18.9328 15.8306 19.0245 15.9561 19.0687 16.0138C19.2386 16.2411 19.5885 16.855 19.7992 17.2892C20.0438 17.7981 20.2884 18.4935 20.4006 19.0057C20.5195 19.545 20.6112 20.3999 20.5467 20.3694C20.5297 20.3626 20.268 20.2337 19.9589 20.081C19.0313 19.6231 18.294 19.3517 17.2578 19.0871C16.5579 18.9073 15.6677 18.7411 15.0493 18.68C14.8625 18.6597 14.6756 18.6393 14.6348 18.6325C14.3528 18.5783 13.3131 18.5342 12.3652 18.5376C9.80682 18.5444 7.73088 18.9005 5.77386 19.6672C5.57 19.7486 5.13511 19.9453 4.80894 20.1115C4.48277 20.2744 4.21436 20.4033 4.21096 20.3999C4.20756 20.3965 4.21776 20.2167 4.23474 20.003C4.31289 18.8904 4.67643 17.7709 5.32538 16.6447C5.60058 16.163 6.04907 15.5287 6.11362 15.5253C6.1374 15.5253 6.1442 16.1054 6.1374 17.2214C6.13401 18.1542 6.13401 18.9175 6.1408 18.9175C6.1476 18.9175 6.32767 18.8564 6.54172 18.7852C6.75577 18.7106 7.02418 18.6258 7.1397 18.5952L7.34695 18.5376L7.35035 16.4378C7.35035 15.2811 7.36054 14.3211 7.37074 14.3041C7.38433 14.2838 7.59158 14.1379 7.83281 13.9785C8.53611 13.5137 9.43988 13.1101 10.2179 12.9133C10.4218 12.8624 10.5985 12.8081 10.6154 12.7912C10.6494 12.7573 10.8533 11.7396 10.8533 11.6073C10.8533 11.5327 10.8397 11.5225 10.7446 11.5259C10.6834 11.5259 10.4795 11.5564 10.2927 11.5904Z"/>
	</symbol>

	<symbol id="telegram" viewBox="0 0 15 13">
		<path d="M13.7823 0.143495L0.492987 5.29466C-0.0417922 5.53453 -0.222673 6.01494 0.363708 6.27564L3.77302 7.36468L12.0162 2.2439C12.4663 1.92241 12.9271 2.00814 12.5306 2.36177L5.45078 8.80518L5.22837 11.532C5.43437 11.9531 5.81155 11.955 6.05212 11.7458L8.01086 9.88279L11.3655 12.4078C12.1446 12.8715 12.5686 12.5722 12.7362 11.7224L14.9366 1.24968C15.165 0.203613 14.7754 -0.257285 13.7823 0.143495Z"/>
	</symbol>

	<symbol id="doc-success" viewBox="0 0 18 22">
		<mask id="mask0_97_171" style="mask-type:luminance" maskUnits="userSpaceOnUse" x="0" y="0" width="18" height="22">
		<path d="M16 1H2C1.73478 1 1.48043 1.10536 1.29289 1.29289C1.10536 1.48043 1 1.73478 1 2V20C1 20.2652 1.10536 20.5196 1.29289 20.7071C1.48043 20.8946 1.73478 21 2 21H16C16.2652 21 16.5196 20.8946 16.7071 20.7071C16.8946 20.5196 17 20.2652 17 20V2C17 1.73478 16.8946 1.48043 16.7071 1.29289C16.5196 1.10536 16.2652 1 16 1Z" fill="white" stroke="white" stroke-width="2" stroke-linecap="round" stroke-linejoin="round"/>
		<path d="M5.5 14H12.5M5.5 17H9M12 5.5L8 9.5L6 7.5" stroke="black" stroke-width="2" stroke-linecap="round" stroke-linejoin="round"/>
		</mask>
		<g mask="url(#mask0_97_171)">
		<path d="M-3 -1H21V23H-3V-1Z" fill="white"/>
		</g>
	</symbol>

	<symbol id="technology" viewBox="0 0 24 24">
		<path fill-rule="evenodd" clip-rule="evenodd" d="M11.75 1.25C11.5511 1.25 11.3603 1.32902 11.2197 1.46967C11.079 1.61032 11 1.80109 11 2V7.125H9.36251L7.58501 5.3475C7.78047 4.86645 7.80354 4.3326 7.6503 3.83648C7.49706 3.34036 7.17694 2.91251 6.74423 2.62549C6.31152 2.33848 5.79286 2.20995 5.2762 2.26172C4.75954 2.31348 4.27669 2.54236 3.90952 2.90952C3.54236 3.27668 3.31349 3.75953 3.26172 4.27619C3.20996 4.79285 3.33848 5.31151 3.6255 5.74422C3.91252 6.17693 4.34037 6.49705 4.83649 6.65029C5.3326 6.80353 5.86645 6.78047 6.34751 6.585L8.38151 8.6185C8.54551 8.78262 8.76799 8.87488 9.00001 8.875H11V11.125H5.07351C4.87157 10.6465 4.51033 10.2525 4.05107 10.01C3.5918 9.76743 3.06277 9.69119 2.5537 9.79421C2.04464 9.89723 1.58688 10.1732 1.25805 10.5752C0.92922 10.9772 0.749573 11.4806 0.749573 12C0.749573 12.5194 0.92922 13.0228 1.25805 13.4248C1.58688 13.8268 2.04464 14.1028 2.5537 14.2058C3.06277 14.3088 3.5918 14.2326 4.05107 13.99C4.51033 13.7475 4.87157 13.3535 5.07351 12.875H11V15.625H8.50001C8.26801 15.625 8.04501 15.717 7.88151 15.8815L5.84751 17.915C5.36645 17.7195 4.8326 17.6965 4.33649 17.8497C3.84037 18.003 3.41252 18.3231 3.1255 18.7558C2.83848 19.1885 2.70996 19.7071 2.76172 20.2238C2.81349 20.7405 3.04236 21.2233 3.40952 21.5905C3.77669 21.9576 4.25954 22.1865 4.7762 22.2383C5.29286 22.29 5.81152 22.1615 6.24423 21.8745C6.67694 21.5875 6.99706 21.1596 7.1503 20.6635C7.30354 20.1674 7.28047 19.6336 7.08501 19.1525L8.86251 17.375H11V22.4335C11 22.6324 11.079 22.8232 11.2197 22.9638C11.3603 23.1045 11.5511 23.1835 11.75 23.1835H16C16.1989 23.1835 16.3897 23.1045 16.5303 22.9638C16.671 22.8232 16.75 22.6324 16.75 22.4335V20.555L18.209 20.8015C18.5159 20.8533 18.8302 20.8409 19.1321 20.765C19.4339 20.6891 19.7167 20.5514 19.9627 20.3606C20.2086 20.1698 20.4122 19.9301 20.5607 19.6565C20.7093 19.383 20.7994 19.0816 20.8255 18.7715L21.0675 15.8935C21.6767 15.7153 22.2578 15.452 22.7935 15.1115C23.613 14.5815 23.6185 13.571 23.182 12.9245L21.2225 10.0245C20.8525 5.117 16.753 1.25 11.75 1.25Z"/>
	</symbol>

	<symbol id="support" viewBox="0 0 24 24">
		<path fill-rule="evenodd" clip-rule="evenodd" d="M11.9777 2.57149C11.2611 2.55854 10.5489 2.68705 9.88202 2.94965C9.21511 3.21224 8.60653 3.60378 8.09111 4.10185C7.57569 4.59991 7.16355 5.19473 6.87827 5.85226C6.59299 6.50979 6.44018 7.21712 6.42857 7.93377V15.4286C6.42857 15.8833 6.24796 16.3193 5.92647 16.6408C5.60498 16.9623 5.16894 17.1429 4.71429 17.1429H2.57143C1.88944 17.1429 1.23539 16.872 0.753154 16.3898C0.270918 15.9075 0 15.2535 0 14.5715L0 11.1429C0 10.4609 0.270918 9.80688 0.753154 9.32464C1.23539 8.8424 1.88944 8.57148 2.57143 8.57148H3.85714V7.90291C3.87278 6.8493 4.09583 5.80909 4.51353 4.84169C4.93123 3.87429 5.53542 2.99865 6.29158 2.26478C7.04774 1.53091 7.94105 0.953181 8.92052 0.564596C9.89998 0.176011 10.9464 -0.0158206 12 5.63314e-05C13.0536 -0.0158206 14.1 0.176011 15.0795 0.564596C16.0589 0.953181 16.9523 1.53091 17.7084 2.26478C18.4646 2.99865 19.0688 3.87429 19.4865 4.84169C19.9042 5.80909 20.1272 6.8493 20.1429 7.90291V8.57148H21.4286C22.1106 8.57148 22.7646 8.8424 23.2468 9.32464C23.7291 9.80688 24 10.4609 24 11.1429V14.5715C24 15.2535 23.7291 15.9075 23.2468 16.3898C22.7646 16.872 22.1106 17.1429 21.4286 17.1429H20.1429V18.0001C20.1431 19.1585 19.7168 20.2765 18.9452 21.1406C18.1737 22.0048 17.1111 22.5546 15.96 22.6852C15.7365 23.0843 15.4105 23.4166 15.0158 23.6477C14.621 23.8788 14.1717 24.0005 13.7143 24.0001H11.1429C10.4609 24.0001 9.80682 23.7291 9.32458 23.2469C8.84235 22.7647 8.57143 22.1106 8.57143 21.4286C8.57143 20.7466 8.84235 20.0926 9.32458 19.6104C9.80682 19.1281 10.4609 18.8572 11.1429 18.8572H13.7143C14.6434 18.8572 15.4577 19.3492 15.9086 20.0881C16.3811 19.9795 16.8028 19.7138 17.1048 19.3346C17.4068 18.9553 17.5713 18.4849 17.5714 18.0001V7.93206C17.5597 7.21171 17.4052 6.50084 17.1171 5.84055C16.8289 5.18025 16.4127 4.58362 15.8926 4.08514C15.3724 3.58667 14.7586 3.19625 14.0867 2.93644C13.4147 2.67663 12.6979 2.55259 11.9777 2.57149Z"/>
	</symbol>

	<symbol id="group" viewBox="0 0 30 30">
		<path d="M14.5 16.1176C16.8137 16.1176 18.91 16.8835 20.4479 17.9545C21.9093 18.9736 23.1471 20.4881 23.1471 22.1175C23.1471 23.0118 22.7653 23.753 22.1638 24.3039C21.598 24.824 20.8593 25.1612 20.0983 25.391C18.5777 25.8518 16.5753 26 14.5 26C12.4247 26 10.4223 25.8518 8.90164 25.391C8.1407 25.1612 7.40199 24.824 6.83499 24.3039C6.23588 23.7542 5.85294 23.0131 5.85294 22.1187C5.85294 20.4894 7.0907 18.9749 8.55205 17.9558C10.09 16.8835 12.1863 16.1176 14.5 16.1176ZM23.1471 17.3529C24.4367 17.3529 25.6078 17.7791 26.4737 18.3819C27.2643 18.9341 28.0882 19.8519 28.0882 20.9711C28.0882 21.6098 27.8103 22.1397 27.3965 22.5189C27.0185 22.8661 26.5515 23.0699 26.1253 23.1984C25.5448 23.3738 24.8592 23.4639 24.1476 23.5035C24.2983 23.0773 24.3823 22.6141 24.3823 22.1175C24.3823 20.2213 23.1977 18.6105 21.8722 17.4925C22.2909 17.4 22.7183 17.3532 23.1471 17.3529ZM5.85294 17.3529C6.29517 17.3546 6.72011 17.4011 7.12776 17.4925C5.80352 18.6105 4.61764 20.2213 4.61764 22.1175C4.61764 22.6141 4.70164 23.0773 4.85235 23.5035C4.14082 23.4639 3.45646 23.3738 2.87464 23.1984C2.44846 23.0699 1.98152 22.8661 1.60229 22.5189C1.38491 22.3242 1.21105 22.0858 1.09206 21.8193C0.973076 21.5528 0.911638 21.2642 0.911759 20.9724C0.911759 19.8544 1.73446 18.9354 2.52629 18.3832C3.5057 17.7117 4.66546 17.3526 5.85294 17.3529ZM22.5294 9.94118C23.3485 9.94118 24.134 10.2665 24.7131 10.8457C25.2923 11.4249 25.6176 12.2104 25.6176 13.0294C25.6176 13.8485 25.2923 14.634 24.7131 15.2131C24.134 15.7923 23.3485 16.1176 22.5294 16.1176C21.7104 16.1176 20.9249 15.7923 20.3457 15.2131C19.7665 14.634 19.4412 13.8485 19.4412 13.0294C19.4412 12.2104 19.7665 11.4249 20.3457 10.8457C20.9249 10.2665 21.7104 9.94118 22.5294 9.94118ZM6.47058 9.94118C7.28963 9.94118 8.07514 10.2665 8.65429 10.8457C9.23345 11.4249 9.55882 12.2104 9.55882 13.0294C9.55882 13.8485 9.23345 14.634 8.65429 15.2131C8.07514 15.7923 7.28963 16.1176 6.47058 16.1176C5.65153 16.1176 4.86603 15.7923 4.28687 15.2131C3.70771 14.634 3.38235 13.8485 3.38235 13.0294C3.38235 12.2104 3.70771 11.4249 4.28687 10.8457C4.86603 10.2665 5.65153 9.94118 6.47058 9.94118ZM14.5 5C15.8105 5 17.0673 5.52059 17.9939 6.44724C18.9206 7.37389 19.4412 8.63069 19.4412 9.94118C19.4412 11.2517 18.9206 12.5085 17.9939 13.4351C17.0673 14.3618 15.8105 14.8824 14.5 14.8824C13.1895 14.8824 11.9327 14.3618 11.0061 13.4351C10.0794 12.5085 9.55882 11.2517 9.55882 9.94118C9.55882 8.63069 10.0794 7.37389 11.0061 6.44724C11.9327 5.52059 13.1895 5 14.5 5Z" />
	</symbol>

	<symbol id="retention" viewBox="0 0 30 30">
		<path d="M14.0918 1.93359C12.1758 2.23242 10.4297 3.50391 9.5625 5.24414C9.26953 5.82422 9.05273 6.51562 8.9707 7.11328C8.93555 7.35937 8.90625 8.29102 8.90625 9.17578V10.7812H11.25H13.5938V9.28125C13.5938 8.27344 13.6172 7.69922 13.6641 7.53516C13.8164 7.03125 14.4609 6.5625 15 6.5625C15.5391 6.5625 16.1836 7.03125 16.3359 7.53516C16.3828 7.69922 16.4062 8.27344 16.4062 9.28125V10.7812H18.75H21.0938V9.15234C21.0938 6.95508 20.9883 6.33984 20.4082 5.18555C20.1211 4.61719 19.8105 4.20117 19.2891 3.67383C18.4863 2.85352 17.5957 2.34961 16.459 2.05664C15.8965 1.91016 14.666 1.8457 14.0918 1.93359Z"/>
		<path d="M8.91797 12.3515C8.93555 12.9492 8.94727 13.0019 9.10547 13.207C9.39258 13.5879 9.46875 13.5996 11.3379 13.582C12.9082 13.5644 13.0078 13.5586 13.1602 13.4414C13.5117 13.1836 13.5645 13.0488 13.582 12.3574L13.6055 11.7187H11.25H8.89453L8.91797 12.3515Z"/>
		<path d="M16.418 12.3515C16.4355 12.9492 16.4473 13.0019 16.6055 13.207C16.8926 13.5879 16.9687 13.5996 18.8379 13.582C20.4082 13.5644 20.5078 13.5586 20.6602 13.4414C21.0117 13.1836 21.0645 13.0488 21.082 12.3574L21.1055 11.7187H18.75H16.3945L16.418 12.3515Z"/>
		<path d="M11.2442 15.0586C11.1973 15.0879 10.9102 15.4746 10.6172 15.92C10.0313 16.8047 9.9844 16.9629 10.2246 17.1973C10.3418 17.3203 10.4239 17.3438 10.7227 17.3438H11.0742L10.8106 17.7364C10.6524 17.9707 10.5469 18.1993 10.5469 18.2989C10.5469 18.6211 10.9512 18.8496 11.2442 18.6973C11.2969 18.6621 11.5899 18.2754 11.8828 17.8301C12.4688 16.9453 12.5156 16.7871 12.2754 16.5528C12.1582 16.4297 12.0762 16.4063 11.7774 16.4063H11.4258L11.6895 16.0137C11.8477 15.7793 11.9531 15.5508 11.9531 15.4512C11.9531 15.1289 11.5313 14.8887 11.2442 15.0586Z"/>
		<path d="M18.7442 15.0586C18.6973 15.0879 18.4102 15.4746 18.1172 15.92C17.5313 16.8047 17.4844 16.9629 17.7246 17.1973C17.8418 17.3203 17.9239 17.3438 18.2227 17.3438H18.5742L18.3106 17.7364C18.1524 17.9707 18.0469 18.1993 18.0469 18.2989C18.0469 18.6211 18.4512 18.8496 18.7442 18.6973C18.7969 18.6621 19.0899 18.2754 19.3828 17.8301C19.9688 16.9453 20.0156 16.7871 19.7754 16.5528C19.6582 16.4297 19.5762 16.4063 19.2774 16.4063H18.9258L19.1895 16.0137C19.3477 15.7793 19.4531 15.5508 19.4531 15.4512C19.4531 15.1289 19.0313 14.8887 18.7442 15.0586Z"/>
		<path d="M7.44727 18.8379C6.94336 18.9785 6.46875 19.2715 6.11719 19.6406C5.55469 20.25 5.36719 20.7949 5.40234 21.6738C5.41992 22.1543 5.44922 22.2949 5.60742 22.6348C5.71875 22.8691 5.92969 23.1738 6.12305 23.373L6.44531 23.7129L6.05859 23.9414C5.51367 24.2578 4.93945 24.8906 4.64063 25.5C4.34766 26.1035 4.21875 26.7012 4.21875 27.5098V28.125H7.17773H10.1367V27.668C10.1367 26.6133 10.3359 25.7051 10.7227 24.9844L10.9453 24.5625L10.6992 24.3281C10.5703 24.1992 10.3066 24 10.125 23.8945L9.79102 23.6953L9.98438 23.543C10.2422 23.3379 10.582 22.8105 10.7344 22.3945C10.9102 21.9023 10.9043 21.1348 10.7285 20.6074C10.4707 19.8398 9.74414 19.1191 9.00586 18.8965C8.56055 18.7559 7.82813 18.7324 7.44727 18.8379Z"/>
		<path d="M14.3027 18.8438C13.834 18.9668 13.4297 19.207 13.0605 19.5703C11.9941 20.6191 11.9766 22.3125 13.0137 23.4082L13.3008 23.7129L12.9375 23.9355C12.1348 24.4277 11.4375 25.3711 11.2207 26.2559C11.168 26.4609 11.1152 26.9648 11.0918 27.375L11.0566 28.125H14.9883H18.9258V27.6621C18.9258 26.3027 18.5684 25.3242 17.7832 24.5215C17.5898 24.3223 17.2676 24.0586 17.0625 23.9355L16.6992 23.7129L16.9863 23.4082C18.0059 22.3359 18 20.6719 16.9863 19.5996C16.3242 18.8965 15.2344 18.5918 14.3027 18.8438Z"/>
		<path d="M21.2285 18.832C19.9453 19.1426 18.9844 20.4785 19.125 21.75C19.2012 22.4297 19.5762 23.1855 20.0156 23.543L20.209 23.7012L19.9277 23.8652C19.7695 23.9531 19.5117 24.1406 19.3477 24.2871L19.0547 24.5508L19.3066 25.0664C19.6641 25.7813 19.7988 26.3496 19.8457 27.3164L19.8809 28.125H22.8398H25.7988L25.7695 27.3164C25.7285 26.332 25.5762 25.7813 25.1426 25.1309C24.8027 24.6152 24.4805 24.293 23.9531 23.9473L23.5605 23.6895L23.8477 23.4082C24.4102 22.8574 24.6387 22.2129 24.5977 21.3164C24.5742 20.8066 24.5449 20.6953 24.3574 20.3145C23.7773 19.1426 22.4883 18.5273 21.2285 18.832Z"/>
	</symbol>

	<symbol id="money" viewBox="0 0 30 30">
		<path d="M1.875 7.96875C1.875 6.675 2.925 5.625 4.21875 5.625H22.0312C23.325 5.625 24.375 6.675 24.375 7.96875V18.2812C24.375 19.575 23.325 20.625 22.0312 20.625H4.21875C2.925 20.625 1.875 19.575 1.875 18.2812V7.96875ZM7.5 8.4375V7.5H5.625V8.4375C5.625 8.68614 5.52623 8.9246 5.35041 9.10041C5.1746 9.27623 4.93614 9.375 4.6875 9.375H3.75V11.25H4.6875C5.43342 11.25 6.14879 10.9537 6.67624 10.4262C7.20368 9.89879 7.5 9.18342 7.5 8.4375ZM16.875 13.125C16.875 12.1304 16.4799 11.1766 15.7766 10.4733C15.0734 9.77009 14.1196 9.375 13.125 9.375C12.1304 9.375 11.1766 9.77009 10.4733 10.4733C9.77009 11.1766 9.375 12.1304 9.375 13.125C9.375 14.1196 9.77009 15.0734 10.4733 15.7766C11.1766 16.4799 12.1304 16.875 13.125 16.875C14.1196 16.875 15.0734 16.4799 15.7766 15.7766C16.4799 15.0734 16.875 14.1196 16.875 13.125ZM20.625 7.5H18.75V8.4375C18.75 9.18342 19.0463 9.89879 19.5738 10.4262C20.1012 10.9537 20.8166 11.25 21.5625 11.25H22.5V9.375H21.5625C21.3139 9.375 21.0754 9.27623 20.8996 9.10041C20.7238 8.9246 20.625 8.68614 20.625 8.4375V7.5ZM7.5 17.8125C7.5 17.0666 7.20368 16.3512 6.67624 15.8238C6.14879 15.2963 5.43342 15 4.6875 15H3.75V16.875H4.6875C4.93614 16.875 5.1746 16.9738 5.35041 17.1496C5.52623 17.3254 5.625 17.5639 5.625 17.8125V18.75H7.5V17.8125ZM20.625 18.75V17.8125C20.625 17.5639 20.7238 17.3254 20.8996 17.1496C21.0754 16.9738 21.3139 16.875 21.5625 16.875H22.5V15H21.5625C20.8166 15 20.1012 15.2963 19.5738 15.8238C19.0463 16.3512 18.75 17.0666 18.75 17.8125V18.75H20.625ZM8.4375 24.375C7.84354 24.3752 7.26475 24.1874 6.7841 23.8384C6.30344 23.4895 5.94561 22.9973 5.76187 22.4325C6.02187 22.4775 6.28875 22.5 6.5625 22.5H22.0312C23.1501 22.5 24.2232 22.0555 25.0144 21.2644C25.8055 20.4732 26.25 19.4001 26.25 18.2812V9.53438C26.7986 9.72833 27.2735 10.0877 27.6093 10.5628C27.9451 11.038 28.1253 11.6056 28.125 12.1875V18.2812C28.125 19.0815 27.9674 19.8739 27.6611 20.6132C27.3549 21.3526 26.906 22.0243 26.3402 22.5902C25.7743 23.156 25.1026 23.6049 24.3632 23.9111C23.6239 24.2174 22.8315 24.375 22.0312 24.375H8.4375Z"/>
	</symbol>

	<symbol id="checkbox" viewBox="0 0 22 22">
		<path d="M4.71429 0C3.46398 0 2.26488 0.496682 1.38078 1.38078C0.496682 2.26488 0 3.46398 0 4.71429V17.2857C0 18.536 0.496682 19.7351 1.38078 20.6192C2.26488 21.5033 3.46398 22 4.71429 22H17.2857C18.536 22 19.7351 21.5033 20.6192 20.6192C21.5033 19.7351 22 18.536 22 17.2857V4.71429C22 3.46398 21.5033 2.26488 20.6192 1.38078C19.7351 0.496682 18.536 0 17.2857 0H4.71429ZM16.2706 8.41343L9.98486 14.6991C9.91187 14.7723 9.82517 14.8304 9.72971 14.87C9.63425 14.9096 9.53192 14.93 9.42857 14.93C9.32522 14.93 9.22289 14.9096 9.12743 14.87C9.03198 14.8304 8.94527 14.7723 8.87229 14.6991L5.72943 11.5563C5.58189 11.4087 5.49901 11.2086 5.49901 11C5.49901 10.7914 5.58189 10.5913 5.72943 10.4437C5.87696 10.2962 6.07707 10.2133 6.28571 10.2133C6.49436 10.2133 6.69446 10.2962 6.842 10.4437L9.42857 13.0319L15.158 7.30086C15.3055 7.15332 15.5056 7.07044 15.7143 7.07044C15.9229 7.07044 16.123 7.15332 16.2706 7.30086C16.4181 7.44839 16.501 7.6485 16.501 7.85714C16.501 8.06579 16.4181 8.26589 16.2706 8.41343Z"/>
	</symbol>

</svg>
