<svg xmlns="http://www.w3.org/2000/svg">

	<symbol id="max" viewBox="0 0 14 14">
		<path fill-rule="evenodd" clip-rule="evenodd" d="M-1.06061 0.238881C-1.05902 1.28433 -1.05505 2.10893 -1.05179 2.07134C-0.982575 1.27427 -0.636893 0.434173 -0.127254 -0.175452C0.165513 -0.525679 0.545349 -0.853592 0.918283 -1.07807C1.44233 -1.39349 1.96177 -1.56662 2.63562 -1.65043C2.66381 -1.65393 1.84306 -1.65796 0.811702 -1.65936L-1.06348 -1.66193L-1.06061 0.238881ZM11.6314 -1.65032C12.3874 -1.57284 13.0956 -1.29622 13.7158 -0.836164C13.9246 -0.681315 14.3584 -0.247521 14.5132 -0.0387652C14.9726 0.580513 15.25 1.29089 15.3274 2.04572C15.3308 2.07861 15.3348 1.25785 15.3363 0.221795L15.339 -1.66193L13.4553 -1.65919C12.4192 -1.65769 11.5985 -1.65369 11.6314 -1.65032ZM6.8473 0.313017C6.03119 0.383308 5.4597 0.511145 4.81407 0.767809C2.77569 1.57816 1.31493 3.36123 0.961545 5.47033C0.889579 5.8999 0.876594 6.07848 0.878285 6.6162C0.881856 7.76524 0.99218 8.45305 1.45652 10.2213C1.67205 11.0421 1.77278 11.6545 1.77278 12.1442C1.77278 12.4671 1.94072 12.6759 2.26137 12.7515C2.4269 12.7905 2.74687 12.7756 2.97734 12.7181C3.50017 12.5877 3.99725 12.3243 4.3267 12.0034C4.41151 11.9207 4.48247 11.8531 4.48437 11.8531C4.48628 11.853 4.58239 11.9171 4.69794 11.9955C5.50734 12.5442 6.0065 12.7039 7.00961 12.7353C8.75634 12.7899 10.3743 12.1534 11.5974 10.9306C13.0716 9.45657 13.6906 7.36575 13.2717 5.27495C13.0236 4.03629 12.417 2.92154 11.5097 2.03683C10.5452 1.09642 9.37881 0.53404 8.01768 0.353203C7.77267 0.320654 7.04761 0.29576 6.8473 0.313017ZM6.83876 3.37334C6.17637 3.43417 5.50429 3.75094 5.02874 4.22649C4.26227 4.99297 3.90319 6.1267 3.97688 7.54758C4.01765 8.33391 4.15065 9.00366 4.35173 9.43537C4.42612 9.59507 4.49192 9.67876 4.56819 9.71062C4.6444 9.74247 4.7521 9.7082 4.91659 9.5998C5.04935 9.51231 5.33291 9.28115 5.41811 9.19097L5.46684 9.13937L5.57189 9.20772C5.72696 9.30861 6.0641 9.46944 6.24907 9.53076C6.86983 9.73653 7.52231 9.73299 8.15974 9.52039C8.68373 9.34562 9.18972 9.01073 9.54909 8.60088C10.1071 7.9645 10.4023 7.11264 10.3362 6.33004C10.2988 5.88765 10.2052 5.54431 10.018 5.16389C9.52363 4.15876 8.58126 3.50167 7.45879 3.37941C7.30267 3.36239 6.99118 3.35935 6.83876 3.37334ZM-1.06074 12.8227L-1.06348 14.7405L0.854416 14.7377C1.90927 14.7361 2.74155 14.7321 2.70397 14.7288C1.26005 14.6028 -0.00731134 13.7418 -0.63609 12.4596C-0.87261 11.9773 -0.99802 11.5268 -1.05223 10.9646C-1.05541 10.9317 -1.05924 11.7678 -1.06074 12.8227ZM15.3219 11.0483C15.3219 11.0849 15.3064 11.206 15.2874 11.3174C15.1758 11.9728 14.9185 12.571 14.5132 13.1174C14.3584 13.3261 13.9246 13.7599 13.7158 13.9148C13.0947 14.3755 12.3885 14.6513 11.6314 14.7289C11.5985 14.7323 12.4192 14.7363 13.4553 14.7378L15.339 14.7405V12.8611C15.339 11.8274 15.3351 10.9816 15.3305 10.9816C15.3258 10.9816 15.3219 11.0116 15.3219 11.0483Z" />
	</symbol>

	<symbol id="arrow" viewBox="0 0 10 17">
		<path d="M9.06087 9.06092C9.49929 8.6225 9.49929 7.91168 9.06087 7.47326L1.91643 0.328814C1.47801 -0.109605 0.76719 -0.109605 0.328771 0.328813C-0.109648 0.767232 -0.109648 1.47805 0.328771 1.91647L6.67939 8.26709L0.32877 14.6177C-0.109649 15.0561 -0.109649 15.7669 0.328769 16.2054C0.767188 16.6438 1.47801 16.6438 1.91642 16.2054L9.06087 9.06092ZM6.94629 8.26709L6.94629 9.38973L8.26704 9.38973L8.26704 8.26709L8.26704 7.14445L6.94629 7.14445L6.94629 8.26709Z" />
	</symbol>

	<symbol id="up" viewBox="0 0 11 11">
		<path d="M11 1C11 0.447715 10.5523 1.30289e-08 10 4.34497e-07L1 2.23763e-07C0.447715 2.23763e-07 -1.0013e-07 0.447715 -1.0013e-07 1C-1.0013e-07 1.55229 0.447715 2 1 2L9 2L9 10C9 10.5523 9.44771 11 10 11C10.5523 11 11 10.5523 11 10L11 1ZM2 9L2.70711 9.70711L10.7071 1.70711L10 1L9.29289 0.292894L1.29289 8.29289L2 9Z" />
	</symbol>

	<symbol id="download" viewBox="0 0 12 12">
		<path d="M6.34958 9.83179C6.25983 9.93897 6.13301 10 6 10C5.86699 10 5.74017 9.93897 5.65042 9.83179L3.1241 6.81455C2.94757 6.60372 2.96098 6.27655 3.15406 6.08379C3.34714 5.89103 3.64675 5.90566 3.82328 6.11648L5.52632 8.15048V0.517241C5.52632 0.231579 5.7384 0 6 0C6.2616 0 6.47368 0.231579 6.47368 0.517241V8.15048L8.17674 6.11648C8.35326 5.90566 8.65288 5.89103 8.84596 6.08379C9.03903 6.27655 9.05242 6.60372 8.87589 6.81455L6.34958 9.83179Z" />
		<path d="M0.923077 8.4C0.923077 8.17909 0.716443 8 0.461539 8C0.20664 8 3.22433e-07 8.17909 3.22433e-07 8.4V8.42928C-1.19853e-05 9.15867 -2.4337e-05 9.74656 0.0717049 10.209C0.146179 10.689 0.305496 11.0932 0.675908 11.4142C1.04632 11.7353 1.5127 11.8733 2.06662 11.9379C2.60014 12 3.27849 12 4.12008 12H7.87994C8.72154 12 9.39988 12 9.93342 11.9379C10.4873 11.8733 10.9537 11.7353 11.3241 11.4142C11.6945 11.0932 11.8538 10.689 11.9283 10.209C12 9.74656 12 9.15867 12 8.42928V8.4C12 8.17909 11.7934 8 11.5385 8C11.2836 8 11.0769 8.17909 11.0769 8.4C11.0769 9.16555 11.0759 9.69947 11.0135 10.1023C10.9527 10.4937 10.8417 10.7009 10.6714 10.8485C10.501 10.9962 10.262 11.0924 9.8104 11.145C9.34554 11.1991 8.72948 11.2 7.84615 11.2H4.15385C3.27052 11.2 2.65444 11.1991 2.18961 11.145C1.73806 11.0924 1.49894 10.9962 1.32862 10.8485C1.15831 10.7009 1.04726 10.4937 0.986554 10.1023C0.924056 9.69947 0.923077 9.16555 0.923077 8.4Z" />
	</symbol>

	<symbol id="loc" viewBox="0 0 13 15">
		<path d="M6.23239 14.924C6.23257 14.9241 6.23271 14.9242 6.5 14.5835L6.23239 14.924ZM6.76761 14.924L6.76929 14.9229L6.77351 14.9203L6.78827 14.9108C6.80095 14.9026 6.8192 14.8908 6.8426 14.8754C6.8894 14.8445 6.95695 14.7993 7.04233 14.7404C7.213 14.6226 7.45508 14.4499 7.7448 14.2276C8.32358 13.7835 9.09573 13.1388 9.86909 12.336C11.4047 10.7418 13 8.46657 13 5.86545C13 4.31064 12.3158 2.819 11.0972 1.71881C9.87838 0.618567 8.22477 0 6.5 0C4.77522 0 3.12162 0.618567 1.90283 1.71881C0.684171 2.819 0 4.31064 0 5.86545C0 8.46657 1.59533 10.7418 3.13091 12.336C3.90427 13.1388 4.67642 13.7835 5.2552 14.2276C5.54492 14.4499 5.787 14.6226 5.95767 14.7404C6.04305 14.7993 6.1106 14.8445 6.1574 14.8754C6.1808 14.8908 6.19905 14.9026 6.21173 14.9108L6.22649 14.9203L6.23071 14.9229L6.23239 14.924C6.3927 15.0253 6.6073 15.0253 6.76761 14.924ZM6.5 14.5835L6.76761 14.924C6.76743 14.9241 6.76729 14.9242 6.5 14.5835ZM8.82143 5.83341C8.82143 6.98401 7.78208 7.91677 6.5 7.91677C5.21792 7.91677 4.17857 6.98401 4.17857 5.83341C4.17857 4.68281 5.21792 3.75005 6.5 3.75005C7.78208 3.75005 8.82143 4.68281 8.82143 5.83341Z" />
	</symbol>

	<symbol id="car" viewBox="0 0 18 14">
		<path fill-rule="evenodd" clip-rule="evenodd" d="M0.812299 4.72351L0.801539 4.73048C0.300782 5.05505 0 5.60145 0 6.18657V13.125C0 13.602 0.402944 14 0.9 14H1.8C2.29706 14 2.7 13.6082 2.7 13.125V12.25H15.3V13.125C15.3 13.6082 15.7029 14 16.2 14H17.1C17.5971 14 18 13.6082 18 13.125V6.18657C18 5.60145 17.6992 5.05505 17.1985 4.73048L17.1877 4.72351C17.5157 4.53933 17.8128 4.3584 17.8705 4.27778C18.0097 4.08333 18.0737 3.5 17.8705 3.5H16.2L15.1463 1.45106C14.6889 0.561756 13.754 0 12.7313 0H5.26869C4.24601 0 3.3111 0.561756 2.85374 1.45106L1.8 3.5H0.129493C-0.0736762 3.5 -0.0097156 4.08333 0.129493 4.27778C0.187217 4.3584 0.484292 4.53933 0.812299 4.72351ZM3.69177 1.80147L2.15294 4.60662C1.99308 4.89804 2.21029 5.25 2.55 5.25H15.45C15.7897 5.25 16.0069 4.89804 15.8471 4.60662L14.3082 1.80147C13.9954 1.23121 13.3848 0.875 12.72 0.875H5.28C4.61524 0.875 4.0046 1.23121 3.69177 1.80147ZM0.9 7.94488V6.8867C0.9 6.54904 1.27675 6.33866 1.57674 6.5088L4.58169 8.21299C4.99581 8.44786 4.79535 9.06559 4.31758 9.02689L1.72526 8.81686C1.2588 8.77907 0.9 8.39996 0.9 7.94488ZM17.1 6.8867V7.94488C17.1 8.39996 16.7412 8.77907 16.2747 8.81686L13.6824 9.02689C13.2046 9.06559 13.0042 8.44786 13.4183 8.21299L16.4233 6.5088C16.7233 6.33866 17.1 6.54904 17.1 6.8867Z" />
	</symbol>

	<symbol id="tree" viewBox="0 0 18 22">
		<path d="M14.1731 7.18194C14.3436 6.65153 14.4374 6.08675 14.4374 5.49998C14.4374 2.46261 11.9752 0 8.93746 0C5.89976 0 3.43749 2.46261 3.43749 5.49998C3.43749 6.08675 3.53133 6.65153 3.70183 7.18194C1.54859 7.92753 0 9.96802 0 12.3749C0 15.4123 2.46227 17.8749 5.49998 17.8749C6.69106 17.8749 7.78969 17.491 8.68996 16.8471L5.93654 14.0937H4.46873C4.27864 14.0937 4.12498 13.94 4.12498 13.7499C4.12498 13.5598 4.27864 13.4062 4.46873 13.4062H5.84372V12.0312C5.84372 11.8411 5.99738 11.6874 6.18747 11.6874C6.37757 11.6874 6.53122 11.8411 6.53122 12.0312V13.7159L8.59371 15.7774V11.4867L7.32184 10.2148C7.18744 10.0804 7.20222 9.87796 7.33697 9.74321C7.47137 9.6088 7.65803 9.57821 7.79209 9.71227L8.93746 10.8576L10.0684 9.72671C10.2028 9.5923 10.4252 9.58749 10.5596 9.72155C10.694 9.85561 10.6937 10.0736 10.5593 10.208L9.28121 11.486V15.7777L11.3437 13.7149V12.0312C11.3437 11.8411 11.4974 11.6874 11.6874 11.6874C11.8775 11.6874 12.0312 11.8411 12.0312 12.0312V13.4062H13.4062C13.5963 13.4062 13.7499 13.5598 13.7499 13.7499C13.7499 13.94 13.5963 14.0937 13.4062 14.0937H11.9384L9.18496 16.8471C10.0856 17.491 11.1839 17.8749 12.3749 17.8749C15.4127 17.8749 17.8749 15.4123 17.8749 12.3749C17.8749 9.96802 16.3263 7.92753 14.1731 7.18194Z" />
		<path d="M7.5625 18.2054V21.6563C7.5625 21.8464 7.71616 22 7.90625 22H9.96874C10.1588 22 10.3125 21.8464 10.3125 21.6563V18.2054C9.82368 18.0322 9.36099 17.8032 8.93749 17.5193C8.514 17.8032 8.05131 18.0322 7.5625 18.2054Z" />
	</symbol>

	<symbol id="home" viewBox="0 0 19 16">
		<path d="M0 7.94293C0 8.30813 0.309066 8.52877 0.691355 8.52877C0.927231 8.52877 1.11428 8.42226 1.27697 8.27008L9.2153 1.50641C9.30476 1.42273 9.40238 1.39228 9.50809 1.39228C9.60571 1.39228 9.69517 1.42273 9.79276 1.50641L17.723 8.27008C17.8938 8.42226 18.0808 8.52877 18.3085 8.52877C18.6908 8.52877 19 8.30813 19 7.94293C19 7.71469 18.9105 7.57014 18.756 7.44082L15.9417 5.04421V0.54779C15.9417 0.213013 15.714 0 15.3562 0H14.2906C13.9409 0 13.6969 0.213013 13.6969 0.54779V3.13456L10.476 0.380418C10.1913 0.129327 9.84158 0.00759604 9.49997 0.00759604C9.15835 0.00759604 8.81677 0.129327 8.52394 0.380418L0.243997 7.44082C0.0976197 7.57014 0 7.71469 0 7.94293ZM2.32618 14.3262C2.32618 15.3837 3.00942 16 4.15625 16H7.4503V10.5906C7.4503 10.2406 7.70245 10.0124 8.07662 10.0124H10.9477C11.3219 10.0124 11.5659 10.2406 11.5659 10.5906V16H14.8518C15.9986 16 16.6738 15.3837 16.6738 14.3262V8.757L9.76839 2.93674C9.67889 2.86065 9.58131 2.82263 9.48372 2.82263C9.39423 2.82263 9.30476 2.86065 9.20718 2.94437L2.32618 8.79505V14.3262Z" />
	</symbol>

	<symbol id="card" viewBox="0 0 20 16">
		<path d="M19.2857 3H0.714286C0.285714 3 0 3.28889 0 3.72222V15.2778C0 15.7111 0.285714 16 0.714286 16H19.2857C19.7143 16 20 15.7111 20 15.2778V3.72222C20 3.28889 19.7143 3 19.2857 3ZM9.28571 13.1111H3.57143C3.14286 13.1111 2.85714 12.8222 2.85714 12.3889C2.85714 11.0167 3.57143 9.86111 4.64286 9.28333C4.42857 8.92222 4.28571 8.48889 4.28571 8.05556C4.28571 6.82778 5.21429 5.88889 6.42857 5.88889C7.64286 5.88889 8.57143 6.82778 8.57143 8.05556C8.57143 8.48889 8.42857 8.92222 8.21429 9.28333C9.28571 9.86111 10 11.0167 10 12.3889C10 12.8222 9.71429 13.1111 9.28571 13.1111ZM16.4286 11.6667H14.2857C13.8571 11.6667 13.5714 11.3778 13.5714 10.9444C13.5714 10.5111 13.8571 10.2222 14.2857 10.2222H16.4286C16.8571 10.2222 17.1429 10.5111 17.1429 10.9444C17.1429 11.3778 16.8571 11.6667 16.4286 11.6667ZM16.4286 8.77778H12.1429C11.7143 8.77778 11.4286 8.48889 11.4286 8.05556C11.4286 7.62222 11.7143 7.33333 12.1429 7.33333H16.4286C16.8571 7.33333 17.1429 7.62222 17.1429 8.05556C17.1429 8.48889 16.8571 8.77778 16.4286 8.77778Z" />
		<path d="M12.7828 4.86957H7.21762C6.80023 4.86957 6.52197 4.5913 6.52197 4.17391V3.47826C6.52197 1.53043 8.05241 0 10.0002 0C11.9481 0 13.4785 1.53043 13.4785 3.47826V4.17391C13.4785 4.5913 13.2002 4.86957 12.7828 4.86957ZM7.91328 3.47826H12.0872C12.0872 2.29565 11.1828 1.3913 10.0002 1.3913C8.81762 1.3913 7.91328 2.29565 7.91328 3.47826Z" />
	</symbol>

	<symbol id="case" viewBox="0 0 29 26">
		<path d="M24.9164 5.41661H22.0998C20.7998 2.16664 17.6582 0 14.0832 0C10.5082 0 7.36659 2.16664 6.06661 5.41661H3.24997C1.40832 5.41661 0 6.82493 0 8.66658V9.31657C0 13.1082 3.14163 16.2498 6.93326 16.2498H21.3414C25.1331 16.2498 28.2747 13.1082 28.2747 9.31657V8.66658C28.1664 6.82493 26.7581 5.41661 24.9164 5.41661ZM14.0832 2.16664C16.4665 2.16664 18.5248 3.46663 19.7165 5.41661H8.44991C9.64157 3.46663 11.6999 2.16664 14.0832 2.16664Z" />
		<path d="M21.6664 18.417V20.5837C21.6664 21.2337 21.2331 21.667 20.5831 21.667C19.9331 21.667 19.4998 21.2337 19.4998 20.5837V18.417H8.66658V20.5837C8.66658 21.2337 8.23325 21.667 7.58326 21.667C6.93326 21.667 6.49993 21.2337 6.49993 20.5837V18.417C3.89996 18.3087 1.62498 17.117 0 15.2754V22.7503C0 24.592 1.40832 26.0003 3.24997 26.0003H24.9164C26.7581 26.0003 28.1664 24.592 28.1664 22.7503V15.2754C26.5414 17.117 24.2664 18.3087 21.6664 18.417Z" />
	</symbol>

	<symbol id="house" viewBox="0 0 29 26">
		<path d="M27.3002 23.3999H26.0002V10.4634L26.5913 10.8479C26.8102 10.9904 27.0559 11.0585 27.299 11.0585C27.724 11.0585 28.1408 10.8502 28.3899 10.4673C28.7815 9.86547 28.611 9.06025 28.0092 8.66861L15.0092 0.210272C14.578 -0.0700905 14.0222 -0.0700905 13.5913 0.210272L0.591202 8.66861C-0.0106904 9.06019 -0.181008 9.86547 0.21046 10.4673C0.602039 11.0691 1.40726 11.2396 2.00916 10.8481L2.60004 10.4635V23.4H1.30007C0.582209 23.4 9.05778e-05 23.9821 9.05778e-05 24.7C9.05778e-05 25.4179 0.582209 26 1.30007 26H3.90008H11.7001H16.9001H24.7002H27.3002C28.0182 26 28.6001 25.4179 28.6001 24.7C28.6002 23.982 28.0182 23.3999 27.3002 23.3999ZM18.2002 23.3999H16.9002H15.6003H13.0003H11.7003H10.4003V16.0333C10.4003 15.3153 10.9824 14.7333 11.7003 14.7333H16.9003C17.6183 14.7333 18.2003 15.3154 18.2003 16.0333V23.3999H18.2002Z" />
	</symbol>

	<symbol id="helmet" viewBox="0 0 31 27">
		<path d="M28.7773 14.2454C28.438 8.88196 24.8474 4.27299 19.7285 2.63874C19.5408 1.15512 18.2851 0 16.7513 0H14.0711C12.5372 0 11.2816 1.15512 11.0939 2.63874C5.97503 4.27293 2.3844 8.88196 2.04511 14.2454C0.859716 14.6518 0 15.7649 0 17.0863C0 18.4847 0.961273 19.6528 2.25455 19.9923L3.15556 22.696C3.8407 24.751 5.75662 26.132 7.92316 26.132H22.8992C25.0658 26.132 26.9817 24.751 27.6671 22.6957L28.5679 19.9924C29.8611 19.6528 30.8224 18.4846 30.8224 17.0863C30.8224 15.7649 29.9627 14.6518 28.7773 14.2454ZM13.066 3.01524C13.066 2.46103 13.5169 2.01014 14.0711 2.01014H16.7513C17.3055 2.01014 17.7564 2.46103 17.7564 3.01524V14.0711H13.066V3.01524H13.066ZM27.8071 18.0914H3.01524C2.46103 18.0914 2.01014 17.6405 2.01014 17.0863C2.01014 16.5321 2.46103 16.0812 3.01524 16.0812C11.7951 16.0812 18.9255 16.0812 27.8071 16.0812C28.3613 16.0812 28.8122 16.5321 28.8122 17.0863C28.8122 17.6405 28.3613 18.0914 27.8071 18.0914Z" />
	</symbol>

	<symbol id="group" viewBox="0 0 30 26">
		<path d="M14.9218 17.2117C16.642 17.2117 18.0365 15.8173 18.0365 14.0971C18.0365 12.3769 16.642 10.9824 14.9218 10.9824C13.2016 10.9824 11.8071 12.3769 11.8071 14.0971C11.8071 15.8173 13.2016 17.2117 14.9218 17.2117Z" />
		<path d="M16.2432 17.4238H13.6004C11.4017 17.4238 9.61279 19.2133 9.61279 21.4118V24.6447L9.62096 24.6949L9.84328 24.7642C11.9416 25.4199 13.765 25.6389 15.2659 25.6389C18.1963 25.6389 19.8948 24.8029 19.9997 24.7503L20.2078 24.6441L20.2293 24.6447V21.4115C20.2308 19.2133 18.4426 17.4238 16.2432 17.4238Z" />
		<path d="M8.5636 10.0491C11.3386 10.0491 13.5881 7.79951 13.5881 5.02453C13.5881 2.24956 11.3386 0 8.5636 0C5.78862 0 3.53906 2.24956 3.53906 5.02453C3.53906 7.79951 5.78862 10.0491 8.5636 10.0491Z" />
		<path d="M21.2796 10.0491C24.0546 10.0491 26.3035 7.7986 26.3035 5.02393C26.3035 2.25017 24.0537 0 21.2796 0C18.504 0 16.2554 2.24956 16.2554 5.02393C16.2554 7.7983 18.504 10.0491 21.2796 10.0491Z" />
		<path d="M12.4798 16.9339C11.6822 16.2461 11.1749 15.2303 11.1749 14.0972C11.1749 12.7076 11.9369 11.4947 13.0633 10.8477C12.3298 10.5558 11.5324 10.3906 10.6961 10.3906H6.43259C2.88568 10.3903 0 13.2772 0 16.8235V22.0386L0.0130067 22.12L0.372053 22.2316C3.69391 23.2697 6.58565 23.627 8.9801 23.64V21.4116C8.9801 19.2506 10.4728 17.437 12.4798 16.9339Z" />
		<path d="M23.4117 10.3906H19.1488C18.3125 10.3906 17.516 10.5558 16.7822 10.8477C17.9096 11.4947 18.6715 12.707 18.6715 14.0972C18.6715 15.2297 18.164 16.2455 17.3669 16.9333C18.1703 17.1333 18.9099 17.5443 19.5109 18.1457C20.3845 19.0198 20.8657 20.1802 20.8654 21.4125V23.6403C23.2599 23.6273 26.1519 23.2697 29.4732 22.2319L29.8322 22.1203L29.8455 22.0389V16.8238C29.8443 13.2775 26.9586 10.3906 23.4117 10.3906Z" />
	</symbol>

	<symbol id="vk" viewBox="0 0 15 9">
		<path d="M14.3431 0.585358C14.4439 0.24817 14.3431 0 13.8581 0H12.2532C11.8445 0 11.6565 0.213103 11.5557 0.450483C11.5557 0.450483 10.7382 2.42236 9.58295 3.70097C9.20966 4.07053 9.038 4.18922 8.83364 4.18922C8.73283 4.18922 8.57752 4.07053 8.57752 3.73334V0.585358C8.57752 0.180733 8.46308 0 8.12521 0H5.60209C5.34596 0 5.19338 0.188825 5.19338 0.364163C5.19338 0.747208 5.77102 0.836226 5.83097 1.91523V4.25666C5.83097 4.76919 5.73833 4.8636 5.53397 4.8636C4.98902 4.8636 3.66479 2.88363 2.88006 0.617728C2.72203 0.178035 2.56672 0 2.15528 0H0.5504C0.0926415 0 0 0.213103 0 0.450483C0 0.871293 0.54495 2.96186 2.53674 5.7241C3.8637 7.60966 5.73288 8.63201 7.43312 8.63201C8.4549 8.63201 8.58024 8.40542 8.58024 8.01428C8.58024 6.21235 8.4876 6.04241 8.99985 6.04241C9.23691 6.04241 9.64562 6.1611 10.5993 7.07016C11.6892 8.14916 11.869 8.63201 12.4794 8.63201H14.0842C14.542 8.63201 14.7736 8.40542 14.6401 7.95763C14.3349 7.01621 12.2723 5.0794 12.1796 4.94992C11.9426 4.6478 12.0107 4.51292 12.1796 4.24317C12.1824 4.24048 14.1415 1.5106 14.3431 0.585358Z" />
	</symbol>

	<symbol id="tg" viewBox="0 0 14 12">
		<path fill-rule="evenodd" clip-rule="evenodd" d="M11.7159 0.0763844C11.8766 0.00875009 12.0525 -0.0145765 12.2252 0.00883219C12.398 0.0322409 12.5614 0.101529 12.6983 0.209486C12.8352 0.317442 12.9406 0.460119 13.0037 0.622667C13.0667 0.785215 13.0851 0.961692 13.0568 1.13373L11.5819 10.0795C11.4389 10.9424 10.4921 11.4373 9.7007 11.0075C9.03872 10.6479 8.05551 10.0938 7.17114 9.51575C6.72895 9.22637 5.37443 8.29974 5.5409 7.64036C5.68396 7.07657 7.95992 4.95798 9.26047 3.6984C9.77093 3.20355 9.53813 2.91808 8.93533 3.37327C7.4384 4.50344 5.03499 6.22211 4.24036 6.70592C3.53936 7.1325 3.17391 7.20533 2.73693 7.1325C1.93969 6.99984 1.20033 6.79435 0.596878 6.544C-0.218565 6.20586 -0.178898 5.08479 0.596228 4.75835L11.7159 0.0763844Z" />
	</symbol>

	<symbol id="yt" viewBox="0 0 18 13">
		<path d="M6.94445 8.68055L11.4497 6.07639L6.94445 3.47222V8.68055ZM16.9792 1.88368C17.092 2.29167 17.1701 2.83854 17.2222 3.53299C17.283 4.22743 17.309 4.82639 17.309 5.34722L17.3611 6.07639C17.3611 7.97743 17.2222 9.375 16.9792 10.2691C16.7622 11.0503 16.2587 11.5538 15.4774 11.7708C15.0694 11.8837 14.3229 11.9618 13.1771 12.0139C12.0486 12.0747 11.0156 12.1007 10.0608 12.1007L8.68056 12.1528C5.0434 12.1528 2.77778 12.0139 1.88368 11.7708C1.10243 11.5538 0.598958 11.0503 0.381945 10.2691C0.269097 9.86111 0.190972 9.31423 0.138889 8.61979C0.0781251 7.92535 0.0520833 7.32639 0.0520833 6.80555L0 6.07639C0 4.17535 0.138889 2.77778 0.381945 1.88368C0.598958 1.10243 1.10243 0.598958 1.88368 0.381944C2.29167 0.269097 3.03819 0.190972 4.18403 0.138889C5.3125 0.0781249 6.34549 0.0520833 7.30035 0.0520833L8.68056 0C12.3177 0 14.5833 0.138889 15.4774 0.381944C16.2587 0.598958 16.7622 1.10243 16.9792 1.88368Z" />
	</symbol>

</svg>
