<svg width="260" height="117" viewBox="0 0 260 117" fill="none" xmlns="http://www.w3.org/2000/svg">
<g clip-path="url(#clip0_1_434)">
<path d="M100.694 0.84668H102.499C102.541 2.33124 102.252 4.53979 102.492 5.87108C102.959 6.0941 103.531 6.22537 103.726 6.74622C104.161 7.90528 104.158 10.2548 103.617 11.3804C103.415 11.8016 103.078 11.9736 102.647 12.107C102.616 12.1167 102.585 12.1249 102.553 12.1339C102.774 13.1572 102.637 14.3679 102.623 15.4143L102.535 22.1569C102.521 23.3231 102.415 24.6272 102.562 25.7832C103.463 26.0232 104.275 26.395 105.09 26.8444C104.281 27.4863 103.407 28.0119 102.526 28.5485L102.528 40.1063C102.527 41.8892 102.672 43.8035 102.512 45.5658C102.492 45.9064 102.528 46.4595 102.34 46.7403L102.39 46.5227L102.271 46.5638C102.358 44.9699 102.4 29.465 102.122 29.0848C101.669 29.0929 101.23 29.1173 100.78 29.1765L100.744 41.6482C100.73 43.1751 100.919 44.7256 100.718 46.2436L100.643 46.3161L100.539 45.7499L100.39 46.3997C100.389 40.4757 100.432 34.552 100.517 28.6286C100.021 28.1686 99.3157 27.8181 98.917 27.2677C98.7236 27.0007 98.7122 26.8747 98.7694 26.5599C99.1567 26.1028 99.7988 25.9492 100.358 25.8036C100.455 24.3445 100.392 22.8455 100.395 21.382C100.373 18.3489 100.404 15.3164 100.488 12.2844C100.092 12.1136 99.6712 11.9828 99.2657 11.8369C99.0947 10.2682 98.8445 8.35016 99.3497 6.82269L99.3768 6.7427C99.5308 6.27661 99.9231 6.0024 100.289 5.70032C100.645 4.32562 100.565 2.30842 100.694 0.84668Z" fill="white"/>
<path d="M199.592 71.1761C200.221 71.2439 200.873 71.2804 201.482 71.4598C202.211 72.952 201.168 74.8695 201.741 76.3129C201.147 76.5152 200.046 76.3451 199.457 76.1475C199.703 75.7356 199.839 71.9022 199.678 71.3742C199.657 71.3046 199.626 71.2401 199.592 71.1761Z" fill="white"/>
<path d="M208.01 71.1958C208.607 71.2747 209.263 71.3095 209.834 71.5037C210.479 72.6625 210.062 74.9342 210.114 76.2465L209.976 76.3487C209.302 76.4781 208.576 76.3322 207.928 76.1417C208.19 75.5937 208.246 71.7994 208.039 71.2573C208.031 71.2361 208.019 71.2166 208.01 71.1958Z" fill="white"/>
<path d="M203.387 76.2419C204.113 75.3868 203.508 72.576 203.958 71.3642C204.102 71.3184 204.248 71.2777 204.4 71.276C204.748 71.2722 205.086 71.3642 205.325 71.6344C206.084 72.4916 205.608 75.0712 205.527 76.149C204.996 76.4701 203.988 76.3691 203.387 76.2419Z" fill="white"/>
<path d="M211.881 76.1617C212.477 75.2799 211.853 71.466 212.682 71.3069C213.007 71.2446 213.309 71.2569 213.588 71.4651C213.999 71.7722 214.091 72.3507 214.128 72.8279C214.197 73.7436 214.162 75.24 213.929 76.1303L213.805 76.2372C213.145 76.3856 212.523 76.3767 211.881 76.1617Z" fill="white"/>
<path d="M177.827 75.1364C177.838 75.1088 177.85 75.0813 177.86 75.0537C178.169 74.2436 177.682 71.5532 178.585 71.2254C178.775 71.1567 178.919 71.1923 179.09 71.2945C179.543 71.5638 179.778 72.2955 179.845 72.7832C179.968 73.682 180.106 75.4172 179.804 76.2591C179.778 76.2845 179.753 76.3108 179.726 76.335C179.523 76.5161 179.144 76.5594 178.884 76.531C178.505 76.4903 178.305 76.2383 178.088 75.9609C178.043 75.6801 177.986 75.463 177.862 75.2064C177.851 75.183 177.839 75.1597 177.827 75.1364Z" fill="white"/>
<path d="M100.78 29.1766C101.23 29.1174 101.669 29.093 102.122 29.0849C102.4 29.465 102.358 44.9699 102.271 46.5639L102.39 46.5227L102.34 46.7403C102.528 46.4595 102.492 45.9065 102.512 45.5659C102.565 46.233 102.604 46.9049 102.687 47.5691C103.51 47.62 104.339 47.6497 105.158 47.7265C105.404 49.387 105.293 51.0598 105.205 52.7284C104.189 53.1042 103.369 53.4969 102.537 54.1972C102.573 58.0645 102.401 62.0417 102.871 65.8819C104.535 67.8461 103.978 70.5916 104.318 72.9719C104.945 73.2361 105.555 73.4249 106.216 73.5856C106.264 74.7207 106.172 76.7693 107.035 77.59C107.124 77.6748 107.218 77.7342 107.328 77.7864C107.468 77.755 107.593 77.7596 107.682 77.6333C107.899 77.3228 107.954 76.8138 107.97 76.4473C108.049 74.6312 107.835 72.7229 107.771 70.9012C107.688 68.5532 107.722 66.192 107.719 63.8418C107.717 62.6487 107.482 60.6594 108.007 59.5715C108.129 59.3187 108.519 59.2207 108.763 59.1601C109.826 58.8959 111.018 58.9124 112.11 58.8594C112.466 60.8516 112.472 62.8909 112.516 64.9089C112.532 65.6147 112.444 66.4507 112.562 67.1365C112.608 67.4067 112.688 67.5068 112.884 67.6833C113.388 67.7655 114.009 67.872 114.445 67.5212C114.811 67.2269 114.92 66.7658 114.96 66.3175C115.065 65.146 114.851 63.9084 114.87 62.7225C114.922 59.6033 115.049 56.4854 115.085 53.3663C115.11 51.0937 115.002 48.7469 115.203 46.4837C115.296 45.4399 115.899 44.4932 116.067 43.4625C116.282 42.148 116.619 34.4047 116.167 33.5493C119.572 33.355 122.98 33.2546 126.391 33.248C126.559 33.5459 126.6 33.8141 126.617 34.1501C126.794 37.7081 126.628 41.346 126.629 44.9144C126.63 51.352 126.668 57.7895 126.743 64.2269C126.752 65.3594 127.038 72.5821 126.876 73.1378C126.857 73.2043 126.825 73.2658 126.79 73.3252C127.531 73.3456 128.29 73.3961 129.03 73.3494C129.709 72.412 129.303 70.5598 129.464 69.4303C129.613 68.3814 130.213 67.4521 130.391 66.4172C130.872 63.6365 130.672 60.623 130.779 57.7973C130.813 56.9134 131.031 55.8624 130.958 55.0056C132.738 54.3821 134.973 54.1972 135.874 52.2796C136.126 51.7452 136.241 51.1616 136.303 50.5775C136.425 49.4205 136.668 41.3167 136.457 40.7076C137.238 40.5326 138.38 40.4064 139.068 40.017C139.08 39.9959 139.093 39.9754 139.104 39.9537C139.854 38.5048 138.476 30.6026 139.955 30.0973C140.314 29.9747 140.736 30.0128 141.103 30.0686C141.5 30.4814 141.297 37.3614 141.274 38.5805C141.266 39.0236 141.309 39.5416 141.129 39.9549C141.918 40.0522 142.694 40.1721 143.475 40.3235C143.681 40.7548 144.079 51.0895 143.902 51.5794C143.871 51.6663 143.833 51.7473 143.786 51.8271C144.705 51.9246 145.707 51.9577 146.502 52.4777C146.516 52.4943 146.531 52.5104 146.545 52.5273C147.389 53.5389 147.053 54.2595 148.683 54.4364C150.279 54.6099 151.94 54.4462 153.545 54.4915C153.775 54.8147 153.814 55.1023 153.837 55.4908C154.081 59.6156 153.767 63.8189 153.911 67.9598C153.929 68.4908 154.123 69.4613 154.006 69.9516C153.996 69.9974 153.963 70.0602 153.946 70.0996C154.374 70.3032 154.812 70.5136 155.186 70.8079C155.757 71.2584 156.526 72.4108 157.294 72.4112C157.351 72.3535 157.476 72.2577 157.51 72.1906C157.925 71.4017 157.854 60.9958 157.854 59.3798C157.854 58.1973 157.634 55.5625 158.106 54.5217C158.206 54.3011 158.696 54.2036 158.913 54.2048C159.181 54.2065 159.382 54.3236 159.551 54.5238C159.812 54.8338 159.861 55.3458 159.881 55.7347C159.95 57.092 159.803 58.4984 159.79 59.8621C159.766 62.356 159.814 64.858 159.818 67.3529C159.821 69.2892 159.837 71.2256 159.865 73.1619C159.875 73.9169 159.981 74.7554 159.923 75.499C159.915 75.5995 159.887 75.6724 159.852 75.7657C161.511 76.3481 163.783 76.9292 165.211 77.973C165.221 77.9492 165.233 77.9259 165.243 77.9013C165.472 77.2982 165.026 76.4792 164.94 75.8616C164.814 74.9561 164.616 71.8696 165.56 71.3686C165.677 71.3063 165.879 71.3178 166.004 71.358C166.313 71.4577 166.584 71.7232 166.783 71.9688C167.174 73.0092 166.329 75.9715 167.378 76.4414C167.838 76.6475 168.684 76.5279 169.178 76.4329C169.191 76.3998 169.204 76.3672 169.216 76.3341C169.69 75.0324 168.815 72.1491 169.999 71.3979C170.411 71.3894 170.742 71.3793 171.123 71.5527C171.549 72.1669 171.66 75.3276 171.505 76.1144C171.486 76.2047 171.455 76.2565 171.41 76.3354C172.12 76.3752 172.837 76.4384 173.548 76.4193C173.963 75.7492 173.798 72.3149 173.616 71.5315C173.606 71.4883 173.595 71.445 173.583 71.4017C174.257 71.4463 174.879 71.4878 175.526 71.7037C175.769 72.2263 175.823 75.826 175.646 76.304C175.638 76.3235 175.627 76.3413 175.618 76.36C176.256 76.3803 177.096 76.5135 177.685 76.2454C177.897 76.0045 177.978 75.9223 177.94 75.5821C177.923 75.4332 177.871 75.2792 177.828 75.1363C177.84 75.1596 177.852 75.183 177.863 75.2063C177.986 75.4629 178.044 75.6801 178.088 75.9608C178.306 76.2382 178.506 76.4902 178.884 76.5309C179.144 76.5593 179.524 76.5161 179.726 76.3349C179.753 76.3108 179.778 76.2845 179.805 76.259C181.947 76.435 184.105 76.4206 186.253 76.4329C186.306 76.3672 186.305 76.3714 186.358 76.2904C186.786 75.6343 187.165 56.8964 186.826 55.4047C189.445 53.7688 187.23 44.5844 188.332 42.2686C188.558 41.7934 189.408 41.6257 189.871 41.4688C189.875 41.4451 189.882 41.3978 189.882 41.3978C190.083 40.3073 189.257 39.1375 189.329 38.0252C189.347 37.7543 189.437 37.4889 189.655 37.312C190.064 36.9795 190.715 37.0983 191.209 37.1294C191.698 38.1021 191.51 39.4696 191.632 40.5404C191.749 41.5784 191.862 41.3754 192.543 41.931C192.556 41.9414 192.568 41.9522 192.581 41.9628C192.806 42.839 192.956 54.2701 192.746 54.7634C193.234 54.8716 193.642 55.0026 194.085 55.2368C194.127 55.3008 194.122 55.2877 194.159 55.3729C194.455 56.0617 194.193 58.8411 194.185 59.7378C194.165 63.3178 194.186 66.8976 194.248 70.4771C194.286 72.2297 194.499 74.0887 194.397 75.8311C194.387 75.9994 194.332 76.1589 194.268 76.3137C195.986 76.3405 197.748 76.3358 199.457 76.1475C200.047 76.3451 201.147 76.5152 201.741 76.3129C202.288 76.3057 202.844 76.3197 203.387 76.2421C203.988 76.3693 204.996 76.4702 205.527 76.1492C206.302 76.1733 207.166 76.2709 207.928 76.1415C208.577 76.332 209.302 76.4779 209.977 76.3485L210.115 76.2463C210.7 76.2637 211.314 76.3265 211.881 76.1619C212.524 76.3769 213.146 76.3858 213.806 76.2374L213.93 76.1305C215.663 76.1093 217.423 76.3685 219.165 76.4054C219.241 76.3006 219.306 76.1878 219.354 76.0669C219.668 75.2568 219.673 62.7428 219.363 61.9917C221.318 61.9183 223.48 61.6816 225.416 62.0036C225.781 62.669 225.792 68.294 225.54 69.1911C226.422 69.2844 227.233 69.3502 228.116 69.2284C228.744 67.8491 228.299 64.4547 228.274 62.8595C228.247 61.0806 228.054 56.6212 228.34 55.0794C228.395 54.7817 228.499 54.5471 228.712 54.3278C229.078 54.1565 229.454 54.1955 229.848 54.2065C230.036 54.3346 230.1 54.3507 230.163 54.576C230.535 55.9022 230.31 57.7956 230.306 59.1902L230.187 69.611C230.135 72.9507 230.284 76.3659 230.029 79.6954C230.01 79.9512 229.956 80.1365 229.832 80.3584C230.719 80.3885 231.61 80.3571 232.497 80.3401C232.561 80.2405 232.612 80.1378 232.644 80.0237C232.805 79.4473 232.731 75.2008 232.467 74.7202C234.799 74.7211 237.124 74.9289 239.456 74.8895C239.507 74.8123 239.55 74.7334 239.586 74.6481C239.826 74.0764 239.913 64.039 239.649 63.4452C242.567 63.3464 245.534 63.2442 248.45 63.368C248.48 63.413 248.495 63.4342 248.522 63.4851C248.668 63.7604 248.875 76.0872 248.74 76.5186C249.92 76.5339 251.106 76.5788 252.282 76.4711C252.291 76.4575 252.3 76.4444 252.308 76.4312C252.568 76.0219 252.581 75.5901 252.603 75.1223C252.695 73.2323 252.633 71.3135 252.64 69.4206L252.717 59.0706C252.73 57.8431 253.054 54.5726 252.827 53.597C254.224 53.0206 257.688 53.5491 259.361 53.4723C259.534 53.7523 259.56 53.9898 259.568 54.3121C259.786 62.4565 259.582 70.7286 259.579 78.8862C259.579 80.5547 259.779 86.7375 259.523 87.7003C259.487 87.8331 259.427 87.9548 259.355 88.0714L83.9699 88.0392L31.3467 88.0625L15.2499 88.0617C12.3941 88.0604 9.38802 88.2398 6.55079 87.9497L1.90056 87.9081C1.82603 81.1515 1.67428 74.3317 1.94809 67.5819C3.78892 67.5666 5.64088 67.7702 7.47653 67.5645C7.5829 65.6932 7.51224 63.7977 7.50719 61.9225C7.49689 58.1082 7.45375 54.2846 7.5583 50.4719C10.4528 50.5101 13.339 50.4779 16.2332 50.4397C16.4811 58.5782 15.9904 66.782 16.4099 74.9128C17.6064 75.0023 18.8322 74.9845 20.0289 74.9196C20.2786 73.4843 20.1776 71.934 20.1772 70.4792L20.1833 64.0976L20.2475 47.9585C20.26 44.0763 20.1958 40.1743 20.4063 36.2971C22.9685 36.1174 26.8817 35.9971 29.3714 36.4074C29.6363 40.8513 29.4378 45.4102 29.4393 49.865L29.4333 74.8725C30.2347 74.917 31.0105 74.9124 31.8115 74.8627C32.2432 72.0061 31.8656 68.3746 31.8587 65.4366L31.9079 47.5216C31.9145 43.8252 31.7276 40.0021 32.0725 36.3246C34.8721 36.1532 37.8513 36.0966 40.6492 36.3078C40.929 40.0323 40.6939 43.9181 40.6773 47.6594C40.6474 53.6351 40.6676 59.6105 40.7378 65.5859C40.761 68.6732 40.6767 71.7788 40.8197 74.8623C42.0283 74.9141 43.2181 74.9476 44.4278 74.895C45.0772 69.675 44.1801 64.2655 44.877 59.063C46.244 58.9858 47.5936 59.0782 48.9551 59.1864C50.2237 61.9692 51.5946 64.7189 52.5387 67.6319C54.8155 67.8758 61.2935 67.7923 63.3875 67.3461C63.4311 64.9615 62.8547 58.2448 63.5605 56.449C63.9511 55.4544 65.2927 55.0756 66.2 54.6875C66.6835 52.3573 66.1147 49.9816 66.44 47.6505C66.5694 46.7267 67.4554 46.0116 67.6501 45.0891C68.0361 43.2649 67.7706 41.3103 67.9699 39.4556C68.0882 38.3513 68.7978 37.4289 69.0078 36.3547C69.1923 35.4119 68.8805 34.3353 68.9497 33.3607C68.9764 32.9853 69.0472 32.7807 69.3284 32.5402C69.887 32.4458 70.4634 32.662 71.0004 32.806C71.1344 34.0738 70.8723 35.4781 71.1934 36.6952C71.3779 37.3931 71.7787 37.6074 72.3577 37.9532C72.5087 40.6543 72.2589 43.3713 72.3734 46.0778C73.3943 46.1486 74.3991 46.2322 75.4111 46.3951C75.3958 49.1456 74.9814 52.2207 75.4582 54.925C76.1067 55.342 76.8388 55.6015 77.5509 55.8878C78.5353 58.6528 77.975 63.2896 77.9801 66.3226C79.8061 66.4532 81.6541 66.3544 83.4821 66.3196C85.3352 66.2844 87.2112 66.3073 89.0566 66.125C89.3056 64.098 89.5609 60.8291 91.3055 59.4833C92.3616 58.6681 93.6043 58.9395 94.8186 59.1062C95.0689 60.086 95.0494 61.1519 95.3514 62.1117C95.6186 62.9604 96.2357 63.6522 96.4109 64.5437C96.9321 67.1993 96.7739 70.4695 96.8872 73.2005C97.4699 73.2722 98.4523 73.4953 98.9481 73.1394C99.5427 72.007 99.1843 69.9363 99.2933 68.6554C99.4011 67.3893 100.051 66.1941 100.193 64.9293C100.59 61.3741 100.413 57.5763 100.388 53.994C99.6937 53.5745 98.9965 53.2454 98.2483 52.9341C98.1988 52.7732 98.1559 52.6105 98.1197 52.4459C97.8962 51.4186 97.4784 49.5011 98.0799 48.5934C98.5935 47.8185 99.4821 47.7455 100.323 47.564L100.39 46.3997L100.539 45.7499L100.643 46.3162L100.718 46.2436C100.92 44.7256 100.73 43.1751 100.744 41.6482L100.78 29.1766Z" fill="white"/>
<path d="M41.7322 110.586L41.7745 105.57C41.8091 101.999 42.1095 99.6963 44.7768 97.0199C45.9322 95.8612 48.5284 96.1042 50.0693 96.1263C51.2972 96.1437 52.5306 96.2124 53.7559 96.2896L53.9417 105.326C53.9697 106.809 53.8811 108.346 54.0354 109.819C54.0723 110.172 54.1012 110.58 54.3608 110.849C54.5983 111.094 55.0517 111.259 55.3613 111.398C55.1335 112.998 55.0975 114.6 55.0784 116.214H53.3271H42.1285H40.4403C40.4284 114.648 40.3832 113.075 40.4075 111.51C40.8363 111.18 41.2551 110.845 41.7322 110.586Z" fill="white"/>
<path d="M42.129 116.214C42.1446 115.301 41.9647 113.478 42.4877 112.731C43.7644 112.108 51.628 112.305 53.3395 112.518L53.3276 116.214H42.129Z" fill="#232324"/>
<path d="M47.7616 97.9968C49.062 97.9404 50.3501 98.0753 51.6353 98.264C52.1086 101.814 51.8113 106.794 51.7612 110.455L48.0457 110.582C46.643 110.596 45.2409 110.57 43.8395 110.504C43.613 107.46 43.325 102.145 45.1624 99.6065C45.8758 98.6208 46.5884 98.1877 47.7616 97.9968Z" fill="#232324"/>
<path d="M227.813 96.2464C229.906 96.1819 234.828 95.8396 236.386 97.2032C238.183 98.7772 237 101.51 236.924 103.504C236.883 104.571 237.162 105.71 237.22 106.783C237.299 108.273 237.024 110.234 235.971 111.37C235.191 112.213 234.447 112.293 233.371 112.332C231.026 112.673 226.261 112.425 223.849 112.144C224.171 111.552 223.887 101.683 223.902 100.345C223.914 99.2523 224.296 97.4615 224.021 96.4461C225.285 96.3718 226.549 96.3052 227.813 96.2464Z" fill="white"/>
<path d="M228.325 105.121C230.36 105.08 233.33 104.836 235.212 105.651C235.552 106.005 235.652 106.717 235.708 107.199C235.8 107.995 235.601 108.754 235.095 109.383C234.352 110.305 233.553 110.389 232.451 110.498C230.166 110.774 227.881 110.6 225.605 110.334C225.624 110.299 225.663 110.23 225.675 110.187C225.714 110.052 225.845 106.165 225.82 105.756C225.81 105.6 225.745 105.458 225.67 105.323C226.553 105.222 227.437 105.171 228.325 105.121Z" fill="#232324"/>
<path d="M227.618 98.1482C229.36 98.057 233.678 97.7673 234.998 98.8697C235.401 99.2052 235.605 99.6789 235.641 100.196C235.699 101.045 235.374 102.414 234.825 103.067C234.363 103.205 233.797 103.169 233.315 103.186C231.303 103.532 227.76 103.287 225.628 103.252C225.663 103.192 225.696 103.128 225.716 103.061C225.835 102.661 225.853 98.7276 225.716 98.4205L227.618 98.1482Z" fill="#232324"/>
<path d="M79.383 96.3718C83.7457 96.2691 88.203 96.1775 92.5598 96.4244C92.7732 99.675 92.7876 103.141 92.5709 106.388C90.9235 106.642 89.2753 106.6 87.6135 106.592C85.4826 106.576 83.3517 106.578 81.2233 106.701C81.1512 107.605 81.3166 110.381 81.066 111.025C80.982 111.241 80.8569 111.34 80.6486 111.428C80.3229 111.565 79.7371 111.578 79.4042 111.451C78.9143 110.689 79.0263 98.1328 79.383 96.3718Z" fill="white"/>
<path d="M83.6687 98.1415C85.4246 98.1348 87.2217 98.0465 88.9734 98.1394C89.4383 98.164 90.0003 98.2866 90.3125 98.6641C91.0746 99.587 90.7324 103.409 90.6132 104.659C89.9316 104.757 89.2428 104.763 88.5557 104.783C86.0876 104.782 83.6123 104.818 81.1454 104.728C81.0415 102.619 80.9686 100.359 81.2757 98.2667L83.6687 98.1415Z" fill="#232324"/>
<path d="M251.381 96.2463C252.774 96.2598 254.146 96.2361 255.5 96.6127C255.513 96.6272 255.527 96.6407 255.54 96.6556C256.315 97.5505 255.977 107.939 255.836 109.805C255.8 110.286 255.783 111.052 255.372 111.363C255.116 111.556 254.797 111.564 254.494 111.538C253.146 110.703 254.538 108.105 253.782 106.866C253.77 106.846 253.756 106.827 253.743 106.807C251.624 106.408 249.176 106.608 247.017 106.628L244.353 106.781C244.739 107.453 244.421 109.952 244.232 110.729C244.151 111.062 243.972 111.319 243.669 111.479C243.389 111.628 243.034 111.591 242.747 111.496C242.569 111.228 242.567 110.903 242.561 110.59C242.539 109.451 242.656 108.3 242.662 107.158C242.678 103.829 242.518 100.831 244.987 98.2567C246.849 96.3154 248.857 96.2895 251.381 96.2463Z" fill="white"/>
<path d="M248.454 98.2746C249.969 98.0605 252.199 97.9981 253.633 98.628C253.885 98.8969 253.975 99.2307 254.041 99.5835C254.257 100.744 254.502 103.672 253.821 104.656C252.524 104.717 251.21 104.691 249.911 104.707C248.043 104.76 246.149 104.76 244.284 104.661C244.696 103.922 244.369 102.724 244.722 101.832C245.371 100.195 246.88 98.955 248.454 98.2746Z" fill="#232324"/>
<path d="M139.203 96.2463L142.084 96.295C142.313 96.6013 142.338 97.0029 142.377 97.3707C142.558 99.0562 142.951 110.816 142.226 111.631C142.107 111.764 141.964 111.737 141.796 111.753C140.458 111.061 141.218 107.939 140.487 106.805C140.475 106.785 140.46 106.766 140.446 106.746L132.418 106.728L131.02 106.852C131.049 106.924 131.075 106.997 131.097 107.072C131.273 107.635 131.351 110.586 131.088 111.055C130.976 111.256 130.785 111.409 130.558 111.468C130.269 111.542 129.944 111.589 129.674 111.437C129.063 110.51 129.151 106.794 129.132 105.521C129.091 102.651 129.534 100.686 131.589 98.5816C133.906 96.2085 136.074 96.2743 139.203 96.2463Z" fill="white"/>
<path d="M135.794 98.2746C137.252 98.0876 138.964 98.124 140.411 98.3781C140.646 98.6449 140.688 98.9923 140.735 99.3324C140.906 100.567 141.229 103.744 140.455 104.762C138.893 104.941 137.166 104.795 135.586 104.794C133.95 104.795 132.348 104.755 130.724 104.537C131.143 103.985 131.139 102.927 131.464 102.243C132.346 100.383 133.86 98.9681 135.794 98.2746Z" fill="#232324"/>
<path d="M33.6979 95.3995C33.7508 95.3978 33.8037 95.3961 33.8565 95.3966C34.2702 95.3999 34.7378 95.4309 35.0386 95.7418C35.3109 97.1092 35.1116 98.7969 35.1337 100.21C35.1858 103.548 35.4776 107.945 35.1941 111.154C35.025 111.363 34.9702 111.422 34.7117 111.502C34.2771 111.637 33.7567 111.648 33.3593 111.436C32.6938 110.321 33.4019 100.254 33.6298 98.4428C32.0022 100.658 30.2141 102.748 28.5621 104.944C27.0545 106.949 25.2833 110.11 23.3655 111.657C23.3073 111.678 23.2489 111.698 23.1903 111.717C22.7645 111.859 22.3245 111.987 21.9005 111.777C21.3327 110.93 21.5341 98.2778 21.7183 96.392C21.746 96.1087 21.728 96.0752 21.9507 95.8919C22.5474 95.7605 23.1284 95.8797 23.7229 95.9675C23.7939 98.3639 23.1247 107.181 23.7436 108.616C23.9658 108.586 24.0944 108.376 24.2248 108.198C25.1936 106.877 26.021 105.419 26.9512 104.065C28.3067 102.093 29.7685 100.217 31.2129 98.3108C31.9195 97.3786 32.6845 96.0921 33.6582 95.4262L33.6979 95.3995Z" fill="white"/>
<path d="M177.353 96.2463C177.938 96.228 178.529 96.2768 179.114 96.3061C179.177 96.4223 179.228 96.5309 179.263 96.659C179.407 97.1947 179.263 97.6222 179 98.09C175.504 98.3869 171.994 97.9026 168.505 98.49C168.517 98.5155 168.529 98.5401 168.539 98.5659C168.658 98.859 168.464 102.838 168.355 103.103C171.954 103.348 175.553 103.145 179.149 103.315C179.182 103.375 179.186 103.377 179.21 103.455C179.364 103.963 179.254 104.597 178.994 105.049C175.501 105.313 171.927 105.009 168.413 105.181C168.71 105.744 168.565 109.4 168.395 110.066C169.011 110.217 169.624 110.327 170.251 110.425C173.167 110.71 176.26 110.515 179.193 110.507C179.254 110.607 179.28 110.677 179.305 110.794C179.404 111.264 179.389 111.669 179.131 112.073C177.564 112.687 168.481 112.324 166.469 112.111C166.518 112.018 166.563 111.921 166.594 111.82C166.644 111.658 166.72 97.6574 166.624 96.7578C166.608 96.6021 166.546 96.4639 166.472 96.3273C170.099 96.338 173.726 96.311 177.353 96.2463Z" fill="white"/>
<path d="M63.8564 96.2463C66.8398 96.0665 69.9352 96.1386 72.9182 96.332C72.9526 96.9517 72.9034 97.5747 72.8724 98.194C69.4805 98.0782 66.0335 97.9225 62.6484 98.2241C62.4521 99.913 62.4809 101.588 62.5492 103.282C65.9487 103.483 69.4738 103.283 72.8839 103.278C72.8974 103.941 72.8427 104.598 72.7944 105.259C69.4284 105.123 66.0017 104.925 62.6404 105.231C62.4678 106.611 62.1543 108.94 62.6094 110.242C63.5167 110.968 71.3332 110.462 72.8847 110.418C72.8868 111.048 72.8164 111.671 72.7528 112.298C69.8025 112.544 63.4242 112.571 60.6075 112.141C60.3475 110.08 60.4739 107.889 60.4683 105.809C60.4603 102.714 60.1943 99.3714 60.7559 96.3277C61.7891 96.3116 62.8232 96.2739 63.8564 96.2463Z" fill="white"/>
<path d="M185.412 96.3729C187.254 96.2792 189.138 96.3602 190.983 96.3479C193.926 96.3288 196.879 96.2516 199.82 96.345C200.192 97.0512 200.181 98.7053 199.982 99.4836C199.898 99.8132 199.821 99.9285 199.534 100.099C198.613 99.9226 198.851 99.0883 198.258 98.5908C198.242 98.5772 198.224 98.5649 198.207 98.5522C195.927 97.8384 189.652 98.2142 187.118 98.5497C187.127 98.5666 187.136 98.5827 187.144 98.5997C187.19 98.699 187.222 109.803 187.126 110.067C187.835 110.231 188.543 110.343 189.264 110.444C191.606 110.609 195.032 110.728 197.35 110.333C198.539 110.13 198.374 109.599 198.983 108.733C199.366 108.556 199.469 108.576 199.876 108.612C199.997 108.751 200.057 108.798 200.094 108.986C200.259 109.812 200.218 111.397 199.754 112.108C198.272 112.451 196.393 112.301 194.867 112.309C191.595 112.328 188.334 112.389 185.071 112.1C185.081 112.079 185.09 112.057 185.101 112.036C185.573 111.05 185.282 98.883 185.412 96.3729Z" fill="white"/>
<path d="M122.182 95.9739C122.735 95.9408 123.276 95.9722 123.828 96.0066C124.029 96.591 123.997 97.226 123.965 97.8346C123.772 101.46 120.994 102.239 120.774 103.959C120.616 105.191 122.441 106.356 123.096 107.261C123.423 107.712 123.615 108.117 123.533 108.668C123.649 108.868 123.723 109.074 123.764 109.301C123.892 110.011 123.854 111.073 123.43 111.668C123.343 111.699 123.219 111.772 123.133 111.736C122.439 111.441 121.904 109.581 121.61 108.904C120.933 107.346 119.595 105.339 117.952 104.692C115.929 104.402 113.497 104.583 111.445 104.645C110.993 106.881 111.566 109.294 111.102 111.501C110.938 111.54 110.767 111.578 110.599 111.579C110.363 111.581 109.825 111.591 109.664 111.417C108.916 110.607 109.186 97.8202 109.296 95.9595L111.341 96.0566C111.28 98.2825 111.041 100.521 111.32 102.739C113.376 102.885 116.15 103.016 118.181 102.665C118.215 102.652 118.249 102.64 118.282 102.627C119.657 102.067 121.156 100.374 121.74 99.0226C122.052 98.3016 122.474 96.7132 122.182 95.9739Z" fill="white"/>
<path d="M10.4649 94.7215C11.9974 94.6986 13.5389 94.7605 15.0716 94.7885C15.4356 98.7666 15.1872 102.997 15.1671 106.999C15.1616 108.095 15.3672 109.41 15.2139 110.467C15.1645 110.808 15.014 111.089 14.7276 111.292C14.4014 111.522 14.0248 111.594 13.6397 111.516C13.3129 111.245 13.1845 111.052 13.1199 110.624C12.9799 109.694 13.1656 108.653 13.1731 107.708C13.2015 104.17 13.5107 100.415 13.1371 96.905C11.8155 96.648 9.64858 96.0817 8.41882 96.7905C7.78846 97.154 7.68989 97.8466 7.5003 98.4964C6.44664 102.257 5.00179 106.624 3.04427 109.988C2.33063 111.214 1.69704 111.365 0.393433 111.714C0.737562 109.961 1.84238 108.53 2.58343 106.927C4.37249 103.056 5.60403 99.0889 6.10953 94.8547C7.54224 94.727 9.02488 94.7597 10.4649 94.7215Z" fill="white"/>
<path d="M159.451 97.3872C159.976 97.3232 160.539 97.2858 161.021 97.5314C161.077 97.6264 161.114 97.6934 161.144 97.8008C161.315 98.4183 161.288 108.911 161.199 110.203C161.17 110.623 161.122 111.166 160.901 111.527C160.794 111.704 160.722 111.683 160.53 111.729C158.581 111.01 160.131 106.835 159.141 105.367C159.127 105.345 159.111 105.324 159.096 105.303C156.74 104.878 152.688 105.231 150.035 105.071L148.558 104.884C148.571 104.799 148.571 104.742 148.543 104.66C148.039 103.176 147.456 99.5919 147.958 98.0913C148.047 97.8266 148.209 97.601 148.466 97.486C148.782 97.3448 149.422 97.4156 149.736 97.5526C149.816 98.0468 149.905 102.204 149.84 102.767C152.833 103.486 156.058 103.285 159.113 103.154C159.751 102.284 159.368 98.6274 159.451 97.3872Z" fill="white"/>
<path d="M216.875 96.2463C217.514 96.2247 218.14 96.2663 218.776 96.3108C218.851 96.4164 218.896 96.5055 218.937 96.6285C219.107 97.1366 219.029 97.579 218.795 98.0468C216.861 98.233 214.899 98.188 212.957 98.2495C213.011 98.3484 213.068 98.4604 213.091 98.5711C213.294 99.5551 213.054 103.369 213.046 104.66C213.03 107.069 213.187 109.529 213.073 111.931C213.062 112.158 213.002 112.323 212.879 112.512C212.247 112.632 211.578 112.6 210.936 112.607C210.977 112.526 211.018 112.437 211.037 112.347C211.188 111.629 211.199 109.147 210.822 108.544C210.897 108.426 210.963 108.3 210.996 108.162C211.226 107.21 211.134 100.189 210.983 99.0066C210.95 98.7534 210.854 98.5371 210.721 98.3225C209.5 98.2216 205.943 98.5473 205.115 97.8996C204.894 97.7266 204.809 97.4776 204.791 97.2002C204.77 96.866 204.912 96.715 205.105 96.4711C205.439 96.3015 205.739 96.223 206.114 96.2077C207.183 96.164 208.289 96.332 209.364 96.3422C211.865 96.3664 214.374 96.2913 216.875 96.2463Z" fill="white"/>
</g>
<defs>
<clipPath id="clip0_1_434">
<rect width="260" height="115.367" fill="white" transform="translate(0 0.84668)"/>
</clipPath>
</defs>
</svg>
