<svg xmlns="http://www.w3.org/2000/svg">

	<symbol id="i-tel" viewBox="0 0 20 21">
		<path d="M20 15.42V18.42C20.0011 18.6985 19.9441 18.9742 19.8325 19.2293C19.7209 19.4845 19.5573 19.7136 19.3521 19.9019C19.1469 20.0901 18.9046 20.2335 18.6407 20.3227C18.3769 20.4119 18.0974 20.4451 17.82 20.42C14.7428 20.0856 11.787 19.0341 9.18999 17.35C6.77382 15.8147 4.72533 13.7662 3.18999 11.35C1.49997 8.74121 0.448237 5.771 0.119994 2.68C0.0950046 2.40347 0.127869 2.12476 0.216495 1.86163C0.30512 1.59849 0.447565 1.35669 0.63476 1.15162C0.821955 0.946555 1.0498 0.782711 1.30379 0.670524C1.55777 0.558336 1.83233 0.500263 2.10999 0.500002H5.10999C5.5953 0.495225 6.06579 0.66708 6.43376 0.983534C6.80173 1.29999 7.04207 1.73945 7.10999 2.22C7.23662 3.18007 7.47144 4.12273 7.80999 5.03C7.94454 5.38793 7.97366 5.77692 7.8939 6.15088C7.81415 6.52485 7.62886 6.86811 7.35999 7.14L6.08999 8.41C7.51355 10.9135 9.58645 12.9864 12.09 14.41L13.36 13.14C13.6319 12.8711 13.9751 12.6859 14.3491 12.6061C14.7231 12.5263 15.1121 12.5555 15.47 12.69C16.3773 13.0286 17.3199 13.2634 18.28 13.39C18.7658 13.4585 19.2094 13.7032 19.5265 14.0775C19.8437 14.4518 20.0122 14.9296 20 15.42Z" />
	</symbol>

	<symbol id="i-telegram" viewBox="0 0 19 17">
		<path d="M19 0.602225L15.9946 16.2923C15.9946 16.2923 15.5741 17.3801 14.4189 16.8584L7.48458 11.3526L7.45242 11.3364C8.38909 10.4654 15.6524 3.70266 15.9698 3.39612C16.4613 2.92136 16.1562 2.63873 15.5856 2.99736L4.85679 10.053L0.717638 8.61077C0.717638 8.61077 0.0662573 8.37083 0.00359284 7.84911C-0.0598962 7.32653 0.739076 7.0439 0.739076 7.0439L17.6131 0.188948C17.6131 0.188948 19 -0.44207 19 0.602225Z"/>
	</symbol>

	<symbol id="i-whatsapp" viewBox="0 0 40 40">
		<path d="M34.1463 5.83333C30.3833 2.08333 25.3658 0 20.0697 0C9.05923 0 0.139371 8.88889 0.139371 19.8611C0.139371 23.3333 1.11498 26.8056 2.78746 29.7222L0 40L10.5923 37.2222C13.5192 38.75 16.7247 39.5833 20.0697 39.5833C31.0801 39.5833 40 30.6944 40 19.7222C39.8606 14.5833 37.9094 9.58333 34.1463 5.83333ZM29.6864 26.9444C29.2683 28.0556 27.3171 29.1667 26.3415 29.3056C25.5052 29.4444 24.3902 29.4444 23.2753 29.1667C22.5784 28.8889 21.6028 28.6111 20.4878 28.0556C15.4704 25.9722 12.2648 20.9722 11.9861 20.5556C11.7073 20.2778 9.89547 17.9167 9.89547 15.4167C9.89547 12.9167 11.1498 11.8056 11.5679 11.25C11.9861 10.6944 12.5436 10.6944 12.9617 10.6944C13.2404 10.6944 13.6585 10.6944 13.9373 10.6944C14.216 10.6944 14.6341 10.5556 15.0523 11.5278C15.4704 12.5 16.446 15 16.5854 15.1389C16.7247 15.4167 16.7247 15.6944 16.5854 15.9722C16.446 16.25 16.3066 16.5278 16.0279 16.8056C15.7491 17.0833 15.4704 17.5 15.331 17.6389C15.0523 17.9167 14.7735 18.1944 15.0523 18.6111C15.331 19.1667 16.3066 20.6944 17.8397 22.0833C19.7909 23.75 21.324 24.3056 21.8815 24.5833C22.439 24.8611 22.7178 24.7222 22.9965 24.4444C23.2753 24.1667 24.2509 23.0556 24.5296 22.5C24.8084 21.9444 25.2265 22.0833 25.6446 22.2222C26.0627 22.3611 28.5714 23.6111 28.9895 23.8889C29.547 24.1667 29.8258 24.3056 29.9651 24.4444C30.1045 24.8611 30.1045 25.8333 29.6864 26.9444Z" fill="#48C95F"/>
	</symbol>

	<symbol id="i-right-down" viewBox="0 0 10 10">
		<path d="M8.12397 6.79843L8.10836 0.632108L9.98103 0.636821L10.0046 10L0.641461 9.97639L0.636739 8.10373L6.80315 8.11925L0.00463867 1.32081L1.32545 0L8.12397 6.79843Z"/>
	</symbol>

	<symbol id="i-down" viewBox="0 0 10 6">
		<path d="M4.63225 5.32683L4.97149 5.66606L9.55485 1.08269L8.87635 0.404209L4.94777 4.33282L0.876906 0.261948L0.222137 0.916713L4.63225 5.32683Z"/>
	</symbol>

	<symbol id="i-arrow-next" viewBox="0 0 8 14">
		<path d="M1 13L7 7L1 1" stroke-width="2" stroke-linecap="round" stroke-linejoin="round"/>
	</symbol>


</svg>