<svg width="20" height="20" viewBox="0 0 20 20" fill="none" xmlns="http://www.w3.org/2000/svg">
<path d="M9.99985 20H9.99588C8.43552 19.9994 6.88843 19.6281 5.50201 18.9237L1.22833 19.9036C0.96756 19.9632 0.694427 19.8843 0.504608 19.6944C0.314789 19.5044 0.23468 19.2297 0.292053 18.9664L1.21811 14.7236C0.422516 13.2426 0.00244141 11.6206 0.000152588 10.0122C0 10.0067 0 10.0012 0 9.99577C0.00106812 7.33049 1.04675 4.82039 2.94418 2.92798C4.83734 1.03987 7.34299 0 9.99969 0C12.6624 0.00107664 15.164 1.04187 17.0447 2.93044C18.9514 4.84531 20.0009 7.3574 20 10.0038C19.9992 12.0037 19.4043 13.9366 18.2796 15.5932C18.0359 15.9522 17.5497 16.044 17.1936 15.7984C16.8376 15.5527 16.7464 15.0627 16.9901 14.7037C17.9362 13.31 18.4367 11.6845 18.4375 10.0032C18.4383 7.77868 17.552 5.66309 15.9419 4.04614C14.3561 2.45349 12.2456 1.57588 9.99939 1.57496C5.35416 1.57496 1.57227 5.34472 1.5625 9.98162C1.5625 9.9867 1.56265 9.99162 1.56265 9.99654C1.56204 11.4318 1.96259 12.8871 2.72079 14.2051C2.81891 14.3757 2.85004 14.577 2.80792 14.7694L2.08267 18.0924L5.43579 17.3235C5.62088 17.2812 5.81497 17.3081 5.9819 17.3993C7.20703 18.0698 8.59512 18.4244 9.99619 18.425H9.99969C11.5233 18.425 13.0196 18.0098 14.3266 17.2243C14.6971 17.0014 15.1767 17.1237 15.3976 17.4973C15.6186 17.8709 15.4974 18.3541 15.1268 18.577C13.5779 19.5078 11.805 20 9.99969 20H9.99985ZM7.79343 5.99346C7.62207 5.6108 7.44171 5.59772 7.27875 5.59111H6.84036C6.68777 5.59111 6.43997 5.64863 6.23047 5.87857C6.02081 6.10851 5.42984 6.66436 5.42984 7.79498C5.42984 8.9256 6.24954 10.0182 6.36383 10.1717C6.47827 10.3249 7.94632 12.7192 10.2711 13.6403C12.2034 14.4058 12.5966 14.2535 13.0159 14.2151C13.4354 14.177 14.3694 13.6594 14.5598 13.1228C14.7505 12.5863 14.7505 12.1264 14.6933 12.0303C14.6362 11.9346 14.4836 11.8771 14.2549 11.7622C14.026 11.6473 12.905 11.0818 12.6953 11.0052C12.4857 10.9286 12.3332 10.8903 12.1806 11.1204C12.028 11.3502 11.5788 11.8816 11.4453 12.0348C11.312 12.1884 11.1784 12.2075 10.9497 12.0926C10.721 11.9772 9.99176 11.7304 9.11789 10.9477C8.43781 10.3384 7.966 9.56173 7.83249 9.33164C7.69897 9.10186 7.81815 8.97728 7.93289 8.86269C8.03558 8.7598 8.17459 8.61906 8.28903 8.48495C8.40317 8.35083 8.43582 8.25501 8.51196 8.10167C8.58826 7.94832 8.55011 7.8142 8.49304 7.69916C8.43582 7.58427 7.99667 6.4478 7.79327 5.99346" fill="#71C82F"/>
</svg>
