<svg width="1858" height="749" fill="none" xmlns="http://www.w3.org/2000/svg"><path d="M1085.5 29.819v5.507h-5.5v5.508h5.5v5.508h5.5v-5.508h5.51v-5.508H1091l.27-5.507h-5.77zM1573.5 125.819v5.507h-5.5v5.508h5.5v5.508h5.5v-5.508h5.51v-5.508H1579l.27-5.507h-5.77zM1736.5 199.819v5.507h-5.5v5.508h5.5v5.508h5.5v-5.508h5.51v-5.508H1742l.27-5.507h-5.77zM1846.5 311.819v5.507h-5.5v5.508h5.5v5.508h5.5v-5.508h5.51v-5.508H1852l.27-5.507h-5.77zM355.502 296.819v5.507H350v5.508h5.502v5.508h5.502v-5.508h5.502v-5.508h-5.502l.262-5.507h-5.764zM1756.5 457.819v5.507h-5.5v5.508h5.5v5.508h5.5v-5.508h5.51v-5.508H1762l.27-5.507h-5.77zM5.502 424.819v5.507H0v5.508h5.502v5.508h5.502v-5.508h5.502v-5.508h-5.502l.262-5.507H5.502zM203.502 332.819v5.507H198v5.508h5.502v5.508h5.502v-5.508h5.502v-5.508h-5.502l.262-5.507h-5.764zM1639.5 296.819v5.507h-5.5v5.508h5.5v5.508h5.5v-5.508h5.51v-5.508H1645l.27-5.507h-5.77zM1581.5 425.819v5.507h-5.5v5.508h5.5v5.508h5.5v-5.508h5.51v-5.508H1587l.27-5.507h-5.77zM1380.5 548.819v5.507h-5.5v5.508h5.5v5.508h5.5v-5.508h5.51v-5.508H1386l.27-5.507h-5.77zM141.502 176.819v5.507H136v5.508h5.502v5.508h5.502v-5.508h5.502v-5.508h-5.502l.262-5.507h-5.764zM1573.5 640.819v5.507h-5.5v5.508h5.5v5.508h5.5v-5.508h5.51v-5.508H1579l.27-5.507h-5.77zM784.502 705.819v5.507H779v5.508h5.502v5.508h5.502v-5.508h5.502v-5.508h-5.502l.262-5.507h-5.764zM619.502 260.819v5.507H614v5.508h5.502v5.508h5.502v-5.508h5.502v-5.508h-5.502l.262-5.507h-5.764zM477.502 530.819v5.507H472v5.508h5.502v5.508h5.502v-5.508h5.502v-5.508h-5.502l.262-5.507h-5.764zM213.502 520.819v5.507H208v5.508h5.502v5.508h5.502v-5.508h5.502v-5.508h-5.502l.262-5.507h-5.764zM296.502 424.819v5.507H291v5.508h5.502v5.508h5.502v-5.508h5.502v-5.508h-5.502l.262-5.507h-5.764z" fill="#F1F1F1"/><path d="M316.524.819L316 103.893M1679.52 39.819l-.52 103.074M318.524 602.819L318 705.893M146.524 412.819L146 515.893M79.524 205.819L79 308.893M814.524 512.819L814 615.893M1043.52 615.819l-.52 103.074M1661.52 345.819l-.52 103.074M288.641 76.982c2.882 2.885 2.882 7.606 0 10.491-2.882 2.886-7.598 2.886-10.48 0-2.881-2.885-2.881-7.606 0-10.49 2.882-2.886 7.598-2.886 10.48 0zM811.641 281.082c2.882 2.886 2.882 7.606 0 10.492-2.882 2.885-7.598 2.885-10.48 0-2.881-2.886-2.881-7.606 0-10.492 2.882-2.885 7.598-2.885 10.48 0zM971.641 49.982c2.882 2.885 2.882 7.606 0 10.491-2.882 2.886-7.598 2.886-10.48 0-2.881-2.885-2.881-7.606 0-10.49 2.882-2.886 7.598-2.886 10.48 0zM1726.64 395.982c2.88 2.885 2.88 7.606 0 10.491s-7.6 2.885-10.48 0c-2.88-2.885-2.88-7.606 0-10.491s7.6-2.885 10.48 0zM1552.64 190.982c2.88 2.885 2.88 7.606 0 10.491s-7.6 2.885-10.48 0c-2.88-2.885-2.88-7.606 0-10.491s7.6-2.885 10.48 0zM1840.64 140.982c2.88 2.885 2.88 7.606 0 10.491s-7.6 2.885-10.48 0c-2.88-2.885-2.88-7.606 0-10.491s7.6-2.885 10.48 0zM925.641 583.982c2.882 2.885 2.882 7.606 0 10.491s-7.598 2.885-10.48 0c-2.881-2.885-2.881-7.606 0-10.491 2.882-2.885 7.598-2.885 10.48 0zM1573.64 547.982c2.88 2.885 2.88 7.606 0 10.491s-7.6 2.885-10.48 0c-2.88-2.885-2.88-7.606 0-10.491s7.6-2.885 10.48 0zM103.641 569.982c2.882 2.885 2.882 7.606 0 10.491s-7.598 2.885-10.48 0c-2.882-2.885-2.882-7.606 0-10.491s7.598-2.885 10.48 0zM459.641 718.982c2.882 2.885 2.882 7.606 0 10.491s-7.598 2.885-10.48 0c-2.881-2.885-2.881-7.606 0-10.491 2.882-2.885 7.598-2.885 10.48 0zM1756.64 734.982c2.88 2.885 2.88 7.606 0 10.491s-7.6 2.885-10.48 0c-2.88-2.885-2.88-7.606 0-10.491s7.6-2.885 10.48 0zM691.641 530.082c2.882 2.886 2.882 7.606 0 10.492-2.882 2.885-7.598 2.885-10.48 0-2.881-2.886-2.881-7.606 0-10.492 2.882-2.885 7.598-2.885 10.48 0zM259.641 680.982c2.882 2.885 2.882 7.606 0 10.491s-7.598 2.885-10.48 0c-2.881-2.885-2.881-7.606 0-10.491 2.882-2.885 7.598-2.885 10.48 0zM267.641 236.982c2.882 2.885 2.882 7.606 0 10.491s-7.598 2.885-10.48 0c-2.881-2.885-2.881-7.606 0-10.491 2.882-2.885 7.598-2.885 10.48 0zM85.641 62.982c2.882 2.885 2.882 7.606 0 10.491-2.882 2.886-7.598 2.886-10.48 0-2.882-2.885-2.882-7.606 0-10.49 2.882-2.886 7.598-2.886 10.48 0z" stroke="#E6E7E8" stroke-miterlimit="10"/><path d="M267.502 138.819v5.507H262v5.508h5.502v5.508h5.502v-5.508h5.502v-5.508h-5.502l.262-5.507h-5.764zM168.502 68.819v5.507H163v5.508h5.502v5.508h5.502v-5.508h5.502v-5.508h-5.502l.262-5.507h-5.764zM1824.5 588.819v5.507h-5.5v5.508h5.5v5.508h5.5v-5.508h5.51v-5.508H1830l.27-5.507h-5.77z" fill="#F1F1F1"/><path d="M32.641 52.982c2.882 2.885 2.882 7.606 0 10.491-2.882 2.886-7.598 2.886-10.48 0-2.882-2.885-2.882-7.606 0-10.49 2.882-2.886 7.598-2.886 10.48 0z" stroke="#E6E7E8" stroke-miterlimit="10"/></svg>