<svg width="1858" height="749" fill="none" xmlns="http://www.w3.org/2000/svg"><path d="M1085.5 29.8v5.5h-5.5v5.5h5.5v5.5h5.5v-5.5h5.5v-5.5h-5.5l.3-5.5h-5.8zm488 96v5.5h-5.5v5.5h5.5v5.5h5.5v-5.5h5.5v-5.5h-5.5l.3-5.5h-5.8zm163 74v5.5h-5.5v5.5h5.5v5.5h5.5v-5.5h5.5v-5.5h-5.5l.3-5.5h-5.8zm110 112v5.5h-5.5v5.5h5.5v5.5h5.5v-5.5h5.5v-5.5h-5.5l.3-5.5h-5.8zm-1491-15v5.5H350v5.5h5.5v5.5h5.5v-5.5h5.5v-5.5H361l.3-5.5h-5.8zm1401 161v5.5h-5.5v5.5h5.5v5.5h5.5v-5.5h5.5v-5.5h-5.5l.3-5.5h-5.8zm-1751-33v5.5H0v5.5h5.5v5.5H11v-5.5h5.5v-5.5H11l.3-5.5H5.5zm198-92v5.5H198v5.5h5.5v5.5h5.5v-5.5h5.5v-5.5H209l.3-5.5h-5.8zm1436-36v5.5h-5.5v5.5h5.5v5.5h5.5v-5.5h5.5v-5.5h-5.5l.3-5.5h-5.8zm-58 129v5.5h-5.5v5.5h5.5v5.5h5.5v-5.5h5.5v-5.5h-5.5l.3-5.5h-5.8zm-201 123v5.5h-5.5v5.5h5.5v5.5h5.5v-5.5h5.5v-5.5h-5.5l.3-5.5h-5.8zm-1239-372v5.5H136v5.5h5.5v5.5h5.5v-5.5h5.5v-5.5H147l.3-5.5h-5.8zm1432 464v5.5h-5.5v5.5h5.5v5.5h5.5v-5.5h5.5v-5.5h-5.5l.3-5.5h-5.8zm-789 65v5.5H779v5.5h5.5v5.5h5.5v-5.5h5.5v-5.5H790l.3-5.5h-5.8zm-165-445v5.5H614v5.5h5.5v5.5h5.5v-5.5h5.5v-5.5H625l.3-5.5h-5.8zm-142 270v5.5H472v5.5h5.5v5.5h5.5v-5.5h5.5v-5.5H483l.3-5.5h-5.8zm-264-10v5.5H208v5.5h5.5v5.5h5.5v-5.5h5.5v-5.5H219l.3-5.5h-5.8zm83-96v5.5H291v5.5h5.5v5.5h5.5v-5.5h5.5v-5.5H302l.3-5.5h-5.8z" fill="#F1F1F1"/><path d="M316.5.8l-.5 103m1363.5-64l-.5 103m-1360.5 460l-.5 103m-171.5-293l-.5 103m-66.5-310l-.5 103m735.5 204l-.5 103m229.5 0l-.5 103m618.5-373l-.5 103M288.6 77a7.4 7.4 0 1 1-10.5 10.5A7.4 7.4 0 0 1 288.7 77zm523 204a7.4 7.4 0 1 1-10.5 10.5 7.4 7.4 0 0 1 10.5-10.4zm160-231a7.4 7.4 0 1 1-10.5 10.5A7.4 7.4 0 0 1 971.7 50zm755 346c3 2.9 3 7.6 0 10.5a7.4 7.4 0 1 1 0-10.5zm-174-205c3 2.9 3 7.6 0 10.5a7.4 7.4 0 1 1 0-10.5zm288-50c3 2.9 3 7.6 0 10.5a7.4 7.4 0 1 1 0-10.5zm-915 443c3 2.9 3 7.6 0 10.5a7.4 7.4 0 1 1 0-10.5zm648-36c3 2.9 3 7.6 0 10.5a7.4 7.4 0 1 1 0-10.5zm-1470 22c3 2.9 3 7.6 0 10.5a7.4 7.4 0 1 1 0-10.5zm356 149c3 2.9 3 7.6 0 10.5a7.4 7.4 0 1 1 0-10.5zm1297 16c3 2.9 3 7.6 0 10.5a7.4 7.4 0 1 1 0-10.5zm-1065-205a7.4 7.4 0 1 1-10.5 10.5 7.4 7.4 0 0 1 10.5-10.4zm-432 151c3 2.9 3 7.6 0 10.5a7.4 7.4 0 1 1 0-10.5zm8-444c3 2.9 3 7.6 0 10.5a7.4 7.4 0 1 1 0-10.5zM85.6 63a7.4 7.4 0 1 1-10.5 10.5A7.4 7.4 0 0 1 85.7 63z" stroke="#E6E7E8" stroke-miterlimit="10"/><path d="M267.5 138.8v5.5H262v5.5h5.5v5.5h5.5v-5.5h5.5v-5.5H273l.3-5.5h-5.8zm-99-70v5.5H163v5.5h5.5v5.5h5.5v-5.5h5.5v-5.5H174l.3-5.5h-5.8zm1656 520v5.5h-5.5v5.5h5.5v5.5h5.5v-5.5h5.5v-5.5h-5.5l.3-5.5h-5.8z" fill="#F1F1F1"/><path d="M32.6 53a7.4 7.4 0 1 1-10.5 10.5A7.4 7.4 0 0 1 32.7 53z" stroke="#E6E7E8" stroke-miterlimit="10"/></svg>