<svg width="750" height="640" fill="none" xmlns="http://www.w3.org/2000/svg"><mask id="a" maskUnits="userSpaceOnUse" x="0" y="0" width="750" height="640"><path fill="url(#paint0_linear)" d="M0 0h750v640H0z"/></mask><g opacity=".5" mask="url(#a)"><rect opacity=".1" x="234.63" y="66" width="30.557" height="30.557" rx="7" fill="#246EDE"/><rect x="230.5" y="71.13" width="29.557" height="29.557" rx="6.5" fill="#fff" stroke="#246EDE"/><mask id="b" fill="#fff"><path fill-rule="evenodd" clip-rule="evenodd" d="M234.752 75.382a3.183 3.183 0 0 0 0 4.501l6.025 6.026-5.724 5.724a3.183 3.183 0 1 0 4.502 4.501l5.724-5.724 5.679 5.679a3.182 3.182 0 1 0 4.501-4.502l-5.679-5.678 5.98-5.98a3.183 3.183 0 0 0-4.501-4.502l-5.98 5.98-6.025-6.025a3.184 3.184 0 0 0-4.502 0z"/></mask><path fill-rule="evenodd" clip-rule="evenodd" d="M234.752 75.382a3.183 3.183 0 0 0 0 4.501l6.025 6.026-5.724 5.724a3.183 3.183 0 1 0 4.502 4.501l5.724-5.724 5.679 5.679a3.182 3.182 0 1 0 4.501-4.502l-5.679-5.678 5.98-5.98a3.183 3.183 0 0 0-4.501-4.502l-5.98 5.98-6.025-6.025a3.184 3.184 0 0 0-4.502 0z" fill="#fff"/><path d="M234.752 79.883l.707-.707-.707.707zm0-4.501l-.707-.707.707.707zm6.025 10.527l.707.707.707-.707-.707-.708-.707.708zm-5.724 5.724l.707.707-.707-.707zm0 4.501l.707-.707-.707.707zm10.226-5.724l.707-.707-.707-.707-.707.707.707.707zm10.18 1.177l.707-.707-.707.707zm-5.679-5.678l-.707-.708-.707.708.707.707.707-.707zm5.98-5.98l.707.707-.707-.707zm0-4.502l.707-.707-.707.707zm-4.501 0l.707.707-.707-.707zm-5.98 5.98l-.707.707.707.707.707-.707-.707-.707zm-6.025-6.025l-.707.707.707-.707zm-3.795 3.794a2.184 2.184 0 0 1 0-3.087l-1.414-1.414a4.182 4.182 0 0 0 0 5.916l1.414-1.415zm6.025 6.025l-6.025-6.025-1.414 1.415 6.025 6.025 1.414-1.415zm-5.724 7.139l5.724-5.724-1.414-1.415-5.724 5.725 1.414 1.414zm0 3.087a2.184 2.184 0 0 1 0-3.087l-1.414-1.415a4.184 4.184 0 0 0 0 5.916l1.414-1.414zm3.088 0a2.184 2.184 0 0 1-3.088 0l-1.414 1.414a4.183 4.183 0 0 0 5.916 0l-1.414-1.414zm5.724-5.724l-5.724 5.724 1.414 1.414 5.724-5.724-1.414-1.414zm7.093 5.679l-5.679-5.679-1.414 1.414 5.678 5.68 1.415-1.415zm3.087 0a2.183 2.183 0 0 1-3.087 0l-1.415 1.414a4.184 4.184 0 0 0 5.916 0l-1.414-1.414zm0-3.088a2.182 2.182 0 0 1 0 3.088l1.414 1.414a4.182 4.182 0 0 0 0-5.916l-1.414 1.415zm-5.679-5.678l5.679 5.678 1.414-1.414-5.679-5.678-1.414 1.414zm5.98-7.394l-5.98 5.98 1.414 1.414 5.98-5.98-1.414-1.414zm0-3.088a2.182 2.182 0 0 1 0 3.088l1.414 1.414a4.182 4.182 0 0 0 0-5.916l-1.414 1.414zm-3.087 0a2.183 2.183 0 0 1 3.087 0l1.414-1.414a4.182 4.182 0 0 0-5.915 0l1.414 1.414zm-5.98 5.98l5.98-5.98-1.414-1.414-5.98 5.98 1.414 1.414zm-7.439-6.025l6.025 6.025 1.414-1.414-6.025-6.025-1.414 1.414zm-3.088 0a2.184 2.184 0 0 1 3.088 0l1.414-1.414a4.183 4.183 0 0 0-5.916 0l1.414 1.414z" fill="#246EDE" mask="url(#b)"/><rect opacity=".1" x="101.63" y="286" width="30.557" height="30.557" rx="7" fill="#246EDE"/><rect x="97.5" y="291.13" width="29.557" height="29.557" rx="6.5" fill="#fff" stroke="#246EDE"/><mask id="c" fill="#fff"><path fill-rule="evenodd" clip-rule="evenodd" d="M101.752 295.382a3.183 3.183 0 0 0 0 4.501l6.025 6.026-5.724 5.724a3.183 3.183 0 1 0 4.502 4.501l5.724-5.724 5.679 5.679a3.183 3.183 0 1 0 4.501-4.502l-5.679-5.678 5.98-5.98a3.184 3.184 0 0 0-4.501-4.502l-5.98 5.98-6.025-6.025a3.184 3.184 0 0 0-4.502 0z"/></mask><path fill-rule="evenodd" clip-rule="evenodd" d="M101.752 295.382a3.183 3.183 0 0 0 0 4.501l6.025 6.026-5.724 5.724a3.183 3.183 0 1 0 4.502 4.501l5.724-5.724 5.679 5.679a3.183 3.183 0 1 0 4.501-4.502l-5.679-5.678 5.98-5.98a3.184 3.184 0 0 0-4.501-4.502l-5.98 5.98-6.025-6.025a3.184 3.184 0 0 0-4.502 0z" fill="#fff"/><path d="M101.752 299.883l.707-.707-.707.707zm0-4.501l-.707-.707.707.707zm6.025 10.527l.707.707.708-.707-.708-.707-.707.707zm-5.724 5.724l.707.707-.707-.707zm0 4.501l.707-.707-.707.707zm10.226-5.724l.707-.707-.707-.707-.707.707.707.707zm10.18 1.177l.707-.707-.707.707zm-5.679-5.678l-.707-.707-.707.707.707.707.707-.707zm5.98-5.98l.707.707-.707-.707zm0-4.502l.707-.707-.707.707zm-4.501 0l.707.707-.707-.707zm-5.98 5.98l-.707.707.707.707.707-.707-.707-.707zm-6.025-6.025l-.707.707.707-.707zm-3.795 3.794a2.184 2.184 0 0 1 0-3.087l-1.414-1.414a4.183 4.183 0 0 0 0 5.916l1.414-1.415zm6.025 6.026l-6.025-6.026-1.414 1.415 6.025 6.025 1.414-1.414zm-5.724 7.138l5.724-5.724-1.414-1.414-5.724 5.724 1.414 1.414zm0 3.087a2.184 2.184 0 0 1 0-3.087l-1.414-1.414a4.183 4.183 0 0 0 0 5.915l1.414-1.414zm3.088 0a2.183 2.183 0 0 1-3.088 0l-1.414 1.414a4.183 4.183 0 0 0 5.916 0l-1.414-1.414zm5.724-5.724l-5.724 5.724 1.414 1.414 5.724-5.724-1.414-1.414zm7.093 5.679l-5.679-5.679-1.414 1.414 5.679 5.679 1.414-1.414zm3.087 0a2.184 2.184 0 0 1-3.087 0l-1.414 1.414a4.181 4.181 0 0 0 5.915 0l-1.414-1.414zm0-3.087a2.182 2.182 0 0 1 0 3.087l1.414 1.414a4.183 4.183 0 0 0 0-5.916l-1.414 1.415zm-5.679-5.679l5.679 5.679 1.414-1.415-5.679-5.678-1.414 1.414zm5.98-7.394l-5.98 5.98 1.414 1.414 5.98-5.98-1.414-1.414zm0-3.088a2.183 2.183 0 0 1 0 3.088l1.414 1.414a4.183 4.183 0 0 0 0-5.916l-1.414 1.414zm-3.087 0a2.184 2.184 0 0 1 3.087 0l1.414-1.414a4.181 4.181 0 0 0-5.915 0l1.414 1.414zm-5.98 5.98l5.98-5.98-1.414-1.414-5.98 5.98 1.414 1.414zm-7.439-6.025l6.025 6.025 1.414-1.414-6.025-6.025-1.414 1.414zm-3.088 0a2.183 2.183 0 0 1 3.088 0l1.414-1.414a4.183 4.183 0 0 0-5.916 0l1.414 1.414z" fill="#246EDE" mask="url(#c)"/><rect opacity=".1" x="326.63" y="345" width="30.557" height="30.557" rx="7" fill="#246EDE"/><rect x="322.5" y="350.13" width="29.557" height="29.557" rx="6.5" fill="#fff" stroke="#246EDE"/><mask id="d" fill="#fff"><path fill-rule="evenodd" clip-rule="evenodd" d="M326.752 354.382a3.183 3.183 0 0 0 0 4.501l6.025 6.026-5.724 5.724a3.183 3.183 0 1 0 4.502 4.501l5.724-5.724 5.679 5.679a3.183 3.183 0 1 0 4.501-4.502l-5.679-5.678 5.98-5.98a3.184 3.184 0 0 0-4.501-4.502l-5.98 5.98-6.025-6.025a3.184 3.184 0 0 0-4.502 0z"/></mask><path fill-rule="evenodd" clip-rule="evenodd" d="M326.752 354.382a3.183 3.183 0 0 0 0 4.501l6.025 6.026-5.724 5.724a3.183 3.183 0 1 0 4.502 4.501l5.724-5.724 5.679 5.679a3.183 3.183 0 1 0 4.501-4.502l-5.679-5.678 5.98-5.98a3.184 3.184 0 0 0-4.501-4.502l-5.98 5.98-6.025-6.025a3.184 3.184 0 0 0-4.502 0z" fill="#fff"/><path d="M326.752 358.883l.707-.707-.707.707zm0-4.501l-.707-.707.707.707zm6.025 10.527l.707.707.708-.707-.708-.707-.707.707zm-5.724 5.724l.707.707-.707-.707zm0 4.501l.707-.707-.707.707zm10.226-5.724l.707-.707-.707-.707-.707.707.707.707zm10.18 1.177l.707-.707-.707.707zm-5.679-5.678l-.707-.707-.707.707.707.707.707-.707zm5.98-5.98l.707.707-.707-.707zm0-4.502l.707-.707-.707.707zm-4.501 0l.707.707-.707-.707zm-5.98 5.98l-.707.707.707.707.707-.707-.707-.707zm-6.025-6.025l-.707.707.707-.707zm-3.795 3.794a2.184 2.184 0 0 1 0-3.087l-1.414-1.414a4.183 4.183 0 0 0 0 5.916l1.414-1.415zm6.025 6.026l-6.025-6.026-1.414 1.415 6.025 6.025 1.414-1.414zm-5.724 7.138l5.724-5.724-1.414-1.414-5.724 5.724 1.414 1.414zm0 3.087a2.184 2.184 0 0 1 0-3.087l-1.414-1.414a4.183 4.183 0 0 0 0 5.915l1.414-1.414zm3.088 0a2.183 2.183 0 0 1-3.088 0l-1.414 1.414a4.183 4.183 0 0 0 5.916 0l-1.414-1.414zm5.724-5.724l-5.724 5.724 1.414 1.414 5.724-5.724-1.414-1.414zm7.093 5.679l-5.679-5.679-1.414 1.414 5.679 5.679 1.414-1.414zm3.087 0a2.184 2.184 0 0 1-3.087 0l-1.414 1.414a4.181 4.181 0 0 0 5.915 0l-1.414-1.414zm0-3.087a2.182 2.182 0 0 1 0 3.087l1.414 1.414a4.183 4.183 0 0 0 0-5.916l-1.414 1.415zm-5.679-5.679l5.679 5.679 1.414-1.415-5.679-5.678-1.414 1.414zm5.98-7.394l-5.98 5.98 1.414 1.414 5.98-5.98-1.414-1.414zm0-3.088a2.183 2.183 0 0 1 0 3.088l1.414 1.414a4.183 4.183 0 0 0 0-5.916l-1.414 1.414zm-3.087 0a2.184 2.184 0 0 1 3.087 0l1.414-1.414a4.181 4.181 0 0 0-5.915 0l1.414 1.414zm-5.98 5.98l5.98-5.98-1.414-1.414-5.98 5.98 1.414 1.414zm-7.439-6.025l6.025 6.025 1.414-1.414-6.025-6.025-1.414 1.414zm-3.088 0a2.183 2.183 0 0 1 3.088 0l1.414-1.414a4.183 4.183 0 0 0-5.916 0l1.414 1.414z" fill="#246EDE" mask="url(#d)"/><rect opacity=".1" x="325.63" y="401" width="30.557" height="30.557" rx="7" fill="#246EDE"/><rect x="321.5" y="406.13" width="29.557" height="29.557" rx="6.5" fill="#fff" stroke="#246EDE"/><mask id="e" fill="#fff"><path fill-rule="evenodd" clip-rule="evenodd" d="M325.752 410.382a3.183 3.183 0 0 0 0 4.501l6.025 6.026-5.724 5.724a3.183 3.183 0 1 0 4.502 4.501l5.724-5.724 5.679 5.679a3.183 3.183 0 1 0 4.501-4.502l-5.679-5.678 5.98-5.98a3.184 3.184 0 0 0-4.501-4.502l-5.98 5.98-6.025-6.025a3.184 3.184 0 0 0-4.502 0z"/></mask><path fill-rule="evenodd" clip-rule="evenodd" d="M325.752 410.382a3.183 3.183 0 0 0 0 4.501l6.025 6.026-5.724 5.724a3.183 3.183 0 1 0 4.502 4.501l5.724-5.724 5.679 5.679a3.183 3.183 0 1 0 4.501-4.502l-5.679-5.678 5.98-5.98a3.184 3.184 0 0 0-4.501-4.502l-5.98 5.98-6.025-6.025a3.184 3.184 0 0 0-4.502 0z" fill="#fff"/><path d="M325.752 414.883l.707-.707-.707.707zm0-4.501l-.707-.707.707.707zm6.025 10.527l.707.707.708-.707-.708-.707-.707.707zm-5.724 5.724l.707.707-.707-.707zm0 4.501l.707-.707-.707.707zm10.226-5.724l.707-.707-.707-.707-.707.707.707.707zm10.18 1.177l.707-.707-.707.707zm-5.679-5.678l-.707-.707-.707.707.707.707.707-.707zm5.98-5.98l.707.707-.707-.707zm0-4.502l.707-.707-.707.707zm-4.501 0l.707.707-.707-.707zm-5.98 5.98l-.707.707.707.707.707-.707-.707-.707zm-6.025-6.025l-.707.707.707-.707zm-3.795 3.794a2.184 2.184 0 0 1 0-3.087l-1.414-1.414a4.183 4.183 0 0 0 0 5.916l1.414-1.415zm6.025 6.026l-6.025-6.026-1.414 1.415 6.025 6.025 1.414-1.414zm-5.724 7.138l5.724-5.724-1.414-1.414-5.724 5.724 1.414 1.414zm0 3.087a2.184 2.184 0 0 1 0-3.087l-1.414-1.414a4.183 4.183 0 0 0 0 5.915l1.414-1.414zm3.088 0a2.183 2.183 0 0 1-3.088 0l-1.414 1.414a4.183 4.183 0 0 0 5.916 0l-1.414-1.414zm5.724-5.724l-5.724 5.724 1.414 1.414 5.724-5.724-1.414-1.414zm7.093 5.679l-5.679-5.679-1.414 1.414 5.679 5.679 1.414-1.414zm3.087 0a2.184 2.184 0 0 1-3.087 0l-1.414 1.414a4.181 4.181 0 0 0 5.915 0l-1.414-1.414zm0-3.087a2.182 2.182 0 0 1 0 3.087l1.414 1.414a4.183 4.183 0 0 0 0-5.916l-1.414 1.415zm-5.679-5.679l5.679 5.679 1.414-1.415-5.679-5.678-1.414 1.414zm5.98-7.394l-5.98 5.98 1.414 1.414 5.98-5.98-1.414-1.414zm0-3.088a2.183 2.183 0 0 1 0 3.088l1.414 1.414a4.183 4.183 0 0 0 0-5.916l-1.414 1.414zm-3.087 0a2.184 2.184 0 0 1 3.087 0l1.414-1.414a4.181 4.181 0 0 0-5.915 0l1.414 1.414zm-5.98 5.98l5.98-5.98-1.414-1.414-5.98 5.98 1.414 1.414zm-7.439-6.025l6.025 6.025 1.414-1.414-6.025-6.025-1.414 1.414zm-3.088 0a2.183 2.183 0 0 1 3.088 0l1.414-1.414a4.183 4.183 0 0 0-5.916 0l1.414 1.414z" fill="#246EDE" mask="url(#e)"/><rect opacity=".1" x="101.63" y="173" width="30.557" height="30.557" rx="7" fill="#246EDE"/><rect x="97.5" y="178.13" width="29.557" height="29.557" rx="6.5" fill="#fff" stroke="#246EDE"/><mask id="f" fill="#fff"><path fill-rule="evenodd" clip-rule="evenodd" d="M101.752 182.382a3.183 3.183 0 0 0 0 4.501l6.025 6.026-5.724 5.724a3.183 3.183 0 1 0 4.502 4.501l5.724-5.724 5.679 5.679a3.183 3.183 0 1 0 4.501-4.502l-5.679-5.678 5.98-5.98a3.184 3.184 0 0 0-4.501-4.502l-5.98 5.98-6.025-6.025a3.184 3.184 0 0 0-4.502 0z"/></mask><path fill-rule="evenodd" clip-rule="evenodd" d="M101.752 182.382a3.183 3.183 0 0 0 0 4.501l6.025 6.026-5.724 5.724a3.183 3.183 0 1 0 4.502 4.501l5.724-5.724 5.679 5.679a3.183 3.183 0 1 0 4.501-4.502l-5.679-5.678 5.98-5.98a3.184 3.184 0 0 0-4.501-4.502l-5.98 5.98-6.025-6.025a3.184 3.184 0 0 0-4.502 0z" fill="#fff"/><path d="M101.752 186.883l.707-.707-.707.707zm0-4.501l-.707-.707.707.707zm6.025 10.527l.707.707.708-.707-.708-.707-.707.707zm-5.724 5.724l.707.707-.707-.707zm0 4.501l.707-.707-.707.707zm10.226-5.724l.707-.707-.707-.707-.707.707.707.707zm10.18 1.177l.707-.707-.707.707zm-5.679-5.678l-.707-.707-.707.707.707.707.707-.707zm5.98-5.98l.707.707-.707-.707zm0-4.502l.707-.707-.707.707zm-4.501 0l.707.707-.707-.707zm-5.98 5.98l-.707.707.707.707.707-.707-.707-.707zm-6.025-6.025l-.707.707.707-.707zm-3.795 3.794a2.184 2.184 0 0 1 0-3.087l-1.414-1.414a4.183 4.183 0 0 0 0 5.916l1.414-1.415zm6.025 6.026l-6.025-6.026-1.414 1.415 6.025 6.025 1.414-1.414zm-5.724 7.138l5.724-5.724-1.414-1.414-5.724 5.724 1.414 1.414zm0 3.087a2.184 2.184 0 0 1 0-3.087l-1.414-1.414a4.183 4.183 0 0 0 0 5.915l1.414-1.414zm3.088 0a2.183 2.183 0 0 1-3.088 0l-1.414 1.414a4.183 4.183 0 0 0 5.916 0l-1.414-1.414zm5.724-5.724l-5.724 5.724 1.414 1.414 5.724-5.724-1.414-1.414zm7.093 5.679l-5.679-5.679-1.414 1.414 5.679 5.679 1.414-1.414zm3.087 0a2.184 2.184 0 0 1-3.087 0l-1.414 1.414a4.181 4.181 0 0 0 5.915 0l-1.414-1.414zm0-3.087a2.182 2.182 0 0 1 0 3.087l1.414 1.414a4.183 4.183 0 0 0 0-5.916l-1.414 1.415zm-5.679-5.679l5.679 5.679 1.414-1.415-5.679-5.678-1.414 1.414zm5.98-7.394l-5.98 5.98 1.414 1.414 5.98-5.98-1.414-1.414zm0-3.088a2.183 2.183 0 0 1 0 3.088l1.414 1.414a4.183 4.183 0 0 0 0-5.916l-1.414 1.414zm-3.087 0a2.184 2.184 0 0 1 3.087 0l1.414-1.414a4.181 4.181 0 0 0-5.915 0l1.414 1.414zm-5.98 5.98l5.98-5.98-1.414-1.414-5.98 5.98 1.414 1.414zm-7.439-6.025l6.025 6.025 1.414-1.414-6.025-6.025-1.414 1.414zm-3.088 0a2.183 2.183 0 0 1 3.088 0l1.414-1.414a4.183 4.183 0 0 0-5.916 0l1.414 1.414z" fill="#246EDE" mask="url(#f)"/><rect opacity=".1" x="173.63" y="173" width="30.557" height="30.557" rx="7" fill="#246EDE"/><rect x="169.5" y="178.13" width="29.557" height="29.557" rx="6.5" fill="#fff" stroke="#246EDE"/><mask id="g" fill="#fff"><path fill-rule="evenodd" clip-rule="evenodd" d="M195.447 184.932a3.183 3.183 0 0 0-4.535.034l-8.754 9.02-3.724-3.724a3.184 3.184 0 0 0-4.502 4.502l5.811 5.811c.276.276.59.49.926.644a3.184 3.184 0 0 0 3.868-.545l10.943-11.275a3.182 3.182 0 0 0-.033-4.467z"/></mask><path fill-rule="evenodd" clip-rule="evenodd" d="M195.447 184.932a3.183 3.183 0 0 0-4.535.034l-8.754 9.02-3.724-3.724a3.184 3.184 0 0 0-4.502 4.502l5.811 5.811c.276.276.59.49.926.644a3.184 3.184 0 0 0 3.868-.545l10.943-11.275a3.182 3.182 0 0 0-.033-4.467z" fill="#fff"/><path d="M190.912 184.966l-.717-.696.717.696zm4.535-.034l-.707.707.707-.707zm-13.289 9.054l-.707.707.718.718.707-.728-.718-.697zm-8.226-3.724l.707.707-.707-.707zm0 4.502l.707-.708-.707.708zm5.811 5.811l.707-.708-.707.708zm.926.644l.498-.867-.04-.023-.042-.02-.416.91zm3.868-.545l.718.697-.718-.697zm10.943-11.275l.718.697-.718-.697zm-3.85-3.736a2.183 2.183 0 0 1 3.11-.024l1.414-1.414a4.182 4.182 0 0 0-5.959.045l1.435 1.393zm-8.754 9.02l8.754-9.02-1.435-1.393-8.755 9.02 1.436 1.393zm-5.149-3.714l3.724 3.724 1.414-1.414-3.724-3.724-1.414 1.414zm-3.088 0a2.185 2.185 0 0 1 3.088 0l1.414-1.414a4.183 4.183 0 0 0-5.916 0l1.414 1.414zm0 3.087a2.184 2.184 0 0 1 0-3.087l-1.414-1.414a4.184 4.184 0 0 0 0 5.916l1.414-1.415zm5.811 5.811l-5.811-5.811-1.414 1.415 5.811 5.811 1.414-1.415zm.635.442a2.16 2.16 0 0 1-.635-.442l-1.414 1.415c.362.361.775.644 1.217.846l.832-1.819zm2.735-.331a2.186 2.186 0 0 1-2.653.374l-.997 1.734a4.187 4.187 0 0 0 5.085-.715l-1.435-1.393zm10.943-11.275l-10.943 11.275 1.435 1.393 10.943-11.275-1.435-1.393zm-.023-3.064c.843.844.853 2.208.023 3.064l1.435 1.393a4.183 4.183 0 0 0-.044-5.871l-1.414 1.414z" fill="#246EDE" mask="url(#g)"/><rect opacity=".1" x="229.63" y="371" width="30.557" height="30.557" rx="7" fill="#246EDE"/><rect x="225.5" y="376.13" width="29.557" height="29.557" rx="6.5" fill="#fff" stroke="#246EDE"/><mask id="h" fill="#fff"><path fill-rule="evenodd" clip-rule="evenodd" d="M251.447 382.932a3.183 3.183 0 0 0-4.535.034l-8.754 9.02-3.724-3.724a3.184 3.184 0 0 0-4.502 4.502l5.811 5.811c.276.276.59.49.926.644a3.184 3.184 0 0 0 3.868-.545l10.943-11.275a3.182 3.182 0 0 0-.033-4.467z"/></mask><path fill-rule="evenodd" clip-rule="evenodd" d="M251.447 382.932a3.183 3.183 0 0 0-4.535.034l-8.754 9.02-3.724-3.724a3.184 3.184 0 0 0-4.502 4.502l5.811 5.811c.276.276.59.49.926.644a3.184 3.184 0 0 0 3.868-.545l10.943-11.275a3.182 3.182 0 0 0-.033-4.467z" fill="#fff"/><path d="M246.912 382.966l-.717-.696.717.696zm4.535-.034l-.707.707.707-.707zm-13.289 9.054l-.707.707.718.718.707-.728-.718-.697zm-8.226-3.724l.707.707-.707-.707zm0 4.502l.707-.708-.707.708zm5.811 5.811l.707-.708-.707.708zm.926.644l.498-.867-.04-.023-.042-.02-.416.91zm3.868-.545l.718.697-.718-.697zm10.943-11.275l.718.697-.718-.697zm-3.85-3.736a2.183 2.183 0 0 1 3.11-.024l1.414-1.414a4.182 4.182 0 0 0-5.959.045l1.435 1.393zm-8.754 9.02l8.754-9.02-1.435-1.393-8.755 9.02 1.436 1.393zm-5.149-3.714l3.724 3.724 1.414-1.414-3.724-3.724-1.414 1.414zm-3.088 0a2.185 2.185 0 0 1 3.088 0l1.414-1.414a4.183 4.183 0 0 0-5.916 0l1.414 1.414zm0 3.087a2.184 2.184 0 0 1 0-3.087l-1.414-1.414a4.184 4.184 0 0 0 0 5.916l1.414-1.415zm5.811 5.811l-5.811-5.811-1.414 1.415 5.811 5.811 1.414-1.415zm.635.442a2.16 2.16 0 0 1-.635-.442l-1.414 1.415c.362.361.775.644 1.217.846l.832-1.819zm2.735-.331a2.186 2.186 0 0 1-2.653.374l-.997 1.734a4.187 4.187 0 0 0 5.085-.715l-1.435-1.393zm10.943-11.275l-10.943 11.275 1.435 1.393 10.943-11.275-1.435-1.393zm-.023-3.064c.843.844.853 2.208.023 3.064l1.435 1.393a4.183 4.183 0 0 0-.044-5.871l-1.414 1.414z" fill="#246EDE" mask="url(#h)"/><rect opacity=".1" x="278.63" y="473" width="30.557" height="30.557" rx="7" fill="#246EDE"/><rect x="274.5" y="478.13" width="29.557" height="29.557" rx="6.5" fill="#fff" stroke="#246EDE"/><mask id="i" fill="#fff"><path fill-rule="evenodd" clip-rule="evenodd" d="M300.447 484.932a3.183 3.183 0 0 0-4.535.034l-8.754 9.02-3.724-3.724a3.184 3.184 0 0 0-4.502 4.502l5.811 5.811c.276.276.59.49.926.644a3.184 3.184 0 0 0 3.868-.545l10.943-11.275a3.182 3.182 0 0 0-.033-4.467z"/></mask><path fill-rule="evenodd" clip-rule="evenodd" d="M300.447 484.932a3.183 3.183 0 0 0-4.535.034l-8.754 9.02-3.724-3.724a3.184 3.184 0 0 0-4.502 4.502l5.811 5.811c.276.276.59.49.926.644a3.184 3.184 0 0 0 3.868-.545l10.943-11.275a3.182 3.182 0 0 0-.033-4.467z" fill="#fff"/><path d="M295.912 484.966l-.717-.696.717.696zm4.535-.034l-.707.707.707-.707zm-13.289 9.054l-.707.707.718.718.707-.728-.718-.697zm-8.226-3.724l.707.707-.707-.707zm0 4.502l.707-.708-.707.708zm5.811 5.811l.707-.708-.707.708zm.926.644l.498-.867-.04-.023-.042-.02-.416.91zm3.868-.545l.718.697-.718-.697zm10.943-11.275l.718.697-.718-.697zm-3.85-3.736a2.183 2.183 0 0 1 3.11-.024l1.414-1.414a4.182 4.182 0 0 0-5.959.045l1.435 1.393zm-8.754 9.02l8.754-9.02-1.435-1.393-8.755 9.02 1.436 1.393zm-5.149-3.714l3.724 3.724 1.414-1.414-3.724-3.724-1.414 1.414zm-3.088 0a2.185 2.185 0 0 1 3.088 0l1.414-1.414a4.183 4.183 0 0 0-5.916 0l1.414 1.414zm0 3.087a2.184 2.184 0 0 1 0-3.087l-1.414-1.414a4.184 4.184 0 0 0 0 5.916l1.414-1.415zm5.811 5.811l-5.811-5.811-1.414 1.415 5.811 5.811 1.414-1.415zm.635.442a2.16 2.16 0 0 1-.635-.442l-1.414 1.415c.362.361.775.644 1.217.846l.832-1.819zm2.735-.331a2.186 2.186 0 0 1-2.653.374l-.997 1.734a4.187 4.187 0 0 0 5.085-.715l-1.435-1.393zm10.943-11.275l-10.943 11.275 1.435 1.393 10.943-11.275-1.435-1.393zm-.023-3.064c.843.844.853 2.208.023 3.064l1.435 1.393a4.183 4.183 0 0 0-.044-5.871l-1.414 1.414z" fill="#246EDE" mask="url(#i)"/><rect opacity=".1" x="278.63" y="172" width="30.557" height="30.557" rx="7" fill="#246EDE"/><rect x="274.5" y="177.13" width="29.557" height="29.557" rx="6.5" fill="#fff" stroke="#246EDE"/><mask id="j" fill="#fff"><path fill-rule="evenodd" clip-rule="evenodd" d="M300.447 183.932a3.183 3.183 0 0 0-4.535.034l-8.754 9.02-3.724-3.724a3.184 3.184 0 0 0-4.502 4.502l5.811 5.811c.276.276.59.49.926.644a3.184 3.184 0 0 0 3.868-.545l10.943-11.275a3.182 3.182 0 0 0-.033-4.467z"/></mask><path fill-rule="evenodd" clip-rule="evenodd" d="M300.447 183.932a3.183 3.183 0 0 0-4.535.034l-8.754 9.02-3.724-3.724a3.184 3.184 0 0 0-4.502 4.502l5.811 5.811c.276.276.59.49.926.644a3.184 3.184 0 0 0 3.868-.545l10.943-11.275a3.182 3.182 0 0 0-.033-4.467z" fill="#fff"/><path d="M295.912 183.966l-.717-.696.717.696zm4.535-.034l-.707.707.707-.707zm-13.289 9.054l-.707.707.718.718.707-.728-.718-.697zm-8.226-3.724l.707.707-.707-.707zm0 4.502l.707-.708-.707.708zm5.811 5.811l.707-.708-.707.708zm.926.644l.498-.867-.04-.023-.042-.02-.416.91zm3.868-.545l.718.697-.718-.697zm10.943-11.275l.718.697-.718-.697zm-3.85-3.736a2.183 2.183 0 0 1 3.11-.024l1.414-1.414a4.182 4.182 0 0 0-5.959.045l1.435 1.393zm-8.754 9.02l8.754-9.02-1.435-1.393-8.755 9.02 1.436 1.393zm-5.149-3.714l3.724 3.724 1.414-1.414-3.724-3.724-1.414 1.414zm-3.088 0a2.185 2.185 0 0 1 3.088 0l1.414-1.414a4.183 4.183 0 0 0-5.916 0l1.414 1.414zm0 3.087a2.184 2.184 0 0 1 0-3.087l-1.414-1.414a4.184 4.184 0 0 0 0 5.916l1.414-1.415zm5.811 5.811l-5.811-5.811-1.414 1.415 5.811 5.811 1.414-1.415zm.635.442a2.16 2.16 0 0 1-.635-.442l-1.414 1.415c.362.361.775.644 1.217.846l.832-1.819zm2.735-.331a2.186 2.186 0 0 1-2.653.374l-.997 1.734a4.187 4.187 0 0 0 5.085-.715l-1.435-1.393zm10.943-11.275l-10.943 11.275 1.435 1.393 10.943-11.275-1.435-1.393zm-.023-3.064c.843.844.853 2.208.023 3.064l1.435 1.393a4.183 4.183 0 0 0-.044-5.871l-1.414 1.414z" fill="#246EDE" mask="url(#j)"/><rect opacity=".1" x="173.63" y="286" width="30.557" height="30.557" rx="7" fill="#246EDE"/><rect x="169.5" y="291.13" width="29.557" height="29.557" rx="6.5" fill="#fff" stroke="#246EDE"/><mask id="k" fill="#fff"><path fill-rule="evenodd" clip-rule="evenodd" d="M195.447 297.932a3.183 3.183 0 0 0-4.535.034l-8.754 9.02-3.724-3.724a3.184 3.184 0 0 0-4.502 4.502l5.811 5.811c.276.276.59.49.926.644a3.184 3.184 0 0 0 3.868-.545l10.943-11.275a3.182 3.182 0 0 0-.033-4.467z"/></mask><path fill-rule="evenodd" clip-rule="evenodd" d="M195.447 297.932a3.183 3.183 0 0 0-4.535.034l-8.754 9.02-3.724-3.724a3.184 3.184 0 0 0-4.502 4.502l5.811 5.811c.276.276.59.49.926.644a3.184 3.184 0 0 0 3.868-.545l10.943-11.275a3.182 3.182 0 0 0-.033-4.467z" fill="#fff"/><path d="M190.912 297.966l-.717-.696.717.696zm4.535-.034l-.707.707.707-.707zm-13.289 9.054l-.707.707.718.718.707-.728-.718-.697zm-8.226-3.724l.707.707-.707-.707zm0 4.502l.707-.708-.707.708zm5.811 5.811l.707-.708-.707.708zm.926.644l.498-.867-.04-.023-.042-.02-.416.91zm3.868-.545l.718.697-.718-.697zm10.943-11.275l.718.697-.718-.697zm-3.85-3.736a2.183 2.183 0 0 1 3.11-.024l1.414-1.414a4.182 4.182 0 0 0-5.959.045l1.435 1.393zm-8.754 9.02l8.754-9.02-1.435-1.393-8.755 9.02 1.436 1.393zm-5.149-3.714l3.724 3.724 1.414-1.414-3.724-3.724-1.414 1.414zm-3.088 0a2.185 2.185 0 0 1 3.088 0l1.414-1.414a4.183 4.183 0 0 0-5.916 0l1.414 1.414zm0 3.087a2.184 2.184 0 0 1 0-3.087l-1.414-1.414a4.184 4.184 0 0 0 0 5.916l1.414-1.415zm5.811 5.811l-5.811-5.811-1.414 1.415 5.811 5.811 1.414-1.415zm.635.442a2.16 2.16 0 0 1-.635-.442l-1.414 1.415c.362.361.775.644 1.217.846l.832-1.819zm2.735-.331a2.186 2.186 0 0 1-2.653.374l-.997 1.734a4.187 4.187 0 0 0 5.085-.715l-1.435-1.393zm10.943-11.275l-10.943 11.275 1.435 1.393 10.943-11.275-1.435-1.393zm-.023-3.064c.843.844.853 2.208.023 3.064l1.435 1.393a4.183 4.183 0 0 0-.044-5.871l-1.414 1.414z" fill="#246EDE" mask="url(#k)"/><rect opacity=".1" x="173.63" y="531" width="30.557" height="30.557" rx="7" fill="#246EDE"/><rect x="169.5" y="536.13" width="29.557" height="29.557" rx="6.5" fill="#fff" stroke="#246EDE"/><mask id="l" fill="#fff"><path fill-rule="evenodd" clip-rule="evenodd" d="M195.447 542.932a3.183 3.183 0 0 0-4.535.034l-8.754 9.02-3.724-3.724a3.184 3.184 0 0 0-4.502 4.502l5.811 5.811c.276.276.59.49.926.644a3.184 3.184 0 0 0 3.868-.545l10.943-11.275a3.182 3.182 0 0 0-.033-4.467z"/></mask><path fill-rule="evenodd" clip-rule="evenodd" d="M195.447 542.932a3.183 3.183 0 0 0-4.535.034l-8.754 9.02-3.724-3.724a3.184 3.184 0 0 0-4.502 4.502l5.811 5.811c.276.276.59.49.926.644a3.184 3.184 0 0 0 3.868-.545l10.943-11.275a3.182 3.182 0 0 0-.033-4.467z" fill="#fff"/><path d="M190.912 542.966l-.717-.696.717.696zm4.535-.034l-.707.707.707-.707zm-13.289 9.054l-.707.707.718.718.707-.728-.718-.697zm-8.226-3.724l.707.707-.707-.707zm0 4.502l.707-.708-.707.708zm5.811 5.811l.707-.708-.707.708zm.926.644l.498-.867-.04-.023-.042-.02-.416.91zm3.868-.545l.718.697-.718-.697zm10.943-11.275l.718.697-.718-.697zm-3.85-3.736a2.183 2.183 0 0 1 3.11-.024l1.414-1.414a4.182 4.182 0 0 0-5.959.045l1.435 1.393zm-8.754 9.02l8.754-9.02-1.435-1.393-8.755 9.02 1.436 1.393zm-5.149-3.714l3.724 3.724 1.414-1.414-3.724-3.724-1.414 1.414zm-3.088 0a2.185 2.185 0 0 1 3.088 0l1.414-1.414a4.183 4.183 0 0 0-5.916 0l1.414 1.414zm0 3.087a2.184 2.184 0 0 1 0-3.087l-1.414-1.414a4.184 4.184 0 0 0 0 5.916l1.414-1.415zm5.811 5.811l-5.811-5.811-1.414 1.415 5.811 5.811 1.414-1.415zm.635.442a2.16 2.16 0 0 1-.635-.442l-1.414 1.415c.362.361.775.644 1.217.846l.832-1.819zm2.735-.331a2.186 2.186 0 0 1-2.653.374l-.997 1.734a4.187 4.187 0 0 0 5.085-.715l-1.435-1.393zm10.943-11.275l-10.943 11.275 1.435 1.393 10.943-11.275-1.435-1.393zm-.023-3.064c.843.844.853 2.208.023 3.064l1.435 1.393a4.183 4.183 0 0 0-.044-5.871l-1.414 1.414z" fill="#246EDE" mask="url(#l)"/><rect opacity=".1" x="173.63" y="419" width="30.557" height="30.557" rx="7" fill="#246EDE"/><rect x="169.5" y="424.13" width="29.557" height="29.557" rx="6.5" fill="#fff" stroke="#246EDE"/><mask id="m" fill="#fff"><path fill-rule="evenodd" clip-rule="evenodd" d="M195.447 430.932a3.183 3.183 0 0 0-4.535.034l-8.754 9.02-3.724-3.724a3.184 3.184 0 0 0-4.502 4.502l5.811 5.811c.276.276.59.49.926.644a3.184 3.184 0 0 0 3.868-.545l10.943-11.275a3.182 3.182 0 0 0-.033-4.467z"/></mask><path fill-rule="evenodd" clip-rule="evenodd" d="M195.447 430.932a3.183 3.183 0 0 0-4.535.034l-8.754 9.02-3.724-3.724a3.184 3.184 0 0 0-4.502 4.502l5.811 5.811c.276.276.59.49.926.644a3.184 3.184 0 0 0 3.868-.545l10.943-11.275a3.182 3.182 0 0 0-.033-4.467z" fill="#fff"/><path d="M190.912 430.966l-.717-.696.717.696zm4.535-.034l-.707.707.707-.707zm-13.289 9.054l-.707.707.718.718.707-.728-.718-.697zm-8.226-3.724l.707.707-.707-.707zm0 4.502l.707-.708-.707.708zm5.811 5.811l.707-.708-.707.708zm.926.644l.498-.867-.04-.023-.042-.02-.416.91zm3.868-.545l.718.697-.718-.697zm10.943-11.275l.718.697-.718-.697zm-3.85-3.736a2.183 2.183 0 0 1 3.11-.024l1.414-1.414a4.182 4.182 0 0 0-5.959.045l1.435 1.393zm-8.754 9.02l8.754-9.02-1.435-1.393-8.755 9.02 1.436 1.393zm-5.149-3.714l3.724 3.724 1.414-1.414-3.724-3.724-1.414 1.414zm-3.088 0a2.185 2.185 0 0 1 3.088 0l1.414-1.414a4.183 4.183 0 0 0-5.916 0l1.414 1.414zm0 3.087a2.184 2.184 0 0 1 0-3.087l-1.414-1.414a4.184 4.184 0 0 0 0 5.916l1.414-1.415zm5.811 5.811l-5.811-5.811-1.414 1.415 5.811 5.811 1.414-1.415zm.635.442a2.16 2.16 0 0 1-.635-.442l-1.414 1.415c.362.361.775.644 1.217.846l.832-1.819zm2.735-.331a2.186 2.186 0 0 1-2.653.374l-.997 1.734a4.187 4.187 0 0 0 5.085-.715l-1.435-1.393zm10.943-11.275l-10.943 11.275 1.435 1.393 10.943-11.275-1.435-1.393zm-.023-3.064c.843.844.853 2.208.023 3.064l1.435 1.393a4.183 4.183 0 0 0-.044-5.871l-1.414 1.414z" fill="#246EDE" mask="url(#m)"/><rect opacity=".1" x="101.63" y="419" width="30.557" height="30.557" rx="7" fill="#246EDE"/><rect x="97.5" y="424.13" width="29.557" height="29.557" rx="6.5" fill="#fff" stroke="#246EDE"/><mask id="n" fill="#fff"><path fill-rule="evenodd" clip-rule="evenodd" d="M101.752 428.382a3.183 3.183 0 0 0 0 4.501l6.025 6.026-5.724 5.724a3.183 3.183 0 1 0 4.502 4.501l5.724-5.724 5.679 5.679a3.183 3.183 0 1 0 4.501-4.502l-5.679-5.678 5.98-5.98a3.184 3.184 0 0 0-4.501-4.502l-5.98 5.98-6.025-6.025a3.184 3.184 0 0 0-4.502 0z"/></mask><path fill-rule="evenodd" clip-rule="evenodd" d="M101.752 428.382a3.183 3.183 0 0 0 0 4.501l6.025 6.026-5.724 5.724a3.183 3.183 0 1 0 4.502 4.501l5.724-5.724 5.679 5.679a3.183 3.183 0 1 0 4.501-4.502l-5.679-5.678 5.98-5.98a3.184 3.184 0 0 0-4.501-4.502l-5.98 5.98-6.025-6.025a3.184 3.184 0 0 0-4.502 0z" fill="#fff"/><path d="M101.752 432.883l.707-.707-.707.707zm0-4.501l-.707-.707.707.707zm6.025 10.527l.707.707.708-.707-.708-.707-.707.707zm-5.724 5.724l.707.707-.707-.707zm0 4.501l.707-.707-.707.707zm10.226-5.724l.707-.707-.707-.707-.707.707.707.707zm10.18 1.177l.707-.707-.707.707zm-5.679-5.678l-.707-.707-.707.707.707.707.707-.707zm5.98-5.98l.707.707-.707-.707zm0-4.502l.707-.707-.707.707zm-4.501 0l.707.707-.707-.707zm-5.98 5.98l-.707.707.707.707.707-.707-.707-.707zm-6.025-6.025l-.707.707.707-.707zm-3.795 3.794a2.184 2.184 0 0 1 0-3.087l-1.414-1.414a4.183 4.183 0 0 0 0 5.916l1.414-1.415zm6.025 6.026l-6.025-6.026-1.414 1.415 6.025 6.025 1.414-1.414zm-5.724 7.138l5.724-5.724-1.414-1.414-5.724 5.724 1.414 1.414zm0 3.087a2.184 2.184 0 0 1 0-3.087l-1.414-1.414a4.183 4.183 0 0 0 0 5.915l1.414-1.414zm3.088 0a2.183 2.183 0 0 1-3.088 0l-1.414 1.414a4.183 4.183 0 0 0 5.916 0l-1.414-1.414zm5.724-5.724l-5.724 5.724 1.414 1.414 5.724-5.724-1.414-1.414zm7.093 5.679l-5.679-5.679-1.414 1.414 5.679 5.679 1.414-1.414zm3.087 0a2.184 2.184 0 0 1-3.087 0l-1.414 1.414a4.181 4.181 0 0 0 5.915 0l-1.414-1.414zm0-3.087a2.182 2.182 0 0 1 0 3.087l1.414 1.414a4.183 4.183 0 0 0 0-5.916l-1.414 1.415zm-5.679-5.679l5.679 5.679 1.414-1.415-5.679-5.678-1.414 1.414zm5.98-7.394l-5.98 5.98 1.414 1.414 5.98-5.98-1.414-1.414zm0-3.088a2.183 2.183 0 0 1 0 3.088l1.414 1.414a4.183 4.183 0 0 0 0-5.916l-1.414 1.414zm-3.087 0a2.184 2.184 0 0 1 3.087 0l1.414-1.414a4.181 4.181 0 0 0-5.915 0l1.414 1.414zm-5.98 5.98l5.98-5.98-1.414-1.414-5.98 5.98 1.414 1.414zm-7.439-6.025l6.025 6.025 1.414-1.414-6.025-6.025-1.414 1.414zm-3.088 0a2.183 2.183 0 0 1 3.088 0l1.414-1.414a4.183 4.183 0 0 0-5.916 0l1.414 1.414z" fill="#246EDE" mask="url(#n)"/><rect opacity=".1" x="100.63" y="532" width="30.557" height="30.557" rx="7" fill="#246EDE"/><rect x="96.5" y="537.13" width="29.557" height="29.557" rx="6.5" fill="#fff" stroke="#246EDE"/><mask id="o" fill="#fff"><path fill-rule="evenodd" clip-rule="evenodd" d="M100.752 541.382a3.183 3.183 0 0 0 0 4.501l6.025 6.026-5.724 5.724a3.183 3.183 0 1 0 4.502 4.501l5.724-5.724 5.679 5.679a3.183 3.183 0 1 0 4.501-4.502l-5.679-5.678 5.98-5.98a3.184 3.184 0 0 0-4.501-4.502l-5.98 5.98-6.025-6.025a3.184 3.184 0 0 0-4.502 0z"/></mask><path fill-rule="evenodd" clip-rule="evenodd" d="M100.752 541.382a3.183 3.183 0 0 0 0 4.501l6.025 6.026-5.724 5.724a3.183 3.183 0 1 0 4.502 4.501l5.724-5.724 5.679 5.679a3.183 3.183 0 1 0 4.501-4.502l-5.679-5.678 5.98-5.98a3.184 3.184 0 0 0-4.501-4.502l-5.98 5.98-6.025-6.025a3.184 3.184 0 0 0-4.502 0z" fill="#fff"/><path d="M100.752 545.883l.707-.707-.707.707zm0-4.501l-.707-.707.707.707zm6.025 10.527l.707.707.708-.707-.708-.707-.707.707zm-5.724 5.724l.707.707-.707-.707zm0 4.501l.707-.707-.707.707zm10.226-5.724l.707-.707-.707-.707-.707.707.707.707zm10.18 1.177l.707-.707-.707.707zm-5.679-5.678l-.707-.707-.707.707.707.707.707-.707zm5.98-5.98l.707.707-.707-.707zm0-4.502l.707-.707-.707.707zm-4.501 0l.707.707-.707-.707zm-5.98 5.98l-.707.707.707.707.707-.707-.707-.707zm-6.025-6.025l-.707.707.707-.707zm-3.795 3.794a2.184 2.184 0 0 1 0-3.087l-1.414-1.414a4.183 4.183 0 0 0 0 5.916l1.414-1.415zm6.025 6.026l-6.025-6.026-1.414 1.415 6.025 6.025 1.414-1.414zm-5.724 7.138l5.724-5.724-1.414-1.414-5.724 5.724 1.414 1.414zm0 3.087a2.184 2.184 0 0 1 0-3.087l-1.414-1.414a4.183 4.183 0 0 0 0 5.915l1.414-1.414zm3.088 0a2.183 2.183 0 0 1-3.088 0l-1.414 1.414a4.183 4.183 0 0 0 5.916 0l-1.414-1.414zm5.724-5.724l-5.724 5.724 1.414 1.414 5.724-5.724-1.414-1.414zm7.093 5.679l-5.679-5.679-1.414 1.414 5.679 5.679 1.414-1.414zm3.087 0a2.184 2.184 0 0 1-3.087 0l-1.414 1.414a4.181 4.181 0 0 0 5.915 0l-1.414-1.414zm0-3.087a2.182 2.182 0 0 1 0 3.087l1.414 1.414a4.183 4.183 0 0 0 0-5.916l-1.414 1.415zm-5.679-5.679l5.679 5.679 1.414-1.415-5.679-5.678-1.414 1.414zm5.98-7.394l-5.98 5.98 1.414 1.414 5.98-5.98-1.414-1.414zm0-3.088a2.183 2.183 0 0 1 0 3.088l1.414 1.414a4.183 4.183 0 0 0 0-5.916l-1.414 1.414zm-3.087 0a2.184 2.184 0 0 1 3.087 0l1.414-1.414a4.181 4.181 0 0 0-5.915 0l1.414 1.414zm-5.98 5.98l5.98-5.98-1.414-1.414-5.98 5.98 1.414 1.414zm-7.439-6.025l6.025 6.025 1.414-1.414-6.025-6.025-1.414 1.414zm-3.088 0a2.183 2.183 0 0 1 3.088 0l1.414-1.414a4.183 4.183 0 0 0-5.916 0l1.414 1.414z" fill="#246EDE" mask="url(#o)"/><rect opacity=".1" x="368.63" y="473" width="30.557" height="30.557" rx="7" fill="#246EDE"/><rect x="364.5" y="478.13" width="29.557" height="29.557" rx="6.5" fill="#fff" stroke="#246EDE"/><mask id="p" fill="#fff"><path fill-rule="evenodd" clip-rule="evenodd" d="M368.752 482.382a3.183 3.183 0 0 0 0 4.501l6.025 6.026-5.724 5.724a3.183 3.183 0 1 0 4.502 4.501l5.724-5.724 5.679 5.679a3.183 3.183 0 1 0 4.501-4.502l-5.679-5.678 5.98-5.98a3.184 3.184 0 0 0-4.501-4.502l-5.98 5.98-6.025-6.025a3.184 3.184 0 0 0-4.502 0z"/></mask><path fill-rule="evenodd" clip-rule="evenodd" d="M368.752 482.382a3.183 3.183 0 0 0 0 4.501l6.025 6.026-5.724 5.724a3.183 3.183 0 1 0 4.502 4.501l5.724-5.724 5.679 5.679a3.183 3.183 0 1 0 4.501-4.502l-5.679-5.678 5.98-5.98a3.184 3.184 0 0 0-4.501-4.502l-5.98 5.98-6.025-6.025a3.184 3.184 0 0 0-4.502 0z" fill="#fff"/><path d="M368.752 486.883l.707-.707-.707.707zm0-4.501l-.707-.707.707.707zm6.025 10.527l.707.707.708-.707-.708-.707-.707.707zm-5.724 5.724l.707.707-.707-.707zm0 4.501l.707-.707-.707.707zm10.226-5.724l.707-.707-.707-.707-.707.707.707.707zm10.18 1.177l.707-.707-.707.707zm-5.679-5.678l-.707-.707-.707.707.707.707.707-.707zm5.98-5.98l.707.707-.707-.707zm0-4.502l.707-.707-.707.707zm-4.501 0l.707.707-.707-.707zm-5.98 5.98l-.707.707.707.707.707-.707-.707-.707zm-6.025-6.025l-.707.707.707-.707zm-3.795 3.794a2.184 2.184 0 0 1 0-3.087l-1.414-1.414a4.183 4.183 0 0 0 0 5.916l1.414-1.415zm6.025 6.026l-6.025-6.026-1.414 1.415 6.025 6.025 1.414-1.414zm-5.724 7.138l5.724-5.724-1.414-1.414-5.724 5.724 1.414 1.414zm0 3.087a2.184 2.184 0 0 1 0-3.087l-1.414-1.414a4.183 4.183 0 0 0 0 5.915l1.414-1.414zm3.088 0a2.183 2.183 0 0 1-3.088 0l-1.414 1.414a4.183 4.183 0 0 0 5.916 0l-1.414-1.414zm5.724-5.724l-5.724 5.724 1.414 1.414 5.724-5.724-1.414-1.414zm7.093 5.679l-5.679-5.679-1.414 1.414 5.679 5.679 1.414-1.414zm3.087 0a2.184 2.184 0 0 1-3.087 0l-1.414 1.414a4.181 4.181 0 0 0 5.915 0l-1.414-1.414zm0-3.087a2.182 2.182 0 0 1 0 3.087l1.414 1.414a4.183 4.183 0 0 0 0-5.916l-1.414 1.415zm-5.679-5.679l5.679 5.679 1.414-1.415-5.679-5.678-1.414 1.414zm5.98-7.394l-5.98 5.98 1.414 1.414 5.98-5.98-1.414-1.414zm0-3.088a2.183 2.183 0 0 1 0 3.088l1.414 1.414a4.183 4.183 0 0 0 0-5.916l-1.414 1.414zm-3.087 0a2.184 2.184 0 0 1 3.087 0l1.414-1.414a4.181 4.181 0 0 0-5.915 0l1.414 1.414zm-5.98 5.98l5.98-5.98-1.414-1.414-5.98 5.98 1.414 1.414zm-7.439-6.025l6.025 6.025 1.414-1.414-6.025-6.025-1.414 1.414zm-3.088 0a2.183 2.183 0 0 1 3.088 0l1.414-1.414a4.183 4.183 0 0 0-5.916 0l1.414 1.414z" fill="#246EDE" mask="url(#p)"/><path d="M102.718 381.051c0-5.818 4.81-10.551 10.765-10.551 5.954 0 10.765 4.733 10.765 10.551v14.632h-4.72v-14.632c0-1.047-.427-2.557-1.405-3.813-.993-1.276-2.562-2.297-4.814-2.297-2.414 0-3.991 1.012-4.95 2.306-.942 1.27-1.269 2.782-1.269 3.804v14.632h-4.372v-14.632zM119.876 400.446c.486.739 1.26 1.217 2.132 1.217.871 0 1.645-.478 2.131-1.217M118.05 402.272c.902 1.11 2.339 1.827 3.958 1.827 1.618 0 3.055-.717 3.957-1.827M102.827 400.446c.486.739 1.26 1.217 2.131 1.217.871 0 1.645-.478 2.131-1.217M101 402.272c.903 1.11 2.339 1.827 3.958 1.827 1.618 0 3.055-.717 3.958-1.827M236.718 33.051c0-5.818 4.81-10.551 10.765-10.551 5.954 0 10.765 4.733 10.765 10.551v14.632h-4.719V33.051c0-1.047-.428-2.557-1.406-3.814-.993-1.275-2.562-2.296-4.814-2.296-2.414 0-3.991 1.012-4.95 2.306-.942 1.27-1.269 2.782-1.269 3.804v14.632h-4.372V33.051zM253.876 52.446c.486.74 1.26 1.218 2.132 1.218.871 0 1.645-.479 2.131-1.218M252.05 54.272c.902 1.11 2.339 1.827 3.958 1.827 1.618 0 3.055-.717 3.957-1.827M236.827 52.446c.486.74 1.26 1.218 2.131 1.218.871 0 1.645-.479 2.131-1.218M235 54.272c.903 1.11 2.339 1.827 3.958 1.827 1.618 0 3.055-.717 3.958-1.827" stroke="#246EDE"/><g opacity=".2"><rect x="72" y="5" width="108" height="49" rx="10" fill="#246EDE"/><rect x="72.5" y="5.5" width="107" height="48" rx="9.5" stroke="#246EDE" stroke-opacity=".6"/></g><rect x="62" y="13" width="108" height="51" rx="10" fill="#fff"/><rect x="62.5" y="13.5" width="107" height="50" rx="9.5" stroke="#246EDE" stroke-opacity=".6"/><rect x="359" y="177" width="111" height="128" rx="10" fill="#fff"/><rect x="359.5" y="177.5" width="110" height="127" rx="9.5" stroke="#246EDE" stroke-opacity=".6"/><g opacity=".2"><rect x="37.509" y="90" width="59.492" height="19.608" rx="5" fill="#246EDE"/><rect x="38.009" y="90.5" width="58.492" height="18.608" rx="4.5" stroke="#246EDE" stroke-opacity=".6"/></g><rect x="32" y="94.902" width="59.492" height="20.098" rx="5" fill="#fff"/><rect x="32.5" y="95.402" width="58.492" height="19.098" rx="4.5" stroke="#246EDE" stroke-opacity=".6"/><g opacity=".2"><rect x="138.509" y="90" width="59.492" height="19.608" rx="5" fill="#246EDE"/><rect x="139.009" y="90.5" width="58.492" height="18.608" rx="4.5" stroke="#246EDE" stroke-opacity=".6"/></g><rect x="133" y="94.902" width="59.492" height="20.098" rx="5" fill="#fff"/><rect x="133.5" y="95.402" width="58.492" height="19.098" rx="4.5" stroke="#246EDE" stroke-opacity=".6"/><g opacity=".2"><rect x="221.509" y="144" width="59.492" height="19.608" rx="5" fill="#246EDE"/><rect x="222.009" y="144.5" width="58.492" height="18.608" rx="4.5" stroke="#246EDE" stroke-opacity=".6"/></g><rect x="216" y="148.902" width="59.492" height="20.098" rx="5" fill="#fff"/><rect x="216.5" y="149.402" width="58.492" height="19.098" rx="4.5" stroke="#246EDE" stroke-opacity=".6"/><g opacity=".2"><rect x="221.509" y="110" width="59.492" height="19.608" rx="5" fill="#246EDE"/><rect x="222.009" y="110.5" width="58.492" height="18.608" rx="4.5" stroke="#246EDE" stroke-opacity=".6"/></g><rect x="216" y="114.902" width="59.492" height="20.098" rx="5" fill="#fff"/><rect x="216.5" y="115.402" width="58.492" height="19.098" rx="4.5" stroke="#246EDE" stroke-opacity=".6"/><g opacity=".2"><path d="M87.918 220.657A5 5 0 0 1 92.734 217h48.681c3.308 0 5.705 3.156 4.816 6.343l-2.68 9.608a5 5 0 0 1-4.816 3.657h-48.68c-3.31 0-5.706-3.156-4.817-6.343l2.68-9.608z" fill="#246EDE"/><path d="M88.4 220.791a4.5 4.5 0 0 1 4.334-3.291h48.681c2.978 0 5.134 2.841 4.334 5.709l-2.679 9.608a4.501 4.501 0 0 1-4.335 3.291h-48.68c-2.979 0-5.136-2.841-4.336-5.709l2.68-9.608z" stroke="#246EDE" stroke-opacity=".6"/></g><path d="M82.465 225.589a5 5 0 0 1 4.825-3.687h48.699c3.296 0 5.69 3.133 4.825 6.313l-2.748 10.098a5 5 0 0 1-4.825 3.687H84.542c-3.295 0-5.69-3.133-4.824-6.313l2.747-10.098z" fill="#fff"/><path d="M82.948 225.72a4.5 4.5 0 0 1 4.342-3.318h48.699c2.966 0 5.121 2.819 4.342 5.681l-2.748 10.098a4.5 4.5 0 0 1-4.342 3.319H84.542c-2.966 0-5.12-2.82-4.342-5.682l2.748-10.098z" stroke="#246EDE" stroke-opacity=".6"/><path d="M82.465 225.589a5 5 0 0 1 4.825-3.687h48.699c3.296 0 5.69 3.133 4.825 6.313l-2.748 10.098a5 5 0 0 1-4.825 3.687H84.542c-3.295 0-5.69-3.133-4.824-6.313l2.747-10.098z" fill="#246EDE" fill-opacity=".05"/><path d="M82.948 225.72a4.5 4.5 0 0 1 4.342-3.318h48.699c2.966 0 5.121 2.819 4.342 5.681l-2.748 10.099a4.5 4.5 0 0 1-4.342 3.318H84.542c-2.966 0-5.12-2.819-4.342-5.681l2.748-10.099z" stroke="#246EDE" stroke-opacity=".6"/><g opacity=".2"><path d="M87.918 466.657A5 5 0 0 1 92.734 463h48.681c3.308 0 5.705 3.156 4.816 6.343l-2.68 9.608a5 5 0 0 1-4.816 3.657h-48.68c-3.31 0-5.706-3.156-4.817-6.343l2.68-9.608z" fill="#246EDE"/><path d="M88.4 466.791a4.5 4.5 0 0 1 4.334-3.291h48.681c2.978 0 5.134 2.841 4.334 5.709l-2.679 9.608a4.501 4.501 0 0 1-4.335 3.291h-48.68c-2.979 0-5.136-2.841-4.336-5.709l2.68-9.608z" stroke="#246EDE" stroke-opacity=".6"/></g><path d="M82.465 471.589a5 5 0 0 1 4.825-3.687h48.699c3.296 0 5.69 3.133 4.825 6.313l-2.748 10.098a5 5 0 0 1-4.825 3.687H84.542c-3.295 0-5.69-3.133-4.824-6.313l2.747-10.098z" fill="#fff"/><path d="M82.948 471.72a4.5 4.5 0 0 1 4.342-3.318h48.699c2.966 0 5.121 2.819 4.342 5.681l-2.748 10.098a4.5 4.5 0 0 1-4.342 3.319H84.542c-2.966 0-5.12-2.82-4.342-5.682l2.748-10.098z" stroke="#246EDE" stroke-opacity=".6"/><path d="M82.465 471.589a5 5 0 0 1 4.825-3.687h48.699c3.296 0 5.69 3.133 4.825 6.313l-2.748 10.098a5 5 0 0 1-4.825 3.687H84.542c-3.295 0-5.69-3.133-4.824-6.313l2.747-10.098z" fill="#246EDE" fill-opacity=".05"/><path d="M82.948 471.72a4.5 4.5 0 0 1 4.342-3.318h48.699c2.966 0 5.121 2.819 4.342 5.681l-2.748 10.099a4.5 4.5 0 0 1-4.342 3.318H84.542c-2.966 0-5.12-2.819-4.342-5.681l2.748-10.099z" stroke="#246EDE" stroke-opacity=".6"/><g opacity=".2"><path d="M87.918 333.657A5 5 0 0 1 92.734 330h48.681c3.308 0 5.705 3.156 4.816 6.343l-2.68 9.608a5 5 0 0 1-4.816 3.657h-48.68c-3.31 0-5.706-3.156-4.817-6.343l2.68-9.608z" fill="#246EDE"/><path d="M88.4 333.791a4.5 4.5 0 0 1 4.334-3.291h48.681c2.978 0 5.134 2.841 4.334 5.709l-2.679 9.608a4.501 4.501 0 0 1-4.335 3.291h-48.68c-2.979 0-5.136-2.841-4.336-5.709l2.68-9.608z" stroke="#246EDE" stroke-opacity=".6"/></g><path d="M82.465 338.589a5 5 0 0 1 4.825-3.687h48.699c3.296 0 5.69 3.133 4.825 6.313l-2.748 10.098a5 5 0 0 1-4.825 3.687H84.542c-3.295 0-5.69-3.133-4.824-6.313l2.747-10.098z" fill="#fff"/><path d="M82.948 338.72a4.5 4.5 0 0 1 4.342-3.318h48.699c2.966 0 5.121 2.819 4.342 5.681l-2.748 10.098a4.5 4.5 0 0 1-4.342 3.319H84.542c-2.966 0-5.12-2.82-4.342-5.682l2.748-10.098z" stroke="#246EDE" stroke-opacity=".6"/><path d="M82.465 338.589a5 5 0 0 1 4.825-3.687h48.699c3.296 0 5.69 3.133 4.825 6.313l-2.748 10.098a5 5 0 0 1-4.825 3.687H84.542c-3.295 0-5.69-3.133-4.824-6.313l2.747-10.098z" fill="#246EDE" fill-opacity=".05"/><path d="M82.948 338.72a4.5 4.5 0 0 1 4.342-3.318h48.699c2.966 0 5.121 2.819 4.342 5.681l-2.748 10.099a4.5 4.5 0 0 1-4.342 3.318H84.542c-2.966 0-5.12-2.819-4.342-5.681l2.748-10.099z" stroke="#246EDE" stroke-opacity=".6"/><g opacity=".2"><path d="M266.918 318.657a4.999 4.999 0 0 1 4.816-3.657h48.681c3.308 0 5.705 3.156 4.816 6.343l-2.68 9.608a5 5 0 0 1-4.816 3.657h-48.681c-3.309 0-5.705-3.156-4.816-6.343l2.68-9.608z" fill="#246EDE"/><path d="M267.399 318.791a4.501 4.501 0 0 1 4.335-3.291h48.681c2.978 0 5.134 2.841 4.334 5.709l-2.679 9.608a4.501 4.501 0 0 1-4.335 3.291h-48.681c-2.978 0-5.134-2.841-4.334-5.709l2.679-9.608z" stroke="#246EDE" stroke-opacity=".6"/></g><path d="M261.465 323.589a5 5 0 0 1 4.825-3.687h48.699c3.296 0 5.69 3.133 4.825 6.313l-2.748 10.098a5 5 0 0 1-4.825 3.687h-48.699c-3.295 0-5.69-3.133-4.824-6.313l2.747-10.098z" fill="#fff"/><path d="M261.948 323.72a4.5 4.5 0 0 1 4.342-3.318h48.699c2.966 0 5.121 2.819 4.342 5.681l-2.748 10.099a4.5 4.5 0 0 1-4.342 3.318h-48.699c-2.966 0-5.121-2.819-4.342-5.681l2.748-10.099z" stroke="#246EDE" stroke-opacity=".6"/><path d="M261.465 323.589a5 5 0 0 1 4.825-3.687h48.699c3.296 0 5.69 3.133 4.825 6.313l-2.748 10.098a5 5 0 0 1-4.825 3.687h-48.699c-3.295 0-5.69-3.133-4.824-6.313l2.747-10.098z" fill="#246EDE" fill-opacity=".05"/><path d="M261.948 323.72a4.5 4.5 0 0 1 4.342-3.318h48.699c2.966 0 5.121 2.819 4.342 5.681l-2.748 10.098a4.5 4.5 0 0 1-4.342 3.319h-48.699c-2.966 0-5.121-2.82-4.342-5.682l2.748-10.098z" stroke="#246EDE" stroke-opacity=".6"/><g opacity=".2"><path d="M354.918 317.657a4.999 4.999 0 0 1 4.816-3.657h48.681c3.308 0 5.705 3.156 4.816 6.343l-2.68 9.608a5 5 0 0 1-4.816 3.657h-48.681c-3.309 0-5.705-3.156-4.816-6.343l2.68-9.608z" fill="#246EDE"/><path d="M355.399 317.791a4.501 4.501 0 0 1 4.335-3.291h48.681c2.978 0 5.134 2.841 4.334 5.709l-2.679 9.608a4.501 4.501 0 0 1-4.335 3.291h-48.681c-2.978 0-5.134-2.841-4.334-5.709l2.679-9.608z" stroke="#246EDE" stroke-opacity=".6"/></g><path d="M349.465 322.589a5 5 0 0 1 4.825-3.687h48.699c3.296 0 5.69 3.133 4.825 6.313l-2.748 10.098a5 5 0 0 1-4.825 3.687h-48.699c-3.295 0-5.69-3.133-4.824-6.313l2.747-10.098z" fill="#fff"/><path d="M349.948 322.72a4.5 4.5 0 0 1 4.342-3.318h48.699c2.966 0 5.121 2.819 4.342 5.681l-2.748 10.099a4.5 4.5 0 0 1-4.342 3.318h-48.699c-2.966 0-5.121-2.819-4.342-5.681l2.748-10.099z" stroke="#246EDE" stroke-opacity=".6"/><g opacity=".2"><path d="M427.918 316.657a4.999 4.999 0 0 1 4.816-3.657h48.681c3.308 0 5.705 3.156 4.816 6.343l-2.68 9.608a5 5 0 0 1-4.816 3.657h-48.681c-3.309 0-5.705-3.156-4.816-6.343l2.68-9.608z" fill="#246EDE"/><path d="M428.399 316.791a4.501 4.501 0 0 1 4.335-3.291h48.681c2.978 0 5.134 2.841 4.334 5.709l-2.679 9.608a4.501 4.501 0 0 1-4.335 3.291h-48.681c-2.978 0-5.134-2.841-4.334-5.709l2.679-9.608z" stroke="#246EDE" stroke-opacity=".6"/></g><path d="M422.465 321.589a5 5 0 0 1 4.825-3.687h48.699c3.296 0 5.69 3.133 4.825 6.313l-2.748 10.098a5 5 0 0 1-4.825 3.687h-48.699c-3.295 0-5.69-3.133-4.824-6.313l2.747-10.098z" fill="#fff"/><path d="M422.948 321.72a4.5 4.5 0 0 1 4.342-3.318h48.699c2.966 0 5.121 2.819 4.342 5.681l-2.748 10.099a4.5 4.5 0 0 1-4.342 3.318h-48.699c-2.966 0-5.121-2.819-4.342-5.681l2.748-10.099z" stroke="#246EDE" stroke-opacity=".6"/><path opacity=".2" d="M464.918 37.657A4.999 4.999 0 0 1 469.734 34h48.681c3.308 0 5.705 3.156 4.816 6.343l-2.68 9.608a5 5 0 0 1-4.816 3.657h-48.681c-3.309 0-5.705-3.156-4.816-6.343l2.68-9.608z" fill="#246EDE"/><path d="M459.465 42.59a5.001 5.001 0 0 1 4.825-3.688h48.699c3.296 0 5.69 3.133 4.825 6.313l-2.748 10.098A5 5 0 0 1 510.241 59h-48.699c-3.295 0-5.69-3.133-4.824-6.313l2.747-10.098z" fill="#fff"/><path d="M459.948 42.72a4.5 4.5 0 0 1 4.342-3.318h48.699c2.966 0 5.121 2.82 4.342 5.681l-2.748 10.099a4.5 4.5 0 0 1-4.342 3.318h-48.699c-2.966 0-5.121-2.82-4.342-5.681l2.748-10.099z" stroke="#246EDE" stroke-opacity=".6"/><path opacity=".2" d="M531.918 227.657a4.999 4.999 0 0 1 4.816-3.657h48.681c3.308 0 5.705 3.156 4.816 6.343l-2.68 9.608a5 5 0 0 1-4.816 3.657h-48.681c-3.309 0-5.705-3.156-4.816-6.343l2.68-9.608z" fill="#246EDE"/><path d="M526.465 232.589a5 5 0 0 1 4.825-3.687h48.699c3.296 0 5.69 3.133 4.825 6.313l-2.748 10.098a5 5 0 0 1-4.825 3.687h-48.699c-3.295 0-5.69-3.133-4.824-6.313l2.747-10.098z" fill="#fff"/><path d="M526.948 232.72a4.5 4.5 0 0 1 4.342-3.318h48.699c2.966 0 5.121 2.819 4.342 5.681l-2.748 10.099a4.5 4.5 0 0 1-4.342 3.318h-48.699c-2.966 0-5.121-2.819-4.342-5.681l2.748-10.099z" stroke="#246EDE" stroke-opacity=".6"/><path opacity=".2" d="M531.918 416.657a4.999 4.999 0 0 1 4.816-3.657h48.681c3.308 0 5.705 3.156 4.816 6.343l-2.68 9.608a5 5 0 0 1-4.816 3.657h-48.681c-3.309 0-5.705-3.156-4.816-6.343l2.68-9.608z" fill="#246EDE"/><path d="M526.465 421.589a5 5 0 0 1 4.825-3.687h48.699c3.296 0 5.69 3.133 4.825 6.313l-2.748 10.098a5 5 0 0 1-4.825 3.687h-48.699c-3.295 0-5.69-3.133-4.824-6.313l2.747-10.098z" fill="#fff"/><path d="M526.948 421.72a4.5 4.5 0 0 1 4.342-3.318h48.699c2.966 0 5.121 2.819 4.342 5.681l-2.748 10.099a4.5 4.5 0 0 1-4.342 3.318h-48.699c-2.966 0-5.121-2.819-4.342-5.681l2.748-10.099z" stroke="#246EDE" stroke-opacity=".6"/><path opacity=".2" d="M464.918 82.657A4.999 4.999 0 0 1 469.734 79h48.681c3.308 0 5.705 3.156 4.816 6.343l-2.68 9.608a5 5 0 0 1-4.816 3.657h-48.681c-3.309 0-5.705-3.156-4.816-6.343l2.68-9.608z" fill="#246EDE"/><path d="M459.465 87.59a5.001 5.001 0 0 1 4.825-3.688h48.699c3.296 0 5.69 3.133 4.825 6.313l-2.748 10.098a5 5 0 0 1-4.825 3.687h-48.699c-3.295 0-5.69-3.133-4.824-6.313l2.747-10.098z" fill="#fff"/><path d="M459.948 87.72a4.5 4.5 0 0 1 4.342-3.318h48.699c2.966 0 5.121 2.82 4.342 5.681l-2.748 10.099a4.5 4.5 0 0 1-4.342 3.318h-48.699c-2.966 0-5.121-2.819-4.342-5.681l2.748-10.099z" stroke="#246EDE" stroke-opacity=".6"/><path opacity=".2" d="M531.918 272.657a4.999 4.999 0 0 1 4.816-3.657h48.681c3.308 0 5.705 3.156 4.816 6.343l-2.68 9.608a5 5 0 0 1-4.816 3.657h-48.681c-3.309 0-5.705-3.156-4.816-6.343l2.68-9.608z" fill="#246EDE"/><path d="M526.465 277.589a5 5 0 0 1 4.825-3.687h48.699c3.296 0 5.69 3.133 4.825 6.313l-2.748 10.098a5 5 0 0 1-4.825 3.687h-48.699c-3.295 0-5.69-3.133-4.824-6.313l2.747-10.098z" fill="#fff"/><path d="M526.948 277.72a4.5 4.5 0 0 1 4.342-3.318h48.699c2.966 0 5.121 2.819 4.342 5.681l-2.748 10.099a4.5 4.5 0 0 1-4.342 3.318h-48.699c-2.966 0-5.121-2.819-4.342-5.681l2.748-10.099z" stroke="#246EDE" stroke-opacity=".6"/><path opacity=".2" d="M531.918 461.657a4.999 4.999 0 0 1 4.816-3.657h48.681c3.308 0 5.705 3.156 4.816 6.343l-2.68 9.608a5 5 0 0 1-4.816 3.657h-48.681c-3.309 0-5.705-3.156-4.816-6.343l2.68-9.608z" fill="#246EDE"/><path d="M526.465 466.589a5 5 0 0 1 4.825-3.687h48.699c3.296 0 5.69 3.133 4.825 6.313l-2.748 10.098a5 5 0 0 1-4.825 3.687h-48.699c-3.295 0-5.69-3.133-4.824-6.313l2.747-10.098z" fill="#fff"/><path d="M526.948 466.72a4.5 4.5 0 0 1 4.342-3.318h48.699c2.966 0 5.121 2.819 4.342 5.681l-2.748 10.099a4.5 4.5 0 0 1-4.342 3.318h-48.699c-2.966 0-5.121-2.819-4.342-5.681l2.748-10.099z" stroke="#246EDE" stroke-opacity=".6"/><path opacity=".2" d="M538.918 37.657A4.999 4.999 0 0 1 543.734 34h48.681c3.308 0 5.705 3.156 4.816 6.343l-2.68 9.608a5 5 0 0 1-4.816 3.657h-48.681c-3.309 0-5.705-3.156-4.816-6.343l2.68-9.608z" fill="#246EDE"/><path d="M533.465 42.59a5.001 5.001 0 0 1 4.825-3.688h48.699c3.296 0 5.69 3.133 4.825 6.313l-2.748 10.098A5 5 0 0 1 584.241 59h-48.699c-3.295 0-5.69-3.133-4.824-6.313l2.747-10.098z" fill="#fff"/><path d="M533.948 42.72a4.5 4.5 0 0 1 4.342-3.318h48.699c2.966 0 5.121 2.82 4.342 5.681l-2.748 10.099a4.5 4.5 0 0 1-4.342 3.318h-48.699c-2.966 0-5.121-2.82-4.342-5.681l2.748-10.099z" stroke="#246EDE" stroke-opacity=".6"/><path opacity=".2" d="M605.918 227.657a4.999 4.999 0 0 1 4.816-3.657h48.681c3.308 0 5.705 3.156 4.816 6.343l-2.68 9.608a5 5 0 0 1-4.816 3.657h-48.681c-3.309 0-5.705-3.156-4.816-6.343l2.68-9.608z" fill="#246EDE"/><path d="M600.465 232.589a5 5 0 0 1 4.825-3.687h48.699c3.296 0 5.69 3.133 4.825 6.313l-2.748 10.098a5 5 0 0 1-4.825 3.687h-48.699c-3.295 0-5.69-3.133-4.824-6.313l2.747-10.098z" fill="#fff"/><path d="M600.948 232.72a4.5 4.5 0 0 1 4.342-3.318h48.699c2.966 0 5.121 2.819 4.342 5.681l-2.748 10.099a4.5 4.5 0 0 1-4.342 3.318h-48.699c-2.966 0-5.121-2.819-4.342-5.681l2.748-10.099z" stroke="#246EDE" stroke-opacity=".6"/><path opacity=".2" d="M605.918 416.657a4.999 4.999 0 0 1 4.816-3.657h48.681c3.308 0 5.705 3.156 4.816 6.343l-2.68 9.608a5 5 0 0 1-4.816 3.657h-48.681c-3.309 0-5.705-3.156-4.816-6.343l2.68-9.608z" fill="#246EDE"/><path d="M600.465 421.589a5 5 0 0 1 4.825-3.687h48.699c3.296 0 5.69 3.133 4.825 6.313l-2.748 10.098a5 5 0 0 1-4.825 3.687h-48.699c-3.295 0-5.69-3.133-4.824-6.313l2.747-10.098z" fill="#fff"/><path d="M600.948 421.72a4.5 4.5 0 0 1 4.342-3.318h48.699c2.966 0 5.121 2.819 4.342 5.681l-2.748 10.099a4.5 4.5 0 0 1-4.342 3.318h-48.699c-2.966 0-5.121-2.819-4.342-5.681l2.748-10.099z" stroke="#246EDE" stroke-opacity=".6"/><path opacity=".2" d="M538.918 82.657A4.999 4.999 0 0 1 543.734 79h48.681c3.308 0 5.705 3.156 4.816 6.343l-2.68 9.608a5 5 0 0 1-4.816 3.657h-48.681c-3.309 0-5.705-3.156-4.816-6.343l2.68-9.608z" fill="#246EDE"/><path d="M533.465 87.59a5.001 5.001 0 0 1 4.825-3.688h48.699c3.296 0 5.69 3.133 4.825 6.313l-2.748 10.098a5 5 0 0 1-4.825 3.687h-48.699c-3.295 0-5.69-3.133-4.824-6.313l2.747-10.098z" fill="#fff"/><path d="M533.948 87.72a4.5 4.5 0 0 1 4.342-3.318h48.699c2.966 0 5.121 2.82 4.342 5.681l-2.748 10.099a4.5 4.5 0 0 1-4.342 3.318h-48.699c-2.966 0-5.121-2.819-4.342-5.681l2.748-10.099z" stroke="#246EDE" stroke-opacity=".6"/><path opacity=".2" d="M605.918 272.657a4.999 4.999 0 0 1 4.816-3.657h48.681c3.308 0 5.705 3.156 4.816 6.343l-2.68 9.608a5 5 0 0 1-4.816 3.657h-48.681c-3.309 0-5.705-3.156-4.816-6.343l2.68-9.608z" fill="#246EDE"/><path d="M600.465 277.589a5 5 0 0 1 4.825-3.687h48.699c3.296 0 5.69 3.133 4.825 6.313l-2.748 10.098a5 5 0 0 1-4.825 3.687h-48.699c-3.295 0-5.69-3.133-4.824-6.313l2.747-10.098z" fill="#fff"/><path d="M600.948 277.72a4.5 4.5 0 0 1 4.342-3.318h48.699c2.966 0 5.121 2.819 4.342 5.681l-2.748 10.099a4.5 4.5 0 0 1-4.342 3.318h-48.699c-2.966 0-5.121-2.819-4.342-5.681l2.748-10.099z" stroke="#246EDE" stroke-opacity=".6"/><path opacity=".2" d="M605.918 461.657a4.999 4.999 0 0 1 4.816-3.657h48.681c3.308 0 5.705 3.156 4.816 6.343l-2.68 9.608a5 5 0 0 1-4.816 3.657h-48.681c-3.309 0-5.705-3.156-4.816-6.343l2.68-9.608z" fill="#246EDE"/><path d="M600.465 466.589a5 5 0 0 1 4.825-3.687h48.699c3.296 0 5.69 3.133 4.825 6.313l-2.748 10.098a5 5 0 0 1-4.825 3.687h-48.699c-3.295 0-5.69-3.133-4.824-6.313l2.747-10.098z" fill="#fff"/><path d="M600.948 466.72a4.5 4.5 0 0 1 4.342-3.318h48.699c2.966 0 5.121 2.819 4.342 5.681l-2.748 10.099a4.5 4.5 0 0 1-4.342 3.318h-48.699c-2.966 0-5.121-2.819-4.342-5.681l2.748-10.099z" stroke="#246EDE" stroke-opacity=".6"/><path opacity=".2" d="M611.918 37.657A4.999 4.999 0 0 1 616.734 34h48.681c3.308 0 5.705 3.156 4.816 6.343l-2.68 9.608a5 5 0 0 1-4.816 3.657h-48.681c-3.309 0-5.705-3.156-4.816-6.343l2.68-9.608z" fill="#246EDE"/><path d="M606.465 42.59a5.001 5.001 0 0 1 4.825-3.688h48.699c3.296 0 5.69 3.133 4.825 6.313l-2.748 10.098A5 5 0 0 1 657.241 59h-48.699c-3.295 0-5.69-3.133-4.824-6.313l2.747-10.098z" fill="#fff"/><path d="M606.948 42.72a4.5 4.5 0 0 1 4.342-3.318h48.699c2.966 0 5.121 2.82 4.342 5.681l-2.748 10.099a4.5 4.5 0 0 1-4.342 3.318h-48.699c-2.966 0-5.121-2.82-4.342-5.681l2.748-10.099z" stroke="#246EDE" stroke-opacity=".6"/><path opacity=".2" d="M678.918 227.657a4.999 4.999 0 0 1 4.816-3.657h48.681c3.308 0 5.705 3.156 4.816 6.343l-2.68 9.608a5 5 0 0 1-4.816 3.657h-48.681c-3.309 0-5.705-3.156-4.816-6.343l2.68-9.608z" fill="#246EDE"/><path d="M673.465 232.589a5 5 0 0 1 4.825-3.687h48.699c3.296 0 5.69 3.133 4.825 6.313l-2.748 10.098a5 5 0 0 1-4.825 3.687h-48.699c-3.295 0-5.69-3.133-4.824-6.313l2.747-10.098z" fill="#fff"/><path d="M673.948 232.72a4.5 4.5 0 0 1 4.342-3.318h48.699c2.966 0 5.121 2.819 4.342 5.681l-2.748 10.099a4.5 4.5 0 0 1-4.342 3.318h-48.699c-2.966 0-5.121-2.819-4.342-5.681l2.748-10.099z" stroke="#246EDE" stroke-opacity=".6"/><path opacity=".2" d="M678.918 416.657a4.999 4.999 0 0 1 4.816-3.657h48.681c3.308 0 5.705 3.156 4.816 6.343l-2.68 9.608a5 5 0 0 1-4.816 3.657h-48.681c-3.309 0-5.705-3.156-4.816-6.343l2.68-9.608z" fill="#246EDE"/><path d="M673.465 421.589a5 5 0 0 1 4.825-3.687h48.699c3.296 0 5.69 3.133 4.825 6.313l-2.748 10.098a5 5 0 0 1-4.825 3.687h-48.699c-3.295 0-5.69-3.133-4.824-6.313l2.747-10.098z" fill="#fff"/><path d="M673.948 421.72a4.5 4.5 0 0 1 4.342-3.318h48.699c2.966 0 5.121 2.819 4.342 5.681l-2.748 10.099a4.5 4.5 0 0 1-4.342 3.318h-48.699c-2.966 0-5.121-2.819-4.342-5.681l2.748-10.099z" stroke="#246EDE" stroke-opacity=".6"/><path opacity=".2" d="M611.918 82.657A4.999 4.999 0 0 1 616.734 79h48.681c3.308 0 5.705 3.156 4.816 6.343l-2.68 9.608a5 5 0 0 1-4.816 3.657h-48.681c-3.309 0-5.705-3.156-4.816-6.343l2.68-9.608z" fill="#246EDE"/><path d="M606.465 87.59a5.001 5.001 0 0 1 4.825-3.688h48.699c3.296 0 5.69 3.133 4.825 6.313l-2.748 10.098a5 5 0 0 1-4.825 3.687h-48.699c-3.295 0-5.69-3.133-4.824-6.313l2.747-10.098z" fill="#fff"/><path d="M606.948 87.72a4.5 4.5 0 0 1 4.342-3.318h48.699c2.966 0 5.121 2.82 4.342 5.681l-2.748 10.099a4.5 4.5 0 0 1-4.342 3.318h-48.699c-2.966 0-5.121-2.819-4.342-5.681l2.748-10.099z" stroke="#246EDE" stroke-opacity=".6"/><path opacity=".2" d="M678.918 272.657a4.999 4.999 0 0 1 4.816-3.657h48.681c3.308 0 5.705 3.156 4.816 6.343l-2.68 9.608a5 5 0 0 1-4.816 3.657h-48.681c-3.309 0-5.705-3.156-4.816-6.343l2.68-9.608z" fill="#246EDE"/><path d="M673.465 277.589a5 5 0 0 1 4.825-3.687h48.699c3.296 0 5.69 3.133 4.825 6.313l-2.748 10.098a5 5 0 0 1-4.825 3.687h-48.699c-3.295 0-5.69-3.133-4.824-6.313l2.747-10.098z" fill="#fff"/><path d="M673.948 277.72a4.5 4.5 0 0 1 4.342-3.318h48.699c2.966 0 5.121 2.819 4.342 5.681l-2.748 10.099a4.5 4.5 0 0 1-4.342 3.318h-48.699c-2.966 0-5.121-2.819-4.342-5.681l2.748-10.099z" stroke="#246EDE" stroke-opacity=".6"/><path opacity=".2" d="M678.918 461.657a4.999 4.999 0 0 1 4.816-3.657h48.681c3.308 0 5.705 3.156 4.816 6.343l-2.68 9.608a5 5 0 0 1-4.816 3.657h-48.681c-3.309 0-5.705-3.156-4.816-6.343l2.68-9.608z" fill="#246EDE"/><path d="M673.465 466.589a5 5 0 0 1 4.825-3.687h48.699c3.296 0 5.69 3.133 4.825 6.313l-2.748 10.098a5 5 0 0 1-4.825 3.687h-48.699c-3.295 0-5.69-3.133-4.824-6.313l2.747-10.098z" fill="#fff"/><path d="M673.948 466.72a4.5 4.5 0 0 1 4.342-3.318h48.699c2.966 0 5.121 2.819 4.342 5.681l-2.748 10.099a4.5 4.5 0 0 1-4.342 3.318h-48.699c-2.966 0-5.121-2.819-4.342-5.681l2.748-10.099z" stroke="#246EDE" stroke-opacity=".6"/><path opacity=".2" d="M683.918 37.657A4.999 4.999 0 0 1 688.734 34h48.681c3.308 0 5.705 3.156 4.816 6.343l-2.68 9.608a5 5 0 0 1-4.816 3.657h-48.681c-3.309 0-5.705-3.156-4.816-6.343l2.68-9.608z" fill="#246EDE"/><path d="M678.465 42.59a5.001 5.001 0 0 1 4.825-3.688h48.699c3.296 0 5.69 3.133 4.825 6.313l-2.748 10.098A5 5 0 0 1 729.241 59h-48.699c-3.295 0-5.69-3.133-4.824-6.313l2.747-10.098z" fill="#fff"/><path d="M678.948 42.72a4.5 4.5 0 0 1 4.342-3.318h48.699c2.966 0 5.121 2.82 4.342 5.681l-2.748 10.099a4.5 4.5 0 0 1-4.342 3.318h-48.699c-2.966 0-5.121-2.82-4.342-5.681l2.748-10.099z" stroke="#246EDE" stroke-opacity=".6"/><path opacity=".2" d="M683.918 82.657A4.999 4.999 0 0 1 688.734 79h48.681c3.308 0 5.705 3.156 4.816 6.343l-2.68 9.608a5 5 0 0 1-4.816 3.657h-48.681c-3.309 0-5.705-3.156-4.816-6.343l2.68-9.608z" fill="#246EDE"/><path d="M678.465 87.59a5.001 5.001 0 0 1 4.825-3.688h48.699c3.296 0 5.69 3.133 4.825 6.313l-2.748 10.098a5 5 0 0 1-4.825 3.687h-48.699c-3.295 0-5.69-3.133-4.824-6.313l2.747-10.098z" fill="#fff"/><path d="M678.948 87.72a4.5 4.5 0 0 1 4.342-3.318h48.699c2.966 0 5.121 2.82 4.342 5.681l-2.748 10.099a4.5 4.5 0 0 1-4.342 3.318h-48.699c-2.966 0-5.121-2.819-4.342-5.681l2.748-10.099z" stroke="#246EDE" stroke-opacity=".6"/><g opacity=".2"><rect x="86.509" y="138" width="59.492" height="19.608" rx="5" fill="#246EDE"/><rect x="87.009" y="138.5" width="58.492" height="18.608" rx="4.5" stroke="#246EDE" stroke-opacity=".6"/></g><rect x="81" y="142.902" width="59.492" height="20.098" rx="5" fill="#fff"/><rect x="81.5" y="143.402" width="58.492" height="19.098" rx="4.5" stroke="#246EDE" stroke-opacity=".6"/><g opacity=".2"><rect x="86.509" y="252" width="59.492" height="19.608" rx="5" fill="#246EDE"/><rect x="87.009" y="252.5" width="58.492" height="18.608" rx="4.5" stroke="#246EDE" stroke-opacity=".6"/></g><rect x="81" y="256.902" width="59.492" height="20.098" rx="5" fill="#fff"/><rect x="81.5" y="257.402" width="58.492" height="19.098" rx="4.5" stroke="#246EDE" stroke-opacity=".6"/><g opacity=".2"><rect x="86.509" y="498" width="59.492" height="19.608" rx="5" fill="#246EDE"/><rect x="87.009" y="498.5" width="58.492" height="18.608" rx="4.5" stroke="#246EDE" stroke-opacity=".6"/></g><rect x="81" y="502.902" width="59.492" height="20.098" rx="5" fill="#fff"/><rect x="81.5" y="503.402" width="58.492" height="19.098" rx="4.5" stroke="#246EDE" stroke-opacity=".6"/><g opacity=".2"><rect x="309.509" y="444" width="59.492" height="19.608" rx="5" fill="#246EDE"/><rect x="310.009" y="444.5" width="58.492" height="18.608" rx="4.5" stroke="#246EDE" stroke-opacity=".6"/></g><rect x="304" y="448.902" width="59.492" height="20.098" rx="5" fill="#fff"/><rect x="304.5" y="449.402" width="58.492" height="19.098" rx="4.5" stroke="#246EDE" stroke-opacity=".6"/><g opacity=".2"><rect x="5.509" y="175" width="59.492" height="19.608" rx="5" fill="#246EDE"/><rect x="6.009" y="175.5" width="58.492" height="18.608" rx="4.5" stroke="#246EDE" stroke-opacity=".6"/></g><rect y="179.902" width="59.492" height="20.098" rx="5" fill="#fff"/><rect x=".5" y="180.402" width="58.492" height="19.098" rx="4.5" stroke="#246EDE" stroke-opacity=".6"/><g opacity=".2"><rect x="23.509" y="292" width="59.492" height="19.608" rx="5" fill="#246EDE"/><rect x="24.009" y="292.5" width="58.492" height="18.608" rx="4.5" stroke="#246EDE" stroke-opacity=".6"/></g><rect x="18" y="296.902" width="59.492" height="20.098" rx="5" fill="#fff"/><rect x="18.5" y="297.402" width="58.492" height="19.098" rx="4.5" stroke="#246EDE" stroke-opacity=".6"/><path d="M81.086 265H48v32m49 86H48v-66" stroke="#246EDE"/><path d="M81 151H9v29.5M81 512H9V200.5M101 64v15.36H62V95M101 143v-13.874H62V115M167 115v14.369h-39V144M167 95V79.64h-39V64M184 178v-27h-44M184 292v-27h-44M184 537v-24h-44M290 478v-20h15M378 478v-20h-15M290 551v-44M338 350v-19h-20M240 376v-46h20M426 177V71h26M520 445h-25V275h-25M378 339v27h-25M709 59v6.236H495V84M701 249v6.236H559V274M701 438v6.236H559V463M643 39V15h12M643 230v-24h12M643 419v-26h12M559 105v21h12M559 293v21h12M559 483v21h12M184 424v-41h-55M170 38h20M213 38h20M516 52h15M583 242h15M583 431h15M516 97h15M583 287h15M583 476h15M589 52h15M656 242h15M656 431h15M589 97h15M656 287h15M656 476h15M662 52h15M662 97h15M247 100v15M290 207v15M240 406v121h50M379 508v23M113 566v20M290 305v15M378 304v15M450 304v15M113 409v15M113 277v15M113 522v15M113 355v15M113 321v15M336 436v15M113 242v15M113 488v15M113 208v15M113 454v15M113 163v15M247 135v15M275 158h15M470 255h50M200 306h15M215 277h15M345 244h15M200 439h15M247 57v15M264 38h26v139" stroke="#246EDE"/><rect opacity=".1" x="238.5" y="211.5" width="117" height="83" rx="9.5" fill="#246EDE" stroke="#246EDE"/><rect x="228.5" y="221.5" width="117" height="83" rx="9.5" fill="#fff" stroke="#246EDE"/><rect x="239.5" y="232.5" width="28" height="5" rx="2.5" fill="#fff" stroke="#246EDE"/><rect x="276.5" y="241.5" width="16" height="5" rx="2.5" fill="#fff" stroke="#246EDE"/><rect x="297.5" y="241.5" width="16" height="5" rx="2.5" fill="#fff" stroke="#246EDE"/><rect x="318.5" y="241.5" width="16" height="5" rx="2.5" fill="#fff" stroke="#246EDE"/><rect x="276.5" y="232.5" width="58" height="5" rx="2.5" fill="#fff" stroke="#246EDE"/><rect x="251.5" y="242.5" width="16" height="5" rx="2.5" fill="#fff" stroke="#246EDE"/><rect x="239.5" y="242.5" width="8" height="5" rx="2.5" fill="#fff" stroke="#246EDE"/><rect x="251.5" y="252.5" width="16" height="5" rx="2.5" fill="#fff" stroke="#246EDE"/><rect x="239.5" y="252.5" width="8" height="5" rx="2.5" fill="#fff" stroke="#246EDE"/><rect x="251.5" y="262.5" width="16" height="5" rx="2.5" fill="#fff" stroke="#246EDE"/><rect x="239.5" y="262.5" width="8" height="5" rx="2.5" fill="#fff" stroke="#246EDE"/><rect x="251.5" y="272.5" width="16" height="5" rx="2.5" fill="#fff" stroke="#246EDE"/><rect x="239.5" y="272.5" width="8" height="5" rx="2.5" fill="#fff" stroke="#246EDE"/><rect x="251.5" y="282.5" width="16" height="5" rx="2.5" fill="#fff" stroke="#246EDE"/><rect x="239.5" y="282.5" width="8" height="5" rx="2.5" fill="#fff" stroke="#246EDE"/><path d="M282.154 288.284h0l.006.004c1.467.81 3.099 1.212 4.886 1.212 1.447 0 2.782-.261 3.996-.791a8.229 8.229 0 0 0 3.112-2.314l.294-.354-.328-.322-2.031-2-.376-.37-.349.394c-1.134 1.281-2.508 1.907-4.149 1.907-1.083 0-2.036-.24-2.872-.709a5.175 5.175 0 0 1-1.963-2.008c-.471-.851-.712-1.825-.712-2.933 0-1.108.241-2.082.712-2.933a4.994 4.994 0 0 1 1.96-1.981h0l.006-.004c.836-.485 1.788-.732 2.869-.732 1.644 0 3.017.62 4.151 1.884l.347.387.373-.362 2.032-1.975.332-.323-.296-.356a8.269 8.269 0 0 0-3.087-2.313c-1.214-.531-2.549-.792-3.997-.792-1.789 0-3.422.411-4.889 1.239a8.944 8.944 0 0 0-3.429 3.386c-.838 1.449-1.252 3.078-1.252 4.875 0 1.795.405 3.423 1.226 4.871h0l.002.004a9.115 9.115 0 0 0 3.426 3.409zm25.291.746l.149.22h4.594l-.528-.78-3.561-5.259c.979-.493 1.762-1.18 2.332-2.063.69-1.043 1.024-2.275 1.024-3.673 0-1.361-.308-2.564-.946-3.589-.637-1.025-1.554-1.804-2.731-2.34-1.159-.537-2.507-.796-4.03-.796h-7.466v18.5h4.144v-5.1h3.322c.147 0 .281-.002.4-.007l3.297 4.887zm-1.045-13.748l.323-.382-.323.382c.574.486.887 1.191.887 2.193 0 1-.312 1.717-.89 2.22-.585.494-1.489.78-2.794.78h-3.177V274.5h3.177c1.307 0 2.212.287 2.797.782zm23.125 13.469l.001.499h3.975l-.001-.501-.024-17.5-.001-.499h-3.378l-.144.253-6.172 10.843-6.287-10.847-.145-.249h-3.376v18.5h3.999v-10.115l4.632 7.869.145.246h1.977l.145-.249 4.634-7.998.02 9.748z" stroke="#246EDE"/><g opacity=".2"><rect x="388.509" y="225" width="59.492" height="19.608" rx="5" fill="#246EDE"/><rect x="389.009" y="225.5" width="58.492" height="18.608" rx="4.5" stroke="#246EDE" stroke-opacity=".6"/></g><rect x="383" y="229.902" width="59.492" height="20.098" rx="5" fill="#fff"/><rect x="383.5" y="230.402" width="58.492" height="19.098" rx="4.5" stroke="#246EDE" stroke-opacity=".6"/><g opacity=".2"><rect x="388.509" y="260" width="59.492" height="19.608" rx="5" fill="#246EDE"/><rect x="389.009" y="260.5" width="58.492" height="18.608" rx="4.5" stroke="#246EDE" stroke-opacity=".6"/></g><rect x="383" y="264.902" width="59.492" height="20.098" rx="5" fill="#fff"/><rect x="383.5" y="265.402" width="58.492" height="19.098" rx="4.5" stroke="#246EDE" stroke-opacity=".6"/><g opacity=".2"><rect x="388.509" y="190" width="59.492" height="19.608" rx="5" fill="#246EDE"/><rect x="389.009" y="190.5" width="58.492" height="18.608" rx="4.5" stroke="#246EDE" stroke-opacity=".6"/></g><rect x="383" y="194.902" width="59.492" height="20.098" rx="5" fill="#fff"/><rect x="383.5" y="195.402" width="58.492" height="19.098" rx="4.5" stroke="#246EDE" stroke-opacity=".6"/><rect opacity=".2" x="457.704" y="26" width="26.363" height="18.927" rx="2" fill="#246EDE"/><rect x="455.5" y="28.528" width="25.981" height="18.604" rx="2.5" fill="#fff" stroke="#246EDE"/><path d="M481.051 29.008l-12.56 11.517-12.561-11.517M481.051 46.896l-9.769-8.957m-15.352 8.957l9.769-8.957" stroke="#246EDE"/><rect opacity=".2" x="524.704" y="216" width="26.363" height="18.927" rx="2" fill="#246EDE"/><rect x="522.5" y="218.528" width="25.981" height="18.604" rx="2.5" fill="#fff" stroke="#246EDE"/><path d="M548.051 219.008l-12.56 11.517-12.561-11.517M548.051 236.896l-9.769-8.957m-15.352 8.957l9.769-8.957" stroke="#246EDE"/><rect opacity=".2" x="524.704" y="405" width="26.363" height="18.927" rx="2" fill="#246EDE"/><rect x="522.5" y="407.528" width="25.981" height="18.604" rx="2.5" fill="#fff" stroke="#246EDE"/><path d="M548.051 408.008l-12.56 11.517-12.561-11.517M548.051 425.896l-9.769-8.957m-15.352 8.957l9.769-8.957" stroke="#246EDE"/><rect opacity=".2" x="457.704" y="71" width="26.363" height="18.927" rx="2" fill="#246EDE"/><rect x="455.5" y="73.528" width="25.981" height="18.604" rx="2.5" fill="#fff" stroke="#246EDE"/><path opacity=".2" d="M481.051 74.008l-12.56 11.517-12.561-11.517" stroke="#246EDE"/><path d="M481.051 91.896l-9.769-8.957m-15.352 8.957l9.769-8.957" stroke="#246EDE"/><rect opacity=".2" x="524.704" y="261" width="26.363" height="18.927" rx="2" fill="#246EDE"/><rect x="522.5" y="263.528" width="25.981" height="18.604" rx="2.5" fill="#fff" stroke="#246EDE"/><path d="M548.051 264.008l-12.56 11.517-12.561-11.517M548.051 281.896l-9.769-8.957m-15.352 8.957l9.769-8.957" stroke="#246EDE"/><rect opacity=".2" x="524.704" y="450" width="26.363" height="18.927" rx="2" fill="#246EDE"/><rect x="522.5" y="452.528" width="25.981" height="18.604" rx="2.5" fill="#fff" stroke="#246EDE"/><path d="M548.051 453.008l-12.56 11.517-12.561-11.517M548.051 470.896l-9.769-8.957m-15.352 8.957l9.769-8.957" stroke="#246EDE"/><rect opacity=".2" x="531.704" y="26" width="26.363" height="18.927" rx="2" fill="#246EDE"/><rect x="529.5" y="28.528" width="25.981" height="18.604" rx="2.5" fill="#fff" stroke="#246EDE"/><path d="M555.051 29.008l-12.56 11.517-12.561-11.517M555.051 46.896l-9.769-8.957m-15.352 8.957l9.769-8.957" stroke="#246EDE"/><rect opacity=".2" x="598.704" y="216" width="26.363" height="18.927" rx="2" fill="#246EDE"/><rect x="596.5" y="218.528" width="25.981" height="18.604" rx="2.5" fill="#fff" stroke="#246EDE"/><path d="M622.051 219.008l-12.56 11.517-12.561-11.517M622.051 236.896l-9.769-8.957m-15.352 8.957l9.769-8.957" stroke="#246EDE"/><rect opacity=".2" x="598.704" y="405" width="26.363" height="18.927" rx="2" fill="#246EDE"/><rect x="596.5" y="407.528" width="25.981" height="18.604" rx="2.5" fill="#fff" stroke="#246EDE"/><path d="M622.051 408.008l-12.56 11.517-12.561-11.517M622.051 425.896l-9.769-8.957m-15.352 8.957l9.769-8.957" stroke="#246EDE"/><rect opacity=".2" x="531.704" y="71" width="26.363" height="18.927" rx="2" fill="#246EDE"/><rect x="529.5" y="73.528" width="25.981" height="18.604" rx="2.5" fill="#fff" stroke="#246EDE"/><path d="M555.051 74.008l-12.56 11.517-12.561-11.517M555.051 91.896l-9.769-8.957m-15.352 8.957l9.769-8.957" stroke="#246EDE"/><rect opacity=".2" x="598.704" y="261" width="26.363" height="18.927" rx="2" fill="#246EDE"/><rect x="596.5" y="263.528" width="25.981" height="18.604" rx="2.5" fill="#fff" stroke="#246EDE"/><path d="M622.051 264.008l-12.56 11.517-12.561-11.517M622.051 281.896l-9.769-8.957m-15.352 8.957l9.769-8.957" stroke="#246EDE"/><rect opacity=".2" x="598.704" y="450" width="26.363" height="18.927" rx="2" fill="#246EDE"/><rect x="596.5" y="452.528" width="25.981" height="18.604" rx="2.5" fill="#fff" stroke="#246EDE"/><path d="M622.051 453.008l-12.56 11.517-12.561-11.517M622.051 470.896l-9.769-8.957m-15.352 8.957l9.769-8.957" stroke="#246EDE"/><rect opacity=".2" x="604.704" y="26" width="26.363" height="18.927" rx="2" fill="#246EDE"/><rect x="602.5" y="28.528" width="25.981" height="18.604" rx="2.5" fill="#fff" stroke="#246EDE"/><path d="M628.051 29.008l-12.56 11.517-12.561-11.517M628.051 46.896l-9.769-8.957m-15.352 8.957l9.769-8.957" stroke="#246EDE"/><rect opacity=".2" x="671.704" y="216" width="26.363" height="18.927" rx="2" fill="#246EDE"/><rect x="669.5" y="218.528" width="25.981" height="18.604" rx="2.5" fill="#fff" stroke="#246EDE"/><path d="M695.051 219.008l-12.56 11.517-12.561-11.517M695.051 236.896l-9.769-8.957m-15.352 8.957l9.769-8.957" stroke="#246EDE"/><rect opacity=".2" x="671.704" y="405" width="26.363" height="18.927" rx="2" fill="#246EDE"/><rect x="669.5" y="407.528" width="25.981" height="18.604" rx="2.5" fill="#fff" stroke="#246EDE"/><path d="M695.051 408.008l-12.56 11.517-12.561-11.517M695.051 425.896l-9.769-8.957m-15.352 8.957l9.769-8.957" stroke="#246EDE"/><rect opacity=".2" x="604.704" y="71" width="26.363" height="18.927" rx="2" fill="#246EDE"/><rect x="602.5" y="73.528" width="25.981" height="18.604" rx="2.5" fill="#fff" stroke="#246EDE"/><path d="M628.051 74.008l-12.56 11.517-12.561-11.517M628.051 91.896l-9.769-8.957m-15.352 8.957l9.769-8.957" stroke="#246EDE"/><rect opacity=".2" x="671.704" y="261" width="26.363" height="18.927" rx="2" fill="#246EDE"/><rect x="669.5" y="263.528" width="25.981" height="18.604" rx="2.5" fill="#fff" stroke="#246EDE"/><path d="M695.051 264.008l-12.56 11.517-12.561-11.517M695.051 281.896l-9.769-8.957m-15.352 8.957l9.769-8.957" stroke="#246EDE"/><rect opacity=".2" x="671.704" y="450" width="26.363" height="18.927" rx="2" fill="#246EDE"/><rect x="669.5" y="452.528" width="25.981" height="18.604" rx="2.5" fill="#fff" stroke="#246EDE"/><path d="M695.051 453.008l-12.56 11.517-12.561-11.517M695.051 470.896l-9.769-8.957m-15.352 8.957l9.769-8.957" stroke="#246EDE"/><rect opacity=".2" x="676.704" y="26" width="26.363" height="18.927" rx="2" fill="#246EDE"/><rect x="674.5" y="28.528" width="25.981" height="18.604" rx="2.5" fill="#fff" stroke="#246EDE"/><path d="M700.051 29.008l-12.56 11.517-12.561-11.517M700.051 46.896l-9.769-8.957m-15.352 8.957l9.769-8.957" stroke="#246EDE"/><rect opacity=".2" x="676.704" y="71" width="26.363" height="18.927" rx="2" fill="#246EDE"/><rect x="674.5" y="73.528" width="25.981" height="18.604" rx="2.5" fill="#fff" stroke="#246EDE"/><path d="M700.051 74.008l-12.56 11.517-12.561-11.517M700.051 91.896l-9.769-8.957m-15.352 8.957l9.769-8.957" stroke="#246EDE"/><path d="M673.63 11.295a1 1 0 0 0-1-1h-11.985a1 1 0 0 0 0 2h11.985a1 1 0 0 0 1-1zM666.935 15.78a1 1 0 0 0-1-1h-5.29a1 1 0 1 0 0 2h5.29a1 1 0 0 0 1-1zM673.63 15.78a1 1 0 0 0-1-1h-2.42a1 1 0 0 0 0 2h2.42a1 1 0 0 0 1-1z" fill="#fff" stroke="#246EDE"/><path d="M657.094 11a4.5 4.5 0 0 1 4.5-4.5H672a4.5 4.5 0 0 1 4.5 4.5v4.598a4.5 4.5 0 0 1-4.5 4.5H660.179a5.5 5.5 0 0 0-1.867.327l-2.458.886.881-2.317a5.486 5.486 0 0 0 .359-1.954V11z" stroke="#246EDE"/><path d="M673.63 203.295a1 1 0 0 0-1-1h-11.985a1 1 0 0 0 0 2h11.985a1 1 0 0 0 1-1zM666.935 207.78a1 1 0 0 0-1-1h-5.29a1 1 0 1 0 0 2h5.29a1 1 0 0 0 1-1zM673.63 207.78a1 1 0 0 0-1-1h-2.42a1 1 0 0 0 0 2h2.42a1 1 0 0 0 1-1z" fill="#fff" stroke="#246EDE"/><path d="M657.094 203a4.5 4.5 0 0 1 4.5-4.5H672a4.5 4.5 0 0 1 4.5 4.5v4.598a4.5 4.5 0 0 1-4.5 4.5H660.179c-.637 0-1.268.111-1.867.327l-2.458.886.881-2.317a5.481 5.481 0 0 0 .359-1.954V203z" stroke="#246EDE"/><path d="M673.63 391.295a1 1 0 0 0-1-1h-11.985a1 1 0 0 0 0 2h11.985a1 1 0 0 0 1-1zM666.935 395.78a1 1 0 0 0-1-1h-5.29a1 1 0 1 0 0 2h5.29a1 1 0 0 0 1-1zM673.63 395.78a1 1 0 0 0-1-1h-2.42a1 1 0 0 0 0 2h2.42a1 1 0 0 0 1-1z" fill="#fff" stroke="#246EDE"/><path d="M657.094 391a4.5 4.5 0 0 1 4.5-4.5H672a4.5 4.5 0 0 1 4.5 4.5v4.598a4.5 4.5 0 0 1-4.5 4.5H660.179c-.637 0-1.268.111-1.867.327l-2.458.886.881-2.317a5.481 5.481 0 0 0 .359-1.954V391z" stroke="#246EDE"/><path opacity=".1" d="M590 137.273h-14.614a1.5 1.5 0 0 1-1.5-1.5V114a1.5 1.5 0 0 1 1.5-1.5h11.283c.384 0 .753.147 1.032.411l3.331 3.156a1.5 1.5 0 0 1 .468 1.089v18.617a1.5 1.5 0 0 1-1.5 1.5z" fill="#246EDE" stroke="#246EDE"/><path d="M587.614 139.682H573a2 2 0 0 1-2-2v-21.773a2 2 0 0 1 2-2h12.08l4.534 4.296v19.477a2 2 0 0 1-2 2z" fill="#fff"/><path d="M587.614 139.182H573a1.5 1.5 0 0 1-1.5-1.5v-21.773a1.5 1.5 0 0 1 1.5-1.5h11.88l4.234 4.011v19.262a1.5 1.5 0 0 1-1.5 1.5z" stroke="#246EDE" stroke-opacity=".6"/><path opacity=".6" d="M573 122h14M573 125h14M573 128h14M573 131h14M573 134h14" stroke="#246EDE"/><path opacity=".1" d="M590 325.273h-14.614a1.5 1.5 0 0 1-1.5-1.5V302a1.5 1.5 0 0 1 1.5-1.5h11.283c.384 0 .753.147 1.032.411l3.331 3.156a1.5 1.5 0 0 1 .468 1.089v18.617a1.5 1.5 0 0 1-1.5 1.5z" fill="#246EDE" stroke="#246EDE"/><path d="M587.614 327.682H573a2 2 0 0 1-2-2v-21.773a2 2 0 0 1 2-2h12.08l4.534 4.296v19.477a2 2 0 0 1-2 2z" fill="#fff"/><path d="M587.614 327.182H573a1.5 1.5 0 0 1-1.5-1.5v-21.773a1.5 1.5 0 0 1 1.5-1.5h11.88l4.234 4.011v19.262a1.5 1.5 0 0 1-1.5 1.5z" stroke="#246EDE" stroke-opacity=".6"/><path opacity=".6" d="M573 310h14M573 313h14M573 316h14M573 319h14M573 322h14" stroke="#246EDE"/><path opacity=".1" d="M590 515.273h-14.614a1.5 1.5 0 0 1-1.5-1.5V492a1.5 1.5 0 0 1 1.5-1.5h11.283c.384 0 .753.147 1.032.411l3.331 3.156a1.5 1.5 0 0 1 .468 1.089v18.617a1.5 1.5 0 0 1-1.5 1.5z" fill="#246EDE" stroke="#246EDE"/><path d="M587.614 517.682H573a2 2 0 0 1-2-2v-21.773a2 2 0 0 1 2-2h12.08l4.534 4.296v19.477a2 2 0 0 1-2 2z" fill="#fff"/><path d="M587.614 517.182H573a1.5 1.5 0 0 1-1.5-1.5v-21.773a1.5 1.5 0 0 1 1.5-1.5h11.88l4.234 4.011v19.262a1.5 1.5 0 0 1-1.5 1.5z" stroke="#246EDE" stroke-opacity=".6"/><path opacity=".6" d="M573 500h14M573 503h14M573 506h14M573 509h14M573 512h14" stroke="#246EDE"/><circle opacity=".3" cx="262.909" cy="572.205" r="16.205" fill="#246EDE"/><circle cx="259.205" cy="574.983" r="15.705" fill="#fff" stroke="#246EDE"/><circle cx="259.205" cy="574.983" r="12.927" stroke="#246EDE"/><path d="M258.967 575.402v1.705h3.541v2.622h-3.541v3.125h-3.309v-3.125h-1.546v-2.622h1.546v-9.995h5.321c1.629 0 2.898.35 3.807 1.049.909.7 1.364 1.732 1.364 3.096s-.455 2.396-1.364 3.096c-.909.7-2.178 1.049-3.807 1.049h-2.012zm3.857-4.11c0-.466-.166-.822-.499-1.067-.321-.256-.781-.385-1.38-.385h-1.978v2.921h1.978c.599 0 1.059-.128 1.38-.384.333-.257.499-.618.499-1.085z" stroke="#246EDE"/><circle opacity=".3" cx="306.909" cy="577.205" r="16.205" fill="#246EDE"/><circle cx="303.205" cy="579.983" r="15.705" fill="#fff" stroke="#246EDE"/><circle cx="303.205" cy="579.983" r="12.927" stroke="#246EDE"/><path d="M302.967 580.402v1.705h3.541v2.622h-3.541v3.125h-3.309v-3.125h-1.546v-2.622h1.546v-9.995h5.321c1.629 0 2.898.35 3.807 1.049.909.7 1.364 1.732 1.364 3.096s-.455 2.396-1.364 3.096c-.909.7-2.178 1.049-3.807 1.049h-2.012zm3.857-4.11c0-.466-.166-.822-.499-1.067-.321-.256-.781-.385-1.38-.385h-1.978v2.921h1.978c.599 0 1.059-.128 1.38-.384.333-.257.499-.618.499-1.085z" stroke="#246EDE"/><circle opacity=".3" cx="279.909" cy="610.205" r="16.205" fill="#246EDE"/><circle cx="276.205" cy="612.983" r="15.705" fill="#fff" stroke="#246EDE"/><circle cx="276.205" cy="612.983" r="12.927" stroke="#246EDE"/><path d="M275.967 613.402v1.705h3.541v2.622h-3.541v3.125h-3.309v-3.125h-1.546v-2.622h1.546v-9.995h5.321c1.629 0 2.898.35 3.807 1.049.909.7 1.364 1.732 1.364 3.096s-.455 2.396-1.364 3.096c-.909.7-2.178 1.049-3.807 1.049h-2.012zm3.857-4.11c0-.466-.166-.822-.499-1.067-.321-.256-.781-.385-1.38-.385h-1.978v2.921h1.978c.599 0 1.059-.128 1.38-.384.333-.257.499-.618.499-1.085z" stroke="#246EDE"/><path opacity=".3" d="M380.576 527.866a3 3 0 0 1 3 0l16.246 9.38a3 3 0 0 1 1.5 2.598v18.759a2.999 2.999 0 0 1-1.5 2.598l-16.246 9.38a3 3 0 0 1-3 0l-16.247-9.38a2.999 2.999 0 0 1-1.5-2.598v-18.759a3 3 0 0 1 1.5-2.598l16.247-9.38z" fill="#246EDE" fill-opacity=".3"/><path d="M378.974 532.003a2.498 2.498 0 0 1 2.5 0l16.246 9.38a2.5 2.5 0 0 1 1.25 2.165v18.759a2.5 2.5 0 0 1-1.25 2.165l-16.246 9.38a2.498 2.498 0 0 1-2.5 0l-16.247-9.38a2.5 2.5 0 0 1-1.25-2.165v-18.759a2.5 2.5 0 0 1 1.25-2.165l16.247-9.38z" fill="#fff" stroke="#246EDE"/><path d="M378.974 535.707a2.498 2.498 0 0 1 2.5 0l13.038 7.528a2.498 2.498 0 0 1 1.25 2.165v15.055c0 .893-.476 1.719-1.25 2.165l-13.038 7.528a2.498 2.498 0 0 1-2.5 0l-13.039-7.528a2.5 2.5 0 0 1-1.25-2.165V545.4a2.5 2.5 0 0 1 1.25-2.165l13.039-7.528z" stroke="#246EDE"/><path d="M373.742 548.298l-4.63 5.093 4.63 5.092M385.779 548.298l4.63 5.093-4.63 5.092M383.928 545.52l-8.334 15.741" stroke="#246EDE" stroke-linecap="round"/><path opacity=".3" d="M113.576 582.866a3 3 0 0 1 3 0l16.246 9.38a3 3 0 0 1 1.5 2.598v18.759a2.999 2.999 0 0 1-1.5 2.598l-16.246 9.38a3 3 0 0 1-3 0l-16.247-9.38a2.999 2.999 0 0 1-1.5-2.598v-18.759a3 3 0 0 1 1.5-2.598l16.247-9.38z" fill="#246EDE" fill-opacity=".3"/><path d="M111.974 587.003a2.498 2.498 0 0 1 2.5 0l16.246 9.38a2.5 2.5 0 0 1 1.25 2.165v18.759a2.5 2.5 0 0 1-1.25 2.165l-16.246 9.38a2.498 2.498 0 0 1-2.5 0l-16.247-9.38a2.5 2.5 0 0 1-1.25-2.165v-18.759a2.5 2.5 0 0 1 1.25-2.165l16.247-9.38z" fill="#fff" stroke="#246EDE"/><path d="M111.974 590.707a2.498 2.498 0 0 1 2.5 0l13.038 7.528a2.498 2.498 0 0 1 1.25 2.165v15.055c0 .893-.476 1.719-1.25 2.165l-13.038 7.528a2.498 2.498 0 0 1-2.5 0l-13.039-7.528a2.5 2.5 0 0 1-1.25-2.165V600.4a2.5 2.5 0 0 1 1.25-2.165l13.039-7.528z" stroke="#246EDE"/><path d="M106.742 603.298l-4.63 5.093 4.63 5.092M118.779 603.298l4.63 5.093-4.63 5.092M116.928 600.52l-8.334 15.741" stroke="#246EDE" stroke-linecap="round"/><path d="M200 193h15v359h-15M434 337v54H255" stroke="#246EDE"/><path d="M466 338v81H352" stroke="#246EDE"/><path opacity=".3" d="M205.279 46.15c-6.397 0-11.575-5.179-11.575-11.575 0-6.397 5.178-11.575 11.575-11.575 6.396 0 11.575 5.178 11.575 11.575 0 6.396-5.179 11.575-11.575 11.575z" fill="#246EDE" fill-opacity=".3"/><path d="M201.575 49.854c-6.397 0-11.575-5.179-11.575-11.575 0-6.397 5.178-11.575 11.575-11.575 6.396 0 11.575 5.178 11.575 11.575 0 6.396-5.179 11.575-11.575 11.575z" fill="#fff" stroke="#246EDE" stroke-miterlimit="10"/><path d="M206.582 34.544h.001l-.004-.01a2 2 0 0 0-.504-.755 2.005 2.005 0 0 0-.749-.502c-.201-.13-.581-.251-1.189-.252-.671-.06-.86-.06-2.558-.06H201.57c-1.701 0-1.887 0-2.561.06h0c-.48.049-.777.135-.997.199-.063.018-.119.034-.171.047h-.001l-.009.004a1.994 1.994 0 0 0-.756.504 1.984 1.984 0 0 0-.501.749c-.132.2-.252.58-.252 1.189-.061.67-.061.86-.061 2.557V38.283c0 1.701 0 1.888.061 2.561h0c.048.48.134.778.198.998l.048.171h-.001l.004.01a2 2 0 0 0 .504.756c.248.248.438.376.749.501.201.131.58.251 1.189.252.671.06.859.06 2.557.06h.005c.854 0 1.327-.014 1.671-.03l.22-.01c.228-.011.411-.02.667-.02v0h.008c.48-.048.777-.135.997-.198a5.14 5.14 0 0 1 .171-.048h0l.01-.003c.314-.126.506-.254.756-.504.249-.249.376-.439.501-.75.131-.2.252-.58.252-1.188.061-.671.061-.86.061-2.558v-.004c0-.854-.015-1.328-.031-1.671l-.01-.22c-.011-.228-.02-.412-.02-.668h0v-.007c-.048-.48-.135-.778-.198-.997-.018-.063-.035-.12-.048-.172zm-9.12-2.227h0l.004-.002c.35-.176.823-.236 1.496-.297.666-.06.906-.06 2.613-.06.852 0 1.338.014 1.695.03l.227.01c.239.01.436.02.694.02.667.06 1.082.121 1.495.298.365.182.72.36 1.075.716h0l.005.004c.351.293.528.644.71 1.069h0l.002.004c.175.35.236.823.297 1.496.06.666.061.906.061 2.613 0 1.706-.001 1.946-.061 2.612-.061.67-.121 1.085-.298 1.499-.182.364-.361.72-.716 1.075h0l-.005.005c-.292.35-.644.528-1.068.71h0l-.004.002c-.351.175-.823.236-1.496.297-.666.06-.907.06-2.613.06-1.707 0-1.947 0-2.613-.06-.669-.061-1.084-.121-1.498-.298-.365-.183-.72-.36-1.075-.716h0l-.005-.005c-.351-.292-.528-.644-.71-1.068h0l-.002-.004c-.176-.35-.236-.823-.297-1.496-.061-.667-.061-.907-.061-2.613 0-1.707 0-1.947.061-2.613.061-.669.121-1.084.298-1.498.182-.365.36-.72.716-1.075h0l.004-.005c.293-.351.644-.529 1.069-.71z" fill="#246EDE" stroke="#fff" stroke-width=".15"/><path d="M198.36 38.279a3.201 3.201 0 0 1 3.215-3.215c1.723 0 3.154 1.427 3.215 3.216a3.201 3.201 0 0 1-3.215 3.213 3.201 3.201 0 0 1-3.215-3.214zm1.008 0c0 1.199 1.008 2.207 2.207 2.207 1.199 0 2.207-1.008 2.207-2.207 0-1.2-1.008-2.208-2.207-2.208-1.199 0-2.207 1.009-2.207 2.208zM205.642 34.867a.731.731 0 0 1-.717.717.731.731 0 0 1-.717-.717c0-.383.329-.714.712-.717.401.06.722.342.722.717z" fill="#246EDE" stroke="#fff" stroke-width=".15"/></g><defs><linearGradient id="paint0_linear" x1="375" y1="0" x2="375" y2="640" gradientUnits="userSpaceOnUse"><stop stop-color="#fff" stop-opacity=".42"/><stop offset="1" stop-color="#fff"/></linearGradient></defs></svg>