<svg width="675" height="526" fill="none" xmlns="http://www.w3.org/2000/svg"><g opacity=".05"><rect x="325.946" y="52.781" width="163.051" height="87.042" rx="10" fill="#E6E7E8"/><path d="M389.91 68.807c0-.816.662-1.478 1.479-1.478h17.745a1.479 1.479 0 1 1 0 2.957h-17.745a1.479 1.479 0 0 1-1.479-1.479zM351.462 68.807c0-.816.662-1.478 1.479-1.478h13.802a1.479 1.479 0 1 1 0 2.957h-13.802a1.479 1.479 0 0 1-1.479-1.479zM372.658 68.807c0-.816.662-1.478 1.479-1.478h9.365a1.479 1.479 0 1 1 0 2.957h-9.365a1.479 1.479 0 0 1-1.479-1.479z" fill="#E6E7E8"/><path d="M414.557 68.807c0-.816.662-1.478 1.478-1.478h11.337a1.479 1.479 0 1 1 0 2.957h-11.337a1.479 1.479 0 0 1-1.478-1.479z" fill="#fff"/><path d="M372.165 97.89c0-.817.662-1.479 1.479-1.479h16.759a1.479 1.479 0 1 1 0 2.958h-16.759a1.479 1.479 0 0 1-1.479-1.48zM377.094 102.819c0-.817.662-1.479 1.479-1.479h11.83a1.479 1.479 0 1 1 0 2.958h-11.83a1.479 1.479 0 0 1-1.479-1.479zM334.703 97.89c0-.817.662-1.479 1.479-1.479h12.323a1.479 1.479 0 1 1 0 2.958h-12.323a1.479 1.479 0 0 1-1.479-1.48zM353.434 97.89c0-.817.662-1.479 1.479-1.479h12.323a1.479 1.479 0 1 1 0 2.958h-12.323a1.479 1.479 0 0 1-1.479-1.48zM334.703 102.819c0-.817.662-1.479 1.479-1.479h21.196a1.479 1.479 0 0 1 0 2.958h-21.196a1.479 1.479 0 0 1-1.479-1.479zM362.307 102.819c0-.817.662-1.479 1.478-1.479h8.38a1.479 1.479 0 1 1 0 2.958h-8.38a1.479 1.479 0 0 1-1.478-1.479zM334.703 107.748c0-.816.662-1.478 1.479-1.478h9.365a1.479 1.479 0 1 1 0 2.957h-9.365a1.479 1.479 0 0 1-1.479-1.479zM350.477 107.748c0-.816.662-1.478 1.478-1.478h8.38a1.479 1.479 0 1 1 0 2.957h-8.38a1.479 1.479 0 0 1-1.478-1.479zM365.264 107.748c0-.816.662-1.478 1.479-1.478h7.394a1.48 1.48 0 0 1 0 2.957h-7.394a1.479 1.479 0 0 1-1.479-1.479zM379.066 107.748c0-.816.662-1.478 1.479-1.478h9.858a1.479 1.479 0 1 1 0 2.957h-9.858a1.479 1.479 0 0 1-1.479-1.479z" fill="#E6E7E8"/><rect x="467.97" y="61.421" width="2.943" height="2.943" rx="1.472" stroke="#fff"/><circle cx="339.632" cy="68.314" r="4.429" stroke="#fff"/><path d="M477.328 61.414l-2.957 2.957M474.371 61.414l2.957 2.957M464.513 62.893h-3.451" stroke="#fff"/><path d="M414.557 94.581c0-5.523 4.477-10 10-10h43.586c5.523 0 10 4.477 10 10v20.913c0 5.522-4.477 10-10 10h-43.586c-5.523 0-10-4.478-10-10V94.581zM334.703 121.304a4.683 4.683 0 0 1 4.683-4.683h26.125a4.683 4.683 0 0 1 0 9.366h-26.125a4.683 4.683 0 0 1-4.683-4.683zM334.703 86.8c0-1.226.993-2.219 2.218-2.219h22.182a2.218 2.218 0 0 1 0 4.436h-22.182a2.218 2.218 0 0 1-2.218-2.218zM384.094 86.8c0-1.226.993-2.219 2.218-2.219h12.816a2.218 2.218 0 0 1 0 4.436h-12.816a2.218 2.218 0 0 1-2.218-2.218zM364.278 86.8c0-1.226.993-2.219 2.218-2.219h12.422a2.218 2.218 0 0 1 0 4.436h-12.422a2.218 2.218 0 0 1-2.218-2.218z" fill="#fff"/></g><g opacity=".05"><rect x="33.336" y="274.091" width="246.311" height="131.49" rx="10" fill="#E6E7E8"/><path d="M129.962 298.301a2.234 2.234 0 0 1 2.234-2.234h26.807a2.234 2.234 0 1 1 0 4.468h-26.807c-1.233 0-2.234-1-2.234-2.234zM71.882 298.301c0-1.234 1-2.234 2.233-2.234h20.85a2.234 2.234 0 1 1 0 4.468h-20.85c-1.233 0-2.233-1-2.233-2.234zM103.901 298.301c0-1.234 1-2.234 2.233-2.234h14.148a2.234 2.234 0 1 1 0 4.468h-14.148c-1.233 0-2.233-1-2.233-2.234z" fill="#E6E7E8"/><path d="M167.194 298.301c0-1.234 1-2.234 2.234-2.234h17.126a2.234 2.234 0 1 1 0 4.468h-17.126c-1.234 0-2.234-1-2.234-2.234z" fill="#fff"/><path d="M103.156 342.234c0-1.234 1-2.234 2.234-2.234h25.317a2.234 2.234 0 1 1 0 4.468H105.39c-1.234 0-2.234-1-2.234-2.234zM110.602 349.68c0-1.234 1-2.234 2.234-2.234h17.871a2.234 2.234 0 1 1 0 4.468h-17.871c-1.234 0-2.234-1-2.234-2.234zM46.564 342.234c0-1.234 1-2.234 2.234-2.234h18.616a2.234 2.234 0 1 1 0 4.468H48.798c-1.234 0-2.234-1-2.234-2.234zM74.86 342.234c0-1.234 1-2.234 2.234-2.234H95.71a2.234 2.234 0 1 1 0 4.468H77.094c-1.234 0-2.234-1-2.234-2.234zM46.564 349.68c0-1.234 1-2.234 2.234-2.234h32.02a2.234 2.234 0 1 1 0 4.468h-32.02c-1.234 0-2.234-1-2.234-2.234zM88.263 349.68c0-1.234 1-2.234 2.234-2.234h12.659a2.234 2.234 0 1 1 0 4.468H90.497c-1.234 0-2.234-1-2.234-2.234zM46.564 357.126c0-1.233 1-2.233 2.234-2.233h14.148a2.234 2.234 0 1 1 0 4.467H48.798c-1.234 0-2.234-1-2.234-2.234zM70.392 357.126c0-1.233 1-2.233 2.234-2.233h12.659a2.234 2.234 0 1 1 0 4.467H72.626c-1.234 0-2.234-1-2.234-2.234zM92.731 357.126c0-1.233 1-2.233 2.234-2.233h11.169a2.234 2.234 0 1 1 0 4.467H94.965c-1.234 0-2.234-1-2.234-2.234zM113.581 357.126c0-1.233 1-2.233 2.234-2.233h14.892a2.234 2.234 0 1 1 0 4.467h-14.892c-1.234 0-2.234-1-2.234-2.234z" fill="#E6E7E8"/><rect x="247.627" y="286.887" width="4.957" height="4.957" rx="1.5" stroke="#fff"/><circle cx="54.011" cy="297.556" r="6.946" stroke="#fff"/><path d="M262.02 287.131l-4.468 4.468M257.552 287.131l4.468 4.468M242.659 289.365h-5.212" stroke="#fff"/><path d="M167.194 332.129c0-5.523 4.477-10 10-10h76.057c5.523 0 10 4.477 10 10v41.804c0 5.523-4.477 10-10 10h-76.057c-5.523 0-10-4.477-10-10v-41.804zM46.564 377.604a7.074 7.074 0 0 1 7.074-7.074h39.465a7.074 7.074 0 0 1 7.074 7.074 7.074 7.074 0 0 1-7.074 7.074H53.638a7.074 7.074 0 0 1-7.074-7.074zM46.564 325.48a3.35 3.35 0 0 1 3.351-3.351h33.508a3.35 3.35 0 1 1 0 6.702H49.915a3.351 3.351 0 0 1-3.35-3.351zM121.176 325.48a3.35 3.35 0 0 1 3.351-3.351h19.36a3.35 3.35 0 1 1 0 6.702h-19.36a3.351 3.351 0 0 1-3.351-3.351zM91.242 325.48a3.35 3.35 0 0 1 3.35-3.351h18.765a3.35 3.35 0 1 1 0 6.702H94.593a3.351 3.351 0 0 1-3.351-3.351z" fill="#fff"/></g><g opacity=".5"><path opacity=".1" d="M428.305 250.756a9.5 9.5 0 0 1 9.5-9.5h226.311a9.5 9.5 0 0 1 9.5 9.5v111.489a9.5 9.5 0 0 1-9.5 9.5H437.805a9.5 9.5 0 0 1-9.5-9.5V250.756z" fill="#246EDE" stroke="#246EDE"/><path opacity=".2" d="M524.431 264.966c0-1.234 1-2.234 2.234-2.234h26.807a2.234 2.234 0 0 1 0 4.468h-26.807c-1.234 0-2.234-1-2.234-2.234zM466.35 264.966c0-1.234 1-2.234 2.234-2.234h20.85a2.234 2.234 0 1 1 0 4.468h-20.85c-1.234 0-2.234-1-2.234-2.234zM498.369 264.966c0-1.234 1-2.234 2.234-2.234h14.148a2.234 2.234 0 1 1 0 4.468h-14.148c-1.234 0-2.234-1-2.234-2.234z" fill="#246EDE"/><path d="M561.663 264.966c0-1.234 1-2.234 2.233-2.234h17.127a2.234 2.234 0 1 1 0 4.468h-17.127c-1.233 0-2.233-1-2.233-2.234z" fill="#fff"/><path opacity=".2" d="M497.625 308.899c0-1.234 1-2.234 2.234-2.234h25.317a2.234 2.234 0 1 1 0 4.468h-25.317c-1.234 0-2.234-1-2.234-2.234zM505.071 316.345c0-1.234 1-2.234 2.234-2.234h17.871a2.234 2.234 0 1 1 0 4.468h-17.871c-1.234 0-2.234-1-2.234-2.234zM441.033 308.899c0-1.234 1-2.234 2.234-2.234h18.616a2.234 2.234 0 0 1 0 4.468h-18.616c-1.234 0-2.234-1-2.234-2.234zM469.329 308.899c0-1.234 1-2.234 2.234-2.234h18.615a2.234 2.234 0 1 1 0 4.468h-18.615c-1.234 0-2.234-1-2.234-2.234zM441.033 316.345c0-1.234 1-2.234 2.234-2.234h32.019a2.234 2.234 0 1 1 0 4.468h-32.019c-1.234 0-2.234-1-2.234-2.234zM482.732 316.345c0-1.234 1-2.234 2.234-2.234h12.659a2.234 2.234 0 0 1 0 4.468h-12.659c-1.234 0-2.234-1-2.234-2.234zM441.033 323.791c0-1.233 1-2.233 2.234-2.233h14.148a2.234 2.234 0 0 1 0 4.467h-14.148c-1.234 0-2.234-1-2.234-2.234zM464.861 323.791c0-1.233 1-2.233 2.234-2.233h12.659a2.234 2.234 0 0 1 0 4.467h-12.659c-1.234 0-2.234-1-2.234-2.234z" fill="#246EDE"/><path d="M487.2 323.791c0-1.233 1-2.233 2.234-2.233h11.169a2.234 2.234 0 1 1 0 4.467h-11.169c-1.234 0-2.234-1-2.234-2.234z" fill="#E6E7E8"/><path opacity=".2" d="M508.049 323.791a2.234 2.234 0 0 1 2.234-2.233h14.893a2.234 2.234 0 1 1 0 4.467h-14.893c-1.233 0-2.234-1-2.234-2.234z" fill="#246EDE"/><rect x="642.096" y="253.552" width="4.957" height="4.957" rx="1.5" stroke="#fff"/><circle cx="448.479" cy="264.221" r="6.946" stroke="#fff"/><path d="M656.488 253.796l-4.467 4.468M652.021 253.796l4.467 4.468M637.128 256.03h-5.212" stroke="#fff"/><path d="M561.663 298.794c0-5.523 4.477-10 10-10h76.056c5.523 0 10 4.477 10 10v41.804c0 5.523-4.477 10-10 10h-76.056c-5.523 0-10-4.477-10-10v-41.804zM441.033 344.269a7.074 7.074 0 0 1 7.074-7.074h39.465a7.074 7.074 0 1 1 0 14.148h-39.465a7.074 7.074 0 0 1-7.074-7.074zM441.033 292.145a3.35 3.35 0 0 1 3.351-3.351h33.508a3.35 3.35 0 1 1 0 6.702h-33.508a3.351 3.351 0 0 1-3.351-3.351zM515.645 292.145a3.35 3.35 0 0 1 3.35-3.351h19.361a3.351 3.351 0 0 1 0 6.702h-19.361a3.351 3.351 0 0 1-3.35-3.351zM485.711 292.145a3.35 3.35 0 0 1 3.351-3.351h18.764a3.35 3.35 0 1 1 0 6.702h-18.764a3.351 3.351 0 0 1-3.351-3.351z" fill="#fff"/></g><rect opacity=".05" x="167.085" y="139.679" width="158" height="99" rx="10" fill="#246EDE"/><rect opacity=".3" x="561.146" y="216.68" width="69.449" height="129.638" rx="10" fill="#246EDE" fill-opacity=".3"/><rect x="552.386" y="226.44" width="68.449" height="128.638" rx="9.5" fill="#fff" stroke="#246EDE"/><path d="M559.794 313.908a4.13 4.13 0 0 1 4.13-4.13h46.299a4.13 4.13 0 1 1 0 8.26h-46.299a4.13 4.13 0 0 1-4.13-4.13zM559.794 300.019a4.13 4.13 0 0 1 4.13-4.13h46.299a4.13 4.13 0 1 1 0 8.26h-46.299a4.13 4.13 0 0 1-4.13-4.13z" stroke="#246EDE"/><path d="M559.794 333.354a6.908 6.908 0 0 1 6.908-6.908h40.743a6.908 6.908 0 0 1 0 13.816h-40.743a6.908 6.908 0 0 1-6.908-6.908z" fill="#246EDE" stroke="#246EDE"/><path d="M569.98 251.08c0-8.997 7.437-16.306 16.631-16.306 9.194 0 16.63 7.309 16.63 16.306V273.591h-7.697V251.08c0-1.534-.63-3.775-2.082-5.64-1.467-1.884-3.78-3.392-7.115-3.392-3.587 0-5.909 1.499-7.32 3.402-1.392 1.878-1.877 4.121-1.877 5.63V273.591h-7.17V251.08zM596.333 280.573c.74 1.124 1.916 1.852 3.241 1.852 1.326 0 2.502-.728 3.241-1.852M593.556 283.351c1.372 1.687 3.557 2.778 6.018 2.778 2.462 0 4.647-1.091 6.019-2.778M570.406 280.573c.739 1.124 1.916 1.852 3.241 1.852 1.325 0 2.502-.728 3.241-1.852M567.628 283.351c1.372 1.687 3.558 2.778 6.019 2.778 2.461 0 4.646-1.091 6.019-2.778" stroke="#246EDE"/><rect opacity=".3" x="481.511" y="31.483" width="78.709" height="148.157" rx="10" fill="#246EDE" fill-opacity=".3"/><rect x="472.751" y="41.243" width="77.709" height="147.157" rx="9.5" fill="#fff" stroke="#246EDE"/><rect x="476.881" y="48.151" width="69.449" height="129.638" rx="10" fill="#fff"/><rect x="477.381" y="48.651" width="68.449" height="128.638" rx="9.5" stroke="#246EDE" stroke-opacity=".3"/><rect opacity=".3" x="491.697" y="306.5" width="27.779" height="20.372" rx="3" fill="#246EDE"/><rect x="490.345" y="308.853" width="26.928" height="19.291" rx="2.5" fill="#fff" stroke="#246EDE"/><path d="M516.81 309.367l-13.001 11.921-13.001-11.921M516.81 327.883l-10.112-9.272m-15.89 9.272l10.112-9.272" stroke="#246EDE"/><rect opacity=".3" x="474.103" y="320.39" width="36.113" height="25.927" rx="2" fill="#246EDE"/><rect x="470.899" y="323.668" width="35.96" height="25.854" rx="2.5" fill="#fff" stroke="#246EDE"/><path d="M506.085 324.511l-17.206 15.776-17.205-15.776M506.085 349.015l-13.382-12.271m-21.029 12.271l13.382-12.271" stroke="#246EDE"/><rect opacity=".3" x="500.957" y="337.984" width="46.299" height="33.335" rx="5" fill="#246EDE"/><rect x="497.753" y="342.188" width="45.22" height="32.581" rx="3.5" fill="#fff" stroke="#246EDE"/><path d="M541.879 343.367l-21.516 19.729-21.516-19.729M541.879 374.01l-16.735-15.345m-26.297 15.345l16.734-15.345" stroke="#246EDE"/><rect opacity=".3" x="472.252" y="362.985" width="64.998" height="47.225" rx="6" fill="#246EDE"/><rect x="468.122" y="368.115" width="63.998" height="46.225" rx="5.5" fill="#fff" stroke="#246EDE"/><path d="M530.378 369.977l-30.257 27.744-30.258-27.744M530.378 413.069l-23.533-21.579m-36.982 21.579l23.534-21.579" stroke="#246EDE"/><rect opacity=".3" x="162.973" y="104.636" width="246.311" height="315.76" rx="10" fill="#E6E7E8"/><rect x="153.713" y="113.896" width="246.311" height="315.76" rx="10" fill="#fff"/><rect x="154.213" y="114.396" width="245.311" height="314.76" rx="9.5" stroke="#246EDE" stroke-opacity=".3"/><path d="M248.488 139.958c0-1.234 1-2.234 2.234-2.234h26.806a2.234 2.234 0 1 1 0 4.468h-26.806c-1.234 0-2.234-1-2.234-2.234zM190.407 139.958c0-1.234 1-2.234 2.234-2.234h20.849a2.234 2.234 0 1 1 0 4.468h-20.849c-1.234 0-2.234-1-2.234-2.234zM222.426 139.958c0-1.234 1-2.234 2.234-2.234h14.148a2.234 2.234 0 1 1 0 4.468H224.66c-1.234 0-2.234-1-2.234-2.234zM285.719 139.958a2.234 2.234 0 0 1 2.234-2.234h17.127a2.234 2.234 0 0 1 0 4.468h-17.127c-1.233 0-2.234-1-2.234-2.234zM221.681 183.891c0-1.234 1-2.234 2.234-2.234h25.318a2.234 2.234 0 0 1 0 4.468h-25.318c-1.234 0-2.234-1-2.234-2.234zM229.128 191.337c0-1.233 1-2.233 2.234-2.233h17.871a2.233 2.233 0 0 1 0 4.467h-17.871c-1.234 0-2.234-1-2.234-2.234zM245.509 289.628a2.234 2.234 0 0 1 2.234-2.234h27.552a2.234 2.234 0 0 1 0 4.468h-27.552c-1.233 0-2.234-1-2.234-2.234zM282.741 289.628c0-1.234 1-2.234 2.234-2.234h16.382a2.234 2.234 0 0 1 0 4.468h-16.382c-1.234 0-2.234-1-2.234-2.234zM245.509 297.074a2.234 2.234 0 0 1 2.234-2.234h24.573a2.234 2.234 0 1 1 0 4.468h-24.573c-1.233 0-2.234-1-2.234-2.234zM279.762 297.074a2.234 2.234 0 0 1 2.234-2.234h19.361a2.234 2.234 0 0 1 0 4.468h-19.361c-1.233 0-2.234-1-2.234-2.234zM285.719 304.521c0-1.234 1-2.234 2.234-2.234h13.403a2.234 2.234 0 1 1 0 4.467h-13.403c-1.234 0-2.234-1-2.234-2.233zM245.509 304.521a2.234 2.234 0 0 1 2.234-2.234h14.148a2.234 2.234 0 1 1 0 4.467h-14.148c-1.233 0-2.234-1-2.234-2.233zM269.337 304.521a2.234 2.234 0 0 1 2.234-2.234h6.702a2.234 2.234 0 1 1 0 4.467h-6.702c-1.233 0-2.234-1-2.234-2.233zM167.324 289.628c0-1.234 1-2.234 2.233-2.234h18.616a2.234 2.234 0 1 1 0 4.468h-18.616c-1.233 0-2.233-1-2.233-2.234zM195.62 289.628c0-1.234 1-2.234 2.233-2.234h25.318a2.234 2.234 0 0 1 0 4.468h-25.318c-1.233 0-2.233-1-2.233-2.234zM167.324 297.074c0-1.234 1-2.234 2.234-2.234h32.019a2.234 2.234 0 0 1 0 4.468h-32.019c-1.234 0-2.234-1-2.234-2.234zM208.278 297.074c0-1.234 1-2.234 2.234-2.234h12.659a2.234 2.234 0 0 1 0 4.468h-12.659c-1.234 0-2.234-1-2.234-2.234zM167.324 304.521c0-1.234 1-2.234 2.234-2.234h14.147a2.234 2.234 0 1 1 0 4.467h-14.147c-1.234 0-2.234-1-2.234-2.233zM192.641 304.521c0-1.234 1-2.234 2.234-2.234h28.296a2.234 2.234 0 0 1 0 4.467h-28.296c-1.234 0-2.234-1-2.234-2.233zM165.09 183.891c0-1.234 1-2.234 2.234-2.234h18.615a2.234 2.234 0 1 1 0 4.468h-18.615c-1.234 0-2.234-1-2.234-2.234zM193.385 183.891a2.234 2.234 0 0 1 2.234-2.234h18.616a2.234 2.234 0 1 1 0 4.468h-18.616c-1.233 0-2.234-1-2.234-2.234zM165.09 191.337c0-1.233 1-2.233 2.234-2.233h32.019a2.233 2.233 0 0 1 0 4.467h-32.019c-1.234 0-2.234-1-2.234-2.234zM206.789 191.337c0-1.233 1-2.233 2.234-2.233h12.658a2.234 2.234 0 1 1 0 4.467h-12.658c-1.234 0-2.234-1-2.234-2.234zM165.09 198.784c0-1.234 1-2.234 2.234-2.234h14.147a2.234 2.234 0 1 1 0 4.468h-14.147a2.234 2.234 0 0 1-2.234-2.234zM188.918 198.784c0-1.234 1-2.234 2.234-2.234h12.658a2.234 2.234 0 1 1 0 4.468h-12.658a2.234 2.234 0 0 1-2.234-2.234zM211.257 198.784c0-1.234 1-2.234 2.233-2.234h11.17a2.234 2.234 0 1 1 0 4.468h-11.17a2.234 2.234 0 0 1-2.233-2.234zM232.106 198.784c0-1.234 1-2.234 2.234-2.234h14.893a2.234 2.234 0 0 1 0 4.468H234.34a2.234 2.234 0 0 1-2.234-2.234zM342.311 289.628c0-1.234 1-2.234 2.234-2.234h18.616a2.234 2.234 0 0 1 0 4.468h-18.616c-1.234 0-2.234-1-2.234-2.234zM370.607 289.628c0-1.234 1-2.234 2.234-2.234h6.701a2.234 2.234 0 1 1 0 4.468h-6.701c-1.234 0-2.234-1-2.234-2.234zM323.695 297.074c0-1.234 1-2.234 2.234-2.234h26.807a2.234 2.234 0 0 1 0 4.468h-26.807c-1.234 0-2.234-1-2.234-2.234zM360.182 297.074c0-1.234 1-2.234 2.234-2.234h17.126a2.234 2.234 0 1 1 0 4.468h-17.126c-1.234 0-2.234-1-2.234-2.234zM323.695 289.628c0-1.234 1-2.234 2.234-2.234h8.936a2.234 2.234 0 0 1 0 4.468h-8.936c-1.234 0-2.234-1-2.234-2.234zM323.695 304.521c0-1.234 1-2.234 2.234-2.234h11.17a2.234 2.234 0 0 1 0 4.467h-11.17c-1.234 0-2.234-1-2.234-2.233zM344.545 304.521c0-1.234 1-2.234 2.234-2.234h32.763a2.234 2.234 0 1 1 0 4.467h-32.763c-1.234 0-2.234-1-2.234-2.233z" fill="#E6E7E8"/><rect x="366.153" y="128.544" width="4.957" height="4.957" rx="1.5" stroke="#246EDE"/><circle opacity=".3" cx="172.536" cy="139.213" r="6.946" fill="#E6E7E8" stroke="#E6E7E8"/><circle cx="196.364" cy="273.246" r="6.946" stroke="#E6E7E8"/><circle cx="274.55" cy="273.991" r="6.946" stroke="#000"/><circle cx="352.736" cy="273.991" r="6.946" stroke="#000"/><path d="M380.545 128.789l-4.468 4.467M376.077 128.789l4.468 4.467M361.185 131.022h-5.213" stroke="#246EDE"/><path opacity=".3" d="M285.719 173.786c0-5.523 4.478-10 10-10h76.057c5.523 0 10 4.477 10 10v41.804c0 5.523-4.477 10-10 10h-76.057c-5.522 0-10-4.477-10-10v-41.804z" fill="#F1F1F1"/><path opacity=".3" d="M167.324 353.986c0-5.523 4.477-10 10-10h108.82c5.523 0 10 4.477 10 10v49.995c0 5.523-4.477 10-10 10h-108.82c-5.523 0-10-4.477-10-10v-49.995z" fill="#E6E7E8"/><path d="M308.682 353.986a9.5 9.5 0 0 1 9.5-9.5H371.9a9.5 9.5 0 0 1 9.5 9.5v49.995a9.5 9.5 0 0 1-9.5 9.5h-53.718a9.5 9.5 0 0 1-9.5-9.5v-49.995z" stroke="#000"/><path opacity=".3" d="M165.59 219.261a6.574 6.574 0 0 1 6.574-6.574h39.465a6.574 6.574 0 1 1 0 13.148h-39.465a6.574 6.574 0 0 1-6.574-6.574z" fill="#F1F1F1" stroke="#E6E7E8"/><path d="M165.59 167.137a2.85 2.85 0 0 1 2.85-2.851h33.509a2.851 2.851 0 0 1 0 5.702H168.44a2.85 2.85 0 0 1-2.85-2.851z" fill="#fff" fill-opacity=".3" stroke="#E6E7E8"/><path d="M246.009 251.28a2.851 2.851 0 0 1 2.851-2.851h54.358a2.85 2.85 0 1 1 0 5.701H248.86a2.85 2.85 0 0 1-2.851-2.85z" fill="#fff" fill-opacity=".3" stroke="#000"/><path d="M240.201 167.137a2.851 2.851 0 0 1 2.851-2.851h19.36a2.85 2.85 0 1 1 0 5.702h-19.36a2.852 2.852 0 0 1-2.851-2.851zM210.267 167.137a2.851 2.851 0 0 1 2.851-2.851h18.765a2.851 2.851 0 0 1 0 5.702h-18.765a2.852 2.852 0 0 1-2.851-2.851zM167.824 332.444a2.85 2.85 0 0 1 2.85-2.851h33.509a2.85 2.85 0 0 1 0 5.702h-33.509a2.85 2.85 0 0 1-2.85-2.851z" fill="#fff" fill-opacity=".3" stroke="#E6E7E8"/><path d="M212.501 332.444a2.852 2.852 0 0 1 2.851-2.851h18.765a2.852 2.852 0 0 1 0 5.702h-18.765a2.851 2.851 0 0 1-2.851-2.851zM242.435 332.444a2.852 2.852 0 0 1 2.851-2.851h34.253a2.852 2.852 0 0 1 0 5.702h-34.253a2.851 2.851 0 0 1-2.851-2.851z" fill="#fff" fill-opacity=".3" stroke="#000"/><path d="M319.038 375.633a4.341 4.341 0 0 1 4.34-4.341h43.933a4.342 4.342 0 0 1 0 8.681h-43.933a4.34 4.34 0 0 1-4.34-4.34zM319.038 359.995a4.34 4.34 0 0 1 4.34-4.34h43.933a4.34 4.34 0 1 1 0 8.68h-43.933a4.34 4.34 0 0 1-4.34-4.34z" stroke="#000"/><path d="M319.038 394.993a6.574 6.574 0 0 1 6.574-6.574h39.466a6.574 6.574 0 0 1 0 13.148h-39.466a6.574 6.574 0 0 1-6.574-6.574z" fill="#fff" fill-opacity=".8" stroke="#246EDE"/><rect opacity=".6" x="153.713" y="113.896" width="246.311" height="315.76" rx="10" fill="#fff"/><rect opacity=".3" x="200.939" y="172.233" width="246.311" height="315.76" rx="10" fill="#246EDE" fill-opacity=".3"/><rect x="192.179" y="181.993" width="245.311" height="314.76" rx="9.5" fill="#fff" stroke="#246EDE"/><path d="M286.453 207.555c0-1.234 1-2.234 2.234-2.234h26.807a2.234 2.234 0 0 1 0 4.468h-26.807a2.234 2.234 0 0 1-2.234-2.234zM228.372 207.555a2.234 2.234 0 0 1 2.234-2.234h20.85a2.234 2.234 0 1 1 0 4.468h-20.85a2.235 2.235 0 0 1-2.234-2.234zM260.391 207.555c0-1.234 1-2.234 2.234-2.234h14.148a2.234 2.234 0 1 1 0 4.468h-14.148a2.235 2.235 0 0 1-2.234-2.234zM323.685 207.555c0-1.234 1-2.234 2.234-2.234h17.126a2.234 2.234 0 1 1 0 4.468h-17.126a2.234 2.234 0 0 1-2.234-2.234zM259.647 251.488c0-1.234 1-2.234 2.234-2.234h25.317a2.234 2.234 0 1 1 0 4.468h-25.317c-1.234 0-2.234-1-2.234-2.234zM267.093 258.934c0-1.234 1-2.234 2.234-2.234h17.871a2.234 2.234 0 1 1 0 4.468h-17.871c-1.234 0-2.234-1-2.234-2.234zM283.475 357.225c0-1.234 1-2.234 2.234-2.234h27.551a2.234 2.234 0 1 1 0 4.467h-27.551c-1.234 0-2.234-1-2.234-2.233zM320.706 357.225c0-1.234 1-2.234 2.234-2.234h16.382a2.234 2.234 0 1 1 0 4.467H322.94c-1.234 0-2.234-1-2.234-2.233zM283.475 364.671c0-1.234 1-2.234 2.234-2.234h24.572a2.234 2.234 0 1 1 0 4.468h-24.572c-1.234 0-2.234-1-2.234-2.234zM317.728 364.671c0-1.234 1-2.234 2.234-2.234h19.36a2.234 2.234 0 1 1 0 4.468h-19.36c-1.234 0-2.234-1-2.234-2.234zM323.685 372.117c0-1.234 1-2.234 2.234-2.234h13.403a2.234 2.234 0 1 1 0 4.468h-13.403c-1.234 0-2.234-1-2.234-2.234zM283.475 372.117c0-1.234 1-2.234 2.234-2.234h14.148a2.234 2.234 0 0 1 0 4.468h-14.148c-1.234 0-2.234-1-2.234-2.234zM307.303 372.117c0-1.234 1-2.234 2.234-2.234h6.701a2.234 2.234 0 1 1 0 4.468h-6.701c-1.234 0-2.234-1-2.234-2.234zM205.289 357.225c0-1.234 1-2.234 2.234-2.234h18.615a2.234 2.234 0 1 1 0 4.467h-18.615c-1.234 0-2.234-1-2.234-2.233zM233.585 357.225c0-1.234 1-2.234 2.234-2.234h25.317a2.234 2.234 0 1 1 0 4.467h-25.317c-1.234 0-2.234-1-2.234-2.233zM205.289 364.671c0-1.234 1-2.234 2.234-2.234h32.019a2.234 2.234 0 1 1 0 4.468h-32.019c-1.234 0-2.234-1-2.234-2.234zM246.243 364.671a2.234 2.234 0 0 1 2.234-2.234h12.659a2.234 2.234 0 1 1 0 4.468h-12.659c-1.233 0-2.234-1-2.234-2.234zM205.289 372.117c0-1.234 1-2.234 2.234-2.234h14.148a2.234 2.234 0 0 1 0 4.468h-14.148c-1.234 0-2.234-1-2.234-2.234zM230.606 372.117c0-1.234 1-2.234 2.234-2.234h28.296a2.234 2.234 0 1 1 0 4.468H232.84c-1.234 0-2.234-1-2.234-2.234zM203.055 251.488c0-1.234 1-2.234 2.234-2.234h18.616a2.234 2.234 0 0 1 0 4.468h-18.616c-1.234 0-2.234-1-2.234-2.234zM231.351 251.488c0-1.234 1-2.234 2.234-2.234H252.2a2.234 2.234 0 1 1 0 4.468h-18.615c-1.234 0-2.234-1-2.234-2.234zM203.055 258.934c0-1.234 1-2.234 2.234-2.234h32.019a2.234 2.234 0 1 1 0 4.468h-32.019c-1.234 0-2.234-1-2.234-2.234zM244.754 258.934c0-1.234 1-2.234 2.234-2.234h12.659a2.234 2.234 0 0 1 0 4.468h-12.659c-1.234 0-2.234-1-2.234-2.234zM203.055 266.38c0-1.233 1-2.234 2.234-2.234h14.148a2.234 2.234 0 0 1 0 4.468h-14.148c-1.234 0-2.234-1-2.234-2.234zM226.883 266.38c0-1.233 1-2.234 2.234-2.234h12.659a2.235 2.235 0 0 1 0 4.468h-12.659c-1.234 0-2.234-1-2.234-2.234zM249.222 266.38c0-1.233 1-2.234 2.234-2.234h11.169a2.234 2.234 0 0 1 0 4.468h-11.169c-1.234 0-2.234-1-2.234-2.234zM270.071 266.38a2.235 2.235 0 0 1 2.234-2.234h14.893a2.234 2.234 0 0 1 0 4.468h-14.893c-1.233 0-2.234-1-2.234-2.234zM380.276 357.225c0-1.234 1-2.234 2.234-2.234h18.616a2.234 2.234 0 1 1 0 4.467H382.51c-1.234 0-2.234-1-2.234-2.233zM408.572 357.225c0-1.234 1-2.234 2.234-2.234h6.702a2.234 2.234 0 0 1 0 4.467h-6.702c-1.234 0-2.234-1-2.234-2.233zM361.661 364.671c0-1.234 1-2.234 2.233-2.234h26.807a2.234 2.234 0 1 1 0 4.468h-26.807c-1.233 0-2.233-1-2.233-2.234zM398.147 364.671c0-1.234 1-2.234 2.234-2.234h17.127a2.234 2.234 0 0 1 0 4.468h-17.127c-1.234 0-2.234-1-2.234-2.234zM361.661 357.225c0-1.234 1-2.234 2.233-2.234h8.936a2.234 2.234 0 1 1 0 4.467h-8.936c-1.233 0-2.233-1-2.233-2.233zM361.661 372.117c0-1.234 1-2.234 2.233-2.234h11.17a2.234 2.234 0 1 1 0 4.468h-11.17c-1.233 0-2.233-1-2.233-2.234zM382.51 372.117c0-1.234 1-2.234 2.234-2.234h32.764a2.234 2.234 0 0 1 0 4.468h-32.764c-1.234 0-2.234-1-2.234-2.234z" fill="#E6E7E8"/><rect x="404.118" y="196.141" width="4.957" height="4.957" rx="1.5" stroke="#246EDE"/><g opacity=".3"><circle cx="210.501" cy="206.81" r="7.446" fill="#E6E7E8"/><circle cx="210.501" cy="206.81" r="6.946" stroke="#246EDE" stroke-opacity=".3"/></g><circle opacity=".3" cx="233.348" cy="337.984" r="8.76" fill="#246EDE" fill-opacity=".3" stroke="#E6E7E8"/><circle opacity=".3" cx="312.982" cy="337.984" r="8.76" fill="#246EDE" fill-opacity=".3" stroke="#E6E7E8"/><circle opacity=".3" cx="389.839" cy="337.984" r="8.76" fill="#246EDE" fill-opacity=".3" stroke="#E6E7E8"/><path d="M418.51 196.385l-4.467 4.468M414.043 196.385l4.467 4.468M399.15 198.619h-5.212" stroke="#246EDE"/><path opacity=".1" d="M323.685 241.383c0-5.523 4.477-10 10-10h76.057c5.522 0 10 4.477 10 10v41.804c0 5.523-4.478 10-10 10h-76.057c-5.523 0-10-4.477-10-10v-41.804zM205.289 421.583c0-5.523 4.477-10 10-10h108.82c5.523 0 10 4.477 10 10v49.994c0 5.523-4.477 10-10 10h-108.82c-5.523 0-10-4.477-10-10v-49.994z" fill="#246EDE" fill-opacity=".3"/><path d="M346.647 421.583a9.5 9.5 0 0 1 9.5-9.5h53.718a9.5 9.5 0 0 1 9.5 9.5v49.994a9.5 9.5 0 0 1-9.5 9.5h-53.718a9.5 9.5 0 0 1-9.5-9.5v-49.994z" stroke="#246EDE"/><path d="M203.555 286.858a6.574 6.574 0 0 1 6.574-6.574h39.465a6.574 6.574 0 1 1 0 13.148h-39.465a6.574 6.574 0 0 1-6.574-6.574z" fill="#246EDE" stroke="#246EDE"/><path d="M203.555 234.734a2.85 2.85 0 0 1 2.851-2.851h33.508a2.851 2.851 0 0 1 0 5.701h-33.508a2.85 2.85 0 0 1-2.851-2.85z" fill="#fff" fill-opacity=".3" stroke="#E6E7E8"/><path d="M283.475 317.259a3.35 3.35 0 0 1 3.351-3.351h54.357a3.35 3.35 0 1 1 0 6.702h-54.357a3.35 3.35 0 0 1-3.351-3.351z" fill="#fff" fill-opacity=".3"/><path d="M283.975 317.259a2.851 2.851 0 0 1 2.851-2.851h54.357a2.851 2.851 0 0 1 0 5.702h-54.357a2.851 2.851 0 0 1-2.851-2.851z" stroke="#246EDE" stroke-opacity=".3"/><path d="M278.167 234.734a2.85 2.85 0 0 1 2.85-2.851h19.361a2.851 2.851 0 0 1 0 5.701h-19.361a2.85 2.85 0 0 1-2.85-2.85zM248.233 234.734a2.85 2.85 0 0 1 2.85-2.851h18.765a2.85 2.85 0 1 1 0 5.701h-18.765a2.85 2.85 0 0 1-2.85-2.85zM205.789 400.041a2.85 2.85 0 0 1 2.851-2.851h33.508a2.851 2.851 0 0 1 0 5.702H208.64a2.851 2.851 0 0 1-2.851-2.851zM250.467 400.041a2.85 2.85 0 0 1 2.85-2.851h18.765a2.851 2.851 0 0 1 0 5.702h-18.765a2.85 2.85 0 0 1-2.85-2.851zM280.401 400.041a2.85 2.85 0 0 1 2.85-2.851h34.253a2.85 2.85 0 1 1 0 5.702h-34.253a2.85 2.85 0 0 1-2.85-2.851z" fill="#fff" fill-opacity=".3" stroke="#E6E7E8"/><path d="M357.004 443.229a4.34 4.34 0 0 1 4.34-4.34h43.933a4.34 4.34 0 1 1 0 8.68h-43.933a4.34 4.34 0 0 1-4.34-4.34zM357.004 427.592a4.34 4.34 0 0 1 4.34-4.34h43.933a4.34 4.34 0 1 1 0 8.68h-43.933a4.34 4.34 0 0 1-4.34-4.34z" stroke="#246EDE"/><path d="M357.004 462.59a6.574 6.574 0 0 1 6.574-6.574h39.465a6.574 6.574 0 1 1 0 13.148h-39.465a6.574 6.574 0 0 1-6.574-6.574z" fill="#246EDE" stroke="#246EDE"/><circle opacity=".3" cx="19.909" cy="386.598" r="16.205" fill="#246EDE"/><circle cx="16.205" cy="389.376" r="15.705" fill="#fff" stroke="#246EDE"/><circle cx="16.205" cy="389.376" r="12.927" stroke="#246EDE"/><path d="M15.967 389.796v1.704h3.541v2.623h-3.541v3.124h-3.309v-3.124h-1.546V391.5h1.546v-9.995h5.32c1.63 0 2.9.35 3.808 1.05.91.699 1.364 1.731 1.364 3.096 0 1.364-.455 2.396-1.364 3.096-.909.699-2.178 1.049-3.807 1.049h-2.012zm3.857-4.11c0-.467-.166-.822-.499-1.067-.321-.257-.781-.385-1.38-.385h-1.978v2.921h1.978c.599 0 1.059-.128 1.38-.385.333-.256.5-.618.5-1.084z" stroke="#246EDE"/><circle opacity=".3" cx="57.874" cy="366.226" r="16.205" fill="#246EDE"/><circle cx="54.17" cy="369.004" r="15.705" fill="#fff" stroke="#246EDE"/><circle cx="54.17" cy="369.004" r="12.927" stroke="#246EDE"/><path d="M53.933 369.424v1.704h3.541v2.623h-3.541v3.124h-3.31v-3.124h-1.545v-2.623h1.546v-9.995h5.32c1.63 0 2.9.35 3.808 1.05.909.699 1.363 1.731 1.363 3.096 0 1.364-.454 2.396-1.363 3.095-.909.7-2.178 1.05-3.808 1.05h-2.011zm3.857-4.11c0-.467-.166-.822-.499-1.067-.321-.257-.781-.385-1.38-.385h-1.978v2.921h1.978c.599 0 1.059-.128 1.38-.385.333-.257.499-.618.499-1.084z" stroke="#246EDE"/><circle opacity=".3" cx="64.356" cy="418.082" r="16.205" fill="#246EDE"/><circle cx="60.652" cy="420.859" r="15.705" fill="#fff" stroke="#246EDE"/><circle cx="60.652" cy="420.859" r="12.927" stroke="#246EDE"/><path d="M60.414 421.279v1.704h3.542v2.623h-3.542v3.124h-3.309v-3.124H55.56v-2.623h1.546v-9.994h5.32c1.63 0 2.9.35 3.808 1.049.91.7 1.364 1.732 1.364 3.096s-.455 2.396-1.364 3.096c-.909.7-2.178 1.049-3.807 1.049h-2.012zm3.858-4.11c0-.466-.167-.822-.5-1.067-.32-.256-.78-.385-1.38-.385h-1.978v2.921h1.979c.598 0 1.058-.128 1.38-.385.332-.256.498-.618.498-1.084z" stroke="#246EDE"/><path opacity=".3" d="M86.085 396.679h30" stroke="#246EDE"/><path d="M109.085 426.679h30M94.085 416.679h30" stroke="#246EDE"/><path opacity=".3" d="M88.085 431.679h30" stroke="#246EDE"/><path d="M86.085 371.679h30" stroke="#246EDE"/><path opacity=".3" d="M98.085 385.679h30" stroke="#246EDE"/><path d="M242.092 80.275a.5.5 0 0 0-.696-.124l-3.691 2.575a.5.5 0 0 0 .572.82l3.281-2.29 2.289 3.281a.5.5 0 1 0 .82-.572l-2.575-3.69zm158.476 46.264c-25.76 30.82-68.351 36.148-103.062 25.308-34.737-10.848-61.285-37.767-55.332-71.199l-.984-.175c-6.085 34.166 21.075 61.416 56.018 72.329 34.969 10.92 78.032 5.6 104.127-25.621l-.767-.642zM593.989 212.132a.499.499 0 0 0 .575.411l4.439-.74a.5.5 0 1 0-.165-.986l-3.945.658-.658-3.946a.5.5 0 0 0-.986.164l.74 4.439zM563.748 54.175c35.418 13.34 49.922 42.993 52.111 74.224 2.192 31.257-7.965 64.013-21.784 83.36l.814.582c13.96-19.544 24.175-52.533 21.968-84.012-2.209-31.504-16.874-61.576-52.756-75.09l-.353.936zM557.088 383.929a.5.5 0 0 0 0 .707l3.182 3.182a.499.499 0 0 0 .707 0 .499.499 0 0 0 0-.707l-2.828-2.828 2.828-2.829a.5.5 0 0 0-.707-.707l-3.182 3.182zm32.263-26.963c0 10.753-3.651 17.412-9.392 21.408-5.778 4.022-13.755 5.409-22.517 5.409v1c8.832 0 17.059-1.391 23.088-5.588 6.065-4.221 9.821-11.221 9.821-22.229h-1zM449.674 463.564a.5.5 0 0 0 0 .707l3.182 3.182a.5.5 0 0 0 .707-.707l-2.828-2.828 2.828-2.829a.5.5 0 0 0-.707-.707l-3.182 3.182zm60.043-45.02c0 9.417-2.066 16.908-5.56 22.853-3.493 5.946-8.429 10.373-14.21 13.636-11.578 6.534-26.522 8.385-39.919 8.385v1c13.456 0 28.607-1.853 40.41-8.515 5.909-3.334 10.985-7.878 14.582-13.999 3.596-6.121 5.697-13.793 5.697-23.36h-1zM100.973 440.27a.499.499 0 0 0-.539.458l-.364 4.485a.501.501 0 0 0 .997.081l.323-3.987 3.987.323a.5.5 0 0 0 .081-.997l-4.485-.363zm242.88 25.11c-24.857-19.979-48.578-26.905-71.159-27.195-22.56-.291-43.957 6.043-64.153 12.524-20.23 6.492-39.217 13.116-57.082 13.519-17.808.402-34.504-5.382-50.146-23.784l-.762.648c15.842 18.637 32.829 24.544 50.931 24.136 18.046-.407 37.198-7.095 57.364-13.567 20.2-6.482 41.456-12.765 63.835-12.476 22.358.288 45.862 7.136 70.545 26.974l.627-.779zM468.465 68.09a.5.5 0 0 0 .576-.41l.747-4.438a.5.5 0 0 0-.986-.166l-.664 3.945-3.945-.664a.5.5 0 0 0-.166.986l4.438.747zM269.384 38.32c20.661-24.793 60.589-31.078 100.347-24.267 39.741 6.807 79.067 26.662 98.41 53.834l.814-.58C449.406 39.845 409.794 19.9 369.9 13.067c-39.875-6.83-80.275-.598-101.284 24.613l.768.64zM153.523 147.478a.5.5 0 0 1-.197.679l-3.94 2.174a.5.5 0 0 1-.483-.876l3.503-1.932-1.933-3.502a.501.501 0 0 1 .876-.483l2.174 3.94zm-89.483 39.27c-1.65-11.725 1.295-20.63 7.14-27.229 5.83-6.581 14.498-10.821 24.222-13.327 19.442-5.012 43.303-3.148 57.822 1.047l-.278.961c-14.376-4.154-38.053-6-57.294-1.04-9.617 2.479-18.075 6.646-23.723 13.022-5.632 6.358-8.512 14.962-6.9 26.427l-.99.139z" fill="#BEBEBE"/><path opacity=".3" d="M255.924 35.128a3 3 0 0 1 3 0l16.246 9.38a3 3 0 0 1 1.5 2.598v18.76a3 3 0 0 1-1.5 2.597l-16.246 9.38a3 3 0 0 1-3 0l-16.246-9.38a2.998 2.998 0 0 1-1.5-2.598v-18.76c0-1.071.571-2.062 1.5-2.597l16.246-9.38z" fill="#246EDE" fill-opacity=".3"/><path d="M254.322 39.265a2.5 2.5 0 0 1 2.5 0l16.246 9.38a2.501 2.501 0 0 1 1.25 2.165v18.76c0 .892-.477 1.718-1.25 2.164l-16.246 9.38a2.5 2.5 0 0 1-2.5 0l-16.246-9.38a2.499 2.499 0 0 1-1.25-2.165V50.81c0-.892.476-1.718 1.25-2.164l16.246-9.38z" fill="#fff" stroke="#246EDE"/><path d="M254.322 42.968a2.5 2.5 0 0 1 2.5 0l13.038 7.528a2.499 2.499 0 0 1 1.25 2.165v15.056c0 .893-.476 1.718-1.25 2.165l-13.038 7.528a2.5 2.5 0 0 1-2.5 0l-13.039-7.528a2.5 2.5 0 0 1-1.25-2.165V52.66a2.5 2.5 0 0 1 1.25-2.165l13.039-7.528z" fill="#246EDE" fill-opacity=".1" stroke="#246EDE"/><path d="M249.09 55.56l-4.63 5.093 4.63 5.092M261.128 55.56l4.63 5.093-4.63 5.092M259.276 52.781l-8.334 15.742" stroke="#246EDE" stroke-linecap="round"/><path d="M485.678 23.15c-6.396 0-11.575-5.179-11.575-11.575C474.103 5.178 479.282 0 485.678 0c6.397 0 11.575 5.178 11.575 11.575 0 6.396-5.178 11.575-11.575 11.575z" fill="#246EDE" fill-opacity=".3" opacity=".3"/><path d="M481.974 25.002c-6.396 0-11.575-5.179-11.575-11.575 0-6.397 5.179-11.575 11.575-11.575 6.397 0 11.575 5.178 11.575 11.575 0 6.396-5.178 11.575-11.575 11.575z" fill="#fff" stroke="#246EDE" stroke-opacity=".3" stroke-miterlimit="10"/><path d="M489.346 17.57c0-.062-.061-.062-.061-.122-.244-.488-.731-1.036-1.462-1.706l-.61-.61c-.182-.182-.182-.426-.121-.609.06-.182.304-.487.731-1.035.182-.305.365-.488.487-.67.914-1.219 1.279-1.95 1.157-2.315l-.061-.122c-.06-.061-.121-.061-.243-.122s-.305-.061-.488 0H485.995l-.061.06c-.061.062-.061.062-.061.123-.244.609-.548 1.218-.853 1.766-.183.305-.365.61-.548.853-.183.244-.305.427-.426.549-.122.121-.183.182-.305.243-.061.061-.183.122-.183.061-.061 0-.061 0-.122-.06l-.182-.183c-.061-.061-.061-.183-.061-.305v-.305-.365-.305-.67-.548-.427-.365c0-.061-.061-.183-.061-.244-.061-.06-.061-.122-.183-.183-.061-.06-.183-.06-.244-.121-.243.06-.609.06-1.035.06-.975 0-1.584.061-1.889.183-.122.061-.183.122-.304.244-.122.122-.122.183-.061.183.304.06.548.182.67.304l.061.122c.061.061.061.183.121.366.061.182.061.365.061.548v.975c0 .243-.061.487-.061.609s-.06.244-.121.365c-.061.122-.061.122-.122.183 0 0 0 .061-.061.061s-.122.06-.183.06a.463.463 0 0 1-.244-.12c-.121-.062-.182-.184-.304-.306a2.127 2.127 0 0 1-.366-.548c-.122-.243-.304-.487-.426-.792l-.122-.243-.305-.61a9.586 9.586 0 0 0-.365-.792.842.842 0 0 0-.183-.243h-.061s-.061-.061-.122-.061-.121-.061-.182-.061h-2.133c-.243 0-.365.06-.426.122l-.061.06v.122c0 .061 0 .122.061.183.305.731.67 1.462 1.036 2.132.365.67.67 1.219.974 1.645.244.427.549.792.853 1.158.305.365.488.609.549.73.06.123.182.184.243.244l.183.183c.122.122.305.305.548.427.244.182.488.365.792.487.305.183.609.305 1.036.427.365.121.792.121 1.157.121h.792c.183 0 .305-.06.427-.182l.061-.061c0-.061.061-.061.061-.122v-.244c0-.244 0-.426.06-.61.061-.182.061-.304.122-.425.061-.061.122-.183.183-.244l.122-.122h.061c.122-.061.244 0 .426.122.183.122.305.244.488.426.121.183.304.366.548.61.183.243.365.365.548.487l.183.122c.122.06.244.122.426.182.183.061.305.061.427.061l2.01-.06c.183 0 .366-.061.488-.122.121-.061.182-.122.182-.244v-.244c-.122 0-.122-.06-.182-.122z" stroke="#246EDE" stroke-opacity=".3" stroke-miterlimit="10"/><path opacity=".3" d="M538.459 216.68c-6.396 0-11.574-5.178-11.574-11.575 0-6.397 5.178-11.575 11.574-11.575 6.397 0 11.575 5.178 11.575 11.575 0 6.397-5.178 11.575-11.575 11.575z" fill="#246EDE" fill-opacity=".3"/><path d="M534.755 220.384c-6.396 0-11.574-5.178-11.574-11.575 0-6.396 5.178-11.575 11.574-11.575 6.397 0 11.575 5.179 11.575 11.575 0 6.397-5.178 11.575-11.575 11.575z" fill="#fff" stroke="#246EDE" stroke-opacity=".3" stroke-miterlimit="10"/><path d="M539.763 205.075h0l-.003-.01a2.01 2.01 0 0 0-.504-.756 2.001 2.001 0 0 0-.749-.501c-.201-.131-.581-.252-1.189-.252-.671-.061-.86-.061-2.558-.061H534.751c-1.701 0-1.887 0-2.561.061h-.001c-.479.048-.777.135-.997.198-.062.018-.118.035-.171.048v-.001l-.009.004a2.014 2.014 0 0 0-.757.504 2.013 2.013 0 0 0-.501.749c-.131.201-.251.581-.252 1.189-.061.671-.061.86-.061 2.558V208.814c0 1.701 0 1.887.062 2.561h0c.048.48.134.778.198.997.018.063.034.119.047.171v.001l.003.009c.126.315.254.506.504.756.249.249.439.377.749.501.202.132.581.252 1.189.252.671.061.86.061 2.558.061h.005c.853 0 1.327-.015 1.671-.03l.219-.011c.228-.011.412-.02.668-.02v.001l.008-.001c.48-.048.777-.134.997-.198l.171-.048v.001l.01-.004c.314-.125.505-.253.756-.504.248-.248.376-.438.501-.749.131-.201.251-.58.252-1.189.061-.671.061-.859.061-2.557v-.005c0-.854-.016-1.327-.031-1.671l-.01-.219c-.011-.229-.02-.412-.02-.668h0l-.001-.008a5.026 5.026 0 0 0-.198-.997 4.819 4.819 0 0 1-.047-.171zm-9.12-2.228h0l.004-.002c.35-.175.823-.236 1.496-.297.666-.06.906-.06 2.613-.06.851 0 1.338.015 1.694.03l.228.01c.239.011.435.02.694.021.666.06 1.081.12 1.495.297.364.183.719.361 1.075.716h-.001l.006.005c.351.292.528.644.71 1.068h0l.002.004c.175.351.235.823.297 1.497.06.666.06.906.06 2.612 0 1.707 0 1.947-.06 2.613-.061.669-.121 1.084-.298 1.498-.183.365-.361.72-.716 1.075h-.001l-.004.005c-.293.351-.644.529-1.068.71h-.001l-.003.002c-.351.176-.824.236-1.497.297-.666.061-.906.061-2.612.061-1.707 0-1.947 0-2.613-.061-.669-.06-1.085-.121-1.498-.298-.365-.182-.72-.36-1.076-.716h.001l-.006-.004c-.351-.293-.528-.644-.71-1.069h0l-.002-.004c-.175-.35-.235-.823-.297-1.496-.06-.666-.06-.906-.06-2.613 0-1.706 0-1.946.06-2.612.061-.669.121-1.085.298-1.499.183-.365.361-.719.716-1.075h.001l.004-.005c.293-.351.644-.528 1.069-.71z" fill="#246EDE" fill-opacity=".3" stroke="#fff" stroke-width=".15"/><path d="M531.541 208.809a3.2 3.2 0 0 1 3.215-3.214c1.723 0 3.154 1.427 3.214 3.215a3.2 3.2 0 0 1-3.214 3.214 3.201 3.201 0 0 1-3.215-3.215zm1.007 0c0 1.199 1.009 2.207 2.208 2.207 1.198 0 2.207-1.008 2.207-2.207 0-1.199-1.009-2.207-2.207-2.207-1.199 0-2.208 1.008-2.208 2.207zM538.823 205.397a.732.732 0 0 1-.717.717.732.732 0 0 1-.717-.717c0-.383.329-.713.712-.717.4.06.722.342.722.717z" fill="#246EDE" fill-opacity=".3" stroke="#fff" stroke-width=".15"/><path opacity=".3" d="M588.085 109.679c-6.079 0-11-5.145-11-11.5 0-6.356 4.921-11.5 11-11.5s11 5.144 11 11.5c0 6.355-4.921 11.5-11 11.5z" fill="#246EDE" fill-opacity=".3"/><g clip-path="url(#clip0)" fill="#fff" stroke="#246EDE" stroke-opacity=".3" stroke-miterlimit="10"><path d="M584.585 111.214a11.03 11.03 0 0 1-11.035-11.035 11.03 11.03 0 0 1 11.035-11.035 11.03 11.03 0 0 1 11.035 11.035 11.03 11.03 0 0 1-11.035 11.035z"/><path d="M582.901 106.858h2.671v-6.737h1.859l.174-2.265h-2.091v-1.278c0-.523.116-.755.639-.755h1.452V93.5h-1.858c-1.975 0-2.904.87-2.904 2.555v1.8h-1.394v2.266h1.394v6.737h.058z" stroke-linecap="round" stroke-linejoin="round"/></g><g opacity=".3"><rect x="480" y="54" width="63" height="69" rx="8" fill="#246EDE" fill-opacity=".3"/><rect x="480.5" y="54.5" width="62" height="68" rx="7.5" stroke="#246EDE" stroke-opacity=".3"/></g><g opacity=".3"><path d="M486.142 147.761c0-1.234 1-2.234 2.233-2.234h18.616a2.234 2.234 0 1 1 0 4.468h-18.616c-1.233 0-2.233-1-2.233-2.234zM486.142 163.584a2.314 2.314 0 0 1 2.315-2.315h12.963a2.314 2.314 0 1 1 0 4.63h-12.963a2.314 2.314 0 0 1-2.315-2.315zM508.365 163.584a2.315 2.315 0 0 1 2.315-2.315h24.076a2.315 2.315 0 0 1 0 4.63H510.68a2.315 2.315 0 0 1-2.315-2.315zM514.437 147.761a2.234 2.234 0 0 1 2.234-2.234h18.616a2.234 2.234 0 1 1 0 4.468h-18.616c-1.233 0-2.234-1-2.234-2.234zM486.142 155.208c0-1.234 1-2.234 2.233-2.234h32.019a2.234 2.234 0 1 1 0 4.467h-32.019c-1.233 0-2.233-1-2.233-2.233zM525.959 155.251a2.314 2.314 0 0 1 2.315-2.315h6.482a2.315 2.315 0 0 1 0 4.629h-6.482a2.314 2.314 0 0 1-2.315-2.314z" fill="#E6E7E8"/><path d="M506.087 134.878c0-1.002.813-1.815 1.815-1.815h26.854a1.816 1.816 0 0 1 0 3.63h-26.854a1.815 1.815 0 0 1-1.815-1.815z" stroke="#000"/><circle cx="493.588" cy="134.454" r="6.946" stroke="#000"/></g><path opacity=".3" d="M458.364 161.828c-6.397 0-11.575-5.178-11.575-11.575 0-6.396 5.178-11.574 11.575-11.574 6.396 0 11.574 5.178 11.574 11.574 0 6.397-5.178 11.575-11.574 11.575z" fill="#246EDE" fill-opacity=".3"/><path d="M454.66 163.68c-6.397 0-11.575-5.178-11.575-11.574 0-6.397 5.178-11.575 11.575-11.575 6.396 0 11.575 5.178 11.575 11.575 0 6.396-5.179 11.574-11.575 11.574z" fill="#fff" stroke="#246EDE" stroke-opacity=".3" stroke-miterlimit="10"/><path d="M463.554 147.597c-.244-.792-.853-1.462-1.645-1.645-1.462-.426-7.249-.426-7.249-.426s-5.788 0-7.25.426a2.473 2.473 0 0 0-1.645 1.645c-.365 1.462-.365 4.508-.365 4.508s0 3.046.365 4.508c.244.792.853 1.462 1.645 1.645 1.462.366 7.25.366 7.25.366s5.787 0 7.249-.366a2.473 2.473 0 0 0 1.645-1.645c.366-1.462.366-4.508.366-4.508s0-3.046-.366-4.508z" stroke="#246EDE" stroke-opacity=".3" stroke-miterlimit="10"/><path d="M452.771 154.847v-5.483l4.813 2.741-4.813 2.742z" fill="#246EDE" fill-opacity=".3"/><path d="M456.574 152.105l-3.303 1.881v-3.762l3.303 1.881z" stroke="#246EDE" stroke-opacity=".3"/><rect opacity=".3" x="18.52" y="187.975" width="153.393" height="105.737" rx="10" fill="#246EDE" fill-opacity=".3"/><rect x="9.76" y="197.734" width="152.393" height="104.737" rx="9.5" fill="#fff" stroke="#246EDE"/><rect x="21.919" y="208.404" width="131.054" height="15.637" rx="7.819" fill="#246EDE" fill-opacity=".3"/><path d="M124.921 215.363h.38v2.254l1.882-2.254h.338v2.837h-.381v-2.254l-1.876 2.254h-.343v-2.837zM129.791 218.227c-.279 0-.529-.062-.75-.184a1.334 1.334 0 0 1-.515-.512 1.508 1.508 0 0 1-.188-.75c0-.276.063-.524.188-.744.125-.219.297-.39.515-.512.221-.122.471-.183.75-.183.243 0 .46.048.649.145.193.094.345.232.456.416l-.284.194a.864.864 0 0 0-.354-.313 1.025 1.025 0 0 0-.467-.108c-.203 0-.388.047-.552.14a.97.97 0 0 0-.381.389 1.215 1.215 0 0 0-.134.576c0 .22.045.414.134.583.093.165.22.295.381.388.164.09.349.135.552.135.168 0 .324-.034.467-.103a.868.868 0 0 0 .354-.312l.284.194a1.1 1.1 0 0 1-.456.42 1.462 1.462 0 0 1-.649.141zM132.657 216.938h-.644v1.262h-.38v-2.837h.38v1.246h.649l.992-1.246h.413l-1.11 1.375 1.19 1.462h-.45l-1.04-1.262zM135.666 215.342c.368 0 .651.093.847.28.197.184.295.457.295.82v1.758h-.365v-.443a.866.866 0 0 1-.38.346 1.31 1.31 0 0 1-.59.124c-.315 0-.565-.076-.751-.227a.734.734 0 0 1-.278-.598.73.73 0 0 1 .257-.583c.175-.147.452-.221.831-.221h.895v-.172c0-.245-.068-.43-.203-.556-.136-.129-.335-.194-.596-.194-.178 0-.35.031-.514.092a1.25 1.25 0 0 0-.424.242l-.171-.285c.143-.123.314-.216.514-.281.201-.068.411-.102.633-.102zm-.134 2.583c.214 0 .399-.049.552-.146a.898.898 0 0 0 .343-.431v-.464h-.884c-.483 0-.724.169-.724.507a.47.47 0 0 0 .188.393c.125.094.3.141.525.141zM139.805 215.703h-1.067v2.497h-.381v-2.497h-1.066v-.34h2.514v.34zM141.567 216.366c.354.004.622.083.804.238.186.154.279.377.279.668 0 .302-.1.534-.3.696-.197.162-.483.241-.858.237l-1.137-.005v-2.837h.381v.993l.831.01zm-.096 1.548c.26.003.457-.049.589-.157.136-.111.204-.273.204-.485 0-.208-.066-.363-.198-.464-.133-.1-.331-.152-.595-.156l-.735-.011v1.262l.735.011z" fill="#151515"/><path d="M32.164 215.403a1.95 1.95 0 0 1-1.942 1.956 1.95 1.95 0 0 1-1.943-1.956 1.95 1.95 0 0 1 1.943-1.957 1.95 1.95 0 0 1 1.942 1.957zM34.06 219.263l-2.268-2.281" stroke="#246EDE"/><path d="M115.741 208.404h29.413a7.819 7.819 0 1 1 0 15.637h-29.413v-15.637z" fill="#fff" fill-opacity=".5"/><path d="M20.93 238.561a2.851 2.851 0 0 1 2.85-2.851h33.508a2.851 2.851 0 0 1 0 5.702H23.78a2.85 2.85 0 0 1-2.85-2.851zM65.607 238.561a2.851 2.851 0 0 1 2.85-2.851h18.765a2.851 2.851 0 0 1 0 5.702H68.458a2.85 2.85 0 0 1-2.851-2.851zM95.54 238.561a2.851 2.851 0 0 1 2.852-2.851h50.039a2.85 2.85 0 0 1 0 5.702h-50.04a2.85 2.85 0 0 1-2.85-2.851z" fill="#fff" fill-opacity=".3" stroke="#246EDE"/><path d="M20.43 249.358c0-1.233 1-2.233 2.233-2.233h20.552a2.234 2.234 0 1 1 0 4.467H22.663c-1.234 0-2.234-1-2.234-2.234zM50.512 249.358c0-1.233 1-2.233 2.234-2.233h30.828a2.234 2.234 0 1 1 0 4.467H52.746c-1.234 0-2.234-1-2.234-2.234zM90.722 249.358c0-1.233 1-2.233 2.234-2.233h22.785a2.234 2.234 0 1 1 0 4.467H92.956c-1.234 0-2.234-1-2.234-2.234zM123.486 249.358c0-1.233 1-2.233 2.233-2.233h23.828a2.234 2.234 0 1 1 0 4.467h-23.828c-1.233 0-2.233-1-2.233-2.234zM20.43 257.167c0-1.233 1-2.233 2.233-2.233h32.168a2.234 2.234 0 1 1 0 4.467H22.663c-1.234 0-2.234-1-2.234-2.234zM62.277 257.167c0-1.233 1-2.233 2.234-2.233h13.403a2.234 2.234 0 1 1 0 4.467H64.511c-1.234 0-2.234-1-2.234-2.234zM85.36 257.167c0-1.233 1-2.233 2.234-2.233h44.678a2.234 2.234 0 1 1 0 4.467H87.595c-1.234 0-2.234-1-2.234-2.234zM139.867 257.167c0-1.233 1-2.233 2.234-2.233h7.446a2.234 2.234 0 1 1 0 4.467h-7.446c-1.234 0-2.234-1-2.234-2.234z" fill="#E6E7E8"/><path opacity=".7" d="M20.93 270.218a2.85 2.85 0 0 1 2.85-2.851h45.124a2.85 2.85 0 1 1 0 5.701H23.78a2.85 2.85 0 0 1-2.85-2.85zM77.223 270.218a2.85 2.85 0 0 1 2.85-2.851h23.233a2.85 2.85 0 1 1 0 5.701H80.074a2.85 2.85 0 0 1-2.851-2.85zM111.327 270.218a2.85 2.85 0 0 1 2.851-2.851h34.253a2.85 2.85 0 0 1 0 5.701h-34.253a2.85 2.85 0 0 1-2.851-2.85z" fill="#fff" fill-opacity=".3" stroke="#BEBEBE"/><path opacity=".7" d="M20.43 281.94c0-1.233 1-2.233 2.233-2.233h39.763a2.234 2.234 0 1 1 0 4.467H22.663c-1.234 0-2.234-1-2.234-2.234zM69.872 281.94c0-1.233 1-2.233 2.234-2.233h12.957a2.234 2.234 0 1 1 0 4.467H72.106c-1.233 0-2.234-1-2.234-2.234zM92.51 281.94c0-1.233 1-2.233 2.233-2.233h22.786a2.233 2.233 0 0 1 0 4.467H94.743c-1.234 0-2.234-1-2.234-2.234zM124.975 281.94c0-1.233 1-2.233 2.234-2.233h22.339a2.233 2.233 0 0 1 0 4.467h-22.339c-1.234 0-2.234-1-2.234-2.234zM20.43 289.568c0-1.233 1-2.234 2.233-2.234h12.063a2.234 2.234 0 0 1 0 4.468H22.663c-1.234 0-2.234-1-2.234-2.234zM42.172 289.568c0-1.233 1-2.234 2.234-2.234h33.062a2.234 2.234 0 0 1 0 4.468H44.406c-1.234 0-2.234-1-2.234-2.234zM84.914 289.568c0-1.233 1-2.234 2.234-2.234h16.53a2.234 2.234 0 0 1 0 4.468h-16.53c-1.234 0-2.234-1-2.234-2.234zM110.827 289.568c0-1.233 1-2.234 2.234-2.234h36.487a2.234 2.234 0 0 1 0 4.468h-36.487c-1.234 0-2.234-1-2.234-2.234z" fill="#E6E7E8"/><rect opacity=".3" x="395.395" y="88.894" width="30.557" height="30.557" rx="7" fill="#246EDE" fill-opacity=".2"/><rect x="391.265" y="94.024" width="29.557" height="29.557" rx="6.5" fill="#fff" stroke="#246EDE"/><mask id="a" fill="#fff"><path fill-rule="evenodd" clip-rule="evenodd" d="M395.517 98.276a3.183 3.183 0 0 0 0 4.502l6.025 6.025-5.724 5.724a3.184 3.184 0 0 0 4.502 4.502l5.724-5.724 5.679 5.679a3.183 3.183 0 1 0 4.501-4.502l-5.679-5.679 5.98-5.98a3.182 3.182 0 1 0-4.501-4.501l-5.98 5.98-6.025-6.026a3.184 3.184 0 0 0-4.502 0z"/></mask><path fill-rule="evenodd" clip-rule="evenodd" d="M395.517 98.276a3.183 3.183 0 0 0 0 4.502l6.025 6.025-5.724 5.724a3.184 3.184 0 0 0 4.502 4.502l5.724-5.724 5.679 5.679a3.183 3.183 0 1 0 4.501-4.502l-5.679-5.679 5.98-5.98a3.182 3.182 0 1 0-4.501-4.501l-5.98 5.98-6.025-6.026a3.184 3.184 0 0 0-4.502 0z" fill="#fff"/><path d="M395.517 102.778l.707-.707-.707.707zm0-4.502l-.707-.707.707.707zm6.025 10.527l.708.707.707-.707-.707-.707-.708.707zm-5.724 5.724l.707.707-.707-.707zm0 4.502l.707-.707-.707.707zm10.226-5.724l.707-.707-.707-.707-.707.707.707.707zm10.18 1.177l.707-.707-.707.707zm-5.679-5.679l-.707-.707-.707.707.707.707.707-.707zm5.98-5.98l.708.707-.708-.707zm0-4.501l.708-.707-.708.707zm-4.501 0l.707.707-.707-.707zm-5.98 5.98l-.707.707.707.707.707-.707-.707-.707zm-6.025-6.026l-.707.708.707-.707zm-3.795 3.795a2.184 2.184 0 0 1 0-3.087l-1.414-1.415a4.184 4.184 0 0 0 0 5.916l1.414-1.414zm6.026 6.025l-6.026-6.025-1.414 1.414 6.025 6.025 1.415-1.414zm-5.725 7.138l5.725-5.724-1.415-1.414-5.724 5.724 1.414 1.414zm0 3.088a2.185 2.185 0 0 1 0-3.088l-1.414-1.414a4.184 4.184 0 0 0 0 5.916l1.414-1.414zm3.088 0a2.185 2.185 0 0 1-3.088 0l-1.414 1.414a4.183 4.183 0 0 0 5.916 0l-1.414-1.414zm5.724-5.724l-5.724 5.724 1.414 1.414 5.724-5.724-1.414-1.414zm7.093 5.678l-5.679-5.678-1.414 1.414 5.679 5.679 1.414-1.415zm3.087 0a2.182 2.182 0 0 1-3.087 0l-1.414 1.415a4.183 4.183 0 0 0 5.915 0l-1.414-1.415zm0-3.087a2.182 2.182 0 0 1 0 3.087l1.414 1.415a4.183 4.183 0 0 0 0-5.916l-1.414 1.414zm-5.679-5.679l5.679 5.679 1.414-1.414-5.678-5.679-1.415 1.414zm5.98-7.394l-5.98 5.98 1.415 1.414 5.98-5.98-1.415-1.414zm0-3.087a2.182 2.182 0 0 1 0 3.087l1.415 1.414a4.184 4.184 0 0 0 0-5.915l-1.415 1.414zm-3.087 0a2.183 2.183 0 0 1 3.087 0l1.415-1.414a4.183 4.183 0 0 0-5.916 0l1.414 1.414zm-5.98 5.98l5.98-5.98-1.414-1.414-5.98 5.98 1.414 1.414zm-7.439-6.025l6.025 6.025 1.414-1.414-6.025-6.026-1.414 1.415zm-3.088 0a2.184 2.184 0 0 1 3.088 0l1.414-1.415a4.183 4.183 0 0 0-5.916 0l1.414 1.415z" fill="#246EDE" mask="url(#a)"/><g opacity=".3" stroke="#E6E7E8"><path d="M618.983 25.464a1.815 1.815 0 0 0-1.815-1.815h-38.891a1.815 1.815 0 1 0 0 3.63h38.891a1.815 1.815 0 0 0 1.815-1.815zM618.983 10.649a1.815 1.815 0 0 0-1.815-1.815h-38.891a1.815 1.815 0 1 0 0 3.63h38.891a1.815 1.815 0 0 0 1.815-1.815zM599.537 32.873a1.815 1.815 0 0 0-1.815-1.815h-19.445a1.815 1.815 0 1 0 0 3.63h19.445a1.815 1.815 0 0 0 1.815-1.815zM599.537 18.057a1.815 1.815 0 0 0-1.815-1.815h-19.445a1.815 1.815 0 1 0 0 3.63h19.445a1.815 1.815 0 0 0 1.815-1.815zM618.983 32.873a1.815 1.815 0 0 0-1.815-1.815h-11.112a1.815 1.815 0 0 0 0 3.63h11.112a1.815 1.815 0 0 0 1.815-1.815zM618.983 18.057a1.815 1.815 0 0 0-1.815-1.815h-11.112a1.815 1.815 0 0 0 0 3.63h11.112a1.815 1.815 0 0 0 1.815-1.815z" fill="#fff"/><path d="M569.054 5a4.5 4.5 0 0 1 4.5-4.5h49.263a4.5 4.5 0 0 1 4.5 4.5v33.521a4.5 4.5 0 0 1-4.5 4.5h-45.496c-.652 0-1.299.116-1.91.343l-10.64 3.94 3.94-10.64a5.488 5.488 0 0 0 .343-1.91V5z"/></g><g opacity=".3" stroke="#E6E7E8"><path d="M409.785 56.022c0-1.002.813-1.815 1.815-1.815h38.891a1.815 1.815 0 1 1 0 3.63H411.6a1.815 1.815 0 0 1-1.815-1.815zM429.231 63.43c0-1.003.812-1.815 1.815-1.815h19.445a1.815 1.815 0 1 1 0 3.63h-19.445a1.815 1.815 0 0 1-1.815-1.815zM409.785 63.43c0-1.003.813-1.815 1.815-1.815h11.112a1.815 1.815 0 0 1 0 3.63H411.6a1.815 1.815 0 0 1-1.815-1.815z" fill="#fff"/><path d="M459.714 50.373a4.5 4.5 0 0 0-4.5-4.5h-49.263a4.5 4.5 0 0 0-4.5 4.5v18.706a4.5 4.5 0 0 0 4.5 4.5h45.496c.652 0 1.299.116 1.91.342l10.64 3.94-3.941-10.64a5.51 5.51 0 0 1-.342-1.91V50.373z"/></g><g opacity=".3" stroke="#E6E7E8"><path d="M618.983 130.101a1.816 1.816 0 0 0-1.815-1.815h-38.891a1.815 1.815 0 1 0 0 3.63h38.891a1.816 1.816 0 0 0 1.815-1.815zM599.537 137.509a1.814 1.814 0 0 0-1.815-1.815h-19.445a1.814 1.814 0 1 0 0 3.63h19.445a1.815 1.815 0 0 0 1.815-1.815zM618.983 137.509a1.815 1.815 0 0 0-1.815-1.815h-11.112a1.815 1.815 0 1 0 0 3.63h11.112a1.816 1.816 0 0 0 1.815-1.815z" fill="#fff"/><path d="M569.054 124.452a4.5 4.5 0 0 1 4.5-4.5h49.263a4.5 4.5 0 0 1 4.5 4.5v18.706a4.5 4.5 0 0 1-4.5 4.5h-45.496c-.652 0-1.299.116-1.91.342l-10.64 3.941 3.941-10.64a5.511 5.511 0 0 0 .342-1.91v-14.939z"/></g><path opacity=".3" d="M304.085 78.258l-.085-.08m0 0l-10.168-9.5v5.43h-16.747v7.823h16.747v5.748l10.168-9.5zM305.085 40.73l-.054-.051m0 0l-6.402-6v3.428h-10.544v4.941h10.544v3.63l6.402-6zM357.085 58.317l-.142-.138m0 0l-16.947-16.5v9.428h-27.911v13.588h27.911v9.984l16.947-16.5z" stroke="#E6E7E8"/><defs><clipPath id="clip0"><path fill="#fff" d="M573.085 88.679h23v23h-23z"/></clipPath></defs></svg>