<svg width="252" height="210" fill="none" xmlns="http://www.w3.org/2000/svg"><path d="M48.512 72.864a22.546 22.546 0 0 0 1.325-6.217L54 64.979l-.884-4.777-.884-4.777-4.476-.071a22.61 22.61 0 0 0-3.45-5.333l1.768-4.107-3.992-2.78-4.005-2.767-3.222 3.109a22.528 22.528 0 0 0-6.216-1.326L26.986 38l-4.776.884-4.776.884-.07 4.478a22.601 22.601 0 0 0-5.332 3.45l-4.134-1.782-2.766 4.007-2.766 4.007 3.108 3.222a22.546 22.546 0 0 0-1.326 6.217L0 65.021l.884 4.777.884 4.777 4.476.071a22.607 22.607 0 0 0 3.45 5.333l-1.768 4.107 4.006 2.766 4.006 2.767 3.222-3.109a22.531 22.531 0 0 0 6.215 1.326L27.043 92l4.775-.884 4.776-.884.071-4.478a22.603 22.603 0 0 0 5.332-3.45l4.105 1.768 2.766-4.007 2.766-4.007-3.122-3.194zm-28.283 1.953c-5.417-3.735-6.786-11.164-3.051-16.583 3.735-5.419 11.162-6.788 16.58-3.052 5.416 3.736 6.785 11.165 3.05 16.584-3.735 5.433-11.162 6.787-16.58 3.051z" fill="#fff"/><path d="M48.042 72.692l-.108.296.22.225 2.834 2.9-2.532 3.668-2.532 3.67-3.73-1.607-.288-.124-.237.206a22.1 22.1 0 0 1-5.214 3.375l-.285.132-.005.313-.064 4.069-4.374.81-4.372.809-1.516-3.784-.117-.291-.313-.022a22.028 22.028 0 0 1-6.078-1.296l-.293-.108-.226.217-2.927 2.825-3.669-2.534-3.669-2.534 1.606-3.73.124-.288-.206-.237a22.108 22.108 0 0 1-3.373-5.216l-.132-.285-.314-.004-4.067-.065-.81-4.375-.809-4.373 3.768-1.502.292-.117.021-.314c.14-2.049.572-4.098 1.297-6.079l.107-.294-.217-.225-2.824-2.928 2.534-3.67 2.532-3.67 3.758 1.62.288.125.238-.206a22.1 22.1 0 0 1 5.213-3.375l.285-.131.005-.314.065-4.069 4.373-.81 4.372-.809 1.502 3.769.116.292.314.021c2.049.14 4.098.572 6.078 1.297l.294.108.225-.218 2.927-2.824 3.668 2.533h.001l3.655 2.547-1.606 3.732-.124.288.206.237a22.11 22.11 0 0 1 3.373 5.215l.132.285.314.005 4.067.065.81 4.375.809 4.374-3.783 1.516-.291.117-.021.313a22.042 22.042 0 0 1-1.297 6.08zM16.766 57.95c-3.891 5.646-2.465 13.387 3.179 17.28 5.644 3.892 13.383 2.48 17.275-3.18 3.891-5.647 2.465-13.387-3.179-17.28-5.645-3.892-13.383-2.466-17.275 3.18z" stroke="#246EDE" stroke-opacity=".2"/><path d="M108.424 154a4 4 0 0 0-4-4H51.148a4 4 0 0 0 0 8h53.276a4 4 0 0 0 4-4z" fill="#fff"/><path d="M107.924 154a3.5 3.5 0 0 0-3.5-3.5H51.148a3.5 3.5 0 1 0 0 7h53.276a3.5 3.5 0 0 0 3.5-3.5z" stroke="#246EDE" stroke-opacity=".3"/><rect x="17" y="150" width="21" height="21" rx="4" fill="#fff"/><rect x="17.5" y="150.5" width="20" height="20" rx="3.5" stroke="#246EDE" stroke-opacity=".3"/><path d="M89 167a4 4 0 0 0-4-4H51a4 4 0 0 0 0 8h34a4 4 0 0 0 4-4z" fill="#fff"/><path d="M88.5 167a3.5 3.5 0 0 0-3.5-3.5H51a3.5 3.5 0 1 0 0 7h34a3.5 3.5 0 0 0 3.5-3.5z" stroke="#246EDE" stroke-opacity=".3"/><path d="M122 167a4 4 0 0 0-4-4H99a4 4 0 0 0 0 8h19a4 4 0 0 0 4-4z" fill="#fff"/><path d="M121.5 167a3.5 3.5 0 0 0-3.5-3.5H99a3.5 3.5 0 1 0 0 7h19a3.5 3.5 0 0 0 3.5-3.5z" stroke="#246EDE" stroke-opacity=".3"/><path d="M196.485 145.459c0-14.878-17.768-9.919-25.586-9.919-7.818 0-20.611 1.417-20.611 9.21 0 7.794-.71 16.295 23.454 19.129 2.932.344 5.498.502 7.741.471 12.547-.175 15.002-6.27 15.002-18.891z" fill="#fff"/><path d="M88.456 129.164c-.71 2.125-1.999 3.675-3.553 4.683m0 0c-4.664 3.022-17.413 3.498-18.479-2.347-20.56 2.347-23.06-18.631-13.56-25.007-9-5.993-7.335-17.853 2.9-24.088-4.265-8.502 1.42-22.671 13.503-20.546.71-5.668 6.396-17.003 19.19-14.878 2.368-5.625 10.092-14.621 22.031-5.604m-25.585 92.47c1.421 6.653 18.354 14.446 44.65 10.903m-24.04-96.352c1.422-3.542 2.599-5.006 4.975-7.02m-4.975 7.02c-7.107.545-9.239 6.377-9.239 7.793m9.239-7.793c3.08-.236 9.382.709 9.95 6.377m-4.975-13.398c5.697-4.828 14.929-6.853 23.454.645 3.554-7.085 19.9-9.919 23.454 2.834 5.922-1.417 18.336-.992 20.61 12.044 11.372-3.542 20.611 2.834 19.19 17.003 12.792 1.417 14.925 14.878 11.371 20.546 6.396 5.668 6.396 14.169 0 21.254m-8.529-9.21c8.529 4.251 20.326 25.007-8.174 29.926m-61.476 3.372c-.71 4.251-7.107 26.214 22.743 37.549 14.215 4.959 19.9 21.254 22.743 28.339 2.843 7.085 16.347 2.834 11.372-12.752-4.77-14.944-6.274-24.678-5.763-28.577m.077-.471a7.254 7.254 0 0 0-.077.471m-57.491-88.321c.702-3.85 5.047-6.49 9.95-7.15m13.504 5.024c-1.528-2.284-3.826-3.75-6.397-4.522-2.27-.68-4.753-.82-7.107-.503m0 0c2.843-7.019 15.636-14.812 26.296-4.893m-26.296 4.893c0-7.019-7.818-9.853-13.504-7.019m-31.982 4.96c-9.239-4.96-20.61 2.06-16.346 12.752-7.818 1.417-8.529 8.502-5.686 12.752m120.111 9.919c0-4.688-3.493-9.376-8.529-11.745m-19.9 3.952c6.746-6.351 14.283-6.595 19.9-3.952m0 0c3.554-10.926 13.504-8.092 16.347-1.716m-109.45 23.38c-4.975 8.501 9.239 21.686 20.61 12.044m-17.057-28.34c0-5.396 5.361-10.382 11.372-8.874m5.685 3.506c-1.862-1.928-3.805-3.035-5.685-3.506m0 0c1.421-8.837 18.478-11.67 21.321 3.207m1.422 21.963c3.553 8.501 15.635 10.627 19.9-1.417m0 44.634c0 4.959 10.819 11.149 20.61 15.586 7.818 3.542 17.057 15.586 18.479 28.339m-27.718-71.556c5.438-.417 10.137-2.306 12.504-5.668m1-9.21c1.169 3.79.654 6.86-1 9.21m0 0c8.107 5.668 18.767-4.25 11.66-13.461m3.477 55.732c-2.243.031-4.809-.127-7.741-.471-24.164-2.834-23.454-11.335-23.454-19.129 0-7.793 12.793-9.21 20.611-9.21 7.818 0 25.586-4.959 25.586 9.919 0 12.621-2.455 18.716-15.002 18.891z" stroke="#246EDE"/><path d="M208.471 47.98c0-3.412.719-6.21 2.156-8.394 1.438-2.251 3.53-4.708 6.275-7.369 1.895-1.842 3.301-3.377 4.216-4.606.915-1.296 1.372-2.66 1.372-4.094 0-1.979-.817-3.548-2.451-4.708-1.568-1.228-3.627-1.842-6.176-1.842-2.615 0-5 .648-7.157 1.945-2.092 1.296-3.791 3.104-5.098 5.424L187 16.148c2.68-4.776 6.471-8.495 11.373-11.156C203.275 2.33 209.19 1 216.118 1c7.777 0 14.019 1.706 18.725 5.118C239.614 9.46 242 14.169 242 20.242c0 2.798-.458 5.288-1.373 7.472-.915 2.115-2.026 3.923-3.333 5.424-1.242 1.433-2.876 3.07-4.902 4.913-2.222 1.979-3.856 3.685-4.902 5.118-1.046 1.364-1.568 2.968-1.568 4.81h-17.451zM217.196 75c-3.203 0-5.85-1.023-7.941-3.07-2.092-2.116-3.137-4.675-3.137-7.677 0-3.07 1.013-5.595 3.039-7.574 2.091-1.979 4.771-2.968 8.039-2.968s5.948.99 8.039 2.968c2.092 1.979 3.138 4.504 3.138 7.574 0 3.002-1.046 5.561-3.138 7.677-2.091 2.046-4.771 3.07-8.039 3.07z" fill="#fff"/><path d="M207.971 47.98v.5h18.451v-.5c0-1.741.491-3.236 1.465-4.507h0l.007-.01c1.016-1.391 2.62-3.07 4.831-5.038h0l.004-.004c2.034-1.85 3.684-3.502 4.943-4.955 1.345-1.545 2.482-3.399 3.414-5.554h0l.003-.005c.944-2.255 1.411-4.813 1.411-7.665 0-6.226-2.457-11.09-7.367-14.532C230.318 2.22 223.964.5 216.118.5c-6.992 0-12.993 1.343-17.984 4.052-4.983 2.706-8.843 6.491-11.57 11.351l-.245.437.437.244 14.607 8.188.436.244.244-.434c1.269-2.252 2.911-3.995 4.923-5.244 2.076-1.246 4.371-1.871 6.897-1.871 2.469 0 4.409.594 5.868 1.736l.009.007.01.007c1.504 1.068 2.24 2.486 2.24 4.3 0 1.317-.417 2.58-1.277 3.8-.892 1.197-2.274 2.709-4.159 4.541-2.761 2.677-4.881 5.162-6.346 7.457-1.505 2.286-2.237 5.186-2.237 8.664zm.928 24.301l.006.006c2.194 2.147 4.971 3.213 8.291 3.213 3.382 0 6.193-1.064 8.389-3.213h0l.006-.006c2.185-2.21 3.282-4.895 3.282-8.028 0-3.198-1.096-5.857-3.294-7.937-2.197-2.079-5.006-3.105-8.383-3.105-3.377 0-6.186 1.026-8.383 3.105h0l-.005.005c-2.132 2.082-3.19 4.74-3.19 7.932 0 3.133 1.096 5.818 3.281 8.028h0z" stroke="#246EDE" stroke-opacity=".3"/><path d="M54.807 29.141c0-1.245.262-2.265.785-3.062.523-.822 1.283-1.718 2.281-2.689.69-.672 1.2-1.232 1.533-1.68.333-.474.5-.971.5-1.494 0-.722-.298-1.295-.892-1.718-.57-.448-1.319-.672-2.246-.672-.95 0-1.818.236-2.602.71-.76.472-1.379 1.132-1.854 1.979L47 17.527c.974-1.743 2.353-3.1 4.136-4.07C52.918 12.484 55.069 12 57.587 12c2.828 0 5.098.622 6.81 1.867C66.131 15.087 67 16.805 67 19.021c0 1.02-.166 1.93-.5 2.726-.332.772-.736 1.431-1.211 1.98-.452.522-1.046 1.12-1.783 1.792-.808.722-1.402 1.344-1.782 1.867-.38.498-.57 1.083-.57 1.755h-6.347zM57.98 39c-1.164 0-2.127-.373-2.887-1.12-.76-.772-1.141-1.706-1.141-2.801 0-1.12.368-2.042 1.105-2.764.76-.722 1.735-1.083 2.923-1.083 1.189 0 2.163.361 2.924 1.083.76.722 1.14 1.644 1.14 2.764 0 1.095-.38 2.029-1.14 2.8-.76.748-1.735 1.121-2.924 1.121z" fill="#fff"/><path d="M65.667 24.053c.513-.592.943-1.297 1.293-2.108h0l.002-.005c.363-.868.538-1.844.538-2.92 0-2.368-.939-4.241-2.812-5.56-1.82-1.323-4.203-1.96-7.1-1.96-2.583 0-4.82.498-6.692 1.517-1.864 1.016-3.311 2.44-4.332 4.266l-.244.435.435.245 5.312 2.987.436.246.245-.437c.437-.778.997-1.373 1.679-1.797a4.443 4.443 0 0 1 2.341-.636c.847 0 1.477.203 1.937.565l.01.007.01.007c.463.33.68.752.68 1.31 0 .408-.126.805-.404 1.202-.31.416-.798.953-1.476 1.615-1.014.986-1.803 1.911-2.353 2.775-.59.9-.864 2.023-.864 3.334v.5h7.345v-.5c0-.571.16-1.047.468-1.452h0l.007-.009c.35-.481.915-1.077 1.711-1.788h0l.004-.004c.746-.68 1.355-1.292 1.824-1.835zm0 0s0 0 0 0l-.378-.327.377.328s0 0 0 0zm-18.64-6.574c.073-.13.15-.257.227-.383l-.009-.005-.218.388zm5.285 3.036l-.436-.246s0 0 0 0l.436.246zm2.495 8.626c0-.17.005-.337.015-.5h-.015v.5zm-.07 9.09h0l.005.005c.864.848 1.956 1.264 3.238 1.264 1.303 0 2.409-.414 3.274-1.264h0l.006-.005c.854-.867 1.285-1.927 1.285-3.152 0-1.247-.43-2.303-1.297-3.126-.866-.822-1.97-1.22-3.268-1.22-1.298 0-2.401.398-3.267 1.22h0l-.006.005c-.841.825-1.255 1.879-1.255 3.12 0 1.226.43 2.286 1.285 3.153z" stroke="#246EDE" stroke-opacity=".3"/><path d="M225.396 97.552c0-2.582.549-4.7 1.647-6.351 1.098-1.704 2.695-3.563 4.791-5.577 1.448-1.394 2.521-2.556 3.219-3.486.699-.98 1.049-2.014 1.049-3.098 0-1.497-.624-2.685-1.872-3.563-1.198-.93-2.77-1.394-4.717-1.394-1.996 0-3.818.49-5.465 1.472-1.597.98-2.895 2.35-3.893 4.105L209 73.463c2.046-3.614 4.941-6.428 8.684-8.442 3.744-2.014 8.261-3.021 13.551-3.021 5.94 0 10.706 1.29 14.3 3.873 3.643 2.53 5.465 6.093 5.465 10.689 0 2.117-.349 4.001-1.048 5.654-.699 1.6-1.547 2.969-2.546 4.105-.948 1.084-2.196 2.323-3.743 3.718-1.697 1.497-2.945 2.788-3.743 3.873-.799 1.032-1.198 2.246-1.198 3.64h-13.326zM232.059 118c-2.446 0-4.467-.775-6.064-2.324-1.597-1.6-2.396-3.537-2.396-5.809 0-2.323.774-4.234 2.321-5.731 1.597-1.498 3.643-2.247 6.139-2.247 2.495 0 4.542.749 6.139 2.247 1.597 1.497 2.396 3.408 2.396 5.731 0 2.272-.799 4.209-2.396 5.809-1.597 1.549-3.644 2.324-6.139 2.324z" fill="#fff"/><path d="M224.896 97.552v.5h14.326v-.5c0-1.292.367-2.396 1.093-3.335h0l.007-.009c.768-1.043 1.986-2.307 3.672-3.794l.004-.004c1.556-1.402 2.819-2.655 3.784-3.76 1.037-1.18 1.912-2.593 2.628-4.234h0l.002-.005c.729-1.725 1.088-3.677 1.088-5.85 0-4.75-1.895-8.47-5.677-11.097-3.703-2.659-8.581-3.964-14.588-3.964-5.353 0-9.956 1.019-13.787 3.08-3.825 2.058-6.789 4.938-8.883 8.637l-.248.439.44.244 11.155 6.197.433.24.245-.43c.959-1.687 2.198-2.991 3.717-3.924 1.566-.932 3.297-1.4 5.206-1.4 1.868 0 3.322.445 4.41 1.29l.01.006.009.007c1.118.786 1.66 1.823 1.66 3.154 0 .967-.309 1.898-.952 2.803-.676.898-1.726 2.036-3.163 3.42-2.112 2.03-3.737 3.917-4.863 5.664-1.165 1.755-1.728 3.975-1.728 6.625zm.745 18.478h0l.006.005c1.7 1.649 3.85 2.465 6.412 2.465 2.608 0 4.785-.814 6.487-2.465h0l.006-.005c1.691-1.695 2.542-3.759 2.542-6.163 0-2.452-.849-4.498-2.554-6.096-1.703-1.597-3.878-2.382-6.481-2.382-2.604 0-4.778.785-6.481 2.382h0l-.006.005c-1.653 1.6-2.473 3.644-2.473 6.091 0 2.404.851 4.468 2.542 6.163z" stroke="#246EDE" stroke-opacity=".3"/></svg>