<svg width="788" height="468" fill="none" xmlns="http://www.w3.org/2000/svg"><path opacity=".1" d="M9 340a10 10 0 0 1 10-10h205a10 10 0 0 1 10 10v95.6a10 10 0 0 1-10 10H19a10 10 0 0 1-10-10V340z" fill="#246EDE"/><path opacity=".1" d="M122.3 360c0-1 .9-1.9 2-1.9H140a2 2 0 0 1 0 4h-15.8a2 2 0 0 1-2-2z" fill="#246EDE"/><path d="M0 348.8a10 10 0 0 1 10-10h205a10 10 0 0 1 10 10v95.5a10 10 0 0 1-10 10H10a10 10 0 0 1-10-10v-95.5z" fill="#fff"/><path d="M.5 348.8a9.5 9.5 0 0 1 9.5-9.5h205a9.5 9.5 0 0 1 9.6 9.5v95.5a9.5 9.5 0 0 1-9.5 9.5H10a9.5 9.5 0 0 1-9.5-9.5v-95.5z" stroke="#246EDE" stroke-opacity=".5"/><path d="M88.3 360c0-1 .9-1.9 2-1.9h24.6a2 2 0 0 1 0 4H90.3a2 2 0 0 1-2-2zm-53 0c0-1 .8-1.9 1.9-1.9h19.2a2 2 0 0 1 0 4H37.2a2 2 0 0 1-2-2zm29.2 0c0-1 .9-1.9 2-1.9h13a2 2 0 0 1 0 4h-13a2 2 0 0 1-2-2z" fill="#F1F1F1"/><path d="M63.8 398.7c0-1.1.9-2 2-2H89a2 2 0 0 1 0 4H65.8a2 2 0 0 1-2-2zm6.8 6.5c0-1 .9-2 2-2H89a2 2 0 0 1 0 4H72.5a2 2 0 0 1-2-2zm-58.5-6.5c0-1.1.9-2 2-2h17.1a2 2 0 0 1 0 4H14.1a2 2 0 0 1-2-2zm25.8 0c0-1.1 1-2 2-2h17.2a2 2 0 0 1 0 4H39.9a2 2 0 0 1-2-2zm-25.8 6.5c0-1 .9-2 2-2h29.4a2 2 0 0 1 0 4H14a2 2 0 0 1-2-2zm38 0c0-1 1-2 2-2H64a2 2 0 0 1 0 4H52.2a2 2 0 0 1-2-2zm-38 6.6c0-1.1.9-2 2-2h13a2 2 0 1 1 0 4h-13a2 2 0 0 1-2-2zm21.8 0c0-1.1.8-2 2-2h11.6a2 2 0 1 1 0 4H35.8a2 2 0 0 1-2-2zm20.4 0c0-1.1.9-2 2-2h10.3a2 2 0 1 1 0 4H56.2a2 2 0 0 1-2-2z" fill="#E6E7E8"/><rect x="195.9" y="350.1" width="4.4" height="4.2" rx="1.5" stroke="#246EDE"/><path d="M25.2 359.4c0 3.3-2.8 6-6.3 6s-6.3-2.7-6.3-6 2.8-6 6.3-6 6.3 2.7 6.3 6z" stroke="#F1F1F1"/><path d="M209 350.3l-4.1 3.9m0-4l4 4m-17.6-2h-4.8" stroke="#246EDE"/><path opacity=".1" d="M122.3 391a10 10 0 0 1 10-10h67.8a10 10 0 0 1 10 10v34.3a10 10 0 0 1-10 10h-67.8a10 10 0 0 1-10-10V391zM12.1 429.8a6.2 6.2 0 0 1 6.2-6.3h36.6a6.2 6.2 0 0 1 0 12.5H18.3a6.2 6.2 0 0 1-6.2-6.2z" fill="#246EDE"/><path d="M12 384a3 3 0 0 1 3-3H46a3 3 0 0 1 0 5.9H15a3 3 0 0 1-3-3zm68.3 0a3 3 0 0 1 3-3H101a3 3 0 0 1 0 5.9H83.2a3 3 0 0 1-3-3zm-27.4 0a3 3 0 0 1 3-3h17.3a3 3 0 0 1 0 5.9H56a3 3 0 0 1-3-3z" fill="#F1F1F1"/><rect opacity=".3" x="286.2" y="168" width="216.5" height="277.5" rx="10" fill="#246EDE" fill-opacity=".3"/><rect x="271" y="175.9" width="223.2" height="277.7" rx="10" fill="#fff"/><rect x="271.5" y="176.4" width="222.2" height="276.7" rx="9.5" stroke="#246EDE" stroke-opacity=".5"/><path d="M361.3 199c0-1 .9-2 2-2h23.5a2 2 0 1 1 0 4h-23.5a2 2 0 0 1-2-2zm-51 0c0-1 .9-2 2-2h18.3a2 2 0 0 1 0 4h-18.4a2 2 0 0 1-2-2zm28.1 0c0-1 .9-2 2-2h12.4a2 2 0 0 1 0 4h-12.4a2 2 0 0 1-2-2zm55.6 0c0-1 1-2 2-2h15a2 2 0 0 1 0 4h-15a2 2 0 0 1-2-2zm-56.2 38.7c0-1.1.8-2 2-2H362a2 2 0 1 1 0 4h-22.3a2 2 0 0 1-2-2zm6.5 6.5c0-1 .9-2 2-2H362a2 2 0 1 1 0 4h-15.7a2 2 0 0 1-2-2zm13 86.7c0-1.1.9-2 2-2h24.2a2 2 0 0 1 0 4h-24.2a2 2 0 0 1-2-2zm32.7 0c0-1.1.9-2 2-2h14.4a2 2 0 0 1 0 4H392a2 2 0 0 1-2-2zm-32.7 6.5c0-1 .9-2 2-2h21.6a2 2 0 0 1 0 4h-21.6a2 2 0 0 1-2-2zm30 0c0-1 1-2 2-2h17a2 2 0 0 1 0 4h-17a2 2 0 0 1-2-2zm5.3 6.6c0-1.1 1-2 2-2h11.8a2 2 0 0 1 0 4h-11.8a2 2 0 0 1-2-2zm-35.3 0c0-1.1.9-2 2-2h12.4a2 2 0 0 1 0 4h-12.4a2 2 0 0 1-2-2zm21 0c0-1.1.8-2 1.9-2h5.9a2 2 0 0 1 0 4h-5.9a2 2 0 0 1-2-2zm-89.7-13.1c0-1.1.9-2 2-2h16.3a2 2 0 0 1 0 4h-16.4a2 2 0 0 1-2-2zm24.8 0c0-1.1 1-2 2-2h22.3a2 2 0 0 1 0 4h-22.3a2 2 0 0 1-2-2zm-24.8 6.5c0-1 .9-2 2-2h28a2 2 0 1 1 0 4h-28a2 2 0 0 1-2-2zm36 0c0-1 .8-2 2-2h11a2 2 0 0 1 0 4h-11a2 2 0 0 1-2-2zm-36 6.6c0-1.1.9-2 2-2H303a2 2 0 1 1 0 4h-12.5a2 2 0 0 1-2-2zm22.2 0c0-1.1 1-2 2-2h24.9a2 2 0 0 1 0 4h-25a2 2 0 0 1-1.9-2zM288 237.7c0-1.1 1-2 2-2h16.4a2 2 0 0 1 0 4H290a2 2 0 0 1-2-2zm24.9 0c0-1.1.9-2 2-2h16.3a2 2 0 0 1 0 4H315a2 2 0 0 1-2-2zm-24.9 6.5c0-1 1-2 2-2H318a2 2 0 0 1 0 4H290a2 2 0 0 1-2-2zm36.7 0c0-1 .9-2 2-2h11a2 2 0 1 1 0 4h-11a2 2 0 0 1-2-2zm-36.7 6.5c0-1 1-2 2-2h12.4a2 2 0 1 1 0 4H290a2 2 0 0 1-2-2zm21 0c0-1 .9-2 2-2h11a2 2 0 0 1 0 4h-11a2 2 0 0 1-2-2zm19.6 0c0-1 .9-2 2-2h9.8a2 2 0 1 1 0 4h-9.8a2 2 0 0 1-2-2zm18.3 0c0-1 1-2 2-2h13a2 2 0 1 1 0 4h-13a2 2 0 0 1-2-2zm95.5 80.2c0-1.1.8-2 2-2h16.3a2 2 0 0 1 0 4h-16.4a2 2 0 0 1-2-2zm24.8 0c0-1.1 1-2 2-2h5.9a2 2 0 0 1 0 4h-5.9a2 2 0 0 1-2-2zm-41.2 6.5c0-1 .9-2 2-2h23.5a2 2 0 0 1 0 4H428a2 2 0 0 1-2-2zm32 0c0-1 1-2 2-2h15a2 2 0 0 1 0 4h-15a2 2 0 0 1-2-2zm-32-6.5c0-1.1.9-2 2-2h7.8a2 2 0 0 1 0 4H428a2 2 0 0 1-2-2zm0 13c0-1 .9-2 2-2h9.8a2 2 0 0 1 0 4H428a2 2 0 0 1-2-2zm18.3 0c0-1 1-2 2-2H475a2 2 0 0 1 0 4h-28.8a2 2 0 0 1-2-2z" fill="#E6E7E8"/><rect x="464.8" y="189.1" width="4.2" height="4.2" rx="1.5" stroke="#246EDE"/><g opacity=".3"><circle cx="294.6" cy="198.4" r="6.5" fill="#E6E7E8"/><circle cx="294.6" cy="198.4" r="6" stroke="#246EDE" stroke-opacity=".3"/></g><circle opacity=".3" cx="313.2" cy="314" r="7.6" fill="#246EDE" fill-opacity=".3" stroke="#E6E7E8"/><circle opacity=".3" cx="383.2" cy="314" r="7.6" fill="#246EDE" fill-opacity=".3" stroke="#E6E7E8"/><circle opacity=".3" cx="450.8" cy="314" r="7.6" fill="#246EDE" fill-opacity=".3" stroke="#E6E7E8"/><path d="M477.4 189.2l-4 4m0-4l4 4m-17-2h-4.6" stroke="#246EDE"/><path opacity=".1" d="M394 229.9a10 10 0 0 1 10-10h62.7a10 10 0 0 1 10 10v34.4a10 10 0 0 1-10 10H404a10 10 0 0 1-10-10V230zM290 388.4a10 10 0 0 1 10-10h93.2a10 10 0 0 1 10 10v41.5a10 10 0 0 1-10 10H300a10 10 0 0 1-10-10v-41.5z" fill="#246EDE" fill-opacity=".3"/><path d="M413.4 388.4a9.5 9.5 0 0 1 9.5-9.5h44.8a9.5 9.5 0 0 1 9.5 9.5v41.5a9.5 9.5 0 0 1-9.5 9.5h-44.8a9.5 9.5 0 0 1-9.5-9.5v-41.5z" stroke="#246EDE"/><path d="M288.5 268.7a5.7 5.7 0 0 1 5.7-5.7H329a5.7 5.7 0 1 1 0 11.5h-34.7a5.7 5.7 0 0 1-5.7-5.8z" fill="#246EDE" stroke="#246EDE"/><path d="M288.5 223a2.4 2.4 0 0 1 2.5-2.5h29.4a2.4 2.4 0 0 1 0 4.9H291a2.4 2.4 0 0 1-2.5-2.5z" fill="#fff" fill-opacity=".3" stroke="#E6E7E8"/><path d="M357.3 295.7a3 3 0 0 1 3-2.9H408a3 3 0 1 1 0 5.9h-47.8a3 3 0 0 1-3-3z" fill="#fff" fill-opacity=".3"/><path d="M357.8 295.7a2.4 2.4 0 0 1 2.4-2.4H408a2.4 2.4 0 1 1 0 4.9h-47.8a2.4 2.4 0 0 1-2.4-2.5z" stroke="#246EDE" stroke-opacity=".3"/><path d="M354.1 223a2.4 2.4 0 0 1 2.4-2.5h17a2.4 2.4 0 0 1 0 4.9h-17a2.4 2.4 0 0 1-2.4-2.5zm-26.3 0a2.4 2.4 0 0 1 2.4-2.5h16.5a2.4 2.4 0 0 1 0 4.9h-16.5a2.4 2.4 0 0 1-2.4-2.5zm-37.3 145.2a2.4 2.4 0 0 1 2.4-2.4h29.5a2.4 2.4 0 1 1 0 4.9h-29.5a2.4 2.4 0 0 1-2.4-2.5zm39.3 0a2.4 2.4 0 0 1 2.4-2.4h16.5a2.4 2.4 0 1 1 0 4.9h-16.5a2.4 2.4 0 0 1-2.4-2.5zm26.3 0a2.4 2.4 0 0 1 2.4-2.4h30.1a2.4 2.4 0 1 1 0 4.9h-30a2.4 2.4 0 0 1-2.5-2.5z" fill="#fff" fill-opacity=".3" stroke="#E6E7E8"/><path d="M422.5 406.2a3.8 3.8 0 0 1 3.8-3.8h38.6a3.8 3.8 0 0 1 0 7.5h-38.6a3.8 3.8 0 0 1-3.8-3.7zm0-13.8a3.8 3.8 0 0 1 3.8-3.7h38.6a3.8 3.8 0 0 1 0 7.5h-38.6a3.8 3.8 0 0 1-3.8-3.8z" stroke="#246EDE"/><path d="M422.5 423.2a5.7 5.7 0 0 1 5.7-5.7H463a5.7 5.7 0 1 1 0 11.4h-34.7a5.7 5.7 0 0 1-5.7-5.7z" fill="#246EDE" stroke="#246EDE"/><path opacity=".1" d="M554 338a10 10 0 0 1 10-10h204a10 10 0 0 1 10 10v96a10 10 0 0 1-10 10H564a10 10 0 0 1-10-10v-96z" fill="#246EDE"/><path opacity=".1" d="M667.9 356.3c0-1 .9-2 2-2h15.4a2 2 0 1 1 0 4h-15.5a2 2 0 0 1-2-2z" fill="#246EDE"/><path d="M544 349a10 10 0 0 1 10-10h206a10 10 0 0 1 10 10v95a10 10 0 0 1-10 10H554a10 10 0 0 1-10-10v-95z" fill="#fff"/><path d="M544.5 349a9.5 9.5 0 0 1 9.5-9.5h206a9.5 9.5 0 0 1 9.5 9.5v95a9.5 9.5 0 0 1-9.5 9.5H554a9.5 9.5 0 0 1-9.5-9.5v-95z" stroke="#246EDE" stroke-opacity=".5"/><path d="M634.4 356.3c0-1 .9-2 2-2h24.2a2 2 0 0 1 0 4h-24.2a2 2 0 0 1-2-2zm-52.2 0c0-1 .9-2 2-2H603a2 2 0 0 1 0 4H584a2 2 0 0 1-2-2zm28.8 0c0-1 .8-2 2-2h12.7a2 2 0 0 1 0 4H613a2 2 0 0 1-2-2z" fill="#F1F1F1"/><path d="M610.3 395c0-1.2.9-2 2-2H635a2 2 0 0 1 0 3.9h-22.8a2 2 0 0 1-2-2zm6.7 6.5c0-1.1.9-2 2-2H635a2 2 0 0 1 0 4H619a2 2 0 0 1-2-2zm-57.6-6.6c0-1 .9-2 2-2h16.8a2 2 0 1 1 0 4h-16.8a2 2 0 0 1-2-2zm25.5 0c0-1 .8-2 2-2h16.7a2 2 0 0 1 0 4h-16.8a2 2 0 0 1-2-2zm-25.5 6.6c0-1.1.9-2 2-2h28.9a2 2 0 0 1 0 4h-29a2 2 0 0 1-1.9-2zm37.5 0c0-1.1.9-2 2-2h11.4a2 2 0 0 1 0 4H599a2 2 0 0 1-2-2zm-37.5 6.5c0-1 .9-2 2-2h12.8a2 2 0 0 1 0 4h-12.8a2 2 0 0 1-2-2zm21.4 0c0-1 1-2 2-2h11.5a2 2 0 1 1 0 4h-11.5a2 2 0 0 1-2-2zm20.1 0c0-1 .9-2 2-2H613a2 2 0 0 1 0 4H603a2 2 0 0 1-2-2z" fill="#E6E7E8"/><rect x="740.2" y="351.3" width="4.4" height="4.2" rx="1.5" stroke="#246EDE"/><path d="M572.3 355.7c0 3.3-2.8 6-6.2 6a6.1 6.1 0 0 1-6.2-6c0-3.4 2.8-6 6.2-6 3.4 0 6.2 2.6 6.2 6z" stroke="#F1F1F1"/><path d="M753.1 351.5l-4 4m0-4l4 4m-17.4-2H731" stroke="#246EDE"/><path opacity=".1" d="M667.9 387.2a10 10 0 0 1 10-10h66.3a10 10 0 0 1 10 10v34.4a10 10 0 0 1-10 10H678a10 10 0 0 1-10-10v-34.4zM559.4 426a6.2 6.2 0 0 1 6.2-6.2h35.8a6.2 6.2 0 0 1 0 12.4h-35.8a6.2 6.2 0 0 1-6.2-6.2z" fill="#246EDE"/><path d="M559.4 380.2a3 3 0 0 1 3-3h30.2a3 3 0 0 1 0 6h-30.2a3 3 0 0 1-3-3zm67.1 0a3 3 0 0 1 3-3H647a3 3 0 0 1 0 6h-17.6a3 3 0 0 1-2.9-3zm-27 0a3 3 0 0 1 3-3h17a3 3 0 1 1 0 6h-17a3 3 0 0 1-3-3z" fill="#F1F1F1"/><path opacity=".1" d="M13.4 177a10 10 0 0 1 10-10H224a10 10 0 0 1 10 10v118.9a10 10 0 0 1-10 10H23.4a10 10 0 0 1-10-10V177z" fill="#246EDE"/><path d="M0 185a10 10 0 0 1 10-10h205a10 10 0 0 1 10 10v121.4a10 10 0 0 1-10 10H10a10 10 0 0 1-10-10V185z" fill="#fff"/><path d="M.5 185a9.5 9.5 0 0 1 9.5-9.6h205a9.5 9.5 0 0 1 9.6 9.5v121.5c0 5.3-4.3 9.5-9.5 9.5H10a9.5 9.5 0 0 1-9.5-9.5V185z" stroke="#246EDE" stroke-opacity=".5"/><path d="M186.6 231.2c0-1 .9-2 2-2h23.2a2 2 0 0 1 0 4h-23.3a2 2 0 0 1-2-2zm0 20.4c0-1.1.9-2 2-2h23.2a2 2 0 0 1 0 4h-23.3a2 2 0 0 1-2-2zm6.8-13.8c0-1 .9-2 2-2h16.4a2 2 0 1 1 0 4h-16.5a2 2 0 0 1-2-2zm0 20.3c0-1 .9-2 2-2h16.4a2 2 0 1 1 0 4h-16.5a2 2 0 0 1-2-2zm-58.5-26.9c0-1 .8-2 2-2h17a2 2 0 0 1 0 4h-17a2 2 0 0 1-2-2zm0 20.4c0-1.1.8-2 2-2h17a2 2 0 0 1 0 4h-17a2 2 0 0 1-2-2zm25.8-20.4c0-1 .9-2 2-2h17.1a2 2 0 0 1 0 4h-17.1a2 2 0 0 1-2-2zm0 20.4c0-1.1.9-2 2-2h17.1a2 2 0 0 1 0 4h-17.1a2 2 0 0 1-2-2zM135 237.8c0-1 .8-2 2-2h29.3a2 2 0 1 1 0 4h-29.4a2 2 0 0 1-2-2zm0 20.3c0-1 .8-2 2-2h29.3a2 2 0 1 1 0 4h-29.4a2 2 0 0 1-2-2zm38-20.3c0-1 1-2 2-2h11.8a2 2 0 0 1 0 4h-11.8a2 2 0 0 1-2-2zm0 20.3c0-1 1-2 2-2h11.8a2 2 0 0 1 0 4h-11.8a2 2 0 0 1-2-2zm-38-13.8c0-1 .8-2 2-2h13a2 2 0 0 1 0 4h-13a2 2 0 0 1-2-2zm0 20.4c0-1.1.8-2 2-2h13a2 2 0 0 1 0 4h-13a2 2 0 0 1-2-2zm61.6-20.2c0-1 .9-2 2-2h13a2 2 0 0 1 0 4h-13a2 2 0 0 1-2-2zm0 20.4c0-1.1.9-2 2-2h13a2 2 0 0 1 0 4h-13a2 2 0 0 1-2-2zm-39.9-20.6c0-1 1-2 2-2h11.7a2 2 0 0 1 0 4h-11.7a2 2 0 0 1-2-2zm0 20.4c0-1.1 1-2 2-2h11.7a2 2 0 0 1 0 4h-11.7a2 2 0 0 1-2-2zm20.4-20.4c0-1 1-2 2-2h10.4a2 2 0 1 1 0 4H179a2 2 0 0 1-2-2zm0 20.4c0-1.1 1-2 2-2h10.4a2 2 0 1 1 0 4H179a2 2 0 0 1-2-2z" fill="#E6E7E8"/><rect x="200.3" y="186" width="4.4" height="4.2" rx="1.5" stroke="#246EDE"/><path d="M213.4 186.1l-4 4m0-4l4 4m-17.7-2H191" stroke="#246EDE"/><path opacity=".1" d="M12.5 221.8a10 10 0 0 1 10-10h94.3a10 10 0 0 1 10 10v57.4a10 10 0 0 1-10 10H22.5a10 10 0 0 1-10-10v-57.4zm122.4 56.9a6.2 6.2 0 0 1 6.2-6.2h36.5a6.2 6.2 0 1 1 0 12.4h-36.5a6.2 6.2 0 0 1-6.2-6.2z" fill="#246EDE"/><path d="M134.9 220a3 3 0 0 1 3-3h30.8a3 3 0 1 1 0 6h-30.9a3 3 0 0 1-3-3zm40.8 0a3 3 0 0 1 3-3H196a3 3 0 1 1 0 6h-17.4a3 3 0 0 1-3-3zm-87.9-20.3c0-1.1.9-2 2-2h24.6a2 2 0 0 1 0 4H89.8a2 2 0 0 1-2-2zm-53 0c0-1.1.8-2 2-2h19.1a2 2 0 1 1 0 4H36.7a2 2 0 0 1-2-2zm29.2 0c0-1.1.9-2 2-2h13a2 2 0 1 1 0 4H66a2 2 0 0 1-2-2z" fill="#F1F1F1"/><path d="M24.7 199c0 3.4-2.8 6-6.3 6a6.2 6.2 0 0 1-6.3-6c0-3.3 2.8-6 6.3-6s6.3 2.7 6.3 6z" stroke="#F1F1F1"/><rect opacity=".3" x="560.7" width="217.1" height="293.5" rx="10" fill="#246EDE" fill-opacity=".3"/><rect x="544" y="7.9" width="225.9" height="297.9" rx="10" fill="#fff"/><rect x="544.5" y="8.4" width="224.9" height="296.9" rx="9.5" stroke="#246EDE" stroke-opacity=".5"/><path d="M636 31c0-1 1-2 2-2h23.6a2 2 0 0 1 0 4H638a2 2 0 0 1-2-2zm-.2 254.8c0-1 .8-2 2-2h23.5a2 2 0 1 1 0 4h-23.6a2 2 0 0 1-2-2zM585 31c0-1 1-2 2-2h18.3a2 2 0 0 1 0 4H587a2 2 0 0 1-2-2zm-.3 254.8c0-1 .9-2 2-2H605a2 2 0 0 1 0 4h-18.3a2 2 0 0 1-2-2zM613.2 31c0-1 .9-2 2-2h12.4a2 2 0 0 1 0 4H615a2 2 0 0 1-2-2zm-.4 254.8c0-1 1-2 2-2h12.4a2 2 0 0 1 0 4h-12.4a2 2 0 0 1-2-2zm56-254.8c0-1 .9-2 2-2h15a2 2 0 0 1 0 4h-15a2 2 0 0 1-2-2zm-.3 254.8c0-1 .9-2 2-2h15a2 2 0 0 1 0 4h-15a2 2 0 0 1-2-2zm-48-148.3c0-1.2 1-2.2 2.2-2.2H649a2.2 2.2 0 1 1 0 4.4h-26.3a2.2 2.2 0 0 1-2.2-2.2zm7.9 7c0-1.1 1-2.1 2.2-2.1H649a2.2 2.2 0 1 1 0 4.4h-18.4a2.2 2.2 0 0 1-2.2-2.2zm62.4 11.3c0-1.1.8-2 2-2h30a2 2 0 0 1 0 4h-30a2 2 0 0 1-2-2zm39.4 0c0-1.1.9-2 2-2h18.1a2 2 0 0 1 0 4h-18.1a2 2 0 0 1-2-2zm-39.4 6.5c0-1 .8-2 2-2h26.8a2 2 0 0 1 0 4h-26.9a2 2 0 0 1-2-2zm36.3 0c0-1 .8-2 2-2h21.2a2 2 0 1 1 0 4H729a2 2 0 0 1-2-2zm6.3 6.6c0-1.1.8-2 2-2h15a2 2 0 0 1 0 4h-15a2 2 0 0 1-2-2zm-42.6 0c0-1.1.8-2 2-2h15.7a2 2 0 0 1 0 4h-15.8a2 2 0 0 1-2-2zm25.2 0c0-1.1.9-2 2-2h7.9a2 2 0 1 1 0 4h-8a2 2 0 0 1-1.9-2zm-25.2-39.5c0-1 .8-2 2-2h20.5a2 2 0 0 1 0 4h-20.6a2 2 0 0 1-2-2zm30 0c0-1 .8-2 1.9-2h27.6a2 2 0 0 1 0 4h-27.6a2 2 0 0 1-2-2zm-30 6.5c0-1 .8-2 2-2h34.7a2 2 0 0 1 0 4h-34.8a2 2 0 0 1-2-2zm43.3 0c0-1 1-2 2-2h14.2a2 2 0 0 1 0 4h-14.2a2 2 0 0 1-2-2zm-43.3 6.6c0-1.1.8-2 2-2h15.7a2 2 0 0 1 0 4h-15.8a2 2 0 0 1-2-2zm26.8 0c0-1.1.9-2 2-2h30.7a2 2 0 0 1 0 4h-30.8a2 2 0 0 1-2-2zm-155.1-5c0-1.2 1-2.2 2.2-2.2H584a2.2 2.2 0 0 1 0 4.4h-19.3a2.2 2.2 0 0 1-2.2-2.2zm29 0c0-1.2 1-2.2 2.2-2.2H613a2.2 2.2 0 1 1 0 4.4h-19.3a2.2 2.2 0 0 1-2.2-2.2zm-29 7c0-1.1 1-2.1 2.2-2.1H598a2.2 2.2 0 0 1 0 4.4h-33.3a2.2 2.2 0 0 1-2.2-2.2zm43 0c0-1.1 1-2.1 2.2-2.1H621a2.2 2.2 0 0 1 0 4.4h-13.2a2.2 2.2 0 0 1-2.2-2.2zm-43 7.1c0-1.2 1-2.2 2.2-2.2h14.9a2.2 2.2 0 1 1 0 4.4h-15a2.2 2.2 0 0 1-2.1-2.2zm24.6 0c0-1.2 1-2.2 2.2-2.2h13.1a2.2 2.2 0 1 1 0 4.4h-13.1a2.2 2.2 0 0 1-2.2-2.2zm22.8 0c0-1.2 1-2.2 2.2-2.2h11.4a2.2 2.2 0 1 1 0 4.4h-11.4a2.2 2.2 0 0 1-2.2-2.2zm21.1 0c0-1.2 1-2.2 2.2-2.2H649a2.2 2.2 0 1 1 0 4.4h-15.8a2.2 2.2 0 0 1-2.2-2.2zm79.5 27.9c0-1 .9-2 2-2H733a2 2 0 0 1 0 4h-20.5a2 2 0 0 1-2-2zm30 0c0-1 .8-2 2-2h7.8a2 2 0 0 1 0 4h-7.9a2 2 0 0 1-2-2zm-49.7 6.5c0-1 .8-2 2-2h29.1a2 2 0 0 1 0 4h-29.2a2 2 0 0 1-2-2zm38.6 0c0-1 .9-2 2-2h19a2 2 0 0 1 0 4h-19a2 2 0 0 1-2-2zm-38.6-6.5c0-1 .8-2 2-2H703a2 2 0 0 1 0 4h-10.3a2 2 0 0 1-2-2zm0 13c0-1 .8-1.9 2-1.9h12.6a2 2 0 0 1 0 4h-12.7a2 2 0 0 1-2-2zm22 0c0-1 1-1.9 2-1.9h35.5a2 2 0 0 1 0 4h-35.5a2 2 0 0 1-2-2z" fill="#E6E7E8"/><rect x="739.6" y="21.1" width="4.2" height="4.2" rx="1.5" stroke="#246EDE"/><g opacity=".3"><circle cx="569.3" cy="30.4" r="6.5" fill="#E6E7E8"/><circle cx="569.3" cy="30.4" r="6" stroke="#246EDE" stroke-opacity=".3"/></g><g opacity=".3"><circle cx="569" cy="285.1" r="6.5" fill="#E6E7E8"/><circle cx="569" cy="285.1" r="6" stroke="#246EDE" stroke-opacity=".3"/></g><circle opacity=".1" cx="671.7" cy="135.6" r="8.1" fill="#246EDE"/><circle opacity=".1" cx="671.7" cy="161.9" r="8.1" fill="#246EDE"/><circle opacity=".1" cx="671.7" cy="186.5" r="8.1" fill="#246EDE"/><path d="M752.1 21.2l-3.9 4m0-4l4 4m-17-2h-4.7" stroke="#246EDE"/><path opacity=".1" d="M562.5 73.3a10 10 0 0 1 10-10h68.7a10 10 0 0 1 10 10v34.5a10 10 0 0 1-10 10h-68.7a10 10 0 0 1-10-10V73.3z" fill="#246EDE"/><rect opacity=".1" x="562.5" y="158.2" width="42.2" height="25.5" rx="5" fill="#246EDE"/><rect opacity=".1" x="609.9" y="158.2" width="41.3" height="25.5" rx="5" fill="#246EDE"/><path opacity=".1" d="M562.5 256.3a10 10 0 0 0 10 10h97.7a10 10 0 0 0 10-10v-41.5a10 10 0 0 0-10-10h-97.7a10 10 0 0 0-10 10v41.5zm101-183a10 10 0 0 1 10-10h68.8a10 10 0 0 1 10 10v34.5a10 10 0 0 1-10 10h-68.8a10 10 0 0 1-10-10V73.3z" fill="#246EDE"/><path d="M691.3 214.8a9.5 9.5 0 0 1 9.5-9.5h41.5a9.5 9.5 0 0 1 9.5 9.5v41.5a9.5 9.5 0 0 1-9.5 9.5h-41.5a9.5 9.5 0 0 1-9.5-9.5v-41.5z" stroke="#246EDE"/><path d="M698.3 250.5a5.7 5.7 0 0 1 5.7-5.7h34.7a5.7 5.7 0 1 1 0 11.5H704a5.7 5.7 0 0 1-5.7-5.8z" fill="#246EDE" stroke="#246EDE"/><path d="M563.3 127.7a2.4 2.4 0 0 1 2.4-2.4h29.5a2.4 2.4 0 1 1 0 4.9h-29.5a2.4 2.4 0 0 1-2.4-2.5zm0 63.3a2.4 2.4 0 0 1 2.4-2.4h29.5a2.4 2.4 0 0 1 0 4.9h-29.5a2.4 2.4 0 0 1-2.4-2.5zM664 54.8a2.4 2.4 0 0 1 2.5-2.4h29.4a2.4 2.4 0 1 1 0 4.8h-29.4a2.4 2.4 0 0 1-2.5-2.4zm-35.1 73a2.4 2.4 0 0 1 2.4-2.5h17a2.4 2.4 0 1 1 0 4.9h-17a2.4 2.4 0 0 1-2.4-2.5zm0 63.2a2.4 2.4 0 0 1 2.4-2.4h17a2.4 2.4 0 1 1 0 4.9h-17a2.4 2.4 0 0 1-2.4-2.5zM589.3 54.8a2.4 2.4 0 0 1 2.4-2.4h17a2.4 2.4 0 0 1 0 4.8h-17a2.4 2.4 0 0 1-2.4-2.4zm13.3 73a2.4 2.4 0 0 1 2.4-2.5h16.5a2.4 2.4 0 1 1 0 4.9H605a2.4 2.4 0 0 1-2.4-2.5zm0 63.2a2.4 2.4 0 0 1 2.4-2.4h16.5a2.4 2.4 0 0 1 0 4.9H605a2.4 2.4 0 0 1-2.4-2.5zM563 54.8a2.4 2.4 0 0 1 2.4-2.4h16.5a2.4 2.4 0 1 1 0 4.8h-16.5a2.4 2.4 0 0 1-2.4-2.4zm142.3 0a2.4 2.4 0 0 1 2.5-2.4h16.5a2.4 2.4 0 0 1 0 4.8h-16.5a2.4 2.4 0 0 1-2.5-2.4z" fill="#fff" fill-opacity=".3" stroke="#E6E7E8"/><path d="M698.3 233.6a3.8 3.8 0 0 1 3.8-3.7h38.6a3.8 3.8 0 1 1 0 7.5H702a3.8 3.8 0 0 1-3.8-3.8zm0-14a3.8 3.8 0 0 1 3.8-3.8h38.6a3.8 3.8 0 0 1 0 7.5H702a3.8 3.8 0 0 1-3.8-3.7z" stroke="#246EDE"/><circle cx="680.2" cy="233.8" r="7" fill="#fff"/><circle cx="680.2" cy="233.8" r="6.5" stroke="#246EDE" stroke-opacity=".1"/><path d="M679.3 232l1.8 1.8-1.8 1.7" stroke="#246EDE"/><circle r="7" transform="matrix(-1 0 0 1 562.5 233.8)" fill="#fff"/><circle r="6.5" transform="matrix(-1 0 0 1 562.5 233.8)" stroke="#246EDE" stroke-opacity=".1"/><path d="M563.3 232l-1.7 1.8 1.7 1.7" stroke="#246EDE"/><path d="M509 139a10 10 0 0 1 10-10h110.2a10 10 0 0 1 10 10v63a10 10 0 0 1-10 10H519a10 10 0 0 1-10-10v-63z" fill="#fff"/><path d="M509.5 139a9.5 9.5 0 0 1 9.5-9.5h110.2a9.5 9.5 0 0 1 9.5 9.5v63a9.5 9.5 0 0 1-9.5 9.5H519a9.5 9.5 0 0 1-9.5-9.5v-63z" stroke="#246EDE" stroke-opacity=".3"/><rect opacity=".1" x="518" y="139.1" width="67.3" height="34.8" rx="5" fill="#246EDE"/><path d="M591 153.1a2.8 2.8 0 0 1 2.7-2.8h33.7a2.8 2.8 0 0 1 0 5.6h-33.7a2.8 2.8 0 0 1-2.8-2.8zm0 9a2.8 2.8 0 0 1 2.7-2.8h33.7a2.8 2.8 0 1 1 0 5.6h-33.7a2.8 2.8 0 0 1-2.8-2.8zm0 9a2.8 2.8 0 0 1 2.7-2.8h33.7a2.8 2.8 0 0 1 0 5.6h-33.7a2.8 2.8 0 0 1-2.8-2.8z" fill="#E6E7E8"/><path d="M591.4 142.9a3.3 3.3 0 0 1 3.3-3.3h21a3.3 3.3 0 1 1 0 6.5h-21a3.3 3.3 0 0 1-3.3-3.2z" fill="#fff" fill-opacity=".3" stroke="#E6E7E8"/><path d="M591 182.3a2.8 2.8 0 0 1 2.7-2.8h33.7a2.8 2.8 0 0 1 0 5.6h-33.7a2.8 2.8 0 0 1-2.8-2.8zm10 9a2.8 2.8 0 0 1 2.8-2.8h23.6a2.8 2.8 0 1 1 0 5.6h-23.6a2.8 2.8 0 0 1-2.8-2.8zm-84.1-9a2.8 2.8 0 0 1 2.8-2.8h24.6a2.8 2.8 0 0 1 0 5.6h-24.6a2.8 2.8 0 0 1-2.8-2.8zm37 0a2.8 2.8 0 0 1 2.8-2.8h24.7a2.8 2.8 0 1 1 0 5.6h-24.7a2.8 2.8 0 0 1-2.8-2.8zm-37 9a2.8 2.8 0 0 1 2.8-2.8h42.6a2.8 2.8 0 1 1 0 5.6h-42.6a2.8 2.8 0 0 1-2.8-2.8zm55 0a2.8 2.8 0 0 1 2.7-2.8h16.9a2.8 2.8 0 1 1 0 5.6h-16.9a2.8 2.8 0 0 1-2.8-2.8zm-55 9a2.8 2.8 0 0 1 2.8-2.9h19a2.8 2.8 0 1 1 0 5.7h-19a2.8 2.8 0 0 1-2.8-2.8zm31.4 0a2.8 2.8 0 0 1 2.8-2.9h16.8a2.8 2.8 0 0 1 0 5.7h-16.8a2.8 2.8 0 0 1-2.8-2.8zm29.1 0a2.8 2.8 0 0 1 2.9-2.9h14.5a2.8 2.8 0 0 1 0 5.7h-14.5a2.8 2.8 0 0 1-2.9-2.8zm27 0a2.8 2.8 0 0 1 2.8-2.9h20.2a2.8 2.8 0 1 1 0 5.7h-20.2a2.8 2.8 0 0 1-2.8-2.8z" fill="#E6E7E8"/><path d="M409.5 374a9.5 9.5 0 0 1 9.5-9.5h89a9.5 9.5 0 0 1 9.4 9.5v83.4a9.5 9.5 0 0 1-9.5 9.5H419a9.5 9.5 0 0 1-9.5-9.5V374z" fill="#fff" stroke="#F1F1F1"/><path d="M424.8 410.8a6.7 6.7 0 0 1 6.7-6.7h64.9a6.7 6.7 0 1 1 0 13.3h-65a6.7 6.7 0 0 1-6.6-6.6zm0-23.1a6.7 6.7 0 0 1 6.7-6.7h64.9a6.7 6.7 0 0 1 0 13.3h-65a6.7 6.7 0 0 1-6.6-6.6z" stroke="#246EDE"/><path d="M424.8 439a9.5 9.5 0 0 1 9.5-9.6h59.2a9.5 9.5 0 0 1 9.5 9.5v1a9.5 9.5 0 0 1-9.5 9.4h-59.2a9.5 9.5 0 0 1-9.5-9.5v-.9z" fill="#246EDE" stroke="#246EDE"/><path d="M246 225a10 10 0 0 1 10-10h85a10 10 0 0 1 10 10v61.9a10 10 0 0 1-10 10h-85a10 10 0 0 1-10-10V225z" fill="#fff"/><path d="M246.5 225a9.5 9.5 0 0 1 9.5-9.5h85a9.5 9.5 0 0 1 9.5 9.5v61.9a9.5 9.5 0 0 1-9.5 9.5h-85a9.5 9.5 0 0 1-9.5-9.5V225z" stroke="#246EDE" stroke-opacity=".1"/><path d="M261.8 232a2.3 2.3 0 0 1 2.3-2.3h24.5a2.3 2.3 0 0 1 0 4.7h-24.5a2.3 2.3 0 0 1-2.3-2.4zm35.8 0a2.3 2.3 0 0 1 2.3-2.3h33a2.3 2.3 0 1 1 0 4.7h-33a2.3 2.3 0 0 1-2.3-2.4zm-35.9 7.9a2.3 2.3 0 0 1 2.4-2.4h41.5a2.3 2.3 0 1 1 0 4.7H264a2.3 2.3 0 0 1-2.4-2.3zm51.9 0a2.3 2.3 0 0 1 2.3-2.4h17a2.3 2.3 0 1 1 0 4.7h-17a2.3 2.3 0 0 1-2.3-2.3zm-51.9 7.8a2.3 2.3 0 0 1 2.4-2.4H283a2.3 2.3 0 0 1 0 4.7H264a2.3 2.3 0 0 1-2.4-2.3zm32 0a2.3 2.3 0 0 1 2.4-2.4H333a2.3 2.3 0 0 1 0 4.7h-36.8a2.3 2.3 0 0 1-2.3-2.3z" fill="#E6E7E8"/><path d="M270.6 270.7a7 7 0 0 1 7-6.9H319a7 7 0 1 1 0 13.9h-41.4a7 7 0 0 1-7-7z" fill="#246EDE" stroke="#246EDE"/><rect x="687" y="370" width="100.5" height="69" rx="5" fill="#fff"/><rect x="687.5" y="370.5" width="99.5" height="68" rx="4.5" stroke="#246EDE" stroke-opacity=".5"/><rect opacity=".1" x="687" y="370" width="100.5" height="69" rx="5" fill="#246EDE"/></svg>