<svg width="661" height="571" fill="none" xmlns="http://www.w3.org/2000/svg"><g opacity=".3"><rect opacity=".2" x="93.6" y="64.5" width="46.9" height="64" rx="4.5" fill="#246EDE" stroke="#246EDE"/><rect x="89" y="68.1" width="47.9" height="65" rx="5" fill="#fff"/><rect x="89.5" y="68.6" width="46.9" height="64" rx="4.5" stroke="#246EDE" stroke-opacity=".6"/><rect x="94.7" y="107.1" width="35.8" height="4.9" rx="2.4" fill="#F1F1F1"/><rect x="94.7" y="113.6" width="35.8" height="4.9" rx="2.4" fill="#F1F1F1"/><rect x="94.7" y="120.9" width="35.8" height="4.9" rx="2.4" fill="#F1F1F1"/><path opacity=".3" d="M113 89.2c-7.4 0-13.4 6.2-13.4 13.8h26.8c0-7.6-6-13.8-13.4-13.8z" fill="#246EDE"/><circle cx="112.6" cy="86.8" r="7.3" fill="#fff"/><circle cx="112.6" cy="86.8" r="6.8" stroke="#246EDE" stroke-opacity=".3"/><rect x="96.8" y="71.8" width="31.5" height="31.5" rx="4.5" stroke="#246EDE" stroke-opacity=".3"/><rect opacity=".2" x="92.6" y="156.5" width="46.9" height="64" rx="4.5" fill="#246EDE" stroke="#246EDE"/><rect x="88" y="160.1" width="47.9" height="65" rx="5" fill="#fff"/><rect x="88.5" y="160.6" width="46.9" height="64" rx="4.5" stroke="#246EDE" stroke-opacity=".6"/><rect x="93.7" y="199.1" width="35.8" height="4.9" rx="2.4" fill="#F1F1F1"/><rect x="93.7" y="205.6" width="35.8" height="4.9" rx="2.4" fill="#F1F1F1"/><rect x="93.7" y="212.9" width="35.8" height="4.9" rx="2.4" fill="#F1F1F1"/><path opacity=".3" d="M112 181.2c-7.4 0-13.4 6.2-13.4 13.8h26.8c0-7.6-6-13.8-13.4-13.8z" fill="#246EDE"/><circle cx="111.6" cy="178.8" r="7.3" fill="#fff"/><circle cx="111.6" cy="178.8" r="6.8" stroke="#246EDE" stroke-opacity=".3"/><rect x="95.8" y="163.8" width="31.5" height="31.5" rx="4.5" stroke="#246EDE" stroke-opacity=".3"/><rect opacity=".2" x="92.6" y="250.5" width="46.9" height="64" rx="4.5" fill="#246EDE" stroke="#246EDE"/><rect x="88" y="254.1" width="47.9" height="65" rx="5" fill="#fff"/><rect x="88.5" y="254.6" width="46.9" height="64" rx="4.5" stroke="#246EDE" stroke-opacity=".6"/><rect x="93.7" y="293.1" width="35.8" height="4.9" rx="2.4" fill="#F1F1F1"/><rect x="93.7" y="299.6" width="35.8" height="4.9" rx="2.4" fill="#F1F1F1"/><rect x="93.7" y="306.9" width="35.8" height="4.9" rx="2.4" fill="#F1F1F1"/><path opacity=".3" d="M112 275.2c-7.4 0-13.4 6.2-13.4 13.8h26.8c0-7.6-6-13.8-13.4-13.8z" fill="#246EDE"/><circle cx="111.6" cy="272.8" r="7.3" fill="#fff"/><circle cx="111.6" cy="272.8" r="6.8" stroke="#246EDE" stroke-opacity=".3"/><rect x="95.8" y="257.8" width="31.5" height="31.5" rx="4.5" stroke="#246EDE" stroke-opacity=".3"/><rect opacity=".2" x="92.6" y="342.5" width="46.9" height="64" rx="4.5" fill="#246EDE" stroke="#246EDE"/><rect x="88" y="346.1" width="47.9" height="65" rx="5" fill="#fff"/><rect x="88.5" y="346.6" width="46.9" height="64" rx="4.5" stroke="#246EDE" stroke-opacity=".6"/><rect x="93.7" y="385.1" width="35.8" height="4.9" rx="2.4" fill="#F1F1F1"/><rect x="93.7" y="391.6" width="35.8" height="4.9" rx="2.4" fill="#F1F1F1"/><rect x="93.7" y="398.9" width="35.8" height="4.9" rx="2.4" fill="#F1F1F1"/><path opacity=".3" d="M112 367.2c-7.4 0-13.4 6.2-13.4 13.8h26.8c0-7.6-6-13.8-13.4-13.8z" fill="#246EDE"/><circle cx="111.6" cy="364.8" r="7.3" fill="#fff"/><circle cx="111.6" cy="364.8" r="6.8" stroke="#246EDE" stroke-opacity=".3"/><rect x="95.8" y="349.8" width="31.5" height="31.5" rx="4.5" stroke="#246EDE" stroke-opacity=".3"/><path d="M89 101H74.1v140H59M165 55h-14.9v46H135m30 139h-14.9v46H135" stroke="#246EDE"/><path d="M165 271h-14.9v15H135m30 34h-14.9v58H135" stroke="#246EDE"/><path d="M165 352h-14.9v26H135m30 62h-14.9v-62H135" stroke="#246EDE"/><path d="M165 389h-14.9v-11H135m156-273h-26.3v41H238m54-130h-26.3v41H239m64 324h-18.8v8H265m31-316h-18.8v16H258m205 172h-18.8v16H425m-26-98h-15.7v-12H371m-87 38h-19.6v-12H249m184 160h-15.7v-12H405m-3 90h-15.7v-12H374m-3 143h-15.7v-24H343m43-51h-15.7v-24H358m-22-186h-39.1v41H257" stroke="#246EDE"/><path d="M336 245h-39.1v73H257m34-179h-26.3v7H238m54-96h-26.3v7H239" stroke="#246EDE"/><path d="M336 311h-39.1v7H257m26 101h-29.7v21H223m68-271h-26.3v-23H238m98 195h-39.1v-23H257m26 145h-29.7v-23H223" stroke="#246EDE"/><path d="M283 538h-29.7v-98H223" stroke="#246EDE"/><path d="M283 502h-29.7v-62H223M165 88h-14.9v13H135m30 92h-14.9 0H135m0-92h14.9v45H165m-76 48H74.1v47H59m0 0h14.9v46H89" stroke="#246EDE"/><path d="M59 241h14.9v140H89" stroke="#246EDE"/><g opacity=".2"><rect x="5.5" y="226" width="59.5" height="19.6" rx="5" fill="#246EDE"/><rect x="6" y="226.5" width="58.5" height="18.6" rx="4.5" stroke="#246EDE" stroke-opacity=".6"/></g><rect y="230.9" width="59.5" height="20.1" rx="5" fill="#fff"/><rect x=".5" y="231.4" width="58.5" height="19.1" rx="4.5" stroke="#246EDE" stroke-opacity=".6"/><g opacity=".2"><rect x="172" y="41" width="80" height="20" rx="5" fill="#246EDE"/><rect x="172.5" y="41.5" width="79" height="19" rx="4.5" stroke="#246EDE" stroke-opacity=".6"/></g><rect x="165" y="46" width="80" height="20" rx="5" fill="#fff"/><rect x="165.5" y="46.5" width="79" height="19" rx="4.5" stroke="#246EDE" stroke-opacity=".6"/><g opacity=".2"><rect x="170.5" y="226" width="59.5" height="19.6" rx="5" fill="#246EDE"/><rect x="171" y="226.5" width="58.5" height="18.6" rx="4.5" stroke="#246EDE" stroke-opacity=".6"/></g><rect x="165" y="230.9" width="59.5" height="20.1" rx="5" fill="#fff"/><rect x="165.5" y="231.4" width="58.5" height="19.1" rx="4.5" stroke="#246EDE" stroke-opacity=".6"/><g opacity=".2"><rect x="173" y="73" width="92" height="20" rx="5" fill="#246EDE"/><rect x="173.5" y="73.5" width="91" height="19" rx="4.5" stroke="#246EDE" stroke-opacity=".6"/></g><rect x="165" y="78" width="92" height="20" rx="5" fill="#fff"/><rect x="165.5" y="78.5" width="91" height="19" rx="4.5" stroke="#246EDE" stroke-opacity=".6"/><g opacity=".2"><rect x="299" y="90" width="92" height="20" rx="5" fill="#246EDE"/><rect x="299.5" y="90.5" width="91" height="19" rx="4.5" stroke="#246EDE" stroke-opacity=".6"/></g><rect x="291" y="95" width="92" height="20" rx="5" fill="#fff"/><rect x="291.5" y="95.5" width="91" height="19" rx="4.5" stroke="#246EDE" stroke-opacity=".6"/><g opacity=".2"><rect x="291" y="404" width="92" height="20" rx="5" fill="#246EDE"/><rect x="291.5" y="404.5" width="91" height="19" rx="4.5" stroke="#246EDE" stroke-opacity=".6"/></g><rect x="283" y="409" width="92" height="20" rx="5" fill="#fff"/><rect x="283.5" y="409.5" width="91" height="19" rx="4.5" stroke="#246EDE" stroke-opacity=".6"/><g opacity=".2"><rect x="344.4" y="263" width="89.6" height="20" rx="5" fill="#246EDE"/><rect x="344.9" y="263.5" width="88.6" height="19" rx="4.5" stroke="#246EDE" stroke-opacity=".6"/></g><rect x="336" y="268" width="89.6" height="20" rx="5" fill="#fff"/><rect x="336.5" y="268.5" width="88.6" height="19" rx="4.5" stroke="#246EDE" stroke-opacity=".6"/><g opacity=".2"><rect x="170.5" y="256" width="59.5" height="19.6" rx="5" fill="#246EDE"/><rect x="171" y="256.5" width="58.5" height="18.6" rx="4.5" stroke="#246EDE" stroke-opacity=".6"/></g><rect x="165" y="260.9" width="59.5" height="20.1" rx="5" fill="#fff"/><rect x="165.5" y="261.4" width="58.5" height="19.1" rx="4.5" stroke="#246EDE" stroke-opacity=".6"/><g opacity=".2"><rect x="172" y="131" width="73" height="20" rx="5" fill="#246EDE"/><rect x="172.5" y="131.5" width="72" height="19" rx="4.5" stroke="#246EDE" stroke-opacity=".6"/></g><rect x="165" y="136" width="73" height="20" rx="5" fill="#fff"/><rect x="165.5" y="136.5" width="72" height="19" rx="4.5" stroke="#246EDE" stroke-opacity=".6"/><g opacity=".2"><rect x="298" y="124" width="73" height="20" rx="5" fill="#246EDE"/><rect x="298.5" y="124.5" width="72" height="19" rx="4.5" stroke="#246EDE" stroke-opacity=".6"/></g><rect x="291" y="129" width="73" height="20" rx="5" fill="#fff"/><rect x="291.5" y="129.5" width="72" height="19" rx="4.5" stroke="#246EDE" stroke-opacity=".6"/><g opacity=".2"><rect x="290" y="448" width="73" height="20" rx="5" fill="#246EDE"/><rect x="290.5" y="448.5" width="72" height="19" rx="4.5" stroke="#246EDE" stroke-opacity=".6"/></g><rect x="283" y="453" width="73" height="20" rx="5" fill="#fff"/><rect x="283.5" y="453.5" width="72" height="19" rx="4.5" stroke="#246EDE" stroke-opacity=".6"/><g opacity=".2"><rect x="289" y="486" width="73" height="20" rx="5" fill="#246EDE"/><rect x="289.5" y="486.5" width="72" height="19" rx="4.5" stroke="#246EDE" stroke-opacity=".6"/></g><rect x="282" y="491" width="73" height="20" rx="5" fill="#fff"/><rect x="282.5" y="491.5" width="72" height="19" rx="4.5" stroke="#246EDE" stroke-opacity=".6"/><g opacity=".2"><rect x="287.4" y="523" width="56.6" height="20" rx="5" fill="#246EDE"/><rect x="287.9" y="523.5" width="55.6" height="19" rx="4.5" stroke="#246EDE" stroke-opacity=".6"/></g><rect x="282" y="528" width="56.6" height="20" rx="5" fill="#fff"/><rect x="282.5" y="528.5" width="55.6" height="19" rx="4.5" stroke="#246EDE" stroke-opacity=".6"/><g opacity=".2"><rect x="345.7" y="297" width="105.3" height="20" rx="5" fill="#246EDE"/><rect x="346.2" y="297.5" width="104.3" height="19" rx="4.5" stroke="#246EDE" stroke-opacity=".6"/></g><rect x="336" y="302" width="105.3" height="20" rx="5" fill="#fff"/><rect x="336.5" y="302.5" width="104.3" height="19" rx="4.5" stroke="#246EDE" stroke-opacity=".6"/><g opacity=".2"><rect x="296.7" width="51.3" height="20" rx="5" fill="#246EDE"/><rect x="297.2" y=".5" width="50.3" height="19" rx="4.5" stroke="#246EDE" stroke-opacity=".6"/></g><rect x="292" y="5" width="51.3" height="20" rx="5" fill="#fff"/><rect x="292.5" y="5.5" width="50.3" height="19" rx="4.5" stroke="#246EDE" stroke-opacity=".6"/><g opacity=".2"><rect x="299" y="153" width="81" height="20" rx="5" fill="#246EDE"/><rect x="299.5" y="153.5" width="80" height="19" rx="4.5" stroke="#246EDE" stroke-opacity=".6"/></g><rect x="291" y="158" width="81" height="20" rx="5" fill="#fff"/><rect x="291.5" y="158.5" width="80" height="19" rx="4.5" stroke="#246EDE" stroke-opacity=".6"/><g opacity=".2"><rect x="345.2" y="230" width="92.8" height="20" rx="5" fill="#246EDE"/><rect x="345.7" y="230.5" width="91.8" height="19" rx="4.5" stroke="#246EDE" stroke-opacity=".6"/></g><rect x="336" y="235" width="92.8" height="20" rx="5" fill="#fff"/><rect x="336.5" y="235.5" width="91.8" height="19" rx="4.5" stroke="#246EDE" stroke-opacity=".6"/><g opacity=".2"><rect x="343" y="326" width="69" height="20" rx="5" fill="#246EDE"/><rect x="343.5" y="326.5" width="68" height="19" rx="4.5" stroke="#246EDE" stroke-opacity=".6"/></g><rect x="336" y="331" width="69" height="20" rx="5" fill="#fff"/><rect x="336.5" y="331.5" width="68" height="19" rx="4.5" stroke="#246EDE" stroke-opacity=".6"/><g opacity=".2"><rect x="299" y="34" width="69" height="20" rx="5" fill="#246EDE"/><rect x="299.5" y="34.5" width="68" height="19" rx="4.5" stroke="#246EDE" stroke-opacity=".6"/></g><rect x="292" y="39" width="69" height="20" rx="5" fill="#fff"/><rect x="292.5" y="39.5" width="68" height="19" rx="4.5" stroke="#246EDE" stroke-opacity=".6"/><g opacity=".2"><rect x="173" y="304" width="92" height="20" rx="5" fill="#246EDE"/><rect x="173.5" y="304.5" width="91" height="19" rx="4.5" stroke="#246EDE" stroke-opacity=".6"/></g><rect x="165" y="309" width="92" height="20" rx="5" fill="#fff"/><rect x="165.5" y="309.5" width="91" height="19" rx="4.5" stroke="#246EDE" stroke-opacity=".6"/><g opacity=".2"><rect x="173" y="374" width="101" height="20" rx="5" fill="#246EDE"/><rect x="173.5" y="374.5" width="100" height="19" rx="4.5" stroke="#246EDE" stroke-opacity=".6"/></g><rect x="164" y="379" width="101" height="20" rx="5" fill="#fff"/><rect x="164.5" y="379.5" width="100" height="19" rx="4.5" stroke="#246EDE" stroke-opacity=".6"/><g opacity=".2"><rect x="173" y="178" width="85" height="20" rx="5" fill="#246EDE"/><rect x="173.5" y="178.5" width="84" height="19" rx="4.5" stroke="#246EDE" stroke-opacity=".6"/></g><rect x="165" y="183" width="85" height="20" rx="5" fill="#fff"/><rect x="165.5" y="183.5" width="84" height="19" rx="4.5" stroke="#246EDE" stroke-opacity=".6"/><g opacity=".2"><rect x="170.5" y="337" width="59.5" height="19.6" rx="5" fill="#246EDE"/><rect x="171" y="337.5" width="58.5" height="18.6" rx="4.5" stroke="#246EDE" stroke-opacity=".6"/></g><rect x="165" y="341.9" width="59.5" height="20.1" rx="5" fill="#fff"/><rect x="165.5" y="342.4" width="58.5" height="19.1" rx="4.5" stroke="#246EDE" stroke-opacity=".6"/><g opacity=".2"><rect x="169.5" y="426" width="59.5" height="19.6" rx="5" fill="#246EDE"/><rect x="170" y="426.5" width="58.5" height="18.6" rx="4.5" stroke="#246EDE" stroke-opacity=".6"/></g><rect x="164" y="430.9" width="59.5" height="20.1" rx="5" fill="#fff"/><rect x="164.5" y="431.4" width="58.5" height="19.1" rx="4.5" stroke="#246EDE" stroke-opacity=".6"/><path d="M454.4 126.3a3.3 3.3 0 0 0-3.3-3.3h-43.7a3.3 3.3 0 0 0 0 6.5H451a3.3 3.3 0 0 0 3.3-3.2zm55.6 0a3.3 3.3 0 0 0-3.3-3.3H463a3.3 3.3 0 0 0 0 6.5h43.7a3.3 3.3 0 0 0 3.3-3.2zm-.2 11.4a3.3 3.3 0 0 0-3.3-3.2h-31.2a3.3 3.3 0 1 0 0 6.5h31.2a3.3 3.3 0 0 0 3.3-3.3zm-71.4 0a3.3 3.3 0 0 0-3.2-3.2h-28a3.3 3.3 0 1 0 0 6.5h28a3.3 3.3 0 0 0 3.2-3.3zm28 0a3.3 3.3 0 0 0-3.4-3.2h-15.5a3.3 3.3 0 1 0 0 6.5H463a3.3 3.3 0 0 0 3.3-3.3zm-130 61.6a3.3 3.3 0 0 0-3.3-3.3h-43.7a3.3 3.3 0 0 0 0 6.5H333a3.3 3.3 0 0 0 3.3-3.2zm55.6 0a3.3 3.3 0 0 0-3.3-3.3H345a3.3 3.3 0 0 0 0 6.5h43.7a3.3 3.3 0 0 0 3.3-3.2zm-.2 11.4a3.3 3.3 0 0 0-3.3-3.2h-31.2a3.3 3.3 0 1 0 0 6.5h31.2a3.3 3.3 0 0 0 3.3-3.3zm-71.4 0a3.3 3.3 0 0 0-3.2-3.2h-28a3.3 3.3 0 1 0 0 6.5h28a3.3 3.3 0 0 0 3.2-3.3zm28 0a3.3 3.3 0 0 0-3.4-3.2h-15.5a3.3 3.3 0 1 0 0 6.5H345a3.3 3.3 0 0 0 3.3-3.3zm79 345.6a3.3 3.3 0 0 0-3.3-3.3h-43.7a3.3 3.3 0 0 0 0 6.5H424a3.3 3.3 0 0 0 3.3-3.2zm55.6 0a3.3 3.3 0 0 0-3.3-3.3H436a3.3 3.3 0 0 0 0 6.5h43.7a3.3 3.3 0 0 0 3.3-3.2zm-.2 11.4a3.3 3.3 0 0 0-3.3-3.2h-31.2a3.3 3.3 0 1 0 0 6.5h31.2a3.3 3.3 0 0 0 3.3-3.3zm-71.4 0a3.3 3.3 0 0 0-3.2-3.2h-28a3.3 3.3 0 1 0 0 6.5h28a3.3 3.3 0 0 0 3.2-3.3zm28 0a3.3 3.3 0 0 0-3.4-3.2h-15.5a3.3 3.3 0 1 0 0 6.5H436a3.3 3.3 0 0 0 3.3-3.3zM517 254.1a3.1 3.1 0 0 0-3.1-3.1h-42.8a3.1 3.1 0 0 0 0 6.3H514a3.1 3.1 0 0 0 3.1-3.2zm87.7 0a3.1 3.1 0 0 0-3.1-3.1H571a3.1 3.1 0 0 0 0 6.3h30.6a3.1 3.1 0 0 0 3-3.2zm56.2 0a3.1 3.1 0 0 0-3.1-3.1H615a3.1 3.1 0 0 0 0 6.3H658a3.1 3.1 0 0 0 3.1-3.2zm-.2 11.8a3.1 3.1 0 0 0-3.2-3.2h-74.5a3.1 3.1 0 0 0 0 6.3h74.5a3.1 3.1 0 0 0 3.2-3.1zm-86.4 0a3.1 3.1 0 0 0-3.1-3.2h-30.6a3.1 3.1 0 0 0 0 6.3h30.6a3.1 3.1 0 0 0 3-3.1zM560.8 254a3.1 3.1 0 0 0-3.1-3.1H527a3.1 3.1 0 0 0 0 6.3h30.6a3.1 3.1 0 0 0 3-3.2zM501.6 266a3.1 3.1 0 0 0-3.1-3.2H471a3.1 3.1 0 0 0 0 6.3h27.4a3.1 3.1 0 0 0 3.1-3.1zm27.2 0a3.1 3.1 0 0 0-3.1-3.2h-15.4a3.1 3.1 0 0 0 0 6.3h15.4a3.1 3.1 0 0 0 3-3.1zM475 344a3 3 0 0 0-3-3h-35a3 3 0 1 0 0 6h35a3 3 0 0 0 3-3zm65.8 1.1a3.1 3.1 0 0 0-3.1-3.1H507a3.1 3.1 0 0 0 0 6.3h30.6a3.1 3.1 0 0 0 3.1-3.2zm-.4 10.8a3.1 3.1 0 0 0-3.1-3.2h-30.6a3.1 3.1 0 0 0 0 6.3h30.6a3.1 3.1 0 0 0 3-3.1zM495 344a3 3 0 0 0-3-3h-8a3 3 0 1 0 0 6h8a3 3 0 0 0 3-3zm-27.4 11.9a3.1 3.1 0 0 0-3.1-3.2H437a3.1 3.1 0 0 0 0 6.3h27.4a3.1 3.1 0 0 0 3.1-3.1zm27.2 0a3.1 3.1 0 0 0-3.1-3.2h-15.4a3.1 3.1 0 0 0 0 6.3h15.4a3.1 3.1 0 0 0 3-3.1zM448 425a3 3 0 0 0-3-3h-35a3 3 0 1 0 0 6h35a3 3 0 0 0 3-3zm65.8 1.1a3.1 3.1 0 0 0-3.1-3.1H480a3.1 3.1 0 0 0 0 6.3h30.6a3.1 3.1 0 0 0 3.1-3.2zm-.4 10.8a3.1 3.1 0 0 0-3.1-3.2h-30.6a3.1 3.1 0 0 0 0 6.3h30.6a3.1 3.1 0 0 0 3-3.1zM468 425a3 3 0 0 0-3-3h-8a3 3 0 1 0 0 6h8a3 3 0 0 0 3-3zm-27.4 11.9a3.1 3.1 0 0 0-3.1-3.2H410a3.1 3.1 0 0 0 0 6.3h27.4a3.1 3.1 0 0 0 3.1-3.1zm27.2 0a3.1 3.1 0 0 0-3.1-3.2h-15.4a3.1 3.1 0 0 0 0 6.3h15.4a3.1 3.1 0 0 0 3-3.1zM356 374a3.1 3.1 0 0 0-3.1-3.1h-41.8a3.1 3.1 0 0 0 0 6.3H353a3.1 3.1 0 0 0 3.1-3.2zm85.9 0a3.1 3.1 0 0 0-3.1-3.1H409a3.1 3.1 0 0 0 0 6.3h29.8a3.1 3.1 0 0 0 3.1-3.2zm0 11.8a3.1 3.1 0 0 0-3.1-3.2h-59.6a3.1 3.1 0 0 0 0 6.3H439a3.1 3.1 0 0 0 3.1-3.1zM398.9 374a3.1 3.1 0 0 0-3.1-3.1H366a3.1 3.1 0 0 0 0 6.3h29.8a3.1 3.1 0 0 0 3.1-3.2zm-58 11.8a3.1 3.1 0 0 0-3.1-3.2H311a3.1 3.1 0 0 0 0 6.3h26.7a3.1 3.1 0 0 0 3.1-3.1zm26.7 0a3.1 3.1 0 0 0-3.2-3.2h-14.9a3.1 3.1 0 0 0 0 6.3h15a3.1 3.1 0 0 0 3-3.1zM439 481a3.1 3.1 0 0 0-3.1-3.1h-41.8a3.1 3.1 0 0 0 0 6.3H436a3.1 3.1 0 0 0 3.1-3.2zm85.9 0a3.1 3.1 0 0 0-3.1-3.1H492a3.1 3.1 0 0 0 0 6.3h29.8a3.1 3.1 0 0 0 3.1-3.2zm0 11.8a3.1 3.1 0 0 0-3.1-3.2h-59.6a3.1 3.1 0 0 0 0 6.3H522a3.1 3.1 0 0 0 3.1-3.1zM481.9 481a3.1 3.1 0 0 0-3.1-3.1H449a3.1 3.1 0 0 0 0 6.3h29.8a3.1 3.1 0 0 0 3.1-3.2zm-58 11.8a3.1 3.1 0 0 0-3.1-3.2H394a3.1 3.1 0 0 0 0 6.3h26.7a3.1 3.1 0 0 0 3.1-3.1zm26.7 0a3.1 3.1 0 0 0-3.2-3.2h-14.9a3.1 3.1 0 0 0 0 6.3h15a3.1 3.1 0 0 0 3-3.1zM452 172a3.1 3.1 0 0 0-3.1-3.1h-41.8a3.1 3.1 0 0 0 0 6.3H449a3.1 3.1 0 0 0 3.1-3.2zm85.9 0a3.1 3.1 0 0 0-3.1-3.1H505a3.1 3.1 0 0 0 0 6.3h29.8a3.1 3.1 0 0 0 3.1-3.2zm0 11.8a3.1 3.1 0 0 0-3.1-3.2h-59.6a3.1 3.1 0 0 0 0 6.3H535a3.1 3.1 0 0 0 3.1-3.1zM494.9 172a3.1 3.1 0 0 0-3.1-3.1H462a3.1 3.1 0 0 0 0 6.3h29.8a3.1 3.1 0 0 0 3.1-3.2zm-58 11.8a3.1 3.1 0 0 0-3.1-3.2H407a3.1 3.1 0 0 0 0 6.3h26.7a3.1 3.1 0 0 0 3.1-3.1zm26.7 0a3.1 3.1 0 0 0-3.2-3.2h-14.9a3.1 3.1 0 0 0 0 6.3h15a3.1 3.1 0 0 0 3-3.1zM346 67A3.1 3.1 0 0 0 343 64h-41.8a3.1 3.1 0 1 0 0 6.3H343a3.1 3.1 0 0 0 3.1-3.2zm85.9 0a3.1 3.1 0 0 0-3.1-3.1H399a3.1 3.1 0 1 0 0 6.3h29.8A3.1 3.1 0 0 0 432 67zm0 11.8a3.1 3.1 0 0 0-3.1-3.2h-59.6a3.1 3.1 0 0 0 0 6.3H429a3.1 3.1 0 0 0 3.1-3.1zM388.9 67a3.1 3.1 0 0 0-3.1-3.1H356a3.1 3.1 0 1 0 0 6.3h29.8a3.1 3.1 0 0 0 3.1-3.2zm-58 11.8a3.1 3.1 0 0 0-3.1-3.2H301a3.1 3.1 0 1 0 0 6.3h26.7a3.1 3.1 0 0 0 3.1-3.1zm26.7 0a3.1 3.1 0 0 0-3.2-3.2h-14.9a3.1 3.1 0 0 0 0 6.3h15a3.1 3.1 0 0 0 3-3.1z" fill="#F1F1F1"/><circle cx="136" cy="101" r="5" fill="#fff"/><circle cx="136" cy="101" r="4.5" stroke="#246EDE" stroke-opacity=".5"/><circle cx="264" cy="389" r="5" fill="#fff"/><circle cx="264" cy="389" r="4.5" stroke="#246EDE" stroke-opacity=".5"/><circle cx="257" cy="89" r="5" fill="#fff"/><circle cx="257" cy="89" r="4.5" stroke="#246EDE" stroke-opacity=".5"/><circle cx="343" cy="15" r="5" fill="#fff"/><circle cx="343" cy="15" r="4.5" stroke="#246EDE" stroke-opacity=".5"/><circle cx="371" cy="168" r="5" fill="#fff"/><circle cx="371" cy="168" r="4.5" stroke="#246EDE" stroke-opacity=".5"/><circle cx="249" cy="194" r="5" fill="#fff"/><circle cx="249" cy="194" r="4.5" stroke="#246EDE" stroke-opacity=".5"/><circle cx="403" cy="341" r="5" fill="#fff"/><circle cx="403" cy="341" r="4.5" stroke="#246EDE" stroke-opacity=".5"/><circle cx="425" cy="277" r="5" fill="#fff"/><circle cx="425" cy="277" r="4.5" stroke="#246EDE" stroke-opacity=".5"/><circle cx="338" cy="538" r="5" fill="#fff"/><circle cx="338" cy="538" r="4.5" stroke="#246EDE" stroke-opacity=".5"/><circle cx="356" cy="463" r="5" fill="#fff"/><circle cx="356" cy="463" r="4.5" stroke="#246EDE" stroke-opacity=".5"/><circle cx="374" cy="419" r="5" fill="#fff"/><circle cx="374" cy="419" r="4.5" stroke="#246EDE" stroke-opacity=".5"/><circle cx="223" cy="441" r="5" fill="#fff"/><circle cx="223" cy="441" r="4.5" stroke="#246EDE" stroke-opacity=".5"/><circle cx="255" cy="318" r="5" fill="#fff"/><circle cx="255" cy="318" r="4.5" stroke="#246EDE" stroke-opacity=".5"/><circle cx="238" cy="146" r="5" fill="#fff"/><circle cx="238" cy="146" r="4.5" stroke="#246EDE" stroke-opacity=".5"/><circle cx="244" cy="57" r="5" fill="#fff"/><circle cx="244" cy="57" r="4.5" stroke="#246EDE" stroke-opacity=".5"/><circle cx="136" cy="286" r="5" fill="#fff"/><circle cx="136" cy="286" r="4.5" stroke="#246EDE" stroke-opacity=".5"/><circle cx="135" cy="378" r="5" fill="#fff"/><circle cx="135" cy="378" r="4.5" stroke="#246EDE" stroke-opacity=".5"/><circle cx="59" cy="242" r="5" fill="#fff"/><circle cx="59" cy="242" r="4.5" stroke="#246EDE" stroke-opacity=".5"/><circle cx="135" cy="193" r="5" fill="#fff"/><circle cx="135" cy="193" r="4.5" stroke="#246EDE" stroke-opacity=".5"/></g></svg>