<svg width="788" height="468" fill="none" xmlns="http://www.w3.org/2000/svg"><path opacity=".1" d="M8.931 340c0-5.523 4.478-10 10-10H224c5.523 0 10 4.477 10 10v95.561c0 5.522-4.477 10-10 10H18.931c-5.523 0-10-4.478-10-10V340z" fill="#246EDE"/><path opacity=".1" d="M122.314 360.066c0-1.084.878-1.963 1.963-1.963h15.805a1.963 1.963 0 0 1 0 3.926h-15.805a1.963 1.963 0 0 1-1.963-1.963z" fill="#246EDE"/><path d="M0 348.789c0-5.523 4.477-10 10-10h205.069c5.523 0 10 4.477 10 10v95.56c0 5.523-4.477 10-10 10H10c-5.523 0-10-4.477-10-10v-95.56z" fill="#fff"/><path d="M.5 348.789a9.5 9.5 0 0 1 9.5-9.5h205.069a9.5 9.5 0 0 1 9.5 9.5v95.56a9.5 9.5 0 0 1-9.5 9.5H10a9.5 9.5 0 0 1-9.5-9.5v-95.56z" stroke="#246EDE" stroke-opacity=".5"/><path d="M88.293 360.066c0-1.084.879-1.963 1.963-1.963h24.651a1.963 1.963 0 0 1 0 3.926H90.256a1.963 1.963 0 0 1-1.963-1.963zM35.222 360.066c0-1.084.878-1.963 1.963-1.963h19.207a1.963 1.963 0 0 1 0 3.926H37.185a1.963 1.963 0 0 1-1.963-1.963zM64.48 360.066c0-1.084.878-1.963 1.962-1.963h13.084a1.963 1.963 0 0 1 0 3.926H66.442a1.963 1.963 0 0 1-1.963-1.963z" fill="#F1F1F1"/><path d="M63.798 398.677c0-1.085.88-1.964 1.964-1.964h23.29a1.963 1.963 0 0 1 0 3.927h-23.29a1.963 1.963 0 0 1-1.964-1.963zM70.602 405.221c0-1.085.88-1.964 1.964-1.964H89.05a1.963 1.963 0 0 1 0 3.927H72.566a1.963 1.963 0 0 1-1.964-1.963zM12.088 398.677c0-1.085.879-1.964 1.963-1.964h17.166a1.963 1.963 0 0 1 0 3.927H14.051a1.963 1.963 0 0 1-1.963-1.963zM37.943 398.677c0-1.085.88-1.964 1.964-1.964h17.166a1.963 1.963 0 0 1 0 3.927H39.907a1.963 1.963 0 0 1-1.964-1.963zM12.088 405.221c0-1.085.879-1.964 1.963-1.964h29.413a1.963 1.963 0 0 1 0 3.927H14.051a1.963 1.963 0 0 1-1.963-1.963zM50.19 405.221c0-1.085.88-1.964 1.964-1.964h11.722a1.963 1.963 0 0 1 0 3.927H52.154a1.963 1.963 0 0 1-1.964-1.963zM12.088 411.765c0-1.084.879-1.963 1.963-1.963h13.084a1.963 1.963 0 1 1 0 3.926H14.05a1.963 1.963 0 0 1-1.963-1.963zM33.86 411.765c0-1.084.88-1.963 1.964-1.963h11.723a1.963 1.963 0 1 1 0 3.926H35.824a1.963 1.963 0 0 1-1.963-1.963zM54.273 411.765c0-1.084.879-1.963 1.963-1.963h10.362a1.963 1.963 0 1 1 0 3.926H56.236a1.963 1.963 0 0 1-1.963-1.963z" fill="#E6E7E8"/><rect x="195.853" y="350.095" width="4.443" height="4.235" rx="1.5" stroke="#246EDE"/><path d="M25.196 359.411c0 3.32-2.804 6.045-6.304 6.045-3.5 0-6.304-2.725-6.304-6.045s2.804-6.044 6.304-6.044c3.5 0 6.304 2.724 6.304 6.044z" stroke="#F1F1F1"/><path d="M208.962 350.25l-4.083 3.926M204.879 350.25l4.082 3.926M191.271 352.212h-4.763" stroke="#246EDE"/><path opacity=".05" d="M122.314 391.007c0-5.523 4.477-10 10-10h67.772c5.523 0 10 4.477 10 10v34.317c0 5.523-4.477 10-10 10h-67.773c-5.522 0-9.999-4.477-9.999-10v-34.317zM12.088 429.761a6.217 6.217 0 0 1 6.217-6.217H54.86a6.217 6.217 0 0 1 0 12.434H18.305a6.217 6.217 0 0 1-6.217-6.217z" fill="#246EDE"/><path d="M12.088 383.952a2.945 2.945 0 0 1 2.945-2.945h30.852a2.945 2.945 0 0 1 0 5.89H15.033a2.945 2.945 0 0 1-2.945-2.945zM80.265 383.952a2.945 2.945 0 0 1 2.945-2.945h17.924a2.946 2.946 0 0 1 0 5.89H83.21a2.945 2.945 0 0 1-2.945-2.945zM52.913 383.952a2.945 2.945 0 0 1 2.944-2.945h17.38a2.945 2.945 0 0 1 0 5.89h-17.38a2.945 2.945 0 0 1-2.944-2.945z" fill="#F1F1F1"/><rect opacity=".3" x="286.169" y="168" width="216.473" height="277.508" rx="10" fill="#246EDE" fill-opacity=".3"/><rect x="271" y="175.91" width="223.23" height="277.719" rx="10" fill="#fff"/><rect x="271.5" y="176.41" width="222.23" height="276.719" rx="9.5" stroke="#246EDE" stroke-opacity=".5"/><path d="M361.324 199.043c0-1.084.879-1.963 1.963-1.963h23.559a1.963 1.963 0 1 1 0 3.926h-23.559a1.963 1.963 0 0 1-1.963-1.963zM310.279 199.043c0-1.084.879-1.963 1.964-1.963h18.324a1.963 1.963 0 0 1 0 3.926h-18.324a1.963 1.963 0 0 1-1.964-1.963zM338.42 199.043c0-1.084.879-1.963 1.963-1.963h12.434a1.963 1.963 0 0 1 0 3.926h-12.434a1.963 1.963 0 0 1-1.963-1.963zM394.045 199.043c0-1.084.879-1.963 1.963-1.963h15.052a1.963 1.963 0 0 1 0 3.926h-15.052a1.963 1.963 0 0 1-1.963-1.963zM337.765 237.654c0-1.085.879-1.964 1.963-1.964h22.25a1.964 1.964 0 1 1 0 3.927h-22.25a1.963 1.963 0 0 1-1.963-1.963zM344.309 244.198c0-1.084.879-1.963 1.963-1.963h15.706a1.963 1.963 0 1 1 0 3.926h-15.706a1.963 1.963 0 0 1-1.963-1.963zM357.291 330.867c0-1.085.879-1.964 1.964-1.964h24.213a1.963 1.963 0 0 1 0 3.927h-24.213a1.963 1.963 0 0 1-1.964-1.963zM390.012 330.867c0-1.085.879-1.964 1.963-1.964h14.398a1.963 1.963 0 0 1 0 3.927h-14.398a1.963 1.963 0 0 1-1.963-1.963zM357.291 337.411c0-1.084.879-1.963 1.963-1.963h21.596a1.963 1.963 0 0 1 0 3.926h-21.596a1.963 1.963 0 0 1-1.963-1.963zM387.394 337.411c0-1.084.879-1.963 1.964-1.963h17.015a1.963 1.963 0 0 1 0 3.926h-17.015a1.963 1.963 0 0 1-1.964-1.963zM392.63 343.955c0-1.084.879-1.963 1.963-1.963h11.78a1.963 1.963 0 0 1 0 3.926h-11.78a1.963 1.963 0 0 1-1.963-1.963zM357.291 343.955c0-1.084.879-1.963 1.963-1.963h12.434a1.963 1.963 0 0 1 0 3.926h-12.434a1.963 1.963 0 0 1-1.963-1.963zM378.232 343.955c0-1.084.879-1.963 1.964-1.963h5.89a1.963 1.963 0 0 1 0 3.926h-5.89a1.963 1.963 0 0 1-1.964-1.963zM288.577 330.867c0-1.085.879-1.964 1.964-1.964h16.36a1.963 1.963 0 0 1 0 3.927h-16.36a1.963 1.963 0 0 1-1.964-1.963zM313.445 330.867c0-1.085.879-1.964 1.963-1.964h22.251a1.963 1.963 0 0 1 0 3.927h-22.251a1.963 1.963 0 0 1-1.963-1.963zM288.577 337.411c0-1.084.879-1.963 1.963-1.963h28.14a1.963 1.963 0 1 1 0 3.926h-28.14a1.963 1.963 0 0 1-1.963-1.963zM324.57 337.411c0-1.084.879-1.963 1.963-1.963h11.126a1.963 1.963 0 0 1 0 3.926h-11.126a1.963 1.963 0 0 1-1.963-1.963zM288.577 343.955c0-1.084.879-1.963 1.963-1.963h12.434a1.963 1.963 0 1 1 0 3.926H290.54a1.963 1.963 0 0 1-1.963-1.963zM310.827 343.955c0-1.084.879-1.963 1.964-1.963h24.868a1.963 1.963 0 0 1 0 3.926h-24.868a1.963 1.963 0 0 1-1.964-1.963zM288.029 237.654c0-1.085.879-1.964 1.963-1.964h16.361a1.963 1.963 0 0 1 0 3.927h-16.361a1.963 1.963 0 0 1-1.963-1.963zM312.897 237.654c0-1.085.879-1.964 1.963-1.964h16.361a1.963 1.963 0 0 1 0 3.927H314.86a1.963 1.963 0 0 1-1.963-1.963zM288.029 244.198c0-1.084.879-1.963 1.963-1.963h28.141a1.963 1.963 0 0 1 0 3.926h-28.141a1.963 1.963 0 0 1-1.963-1.963zM324.677 244.198c0-1.084.879-1.963 1.963-1.963h11.125a1.963 1.963 0 1 1 0 3.926H326.64a1.963 1.963 0 0 1-1.963-1.963zM288.029 250.742c0-1.084.879-1.963 1.963-1.963h12.434a1.963 1.963 0 1 1 0 3.926h-12.434a1.963 1.963 0 0 1-1.963-1.963zM308.971 250.742c0-1.084.879-1.963 1.963-1.963h11.125a1.963 1.963 0 0 1 0 3.926h-11.125a1.963 1.963 0 0 1-1.963-1.963zM328.603 250.742c0-1.084.879-1.963 1.963-1.963h9.816a1.963 1.963 0 1 1 0 3.926h-9.816a1.963 1.963 0 0 1-1.963-1.963zM346.927 250.742c0-1.084.879-1.963 1.963-1.963h13.088a1.963 1.963 0 1 1 0 3.926H348.89a1.963 1.963 0 0 1-1.963-1.963zM442.366 330.867c0-1.085.879-1.964 1.963-1.964h16.361a1.963 1.963 0 0 1 0 3.927h-16.361a1.963 1.963 0 0 1-1.963-1.963zM467.234 330.867c0-1.085.879-1.964 1.963-1.964h5.89a1.963 1.963 0 0 1 0 3.927h-5.89a1.963 1.963 0 0 1-1.963-1.963zM426.005 337.411c0-1.084.879-1.963 1.964-1.963h23.559a1.963 1.963 0 0 1 0 3.926h-23.559a1.963 1.963 0 0 1-1.964-1.963zM458.072 337.411c0-1.084.879-1.963 1.963-1.963h15.052a1.963 1.963 0 0 1 0 3.926h-15.052a1.963 1.963 0 0 1-1.963-1.963zM426.006 330.867c0-1.085.879-1.964 1.963-1.964h7.853a1.963 1.963 0 0 1 0 3.927h-7.853a1.963 1.963 0 0 1-1.963-1.963zM426.005 343.955c0-1.084.879-1.963 1.964-1.963h9.816a1.963 1.963 0 0 1 0 3.926h-9.816a1.963 1.963 0 0 1-1.964-1.963zM444.329 343.955c0-1.084.879-1.963 1.963-1.963h28.795a1.963 1.963 0 0 1 0 3.926h-28.795a1.963 1.963 0 0 1-1.963-1.963z" fill="#E6E7E8"/><rect x="464.795" y="189.072" width="4.235" height="4.235" rx="1.5" stroke="#246EDE"/><g opacity=".3"><circle cx="294.573" cy="198.388" r="6.544" fill="#E6E7E8"/><circle cx="294.573" cy="198.388" r="6.044" stroke="#246EDE" stroke-opacity=".3"/></g><circle opacity=".3" cx="313.237" cy="313.957" r="7.638" fill="#246EDE" fill-opacity=".3" stroke="#E6E7E8"/><circle opacity=".3" cx="383.224" cy="313.957" r="7.638" fill="#246EDE" fill-opacity=".3" stroke="#E6E7E8"/><circle opacity=".3" cx="450.77" cy="313.957" r="7.638" fill="#246EDE" fill-opacity=".3" stroke="#E6E7E8"/><path d="M477.384 189.227l-3.927 3.926M473.457 189.226l3.926 3.927M460.368 191.19h-4.581" stroke="#246EDE"/><path opacity=".1" d="M394.04 229.853c0-5.523 4.477-10 10-10h62.613c5.522 0 10 4.477 10 10v34.489c0 5.523-4.478 10-10 10H404.04c-5.523 0-10-4.477-10-10v-34.489zM289.992 388.354c0-5.523 4.478-10 10-10h93.215c5.523 0 10 4.477 10 10v41.516c0 5.523-4.477 10-10 10h-93.215c-5.522 0-10-4.477-10-10v-41.516z" fill="#246EDE" fill-opacity=".3"/><path d="M413.408 388.354a9.5 9.5 0 0 1 9.5-9.5h44.788a9.5 9.5 0 0 1 9.5 9.5v41.516a9.5 9.5 0 0 1-9.5 9.5h-44.788c-5.246 0-9.5-4.254-9.5-9.5v-41.516z" stroke="#246EDE"/><path d="M288.529 268.739a5.717 5.717 0 0 1 5.717-5.717h34.684a5.717 5.717 0 1 1 0 11.434h-34.684a5.718 5.718 0 0 1-5.717-5.717z" fill="#246EDE" stroke="#246EDE"/><path d="M288.529 222.929a2.445 2.445 0 0 1 2.445-2.445h29.449a2.445 2.445 0 0 1 0 4.89h-29.449a2.445 2.445 0 0 1-2.445-2.445z" fill="#fff" fill-opacity=".3" stroke="#E6E7E8"/><path d="M357.291 295.743a2.945 2.945 0 0 1 2.945-2.945h47.773a2.945 2.945 0 1 1 0 5.89h-47.773a2.946 2.946 0 0 1-2.945-2.945z" fill="#fff" fill-opacity=".3"/><path d="M357.791 295.743a2.445 2.445 0 0 1 2.445-2.445h47.773a2.445 2.445 0 1 1 0 4.89h-47.773a2.445 2.445 0 0 1-2.445-2.445z" stroke="#246EDE" stroke-opacity=".3"/><path d="M354.102 222.929a2.445 2.445 0 0 1 2.445-2.445h17.015a2.445 2.445 0 0 1 0 4.89h-17.015a2.445 2.445 0 0 1-2.445-2.445zM327.794 222.929a2.445 2.445 0 0 1 2.445-2.445h16.492a2.445 2.445 0 0 1 0 4.89h-16.492a2.445 2.445 0 0 1-2.445-2.445zM290.492 368.211a2.445 2.445 0 0 1 2.445-2.445h29.449a2.444 2.444 0 1 1 0 4.889h-29.449a2.445 2.445 0 0 1-2.445-2.444zM329.758 368.211a2.444 2.444 0 0 1 2.445-2.445h16.491a2.445 2.445 0 1 1 0 4.889h-16.491a2.444 2.444 0 0 1-2.445-2.444zM356.065 368.211a2.445 2.445 0 0 1 2.445-2.445h30.103a2.444 2.444 0 1 1 0 4.889H358.51a2.445 2.445 0 0 1-2.445-2.444z" fill="#fff" fill-opacity=".3" stroke="#E6E7E8"/><path d="M422.51 406.167a3.754 3.754 0 0 1 3.754-3.754h38.61a3.754 3.754 0 0 1 0 7.508h-38.61a3.754 3.754 0 0 1-3.754-3.754zM422.51 392.424a3.754 3.754 0 0 1 3.754-3.754h38.61a3.754 3.754 0 0 1 0 7.508h-38.61a3.754 3.754 0 0 1-3.754-3.754z" stroke="#246EDE"/><path d="M422.51 423.182a5.716 5.716 0 0 1 5.717-5.717h34.684a5.717 5.717 0 1 1 0 11.434h-34.684a5.717 5.717 0 0 1-5.717-5.717z" fill="#246EDE" stroke="#246EDE"/><path opacity=".1" d="M554 338c0-5.523 4.477-10 10-10h204c5.523 0 10 4.477 10 10v96c0 5.523-4.477 10-10 10H564c-5.523 0-10-4.477-10-10v-96z" fill="#246EDE"/><path opacity=".1" d="M667.874 356.308c0-1.084.879-1.963 1.963-1.963h15.49a1.963 1.963 0 1 1 0 3.926h-15.49a1.963 1.963 0 0 1-1.963-1.963z" fill="#246EDE"/><path d="M544 349c0-5.523 4.477-10 10-10h206c5.523 0 10 4.477 10 10v95c0 5.523-4.477 10-10 10H554c-5.523 0-10-4.477-10-10v-95z" fill="#fff"/><path d="M544.5 349a9.5 9.5 0 0 1 9.5-9.5h206a9.5 9.5 0 0 1 9.5 9.5v95a9.5 9.5 0 0 1-9.5 9.5H554a9.5 9.5 0 0 1-9.5-9.5v-95z" stroke="#246EDE" stroke-opacity=".5"/><path d="M634.397 356.308c0-1.084.879-1.963 1.964-1.963h24.194a1.963 1.963 0 0 1 0 3.926h-24.194a1.963 1.963 0 0 1-1.964-1.963zM582.174 356.308c0-1.084.879-1.963 1.963-1.963h18.838a1.963 1.963 0 0 1 0 3.926h-18.838a1.963 1.963 0 0 1-1.963-1.963zM610.964 356.308c0-1.084.879-1.963 1.963-1.963h12.812a1.963 1.963 0 0 1 0 3.926h-12.812a1.963 1.963 0 0 1-1.963-1.963z" fill="#F1F1F1"/><path d="M610.294 394.919c0-1.084.879-1.963 1.963-1.963h22.855a1.963 1.963 0 0 1 0 3.926h-22.855a1.963 1.963 0 0 1-1.963-1.963zM616.99 401.463c0-1.084.879-1.963 1.963-1.963h16.16a1.963 1.963 0 0 1 0 3.926h-16.16a1.963 1.963 0 0 1-1.963-1.963zM559.41 394.919c0-1.084.879-1.963 1.963-1.963h16.829a1.963 1.963 0 1 1 0 3.926h-16.829a1.963 1.963 0 0 1-1.963-1.963zM584.852 394.919c0-1.084.879-1.963 1.964-1.963h16.829a1.963 1.963 0 0 1 0 3.926h-16.829a1.963 1.963 0 0 1-1.964-1.963zM559.41 401.463c0-1.084.879-1.963 1.963-1.963h28.881a1.963 1.963 0 0 1 0 3.926h-28.881a1.963 1.963 0 0 1-1.963-1.963zM596.904 401.463c0-1.084.878-1.963 1.963-1.963h11.473a1.963 1.963 0 0 1 0 3.926h-11.473a1.963 1.963 0 0 1-1.963-1.963zM559.41 408.007c0-1.084.879-1.963 1.963-1.963h12.812a1.963 1.963 0 0 1 0 3.927h-12.812a1.963 1.963 0 0 1-1.963-1.964zM580.835 408.007c0-1.084.879-1.963 1.963-1.963h11.473a1.963 1.963 0 1 1 0 3.927h-11.473a1.963 1.963 0 0 1-1.963-1.964zM600.921 408.007c0-1.084.879-1.963 1.963-1.963h10.134a1.963 1.963 0 0 1 0 3.927h-10.134a1.963 1.963 0 0 1-1.963-1.964z" fill="#E6E7E8"/><rect x="740.247" y="351.337" width="4.356" height="4.235" rx="1.5" stroke="#246EDE"/><path d="M572.301 355.654c0 3.327-2.763 6.044-6.196 6.044-3.432 0-6.195-2.717-6.195-6.044 0-3.328 2.763-6.045 6.195-6.045 3.433 0 6.196 2.717 6.196 6.045z" stroke="#F1F1F1"/><path d="M753.138 351.492l-4.018 3.926M749.119 351.492l4.017 3.926M735.73 353.455h-4.687" stroke="#246EDE"/><path opacity=".05" d="M667.874 387.249c0-5.522 4.477-10 10-10h66.37c5.523 0 10 4.478 10 10v34.317c0 5.523-4.477 10-10 10h-66.37c-5.523 0-10-4.477-10-10v-34.317zM559.41 426.004a6.216 6.216 0 0 1 6.217-6.217H601.4a6.217 6.217 0 0 1 0 12.434h-35.773a6.217 6.217 0 0 1-6.217-6.217z" fill="#246EDE"/><path d="M559.41 380.194a2.946 2.946 0 0 1 2.945-2.945h30.265a2.946 2.946 0 0 1 0 5.89h-30.265a2.945 2.945 0 0 1-2.945-2.945zM626.497 380.194a2.946 2.946 0 0 1 2.945-2.945h17.544a2.946 2.946 0 0 1 0 5.89h-17.544a2.945 2.945 0 0 1-2.945-2.945zM599.582 380.194a2.946 2.946 0 0 1 2.945-2.945h17.008a2.945 2.945 0 1 1 0 5.89h-17.008a2.945 2.945 0 0 1-2.945-2.945z" fill="#F1F1F1"/><path opacity=".1" d="M13.397 177c0-5.523 4.477-10 10-10H224c5.523 0 10 4.477 10 10v118.859c0 5.523-4.477 10-10 10H23.397c-5.523 0-10-4.477-10-10V177z" fill="#246EDE"/><path d="M0 184.91c0-5.523 4.477-10 10-10h205.069c5.523 0 10 4.477 10 10v121.496c0 5.523-4.477 10-10 10H10c-5.523 0-10-4.477-10-10V184.91z" fill="#fff"/><path d="M.5 184.91a9.5 9.5 0 0 1 9.5-9.5h205.069a9.5 9.5 0 0 1 9.5 9.5v121.496c0 5.246-4.254 9.5-9.5 9.5H10c-5.247 0-9.5-4.254-9.5-9.5V184.91z" stroke="#246EDE" stroke-opacity=".5"/><path d="M186.573 231.249c0-1.084.879-1.963 1.963-1.963h23.29a1.963 1.963 0 0 1 0 3.926h-23.29a1.963 1.963 0 0 1-1.963-1.963zM186.573 251.576c0-1.084.879-1.963 1.963-1.963h23.29a1.963 1.963 0 0 1 0 3.926h-23.29a1.963 1.963 0 0 1-1.963-1.963zM193.377 237.793c0-1.084.879-1.963 1.964-1.963h16.485a1.963 1.963 0 1 1 0 3.926h-16.485a1.963 1.963 0 0 1-1.964-1.963zM193.377 258.12c0-1.084.879-1.963 1.964-1.963h16.485a1.963 1.963 0 1 1 0 3.926h-16.485a1.963 1.963 0 0 1-1.964-1.963zM134.863 231.249c0-1.084.879-1.963 1.963-1.963h17.166a1.963 1.963 0 0 1 0 3.926h-17.166a1.963 1.963 0 0 1-1.963-1.963zM134.863 251.576c0-1.084.879-1.963 1.963-1.963h17.166a1.963 1.963 0 0 1 0 3.926h-17.166a1.963 1.963 0 0 1-1.963-1.963zM160.718 231.249c0-1.084.879-1.963 1.963-1.963h17.166a1.963 1.963 0 0 1 0 3.926h-17.166a1.963 1.963 0 0 1-1.963-1.963zM160.718 251.576c0-1.084.879-1.963 1.963-1.963h17.166a1.963 1.963 0 0 1 0 3.926h-17.166a1.963 1.963 0 0 1-1.963-1.963zM134.863 237.793c0-1.084.879-1.963 1.963-1.963h29.413a1.963 1.963 0 1 1 0 3.926h-29.413a1.963 1.963 0 0 1-1.963-1.963zM134.863 258.12c0-1.084.879-1.963 1.963-1.963h29.413a1.963 1.963 0 1 1 0 3.926h-29.413a1.963 1.963 0 0 1-1.963-1.963zM172.965 237.793c0-1.084.879-1.963 1.963-1.963h11.723a1.963 1.963 0 0 1 0 3.926h-11.723a1.963 1.963 0 0 1-1.963-1.963zM172.965 258.12c0-1.084.879-1.963 1.963-1.963h11.723a1.963 1.963 0 0 1 0 3.926h-11.723a1.963 1.963 0 0 1-1.963-1.963zM134.863 244.337c0-1.084.879-1.963 1.963-1.963h13.084a1.963 1.963 0 0 1 0 3.927h-13.084a1.963 1.963 0 0 1-1.963-1.964zM134.863 264.664c0-1.084.879-1.963 1.963-1.963h13.084a1.963 1.963 0 0 1 0 3.927h-13.084a1.963 1.963 0 0 1-1.963-1.964zM196.489 244.545c0-1.084.879-1.963 1.963-1.963h13.084a1.963 1.963 0 0 1 0 3.926h-13.084a1.963 1.963 0 0 1-1.963-1.963zM196.489 264.872c0-1.084.879-1.963 1.963-1.963h13.084a1.963 1.963 0 0 1 0 3.926h-13.084a1.963 1.963 0 0 1-1.963-1.963zM156.636 244.337c0-1.084.879-1.963 1.963-1.963h11.723a1.963 1.963 0 0 1 0 3.927h-11.723a1.963 1.963 0 0 1-1.963-1.964zM156.636 264.664c0-1.084.879-1.963 1.963-1.963h11.723a1.963 1.963 0 0 1 0 3.927h-11.723a1.963 1.963 0 0 1-1.963-1.964zM177.047 244.337c0-1.084.879-1.963 1.963-1.963h10.362a1.963 1.963 0 1 1 0 3.927H179.01a1.963 1.963 0 0 1-1.963-1.964zM177.047 264.664c0-1.084.879-1.963 1.963-1.963h10.362a1.963 1.963 0 1 1 0 3.927H179.01a1.963 1.963 0 0 1-1.963-1.964z" fill="#E6E7E8"/><rect x="200.319" y="185.956" width="4.443" height="4.235" rx="1.5" stroke="#246EDE"/><path d="M213.428 186.11l-4.083 3.927M209.344 186.11l4.083 3.927M195.737 188.074h-4.763" stroke="#246EDE"/><path opacity=".05" d="M12.504 221.822c0-5.523 4.477-10 10-10h94.321c5.522 0 10 4.477 10 10v57.339c0 5.523-4.478 10-10 10H22.504c-5.523 0-10-4.477-10-10v-57.339zM134.863 278.68a6.216 6.216 0 0 1 6.217-6.217h36.555a6.216 6.216 0 1 1 0 12.434H141.08a6.217 6.217 0 0 1-6.217-6.217z" fill="#246EDE"/><path d="M134.863 220.04a2.944 2.944 0 0 1 2.945-2.945h30.852a2.945 2.945 0 1 1 0 5.89h-30.852a2.945 2.945 0 0 1-2.945-2.945zM175.687 220.04a2.944 2.944 0 0 1 2.945-2.945h17.38a2.945 2.945 0 1 1 0 5.89h-17.38a2.945 2.945 0 0 1-2.945-2.945zM87.816 199.685c0-1.084.879-1.963 1.963-1.963h24.651a1.963 1.963 0 0 1 0 3.927H89.78a1.963 1.963 0 0 1-1.964-1.964zM34.744 199.685c0-1.084.88-1.963 1.964-1.963h19.207a1.963 1.963 0 1 1 0 3.927H36.708a1.963 1.963 0 0 1-1.964-1.964zM64.002 199.685c0-1.084.879-1.963 1.963-1.963h13.084a1.963 1.963 0 1 1 0 3.927H65.965a1.963 1.963 0 0 1-1.963-1.964z" fill="#F1F1F1"/><path d="M24.719 199.031c0 3.32-2.804 6.044-6.304 6.044-3.5 0-6.304-2.724-6.304-6.044 0-3.32 2.804-6.044 6.304-6.044 3.5 0 6.304 2.724 6.304 6.044z" stroke="#F1F1F1"/><rect opacity=".3" x="560.698" width="217.078" height="293.538" rx="10" fill="#246EDE" fill-opacity=".3"/><rect x="544" y="7.91" width="225.866" height="297.933" rx="10" fill="#fff"/><rect x="544.5" y="8.41" width="224.866" height="296.933" rx="9.5" stroke="#246EDE" stroke-opacity=".5"/><path d="M636.082 31.043c0-1.084.879-1.963 1.963-1.963h23.559a1.963 1.963 0 0 1 0 3.926h-23.559a1.963 1.963 0 0 1-1.963-1.963zM635.751 285.796c0-1.084.879-1.963 1.963-1.963h23.559a1.963 1.963 0 1 1 0 3.927h-23.559a1.963 1.963 0 0 1-1.963-1.964zM585.037 31.043c0-1.084.879-1.963 1.963-1.963h18.324a1.963 1.963 0 0 1 0 3.926H587a1.963 1.963 0 0 1-1.963-1.963zM584.706 285.796c0-1.084.879-1.963 1.963-1.963h18.324a1.963 1.963 0 0 1 0 3.927h-18.324a1.963 1.963 0 0 1-1.963-1.964zM613.177 31.043c0-1.084.879-1.963 1.964-1.963h12.434a1.963 1.963 0 0 1 0 3.926h-12.434a1.963 1.963 0 0 1-1.964-1.963zM612.847 285.796c0-1.084.879-1.963 1.963-1.963h12.434a1.963 1.963 0 0 1 0 3.927H614.81a1.963 1.963 0 0 1-1.963-1.964zM668.803 31.043c0-1.084.879-1.963 1.963-1.963h15.052a1.963 1.963 0 0 1 0 3.926h-15.052a1.963 1.963 0 0 1-1.963-1.963zM668.472 285.796c0-1.084.879-1.963 1.963-1.963h15.052a1.963 1.963 0 0 1 0 3.927h-15.052a1.963 1.963 0 0 1-1.963-1.964zM620.461 137.541c0-1.213.983-2.197 2.197-2.197h26.365a2.198 2.198 0 1 1 0 4.394h-26.365a2.196 2.196 0 0 1-2.197-2.197zM628.37 144.572c0-1.213.984-2.197 2.197-2.197h18.456a2.198 2.198 0 1 1 0 4.394h-18.456a2.197 2.197 0 0 1-2.197-2.197zM690.769 155.764c0-1.085.879-1.964 1.963-1.964h29.989a1.963 1.963 0 0 1 0 3.927h-29.989a1.963 1.963 0 0 1-1.963-1.963zM730.205 155.763c0-1.084.879-1.963 1.963-1.963h18.158a1.963 1.963 0 0 1 0 3.927h-18.158a1.963 1.963 0 0 1-1.963-1.964zM690.769 162.308c0-1.085.879-1.964 1.963-1.964h26.834a1.963 1.963 0 0 1 0 3.927h-26.834a1.963 1.963 0 0 1-1.963-1.963zM727.05 162.308c0-1.085.879-1.964 1.963-1.964h21.312a1.964 1.964 0 1 1 0 3.927h-21.312a1.963 1.963 0 0 1-1.963-1.963zM733.36 168.852c0-1.084.879-1.963 1.963-1.963h15.003a1.963 1.963 0 0 1 0 3.926h-15.003a1.963 1.963 0 0 1-1.963-1.963zM690.769 168.852c0-1.084.879-1.963 1.963-1.963h15.792a1.963 1.963 0 0 1 0 3.926h-15.792a1.963 1.963 0 0 1-1.963-1.963zM716.008 168.852c0-1.084.879-1.963 1.963-1.963h7.904a1.963 1.963 0 1 1 0 3.926h-7.904a1.963 1.963 0 0 1-1.963-1.963zM690.769 129.398c0-1.085.879-1.964 1.963-1.964h20.524a1.963 1.963 0 0 1 0 3.927h-20.524a1.963 1.963 0 0 1-1.963-1.963zM720.74 129.397c0-1.084.879-1.963 1.963-1.963h27.623a1.963 1.963 0 0 1 0 3.927h-27.623a1.963 1.963 0 0 1-1.963-1.964zM690.769 135.942c0-1.085.879-1.964 1.963-1.964h34.721a1.963 1.963 0 0 1 0 3.927h-34.721a1.963 1.963 0 0 1-1.963-1.963zM734.148 135.942c0-1.085.879-1.964 1.964-1.964h14.214a1.963 1.963 0 0 1 0 3.927h-14.214a1.963 1.963 0 0 1-1.964-1.963zM690.769 142.486c0-1.085.879-1.964 1.963-1.964h15.792a1.963 1.963 0 0 1 0 3.927h-15.792a1.963 1.963 0 0 1-1.963-1.963zM717.585 142.486c0-1.085.879-1.964 1.964-1.964h30.777a1.963 1.963 0 0 1 0 3.927h-30.777a1.963 1.963 0 0 1-1.964-1.963zM562.456 137.541c0-1.213.984-2.197 2.197-2.197h19.335a2.197 2.197 0 0 1 0 4.394h-19.335a2.197 2.197 0 0 1-2.197-2.197zM591.458 137.541c0-1.213.984-2.197 2.197-2.197h19.335a2.197 2.197 0 1 1 0 4.394h-19.335a2.197 2.197 0 0 1-2.197-2.197zM562.456 144.572c0-1.213.984-2.197 2.197-2.197h33.397a2.197 2.197 0 0 1 0 4.394h-33.397a2.197 2.197 0 0 1-2.197-2.197zM605.52 144.572c0-1.213.984-2.197 2.197-2.197H620.9a2.197 2.197 0 0 1 0 4.394h-13.183a2.197 2.197 0 0 1-2.197-2.197zM562.456 151.603c0-1.214.984-2.197 2.197-2.197h14.941a2.197 2.197 0 1 1 0 4.394h-14.941a2.197 2.197 0 0 1-2.197-2.197zM587.064 151.603c0-1.214.984-2.197 2.197-2.197h13.183a2.197 2.197 0 1 1 0 4.394h-13.183a2.197 2.197 0 0 1-2.197-2.197zM609.914 151.603c0-1.214.984-2.197 2.197-2.197h11.426a2.197 2.197 0 1 1 0 4.394h-11.426a2.197 2.197 0 0 1-2.197-2.197zM631.007 151.603c0-1.214.984-2.197 2.197-2.197h15.819a2.197 2.197 0 1 1 0 4.394h-15.819a2.197 2.197 0 0 1-2.197-2.197zM710.487 179.492c0-1.084.879-1.963 1.963-1.963h20.524a1.963 1.963 0 0 1 0 3.927H712.45a1.963 1.963 0 0 1-1.963-1.964zM740.458 179.492c0-1.084.879-1.963 1.964-1.963h7.904a1.963 1.963 0 0 1 0 3.927h-7.904a1.964 1.964 0 0 1-1.964-1.964zM690.769 186.037c0-1.085.879-1.964 1.963-1.964h29.2a1.963 1.963 0 0 1 0 3.927h-29.2a1.963 1.963 0 0 1-1.963-1.963zM729.416 186.037c0-1.085.879-1.964 1.964-1.964h18.946a1.963 1.963 0 0 1 0 3.927H731.38a1.963 1.963 0 0 1-1.964-1.963zM690.769 179.492c0-1.084.879-1.963 1.963-1.963h10.271a1.963 1.963 0 0 1 0 3.927h-10.271a1.963 1.963 0 0 1-1.963-1.964zM690.769 192.581c0-1.085.879-1.964 1.963-1.964h12.637a1.963 1.963 0 0 1 0 3.927h-12.637a1.963 1.963 0 0 1-1.963-1.963zM712.853 192.581c0-1.085.879-1.964 1.964-1.964h35.509a1.963 1.963 0 0 1 0 3.927h-35.509a1.963 1.963 0 0 1-1.964-1.963z" fill="#E6E7E8"/><rect x="739.553" y="21.072" width="4.235" height="4.235" rx="1.5" stroke="#246EDE"/><g opacity=".3"><circle cx="569.331" cy="30.388" r="6.544" fill="#E6E7E8"/><circle cx="569.331" cy="30.388" r="6.044" stroke="#246EDE" stroke-opacity=".3"/></g><g opacity=".3"><circle cx="569" cy="285.142" r="6.544" fill="#E6E7E8"/><circle cx="569" cy="285.142" r="6.044" stroke="#246EDE" stroke-opacity=".3"/></g><circle opacity=".05" cx="671.663" cy="135.572" r="8.138" fill="#246EDE"/><circle opacity=".05" cx="671.663" cy="161.938" r="8.138" fill="#246EDE"/><circle opacity=".05" cx="671.663" cy="186.546" r="8.138" fill="#246EDE"/><path d="M752.141 21.226l-3.926 3.927M748.215 21.226l3.926 3.927M735.126 23.19h-4.581" stroke="#246EDE"/><path opacity=".05" d="M562.456 73.278c0-5.523 4.477-10 10-10h68.765c5.522 0 10 4.477 10 10v34.489c0 5.523-4.478 10-10 10h-68.765c-5.523 0-10-4.477-10-10v-34.49z" fill="#246EDE"/><rect opacity=".05" x="562.456" y="158.194" width="42.185" height="25.487" rx="5" fill="#246EDE"/><rect opacity=".05" x="609.914" y="158.194" width="41.306" height="25.487" rx="5" fill="#246EDE"/><path opacity=".05" d="M562.456 256.294c0 5.523 4.477 10 10 10h97.767c5.523 0 10-4.477 10-10v-41.52c0-5.523-4.477-10-10-10h-97.767c-5.523 0-10 4.477-10 10v41.52zM663.525 73.278c0-5.523 4.477-10 10-10h68.764c5.523 0 10 4.477 10 10v34.489c0 5.523-4.477 10-10 10h-68.764c-5.523 0-10-4.477-10-10v-34.49z" fill="#246EDE"/><path d="M691.269 214.774a9.5 9.5 0 0 1 9.5-9.5h41.52a9.5 9.5 0 0 1 9.5 9.5v41.52a9.5 9.5 0 0 1-9.5 9.5h-41.52a9.5 9.5 0 0 1-9.5-9.5v-41.52z" stroke="#246EDE"/><path d="M698.3 250.539a5.718 5.718 0 0 1 5.717-5.717h34.684a5.717 5.717 0 1 1 0 11.434h-34.684a5.717 5.717 0 0 1-5.717-5.717z" fill="#246EDE" stroke="#246EDE"/><path d="M563.287 127.743a2.444 2.444 0 0 1 2.445-2.445h29.449a2.445 2.445 0 1 1 0 4.89h-29.449a2.445 2.445 0 0 1-2.445-2.445zM563.287 191.02a2.445 2.445 0 0 1 2.445-2.445h29.449a2.445 2.445 0 0 1 0 4.89h-29.449a2.444 2.444 0 0 1-2.445-2.445zM664.025 54.797a2.444 2.444 0 0 1 2.444-2.444h29.449a2.445 2.445 0 1 1 0 4.89h-29.449a2.444 2.444 0 0 1-2.444-2.446zM628.86 127.743a2.444 2.444 0 0 1 2.444-2.445h17.015a2.444 2.444 0 1 1 0 4.89h-17.015a2.445 2.445 0 0 1-2.444-2.445zM628.86 191.02a2.445 2.445 0 0 1 2.444-2.445h17.015a2.445 2.445 0 1 1 0 4.89h-17.015a2.444 2.444 0 0 1-2.444-2.445zM589.264 54.797a2.445 2.445 0 0 1 2.445-2.444h17.015a2.445 2.445 0 0 1 0 4.89h-17.015a2.445 2.445 0 0 1-2.445-2.446zM602.552 127.743a2.444 2.444 0 0 1 2.445-2.445h16.491a2.445 2.445 0 1 1 0 4.89h-16.491a2.445 2.445 0 0 1-2.445-2.445zM602.552 191.02a2.445 2.445 0 0 1 2.445-2.445h16.491a2.445 2.445 0 0 1 0 4.89h-16.491a2.444 2.444 0 0 1-2.445-2.445zM562.956 54.797a2.445 2.445 0 0 1 2.445-2.444h16.491a2.445 2.445 0 1 1 0 4.89h-16.491a2.445 2.445 0 0 1-2.445-2.446zM705.331 54.797a2.445 2.445 0 0 1 2.445-2.444h16.491a2.445 2.445 0 0 1 0 4.89h-16.491a2.445 2.445 0 0 1-2.445-2.446z" fill="#fff" fill-opacity=".3" stroke="#E6E7E8"/><path d="M698.3 233.635a3.754 3.754 0 0 1 3.754-3.753h38.611a3.753 3.753 0 1 1 0 7.507h-38.611a3.754 3.754 0 0 1-3.754-3.754zM698.3 219.574a3.754 3.754 0 0 1 3.754-3.754h38.611a3.754 3.754 0 0 1 0 7.507h-38.611a3.754 3.754 0 0 1-3.754-3.753z" stroke="#246EDE"/><circle cx="680.223" cy="233.776" r="7.031" fill="#fff"/><circle cx="680.223" cy="233.776" r="6.531" stroke="#246EDE" stroke-opacity=".05"/><path d="M679.344 232.018l1.758 1.758-1.758 1.758" stroke="#246EDE"/><circle r="7.031" transform="matrix(-1 0 0 1 562.456 233.776)" fill="#fff"/><circle r="6.531" transform="matrix(-1 0 0 1 562.456 233.776)" stroke="#246EDE" stroke-opacity=".05"/><path d="M563.335 232.018l-1.758 1.758 1.758 1.758" stroke="#246EDE"/><path d="M509 139c0-5.523 4.477-10 10-10h110.164c5.522 0 10 4.477 10 10v63.035c0 5.523-4.478 10-10 10H519c-5.523 0-10-4.477-10-10V139z" fill="#fff"/><path d="M509.5 139a9.5 9.5 0 0 1 9.5-9.5h110.164a9.5 9.5 0 0 1 9.5 9.5v63.035a9.5 9.5 0 0 1-9.5 9.5H519a9.5 9.5 0 0 1-9.5-9.5V139z" stroke="#246EDE" stroke-opacity=".3"/><rect opacity=".1" x="517.977" y="139.099" width="67.326" height="34.785" rx="5" fill="#246EDE"/><path d="M590.914 153.125a2.805 2.805 0 0 1 2.805-2.805h33.663a2.805 2.805 0 0 1 0 5.61h-33.663a2.805 2.805 0 0 1-2.805-2.805zM590.914 162.102a2.805 2.805 0 0 1 2.805-2.805h33.663a2.805 2.805 0 1 1 0 5.61h-33.663a2.805 2.805 0 0 1-2.805-2.805zM590.914 171.078a2.805 2.805 0 0 1 2.805-2.805h33.663a2.805 2.805 0 0 1 0 5.611h-33.663a2.805 2.805 0 0 1-2.805-2.806z" fill="#E6E7E8"/><path d="M591.414 142.859a3.26 3.26 0 0 1 3.26-3.26h21.055a3.26 3.26 0 1 1 0 6.52h-21.055a3.26 3.26 0 0 1-3.26-3.26z" fill="#fff" fill-opacity=".3" stroke="#E6E7E8"/><path d="M590.914 182.299a2.805 2.805 0 0 1 2.805-2.805h33.663a2.805 2.805 0 0 1 0 5.611h-33.663a2.805 2.805 0 0 1-2.805-2.806zM601.012 191.277a2.805 2.805 0 0 1 2.806-2.805h23.564a2.805 2.805 0 1 1 0 5.61h-23.564a2.805 2.805 0 0 1-2.806-2.805zM516.854 182.299a2.805 2.805 0 0 1 2.806-2.805h24.686a2.805 2.805 0 0 1 0 5.611H519.66a2.806 2.806 0 0 1-2.806-2.806zM553.884 182.299a2.805 2.805 0 0 1 2.805-2.805h24.686a2.805 2.805 0 1 1 0 5.611h-24.686a2.805 2.805 0 0 1-2.805-2.806zM516.854 191.277a2.805 2.805 0 0 1 2.806-2.805h42.64a2.805 2.805 0 1 1 0 5.61h-42.64a2.805 2.805 0 0 1-2.806-2.805zM571.837 191.277a2.805 2.805 0 0 1 2.806-2.805h16.831a2.805 2.805 0 1 1 0 5.61h-16.831a2.805 2.805 0 0 1-2.806-2.805zM516.854 200.253a2.805 2.805 0 0 1 2.806-2.805h19.075a2.805 2.805 0 1 1 0 5.611H519.66a2.806 2.806 0 0 1-2.806-2.806zM548.273 200.253a2.805 2.805 0 0 1 2.805-2.805h16.832a2.805 2.805 0 0 1 0 5.611h-16.832a2.805 2.805 0 0 1-2.805-2.806zM577.448 200.253a2.805 2.805 0 0 1 2.805-2.805h14.588a2.805 2.805 0 0 1 0 5.611h-14.588a2.805 2.805 0 0 1-2.805-2.806zM604.378 200.253a2.805 2.805 0 0 1 2.805-2.805h20.198a2.805 2.805 0 1 1 0 5.611h-20.198a2.805 2.805 0 0 1-2.805-2.806z" fill="#E6E7E8"/><path d="M409.5 374a9.5 9.5 0 0 1 9.5-9.5h88.947a9.5 9.5 0 0 1 9.5 9.5v83.444a9.5 9.5 0 0 1-9.5 9.5H419a9.5 9.5 0 0 1-9.5-9.5V374z" fill="#fff" stroke="#F1F1F1"/><path d="M424.805 410.77a6.653 6.653 0 0 1 6.653-6.653h64.928a6.653 6.653 0 1 1 0 13.306h-64.928a6.653 6.653 0 0 1-6.653-6.653zM424.805 387.66a6.653 6.653 0 0 1 6.653-6.653h64.928a6.653 6.653 0 0 1 0 13.306h-64.928a6.653 6.653 0 0 1-6.653-6.653z" stroke="#246EDE"/><path d="M424.805 438.928a9.5 9.5 0 0 1 9.5-9.5h59.234a9.5 9.5 0 0 1 9.5 9.5v.909a9.5 9.5 0 0 1-9.5 9.5h-59.234a9.5 9.5 0 0 1-9.5-9.5v-.909z" fill="#246EDE" stroke="#246EDE"/><path d="M246 225c0-5.523 4.477-10 10-10h85c5.523 0 10 4.477 10 10v61.9c0 5.523-4.477 10-10 10h-85c-5.523 0-10-4.477-10-10V225z" fill="#fff"/><path d="M246.5 225a9.5 9.5 0 0 1 9.5-9.5h85a9.5 9.5 0 0 1 9.5 9.5v61.9a9.5 9.5 0 0 1-9.5 9.5h-85a9.5 9.5 0 0 1-9.5-9.5V225z" stroke="#246EDE" stroke-opacity=".1"/><path d="M261.75 232.046a2.345 2.345 0 0 1 2.345-2.345h24.521a2.345 2.345 0 0 1 0 4.691h-24.521a2.345 2.345 0 0 1-2.345-2.346zM297.557 232.046a2.346 2.346 0 0 1 2.346-2.346h33.001a2.346 2.346 0 1 1 0 4.691h-33.001a2.346 2.346 0 0 1-2.346-2.345zM261.75 239.865a2.346 2.346 0 0 1 2.346-2.346h41.481a2.346 2.346 0 1 1 0 4.691h-41.481a2.345 2.345 0 0 1-2.346-2.345zM313.577 239.865a2.345 2.345 0 0 1 2.345-2.346h16.982a2.346 2.346 0 1 1 0 4.691h-16.982a2.345 2.345 0 0 1-2.345-2.345zM261.75 247.683a2.346 2.346 0 0 1 2.346-2.346h18.866a2.347 2.347 0 0 1 0 4.692h-18.866a2.346 2.346 0 0 1-2.346-2.346zM293.788 247.683a2.347 2.347 0 0 1 2.346-2.346h36.77a2.346 2.346 0 0 1 0 4.692h-36.77a2.347 2.347 0 0 1-2.346-2.346z" fill="#E6E7E8"/><path d="M270.65 270.727a6.927 6.927 0 0 1 6.928-6.927h41.438a6.927 6.927 0 1 1 0 13.855h-41.438a6.928 6.928 0 0 1-6.928-6.928z" fill="#246EDE" stroke="#246EDE"/><rect x="687" y="370" width="100.543" height="69" rx="5" fill="#fff"/><rect x="687.5" y="370.5" width="99.543" height="68" rx="4.5" stroke="#246EDE" stroke-opacity=".5"/><rect opacity=".05" x="687" y="370" width="100.543" height="69" rx="5" fill="#246EDE"/></svg>