<svg width="820" height="420" fill="none" xmlns="http://www.w3.org/2000/svg"><g opacity=".4"><rect x="10" width="810" height="410" rx="30" fill="#246EDE" fill-opacity=".2"/><rect x=".5" y="10.5" width="809" height="409" rx="29.5" fill="#fff" stroke="#246EDE"/><rect x="45.5" y="120.5" width="169" height="64" rx="9.5" fill="#246EDE" fill-opacity=".1" stroke="#246EDE"/><path d="M45.5 44a9.5 9.5 0 0 1 9.5-9.5h125.622a9.499 9.499 0 0 1 6.98 3.056l20.77 22.5a9.5 9.5 0 0 1 0 12.888l-20.77 22.5a9.499 9.499 0 0 1-6.98 3.056H55a9.5 9.5 0 0 1-9.5-9.5V44zM235.5 44a9.5 9.5 0 0 1 9.5-9.5h125.622a9.499 9.499 0 0 1 6.98 3.056l20.77 22.5a9.5 9.5 0 0 1 0 12.888l-20.77 22.5a9.499 9.499 0 0 1-6.98 3.056H245a9.5 9.5 0 0 1-9.5-9.5V44zM425.5 44a9.5 9.5 0 0 1 9.5-9.5h125.622a9.499 9.499 0 0 1 6.98 3.056l20.77 22.5a9.5 9.5 0 0 1 0 12.888l-20.77 22.5a9.499 9.499 0 0 1-6.98 3.056H435a9.5 9.5 0 0 1-9.5-9.5V44z" fill="#246EDE" fill-opacity=".1" stroke="#246EDE"/><path opacity=".1" d="M82 145a4 4 0 0 0-4-4H68a4 4 0 0 0 0 8h10a4 4 0 0 0 4-4z" fill="#246EDE"/><rect x="45.5" y="206.5" width="169" height="64" rx="9.5" fill="#246EDE" fill-opacity=".1" stroke="#246EDE"/><path opacity=".1" d="M188 145a4 4 0 0 0-4-4h-10a4 4 0 0 0 0 8h10a4 4 0 0 0 4-4z" fill="#246EDE"/><rect x="45.5" y="291.5" width="169" height="64" rx="9.5" fill="#246EDE" fill-opacity=".1" stroke="#246EDE"/><rect x="235.5" y="120.5" width="169" height="64" rx="9.5" fill="#246EDE" fill-opacity=".1" stroke="#246EDE"/><path opacity=".1" d="M121 145a4 4 0 0 0-4-4H93a4 4 0 0 0 0 8h24a4 4 0 0 0 4-4zM82 231a4 4 0 0 0-4-4H68a4 4 0 0 0 0 8h10a4 4 0 0 0 4-4zM121 231a4 4 0 0 0-4-4H93a4 4 0 0 0 0 8h24a4 4 0 0 0 4-4zM271 231a4 4 0 0 0-4-4h-10a4 4 0 0 0 0 8h10a4 4 0 0 0 4-4zM462 316a4 4 0 0 0-4-4h-10a4 4 0 0 0 0 8h10a4 4 0 0 0 4-4zM649 145a4 4 0 0 0-4-4h-10a4 4 0 0 0 0 8h10a4 4 0 0 0 4-4zM649 230a4 4 0 0 0-4-4h-10a4 4 0 0 0 0 8h10a4 4 0 0 0 4-4zM161 145a4 4 0 0 0-4-4h-24a4 4 0 0 0 0 8h24a4 4 0 0 0 4-4zM377 231a4 4 0 0 0-4-4h-10a4 4 0 0 0 0 8h10a4 4 0 0 0 4-4zM568 316a4 4 0 0 0-4-4h-10a4 4 0 0 0 0 8h10a4 4 0 0 0 4-4zM755 145a4 4 0 0 0-4-4h-10a4 4 0 0 0 0 8h10a4 4 0 0 0 4-4zM755 230a4 4 0 0 0-4-4h-10a4 4 0 0 0 0 8h10a4 4 0 0 0 4-4zM161 231a4 4 0 0 0-4-4h-24a4 4 0 0 0 0 8h24a4 4 0 0 0 4-4zM96 246a4 4 0 0 0-4-4H68a4 4 0 0 0 0 8h24a4 4 0 0 0 4-4zM96 160a4 4 0 0 0-4-4H68a4 4 0 0 0 0 8h24a4 4 0 0 0 4-4zM310 231a4 4 0 0 0-4-4h-24a4 4 0 0 0 0 8h24a4 4 0 0 0 4-4zM501 316a4 4 0 0 0-4-4h-24a4 4 0 0 0 0 8h24a4 4 0 0 0 4-4zM688 145a4 4 0 0 0-4-4h-24a4 4 0 0 0 0 8h24a4 4 0 0 0 4-4zM688 230a4 4 0 0 0-4-4h-24a4 4 0 0 0 0 8h24a4 4 0 0 0 4-4zM161 246a4 4 0 0 0-4-4h-50a4 4 0 0 0 0 8h50a4 4 0 0 0 4-4z" fill="#246EDE"/><rect x="235.5" y="206.5" width="169" height="64" rx="9.5" fill="#246EDE" fill-opacity=".1" stroke="#246EDE"/><path opacity=".1" d="M144 160a4 4 0 0 0-4-4h-33a4 4 0 0 0 0 8h33a4 4 0 0 0 4-4zM350 231a4 4 0 0 0-4-4h-24a4 4 0 0 0 0 8h24a4 4 0 0 0 4-4zM541 316a4 4 0 0 0-4-4h-24a4 4 0 0 0 0 8h24a4 4 0 0 0 4-4zM728 145a4 4 0 0 0-4-4h-24a4 4 0 0 0 0 8h24a4 4 0 0 0 4-4zM728 230a4 4 0 0 0-4-4h-24a4 4 0 0 0 0 8h24a4 4 0 0 0 4-4z" fill="#246EDE"/><rect x="235.5" y="291.5" width="169" height="64" rx="9.5" fill="#246EDE" fill-opacity=".1" stroke="#246EDE"/><path opacity=".1" d="M187 160a4 4 0 0 0-4-4h-27a4 4 0 0 0 0 8h27a4 4 0 0 0 4-4z" fill="#246EDE"/><rect x="425.5" y="120.5" width="169" height="64" rx="9.5" fill="#246EDE" fill-opacity=".1" stroke="#246EDE"/><path opacity=".1" d="M285 246a4 4 0 0 0-4-4h-24a4 4 0 0 0 0 8h24a4 4 0 0 0 4-4zM476 331a4 4 0 0 0-4-4h-24a4 4 0 0 0 0 8h24a4 4 0 0 0 4-4zM663 160a4 4 0 0 0-4-4h-24a4 4 0 0 0 0 8h24a4 4 0 0 0 4-4zM663 245a4 4 0 0 0-4-4h-24a4 4 0 0 0 0 8h24a4 4 0 0 0 4-4z" fill="#246EDE"/><rect x="425.5" y="206.5" width="169" height="64" rx="9.5" fill="#246EDE" fill-opacity=".1" stroke="#246EDE"/><rect x="425.5" y="291.5" width="169" height="64" rx="9.5" fill="#246EDE" fill-opacity=".1" stroke="#246EDE"/><path opacity=".1" d="M649 330a4 4 0 0 0-4-4h-10a4 4 0 0 0 0 8h10a4 4 0 0 0 4-4zM460 248a4 4 0 0 0-4-4h-10a4 4 0 0 0 0 8h10a4 4 0 0 0 4-4z" fill="#246EDE"/><rect x="615.5" y="120.5" width="169" height="64" rx="9.5" fill="#246EDE" fill-opacity=".1" stroke="#246EDE"/><path opacity=".1" d="M333 246a4 4 0 0 0-4-4h-33a4 4 0 0 0 0 8h33a4 4 0 0 0 4-4zM524 331a4 4 0 0 0-4-4h-33a4 4 0 0 0 0 8h33a4 4 0 0 0 4-4zM688 330a4 4 0 0 0-4-4h-24a4 4 0 0 0 0 8h24a4 4 0 0 0 4-4zM499 248a4 4 0 0 0-4-4h-24a4 4 0 0 0 0 8h24a4 4 0 0 0 4-4zM711 160a4 4 0 0 0-4-4h-33a4 4 0 0 0 0 8h33a4 4 0 0 0 4-4zM711 245a4 4 0 0 0-4-4h-33a4 4 0 0 0 0 8h33a4 4 0 0 0 4-4zM272 144a4 4 0 0 0-4-4h-10a4 4 0 0 0 0 8h10a4 4 0 0 0 4-4zM272 315a4 4 0 0 0-4-4h-10a4 4 0 0 0 0 8h10a4 4 0 0 0 4-4zM728 330a4 4 0 0 0-4-4h-24a4 4 0 0 0 0 8h24a4 4 0 0 0 4-4zM539 248a4 4 0 0 0-4-4h-24a4 4 0 0 0 0 8h24a4 4 0 0 0 4-4z" fill="#246EDE"/><rect x="615.5" y="34.5" width="169" height="64" rx="9.5" fill="#246EDE" fill-opacity=".1" stroke="#246EDE"/><path opacity=".1" d="M376 246a4 4 0 0 0-4-4h-27a4 4 0 0 0 0 8h27a4 4 0 0 0 4-4zM311 144a4 4 0 0 0-4-4h-24a4 4 0 0 0 0 8h24a4 4 0 0 0 4-4zM311 315a4 4 0 0 0-4-4h-24a4 4 0 0 0 0 8h24a4 4 0 0 0 4-4zM663 315a4 4 0 0 0-4-4h-24a4 4 0 0 0 0 8h24a4 4 0 0 0 4-4zM474 231a4 4 0 0 0-4-4h-24a4 4 0 0 0 0 8h24a4 4 0 0 0 4-4zM351 144a4 4 0 0 0-4-4h-24a4 4 0 0 0 0 8h24a4 4 0 0 0 4-4zM351 315a4 4 0 0 0-4-4h-24a4 4 0 0 0 0 8h24a4 4 0 0 0 4-4zM567 331a4 4 0 0 0-4-4h-27a4 4 0 0 0 0 8h27a4 4 0 0 0 4-4zM754 160a4 4 0 0 0-4-4h-27a4 4 0 0 0 0 8h27a4 4 0 0 0 4-4zM286 159a4 4 0 0 0-4-4h-24a4 4 0 0 0 0 8h24a4 4 0 0 0 4-4zM286 330a4 4 0 0 0-4-4h-24a4 4 0 0 0 0 8h24a4 4 0 0 0 4-4zM728 315a4 4 0 0 0-4-4h-50a4 4 0 0 0 0 8h50a4 4 0 0 0 4-4zM539 231a4 4 0 0 0-4-4h-50a4 4 0 0 0 0 8h50a4 4 0 0 0 4-4zM351 159a4 4 0 0 0-4-4h-50a4 4 0 0 0 0 8h50a4 4 0 0 0 4-4zM351 330a4 4 0 0 0-4-4h-50a4 4 0 0 0 0 8h50a4 4 0 0 0 4-4zM754 245a4 4 0 0 0-4-4h-27a4 4 0 0 0 0 8h27a4 4 0 0 0 4-4z" fill="#246EDE"/><rect x="615.5" y="206.5" width="169" height="64" rx="9.5" fill="#246EDE" fill-opacity=".1" stroke="#246EDE"/><rect x="615.5" y="291.5" width="169" height="64" rx="9.5" fill="#246EDE" fill-opacity=".1" stroke="#246EDE"/><rect opacity=".2" x="27.762" y="130" width="102.462" height="103.238" rx="10" fill="#246EDE"/><rect x="20.5" y="138.262" width="101.462" height="102.238" rx="9.5" fill="#fff" stroke="#246EDE"/><path opacity=".2" d="M68.17 168.522l-.108.296.22.226.745.761-.68.986-.682.987-.981-.422-.289-.124-.237.206a6.966 6.966 0 0 1-1.645 1.064l-.285.132-.004.314-.017 1.071-1.177.218-1.176.218-.4-.997-.116-.291-.313-.021a6.948 6.948 0 0 1-1.917-.41l-.294-.107-.225.217-.771.744-.988-.682-.987-.682.423-.981.124-.289-.206-.237a6.991 6.991 0 0 1-1.064-1.645l-.132-.285-.314-.005-1.071-.017-.218-1.177-.217-1.176.99-.395.292-.116.022-.314c.044-.646.18-1.293.409-1.918l.107-.294-.217-.225-.743-.771.682-.988.681-.987.99.427.289.124.237-.206a6.972 6.972 0 0 1 1.645-1.065l.285-.131.005-.314.017-1.071 1.176-.218 1.176-.218.395.991.116.292.314.022c.646.043 1.292.18 1.917.409l.294.107.225-.217.77-.744.987.681.001.001.983.685-.423.983-.124.289.206.237a6.967 6.967 0 0 1 1.064 1.645l.132.285.314.005 1.07.017.219 1.177.217 1.177-.996.399-.291.117-.022.313a6.946 6.946 0 0 1-.408 1.917zm-10.301-4.948a4.444 4.444 0 0 0 1.136 6.178 4.438 4.438 0 0 0 6.178-1.137 4.442 4.442 0 0 0-7.314-5.041z" fill="#fff" stroke="#246EDE"/><path opacity=".2" d="M79.641 161.645l-.291.117-.021.313c-.022.315-.088.63-.2.935l-.108.296.22.225.25.257-.242.352.411.284-.411-.284-.245.354-.331-.143-.289-.125-.237.206a3.351 3.351 0 0 1-.802.519l-.285.132-.005.314-.005.363-.422.078-.42.078-.136-.338-.117-.291-.313-.022a3.36 3.36 0 0 1-.934-.199l-.294-.108-.225.218-.262.252-.354-.245-.354-.244.143-.332.124-.289-.206-.237a3.372 3.372 0 0 1-.518-.802l-.132-.285-.314-.005-.363-.006-.078-.421-.078-.421.335-.133.292-.117.021-.314c.022-.314.088-.629.2-.934l.107-.294-.217-.225-.252-.261.245-.355.244-.354.336.146.289.124.237-.206a3.41 3.41 0 0 1 .802-.519l.285-.132.005-.314.006-.363.42-.078.421-.078.133.335.117.292.314.021c.314.022.63.088.934.2l.294.108.225-.218.261-.252.353.244.002.001.352.245-.144.334-.124.288.206.237c.212.245.386.515.519.802l.132.285.313.005.363.006.078.421.078.422-.338.135z" stroke="#246EDE"/><path opacity=".2" d="M82.774 174.604l-.109.296.22.226.386.394-.362.525-.364.526-.509-.219-.288-.124-.237.206a4.38 4.38 0 0 1-1.032.668l-.285.132-.005.314-.009.556-.627.116-.627.116-.207-.518-.117-.291-.314-.021a4.362 4.362 0 0 1-1.202-.257l-.294-.108-.225.218-.4.386-.527-.364-.527-.364.22-.509.124-.288-.206-.238a4.354 4.354 0 0 1-.668-1.032l-.132-.285-.313-.005-.556-.008-.117-.628-.115-.626.513-.205.292-.117.022-.314a4.36 4.36 0 0 1 .256-1.202l.108-.294-.218-.225-.386-.401.364-.527.364-.526.514.222.29.124.236-.206a4.38 4.38 0 0 1 1.032-.668l.285-.132.005-.314.009-.556.627-.116.626-.116.205.514.116.292.314.021c.405.028.81.113 1.202.257l.294.108.226-.218.4-.386.525.363.002.001.524.365-.22.511-.124.288.206.237c.273.315.496.663.667 1.032l.132.285.314.005.556.009.116.628.116.627-.517.207-.291.117-.022.314c-.027.404-.113.81-.256 1.202zm-6.699-3.266a3.072 3.072 0 0 0 .786 4.271l4.27-.786s0 0 0 0a3.07 3.07 0 0 0-5.056-3.485z" fill="#fff" stroke="#246EDE"/><rect opacity=".2" x="58.035" y="179.678" width="29.497" height="20.182" rx="5" fill="#246EDE"/><rect x="56.983" y="181.731" width="28.497" height="19.182" rx="4.5" fill="#fff" stroke="#246EDE"/><rect x="63.969" y="177.85" width="12.972" height="3.657" rx="1.829" fill="#fff" stroke="#246EDE"/><path d="M61.64 190.822v-.665a2.216 2.216 0 0 1 4.434 0v.665H61.64zM75.612 190.822v-.665a2.216 2.216 0 0 1 4.434 0v.665h-4.434zM73.834 194.927a2.993 2.993 0 0 1-5.982 0h5.982zM90.137 190.934c0 2.786-1.97 5.025-4.434 5.294v-10.589c2.465.27 4.434 2.509 4.434 5.295z" fill="#fff" stroke="#246EDE"/><path d="M87.531 185.888v-6.21" stroke="#246EDE"/><circle cx="87.532" cy="176.574" r="2.605" fill="#fff" stroke="#246EDE"/><circle cx="70.454" cy="173.469" r="1.052" fill="#fff" stroke="#246EDE"/><path d="M70.455 178.126v-3.105" stroke="#246EDE"/><g opacity=".5" stroke="#246EDE"><circle cx="98.01" cy="211.115" r="9.203" fill="#fff"/><path d="M101.048 206.93l-9.144 3.671c-.641.251-.63.606-.11.771l2.395.747 5.694-3.248-4.333 3.909-.172 2.469c.25 0 .36-.109.49-.239l1.17-1.127 2.425 1.788c.442.25.758.121.876-.411l1.593-7.504c.256-1.203-.707-.89-.884-.826z" stroke-linecap="square" stroke-linejoin="round"/></g><g clip-path="url(#clip0)" fill="#fff" stroke="#246EDE" opacity=".5"><path d="M60.354 232.519l1.377-4.129.072-.217-.117-.197a9.036 9.036 0 1 1 3.568 3.39l-.172-.091-.188.05-4.54 1.194z"/><path d="M75.102 226.774h0a.414.414 0 0 1-.073.485s0 0 0 0l-.588.588c-.818.818-1.638.995-2.453.806-.86-.199-1.772-.819-2.678-1.725l-1.706-1.705-1.705-1.706c-.907-.906-1.527-1.819-1.725-2.678-.189-.816-.012-1.635.806-2.453l.588-.588a.411.411 0 0 1 .485-.073h0c.14.074.312.215.503.413.187.194.37.42.533.64a10.32 10.32 0 0 1 .541.807l.007.012h0c.07.123.087.224.083.279-.002.024-.007.032-.008.034l-.005.005a.104.104 0 0 1-.022.016l-.04.023-.036.029.32.384-.32-.384h0v.001l-.002.001-.005.005-.022.017-.074.063a20.584 20.584 0 0 0-.493.436 1.648 1.648 0 0 0-.22.242h-.001c-.248.366-.404.774-.368 1.213.036.443.26.833.602 1.175l1.332 1.332 1.332 1.332c.343.343.733.566 1.175.603.44.036.847-.121 1.213-.368v-.001c.087-.059.183-.158.243-.221a18.02 18.02 0 0 0 .436-.492l.062-.075.018-.021.005-.006v-.001l.001-.001h0l-.384-.32.384.32.03-.035.022-.041a.125.125 0 0 1 .016-.022l.006-.005s.01-.006.033-.008a.54.54 0 0 1 .28.083h0l.011.007.049.03a10.424 10.424 0 0 1 .759.512c.22.163.446.346.64.532.198.191.339.364.413.504z"/></g><path d="M42.899 201.913a9.203 9.203 0 1 1 0 18.405 9.203 9.203 0 1 1 0-18.405z" stroke="#246EDE" opacity=".5"/><path d="M60.53 156.734a4.5 4.5 0 0 0-4.5-4.5H35.866a4.5 4.5 0 0 0-4.5 4.5v12.15a4.5 4.5 0 0 0 4.5 4.5h20.261c.651 0 1.298.116 1.91.343l4.5 1.667-1.666-4.501a5.508 5.508 0 0 1-.343-1.911v-12.248z" fill="#fff" stroke="#246EDE"/><path d="M35.109 164.694c0-.65.527-1.178 1.178-1.178h19.794a1.178 1.178 0 0 1 0 2.357H36.287c-.65 0-1.178-.528-1.178-1.179zM35.109 157.154c0-.651.527-1.178 1.178-1.178h19.794a1.178 1.178 0 1 1 0 2.356H36.287c-.65 0-1.178-.527-1.178-1.178zM45.006 168.464c0-.65.527-1.178 1.178-1.178h9.897a1.178 1.178 0 0 1 0 2.357h-9.897c-.65 0-1.178-.528-1.178-1.179zM45.006 160.924c0-.651.527-1.178 1.178-1.178h9.897a1.178 1.178 0 1 1 0 2.356h-9.897c-.65 0-1.178-.527-1.178-1.178zM35.109 168.464c0-.65.527-1.178 1.178-1.178h5.655a1.178 1.178 0 0 1 0 2.357h-5.655c-.65 0-1.178-.528-1.178-1.179zM35.109 160.924c0-.651.527-1.178 1.178-1.178h5.655a1.178 1.178 0 1 1 0 2.356h-5.655c-.65 0-1.178-.527-1.178-1.178z" fill="#F1F1F1"/><g opacity=".5"><path d="M87.86 162.016l.174.469-.173-.469-2.588.958.959-2.587c.103-.278.155-.572.155-.868v-8.89a1.5 1.5 0 0 1 1.5-1.5h14.698a1.5 1.5 0 0 1 1.5 1.5v9.732a1.5 1.5 0 0 1-1.5 1.5H88.729c-.296 0-.59.052-.868.155z" fill="#fff" stroke="#246EDE"/><rect width="13.731" height="1.461" rx=".73" transform="matrix(-1 0 0 1 101.956 155.933)" fill="#F1F1F1"/><rect width="13.731" height="1.461" rx=".73" transform="matrix(-1 0 0 1 101.956 151.259)" fill="#F1F1F1"/><rect width="7.596" height="1.461" rx=".73" transform="matrix(-1 0 0 1 95.82 158.27)" fill="#F1F1F1"/><rect width="7.596" height="1.461" rx=".73" transform="matrix(-1 0 0 1 95.82 153.596)" fill="#F1F1F1"/><rect width="4.967" height="1.461" rx=".73" transform="matrix(-1 0 0 1 101.956 158.27)" fill="#F1F1F1"/><rect width="4.967" height="1.461" rx=".73" transform="matrix(-1 0 0 1 101.956 153.596)" fill="#F1F1F1"/></g><rect opacity=".2" x="449.365" y="138" width="108.264" height="101.635" rx="10" fill="#246EDE"/><rect x="442.5" y="145.865" width="107.264" height="100.635" rx="9.5" fill="#fff" stroke="#246EDE"/><rect opacity=".2" x="469.25" y="160.831" width="64.811" height="63.338" rx="5" fill="#246EDE"/><rect x="464.595" y="166.486" width="63.811" height="61.601" rx="4.5" fill="#fff" stroke="#246EDE"/><path d="M465.773 191.874a8.521 8.521 0 0 1-8.525-8.525 8.521 8.521 0 0 1 8.525-8.525 8.52 8.52 0 0 1 8.524 8.525 8.52 8.52 0 0 1-8.524 8.525z" fill="#246EDE" fill-opacity=".3" opacity=".3"/><path d="M463.045 193.237a8.52 8.52 0 0 1-8.525-8.524 8.521 8.521 0 0 1 8.525-8.525 8.52 8.52 0 0 1 8.524 8.525 8.52 8.52 0 0 1-8.524 8.524z" fill="#fff" stroke="#246EDE" stroke-miterlimit="10"/><path d="M468.473 187.764c0-.045-.045-.045-.045-.09-.179-.359-.538-.762-1.076-1.256l-.449-.449a.426.426 0 0 1-.09-.448c.045-.135.225-.359.539-.763.134-.224.269-.359.359-.494.673-.897.942-1.435.852-1.705l-.045-.089c-.045-.045-.09-.045-.179-.09a.49.49 0 0 0-.359 0h-1.974l-.045.045c-.045.045-.045.045-.045.09-.18.448-.404.897-.628 1.301-.135.224-.269.448-.404.628-.135.179-.224.314-.314.404-.09.089-.135.134-.224.179-.045.045-.135.09-.135.045-.045 0-.045 0-.09-.045l-.134-.134c-.045-.045-.045-.135-.045-.225v-.224-.269-.225-.493-.404-.314-.269c0-.045-.045-.135-.045-.18-.045-.045-.045-.089-.135-.134-.045-.045-.134-.045-.179-.09-.18.045-.449.045-.763.045-.718 0-1.166.045-1.391.134-.089.045-.134.09-.224.18s-.09.134-.045.134c.224.045.404.135.494.225l.044.09c.045.044.045.134.09.269.045.134.045.269.045.404v.717c0 .18-.045.359-.045.449 0 .09-.045.18-.09.269-.044.09-.044.09-.089.135 0 0 0 .045-.045.045s-.09.045-.135.045a.339.339 0 0 1-.179-.09c-.09-.045-.135-.135-.225-.224a1.607 1.607 0 0 1-.269-.404c-.089-.18-.224-.359-.314-.584l-.09-.179-.224-.449a7.442 7.442 0 0 0-.269-.583.601.601 0 0 0-.135-.179h-.045s-.044-.045-.089-.045-.09-.045-.135-.045h-1.57c-.18 0-.269.045-.314.09l-.045.044v.09c0 .045 0 .09.045.135.224.538.493 1.077.762 1.57.27.494.494.897.718 1.212.18.314.404.583.628.852.225.269.359.449.404.538.045.09.135.135.18.18l.134.134c.09.09.225.225.404.315.18.134.359.269.583.358.225.135.449.225.763.315.269.089.583.089.853.089h.583a.41.41 0 0 0 .314-.134l.045-.045c0-.045.045-.045.045-.09v-.179c0-.18 0-.314.045-.449.044-.135.044-.224.089-.314.045-.045.09-.135.135-.18l.09-.089h.044c.09-.045.18 0 .315.089.134.09.224.18.358.314.09.135.225.27.404.449.135.18.269.269.404.359l.135.09c.089.045.179.09.314.134.134.045.224.045.314.045l1.48-.045a.84.84 0 0 0 .359-.089c.09-.045.135-.09.135-.18v-.179c-.09 0-.09-.045-.135-.09z" stroke="#246EDE" stroke-miterlimit="10"/><path opacity=".3" d="M533.748 220.597a8.521 8.521 0 0 1-8.525-8.525 8.521 8.521 0 0 1 8.525-8.525 8.52 8.52 0 0 1 8.524 8.525 8.52 8.52 0 0 1-8.524 8.525z" fill="#246EDE" fill-opacity=".3"/><path d="M530.802 221.852a8.521 8.521 0 0 1-8.525-8.525 8.521 8.521 0 0 1 8.525-8.525 8.521 8.521 0 0 1 8.525 8.525 8.521 8.521 0 0 1-8.525 8.525z" fill="#fff" stroke="#246EDE" stroke-miterlimit="10"/><path d="M534.509 210.572h.001l-.004-.01a1.5 1.5 0 0 0-.376-.563 1.495 1.495 0 0 0-.556-.373c-.153-.099-.436-.187-.884-.187-.494-.045-.635-.045-1.884-.045H530.797c-1.251 0-1.389 0-1.886.045h-.001c-.355.035-.577.1-.738.147-.046.013-.087.025-.125.034h0l-.01.003a1.5 1.5 0 0 0-.563.376c-.185.184-.28.326-.373.556-.099.153-.187.436-.188.884-.045.495-.045.635-.045 1.884V213.332c0 1.251 0 1.389.046 1.886v.001c.035.356.099.577.146.739.014.045.025.086.035.124h-.001l.004.01a1.5 1.5 0 0 0 .376.564c.184.184.326.279.556.372.153.099.436.187.884.188.494.045.635.045 1.883.045h.005c.629 0 .978-.011 1.231-.023l.163-.007c.167-.009.302-.015.49-.015v0h.008c.355-.036.576-.1.738-.147l.125-.035v.001l.01-.004c.234-.094.377-.189.563-.375.185-.185.28-.327.373-.557.099-.153.187-.436.188-.884.044-.494.044-.635.044-1.883v-.005c0-.629-.011-.978-.022-1.231l-.008-.162a9.381 9.381 0 0 1-.014-.491h0l-.001-.008c-.035-.355-.1-.576-.146-.738a2.108 2.108 0 0 1-.035-.125zm-6.729-1.618h.001l.003-.002c.255-.127.599-.171 1.095-.216.49-.045.666-.045 1.923-.045.627 0 .985.011 1.247.023l.168.007c.175.008.32.015.511.015.49.045.792.089 1.093.217.269.135.527.265.786.524h0l.005.004c.255.213.384.468.518.78h0l.002.004c.127.254.171.598.216 1.095.045.489.045.665.045 1.922s0 1.433-.045 1.923c-.044.492-.088.795-.217 1.097-.134.268-.265.527-.524.786h0l-.004.005c-.212.255-.467.384-.78.517h0l-.004.002c-.254.127-.598.172-1.095.217-.489.044-.665.044-1.922.044s-1.433 0-1.923-.044c-.492-.045-.795-.089-1.097-.218-.268-.134-.527-.264-.786-.523h.001l-.006-.005c-.254-.212-.383-.467-.517-.779h0l-.002-.004c-.127-.255-.172-.599-.217-1.095-.044-.49-.044-.666-.044-1.923 0-1.257 0-1.433.044-1.922.045-.492.089-.796.218-1.097.134-.268.264-.527.523-.786h.001l.004-.005c.212-.255.467-.384.779-.518z" fill="#246EDE" stroke="#fff" stroke-width=".15"/><path d="M528.454 213.327a2.338 2.338 0 0 1 2.348-2.348c1.258 0 2.303 1.042 2.348 2.349a2.339 2.339 0 0 1-2.348 2.347 2.338 2.338 0 0 1-2.348-2.348zm.702 0c0 .894.752 1.645 1.646 1.645.894 0 1.645-.751 1.645-1.645s-.751-1.645-1.645-1.645-1.646.751-1.646 1.645zM533.778 210.814a.519.519 0 0 1-.509.508.519.519 0 0 1-.508-.508.52.52 0 0 1 .503-.508c.288.043.514.245.514.508z" fill="#246EDE" stroke="#fff" stroke-width=".15"/><path opacity=".3" d="M533.011 174.198a8.52 8.52 0 0 1-8.524-8.524 8.52 8.52 0 0 1 8.524-8.525 8.521 8.521 0 0 1 8.525 8.525 8.52 8.52 0 0 1-8.525 8.524z" fill="#246EDE" fill-opacity=".3"/><g clip-path="url(#clip1)" fill="#fff" stroke="#246EDE" stroke-miterlimit="10"><path d="M530.747 174.482a8.123 8.123 0 0 1-8.127-8.127 8.123 8.123 0 0 1 8.127-8.128 8.124 8.124 0 0 1 8.127 8.128 8.124 8.124 0 0 1-8.127 8.127z"/><path d="M529.506 171.274h1.968v-4.962h1.369l.128-1.668h-1.54v-.941c0-.385.086-.556.471-.556h1.069v-1.711h-1.369c-1.454 0-2.138.641-2.138 1.882v1.326h-1.027v1.668h1.027v4.962h.042z" stroke-linecap="round" stroke-linejoin="round"/></g><path opacity=".3" d="M470.192 236.063a8.521 8.521 0 0 1-8.525-8.525 8.521 8.521 0 0 1 8.525-8.525 8.521 8.521 0 0 1 8.525 8.525 8.521 8.521 0 0 1-8.525 8.525z" fill="#246EDE" fill-opacity=".3"/><path d="M467.464 237.426a8.52 8.52 0 0 1-8.525-8.524 8.521 8.521 0 0 1 8.525-8.525 8.521 8.521 0 0 1 8.525 8.525 8.52 8.52 0 0 1-8.525 8.524z" fill="#fff" stroke="#246EDE" stroke-miterlimit="10"/><path d="M474.015 225.582c-.18-.584-.628-1.077-1.212-1.212-1.076-.314-5.339-.314-5.339-.314s-4.262 0-5.339.314a1.82 1.82 0 0 0-1.211 1.212c-.269 1.076-.269 3.32-.269 3.32s0 2.243.269 3.32c.179.583.628 1.077 1.211 1.211 1.077.269 5.339.269 5.339.269s4.263 0 5.339-.269a1.82 1.82 0 0 0 1.212-1.211c.269-1.077.269-3.32.269-3.32s0-2.244-.269-3.32z" stroke="#246EDE" stroke-miterlimit="10"/><path d="M468.608 228.902l-2.035 1.159v-2.318l2.035 1.159z" fill="#246EDE" stroke="#246EDE"/><path d="M516.681 201.66v-5.442c0-1.152-.608-2.194-1.547-2.647l-2.139-1.036a1.336 1.336 0 0 1-.594-.608m-4.184.001a1.34 1.34 0 0 1-.594.608l-2.14 1.035c-.939.453-1.547 1.495-1.546 2.647v5.444M502.965 194.857v-5.442c.001-1.152-.649-2.194-1.651-2.647l-2.284-1.036a1.384 1.384 0 0 1-.634-.607m-4.467 0c-.143.27-.365.483-.633.608l-2.285 1.035c-1.002.453-1.651 1.495-1.651 2.647v5.444M488.5 201.66v-5.442c.001-1.152-.608-2.194-1.546-2.647l-2.139-1.036a1.338 1.338 0 0 1-.595-.608m-4.184.001c-.134.27-.343.483-.593.608l-2.141 1.035c-.938.453-1.547 1.495-1.546 2.647v5.444" stroke="#246EDE"/><rect x="491.804" y="175.907" width="7.746" height="9.689" rx="3.873" fill="#fff" stroke="#246EDE"/><rect x="478.199" y="182.709" width="7.746" height="9.689" rx="3.873" fill="#fff" stroke="#246EDE"/><rect x="506.38" y="182.709" width="7.746" height="9.689" rx="3.873" fill="#fff" stroke="#246EDE"/><path d="M513.654 196.786v4.858M492.276 189.983v4.859M500.05 189.983v4.859M478.671 196.786v4.858" stroke="#246EDE"/><circle cx="496.163" cy="205.532" r="13.104" fill="#fff" stroke="#246EDE"/><circle cx="496.162" cy="205.532" r="10.189" fill="#fff" stroke="#246EDE"/><circle cx="496.163" cy="205.532" r="3.387" fill="#fff" stroke="#246EDE"/><circle r=".5" transform="matrix(-1 0 0 1 496.163 205.532)" fill="#fff" stroke="#246EDE" stroke-width=".944"/><path d="M496.163 191.927v5.831M496.163 200.673v2.915M496.163 213.306v5.83M496.163 207.475v2.915M488.389 205.532h-5.831M494.219 205.532h-2.915M509.767 205.532h-5.83M501.021 205.532h-2.915" stroke="#246EDE"/><rect opacity=".2" x="270.446" y="103" width="85.081" height="129.555" rx="10" fill="#246EDE"/><rect x="264.5" y="109.946" width="84.081" height="128.555" rx="9.5" fill="#fff" stroke="#246EDE"/><rect opacity=".3" x="287.371" y="121.692" width="50.732" height="95.495" rx="10" fill="#246EDE" fill-opacity=".3"/><rect x="281.903" y="128.16" width="49.732" height="94.495" rx="9.5" fill="#fff" stroke="#246EDE"/><rect x="284.626" y="132.435" width="44.763" height="83.558" rx="10" fill="#fff"/><rect x="285.126" y="132.935" width="43.763" height="82.558" rx="9.5" stroke="#246EDE" stroke-opacity=".3"/><rect opacity=".2" x="295.583" y="169.389" width="24.493" height="16.758" rx="5" fill="#246EDE"/><rect x="294.794" y="171.178" width="23.493" height="15.758" rx="4.5" fill="#fff" stroke="#246EDE"/><rect x="300.595" y="167.955" width="10.602" height="2.867" rx="1.434" fill="#fff" stroke="#246EDE"/><path d="M298.661 178.557v-.467a1.756 1.756 0 1 1 3.512 0v.467h-3.512zM310.263 178.557v-.467a1.756 1.756 0 1 1 3.512 0v.467h-3.512zM308.612 182.135a2.4 2.4 0 0 1-4.788 0h4.788zM322.154 178.735c0 2.239-1.556 4.035-3.512 4.3v-8.601c1.956.265 3.512 2.062 3.512 4.301z" fill="#fff" stroke="#246EDE"/><path d="M320.076 174.545v-5.156" stroke="#246EDE"/><circle cx="320.076" cy="166.81" r="2.078" fill="#fff" stroke="#246EDE"/><circle cx="305.896" cy="164.232" r=".789" fill="#fff" stroke="#246EDE"/><path d="M305.896 168.1v-2.579" stroke="#246EDE"/><circle opacity=".2" cx="326.843" cy="136.194" r="13.858" fill="#246EDE"/><circle cx="324.91" cy="138.128" r="13.358" fill="#fff" stroke="#246EDE"/><path d="M319.852 131.587a1.458 1.458 0 0 0-.268-.153 1.072 1.072 0 0 0-.559-.058c-.213.051-.479.231-1.056.718-.347.295-.823.822-.935 1.036-.259.505-.244.934.072 1.921.541 1.693 1.333 3.325 2.373 4.899 1.99 3.012 4.498 5.205 7.638 6.675.4.188.53.218.843.2.38-.02.669-.155 1.076-.505.449-.388 1.093-1.297 1.259-1.781.156-.46.116-.876-.116-1.201-.133-.18-1.108-1.084-1.564-1.447a13.255 13.255 0 0 0-1.129-.797c-.325-.188-.647-.221-.962-.099-.249.097-.331.18-.694.698-.187.264-.36.503-.382.526a1.06 1.06 0 0 1-.177.111c-.293.155-.693.061-1.348-.309-.51-.287-.962-.65-1.474-1.183-.437-.452-.877-1.041-1.123-1.5-.318-.591-.559-1.36-.561-1.784 0-.183.064-.442.145-.574.031-.053.23-.254.443-.449.53-.485.648-.637.72-.927.069-.269-.005-.632-.226-1.121-.387-.858-1.57-2.576-1.995-2.896z" stroke="#246EDE"/><path d="M330.141 137.616h-5.053v-1.554h5.553v-1.054l2.191 1.831-2.191 1.831v-1.054h-.5z" stroke="#246EDE"/><rect x="292.86" y="156.353" width="28.005" height="3.512" rx="1.756" fill="#fff" stroke="#246EDE"/><circle cx="295.583" cy="200.972" r="5.946" fill="#fff" stroke="#246EDE"/><circle cx="295.583" cy="200.972" r="5.946" fill="#fff" stroke="#246EDE"/><path d="M293.941 197.44h0c.101.074.202.188.277.279.086.103.179.227.269.354.176.248.365.546.467.766l-1.013-1.399zm0 0l-.005-.004m.005.004l-.005-.004m0 0a1.104 1.104 0 0 0-.224-.122m.224.122l-.224-.122m0 0a.985.985 0 0 0-.252-.06.859.859 0 0 0-.283.015c-.128.03-.236.089-.329.151a3.942 3.942 0 0 0-.327.248h0l-.001.001a3.21 3.21 0 0 0-.286.274 1.687 1.687 0 0 0-.236.306h0l-.002.004a1.1 1.1 0 0 0-.135.577c.008.196.062.399.133.613h0a8.643 8.643 0 0 0 1.078 2.166l.64-4.295zm2.091 4.447c.072-.1.144-.199.222-.275a.818.818 0 0 1 .303-.19l.001-.001a.974.974 0 0 1 .834.074l.002.002h0a5.9 5.9 0 0 1 .541.369l.001.001a8.198 8.198 0 0 1 .61.533c.042.041.111.108.154.165l.003.004h0c.219.297.228.652.119.962h0a2.16 2.16 0 0 1-.292.515 2.622 2.622 0 0 1-.398.445l-.001.001c-.226.189-.45.31-.755.326m-1.344-2.931l.956 2.348m-.956-2.348l-.042.057a2.225 2.225 0 0 1-.13-.065l-.001-.001a2.149 2.149 0 0 1-.516-.406h-.001a2.643 2.643 0 0 1-.398-.514v-.001a1.798 1.798 0 0 1-.169-.445.31.31 0 0 1-.006-.034c.023-.023.052-.049.081-.075.111-.099.211-.191.286-.285a.897.897 0 0 0 .175-.349c.076-.291-.024-.581-.128-.804l.849 2.922zm1.344 2.931h-.001l-.026-.499.028.499h-.001zm0 0a1.053 1.053 0 0 1-.306-.022 1.491 1.491 0 0 1-.289-.106m0 0l.207-.455m-.207.455c-1.432-.651-2.577-1.626-3.48-2.955l3.687 2.5m-.207.455s0 0 0 0l.207-.455" stroke="#246EDE"/><path d="M293.941 197.44h0c.101.074.202.188.277.279.086.103.179.227.269.354.176.248.365.546.467.766l-1.013-1.399zm0 0l-.005-.004m.005.004l-.005-.004m0 0a1.104 1.104 0 0 0-.224-.122m.224.122l-.224-.122m0 0a.985.985 0 0 0-.252-.06.859.859 0 0 0-.283.015c-.128.03-.236.089-.329.151a3.942 3.942 0 0 0-.327.248h0l-.001.001a3.21 3.21 0 0 0-.286.274 1.687 1.687 0 0 0-.236.306h0l-.002.004a1.1 1.1 0 0 0-.135.577c.008.196.062.399.133.613h0a8.643 8.643 0 0 0 1.078 2.166l.64-4.295zm2.091 4.447c.072-.1.144-.199.222-.275a.818.818 0 0 1 .303-.19l.001-.001a.974.974 0 0 1 .834.074l.002.002h0a5.9 5.9 0 0 1 .541.369l.001.001a8.198 8.198 0 0 1 .61.533c.042.041.111.108.154.165l.003.004h0c.219.297.228.652.119.962h0a2.16 2.16 0 0 1-.292.515 2.622 2.622 0 0 1-.398.445l-.001.001c-.226.189-.45.31-.755.326m-1.344-2.931l.956 2.348m-.956-2.348l-.042.057a2.225 2.225 0 0 1-.13-.065l-.001-.001a2.149 2.149 0 0 1-.516-.406h-.001a2.643 2.643 0 0 1-.398-.514v-.001a1.798 1.798 0 0 1-.169-.445.31.31 0 0 1-.006-.034c.023-.023.052-.049.081-.075.111-.099.211-.191.286-.285a.897.897 0 0 0 .175-.349c.076-.291-.024-.581-.128-.804l.849 2.922zm1.344 2.931h-.001l-.026-.499.028.499h-.001zm0 0a1.053 1.053 0 0 1-.306-.022 1.491 1.491 0 0 1-.289-.106m0 0l.207-.455m-.207.455c-1.432-.651-2.577-1.626-3.48-2.955l3.687 2.5m-.207.455s0 0 0 0l.207-.455" stroke="#246EDE"/><circle cx="318.142" cy="200.972" r="5.946" fill="#fff" stroke="#246EDE"/><path d="M316.5 197.44h0c.101.074.202.188.277.279.086.103.179.227.269.354.176.248.365.546.467.766l-1.013-1.399zm0 0l-.005-.004m.005.004l-.005-.004m0 0a1.104 1.104 0 0 0-.224-.122m.224.122l-.224-.122m0 0a.985.985 0 0 0-.252-.06.859.859 0 0 0-.283.015c-.128.03-.236.089-.329.151a3.942 3.942 0 0 0-.327.248h0l-.001.001a3.21 3.21 0 0 0-.286.274 1.687 1.687 0 0 0-.236.306h0l-.002.004a1.1 1.1 0 0 0-.135.577c.008.196.062.399.133.613h0a8.643 8.643 0 0 0 1.078 2.166l.64-4.295zm2.091 4.447c.072-.1.144-.199.222-.275a.818.818 0 0 1 .303-.19l.001-.001a.971.971 0 0 1 .833.074l.003.002h0a5.9 5.9 0 0 1 .541.369l.001.001c.113.087.277.229.416.354l.194.179c.042.041.111.108.154.165l.003.004h0c.219.297.228.652.119.962h0a2.16 2.16 0 0 1-.292.515 2.622 2.622 0 0 1-.398.445l-.001.001c-.226.189-.45.31-.755.326m-1.344-2.931l.956 2.348m-.956-2.348l-.042.057a2.225 2.225 0 0 1-.13-.065l-.001-.001a2.149 2.149 0 0 1-.516-.406h-.001a2.643 2.643 0 0 1-.398-.514v-.001a1.798 1.798 0 0 1-.169-.445.31.31 0 0 1-.006-.034c.023-.023.052-.049.081-.075.111-.099.211-.191.286-.285a.897.897 0 0 0 .175-.349c.076-.291-.024-.581-.128-.804l.849 2.922zm1.344 2.931h-.001l-.026-.499.028.499h-.001zm0 0a1.053 1.053 0 0 1-.306-.022 1.491 1.491 0 0 1-.289-.106m0 0l.207-.455m-.207.455c-1.432-.651-2.577-1.626-3.48-2.955l3.687 2.5m-.207.455h-.001l.208-.455M314.597 204.194l6.445-6.445" stroke="#246EDE"/><rect opacity=".2" x="270.48" y="311" width="101.088" height="74.52" rx="10" fill="#246EDE"/><rect x="264.5" y="317.98" width="100.088" height="73.52" rx="9.5" fill="#fff" stroke="#246EDE"/><rect opacity=".3" x="275.568" y="340.808" width="18.001" height="13.201" rx="3" fill="#246EDE"/><rect x="274.868" y="342.508" width="17.097" height="12.149" rx="2.5" fill="#fff" stroke="#246EDE"/><path d="M291.841 342.666l-8.424 7.724-8.425-7.724M291.841 354.663l-6.552-6.008m-10.297 6.008l6.553-6.008" stroke="#246EDE"/><rect opacity=".3" x="284.544" y="328.496" width="23.401" height="16.801" rx="2" fill="#246EDE"/><rect x="282.644" y="330.796" width="22.95" height="16.401" rx="2.5" fill="#fff" stroke="#246EDE"/><path d="M305.268 331.167l-11.149 10.223-11.149-10.223M305.268 347.045l-8.672-7.952m-13.626 7.952l8.671-7.952" stroke="#246EDE"/><rect opacity=".3" x="300.097" y="340.16" width="30.002" height="21.601" rx="5" fill="#246EDE"/><rect x="298.196" y="343.06" width="28.95" height="20.761" rx="3.5" fill="#fff" stroke="#246EDE"/><path d="M326.614 343.648l-13.943 12.784-13.942-12.784M326.614 363.505l-10.844-9.944m-17.041 9.944l10.844-9.944" stroke="#246EDE"/><rect opacity=".3" x="313.656" y="347.936" width="42.119" height="30.602" rx="6" fill="#246EDE"/><rect x="311.156" y="351.436" width="41.119" height="29.602" rx="5.5" fill="#fff" stroke="#246EDE"/><path d="M351.322 352.466l-19.607 17.979-19.607-17.979M351.322 380.391l-15.25-13.984m-23.964 13.984l15.25-13.984" stroke="#246EDE"/><circle cx="188" cy="237" r="9.5" fill="#fff" stroke="#246EDE"/><circle cx="378" cy="154" r="9.5" fill="#fff" stroke="#246EDE"/><circle cx="378" cy="324" r="9.5" fill="#fff" stroke="#246EDE"/><circle cx="567" cy="238" r="9.5" fill="#fff" stroke="#246EDE"/><circle cx="758" cy="324" r="9.5" fill="#fff" stroke="#246EDE"/><rect opacity=".2" x="663.24" y="229" width="152.76" height="86.154" rx="5" fill="#246EDE"/><rect x="656.5" y="236.74" width="151.76" height="85.154" rx="4.5" fill="#fff" stroke="#246EDE"/><path opacity=".2" fill="#246EDE" d="M679.167 245.652h119.457v60.09H679.167z"/><path fill="#fff" stroke="#246EDE" d="M674.599 250.495h118.457v59.09H674.599z"/><rect opacity=".1" x="682.063" y="257.235" width="44.887" height="44.887" rx="5" fill="#246EDE"/><path d="M707.822 284.095a.351.351 0 0 0-.095-.326l-2.561-2.562a2.606 2.606 0 0 0-3.641-3.64l-2.561-2.561a.354.354 0 0 0-.582.129l-2.108 5.798a13.956 13.956 0 0 1-3.227 5.067 1.48 1.48 0 0 0 0 2.092l1.594 1.593a1.479 1.479 0 0 0 2.092 0l.03-.028 3.295 3.295a.352.352 0 0 0 .499 0 2.606 2.606 0 0 0 0-3.686l-1.468-1.468a13.836 13.836 0 0 1 2.711-1.339l5.798-2.109a.352.352 0 0 0 .224-.255zm-4.766-6.318a1.898 1.898 0 0 1 1.601 2.922l-2.624-2.624a1.89 1.89 0 0 1 1.023-.298zm-7.369 11.635a.765.765 0 0 1-.547-.226l-1.593-1.593a.774.774 0 0 1 0-1.094c.275-.275.539-.562.792-.86l2.754 2.755c-.297.253-.584.517-.859.792a.765.765 0 0 1-.547.226zm4.371.353c.646.646.741 1.66.227 2.415l-3.008-3.008c.387-.347.793-.671 1.216-.972l1.565 1.565zm1.5-3.97a14.667 14.667 0 0 0-3.911 2.153l-2.862-2.862a14.667 14.667 0 0 0 2.153-3.911l1.919-5.278 7.979 7.979-5.278 1.919z" fill="#246EDE"/><path d="M706.901 276.589a3.83 3.83 0 0 0-4.148-.846.352.352 0 1 0 .264.655 3.13 3.13 0 0 1 4.074 4.074.354.354 0 0 0 .655.264 3.83 3.83 0 0 0-.845-4.147z" fill="#246EDE"/><path d="M709.006 281.588a.352.352 0 0 0 .459-.195 5.662 5.662 0 0 0-7.368-7.369.354.354 0 0 0 .264.656 4.956 4.956 0 0 1 6.449 6.449.353.353 0 0 0 .196.459zM712.943 265.199a5.32 5.32 0 1 0 5.319 5.32 5.325 5.325 0 0 0-5.319-5.32zm0 9.933a4.614 4.614 0 1 1 4.613-4.613 4.619 4.619 0 0 1-4.613 4.613z" fill="#246EDE"/><path d="M714.853 269.901a1.32 1.32 0 1 0-1.32-1.326l-1.638.946a1.32 1.32 0 1 0-.034 2.025l1.679 1.052a1.321 1.321 0 1 0 .14-.746l-1.407-.882c.1-.277.106-.58.014-.86l1.444-.834c.241.388.665.625 1.122.625zm0-1.935a.614.614 0 1 1 0 1.229.614.614 0 0 1 0-1.229zm-3.822 3.167a.614.614 0 1 1 0-1.228.614.614 0 0 1 0 1.228zm3.822.71a.614.614 0 1 1 0 1.228.614.614 0 0 1 0-1.228zM712.943 283.519a5.32 5.32 0 1 0 5.319 5.32 5.326 5.326 0 0 0-5.319-5.32zm0 9.933a4.613 4.613 0 1 1-.001-9.227 4.613 4.613 0 0 1 .001 9.227z" fill="#246EDE"/><path d="M715.126 288.539l-2.893-1.79a.354.354 0 0 0-.538.301v3.578a.353.353 0 0 0 .538.3l2.893-1.789a.351.351 0 0 0 0-.601v.001zm-2.725 1.456v-2.311l1.868 1.155-1.868 1.156zM694.622 275.838a5.32 5.32 0 1 0 .001-10.639 5.32 5.32 0 0 0-.001 10.639zm0-9.933a4.613 4.613 0 1 1-4.613 4.614 4.62 4.62 0 0 1 4.613-4.614z" fill="#246EDE"/><path d="M692.452 272.631h2.527a.943.943 0 0 0 .942-.942v-.056l1.291.708a.35.35 0 0 0 .349-.006.352.352 0 0 0 .174-.304v-3.025a.353.353 0 0 0-.523-.31l-1.291.709v-.057a.942.942 0 0 0-.942-.941h-2.527a.943.943 0 0 0-.942.941v2.341c.001.52.422.941.942.942zm4.576-3.028v1.832l-1.107-.608v-.617l1.107-.607zm-4.812-.255c0-.13.106-.235.236-.235h2.527c.13 0 .236.105.236.235v2.341c0 .13-.106.235-.236.235h-2.527a.236.236 0 0 1-.236-.235v-2.341z" fill="#246EDE"/><rect opacity=".3" x="732.018" y="257.235" width="55.747" height="6.516" rx="3.258" fill="#246EDE"/><rect x="732.018" y="268.819" width="24.615" height="4.344" rx="2.172" fill="#F1F1F1"/><rect x="732.018" y="291.263" width="24.615" height="4.344" rx="2.172" fill="#F1F1F1"/><rect x="732.018" y="298.502" width="32.579" height="4.344" rx="2.172" fill="#F1F1F1"/><rect x="760.253" y="268.819" width="27.511" height="4.344" rx="2.172" fill="#F1F1F1"/><rect x="760.253" y="291.263" width="27.511" height="4.344" rx="2.172" fill="#F1F1F1"/><rect x="769.665" y="298.502" width="18.099" height="4.344" rx="2.172" fill="#F1F1F1"/><rect x="732.018" y="276.059" width="14.48" height="4.344" rx="2.172" fill="#F1F1F1"/><rect x="750.118" y="276.059" width="19.547" height="4.344" rx="2.172" fill="#F1F1F1"/><rect x="773.285" y="276.059" width="14.48" height="4.344" rx="2.172" fill="#F1F1F1"/><rect x="732.018" y="283.299" width="19.547" height="4.344" rx="2.172" fill="#F1F1F1"/><rect x="755.186" y="283.299" width="9.412" height="4.344" rx="2.172" fill="#F1F1F1"/><rect x="768.217" y="283.299" width="19.547" height="4.344" rx="2.172" fill="#F1F1F1"/><path opacity=".1" d="M82 315a4 4 0 0 0-4-4H68a4 4 0 0 0 0 8h10a4 4 0 0 0 4-4zM460 142a4 4 0 0 0-4-4h-10a4 4 0 0 0 0 8h10a4 4 0 0 0 4-4zM188 315a4 4 0 0 0-4-4h-10a4 4 0 0 0 0 8h10a4 4 0 0 0 4-4zM566 142a4 4 0 0 0-4-4h-10a4 4 0 0 0 0 8h10a4 4 0 0 0 4-4zM121 315a4 4 0 0 0-4-4H93a4 4 0 0 0 0 8h24a4 4 0 0 0 4-4zM499 142a4 4 0 0 0-4-4h-24a4 4 0 0 0 0 8h24a4 4 0 0 0 4-4zM161 315a4 4 0 0 0-4-4h-24a4 4 0 0 0 0 8h24a4 4 0 0 0 4-4zM539 142a4 4 0 0 0-4-4h-24a4 4 0 0 0 0 8h24a4 4 0 0 0 4-4zM96 330a4 4 0 0 0-4-4H68a4 4 0 0 0 0 8h24a4 4 0 0 0 4-4zM474 157a4 4 0 0 0-4-4h-24a4 4 0 0 0 0 8h24a4 4 0 0 0 4-4zM144 330a4 4 0 0 0-4-4h-33a4 4 0 0 0 0 8h33a4 4 0 0 0 4-4zM522 157a4 4 0 0 0-4-4h-33a4 4 0 0 0 0 8h33a4 4 0 0 0 4-4zM187 330a4 4 0 0 0-4-4h-27a4 4 0 0 0 0 8h27a4 4 0 0 0 4-4zM565 157a4 4 0 0 0-4-4h-27a4 4 0 0 0 0 8h27a4 4 0 0 0 4-4zM125 65.5a7.5 7.5 0 0 0-7.5-7.5h-39a7.5 7.5 0 0 0 0 15h39a7.5 7.5 0 0 0 7.5-7.5zM300 65.5a7.5 7.5 0 0 0-7.5-7.5h-28a7.5 7.5 0 0 0 0 15h28a7.5 7.5 0 0 0 7.5-7.5zM533 65.5a7.5 7.5 0 0 0-7.5-7.5h-73a7.5 7.5 0 0 0 0 15h73a7.5 7.5 0 0 0 7.5-7.5zM691 65.5a7.5 7.5 0 0 0-7.5-7.5h-39a7.5 7.5 0 0 0 0 15h39a7.5 7.5 0 0 0 7.5-7.5zM166 65.5a7.5 7.5 0 0 0-7.5-7.5h-15a7.5 7.5 0 0 0 0 15h15a7.5 7.5 0 0 0 7.5-7.5zM368 65.5a7.5 7.5 0 0 0-7.5-7.5h-41a7.5 7.5 0 0 0 0 15h41a7.5 7.5 0 0 0 7.5-7.5zM732 65.5a7.5 7.5 0 0 0-7.5-7.5h-15a7.5 7.5 0 0 0 0 15h15a7.5 7.5 0 0 0 7.5-7.5z" fill="#246EDE"/></g><defs><clipPath id="clip0"><path fill="#fff" d="M59.587 213.832h19.406v19.406H59.587z"/></clipPath><clipPath id="clip1"><path fill="#fff" d="M522.277 157.885h16.939v16.939h-16.939z"/></clipPath></defs></svg>