<svg width="56" height="37" fill="none" xmlns="http://www.w3.org/2000/svg"><path d="M20.15 36.7c-3.7 0-7.033-.784-10-2.35-2.933-1.567-5.25-3.734-6.95-6.5C1.534 25.083.7 21.966.7 18.5c0-3.467.834-6.584 2.5-9.35 1.7-2.767 4.017-4.934 6.95-6.5 2.967-1.567 6.3-2.35 10-2.35s7.017.783 9.95 2.35c2.967 1.566 5.283 3.733 6.95 6.5 1.7 2.766 2.55 5.883 2.55 9.35 0 3.466-.85 6.583-2.55 9.35-1.666 2.766-3.983 4.933-6.95 6.5-2.933 1.566-6.25 2.35-9.95 2.35zm0-8.2c1.767 0 3.367-.417 4.8-1.25 1.434-.834 2.567-2 3.4-3.5.833-1.534 1.25-3.284 1.25-5.25 0-1.967-.417-3.7-1.25-5.2-.833-1.534-1.966-2.717-3.4-3.55-1.433-.834-3.033-1.25-4.8-1.25-1.766 0-3.366.416-4.8 1.25-1.433.833-2.566 2.017-3.4 3.55-.833 1.5-1.25 3.233-1.25 5.2 0 1.966.417 3.716 1.25 5.25.834 1.5 1.967 2.666 3.4 3.5 1.434.833 3.034 1.25 4.8 1.25zM55.66 32.075V36H42.035v-3.1l6.55-6.125c.634-.6 1.059-1.108 1.275-1.525.217-.433.325-.867.325-1.3 0-.567-.191-1.008-.575-1.325-.383-.317-.941-.475-1.675-.475-.65 0-1.25.15-1.8.45-.533.283-.975.7-1.325 1.25l-3.675-2.05c.684-1.134 1.642-2.025 2.875-2.675 1.234-.65 2.692-.975 4.375-.975 1.334 0 2.509.216 3.525.65 1.034.433 1.834 1.058 2.4 1.875.584.8.875 1.733.875 2.8 0 .95-.208 1.85-.625 2.7-.4.833-1.183 1.783-2.35 2.85l-3.3 3.05h6.75z" fill="#151515"/></svg>