<svg width="24" height="24" viewBox="0 0 24 24" fill="none" xmlns="http://www.w3.org/2000/svg">
<path d="M23.0625 16.5C23.5803 16.5 24 16.0803 24 15.5625V3.75C24 1.68219 22.3178 0 20.25 0H3.75C1.68219 0 0 1.68219 0 3.75V20.25C0 22.3178 1.68219 24 3.75 24H20.25C22.3178 24 24 22.3178 24 20.25C24 19.7322 23.5803 19.3125 23.0625 19.3125C22.5447 19.3125 22.125 19.7322 22.125 20.25C22.125 21.2838 21.2838 22.125 20.25 22.125H15.6562V15.2812H17.826C18.3005 15.2812 18.7002 14.9268 18.757 14.4558L18.8811 13.4246C18.9481 12.8665 18.5125 12.375 17.9502 12.375H15.6562V9.23438C15.6562 8.45764 16.2858 7.82812 17.0625 7.82812H18.2344C18.7522 7.82812 19.1719 7.40845 19.1719 6.89062V5.94232C19.1719 5.46204 18.8091 5.05847 18.3312 5.00977C17.8559 4.96143 17.3529 4.92188 17.0625 4.92188C15.9692 4.92188 14.8733 5.38312 14.0559 6.18713C13.2138 7.0155 12.75 8.10059 12.75 9.24261V12.375H10.6406C10.1228 12.375 9.70312 12.7947 9.70312 13.3125V14.3438C9.70312 14.8616 10.1228 15.2812 10.6406 15.2812H12.75V22.125H3.75C2.71619 22.125 1.875 21.2838 1.875 20.25V3.75C1.875 2.71619 2.71619 1.875 3.75 1.875H20.25C21.2838 1.875 22.125 2.71619 22.125 3.75V15.5625C22.125 16.0803 22.5447 16.5 23.0625 16.5Z" fill="#395185"/>
</svg>
