<svg xmlns="http://www.w3.org/2000/svg" width="200.881" height="201.186"><path d="M157.276 352.796c-17.57-3.639-33.966-11.755-46.837-23.186-33.043-29.347-43.256-75.45-25.8-116.47 4.287-10.075 11.256-20.298 19.891-29.18l7.613-7.83.537 45.83c.514 43.868.63 46.078 2.705 51.606 4.151 11.06 8.602 18.1 16.263 25.73 19.791 19.71 48.821 24.63 73.5 12.455 23.195-11.444 37.818-36.326 36.119-61.46-1.142-16.883-6.82-29.263-19.077-41.597-9.27-9.327-20.174-15.42-32.047-17.904-12.08-2.527-11.5-2.897-11.5 7.328v8.827l6.622 1.22c25.647 4.726 42.61 29.91 37.263 55.327-1.707 8.117-5.515 15.285-11.629 21.888-9.29 10.035-22.36 14.832-33.774 14.81-18.871-.037-34.63-10.76-42.267-26.619 0 0-2-4.533-2.644-7.334-3.78-16.472-1.364-51.148-1.364-51.148l-.293-50.703 2.993-1.547c1.647-.852 3.225-1.548 3.509-1.548.283 0 .643 23.287.8 51.75 0 0-3.635 37.31.857 51.608.648 2.063 1.878 5.591 1.878 5.591 3.937 8.022 10.248 15.079 18.448 18.963 6.224 2.948 9.358 4.282 18.566 4.282 6.017 0 11.347-1.899 17.48-4.72 7.23-3.325 15.523-12.14 18.588-20.19 8.444-22.176-3.314-46.036-25.965-52.689-9.257-2.719-9.068-2.869-9.068 7.197v8.793l4.444 1.188c16.017 4.284 20.904 25.753 8.33 36.785-4.442 3.897-8.445 5.62-15.448 5.62-7.483 0-14.665-4.529-18.358-11.475-2.218-4.173-2.405-8.131-2.405-9.944 0-16.745-.363-46.86-.363-46.86l-.3-51.658 2.3-.57c1.265-.315 6.377-1.092 11.36-1.728 16.9-2.157 41.902 3.374 58.699 12.984 22.9 13.103 40.228 35.61 47.442 61.627 2.482 8.948 2.758 11.55 2.758 25.946 0 14.33-.283 17.019-2.712 25.772-9.812 35.359-34.773 60.635-70.463 71.355-7.511 2.256-11.03 2.686-24.284 2.97-10.696.227-17.629-.111-22.367-1.092z" transform="translate(-76.221 -152.77)"/></svg>