<svg xmlns="http://www.w3.org/2000/svg">

	<symbol id="i-service1" viewBox="0 0 674 584">
		<path d="M336 0c2.059 2.059 2.564 3.134 3.518 5.812l.867 2.406.931 2.641.994 2.772c.713 1.99 1.424 3.98 2.133 5.972 1.916 5.384 3.85 10.761 5.784 16.14l1.205 3.358c3.935 10.95 7.96 21.865 12.005 32.774l4.25 11.473 1.07 2.888c4.081 11.018 8.132 22.047 12.18 33.076l1.13 3.079c1.89 5.145 3.778 10.29 5.667 15.436 3.379 9.205 6.76 18.41 10.142 27.614l5.624 15.309a7318067.358 7318067.358 0 0 0 15.735 42.833l10.32 28.092 2.375 6.467c1.927 5.25 3.858 10.498 5.799 15.742 3.236 8.758 6.444 17.516 9.423 26.366 4.359 12.85 8.371 23.789 18.366 33.292 2.587 2.545 4.856 5.354 7.17 8.146l2.73 3.23c3.13 3.724 6.199 7.497 9.27 11.27a749.603 749.603 0 0 0 7.812 9.312c4.121 4.85 8.17 9.752 12.188 14.688a749.603 749.603 0 0 0 7.812 9.312c4.121 4.85 8.17 9.752 12.188 14.688a749.603 749.603 0 0 0 7.812 9.312c4.121 4.85 8.17 9.752 12.188 14.688 3.036 3.693 6.132 7.335 9.228 10.978a618.182 618.182 0 0 1 8.521 10.272c3.456 4.246 6.99 8.415 10.563 12.562a680.409 680.409 0 0 1 12.723 15.223 684.885 684.885 0 0 0 7.777 9.277c4.121 4.85 8.17 9.752 12.188 14.688a749.603 749.603 0 0 0 7.812 9.312c4.121 4.85 8.17 9.752 12.188 14.688a749.603 749.603 0 0 0 7.812 9.312c4.121 4.85 8.17 9.752 12.188 14.688a752.575 752.575 0 0 0 7.812 9.312c6.03 7.103 12.053 14.208 17.635 21.67A386850542.824 386850542.824 0 0 1 674 584a10608.225 10608.225 0 0 1-78.293-13.27 1257612376.795 1257612376.795 0 0 0-19.084-3.296c-13.471-2.326-26.946-4.63-40.423-6.922a26584.41 26584.41 0 0 1-26.567-4.535l-2.958-.506c-24.507-4.195-48.957-8.586-73.338-13.461a2164.137 2164.137 0 0 0-15.114-2.96l-2.108-.405c-2.756-.53-5.513-1.06-8.27-1.586-7.065-1.35-14.117-2.739-21.144-4.274-37.743-8.219-69.234-5.376-106.45 2.325-11.289 2.333-22.601 4.423-33.964 6.358l-2.511.428c-3.376.575-6.752 1.148-10.128 1.72a5227.66 5227.66 0 0 0-25.712 4.437l-13.09 2.28-5.299.922c-9.13 1.589-18.262 3.176-27.393 4.763l-11.025 1.917-2.744.477-18.973 3.3c-28.906 5.027-57.815 10.046-86.724 15.059l-15.326 2.657C18.575 580.953 9.787 582.476 1 584c0-3.43.341-3.753 2.527-6.188l1.638-1.85L6.937 574c1.206-1.36 2.41-2.723 3.614-4.086l1.795-2.026c2.153-2.457 4.223-4.974 6.279-7.513A650.697 650.697 0 0 1 28.5 548.5a736.86 736.86 0 0 0 10-12c3.748-4.605 7.57-9.14 11.414-13.664A660.462 660.462 0 0 0 58.5 512.5c3.748-4.605 7.57-9.14 11.414-13.664A660.462 660.462 0 0 0 78.5 488.5c3.748-4.605 7.57-9.14 11.414-13.664A660.462 660.462 0 0 0 98.5 464.5c3.748-4.605 7.57-9.14 11.414-13.664A660.462 660.462 0 0 0 118.5 440.5c3.749-4.605 7.57-9.142 11.416-13.666a618.182 618.182 0 0 0 8.522-10.272c3.956-4.862 8.026-9.619 12.118-14.368 3.796-4.414 7.497-8.897 11.167-13.417a684.885 684.885 0 0 1 7.777-9.277 737.305 737.305 0 0 0 10-12c3.748-4.605 7.57-9.14 11.414-13.664 3.64-4.291 7.208-8.638 10.754-13.008a347.58 347.58 0 0 1 5.195-6.156l1.485-1.725a463.882 463.882 0 0 1 2.847-3.27c5.652-6.56 8.731-13.652 11.614-21.732l1.087-2.995a2672.87 2672.87 0 0 0 2.324-6.44c1.672-4.649 3.358-9.294 5.043-13.938.89-2.452 1.778-4.904 2.666-7.356 4.392-12.126 8.847-24.228 13.313-36.326 2.21-5.988 4.418-11.976 6.625-17.964l1.31-3.551c4.346-11.789 8.68-23.581 13.01-35.375l1.113-3.028L277 160c2.937-8 5.874-16 8.813-24l1.11-3.026c6.621-18.026 13.259-36.046 19.9-54.064 4.82-13.077 9.637-26.155 14.439-39.238l1.27-3.461a41335.223 41335.223 0 0 0 8.073-22.008l.96-2.62C332.991 7.698 334.433 3.828 336 0z"/>
	</symbol>

   <symbol id="i-service2" viewBox="0 0 776 776">
		<path d="M387 0h2l1.822 5.543 1.225 3.724a6841851.396 6841851.396 0 0 1 14.121 42.952l.863 2.625a426479.212 426479.212 0 0 1 17.781 54.093l.736 2.238c6.66 20.26 13.325 40.516 19.997 60.77a111483.969 111483.969 0 0 1 12.787 38.84c3.186 9.681 6.375 19.362 9.571 29.04 1.93 5.843 3.857 11.688 5.781 17.533 1.315 3.992 2.633 7.983 3.954 11.973.982 2.97 1.959 5.943 2.936 8.915l1.066 3.207.953 2.908.83 2.514C484 289 484 289 484 292l3.484.671c7.412 1.654 14.569 4.193 21.766 6.587l4.872 1.608c3.474 1.148 6.948 2.297 10.42 3.45 5.538 1.836 11.077 3.667 16.616 5.497 5.71 1.886 11.421 3.773 17.13 5.662 11.828 3.913 23.658 7.816 35.493 11.705l2.242.736 11.079 3.64a82765.618 82765.618 0 0 1 24.517 8.057 58760.879 58760.879 0 0 1 42.95 14.14l2.7.889 13.418 4.42 2.643.871c27.54 9.073 55.09 18.113 82.67 27.067v2l-2.28.75a47510582.614 47510582.614 0 0 0-49.939 16.418l-2.625.863a426479.212 426479.212 0 0 1-54.093 17.781l-2.238.736c-20.26 6.66-40.516 13.325-60.77 19.997a111483.969 111483.969 0 0 1-38.84 12.787c-9.681 3.186-19.362 6.375-29.04 9.571-5.843 1.93-11.688 3.857-17.533 5.781a7712.884 7712.884 0 0 0-11.973 3.954c-2.97.982-5.943 1.959-8.915 2.936l-3.207 1.066-2.908.953-2.514.83C487 484 487 484 484 484l-.671 3.484c-1.654 7.412-4.193 14.569-6.587 21.766l-1.608 4.872a7878.208 7878.208 0 0 1-3.45 10.42c-1.836 5.538-3.667 11.077-5.497 16.616a41545.29 41545.29 0 0 1-5.662 17.13 18357.402 18357.402 0 0 0-11.705 35.493l-.736 2.242-3.64 11.079c-2.437 7.42-4.876 14.841-7.315 22.261l-.742 2.256a58760.879 58760.879 0 0 1-14.14 42.95l-.889 2.7-4.42 13.418-.871 2.643C406.994 720.87 397.954 748.42 389 776h-2a201113.996 201113.996 0 0 1-40.456-122.929 84413.6 84413.6 0 0 0-19.21-58.38c-4.558-13.837-9.114-27.676-13.668-41.515-2.726-8.285-5.455-16.57-8.187-24.854-1.855-5.625-3.706-11.251-5.554-16.878-.734-2.231-1.47-4.461-2.206-6.691-.987-2.988-1.97-5.978-2.95-8.968l-.866-2.61C292 487.343 292 487.343 292 484l-1.655-.338c-5.549-1.177-10.88-2.694-16.255-4.493l-2.564-.846c-2.793-.923-5.583-1.851-8.374-2.78l-5.956-1.97c-4.222-1.397-8.444-2.796-12.664-4.197a19458.116 19458.116 0 0 0-26.67-8.832l-3.34-1.105-10.003-3.311a16054.517 16054.517 0 0 0-51.082-16.815c-4.962-1.626-9.924-3.252-14.886-4.88l-1.905-.624c-12.31-4.037-24.613-8.092-36.916-12.149l-2.947-.972c-8.76-2.888-17.52-5.777-26.28-8.669C47.028 404.27 23.534 396.576 0 389v-2c40.973-13.495 81.947-26.987 122.929-40.456a84413.6 84413.6 0 0 0 58.38-19.21c13.837-4.558 27.676-9.114 41.515-13.668 8.285-2.726 16.57-5.455 24.854-8.187 5.625-1.855 11.251-3.706 16.878-5.554 2.231-.734 4.461-1.47 6.691-2.206 2.988-.987 5.978-1.97 8.968-2.95l2.61-.866C288.657 292 288.657 292 292 292l.338-1.655c1.177-5.549 2.694-10.88 4.493-16.255l.846-2.564c.923-2.793 1.851-5.583 2.78-8.374l1.97-5.956c1.397-4.222 2.796-8.444 4.197-12.664a19458.116 19458.116 0 0 0 8.832-26.67l1.105-3.34 3.311-10.003a16054.517 16054.517 0 0 0 16.815-51.082c1.626-4.962 3.252-9.924 4.88-14.886l.624-1.905c4.037-12.31 8.092-24.613 12.149-36.916l.972-2.947c2.888-8.76 5.777-17.52 8.669-26.28C371.73 47.028 379.424 23.534 387 0z"/>
	</symbol>

   <symbol id="i-service3" viewBox="0 0 738 703">
		<path d="M368 0h2l.46 1.604a2335629.846 2335629.846 0 0 0 59.58 207.667c3.222 11.233 6.46 22.46 9.727 33.68l2.735 9.41c.862 2.962 1.729 5.921 2.595 8.88l1.556 5.352.725 2.462c.89 3.074 1.622 5.727 1.622 8.945l1.719-.484c2.315-.524 4.412-.698 6.782-.78l2.735-.1 2.992-.098 3.189-.114c3.538-.125 7.077-.244 10.615-.364l7.6-.266c6.178-.217 12.356-.429 18.535-.64 5.032-.17 10.065-.344 15.097-.519l2.173-.075 4.37-.151c13.676-.474 27.351-.943 41.027-1.41 11.688-.399 23.376-.802 35.064-1.209a79398.723 79398.723 0 0 1 45.161-1.56l2.173-.074c5.005-.172 10.011-.345 15.017-.52 6.78-.236 13.559-.468 20.339-.697 2.47-.084 4.94-.17 7.41-.256 15.674-.55 31.318-.796 47.002-.683-2.448 2.485-4.759 4.668-7.68 6.578l-2.133 1.407-2.285 1.488a9511.4 9511.4 0 0 0-4.895 3.227l-2.526 1.662c-3.844 2.538-7.661 5.116-11.477 7.697l-2.288 1.545-4.706 3.18-10.334 6.98-5.448 3.68a47474.04 47474.04 0 0 1-34.938 23.57l-19.009 12.82a134218.338 134218.338 0 0 0-65.368 44.1 39048.824 39048.824 0 0 1-23.168 15.632 71639.434 71639.434 0 0 0-16.187 10.913c-12.85 8.657-12.85 8.657-25.558 17.521.65 3.667 1.632 7.036 2.892 10.538l1.192 3.331 1.307 3.615 1.368 3.811c1.235 3.435 2.473 6.869 3.714 10.302l2.34 6.493a7607.09 7607.09 0 0 0 22.973 62.886c7.018 18.969 13.896 37.983 20.714 57.024a7360.014 7360.014 0 0 0 26.733 73.386 9413.8 9413.8 0 0 1 3.505 9.498c1.54 4.175 3.099 8.342 4.669 12.506l2.253 6.04 1.07 2.802.954 2.572.847 2.247C597 699 597 699 596 702a3955.17 3955.17 0 0 1-39.68-30.823c-7.747-6.093-15.537-12.13-23.32-18.177-8.907-6.919-17.811-13.84-26.673-20.817A2966.008 2966.008 0 0 0 492 621a3430.817 3430.817 0 0 1-17.672-13.816A2972.516 2972.516 0 0 0 460 596a3430.817 3430.817 0 0 1-17.672-13.816A2972.516 2972.516 0 0 0 428 571a3430.817 3430.817 0 0 1-17.672-13.816 2908.943 2908.943 0 0 0-16.628-12.966 826.004 826.004 0 0 1-10.782-8.484l-1.916-1.53c-1.17-.938-2.338-1.88-3.5-2.829-4.326-3.632-4.326-3.632-9.502-5.375-2.936 1.483-5.354 3.531-7.875 5.625-.75.598-1.5 1.196-2.271 1.813A803.166 803.166 0 0 0 351 539c-1.892 1.52-3.789 3.036-5.686 4.55-1.218.973-2.434 1.95-3.647 2.927-4.664 3.753-9.401 7.401-14.167 11.023a819.663 819.663 0 0 0-18.115 14.19 710.017 710.017 0 0 1-13.553 10.6 1041.198 1041.198 0 0 0-11.52 8.96A3005.411 3005.411 0 0 1 268 604a3101.788 3101.788 0 0 0-16 12.5 3556.283 3556.283 0 0 1-18.328 14.309c-4.568 3.55-9.126 7.112-13.672 10.691a3556.283 3556.283 0 0 1-18.328 14.309c-4.568 3.55-9.126 7.112-13.672 10.691a3410.416 3410.416 0 0 1-18.304 14.289c-3.578 2.78-7.151 5.564-10.708 8.371l-1.888 1.49c-1.142.903-2.283 1.806-3.422 2.711-3.808 3.01-7.713 5.841-11.678 8.639-1.168-3.505-.813-4.203.45-7.557l1.051-2.84 1.186-3.115 1.227-3.29c1.119-3 2.245-5.997 3.374-8.993 1.95-5.182 3.873-10.373 5.802-15.563l1.518-4.082c5.512-14.808 10.855-29.673 16.174-44.55a6307.323 6307.323 0 0 1 23.998-65.967c8.014-21.658 15.85-43.377 23.62-65.123l2.758-7.706a7016.38 7016.38 0 0 0 1.984-5.557 776.25 776.25 0 0 1 6.563-17.715l1.292-3.36a678.813 678.813 0 0 1 2.438-6.222l1.072-2.772.95-2.406c.621-2.496.475-3.801-.457-6.182-1.898-1.721-1.898-1.721-4.363-3.223l-2.83-1.849-3.12-1.99a4447.606 4447.606 0 0 1-4.957-3.237c-1.157-.756-2.315-1.511-3.474-2.265-5.575-3.627-11.08-7.354-16.574-11.102-2.932-1.999-5.868-3.992-8.803-5.986l-1.88-1.277c-8.342-5.666-16.702-11.305-25.061-16.946l-2.549-1.72a115618.73 115618.73 0 0 0-23.688-15.98L102 338a319641.418 319641.418 0 0 1-48.467-32.687 69431.795 69431.795 0 0 1-18.467-12.454c-4.569-3.08-9.135-6.164-13.697-9.255a5513.7 5513.7 0 0 0-5.015-3.392 4454.066 4454.066 0 0 1-8.01-5.43l-2.53-1.708-2.308-1.572-2.055-1.393L0 269v-1c16.552-.126 33.057.231 49.598.81l7.735.261c6.21.21 12.42.424 18.63.64l15.135.52 2.19.075 4.408.15c13.697.468 27.393.94 41.09 1.415 11.745.407 23.491.81 35.237 1.208a77901.973 77901.973 0 0 1 45.421 1.556l2.173.075c5.047.174 10.094.346 15.142.518 6.777.23 13.555.464 20.332.701 2.49.087 4.98.172 7.47.255 3.388.114 6.777.234 10.166.354l3.007.097 2.746.101 2.37.082c2.144.182 4.081.6 6.15 1.182l.294-1.681c1.438-7.721 3.588-15.192 5.8-22.721l1.255-4.312a7200.78 7200.78 0 0 1 2.714-9.306c2.246-7.683 4.478-15.37 6.71-23.057l1.58-5.44c5.866-20.189 11.645-40.401 17.41-60.618 2.431-8.523 4.863-17.046 7.296-25.568l.83-2.91c7.383-25.867 14.81-51.72 22.236-77.575l.988-3.439C360.074 27.582 364.037 13.791 368 0z"/>
	</symbol>

   <symbol id="i-service4" viewBox="0 0 674 776">
		<path d="M336 0h2l.637 2.55c5.212 20.872 10.426 41.743 15.641 62.614l7.565 30.284c10.936 43.794 21.899 87.58 33.021 131.327 1.432 5.632 2.862 11.264 4.29 16.896.811 3.193 1.627 6.385 2.442 9.577l1.396 5.5.631 2.457c.76 3.01 1.377 5.676 1.377 8.795l3.434-1.104c11.98-3.831 24.022-7.386 36.122-10.819l5.941-1.693c5.325-1.517 10.651-3.03 15.977-4.544 5.633-1.6 11.264-3.205 16.895-4.81 10.681-3.04 21.363-6.08 32.045-9.118 19.032-5.413 38.063-10.83 57.094-16.248 6.644-1.892 13.29-3.782 19.935-5.672l12.51-3.56 8.964-2.547a2703.577 2703.577 0 0 0 28.392-8.221l5.36-1.58c3.314-.976 6.623-1.965 9.93-2.962 1.465-.433 2.931-.866 4.397-1.297l3.828-1.147c2.961-.632 4.406-.767 7.176.322a3823.899 3823.899 0 0 1-7.5 7.563l-2.11 2.134c-3.288 3.304-6.591 6.525-10.14 9.55-5.9 5.08-11.282 10.717-16.75 16.253-12.102 12.252-12.102 12.252-16.469 15.969C614.006 251.603 608.56 257.374 603 263c-12.662 12.813-12.662 12.813-18.895 18.117-5.09 4.552-9.808 9.526-14.605 14.383-12.102 12.252-12.102 12.252-16.469 15.969C547.006 316.603 541.56 322.374 536 328c-12.662 12.813-12.662 12.813-18.895 18.117-5.09 4.552-9.808 9.526-14.605 14.383-12.617 12.773-12.617 12.773-18.904 18.131-1.96 1.68-3.79 3.463-5.596 5.307l-1.75 1.777L475 387c1.594 3.912 4.139 6.372 7.125 9.313l2.758 2.738c2.169 2.092 4.41 4.068 6.703 6.023 6.531 5.668 12.496 11.953 18.569 18.101 7.204 7.361 7.204 7.361 14.814 14.294 6.644 5.662 12.627 12.075 18.759 18.279 5.58 5.641 11.12 11.223 17.167 16.37 5.672 5.072 10.914 10.645 16.26 16.057 7.204 7.361 7.204 7.361 14.814 14.294 6.644 5.662 12.627 12.075 18.759 18.279 5.58 5.641 11.12 11.223 17.167 16.37 5.672 5.072 10.914 10.645 16.26 16.057 5.57 5.633 11.121 11.22 17.156 16.363 2.523 2.184 4.846 4.524 7.189 6.9l2.594 2.62L673 581c-4.14 1.722-7.845.19-11.925-1.012l-2.44-.693c-2.706-.772-5.408-1.558-8.11-2.344l-5.818-1.665a6091.47 6091.47 0 0 1-15.866-4.572c-5.585-1.613-11.173-3.215-16.761-4.818a25885.546 25885.546 0 0 1-31.95-9.197c-11.89-3.429-23.783-6.848-35.677-10.265a73573.053 73573.053 0 0 1-44.558-12.816c-27.973-8.058-27.973-8.058-55.96-16.064l-2.108-.601c-6.716-1.915-13.433-3.827-20.151-5.733l-5.966-1.697-2.657-.75c-5.827-1.66-5.827-1.66-8.053-2.773l-.33 1.966c-1.266 7.28-2.92 14.41-4.742 21.569l-.925 3.673c-.664 2.636-1.33 5.271-1.998 7.906a9918.46 9918.46 0 0 0-3.233 12.793c-1.55 6.144-3.103 12.288-4.657 18.431-2.436 9.631-4.868 19.264-7.298 28.897l-.614 2.436a380978.07 380978.07 0 0 0-5.582 22.129 40973.965 40973.965 0 0 0-24.42 97.328l-2.86 11.452c-3.449 13.806-6.896 27.613-10.341 41.42h-2l-.789-3.157c-6.404-25.64-12.81-51.279-19.217-76.917l-9.294-37.2a231789.627 231789.627 0 0 0-12.49-49.985c-7.967-31.888-7.967-31.888-16.045-63.748l-.531-2.08a7078.287 7078.287 0 0 0-5.05-19.668l-.77-2.995c-.457-1.773-.916-3.546-1.378-5.317C269.65 511.876 269 509.17 269 506l-3.434 1.104c-11.98 3.831-24.022 7.386-36.122 10.819l-5.941 1.693c-5.325 1.517-10.651 3.03-15.977 4.544-5.633 1.6-11.264 3.205-16.895 4.81-10.681 3.04-21.363 6.08-32.045 9.118-19.032 5.413-38.063 10.83-57.094 16.248-6.644 1.892-13.29 3.782-19.935 5.672l-12.51 3.56-8.964 2.547a2703.577 2703.577 0 0 0-28.392 8.221l-5.36 1.58c-3.314.976-6.623 1.965-9.93 2.962-1.465.433-2.931.866-4.397 1.297l-3.828 1.147c-2.961.632-4.406.767-7.176-.322 2.496-2.525 4.997-5.044 7.5-7.563l2.11-2.134c3.288-3.304 6.591-6.525 10.14-9.55 5.9-5.08 11.282-10.717 16.75-16.253 12.102-12.252 12.102-12.252 16.469-15.969C59.994 524.397 65.44 518.626 71 513c12.662-12.813 12.662-12.813 18.895-18.117 5.09-4.552 9.808-9.526 14.605-14.383 12.102-12.252 12.102-12.252 16.469-15.969C126.994 459.397 132.44 453.626 138 448c12.662-12.813 12.662-12.813 18.895-18.117 5.09-4.552 9.808-9.526 14.605-14.383 12.617-12.773 12.617-12.773 18.904-18.131 1.96-1.68 3.79-3.463 5.596-5.307l1.75-1.777L199 389c-1.594-3.912-4.139-6.372-7.125-9.313l-2.758-2.738c-2.169-2.092-4.41-4.068-6.703-6.023-6.531-5.668-12.496-11.953-18.569-18.101-7.204-7.361-7.204-7.361-14.814-14.294-6.644-5.662-12.627-12.075-18.759-18.279-5.58-5.641-11.12-11.223-17.167-16.37-5.672-5.072-10.914-10.645-16.26-16.057-7.204-7.361-7.204-7.361-14.814-14.294-6.644-5.662-12.627-12.075-18.759-18.279-5.58-5.641-11.12-11.223-17.167-16.37-5.672-5.072-10.914-10.645-16.26-16.057-5.57-5.633-11.121-11.22-17.156-16.363-2.523-2.184-4.846-4.524-7.189-6.9l-2.594-2.62L1 195c4.14-1.722 7.845-.19 11.925 1.012l2.44.693c2.706.772 5.408 1.558 8.11 2.344l5.818 1.665a6091.47 6091.47 0 0 1 15.866 4.572c5.585 1.613 11.173 3.215 16.761 4.818 10.653 3.058 21.302 6.125 31.95 9.197 11.89 3.429 23.783 6.848 35.677 10.265 14.854 4.269 29.707 8.539 44.558 12.816 27.973 8.058 27.973 8.058 55.96 16.064l2.108.601c6.716 1.915 13.433 3.827 20.151 5.733l5.966 1.697 2.657.75c5.827 1.66 5.827 1.66 8.053 2.773l.3-1.841c1.459-8.518 3.526-16.863 5.637-25.237l1.187-4.742c1.065-4.254 2.134-8.508 3.205-12.761.908-3.61 1.813-7.22 2.718-10.83 6.142-24.498 12.339-48.982 18.563-73.46 7.755-30.5 15.387-61.033 23.015-91.566l.936-3.746C328.376 30.545 332.189 15.273 336 0z"/>
	</symbol>

   <symbol id="i-service5" viewBox="0 0 774 774">
		<path d="M386 0h2l.528 3.86a777354.602 777354.602 0 0 0 13.943 101.822l.308 2.244 4.925 35.976c1.684 12.303 3.369 24.605 5.055 36.907 1.04 7.593 2.08 15.186 3.118 22.78.796 5.819 1.594 11.638 2.392 17.458.328 2.39.655 4.778.981 7.168.445 3.256.892 6.513 1.339 9.769l.392 2.88c.561 4.074 1.136 8.116 2.019 12.136 6.099-7.124 11.878-14.411 17.47-21.938 4.118-5.536 8.35-10.97 12.628-16.382a1917.4 1917.4 0 0 0 9.714-12.43l1.776-2.285 3.596-4.629 5.468-7.027c5.132-6.591 10.26-13.184 15.348-19.809 6.9-8.985 13.872-17.914 20.832-26.853 8.609-11.054 8.609-11.054 17.168-22.147 6.9-8.985 13.872-17.914 20.832-26.853A5186.478 5186.478 0 0 0 570 64a26125.209 26125.209 0 0 1 8.164-10.613L580 51c1 2 1 2 .054 4.846a327.795 327.795 0 0 1-1.534 3.72l-.847 2.073c-.946 2.31-1.904 4.617-2.86 6.923l-2.037 4.964c-1.472 3.592-2.949 7.181-4.428 10.77a4944.71 4944.71 0 0 0-7.098 17.34l-1.216 2.985-2.469 6.057c-2.125 5.21-4.253 10.42-6.381 15.63-3.427 8.388-6.851 16.776-10.274 25.165a59079.848 59079.848 0 0 1-26.09 63.854c-4.092 9.995-8.175 19.995-12.25 29.997l-2.75 6.748c-1.335 3.276-2.669 6.551-4.002 9.828-1.227 3.017-2.456 6.033-3.685 9.05l-1.09 2.683A482.379 482.379 0 0 1 484 290l1.981-.844a3163.228 3163.228 0 0 1 49.582-20.594l7.055-2.868c3.605-1.466 7.211-2.933 10.817-4.398 11.797-4.795 23.588-9.607 35.378-14.421a324095.193 324095.193 0 0 1 49-20l3.054-1.246a31931.69 31931.69 0 0 0 33.465-13.676l3.028-1.24c4.724-1.933 9.448-3.868 14.17-5.803 3.3-1.353 6.602-2.7 9.905-4.046 3.025-1.232 6.045-2.479 9.06-3.736l4.122-1.698 3.605-1.5L721 193l2 1a4252.678 4252.678 0 0 1-41.613 32.39c-7.155 5.504-14.265 11.064-21.387 16.61-9.18 7.149-18.365 14.29-27.594 21.375-4.148 3.191-8.276 6.41-12.406 9.625a2840.71 2840.71 0 0 1-15.5 12c-8.197 6.294-16.346 12.65-24.5 19-17.204 13.397-17.204 13.397-24.5 19a3597.96 3597.96 0 0 0-15.688 12.125l-2.195 1.703a1051.196 1051.196 0 0 0-11.896 9.39l-2.69 2.155L521 351c31.706 4.563 63.425 9.02 95.162 13.364l16.76 2.298c10.488 1.439 20.976 2.876 31.465 4.313 11.98 1.641 23.958 3.284 35.937 4.926C724.883 379.27 749.441 382.635 774 386v2l-3.86.528a777354.602 777354.602 0 0 0-104.066 14.25l-35.976 4.926c-12.303 1.684-24.605 3.369-36.907 5.055-7.593 1.04-15.186 2.08-22.78 3.118-5.819.796-11.638 1.594-17.458 2.392-2.39.328-4.778.655-7.168.981-3.256.445-6.513.892-9.769 1.339l-2.88.392c-4.074.561-8.116 1.136-12.136 2.019 7.099 6.077 14.358 11.83 21.863 17.396A424.959 424.959 0 0 1 556.5 451a477.326 477.326 0 0 0 15.5 12 486.669 486.669 0 0 1 15.438 11.938c5.932 4.788 11.95 9.45 18.017 14.068 7.462 5.682 14.86 11.444 22.257 17.21a16570.981 16570.981 0 0 0 13.89 10.815c4.29 3.336 8.588 6.66 12.898 9.969 8.985 6.9 17.914 13.872 26.853 20.832A5186.478 5186.478 0 0 0 710 570a26125.209 26125.209 0 0 1 13 10l-2 1a124.49 124.49 0 0 1-7.66-2.918l-2.41-.982c-2.667-1.088-5.33-2.188-7.992-3.288a7990.29 7990.29 0 0 0-5.676-2.32 6833.177 6833.177 0 0 1-12.067-4.948 6595.718 6595.718 0 0 0-18.164-7.427c-8.18-3.333-16.358-6.67-24.535-10.012a85868.353 85868.353 0 0 0-33.942-13.859l-12.225-4.99-27.755-11.326c-9.16-3.738-18.32-7.477-27.48-11.218l-18.645-7.608a33187.42 33187.42 0 0 1-12.325-5.03c-1.941-.793-3.882-1.585-5.824-2.376-2.67-1.088-5.338-2.178-8.007-3.268l-2.382-.97-2.195-.898-1.894-.773c-1.98-.858-3.9-1.808-5.822-2.789l.678 1.567c6.05 13.993 11.896 28.06 17.635 42.183l2.61 6.412c1.801 4.42 3.6 8.841 5.4 13.262 3.805 9.35 7.622 18.696 11.438 28.042L528 590.75l2.5 6.125 6.25 15.312a1189680.59 1189680.59 0 0 0 8.724 21.374 68096.338 68096.338 0 0 0 16.98 41.577l2.54 6.217a7866.086 7866.086 0 0 1 6.888 16.904 2075.31 2075.31 0 0 0 3.507 8.528l2.252 5.506 1.074 2.575c.82 2.021 1.561 4.074 2.285 6.132l-1 2c-5.715-7.247-11.409-14.508-17.026-21.832a2616.981 2616.981 0 0 0-10.724-13.856l-1.787-2.296L545 678c-7.154-9.186-14.3-18.378-21.39-27.613-5.504-7.155-11.064-14.265-16.61-21.387-7.154-9.186-14.3-18.378-21.39-27.613-5.504-7.155-11.064-14.265-16.61-21.387-13.397-17.204-13.397-17.204-19-24.5a3597.96 3597.96 0 0 0-12.125-15.688l-1.703-2.195a1051.196 1051.196 0 0 0-9.39-11.896l-2.155-2.69L423 521c-4.563 31.706-9.02 63.425-13.364 95.162l-2.298 16.76c-1.439 10.488-2.876 20.976-4.313 31.465-1.641 11.98-3.284 23.958-4.926 35.937C394.73 724.883 391.365 749.441 388 774h-2l-.528-3.86a777354.602 777354.602 0 0 0-14.25-104.066l-4.926-35.976c-1.684-12.303-3.369-24.605-5.055-36.907-1.04-7.593-2.08-15.186-3.118-22.78-.796-5.819-1.594-11.638-2.392-17.458-.328-2.39-.655-4.778-.981-7.168-.445-3.256-.892-6.513-1.339-9.769l-.392-2.88c-.561-4.074-1.136-8.116-2.019-12.136-6.077 7.099-11.83 14.358-17.396 21.863A424.959 424.959 0 0 1 323 556.5a477.326 477.326 0 0 0-12 15.5 486.669 486.669 0 0 1-11.938 15.438c-4.788 5.932-9.45 11.95-14.068 18.017-5.682 7.462-11.444 14.86-17.21 22.257-3.014 3.865-6.024 7.733-9.034 11.6l-1.781 2.29c-3.336 4.29-6.66 8.588-9.969 12.898-6.9 8.985-13.872 17.914-20.832 26.853A5186.478 5186.478 0 0 0 204 710a26125.209 26125.209 0 0 1-10 13l-1-2a124.49 124.49 0 0 1 2.918-7.66l.982-2.41c1.088-2.667 2.188-5.33 3.287-7.992a7990.29 7990.29 0 0 0 2.322-5.676c1.645-4.024 3.294-8.046 4.947-12.067 2.486-6.05 4.959-12.106 7.427-18.164 3.333-8.18 6.67-16.358 10.012-24.535 4.622-11.313 9.24-22.627 13.859-33.942l4.99-12.225 11.326-27.755c3.738-9.16 7.477-18.32 11.218-27.48l7.608-18.645c1.675-4.109 3.353-8.217 5.03-12.325.793-1.941 1.585-3.882 2.376-5.824 1.088-2.67 2.178-5.338 3.268-8.007l.97-2.382.898-2.195.773-1.894c.858-1.98 1.808-3.9 2.789-5.822l-1.567.678c-13.993 6.05-28.06 11.896-42.183 17.635l-6.412 2.61c-4.42 1.801-8.841 3.6-13.262 5.4-9.35 3.805-18.696 7.622-28.042 11.438L183.25 528l-6.125 2.5-15.312 6.25a1189680.589 1189680.589 0 0 0-21.374 8.724 68096.338 68096.338 0 0 0-41.577 16.98l-6.217 2.54a7866.086 7866.086 0 0 1-16.904 6.888 2075.31 2075.31 0 0 0-8.528 3.507l-5.506 2.252-2.575 1.074c-2.021.82-4.074 1.561-6.132 2.285l-2-1c7.247-5.715 14.508-11.409 21.832-17.026 4.633-3.556 9.246-7.137 13.856-10.724l2.296-1.787L96 545c9.186-7.154 18.378-14.3 27.613-21.39 7.155-5.504 14.265-11.064 21.387-16.61 9.186-7.154 18.378-14.3 27.613-21.39 7.155-5.504 14.265-11.064 21.387-16.61 17.204-13.397 17.204-13.397 24.5-19a3597.96 3597.96 0 0 0 15.688-12.125l2.195-1.703c3.988-3.102 7.952-6.232 11.896-9.39l2.69-2.155L253 423c-31.706-4.563-63.425-9.02-95.162-13.364l-16.76-2.298c-10.488-1.439-20.976-2.876-31.465-4.313-11.98-1.641-23.958-3.284-35.937-4.926C49.117 394.73 24.559 391.365 0 388v-2l3.86-.528a777354.602 777354.602 0 0 0 101.822-13.943l2.244-.308 35.976-4.925c12.303-1.684 24.605-3.369 36.907-5.055 7.593-1.04 15.186-2.08 22.78-3.118 5.819-.796 11.638-1.594 17.458-2.392 2.39-.328 4.778-.655 7.168-.981 3.256-.445 6.513-.892 9.769-1.339l2.88-.392c4.074-.561 8.116-1.136 12.136-2.019-7.124-6.099-14.411-11.878-21.938-17.47-5.536-4.118-10.97-8.35-16.382-12.628a1917.4 1917.4 0 0 0-12.43-9.714l-2.285-1.776-4.629-3.596a9635.819 9635.819 0 0 1-7.027-5.468A3732.345 3732.345 0 0 0 168.5 285c-8.985-6.9-17.914-13.872-26.853-20.832-11.054-8.609-11.054-8.609-22.147-17.168-8.985-6.9-17.914-13.872-26.853-20.832A5186.478 5186.478 0 0 0 64 204a26125.209 26125.209 0 0 1-10.613-8.164L51 194c2-1 2-1 4.846-.054 1.243.504 2.483 1.016 3.72 1.534l2.073.847c2.31.946 4.617 1.904 6.923 2.86l4.964 2.037c3.592 1.472 7.181 2.949 10.77 4.428a4944.71 4944.71 0 0 0 17.34 7.098l2.985 1.216 6.057 2.469c5.21 2.125 10.42 4.253 15.63 6.381 8.388 3.427 16.776 6.851 25.165 10.274 21.289 8.686 42.575 17.38 63.854 26.09 9.995 4.092 19.995 8.175 29.997 12.25l6.748 2.75c3.276 1.335 6.551 2.669 9.828 4.002 3.017 1.227 6.033 2.456 9.05 3.685l2.683 1.09A482.379 482.379 0 0 1 290 290l-.844-1.981a3163.228 3163.228 0 0 1-20.594-49.582l-2.868-7.055c-1.466-3.605-2.933-7.211-4.398-10.817a23063.848 23063.848 0 0 0-14.421-35.377 324095.193 324095.193 0 0 1-20-49l-1.246-3.055a31931.69 31931.69 0 0 0-13.676-33.465l-1.24-3.028c-1.933-4.724-3.868-9.448-5.803-14.17-1.353-3.3-2.7-6.602-4.046-9.905a1173.533 1173.533 0 0 0-3.736-9.06l-1.698-4.122-1.5-3.605L193 53l1-2a4252.678 4252.678 0 0 1 32.39 41.613c5.504 7.155 11.064 14.265 16.61 21.387 7.149 9.18 14.29 18.365 21.375 27.594 3.191 4.148 6.41 8.276 9.625 12.406a2840.71 2840.71 0 0 1 12 15.5c6.294 8.197 12.65 16.346 19 24.5 13.397 17.204 13.397 17.204 19 24.5a3597.96 3597.96 0 0 0 12.125 15.688l1.703 2.195c3.102 3.988 6.232 7.952 9.39 11.896l2.155 2.69L351 253c4.563-31.706 9.02-63.425 13.364-95.162l2.298-16.76c1.439-10.488 2.876-20.976 4.313-31.465 1.641-11.98 3.284-23.958 4.926-35.937C379.27 49.117 382.635 24.559 386 0z"/>
	</symbol>

   <symbol id="i-service6" viewBox="0 0 768 776">
		<path d="M383 0h2l.457 2.425a2706257.077 2706257.077 0 0 0 25.44 134.853l1.757 9.318a2774.316 2774.316 0 0 0 5.278 27.376c.727 3.724 1.257 7.228 1.068 11.028h2l.816-2.169c1.196-2.86 2.583-5.445 4.133-8.128l1.797-3.115 1.942-3.338 2.025-3.496c5.726-9.864 11.587-19.646 17.474-29.414a2968.928 2968.928 0 0 0 11.75-19.715l2.019-3.41 4.041-6.83A38380.779 38380.779 0 0 1 485 75l1.161-1.959C496.066 56.336 505.981 39.638 516 23c1.392 3.841.687 7.298.02 11.212l-.357 2.204c-.396 2.44-.804 4.877-1.212 7.314l-.856 5.244a4767.64 4767.64 0 0 1-1.86 11.292 8475.267 8475.267 0 0 0-2.936 17.848 24805.3 24805.3 0 0 1-4.643 28.226c-2.78 16.851-5.55 33.704-8.313 50.558-.971 5.918-1.946 11.834-2.923 17.75-.607 3.677-1.212 7.355-1.816 11.033-.281 1.708-.563 3.416-.847 5.123-.386 2.328-.768 4.656-1.15 6.984l-.343 2.056c-.508 3.127-.764 5.97-.764 9.156l2.457-2.09A1323.584 1323.584 0 0 1 512 189l5.5-4.5 22-18 2.773-2.27 5.266-4.304A5432.212 5432.212 0 0 0 564.5 146c6.49-5.347 12.988-10.68 19.5-16l5.5-4.5 13.766-11.262c1.782-1.459 3.564-2.92 5.343-4.383C616.35 103.5 624.17 97.245 632 91l1 2c-1.149 2.524-1.149 2.524-2.945 5.73l-.973 1.752a1069.494 1069.494 0 0 1-3.207 5.706l-2.22 3.975A3172.16 3172.16 0 0 1 617 122l-1.813 3.22c-2.652 4.71-5.313 9.414-7.98 14.116a3667.085 3667.085 0 0 0-10.144 18.039 139151676644.276 139151676644.276 0 0 1-5.297 9.468c-3.502 6.26-7.008 12.518-10.514 18.777-2.93 5.233-5.86 10.466-8.787 15.7a9209.36 9209.36 0 0 1-17.403 30.993l-1.537 2.727c-3.78 6.689-7.64 13.33-11.525 19.96 19.788-6.458 39.45-13.234 59.06-20.214a5393.568 5393.568 0 0 1 49.664-17.396c11.444-3.949 22.868-7.943 34.256-12.05l3.18-1.144c5.028-1.809 10.051-3.626 15.07-5.46l5.356-1.931 2.464-.913c5.61-2.006 5.61-2.006 8.95-.892-5.058 4.64-10.162 9.183-15.5 13.5a234.263 234.263 0 0 0-10.5 9c-4.3 3.919-8.76 7.592-13.281 11.25-3.498 2.895-6.837 5.946-10.192 9.004-2.597 2.308-5.261 4.502-7.965 6.684A228.107 228.107 0 0 0 651.5 254c-4.47 4.114-9.09 7.97-13.816 11.785-2.631 2.171-5.163 4.417-7.684 6.715-4.3 3.919-8.76 7.592-13.281 11.25-3.498 2.895-6.837 5.946-10.192 9.004-2.597 2.308-5.261 4.502-7.965 6.683-4.897 3.959-9.536 8.116-14.152 12.399-2.07 1.858-4.175 3.515-6.41 5.164 30.915.728 61.829 1.163 92.75 1.5 32.42.353 64.835.815 97.25 1.5-2.982 1.988-5.613 3.09-8.96 4.344l-1.825.688c-2.005.754-4.012 1.504-6.02 2.253l-4.256 1.6c-3.025 1.137-6.051 2.272-9.078 3.404-4.765 1.784-9.529 3.573-14.292 5.362-5.554 2.087-11.108 4.172-16.663 6.256-10.512 3.943-21.02 7.9-31.522 11.871-2.57.971-5.14 1.942-7.711 2.911a7903.785 7903.785 0 0 0-28.135 10.685c-4.72 1.802-9.443 3.602-14.165 5.401-3.96 1.51-7.919 3.023-11.876 4.54-3.032 1.16-6.065 2.315-9.099 3.47l-3.364 1.295-3.083 1.17-2.691 1.03C593 387 593 387 590 387v2l2.396.278c4.646.93 8.855 2.563 13.264 4.273l2.897 1.107c2.077.795 4.153 1.592 6.228 2.392 4.493 1.73 8.99 3.45 13.488 5.17 2.36.902 4.72 1.806 7.08 2.71 11.121 4.259 22.261 8.465 33.406 12.662a18832.286 18832.286 0 0 1 48.097 18.18c5.854 2.222 11.707 4.444 17.56 6.669l10.686 4.059 3.162 1.203A1253.45 1253.45 0 0 0 768 455v1c-33.151.698-66.301 1.164-99.457 1.53-30.185.335-60.364.782-90.543 1.47 7.607 6.916 7.607 6.916 15.5 13.5 4.463 3.61 8.727 7.384 12.969 11.25 2.62 2.329 5.306 4.546 8.031 6.75 4.464 3.611 8.73 7.387 12.973 11.254 2.597 2.308 5.261 4.502 7.965 6.683 4.772 3.86 9.293 7.935 13.808 12.09 3.586 3.22 7.321 6.232 11.07 9.258 2.631 2.171 5.163 4.417 7.684 6.715a234.263 234.263 0 0 0 10.5 9c4.464 3.611 8.73 7.387 12.973 11.254 2.597 2.308 5.261 4.502 7.965 6.683 7.186 5.819 14.067 11.978 20.562 18.563-6.443-1.31-12.48-3.076-18.656-5.316l-2.784-.994c-1.983-.709-3.966-1.42-5.947-2.133-5.388-1.938-10.782-3.858-16.176-5.78l-3.378-1.205c-11.495-4.095-23.025-8.088-34.559-12.072a5730.855 5730.855 0 0 1-55.816-19.617C569.182 530.07 555.614 525.484 542 521l1.09 1.923A4104.854 4104.854 0 0 1 562.5 557.5a3450.765 3450.765 0 0 0 15.658 27.942c6.919 12.215 13.76 24.472 20.613 36.724a8298.164 8298.164 0 0 0 19.042 33.896l1.614 2.861a1305.16 1305.16 0 0 0 7.42 12.999l1.304 2.265c.793 1.377 1.592 2.75 2.399 4.12.878 1.53 1.674 3.108 2.45 4.693l-1 2a147282.8 147282.8 0 0 1-7.887-6.453 6118.185 6118.185 0 0 1-24.84-20.382A5430.013 5430.013 0 0 0 582 644l-5.5-4.5-2.75-2.25-11.023-9.02-5.266-4.304c-6.41-5.238-12.8-10.498-19.189-15.761A5430.013 5430.013 0 0 0 521 594l-5.5-4.5-2.75-2.25L488 567a604.55 604.55 0 0 0 4.721 34.013 8797.802 8797.802 0 0 0 2.52 15.22 11139.4 11139.4 0 0 1 2.71 16.377c2.558 15.51 5.125 31.019 7.699 46.526 1.426 8.596 2.847 17.192 4.262 25.789.893 5.428 1.794 10.855 2.7 16.281.56 3.365 1.113 6.73 1.665 10.096.257 1.562.517 3.123.78 4.683.358 2.127.706 4.255 1.052 6.384l.598 3.61c.265 2.736.192 4.457-.707 7.021a61668.407 61668.407 0 0 1-36.938-62.272 41896.422 41896.422 0 0 0-24.77-41.76c-4.249-7.156-8.497-14.311-12.737-21.472l-1.071-1.808c-1.699-2.868-3.397-5.737-5.093-8.606a1378.52 1378.52 0 0 0-8.383-14.02l-1.31-2.157a659.097 659.097 0 0 0-2.314-3.772C421 593.219 421 593.219 421 591h-2l-.127 1.685c-.662 7.634-2.035 15.089-3.477 22.608a7172.35 7172.35 0 0 1-2.986 15.718c-.77 4.035-1.535 8.072-2.3 12.109-1.453 7.664-2.91 15.327-4.37 22.99-2.123 11.152-4.24 22.305-6.357 33.458l-.95 5.005-.47 2.476c-.905 4.768-1.812 9.535-2.719 14.301A8923.869 8923.869 0 0 0 385 776h-2l-.457-2.425a2706257.077 2706257.077 0 0 0-25.44-134.853l-1.757-9.318a2774.316 2774.316 0 0 0-5.278-27.376C349.34 598.304 348.81 594.8 349 591h-2l-.802 2.147c-1.256 2.99-2.732 5.696-4.358 8.501l-1.908 3.301-1.995 3.426-1.912 3.309c-4.178 7.21-8.44 14.367-12.737 21.508-3.811 6.336-7.578 12.699-11.35 19.058l-2.492 4.198a48702.782 48702.782 0 0 0-15.634 26.365l-1.967 3.32c-3.257 5.496-6.511 10.993-9.763 16.492C272.124 719.458 262.079 736.239 252 753c-1.392-3.841-.687-7.298-.02-11.212l.357-2.204c.396-2.44.804-4.877 1.212-7.314l.856-5.244a4767.64 4767.64 0 0 1 1.86-11.292c.987-5.948 1.962-11.898 2.936-17.848a24805.3 24805.3 0 0 1 4.643-28.226c2.78-16.851 5.55-33.704 8.313-50.558.971-5.918 1.946-11.834 2.923-17.75.607-3.677 1.212-7.355 1.816-11.033.281-1.708.563-3.416.847-5.123.386-2.328.768-4.656 1.15-6.984l.343-2.056c.508-3.127.764-5.97.764-9.156l-2.71 2.344c-6.208 5.352-12.438 10.649-18.868 15.734-4.519 3.586-8.963 7.263-13.422 10.922a22967.514 22967.514 0 0 1-13.54 11.074A5432.212 5432.212 0 0 0 214.5 621a5979.718 5979.718 0 0 1-19.5 16l-5.5 4.5-11 9-2.773 2.27-5.266 4.304a2907.742 2907.742 0 0 0-12.617 10.36C143.05 679.656 143.05 679.656 136 685l-1-2c1.041-2.309 1.041-2.309 2.691-5.223l1.842-3.281 2.03-3.558 2.07-3.676a2842.1 2842.1 0 0 1 4.277-7.57c2.499-4.41 4.972-8.834 7.444-13.259 1.723-3.083 3.45-6.165 5.177-9.245 2.336-4.166 4.67-8.333 7-12.5a7490.645 7490.645 0 0 1 18.577-33.029c3.96-7.001 7.9-14.015 11.83-21.034l1.746-3.12c3.024-5.405 6.046-10.812 9.066-16.22l1.871-3.348c1.167-2.088 2.333-4.176 3.498-6.265 3.88-6.939 7.855-13.817 11.881-20.672-18.736 6.096-37.33 12.553-55.891 19.158a5502.124 5502.124 0 0 1-49.63 17.384 2984.569 2984.569 0 0 0-35.127 12.34l-6.713 2.405c-4.271 1.53-8.537 3.073-12.801 4.621l-5.768 2.069-2.663.978-2.438.868-2.116.766C51 582 51 582 48 581l2.754-2.387 1.817-1.574 4.04-3.502c3.412-2.956 6.823-5.914 10.233-8.873a4404.881 4404.881 0 0 1 23.422-20.18C93.18 541.99 96.09 539.495 99 537l3.5-3 1.75-1.5 7-6 3.502-3.002c2.903-2.489 5.807-4.977 8.713-7.463A3452.627 3452.627 0 0 0 141.5 500.5a3681.83 3681.83 0 0 1 19.762-17.012c1.758-1.505 3.514-3.012 5.27-4.52l1.792-1.538 3.268-2.807C177.7 469.383 183.854 464.195 190 459c-31.103-.709-62.204-1.156-93.313-1.5-32.232-.356-64.46-.822-96.687-1.5 3.333-2.222 6.731-3.506 10.46-4.879l2.305-.86c1.659-.617 3.319-1.234 4.979-1.849 3.606-1.336 7.209-2.68 10.812-4.024l5.72-2.132a6630.125 6630.125 0 0 0 30.911-11.631 143170.637 143170.637 0 0 1 14.234-5.382c6.65-2.515 13.302-5.026 19.954-7.536a359548.998 359548.998 0 0 0 14.096-5.32 5529.38 5529.38 0 0 0 31.588-12.012l5.882-2.256c3.72-1.426 7.436-2.859 11.152-4.295l5.009-1.922 2.303-.897c3.007-1.147 5.347-2.005 8.595-2.005v-2l-1.98-.313c-3.921-.892-7.574-2.27-11.333-3.687l-2.497-.93c-2.732-1.02-5.46-2.045-8.19-3.07l-5.8-2.168c-19.191-7.18-38.358-14.427-57.52-21.682a50128.843 50128.843 0 0 0-31.284-11.83A20296.47 20296.47 0 0 0 0 321v-1c33.351-.705 66.702-1.167 100.058-1.53 29.985-.328 59.963-.764 89.942-1.47-7.607-6.916-7.607-6.916-15.5-13.5-4.463-3.61-8.727-7.384-12.969-11.25-2.62-2.329-5.306-4.546-8.031-6.75-4.464-3.611-8.73-7.387-12.973-11.254-2.597-2.308-5.261-4.502-7.964-6.683-4.773-3.86-9.294-7.935-13.81-12.09-3.585-3.22-7.32-6.232-11.07-9.258-2.63-2.171-5.162-4.417-7.683-6.715a234.263 234.263 0 0 0-10.5-9c-4.464-3.611-8.73-7.387-12.973-11.254-2.597-2.308-5.261-4.502-7.965-6.684C61.377 206.744 54.495 200.585 48 194c5.427.672 10.253 2.368 15.363 4.219l2.797.998c2.001.715 4.002 1.432 6.001 2.15 5.428 1.951 10.862 3.885 16.296 5.82l3.406 1.215c11.522 4.103 23.077 8.106 34.637 12.098a5845.633 5845.633 0 0 1 49.875 17.5c16.48 5.862 32.985 11.607 49.625 17l-.971-1.715a10629.953 10629.953 0 0 1-27.8-49.451A7506.372 7506.372 0 0 0 178.5 170.5a7484.72 7484.72 0 0 1-18.712-33.303c-2.431-4.347-4.864-8.693-7.298-13.039a7104.947 7104.947 0 0 1-3.558-6.365 1068.31 1068.31 0 0 0-7.846-13.848l-1.307-2.273a458.733 458.733 0 0 0-2.38-4.08c-.86-1.498-1.64-3.041-2.399-4.592l1-2a5530.22 5530.22 0 0 1 19.5 16 5973.815 5973.815 0 0 0 19.5 16l5.5 4.5 2.75 2.25 11.023 9.02 5.266 4.304c6.41 5.238 12.8 10.498 19.189 15.761A5430.013 5430.013 0 0 0 236 173l8.273 6.77 5.266 4.304a5309.592 5309.592 0 0 1 19.536 16.054l2.105 1.735 1.866 1.54c2.305 1.883 4.63 3.74 6.954 5.597-1.301-11.049-2.901-22.017-4.721-32.991a11847.711 11847.711 0 0 0-2.52-15.32c-.909-5.497-1.81-10.994-2.71-16.491a47053.176 47053.176 0 0 0-7.699-46.852c-1.426-8.653-2.847-17.306-4.262-25.96-.893-5.467-1.794-10.932-2.7-16.396-.56-3.388-1.113-6.778-1.665-10.168a1313.22 1313.22 0 0 0-.78-4.716c-.358-2.143-.706-4.286-1.052-6.43l-.598-3.636c-.265-2.745-.196-4.47.707-7.04l.892 1.512c7.122 12.07 14.264 24.127 21.42 36.175 9.22 15.522 18.425 31.053 27.626 46.585 4.686 7.91 9.373 15.82 14.062 23.728l1.161 1.959a39764.346 39764.346 0 0 0 9.807 16.532c3.944 6.652 7.895 13.298 11.903 19.911l1.722 2.844c1.032 1.701 2.067 3.4 3.107 5.096 3.3 5.438 3.3 5.438 3.3 7.658h2l.127-1.685c.662-7.634 2.035-15.089 3.477-22.608a7172.35 7172.35 0 0 1 2.986-15.718c.77-4.035 1.535-8.072 2.3-12.109 1.453-7.664 2.91-15.327 4.37-22.99 2.123-11.152 4.24-22.305 6.357-33.458l.95-5.005.47-2.476c.905-4.768 1.812-9.535 2.719-14.301A8923.869 8923.869 0 0 0 383 0z"/>
	</symbol>

   <symbol id="i-service7" viewBox="0 0 776 776">
		<path d="M387 0h2c1.486 2.063 1.486 2.063 3.246 5l2.01 3.33 2.182 3.67A3181.483 3181.483 0 0 1 406 28l1.241 2.089a8977.287 8977.287 0 0 1 11.048 18.619c4.834 8.17 9.715 16.307 14.766 24.345C436 77.788 436 77.788 436 80c5.845-4.66 11.53-9.409 17-14.5 4.588-4.27 9.334-8.258 14.219-12.188 3.553-2.954 6.921-6.081 10.303-9.228 4.055-3.752 8.289-7.22 12.6-10.67 4.01-3.364 7.8-6.955 11.552-10.605C505.676 19 505.676 19 509 19c2.613 11.273 5.22 22.547 7.823 33.823 1.208 5.235 2.418 10.47 3.632 15.705 1.171 5.05 2.338 10.1 3.501 15.153.445 1.928.892 3.856 1.34 5.784.627 2.697 1.248 5.396 1.868 8.095l.567 2.421C528.52 103.44 529 106.431 529 110l3.173-1.367c19.956-8.591 39.93-17.142 59.962-25.554l5.73-2.412c2.669-1.124 5.339-2.244 8.01-3.362l2.415-1.02C613.77 74 613.77 74 616 74c.274 10.276-.583 20.38-1.496 30.602l-.464 5.315c-.322 3.686-.647 7.372-.976 11.058-.42 4.73-.834 9.46-1.244 14.19-.317 3.647-.638 7.292-.96 10.938-.154 1.745-.306 3.491-.458 5.237-.211 2.427-.428 4.853-.646 7.28l-.187 2.188c-.455 4.963-.455 4.963-1.569 7.192l2-1c2.462-.297 4.91-.544 7.38-.756l2.307-.207c2.529-.226 5.058-.446 7.586-.666l5.286-.466c3.704-.327 7.408-.65 11.112-.971 4.72-.41 9.437-.827 14.155-1.248 3.646-.323 7.292-.642 10.939-.96 1.737-.152 3.475-.305 5.212-.46 9.362-.834 18.611-1.517 28.023-1.266-2.427 7.72-5.468 15.117-8.625 22.563l-1.683 3.992A7238.335 7238.335 0 0 1 686 200l-1.093 2.578A23892.753 23892.753 0 0 1 671.6 233.9c-1.86 4.37-3.728 8.736-5.6 13.1l3.467.384c4.427.556 8.718 1.462 13.06 2.474l2.457.562c2.652.607 5.303 1.22 7.953 1.834l5.549 1.274c4.847 1.112 9.693 2.23 14.539 3.348 4.953 1.143 9.908 2.28 14.862 3.419 9.705 2.23 19.41 4.466 29.113 6.705-.858 4.47-3.413 6.889-6.5 10.063-3.85 4.054-7.565 8.132-11.063 12.5-3.172 3.952-6.485 7.728-9.937 11.437-4.268 4.586-8.256 9.331-12.184 14.215-2.968 3.57-6.113 6.952-9.276 10.348-4.27 4.616-8.2 9.463-12.04 14.437l2.094.765c3.308 1.406 6.336 3.144 9.41 4.989l1.901 1.13c2.055 1.222 4.106 2.45 6.158 3.678l4.3 2.564a3720.562 3720.562 0 0 1 31.687 19.126c4.824 2.943 9.648 5.88 14.524 8.736l2.19 1.287c1.81 1.059 3.624 2.11 5.44 3.159L776 387v2c-2.063 1.486-2.063 1.486-5 3.246l-3.33 2.01-3.67 2.182A3181.483 3181.483 0 0 1 748 406l-2.089 1.241a8977.287 8977.287 0 0 1-18.619 11.048c-8.17 4.834-16.307 9.715-24.345 14.766C698.212 436 698.212 436 696 436c4.66 5.845 9.409 11.53 14.5 17 4.27 4.588 8.258 9.334 12.188 14.219 2.954 3.553 6.081 6.921 9.228 10.303 3.752 4.055 7.22 8.289 10.67 12.6 3.364 4.01 6.955 7.8 10.605 11.552C757 505.676 757 505.676 757 509c-11.273 2.613-22.547 5.22-33.823 7.823-5.235 1.208-10.47 2.418-15.705 3.632-5.05 1.171-10.1 2.338-15.153 3.501-1.928.445-3.856.892-5.784 1.34-2.697.627-5.396 1.248-8.095 1.868l-2.421.567C672.56 528.52 669.569 529 666 529l1.538 3.547c17.09 39.432 17.09 39.432 24.837 57.89l1.526 3.628 1.435 3.431 1.205 2.88c2.22 5.515 4.335 11.071 6.459 16.624a43743.376 43743.376 0 0 1-36.273-3.077c-5.614-.479-11.228-.956-16.842-1.43-5.415-.456-10.829-.917-16.242-1.38-2.07-.177-4.139-.352-6.208-.526-2.89-.242-5.78-.49-8.67-.74l-2.614-.215c-5.923-.518-5.923-.518-8.151-1.632l1 2c.329 2.923.606 5.834.848 8.764l.237 2.75c.258 3.008.51 6.016.763 9.025l.533 6.247c.47 5.487.933 10.975 1.396 16.463.473 5.597.95 11.193 1.428 16.79.936 10.987 1.867 21.974 2.795 32.961-11.14-4.424-22.255-8.881-33.273-13.602l-3.446-1.47c-3.553-1.515-7.105-3.034-10.656-4.553A18260.856 18260.856 0 0 1 529 666l-.384 3.467c-.556 4.427-1.462 8.718-2.474 13.06l-.562 2.457c-.607 2.652-1.22 5.303-1.834 7.953l-1.274 5.549c-1.112 4.847-2.23 9.693-3.348 14.539-1.143 4.953-2.28 9.908-3.419 14.862-2.23 9.705-4.466 19.41-6.705 29.113-4.47-.858-6.889-3.413-10.063-6.5-4.054-3.85-8.132-7.565-12.5-11.063-3.952-3.172-7.728-6.485-11.437-9.937-4.586-4.268-9.331-8.256-14.215-12.184-3.57-2.968-6.952-6.113-10.348-9.276-4.616-4.27-9.463-8.2-14.437-12.04l-.765 2.094c-1.406 3.308-3.144 6.336-4.989 9.41l-1.13 1.901c-1.222 2.055-2.45 4.106-3.678 6.158l-2.564 4.3a3720.562 3720.562 0 0 1-19.126 31.687c-2.943 4.824-5.88 9.648-8.736 14.524l-1.287 2.19c-1.059 1.81-2.11 3.624-3.159 5.44L389 776h-2a90.883 90.883 0 0 1-3.754-6.016l-1.13-1.922a1058.76 1058.76 0 0 1-2.416-4.138c-1.702-2.93-3.42-5.85-5.137-8.77-.883-1.502-1.766-3.005-2.647-4.508-4.237-7.215-8.563-14.375-12.916-21.521l-2.107-3.467a2415.55 2415.55 0 0 0-9.397-15.33l-1.584-2.567a989.578 989.578 0 0 0-2.867-4.612C340 698.222 340 698.222 340 696c-5.845 4.66-11.53 9.409-17 14.5-4.588 4.27-9.334 8.258-14.219 12.188-3.553 2.954-6.921 6.081-10.303 9.228-4.055 3.752-8.289 7.22-12.6 10.67-4.01 3.364-7.8 6.955-11.552 10.605C270.324 757 270.324 757 267 757c-2.613-11.273-5.22-22.547-7.823-33.823-1.208-5.235-2.418-10.47-3.632-15.705-1.171-5.05-2.338-10.1-3.501-15.153a3702.38 3702.38 0 0 0-1.34-5.784c-.627-2.697-1.248-5.396-1.868-8.095l-.567-2.421C247.48 672.56 247 669.569 247 666l-3.547 1.538c-39.432 17.09-39.432 17.09-57.89 24.837l-3.628 1.526-3.431 1.435-2.88 1.205c-5.515 2.22-11.071 4.335-16.624 6.459 1.021-12.092 2.046-24.183 3.077-36.273.479-5.614.956-11.228 1.43-16.842.456-5.415.917-10.829 1.38-16.242.177-2.07.352-4.139.526-6.208.242-2.89.49-5.78.74-8.67l.215-2.614c.518-5.923.518-5.923 1.632-8.151l-2 1c-2.923.329-5.834.606-8.764.848l-2.75.237c-3.008.258-6.016.51-9.025.763l-6.247.533c-5.487.47-10.975.933-16.463 1.396-5.597.473-11.193.95-16.79 1.428-10.987.936-21.974 1.867-32.961 2.795 4.424-11.14 8.881-22.255 13.602-33.273l1.47-3.446c1.515-3.553 3.034-7.105 4.553-10.656l3.063-7.176c4.76-11.154 9.53-22.304 14.312-33.449l-3.467-.384c-4.427-.556-8.718-1.462-13.06-2.474l-2.457-.562c-2.652-.607-5.303-1.22-7.954-1.834l-5.548-1.274c-4.847-1.112-9.693-2.23-14.539-3.348-4.953-1.143-9.908-2.28-14.862-3.419-9.705-2.23-19.41-4.466-29.113-6.705.858-4.47 3.413-6.889 6.5-10.063 3.85-4.054 7.565-8.132 11.063-12.5 3.172-3.952 6.485-7.728 9.937-11.437 4.268-4.586 8.256-9.331 12.184-14.215 2.968-3.57 6.113-6.952 9.276-10.348 4.27-4.616 8.2-9.463 12.04-14.437l-2.135-.793c-3.073-1.295-5.837-2.834-8.713-4.523l-1.698-.995a1983.04 1983.04 0 0 1-5.516-3.252c-1.294-.76-2.587-1.522-3.88-2.283-12.38-7.299-24.664-14.751-36.925-22.247a1180.863 1180.863 0 0 0-8.887-5.348l-2.589-1.554a725.906 725.906 0 0 0-4.683-2.784C3.282 391.201 1.634 390.11 0 389v-2a90.883 90.883 0 0 1 6.016-3.754l1.922-1.13a1058.76 1058.76 0 0 1 4.138-2.416c2.93-1.702 5.85-3.42 8.77-5.137 1.502-.883 3.005-1.766 4.508-2.647 7.215-4.237 14.375-8.563 21.521-12.916l3.467-2.107a2415.55 2415.55 0 0 0 15.33-9.397l2.567-1.584c1.54-.952 3.077-1.907 4.612-2.867C77.778 340 77.778 340 80 340c-4.66-5.845-9.409-11.53-14.5-17-4.27-4.588-8.258-9.334-12.188-14.219-2.954-3.553-6.081-6.921-9.228-10.303-3.752-4.055-7.22-8.289-10.67-12.6-3.364-4.01-6.955-7.8-10.605-11.552C19 270.324 19 270.324 19 267c11.273-2.613 22.547-5.22 33.823-7.823 5.235-1.208 10.47-2.418 15.705-3.632 5.05-1.171 10.1-2.338 15.153-3.501 1.928-.445 3.856-.892 5.784-1.34 2.697-.627 5.396-1.248 8.095-1.868l2.421-.567C103.44 247.48 106.431 247 110 247l-1.367-3.173c-8.591-19.956-17.142-39.93-25.554-59.962l-2.412-5.73a3743.458 3743.458 0 0 1-3.362-8.01l-1.02-2.415C74 162.23 74 162.23 74 160c10.276-.274 20.38.583 30.602 1.496l5.315.464c3.686.322 7.372.647 11.058.976 4.73.42 9.46.834 14.19 1.244 3.647.317 7.292.638 10.938.96 1.745.154 3.491.306 5.237.458 2.427.211 4.853.428 7.28.646l2.188.187c4.963.455 4.963.455 7.192 1.569l-1-2c-.297-2.462-.544-4.91-.756-7.38l-.207-2.307c-.226-2.529-.446-5.058-.666-7.586l-.466-5.286c-.327-3.704-.65-7.408-.971-11.112-.41-4.72-.827-9.437-1.248-14.155-.323-3.646-.642-7.292-.96-10.939-.152-1.737-.305-3.475-.46-5.212-.834-9.362-1.517-18.611-1.266-28.023 7.72 2.427 15.117 5.468 22.563 8.625l3.992 1.683C191.039 86.2 195.52 88.1 200 90l2.578 1.093A23892.753 23892.753 0 0 1 233.9 104.4c4.37 1.86 8.736 3.728 13.1 5.6l.384-3.467c.556-4.427 1.462-8.718 2.474-13.06l.562-2.457c.607-2.652 1.22-5.303 1.834-7.954l1.274-5.548c1.112-4.847 2.23-9.693 3.348-14.539 1.143-4.953 2.28-9.908 3.419-14.862 2.23-9.705 4.466-19.41 6.705-29.113 4.47.858 6.889 3.413 10.063 6.5 4.054 3.85 8.132 7.565 12.5 11.063 3.952 3.172 7.728 6.485 11.437 9.937 4.586 4.268 9.331 8.256 14.215 12.184 3.57 2.968 6.952 6.113 10.348 9.276 4.616 4.27 9.463 8.2 14.437 12.04l.793-2.135c1.295-3.073 2.834-5.837 4.523-8.713l.995-1.698a1983.04 1983.04 0 0 1 3.252-5.516c.76-1.294 1.522-2.587 2.283-3.88 7.299-12.38 14.751-24.664 22.247-36.925 1.798-2.954 3.577-5.917 5.348-8.887l1.554-2.589a725.906 725.906 0 0 0 2.784-4.683C384.799 3.282 385.89 1.634 387 0z"/>
	</symbol>

</svg>