<svg xmlns="http://www.w3.org/2000/svg">

	<symbol id="i-tel" viewBox="0 0 24 24" fill="none">
		<path d="M21 7V3M21 3H17M21 3L15 9M18.5 21C9.93959 21 3 14.0604 3 5.5C3 5.11378 3.01413 4.73086 3.04189 4.35173C3.07375 3.91662 3.08968 3.69907 3.2037 3.50103C3.29814 3.33701 3.4655 3.18146 3.63598 3.09925C3.84181 3 4.08188 3 4.56201 3H7.37932C7.78308 3 7.98496 3 8.15802 3.06645C8.31089 3.12515 8.44701 3.22049 8.55442 3.3441C8.67601 3.48403 8.745 3.67376 8.88299 4.05321L10.0491 7.26005C10.2096 7.70153 10.2899 7.92227 10.2763 8.1317C10.2643 8.31637 10.2012 8.49408 10.0942 8.64506C9.97286 8.81628 9.77145 8.93713 9.36863 9.17882L8 10C9.2019 12.6489 11.3501 14.7999 14 16L14.8212 14.6314C15.0629 14.2285 15.1837 14.0271 15.3549 13.9058C15.5059 13.7988 15.6836 13.7357 15.8683 13.7237C16.0777 13.7101 16.2985 13.7904 16.74 13.9509L19.9468 15.117C20.3262 15.255 20.516 15.324 20.6559 15.4456C20.7795 15.553 20.8749 15.6891 20.9335 15.842C21 16.015 21 16.2169 21 16.6207V19.438C21 19.9181 21 20.1582 20.9007 20.364C20.8185 20.5345 20.663 20.7019 20.499 20.7963C20.3009 20.9103 20.0834 20.9262 19.6483 20.9581C19.2691 20.9859 18.8862 21 18.5 21Z" stroke-width="2" stroke-linecap="round" stroke-linejoin="round"/>
	</symbol>

	<symbol id="i-download" viewBox="0 0 537.794 537.795">
		<path d="M463.091 466.114H74.854c-11.857 0-21.497 9.716-21.497 21.497v28.688c0 11.857 9.716 21.496 21.497 21.496h388.084c11.857 0 21.496-9.716 21.496-21.496v-28.688c.231-11.934-9.485-21.497-21.343-21.497zM253.94 427.635c4.208 4.208 9.716 6.35 15.147 6.35a21.197 21.197 0 0 0 15.147-6.35l147.033-147.033c8.339-8.338 8.339-21.955 0-30.447l-20.349-20.349c-8.339-8.339-21.956-8.339-30.447 0l-75.582 75.659V21.497C304.889 9.639 295.173 0 283.393 0h-28.688c-11.857 0-21.497 9.562-21.497 21.497v284.044l-75.658-75.659c-8.339-8.338-22.032-8.338-30.447 0l-20.349 20.349c-8.338 8.338-8.338 22.032 0 30.447L253.94 427.635z"/>
	</symbol>

	<symbol id="i-rightline" viewBox="0 0 1159 280">
		<path d="M1013.8 1.4c-5.8 2.1-8.6 4.3-10.7 8.4-2.9 5.7-3.3 9.2-1.7 14.7 1.4 4.5 5.1 8.5 47.3 50.7l45.8 45.8H0v38h1094.5l-46.1 46.2c-42.8 43-46.2 46.6-47.4 51.1-1.4 5.3-.6 9.6 2.9 15.4 4.2 6.8 15.6 9.7 23.1 5.9 4.9-2.5 126.6-124 129.2-129.1 2.6-4.9 2.8-11.8.4-16.5-2.3-4.5-124-126.6-128.6-129-5.1-2.6-9.9-3.2-14.2-1.6z"/>
	</symbol>

	<symbol id="i-rightline-big" viewBox="0 0 1138 152">
		<path d="M1055.9 3.9c-2.3 2.3-2.9 3.8-2.9 7.2 0 4.2.2 4.4 25.2 29.6l25.2 25.3H0v20h1103.4l-25.2 25.3c-24.6 24.8-25.2 25.5-25.2 29.4 0 6 4.2 10.3 10.1 10.3h4.3l35.3-35.3 35.3-35.3v-8.8l-35.3-35.3L1067.5 1h-4.3c-3.5 0-4.9.6-7.3 2.9z"/>
	</symbol>

	<symbol id="i-right" viewBox="0 0 14 14">
		<path d="m 12.668805,7 q 0,0.41592 -0.28498,0.7009 l -5.01412,5.01412 Q 7.069325,13 6.668805,13 6.275995,13 5.975615,12.71502 l -0.57767,-0.57766 q -0.29268,-0.29269 -0.29268,-0.7009 0,-0.40822 0.29268,-0.7009 l 2.25674,-2.25674 h -5.42233 q -0.40052,0 -0.65084,-0.28883 Q 1.331195,7.90116 1.331195,7.49294 V 6.50706 q 0,-0.40822 0.25032,-0.69705 0.25032,-0.28883 0.65084,-0.28883 h 5.42233 L 5.397945,3.25674 q -0.29268,-0.27728 -0.29268,-0.6932 0,-0.41591 0.29268,-0.69319 L 5.975615,1.29268 Q 6.268295,1 6.668805,1 q 0.40822,0 0.7009,0.29268 l 5.01412,5.01412 Q 12.668805,6.57638 12.668805,7 z"/>
	</symbol>

	<symbol id="i-check" viewBox="0 0 24 24">
		<path fill-rule="evenodd" clip-rule="evenodd" d="M12 2C6.47715 2 2 6.47715 2 12C2 17.5228 6.47715 22 12 22C17.5228 22 22 17.5228 22 12C22 6.47715 17.5228 2 12 2ZM16.6402 8.2318C17.0645 8.58537 17.1218 9.21593 16.7682 9.64021L11.7682 15.6402C11.5937 15.8497 11.3411 15.9788 11.0691 15.9976C10.797 16.0165 10.5291 15.9234 10.3273 15.74L7.32733 13.0127C6.91868 12.6412 6.88856 12.0087 7.26007 11.6001C7.63157 11.1914 8.26402 11.1613 8.67268 11.5328L10.9002 13.5578L15.2318 8.35984C15.5854 7.93556 16.2159 7.87824 16.6402 8.2318Z"/>
	</symbol>

	<symbol id="i-bitrix" viewBox="0 0 201 202">
		<path d="M157.276 352.796c-17.57-3.639-33.966-11.755-46.837-23.186-33.043-29.347-43.256-75.45-25.8-116.47 4.287-10.075 11.256-20.298 19.891-29.18l7.613-7.83.537 45.83c.514 43.868.63 46.078 2.705 51.606 4.151 11.06 8.602 18.1 16.263 25.73 19.791 19.71 48.821 24.63 73.5 12.455 23.195-11.444 37.818-36.326 36.119-61.46-1.142-16.883-6.82-29.263-19.077-41.597-9.27-9.327-20.174-15.42-32.047-17.904-12.08-2.527-11.5-2.897-11.5 7.328v8.827l6.622 1.22c25.647 4.726 42.61 29.91 37.263 55.327-1.707 8.117-5.515 15.285-11.629 21.888-9.29 10.035-22.36 14.832-33.774 14.81-18.871-.037-34.63-10.76-42.267-26.619 0 0-2-4.533-2.644-7.334-3.78-16.472-1.364-51.148-1.364-51.148l-.293-50.703 2.993-1.547c1.647-.852 3.225-1.548 3.509-1.548.283 0 .643 23.287.8 51.75 0 0-3.635 37.31.857 51.608.648 2.063 1.878 5.591 1.878 5.591 3.937 8.022 10.248 15.079 18.448 18.963 6.224 2.948 9.358 4.282 18.566 4.282 6.017 0 11.347-1.899 17.48-4.72 7.23-3.325 15.523-12.14 18.588-20.19 8.444-22.176-3.314-46.036-25.965-52.689-9.257-2.719-9.068-2.869-9.068 7.197v8.793l4.444 1.188c16.017 4.284 20.904 25.753 8.33 36.785-4.442 3.897-8.445 5.62-15.448 5.62-7.483 0-14.665-4.529-18.358-11.475-2.218-4.173-2.405-8.131-2.405-9.944 0-16.745-.363-46.86-.363-46.86l-.3-51.658 2.3-.57c1.265-.315 6.377-1.092 11.36-1.728 16.9-2.157 41.902 3.374 58.699 12.984 22.9 13.103 40.228 35.61 47.442 61.627 2.482 8.948 2.758 11.55 2.758 25.946 0 14.33-.283 17.019-2.712 25.772-9.812 35.359-34.773 60.635-70.463 71.355-7.511 2.256-11.03 2.686-24.284 2.97-10.696.227-17.629-.111-22.367-1.092z" transform="translate(-76.221 -152.77)"/>
	</symbol>

	<symbol id="i-graph" viewBox="0 0 1010 812">
		<path d="M62.1182 749.527V91.3999H0V749.527V811.666H62.1182H1010V749.527H62.1182Z"/>
		<path d="M247.075 400.367C247.075 376.654 227.677 357.215 203.923 357.215H150.004C126.301 357.215 106.914 376.654 106.914 400.367V708.8H247.075V400.367Z"/>
		<path d="M373.048 270.912C349.345 270.912 329.927 290.309 329.927 314.064V708.8H470.047V314.064C470.047 290.309 450.69 270.912 426.936 270.912H373.048Z"/>
		<path d="M596.051 357.215C572.338 357.215 552.898 376.654 552.898 400.367V708.8H693.06V400.367C693.06 376.654 673.703 357.215 649.97 357.215H596.051Z"/>
		<path d="M872.962 184.567H819.043C795.33 184.567 775.912 204.006 775.912 227.719V708.8H916.094V227.719C916.094 204.006 896.695 184.567 872.962 184.567Z"/>
		<path d="M199.136 302.145L405.001 136.689L594.222 305.762C598.332 309.419 603.469 311.228 608.626 311.228C614.03 311.228 619.414 309.214 623.586 305.186L852.742 83.9204L898.832 129.949H910.75V0H780.781V11.9184L822.248 53.3852L608.03 260.227L420.125 92.3042C412.234 85.2353 400.47 84.9477 392.21 91.5644L172.114 268.528C162.806 276.008 161.316 289.569 168.775 298.898C176.275 308.146 189.848 309.625 199.136 302.145Z"/>
	</symbol>

	<symbol id="i-business" viewBox="0 0 20 18">
		<path fill-rule="evenodd" clip-rule="evenodd" d="M11 13H9C8.45 13 8 12.55 8 12H1.01V16C1.01 17.1 1.91 18 3.01 18H17C18.1 18 19 17.1 19 16V12H12C12 12.55 11.55 13 11 13ZM18 4H14C14 1.79 12.21 0 10 0C7.79 0 6 1.79 6 4H2C0.9 4 0 4.9 0 6V9C0 10.11 0.89 11 2 11H8V10C8 9.45 8.45 9 9 9H11C11.55 9 12 9.45 12 10V11H18C19.1 11 20 10.1 20 9V6C20 4.9 19.1 4 18 4ZM8 4C8 2.9 8.9 2 10 2C11.1 2 12 2.9 12 4H7.99H8Z" />
	</symbol>

	<symbol id="i-clock" viewBox="0 0 24 25">
		<path d="M7.99917 2C6.59585 2 6.56113 4.00215 7.99917 4.00215H8.99553V5.52964C9.63391 5.30192 10.3014 5.13879 10.9961 5.06085V4.00215H12.9985V5.05889C13.6929 5.13603 14.361 5.29882 14.9991 5.52573V4.00215H15.9954C17.4405 4.00215 17.455 2 15.9954 2H7.99917ZM12.0022 6.00234C7.59459 6.00234 3.99812 9.59821 3.99812 14.0051C3.99812 18.4119 7.59459 22 12.0022 22C16.4098 22 19.9984 18.4119 19.9984 14.0051C19.9984 9.59821 16.4098 6.00234 12.0022 6.00234ZM21.0026 6.99853C20.8049 6.99912 20.6119 7.05825 20.4478 7.16846L18.879 8.21348C19.3082 8.72279 19.6794 9.27984 19.9887 9.87576L21.5555 8.82878C22.0116 8.52404 22.1371 7.90877 21.8368 7.44974C21.6523 7.16869 21.3388 6.99919 21.0026 6.99853ZM2.99786 7.00231C2.97371 7.0027 2.94962 7.00396 2.92558 7.00609C2.61735 7.02839 2.33682 7.19224 2.16561 7.4495C1.86373 7.90651 1.98566 8.52128 2.43912 8.82854L4.00984 9.87554C4.31961 9.27968 4.69173 8.72253 5.12146 8.21327L3.55465 7.16847C3.38957 7.05928 3.1958 7.00137 2.99786 7.00231ZM9.7047 10.2917L12.4144 13.0009H15.9954C17.4721 13.0009 17.4333 15.0013 15.9954 15.0013H12.0022C11.736 15.0012 11.4807 14.8951 11.293 14.7063L8.28636 11.708C7.40332 10.8249 8.82944 9.41644 9.7047 10.2917Z" />
	</symbol>

	<symbol id="i-arrow-down" viewBox="0 0 58 34">
		<path d="M1.582 9.816C3.61899 11.905 25.061 32.326 25.061 32.326C26.148 33.441 27.574 34 29 34C30.428 34 31.854 33.441 32.939 32.326C32.939 32.326 54.38 11.905 56.419 9.816C58.456 7.726 58.595 3.968 56.419 1.738C54.245 -0.491001 51.208 -0.668 48.54 1.738L29 20.473L9.461 1.739C6.791 -0.667 3.756 -0.490003 1.582 1.739C-0.596006 3.969 -0.457006 7.727 1.582 9.816Z" />
	</symbol>

	<symbol id="i-close" viewBox="0 0 24 24">
		<path fill-rule="evenodd" clip-rule="evenodd" d="M22 12C22 17.5228 17.5228 22 12 22C6.47715 22 2 17.5228 2 12C2 6.47715 6.47715 2 12 2C17.5228 2 22 6.47715 22 12ZM8.96963 8.96965C9.26252 8.67676 9.73739 8.67676 10.0303 8.96965L12 10.9393L13.9696 8.96967C14.2625 8.67678 14.7374 8.67678 15.0303 8.96967C15.3232 9.26256 15.3232 9.73744 15.0303 10.0303L13.0606 12L15.0303 13.9696C15.3232 14.2625 15.3232 14.7374 15.0303 15.0303C14.7374 15.3232 14.2625 15.3232 13.9696 15.0303L12 13.0607L10.0303 15.0303C9.73742 15.3232 9.26254 15.3232 8.96965 15.0303C8.67676 14.7374 8.67676 14.2625 8.96965 13.9697L10.9393 12L8.96963 10.0303C8.67673 9.73742 8.67673 9.26254 8.96963 8.96965Z"/>
	</symbol>

	<symbol id="i-vk" viewBox="0 0 32 32">
		<path d="M16.563 15.75c-0.5-0.188-0.5-0.906-0.531-1.406-0.125-1.781 0.5-4.5-0.25-5.656-0.531-0.688-3.094-0.625-4.656-0.531-0.438 0.063-0.969 0.156-1.344 0.344s-0.75 0.5-0.75 0.781c0 0.406 0.938 0.344 1.281 0.875 0.375 0.563 0.375 1.781 0.375 2.781 0 1.156-0.188 2.688-0.656 2.75-0.719 0.031-1.125-0.688-1.5-1.219-0.75-1.031-1.5-2.313-2.063-3.563-0.281-0.656-0.438-1.375-0.844-1.656-0.625-0.438-1.75-0.469-2.844-0.438-1 0.031-2.438-0.094-2.719 0.5-0.219 0.656 0.25 1.281 0.5 1.813 1.281 2.781 2.656 5.219 4.344 7.531 1.563 2.156 3.031 3.875 5.906 4.781 0.813 0.25 4.375 0.969 5.094 0 0.25-0.375 0.188-1.219 0.313-1.844s0.281-1.25 0.875-1.281c0.5-0.031 0.781 0.406 1.094 0.719 0.344 0.344 0.625 0.625 0.875 0.938 0.594 0.594 1.219 1.406 1.969 1.719 1.031 0.438 2.625 0.313 4.125 0.25 1.219-0.031 2.094-0.281 2.188-1 0.063-0.563-0.563-1.375-0.938-1.844-0.938-1.156-1.375-1.5-2.438-2.563-0.469-0.469-1.063-0.969-1.063-1.531-0.031-0.344 0.25-0.656 0.5-1 1.094-1.625 2.188-2.781 3.188-4.469 0.281-0.5 0.938-1.656 0.688-2.219-0.281-0.625-1.844-0.438-2.813-0.438-1.25 0-2.875-0.094-3.188 0.156-0.594 0.406-0.844 1.063-1.125 1.688-0.625 1.438-1.469 2.906-2.344 4-0.313 0.375-0.906 1.156-1.25 1.031z"></path>
	</symbol>

	<symbol id="i-tg" viewBox="0 0 48 48">
		<path d="M41.4193 7.30899C41.4193 7.30899 45.3046 5.79399 44.9808 9.47328C44.8729 10.9883 43.9016 16.2908 43.1461 22.0262L40.5559 39.0159C40.5559 39.0159 40.3401 41.5048 38.3974 41.9377C36.4547 42.3705 33.5408 40.4227 33.0011 39.9898C32.5694 39.6652 24.9068 34.7955 22.2086 32.4148C21.4531 31.7655 20.5897 30.4669 22.3165 28.9519L33.6487 18.1305C34.9438 16.8319 36.2389 13.8019 30.8426 17.4812L15.7331 27.7616C15.7331 27.7616 14.0063 28.8437 10.7686 27.8698L3.75342 25.7055C3.75342 25.7055 1.16321 24.0823 5.58815 22.459C16.3807 17.3729 29.6555 12.1786 41.4193 7.30899Z"/>
	</symbol>

	<symbol id="i-vb" viewBox="0 0 24 24">
		<path d="M12.743 13.455s.356.03.547-.206l.374-.47c.18-.232.614-.38 1.04-.144a11.005 11.005 0 0 1 .928.593c.282.207.86.69.862.69.276.233.34.574.152.934l-.002.008a3.896 3.896 0 0 1-.777.957l-.007.005q-.401.335-.789.381a.522.522 0 0 1-.115.008 1.05 1.05 0 0 1-.335-.052l-.009-.012c-.398-.113-1.062-.394-2.169-1.004a12.917 12.917 0 0 1-1.822-1.204 9.553 9.553 0 0 1-.82-.727l-.027-.027-.028-.028-.028-.027-.027-.028a9.553 9.553 0 0 1-.727-.82A12.93 12.93 0 0 1 7.76 10.46c-.61-1.107-.891-1.77-1.004-2.17l-.012-.008a1.05 1.05 0 0 1-.051-.335.506.506 0 0 1 .007-.115q.048-.387.382-.79l.005-.007a3.888 3.888 0 0 1 .957-.777l.007-.001c.36-.188.702-.124.934.15.002.001.484.58.69.862a11.005 11.005 0 0 1 .593.929c.237.425.089.86-.144 1.04l-.47.373c-.237.192-.206.548-.206.548s.696 2.633 3.295 3.296zm-.878-7.875a.253.253 0 0 0-.256.252.253.253 0 0 0 .252.254c1.353.01 2.454.447 3.356 1.326.894.872 1.351 2.057 1.363 3.611a.253.253 0 0 0 .254.252.253.253 0 0 0 .252-.255c-.013-1.654-.517-2.996-1.516-3.97-.99-.965-2.242-1.46-3.705-1.47Zm.463 1.313a.253.253 0 0 0-.271.234.253.253 0 0 0 .234.271c.966.071 1.682.387 2.205.957.524.573.773 1.27.754 2.141a.253.253 0 0 0 .248.258.253.253 0 0 0 .258-.246c.021-.978-.276-1.827-.887-2.494-.617-.674-1.48-1.044-2.54-1.121Zm.379 1.357a.253.253 0 0 0-.266.24.253.253 0 0 0 .239.266c.436.023.73.146.93.351.198.206.32.516.343.971a.253.253 0 0 0 .264.24.253.253 0 0 0 .24-.263c-.027-.537-.18-.984-.484-1.3-.305-.314-.743-.478-1.266-.505Zm6.636-4.3c-.497-.458-2.506-1.916-6.98-1.936 0 0-5.275-.318-7.847 2.041-1.431 1.432-1.935 3.527-1.988 6.125-.053 2.597-.122 7.465 4.57 8.785h.005L7.1 20.98s-.03.815.507.981c.65.202 1.03-.418 1.65-1.086.341-.367.811-.905 1.165-1.317 3.21.27 5.678-.347 5.958-.439.648-.21 4.315-.68 4.91-5.547.616-5.017-.297-8.19-1.947-9.621Zm.544 9.262c-.504 4.064-3.478 4.32-4.026 4.496-.233.075-2.401.614-5.127.436 0 0-2.031 2.45-2.666 3.088-.099.1-.215.14-.293.12-.11-.027-.14-.156-.138-.345l.017-3.347s-.002 0 0 0c-3.97-1.102-3.738-5.246-3.693-7.415.045-2.17.453-3.947 1.664-5.143C7.8 3.132 12.28 3.426 12.28 3.426c3.784.017 5.598 1.157 6.018 1.538 1.396 1.196 2.108 4.056 1.588 8.247z"/>
	</symbol>

</svg>