<svg width="750" height="640" fill="none" xmlns="http://www.w3.org/2000/svg"><mask id="a" maskUnits="userSpaceOnUse" x="0" y="0" width="750" height="640"><path fill="url(#paint0_linear)" d="M0 0h750v640H0z"/></mask><g opacity=".5" mask="url(#a)"><rect opacity=".1" x="234.6" y="66" width="30.6" height="30.6" rx="7" fill="#246EDE"/><rect x="230.5" y="71.1" width="29.6" height="29.6" rx="6.5" fill="#fff" stroke="#246EDE"/><mask id="b" fill="#fff"><path fill-rule="evenodd" clip-rule="evenodd" d="M234.8 75.4a3.2 3.2 0 0 0 0 4.5l6 6-5.7 5.7a3.2 3.2 0 1 0 4.5 4.5l5.7-5.7 5.7 5.7a3.2 3.2 0 1 0 4.5-4.5l-5.7-5.7 6-6a3.2 3.2 0 0 0-4.5-4.5l-6 6-6-6a3.2 3.2 0 0 0-4.5 0z"/></mask><path fill-rule="evenodd" clip-rule="evenodd" d="M234.8 75.4a3.2 3.2 0 0 0 0 4.5l6 6-5.7 5.7a3.2 3.2 0 1 0 4.5 4.5l5.7-5.7 5.7 5.7a3.2 3.2 0 1 0 4.5-4.5l-5.7-5.7 6-6a3.2 3.2 0 0 0-4.5-4.5l-6 6-6-6a3.2 3.2 0 0 0-4.5 0z" fill="#fff"/><path d="M234.8 79.9l.7-.7-.7.7zm0-4.5l-.8-.7.8.7zm6 10.5l.7.7.7-.7-.7-.7-.7.7zm-5.7 5.7l.7.7-.7-.7zm0 4.5l.7-.7-.7.7zm10.2-5.7l.7-.7-.7-.7-.7.7.7.7zm10.2 1.2l.7-.7-.7.7zm-5.7-5.7l-.7-.7-.7.7.7.7.7-.7zm6-6l.7.7-.7-.7zm0-4.5l.7-.7-.7.7zm-4.5 0l.7.7-.7-.7zm-6 6l-.7.7.7.7.7-.7-.7-.7zm-6-6l-.8.7.8-.7zm-3.8 3.8a2.2 2.2 0 0 1 0-3.1l-1.5-1.4a4.2 4.2 0 0 0 0 5.9l1.5-1.4zm6 6l-6-6-1.5 1.4 6 6 1.5-1.4zm-5.7 7.1l5.7-5.7-1.4-1.4-5.8 5.7 1.5 1.4zm0 3.1a2.2 2.2 0 0 1 0-3l-1.5-1.5a4.2 4.2 0 0 0 0 6l1.5-1.5zm3 0a2.2 2.2 0 0 1-3 0l-1.5 1.4a4.2 4.2 0 0 0 6 0l-1.5-1.4zm5.8-5.7l-5.8 5.7 1.5 1.4 5.7-5.7-1.4-1.4zm7 5.7l-5.6-5.7-1.4 1.4 5.7 5.7 1.4-1.4zm3.2 0a2.2 2.2 0 0 1-3.1 0l-1.4 1.4a4.2 4.2 0 0 0 5.9 0l-1.4-1.4zm0-3.1a2.2 2.2 0 0 1 0 3l1.4 1.5a4.2 4.2 0 0 0 0-6l-1.4 1.5zm-5.7-5.7l5.7 5.7 1.4-1.4-5.7-5.7-1.4 1.4zm6-7.4l-6 6 1.4 1.4 6-6-1.4-1.4zm0-3a2.2 2.2 0 0 1 0 3l1.4 1.4a4.2 4.2 0 0 0 0-5.9l-1.4 1.4zm-3.1 0a2.2 2.2 0 0 1 3 0l1.5-1.5a4.2 4.2 0 0 0-6 0l1.5 1.4zm-6 6l6-6-1.4-1.5-6 6 1.4 1.4zm-7.5-6.1l6 6 1.5-1.4-6-6-1.5 1.4zm-3 0a2.2 2.2 0 0 1 3 0l1.5-1.4a4.2 4.2 0 0 0-6 0l1.5 1.4z" fill="#246EDE" mask="url(#b)"/><rect opacity=".1" x="101.6" y="286" width="30.6" height="30.6" rx="7" fill="#246EDE"/><rect x="97.5" y="291.1" width="29.6" height="29.6" rx="6.5" fill="#fff" stroke="#246EDE"/><mask id="c" fill="#fff"><path fill-rule="evenodd" clip-rule="evenodd" d="M101.8 295.4a3.2 3.2 0 0 0 0 4.5l6 6-5.7 5.7a3.2 3.2 0 1 0 4.5 4.5l5.7-5.7 5.7 5.7a3.2 3.2 0 1 0 4.5-4.5l-5.7-5.7 6-6a3.2 3.2 0 0 0-4.5-4.5l-6 6-6-6a3.2 3.2 0 0 0-4.5 0z"/></mask><path fill-rule="evenodd" clip-rule="evenodd" d="M101.8 295.4a3.2 3.2 0 0 0 0 4.5l6 6-5.7 5.7a3.2 3.2 0 1 0 4.5 4.5l5.7-5.7 5.7 5.7a3.2 3.2 0 1 0 4.5-4.5l-5.7-5.7 6-6a3.2 3.2 0 0 0-4.5-4.5l-6 6-6-6a3.2 3.2 0 0 0-4.5 0z" fill="#fff"/><path d="M101.8 299.9l.7-.7-.7.7zm0-4.5l-.8-.7.8.7zm6 10.5l.7.7.7-.7-.7-.7-.7.7zm-5.7 5.7l.7.7-.7-.7zm0 4.5l.7-.7-.7.7zm10.2-5.7l.7-.7-.7-.7-.7.7.7.7zm10.2 1.2l.7-.7-.7.7zm-5.7-5.7l-.7-.7-.7.7.7.7.7-.7zm6-6l.7.7-.7-.7zm0-4.5l.7-.7-.7.7zm-4.5 0l.7.7-.7-.7zm-6 6l-.7.7.7.7.7-.7-.7-.7zm-6-6l-.8.7.8-.7zm-3.8 3.8a2.2 2.2 0 0 1 0-3.1l-1.5-1.4a4.2 4.2 0 0 0 0 5.9l1.5-1.4zm6 6l-6-6-1.5 1.4 6 6 1.5-1.4zm-5.7 7.1l5.7-5.7-1.4-1.4-5.8 5.7 1.5 1.4zm0 3.1a2.2 2.2 0 0 1 0-3l-1.5-1.5a4.2 4.2 0 0 0 0 6l1.5-1.5zm3 0a2.2 2.2 0 0 1-3 0l-1.5 1.4a4.2 4.2 0 0 0 6 0l-1.5-1.4zm5.8-5.7l-5.8 5.7 1.5 1.4 5.7-5.7-1.4-1.4zm7 5.7l-5.6-5.7-1.4 1.4 5.7 5.7 1.4-1.4zm3.2 0a2.2 2.2 0 0 1-3.1 0l-1.4 1.4a4.2 4.2 0 0 0 5.9 0l-1.4-1.4zm0-3.1a2.2 2.2 0 0 1 0 3l1.4 1.5a4.2 4.2 0 0 0 0-6l-1.4 1.5zm-5.7-5.7l5.7 5.7 1.4-1.4-5.7-5.7-1.4 1.4zm6-7.4l-6 6 1.4 1.4 6-6-1.4-1.4zm0-3a2.2 2.2 0 0 1 0 3l1.4 1.4a4.2 4.2 0 0 0 0-5.9l-1.4 1.4zm-3.1 0a2.2 2.2 0 0 1 3 0l1.5-1.5a4.2 4.2 0 0 0-6 0l1.5 1.4zm-6 6l6-6-1.4-1.5-6 6 1.4 1.4zm-7.5-6.1l6 6 1.5-1.4-6-6-1.5 1.4zm-3 0a2.2 2.2 0 0 1 3 0l1.5-1.4a4.2 4.2 0 0 0-6 0l1.5 1.4z" fill="#246EDE" mask="url(#c)"/><rect opacity=".1" x="326.6" y="345" width="30.6" height="30.6" rx="7" fill="#246EDE"/><rect x="322.5" y="350.1" width="29.6" height="29.6" rx="6.5" fill="#fff" stroke="#246EDE"/><mask id="d" fill="#fff"><path fill-rule="evenodd" clip-rule="evenodd" d="M326.8 354.4a3.2 3.2 0 0 0 0 4.5l6 6-5.7 5.7a3.2 3.2 0 1 0 4.5 4.5l5.7-5.7 5.7 5.7a3.2 3.2 0 1 0 4.5-4.5l-5.7-5.7 6-6a3.2 3.2 0 0 0-4.5-4.5l-6 6-6-6a3.2 3.2 0 0 0-4.5 0z"/></mask><path fill-rule="evenodd" clip-rule="evenodd" d="M326.8 354.4a3.2 3.2 0 0 0 0 4.5l6 6-5.7 5.7a3.2 3.2 0 1 0 4.5 4.5l5.7-5.7 5.7 5.7a3.2 3.2 0 1 0 4.5-4.5l-5.7-5.7 6-6a3.2 3.2 0 0 0-4.5-4.5l-6 6-6-6a3.2 3.2 0 0 0-4.5 0z" fill="#fff"/><path d="M326.8 358.9l.7-.7-.7.7zm0-4.5l-.8-.7.8.7zm6 10.5l.7.7.7-.7-.7-.7-.7.7zm-5.7 5.7l.7.7-.7-.7zm0 4.5l.7-.7-.7.7zm10.2-5.7l.7-.7-.7-.7-.7.7.7.7zm10.2 1.2l.7-.7-.7.7zm-5.7-5.7l-.7-.7-.7.7.7.7.7-.7zm6-6l.7.7-.7-.7zm0-4.5l.7-.7-.7.7zm-4.5 0l.7.7-.7-.7zm-6 6l-.7.7.7.7.7-.7-.7-.7zm-6-6l-.8.7.8-.7zm-3.8 3.8a2.2 2.2 0 0 1 0-3.1l-1.5-1.4a4.2 4.2 0 0 0 0 5.9l1.5-1.4zm6 6l-6-6-1.5 1.4 6 6 1.5-1.4zm-5.7 7.1l5.7-5.7-1.4-1.4-5.8 5.7 1.5 1.4zm0 3.1a2.2 2.2 0 0 1 0-3l-1.5-1.5a4.2 4.2 0 0 0 0 6l1.5-1.5zm3 0a2.2 2.2 0 0 1-3 0l-1.5 1.4a4.2 4.2 0 0 0 6 0l-1.5-1.4zm5.8-5.7l-5.8 5.7 1.5 1.4 5.7-5.7-1.4-1.4zm7 5.7l-5.6-5.7-1.4 1.4 5.7 5.7 1.4-1.4zm3.2 0a2.2 2.2 0 0 1-3.1 0l-1.4 1.4a4.2 4.2 0 0 0 5.9 0l-1.4-1.4zm0-3.1a2.2 2.2 0 0 1 0 3l1.4 1.5a4.2 4.2 0 0 0 0-6l-1.4 1.5zm-5.7-5.7l5.7 5.7 1.4-1.4-5.7-5.7-1.4 1.4zm6-7.4l-6 6 1.4 1.4 6-6-1.4-1.4zm0-3a2.2 2.2 0 0 1 0 3l1.4 1.4a4.2 4.2 0 0 0 0-5.9l-1.4 1.4zm-3.1 0a2.2 2.2 0 0 1 3 0l1.5-1.5a4.2 4.2 0 0 0-6 0l1.5 1.4zm-6 6l6-6-1.4-1.5-6 6 1.4 1.4zm-7.5-6.1l6 6 1.5-1.4-6-6-1.5 1.4zm-3 0a2.2 2.2 0 0 1 3 0l1.5-1.4a4.2 4.2 0 0 0-6 0l1.5 1.4z" fill="#246EDE" mask="url(#d)"/><rect opacity=".1" x="325.6" y="401" width="30.6" height="30.6" rx="7" fill="#246EDE"/><rect x="321.5" y="406.1" width="29.6" height="29.6" rx="6.5" fill="#fff" stroke="#246EDE"/><mask id="e" fill="#fff"><path fill-rule="evenodd" clip-rule="evenodd" d="M325.8 410.4a3.2 3.2 0 0 0 0 4.5l6 6-5.7 5.7a3.2 3.2 0 1 0 4.5 4.5l5.7-5.7 5.7 5.7a3.2 3.2 0 1 0 4.5-4.5l-5.7-5.7 6-6a3.2 3.2 0 0 0-4.5-4.5l-6 6-6-6a3.2 3.2 0 0 0-4.5 0z"/></mask><path fill-rule="evenodd" clip-rule="evenodd" d="M325.8 410.4a3.2 3.2 0 0 0 0 4.5l6 6-5.7 5.7a3.2 3.2 0 1 0 4.5 4.5l5.7-5.7 5.7 5.7a3.2 3.2 0 1 0 4.5-4.5l-5.7-5.7 6-6a3.2 3.2 0 0 0-4.5-4.5l-6 6-6-6a3.2 3.2 0 0 0-4.5 0z" fill="#fff"/><path d="M325.8 414.9l.7-.7-.7.7zm0-4.5l-.8-.7.8.7zm6 10.5l.7.7.7-.7-.7-.7-.7.7zm-5.7 5.7l.7.7-.7-.7zm0 4.5l.7-.7-.7.7zm10.2-5.7l.7-.7-.7-.7-.7.7.7.7zm10.2 1.2l.7-.7-.7.7zm-5.7-5.7l-.7-.7-.7.7.7.7.7-.7zm6-6l.7.7-.7-.7zm0-4.5l.7-.7-.7.7zm-4.5 0l.7.7-.7-.7zm-6 6l-.7.7.7.7.7-.7-.7-.7zm-6-6l-.8.7.8-.7zm-3.8 3.8a2.2 2.2 0 0 1 0-3.1l-1.5-1.4a4.2 4.2 0 0 0 0 5.9l1.5-1.4zm6 6l-6-6-1.5 1.4 6 6 1.5-1.4zm-5.7 7.1l5.7-5.7-1.4-1.4-5.8 5.7 1.5 1.4zm0 3.1a2.2 2.2 0 0 1 0-3l-1.5-1.5a4.2 4.2 0 0 0 0 6l1.5-1.5zm3 0a2.2 2.2 0 0 1-3 0l-1.5 1.4a4.2 4.2 0 0 0 6 0l-1.5-1.4zm5.8-5.7l-5.8 5.7 1.5 1.4 5.7-5.7-1.4-1.4zm7 5.7l-5.6-5.7-1.4 1.4 5.7 5.7 1.4-1.4zm3.2 0a2.2 2.2 0 0 1-3.1 0l-1.4 1.4a4.2 4.2 0 0 0 5.9 0l-1.4-1.4zm0-3.1a2.2 2.2 0 0 1 0 3l1.4 1.5a4.2 4.2 0 0 0 0-6l-1.4 1.5zm-5.7-5.7l5.7 5.7 1.4-1.4-5.7-5.7-1.4 1.4zm6-7.4l-6 6 1.4 1.4 6-6-1.4-1.4zm0-3a2.2 2.2 0 0 1 0 3l1.4 1.4a4.2 4.2 0 0 0 0-5.9l-1.4 1.4zm-3.1 0a2.2 2.2 0 0 1 3 0l1.5-1.5a4.2 4.2 0 0 0-6 0l1.5 1.4zm-6 6l6-6-1.4-1.5-6 6 1.4 1.4zm-7.5-6.1l6 6 1.5-1.4-6-6-1.5 1.4zm-3 0a2.2 2.2 0 0 1 3 0l1.5-1.4a4.2 4.2 0 0 0-6 0l1.5 1.4z" fill="#246EDE" mask="url(#e)"/><rect opacity=".1" x="101.6" y="173" width="30.6" height="30.6" rx="7" fill="#246EDE"/><rect x="97.5" y="178.1" width="29.6" height="29.6" rx="6.5" fill="#fff" stroke="#246EDE"/><mask id="f" fill="#fff"><path fill-rule="evenodd" clip-rule="evenodd" d="M101.8 182.4a3.2 3.2 0 0 0 0 4.5l6 6-5.7 5.7a3.2 3.2 0 1 0 4.5 4.5l5.7-5.7 5.7 5.7a3.2 3.2 0 1 0 4.5-4.5l-5.7-5.7 6-6a3.2 3.2 0 0 0-4.5-4.5l-6 6-6-6a3.2 3.2 0 0 0-4.5 0z"/></mask><path fill-rule="evenodd" clip-rule="evenodd" d="M101.8 182.4a3.2 3.2 0 0 0 0 4.5l6 6-5.7 5.7a3.2 3.2 0 1 0 4.5 4.5l5.7-5.7 5.7 5.7a3.2 3.2 0 1 0 4.5-4.5l-5.7-5.7 6-6a3.2 3.2 0 0 0-4.5-4.5l-6 6-6-6a3.2 3.2 0 0 0-4.5 0z" fill="#fff"/><path d="M101.8 186.9l.7-.7-.7.7zm0-4.5l-.8-.7.8.7zm6 10.5l.7.7.7-.7-.7-.7-.7.7zm-5.7 5.7l.7.7-.7-.7zm0 4.5l.7-.7-.7.7zm10.2-5.7l.7-.7-.7-.7-.7.7.7.7zm10.2 1.2l.7-.7-.7.7zm-5.7-5.7l-.7-.7-.7.7.7.7.7-.7zm6-6l.7.7-.7-.7zm0-4.5l.7-.7-.7.7zm-4.5 0l.7.7-.7-.7zm-6 6l-.7.7.7.7.7-.7-.7-.7zm-6-6l-.8.7.8-.7zm-3.8 3.8a2.2 2.2 0 0 1 0-3.1l-1.5-1.4a4.2 4.2 0 0 0 0 5.9l1.5-1.4zm6 6l-6-6-1.5 1.4 6 6 1.5-1.4zm-5.7 7.1l5.7-5.7-1.4-1.4-5.8 5.7 1.5 1.4zm0 3.1a2.2 2.2 0 0 1 0-3l-1.5-1.5a4.2 4.2 0 0 0 0 6l1.5-1.5zm3 0a2.2 2.2 0 0 1-3 0l-1.5 1.4a4.2 4.2 0 0 0 6 0l-1.5-1.4zm5.8-5.7l-5.8 5.7 1.5 1.4 5.7-5.7-1.4-1.4zm7 5.7l-5.6-5.7-1.4 1.4 5.7 5.7 1.4-1.4zm3.2 0a2.2 2.2 0 0 1-3.1 0l-1.4 1.4a4.2 4.2 0 0 0 5.9 0l-1.4-1.4zm0-3.1a2.2 2.2 0 0 1 0 3l1.4 1.5a4.2 4.2 0 0 0 0-6l-1.4 1.5zm-5.7-5.7l5.7 5.7 1.4-1.4-5.7-5.7-1.4 1.4zm6-7.4l-6 6 1.4 1.4 6-6-1.4-1.4zm0-3a2.2 2.2 0 0 1 0 3l1.4 1.4a4.2 4.2 0 0 0 0-5.9l-1.4 1.4zm-3.1 0a2.2 2.2 0 0 1 3 0l1.5-1.5a4.2 4.2 0 0 0-6 0l1.5 1.4zm-6 6l6-6-1.4-1.5-6 6 1.4 1.4zm-7.5-6.1l6 6 1.5-1.4-6-6-1.5 1.4zm-3 0a2.2 2.2 0 0 1 3 0l1.5-1.4a4.2 4.2 0 0 0-6 0l1.5 1.4z" fill="#246EDE" mask="url(#f)"/><rect opacity=".1" x="173.6" y="173" width="30.6" height="30.6" rx="7" fill="#246EDE"/><rect x="169.5" y="178.1" width="29.6" height="29.6" rx="6.5" fill="#fff" stroke="#246EDE"/><mask id="g" fill="#fff"><path fill-rule="evenodd" clip-rule="evenodd" d="M195.4 185a3.2 3.2 0 0 0-4.5 0l-8.7 9-3.8-3.7a3.2 3.2 0 0 0-4.5 4.5l5.8 5.8c.3.3.6.5 1 .6a3.2 3.2 0 0 0 3.8-.5l11-11.3a3.2 3.2 0 0 0 0-4.5z"/></mask><path fill-rule="evenodd" clip-rule="evenodd" d="M195.4 185a3.2 3.2 0 0 0-4.5 0l-8.7 9-3.8-3.7a3.2 3.2 0 0 0-4.5 4.5l5.8 5.8c.3.3.6.5 1 .6a3.2 3.2 0 0 0 3.8-.5l11-11.3a3.2 3.2 0 0 0 0-4.5z" fill="#fff"/><path d="M191 185l-.8-.7.7.7zm4.4 0l-.7.6.7-.7zm-13.2 9l-.7.7.7.7.7-.7-.7-.7zm-8.3-3.7l.7.7-.7-.7zm0 4.5l.7-.7-.7.7zm5.8 5.8l.8-.7-.8.7zm1 .6l.5-.8h-.1l-.4.8zm3.8-.5l.8.7-.8-.7zm11-11.3l.7.7-.7-.7zm-3.9-3.7a2.2 2.2 0 0 1 3.1 0l1.5-1.5a4.2 4.2 0 0 0-6 0l1.4 1.5zm-8.7 9l8.7-9-1.4-1.4-8.8 9 1.5 1.4zm-5.2-3.7l3.8 3.7 1.4-1.4-3.8-3.7-1.4 1.4zm-3 0a2.2 2.2 0 0 1 3 0l1.4-1.4a4.2 4.2 0 0 0-5.9 0l1.4 1.4zm0 3a2.2 2.2 0 0 1 0-3l-1.5-1.4a4.2 4.2 0 0 0 0 5.9l1.4-1.4zm5.8 5.9l-5.9-5.8-1.4 1.4 5.8 5.8 1.5-1.4zm.6.4a2.2 2.2 0 0 1-.6-.4l-1.5 1.4 1.3.8.8-1.8zm2.7-.3a2.2 2.2 0 0 1-2.6.4l-1 1.7a4.2 4.2 0 0 0 5-.7l-1.4-1.4zm11-11.3l-11 11.3 1.5 1.4 10.9-11.3-1.4-1.4zm0-3c.8.8.8 2.1 0 3l1.4 1.4a4.2 4.2 0 0 0 0-5.9l-1.5 1.4z" fill="#246EDE" mask="url(#g)"/><rect opacity=".1" x="229.6" y="371" width="30.6" height="30.6" rx="7" fill="#246EDE"/><rect x="225.5" y="376.1" width="29.6" height="29.6" rx="6.5" fill="#fff" stroke="#246EDE"/><mask id="h" fill="#fff"><path fill-rule="evenodd" clip-rule="evenodd" d="M251.4 383a3.2 3.2 0 0 0-4.5 0l-8.7 9-3.8-3.7a3.2 3.2 0 0 0-4.5 4.5l5.8 5.8c.3.3.6.5 1 .6a3.2 3.2 0 0 0 3.8-.5l11-11.3a3.2 3.2 0 0 0 0-4.5z"/></mask><path fill-rule="evenodd" clip-rule="evenodd" d="M251.4 383a3.2 3.2 0 0 0-4.5 0l-8.7 9-3.8-3.7a3.2 3.2 0 0 0-4.5 4.5l5.8 5.8c.3.3.6.5 1 .6a3.2 3.2 0 0 0 3.8-.5l11-11.3a3.2 3.2 0 0 0 0-4.5z" fill="#fff"/><path d="M247 383l-.8-.7.7.7zm4.4 0l-.7.6.7-.7zm-13.2 9l-.7.7.7.7.7-.7-.7-.7zm-8.3-3.7l.7.7-.7-.7zm0 4.5l.7-.7-.7.7zm5.8 5.8l.8-.7-.8.7zm1 .6l.5-.8h-.1l-.4.8zm3.8-.5l.8.7-.8-.7zm11-11.3l.7.7-.7-.7zm-3.9-3.7a2.2 2.2 0 0 1 3.1 0l1.5-1.5a4.2 4.2 0 0 0-6 0l1.4 1.5zm-8.7 9l8.7-9-1.4-1.4-8.8 9 1.5 1.4zm-5.2-3.7l3.8 3.7 1.4-1.4-3.8-3.7-1.4 1.4zm-3 0a2.2 2.2 0 0 1 3 0l1.4-1.4a4.2 4.2 0 0 0-5.9 0l1.4 1.4zm0 3a2.2 2.2 0 0 1 0-3l-1.5-1.4a4.2 4.2 0 0 0 0 5.9l1.4-1.4zm5.8 5.9l-5.9-5.8-1.4 1.4 5.8 5.8 1.5-1.4zm.6.4a2.2 2.2 0 0 1-.6-.4l-1.5 1.4 1.3.8.8-1.8zm2.7-.3a2.2 2.2 0 0 1-2.6.4l-1 1.7a4.2 4.2 0 0 0 5-.7l-1.4-1.4zm11-11.3l-11 11.3 1.5 1.4 10.9-11.3-1.4-1.4zm0-3c.8.8.8 2.1 0 3l1.4 1.4a4.2 4.2 0 0 0 0-5.9l-1.5 1.4z" fill="#246EDE" mask="url(#h)"/><rect opacity=".1" x="278.6" y="473" width="30.6" height="30.6" rx="7" fill="#246EDE"/><rect x="274.5" y="478.1" width="29.6" height="29.6" rx="6.5" fill="#fff" stroke="#246EDE"/><mask id="i" fill="#fff"><path fill-rule="evenodd" clip-rule="evenodd" d="M300.4 485a3.2 3.2 0 0 0-4.5 0l-8.7 9-3.8-3.7a3.2 3.2 0 0 0-4.5 4.5l5.8 5.8c.3.3.6.5 1 .6a3.2 3.2 0 0 0 3.8-.5l11-11.3a3.2 3.2 0 0 0 0-4.5z"/></mask><path fill-rule="evenodd" clip-rule="evenodd" d="M300.4 485a3.2 3.2 0 0 0-4.5 0l-8.7 9-3.8-3.7a3.2 3.2 0 0 0-4.5 4.5l5.8 5.8c.3.3.6.5 1 .6a3.2 3.2 0 0 0 3.8-.5l11-11.3a3.2 3.2 0 0 0 0-4.5z" fill="#fff"/><path d="M296 485l-.8-.7.7.7zm4.4 0l-.7.6.7-.7zm-13.2 9l-.7.7.7.7.7-.7-.7-.7zm-8.3-3.7l.7.7-.7-.7zm0 4.5l.7-.7-.7.7zm5.8 5.8l.8-.7-.8.7zm1 .6l.5-.8h-.1l-.4.8zm3.8-.5l.8.7-.8-.7zm11-11.3l.7.7-.7-.7zm-3.9-3.7a2.2 2.2 0 0 1 3.1 0l1.5-1.5a4.2 4.2 0 0 0-6 0l1.4 1.5zm-8.7 9l8.7-9-1.4-1.4-8.8 9 1.5 1.4zm-5.2-3.7l3.8 3.7 1.4-1.4-3.8-3.7-1.4 1.4zm-3 0a2.2 2.2 0 0 1 3 0l1.4-1.4a4.2 4.2 0 0 0-5.9 0l1.4 1.4zm0 3a2.2 2.2 0 0 1 0-3l-1.5-1.4a4.2 4.2 0 0 0 0 5.9l1.4-1.4zm5.7 5.9l-5.8-5.8-1.4 1.4 5.8 5.8 1.4-1.4zm.7.4a2.2 2.2 0 0 1-.7-.4l-1.4 1.4 1.3.8.8-1.8zm2.7-.3a2.2 2.2 0 0 1-2.6.4l-1 1.7a4.2 4.2 0 0 0 5-.7l-1.4-1.4zm11-11.3l-11 11.3 1.5 1.4 10.9-11.3-1.4-1.4zm0-3c.8.8.8 2.1 0 3l1.4 1.4a4.2 4.2 0 0 0 0-5.9l-1.5 1.4z" fill="#246EDE" mask="url(#i)"/><rect opacity=".1" x="278.6" y="172" width="30.6" height="30.6" rx="7" fill="#246EDE"/><rect x="274.5" y="177.1" width="29.6" height="29.6" rx="6.5" fill="#fff" stroke="#246EDE"/><mask id="j" fill="#fff"><path fill-rule="evenodd" clip-rule="evenodd" d="M300.4 184a3.2 3.2 0 0 0-4.5 0l-8.7 9-3.8-3.7a3.2 3.2 0 0 0-4.5 4.5l5.8 5.8c.3.3.6.5 1 .6a3.2 3.2 0 0 0 3.8-.5l11-11.3a3.2 3.2 0 0 0 0-4.5z"/></mask><path fill-rule="evenodd" clip-rule="evenodd" d="M300.4 184a3.2 3.2 0 0 0-4.5 0l-8.7 9-3.8-3.7a3.2 3.2 0 0 0-4.5 4.5l5.8 5.8c.3.3.6.5 1 .6a3.2 3.2 0 0 0 3.8-.5l11-11.3a3.2 3.2 0 0 0 0-4.5z" fill="#fff"/><path d="M296 184l-.8-.7.7.7zm4.4 0l-.7.6.7-.7zm-13.2 9l-.7.7.7.7.7-.7-.7-.7zm-8.3-3.7l.7.7-.7-.7zm0 4.5l.7-.7-.7.7zm5.8 5.8l.8-.7-.8.7zm1 .6l.5-.8h-.1l-.4.8zm3.8-.5l.8.7-.8-.7zm11-11.3l.7.7-.7-.7zm-3.9-3.7a2.2 2.2 0 0 1 3.1 0l1.5-1.5a4.2 4.2 0 0 0-6 0l1.4 1.5zm-8.7 9l8.7-9-1.4-1.4-8.8 9 1.5 1.4zm-5.2-3.7l3.8 3.7 1.4-1.4-3.8-3.7-1.4 1.4zm-3 0a2.2 2.2 0 0 1 3 0l1.4-1.4a4.2 4.2 0 0 0-5.9 0l1.4 1.4zm0 3a2.2 2.2 0 0 1 0-3l-1.5-1.4a4.2 4.2 0 0 0 0 5.9l1.4-1.4zm5.7 5.9l-5.8-5.8-1.4 1.4 5.8 5.8 1.4-1.4zm.7.4a2.2 2.2 0 0 1-.7-.4l-1.4 1.4 1.3.8.8-1.8zm2.7-.3a2.2 2.2 0 0 1-2.6.4l-1 1.7a4.2 4.2 0 0 0 5-.7l-1.4-1.4zm11-11.3l-11 11.3 1.5 1.4 10.9-11.3-1.4-1.4zm0-3c.8.8.8 2.1 0 3l1.4 1.4a4.2 4.2 0 0 0 0-5.9l-1.5 1.4z" fill="#246EDE" mask="url(#j)"/><rect opacity=".1" x="173.6" y="286" width="30.6" height="30.6" rx="7" fill="#246EDE"/><rect x="169.5" y="291.1" width="29.6" height="29.6" rx="6.5" fill="#fff" stroke="#246EDE"/><mask id="k" fill="#fff"><path fill-rule="evenodd" clip-rule="evenodd" d="M195.4 298a3.2 3.2 0 0 0-4.5 0l-8.7 9-3.8-3.7a3.2 3.2 0 0 0-4.5 4.5l5.8 5.8c.3.3.6.5 1 .6a3.2 3.2 0 0 0 3.8-.5l11-11.3a3.2 3.2 0 0 0 0-4.5z"/></mask><path fill-rule="evenodd" clip-rule="evenodd" d="M195.4 298a3.2 3.2 0 0 0-4.5 0l-8.7 9-3.8-3.7a3.2 3.2 0 0 0-4.5 4.5l5.8 5.8c.3.3.6.5 1 .6a3.2 3.2 0 0 0 3.8-.5l11-11.3a3.2 3.2 0 0 0 0-4.5z" fill="#fff"/><path d="M191 298l-.8-.7.7.7zm4.4 0l-.7.6.7-.7zm-13.2 9l-.7.7.7.7.7-.7-.7-.7zm-8.3-3.7l.7.7-.7-.7zm0 4.5l.7-.7-.7.7zm5.8 5.8l.8-.7-.8.7zm1 .6l.5-.8h-.1l-.4.8zm3.8-.5l.8.7-.8-.7zm11-11.3l.7.7-.7-.7zm-3.9-3.7a2.2 2.2 0 0 1 3.1 0l1.5-1.5a4.2 4.2 0 0 0-6 0l1.4 1.5zm-8.7 9l8.7-9-1.4-1.4-8.8 9 1.5 1.4zm-5.2-3.7l3.8 3.7 1.4-1.4-3.8-3.7-1.4 1.4zm-3 0a2.2 2.2 0 0 1 3 0l1.4-1.4a4.2 4.2 0 0 0-5.9 0l1.4 1.4zm0 3a2.2 2.2 0 0 1 0-3l-1.5-1.4a4.2 4.2 0 0 0 0 5.9l1.4-1.4zm5.8 5.9l-5.9-5.8-1.4 1.4 5.8 5.8 1.5-1.4zm.6.4a2.2 2.2 0 0 1-.6-.4l-1.5 1.4 1.3.8.8-1.8zm2.7-.3a2.2 2.2 0 0 1-2.6.4l-1 1.7a4.2 4.2 0 0 0 5-.7l-1.4-1.4zm11-11.3l-11 11.3 1.5 1.4 10.9-11.3-1.4-1.4zm0-3c.8.8.8 2.1 0 3l1.4 1.4a4.2 4.2 0 0 0 0-5.9l-1.5 1.4z" fill="#246EDE" mask="url(#k)"/><rect opacity=".1" x="173.6" y="531" width="30.6" height="30.6" rx="7" fill="#246EDE"/><rect x="169.5" y="536.1" width="29.6" height="29.6" rx="6.5" fill="#fff" stroke="#246EDE"/><mask id="l" fill="#fff"><path fill-rule="evenodd" clip-rule="evenodd" d="M195.4 543a3.2 3.2 0 0 0-4.5 0l-8.7 9-3.8-3.7a3.2 3.2 0 0 0-4.5 4.5l5.8 5.8c.3.3.6.5 1 .6a3.2 3.2 0 0 0 3.8-.5l11-11.3a3.2 3.2 0 0 0 0-4.5z"/></mask><path fill-rule="evenodd" clip-rule="evenodd" d="M195.4 543a3.2 3.2 0 0 0-4.5 0l-8.7 9-3.8-3.7a3.2 3.2 0 0 0-4.5 4.5l5.8 5.8c.3.3.6.5 1 .6a3.2 3.2 0 0 0 3.8-.5l11-11.3a3.2 3.2 0 0 0 0-4.5z" fill="#fff"/><path d="M191 543l-.8-.7.7.7zm4.4 0l-.7.6.7-.7zm-13.2 9l-.7.7.7.7.7-.7-.7-.7zm-8.3-3.7l.7.7-.7-.7zm0 4.5l.7-.7-.7.7zm5.8 5.8l.8-.7-.8.7zm1 .6l.5-.8h-.1l-.4.8zm3.8-.5l.8.7-.8-.7zm11-11.3l.7.7-.7-.7zm-3.9-3.7a2.2 2.2 0 0 1 3.1 0l1.5-1.5a4.2 4.2 0 0 0-6 0l1.4 1.5zm-8.7 9l8.7-9-1.4-1.4-8.8 9 1.5 1.4zm-5.2-3.7l3.8 3.7 1.4-1.4-3.8-3.7-1.4 1.4zm-3 0a2.2 2.2 0 0 1 3 0l1.4-1.4a4.2 4.2 0 0 0-5.9 0l1.4 1.4zm0 3a2.2 2.2 0 0 1 0-3l-1.5-1.4a4.2 4.2 0 0 0 0 5.9l1.4-1.4zm5.8 5.9l-5.9-5.8-1.4 1.4 5.8 5.8 1.5-1.4zm.6.4a2.2 2.2 0 0 1-.6-.4l-1.5 1.4 1.3.8.8-1.8zm2.7-.3a2.2 2.2 0 0 1-2.6.4l-1 1.7a4.2 4.2 0 0 0 5-.7l-1.4-1.4zm11-11.3l-11 11.3 1.5 1.4 10.9-11.3-1.4-1.4zm0-3c.8.8.8 2.1 0 3l1.4 1.4a4.2 4.2 0 0 0 0-5.9l-1.5 1.4z" fill="#246EDE" mask="url(#l)"/><rect opacity=".1" x="173.6" y="419" width="30.6" height="30.6" rx="7" fill="#246EDE"/><rect x="169.5" y="424.1" width="29.6" height="29.6" rx="6.5" fill="#fff" stroke="#246EDE"/><mask id="m" fill="#fff"><path fill-rule="evenodd" clip-rule="evenodd" d="M195.4 431a3.2 3.2 0 0 0-4.5 0l-8.7 9-3.8-3.7a3.2 3.2 0 0 0-4.5 4.5l5.8 5.8c.3.3.6.5 1 .6a3.2 3.2 0 0 0 3.8-.5l11-11.3a3.2 3.2 0 0 0 0-4.5z"/></mask><path fill-rule="evenodd" clip-rule="evenodd" d="M195.4 431a3.2 3.2 0 0 0-4.5 0l-8.7 9-3.8-3.7a3.2 3.2 0 0 0-4.5 4.5l5.8 5.8c.3.3.6.5 1 .6a3.2 3.2 0 0 0 3.8-.5l11-11.3a3.2 3.2 0 0 0 0-4.5z" fill="#fff"/><path d="M191 431l-.8-.7.7.7zm4.4 0l-.7.6.7-.7zm-13.2 9l-.7.7.7.7.7-.7-.7-.7zm-8.3-3.7l.7.7-.7-.7zm0 4.5l.7-.7-.7.7zm5.8 5.8l.8-.7-.8.7zm1 .6l.5-.8h-.1l-.4.8zm3.8-.5l.8.7-.8-.7zm11-11.3l.7.7-.7-.7zm-3.9-3.7a2.2 2.2 0 0 1 3.1 0l1.5-1.5a4.2 4.2 0 0 0-6 0l1.4 1.5zm-8.7 9l8.7-9-1.4-1.4-8.8 9 1.5 1.4zm-5.2-3.7l3.8 3.7 1.4-1.4-3.8-3.7-1.4 1.4zm-3 0a2.2 2.2 0 0 1 3 0l1.4-1.4a4.2 4.2 0 0 0-5.9 0l1.4 1.4zm0 3a2.2 2.2 0 0 1 0-3l-1.5-1.4a4.2 4.2 0 0 0 0 5.9l1.4-1.4zm5.8 5.9l-5.9-5.8-1.4 1.4 5.8 5.8 1.5-1.4zm.6.4a2.2 2.2 0 0 1-.6-.4l-1.5 1.4 1.3.8.8-1.8zm2.7-.3a2.2 2.2 0 0 1-2.6.4l-1 1.7a4.2 4.2 0 0 0 5-.7l-1.4-1.4zm11-11.3l-11 11.3 1.5 1.4 10.9-11.3-1.4-1.4zm0-3c.8.8.8 2.1 0 3l1.4 1.4a4.2 4.2 0 0 0 0-5.9l-1.5 1.4z" fill="#246EDE" mask="url(#m)"/><rect opacity=".1" x="101.6" y="419" width="30.6" height="30.6" rx="7" fill="#246EDE"/><rect x="97.5" y="424.1" width="29.6" height="29.6" rx="6.5" fill="#fff" stroke="#246EDE"/><mask id="n" fill="#fff"><path fill-rule="evenodd" clip-rule="evenodd" d="M101.8 428.4a3.2 3.2 0 0 0 0 4.5l6 6-5.7 5.7a3.2 3.2 0 1 0 4.5 4.5l5.7-5.7 5.7 5.7a3.2 3.2 0 1 0 4.5-4.5l-5.7-5.7 6-6a3.2 3.2 0 0 0-4.5-4.5l-6 6-6-6a3.2 3.2 0 0 0-4.5 0z"/></mask><path fill-rule="evenodd" clip-rule="evenodd" d="M101.8 428.4a3.2 3.2 0 0 0 0 4.5l6 6-5.7 5.7a3.2 3.2 0 1 0 4.5 4.5l5.7-5.7 5.7 5.7a3.2 3.2 0 1 0 4.5-4.5l-5.7-5.7 6-6a3.2 3.2 0 0 0-4.5-4.5l-6 6-6-6a3.2 3.2 0 0 0-4.5 0z" fill="#fff"/><path d="M101.8 432.9l.7-.7-.7.7zm0-4.5l-.8-.7.8.7zm6 10.5l.7.7.7-.7-.7-.7-.7.7zm-5.7 5.7l.7.7-.7-.7zm0 4.5l.7-.7-.7.7zm10.2-5.7l.7-.7-.7-.7-.7.7.7.7zm10.2 1.2l.7-.7-.7.7zm-5.7-5.7l-.7-.7-.7.7.7.7.7-.7zm6-6l.7.7-.7-.7zm0-4.5l.7-.7-.7.7zm-4.5 0l.7.7-.7-.7zm-6 6l-.7.7.7.7.7-.7-.7-.7zm-6-6l-.8.7.8-.7zm-3.8 3.8a2.2 2.2 0 0 1 0-3.1l-1.5-1.4a4.2 4.2 0 0 0 0 5.9l1.5-1.4zm6 6l-6-6-1.5 1.4 6 6 1.5-1.4zm-5.7 7.1l5.7-5.7-1.4-1.4-5.8 5.7 1.5 1.4zm0 3.1a2.2 2.2 0 0 1 0-3l-1.5-1.5a4.2 4.2 0 0 0 0 6l1.5-1.5zm3 0a2.2 2.2 0 0 1-3 0l-1.5 1.4a4.2 4.2 0 0 0 6 0l-1.5-1.4zm5.8-5.7l-5.8 5.7 1.5 1.4 5.7-5.7-1.4-1.4zm7 5.7l-5.6-5.7-1.4 1.4 5.7 5.7 1.4-1.4zm3.2 0a2.2 2.2 0 0 1-3.1 0l-1.4 1.4a4.2 4.2 0 0 0 5.9 0l-1.4-1.4zm0-3.1a2.2 2.2 0 0 1 0 3l1.4 1.5a4.2 4.2 0 0 0 0-6l-1.4 1.5zm-5.7-5.7l5.7 5.7 1.4-1.4-5.7-5.7-1.4 1.4zm6-7.4l-6 6 1.4 1.4 6-6-1.4-1.4zm0-3a2.2 2.2 0 0 1 0 3l1.4 1.4a4.2 4.2 0 0 0 0-5.9l-1.4 1.4zm-3.1 0a2.2 2.2 0 0 1 3 0l1.5-1.5a4.2 4.2 0 0 0-6 0l1.5 1.4zm-6 6l6-6-1.4-1.5-6 6 1.4 1.4zm-7.5-6.1l6 6 1.5-1.4-6-6-1.5 1.4zm-3 0a2.2 2.2 0 0 1 3 0l1.5-1.4a4.2 4.2 0 0 0-6 0l1.5 1.4z" fill="#246EDE" mask="url(#n)"/><rect opacity=".1" x="100.6" y="532" width="30.6" height="30.6" rx="7" fill="#246EDE"/><rect x="96.5" y="537.1" width="29.6" height="29.6" rx="6.5" fill="#fff" stroke="#246EDE"/><mask id="o" fill="#fff"><path fill-rule="evenodd" clip-rule="evenodd" d="M100.8 541.4a3.2 3.2 0 0 0 0 4.5l6 6-5.7 5.7a3.2 3.2 0 1 0 4.5 4.5l5.7-5.7 5.7 5.7a3.2 3.2 0 1 0 4.5-4.5l-5.7-5.7 6-6a3.2 3.2 0 0 0-4.5-4.5l-6 6-6-6a3.2 3.2 0 0 0-4.5 0z"/></mask><path fill-rule="evenodd" clip-rule="evenodd" d="M100.8 541.4a3.2 3.2 0 0 0 0 4.5l6 6-5.7 5.7a3.2 3.2 0 1 0 4.5 4.5l5.7-5.7 5.7 5.7a3.2 3.2 0 1 0 4.5-4.5l-5.7-5.7 6-6a3.2 3.2 0 0 0-4.5-4.5l-6 6-6-6a3.2 3.2 0 0 0-4.5 0z" fill="#fff"/><path d="M100.8 545.9l.7-.7-.7.7zm0-4.5l-.8-.7.8.7zm6 10.5l.7.7.7-.7-.7-.7-.7.7zm-5.7 5.7l.7.7-.7-.7zm0 4.5l.7-.7-.7.7zm10.2-5.7l.7-.7-.7-.7-.7.7.7.7zm10.2 1.2l.7-.7-.7.7zm-5.7-5.7l-.7-.7-.7.7.7.7.7-.7zm6-6l.7.7-.7-.7zm0-4.5l.7-.7-.7.7zm-4.5 0l.7.7-.7-.7zm-6 6l-.7.7.7.7.7-.7-.7-.7zm-6-6l-.8.7.8-.7zm-3.8 3.8a2.2 2.2 0 0 1 0-3.1l-1.5-1.4a4.2 4.2 0 0 0 0 5.9l1.5-1.4zm6 6l-6-6-1.5 1.4 6 6 1.5-1.4zm-5.7 7.1l5.7-5.7-1.4-1.4-5.8 5.7 1.5 1.4zm0 3.1a2.2 2.2 0 0 1 0-3l-1.5-1.5a4.2 4.2 0 0 0 0 6l1.5-1.5zm3 0a2.2 2.2 0 0 1-3 0l-1.5 1.4a4.2 4.2 0 0 0 6 0l-1.5-1.4zm5.8-5.7l-5.8 5.7 1.5 1.4 5.7-5.7-1.4-1.4zm7 5.7l-5.6-5.7-1.4 1.4 5.7 5.7 1.4-1.4zm3.2 0a2.2 2.2 0 0 1-3.1 0l-1.4 1.4a4.2 4.2 0 0 0 5.9 0l-1.4-1.4zm0-3.1a2.2 2.2 0 0 1 0 3l1.4 1.5a4.2 4.2 0 0 0 0-6l-1.4 1.5zm-5.7-5.7l5.7 5.7 1.4-1.4-5.7-5.7-1.4 1.4zm6-7.4l-6 6 1.4 1.4 6-6-1.4-1.4zm0-3a2.2 2.2 0 0 1 0 3l1.4 1.4a4.2 4.2 0 0 0 0-5.9l-1.4 1.4zm-3.1 0a2.2 2.2 0 0 1 3 0l1.5-1.5a4.2 4.2 0 0 0-6 0l1.5 1.4zm-6 6l6-6-1.4-1.5-6 6 1.4 1.4zm-7.5-6.1l6 6 1.5-1.4-6-6-1.5 1.4zm-3 0a2.2 2.2 0 0 1 3 0l1.5-1.4a4.2 4.2 0 0 0-6 0l1.5 1.4z" fill="#246EDE" mask="url(#o)"/><rect opacity=".1" x="368.6" y="473" width="30.6" height="30.6" rx="7" fill="#246EDE"/><rect x="364.5" y="478.1" width="29.6" height="29.6" rx="6.5" fill="#fff" stroke="#246EDE"/><mask id="p" fill="#fff"><path fill-rule="evenodd" clip-rule="evenodd" d="M368.8 482.4a3.2 3.2 0 0 0 0 4.5l6 6-5.7 5.7a3.2 3.2 0 1 0 4.5 4.5l5.7-5.7 5.7 5.7a3.2 3.2 0 1 0 4.5-4.5l-5.7-5.7 6-6a3.2 3.2 0 0 0-4.5-4.5l-6 6-6-6a3.2 3.2 0 0 0-4.5 0z"/></mask><path fill-rule="evenodd" clip-rule="evenodd" d="M368.8 482.4a3.2 3.2 0 0 0 0 4.5l6 6-5.7 5.7a3.2 3.2 0 1 0 4.5 4.5l5.7-5.7 5.7 5.7a3.2 3.2 0 1 0 4.5-4.5l-5.7-5.7 6-6a3.2 3.2 0 0 0-4.5-4.5l-6 6-6-6a3.2 3.2 0 0 0-4.5 0z" fill="#fff"/><path d="M368.8 486.9l.7-.7-.7.7zm0-4.5l-.8-.7.8.7zm6 10.5l.7.7.7-.7-.7-.7-.7.7zm-5.7 5.7l.7.7-.7-.7zm0 4.5l.7-.7-.7.7zm10.2-5.7l.7-.7-.7-.7-.7.7.7.7zm10.2 1.2l.7-.7-.7.7zm-5.7-5.7l-.7-.7-.7.7.7.7.7-.7zm6-6l.7.7-.7-.7zm0-4.5l.7-.7-.7.7zm-4.5 0l.7.7-.7-.7zm-6 6l-.7.7.7.7.7-.7-.7-.7zm-6-6l-.8.7.8-.7zm-3.8 3.8a2.2 2.2 0 0 1 0-3.1l-1.5-1.4a4.2 4.2 0 0 0 0 5.9l1.5-1.4zm6 6l-6-6-1.5 1.4 6 6 1.5-1.4zm-5.7 7.1l5.7-5.7-1.4-1.4-5.8 5.7 1.5 1.4zm0 3.1a2.2 2.2 0 0 1 0-3l-1.5-1.5a4.2 4.2 0 0 0 0 6l1.5-1.5zm3 0a2.2 2.2 0 0 1-3 0l-1.5 1.4a4.2 4.2 0 0 0 6 0l-1.5-1.4zm5.8-5.7l-5.8 5.7 1.5 1.4 5.7-5.7-1.4-1.4zm7 5.7l-5.6-5.7-1.4 1.4 5.7 5.7 1.4-1.4zm3.2 0a2.2 2.2 0 0 1-3.1 0l-1.4 1.4a4.2 4.2 0 0 0 5.9 0l-1.4-1.4zm0-3.1a2.2 2.2 0 0 1 0 3l1.4 1.5a4.2 4.2 0 0 0 0-6l-1.4 1.5zm-5.7-5.7l5.7 5.7 1.4-1.4-5.7-5.7-1.4 1.4zm6-7.4l-6 6 1.4 1.4 6-6-1.4-1.4zm0-3a2.2 2.2 0 0 1 0 3l1.4 1.4a4.2 4.2 0 0 0 0-5.9l-1.4 1.4zm-3.1 0a2.2 2.2 0 0 1 3 0l1.5-1.5a4.2 4.2 0 0 0-6 0l1.5 1.4zm-6 6l6-6-1.4-1.5-6 6 1.4 1.4zm-7.5-6.1l6 6 1.5-1.4-6-6-1.5 1.4zm-3 0a2.2 2.2 0 0 1 3 0l1.5-1.4a4.2 4.2 0 0 0-6 0l1.5 1.4z" fill="#246EDE" mask="url(#p)"/><path d="M102.7 381c0-5.8 4.8-10.5 10.8-10.5 6 0 10.7 4.7 10.7 10.6v14.6h-4.7V381c0-1.1-.4-2.6-1.4-3.9a5.9 5.9 0 0 0-4.8-2.3c-2.4 0-4 1-5 2.3a6.7 6.7 0 0 0-1.2 3.9v14.6h-4.4V381zm17.2 19.4c.5.8 1.2 1.3 2.1 1.3.9 0 1.7-.5 2.1-1.3m-6 1.9a5 5 0 0 0 4 1.8 5 5 0 0 0 3.9-1.8m-23.2-1.9c.5.8 1.3 1.3 2.2 1.3.8 0 1.6-.5 2-1.3m-6 1.9a5 5 0 0 0 4 1.8 5 5 0 0 0 4-1.8M236.6 33c0-5.9 4.8-10.6 10.8-10.6 6 0 10.7 4.7 10.7 10.6v14.6h-4.7V33c0-1.1-.4-2.6-1.4-3.9a5.9 5.9 0 0 0-4.8-2.3c-2.4 0-4 1-5 2.3a6.7 6.7 0 0 0-1.2 3.9v14.6h-4.4V33zM254 52.4c.5.8 1.2 1.3 2.1 1.3.9 0 1.7-.5 2.1-1.3m-6 1.9a5 5 0 0 0 4 1.8 5 5 0 0 0 3.9-1.8m-23.2-1.9c.5.8 1.3 1.3 2.2 1.3.8 0 1.6-.5 2-1.3m-6 1.9a5 5 0 0 0 4 1.8 5 5 0 0 0 4-1.8" stroke="#246EDE"/><g opacity=".2"><rect x="72" y="5" width="108" height="49" rx="10" fill="#246EDE"/><rect x="72.5" y="5.5" width="107" height="48" rx="9.5" stroke="#246EDE" stroke-opacity=".6"/></g><rect x="62" y="13" width="108" height="51" rx="10" fill="#fff"/><rect x="62.5" y="13.5" width="107" height="50" rx="9.5" stroke="#246EDE" stroke-opacity=".6"/><rect x="359" y="177" width="111" height="128" rx="10" fill="#fff"/><rect x="359.5" y="177.5" width="110" height="127" rx="9.5" stroke="#246EDE" stroke-opacity=".6"/><g opacity=".2"><rect x="37.5" y="90" width="59.5" height="19.6" rx="5" fill="#246EDE"/><rect x="38" y="90.5" width="58.5" height="18.6" rx="4.5" stroke="#246EDE" stroke-opacity=".6"/></g><rect x="32" y="94.9" width="59.5" height="20.1" rx="5" fill="#fff"/><rect x="32.5" y="95.4" width="58.5" height="19.1" rx="4.5" stroke="#246EDE" stroke-opacity=".6"/><g opacity=".2"><rect x="138.5" y="90" width="59.5" height="19.6" rx="5" fill="#246EDE"/><rect x="139" y="90.5" width="58.5" height="18.6" rx="4.5" stroke="#246EDE" stroke-opacity=".6"/></g><rect x="133" y="94.9" width="59.5" height="20.1" rx="5" fill="#fff"/><rect x="133.5" y="95.4" width="58.5" height="19.1" rx="4.5" stroke="#246EDE" stroke-opacity=".6"/><g opacity=".2"><rect x="221.5" y="144" width="59.5" height="19.6" rx="5" fill="#246EDE"/><rect x="222" y="144.5" width="58.5" height="18.6" rx="4.5" stroke="#246EDE" stroke-opacity=".6"/></g><rect x="216" y="148.9" width="59.5" height="20.1" rx="5" fill="#fff"/><rect x="216.5" y="149.4" width="58.5" height="19.1" rx="4.5" stroke="#246EDE" stroke-opacity=".6"/><g opacity=".2"><rect x="221.5" y="110" width="59.5" height="19.6" rx="5" fill="#246EDE"/><rect x="222" y="110.5" width="58.5" height="18.6" rx="4.5" stroke="#246EDE" stroke-opacity=".6"/></g><rect x="216" y="114.9" width="59.5" height="20.1" rx="5" fill="#fff"/><rect x="216.5" y="115.4" width="58.5" height="19.1" rx="4.5" stroke="#246EDE" stroke-opacity=".6"/><g opacity=".2"><path d="M88 220.7a5 5 0 0 1 4.7-3.7h48.7a5 5 0 0 1 4.8 6.3l-2.6 9.7a5 5 0 0 1-4.9 3.6H90.1a5 5 0 0 1-4.9-6.3l2.7-9.6z" fill="#246EDE"/><path d="M88.4 220.8a4.5 4.5 0 0 1 4.3-3.3h48.7c3 0 5.1 2.8 4.3 5.7l-2.6 9.6a4.5 4.5 0 0 1-4.4 3.3H90.1c-3 0-5.2-2.8-4.4-5.7l2.7-9.6z" stroke="#246EDE" stroke-opacity=".6"/></g><path d="M82.5 225.6a5 5 0 0 1 4.8-3.7H136a5 5 0 0 1 4.8 6.3l-2.7 10.1a5 5 0 0 1-4.9 3.7H84.5a5 5 0 0 1-4.8-6.3l2.8-10.1z" fill="#fff"/><path d="M83 225.7a4.5 4.5 0 0 1 4.3-3.3H136c3 0 5.1 2.8 4.3 5.7l-2.7 10a4.5 4.5 0 0 1-4.4 3.4H84.5c-3 0-5-2.8-4.3-5.7l2.7-10z" stroke="#246EDE" stroke-opacity=".6"/><path d="M82.5 225.6a5 5 0 0 1 4.8-3.7H136a5 5 0 0 1 4.8 6.3l-2.7 10.1a5 5 0 0 1-4.9 3.7H84.5a5 5 0 0 1-4.8-6.3l2.8-10.1z" fill="#246EDE" fill-opacity=".1"/><path d="M83 225.7a4.5 4.5 0 0 1 4.3-3.3H136c3 0 5.1 2.8 4.3 5.7l-2.7 10a4.5 4.5 0 0 1-4.4 3.4H84.5c-3 0-5-2.8-4.3-5.7l2.7-10z" stroke="#246EDE" stroke-opacity=".6"/><g opacity=".2"><path d="M88 466.7a5 5 0 0 1 4.7-3.7h48.7a5 5 0 0 1 4.8 6.3l-2.6 9.7a5 5 0 0 1-4.9 3.6H90.1a5 5 0 0 1-4.9-6.3l2.7-9.6z" fill="#246EDE"/><path d="M88.4 466.8a4.5 4.5 0 0 1 4.3-3.3h48.7c3 0 5.1 2.8 4.3 5.7l-2.6 9.6a4.5 4.5 0 0 1-4.4 3.3H90.1c-3 0-5.2-2.8-4.4-5.7l2.7-9.6z" stroke="#246EDE" stroke-opacity=".6"/></g><path d="M82.5 471.6a5 5 0 0 1 4.8-3.7H136a5 5 0 0 1 4.8 6.3l-2.7 10.1a5 5 0 0 1-4.9 3.7H84.5a5 5 0 0 1-4.8-6.3l2.8-10.1z" fill="#fff"/><path d="M83 471.7a4.5 4.5 0 0 1 4.3-3.3H136c3 0 5.1 2.8 4.3 5.7l-2.7 10a4.5 4.5 0 0 1-4.4 3.4H84.5c-3 0-5-2.8-4.3-5.7l2.7-10z" stroke="#246EDE" stroke-opacity=".6"/><path d="M82.5 471.6a5 5 0 0 1 4.8-3.7H136a5 5 0 0 1 4.8 6.3l-2.7 10.1a5 5 0 0 1-4.9 3.7H84.5a5 5 0 0 1-4.8-6.3l2.8-10.1z" fill="#246EDE" fill-opacity=".1"/><path d="M83 471.7a4.5 4.5 0 0 1 4.3-3.3H136c3 0 5.1 2.8 4.3 5.7l-2.7 10a4.5 4.5 0 0 1-4.4 3.4H84.5c-3 0-5-2.8-4.3-5.7l2.7-10z" stroke="#246EDE" stroke-opacity=".6"/><g opacity=".2"><path d="M88 333.7a5 5 0 0 1 4.7-3.7h48.7a5 5 0 0 1 4.8 6.3l-2.6 9.7a5 5 0 0 1-4.9 3.6H90.1a5 5 0 0 1-4.9-6.3l2.7-9.6z" fill="#246EDE"/><path d="M88.4 333.8a4.5 4.5 0 0 1 4.3-3.3h48.7c3 0 5.1 2.8 4.3 5.7l-2.6 9.6a4.5 4.5 0 0 1-4.4 3.3H90.1c-3 0-5.2-2.8-4.4-5.7l2.7-9.6z" stroke="#246EDE" stroke-opacity=".6"/></g><path d="M82.5 338.6a5 5 0 0 1 4.8-3.7H136a5 5 0 0 1 4.8 6.3l-2.7 10.1a5 5 0 0 1-4.9 3.7H84.5a5 5 0 0 1-4.8-6.3l2.8-10.1z" fill="#fff"/><path d="M83 338.7a4.5 4.5 0 0 1 4.3-3.3H136c3 0 5.1 2.8 4.3 5.7l-2.7 10a4.5 4.5 0 0 1-4.4 3.4H84.5c-3 0-5-2.8-4.3-5.7l2.7-10z" stroke="#246EDE" stroke-opacity=".6"/><path d="M82.5 338.6a5 5 0 0 1 4.8-3.7H136a5 5 0 0 1 4.8 6.3l-2.7 10.1a5 5 0 0 1-4.9 3.7H84.5a5 5 0 0 1-4.8-6.3l2.8-10.1z" fill="#246EDE" fill-opacity=".1"/><path d="M83 338.7a4.5 4.5 0 0 1 4.3-3.3H136c3 0 5.1 2.8 4.3 5.7l-2.7 10a4.5 4.5 0 0 1-4.4 3.4H84.5c-3 0-5-2.8-4.3-5.7l2.7-10z" stroke="#246EDE" stroke-opacity=".6"/><g opacity=".2"><path d="M267 318.7a5 5 0 0 1 4.7-3.7h48.7a5 5 0 0 1 4.8 6.3l-2.6 9.7a5 5 0 0 1-4.9 3.6h-48.6a5 5 0 0 1-4.9-6.3l2.7-9.6z" fill="#246EDE"/><path d="M267.4 318.8a4.5 4.5 0 0 1 4.3-3.3h48.7c3 0 5.1 2.8 4.3 5.7l-2.6 9.6a4.5 4.5 0 0 1-4.4 3.3h-48.6c-3 0-5.2-2.8-4.4-5.7l2.7-9.6z" stroke="#246EDE" stroke-opacity=".6"/></g><path d="M261.5 323.6a5 5 0 0 1 4.8-3.7H315a5 5 0 0 1 4.8 6.3l-2.7 10.1a5 5 0 0 1-4.9 3.7h-48.7a5 5 0 0 1-4.8-6.3l2.8-10.1z" fill="#fff"/><path d="M262 323.7a4.5 4.5 0 0 1 4.3-3.3H315c3 0 5.1 2.8 4.3 5.7l-2.7 10a4.5 4.5 0 0 1-4.4 3.4h-48.7c-3 0-5-2.8-4.3-5.7l2.7-10z" stroke="#246EDE" stroke-opacity=".6"/><path d="M261.5 323.6a5 5 0 0 1 4.8-3.7H315a5 5 0 0 1 4.8 6.3l-2.7 10.1a5 5 0 0 1-4.9 3.7h-48.7a5 5 0 0 1-4.8-6.3l2.8-10.1z" fill="#246EDE" fill-opacity=".1"/><path d="M262 323.7a4.5 4.5 0 0 1 4.3-3.3H315c3 0 5.1 2.8 4.3 5.7l-2.7 10a4.5 4.5 0 0 1-4.4 3.4h-48.7c-3 0-5-2.8-4.3-5.7l2.7-10z" stroke="#246EDE" stroke-opacity=".6"/><g opacity=".2"><path d="M355 317.7a5 5 0 0 1 4.7-3.7h48.7a5 5 0 0 1 4.8 6.3l-2.6 9.7a5 5 0 0 1-4.9 3.6h-48.6a5 5 0 0 1-4.9-6.3l2.7-9.6z" fill="#246EDE"/><path d="M355.4 317.8a4.5 4.5 0 0 1 4.3-3.3h48.7c3 0 5.1 2.8 4.3 5.7l-2.6 9.6a4.5 4.5 0 0 1-4.4 3.3h-48.6c-3 0-5.2-2.8-4.4-5.7l2.7-9.6z" stroke="#246EDE" stroke-opacity=".6"/></g><path d="M349.5 322.6a5 5 0 0 1 4.8-3.7H403a5 5 0 0 1 4.8 6.3l-2.7 10.1a5 5 0 0 1-4.9 3.7h-48.7a5 5 0 0 1-4.8-6.3l2.8-10.1z" fill="#fff"/><path d="M350 322.7a4.5 4.5 0 0 1 4.3-3.3H403c3 0 5.1 2.8 4.3 5.7l-2.7 10a4.5 4.5 0 0 1-4.4 3.4h-48.7c-3 0-5-2.8-4.3-5.7l2.7-10z" stroke="#246EDE" stroke-opacity=".6"/><g opacity=".2"><path d="M428 316.7a5 5 0 0 1 4.7-3.7h48.7a5 5 0 0 1 4.8 6.3l-2.6 9.7a5 5 0 0 1-4.9 3.6h-48.6a5 5 0 0 1-4.9-6.3l2.7-9.6z" fill="#246EDE"/><path d="M428.4 316.8a4.5 4.5 0 0 1 4.3-3.3h48.7c3 0 5.1 2.8 4.3 5.7l-2.6 9.6a4.5 4.5 0 0 1-4.4 3.3h-48.6c-3 0-5.2-2.8-4.4-5.7l2.7-9.6z" stroke="#246EDE" stroke-opacity=".6"/></g><path d="M422.5 321.6a5 5 0 0 1 4.8-3.7H476a5 5 0 0 1 4.8 6.3l-2.7 10.1a5 5 0 0 1-4.9 3.7h-48.7a5 5 0 0 1-4.8-6.3l2.8-10.1z" fill="#fff"/><path d="M423 321.7a4.5 4.5 0 0 1 4.3-3.3H476c3 0 5.1 2.8 4.3 5.7l-2.7 10a4.5 4.5 0 0 1-4.4 3.4h-48.7c-3 0-5-2.8-4.3-5.7l2.7-10z" stroke="#246EDE" stroke-opacity=".6"/><path opacity=".2" d="M465 37.7a5 5 0 0 1 4.7-3.7h48.7a5 5 0 0 1 4.8 6.3l-2.6 9.7a5 5 0 0 1-4.9 3.6h-48.6a5 5 0 0 1-4.9-6.3l2.7-9.6z" fill="#246EDE"/><path d="M459.5 42.6a5 5 0 0 1 4.8-3.7H513a5 5 0 0 1 4.8 6.3l-2.7 10.1a5 5 0 0 1-4.9 3.7h-48.7a5 5 0 0 1-4.8-6.3l2.8-10.1z" fill="#fff"/><path d="M460 42.7a4.5 4.5 0 0 1 4.3-3.3H513c3 0 5.1 2.8 4.3 5.7l-2.7 10a4.5 4.5 0 0 1-4.4 3.4h-48.7c-3 0-5-2.8-4.3-5.7l2.7-10z" stroke="#246EDE" stroke-opacity=".6"/><path opacity=".2" d="M532 227.7a5 5 0 0 1 4.7-3.7h48.7a5 5 0 0 1 4.8 6.3l-2.6 9.7a5 5 0 0 1-4.9 3.6h-48.6a5 5 0 0 1-4.9-6.3l2.7-9.6z" fill="#246EDE"/><path d="M526.5 232.6a5 5 0 0 1 4.8-3.7H580a5 5 0 0 1 4.8 6.3l-2.7 10.1a5 5 0 0 1-4.9 3.7h-48.7a5 5 0 0 1-4.8-6.3l2.8-10.1z" fill="#fff"/><path d="M527 232.7a4.5 4.5 0 0 1 4.3-3.3H580c3 0 5.1 2.8 4.3 5.7l-2.7 10a4.5 4.5 0 0 1-4.4 3.4h-48.7c-3 0-5-2.8-4.3-5.7l2.7-10z" stroke="#246EDE" stroke-opacity=".6"/><path opacity=".2" d="M532 416.7a5 5 0 0 1 4.7-3.7h48.7a5 5 0 0 1 4.8 6.3l-2.6 9.7a5 5 0 0 1-4.9 3.6h-48.6a5 5 0 0 1-4.9-6.3l2.7-9.6z" fill="#246EDE"/><path d="M526.5 421.6a5 5 0 0 1 4.8-3.7H580a5 5 0 0 1 4.8 6.3l-2.7 10.1a5 5 0 0 1-4.9 3.7h-48.7a5 5 0 0 1-4.8-6.3l2.8-10.1z" fill="#fff"/><path d="M527 421.7a4.5 4.5 0 0 1 4.3-3.3H580c3 0 5.1 2.8 4.3 5.7l-2.7 10a4.5 4.5 0 0 1-4.4 3.4h-48.7c-3 0-5-2.8-4.3-5.7l2.7-10z" stroke="#246EDE" stroke-opacity=".6"/><path opacity=".2" d="M465 82.7a5 5 0 0 1 4.7-3.7h48.7a5 5 0 0 1 4.8 6.3l-2.6 9.7a5 5 0 0 1-4.9 3.6h-48.6a5 5 0 0 1-4.9-6.3l2.7-9.6z" fill="#246EDE"/><path d="M459.5 87.6a5 5 0 0 1 4.8-3.7H513a5 5 0 0 1 4.8 6.3l-2.7 10.1a5 5 0 0 1-4.9 3.7h-48.7a5 5 0 0 1-4.8-6.3l2.8-10.1z" fill="#fff"/><path d="M460 87.7a4.5 4.5 0 0 1 4.3-3.3H513c3 0 5.1 2.8 4.3 5.7l-2.7 10a4.5 4.5 0 0 1-4.4 3.4h-48.7c-3 0-5-2.8-4.3-5.7l2.7-10z" stroke="#246EDE" stroke-opacity=".6"/><path opacity=".2" d="M532 272.7a5 5 0 0 1 4.7-3.7h48.7a5 5 0 0 1 4.8 6.3l-2.6 9.7a5 5 0 0 1-4.9 3.6h-48.6a5 5 0 0 1-4.9-6.3l2.7-9.6z" fill="#246EDE"/><path d="M526.5 277.6a5 5 0 0 1 4.8-3.7H580a5 5 0 0 1 4.8 6.3l-2.7 10.1a5 5 0 0 1-4.9 3.7h-48.7a5 5 0 0 1-4.8-6.3l2.8-10.1z" fill="#fff"/><path d="M527 277.7a4.5 4.5 0 0 1 4.3-3.3H580c3 0 5.1 2.8 4.3 5.7l-2.7 10a4.5 4.5 0 0 1-4.4 3.4h-48.7c-3 0-5-2.8-4.3-5.7l2.7-10z" stroke="#246EDE" stroke-opacity=".6"/><path opacity=".2" d="M532 461.7a5 5 0 0 1 4.7-3.7h48.7a5 5 0 0 1 4.8 6.3l-2.6 9.7a5 5 0 0 1-4.9 3.6h-48.6a5 5 0 0 1-4.9-6.3l2.7-9.6z" fill="#246EDE"/><path d="M526.5 466.6a5 5 0 0 1 4.8-3.7H580a5 5 0 0 1 4.8 6.3l-2.7 10.1a5 5 0 0 1-4.9 3.7h-48.7a5 5 0 0 1-4.8-6.3l2.8-10.1z" fill="#fff"/><path d="M527 466.7a4.5 4.5 0 0 1 4.3-3.3H580c3 0 5.1 2.8 4.3 5.7l-2.7 10a4.5 4.5 0 0 1-4.4 3.4h-48.7c-3 0-5-2.8-4.3-5.7l2.7-10z" stroke="#246EDE" stroke-opacity=".6"/><path opacity=".2" d="M539 37.7a5 5 0 0 1 4.7-3.7h48.7a5 5 0 0 1 4.8 6.3l-2.6 9.7a5 5 0 0 1-4.9 3.6h-48.6a5 5 0 0 1-4.9-6.3l2.7-9.6z" fill="#246EDE"/><path d="M533.5 42.6a5 5 0 0 1 4.8-3.7H587a5 5 0 0 1 4.8 6.3l-2.7 10.1a5 5 0 0 1-4.9 3.7h-48.7a5 5 0 0 1-4.8-6.3l2.8-10.1z" fill="#fff"/><path d="M534 42.7a4.5 4.5 0 0 1 4.3-3.3H587c3 0 5.1 2.8 4.3 5.7l-2.7 10a4.5 4.5 0 0 1-4.4 3.4h-48.7c-3 0-5-2.8-4.3-5.7l2.7-10z" stroke="#246EDE" stroke-opacity=".6"/><path opacity=".2" d="M606 227.7a5 5 0 0 1 4.7-3.7h48.7a5 5 0 0 1 4.8 6.3l-2.6 9.7a5 5 0 0 1-4.9 3.6h-48.6a5 5 0 0 1-4.9-6.3l2.7-9.6z" fill="#246EDE"/><path d="M600.5 232.6a5 5 0 0 1 4.8-3.7H654a5 5 0 0 1 4.8 6.3l-2.7 10.1a5 5 0 0 1-4.9 3.7h-48.7a5 5 0 0 1-4.8-6.3l2.8-10.1z" fill="#fff"/><path d="M601 232.7a4.5 4.5 0 0 1 4.3-3.3H654c3 0 5.1 2.8 4.3 5.7l-2.7 10a4.5 4.5 0 0 1-4.4 3.4h-48.7c-3 0-5-2.8-4.3-5.7l2.7-10z" stroke="#246EDE" stroke-opacity=".6"/><path opacity=".2" d="M606 416.7a5 5 0 0 1 4.7-3.7h48.7a5 5 0 0 1 4.8 6.3l-2.6 9.7a5 5 0 0 1-4.9 3.6h-48.6a5 5 0 0 1-4.9-6.3l2.7-9.6z" fill="#246EDE"/><path d="M600.5 421.6a5 5 0 0 1 4.8-3.7H654a5 5 0 0 1 4.8 6.3l-2.7 10.1a5 5 0 0 1-4.9 3.7h-48.7a5 5 0 0 1-4.8-6.3l2.8-10.1z" fill="#fff"/><path d="M601 421.7a4.5 4.5 0 0 1 4.3-3.3H654c3 0 5.1 2.8 4.3 5.7l-2.7 10a4.5 4.5 0 0 1-4.4 3.4h-48.7c-3 0-5-2.8-4.3-5.7l2.7-10z" stroke="#246EDE" stroke-opacity=".6"/><path opacity=".2" d="M539 82.7a5 5 0 0 1 4.7-3.7h48.7a5 5 0 0 1 4.8 6.3l-2.6 9.7a5 5 0 0 1-4.9 3.6h-48.6a5 5 0 0 1-4.9-6.3l2.7-9.6z" fill="#246EDE"/><path d="M533.5 87.6a5 5 0 0 1 4.8-3.7H587a5 5 0 0 1 4.8 6.3l-2.7 10.1a5 5 0 0 1-4.9 3.7h-48.7a5 5 0 0 1-4.8-6.3l2.8-10.1z" fill="#fff"/><path d="M534 87.7a4.5 4.5 0 0 1 4.3-3.3H587c3 0 5.1 2.8 4.3 5.7l-2.7 10a4.5 4.5 0 0 1-4.4 3.4h-48.7c-3 0-5-2.8-4.3-5.7l2.7-10z" stroke="#246EDE" stroke-opacity=".6"/><path opacity=".2" d="M606 272.7a5 5 0 0 1 4.7-3.7h48.7a5 5 0 0 1 4.8 6.3l-2.6 9.7a5 5 0 0 1-4.9 3.6h-48.6a5 5 0 0 1-4.9-6.3l2.7-9.6z" fill="#246EDE"/><path d="M600.5 277.6a5 5 0 0 1 4.8-3.7H654a5 5 0 0 1 4.8 6.3l-2.7 10.1a5 5 0 0 1-4.9 3.7h-48.7a5 5 0 0 1-4.8-6.3l2.8-10.1z" fill="#fff"/><path d="M601 277.7a4.5 4.5 0 0 1 4.3-3.3H654c3 0 5.1 2.8 4.3 5.7l-2.7 10a4.5 4.5 0 0 1-4.4 3.4h-48.7c-3 0-5-2.8-4.3-5.7l2.7-10z" stroke="#246EDE" stroke-opacity=".6"/><path opacity=".2" d="M606 461.7a5 5 0 0 1 4.7-3.7h48.7a5 5 0 0 1 4.8 6.3l-2.6 9.7a5 5 0 0 1-4.9 3.6h-48.6a5 5 0 0 1-4.9-6.3l2.7-9.6z" fill="#246EDE"/><path d="M600.5 466.6a5 5 0 0 1 4.8-3.7H654a5 5 0 0 1 4.8 6.3l-2.7 10.1a5 5 0 0 1-4.9 3.7h-48.7a5 5 0 0 1-4.8-6.3l2.8-10.1z" fill="#fff"/><path d="M601 466.7a4.5 4.5 0 0 1 4.3-3.3H654c3 0 5.1 2.8 4.3 5.7l-2.7 10a4.5 4.5 0 0 1-4.4 3.4h-48.7c-3 0-5-2.8-4.3-5.7l2.7-10z" stroke="#246EDE" stroke-opacity=".6"/><path opacity=".2" d="M612 37.7a5 5 0 0 1 4.7-3.7h48.7a5 5 0 0 1 4.8 6.3l-2.6 9.7a5 5 0 0 1-4.9 3.6h-48.6a5 5 0 0 1-4.9-6.3l2.7-9.6z" fill="#246EDE"/><path d="M606.5 42.6a5 5 0 0 1 4.8-3.7H660a5 5 0 0 1 4.8 6.3l-2.7 10.1a5 5 0 0 1-4.9 3.7h-48.7a5 5 0 0 1-4.8-6.3l2.8-10.1z" fill="#fff"/><path d="M607 42.7a4.5 4.5 0 0 1 4.3-3.3H660c3 0 5.1 2.8 4.3 5.7l-2.7 10a4.5 4.5 0 0 1-4.4 3.4h-48.7c-3 0-5-2.8-4.3-5.7l2.7-10z" stroke="#246EDE" stroke-opacity=".6"/><path opacity=".2" d="M679 227.7a5 5 0 0 1 4.7-3.7h48.7a5 5 0 0 1 4.8 6.3l-2.6 9.7a5 5 0 0 1-4.9 3.6h-48.6a5 5 0 0 1-4.9-6.3l2.7-9.6z" fill="#246EDE"/><path d="M673.5 232.6a5 5 0 0 1 4.8-3.7H727a5 5 0 0 1 4.8 6.3l-2.7 10.1a5 5 0 0 1-4.9 3.7h-48.7a5 5 0 0 1-4.8-6.3l2.8-10.1z" fill="#fff"/><path d="M674 232.7a4.5 4.5 0 0 1 4.3-3.3H727c3 0 5.1 2.8 4.3 5.7l-2.7 10a4.5 4.5 0 0 1-4.4 3.4h-48.7c-3 0-5-2.8-4.3-5.7l2.7-10z" stroke="#246EDE" stroke-opacity=".6"/><path opacity=".2" d="M679 416.7a5 5 0 0 1 4.7-3.7h48.7a5 5 0 0 1 4.8 6.3l-2.6 9.7a5 5 0 0 1-4.9 3.6h-48.6a5 5 0 0 1-4.9-6.3l2.7-9.6z" fill="#246EDE"/><path d="M673.5 421.6a5 5 0 0 1 4.8-3.7H727a5 5 0 0 1 4.8 6.3l-2.7 10.1a5 5 0 0 1-4.9 3.7h-48.7a5 5 0 0 1-4.8-6.3l2.8-10.1z" fill="#fff"/><path d="M674 421.7a4.5 4.5 0 0 1 4.3-3.3H727c3 0 5.1 2.8 4.3 5.7l-2.7 10a4.5 4.5 0 0 1-4.4 3.4h-48.7c-3 0-5-2.8-4.3-5.7l2.7-10z" stroke="#246EDE" stroke-opacity=".6"/><path opacity=".2" d="M612 82.7a5 5 0 0 1 4.7-3.7h48.7a5 5 0 0 1 4.8 6.3l-2.6 9.7a5 5 0 0 1-4.9 3.6h-48.6a5 5 0 0 1-4.9-6.3l2.7-9.6z" fill="#246EDE"/><path d="M606.5 87.6a5 5 0 0 1 4.8-3.7H660a5 5 0 0 1 4.8 6.3l-2.7 10.1a5 5 0 0 1-4.9 3.7h-48.7a5 5 0 0 1-4.8-6.3l2.8-10.1z" fill="#fff"/><path d="M607 87.7a4.5 4.5 0 0 1 4.3-3.3H660c3 0 5.1 2.8 4.3 5.7l-2.7 10a4.5 4.5 0 0 1-4.4 3.4h-48.7c-3 0-5-2.8-4.3-5.7l2.7-10z" stroke="#246EDE" stroke-opacity=".6"/><path opacity=".2" d="M679 272.7a5 5 0 0 1 4.7-3.7h48.7a5 5 0 0 1 4.8 6.3l-2.6 9.7a5 5 0 0 1-4.9 3.6h-48.6a5 5 0 0 1-4.9-6.3l2.7-9.6z" fill="#246EDE"/><path d="M673.5 277.6a5 5 0 0 1 4.8-3.7H727a5 5 0 0 1 4.8 6.3l-2.7 10.1a5 5 0 0 1-4.9 3.7h-48.7a5 5 0 0 1-4.8-6.3l2.8-10.1z" fill="#fff"/><path d="M674 277.7a4.5 4.5 0 0 1 4.3-3.3H727c3 0 5.1 2.8 4.3 5.7l-2.7 10a4.5 4.5 0 0 1-4.4 3.4h-48.7c-3 0-5-2.8-4.3-5.7l2.7-10z" stroke="#246EDE" stroke-opacity=".6"/><path opacity=".2" d="M679 461.7a5 5 0 0 1 4.7-3.7h48.7a5 5 0 0 1 4.8 6.3l-2.6 9.7a5 5 0 0 1-4.9 3.6h-48.6a5 5 0 0 1-4.9-6.3l2.7-9.6z" fill="#246EDE"/><path d="M673.5 466.6a5 5 0 0 1 4.8-3.7H727a5 5 0 0 1 4.8 6.3l-2.7 10.1a5 5 0 0 1-4.9 3.7h-48.7a5 5 0 0 1-4.8-6.3l2.8-10.1z" fill="#fff"/><path d="M674 466.7a4.5 4.5 0 0 1 4.3-3.3H727c3 0 5.1 2.8 4.3 5.7l-2.7 10a4.5 4.5 0 0 1-4.4 3.4h-48.7c-3 0-5-2.8-4.3-5.7l2.7-10z" stroke="#246EDE" stroke-opacity=".6"/><path opacity=".2" d="M684 37.7a5 5 0 0 1 4.7-3.7h48.7a5 5 0 0 1 4.8 6.3l-2.6 9.7a5 5 0 0 1-4.9 3.6h-48.6a5 5 0 0 1-4.9-6.3l2.7-9.6z" fill="#246EDE"/><path d="M678.5 42.6a5 5 0 0 1 4.8-3.7H732a5 5 0 0 1 4.8 6.3l-2.7 10.1a5 5 0 0 1-4.9 3.7h-48.7a5 5 0 0 1-4.8-6.3l2.8-10.1z" fill="#fff"/><path d="M679 42.7a4.5 4.5 0 0 1 4.3-3.3H732c3 0 5.1 2.8 4.3 5.7l-2.7 10a4.5 4.5 0 0 1-4.4 3.4h-48.7c-3 0-5-2.8-4.3-5.7l2.7-10z" stroke="#246EDE" stroke-opacity=".6"/><path opacity=".2" d="M684 82.7a5 5 0 0 1 4.7-3.7h48.7a5 5 0 0 1 4.8 6.3l-2.6 9.7a5 5 0 0 1-4.9 3.6h-48.6a5 5 0 0 1-4.9-6.3l2.7-9.6z" fill="#246EDE"/><path d="M678.5 87.6a5 5 0 0 1 4.8-3.7H732a5 5 0 0 1 4.8 6.3l-2.7 10.1a5 5 0 0 1-4.9 3.7h-48.7a5 5 0 0 1-4.8-6.3l2.8-10.1z" fill="#fff"/><path d="M679 87.7a4.5 4.5 0 0 1 4.3-3.3H732c3 0 5.1 2.8 4.3 5.7l-2.7 10a4.5 4.5 0 0 1-4.4 3.4h-48.7c-3 0-5-2.8-4.3-5.7l2.7-10z" stroke="#246EDE" stroke-opacity=".6"/><g opacity=".2"><rect x="86.5" y="138" width="59.5" height="19.6" rx="5" fill="#246EDE"/><rect x="87" y="138.5" width="58.5" height="18.6" rx="4.5" stroke="#246EDE" stroke-opacity=".6"/></g><rect x="81" y="142.9" width="59.5" height="20.1" rx="5" fill="#fff"/><rect x="81.5" y="143.4" width="58.5" height="19.1" rx="4.5" stroke="#246EDE" stroke-opacity=".6"/><g opacity=".2"><rect x="86.5" y="252" width="59.5" height="19.6" rx="5" fill="#246EDE"/><rect x="87" y="252.5" width="58.5" height="18.6" rx="4.5" stroke="#246EDE" stroke-opacity=".6"/></g><rect x="81" y="256.9" width="59.5" height="20.1" rx="5" fill="#fff"/><rect x="81.5" y="257.4" width="58.5" height="19.1" rx="4.5" stroke="#246EDE" stroke-opacity=".6"/><g opacity=".2"><rect x="86.5" y="498" width="59.5" height="19.6" rx="5" fill="#246EDE"/><rect x="87" y="498.5" width="58.5" height="18.6" rx="4.5" stroke="#246EDE" stroke-opacity=".6"/></g><rect x="81" y="502.9" width="59.5" height="20.1" rx="5" fill="#fff"/><rect x="81.5" y="503.4" width="58.5" height="19.1" rx="4.5" stroke="#246EDE" stroke-opacity=".6"/><g opacity=".2"><rect x="309.5" y="444" width="59.5" height="19.6" rx="5" fill="#246EDE"/><rect x="310" y="444.5" width="58.5" height="18.6" rx="4.5" stroke="#246EDE" stroke-opacity=".6"/></g><rect x="304" y="448.9" width="59.5" height="20.1" rx="5" fill="#fff"/><rect x="304.5" y="449.4" width="58.5" height="19.1" rx="4.5" stroke="#246EDE" stroke-opacity=".6"/><g opacity=".2"><rect x="5.5" y="175" width="59.5" height="19.6" rx="5" fill="#246EDE"/><rect x="6" y="175.5" width="58.5" height="18.6" rx="4.5" stroke="#246EDE" stroke-opacity=".6"/></g><rect y="179.9" width="59.5" height="20.1" rx="5" fill="#fff"/><rect x=".5" y="180.4" width="58.5" height="19.1" rx="4.5" stroke="#246EDE" stroke-opacity=".6"/><g opacity=".2"><rect x="23.5" y="292" width="59.5" height="19.6" rx="5" fill="#246EDE"/><rect x="24" y="292.5" width="58.5" height="18.6" rx="4.5" stroke="#246EDE" stroke-opacity=".6"/></g><rect x="18" y="296.9" width="59.5" height="20.1" rx="5" fill="#fff"/><rect x="18.5" y="297.4" width="58.5" height="19.1" rx="4.5" stroke="#246EDE" stroke-opacity=".6"/><path d="M81 265H48v32m49 86H48v-66" stroke="#246EDE"/><path d="M81 151H9v29.5M81 512H9V200.5M101 64v15.4H62V95m39 48v-13.9H62V115m105 0v14.4h-39V144m39-49V79.6h-39V64m56 114v-27h-44m44 141v-27h-44m44 272v-24h-44m150-35v-20h15m73 20v-20h-15m-73 93v-44m48-157v-19h-20m-78 45v-46h20m166-153V71h26m68 374h-25V275h-25m-92 64v27h-25M709 59v6.2H495V84m206 165v6.2H559V274m142 164v6.2H559V463m84-424V15h12m-12 215v-24h12m-12 213v-26h12m-96-288v21h12m-12 167v21h12m-12 169v21h12m-387-80v-41h-55m41-345h20m23 0h20m283 14h15m52 190h15m-15 189h15M516 97h15m52 190h15m-15 189h15m-9-424h15m52 190h15m-15 189h15M589 97h15m52 190h15m-15 189h15m-9-424h15m-15 45h15m-430 3v15m43 92v15m-50 184v121h50m89-19v23m-266 35v20m177-281v15m88-16v15m72-15v15m-337 90v15m0-147v15m0 230v15m0-182v15m0-49v15m223 100v15M113 242v15m0 231v15m0-295v15m0 231v15m0-306v15m134-43v15m28 8h15m180 97h50m-320 51h15m0-29h15m115-33h15M200 439h15m32-382v15m17-34h26v139" stroke="#246EDE"/><rect opacity=".1" x="238.5" y="211.5" width="117" height="83" rx="9.5" fill="#246EDE" stroke="#246EDE"/><rect x="228.5" y="221.5" width="117" height="83" rx="9.5" fill="#fff" stroke="#246EDE"/><rect x="239.5" y="232.5" width="28" height="5" rx="2.5" fill="#fff" stroke="#246EDE"/><rect x="276.5" y="241.5" width="16" height="5" rx="2.5" fill="#fff" stroke="#246EDE"/><rect x="297.5" y="241.5" width="16" height="5" rx="2.5" fill="#fff" stroke="#246EDE"/><rect x="318.5" y="241.5" width="16" height="5" rx="2.5" fill="#fff" stroke="#246EDE"/><rect x="276.5" y="232.5" width="58" height="5" rx="2.5" fill="#fff" stroke="#246EDE"/><rect x="251.5" y="242.5" width="16" height="5" rx="2.5" fill="#fff" stroke="#246EDE"/><rect x="239.5" y="242.5" width="8" height="5" rx="2.5" fill="#fff" stroke="#246EDE"/><rect x="251.5" y="252.5" width="16" height="5" rx="2.5" fill="#fff" stroke="#246EDE"/><rect x="239.5" y="252.5" width="8" height="5" rx="2.5" fill="#fff" stroke="#246EDE"/><rect x="251.5" y="262.5" width="16" height="5" rx="2.5" fill="#fff" stroke="#246EDE"/><rect x="239.5" y="262.5" width="8" height="5" rx="2.5" fill="#fff" stroke="#246EDE"/><rect x="251.5" y="272.5" width="16" height="5" rx="2.5" fill="#fff" stroke="#246EDE"/><rect x="239.5" y="272.5" width="8" height="5" rx="2.5" fill="#fff" stroke="#246EDE"/><rect x="251.5" y="282.5" width="16" height="5" rx="2.5" fill="#fff" stroke="#246EDE"/><rect x="239.5" y="282.5" width="8" height="5" rx="2.5" fill="#fff" stroke="#246EDE"/><path d="M282.2 288.3h0a10 10 0 0 0 4.8 1.2c1.5 0 2.8-.3 4-.8a8.2 8.2 0 0 0 3.2-2.3l.2-.4-.3-.3-2-2-.4-.4-.3.4a5.3 5.3 0 0 1-4.2 2c-1 0-2-.3-2.9-.8a5.2 5.2 0 0 1-2-2 6 6 0 0 1-.6-2.9c0-1.1.2-2 .7-3a5 5 0 0 1 2-2h0c.8-.4 1.7-.7 2.8-.7 1.7 0 3 .7 4.2 2l.3.3.4-.3 2-2 .3-.3-.2-.4a8.3 8.3 0 0 0-3.1-2.3 9.9 9.9 0 0 0-4-.8c-1.8 0-3.5.4-5 1.2a9 9 0 0 0-3.3 3.4c-.9 1.5-1.3 3.1-1.3 4.9 0 1.8.4 3.4 1.2 4.9h0a9.1 9.1 0 0 0 3.5 3.4zm25.2.7l.2.2h4.6l-.5-.7-3.6-5.3c1-.5 1.8-1.2 2.3-2 .7-1 1-2.3 1-3.7 0-1.4-.3-2.6-.9-3.6-.6-1-1.5-1.8-2.7-2.4a9.5 9.5 0 0 0-4-.7h-7.5v18.5h4.1v-5.1H304.1l3.3 4.8zm-1-13.7l.3-.4-.3.4c.6.5.9 1.2.9 2.2 0 1-.3 1.7-.9 2.2-.6.5-1.5.8-2.8.8h-3.2v-6h3.2c1.3 0 2.2.3 2.8.8zm23.1 13.5v.4h4v-18.4H330l-.1.2-6.2 10.8-6.3-10.8-.2-.2H314v18.4h4v-10l4.6 7.8.1.3h2l.2-.3 4.6-8v9.8z" stroke="#246EDE"/><g opacity=".2"><rect x="388.5" y="225" width="59.5" height="19.6" rx="5" fill="#246EDE"/><rect x="389" y="225.5" width="58.5" height="18.6" rx="4.5" stroke="#246EDE" stroke-opacity=".6"/></g><rect x="383" y="229.9" width="59.5" height="20.1" rx="5" fill="#fff"/><rect x="383.5" y="230.4" width="58.5" height="19.1" rx="4.5" stroke="#246EDE" stroke-opacity=".6"/><g opacity=".2"><rect x="388.5" y="260" width="59.5" height="19.6" rx="5" fill="#246EDE"/><rect x="389" y="260.5" width="58.5" height="18.6" rx="4.5" stroke="#246EDE" stroke-opacity=".6"/></g><rect x="383" y="264.9" width="59.5" height="20.1" rx="5" fill="#fff"/><rect x="383.5" y="265.4" width="58.5" height="19.1" rx="4.5" stroke="#246EDE" stroke-opacity=".6"/><g opacity=".2"><rect x="388.5" y="190" width="59.5" height="19.6" rx="5" fill="#246EDE"/><rect x="389" y="190.5" width="58.5" height="18.6" rx="4.5" stroke="#246EDE" stroke-opacity=".6"/></g><rect x="383" y="194.9" width="59.5" height="20.1" rx="5" fill="#fff"/><rect x="383.5" y="195.4" width="58.5" height="19.1" rx="4.5" stroke="#246EDE" stroke-opacity=".6"/><rect opacity=".2" x="457.7" y="26" width="26.4" height="18.9" rx="2" fill="#246EDE"/><rect x="455.5" y="28.5" width="26" height="18.6" rx="2.5" fill="#fff" stroke="#246EDE"/><path d="M481 29l-12.5 11.5L455.9 29M481.1 47l-9.8-9m-15.4 9l9.8-9" stroke="#246EDE"/><rect opacity=".2" x="524.7" y="216" width="26.4" height="18.9" rx="2" fill="#246EDE"/><rect x="522.5" y="218.5" width="26" height="18.6" rx="2.5" fill="#fff" stroke="#246EDE"/><path d="M548 219l-12.5 11.5-12.6-11.5m25.2 17.9l-9.8-9m-15.4 9l9.8-9" stroke="#246EDE"/><rect opacity=".2" x="524.7" y="405" width="26.4" height="18.9" rx="2" fill="#246EDE"/><rect x="522.5" y="407.5" width="26" height="18.6" rx="2.5" fill="#fff" stroke="#246EDE"/><path d="M548 408l-12.5 11.5-12.6-11.5m25.2 17.9l-9.8-9m-15.4 9l9.8-9" stroke="#246EDE"/><rect opacity=".2" x="457.7" y="71" width="26.4" height="18.9" rx="2" fill="#246EDE"/><rect x="455.5" y="73.5" width="26" height="18.6" rx="2.5" fill="#fff" stroke="#246EDE"/><path opacity=".2" d="M481 74l-12.5 11.5L455.9 74" stroke="#246EDE"/><path d="M481 91.9l-9.7-9m-15.4 9l9.8-9" stroke="#246EDE"/><rect opacity=".2" x="524.7" y="261" width="26.4" height="18.9" rx="2" fill="#246EDE"/><rect x="522.5" y="263.5" width="26" height="18.6" rx="2.5" fill="#fff" stroke="#246EDE"/><path d="M548 264l-12.5 11.5-12.6-11.5m25.2 17.9l-9.8-9m-15.4 9l9.8-9" stroke="#246EDE"/><rect opacity=".2" x="524.7" y="450" width="26.4" height="18.9" rx="2" fill="#246EDE"/><rect x="522.5" y="452.5" width="26" height="18.6" rx="2.5" fill="#fff" stroke="#246EDE"/><path d="M548 453l-12.5 11.5-12.6-11.5m25.2 17.9l-9.8-9m-15.4 9l9.8-9" stroke="#246EDE"/><rect opacity=".2" x="531.7" y="26" width="26.4" height="18.9" rx="2" fill="#246EDE"/><rect x="529.5" y="28.5" width="26" height="18.6" rx="2.5" fill="#fff" stroke="#246EDE"/><path d="M555 29l-12.5 11.5L529.9 29M555.1 47l-9.8-9m-15.4 9l9.8-9" stroke="#246EDE"/><rect opacity=".2" x="598.7" y="216" width="26.4" height="18.9" rx="2" fill="#246EDE"/><rect x="596.5" y="218.5" width="26" height="18.6" rx="2.5" fill="#fff" stroke="#246EDE"/><path d="M622 219l-12.5 11.5-12.6-11.5m25.2 17.9l-9.8-9m-15.4 9l9.8-9" stroke="#246EDE"/><rect opacity=".2" x="598.7" y="405" width="26.4" height="18.9" rx="2" fill="#246EDE"/><rect x="596.5" y="407.5" width="26" height="18.6" rx="2.5" fill="#fff" stroke="#246EDE"/><path d="M622 408l-12.5 11.5-12.6-11.5m25.2 17.9l-9.8-9m-15.4 9l9.8-9" stroke="#246EDE"/><rect opacity=".2" x="531.7" y="71" width="26.4" height="18.9" rx="2" fill="#246EDE"/><rect x="529.5" y="73.5" width="26" height="18.6" rx="2.5" fill="#fff" stroke="#246EDE"/><path d="M555 74l-12.5 11.5L529.9 74M555.1 92l-9.8-9m-15.4 9l9.8-9" stroke="#246EDE"/><rect opacity=".2" x="598.7" y="261" width="26.4" height="18.9" rx="2" fill="#246EDE"/><rect x="596.5" y="263.5" width="26" height="18.6" rx="2.5" fill="#fff" stroke="#246EDE"/><path d="M622 264l-12.5 11.5-12.6-11.5m25.2 17.9l-9.8-9m-15.4 9l9.8-9" stroke="#246EDE"/><rect opacity=".2" x="598.7" y="450" width="26.4" height="18.9" rx="2" fill="#246EDE"/><rect x="596.5" y="452.5" width="26" height="18.6" rx="2.5" fill="#fff" stroke="#246EDE"/><path d="M622 453l-12.5 11.5-12.6-11.5m25.2 17.9l-9.8-9m-15.4 9l9.8-9" stroke="#246EDE"/><rect opacity=".2" x="604.7" y="26" width="26.4" height="18.9" rx="2" fill="#246EDE"/><rect x="602.5" y="28.5" width="26" height="18.6" rx="2.5" fill="#fff" stroke="#246EDE"/><path d="M628 29l-12.5 11.5L602.9 29M628.1 47l-9.8-9m-15.4 9l9.8-9" stroke="#246EDE"/><rect opacity=".2" x="671.7" y="216" width="26.4" height="18.9" rx="2" fill="#246EDE"/><rect x="669.5" y="218.5" width="26" height="18.6" rx="2.5" fill="#fff" stroke="#246EDE"/><path d="M695 219l-12.5 11.5-12.6-11.5m25.2 17.9l-9.8-9m-15.4 9l9.8-9" stroke="#246EDE"/><rect opacity=".2" x="671.7" y="405" width="26.4" height="18.9" rx="2" fill="#246EDE"/><rect x="669.5" y="407.5" width="26" height="18.6" rx="2.5" fill="#fff" stroke="#246EDE"/><path d="M695 408l-12.5 11.5-12.6-11.5m25.2 17.9l-9.8-9m-15.4 9l9.8-9" stroke="#246EDE"/><rect opacity=".2" x="604.7" y="71" width="26.4" height="18.9" rx="2" fill="#246EDE"/><rect x="602.5" y="73.5" width="26" height="18.6" rx="2.5" fill="#fff" stroke="#246EDE"/><path d="M628 74l-12.5 11.5L602.9 74M628.1 92l-9.8-9m-15.4 9l9.8-9" stroke="#246EDE"/><rect opacity=".2" x="671.7" y="261" width="26.4" height="18.9" rx="2" fill="#246EDE"/><rect x="669.5" y="263.5" width="26" height="18.6" rx="2.5" fill="#fff" stroke="#246EDE"/><path d="M695 264l-12.5 11.5-12.6-11.5m25.2 17.9l-9.8-9m-15.4 9l9.8-9" stroke="#246EDE"/><rect opacity=".2" x="671.7" y="450" width="26.4" height="18.9" rx="2" fill="#246EDE"/><rect x="669.5" y="452.5" width="26" height="18.6" rx="2.5" fill="#fff" stroke="#246EDE"/><path d="M695 453l-12.5 11.5-12.6-11.5m25.2 17.9l-9.8-9m-15.4 9l9.8-9" stroke="#246EDE"/><rect opacity=".2" x="676.7" y="26" width="26.4" height="18.9" rx="2" fill="#246EDE"/><rect x="674.5" y="28.5" width="26" height="18.6" rx="2.5" fill="#fff" stroke="#246EDE"/><path d="M700 29l-12.5 11.5L674.9 29M700.1 47l-9.8-9m-15.4 9l9.8-9" stroke="#246EDE"/><rect opacity=".2" x="676.7" y="71" width="26.4" height="18.9" rx="2" fill="#246EDE"/><rect x="674.5" y="73.5" width="26" height="18.6" rx="2.5" fill="#fff" stroke="#246EDE"/><path d="M700 74l-12.5 11.5L674.9 74M700.1 92l-9.8-9m-15.4 9l9.8-9" stroke="#246EDE"/><path d="M673.6 11.3a1 1 0 0 0-1-1h-12a1 1 0 0 0 0 2h12a1 1 0 0 0 1-1zm-6.7 4.5a1 1 0 0 0-1-1h-5.3a1 1 0 1 0 0 2h5.3a1 1 0 0 0 1-1zm6.7 0a1 1 0 0 0-1-1h-2.4a1 1 0 0 0 0 2h2.4a1 1 0 0 0 1-1z" fill="#fff" stroke="#246EDE"/><path d="M657 11a4.5 4.5 0 0 1 4.6-4.5H672a4.5 4.5 0 0 1 4.5 4.5v4.6a4.5 4.5 0 0 1-4.5 4.5h-11.8a5.5 5.5 0 0 0-1.9.3l-2.4 1 .8-2.4a5.5 5.5 0 0 0 .4-2v-6z" stroke="#246EDE"/><path d="M673.6 203.3a1 1 0 0 0-1-1h-12a1 1 0 0 0 0 2h12a1 1 0 0 0 1-1zm-6.7 4.5a1 1 0 0 0-1-1h-5.3a1 1 0 1 0 0 2h5.3a1 1 0 0 0 1-1zm6.7 0a1 1 0 0 0-1-1h-2.4a1 1 0 0 0 0 2h2.4a1 1 0 0 0 1-1z" fill="#fff" stroke="#246EDE"/><path d="M657 203a4.5 4.5 0 0 1 4.6-4.5H672a4.5 4.5 0 0 1 4.5 4.5v4.6a4.5 4.5 0 0 1-4.5 4.5h-11.8c-.7 0-1.3.1-1.9.3l-2.4 1 .8-2.4a5.5 5.5 0 0 0 .4-2v-6z" stroke="#246EDE"/><path d="M673.6 391.3a1 1 0 0 0-1-1h-12a1 1 0 0 0 0 2h12a1 1 0 0 0 1-1zm-6.7 4.5a1 1 0 0 0-1-1h-5.3a1 1 0 1 0 0 2h5.3a1 1 0 0 0 1-1zm6.7 0a1 1 0 0 0-1-1h-2.4a1 1 0 0 0 0 2h2.4a1 1 0 0 0 1-1z" fill="#fff" stroke="#246EDE"/><path d="M657 391a4.5 4.5 0 0 1 4.6-4.5H672a4.5 4.5 0 0 1 4.5 4.5v4.6a4.5 4.5 0 0 1-4.5 4.5h-11.8c-.7 0-1.3.1-1.9.3l-2.4 1 .8-2.4a5.5 5.5 0 0 0 .4-2v-6z" stroke="#246EDE"/><path opacity=".1" d="M590 137.3h-14.6a1.5 1.5 0 0 1-1.5-1.5V114a1.5 1.5 0 0 1 1.5-1.5h11.3c.4 0 .7.1 1 .4l3.3 3.2a1.5 1.5 0 0 1 .5 1v18.7a1.5 1.5 0 0 1-1.5 1.5z" fill="#246EDE" stroke="#246EDE"/><path d="M587.6 139.7H573a2 2 0 0 1-2-2v-21.8a2 2 0 0 1 2-2h12l4.6 4.3v19.5a2 2 0 0 1-2 2z" fill="#fff"/><path d="M587.6 139.2H573a1.5 1.5 0 0 1-1.5-1.5v-21.8a1.5 1.5 0 0 1 1.5-1.5h11.9l4.2 4v19.3a1.5 1.5 0 0 1-1.5 1.5z" stroke="#246EDE" stroke-opacity=".6"/><path opacity=".6" d="M573 122h14m-14 3h14m-14 3h14m-14 3h14m-14 3h14" stroke="#246EDE"/><path opacity=".1" d="M590 325.3h-14.6a1.5 1.5 0 0 1-1.5-1.5V302a1.5 1.5 0 0 1 1.5-1.5h11.3c.4 0 .7.1 1 .4l3.3 3.2a1.5 1.5 0 0 1 .5 1v18.7a1.5 1.5 0 0 1-1.5 1.5z" fill="#246EDE" stroke="#246EDE"/><path d="M587.6 327.7H573a2 2 0 0 1-2-2v-21.8a2 2 0 0 1 2-2h12l4.6 4.3v19.5a2 2 0 0 1-2 2z" fill="#fff"/><path d="M587.6 327.2H573a1.5 1.5 0 0 1-1.5-1.5v-21.8a1.5 1.5 0 0 1 1.5-1.5h11.9l4.2 4v19.3a1.5 1.5 0 0 1-1.5 1.5z" stroke="#246EDE" stroke-opacity=".6"/><path opacity=".6" d="M573 310h14m-14 3h14m-14 3h14m-14 3h14m-14 3h14" stroke="#246EDE"/><path opacity=".1" d="M590 515.3h-14.6a1.5 1.5 0 0 1-1.5-1.5V492a1.5 1.5 0 0 1 1.5-1.5h11.3c.4 0 .7.1 1 .4l3.3 3.2a1.5 1.5 0 0 1 .5 1v18.7a1.5 1.5 0 0 1-1.5 1.5z" fill="#246EDE" stroke="#246EDE"/><path d="M587.6 517.7H573a2 2 0 0 1-2-2v-21.8a2 2 0 0 1 2-2h12l4.6 4.3v19.5a2 2 0 0 1-2 2z" fill="#fff"/><path d="M587.6 517.2H573a1.5 1.5 0 0 1-1.5-1.5v-21.8a1.5 1.5 0 0 1 1.5-1.5h11.9l4.2 4v19.3a1.5 1.5 0 0 1-1.5 1.5z" stroke="#246EDE" stroke-opacity=".6"/><path opacity=".6" d="M573 500h14m-14 3h14m-14 3h14m-14 3h14m-14 3h14" stroke="#246EDE"/><circle opacity=".3" cx="262.9" cy="572.2" r="16.2" fill="#246EDE"/><circle cx="259.2" cy="575" r="15.7" fill="#fff" stroke="#246EDE"/><circle cx="259.2" cy="575" r="12.9" stroke="#246EDE"/><path d="M259 575.4v1.7h3.5v2.6H259v3.2h-3.3v-3.2H254v-2.6h1.6v-10h5.3c1.6 0 2.9.4 3.8 1 .9.8 1.3 1.8 1.3 3.2s-.4 2.4-1.3 3c-1 .8-2.2 1.1-3.8 1.1h-2zm3.8-4.1c0-.5-.1-.8-.5-1-.3-.3-.8-.5-1.4-.5h-2v3h2c.6 0 1.1-.2 1.4-.4.4-.3.5-.6.5-1.1z" stroke="#246EDE"/><circle opacity=".3" cx="306.9" cy="577.2" r="16.2" fill="#246EDE"/><circle cx="303.2" cy="580" r="15.7" fill="#fff" stroke="#246EDE"/><circle cx="303.2" cy="580" r="12.9" stroke="#246EDE"/><path d="M303 580.4v1.7h3.5v2.6H303v3.2h-3.3v-3.2H298v-2.6h1.6v-10h5.3c1.6 0 2.9.4 3.8 1 .9.8 1.3 1.8 1.3 3.2s-.4 2.4-1.3 3c-1 .8-2.2 1.1-3.8 1.1h-2zm3.8-4.1c0-.5-.1-.8-.5-1-.3-.3-.8-.5-1.4-.5h-2v3h2c.6 0 1.1-.2 1.4-.4.4-.3.5-.6.5-1.1z" stroke="#246EDE"/><circle opacity=".3" cx="279.9" cy="610.2" r="16.2" fill="#246EDE"/><circle cx="276.2" cy="613" r="15.7" fill="#fff" stroke="#246EDE"/><circle cx="276.2" cy="613" r="12.9" stroke="#246EDE"/><path d="M276 613.4v1.7h3.5v2.6H276v3.2h-3.3v-3.2H271v-2.6h1.6v-10h5.3c1.6 0 2.9.4 3.8 1 .9.8 1.3 1.8 1.3 3.2s-.4 2.4-1.3 3c-1 .8-2.2 1.1-3.8 1.1h-2zm3.8-4.1c0-.5-.1-.8-.5-1-.3-.3-.8-.5-1.4-.5h-2v3h2c.6 0 1.1-.2 1.4-.4.4-.3.5-.6.5-1.1z" stroke="#246EDE"/><path opacity=".3" d="M380.6 527.9a3 3 0 0 1 3 0l16.2 9.3a3 3 0 0 1 1.5 2.6v18.8a3 3 0 0 1-1.5 2.6l-16.2 9.4a3 3 0 0 1-3 0l-16.3-9.4a3 3 0 0 1-1.5-2.6v-18.8a3 3 0 0 1 1.5-2.6l16.3-9.3z" fill="#246EDE" fill-opacity=".3"/><path d="M379 532a2.5 2.5 0 0 1 2.5 0l16.2 9.4a2.5 2.5 0 0 1 1.3 2.1v18.8a2.5 2.5 0 0 1-1.3 2.2l-16.2 9.4a2.5 2.5 0 0 1-2.5 0l-16.3-9.4a2.5 2.5 0 0 1-1.2-2.2v-18.8a2.5 2.5 0 0 1 1.2-2.1L379 532z" fill="#fff" stroke="#246EDE"/><path d="M379 535.7a2.5 2.5 0 0 1 2.5 0l13 7.5a2.5 2.5 0 0 1 1.3 2.2v15c0 1-.5 1.8-1.3 2.2l-13 7.5a2.5 2.5 0 0 1-2.5 0l-13-7.5a2.5 2.5 0 0 1-1.3-2.1v-15.1a2.5 2.5 0 0 1 1.2-2.2l13-7.5z" stroke="#246EDE"/><path d="M373.7 548.3l-4.6 5 4.6 5.2m12-10.2l4.7 5-4.6 5.2m-1.9-13l-8.3 15.8" stroke="#246EDE" stroke-linecap="round"/><path opacity=".3" d="M113.6 582.9a3 3 0 0 1 3 0l16.2 9.3a3 3 0 0 1 1.5 2.6v18.8a3 3 0 0 1-1.5 2.6l-16.2 9.4a3 3 0 0 1-3 0l-16.3-9.4a3 3 0 0 1-1.5-2.6v-18.8a3 3 0 0 1 1.5-2.6l16.3-9.3z" fill="#246EDE" fill-opacity=".3"/><path d="M112 587a2.5 2.5 0 0 1 2.5 0l16.2 9.4a2.5 2.5 0 0 1 1.3 2.1v18.8a2.5 2.5 0 0 1-1.3 2.2l-16.2 9.4a2.5 2.5 0 0 1-2.5 0l-16.3-9.4a2.5 2.5 0 0 1-1.2-2.2v-18.8a2.5 2.5 0 0 1 1.2-2.1L112 587z" fill="#fff" stroke="#246EDE"/><path d="M112 590.7a2.5 2.5 0 0 1 2.5 0l13 7.5a2.5 2.5 0 0 1 1.3 2.2v15c0 1-.5 1.8-1.3 2.2l-13 7.5a2.5 2.5 0 0 1-2.5 0l-13-7.5a2.5 2.5 0 0 1-1.3-2.1v-15.1a2.5 2.5 0 0 1 1.2-2.2l13-7.5z" stroke="#246EDE"/><path d="M106.7 603.3l-4.6 5 4.6 5.2m12-10.2l4.7 5-4.6 5.2m-1.9-13l-8.3 15.8" stroke="#246EDE" stroke-linecap="round"/><path d="M200 193h15v359h-15m234-215v54H255" stroke="#246EDE"/><path d="M466 338v81H352" stroke="#246EDE"/><path opacity=".3" d="M205.3 46.1a11.6 11.6 0 1 1 0-23 11.6 11.6 0 0 1 0 23z" fill="#246EDE" fill-opacity=".3"/><path d="M201.6 49.9a11.6 11.6 0 1 1 0-23.2 11.6 11.6 0 0 1 0 23.2z" fill="#fff" stroke="#246EDE" stroke-miterlimit="10"/><path d="M206.6 34.5h0a2 2 0 0 0-.5-.7 2 2 0 0 0-.8-.5c-.2-.2-.6-.3-1.2-.3h-2.5 0-2.6 0a5 5 0 0 0-1 .2h-.2 0a2 2 0 0 0-.7.6 2 2 0 0 0-.5.7c-.2.2-.3.6-.3 1.2v5.1h0l.2 1v.2h0a2 2 0 0 0 .6.8l.7.5 1.2.2h5.1v0h0l1-.2a5.1 5.1 0 0 1 .2 0h0l.8-.5.5-.8.2-1.2v-2.5-1.9-.7h0v0l-.2-1v-.2zm-9.1-2.2h0c.3-.2.8-.2 1.5-.3h5.2a3.7 3.7 0 0 1 2.6 1h0l.7 1.1h0c.2.4.2.8.3 1.5v5.2a3.8 3.8 0 0 1-1 2.6h0c-.3.4-.7.5-1.1.7h0c-.4.2-.8.3-1.5.3H199c-.7 0-1.1-.1-1.5-.3-.4-.2-.8-.3-1.1-.7h0c-.4-.3-.5-.6-.7-1h0c-.2-.4-.3-.9-.3-1.6v-2.6-2.6a3.7 3.7 0 0 1 1-2.6h0l1-.7z" fill="#246EDE" stroke="#fff" stroke-width=".1"/><path d="M198.4 38.3a3.2 3.2 0 0 1 3.2-3.2c1.7 0 3.1 1.4 3.2 3.2a3.2 3.2 0 0 1-3.2 3.2 3.2 3.2 0 0 1-3.2-3.2zm1 0c0 1.2 1 2.2 2.2 2.2 1.2 0 2.2-1 2.2-2.2 0-1.2-1-2.2-2.2-2.2-1.2 0-2.2 1-2.2 2.2zm6.2-3.4a.7.7 0 0 1-.7.7.7.7 0 0 1-.7-.7c0-.4.3-.7.7-.8.4.1.7.4.7.8z" fill="#246EDE" stroke="#fff" stroke-width=".1"/></g><defs><linearGradient id="paint0_linear" x1="375" y1="0" x2="375" y2="640" gradientUnits="userSpaceOnUse"><stop stop-color="#fff" stop-opacity=".4"/><stop offset="1" stop-color="#fff"/></linearGradient></defs></svg>