<svg width="916" height="754" viewBox="0 0 916 754" fill="none" xmlns="http://www.w3.org/2000/svg">
<path d="M120.012 754C57.6118 754 21.5614 749.597 8.13638 739.228C1.40822 734.069 0 728.285 0 724.377C0 691.993 88.6866 683.499 416.145 669.092C540.663 663.62 704.235 656.43 763.975 644.758C707.49 640.354 564.884 649.082 455.919 655.804C231.918 669.534 131.34 673.755 108.683 656.247C104.083 652.678 101.517 647.988 101.517 643.038C101.517 611.096 185.635 602.551 496.319 587.752C628.442 581.474 803.906 573.11 855.791 558.989C799.806 551.173 613.921 562.715 474.163 571.365C190.829 588.899 54.2321 594.709 25.0976 572.172C19.9028 568.186 17.0551 562.949 17.0551 557.452C17.0551 525.927 101.048 517.434 411.169 502.636C529.897 496.956 685.427 489.531 744.698 478.041C689.277 474.498 557.373 482.418 456.232 488.436C238.459 501.463 147.707 505.137 126.208 488.488C121.733 485.023 119.261 480.438 119.261 475.618C119.261 445.448 195.743 434.714 478.263 410.979C586.946 401.834 729.833 389.824 781.061 377.005C727.048 372.133 580.187 381.382 468.624 388.443C228.382 403.632 120.45 408.27 95.2582 388.808C90.3764 385.03 87.6852 380.08 87.6852 374.843C87.6852 350.535 129.181 342.537 383.662 317.786C477.136 308.693 597.993 296.943 653.007 285.141C607.037 284.203 521.949 289.361 455.418 293.348C280.987 303.769 227.881 304.915 211.828 292.514C207.697 289.309 205.444 285.089 205.444 280.581C205.444 258.097 240.399 250.854 454.792 228.969C520.103 222.3 602.593 213.858 650.316 205.521C602.03 205.313 519.226 210.107 453.916 213.962C276.011 224.488 221.998 225.66 205.85 213.181C201.751 209.976 199.498 205.73 199.498 201.248C199.498 181.5 227.881 173.632 402.094 145.103C439.177 139.033 483.52 131.764 518.851 124.912C499.511 125.823 478.763 127.074 460.582 128.142C352.931 134.525 324.454 134.942 313 126.032C309.808 123.557 307.148 118.659 307.148 115.063C307.148 104.199 317.538 96.0181 386.478 52.639C402.782 42.4 422.873 29.738 436.611 20.3326C435.046 18.2484 434.201 15.8254 434.201 13.3503C434.201 5.29976 443.37 -1.0573 452.852 0.558022C453.885 0.505915 455.199 0.427754 456.514 0.32354C465.057 -0.223584 471.19 -0.588334 476.698 3.68445C479.921 6.13348 481.768 9.70281 481.768 13.3243C481.768 23.902 472.473 31.197 405.38 73.4037C389.42 83.4343 368.265 96.7476 353.651 106.804C380.751 106.752 425.595 104.095 458.391 102.141C563.757 95.8618 591.828 95.445 603.062 104.147C606.254 106.622 608.852 111.442 608.852 115.037C608.852 134.577 580.781 142.367 408.196 170.635C361.349 178.295 302.986 187.883 265.309 196.142C265.434 196.142 265.528 196.142 265.653 196.142C312.562 196.142 390.171 191.556 451.757 187.909C633.699 177.149 693.063 175.898 709.962 189.029C714.186 192.286 716.502 196.637 716.502 201.196C716.502 224.358 677.98 232.356 458.704 254.736C400.654 260.702 328.459 268.05 281.456 275.371C327.927 274.823 397.306 270.629 453.259 267.268C629.756 256.69 687.399 255.466 704.079 268.362C708.272 271.619 710.588 275.918 710.588 280.477C710.588 308.38 645.622 318.437 387.417 343.553C299.075 352.15 183.788 363.353 136.535 373.879C193.552 379.585 348.519 369.815 466.34 362.363C695.16 347.904 797.835 343.422 821.086 361.347C825.717 364.969 828.284 369.71 828.284 374.739C828.284 403.762 758.561 413.48 481.486 436.798C368.515 446.282 219.87 458.787 167.077 472.518C219.432 476.452 352.493 468.453 454.041 462.357C670.5 449.408 767.667 445.5 789.636 462.487C794.173 466.004 796.677 470.616 796.677 475.514C796.677 506.179 719.538 513.943 413.015 528.559C281.926 534.812 107.244 543.201 58.1751 556.905C113.002 567.509 318.258 554.821 471.91 545.337C743.446 528.507 865.242 523.244 891.403 543.514C896.222 547.317 898.914 552.189 898.914 557.4C898.914 589.993 813.513 598.695 498.166 613.728C372.02 619.694 205.631 627.666 149.177 640.589C203.003 645.2 345.264 636.446 453.635 629.803C681.547 615.812 783.909 611.565 807.254 629.568C811.886 633.216 814.452 637.958 814.452 643.012C814.452 673.573 734.684 681.154 417.803 695.093C277.638 701.216 90.4703 709.475 40.4941 723.934C94.8201 735.007 305.302 721.668 462.678 711.715C750.518 693.504 879.574 687.824 908.083 709.787C913.152 713.721 916 718.932 916 724.351C916 731.516 908.99 737.378 900.353 737.378C893.281 737.378 887.335 733.496 885.363 728.155C854.07 713.044 629.662 727.321 465.025 737.717C307.806 747.669 194.929 754 120.012 754Z" fill="#F4F3EC"/>
</svg>
