<svg width="24" height="24" viewBox="0 0 24 24" fill="none" xmlns="http://www.w3.org/2000/svg">
<g clip-path="url(#clip0)">
<path d="M20.5057 24.0001H0.994241C0.61146 24.0001 0.301147 23.6897 0.301147 23.307V12.0429C0.301147 11.6602 0.61146 11.3499 0.994241 11.3499C1.37702 11.3499 1.68733 11.6602 1.68733 12.0429V22.6138H19.8125V21.0698C19.8125 20.6871 20.1228 20.3767 20.5056 20.3767C20.8884 20.3767 21.1987 20.6871 21.1987 21.0698V23.3069C21.1988 23.6897 20.8885 24.0001 20.5057 24.0001Z" fill="#B3404A"/>
<path d="M0.994263 8.30121V8.07658L8.25314 0.693115V8.30121H0.994263Z" fill="#F4B2B0"/>
<path d="M23.0061 10.2856H9.21204V17.9596H23.0061V10.2856Z" fill="#F4B2B0"/>
<path d="M23.0058 9.59222H21.1988V0.693094C21.1988 0.310359 20.8885 0 20.5057 0H8.25316C8.25002 0 8.24698 0.000421875 8.24388 0.00046875C8.22705 0.00065625 8.21027 0.0015 8.19349 0.00295313C8.18787 0.00342187 8.18219 0.0039375 8.17657 0.00454688C8.15735 0.00670313 8.13832 0.00946875 8.11938 0.0132188C8.11793 0.0135 8.11652 0.0136406 8.11507 0.0139219C8.09482 0.0180937 8.07485 0.0232969 8.05507 0.0291562C8.04987 0.0307031 8.04476 0.0324844 8.0396 0.034125C8.02451 0.0390469 8.00951 0.0444375 7.99469 0.0503906C7.98963 0.0524531 7.98452 0.0544219 7.97951 0.0565781C7.94168 0.0727969 7.90521 0.0924844 7.87048 0.1155C7.86569 0.118641 7.8611 0.122016 7.85641 0.125203C7.84357 0.134156 7.83105 0.143578 7.81877 0.153469C7.81413 0.157219 7.80949 0.160828 7.80499 0.164719C7.7891 0.178172 7.77358 0.192188 7.75882 0.207188L0.500038 7.5907C0.483819 7.6072 0.468585 7.62441 0.454241 7.64227C0.44571 7.65286 0.43821 7.66397 0.430382 7.67489C0.425132 7.68225 0.419413 7.68938 0.414444 7.69692C0.405351 7.7107 0.397382 7.725 0.389413 7.73925C0.386507 7.7445 0.383179 7.74952 0.380413 7.75486C0.372632 7.76962 0.365976 7.78481 0.359366 7.8C0.357022 7.80534 0.354304 7.81055 0.352101 7.81594C0.346194 7.83056 0.341272 7.84538 0.336351 7.86028C0.334194 7.8668 0.33171 7.87313 0.329788 7.87964C0.32571 7.89342 0.322663 7.90734 0.319476 7.92131C0.317601 7.92938 0.315397 7.93725 0.313804 7.94545C0.311319 7.9583 0.309866 7.97123 0.308132 7.98413C0.306866 7.99355 0.305226 8.00283 0.304335 8.01225C0.303163 8.02481 0.302929 8.03733 0.30246 8.0498C0.302132 8.05875 0.301147 8.06761 0.301147 8.07656V8.30119C0.301147 8.68392 0.61146 8.99428 0.994241 8.99428H8.25307C8.63585 8.99428 8.94616 8.68392 8.94616 8.30119V1.38619H19.8125V9.59222H9.21176C8.82898 9.59222 8.51866 9.90258 8.51866 10.2853V17.959C8.51866 18.3417 8.82898 18.6521 9.21176 18.6521H23.0058C23.3885 18.6521 23.6989 18.3417 23.6989 17.959V10.2854C23.6989 9.90263 23.3886 9.59222 23.0058 9.59222ZM2.42679 7.60819L4.67388 5.32256L7.56002 2.38678V7.60819H2.42679ZM22.3127 17.2659H9.9049V10.9785H22.3127V17.2659Z" fill="#B3404A"/>
<path d="M11.535 12.2219C11.535 12.0719 11.6721 11.9399 11.8807 11.9399H13.1146C13.9013 11.9399 14.5212 12.3118 14.5212 13.3196V13.3496C14.5212 14.3574 13.8774 14.7413 13.0549 14.7413H12.4648V16.037C12.4648 16.229 12.2324 16.3249 11.9999 16.3249C11.7674 16.3249 11.5349 16.2289 11.5349 16.037L11.535 12.2219ZM12.4648 12.7557V14.0214H13.0549C13.3887 14.0214 13.5914 13.8294 13.5914 13.4216V13.3557C13.5914 12.9477 13.3887 12.7558 13.0549 12.7558H12.4648V12.7557Z" fill="#B3404A"/>
<path d="M16.3869 11.9399C17.2094 11.9399 17.8532 12.3238 17.8532 13.3557V14.9093C17.8532 15.9411 17.2095 16.325 16.3869 16.325H15.3318C15.0874 16.325 14.9265 16.193 14.9265 16.0431V12.2219C14.9265 12.0719 15.0874 11.94 15.3318 11.94H16.3869V11.9399ZM15.8564 12.7557V15.5091H16.3869C16.7207 15.5091 16.9233 15.3171 16.9233 14.9093V13.3556C16.9233 12.9477 16.7207 12.7558 16.3869 12.7558H15.8564V12.7557Z" fill="#B3404A"/>
<path d="M18.4433 12.2278C18.4433 12.0358 18.6459 11.9399 18.8486 11.9399H20.917C21.1137 11.9399 21.1971 12.1499 21.1971 12.3418C21.1971 12.5638 21.0958 12.7558 20.917 12.7558H19.3731V13.7696H20.2732C20.452 13.7696 20.5534 13.9435 20.5534 14.1355C20.5534 14.2975 20.4699 14.4894 20.2732 14.4894H19.3731V16.037C19.3731 16.229 19.1407 16.3249 18.9082 16.3249C18.6757 16.3249 18.4432 16.2289 18.4432 16.037V12.2278H18.4433Z" fill="#B3404A"/>
</g>
<defs>
<clipPath id="clip0">
<rect width="24" height="24" fill="white"/>
</clipPath>
</defs>
</svg>
