<svg width="1554" height="222" viewBox="0 0 1554 222" fill="none" xmlns="http://www.w3.org/2000/svg">
<path d="M134.286 217.99H105.672L37.5147 141.496H22.3061V217.99H0.000171021V50.2446H22.3061V125.499C26.1364 125.424 29.7414 125.048 33.1211 124.372C36.5008 123.696 39.6927 122.42 42.6969 120.542C45.7011 118.815 48.6677 116.374 51.5967 113.219C54.5258 109.99 57.1169 106.047 59.37 101.391C60.3464 99.3627 61.4729 96.8092 62.7497 93.7299C64.1016 90.6506 65.4535 87.4212 66.8053 84.0415C71.9875 71.5742 78.0334 62.8245 84.943 57.7926C91.9277 52.7606 102.179 50.2446 115.698 50.2446H124.598V70.1847H115.248C110.065 70.1847 106.01 70.6729 103.081 71.6493C100.152 72.5505 97.5229 74.0902 95.1947 76.2682C93.0167 78.2209 91.1015 80.8495 89.4492 84.1541C87.872 87.4587 86.2198 91.3266 84.4924 95.7577C80.5869 105.671 76.6064 112.957 72.5508 117.613C68.5703 122.269 63.2003 126.325 56.441 129.78L134.286 217.99ZM314.343 205.823C310.212 207.625 306.457 209.315 303.077 210.892C299.772 212.47 295.416 214.122 290.009 215.849C285.428 217.276 280.433 218.478 275.026 219.454C269.693 220.506 263.798 221.031 257.339 221.031C245.172 221.031 234.094 219.342 224.105 215.962C214.191 212.507 205.554 207.137 198.194 199.852C190.984 192.717 185.351 183.667 181.296 172.702C177.24 161.662 175.212 148.856 175.212 134.286C175.212 120.467 177.165 108.112 181.07 97.2222C184.976 86.3321 190.609 77.1319 197.969 69.6215C205.104 62.3364 213.703 56.7787 223.767 52.9483C233.906 49.118 245.134 47.2029 257.451 47.2029C266.464 47.2029 275.439 48.2919 284.376 50.4699C293.389 52.6479 303.377 56.4782 314.343 61.9608V88.4351H312.653C303.415 80.6993 294.252 75.0665 285.165 71.5366C276.077 68.0067 266.351 66.2418 255.987 66.2418C247.5 66.2418 239.839 67.6312 233.005 70.4101C226.245 73.1138 220.2 77.3572 214.867 83.1402C209.685 88.773 205.629 95.9079 202.7 104.545C199.846 113.107 198.419 123.021 198.419 134.286C198.419 146.078 199.997 156.217 203.151 164.703C206.38 173.19 210.511 180.1 215.543 185.432C220.8 190.99 226.921 195.121 233.906 197.824C240.966 200.453 248.401 201.767 256.212 201.767C266.952 201.767 277.016 199.927 286.404 196.247C295.792 192.567 304.579 187.047 312.765 179.687H314.343V205.823ZM499.356 217.99H477.163V83.5908L393.797 217.99H371.266V50.2446H393.459V182.616L475.811 50.2446H499.356V217.99ZM634.913 154.79L564.615 154.79V134.399L634.913 134.399V154.79ZM829.614 205.823C825.484 207.625 821.728 209.315 818.349 210.892C815.044 212.47 810.688 214.122 805.281 215.849C800.699 217.276 795.705 218.478 790.297 219.454C784.965 220.506 779.069 221.031 772.61 221.031C760.443 221.031 749.366 219.342 739.377 215.962C729.463 212.507 720.826 207.137 713.466 199.852C706.256 192.717 700.623 183.667 696.567 172.702C692.512 161.662 690.484 148.856 690.484 134.286C690.484 120.467 692.437 108.112 696.342 97.2222C700.247 86.3321 705.88 77.1319 713.24 69.6215C720.375 62.3364 728.975 56.7787 739.039 52.9483C749.178 49.118 760.406 47.2029 772.723 47.2029C781.735 47.2029 790.71 48.2919 799.648 50.4699C808.66 52.6479 818.649 56.4782 829.614 61.9608V88.4351H827.924C818.687 80.6993 809.524 75.0665 800.436 71.5366C791.349 68.0067 781.623 66.2418 771.258 66.2418C762.772 66.2418 755.111 67.6312 748.277 70.4101C741.517 73.1138 735.471 77.3572 730.139 83.1402C724.957 88.773 720.901 95.9079 717.972 104.545C715.118 113.107 713.691 123.021 713.691 134.286C713.691 146.078 715.268 156.217 718.423 164.703C721.652 173.19 725.783 180.1 730.815 185.432C736.072 190.99 742.193 195.121 749.178 197.824C756.238 200.453 763.673 201.767 771.484 201.767C782.224 201.767 792.288 199.927 801.676 196.247C811.064 192.567 819.851 187.047 828.037 179.687H829.614V205.823ZM1006.18 70.0721H946.245V217.99H923.939V70.0721H864.006V50.2446L1006.18 50.2446V70.0721ZM1163.82 100.94C1163.82 108.375 1162.5 115.285 1159.87 121.669C1157.32 127.977 1153.71 133.46 1149.06 138.116C1143.27 143.899 1136.44 148.256 1128.55 151.185C1120.67 154.039 1110.72 155.466 1098.7 155.466H1076.39V217.99H1054.09V50.2446H1099.6C1109.67 50.2446 1118.19 51.1083 1125.17 52.8357C1132.16 54.488 1138.36 57.1166 1143.76 60.7216C1150.15 65.0026 1155.07 70.335 1158.52 76.7188C1162.05 83.1027 1163.82 91.1764 1163.82 100.94ZM1140.61 101.503C1140.61 95.7202 1139.59 90.6882 1137.57 86.4072C1135.54 82.1263 1132.46 78.634 1128.33 75.9302C1124.72 73.602 1120.59 71.9497 1115.94 70.9733C1111.36 69.9219 1105.53 69.3962 1098.48 69.3962H1076.39V136.427H1095.21C1104.22 136.427 1111.54 135.638 1117.18 134.061C1122.81 132.409 1127.39 129.817 1130.92 126.288C1134.45 122.683 1136.93 118.89 1138.36 114.909C1139.86 110.929 1140.61 106.46 1140.61 101.503ZM1343.76 69.5088C1350.59 77.0192 1355.81 86.2195 1359.42 97.1096C1363.1 108 1364.94 120.354 1364.94 134.173C1364.94 147.993 1363.06 160.385 1359.31 171.35C1355.63 182.24 1350.44 191.328 1343.76 198.613C1336.85 206.198 1328.66 211.906 1319.2 215.737C1309.81 219.567 1299.07 221.482 1286.98 221.482C1275.19 221.482 1264.45 219.529 1254.76 215.624C1245.15 211.719 1236.96 206.048 1230.2 198.613C1223.44 191.178 1218.22 182.052 1214.54 171.237C1210.94 160.422 1209.14 148.068 1209.14 134.173C1209.14 120.505 1210.94 108.263 1214.54 97.4476C1218.15 86.5575 1223.4 77.2445 1230.31 69.5088C1236.92 62.1486 1245.11 56.5158 1254.87 52.6104C1264.71 48.705 1275.41 46.7522 1286.98 46.7522C1299 46.7522 1309.77 48.7425 1319.31 52.723C1328.93 56.6284 1337.08 62.2237 1343.76 69.5088ZM1341.73 134.173C1341.73 112.393 1336.85 95.6075 1327.09 83.8162C1317.32 71.9497 1303.99 66.0165 1287.09 66.0165C1270.04 66.0165 1256.64 71.9497 1246.88 83.8162C1237.19 95.6075 1232.34 112.393 1232.34 134.173C1232.34 156.179 1237.3 173.04 1247.21 184.756C1257.13 196.397 1270.42 202.218 1287.09 202.218C1303.77 202.218 1317.02 196.397 1326.86 184.756C1336.77 173.04 1341.73 156.179 1341.73 134.173ZM1553.78 217.99H1531.59V83.5908L1448.22 217.99H1425.69V50.2446H1447.89V182.616L1530.24 50.2446H1553.78V217.99ZM1533.39 -9.88096e-05C1533.02 12.4672 1529.04 21.8552 1521.45 28.164C1513.94 34.4727 1503.88 37.6271 1491.26 37.6271C1478.64 37.6271 1468.54 34.4727 1460.95 28.164C1453.44 21.8552 1449.5 12.4672 1449.12 -9.88096e-05H1469.63C1469.78 8.41157 1471.66 14.495 1475.26 18.2502C1478.87 21.9303 1484.2 23.7704 1491.26 23.7704C1498.39 23.7704 1503.73 21.9303 1507.26 18.2502C1510.86 14.5701 1512.74 8.48667 1512.89 -9.88096e-05H1533.39Z" fill="white"/>
</svg>
