<svg xmlns="http://www.w3.org/2000/svg">

	<symbol id="i-vk" viewBox="0 0 32 32">
		<path d="M16 0C7.16374 0 0 7.16342 0 16C0 24.8366 7.16374 32 16 32C24.8363 32 32 24.8366 32 16C32 7.16342 24.8363 0 16 0ZM24.1161 17.7305C24.8618 18.4588 25.6507 19.1443 26.3202 19.948C26.6168 20.3036 26.8964 20.6712 27.1092 21.0846C27.413 21.6742 27.1386 22.3208 26.6109 22.3558L23.333 22.3552C22.4864 22.4252 21.8127 22.0838 21.2447 21.505C20.7913 21.0437 20.3707 20.551 19.934 20.0741C19.7555 19.8783 19.5676 19.694 19.3437 19.549C18.8969 19.2583 18.5086 19.3473 18.2526 19.8141C17.9917 20.2891 17.9321 20.8155 17.9072 21.3442C17.8715 22.1172 17.6385 22.3191 16.8629 22.3555C15.2058 22.4331 13.6335 22.1816 12.1721 21.3462C10.8829 20.6093 9.88514 19.5693 9.01565 18.3917C7.32252 16.0962 6.02582 13.5768 4.86073 10.9851C4.59851 10.4014 4.79034 10.0891 5.43427 10.077C6.5041 10.0563 7.57393 10.059 8.64376 10.076C9.07916 10.0829 9.36724 10.332 9.53453 10.7428C10.1127 12.1652 10.8214 13.5186 11.7095 14.7737C11.9462 15.1079 12.1878 15.4412 12.5319 15.6772C12.9116 15.9378 13.201 15.8517 13.3801 15.4278C13.4947 15.1583 13.5441 14.8703 13.569 14.5815C13.6541 13.5926 13.6642 12.6039 13.5169 11.6189C13.4253 11.0024 13.0786 10.6044 12.4641 10.4878C12.1512 10.4286 12.197 10.3127 12.3492 10.1339C12.6134 9.8249 12.8609 9.63372 13.3555 9.63372L17.059 9.63306C17.6427 9.74764 17.7737 10.0095 17.8529 10.5975L17.8562 14.7131C17.8493 14.9406 17.9704 15.615 18.379 15.764C18.7063 15.872 18.9224 15.6095 19.1182 15.4022C20.0063 14.4597 20.6391 13.3474 21.2058 12.196C21.4559 11.6883 21.6716 11.1628 21.8811 10.6364C22.0369 10.2472 22.2792 10.0557 22.7185 10.0622L26.2848 10.0665C26.3899 10.0665 26.4967 10.0675 26.6008 10.0855C27.2018 10.1883 27.3665 10.4469 27.1805 11.0332C26.8879 11.9544 26.3192 12.7218 25.7634 13.4911C25.1675 14.3147 24.5321 15.1096 23.9422 15.9368C23.4001 16.693 23.443 17.0738 24.1161 17.7305Z"/>
	</symbol>

	<symbol id="i-insta" viewBox="0 0 32 32">
		<path d="M19.0625 16C19.0625 17.6914 17.6914 19.0625 16 19.0625C14.3086 19.0625 12.9375 17.6914 12.9375 16C12.9375 14.3086 14.3086 12.9375 16 12.9375C17.6914 12.9375 19.0625 14.3086 19.0625 16Z"/>
		<path d="M23.1621 10.5818C23.0149 10.1829 22.78 9.82178 22.4749 9.52539C22.1785 9.22021 21.8176 8.98535 21.4185 8.83813C21.0947 8.7124 20.6084 8.56274 19.7126 8.52197C18.7437 8.47778 18.4531 8.46826 16 8.46826C13.5466 8.46826 13.2561 8.47754 12.2874 8.52173C11.3916 8.56274 10.905 8.7124 10.5815 8.83813C10.1824 8.98535 9.82129 9.22021 9.52515 9.52539C9.21997 9.82178 8.98511 10.1826 8.83765 10.5818C8.71191 10.9055 8.56226 11.3921 8.52148 12.2878C8.47729 13.2566 8.46777 13.5471 8.46777 16.0005C8.46777 18.4536 8.47729 18.7441 8.52148 19.7131C8.56226 20.6089 8.71191 21.0952 8.83765 21.4189C8.98511 21.8181 9.21973 22.179 9.5249 22.4753C9.82129 22.7805 10.1821 23.0154 10.5813 23.1626C10.905 23.2886 11.3916 23.4382 12.2874 23.479C13.2561 23.5232 13.5464 23.5325 15.9998 23.5325C18.4534 23.5325 18.7439 23.5232 19.7124 23.479C20.6082 23.4382 21.0947 23.2886 21.4185 23.1626C22.2197 22.8535 22.853 22.2202 23.1621 21.4189C23.2878 21.0952 23.4375 20.6089 23.4785 19.7131C23.5227 18.7441 23.532 18.4536 23.532 16.0005C23.532 13.5471 23.5227 13.2566 23.4785 12.2878C23.4377 11.3921 23.2881 10.9055 23.1621 10.5818ZM16 20.718C13.3943 20.718 11.282 18.606 11.282 16.0002C11.282 13.3945 13.3943 11.2825 16 11.2825C18.6055 11.2825 20.7178 13.3945 20.7178 16.0002C20.7178 18.606 18.6055 20.718 16 20.718ZM20.9043 12.1985C20.2954 12.1985 19.8018 11.7048 19.8018 11.0959C19.8018 10.4871 20.2954 9.99341 20.9043 9.99341C21.5132 9.99341 22.0068 10.4871 22.0068 11.0959C22.0066 11.7048 21.5132 12.1985 20.9043 12.1985Z" />
		<path d="M16 0C7.16479 0 0 7.16479 0 16C0 24.8352 7.16479 32 16 32C24.8352 32 32 24.8352 32 16C32 7.16479 24.8352 0 16 0ZM25.1321 19.7878C25.0876 20.7659 24.9321 21.4336 24.7051 22.0181C24.2278 23.2522 23.2522 24.2278 22.0181 24.7051C21.4338 24.9321 20.7659 25.0874 19.7881 25.1321C18.8083 25.1768 18.4954 25.1875 16.0002 25.1875C13.5049 25.1875 13.1921 25.1768 12.2122 25.1321C11.2344 25.0874 10.5664 24.9321 9.98218 24.7051C9.3689 24.4744 8.81372 24.1128 8.35474 23.6453C7.88745 23.1865 7.52588 22.6311 7.29517 22.0181C7.06812 21.4338 6.9126 20.7659 6.86816 19.7881C6.823 18.8081 6.8125 18.4951 6.8125 16C6.8125 13.5049 6.823 13.1919 6.86792 12.2122C6.91235 11.2341 7.06763 10.5664 7.29468 9.98193C7.52539 9.3689 7.88721 8.81348 8.35474 8.35474C8.81348 7.88721 9.3689 7.52563 9.98193 7.29492C10.5664 7.06787 11.2341 6.9126 12.2122 6.86792C13.1919 6.82324 13.5049 6.8125 16 6.8125C18.4951 6.8125 18.8081 6.82324 19.7878 6.86816C20.7659 6.9126 21.4336 7.06787 22.0181 7.29468C22.6311 7.52539 23.1865 7.88721 23.6455 8.35474C24.1128 8.81372 24.4746 9.3689 24.7051 9.98193C24.9324 10.5664 25.0876 11.2341 25.1323 12.2122C25.177 13.1919 25.1875 13.5049 25.1875 16C25.1875 18.4951 25.177 18.8081 25.1321 19.7878Z"/>
	</symbol>

	<symbol id="i-whatsapp" viewBox="0 0 32 32">
		<path d="M16 0C7.16479 0 0 7.16479 0 16C0 24.8352 7.16479 32 16 32C24.8352 32 32 24.8352 32 16C32 7.16479 24.8352 0 16 0ZM16.3391 25.3157C16.3389 25.3157 16.3394 25.3157 16.3391 25.3157H16.3352C14.7324 25.3149 13.1575 24.9131 11.7588 24.1504L6.68237 25.4817L8.04102 20.5208C7.20288 19.0691 6.76196 17.4221 6.7627 15.7349C6.76489 10.4565 11.0608 6.16235 16.3391 6.16235C18.9006 6.16333 21.3052 7.1604 23.113 8.96973C24.9211 10.7793 25.9163 13.1846 25.9153 15.7424C25.9131 21.021 21.6167 25.3157 16.3391 25.3157Z" />
		<path d="M16.3423 7.7793C11.9519 7.7793 8.38135 11.3484 8.37939 15.7356C8.37891 17.239 8.79981 18.7031 9.59644 19.97L9.78565 20.271L8.98145 23.2073L11.9939 22.4172L12.2847 22.5896C13.5066 23.3147 14.9075 23.6982 16.3357 23.6987H16.3389C20.7258 23.6987 24.2964 20.1294 24.2984 15.7419C24.2991 13.6157 23.4719 11.6167 21.9693 10.1128C20.4666 8.60889 18.468 7.78003 16.3423 7.7793ZM21.0239 19.1565C20.8245 19.7151 19.8687 20.2251 19.4089 20.2939C18.9966 20.3555 18.4751 20.3811 17.9019 20.1992C17.5542 20.0889 17.1087 19.9417 16.5376 19.6953C14.1375 18.6592 12.5698 16.2432 12.4502 16.0835C12.3306 15.9238 11.4731 14.7864 11.4731 13.6089C11.4731 12.4316 12.0913 11.8528 12.3106 11.6135C12.53 11.374 12.7893 11.3142 12.9487 11.3142C13.1082 11.3142 13.2678 11.3157 13.4072 11.3225C13.5542 11.3298 13.7515 11.2666 13.9456 11.7332C14.145 12.2122 14.6235 13.3894 14.6834 13.509C14.7432 13.6289 14.783 13.7686 14.7034 13.9282C14.6235 14.0879 14.3584 14.4324 14.1052 14.7463C13.999 14.8779 13.8606 14.9951 14.0002 15.2346C14.1397 15.4739 14.6201 16.2573 15.3313 16.8916C16.2454 17.7065 17.0164 17.959 17.2556 18.0789C17.4946 18.1985 17.6343 18.1785 17.7739 18.019C17.9133 17.8594 18.3721 17.3206 18.5315 17.0811C18.6909 16.8416 18.8506 16.8816 19.0698 16.9614C19.2893 17.041 20.4656 17.6199 20.7048 17.7395C20.9441 17.8594 21.1035 17.9192 21.1633 18.019C21.2234 18.1189 21.2234 18.5977 21.0239 19.1565Z" />
	</symbol>

	<symbol id="i-fb" viewBox="0 0 32 32">
		<path d="M32 16C32 7.1625 24.8375 0 16 0C7.1625 0 0 7.1625 0 16C0 24.8375 7.1625 32 16 32C16.0938 32 16.1875 32 16.2812 31.9937V19.5438H12.8438V15.5375H16.2812V12.5875C16.2812 9.16875 18.3688 7.30625 21.4188 7.30625C22.8813 7.30625 24.1375 7.4125 24.5 7.4625V11.0375H22.4C20.7437 11.0375 20.4188 11.825 20.4188 12.9812V15.5312H24.3875L23.8687 19.5375H20.4188V31.3813C27.1063 29.4625 32 23.3062 32 16Z" />
	</symbol>

	<symbol id="arrow-right" viewBox="0 0 142 32">
		<path fill-rule="evenodd" clip-rule="evenodd" d="M126 0L123.2 2.8L134.4 14H0V18H134.4L123.2 29.2L126 32L142 16L126 0Z" fill="#151515"/>
	</symbol>

	<symbol id="arrow-left" viewBox="0 0 142 32">
		<path fill-rule="evenodd" clip-rule="evenodd" d="M16 32L18.8 29.2L7.60001 18L142 18L142 14L7.60001 14L18.8 2.79999L16 -1.10153e-05L1.39876e-06 16L16 32Z" fill="#151515"/>
	</symbol>

</svg>
