<svg xmlns="http://www.w3.org/2000/svg">

	<symbol id="svg-search" viewBox="0 0 28 28">
        <path d="M10.2378 2.50977C5.9754 2.50977 2.50781 5.9771 2.50781 10.2393C2.50781 12.3042 3.31174 14.2455 4.77144 15.7054C6.23139 17.1654 8.17264 17.9695 10.2377 17.9695C12.302 17.9695 14.2431 17.1656 15.7032 15.7054C17.1636 14.245 17.9677 12.304 17.9677 10.2395C17.9678 5.97736 14.5002 2.50977 10.2378 2.50977ZM15.0155 15.0172C13.7391 16.2934 12.0424 16.9966 10.2378 16.9966C8.43255 16.9966 6.73544 16.2934 5.45951 15.0177C4.18358 13.7415 3.48088 12.0448 3.48088 10.2396C3.48088 6.51403 6.51233 3.48302 10.2379 3.48302C13.9636 3.48302 16.9949 6.51403 16.9949 10.2398C16.9948 12.0441 16.292 13.741 15.0155 15.0172Z" fill="#282828"/>
        <path d="M27.0981 22.7471L21.0037 16.6527L19.9991 17.6572L18.5526 16.2111C21.467 12.1648 21.0364 6.55852 17.4773 2.99908C15.5434 1.06511 12.9721 0 10.2373 0C10.2371 0 10.2375 0 10.2371 0C7.50274 0 4.93119 1.06511 2.99798 2.99883C-0.994119 6.99118 -0.994119 13.4867 2.99798 17.4784C6.55679 21.0381 12.163 21.4688 16.2097 18.5541L17.6564 20.0002L16.6514 21.0056L22.7458 27.0997C23.3458 27.6997 24.1337 28 24.9218 28C25.7097 27.9996 26.4983 27.6997 27.0981 27.0997C27.6793 26.5186 27.9995 25.7459 27.9998 24.9236C27.9998 24.1015 27.6796 23.3283 27.0981 22.7471ZM26.4105 26.4116C25.5895 27.2322 24.2542 27.2322 23.4336 26.4116L18.0271 21.0057L19.5152 19.5168L18.8272 18.8287L18.3439 19.3122L16.293 17.2619L15.954 17.5288C12.2737 20.4216 6.99958 20.1044 3.68592 16.7906C0.0732708 13.1781 0.0732708 7.29968 3.68592 3.68683C5.43587 1.93669 7.76259 0.973003 10.2375 0.973003C12.7124 0.973003 15.0393 1.93695 16.7892 3.68702C20.1031 7.00106 20.4202 12.2754 17.5272 15.9557L17.2606 16.2948L19.9995 19.0332L21.004 18.0287L26.4105 23.4347C26.8079 23.8326 27.0272 24.3607 27.0272 24.9234C27.027 25.4855 26.808 26.0142 26.4105 26.4116Z" fill="#282828"/>
        <path d="M24.8109 25.0351L23.4383 23.6621L22.75 24.3501L24.123 25.7236C24.4115 26.0116 24.7479 26.0546 24.9228 26.0546C25.098 26.0546 25.4346 26.0116 25.7236 25.7227L25.0355 25.0347C24.9737 25.0967 24.872 25.0963 24.8109 25.0351Z" fill="#282828"/>
        <path d="M6.37805 6.37981C5.34582 7.4123 4.77734 8.78267 4.77734 10.2389H5.75035C5.75035 9.04258 6.21759 7.91647 7.06631 7.06801C7.91477 6.21954 9.04044 5.7523 10.2365 5.7523H10.237V4.7793C10.237 4.7793 10.2368 4.7793 10.2365 4.7793C8.78027 4.77936 7.41009 5.34777 6.37805 6.37981Z" fill="#282828"/>
	</symbol>

    <symbol id="svg-phone" viewBox="0 0 10 10">
        <path d="M9.51968 7.17062L8.30968 5.95062C8.10968 5.75062 7.83968 5.63062 7.58968 5.63062C7.31968 5.63062 7.07968 5.74062 6.86968 5.95062L6.16968 6.65062C6.13968 6.63062 6.09968 6.61062 6.06968 6.60062C6.06968 6.60062 6.05968 6.60062 6.05968 6.59062L6.04968 6.58062C5.95968 6.52062 5.85968 6.46062 5.73968 6.41062C5.12968 6.03062 4.55968 5.50062 3.97968 4.79062C3.70968 4.45062 3.51968 4.15062 3.36968 3.82062C3.52968 3.69062 3.64968 3.56062 3.73968 3.46062L4.04968 3.15062C4.28968 2.93062 4.40968 2.68062 4.40968 2.42062C4.40968 2.15062 4.28968 1.90062 4.05968 1.66062L3.10968 0.710625C3.01968 0.620625 2.92968 0.530625 2.82968 0.440625C2.62968 0.250625 2.37968 0.140625 2.11968 0.140625C1.82968 0.140625 1.58968 0.240625 1.36968 0.460625L0.63968 1.19062C0.34968 1.46062 0.17968 1.80063 0.13968 2.22062V2.23062C0.11968 2.75062 0.199679 3.23062 0.419679 3.83062C0.769679 4.77062 1.29968 5.65062 2.08968 6.62062C3.11968 7.78062 4.27968 8.68062 5.56968 9.30062L5.59968 9.31062C5.97968 9.48062 6.69968 9.80062 7.49968 9.85062H7.60968C8.13968 9.85062 8.53968 9.68062 8.86968 9.32062C8.98968 9.18062 9.11968 9.05062 9.22968 8.93062C9.31968 8.86062 9.37968 8.79062 9.43968 8.72062L9.51968 8.64062L9.53968 8.62062C9.95968 8.16062 9.95968 7.60062 9.51968 7.17062ZM9.16968 8.28062L9.06968 8.38062L9.05968 8.40062C9.00968 8.46062 8.96968 8.51062 8.91968 8.55062L8.88968 8.58062C8.76968 8.70062 8.62968 8.84062 8.48968 9.00062C8.25968 9.25062 7.99968 9.36062 7.60968 9.36062H7.52968C6.82968 9.31062 6.18968 9.03062 5.80968 8.86062L5.78968 8.85062C4.55968 8.26062 3.44968 7.40062 2.47968 6.30062C1.71968 5.38062 1.21968 4.54062 0.88968 3.66062C0.68968 3.11062 0.61968 2.71062 0.63968 2.26062C0.66968 1.97062 0.77968 1.74063 0.97968 1.56062L1.71968 0.820625C1.83968 0.700625 1.95968 0.650625 2.10968 0.650625C2.23968 0.650625 2.35968 0.710625 2.46968 0.810625L2.47968 0.820625C2.56968 0.900625 2.65968 0.990625 2.74968 1.08062L3.69968 2.03062C3.87968 2.21062 3.90968 2.35062 3.90968 2.43062C3.90968 2.51062 3.88968 2.63062 3.69968 2.80062L3.37968 3.12063C3.26968 3.24062 3.13968 3.37062 2.96968 3.51062L2.94968 3.53062L2.92968 3.56062C2.83968 3.68062 2.82968 3.79062 2.87968 3.95062L2.88968 3.99062L2.89968 4.03062C3.06968 4.40062 3.27968 4.74062 3.57968 5.12062C4.19968 5.88062 4.81968 6.45062 5.47968 6.86062L5.50968 6.88062C5.58968 6.92062 5.66968 6.96062 5.73968 7.00062C5.76968 7.03062 5.80968 7.05062 5.83968 7.06062C5.87968 7.08062 5.90968 7.09062 5.92968 7.11062L5.99968 7.16062H6.01968L6.04968 7.17062C6.10968 7.19062 6.14968 7.19062 6.17968 7.19062C6.27968 7.19062 6.36968 7.15062 6.45968 7.06062L7.20968 6.31062C7.32968 6.19062 7.43968 6.14062 7.57968 6.14062C7.72968 6.14062 7.86968 6.23062 7.94968 6.31062L9.16968 7.53062C9.40968 7.77062 9.41968 8.02062 9.16968 8.28062Z" fill="black"/>
	</symbol>


    <symbol id="svg-arrow-down" viewBox="0 0 6 4">
        <path d="M0.254877 1.5109L2.41324 3.66924C2.73824 3.99424 3.26324 3.99424 3.58824 3.66924L5.74657 1.5109C6.27157 0.985904 5.89657 0.0859375 5.1549 0.0859375H0.83821C0.0965434 0.0859375 -0.270123 0.985904 0.254877 1.5109Z" fill="#282828"/>
	</symbol>


    <symbol id="svg-filter" viewBox="0 0 32 32">
        <path d="M28 9H11C10.7348 9 10.4804 8.89464 10.2929 8.70711C10.1054 8.51957 10 8.26522 10 8C10 7.73478 10.1054 7.48043 10.2929 7.29289C10.4804 7.10536 10.7348 7 11 7H28C28.2652 7 28.5196 7.10536 28.7071 7.29289C28.8946 7.48043 29 7.73478 29 8C29 8.26522 28.8946 8.51957 28.7071 8.70711C28.5196 8.89464 28.2652 9 28 9Z" fill="#282828"/>
        <path d="M7 9H4C3.73478 9 3.48043 8.89464 3.29289 8.70711C3.10536 8.51957 3 8.26522 3 8C3 7.73478 3.10536 7.48043 3.29289 7.29289C3.48043 7.10536 3.73478 7 4 7H7C7.26522 7 7.51957 7.10536 7.70711 7.29289C7.89464 7.48043 8 7.73478 8 8C8 8.26522 7.89464 8.51957 7.70711 8.70711C7.51957 8.89464 7.26522 9 7 9Z" fill="#282828"/>
        <path d="M21 17H4C3.73478 17 3.48043 16.8946 3.29289 16.7071C3.10536 16.5196 3 16.2652 3 16C3 15.7348 3.10536 15.4804 3.29289 15.2929C3.48043 15.1054 3.73478 15 4 15H21C21.2652 15 21.5196 15.1054 21.7071 15.2929C21.8946 15.4804 22 15.7348 22 16C22 16.2652 21.8946 16.5196 21.7071 16.7071C21.5196 16.8946 21.2652 17 21 17Z" fill="#282828"/>
        <path d="M11 25H4C3.73478 25 3.48043 24.8946 3.29289 24.7071C3.10536 24.5196 3 24.2652 3 24C3 23.7348 3.10536 23.4804 3.29289 23.2929C3.48043 23.1054 3.73478 23 4 23H11C11.2652 23 11.5196 23.1054 11.7071 23.2929C11.8946 23.4804 12 23.7348 12 24C12 24.2652 11.8946 24.5196 11.7071 24.7071C11.5196 24.8946 11.2652 25 11 25Z" fill="#282828"/>
        <path d="M9 11C8.40666 11 7.82664 10.8241 7.33329 10.4944C6.83994 10.1648 6.45543 9.69623 6.22836 9.14805C6.0013 8.59987 5.94189 7.99667 6.05765 7.41473C6.1734 6.83279 6.45912 6.29824 6.87868 5.87868C7.29824 5.45912 7.83279 5.1734 8.41473 5.05765C8.99667 4.94189 9.59987 5.0013 10.1481 5.22836C10.6962 5.45543 11.1648 5.83994 11.4944 6.33329C11.8241 6.82664 12 7.40666 12 8C12 8.79565 11.6839 9.55871 11.1213 10.1213C10.5587 10.6839 9.79565 11 9 11ZM9 7C8.80222 7 8.60888 7.05865 8.44443 7.16853C8.27998 7.27841 8.15181 7.43459 8.07612 7.61732C8.00043 7.80004 7.98063 8.00111 8.01922 8.19509C8.0578 8.38907 8.15304 8.56726 8.29289 8.70711C8.43275 8.84696 8.61093 8.9422 8.80491 8.98079C8.99889 9.01937 9.19996 8.99957 9.38268 8.92388C9.56541 8.84819 9.72159 8.72002 9.83147 8.55557C9.94135 8.39112 10 8.19778 10 8C10 7.73478 9.89464 7.48043 9.70711 7.29289C9.51957 7.10536 9.26522 7 9 7Z" fill="#282828"/>
        <path d="M23 19C22.4067 19 21.8266 18.8241 21.3333 18.4944C20.8399 18.1648 20.4554 17.6962 20.2284 17.1481C20.0013 16.5999 19.9419 15.9967 20.0576 15.4147C20.1734 14.8328 20.4591 14.2982 20.8787 13.8787C21.2982 13.4591 21.8328 13.1734 22.4147 13.0576C22.9967 12.9419 23.5999 13.0013 24.1481 13.2284C24.6962 13.4554 25.1648 13.8399 25.4944 14.3333C25.8241 14.8266 26 15.4067 26 16C26 16.7957 25.6839 17.5587 25.1213 18.1213C24.5587 18.6839 23.7957 19 23 19ZM23 15C22.8022 15 22.6089 15.0587 22.4444 15.1685C22.28 15.2784 22.1518 15.4346 22.0761 15.6173C22.0004 15.8 21.9806 16.0011 22.0192 16.1951C22.0578 16.3891 22.153 16.5673 22.2929 16.7071C22.4327 16.847 22.6109 16.9422 22.8049 16.9808C22.9989 17.0194 23.2 16.9996 23.3827 16.9239C23.5654 16.8482 23.7216 16.72 23.8315 16.5556C23.9414 16.3911 24 16.1978 24 16C24 15.7348 23.8946 15.4804 23.7071 15.2929C23.5196 15.1054 23.2652 15 23 15Z" fill="#282828"/>
        <path d="M13 27C12.4067 27 11.8266 26.8241 11.3333 26.4944C10.8399 26.1648 10.4554 25.6962 10.2284 25.1481C10.0013 24.5999 9.94189 23.9967 10.0576 23.4147C10.1734 22.8328 10.4591 22.2982 10.8787 21.8787C11.2982 21.4591 11.8328 21.1734 12.4147 21.0576C12.9967 20.9419 13.5999 21.0013 14.1481 21.2284C14.6962 21.4554 15.1648 21.8399 15.4944 22.3333C15.8241 22.8266 16 23.4067 16 24C16 24.7957 15.6839 25.5587 15.1213 26.1213C14.5587 26.6839 13.7957 27 13 27ZM13 23C12.8022 23 12.6089 23.0586 12.4444 23.1685C12.28 23.2784 12.1518 23.4346 12.0761 23.6173C12.0004 23.8 11.9806 24.0011 12.0192 24.1951C12.0578 24.3891 12.153 24.5673 12.2929 24.7071C12.4327 24.847 12.6109 24.9422 12.8049 24.9808C12.9989 25.0194 13.2 24.9996 13.3827 24.9239C13.5654 24.8482 13.7216 24.72 13.8315 24.5556C13.9414 24.3911 14 24.1978 14 24C14 23.7348 13.8946 23.4804 13.7071 23.2929C13.5196 23.1054 13.2652 23 13 23Z" fill="#282828"/>
        <path d="M28 17H25C24.7348 17 24.4804 16.8946 24.2929 16.7071C24.1054 16.5196 24 16.2652 24 16C24 15.7348 24.1054 15.4804 24.2929 15.2929C24.4804 15.1054 24.7348 15 25 15H28C28.2652 15 28.5196 15.1054 28.7071 15.2929C28.8946 15.4804 29 15.7348 29 16C29 16.2652 28.8946 16.5196 28.7071 16.7071C28.5196 16.8946 28.2652 17 28 17Z" fill="#282828"/>
        <path d="M28 25H15C14.7348 25 14.4804 24.8946 14.2929 24.7071C14.1054 24.5196 14 24.2652 14 24C14 23.7348 14.1054 23.4804 14.2929 23.2929C14.4804 23.1054 14.7348 23 15 23H28C28.2652 23 28.5196 23.1054 28.7071 23.2929C28.8946 23.4804 29 23.7348 29 24C29 24.2652 28.8946 24.5196 28.7071 24.7071C28.5196 24.8946 28.2652 25 28 25Z" fill="#282828"/>
	</symbol>

</svg>
