<svg width="607" height="581" fill="none" xmlns="http://www.w3.org/2000/svg"><path d="M167 34.5V29c0-11 9-20 20-20h35c11 0 20 9 20 20v5.5h228c11 0 20 9 20 20v412c0 11-9 20-20 20H187c-11 0-20-9-20-20v-432z" fill="#fff"/><g opacity=".3"><path opacity=".2" d="M178 25.5V20c0-11 9-20 20-20h35c11 0 20 9 20 20v5.5h228c11 0 20 9 20 20v412c0 11-9 20-20 20H198c-11 0-20-9-20-20v-432z" fill="#246EDE"/><path d="M241.5 35.5v.5H470c10.8 0 19.5 8.7 19.5 19.5v412c0 10.8-8.7 19.5-19.5 19.5H187a19.5 19.5 0 0 1-19.5-19.5V30c0-10.8 8.7-19.5 19.5-19.5h35c10.8 0 19.5 8.7 19.5 19.5v5.5z" fill="#fff" stroke="#246EDE"/><rect x="191.5" y="71" width="273" height="38" rx="9.5" fill="#fff" stroke="#246EDE"/><rect x="202" y="77.5" width="81" height="9" rx="4.5" fill="#246EDE" fill-opacity=".3"/><rect x="294" y="77.5" width="43" height="9" rx="4.5" fill="#246EDE" fill-opacity=".3"/><rect x="181" y="20.5" width="43" height="14" rx="7" fill="#246EDE" fill-opacity=".3"/><rect x="191.5" y="123" width="273" height="53" rx="9.5" fill="#fff" stroke="#246EDE"/><rect x="191.5" y="190" width="273" height="48" rx="9.5" fill="#fff" stroke="#246EDE"/><rect x="191.5" y="386" width="273" height="77" rx="9.5" fill="#fff" stroke="#246EDE"/><rect x="191.5" y="252" width="273" height="68" rx="9.5" fill="#fff" stroke="#246EDE"/><rect x="191.5" y="334" width="273" height="38" rx="9.5" fill="#fff" stroke="#246EDE"/><rect x="202" y="131.5" width="59" height="9" rx="4.5" fill="#246EDE" fill-opacity=".3"/><rect x="202" y="198.5" width="42" height="9" rx="4.5" fill="#246EDE" fill-opacity=".3"/><rect x="202" y="281.5" width="42" height="6" rx="3" fill="#246EDE" fill-opacity=".2"/><rect x="202" y="213.5" width="42" height="6" rx="3" fill="#246EDE" fill-opacity=".2"/><rect x="202" y="410.5" width="42" height="6" rx="3" fill="#246EDE" fill-opacity=".2"/><rect x="202" y="305.5" width="65" height="6" rx="3" fill="#246EDE" fill-opacity=".2"/><rect x="202" y="434.5" width="52" height="6" rx="3" fill="#246EDE" fill-opacity=".2"/><rect x="393" y="434.5" width="52" height="6" rx="3" fill="#246EDE" fill-opacity=".2"/><rect x="202" y="158.5" width="65" height="6" rx="3" fill="#246EDE" fill-opacity=".2"/><rect x="202" y="92.5" width="65" height="6" rx="3" fill="#246EDE" fill-opacity=".2"/><rect x="202" y="355.5" width="65" height="6" rx="3" fill="#246EDE" fill-opacity=".2"/><rect x="389" y="355.5" width="65" height="6" rx="3" fill="#246EDE" fill-opacity=".2"/><rect x="202" y="341.5" width="36" height="9" rx="4.5" fill="#246EDE" fill-opacity=".3"/><rect x="202" y="262.5" width="32" height="9" rx="4.5" fill="#246EDE" fill-opacity=".3"/><rect x="202" y="293.5" width="32" height="6" rx="3" fill="#246EDE" fill-opacity=".2"/><rect x="202" y="225.5" width="32" height="6" rx="3" fill="#246EDE" fill-opacity=".2"/><rect x="202" y="446.5" width="32" height="6" rx="3" fill="#246EDE" fill-opacity=".2"/><rect x="202" y="422.5" width="32" height="6" rx="3" fill="#246EDE" fill-opacity=".2"/><rect x="202" y="146.5" width="32" height="6" rx="3" fill="#246EDE" fill-opacity=".2"/><rect x="202" y="393.5" width="32" height="9" rx="4.5" fill="#246EDE" fill-opacity=".3"/><rect x="272" y="131.5" width="61" height="9" rx="4.5" fill="#246EDE" fill-opacity=".3"/><rect x="254" y="198.5" width="80" height="9" rx="4.5" fill="#246EDE" fill-opacity=".3"/><rect x="254" y="281.5" width="80" height="6" rx="3" fill="#246EDE" fill-opacity=".2"/><rect x="254" y="213.5" width="58" height="6" rx="3" fill="#246EDE" fill-opacity=".2"/><rect x="254" y="410.5" width="80" height="6" rx="3" fill="#246EDE" fill-opacity=".2"/><rect x="277" y="305.5" width="57" height="6" rx="3" fill="#246EDE" fill-opacity=".2"/><rect x="264" y="434.5" width="70" height="6" rx="3" fill="#246EDE" fill-opacity=".2"/><rect x="277" y="158.5" width="57" height="6" rx="3" fill="#246EDE" fill-opacity=".2"/><rect x="277" y="92.5" width="57" height="6" rx="3" fill="#246EDE" fill-opacity=".2"/><rect x="277" y="355.5" width="57" height="6" rx="3" fill="#246EDE" fill-opacity=".2"/><rect x="248" y="341.5" width="64" height="9" rx="4.5" fill="#246EDE" fill-opacity=".3"/><rect x="244" y="262.5" width="58" height="9" rx="4.5" fill="#246EDE" fill-opacity=".3"/><rect x="244" y="293.5" width="58" height="6" rx="3" fill="#246EDE" fill-opacity=".2"/><rect x="244" y="225.5" width="58" height="6" rx="3" fill="#246EDE" fill-opacity=".2"/><rect x="244" y="446.5" width="58" height="6" rx="3" fill="#246EDE" fill-opacity=".2"/><rect x="244" y="422.5" width="58" height="6" rx="3" fill="#246EDE" fill-opacity=".2"/><rect x="244" y="146.5" width="58" height="6" rx="3" fill="#246EDE" fill-opacity=".2"/><rect x="244" y="393.5" width="58" height="9" rx="4.5" fill="#246EDE" fill-opacity=".3"/><rect x="383" y="262.5" width="35" height="9" rx="4.5" fill="#246EDE" fill-opacity=".3"/><rect x="383" y="293.5" width="35" height="6" rx="3" fill="#246EDE" fill-opacity=".2"/><rect x="383" y="225.5" width="35" height="6" rx="3" fill="#246EDE" fill-opacity=".2"/><rect x="383" y="446.5" width="35" height="6" rx="3" fill="#246EDE" fill-opacity=".2"/><rect x="361" y="422.5" width="36" height="6" rx="3" fill="#246EDE" fill-opacity=".2"/><rect x="383" y="146.5" width="35" height="6" rx="3" fill="#246EDE" fill-opacity=".2"/><rect x="383" y="393.5" width="35" height="9" rx="4.5" fill="#246EDE" fill-opacity=".3"/><rect x="344" y="131.5" width="61" height="9" rx="4.5" fill="#246EDE" fill-opacity=".3"/><rect x="344" y="198.5" width="61" height="9" rx="4.5" fill="#246EDE" fill-opacity=".3"/><rect x="344" y="281.5" width="61" height="6" rx="3" fill="#246EDE" fill-opacity=".2"/><rect x="322" y="213.5" width="61" height="6" rx="3" fill="#246EDE" fill-opacity=".2"/><rect x="344" y="410.5" width="45" height="6" rx="3" fill="#246EDE" fill-opacity=".2"/><rect x="344" y="305.5" width="39" height="6" rx="3" fill="#246EDE" fill-opacity=".2"/><rect x="344" y="434.5" width="39" height="6" rx="3" fill="#246EDE" fill-opacity=".2"/><rect x="344" y="158.5" width="39" height="6" rx="3" fill="#246EDE" fill-opacity=".2"/><rect x="344" y="92.5" width="39" height="6" rx="3" fill="#246EDE" fill-opacity=".2"/><rect x="344" y="355.5" width="39" height="6" rx="3" fill="#246EDE" fill-opacity=".2"/><rect x="322" y="341.5" width="61" height="9" rx="4.5" fill="#246EDE" fill-opacity=".3"/><rect x="312" y="262.5" width="61" height="9" rx="4.5" fill="#246EDE" fill-opacity=".3"/><rect x="312" y="293.5" width="61" height="6" rx="3" fill="#246EDE" fill-opacity=".2"/><rect x="312" y="225.5" width="61" height="6" rx="3" fill="#246EDE" fill-opacity=".2"/><rect x="312" y="446.5" width="61" height="6" rx="3" fill="#246EDE" fill-opacity=".2"/><rect x="312" y="422.5" width="39" height="6" rx="3" fill="#246EDE" fill-opacity=".2"/><rect x="399" y="410.5" width="39" height="6" rx="3" fill="#246EDE" fill-opacity=".2"/><rect x="312" y="146.5" width="61" height="6" rx="3" fill="#246EDE" fill-opacity=".2"/><rect x="312" y="393.5" width="61" height="9" rx="4.5" fill="#246EDE" fill-opacity=".3"/></g><path d="M273 231.4c0-10.2 8.2-18.4 18.4-18.4h38.2c10.2 0 18.4 8.2 18.4 18.4h228c11 0 20 9 20 20V537c0 11-9 20-20 20H293c-11 0-20-9-20-20V231.4z" fill="#fff"/><g opacity=".3"><path opacity=".2" d="M284 222c0-10 8-18 18-18h39c10 0 18 8 18 18h228c11 0 20 9 20 20v280c0 11-9 20-20 20H304c-11 0-20-9-20-20V222z" fill="#246EDE"/><path d="M347.5 232.3v.5H576c10.8 0 19.5 8.7 19.5 19.5V537c0 10.8-8.7 19.5-19.5 19.5H293a19.5 19.5 0 0 1-19.5-19.5V232.3c0-9.8 8-17.8 17.8-17.8h38.4c9.8 0 17.8 8 17.8 17.8z" fill="#fff" stroke="#246EDE"/><rect x="297.5" y="275" width="273" height="38" rx="9.5" fill="#fff" stroke="#246EDE"/><rect x="308" y="281.5" width="81" height="9" rx="4.5" fill="#246EDE" fill-opacity=".3"/><rect x="400" y="281.5" width="43" height="9" rx="4.5" fill="#246EDE" fill-opacity=".3"/><rect x="287" y="224.5" width="43" height="14" rx="7" fill="#246EDE" fill-opacity=".3"/><rect x="297.5" y="327" width="273" height="53" rx="9.5" fill="#fff" stroke="#246EDE"/><rect x="297.5" y="394" width="273" height="48" rx="9.5" fill="#fff" stroke="#246EDE"/><rect x="297.5" y="456" width="273" height="68" rx="9.5" fill="#fff" stroke="#246EDE"/><rect x="308" y="335.5" width="59" height="9" rx="4.5" fill="#246EDE" fill-opacity=".3"/><rect x="308" y="402.5" width="42" height="9" rx="4.5" fill="#246EDE" fill-opacity=".3"/><rect x="308" y="485.5" width="42" height="6" rx="3" fill="#246EDE" fill-opacity=".2"/><rect x="308" y="417.5" width="42" height="6" rx="3" fill="#246EDE" fill-opacity=".2"/><rect x="308" y="509.5" width="65" height="6" rx="3" fill="#246EDE" fill-opacity=".2"/><rect x="308" y="362.5" width="65" height="6" rx="3" fill="#246EDE" fill-opacity=".2"/><rect x="308" y="296.5" width="65" height="6" rx="3" fill="#246EDE" fill-opacity=".2"/><rect x="308" y="466.5" width="32" height="9" rx="4.5" fill="#246EDE" fill-opacity=".3"/><rect x="308" y="497.5" width="32" height="6" rx="3" fill="#246EDE" fill-opacity=".2"/><rect x="308" y="429.5" width="32" height="6" rx="3" fill="#246EDE" fill-opacity=".2"/><rect x="308" y="350.5" width="32" height="6" rx="3" fill="#246EDE" fill-opacity=".2"/><rect x="378" y="335.5" width="61" height="9" rx="4.5" fill="#246EDE" fill-opacity=".3"/><rect x="360" y="402.5" width="80" height="9" rx="4.5" fill="#246EDE" fill-opacity=".3"/><rect x="360" y="485.5" width="80" height="6" rx="3" fill="#246EDE" fill-opacity=".2"/><rect x="360" y="417.5" width="58" height="6" rx="3" fill="#246EDE" fill-opacity=".2"/><rect x="383" y="509.5" width="57" height="6" rx="3" fill="#246EDE" fill-opacity=".2"/><rect x="383" y="362.5" width="57" height="6" rx="3" fill="#246EDE" fill-opacity=".2"/><rect x="383" y="296.5" width="57" height="6" rx="3" fill="#246EDE" fill-opacity=".2"/><rect x="350" y="466.5" width="58" height="9" rx="4.5" fill="#246EDE" fill-opacity=".3"/><rect x="350" y="497.5" width="58" height="6" rx="3" fill="#246EDE" fill-opacity=".2"/><rect x="350" y="429.5" width="58" height="6" rx="3" fill="#246EDE" fill-opacity=".2"/><rect x="350" y="350.5" width="58" height="6" rx="3" fill="#246EDE" fill-opacity=".2"/><rect x="489" y="466.5" width="35" height="9" rx="4.5" fill="#246EDE" fill-opacity=".3"/><rect x="489" y="497.5" width="35" height="6" rx="3" fill="#246EDE" fill-opacity=".2"/><rect x="489" y="429.5" width="35" height="6" rx="3" fill="#246EDE" fill-opacity=".2"/><rect x="489" y="350.5" width="35" height="6" rx="3" fill="#246EDE" fill-opacity=".2"/><rect x="450" y="335.5" width="61" height="9" rx="4.5" fill="#246EDE" fill-opacity=".3"/><rect x="450" y="402.5" width="61" height="9" rx="4.5" fill="#246EDE" fill-opacity=".3"/><rect x="450" y="485.5" width="61" height="6" rx="3" fill="#246EDE" fill-opacity=".2"/><rect x="428" y="417.5" width="61" height="6" rx="3" fill="#246EDE" fill-opacity=".2"/><rect x="450" y="509.5" width="39" height="6" rx="3" fill="#246EDE" fill-opacity=".2"/><rect x="450" y="362.5" width="39" height="6" rx="3" fill="#246EDE" fill-opacity=".2"/><rect x="450" y="296.5" width="39" height="6" rx="3" fill="#246EDE" fill-opacity=".2"/><rect x="418" y="466.5" width="61" height="9" rx="4.5" fill="#246EDE" fill-opacity=".3"/><rect x="418" y="497.5" width="61" height="6" rx="3" fill="#246EDE" fill-opacity=".2"/><rect x="418" y="429.5" width="61" height="6" rx="3" fill="#246EDE" fill-opacity=".2"/><rect x="418" y="350.5" width="61" height="6" rx="3" fill="#246EDE" fill-opacity=".2"/></g><path d="M0 127.5V122c0-11 9-20 20-20h35c11 0 20 9 20 20v5.5h228c11 0 20 9 20 20v412c0 11-9 20-20 20H20c-11 0-20-9-20-20v-432z" fill="#fff"/><g opacity=".3"><path opacity=".2" d="M11 118.5V113c0-11 9-20 20-20h35c11 0 20 9 20 20v5.5h228c11 0 20 9 20 20v412c0 11-9 20-20 20H31c-11 0-20-9-20-20v-432z" fill="#246EDE"/><path d="M74.5 128.5v.5H303c10.8 0 19.5 8.7 19.5 19.5v412c0 10.8-8.7 19.5-19.5 19.5H20A19.5 19.5 0 0 1 .5 560.5V123c0-10.8 8.7-19.5 19.5-19.5h35c10.8 0 19.5 8.7 19.5 19.5v5.5z" fill="#fff" stroke="#246EDE"/><rect x="24.5" y="164" width="273" height="38" rx="9.5" fill="#fff" stroke="#246EDE"/><rect x="35" y="170.5" width="81" height="9" rx="4.5" fill="#246EDE" fill-opacity=".3"/><rect x="127" y="170.5" width="43" height="9" rx="4.5" fill="#246EDE" fill-opacity=".3"/><rect x="14" y="113.5" width="43" height="14" rx="7" fill="#246EDE" fill-opacity=".3"/><rect x="24.5" y="216" width="273" height="53" rx="9.5" fill="#fff" stroke="#246EDE"/><rect x="24.5" y="283" width="273" height="48" rx="9.5" fill="#fff" stroke="#246EDE"/><rect x="24.5" y="479" width="273" height="77" rx="9.5" fill="#fff" stroke="#246EDE"/><rect x="24.5" y="345" width="273" height="68" rx="9.5" fill="#fff" stroke="#246EDE"/><rect x="24.5" y="427" width="273" height="38" rx="9.5" fill="#fff" stroke="#246EDE"/><rect x="35" y="224.5" width="59" height="9" rx="4.5" fill="#246EDE" fill-opacity=".3"/><rect x="35" y="291.5" width="42" height="9" rx="4.5" fill="#246EDE" fill-opacity=".3"/><rect x="35" y="374.5" width="42" height="6" rx="3" fill="#246EDE" fill-opacity=".2"/><rect x="35" y="306.5" width="42" height="6" rx="3" fill="#246EDE" fill-opacity=".2"/><rect x="35" y="503.5" width="42" height="6" rx="3" fill="#246EDE" fill-opacity=".2"/><rect x="35" y="398.5" width="65" height="6" rx="3" fill="#246EDE" fill-opacity=".2"/><rect x="35" y="527.5" width="52" height="6" rx="3" fill="#246EDE" fill-opacity=".2"/><rect x="226" y="527.5" width="52" height="6" rx="3" fill="#246EDE" fill-opacity=".2"/><rect x="35" y="251.5" width="65" height="6" rx="3" fill="#246EDE" fill-opacity=".2"/><rect x="35" y="185.5" width="65" height="6" rx="3" fill="#246EDE" fill-opacity=".2"/><rect x="35" y="448.5" width="65" height="6" rx="3" fill="#246EDE" fill-opacity=".2"/><rect x="222" y="448.5" width="65" height="6" rx="3" fill="#246EDE" fill-opacity=".2"/><rect x="35" y="434.5" width="36" height="9" rx="4.5" fill="#246EDE" fill-opacity=".3"/><rect x="35" y="355.5" width="32" height="9" rx="4.5" fill="#246EDE" fill-opacity=".3"/><rect x="35" y="386.5" width="32" height="6" rx="3" fill="#246EDE" fill-opacity=".2"/><rect x="35" y="318.5" width="32" height="6" rx="3" fill="#246EDE" fill-opacity=".2"/><rect x="35" y="539.5" width="32" height="6" rx="3" fill="#246EDE" fill-opacity=".2"/><rect x="35" y="515.5" width="32" height="6" rx="3" fill="#246EDE" fill-opacity=".2"/><rect x="35" y="239.5" width="32" height="6" rx="3" fill="#246EDE" fill-opacity=".2"/><rect x="35" y="486.5" width="32" height="9" rx="4.5" fill="#246EDE" fill-opacity=".3"/><rect x="105" y="224.5" width="61" height="9" rx="4.5" fill="#246EDE" fill-opacity=".3"/><rect x="87" y="291.5" width="80" height="9" rx="4.5" fill="#246EDE" fill-opacity=".3"/><rect x="87" y="374.5" width="80" height="6" rx="3" fill="#246EDE" fill-opacity=".2"/><rect x="87" y="306.5" width="58" height="6" rx="3" fill="#246EDE" fill-opacity=".2"/><rect x="87" y="503.5" width="80" height="6" rx="3" fill="#246EDE" fill-opacity=".2"/><rect x="110" y="398.5" width="57" height="6" rx="3" fill="#246EDE" fill-opacity=".2"/><rect x="97" y="527.5" width="70" height="6" rx="3" fill="#246EDE" fill-opacity=".2"/><rect x="110" y="251.5" width="57" height="6" rx="3" fill="#246EDE" fill-opacity=".2"/><rect x="110" y="185.5" width="57" height="6" rx="3" fill="#246EDE" fill-opacity=".2"/><rect x="110" y="448.5" width="57" height="6" rx="3" fill="#246EDE" fill-opacity=".2"/><rect x="81" y="434.5" width="64" height="9" rx="4.5" fill="#246EDE" fill-opacity=".3"/><rect x="77" y="355.5" width="58" height="9" rx="4.5" fill="#246EDE" fill-opacity=".3"/><rect x="77" y="386.5" width="58" height="6" rx="3" fill="#246EDE" fill-opacity=".2"/><rect x="77" y="318.5" width="58" height="6" rx="3" fill="#246EDE" fill-opacity=".2"/><rect x="77" y="539.5" width="58" height="6" rx="3" fill="#246EDE" fill-opacity=".2"/><rect x="77" y="515.5" width="58" height="6" rx="3" fill="#246EDE" fill-opacity=".2"/><rect x="77" y="239.5" width="58" height="6" rx="3" fill="#246EDE" fill-opacity=".2"/><rect x="77" y="486.5" width="58" height="9" rx="4.5" fill="#246EDE" fill-opacity=".3"/><rect x="216" y="355.5" width="35" height="9" rx="4.5" fill="#246EDE" fill-opacity=".3"/><rect x="216" y="386.5" width="35" height="6" rx="3" fill="#246EDE" fill-opacity=".2"/><rect x="216" y="318.5" width="35" height="6" rx="3" fill="#246EDE" fill-opacity=".2"/><rect x="216" y="539.5" width="35" height="6" rx="3" fill="#246EDE" fill-opacity=".2"/><rect x="194" y="515.5" width="36" height="6" rx="3" fill="#246EDE" fill-opacity=".2"/><rect x="216" y="239.5" width="35" height="6" rx="3" fill="#246EDE" fill-opacity=".2"/><rect x="216" y="486.5" width="35" height="9" rx="4.5" fill="#246EDE" fill-opacity=".3"/><rect x="177" y="224.5" width="61" height="9" rx="4.5" fill="#246EDE" fill-opacity=".3"/><rect x="177" y="291.5" width="61" height="9" rx="4.5" fill="#246EDE" fill-opacity=".3"/><rect x="177" y="374.5" width="61" height="6" rx="3" fill="#246EDE" fill-opacity=".2"/><rect x="155" y="306.5" width="61" height="6" rx="3" fill="#246EDE" fill-opacity=".2"/><rect x="177" y="503.5" width="45" height="6" rx="3" fill="#246EDE" fill-opacity=".2"/><rect x="177" y="398.5" width="39" height="6" rx="3" fill="#246EDE" fill-opacity=".2"/><rect x="177" y="527.5" width="39" height="6" rx="3" fill="#246EDE" fill-opacity=".2"/><rect x="177" y="251.5" width="39" height="6" rx="3" fill="#246EDE" fill-opacity=".2"/><rect x="177" y="185.5" width="39" height="6" rx="3" fill="#246EDE" fill-opacity=".2"/><rect x="177" y="448.5" width="39" height="6" rx="3" fill="#246EDE" fill-opacity=".2"/><rect x="155" y="434.5" width="61" height="9" rx="4.5" fill="#246EDE" fill-opacity=".3"/><rect x="145" y="355.5" width="61" height="9" rx="4.5" fill="#246EDE" fill-opacity=".3"/><rect x="145" y="386.5" width="61" height="6" rx="3" fill="#246EDE" fill-opacity=".2"/><rect x="145" y="318.5" width="61" height="6" rx="3" fill="#246EDE" fill-opacity=".2"/><rect x="145" y="539.5" width="61" height="6" rx="3" fill="#246EDE" fill-opacity=".2"/><rect x="145" y="515.5" width="39" height="6" rx="3" fill="#246EDE" fill-opacity=".2"/><rect x="232" y="503.5" width="39" height="6" rx="3" fill="#246EDE" fill-opacity=".2"/><rect x="145" y="239.5" width="61" height="6" rx="3" fill="#246EDE" fill-opacity=".2"/><rect x="145" y="486.5" width="61" height="9" rx="4.5" fill="#246EDE" fill-opacity=".3"/></g></svg>