<svg width="735" height="627" fill="none" xmlns="http://www.w3.org/2000/svg"><g opacity=".5"><rect opacity=".1" x="201.83" y="136.59" width="26.29" height="26.29" rx="7" fill="#246EDE"/><rect x="198.35" y="141.08" width="25.29" height="25.29" rx="6.5" fill="#fff" stroke="#246EDE"/><mask id="a" fill="#fff"><path fill-rule="evenodd" clip-rule="evenodd" d="M201.94 144.66a2.74 2.74 0 0 0 0 3.88l5.18 5.18-4.92 4.92a2.74 2.74 0 0 0 3.87 3.88l4.92-4.93 4.89 4.89a2.74 2.74 0 0 0 3.87-3.88l-4.88-4.88 5.14-5.14a2.74 2.74 0 0 0-3.87-3.88l-5.15 5.15-5.18-5.19a2.74 2.74 0 0 0-3.87 0z"/></mask><path fill-rule="evenodd" clip-rule="evenodd" d="M201.94 144.66a2.74 2.74 0 0 0 0 3.88l5.18 5.18-4.92 4.92a2.74 2.74 0 0 0 3.87 3.88l4.92-4.93 4.89 4.89a2.74 2.74 0 0 0 3.87-3.88l-4.88-4.88 5.14-5.14a2.74 2.74 0 0 0-3.87-3.88l-5.15 5.15-5.18-5.19a2.74 2.74 0 0 0-3.87 0z" fill="#fff"/><path d="M201.94 148.54l-.71.7.7-.7zm0-3.88l.7.71-.7-.7zm5.18 9.06l.7.7.71-.7-.7-.7-.71.7zm-4.92 4.92l-.71-.7.7.7zm0 3.88l-.71.7.7-.7zm3.87 0l-.7-.71.7.7zm4.92-4.93l.71-.7-.7-.71-.72.7.71.71zm4.89 4.89l.7-.7-.7.7zm3.87 0l-.7-.7.7.7zm-4.88-8.76l-.71-.7-.7.7.7.7.7-.7zm5.14-5.14l.7.7-.7-.7zm0-3.88l-.7.71.7-.7zm-3.87 0l.7.71-.7-.7zm-5.15 5.15l-.7.7.7.71.71-.7-.7-.71zm-5.18-5.19l.7-.7-.7.7zm-3.17 3.17a1.74 1.74 0 0 1 0-2.46l-1.41-1.41a3.74 3.74 0 0 0 0 5.28l1.41-1.41zm5.19 5.18l-5.19-5.18-1.41 1.41 5.18 5.19 1.42-1.42zm-4.93 6.34l4.93-4.92-1.42-1.42-4.92 4.93 1.41 1.41zm0 2.46a1.74 1.74 0 0 1 0-2.46l-1.41-1.41a3.74 3.74 0 0 0 0 5.28l1.41-1.41zm2.46 0c-.68.68-1.78.68-2.46 0l-1.41 1.41a3.74 3.74 0 0 0 5.29 0l-1.42-1.41zm4.92-4.92l-4.92 4.92 1.42 1.41 4.92-4.92-1.41-1.41zm6.3 4.88l-4.88-4.88-1.41 1.41 4.88 4.88 1.42-1.4zm2.46 0c-.68.68-1.78.68-2.45 0l-1.42 1.41a3.74 3.74 0 0 0 5.29 0l-1.42-1.4zm0-2.46c.68.68.68 1.78 0 2.46l1.42 1.41a3.74 3.74 0 0 0 0-5.28l-1.42 1.41zm-4.88-4.88l4.88 4.88 1.42-1.41-4.89-4.89-1.41 1.42zm5.14-6.56l-5.14 5.14 1.41 1.42 5.15-5.15-1.42-1.41zm0-2.46c.68.68.68 1.78 0 2.46l1.42 1.41a3.74 3.74 0 0 0 0-5.28l-1.42 1.41zm-2.46 0a1.74 1.74 0 0 1 2.46 0l1.42-1.41a3.74 3.74 0 0 0-5.3 0l1.42 1.41zm-5.14 5.15l5.14-5.15-1.41-1.41-5.15 5.14 1.42 1.42zm-6.6-5.19l5.19 5.19 1.41-1.42-5.18-5.18-1.42 1.41zm-2.46 0a1.74 1.74 0 0 1 2.46 0l1.42-1.41a3.74 3.74 0 0 0-5.29 0l1.41 1.41z" fill="#246EDE" mask="url(#a)"/><rect opacity=".1" x="87.42" y="325.84" width="26.29" height="26.29" rx="7" fill="#246EDE"/><rect x="83.94" y="330.32" width="25.29" height="25.29" rx="6.5" fill="#fff" stroke="#246EDE"/><mask id="b" fill="#fff"><path fill-rule="evenodd" clip-rule="evenodd" d="M87.53 333.91a2.74 2.74 0 0 0 0 3.88l5.18 5.18-4.92 4.92a2.74 2.74 0 1 0 3.87 3.87l4.92-4.92 4.89 4.89a2.74 2.74 0 0 0 3.87-3.88l-4.88-4.88 5.14-5.15a2.74 2.74 0 1 0-3.87-3.87l-5.15 5.15-5.18-5.19a2.74 2.74 0 0 0-3.87 0z"/></mask><path fill-rule="evenodd" clip-rule="evenodd" d="M87.53 333.91a2.74 2.74 0 0 0 0 3.88l5.18 5.18-4.92 4.92a2.74 2.74 0 1 0 3.87 3.87l4.92-4.92 4.89 4.89a2.74 2.74 0 0 0 3.87-3.88l-4.88-4.88 5.14-5.15a2.74 2.74 0 1 0-3.87-3.87l-5.15 5.15-5.18-5.19a2.74 2.74 0 0 0-3.87 0z" fill="#fff"/><path d="M87.53 337.79l-.7.7.7-.7zm0-3.88l.7.71-.7-.7zm5.18 9.06l.7.7.72-.7-.71-.7-.7.7zm-4.92 4.92l.7.7-.7-.7zm0 3.87l.7-.7-.7.7zm3.87 0l-.7-.7.7.7zm4.92-4.92l.71-.7-.7-.71-.71.7.7.71zm4.89 4.89l.7-.71-.7.7zm3.87 0l-.7-.71.7.7zm0-3.88l-.7.71.7-.7zm-4.88-4.88l-.71-.7-.7.7.7.7.7-.7zm5.14-5.15l.7.71-.7-.7zm0-3.87l-.7.7.7-.7zm-3.87 0l.7.7-.7-.7zm-5.15 5.15l-.7.7.7.71.71-.7-.7-.71zm-5.18-5.19l.7-.7-.7.7zm-3.16 3.17a1.74 1.74 0 0 1 0-2.46l-1.42-1.42a3.74 3.74 0 0 0 0 5.3l1.42-1.42zm5.18 5.18l-5.18-5.18-1.42 1.41 5.18 5.19 1.42-1.42zm-4.93 6.34l4.93-4.93-1.42-1.4-4.92 4.92 1.41 1.4zm0 2.46a1.74 1.74 0 0 1 0-2.46l-1.4-1.42a3.74 3.74 0 0 0 0 5.3l1.4-1.42zm2.46 0c-.68.68-1.78.68-2.46 0l-1.4 1.41a3.74 3.74 0 0 0 5.28 0l-1.42-1.41zm4.93-4.93l-4.93 4.93 1.42 1.41 4.92-4.92-1.41-1.42zm6.3 4.89l-4.89-4.89-1.41 1.42 4.88 4.88 1.42-1.41zm2.45 0c-.67.68-1.77.68-2.45 0l-1.42 1.41a3.74 3.74 0 0 0 5.29 0l-1.42-1.41zm0-2.46c.68.68.68 1.78 0 2.46l1.42 1.41a3.74 3.74 0 0 0 0-5.28l-1.42 1.41zm-4.88-4.88l4.88 4.88 1.42-1.41-4.89-4.89-1.41 1.42zm5.14-6.56l-5.14 5.14 1.41 1.42 5.15-5.15-1.42-1.41zm0-2.46c.68.68.68 1.78 0 2.46l1.42 1.41a3.74 3.74 0 0 0 0-5.29l-1.42 1.42zm-2.45 0a1.74 1.74 0 0 1 2.45 0l1.42-1.42a3.74 3.74 0 0 0-5.29 0l1.42 1.42zm-5.15 5.14l5.14-5.14-1.4-1.42-5.15 5.15 1.41 1.41zm-6.6-5.18l5.19 5.18 1.41-1.41-5.18-5.19-1.42 1.42zm-2.45 0a1.74 1.74 0 0 1 2.45 0l1.42-1.42a3.74 3.74 0 0 0-5.29 0l1.42 1.42z" fill="#246EDE" mask="url(#b)"/><rect opacity=".1" x="280.97" y="376.6" width="26.29" height="26.29" rx="7" fill="#246EDE"/><rect x="277.49" y="381.08" width="25.29" height="25.29" rx="6.5" fill="#fff" stroke="#246EDE"/><mask id="c" fill="#fff"><path fill-rule="evenodd" clip-rule="evenodd" d="M281.08 384.67a2.74 2.74 0 0 0 0 3.87l5.18 5.18-4.92 4.92a2.74 2.74 0 0 0 3.87 3.88l4.92-4.93 4.89 4.89a2.74 2.74 0 0 0 3.87-3.88l-4.88-4.88 5.14-5.14a2.74 2.74 0 0 0-3.87-3.88l-5.15 5.15-5.18-5.19a2.74 2.74 0 0 0-3.87 0z"/></mask><path fill-rule="evenodd" clip-rule="evenodd" d="M281.08 384.67a2.74 2.74 0 0 0 0 3.87l5.18 5.18-4.92 4.92a2.74 2.74 0 0 0 3.87 3.88l4.92-4.93 4.89 4.89a2.74 2.74 0 0 0 3.87-3.88l-4.88-4.88 5.14-5.14a2.74 2.74 0 0 0-3.87-3.88l-5.15 5.15-5.18-5.19a2.74 2.74 0 0 0-3.87 0z" fill="#fff"/><path d="M281.08 388.54l-.71.7.7-.7zm0-3.88l.7.71-.7-.7zm5.18 9.06l.7.7.71-.7-.7-.7-.71.7zm-4.92 4.92l-.71-.7.7.7zm0 3.88l-.71.7.7-.7zm3.87 0l-.7-.71.7.7zm4.92-4.93l.7-.7-.7-.71-.7.7.7.71zm4.89 4.89l.7-.7-.7.7zm3.87 0l.7.7-.7-.7zm-4.88-8.76l-.71-.7-.71.7.7.7.71-.7zm5.14-5.14l.7.7-.7-.7zm0-3.88l-.7.71.7-.7zm-3.87 0l.7.71-.7-.7zm-5.15 5.15l-.7.7.7.71.7-.7-.7-.71zm-5.18-5.19l.7-.7-.7.7zm-3.17 3.17a1.74 1.74 0 0 1 0-2.46l-1.41-1.41a3.74 3.74 0 0 0 0 5.29l1.41-1.42zm5.19 5.18l-5.19-5.18-1.41 1.42 5.18 5.18 1.42-1.42zm-4.93 6.34l4.93-4.92-1.42-1.42-4.92 4.93 1.41 1.41zm0 2.46a1.74 1.74 0 0 1 0-2.46l-1.41-1.41a3.74 3.74 0 0 0 0 5.28l1.41-1.41zm2.46 0c-.68.68-1.78.68-2.46 0l-1.41 1.41a3.74 3.74 0 0 0 5.29 0l-1.42-1.41zm4.93-4.92l-4.93 4.92 1.42 1.41 4.92-4.92-1.41-1.41zm6.3 4.88l-4.9-4.88-1.4 1.41 4.88 4.88 1.41-1.4zm2.45 0c-.68.68-1.78.68-2.46 0l-1.41 1.42a3.74 3.74 0 0 0 5.29 0l-1.42-1.42zm0-2.46c.68.68.68 1.78 0 2.46l1.42 1.42a3.74 3.74 0 0 0 0-5.3l-1.42 1.42zm-4.88-4.88l4.88 4.88 1.42-1.41-4.89-4.89-1.41 1.42zm5.14-6.56L293.3 393l1.41 1.42 5.15-5.15-1.42-1.41zm0-2.46c.68.68.68 1.78 0 2.46l1.42 1.41a3.74 3.74 0 0 0 0-5.28l-1.42 1.41zm-2.46 0a1.74 1.74 0 0 1 2.46 0l1.42-1.41a3.74 3.74 0 0 0-5.3 0l1.42 1.41zm-5.14 5.14l5.14-5.14-1.41-1.41-5.14 5.14 1.4 1.42zm-6.6-5.18l5.19 5.19 1.4-1.42-5.17-5.18-1.42 1.41zm-2.46 0a1.74 1.74 0 0 1 2.46 0l1.42-1.41a3.74 3.74 0 0 0-5.29 0l1.41 1.41z" fill="#246EDE" mask="url(#c)"/><rect opacity=".1" x="280.11" y="424.77" width="26.29" height="26.29" rx="7" fill="#246EDE"/><rect x="276.63" y="429.25" width="25.29" height="25.29" rx="6.5" fill="#fff" stroke="#246EDE"/><mask id="d" fill="#fff"><path fill-rule="evenodd" clip-rule="evenodd" d="M280.22 432.84a2.74 2.74 0 0 0 0 3.87l5.18 5.18-4.92 4.93a2.74 2.74 0 0 0 3.87 3.87l4.92-4.93 4.89 4.89a2.74 2.74 0 0 0 3.87-3.87l-4.89-4.89 5.15-5.14a2.74 2.74 0 1 0-3.87-3.87l-5.15 5.14-5.18-5.18a2.74 2.74 0 0 0-3.87 0z"/></mask><path fill-rule="evenodd" clip-rule="evenodd" d="M280.22 432.84a2.74 2.74 0 0 0 0 3.87l5.18 5.18-4.92 4.93a2.74 2.74 0 0 0 3.87 3.87l4.92-4.93 4.89 4.89a2.74 2.74 0 0 0 3.87-3.87l-4.89-4.89 5.15-5.14a2.74 2.74 0 1 0-3.87-3.87l-5.15 5.14-5.18-5.18a2.74 2.74 0 0 0-3.87 0z" fill="#fff"/><path d="M280.22 436.7l-.71.72.7-.71zm0-3.86l.7.7-.7-.7zm5.18 9.05l.7.7.71-.7-.7-.7-.71.7zm-4.92 4.93l.7.7-.7-.7zm0 3.87l.7-.7-.7.7zm3.87 0l-.7-.7.7.7zm4.92-4.93l.7-.7-.7-.71-.7.7.7.71zm4.89 4.89l-.71.7.7-.7zm3.87-3.87l-.7.7.7-.7zm-4.89-4.89l-.7-.7-.71.7.7.7.71-.7zm5.15-5.14l.7.7-.7-.7zm0-3.87l-.7.7.7-.7zm-3.87 0l.7.7-.7-.7zm-5.15 5.14l-.7.7.7.71.7-.7-.7-.71zm-5.18-5.18l.7-.71-.7.7zm-3.17 3.16a1.74 1.74 0 0 1 0-2.46l-1.41-1.41a3.74 3.74 0 0 0 0 5.29l1.41-1.42zm5.19 5.19l-5.19-5.19-1.41 1.42 5.18 5.18 1.42-1.42zm-4.93 6.33l4.93-4.92-1.42-1.42-4.92 4.93 1.41 1.41zm0 2.46a1.74 1.74 0 0 1 0-2.46l-1.41-1.41a3.74 3.74 0 0 0 0 5.29l1.41-1.42zm2.46 0c-.68.68-1.78.68-2.46 0l-1.41 1.42a3.74 3.74 0 0 0 5.29 0l-1.42-1.42zm4.93-4.92l-4.93 4.92 1.42 1.42 4.92-4.93-1.42-1.41zm6.3 4.88l-4.9-4.88-1.4 1.41 4.88 4.89 1.41-1.42zm2.45 0c-.68.68-1.78.68-2.46 0l-1.41 1.42a3.74 3.74 0 0 0 5.29 0l-1.42-1.42zm0-2.46c.68.68.68 1.78 0 2.46l1.42 1.42a3.74 3.74 0 0 0 0-5.29l-1.42 1.41zm-4.88-4.88l4.88 4.88 1.42-1.41-4.89-4.88-1.41 1.4zm5.14-6.56l-5.14 5.14 1.41 1.42 5.15-5.15-1.42-1.4zm0-2.46c.68.68.68 1.78 0 2.46l1.42 1.41a3.74 3.74 0 0 0 0-5.28l-1.42 1.41zm-2.46 0a1.74 1.74 0 0 1 2.46 0l1.42-1.41a3.74 3.74 0 0 0-5.3 0l1.42 1.41zm-5.14 5.15l5.14-5.15-1.41-1.41-5.14 5.14 1.4 1.42zm-6.6-5.19l5.19 5.19 1.4-1.42-5.17-5.18-1.42 1.41zm-2.46 0a1.74 1.74 0 0 1 2.46 0l1.42-1.41a3.74 3.74 0 0 0-5.29 0l1.41 1.41z" fill="#246EDE" mask="url(#d)"/><rect opacity=".1" x="87.42" y="228.64" width="26.29" height="26.29" rx="7" fill="#246EDE"/><rect x="83.94" y="233.12" width="25.29" height="25.29" rx="6.5" fill="#fff" stroke="#246EDE"/><mask id="e" fill="#fff"><path fill-rule="evenodd" clip-rule="evenodd" d="M87.53 236.7a2.74 2.74 0 0 0 0 3.88l5.18 5.18-4.92 4.93a2.74 2.74 0 0 0 3.87 3.87l4.92-4.92 4.89 4.88a2.74 2.74 0 0 0 3.87-3.87l-4.88-4.89 5.14-5.14a2.74 2.74 0 1 0-3.87-3.87l-5.15 5.14-5.18-5.18a2.74 2.74 0 0 0-3.87 0z"/></mask><path fill-rule="evenodd" clip-rule="evenodd" d="M87.53 236.7a2.74 2.74 0 0 0 0 3.88l5.18 5.18-4.92 4.93a2.74 2.74 0 0 0 3.87 3.87l4.92-4.92 4.89 4.88a2.74 2.74 0 0 0 3.87-3.87l-4.88-4.89 5.14-5.14a2.74 2.74 0 1 0-3.87-3.87l-5.15 5.14-5.18-5.18a2.74 2.74 0 0 0-3.87 0z" fill="#fff"/><path d="M87.53 240.58l-.7.7.7-.7zm0-3.87l.7.7-.7-.7zm5.18 9.05l.7.71.72-.7-.71-.71-.7.7zm-4.92 4.93l-.7-.71.7.7zm0 3.87l.7-.7-.7.7zm3.87 0l-.7-.7.7.7zm4.92-4.92l.71-.71-.7-.7-.71.7.7.7zm4.89 4.88l.7-.7-.7.7zm3.87 0l-.7-.7.7.7zm0-3.87l-.7.7.7-.7zm-4.88-4.89l-.71-.7-.7.7.7.71.7-.7zm5.14-5.14l.7.7-.7-.7zm0-3.87l-.7.7.7-.7zm-3.87 0l.7.7-.7-.7zm-5.15 5.14l-.7.7.7.72.71-.71-.7-.7zm-5.18-5.18l-.7.7.7-.7zm-3.16 3.16a1.74 1.74 0 0 1 0-2.46l-1.42-1.4a3.74 3.74 0 0 0 0 5.28l1.42-1.42zm5.18 5.19l-5.18-5.19-1.42 1.42 5.18 5.18 1.42-1.41zm-4.93 6.34l4.93-4.93-1.42-1.41-4.92 4.92 1.41 1.42zm0 2.45a1.74 1.74 0 0 1 0-2.45l-1.4-1.42a3.74 3.74 0 0 0 0 5.29l1.4-1.42zm2.46 0c-.68.68-1.78.68-2.46 0l-1.4 1.42a3.74 3.74 0 0 0 5.28 0l-1.42-1.42zm4.93-4.92l-4.93 4.92 1.42 1.42 4.92-4.93-1.41-1.41zm6.3 4.88l-4.89-4.88-1.41 1.41 4.88 4.89 1.42-1.42zm2.45 0c-.67.68-1.77.68-2.45 0l-1.42 1.42a3.74 3.74 0 0 0 5.29 0l-1.42-1.42zm0-2.45c.68.67.68 1.77 0 2.45l1.42 1.42a3.74 3.74 0 0 0 0-5.29l-1.42 1.42zm-4.88-4.89l4.88 4.89 1.42-1.42-4.89-4.88-1.41 1.41zm5.14-6.56l-5.14 5.15 1.41 1.41 5.15-5.14-1.42-1.42zm0-2.46c.68.68.68 1.78 0 2.46l1.42 1.42a3.74 3.74 0 0 0 0-5.29l-1.42 1.41zm-2.45 0a1.74 1.74 0 0 1 2.45 0l1.42-1.41a3.74 3.74 0 0 0-5.29 0l1.42 1.41zm-5.15 5.15l5.14-5.15-1.4-1.41-5.15 5.14 1.41 1.42zm-6.6-5.19l5.19 5.19 1.41-1.42-5.18-5.18-1.42 1.41zm-2.45 0a1.74 1.74 0 0 1 2.45 0l1.42-1.4a3.74 3.74 0 0 0-5.29 0l1.42 1.4z" fill="#246EDE" mask="url(#e)"/><rect opacity=".1" x="149.36" y="228.64" width="26.29" height="26.29" rx="7" fill="#246EDE"/><rect x="145.88" y="233.12" width="25.29" height="25.29" rx="6.5" fill="#fff" stroke="#246EDE"/><mask id="f" fill="#fff"><path fill-rule="evenodd" clip-rule="evenodd" d="M168.13 238.9a2.74 2.74 0 0 0-3.9.03l-7.53 7.76-3.2-3.2a2.74 2.74 0 1 0-3.88 3.87l5 5c.23.23.5.42.8.55 1.05.61 2.43.45 3.32-.47l9.41-9.7a2.74 2.74 0 0 0-.02-3.84z"/></mask><path fill-rule="evenodd" clip-rule="evenodd" d="M168.13 238.9a2.74 2.74 0 0 0-3.9.03l-7.53 7.76-3.2-3.2a2.74 2.74 0 1 0-3.88 3.87l5 5c.23.23.5.42.8.55 1.05.61 2.43.45 3.32-.47l9.41-9.7a2.74 2.74 0 0 0-.02-3.84z" fill="#fff"/><path d="M164.23 238.93l.71.7-.71-.7zm3.9-.03l.7-.7-.7.7zm-11.44 7.79l-.7.7.72.73.7-.73-.72-.7zm-3.2-3.2l.7-.71-.7.7zm-3.87 0l-.7-.71.7.7zm0 3.87l.7-.7-.7.7zm5 5l.7-.7-.7.7zm.8.55l.5-.87-.05-.02-.04-.02-.42.91zm3.32-.47l-.72-.7.72.7zm9.41-9.7l-.71-.7.72.7zm-3.2-3.11c.67-.7 1.78-.7 2.47-.02l1.41-1.42a3.74 3.74 0 0 0-5.32.05l1.43 1.39zm-7.54 7.76l7.53-7.76-1.43-1.4-7.53 7.76 1.43 1.4zm-4.63-3.2l3.2 3.2 1.42-1.4-3.2-3.21-1.42 1.41zm-2.45 0a1.74 1.74 0 0 1 2.45 0l1.42-1.41a3.74 3.74 0 0 0-5.29 0l1.42 1.41zm0 2.46a1.74 1.74 0 0 1 0-2.46l-1.42-1.41a3.74 3.74 0 0 0 0 5.29l1.42-1.42zm5 5l-5-5-1.42 1.42 5 5 1.41-1.42zm.5.35c-.18-.08-.35-.2-.5-.35l-1.42 1.41c.32.33.7.58 1.09.76l.83-1.82zm2.2-.25c-.57.58-1.44.68-2.12.3l-1 1.73c1.45.83 3.33.62 4.55-.64l-1.44-1.4zm9.4-9.7l-9.4 9.7 1.43 1.39 9.41-9.7-1.43-1.4zm-.01-2.44c.67.67.68 1.76.02 2.44l1.43 1.4a3.74 3.74 0 0 0-.04-5.25l-1.41 1.4z" fill="#246EDE" mask="url(#f)"/><rect opacity=".1" x="197.53" y="398.96" width="26.29" height="26.29" rx="7" fill="#246EDE"/><rect x="194.05" y="403.44" width="25.29" height="25.29" rx="6.5" fill="#fff" stroke="#246EDE"/><mask id="g" fill="#fff"><path fill-rule="evenodd" clip-rule="evenodd" d="M216.3 409.22a2.74 2.74 0 0 0-3.9.03l-7.53 7.76-3.2-3.2a2.74 2.74 0 0 0-3.88 3.87l5 5c.24.24.5.42.8.56 1.06.6 2.43.44 3.32-.47l9.42-9.7a2.74 2.74 0 0 0-.03-3.85z"/></mask><path fill-rule="evenodd" clip-rule="evenodd" d="M216.3 409.22a2.74 2.74 0 0 0-3.9.03l-7.53 7.76-3.2-3.2a2.74 2.74 0 0 0-3.88 3.87l5 5c.24.24.5.42.8.56 1.06.6 2.43.44 3.32-.47l9.42-9.7a2.74 2.74 0 0 0-.03-3.85z" fill="#fff"/><path d="M212.4 409.25l.72.7-.72-.7zm3.9-.03l.7-.7-.7.7zm-11.43 7.8l-.71.7.72.72.7-.73-.71-.7zm-3.2-3.21l.7-.7-.7.7zm-3.88 0l-.7-.7.7.7zm0 3.87l.7-.7-.7.7zm5 5l.7-.7-.7.7zm.8.56l.5-.87-.05-.03-.04-.01-.41.9zm3.32-.47l-.71-.7.71.7zm9.42-9.7l-.72-.7.72.7zm-3.22-3.12c.68-.7 1.8-.7 2.48-.02l1.42-1.41a3.74 3.74 0 0 0-5.33.04l1.44 1.39zm-7.53 7.76l7.53-7.76-1.43-1.4-7.53 7.77 1.44 1.39zm-4.62-3.2l3.2 3.21 1.41-1.41-3.2-3.2-1.41 1.4zm-2.46 0a1.74 1.74 0 0 1 2.46 0l1.41-1.4a3.74 3.74 0 0 0-5.29 0l1.42 1.4zm0 2.46a1.74 1.74 0 0 1 0-2.45l-1.42-1.42a3.74 3.74 0 0 0 0 5.29l1.42-1.42zm5 5l-5-5-1.42 1.42 5 5 1.42-1.42zm.5.35c-.18-.08-.35-.2-.5-.35l-1.42 1.42c.33.32.7.57 1.09.75l.83-1.81zm2.2-.25c-.57.58-1.44.68-2.12.3l-1 1.73c1.45.83 3.33.62 4.55-.64l-1.43-1.39zm9.41-9.7l-9.41 9.7 1.43 1.4 9.41-9.7-1.43-1.4zm-.02-2.44c.67.67.68 1.76.02 2.44l1.43 1.4a3.74 3.74 0 0 0-.03-5.25l-1.42 1.41z" fill="#246EDE" mask="url(#g)"/><rect opacity=".1" x="239.68" y="486.7" width="26.29" height="26.29" rx="7" fill="#246EDE"/><rect x="236.2" y="491.19" width="25.29" height="25.29" rx="6.5" fill="#fff" stroke="#246EDE"/><mask id="h" fill="#fff"><path fill-rule="evenodd" clip-rule="evenodd" d="M258.45 496.97a2.74 2.74 0 0 0-3.9.03l-7.53 7.75-3.2-3.2a2.74 2.74 0 0 0-3.88 3.87l5 5c.24.24.5.42.8.56 1.05.6 2.43.45 3.32-.47l9.42-9.7a2.74 2.74 0 0 0-.03-3.84z"/></mask><path fill-rule="evenodd" clip-rule="evenodd" d="M258.45 496.97a2.74 2.74 0 0 0-3.9.03l-7.53 7.75-3.2-3.2a2.74 2.74 0 0 0-3.88 3.87l5 5c.24.24.5.42.8.56 1.05.6 2.43.45 3.32-.47l9.42-9.7a2.74 2.74 0 0 0-.03-3.84z" fill="#fff"/><path d="M254.55 497l.72.7-.72-.7zm3.9-.03l.7-.71-.7.7zm-11.43 7.78l-.7.71.7.72.72-.73-.72-.7zm-3.2-3.2l.7-.7-.7.7zm-3.88 0l-.7-.7.7.7zm0 3.87l.7-.7-.7.7zm5 5l.7-.7-.7.7zm.8.56l.5-.87-.05-.02-.04-.02-.41.9zm3.32-.47l-.71-.7.71.7zm9.42-9.7l-.72-.7.72.7zm-3.21-3.12c.67-.7 1.79-.7 2.47-.02l1.42-1.41a3.74 3.74 0 0 0-5.33.04l1.44 1.4zm-7.53 7.76l7.53-7.76-1.44-1.4-7.53 7.77 1.44 1.4zm-4.63-3.2l3.2 3.21 1.41-1.41-3.2-3.2-1.41 1.4zm-2.46 0a1.74 1.74 0 0 1 2.46 0l1.41-1.4a3.74 3.74 0 0 0-5.28 0l1.4 1.4zm0 2.47a1.74 1.74 0 0 1 0-2.46l-1.41-1.42a3.74 3.74 0 0 0 0 5.3l1.4-1.42zm5 5l-5-5-1.41 1.41 5 5 1.4-1.42zm.5.35c-.18-.09-.35-.2-.5-.36l-1.42 1.42c.33.32.7.57 1.09.76l.83-1.82zm2.2-.26c-.57.58-1.44.69-2.11.3l-1 1.73c1.44.83 3.32.62 4.54-.63l-1.43-1.4zm9.41-9.7l-9.41 9.7 1.43 1.4 9.41-9.7-1.43-1.4zm-.02-2.44c.67.68.68 1.76.02 2.44l1.44 1.4a3.74 3.74 0 0 0-.04-5.25l-1.42 1.41z" fill="#246EDE" mask="url(#h)"/><rect opacity=".1" x="239.68" y="227.78" width="26.29" height="26.29" rx="7" fill="#246EDE"/><rect x="236.2" y="232.26" width="25.29" height="25.29" rx="6.5" fill="#fff" stroke="#246EDE"/><mask id="i" fill="#fff"><path fill-rule="evenodd" clip-rule="evenodd" d="M258.45 238.04a2.74 2.74 0 0 0-3.9.03l-7.53 7.76-3.2-3.2a2.74 2.74 0 0 0-3.88 3.87l5 5c.24.24.5.42.8.55 1.05.61 2.43.45 3.32-.47l9.42-9.7a2.74 2.74 0 0 0-.03-3.84z"/></mask><path fill-rule="evenodd" clip-rule="evenodd" d="M258.45 238.04a2.74 2.74 0 0 0-3.9.03l-7.53 7.76-3.2-3.2a2.74 2.74 0 0 0-3.88 3.87l5 5c.24.24.5.42.8.55 1.05.61 2.43.45 3.32-.47l9.42-9.7a2.74 2.74 0 0 0-.03-3.84z" fill="#fff"/><path d="M254.55 238.07l.72.7-.72-.7zm3.9-.03l.7-.7-.7.7zm-11.43 7.79l-.71.7.72.72.7-.72-.71-.7zm-3.2-3.2l.7-.71-.7.7zm-3.88 0l-.7-.71.7.7zm0 3.87l.7-.7-.7.7zm5 5l.7-.71-.7.7zm.8.55l.5-.87-.05-.02-.04-.02-.41.91zm3.32-.47l-.71-.7.71.7zm9.42-9.7l-.72-.7.72.7zm-3.21-3.11c.67-.7 1.79-.7 2.47-.02l1.42-1.41a3.74 3.74 0 0 0-5.33.03l1.44 1.4zm-7.53 7.76l7.53-7.76-1.44-1.4-7.53 7.76 1.44 1.4zm-4.63-3.2l3.2 3.2 1.41-1.4-3.2-3.21-1.41 1.41zm-2.46 0a1.74 1.74 0 0 1 2.46 0l1.41-1.41a3.74 3.74 0 0 0-5.28 0l1.4 1.41zm0 2.46a1.74 1.74 0 0 1 0-2.46l-1.41-1.41a3.74 3.74 0 0 0 0 5.29l1.4-1.42zm5 5l-5-5-1.41 1.42 5 5 1.4-1.42zm.5.35c-.18-.08-.35-.2-.5-.35l-1.42 1.42c.33.32.7.57 1.1.75l.82-1.82zm2.2-.25c-.57.58-1.44.68-2.11.3l-1 1.73c1.44.83 3.32.62 4.54-.64l-1.43-1.4zm9.41-9.7l-9.41 9.7 1.43 1.39 9.41-9.7-1.43-1.4zm-.02-2.44c.67.67.68 1.76.02 2.44l1.44 1.4a3.74 3.74 0 0 0-.04-5.25l-1.42 1.4z" fill="#246EDE" mask="url(#i)"/><rect opacity=".1" x="149.36" y="325.84" width="26.29" height="26.29" rx="7" fill="#246EDE"/><rect x="145.88" y="330.32" width="25.29" height="25.29" rx="6.5" fill="#fff" stroke="#246EDE"/><mask id="j" fill="#fff"><path fill-rule="evenodd" clip-rule="evenodd" d="M168.13 336.1a2.74 2.74 0 0 0-3.9.03l-7.53 7.76-3.2-3.2a2.74 2.74 0 0 0-3.88 3.87l5 5c.23.24.5.42.8.56 1.05.6 2.43.45 3.32-.47l9.41-9.7a2.74 2.74 0 0 0-.02-3.84z"/></mask><path fill-rule="evenodd" clip-rule="evenodd" d="M168.13 336.1a2.74 2.74 0 0 0-3.9.03l-7.53 7.76-3.2-3.2a2.74 2.74 0 0 0-3.88 3.87l5 5c.23.24.5.42.8.56 1.05.6 2.43.45 3.32-.47l9.41-9.7a2.74 2.74 0 0 0-.02-3.84z" fill="#fff"/><path d="M164.23 336.13l.71.7-.71-.7zm3.9-.02l.7-.71-.7.7zm-11.44 7.78l-.7.71.72.72.7-.73-.72-.7zm-3.2-3.2l.7-.7-.7.7zm-3.87 0l-.7-.7.7.7zm0 3.87l.7-.7-.7.7zm5 5l.7-.7-.7.7zm.8.56l.5-.87-.05-.02-.04-.02-.42.9zm3.32-.47l-.72-.7.72.7zm9.41-9.7l.72.7-.72-.7zm-3.2-3.12c.67-.7 1.78-.7 2.47-.02l1.41-1.41a3.74 3.74 0 0 0-5.32.04l1.43 1.4zm-7.54 7.76l7.53-7.76-1.43-1.4-7.53 7.77 1.43 1.4zm-4.63-3.2l3.2 3.21 1.42-1.41-3.2-3.2-1.42 1.4zm-2.45 0a1.74 1.74 0 0 1 2.45 0l1.42-1.4a3.74 3.74 0 0 0-5.29 0l1.42 1.4zm0 2.47a1.74 1.74 0 0 1 0-2.46l-1.42-1.42a3.74 3.74 0 0 0 0 5.29l1.42-1.41zm5 5l-5-5-1.42 1.41 5 5 1.41-1.41zm.5.35c-.18-.09-.35-.2-.5-.35l-1.42 1.4c.32.33.7.59 1.09.77l.83-1.82zm2.2-.26c-.57.58-1.44.69-2.12.3l-1 1.73c1.45.83 3.33.62 4.55-.64l-1.44-1.39zm9.4-9.7l-9.4 9.7 1.43 1.4 9.41-9.7-1.43-1.4zm-.01-2.44c.67.68.68 1.76.02 2.44l1.43 1.4a3.74 3.74 0 0 0-.04-5.25l-1.41 1.41z" fill="#246EDE" mask="url(#j)"/><rect opacity=".1" x="149.36" y="536.6" width="26.29" height="26.29" rx="7" fill="#246EDE"/><rect x="145.88" y="541.08" width="25.29" height="25.29" rx="6.5" fill="#fff" stroke="#246EDE"/><mask id="k" fill="#fff"><path fill-rule="evenodd" clip-rule="evenodd" d="M168.13 546.86a2.74 2.74 0 0 0-3.9.03l-7.53 7.76-3.2-3.2a2.74 2.74 0 1 0-3.88 3.87l5 5c.23.23.5.42.8.55 1.05.6 2.43.45 3.32-.47l9.41-9.7a2.74 2.74 0 0 0-.02-3.84z"/></mask><path fill-rule="evenodd" clip-rule="evenodd" d="M168.13 546.86a2.74 2.74 0 0 0-3.9.03l-7.53 7.76-3.2-3.2a2.74 2.74 0 1 0-3.88 3.87l5 5c.23.23.5.42.8.55 1.05.6 2.43.45 3.32-.47l9.41-9.7a2.74 2.74 0 0 0-.02-3.84z" fill="#fff"/><path d="M164.23 546.89l.71.7-.71-.7zm3.9-.03l.7-.7-.7.7zm-11.44 7.79l-.7.7.72.72.7-.73-.72-.7zm-3.2-3.2l.7-.71-.7.7zm-3.87 0l-.7-.71.7.7zm0 3.87l.7-.71-.7.7zm5 5l.7-.71-.7.7zm.8.55l.5-.87-.05-.02-.04-.02-.42.9zm3.32-.47l-.72-.7.72.7zm9.41-9.7l-.71-.7.72.7zm-3.2-3.12c.67-.7 1.78-.7 2.47-.01l1.41-1.42a3.74 3.74 0 0 0-5.32.04l1.43 1.4zm-7.54 7.76l7.53-7.75-1.43-1.4-7.53 7.76 1.43 1.4zm-4.63-3.19l3.2 3.2 1.42-1.41-3.2-3.2-1.42 1.41zm-2.45 0a1.74 1.74 0 0 1 2.45 0l1.42-1.41a3.74 3.74 0 0 0-5.29 0l1.42 1.41zm0 2.46a1.74 1.74 0 0 1 0-2.46l-1.42-1.41a3.74 3.74 0 0 0 0 5.28l1.42-1.41zm5 5l-5-5-1.42 1.41 5 5 1.41-1.41zm.5.35c-.18-.08-.35-.2-.5-.35l-1.42 1.41c.32.33.7.58 1.09.76l.83-1.82zm2.2-.26c-.57.59-1.44.69-2.12.3l-1 1.74c1.45.83 3.33.61 4.55-.64l-1.44-1.4zm9.4-9.7l-9.4 9.7 1.43 1.4 9.41-9.7-1.43-1.4zm-.01-2.43c.67.67.68 1.75.02 2.43l1.43 1.4a3.74 3.74 0 0 0-.04-5.25l-1.41 1.42z" fill="#246EDE" mask="url(#k)"/><rect opacity=".1" x="149.36" y="440.25" width="26.29" height="26.29" rx="7" fill="#246EDE"/><rect x="145.88" y="444.73" width="25.29" height="25.29" rx="6.5" fill="#fff" stroke="#246EDE"/><mask id="l" fill="#fff"><path fill-rule="evenodd" clip-rule="evenodd" d="M168.13 450.51a2.74 2.74 0 0 0-3.9.03l-7.53 7.76-3.2-3.2a2.74 2.74 0 1 0-3.88 3.87l5 5c.23.24.5.42.8.55 1.05.61 2.43.46 3.32-.46l9.41-9.7a2.74 2.74 0 0 0-.02-3.85z"/></mask><path fill-rule="evenodd" clip-rule="evenodd" d="M168.13 450.51a2.74 2.74 0 0 0-3.9.03l-7.53 7.76-3.2-3.2a2.74 2.74 0 1 0-3.88 3.87l5 5c.23.24.5.42.8.55 1.05.61 2.43.46 3.32-.46l9.41-9.7a2.74 2.74 0 0 0-.02-3.85z" fill="#fff"/><path d="M164.23 450.54l.71.7-.71-.7zm3.9-.03l.7-.7-.7.7zm-11.44 7.8l-.7.7.72.72.7-.73-.72-.7zm-3.2-3.21l.7-.7-.7.7zm-3.87 0l-.7-.7.7.7zm0 3.87l.7-.7-.7.7zm5 5l.7-.7-.7.7zm.8.55l.5-.86-.05-.03-.04-.01-.42.9zm3.32-.46l-.72-.7.72.7zm9.41-9.7l-.71-.7.72.7zm-3.2-3.12c.67-.7 1.78-.7 2.47-.02l1.41-1.41a3.74 3.74 0 0 0-5.32.04l1.43 1.39zM157.4 459l7.53-7.76-1.43-1.4-7.53 7.77 1.43 1.39zm-4.63-3.2l3.2 3.21 1.42-1.41-3.2-3.2-1.42 1.4zm-2.45 0a1.74 1.74 0 0 1 2.45 0l1.42-1.4a3.74 3.74 0 0 0-5.29 0l1.42 1.4zm0 2.46a1.74 1.74 0 0 1 0-2.45l-1.42-1.42a3.74 3.74 0 0 0 0 5.29l1.42-1.42zm5 5l-5-5-1.42 1.42 5 5 1.41-1.42zm.5.36c-.18-.09-.35-.2-.5-.36l-1.42 1.42c.32.32.7.57 1.09.75l.83-1.81zm2.2-.26c-.57.58-1.44.68-2.12.3l-1 1.73c1.45.83 3.33.62 4.55-.64l-1.44-1.39zm9.4-9.7l-9.4 9.7 1.43 1.4 9.41-9.7-1.43-1.4zm-.01-2.44c.67.67.68 1.76.02 2.44l1.43 1.4a3.74 3.74 0 0 0-.04-5.25l-1.41 1.41z" fill="#246EDE" mask="url(#l)"/><rect opacity=".1" x="87.42" y="440.25" width="26.29" height="26.29" rx="7" fill="#246EDE"/><rect x="83.94" y="444.73" width="25.29" height="25.29" rx="6.5" fill="#fff" stroke="#246EDE"/><mask id="m" fill="#fff"><path fill-rule="evenodd" clip-rule="evenodd" d="M87.53 448.32a2.74 2.74 0 0 0 0 3.87l5.18 5.19-4.92 4.92a2.74 2.74 0 1 0 3.87 3.87l4.92-4.92 4.89 4.88a2.74 2.74 0 0 0 3.87-3.87l-4.88-4.88 5.14-5.15a2.74 2.74 0 1 0-3.87-3.87l-5.15 5.14-5.18-5.18a2.74 2.74 0 0 0-3.87 0z"/></mask><path fill-rule="evenodd" clip-rule="evenodd" d="M87.53 448.32a2.74 2.74 0 0 0 0 3.87l5.18 5.19-4.92 4.92a2.74 2.74 0 1 0 3.87 3.87l4.92-4.92 4.89 4.88a2.74 2.74 0 0 0 3.87-3.87l-4.88-4.88 5.14-5.15a2.74 2.74 0 1 0-3.87-3.87l-5.15 5.14-5.18-5.18a2.74 2.74 0 0 0-3.87 0z" fill="#fff"/><path d="M87.53 452.2l-.7.7.7-.7zm0-3.88l.7.7-.7-.7zm5.18 9.06l.7.7.72-.7-.71-.71-.7.7zm-4.92 4.92l-.7-.7.7.7zm0 3.87l-.7.71.7-.7zm3.87 0l-.7-.7.7.7zm4.92-4.92l.71-.7-.7-.72-.71.71.7.7zm4.89 4.88l.7-.7-.7.7zm3.87 0l-.7-.7.7.7zm0-3.87l-.7.7.7-.7zm-4.88-4.88l-.71-.71-.7.7.7.71.7-.7zm5.14-5.15l.7.7-.7-.7zm0-3.87l-.7.7.7-.7zm-3.87 0l.7.7-.7-.7zm-5.15 5.14l-.7.71.7.7.71-.7-.7-.7zm-5.18-5.18l-.7.7.7-.7zm-3.16 3.17a1.74 1.74 0 0 1 0-2.46l-1.42-1.42a3.74 3.74 0 0 0 0 5.29l1.42-1.41zm5.18 5.18l-5.18-5.18-1.42 1.41 5.18 5.18 1.42-1.41zM88.49 463l4.93-4.93-1.42-1.41-4.92 4.92 1.41 1.42zm0 2.45a1.74 1.74 0 0 1 0-2.45l-1.4-1.42a3.74 3.74 0 0 0 0 5.29l1.4-1.42zm2.46 0c-.68.68-1.78.68-2.46 0l-1.4 1.42a3.74 3.74 0 0 0 5.28 0l-1.42-1.42zm4.93-4.92l-4.93 4.92 1.42 1.42 4.92-4.92-1.41-1.42zm6.3 4.89l-4.89-4.89-1.41 1.42 4.88 4.88 1.42-1.41zm2.45 0c-.67.68-1.77.68-2.45 0l-1.42 1.41a3.74 3.74 0 0 0 5.29 0l-1.42-1.41zm0-2.46c.68.68.68 1.78 0 2.46l1.42 1.41a3.74 3.74 0 0 0 0-5.29l-1.42 1.42zm-4.88-4.89l4.88 4.89 1.42-1.42-4.89-4.88-1.41 1.41zm5.14-6.56l-5.14 5.15 1.41 1.41 5.15-5.14-1.42-1.42zm0-2.45c.68.68.68 1.78 0 2.45l1.42 1.42a3.74 3.74 0 0 0 0-5.29l-1.42 1.42zm-2.45 0a1.74 1.74 0 0 1 2.45 0l1.42-1.42a3.74 3.74 0 0 0-5.29 0l1.42 1.42zm-5.15 5.14l5.14-5.14-1.4-1.42-5.15 5.15 1.41 1.41zm-6.6-5.18l5.19 5.18 1.41-1.41-5.18-5.19-1.42 1.42zm-2.45 0a1.74 1.74 0 0 1 2.45 0l1.42-1.42a3.74 3.74 0 0 0-5.29 0l1.42 1.42z" fill="#246EDE" mask="url(#m)"/><rect opacity=".1" x="86.56" y="537.46" width="26.29" height="26.29" rx="7" fill="#246EDE"/><rect x="83.08" y="541.94" width="25.29" height="25.29" rx="6.5" fill="#fff" stroke="#246EDE"/><mask id="n" fill="#fff"><path fill-rule="evenodd" clip-rule="evenodd" d="M86.67 545.52a2.74 2.74 0 0 0 0 3.88l5.18 5.18-4.92 4.92a2.74 2.74 0 1 0 3.87 3.88l4.92-4.93 4.89 4.89a2.74 2.74 0 0 0 3.87-3.87l-4.88-4.89 5.14-5.14a2.74 2.74 0 0 0-3.87-3.88l-5.15 5.15-5.18-5.19a2.74 2.74 0 0 0-3.87 0z"/></mask><path fill-rule="evenodd" clip-rule="evenodd" d="M86.67 545.52a2.74 2.74 0 0 0 0 3.88l5.18 5.18-4.92 4.92a2.74 2.74 0 1 0 3.87 3.88l4.92-4.93 4.89 4.89a2.74 2.74 0 0 0 3.87-3.87l-4.88-4.89 5.14-5.14a2.74 2.74 0 0 0-3.87-3.88l-5.15 5.15-5.18-5.19a2.74 2.74 0 0 0-3.87 0z" fill="#fff"/><path d="M86.67 549.4l-.7.7.7-.7zm0-3.88l.7.71-.7-.7zm5.18 9.06l.7.7.72-.7-.71-.7-.7.7zm-4.92 4.92l.7.71-.7-.7zm0 3.88l-.71.7.7-.7zm3.87 0l.7.7-.7-.7zm4.92-4.93l.71-.7-.7-.71-.71.7.7.71zm4.89 4.89l-.7.7.7-.7zm3.87 0l-.7-.7.7.7zm0-3.87l-.7.7.7-.7zm-4.88-4.89l-.71-.7-.7.7.7.7.7-.7zm5.14-5.14l.7.7-.7-.7zm0-3.88l-.7.71.7-.7zm-3.87 0l.7.71-.7-.7zm-5.15 5.15l-.7.7.7.71.71-.7-.7-.71zm-5.18-5.19l.7-.7-.7.7zm-3.16 3.17a1.74 1.74 0 0 1 0-2.46l-1.42-1.41a3.74 3.74 0 0 0 0 5.28l1.42-1.4zm5.18 5.18l-5.18-5.18-1.42 1.41 5.18 5.19 1.42-1.42zm-4.93 6.34l4.93-4.92-1.42-1.42-4.92 4.93 1.41 1.41zm0 2.46a1.74 1.74 0 0 1 0-2.46l-1.41-1.41a3.74 3.74 0 0 0 0 5.28l1.41-1.41zm2.46 0c-.68.68-1.78.68-2.46 0l-1.41 1.41a3.74 3.74 0 0 0 5.29 0l-1.42-1.41zm4.93-4.92l-4.93 4.92 1.42 1.41 4.92-4.92-1.41-1.41zm6.3 4.88l-4.89-4.88-1.41 1.41 4.88 4.88 1.42-1.4zm2.45 0c-.67.68-1.77.68-2.45 0l-1.42 1.41a3.74 3.74 0 0 0 5.29 0l-1.42-1.4zm0-2.46c.68.68.68 1.78 0 2.46l1.42 1.41a3.74 3.74 0 0 0 0-5.28l-1.42 1.41zm-4.88-4.88l4.88 4.88 1.42-1.41-4.89-4.89-1.41 1.42zm5.14-6.56l-5.14 5.14 1.41 1.42 5.15-5.15-1.42-1.41zm0-2.46c.68.68.68 1.78 0 2.46l1.42 1.41a3.74 3.74 0 0 0 0-5.28l-1.42 1.41zm-2.45 0a1.74 1.74 0 0 1 2.45 0l1.42-1.41a3.74 3.74 0 0 0-5.29 0l1.42 1.41zm-5.15 5.14l5.14-5.14-1.4-1.41-5.15 5.14 1.41 1.41zm-6.6-5.18l5.19 5.18 1.41-1.4-5.18-5.2-1.42 1.42zm-2.45 0a1.74 1.74 0 0 1 2.45 0l1.42-1.41a3.74 3.74 0 0 0-5.29 0l1.42 1.41z" fill="#246EDE" mask="url(#n)"/><rect opacity=".1" x="317.1" y="486.7" width="26.29" height="26.29" rx="7" fill="#246EDE"/><rect x="313.62" y="491.19" width="25.29" height="25.29" rx="6.5" fill="#fff" stroke="#246EDE"/><mask id="o" fill="#fff"><path fill-rule="evenodd" clip-rule="evenodd" d="M317.2 494.77a2.74 2.74 0 0 0 0 3.88l5.19 5.18-4.93 4.92a2.74 2.74 0 0 0 3.88 3.87l4.92-4.92 4.89 4.89a2.74 2.74 0 1 0 3.87-3.88l-4.89-4.88 5.15-5.15a2.74 2.74 0 0 0-3.88-3.87l-5.14 5.15-5.18-5.19a2.74 2.74 0 0 0-3.87 0z"/></mask><path fill-rule="evenodd" clip-rule="evenodd" d="M317.2 494.77a2.74 2.74 0 0 0 0 3.88l5.19 5.18-4.93 4.92a2.74 2.74 0 0 0 3.88 3.87l4.92-4.92 4.89 4.89a2.74 2.74 0 1 0 3.87-3.88l-4.89-4.88 5.15-5.15a2.74 2.74 0 0 0-3.88-3.87l-5.14 5.15-5.18-5.19a2.74 2.74 0 0 0-3.87 0z" fill="#fff"/><path d="M317.2 498.64l.71-.7-.7.7zm0-3.87l.71.71-.7-.7zm5.19 9.06l.7.7.71-.7-.7-.7-.71.7zm-4.93 4.92l.71.7-.7-.7zm0 3.87l-.7.71.7-.7zm3.88 0l.7.71-.7-.7zm4.92-4.92l.7-.7-.7-.71-.7.7.7.71zm8.76 1.01l-.7.71.7-.7zm-4.89-4.88l-.7-.7-.71.7.7.7.71-.7zm5.15-5.15l.7.71-.7-.7zm0-3.87l-.7.7.7-.7zm-3.88 0l.71.7-.7-.7zm-5.14 5.15l-.7.7.7.71.7-.7-.7-.71zm-5.18-5.19l-.7.71.7-.7zm-3.17 3.17a1.74 1.74 0 0 1 0-2.46l-1.41-1.41a3.74 3.74 0 0 0 0 5.28l1.41-1.41zm5.19 5.18l-5.19-5.18-1.41 1.41 5.18 5.19 1.42-1.42zm-4.93 6.34l4.93-4.92-1.42-1.42-4.92 4.93 1.41 1.4zm0 2.46a1.74 1.74 0 0 1 0-2.46l-1.41-1.41a3.74 3.74 0 0 0 0 5.28l1.41-1.41zm2.46 0c-.68.68-1.78.68-2.46 0l-1.41 1.41a3.74 3.74 0 0 0 5.29 0l-1.42-1.41zm4.92-4.93l-4.92 4.93 1.42 1.41 4.92-4.92-1.42-1.42zm6.3 4.89l-4.88-4.89-1.42 1.42 4.89 4.88 1.41-1.41zm2.46 0c-.68.68-1.78.68-2.46 0l-1.41 1.41a3.74 3.74 0 0 0 5.29 0l-1.42-1.41zm0-2.46c.68.68.68 1.78 0 2.46l1.42 1.41a3.74 3.74 0 0 0 0-5.28l-1.42 1.41zm-4.88-4.88l4.88 4.88 1.42-1.41-4.89-4.89-1.41 1.42zm5.14-6.56l-5.14 5.14 1.41 1.42 5.15-5.15-1.42-1.41zm0-2.46c.68.68.68 1.78 0 2.46l1.42 1.41a3.74 3.74 0 0 0 0-5.28l-1.42 1.4zm-2.46 0a1.74 1.74 0 0 1 2.46 0l1.42-1.41a3.74 3.74 0 0 0-5.3 0l1.42 1.4zm-5.14 5.14l5.14-5.14-1.41-1.41-5.15 5.14 1.42 1.41zm-6.6-5.18l5.18 5.18 1.42-1.41-5.19-5.18-1.4 1.41zm-2.46 0a1.74 1.74 0 0 1 2.46 0l1.42-1.41a3.74 3.74 0 0 0-5.3 0l1.42 1.41z" fill="#246EDE" mask="url(#o)"/><path d="M88.43 407.6c0-4.96 4.1-9 9.19-9a9.1 9.1 0 0 1 9.19 9v12.52h-3.92v-12.51c0-.92-.37-2.23-1.22-3.33a5.13 5.13 0 0 0-4.2-2 5.1 5.1 0 0 0-4.31 2.01 5.8 5.8 0 0 0-1.1 3.32v12.51h-3.63v-12.51zM103.12 424.29a2.2 2.2 0 0 0 1.83 1.05 2.2 2.2 0 0 0 1.84-1.05M101.55 425.86a4.38 4.38 0 0 0 3.4 1.57c1.4 0 2.63-.62 3.4-1.57M88.45 424.29a2.2 2.2 0 0 0 1.84 1.05 2.2 2.2 0 0 0 1.83-1.05M86.88 425.86a4.38 4.38 0 0 0 3.4 1.57c1.4 0 2.63-.62 3.41-1.57M203.7 108.25c0-4.96 4.1-9 9.19-9a9.1 9.1 0 0 1 9.19 9v12.52h-3.92v-12.52c0-.91-.37-2.23-1.22-3.32a5.13 5.13 0 0 0-4.2-2 5.1 5.1 0 0 0-4.32 2 5.8 5.8 0 0 0-1.1 3.32v12.52h-3.62v-12.51zM218.39 124.94a2.2 2.2 0 0 0 1.83 1.04 2.2 2.2 0 0 0 1.84-1.05M216.82 126.5a4.37 4.37 0 0 0 3.4 1.58c1.4 0 2.63-.62 3.4-1.57M203.72 124.94a2.2 2.2 0 0 0 1.84 1.04c.75 0 1.41-.4 1.83-1.05M202.15 126.5a4.37 4.37 0 0 0 3.4 1.58c1.4 0 2.63-.62 3.41-1.57" stroke="#246EDE"/><g opacity=".2"><rect x="61.94" y="84.12" width="92.9" height="42.15" rx="10" fill="#246EDE"/><rect x="62.44" y="84.62" width="91.9" height="41.15" rx="9.5" stroke="#246EDE" stroke-opacity=".6"/></g><rect x="53.33" y="91" width="92.9" height="43.87" rx="10" fill="#fff"/><rect x="53.83" y="91.5" width="91.9" height="42.87" rx="9.5" stroke="#246EDE" stroke-opacity=".6"/><rect x="308.82" y="232.08" width="95.48" height="110.11" rx="10" fill="#fff"/><rect x="309.32" y="232.58" width="94.48" height="109.11" rx="9.5" stroke="#246EDE" stroke-opacity=".6"/><g opacity=".2"><rect x="32.27" y="157.24" width="51.18" height="16.87" rx="5" fill="#246EDE"/><rect x="32.77" y="157.74" width="50.18" height="15.87" rx="4.5" stroke="#246EDE" stroke-opacity=".6"/></g><rect x="27.53" y="161.46" width="51.18" height="17.29" rx="5" fill="#fff"/><rect x="28.03" y="161.96" width="50.18" height="16.29" rx="4.5" stroke="#246EDE" stroke-opacity=".6"/><g opacity=".2"><rect x="119.15" y="157.24" width="51.18" height="16.87" rx="5" fill="#246EDE"/><rect x="119.65" y="157.74" width="50.18" height="15.87" rx="4.5" stroke="#246EDE" stroke-opacity=".6"/></g><rect x="114.41" y="161.46" width="51.18" height="17.29" rx="5" fill="#fff"/><rect x="114.91" y="161.96" width="50.18" height="16.29" rx="4.5" stroke="#246EDE" stroke-opacity=".6"/><g opacity=".2"><rect x="190.54" y="203.69" width="51.18" height="16.87" rx="5" fill="#246EDE"/><rect x="191.04" y="204.19" width="50.18" height="15.87" rx="4.5" stroke="#246EDE" stroke-opacity=".6"/></g><rect x="185.81" y="207.91" width="51.18" height="17.29" rx="5" fill="#fff"/><rect x="186.31" y="208.41" width="50.18" height="16.29" rx="4.5" stroke="#246EDE" stroke-opacity=".6"/><g opacity=".2"><rect x="190.54" y="174.44" width="51.18" height="16.87" rx="5" fill="#246EDE"/><rect x="191.04" y="174.94" width="50.18" height="15.87" rx="4.5" stroke="#246EDE" stroke-opacity=".6"/></g><rect x="185.81" y="178.66" width="51.18" height="17.29" rx="5" fill="#fff"/><rect x="186.31" y="179.16" width="50.18" height="16.29" rx="4.5" stroke="#246EDE" stroke-opacity=".6"/><g opacity=".2"><path d="M75.49 270.14a5 5 0 0 1 4.81-3.65h40.43a5 5 0 0 1 4.81 6.34l-1.91 6.87a5 5 0 0 1-4.82 3.65H78.4a5 5 0 0 1-4.82-6.34l1.92-6.87z" fill="#246EDE"/><path d="M75.97 270.28a4.5 4.5 0 0 1 4.33-3.3h40.43a4.5 4.5 0 0 1 4.33 5.72l-1.91 6.86a4.5 4.5 0 0 1-4.34 3.3H78.4a4.5 4.5 0 0 1-4.34-5.72l1.92-6.86z" stroke="#246EDE" stroke-opacity=".6"/></g><path d="M70.8 274.4a5 5 0 0 1 4.82-3.7h40.44a5 5 0 0 1 4.83 6.32l-1.98 7.29a5 5 0 0 1-4.83 3.68H73.64a5 5 0 0 1-4.83-6.31l1.99-7.29z" fill="#fff"/><path d="M71.28 274.52a4.5 4.5 0 0 1 4.34-3.32h40.44a4.5 4.5 0 0 1 4.35 5.69l-1.99 7.28a4.5 4.5 0 0 1-4.34 3.32H73.64a4.5 4.5 0 0 1-4.34-5.68l1.98-7.29z" stroke="#246EDE" stroke-opacity=".6"/><path d="M70.8 274.4a5 5 0 0 1 4.82-3.7h40.44a5 5 0 0 1 4.83 6.32l-1.98 7.29a5 5 0 0 1-4.83 3.68H73.64a5 5 0 0 1-4.83-6.31l1.99-7.29z" fill="#246EDE" fill-opacity=".05"/><path d="M71.28 274.52a4.5 4.5 0 0 1 4.34-3.32h40.44a4.5 4.5 0 0 1 4.35 5.69l-1.99 7.28a4.5 4.5 0 0 1-4.34 3.32H73.64a4.5 4.5 0 0 1-4.34-5.68l1.98-7.29z" stroke="#246EDE" stroke-opacity=".6"/><g opacity=".2"><path d="M75.49 481.76a5 5 0 0 1 4.81-3.66h40.43a5 5 0 0 1 4.81 6.34l-1.91 6.87a5 5 0 0 1-4.82 3.66H78.4a5 5 0 0 1-4.82-6.35l1.92-6.86z" fill="#246EDE"/><path d="M75.97 481.9a4.5 4.5 0 0 1 4.33-3.3h40.43a4.5 4.5 0 0 1 4.33 5.7l-1.91 6.88a4.5 4.5 0 0 1-4.34 3.29H78.4a4.5 4.5 0 0 1-4.34-5.71l1.92-6.87z" stroke="#246EDE" stroke-opacity=".6"/></g><path d="M70.8 486a5 5 0 0 1 4.82-3.68h40.44a5 5 0 0 1 4.83 6.31l-1.98 7.29a5 5 0 0 1-4.83 3.69H73.64a5 5 0 0 1-4.83-6.32L70.8 486z" fill="#fff"/><path d="M71.28 486.13a4.5 4.5 0 0 1 4.34-3.31h40.44a4.5 4.5 0 0 1 4.35 5.68l-1.99 7.29a4.5 4.5 0 0 1-4.34 3.31H73.64a4.5 4.5 0 0 1-4.34-5.68l1.98-7.29z" stroke="#246EDE" stroke-opacity=".6"/><path d="M70.8 486a5 5 0 0 1 4.82-3.68h40.44a5 5 0 0 1 4.83 6.31l-1.98 7.29a5 5 0 0 1-4.83 3.69H73.64a5 5 0 0 1-4.83-6.32L70.8 486z" fill="#246EDE" fill-opacity=".05"/><path d="M71.28 486.13a4.5 4.5 0 0 1 4.34-3.31h40.44a4.5 4.5 0 0 1 4.35 5.68l-1.99 7.29a4.5 4.5 0 0 1-4.34 3.31H73.64a4.5 4.5 0 0 1-4.34-5.68l1.98-7.29z" stroke="#246EDE" stroke-opacity=".6"/><g opacity=".2"><path d="M75.49 367.35a5 5 0 0 1 4.81-3.66h40.43a5 5 0 0 1 4.81 6.35l-1.91 6.86a5 5 0 0 1-4.82 3.66H78.4a5 5 0 0 1-4.82-6.35l1.92-6.86z" fill="#246EDE"/><path d="M75.97 367.48a4.5 4.5 0 0 1 4.33-3.29h40.43a4.5 4.5 0 0 1 4.33 5.71l-1.91 6.87a4.5 4.5 0 0 1-4.34 3.29H78.4a4.5 4.5 0 0 1-4.34-5.71l1.92-6.87z" stroke="#246EDE" stroke-opacity=".6"/></g><path d="M70.8 371.6a5 5 0 0 1 4.82-3.7h40.44a5 5 0 0 1 4.83 6.32l-1.98 7.29a5 5 0 0 1-4.83 3.69H73.64a5 5 0 0 1-4.83-6.32l1.99-7.28z" fill="#fff"/><path d="M71.28 371.73a4.5 4.5 0 0 1 4.34-3.32h40.44a4.5 4.5 0 0 1 4.35 5.68l-1.99 7.29a4.5 4.5 0 0 1-4.34 3.32H73.64A4.5 4.5 0 0 1 69.3 379l1.98-7.28z" stroke="#246EDE" stroke-opacity=".6"/><path d="M70.8 371.6a5 5 0 0 1 4.82-3.7h40.44a5 5 0 0 1 4.83 6.32l-1.98 7.29a5 5 0 0 1-4.83 3.69H73.64a5 5 0 0 1-4.83-6.32l1.99-7.28z" fill="#246EDE" fill-opacity=".05"/><path d="M71.28 371.73a4.5 4.5 0 0 1 4.34-3.32h40.44a4.5 4.5 0 0 1 4.35 5.68l-1.99 7.29a4.5 4.5 0 0 1-4.34 3.32H73.64A4.5 4.5 0 0 1 69.3 379l1.98-7.28z" stroke="#246EDE" stroke-opacity=".6"/><g opacity=".2"><path d="M229.46 354.44a5 5 0 0 1 4.82-3.65h40.42a5 5 0 0 1 4.82 6.34l-1.91 6.87a5 5 0 0 1-4.82 3.65h-40.43a5 5 0 0 1-4.81-6.34l1.91-6.87z" fill="#246EDE"/><path d="M229.95 354.58a4.5 4.5 0 0 1 4.33-3.3h40.42a4.5 4.5 0 0 1 4.34 5.72l-1.92 6.86a4.5 4.5 0 0 1-4.33 3.3h-40.43a4.5 4.5 0 0 1-4.33-5.71l1.92-6.87z" stroke="#246EDE" stroke-opacity=".6"/></g><path d="M224.78 358.7a5 5 0 0 1 4.82-3.7h40.44a5 5 0 0 1 4.83 6.32l-1.99 7.29a5 5 0 0 1-4.82 3.68h-40.44a5 5 0 0 1-4.83-6.3l1.99-7.3z" fill="#fff"/><path d="M225.26 358.82a4.5 4.5 0 0 1 4.34-3.31h40.44a4.5 4.5 0 0 1 4.35 5.68l-1.99 7.29a4.5 4.5 0 0 1-4.34 3.31h-40.44a4.5 4.5 0 0 1-4.34-5.68l1.98-7.29z" stroke="#246EDE" stroke-opacity=".6"/><path d="M224.78 358.7a5 5 0 0 1 4.82-3.7h40.44a5 5 0 0 1 4.83 6.32l-1.99 7.29a5 5 0 0 1-4.82 3.68h-40.44a5 5 0 0 1-4.83-6.3l1.99-7.3z" fill="#246EDE" fill-opacity=".05"/><path d="M225.26 358.82a4.5 4.5 0 0 1 4.34-3.31h40.44a4.5 4.5 0 0 1 4.35 5.68l-1.99 7.29a4.5 4.5 0 0 1-4.34 3.31h-40.44a4.5 4.5 0 0 1-4.34-5.68l1.98-7.29z" stroke="#246EDE" stroke-opacity=".6"/><g opacity=".2"><path d="M305.16 353.58a5 5 0 0 1 4.82-3.65h40.42a5 5 0 0 1 4.82 6.34l-1.92 6.87a5 5 0 0 1-4.81 3.66h-40.43a5 5 0 0 1-4.81-6.35l1.91-6.87z" fill="#246EDE"/><path d="M305.64 353.72a4.5 4.5 0 0 1 4.34-3.3h40.42a4.5 4.5 0 0 1 4.34 5.72l-1.92 6.86a4.5 4.5 0 0 1-4.33 3.3h-40.43a4.5 4.5 0 0 1-4.33-5.71l1.91-6.87z" stroke="#246EDE" stroke-opacity=".6"/></g><path d="M300.48 357.83a5 5 0 0 1 4.82-3.69h40.44a5 5 0 0 1 4.83 6.32l-1.99 7.29a5 5 0 0 1-4.82 3.68h-40.44a5 5 0 0 1-4.83-6.3l1.99-7.3z" fill="#fff"/><path d="M300.96 357.96a4.5 4.5 0 0 1 4.34-3.31h40.44a4.5 4.5 0 0 1 4.34 5.68l-1.98 7.29a4.5 4.5 0 0 1-4.34 3.31h-40.44a4.5 4.5 0 0 1-4.35-5.68l1.99-7.29z" stroke="#246EDE" stroke-opacity=".6"/><g opacity=".2"><path d="M367.96 352.73a5 5 0 0 1 4.81-3.66h40.43a5 5 0 0 1 4.82 6.34l-1.92 6.87a5 5 0 0 1-4.82 3.66h-40.42a5 5 0 0 1-4.82-6.35l1.92-6.86z" fill="#246EDE"/><path d="M368.44 352.86a4.5 4.5 0 0 1 4.33-3.3h40.43a4.5 4.5 0 0 1 4.33 5.72l-1.91 6.86a4.5 4.5 0 0 1-4.34 3.3h-40.42a4.5 4.5 0 0 1-4.34-5.71l1.92-6.87z" stroke="#246EDE" stroke-opacity=".6"/></g><path d="M363.27 356.97a5 5 0 0 1 4.83-3.69h40.44a5 5 0 0 1 4.82 6.32l-1.98 7.29a5 5 0 0 1-4.82 3.68H366.1a5 5 0 0 1-4.82-6.31l1.98-7.29z" fill="#fff"/><path d="M363.75 357.1a4.5 4.5 0 0 1 4.35-3.31h40.44a4.5 4.5 0 0 1 4.34 5.68l-1.98 7.28a4.5 4.5 0 0 1-4.34 3.32H366.1a4.5 4.5 0 0 1-4.34-5.68l1.98-7.29z" stroke="#246EDE" stroke-opacity=".6"/><path opacity=".2" d="M399.79 112.72a5 5 0 0 1 4.81-3.65h40.43a5 5 0 0 1 4.81 6.34l-1.91 6.87a5 5 0 0 1-4.82 3.66H402.7a5 5 0 0 1-4.82-6.35l1.92-6.87z" fill="#246EDE"/><path d="M395.1 116.97a5 5 0 0 1 4.82-3.69h40.45a5 5 0 0 1 4.82 6.32l-1.98 7.29a5 5 0 0 1-4.83 3.68h-40.44a5 5 0 0 1-4.82-6.31l1.98-7.29z" fill="#fff"/><path d="M395.58 117.1a4.5 4.5 0 0 1 4.34-3.31h40.45a4.5 4.5 0 0 1 4.34 5.68l-1.98 7.28a4.5 4.5 0 0 1-4.35 3.32h-40.44a4.5 4.5 0 0 1-4.34-5.68l1.98-7.29z" stroke="#246EDE" stroke-opacity=".6"/><path opacity=".2" d="M457.42 276.17a5 5 0 0 1 4.82-3.66h40.42a5 5 0 0 1 4.82 6.34l-1.92 6.87a5 5 0 0 1-4.81 3.66h-40.43a5 5 0 0 1-4.81-6.35l1.91-6.86z" fill="#246EDE"/><path d="M452.73 280.41a5 5 0 0 1 4.83-3.69H498a5 5 0 0 1 4.82 6.32l-1.98 7.29a5 5 0 0 1-4.82 3.68h-40.44a5 5 0 0 1-4.83-6.3l1.98-7.3z" fill="#fff"/><path d="M453.22 280.54a4.5 4.5 0 0 1 4.34-3.31H498a4.5 4.5 0 0 1 4.34 5.68l-1.98 7.28a4.5 4.5 0 0 1-4.34 3.32h-40.44a4.5 4.5 0 0 1-4.35-5.68l1.99-7.29z" stroke="#246EDE" stroke-opacity=".6"/><path opacity=".2" d="M457.42 438.75a5 5 0 0 1 4.82-3.66h40.42a5 5 0 0 1 4.82 6.34l-1.92 6.87a5 5 0 0 1-4.81 3.66h-40.43a5 5 0 0 1-4.81-6.35l1.91-6.86z" fill="#246EDE"/><path d="M452.73 443a5 5 0 0 1 4.83-3.7H498a5 5 0 0 1 4.82 6.32l-1.98 7.29a5 5 0 0 1-4.82 3.69h-40.44a5 5 0 0 1-4.83-6.32l1.98-7.29z" fill="#fff"/><path d="M453.22 443.13a4.5 4.5 0 0 1 4.34-3.32H498a4.5 4.5 0 0 1 4.34 5.68l-1.98 7.29a4.5 4.5 0 0 1-4.34 3.32h-40.44a4.5 4.5 0 0 1-4.35-5.69l1.99-7.29z" stroke="#246EDE" stroke-opacity=".6"/><path opacity=".2" d="M399.79 151.43a5 5 0 0 1 4.81-3.65h40.43a5 5 0 0 1 4.81 6.34l-1.91 6.87a5 5 0 0 1-4.82 3.65H402.7a5 5 0 0 1-4.82-6.34l1.92-6.87z" fill="#246EDE"/><path d="M395.1 155.68a5 5 0 0 1 4.82-3.69h40.45a5 5 0 0 1 4.82 6.32l-1.98 7.29a5 5 0 0 1-4.83 3.68h-40.44a5 5 0 0 1-4.82-6.31l1.98-7.29z" fill="#fff"/><path d="M395.58 155.81a4.5 4.5 0 0 1 4.34-3.32h40.45a4.5 4.5 0 0 1 4.34 5.69l-1.98 7.28a4.5 4.5 0 0 1-4.35 3.32h-40.44a4.5 4.5 0 0 1-4.34-5.68l1.98-7.29z" stroke="#246EDE" stroke-opacity=".6"/><path opacity=".2" d="M457.42 314.88a5 5 0 0 1 4.82-3.66h40.42a5 5 0 0 1 4.82 6.34l-1.92 6.87a5 5 0 0 1-4.81 3.65h-40.43a5 5 0 0 1-4.81-6.34l1.91-6.87z" fill="#246EDE"/><path d="M452.73 319.12a5 5 0 0 1 4.83-3.69H498a5 5 0 0 1 4.82 6.32l-1.98 7.29a5 5 0 0 1-4.82 3.68h-40.44a5 5 0 0 1-4.83-6.3l1.98-7.3z" fill="#fff"/><path d="M453.22 319.25a4.5 4.5 0 0 1 4.34-3.31H498a4.5 4.5 0 0 1 4.34 5.68l-1.98 7.28a4.5 4.5 0 0 1-4.34 3.32h-40.44a4.5 4.5 0 0 1-4.35-5.68l1.99-7.29z" stroke="#246EDE" stroke-opacity=".6"/><path opacity=".2" d="M457.42 477.46a5 5 0 0 1 4.82-3.66h40.42a5 5 0 0 1 4.82 6.34l-1.92 6.87a5 5 0 0 1-4.81 3.66h-40.43a5 5 0 0 1-4.81-6.35l1.91-6.86z" fill="#246EDE"/><path d="M452.73 481.7a5 5 0 0 1 4.83-3.68H498a5 5 0 0 1 4.82 6.3l-1.98 7.3a5 5 0 0 1-4.82 3.69h-40.44a5 5 0 0 1-4.83-6.32l1.98-7.29z" fill="#fff"/><path d="M453.22 481.83a4.5 4.5 0 0 1 4.34-3.31H498a4.5 4.5 0 0 1 4.34 5.68l-1.98 7.29a4.5 4.5 0 0 1-4.34 3.31h-40.44a4.5 4.5 0 0 1-4.35-5.68l1.99-7.29z" stroke="#246EDE" stroke-opacity=".6"/><path opacity=".2" d="M463.44 112.72a5 5 0 0 1 4.82-3.65h40.42a5 5 0 0 1 4.82 6.34l-1.92 6.87a5 5 0 0 1-4.81 3.66h-40.43a5 5 0 0 1-4.81-6.35l1.91-6.87z" fill="#246EDE"/><path d="M458.75 116.97a5 5 0 0 1 4.83-3.69h40.44a5 5 0 0 1 4.83 6.32l-1.99 7.29a5 5 0 0 1-4.82 3.68H461.6a5 5 0 0 1-4.83-6.31l1.99-7.29z" fill="#fff"/><path d="M459.24 117.1a4.5 4.5 0 0 1 4.34-3.31h40.44a4.5 4.5 0 0 1 4.34 5.68l-1.98 7.28a4.5 4.5 0 0 1-4.34 3.32H461.6a4.5 4.5 0 0 1-4.35-5.68l1.99-7.29z" stroke="#246EDE" stroke-opacity=".6"/><path opacity=".2" d="M521.08 276.17a5 5 0 0 1 4.81-3.66h40.43a5 5 0 0 1 4.81 6.34l-1.91 6.87a5 5 0 0 1-4.82 3.66h-40.42a5 5 0 0 1-4.82-6.35l1.92-6.86z" fill="#246EDE"/><path d="M516.39 280.41a5 5 0 0 1 4.82-3.69h40.45a5 5 0 0 1 4.82 6.32l-1.98 7.29a5 5 0 0 1-4.83 3.68h-40.44a5 5 0 0 1-4.82-6.3l1.98-7.3z" fill="#fff"/><path d="M516.87 280.54a4.5 4.5 0 0 1 4.34-3.31h40.45a4.5 4.5 0 0 1 4.34 5.68l-1.99 7.28a4.5 4.5 0 0 1-4.34 3.32h-40.44a4.5 4.5 0 0 1-4.34-5.68l1.98-7.29z" stroke="#246EDE" stroke-opacity=".6"/><path opacity=".2" d="M521.08 438.75a5 5 0 0 1 4.81-3.66h40.43a5 5 0 0 1 4.81 6.34l-1.91 6.87a5 5 0 0 1-4.82 3.66h-40.42a5 5 0 0 1-4.82-6.35l1.92-6.86z" fill="#246EDE"/><path d="M516.39 443a5 5 0 0 1 4.82-3.7h40.45a5 5 0 0 1 4.82 6.32l-1.98 7.29a5 5 0 0 1-4.83 3.69h-40.44a5 5 0 0 1-4.82-6.32l1.98-7.29z" fill="#fff"/><path d="M516.87 443.13a4.5 4.5 0 0 1 4.34-3.32h40.45a4.5 4.5 0 0 1 4.34 5.68l-1.99 7.29a4.5 4.5 0 0 1-4.34 3.32h-40.44a4.5 4.5 0 0 1-4.34-5.69l1.98-7.29z" stroke="#246EDE" stroke-opacity=".6"/><path opacity=".2" d="M463.44 151.43a5 5 0 0 1 4.82-3.65h40.42a5 5 0 0 1 4.82 6.34l-1.92 6.87a5 5 0 0 1-4.81 3.65h-40.43a5 5 0 0 1-4.81-6.34l1.91-6.87z" fill="#246EDE"/><path d="M458.75 155.68a5 5 0 0 1 4.83-3.69h40.44a5 5 0 0 1 4.83 6.32l-1.99 7.29a5 5 0 0 1-4.82 3.68H461.6a5 5 0 0 1-4.83-6.31l1.99-7.29z" fill="#fff"/><path d="M459.24 155.81a4.5 4.5 0 0 1 4.34-3.32h40.44a4.5 4.5 0 0 1 4.34 5.69l-1.98 7.28a4.5 4.5 0 0 1-4.34 3.32H461.6a4.5 4.5 0 0 1-4.35-5.68l1.99-7.29z" stroke="#246EDE" stroke-opacity=".6"/><path opacity=".2" d="M521.08 314.88a5 5 0 0 1 4.81-3.66h40.43a5 5 0 0 1 4.81 6.34l-1.91 6.87a5 5 0 0 1-4.82 3.65h-40.42a5 5 0 0 1-4.82-6.34l1.92-6.87z" fill="#246EDE"/><path d="M516.39 319.12a5 5 0 0 1 4.82-3.69h40.45a5 5 0 0 1 4.82 6.32l-1.98 7.29a5 5 0 0 1-4.83 3.68h-40.44a5 5 0 0 1-4.82-6.3l1.98-7.3z" fill="#fff"/><path d="M516.87 319.25a4.5 4.5 0 0 1 4.34-3.31h40.45a4.5 4.5 0 0 1 4.34 5.68L564 328.9a4.5 4.5 0 0 1-4.34 3.32h-40.44a4.5 4.5 0 0 1-4.34-5.68l1.98-7.29z" stroke="#246EDE" stroke-opacity=".6"/><path opacity=".2" d="M521.08 477.46a5 5 0 0 1 4.81-3.66h40.43a5 5 0 0 1 4.81 6.34l-1.91 6.87a5 5 0 0 1-4.82 3.66h-40.42a5 5 0 0 1-4.82-6.35l1.92-6.86z" fill="#246EDE"/><path d="M516.39 481.7a5 5 0 0 1 4.82-3.68h40.45a5 5 0 0 1 4.82 6.3l-1.98 7.3a5 5 0 0 1-4.83 3.69h-40.44a5 5 0 0 1-4.82-6.32l1.98-7.29z" fill="#fff"/><path d="M516.87 481.83a4.5 4.5 0 0 1 4.34-3.31h40.45a4.5 4.5 0 0 1 4.34 5.68l-1.99 7.29a4.5 4.5 0 0 1-4.34 3.31h-40.44a4.5 4.5 0 0 1-4.34-5.68l1.98-7.29z" stroke="#246EDE" stroke-opacity=".6"/><path opacity=".2" d="M526.24 112.72a5 5 0 0 1 4.81-3.65h40.43a5 5 0 0 1 4.81 6.34l-1.91 6.87a5 5 0 0 1-4.82 3.66h-40.42a5 5 0 0 1-4.82-6.35l1.92-6.87z" fill="#246EDE"/><path d="M521.55 116.97a5 5 0 0 1 4.83-3.69h40.44a5 5 0 0 1 4.82 6.32l-1.98 7.29a5 5 0 0 1-4.82 3.68h-40.45a5 5 0 0 1-4.82-6.31l1.98-7.29z" fill="#fff"/><path d="M522.03 117.1a4.5 4.5 0 0 1 4.35-3.31h40.44a4.5 4.5 0 0 1 4.34 5.68l-1.98 7.28a4.5 4.5 0 0 1-4.34 3.32h-40.45a4.5 4.5 0 0 1-4.34-5.68l1.98-7.29z" stroke="#246EDE" stroke-opacity=".6"/><path opacity=".2" d="M583.87 276.17a5 5 0 0 1 4.82-3.66h40.42a5 5 0 0 1 4.82 6.34l-1.91 6.87a5 5 0 0 1-4.82 3.66h-40.43a5 5 0 0 1-4.81-6.35l1.91-6.86z" fill="#246EDE"/><path d="M579.18 280.41a5 5 0 0 1 4.83-3.69h40.44a5 5 0 0 1 4.83 6.32l-1.99 7.29a5 5 0 0 1-4.82 3.68h-40.44a5 5 0 0 1-4.83-6.3l1.98-7.3z" fill="#fff"/><path d="M579.67 280.54a4.5 4.5 0 0 1 4.34-3.31h40.44a4.5 4.5 0 0 1 4.34 5.68l-1.98 7.28a4.5 4.5 0 0 1-4.34 3.32h-40.44a4.5 4.5 0 0 1-4.35-5.68l1.99-7.29z" stroke="#246EDE" stroke-opacity=".6"/><path opacity=".2" d="M583.87 438.75a5 5 0 0 1 4.82-3.66h40.42a5 5 0 0 1 4.82 6.34l-1.91 6.87a5 5 0 0 1-4.82 3.66h-40.43a5 5 0 0 1-4.81-6.35l1.91-6.86z" fill="#246EDE"/><path d="M579.18 443a5 5 0 0 1 4.83-3.7h40.44a5 5 0 0 1 4.83 6.32l-1.99 7.29a5 5 0 0 1-4.82 3.69h-40.44a5 5 0 0 1-4.83-6.32l1.98-7.29z" fill="#fff"/><path d="M579.67 443.13a4.5 4.5 0 0 1 4.34-3.32h40.44a4.5 4.5 0 0 1 4.34 5.68l-1.98 7.29a4.5 4.5 0 0 1-4.34 3.32h-40.44a4.5 4.5 0 0 1-4.35-5.69l1.99-7.29z" stroke="#246EDE" stroke-opacity=".6"/><path opacity=".2" d="M526.24 151.43a5 5 0 0 1 4.81-3.65h40.43a5 5 0 0 1 4.81 6.34l-1.91 6.87a5 5 0 0 1-4.82 3.65h-40.42a5 5 0 0 1-4.82-6.34l1.92-6.87z" fill="#246EDE"/><path d="M521.55 155.68a5 5 0 0 1 4.83-3.69h40.44a5 5 0 0 1 4.82 6.32l-1.98 7.29a5 5 0 0 1-4.82 3.68h-40.45a5 5 0 0 1-4.82-6.31l1.98-7.29z" fill="#fff"/><path d="M522.03 155.81a4.5 4.5 0 0 1 4.35-3.32h40.44a4.5 4.5 0 0 1 4.34 5.69l-1.98 7.28a4.5 4.5 0 0 1-4.34 3.32h-40.45a4.5 4.5 0 0 1-4.34-5.68l1.98-7.29z" stroke="#246EDE" stroke-opacity=".6"/><path opacity=".2" d="M583.87 314.88a5 5 0 0 1 4.82-3.66h40.42a5 5 0 0 1 4.82 6.34l-1.91 6.87a5 5 0 0 1-4.82 3.65h-40.43a5 5 0 0 1-4.81-6.34l1.91-6.87z" fill="#246EDE"/><path d="M579.18 319.12a5 5 0 0 1 4.83-3.69h40.44a5 5 0 0 1 4.83 6.32l-1.99 7.29a5 5 0 0 1-4.82 3.68h-40.44a5 5 0 0 1-4.83-6.3l1.98-7.3z" fill="#fff"/><path d="M579.67 319.25a4.5 4.5 0 0 1 4.34-3.31h40.44a4.5 4.5 0 0 1 4.34 5.68l-1.98 7.28a4.5 4.5 0 0 1-4.34 3.32h-40.44a4.5 4.5 0 0 1-4.35-5.68l1.99-7.29z" stroke="#246EDE" stroke-opacity=".6"/><path opacity=".2" d="M583.87 477.46a5 5 0 0 1 4.82-3.66h40.42a5 5 0 0 1 4.82 6.34l-1.91 6.87a5 5 0 0 1-4.82 3.66h-40.43a5 5 0 0 1-4.81-6.35l1.91-6.86z" fill="#246EDE"/><path d="M579.18 481.7a5 5 0 0 1 4.83-3.68h40.44a5 5 0 0 1 4.83 6.3l-1.99 7.3a5 5 0 0 1-4.82 3.69h-40.44a5 5 0 0 1-4.83-6.32l1.98-7.29z" fill="#fff"/><path d="M579.67 481.83a4.5 4.5 0 0 1 4.34-3.31h40.44a4.5 4.5 0 0 1 4.34 5.68l-1.98 7.29a4.5 4.5 0 0 1-4.34 3.31h-40.44a4.5 4.5 0 0 1-4.35-5.68l1.99-7.29z" stroke="#246EDE" stroke-opacity=".6"/><path opacity=".2" d="M588.17 112.72a5 5 0 0 1 4.82-3.65h40.42a5 5 0 0 1 4.82 6.34l-1.91 6.87a5 5 0 0 1-4.82 3.66h-40.42a5 5 0 0 1-4.82-6.35l1.91-6.87z" fill="#246EDE"/><path d="M583.49 116.97a5 5 0 0 1 4.82-3.69h40.44a5 5 0 0 1 4.83 6.32l-1.99 7.29a5 5 0 0 1-4.82 3.68h-40.44a5 5 0 0 1-4.83-6.31l1.99-7.29z" fill="#fff"/><path d="M583.97 117.1a4.5 4.5 0 0 1 4.34-3.31h40.44a4.5 4.5 0 0 1 4.35 5.68l-1.99 7.28a4.5 4.5 0 0 1-4.34 3.32h-40.44a4.5 4.5 0 0 1-4.35-5.68l1.99-7.29z" stroke="#246EDE" stroke-opacity=".6"/><path opacity=".2" d="M588.17 151.43a5 5 0 0 1 4.82-3.65h40.42a5 5 0 0 1 4.82 6.34l-1.91 6.87a5 5 0 0 1-4.82 3.65h-40.42a5 5 0 0 1-4.82-6.34l1.91-6.87z" fill="#246EDE"/><path d="M583.49 155.68a5 5 0 0 1 4.82-3.69h40.44a5 5 0 0 1 4.83 6.32l-1.99 7.29a5 5 0 0 1-4.82 3.68h-40.44a5 5 0 0 1-4.83-6.31l1.99-7.29z" fill="#fff"/><path d="M583.97 155.81a4.5 4.5 0 0 1 4.34-3.32h40.44a4.5 4.5 0 0 1 4.35 5.69l-1.99 7.28a4.5 4.5 0 0 1-4.34 3.32h-40.44a4.5 4.5 0 0 1-4.35-5.68l1.99-7.29z" stroke="#246EDE" stroke-opacity=".6"/><g opacity=".2"><rect x="74.42" y="198.53" width="51.18" height="16.87" rx="5" fill="#246EDE"/><rect x="74.92" y="199.03" width="50.18" height="15.87" rx="4.5" stroke="#246EDE" stroke-opacity=".6"/></g><rect x="69.68" y="202.75" width="51.18" height="17.29" rx="5" fill="#fff"/><rect x="70.18" y="203.25" width="50.18" height="16.29" rx="4.5" stroke="#246EDE" stroke-opacity=".6"/><g opacity=".2"><rect x="74.42" y="296.6" width="51.18" height="16.87" rx="5" fill="#246EDE"/><rect x="74.92" y="297.1" width="50.18" height="15.87" rx="4.5" stroke="#246EDE" stroke-opacity=".6"/></g><rect x="69.68" y="300.81" width="51.18" height="17.29" rx="5" fill="#fff"/><rect x="70.18" y="301.31" width="50.18" height="16.29" rx="4.5" stroke="#246EDE" stroke-opacity=".6"/><g opacity=".2"><rect x="74.42" y="508.21" width="51.18" height="16.87" rx="5" fill="#246EDE"/><rect x="74.92" y="508.71" width="50.18" height="15.87" rx="4.5" stroke="#246EDE" stroke-opacity=".6"/></g><rect x="69.68" y="512.42" width="51.18" height="17.29" rx="5" fill="#fff"/><rect x="70.18" y="512.92" width="50.18" height="16.29" rx="4.5" stroke="#246EDE" stroke-opacity=".6"/><g opacity=".2"><rect x="266.24" y="461.76" width="51.18" height="16.87" rx="5" fill="#246EDE"/><rect x="266.74" y="462.26" width="50.18" height="15.87" rx="4.5" stroke="#246EDE" stroke-opacity=".6"/></g><rect x="261.5" y="465.97" width="51.18" height="17.29" rx="5" fill="#fff"/><rect x="262" y="466.47" width="50.18" height="16.29" rx="4.5" stroke="#246EDE" stroke-opacity=".6"/><g opacity=".2"><rect x="4.74" y="230.36" width="51.18" height="16.87" rx="5" fill="#246EDE"/><rect x="5.24" y="230.86" width="50.18" height="15.87" rx="4.5" stroke="#246EDE" stroke-opacity=".6"/></g><rect y="234.57" width="51.18" height="17.29" rx="5" fill="#fff"/><rect x=".5" y="235.07" width="50.18" height="16.29" rx="4.5" stroke="#246EDE" stroke-opacity=".6"/><g opacity=".2"><rect x="20.22" y="331" width="51.18" height="16.87" rx="5" fill="#246EDE"/><rect x="20.72" y="331.5" width="50.18" height="15.87" rx="4.5" stroke="#246EDE" stroke-opacity=".6"/></g><rect x="15.48" y="335.22" width="51.18" height="17.29" rx="5" fill="#fff"/><rect x="15.98" y="335.72" width="50.18" height="16.29" rx="4.5" stroke="#246EDE" stroke-opacity=".6"/><path d="M69.75 307.78H41.3v27.52m42.15 73.98H41.3v-56.77" stroke="#246EDE"/><path d="M69.68 209.71H7.74v25.38m61.94 285.16H7.74V252.3M86.88 134.87v13.22H53.33v13.45M86.88 202.83V190.9H53.33v-12.16M143.66 178.75v12.36H110.1v12.58M143.66 161.54v-13.21H110.1v-13.46M158.28 232.94V209.7h-37.85M158.28 331v-23.22h-37.85M158.28 541.76V521.1h-37.85M249.46 491v-17.2h12.9M325.16 491v-17.2h-12.9M249.46 553.8v-37.85M290.75 380.9v-16.35h-17.2M206.45 403.26V363.7h17.2M366.45 232.08V140.9h22.37M447.31 462.62h-21.5V316.38h-21.5M325.16 371.43v23.23h-21.5M609.9 130.57v5.37H425.8v16.14M603.01 294.01v5.37H480.86v16.14M603.01 456.6v5.36H480.86v16.14M553.12 113.37V92.72h10.32M553.12 277.67v-20.65h10.32M553.12 440.25v-22.37h10.32M480.86 170.14v18.07h10.32M480.86 331.86v18.07h10.32M480.86 495.3v18.07h10.32M158.28 444.55v-35.27h-47.31M146.24 112.5h17.2M183.23 112.5h17.2M443.87 124.55h12.9M501.5 288h12.9M501.5 450.57h12.9M443.87 163.26h12.9M501.5 326.7h12.9M501.5 489.28h12.9M506.67 124.55h12.9M564.3 288h12.9M564.3 450.57h12.9M506.67 163.26h12.9M564.3 326.7h12.9M564.3 489.28h12.9M569.46 124.55h12.9M569.46 163.26h12.9M212.47 165.84v12.9M249.46 257.88v12.9M206.45 429.07v104.08h43.01M326.02 516.81v19.79M97.2 566.7v17.2M249.46 342.19v12.9M325.16 341.33v12.9M387.1 341.33v12.9M97.2 431.65v12.9M97.2 318.1V331M97.2 528.85v12.9M97.2 385.2v12.9M97.2 355.95v12.9M289.03 454.87v12.9M97.2 288v12.9M97.2 499.6v12.9M97.2 258.75v12.9M97.2 470.36v12.9M97.2 220.04v12.9M212.47 195.95v12.9M236.56 215.73h12.9M404.3 299.18h43.01M172.04 343.05h12.9M184.95 318.1h12.9M296.77 289.71h12.9M172.04 457.45h12.9M212.47 128.85v12.9M227.1 112.5h22.36v119.58" stroke="#246EDE"/><rect opacity=".1" x="205.23" y="261.83" width="100.5" height="71.26" rx="9.5" fill="#246EDE" stroke="#246EDE"/><rect x="196.63" y="270.43" width="100.5" height="71.26" rx="9.5" fill="#fff" stroke="#246EDE"/><rect x="206.09" y="279.89" width="23.95" height="4.16" rx="2.08" fill="#fff" stroke="#246EDE"/><rect x="237.92" y="287.63" width="13.62" height="4.16" rx="2.08" fill="#fff" stroke="#246EDE"/><rect x="255.98" y="287.63" width="13.62" height="4.16" rx="2.08" fill="#fff" stroke="#246EDE"/><rect x="274.05" y="287.63" width="13.62" height="4.16" rx="2.08" fill="#fff" stroke="#246EDE"/><rect x="237.92" y="279.89" width="49.75" height="4.16" rx="2.08" fill="#fff" stroke="#246EDE"/><rect x="216.41" y="288.49" width="13.62" height="4.16" rx="2.08" fill="#fff" stroke="#246EDE"/><rect x="206.09" y="288.49" width="6.74" height="4.16" rx="2.08" fill="#fff" stroke="#246EDE"/><rect x="216.41" y="297.1" width="13.62" height="4.16" rx="2.08" fill="#fff" stroke="#246EDE"/><rect x="206.09" y="297.1" width="6.74" height="4.16" rx="2.08" fill="#fff" stroke="#246EDE"/><rect x="216.41" y="305.7" width="13.62" height="4.16" rx="2.08" fill="#fff" stroke="#246EDE"/><rect x="206.09" y="305.7" width="6.74" height="4.16" rx="2.08" fill="#fff" stroke="#246EDE"/><rect x="216.41" y="314.3" width="13.62" height="4.16" rx="2.08" fill="#fff" stroke="#246EDE"/><rect x="206.09" y="314.3" width="6.74" height="4.16" rx="2.08" fill="#fff" stroke="#246EDE"/><rect x="216.41" y="322.9" width="13.62" height="4.16" rx="2.08" fill="#fff" stroke="#246EDE"/><rect x="206.09" y="322.9" width="6.74" height="4.16" rx="2.08" fill="#fff" stroke="#246EDE"/><path d="M242.68 327.87h0a8.61 8.61 0 0 0 4.24 1.05c1.26 0 2.41-.22 3.47-.68a7.13 7.13 0 0 0 2.7-2.01l.3-.36-.33-.32-1.75-1.72-.38-.37-.35.4a4.5 4.5 0 0 1-3.51 1.61c-.92 0-1.73-.2-2.44-.6a4.37 4.37 0 0 1-1.66-1.7c-.4-.72-.6-1.55-.6-2.49 0-.94.2-1.77.6-2.49.4-.72.95-1.28 1.66-1.68h0c.71-.4 1.52-.62 2.44-.62 1.39 0 2.55.53 3.52 1.6l.34.38.38-.36 1.74-1.7.33-.32-.3-.36a7.17 7.17 0 0 0-2.67-2 8.56 8.56 0 0 0-3.47-.7c-1.55 0-2.97.37-4.24 1.08a7.76 7.76 0 0 0-2.97 2.94 8.3 8.3 0 0 0-1.09 4.23c0 1.56.35 2.97 1.06 4.23h0a7.92 7.92 0 0 0 2.98 2.96zm21.73.62l.15.22H268.68l-.53-.78-3.02-4.46a5.08 5.08 0 0 0 1.97-1.76c.6-.91.89-1.99.89-3.2a5.33 5.33 0 0 0-3.2-5.16c-1.01-.47-2.18-.7-3.5-.7h-6.5V328.71h3.71V324.32h3.09l2.82 4.17zm18.98-.28v.5h3.56v-.5l-.02-15.06v-.5h-3.02l-.14.26-5.25 9.22-5.35-9.23-.14-.25H270V328.71h3.58v-8.52l3.86 6.55.14.25h1.79l.14-.25 3.86-6.66.01 8.13zm-19.87-11.53c.48.4.74.98.74 1.83 0 .84-.26 1.44-.74 1.86-.48.4-1.24.65-2.36.65h-2.66v-5h2.66c1.12 0 1.88.25 2.36.66z" stroke="#246EDE"/><g opacity=".2"><rect x="334.2" y="273.37" width="51.18" height="16.87" rx="5" fill="#246EDE"/><rect x="334.7" y="273.87" width="50.18" height="15.87" rx="4.5" stroke="#246EDE" stroke-opacity=".6"/></g><rect x="329.46" y="277.59" width="51.18" height="17.29" rx="5" fill="#fff"/><rect x="329.96" y="278.09" width="50.18" height="16.29" rx="4.5" stroke="#246EDE" stroke-opacity=".6"/><g opacity=".2"><rect x="334.2" y="303.48" width="51.18" height="16.87" rx="5" fill="#246EDE"/><rect x="334.7" y="303.98" width="50.18" height="15.87" rx="4.5" stroke="#246EDE" stroke-opacity=".6"/></g><rect x="329.46" y="307.69" width="51.18" height="17.29" rx="5" fill="#fff"/><rect x="329.96" y="308.19" width="50.18" height="16.29" rx="4.5" stroke="#246EDE" stroke-opacity=".6"/><g opacity=".2"><rect x="334.2" y="243.26" width="51.18" height="16.87" rx="5" fill="#246EDE"/><rect x="334.7" y="243.76" width="50.18" height="15.87" rx="4.5" stroke="#246EDE" stroke-opacity=".6"/></g><rect x="329.46" y="247.48" width="51.18" height="17.29" rx="5" fill="#fff"/><rect x="329.96" y="247.98" width="50.18" height="16.29" rx="4.5" stroke="#246EDE" stroke-opacity=".6"/><rect opacity=".2" x="393.72" y="102.19" width="22.68" height="16.28" rx="2" fill="#246EDE"/><rect x="391.9" y="104.43" width="22.21" height="15.86" rx="2.5" fill="#fff" stroke="#246EDE"/><path d="M413.8 104.77l-10.8 9.91-10.8-9.9M413.8 120.16l-8.4-7.7m-13.2 7.7l8.4-7.7" stroke="#246EDE"/><rect opacity=".2" x="451.36" y="265.63" width="22.68" height="16.28" rx="2" fill="#246EDE"/><rect x="449.53" y="267.87" width="22.21" height="15.86" rx="2.5" fill="#fff" stroke="#246EDE"/><path d="M471.44 268.21l-10.8 9.91-10.8-9.9M471.44 283.6l-8.4-7.7m-13.2 7.7l8.4-7.7" stroke="#246EDE"/><rect opacity=".2" x="451.36" y="428.21" width="22.68" height="16.28" rx="2" fill="#246EDE"/><rect x="449.53" y="430.45" width="22.21" height="15.86" rx="2.5" fill="#fff" stroke="#246EDE"/><path d="M471.44 430.8l-10.8 9.9-10.8-9.9M471.44 446.18l-8.4-7.7m-13.2 7.7l8.4-7.7" stroke="#246EDE"/><rect opacity=".2" x="393.72" y="140.9" width="22.68" height="16.28" rx="2" fill="#246EDE"/><rect x="391.9" y="143.14" width="22.21" height="15.86" rx="2.5" fill="#fff" stroke="#246EDE"/><path opacity=".2" d="M413.8 143.48L403 153.4l-10.8-9.9" stroke="#246EDE"/><path d="M413.8 158.87l-8.4-7.7m-13.2 7.7l8.4-7.7" stroke="#246EDE"/><rect opacity=".2" x="451.36" y="304.34" width="22.68" height="16.28" rx="2" fill="#246EDE"/><rect x="449.53" y="306.58" width="22.21" height="15.86" rx="2.5" fill="#fff" stroke="#246EDE"/><path d="M471.44 306.92l-10.8 9.91-10.8-9.9M471.44 322.31l-8.4-7.7m-13.2 7.7l8.4-7.7" stroke="#246EDE"/><rect opacity=".2" x="451.36" y="466.92" width="22.68" height="16.28" rx="2" fill="#246EDE"/><rect x="449.53" y="469.16" width="22.21" height="15.86" rx="2.5" fill="#fff" stroke="#246EDE"/><path d="M471.44 469.5l-10.8 9.91-10.8-9.9M471.44 484.9l-8.4-7.71m-13.2 7.7l8.4-7.7" stroke="#246EDE"/><rect opacity=".2" x="457.38" y="102.19" width="22.68" height="16.28" rx="2" fill="#246EDE"/><rect x="455.55" y="104.43" width="22.21" height="15.86" rx="2.5" fill="#fff" stroke="#246EDE"/><path d="M477.46 104.77l-10.8 9.91-10.8-9.9M477.46 120.16l-8.4-7.7m-13.2 7.7l8.4-7.7" stroke="#246EDE"/><rect opacity=".2" x="515.01" y="265.63" width="22.68" height="16.28" rx="2" fill="#246EDE"/><rect x="513.19" y="267.87" width="22.21" height="15.86" rx="2.5" fill="#fff" stroke="#246EDE"/><path d="M535.1 268.21l-10.8 9.91-10.81-9.9M535.1 283.6l-8.4-7.7m-13.21 7.7l8.4-7.7" stroke="#246EDE"/><rect opacity=".2" x="515.01" y="428.21" width="22.68" height="16.28" rx="2" fill="#246EDE"/><rect x="513.19" y="430.45" width="22.21" height="15.86" rx="2.5" fill="#fff" stroke="#246EDE"/><path d="M535.1 430.8l-10.8 9.9-10.81-9.9M535.1 446.18l-8.4-7.7m-13.21 7.7l8.4-7.7" stroke="#246EDE"/><rect opacity=".2" x="457.38" y="140.9" width="22.68" height="16.28" rx="2" fill="#246EDE"/><rect x="455.55" y="143.14" width="22.21" height="15.86" rx="2.5" fill="#fff" stroke="#246EDE"/><path d="M477.46 143.48l-10.8 9.91-10.8-9.9M477.46 158.87l-8.4-7.7m-13.2 7.7l8.4-7.7" stroke="#246EDE"/><rect opacity=".2" x="515.01" y="304.34" width="22.68" height="16.28" rx="2" fill="#246EDE"/><rect x="513.19" y="306.58" width="22.21" height="15.86" rx="2.5" fill="#fff" stroke="#246EDE"/><path d="M535.1 306.92l-10.8 9.91-10.81-9.9M535.1 322.31l-8.4-7.7m-13.21 7.7l8.4-7.7" stroke="#246EDE"/><rect opacity=".2" x="515.01" y="466.92" width="22.68" height="16.28" rx="2" fill="#246EDE"/><rect x="513.19" y="469.16" width="22.21" height="15.86" rx="2.5" fill="#fff" stroke="#246EDE"/><path d="M535.1 469.5l-10.8 9.91-10.81-9.9M535.1 484.9l-8.4-7.71m-13.21 7.7l8.4-7.7" stroke="#246EDE"/><rect opacity=".2" x="520.18" y="102.19" width="22.68" height="16.28" rx="2" fill="#246EDE"/><rect x="518.35" y="104.43" width="22.21" height="15.86" rx="2.5" fill="#fff" stroke="#246EDE"/><path d="M540.26 104.77l-10.8 9.91-10.81-9.9M540.26 120.16l-8.4-7.7m-13.21 7.7l8.4-7.7" stroke="#246EDE"/><rect opacity=".2" x="577.81" y="265.63" width="22.68" height="16.28" rx="2" fill="#246EDE"/><rect x="575.98" y="267.87" width="22.21" height="15.86" rx="2.5" fill="#fff" stroke="#246EDE"/><path d="M597.9 268.21l-10.81 9.91-10.8-9.9M597.9 283.6l-8.41-7.7m-13.2 7.7l8.4-7.7" stroke="#246EDE"/><rect opacity=".2" x="577.81" y="428.21" width="22.68" height="16.28" rx="2" fill="#246EDE"/><rect x="575.98" y="430.45" width="22.21" height="15.86" rx="2.5" fill="#fff" stroke="#246EDE"/><path d="M597.9 430.8l-10.81 9.9-10.8-9.9M597.9 446.18l-8.41-7.7m-13.2 7.7l8.4-7.7" stroke="#246EDE"/><rect opacity=".2" x="520.18" y="140.9" width="22.68" height="16.28" rx="2" fill="#246EDE"/><rect x="518.35" y="143.14" width="22.21" height="15.86" rx="2.5" fill="#fff" stroke="#246EDE"/><path d="M540.26 143.48l-10.8 9.91-10.81-9.9M540.26 158.87l-8.4-7.7m-13.21 7.7l8.4-7.7" stroke="#246EDE"/><rect opacity=".2" x="577.81" y="304.34" width="22.68" height="16.28" rx="2" fill="#246EDE"/><rect x="575.98" y="306.58" width="22.21" height="15.86" rx="2.5" fill="#fff" stroke="#246EDE"/><path d="M597.9 306.92l-10.81 9.91-10.8-9.9M597.9 322.31l-8.41-7.7m-13.2 7.7l8.4-7.7" stroke="#246EDE"/><rect opacity=".2" x="577.81" y="466.92" width="22.68" height="16.28" rx="2" fill="#246EDE"/><rect x="575.98" y="469.16" width="22.21" height="15.86" rx="2.5" fill="#fff" stroke="#246EDE"/><path d="M597.9 469.5l-10.81 9.91-10.8-9.9M597.9 484.9l-8.41-7.71m-13.2 7.7l8.4-7.7" stroke="#246EDE"/><rect opacity=".2" x="582.11" y="102.19" width="22.68" height="16.28" rx="2" fill="#246EDE"/><rect x="580.28" y="104.43" width="22.21" height="15.86" rx="2.5" fill="#fff" stroke="#246EDE"/><path d="M602.2 104.77l-10.81 9.91-10.8-9.9M602.2 120.16l-8.4-7.7m-13.21 7.7l8.4-7.7" stroke="#246EDE"/><rect opacity=".2" x="582.11" y="140.9" width="22.68" height="16.28" rx="2" fill="#246EDE"/><rect x="580.28" y="143.14" width="22.21" height="15.86" rx="2.5" fill="#fff" stroke="#246EDE"/><path d="M602.2 143.48l-10.81 9.91-10.8-9.9M602.2 158.87l-8.4-7.7m-13.21 7.7l8.4-7.7" stroke="#246EDE"/><path d="M579.4 89.54a.79.79 0 0 0-.8-.8h-10.3a.8.8 0 1 0 0 1.59h10.3c.44 0 .8-.36.8-.8zM573.64 93.4a.79.79 0 0 0-.8-.8h-4.54a.8.8 0 1 0 0 1.59h4.55c.43 0 .79-.36.79-.8zM579.4 93.4a.79.79 0 0 0-.8-.8h-2.08a.8.8 0 1 0 0 1.59h2.09c.43 0 .79-.36.79-.8z" fill="#fff" stroke="#246EDE"/><path d="M565.31 89.98a4.5 4.5 0 0 1 4.5-4.5h7.56a4.5 4.5 0 0 1 4.5 4.5v2.56a4.5 4.5 0 0 1-4.5 4.5h-9.35a5.5 5.5 0 0 0-1.87.33l-1.86.67.66-1.74c.24-.62.36-1.28.36-1.95v-4.37z" stroke="#246EDE"/><path d="M579.4 254.7a.79.79 0 0 0-.8-.8h-10.3a.8.8 0 1 0 0 1.59h10.3a.8.8 0 0 0 .8-.8zM573.64 258.56a.79.79 0 0 0-.8-.8h-4.54a.8.8 0 1 0 0 1.59h4.55a.8.8 0 0 0 .79-.8zM579.4 258.56a.79.79 0 0 0-.8-.8h-2.08a.8.8 0 1 0 0 1.59h2.09a.8.8 0 0 0 .79-.8z" fill="#fff" stroke="#246EDE"/><path d="M565.31 255.14a4.5 4.5 0 0 1 4.5-4.5h7.56a4.5 4.5 0 0 1 4.5 4.5v2.56a4.5 4.5 0 0 1-4.5 4.5h-9.35a5.5 5.5 0 0 0-1.87.33l-1.86.67.66-1.73a5.5 5.5 0 0 0 .36-1.96v-4.37z" stroke="#246EDE"/><path d="M579.4 416.42a.8.8 0 0 0-.8-.8h-10.3a.8.8 0 1 0 0 1.59h10.3c.44 0 .8-.35.8-.8zM573.64 420.28a.8.8 0 0 0-.8-.8h-4.54a.8.8 0 1 0 0 1.59h4.55c.43 0 .79-.36.79-.8zM579.4 420.28a.8.8 0 0 0-.8-.8h-2.08a.8.8 0 1 0 0 1.59h2.09c.43 0 .79-.36.79-.8z" fill="#fff" stroke="#246EDE"/><path d="M565.31 416.86a4.5 4.5 0 0 1 4.5-4.5h7.56a4.5 4.5 0 0 1 4.5 4.5v2.56a4.5 4.5 0 0 1-4.5 4.5h-9.35c-.64 0-1.27.11-1.87.33l-1.86.67.66-1.73c.24-.63.36-1.29.36-1.96v-4.37z" stroke="#246EDE"/><path opacity=".1" d="M507.25 197.84h-12.01a1.5 1.5 0 0 1-1.5-1.5v-18.18c0-.82.67-1.5 1.5-1.5h9.31c.38 0 .75.15 1.03.42l2.7 2.55c.3.28.47.68.47 1.09v15.62c0 .82-.67 1.5-1.5 1.5z" fill="#246EDE" stroke="#246EDE"/><path d="M505.2 199.98h-12.02a2 2 0 0 1-2-2V179.8c0-1.1.9-2 2-2h10.11l3.9 3.7v16.47a2 2 0 0 1-2 2z" fill="#fff"/><path d="M505.2 199.48h-12.02a1.5 1.5 0 0 1-1.5-1.5V179.8c0-.83.67-1.5 1.5-1.5h9.92l3.6 3.4v16.27c0 .83-.68 1.5-1.5 1.5z" stroke="#246EDE" stroke-opacity=".6"/><path opacity=".6" d="M492.9 184.77h12.05M492.9 187.35h12.05M492.9 189.93h12.05M492.9 192.5h12.05M492.9 195.09h12.05" stroke="#246EDE"/><path opacity=".1" d="M507.25 359.56h-12.01a1.5 1.5 0 0 1-1.5-1.5v-18.18c0-.82.67-1.5 1.5-1.5h9.31c.38 0 .75.15 1.03.42l2.7 2.55c.3.28.47.68.47 1.09v15.62c0 .82-.67 1.5-1.5 1.5z" fill="#246EDE" stroke="#246EDE"/><path d="M505.2 361.7h-12.02a2 2 0 0 1-2-2v-18.17c0-1.1.9-2 2-2h10.11l3.9 3.7v16.47a2 2 0 0 1-2 2z" fill="#fff"/><path d="M505.2 361.2h-12.02a1.5 1.5 0 0 1-1.5-1.5v-18.17c0-.83.67-1.5 1.5-1.5h9.92l3.6 3.4v16.27c0 .83-.68 1.5-1.5 1.5z" stroke="#246EDE" stroke-opacity=".6"/><path opacity=".6" d="M492.9 346.49h12.05M492.9 349.07h12.05M492.9 351.65h12.05M492.9 354.23h12.05M492.9 356.81h12.05" stroke="#246EDE"/><path opacity=".1" d="M507.25 523h-12.01a1.5 1.5 0 0 1-1.5-1.5v-18.17c0-.83.67-1.5 1.5-1.5h9.31c.38 0 .75.14 1.03.4l2.7 2.56c.3.29.47.68.47 1.1v15.6c0 .83-.67 1.5-1.5 1.5z" fill="#246EDE" stroke="#246EDE"/><path d="M505.2 525.14h-12.02a2 2 0 0 1-2-2v-18.17c0-1.1.9-2 2-2h10.11l3.9 3.7v16.47a2 2 0 0 1-2 2z" fill="#fff"/><path d="M505.2 524.64h-12.02a1.5 1.5 0 0 1-1.5-1.5v-18.17c0-.83.67-1.5 1.5-1.5h9.92l3.6 3.4v16.27c0 .83-.68 1.5-1.5 1.5z" stroke="#246EDE" stroke-opacity=".6"/><path opacity=".6" d="M492.9 509.93h12.05M492.9 512.5h12.05M492.9 515.09h12.05M492.9 517.67h12.05M492.9 520.25h12.05" stroke="#246EDE"/><circle opacity=".3" cx="226.16" cy="572.04" r="13.94" fill="#246EDE"/><circle cx="222.97" cy="574.43" r="13.44" fill="#fff" stroke="#246EDE"/><circle cx="222.97" cy="574.43" r="11.05" stroke="#246EDE"/><path d="M222.77 574.79v1.47h3.04v2.25h-3.04v2.69h-2.85v-2.69h-1.33v-2.25h1.33v-8.6h4.58c1.4 0 2.5.3 3.27.9.78.6 1.18 1.5 1.18 2.66 0 1.18-.4 2.07-1.18 2.67-.78.6-1.87.9-3.27.9h-1.73zm3.31-3.53c0-.4-.14-.71-.42-.92a1.86 1.86 0 0 0-1.2-.33h-1.7v2.5h1.7c.52 0 .92-.1 1.2-.32.28-.22.43-.53.43-.94z" stroke="#246EDE"/><circle opacity=".3" cx="264.01" cy="576.34" r="13.94" fill="#246EDE"/><circle cx="260.82" cy="578.73" r="13.44" fill="#fff" stroke="#246EDE"/><circle cx="260.82" cy="578.73" r="11.05" stroke="#246EDE"/><path d="M260.62 579.1v1.46h3.04v2.25h-3.04v2.7h-2.85v-2.7h-1.33v-2.25h1.33v-8.6h4.58c1.4 0 2.5.3 3.27.9.78.6 1.18 1.5 1.18 2.67s-.4 2.06-1.18 2.66c-.78.6-1.87.9-3.27.9h-1.73zm3.31-3.54c0-.4-.14-.71-.42-.92a1.86 1.86 0 0 0-1.2-.33h-1.7v2.51h1.7c.52 0 .92-.11 1.2-.33.28-.22.43-.53.43-.93z" stroke="#246EDE"/><circle opacity=".3" cx="240.78" cy="604.73" r="13.94" fill="#246EDE"/><circle cx="237.59" cy="607.12" r="13.44" fill="#fff" stroke="#246EDE"/><circle cx="237.59" cy="607.12" r="11.05" stroke="#246EDE"/><path d="M237.4 607.48v1.46h3.04v2.26h-3.05v2.69h-2.84v-2.69h-1.34v-2.26h1.33v-8.6h4.58c1.4 0 2.5.3 3.28.91.78.6 1.17 1.49 1.17 2.66 0 1.18-.4 2.06-1.17 2.67-.78.6-1.88.9-3.28.9h-1.73zm3.3-3.54c0-.4-.13-.7-.42-.92a1.86 1.86 0 0 0-1.19-.33h-1.7v2.52h1.7c.52 0 .91-.11 1.19-.33.29-.23.43-.54.43-.94z" stroke="#246EDE"/><path opacity=".3" d="M327.17 534.02a3 3 0 0 1 3 0l13.55 7.83a3 3 0 0 1 1.5 2.6v15.65a3 3 0 0 1-1.5 2.6l-13.55 7.82a3 3 0 0 1-3 0l-13.56-7.82a3 3 0 0 1-1.5-2.6v-15.66a3 3 0 0 1 1.5-2.6l13.56-7.82z" fill="#246EDE" fill-opacity=".3"/><path d="M325.82 537.64a2.5 2.5 0 0 1 2.5 0l13.56 7.83a2.5 2.5 0 0 1 1.25 2.16v15.65c0 .9-.48 1.72-1.25 2.17l-13.56 7.82a2.5 2.5 0 0 1-2.5 0l-13.55-7.82a2.5 2.5 0 0 1-1.25-2.17v-15.65c0-.9.48-1.72 1.25-2.16l13.55-7.83z" fill="#fff" stroke="#246EDE"/><path d="M325.82 540.83a2.5 2.5 0 0 1 2.5 0l10.8 6.23a2.5 2.5 0 0 1 1.25 2.16v12.47c0 .9-.48 1.72-1.25 2.16l-10.8 6.24a2.5 2.5 0 0 1-2.5 0l-10.8-6.24a2.5 2.5 0 0 1-1.24-2.16v-12.47c0-.89.47-1.72 1.25-2.16l10.8-6.23z" stroke="#246EDE"/><path d="M321.5 551.47l-3.98 4.38 3.98 4.39M331.85 551.47l3.99 4.38-3.99 4.39M330.26 549.09l-7.17 13.54" stroke="#246EDE" stroke-linecap="round"/><path opacity=".3" d="M97.49 581.33a3 3 0 0 1 3 0l13.56 7.83a3 3 0 0 1 1.5 2.6v15.65a3 3 0 0 1-1.5 2.6l-13.56 7.82a3 3 0 0 1-3 0l-13.56-7.82a3 3 0 0 1-1.5-2.6v-15.65a3 3 0 0 1 1.5-2.6l13.56-7.83z" fill="#246EDE" fill-opacity=".3"/><path d="M96.15 584.95a2.5 2.5 0 0 1 2.5 0l13.55 7.83a2.5 2.5 0 0 1 1.25 2.16v15.65c0 .9-.47 1.72-1.25 2.17l-13.55 7.83a2.5 2.5 0 0 1-2.5 0l-13.56-7.83a2.5 2.5 0 0 1-1.25-2.16v-15.66c0-.9.48-1.72 1.25-2.16l13.56-7.83z" fill="#fff" stroke="#246EDE"/><path d="M96.15 588.14a2.5 2.5 0 0 1 2.5 0l10.8 6.23a2.5 2.5 0 0 1 1.24 2.17V609c0 .9-.47 1.72-1.25 2.17l-10.8 6.23a2.5 2.5 0 0 1-2.5 0l-10.79-6.23A2.5 2.5 0 0 1 84.1 609v-12.46c0-.9.48-1.72 1.25-2.17l10.8-6.23z" stroke="#246EDE"/><path d="M91.82 598.79l-3.98 4.38 3.98 4.38M102.18 598.79l3.98 4.38-3.98 4.38M100.58 596.4l-7.17 13.54" stroke="#246EDE" stroke-linecap="round"/><path d="M172.04 245.84h12.9v308.82h-12.9M373.33 369.71v46.46H219.36" stroke="#246EDE"/><path d="M400.86 370.57v69.68H302.8" stroke="#246EDE"/><path opacity=".3" d="M176.58 119.52a9.95 9.95 0 1 1 0-19.9 9.95 9.95 0 0 1 0 19.9z" fill="#246EDE" fill-opacity=".3"/><path d="M173.4 122.7a9.95 9.95 0 1 1-.01-19.9 9.95 9.95 0 0 1 0 19.9z" fill="#fff" stroke="#246EDE" stroke-miterlimit="10"/><path d="M177.72 109.53h0c-.12-.28-.23-.44-.44-.66a1.72 1.72 0 0 0-.65-.43c-.18-.12-.5-.22-1.03-.22-.57-.05-.74-.05-2.2-.05h0c-1.47 0-1.63 0-2.21.05h0a4.4 4.4 0 0 0-1 .21h0-.02c-.27.11-.43.22-.65.44-.22.21-.33.38-.43.65-.12.17-.22.5-.22 1.02-.05.58-.05.74-.05 2.2v.01c0 1.47 0 1.63.05 2.2h0c.04.42.12.68.17.87l.04.14h0v.01c.11.28.22.44.44.66.21.21.38.32.65.43.17.11.5.22 1.02.22.58.05.74.05 2.2.05h0a31.25 31.25 0 0 0 2.2-.05v0h.02c.41-.04.67-.12.86-.17l.14-.04h.01c.27-.12.44-.23.66-.44.21-.22.32-.38.43-.65.11-.17.22-.5.22-1.03.05-.57.05-.74.05-2.2v0a31.16 31.16 0 0 0-.04-1.63l-.01-.57h0v-.01a4.38 4.38 0 0 0-.22-1zm-7.86-1.9h0c.3-.15.71-.2 1.3-.26.56-.05.77-.05 2.24-.05a32.72 32.72 0 0 1 1.65.04l.6.01c.57.06.93.1 1.28.26.31.16.62.3.92.61h0c.3.26.46.56.61.92h0c.16.3.2.71.26 1.29.05.57.05.78.05 2.25 0 1.46 0 1.67-.05 2.24-.05.58-.1.93-.25 1.29-.16.31-.31.61-.62.92h0c-.25.3-.55.46-.92.61h0c-.3.15-.7.2-1.29.26-.57.05-.77.05-2.24.05-1.47 0-1.68 0-2.25-.05-.57-.05-.93-.1-1.28-.26a3.21 3.21 0 0 1-.93-.61h0c-.3-.26-.45-.56-.6-.92h0-.01c-.15-.3-.2-.7-.26-1.29-.05-.57-.05-.78-.05-2.24 0-1.47 0-1.68.05-2.25.06-.58.1-.93.26-1.29.16-.31.31-.61.61-.92h0c.26-.3.56-.45.92-.61z" fill="#246EDE" stroke="#fff" stroke-width=".15"/><path d="M170.64 112.75a2.74 2.74 0 0 1 2.76-2.76c1.47 0 2.7 1.23 2.75 2.76a2.74 2.74 0 0 1-2.75 2.75 2.74 2.74 0 0 1-2.76-2.75zm.85 0c0 1.04.87 1.9 1.9 1.9 1.05 0 1.92-.86 1.92-1.9s-.88-1.91-1.91-1.91c-1.04 0-1.91.87-1.91 1.9zM176.89 109.81c0 .33-.28.61-.61.61a.62.62 0 0 1-.6-.6c0-.33.27-.6.6-.61.34.05.6.29.6.6z" fill="#246EDE" stroke="#fff" stroke-width=".15"/></g></svg>