<svg width="1094" height="510" fill="none" xmlns="http://www.w3.org/2000/svg"><rect x="151" y="10" width="738" height="276" rx="20" fill="#fff"/><g opacity=".5"><rect x="151" y="10" width="721" height="276" rx="20" fill="#fff"/><rect opacity=".1" x="161" width="741" height="276" rx="20" fill="#246EDE"/><rect x="151" y="10" width="738" height="276" rx="20" fill="#fff"/><rect x="151.5" y="10.5" width="737" height="275" rx="19.5" stroke="#246EDE" stroke-opacity=".3"/><path opacity=".2" d="M255 72a4 4 0 0 0-4-4h-58a4 4 0 0 0 0 8h58a4 4 0 0 0 4-4zm0 53a4 4 0 0 0-4-4h-58a4 4 0 0 0 0 8h58a4 4 0 0 0 4-4zm-17 108a4 4 0 0 0-4-4h-41a4 4 0 0 0 0 8h41a4 4 0 0 0 4-4zm-32-50a4 4 0 0 0-4-4h-9a4 4 0 0 0 0 8h9a4 4 0 0 0 4-4zm79-111a4 4 0 0 0-4-4h-9a4 4 0 0 0 0 8h9a4 4 0 0 0 4-4zm424 0a4 4 0 0 0-4-4h-9a4 4 0 0 0 0 8h9a4 4 0 0 0 4-4zm-343 0a4 4 0 0 0-4-4h-10a4 4 0 0 0 0 8h10a4 4 0 0 0 4-4zm435 0a4 4 0 0 0-4-4h-10a4 4 0 0 0 0 8h10a4 4 0 0 0 4-4zm-267 0a4 4 0 0 0-4-4h-10a4 4 0 0 0 0 8h10a4 4 0 0 0 4-4zm-235 51a4 4 0 0 0-4-4h-23a4 4 0 0 0 0 8h23a4 4 0 0 0 4-4zm424 0a4 4 0 0 0-4-4h-23a4 4 0 0 0 0 8h23a4 4 0 0 0 4-4zm-343 0a4 4 0 0 0-4-4h-24a4 4 0 0 0 0 8h24a4 4 0 0 0 4-4zm435 0a4 4 0 0 0-4-4h-24a4 4 0 0 0 0 8h24a4 4 0 0 0 4-4zm-267 0a4 4 0 0 0-4-4h-24a4 4 0 0 0 0 8h24a4 4 0 0 0 4-4zm-263 65a4 4 0 0 1-4 4h-9a4 4 0 0 1 0-8h9a4 4 0 0 1 4 4zm424 0a4 4 0 0 1-4 4h-9a4 4 0 0 1 0-8h9a4 4 0 0 1 4 4zm-343 0a4 4 0 0 1-4 4h-10a4 4 0 0 1 0-8h10a4 4 0 0 1 4 4zm435 0a4 4 0 0 1-4 4h-10a4 4 0 0 1 0-8h10a4 4 0 0 1 4 4zm-267 0a4 4 0 0 1-4 4h-10a4 4 0 0 1 0-8h10a4 4 0 0 1 4 4zm-242 34a4 4 0 0 0-4-4h-16a4 4 0 0 0 0 8h16a4 4 0 0 0 4-4zm424 0a4 4 0 0 0-4-4h-16a4 4 0 0 0 0 8h16a4 4 0 0 0 4-4zm-343 0a4 4 0 0 0-4-4h-17a4 4 0 0 0 0 8h17a4 4 0 0 0 4-4zm435 0a4 4 0 0 0-4-4h-17a4 4 0 0 0 0 8h17a4 4 0 0 0 4-4zm-267 0a4 4 0 0 0-4-4h-17a4 4 0 0 0 0 8h17a4 4 0 0 0 4-4zm-297-39a4 4 0 0 0-4-4h-23a4 4 0 0 0 0 8h23a4 4 0 0 0 4-4zm79-111a4 4 0 0 0-4-4h-23a4 4 0 0 0 0 8h23a4 4 0 0 0 4-4zm424 0a4 4 0 0 0-4-4h-23a4 4 0 0 0 0 8h23a4 4 0 0 0 4-4zm-342 0a4 4 0 0 0-4-4h-24a4 4 0 0 0 0 8h24a4 4 0 0 0 4-4zm435 0a4 4 0 0 0-4-4h-24a4 4 0 0 0 0 8h24a4 4 0 0 0 4-4zm-267 0a4 4 0 0 0-4-4h-24a4 4 0 0 0 0 8h24a4 4 0 0 0 4-4zm-250 51a4 4 0 0 0-4-4h-11a4 4 0 0 0 0 8h11a4 4 0 0 0 4-4zm424 0a4 4 0 0 0-4-4h-11a4 4 0 0 0 0 8h11a4 4 0 0 0 4-4zm-342 0a4 4 0 0 0-4-4h-12a4 4 0 0 0 0 8h12a4 4 0 0 0 4-4zm435 0a4 4 0 0 0-4-4h-12a4 4 0 0 0 0 8h12a4 4 0 0 0 4-4zm-267 0a4 4 0 0 0-4-4h-12a4 4 0 0 0 0 8h12a4 4 0 0 0 4-4zm-250 65a4 4 0 0 1-4 4h-23a4 4 0 0 1 0-8h23a4 4 0 0 1 4 4zm424 0a4 4 0 0 1-4 4h-23a4 4 0 0 1 0-8h23a4 4 0 0 1 4 4zm-342 0a4 4 0 0 1-4 4h-24a4 4 0 0 1 0-8h24a4 4 0 0 1 4 4zm435 0a4 4 0 0 1-4 4h-24a4 4 0 0 1 0-8h24a4 4 0 0 1 4 4zm-267 0a4 4 0 0 1-4 4h-24a4 4 0 0 1 0-8h24a4 4 0 0 1 4 4zm-250 34a4 4 0 0 0-4-4h-16a4 4 0 0 0 0 8h16a4 4 0 0 0 4-4zm424 0a4 4 0 0 0-4-4h-16a4 4 0 0 0 0 8h16a4 4 0 0 0 4-4zm-342 0a4 4 0 0 0-4-4h-17a4 4 0 0 0 0 8h17a4 4 0 0 0 4-4zm435 0a4 4 0 0 0-4-4h-17a4 4 0 0 0 0 8h17a4 4 0 0 0 4-4zm-267 0a4 4 0 0 0-4-4h-17a4 4 0 0 0 0 8h17a4 4 0 0 0 4-4zM218 87a4 4 0 0 0-4-4h-21a4 4 0 0 0 0 8h21a4 4 0 0 0 4-4zm0 53a4 4 0 0 0-4-4h-21a4 4 0 0 0 0 8h21a4 4 0 0 0 4-4zm105-53a4 4 0 0 0-4-4h-46a4 4 0 0 0 0 8h46a4 4 0 0 0 4-4zm424 0a4 4 0 0 0-4-4h-46a4 4 0 0 0 0 8h46a4 4 0 0 0 4-4zm-342 0a4 4 0 0 0-4-4h-48a4 4 0 0 0 0 8h48a4 4 0 0 0 4-4zm435 0a4 4 0 0 0-4-4h-48a4 4 0 0 0 0 8h48a4 4 0 0 0 4-4zm-267 0a4 4 0 0 0-4-4h-48a4 4 0 0 0 0 8h48a4 4 0 0 0 4-4zm-250 51a4 4 0 0 0-4-4h-46a4 4 0 0 0 0 8h46a4 4 0 0 0 4-4zm424 0a4 4 0 0 0-4-4h-46a4 4 0 0 0 0 8h46a4 4 0 0 0 4-4zm-342 0a4 4 0 0 0-4-4h-48a4 4 0 0 0 0 8h48a4 4 0 0 0 4-4zm435 0a4 4 0 0 0-4-4h-48a4 4 0 0 0 0 8h48a4 4 0 0 0 4-4zm-267 0a4 4 0 0 0-4-4h-48a4 4 0 0 0 0 8h48a4 4 0 0 0 4-4zm-88-59.5c0-4.1-3.4-7.5-7.5-7.5h-13a7.5 7.5 0 0 0 0 15h13c4.1 0 7.5-3.4 7.5-7.5zm168 0c0-4.1-3.4-7.5-7.5-7.5h-13a7.5 7.5 0 0 0 0 15h13c4.1 0 7.5-3.4 7.5-7.5zm-168 52c0-4.1-3.4-7.5-7.5-7.5h-13a7.5 7.5 0 0 0 0 15h13c4.1 0 7.5-3.4 7.5-7.5zm168 0c0-4.1-3.4-7.5-7.5-7.5h-13a7.5 7.5 0 0 0 0 15h13c4.1 0 7.5-3.4 7.5-7.5zm-168 49c0-4.1-3.4-7.5-7.5-7.5h-13a7.5 7.5 0 0 0 0 15h13c4.1 0 7.5-3.4 7.5-7.5zm168 0c0-4.1-3.4-7.5-7.5-7.5h-13a7.5 7.5 0 0 0 0 15h13c4.1 0 7.5-3.4 7.5-7.5zm-168 50c0-4.1-3.4-7.5-7.5-7.5h-13a7.5 7.5 0 0 0 0 15h13c4.1 0 7.5-3.4 7.5-7.5zm168 0c0-4.1-3.4-7.5-7.5-7.5h-13a7.5 7.5 0 0 0 0 15h13c4.1 0 7.5-3.4 7.5-7.5zM323 173a4 4 0 0 1-4 4h-46a4 4 0 0 1 0-8h46a4 4 0 0 1 4 4zm424 0a4 4 0 0 1-4 4h-46a4 4 0 0 1 0-8h46a4 4 0 0 1 4 4zm-342 0a4 4 0 0 1-4 4h-48a4 4 0 0 1 0-8h48a4 4 0 0 1 4 4zm435 0a4 4 0 0 1-4 4h-48a4 4 0 0 1 0-8h48a4 4 0 0 1 4 4zm-267 0a4 4 0 0 1-4 4h-48a4 4 0 0 1 0-8h48a4 4 0 0 1 4 4zm-265 64a4 4 0 0 0-4-4h-31a4 4 0 0 0 0 8h31a4 4 0 0 0 4-4zm424 0a4 4 0 0 0-4-4h-31a4 4 0 0 0 0 8h31a4 4 0 0 0 4-4zm-343 0a4 4 0 0 0-4-4h-32a4 4 0 0 0 0 8h32a4 4 0 0 0 4-4zm435 0a4 4 0 0 0-4-4h-32a4 4 0 0 0 0 8h32a4 4 0 0 0 4-4zm-267 0a4 4 0 0 0-4-4h-32a4 4 0 0 0 0 8h32a4 4 0 0 0 4-4z" fill="#246EDE"/><path d="M221 105h636M221 55h636M221 155h636m-636 50h636m-636 50h636M261 22v248m69-248v248M765 22v248M673 22v248M505 22v248M428 22v248M596 22v248" stroke="#246EDE" stroke-opacity=".3"/><path opacity=".3" d="M180 35.9h-1.8V40h-1.8v-9.8h1.8v4.1h1.8l2.9-4.1h1.9l-3.4 4.7L185 40h-2l-3-4.1zm9.2 4.2c-.8 0-1.4-.2-2-.5a3.6 3.6 0 0 1-2-3.3c0-.8.2-1.4.5-2 .4-.6.8-1 1.4-1.4a5 5 0 0 1 2-.5 4 4 0 0 1 3.6 1.9 4.2 4.2 0 0 1 0 4c-.4.5-.8 1-1.5 1.3-.6.3-1.2.5-2 .5zm0-1.5c.6 0 1.2-.2 1.6-.6.4-.5.6-1 .6-1.7s-.2-1.3-.6-1.7a2 2 0 0 0-1.6-.7c-.7 0-1.2.2-1.6.7-.4.4-.6 1-.6 1.7s.2 1.2.6 1.7c.4.4 1 .6 1.6.6zm5.7-6h1.8v3h3.7v-3h1.8V40h-1.8v-3h-3.7v3h-1.8v-7.5zm12.7 4.4h-1.3v3h-1.8v-7.5h1.8v3h1.4l2.2-3h1.9l-2.8 3.6 3 3.9h-2.1l-2.3-3zm12.2-4.5l-3.5 8.1c-.3.8-.7 1.4-1.2 1.7-.5.3-1 .5-1.7.5-.4 0-.7 0-1-.2-.5 0-.7-.3-1-.5l.7-1.3a2 2 0 0 0 1.3.6c.3 0 .6-.1.8-.3.2-.1.4-.4.5-.8l.1-.3-3.2-7.5h1.8l2.4 5.6 2.3-5.6h1.7zm5.4 0a4 4 0 0 1 2 .4 4 4 0 0 1 1.8 3.3 4 4 0 0 1-.5 2c-.4.7-.8 1.1-1.4 1.4a4 4 0 0 1-2 .5 3 3 0 0 1-2.3-1v3.6H221V32.5h1.7v1c.3-.4.6-.6 1-.8l1.5-.3zm-.2 6.1a2 2 0 0 0 1.6-.6c.4-.5.6-1 .6-1.7s-.2-1.3-.6-1.7a2 2 0 0 0-1.6-.7c-.5 0-.8.1-1.2.3a2 2 0 0 0-.8.8c-.2.4-.3.8-.3 1.3l.3 1.2.8.8c.4.2.7.3 1.2.3zm12.7-2.3v.5h-5.9c.1.6.4 1 .8 1.3.4.4 1 .5 1.6.5.8 0 1.5-.3 2-.8l1 1c-.3.5-.8.8-1.3 1a5 5 0 0 1-3.9-.2 3.6 3.6 0 0 1-2-3.3c0-.8.2-1.4.5-2 .4-.6.8-1 1.4-1.4a4 4 0 0 1 2-.5c.7 0 1.4.2 2 .5a4 4 0 0 1 1.8 3.4zm-3.8-2.5c-.5 0-1 .2-1.4.5a2 2 0 0 0-.7 1.4h4.2c0-.6-.3-1-.7-1.4a2 2 0 0 0-1.4-.5zm5.7-1.3h1.8v3h3.7v-3h1.8V40H245v-3h-3.7v3h-1.8v-7.5zm15.5 1.5h-2.6v6h-1.7v-6H248v-1.5h7V34zm27.8 6.1a6 6 0 0 1-2.7-.6 5 5 0 0 1-2.6-4.4c0-1 .3-1.8.7-2.6.5-.8 1.1-1.4 2-1.8.7-.4 1.6-.6 2.6-.6.8 0 1.5.1 2.2.4.7.3 1.2.7 1.7 1.2l-1.2 1.1a3.4 3.4 0 0 0-2.6-1.1c-.7 0-1.3.1-1.8.4a3 3 0 0 0-1.3 1.2c-.3.5-.4 1.1-.4 1.8s.1 1.3.4 1.8c.3.5.7 1 1.3 1.2.5.3 1.1.4 1.8.4 1 0 1.9-.3 2.6-1.1l1.2 1.1c-.5.5-1 1-1.7 1.2-.7.3-1.4.4-2.2.4zm8-7.7c1.2 0 2 .3 2.6.8.6.6.9 1.4.9 2.4V40h-1.7v-1a2 2 0 0 1-.9.8 3.7 3.7 0 0 1-2.9 0c-.4-.2-.7-.4-1-.8a2 2 0 0 1-.3-1.1c0-.7.2-1.3.7-1.7.5-.4 1.3-.6 2.4-.6h2c0-.6-.2-1-.5-1.3-.3-.3-.8-.4-1.4-.4a4 4 0 0 0-1.3.2 3 3 0 0 0-1 .5l-.7-1.2c.4-.3.9-.6 1.4-.7l1.8-.3zm-.2 6.4c.5 0 .9 0 1.2-.3.4-.2.6-.5.7-.8v-1h-1.8c-1 0-1.5.4-1.5 1 0 .4.1.7.4.8.2.2.6.3 1 .3zm5.9-6.3h1.7v5l4.1-5h1.6V40h-1.7v-5l-4.1 5h-1.6v-7.5zm3.6-.9c-.8 0-1.4-.1-1.8-.5-.4-.3-.6-.8-.6-1.5h1.2c0 .3.1.6.3.8.2.2.5.3.9.3.3 0 .6-.1.8-.3.2-.2.3-.5.3-.8h1.2c0 .7-.2 1.2-.6 1.5-.4.4-1 .5-1.7.5zm12.1 2.4h-2.6v6h-1.8v-6h-2.6v-1.5h7V34zM705 25.2V35h-1.7v-8.3h-5.1V35h-1.8v-9.8h8.7zm6 9.9a4 4 0 0 1-2-.5 3.6 3.6 0 0 1-2-3.3 3.6 3.6 0 0 1 2-3.3c.5-.4 1.2-.6 2-.6.7 0 1.4.2 2 .5.6.4 1 .8 1.4 1.4.4.6.5 1.2.5 2a3.5 3.5 0 0 1-1.9 3.3c-.6.3-1.3.5-2 .5zm0-1.5a2 2 0 0 0 1.5-.6c.5-.5.7-1 .7-1.7s-.2-1.3-.7-1.7c-.4-.5-.9-.7-1.5-.7-.7 0-1.2.2-1.6.7-.5.4-.7 1-.7 1.7s.2 1.2.7 1.7c.4.4 1 .6 1.6.6zm5.7-6h1.7v4.9l4.1-5h1.6V35h-1.7v-5l-4.1 5h-1.6v-7.5zm13.2 7.5a4 4 0 0 1-2-.5 3.6 3.6 0 0 1-2-3.3 3.6 3.6 0 0 1 2-3.3c.5-.4 1.2-.6 2-.6a4 4 0 0 1 2 .5c.5.3 1 .7 1.2 1.3l-1.4.8a2 2 0 0 0-.8-.8c-.3-.2-.6-.3-1-.3a2.2 2.2 0 0 0-2.3 2.4c0 .7.2 1.2.6 1.7.5.4 1 .6 1.7.6.4 0 .7 0 1-.3.4-.1.6-.4.9-.7l1.3.7a3 3 0 0 1-1.3 1.4 4 4 0 0 1-1.9.4zm7.8-3.1h-1.3v3h-1.8v-7.5h1.8v3h1.4l2.2-3h1.9l-2.7 3.6L742 35h-2l-2.3-3zm-31.6 13.2c0 1.2-.4 2.1-1.2 2.8-.8.6-1.9 1-3.3 1.1v2.6H700v-2.6c-1.5 0-2.6-.4-3.3-1.1a3.4 3.4 0 0 1-1.2-2.8c0-1.1.4-2 1.2-2.7a5 5 0 0 1 3.3-1v-2.9h1.6v2.8c1.4.1 2.5.5 3.3 1.1.8.7 1.2 1.6 1.2 2.7zm-8.9 0c0 .8.3 1.3.7 1.7.4.4 1.1.7 2 .8v-4.8c-.9 0-1.6.3-2 .7a2 2 0 0 0-.7 1.6zm4.4 2.5c1.8-.2 2.8-1 2.8-2.5a2 2 0 0 0-.7-1.6 4 4 0 0 0-2-.7v4.8zm10.3-6.3a4 4 0 0 1 2 .5 4 4 0 0 1 1.8 3.3 4 4 0 0 1-.5 2c-.3.7-.8 1.1-1.4 1.4a4 4 0 0 1-1.9.5 3 3 0 0 1-2.4-1v3.6h-1.7V41.5h1.6v1c.3-.4.7-.6 1-.8l1.5-.3zm-.2 6.2a2 2 0 0 0 1.6-.6c.4-.5.6-1 .6-1.7s-.2-1.3-.6-1.7a2 2 0 0 0-1.6-.7 2 2 0 0 0-1.1.3 2 2 0 0 0-.8.8c-.2.4-.3.8-.3 1.3 0 .4 0 .8.3 1.2.2.3.4.6.8.8.3.2.7.3 1.1.3zm8.4-6.2c1.1 0 2 .3 2.5.8.6.6 1 1.4 1 2.4V49h-1.7v-1a2 2 0 0 1-1 .8c-.3.2-.8.3-1.4.3-.5 0-1-.1-1.4-.3-.5-.2-.8-.4-1-.8a2 2 0 0 1-.4-1.1c0-.7.3-1.3.8-1.7.5-.4 1.3-.6 2.3-.6h2c0-.6-.2-1-.5-1.3-.3-.3-.8-.4-1.4-.4a4 4 0 0 0-1.2.2 3 3 0 0 0-1 .5l-.7-1.2a3 3 0 0 1 1.4-.7c.5-.2 1.1-.3 1.7-.3zm-.2 6.4c.4 0 .8 0 1.1-.3.4-.2.6-.5.8-.8v-1H720c-1 0-1.5.4-1.5 1 0 .4 0 .7.3.8.3.2.6.3 1 .3zm10.2-2.7c.4.1.8.4 1 .7.3.2.4.6.4 1 0 .5-.1.9-.4 1.2a3 3 0 0 1-1.3.8c-.5.2-1.2.3-1.8.3-.6 0-1.2 0-1.7-.2a4 4 0 0 1-1.5-.6l.5-1.3 1.2.5 1.4.2c.6 0 1-.1 1.3-.3.4-.2.5-.4.5-.7 0-.3 0-.6-.4-.7a2 2 0 0 0-1-.2h-1.5v-1.2h1.3l1-.2c.3-.2.4-.4.4-.7 0-.2-.1-.5-.4-.6-.3-.2-.7-.3-1.2-.3-.8 0-1.6.2-2.4.6L725 42c1-.5 2-.7 3-.7.6 0 1.2.1 1.7.3.5.1 1 .4 1.2.7.3.3.4.7.4 1 0 .4 0 .8-.3 1-.2.3-.5.5-1 .7zM737 44c1 0 1.7.2 2.2.6.5.5.7 1 .7 1.9 0 .8-.3 1.4-.8 1.9a4 4 0 0 1-2.4.6h-3.4v-7.5h1.8V44h1.9zm3.9-2.5h1.7V49H741v-7.5zm-4.3 6.2c.5 0 .9 0 1.2-.3a1.3 1.3 0 0 0 0-1.9 2 2 0 0 0-1.2-.3H735v2.5h1.5zM338.4 29.2h1.8v7l5.2-7h1.7V39h-1.8v-7l-5.2 7h-1.7v-9.8zm14.7 9.9c-.8 0-1.5-.2-2.1-.5a3.6 3.6 0 0 1-2-3.3c0-.8.2-1.4.6-2 .3-.6.8-1 1.4-1.4.6-.3 1.3-.5 2-.5a4 4 0 0 1 2 .5c.6.3 1 .7 1.3 1.3l-1.4.8a2 2 0 0 0-.8-.8c-.3-.2-.6-.3-1-.3a2.2 2.2 0 0 0-2.3 2.4c0 .7.2 1.2.6 1.7.5.4 1 .6 1.7.6.4 0 .7 0 1-.3.4-.1.6-.4.8-.7l1.4.7a3 3 0 0 1-1.3 1.4 4 4 0 0 1-2 .4zm10.6-6H361V39h-1.8v-6h-2.6v-1.5h7V33zm4.2 6c-.7 0-1.4-.2-2-.5a3.6 3.6 0 0 1-2-3.3c0-.8.2-1.4.6-2 .3-.6.8-1 1.4-1.4.6-.3 1.3-.5 2-.5.8 0 1.5.2 2.1.5.6.4 1 .8 1.4 1.4.4.6.5 1.2.5 2a3.5 3.5 0 0 1-1.9 3.3c-.6.3-1.3.5-2 .5zm0-1.5c.7 0 1.2-.2 1.6-.6.5-.5.7-1 .7-1.7s-.2-1.3-.7-1.7a2 2 0 0 0-1.6-.7c-.6 0-1.1.2-1.5.7-.5.4-.7 1-.7 1.7s.2 1.2.7 1.7c.4.4 1 .6 1.5.6zm12.1-6V39h-1.7v-2.9c-.8.3-1.5.5-2.3.5-1 0-1.7-.2-2.2-.6-.5-.5-.8-1.2-.8-2v-2.5h1.8v2.3c0 .5.1.8.4 1 .3.3.7.4 1.2.4.6 0 1.3-.1 1.9-.4v-3.3h1.7zm2.4 0h1.7v3h3.8v-3h1.7V39H388v-3h-4v3h-1.7v-7.5zm9.6 0h1.7v4.9l4.2-5h1.6V39h-1.8v-5l-4.1 5H392v-7.5zm13 4.4h-1.4v3h-1.8v-7.5h1.8v3h1.4l2.2-3h1.8l-2.7 3.6 3 3.9h-2.1l-2.3-3zm12.2-6.8V39h-1.9v-8.3h-2v-1.5h3.9zm363.8-4V35h-1.7v-8.3h-5.1V35h-1.8v-9.8h8.7zm6.8 2.2a4 4 0 0 1 2 .5 4 4 0 0 1 1.8 3.3 4 4 0 0 1-.5 2c-.4.7-.8 1.1-1.4 1.4a4 4 0 0 1-2 .5 3 3 0 0 1-2.3-1v3.6h-1.8V27.5h1.7v1c.3-.4.6-.6 1-.8l1.5-.3zm-.2 6.2a2 2 0 0 0 1.5-.6c.5-.5.7-1 .7-1.7s-.2-1.3-.7-1.7a2 2 0 0 0-1.5-.7c-.5 0-.8.1-1.2.3a2 2 0 0 0-.8.8c-.2.4-.3.8-.3 1.3l.3 1.2.8.8c.4.2.7.3 1.2.3zm5.7-6h1.7v4.9l4.2-5h1.6V35H799v-5l-4 5h-1.7v-7.5zm17.2 7.4v-5l-2.5 4.2h-.8l-2.5-4.2v5h-1.6v-7.5h1.9l2.6 4.7 2.8-4.7h1.6V35h-1.5zm11-3.7l-.1.5h-5.9c.1.6.4 1 .8 1.3.5.4 1 .5 1.6.5.9 0 1.5-.3 2-.8l1 1c-.3.5-.8.8-1.3 1-.5.2-1 .3-1.7.3-.8 0-1.5-.2-2.2-.5a3.6 3.6 0 0 1-2-3.3c0-.8.2-1.4.6-2 .3-.6.8-1 1.3-1.4a4 4 0 0 1 2-.5c.8 0 1.4.2 2 .5.6.3 1 .8 1.3 1.4.3.6.5 1.2.5 2zm-3.9-2.5c-.5 0-1 .2-1.4.5a2 2 0 0 0-.7 1.4h4.2c0-.6-.3-1-.6-1.4a2 2 0 0 0-1.5-.5zm9.9-1.4a4 4 0 0 1 2 .5 4 4 0 0 1 1.8 3.3 4 4 0 0 1-.5 2c-.4.7-.8 1.1-1.4 1.4a4 4 0 0 1-2 .5 3 3 0 0 1-2.3-1v3.6h-1.8V27.5h1.7v1c.3-.4.6-.6 1-.8l1.5-.3zm-.2 6.2a2 2 0 0 0 1.6-.6c.4-.5.6-1 .6-1.7s-.2-1.3-.6-1.7a2 2 0 0 0-1.6-.7l-1.2.3a2 2 0 0 0-.8.8c-.2.4-.3.8-.3 1.3l.3 1.2.8.8 1.2.3zm9.3-3.6c1 0 1.7.2 2.2.6.5.5.8 1 .8 1.9 0 .8-.3 1.4-.9 1.9-.5.4-1.3.6-2.3.6H833v-7.5h1.8V30h1.8zm4-2.5h1.7V35h-1.8v-7.5zm-4.4 6.2c.5 0 1 0 1.2-.3.3-.2.4-.5.4-1 0-.4-.1-.7-.4-.9a2 2 0 0 0-1.2-.3h-1.4v2.5h1.4zm-60.7 15.4c-.7 0-1.4-.2-2-.5a3.6 3.6 0 0 1-2-3.3c0-.8.2-1.4.5-2 .4-.6.9-1 1.5-1.4.6-.3 1.3-.5 2-.5a4 4 0 0 1 3.5 1.9 4.2 4.2 0 0 1 0 4c-.4.5-.8 1-1.4 1.3-.6.3-1.3.5-2 .5zm0-1.5c.7 0 1.2-.2 1.6-.6.4-.5.6-1 .6-1.7s-.2-1.3-.6-1.7a2 2 0 0 0-1.6-.7 2 2 0 0 0-1.6.7c-.4.4-.6 1-.6 1.7s.2 1.2.6 1.7c.4.4 1 .6 1.6.6zm9.8-5.7c.7 0 1.3.1 1.8.5.6.2 1 .7 1.3 1.2.3.6.5 1.2.5 1.9s-.2 1.3-.5 1.9c-.4.5-.8 1-1.4 1.3a5 5 0 0 1-2.1.4c-1.3 0-2.3-.4-3-1.2-.7-1-1-2.1-1-3.8a6 6 0 0 1 .9-3.5c.6-1 1.6-1.5 3-1.8l3.4-.7.3 1.6-3.2.6a4 4 0 0 0-2 1 3 3 0 0 0-.8 1.8c.3-.4.7-.7 1.2-.9.5-.2 1-.3 1.6-.3zm-.4 5.8a2 2 0 0 0 1.6-.6c.4-.4.6-1 .6-1.6a2 2 0 0 0-.6-1.5c-.4-.4-1-.6-1.6-.6-.6 0-1.2.2-1.6.6a2 2 0 0 0-.6 1.5c0 .7.2 1.2.6 1.6.5.4 1 .6 1.6.6zm10.2-3.7c1 0 1.6.2 2.1.6.5.5.8 1 .8 1.8 0 .9-.3 1.5-.8 2-.6.4-1.4.6-2.4.6h-3.4v-6h-2.2v-1.5h4V44h1.9zm-.4 3.7c.5 0 .9-.1 1.1-.3.3-.2.4-.6.4-1 0-.8-.5-1.2-1.5-1.2h-1.5v2.5h1.5zm10.6-6.2V49h-1.6v-2.3h-2l-1.5 2.3h-1.8l1.7-2.5c-.5-.2-1-.5-1.2-.8-.3-.4-.4-1-.4-1.5 0-.8.3-1.5.9-2a4 4 0 0 1 2.5-.7h3.4zM802 43c-1 0-1.7.4-1.7 1.3 0 .8.6 1.2 1.7 1.2h1.8V43H802zm11.2 2.1c1 .3 1.4.9 1.4 1.8a2 2 0 0 1-.8 1.6c-.5.3-1.2.5-2.2.5h-3.8v-7.5h3.6c1 0 1.7.2 2.2.5.5.4.7.8.7 1.5 0 .3 0 .7-.3 1a2 2 0 0 1-.8.6zm-3.8-.5h1.9c.9 0 1.3-.3 1.3-.9 0-.6-.4-.9-1.3-.9h-1.9v1.8zm2 3.1c1 0 1.5-.3 1.5-1 0-.2-.1-.5-.4-.6-.2-.2-.5-.3-1-.3h-2v2h2zm11.8-6.2V49h-1.7v-6h-2.8l-.1 1.5a9 9 0 0 1-.3 2.5 3 3 0 0 1-.7 1.6c-.3.3-.7.5-1.3.5l-1-.1.1-1.5h.4c.3 0 .6 0 .8-.4.1-.3.3-.6.3-1l.1-1.7.2-2.9h6zm9.4 3.8v.5h-6c.2.6.4 1 .9 1.3.4.4 1 .5 1.6.5.8 0 1.5-.3 2-.8l1 1a3 3 0 0 1-1.3 1c-.5.2-1.1.3-1.7.3-.9 0-1.6-.2-2.2-.5a3.6 3.6 0 0 1-2-3.3c0-.8.2-1.4.5-2 .4-.6.8-1 1.4-1.4a4 4 0 0 1 2-.5c.7 0 1.4.2 2 .5a4 4 0 0 1 1.8 3.4zm-3.8-2.5c-.6 0-1 .2-1.4.5a2 2 0 0 0-.7 1.4h4.2c0-.6-.3-1-.7-1.4a2 2 0 0 0-1.4-.5zm5.7-1.3h1.7v3h3.8v-3h1.7V49H840v-3h-3.8v3h-1.7v-7.5zm9.6 0h1.7v5l4.2-5h1.6V49h-1.8v-5l-4.1 5H844v-7.5zm9.8 0h1.8v5l4.1-5h1.6V49h-1.8v-5l-4 5h-1.7v-7.5zm3.7-.9c-.8 0-1.4-.1-1.8-.5-.4-.3-.6-.8-.6-1.5h1.2c0 .3 0 .6.3.8.2.2.5.3.8.3.4 0 .7-.1.9-.3.2-.2.3-.5.3-.8h1.2c0 .7-.2 1.2-.6 1.5-.4.4-1 .5-1.8.5zM509.4 29.2h1.8v7l5.2-7h1.7V39h-1.8v-7l-5.2 7h-1.7v-9.8zm14.7 9.9c-.8 0-1.5-.2-2.1-.5a3.6 3.6 0 0 1-2-3.3c0-.8.2-1.4.6-2 .3-.6.8-1 1.4-1.4.6-.3 1.3-.5 2-.5a4 4 0 0 1 2 .5c.6.3 1 .7 1.3 1.3l-1.4.8a2 2 0 0 0-.8-.8c-.3-.2-.6-.3-1-.3a2.2 2.2 0 0 0-2.3 2.4c0 .7.2 1.2.6 1.7.5.4 1 .6 1.7.6.4 0 .7 0 1-.3.4-.1.6-.4.8-.7l1.4.7a3 3 0 0 1-1.3 1.4 4 4 0 0 1-2 .4zm10.6-6H532V39h-1.8v-6h-2.6v-1.5h7V33zm4.2 6c-.7 0-1.4-.2-2-.5a3.6 3.6 0 0 1-2-3.3c0-.8.2-1.4.6-2 .3-.6.8-1 1.4-1.4.6-.3 1.3-.5 2-.5.8 0 1.5.2 2.1.5.6.4 1 .8 1.4 1.4.4.6.5 1.2.5 2a3.5 3.5 0 0 1-1.9 3.3c-.6.3-1.3.5-2 .5zm0-1.5c.7 0 1.2-.2 1.6-.6.5-.5.7-1 .7-1.7s-.2-1.3-.7-1.7a2 2 0 0 0-1.6-.7c-.6 0-1.1.2-1.5.7-.5.4-.7 1-.7 1.7s.2 1.2.7 1.7c.4.4.9.6 1.5.6zm12.1-6V39h-1.7v-2.9c-.8.3-1.5.5-2.3.5-1 0-1.7-.2-2.2-.6-.5-.5-.8-1.2-.8-2v-2.5h1.8v2.3c0 .5.1.8.4 1 .3.3.7.4 1.2.4.6 0 1.3-.1 1.9-.4v-3.3h1.7zm2.4 0h1.7v3h3.8v-3h1.7V39H559v-3h-4v3h-1.7v-7.5zm9.6 0h1.7v4.9l4.2-5h1.6V39h-1.8v-5l-4.1 5H563v-7.5zm13 4.4h-1.4v3h-1.8v-7.5h1.8v3h1.4l2.2-3h1.8l-2.7 3.6 3 3.9h-2.1l-2.3-3zm15.9 1.5V39h-7.3v-1.2l4-3.7.8-1.1c.2-.3.3-.6.3-1s-.2-.8-.5-1c-.3-.2-.8-.4-1.4-.4a3 3 0 0 0-2.3 1l-1.2-1a4.5 4.5 0 0 1 3.7-1.5c1 0 1.9.2 2.5.7.7.5 1 1.2 1 2 0 .6-.1 1.1-.3 1.6l-1.3 1.6-2.7 2.5h4.7zM443 27.9h-1.8V32h-1.8v-9.8h1.8v4.1h1.8l2.9-4.1h1.9l-3.4 4.7L448 32h-2l-3-4.1zm9.2 4.2c-.8 0-1.4-.2-2-.5a3.6 3.6 0 0 1-2-3.3c0-.8.2-1.4.5-2 .4-.6.8-1 1.4-1.4.6-.3 1.3-.5 2-.5a4 4 0 0 1 3.6 1.9 4.2 4.2 0 0 1 0 4c-.4.5-.8 1-1.5 1.3-.6.3-1.2.5-2 .5zm0-1.5c.6 0 1.2-.2 1.6-.6.4-.5.6-1 .6-1.7s-.2-1.3-.6-1.7a2 2 0 0 0-1.6-.7c-.7 0-1.2.2-1.6.7-.4.4-.6 1-.6 1.7s.2 1.2.6 1.7c.4.4 1 .6 1.6.6zm12.4-6V32h-1.8v-6H460v1.5c0 1-.2 1.8-.3 2.5-.1.6-.4 1.2-.7 1.6-.3.3-.7.5-1.3.5l-1-.1.1-1.5h.4c.3 0 .6 0 .8-.4l.3-1 .1-1.7.2-2.9h6zm2 2.8h3.8v1.4h-3.8v-1.4zm11.2.7c.9.3 1.3.9 1.3 1.8 0 .7-.2 1.2-.7 1.6-.5.3-1.3.5-2.2.5h-3.9v-7.5h3.7c1 0 1.6.2 2.1.5.6.4.8.8.8 1.5 0 .3 0 .7-.3 1a2 2 0 0 1-.8.6zm-3.8-.5h1.8c1 0 1.4-.3 1.4-.9 0-.6-.5-.9-1.4-.9H474v1.8zm2 3.1c1 0 1.5-.3 1.5-1 0-.2-.2-.5-.4-.6-.2-.2-.6-.3-1-.3h-2v2h2zm8.3 1.4c-.7 0-1.4-.2-2-.5a3.6 3.6 0 0 1-2-3.3c0-.8.2-1.4.6-2 .3-.6.8-1 1.4-1.4.6-.3 1.3-.5 2-.5.8 0 1.5.2 2.1.5a3.8 3.8 0 0 1 2 3.3c0 .8-.2 1.5-.6 2-.3.6-.8 1-1.4 1.4-.6.3-1.3.5-2 .5zm0-1.5c.7 0 1.2-.2 1.6-.6.5-.5.7-1 .7-1.7s-.2-1.3-.7-1.7a2 2 0 0 0-1.6-.7c-.6 0-1.1.2-1.6.7-.4.4-.6 1-.6 1.7s.2 1.2.6 1.7c.5.4 1 .6 1.6.6zm-39.7 11.5c1 .3 1.4.9 1.4 1.8a2 2 0 0 1-.8 1.6c-.5.3-1.2.5-2.2.5h-3.8v-7.5h3.6c1 0 1.7.2 2.2.5.5.4.7.8.7 1.5 0 .3 0 .7-.3 1a2 2 0 0 1-.8.6zm-3.8-.5h1.9c.9 0 1.3-.3 1.3-.9 0-.6-.4-.9-1.3-.9h-1.9v1.8zm2 3.1c1 0 1.5-.3 1.5-1 0-.2-.1-.5-.4-.6-.2-.2-.5-.3-1-.3h-2v2h2zm5-6.2h1.8v5l4.1-5h1.6V46h-1.7v-5l-4.1 5h-1.7v-7.5zm14.2 3.6c.5.1.9.4 1.1.7.3.2.4.6.4 1 0 .5-.1.9-.4 1.2a3 3 0 0 1-1.3.8c-.6.2-1.2.3-1.9.3-.5 0-1.1 0-1.7-.2l-1.5-.6.5-1.3 1.3.5 1.3.2c.6 0 1-.1 1.4-.3.4-.2.5-.4.5-.7 0-.3-.1-.6-.4-.7a2 2 0 0 0-1-.2h-1.5v-1.2h1.3l1-.2c.3-.2.4-.4.4-.7 0-.2-.1-.5-.4-.6-.3-.2-.7-.3-1.3-.3-.7 0-1.5.2-2.3.6L457 39c1-.5 2-.7 3-.7.6 0 1.2.1 1.7.3.5.1.9.4 1.2.7.3.3.4.7.4 1 0 .4-.1.8-.3 1l-1 .7zm3.3-3.6h1.8v5l4.1-5h1.6V46h-1.7v-5l-4.2 5h-1.6v-7.5zm15.8 1.5h-2.6v6h-1.8v-6h-2.6v-1.5h7V40zm4.3 6.1a4 4 0 0 1-2-.5 3.6 3.6 0 0 1-2-3.3 3.6 3.6 0 0 1 2-3.3c.5-.4 1.2-.6 2-.6.7 0 1.4.2 2 .5a3.8 3.8 0 0 1 2 3.3c0 .8-.2 1.5-.6 2-.3.6-.8 1-1.4 1.4-.6.3-1.3.5-2 .5zm0-1.5c.6 0 1.1-.2 1.6-.6.4-.5.6-1 .6-1.7s-.2-1.3-.6-1.7c-.5-.5-1-.7-1.6-.7-.7 0-1.2.2-1.6.7-.5.4-.7 1-.7 1.7s.2 1.2.7 1.7c.4.4 1 .6 1.6.6zm11-2.5c1 .3 1.5.9 1.5 1.8a2 2 0 0 1-.8 1.6c-.5.3-1.2.5-2.2.5H491v-7.5h3.6c1 0 1.7.2 2.2.5.5.4.7.8.7 1.5 0 .3 0 .7-.3 1a2 2 0 0 1-.8.6zm-3.7-.5h1.9c.9 0 1.3-.3 1.3-.9 0-.6-.4-.9-1.3-.9h-1.9v1.8zm2 3.1c1 0 1.5-.3 1.5-1 0-.2-.1-.5-.4-.6-.2-.2-.5-.3-1-.3h-2v2h2zM611 27.9h-1.8V32h-1.8v-9.8h1.8v4.1h1.8l2.9-4.1h1.9l-3.4 4.7L616 32h-2l-3-4.1zm9.2 4.2a4 4 0 0 1-2-.5 3.6 3.6 0 0 1-2-3.3c0-.8.2-1.4.5-2 .4-.6.8-1 1.4-1.4.6-.3 1.3-.5 2-.5a4 4 0 0 1 3.6 1.9 4.2 4.2 0 0 1 0 4c-.4.5-.8 1-1.5 1.3-.6.3-1.2.5-2 .5zm0-1.5c.6 0 1.2-.2 1.6-.6.4-.5.6-1 .6-1.7s-.2-1.3-.6-1.7a2 2 0 0 0-1.6-.7c-.7 0-1.2.2-1.6.7-.4.4-.6 1-.6 1.7s.2 1.2.6 1.7c.4.4 1 .6 1.6.6zm12.4-6V32h-1.8v-6H628v1.5c0 1-.2 1.8-.3 2.5-.1.6-.4 1.2-.7 1.6-.3.3-.7.5-1.3.5l-1-.1.1-1.5h.4c.3 0 .6 0 .8-.4l.3-1 .1-1.7.2-2.9h6zm2 2.8h3.8v1.4h-3.8v-1.4zm11.2.7c.9.3 1.3.9 1.3 1.8 0 .7-.2 1.2-.7 1.6-.5.3-1.3.5-2.2.5h-3.9v-7.5h3.7c1 0 1.6.2 2.1.5.6.4.8.8.8 1.5 0 .3 0 .7-.3 1a2 2 0 0 1-.8.6zm-3.8-.5h1.8c1 0 1.4-.3 1.4-.9 0-.6-.5-.9-1.4-.9H642v1.8zm2 3.1c1 0 1.5-.3 1.5-1 0-.2-.2-.5-.4-.6-.2-.2-.6-.3-1-.3h-2v2h2zm8.3 1.4c-.7 0-1.4-.2-2-.5a3.6 3.6 0 0 1-2-3.3c0-.8.2-1.4.6-2 .3-.6.8-1 1.4-1.4.6-.3 1.3-.5 2-.5.8 0 1.5.2 2.1.5a3.8 3.8 0 0 1 2 3.3c0 .8-.2 1.5-.6 2-.3.6-.8 1-1.4 1.4-.6.3-1.3.5-2 .5zm0-1.5c.7 0 1.2-.2 1.6-.6.5-.5.7-1 .7-1.7s-.2-1.3-.7-1.7a2 2 0 0 0-1.6-.7c-.6 0-1.1.2-1.6.7-.4.4-.6 1-.6 1.7s.2 1.2.6 1.7c.5.4 1 .6 1.6.6zm-39.7 11.5c1 .3 1.4.9 1.4 1.8a2 2 0 0 1-.8 1.6c-.5.3-1.2.5-2.2.5h-3.8v-7.5h3.6c1 0 1.7.2 2.2.5.5.4.7.8.7 1.5 0 .3 0 .7-.3 1a2 2 0 0 1-.8.6zm-3.8-.5h1.9c.9 0 1.3-.3 1.3-.9 0-.6-.4-.9-1.3-.9h-1.9v1.8zm2 3.1c1 0 1.5-.3 1.5-1 0-.2-.1-.5-.3-.6-.3-.2-.6-.3-1.1-.3h-2v2h2zm5-6.2h1.8v5l4.1-5h1.6V46h-1.7v-5l-4.1 5h-1.7v-7.5zm14.2 3.6c.5.1.9.4 1.1.7.3.2.4.6.4 1 0 .5-.1.9-.4 1.2a3 3 0 0 1-1.3.8c-.6.2-1.2.3-1.9.3-.5 0-1.1 0-1.7-.2l-1.5-.6.5-1.3 1.3.5 1.3.2c.6 0 1-.1 1.4-.3.4-.2.5-.4.5-.7 0-.3-.1-.6-.4-.7a2 2 0 0 0-1-.2h-1.5v-1.2h1.3l1-.2c.3-.2.4-.4.4-.7 0-.2-.1-.5-.4-.6-.3-.2-.7-.3-1.3-.3-.7 0-1.5.2-2.3.6L625 39c1-.5 2-.7 3-.7.6 0 1.2.1 1.7.3.5.1.9.4 1.2.7.3.3.4.7.4 1 0 .4-.1.8-.3 1l-1 .7zm3.3-3.6h1.8v5l4.1-5h1.6V46h-1.7v-5l-4.2 5h-1.6v-7.5zm15.8 1.5h-2.6v6h-1.8v-6h-2.6v-1.5h7V40zm4.3 6.1a4 4 0 0 1-2-.5 3.6 3.6 0 0 1-2-3.3 3.6 3.6 0 0 1 2-3.3c.5-.4 1.2-.6 2-.6.7 0 1.4.2 2 .5a3.8 3.8 0 0 1 2 3.3c0 .8-.2 1.5-.6 2-.3.6-.8 1-1.4 1.4-.6.3-1.3.5-2 .5zm0-1.5c.6 0 1.1-.2 1.6-.6.4-.5.6-1 .6-1.7s-.2-1.3-.6-1.7c-.5-.5-1-.7-1.6-.7-.7 0-1.2.2-1.6.7-.5.4-.7 1-.7 1.7s.2 1.2.7 1.7c.4.4 1 .6 1.6.6zm11-2.5c1 .3 1.5.9 1.5 1.8a2 2 0 0 1-.8 1.6c-.5.3-1.2.5-2.2.5H659v-7.5h3.6c1 0 1.7.2 2.2.5.5.4.7.8.7 1.5 0 .3 0 .7-.3 1a2 2 0 0 1-.8.6zm-3.7-.5h1.9c.9 0 1.3-.3 1.3-.9 0-.6-.4-.9-1.3-.9h-1.9v1.8zm2 3.1c1 0 1.5-.3 1.5-1 0-.2-.1-.5-.4-.6-.2-.2-.5-.3-1-.3h-2v2h2z" fill="#246EDE"/></g><rect y="121" width="1084" height="276" rx="20" fill="#fff"/><g opacity=".5"><path d="M776.7 137.3h-2v4.7h-2.1v-11.2h2v4.7h2.2l3.2-4.7h2.2l-3.8 5.4 4 5.8H780l-3.3-4.7zm10.5 4.8c-.9 0-1.6-.2-2.3-.5a4.2 4.2 0 0 1-2.2-3.9c0-.8.2-1.6.5-2.2a4.4 4.4 0 0 1 4-2.1c.9 0 1.7.1 2.4.5a4 4 0 0 1 1.6 1.6c.4.6.6 1.4.6 2.2 0 .9-.2 1.6-.6 2.3a4 4 0 0 1-1.6 1.6 6 6 0 0 1-2.4.5zm0-1.7c.8 0 1.4-.2 1.8-.7.5-.5.8-1.2.8-2s-.3-1.4-.8-2c-.4-.4-1-.6-1.8-.6-.7 0-1.3.2-1.8.7-.5.5-.7 1.1-.7 2 0 .7.2 1.4.7 1.9.5.5 1 .7 1.8.7zm15 1.6v-5.7l-3 4.8h-.8l-2.8-4.8v5.7h-1.9v-8.5h2.1l3 5.3 3.3-5.3h1.8v8.5h-1.8zm7.6-8.6c1.3 0 2.2.3 3 .9.6.6 1 1.5 1 2.7v5h-2v-1c-.2.3-.6.6-1 .8-.5.2-1 .3-1.7.3-.6 0-1.2 0-1.6-.3-.5-.2-.9-.5-1.2-1-.2-.3-.3-.8-.3-1.2 0-.8.2-1.4.8-1.9.6-.5 1.5-.7 2.7-.7h2.2v-.1c0-.6-.2-1-.5-1.4-.4-.3-1-.5-1.6-.5l-1.4.2c-.5.2-.9.4-1.2.7l-.8-1.5 1.6-.8 2-.2zm-.2 7.3c.5 0 .9-.2 1.3-.4s.7-.5.8-1v-1h-2c-1.2 0-1.8.4-1.8 1.2 0 .3.2.6.5.8.2.2.6.4 1.2.4zm6.6-7.2h2v3.4h4.3v-3.4h2v8.5h-2v-3.4h-4.3v3.4h-2v-8.5zm20 6.8v3.6h-1.8V142h-6.6v1.9H826v-3.6h.4c.5 0 .9-.4 1-1 .3-.7.4-1.7.5-3v-2.8h7.1v6.8h1.3zm-6.5-3.8l-.2 2.4c-.2.6-.4 1.1-.7 1.4h4.2v-5.1h-3.3v1.3zm11.6-3.1c1.2 0 2.2.3 2.8.9.7.6 1 1.5 1 2.7v5h-1.8v-1l-1 .8c-.5.2-1 .3-1.7.3s-1.2 0-1.7-.3c-.5-.2-.9-.5-1.1-1-.3-.3-.4-.8-.4-1.2 0-.8.3-1.4.8-1.9.6-.5 1.5-.7 2.7-.7h2.3v-.1c0-.6-.2-1-.6-1.4-.3-.3-.9-.5-1.6-.5l-1.4.2c-.5.2-.9.4-1.2.7l-.8-1.5c.5-.3 1-.6 1.7-.8l2-.2zm-.3 7.3c.5 0 1-.2 1.3-.4.4-.2.7-.5.9-1v-1H841c-1.2 0-1.7.4-1.7 1.2 0 .3.1.6.4.8.3.2.7.4 1.2.4z" fill="#151515"/><rect opacity=".1" x="10" y="111" width="1084" height="276" rx="20" fill="#246EDE"/><rect y="121" width="1084" height="276" rx="20" fill="#fff"/><rect x=".5" y="121.5" width="1083" height="275" rx="19.5" stroke="#246EDE" stroke-opacity=".3"/><path opacity=".2" d="M89 183a4 4 0 0 0-4-4H27a4 4 0 0 0 0 8h58a4 4 0 0 0 4-4zm0 53a4 4 0 0 0-4-4H27a4 4 0 0 0 0 8h58a4 4 0 0 0 4-4zM72 344a4 4 0 0 0-4-4H27a4 4 0 0 0 0 8h41a4 4 0 0 0 4-4zm-32-50a4 4 0 0 0-4-4h-9a4 4 0 0 0 0 8h9a4 4 0 0 0 4-4zm79-111a4 4 0 0 0-4-4h-9a4 4 0 0 0 0 8h9a4 4 0 0 0 4-4zm180 0a4 4 0 0 0-4-4h-10a4 4 0 0 0 0 8h10a4 4 0 0 0 4-4zm315 0a4 4 0 0 0-4-4h-10a4 4 0 0 0 0 8h10a4 4 0 0 0 4-4zm105 0a4 4 0 0 0-4-4h-21a4 4 0 0 0 0 8h21a4 4 0 0 0 4-4zm208 0a4 4 0 0 0-4-4h-21a4 4 0 0 0 0 8h21a4 4 0 0 0 4-4zm-93 0a4 4 0 0 0-4-4h-10a4 4 0 0 0 0 8h10a4 4 0 0 0 4-4zm-445 51a4 4 0 0 0-4-4h-10a4 4 0 0 0 0 8h10a4 4 0 0 0 4-4zm-256 0a4 4 0 0 0-4-4h-23a4 4 0 0 0 0 8h23a4 4 0 0 0 4-4zm180 0a4 4 0 0 0-4-4h-24a4 4 0 0 0 0 8h24a4 4 0 0 0 4-4zm315 0a4 4 0 0 0-4-4h-24a4 4 0 0 0 0 8h24a4 4 0 0 0 4-4zm83 0a4 4 0 0 0-4-4h-13a4 4 0 0 0 0 8h13a4 4 0 0 0 4-4zm208 0a4 4 0 0 0-4-4h-13a4 4 0 0 0 0 8h13a4 4 0 0 0 4-4zm-71 0a4 4 0 0 0-4-4h-24a4 4 0 0 0 0 8h24a4 4 0 0 0 4-4zm-729 65a4 4 0 0 1-4 4h-9a4 4 0 0 1 0-8h9a4 4 0 0 1 4 4zm180 0a4 4 0 0 1-4 4h-10a4 4 0 0 1 0-8h10a4 4 0 0 1 4 4zm315 0a4 4 0 0 1-4 4h-10a4 4 0 0 1 0-8h10a4 4 0 0 1 4 4zm111 0a4 4 0 0 1-4 4h-27a4 4 0 0 1 0-8h27a4 4 0 0 1 4 4zm208 0a4 4 0 0 1-4 4h-27a4 4 0 0 1 0-8h27a4 4 0 0 1 4 4zm-99 0a4 4 0 0 1-4 4h-10a4 4 0 0 1 0-8h10a4 4 0 0 1 4 4zm-443 50a4 4 0 0 1-4 4h-10a4 4 0 0 1 0-8h10a4 4 0 0 1 4 4zm-265-16a4 4 0 0 0-4-4h-16a4 4 0 0 0 0 8h16a4 4 0 0 0 4-4zm180 0a4 4 0 0 0-4-4h-17a4 4 0 0 0 0 8h17a4 4 0 0 0 4-4zm315 0a4 4 0 0 0-4-4h-17a4 4 0 0 0 0 8h17a4 4 0 0 0 4-4zm94 0a4 4 0 0 0-4-4h-17a4 4 0 0 0 0 8h17a4 4 0 0 0 4-4zm208 0a4 4 0 0 0-4-4h-17a4 4 0 0 0 0 8h17a4 4 0 0 0 4-4zm-82 0a4 4 0 0 0-4-4h-17a4 4 0 0 0 0 8h17a4 4 0 0 0 4-4zm-444-50a4 4 0 0 0-4-4h-17a4 4 0 0 0 0 8h17a4 4 0 0 0 4-4zm-1-101a4 4 0 0 0-4-4h-17a4 4 0 0 0 0 8h17a4 4 0 0 0 4-4zM78 294a4 4 0 0 0-4-4H51a4 4 0 0 0 0 8h23a4 4 0 0 0 4-4zm79-111a4 4 0 0 0-4-4h-23a4 4 0 0 0 0 8h23a4 4 0 0 0 4-4zm181 0a4 4 0 0 0-4-4h-24a4 4 0 0 0 0 8h24a4 4 0 0 0 4-4zm315 0a4 4 0 0 0-4-4h-24a4 4 0 0 0 0 8h24a4 4 0 0 0 4-4zm94 0a4 4 0 0 0-4-4h-17a4 4 0 0 0 0 8h17a4 4 0 0 0 4-4zm208 0a4 4 0 0 0-4-4h-17a4 4 0 0 0 0 8h17a4 4 0 0 0 4-4zm-82 0a4 4 0 0 0-4-4h-24a4 4 0 0 0 0 8h24a4 4 0 0 0 4-4zm-445 51a4 4 0 0 0-4-4h-24a4 4 0 0 0 0 8h24a4 4 0 0 0 4-4zm-271 0a4 4 0 0 0-4-4h-11a4 4 0 0 0 0 8h11a4 4 0 0 0 4-4zm181 0a4 4 0 0 0-4-4h-12a4 4 0 0 0 0 8h12a4 4 0 0 0 4-4zm315 0a4 4 0 0 0-4-4h-12a4 4 0 0 0 0 8h12a4 4 0 0 0 4-4zm94 0a4 4 0 0 0-4-4h-20a4 4 0 0 0 0 8h20a4 4 0 0 0 4-4zm208 0a4 4 0 0 0-4-4h-20a4 4 0 0 0 0 8h20a4 4 0 0 0 4-4zm-82 0a4 4 0 0 0-4-4h-12a4 4 0 0 0 0 8h12a4 4 0 0 0 4-4zm-716 65a4 4 0 0 1-4 4h-23a4 4 0 0 1 0-8h23a4 4 0 0 1 4 4zm181 0a4 4 0 0 1-4 4h-24a4 4 0 0 1 0-8h24a4 4 0 0 1 4 4zm315 0a4 4 0 0 1-4 4h-24a4 4 0 0 1 0-8h24a4 4 0 0 1 4 4zm94 0a4 4 0 0 1-4 4h-8a4 4 0 0 1 0-8h8a4 4 0 0 1 4 4zm208 0a4 4 0 0 1-4 4h-8a4 4 0 0 1 0-8h8a4 4 0 0 1 4 4zm-82 0a4 4 0 0 1-4 4h-24a4 4 0 0 1 0-8h24a4 4 0 0 1 4 4zm-443 50a4 4 0 0 1-4 4h-24a4 4 0 0 1 0-8h24a4 4 0 0 1 4 4zm-273-16a4 4 0 0 0-4-4h-16a4 4 0 0 0 0 8h16a4 4 0 0 0 4-4zm181 0a4 4 0 0 0-4-4h-17a4 4 0 0 0 0 8h17a4 4 0 0 0 4-4zm315 0a4 4 0 0 0-4-4h-17a4 4 0 0 0 0 8h17a4 4 0 0 0 4-4zm94 0a4 4 0 0 0-4-4h-17a4 4 0 0 0 0 8h17a4 4 0 0 0 4-4zm208 0a4 4 0 0 0-4-4h-17a4 4 0 0 0 0 8h17a4 4 0 0 0 4-4zm-82 0a4 4 0 0 0-4-4h-17a4 4 0 0 0 0 8h17a4 4 0 0 0 4-4zm-444-50a4 4 0 0 0-4-4h-17a4 4 0 0 0 0 8h17a4 4 0 0 0 4-4zm-1-101a4 4 0 0 0-4-4h-17a4 4 0 0 0 0 8h17a4 4 0 0 0 4-4zM52 198a4 4 0 0 0-4-4H27a4 4 0 0 0 0 8h21a4 4 0 0 0 4-4zm0 53a4 4 0 0 0-4-4H27a4 4 0 0 0 0 8h21a4 4 0 0 0 4-4zm105-53a4 4 0 0 0-4-4h-46a4 4 0 0 0 0 8h46a4 4 0 0 0 4-4zm181 0a4 4 0 0 0-4-4h-48a4 4 0 0 0 0 8h48a4 4 0 0 0 4-4zm315 0a4 4 0 0 0-4-4h-48a4 4 0 0 0 0 8h48a4 4 0 0 0 4-4zm76 0a4 4 0 0 0-4-4h-31a4 4 0 0 0 0 8h31a4 4 0 0 0 4-4zm208 0a4 4 0 0 0-4-4h-31a4 4 0 0 0 0 8h31a4 4 0 0 0 4-4zm-64 0a4 4 0 0 0-4-4h-48a4 4 0 0 0 0 8h48a4 4 0 0 0 4-4zm-445 51a4 4 0 0 0-4-4h-48a4 4 0 0 0 0 8h48a4 4 0 0 0 4-4zm-271 0a4 4 0 0 0-4-4h-46a4 4 0 0 0 0 8h46a4 4 0 0 0 4-4zm181 0a4 4 0 0 0-4-4h-48a4 4 0 0 0 0 8h48a4 4 0 0 0 4-4zm315 0a4 4 0 0 0-4-4h-48a4 4 0 0 0 0 8h48a4 4 0 0 0 4-4zm94 0a4 4 0 0 0-4-4h-48a4 4 0 0 0 0 8h48a4 4 0 0 0 4-4zm208 0a4 4 0 0 0-4-4h-48a4 4 0 0 0 0 8h48a4 4 0 0 0 4-4zm-82 0a4 4 0 0 0-4-4h-48a4 4 0 0 0 0 8h48a4 4 0 0 0 4-4zm-339-57.5c0-4.1-3.4-7.5-7.5-7.5h-39a7.5 7.5 0 0 0 0 15h39c4.1 0 7.5-3.4 7.5-7.5zm-312-2c0-4.1-3.4-7.5-7.5-7.5h-13a7.5 7.5 0 0 0 0 15h13c4.1 0 7.5-3.4 7.5-7.5zm812 2c0-4.1-3.4-7.5-7.5-7.5h-21a7.5 7.5 0 0 0 0 15h21c4.1 0 7.5-3.4 7.5-7.5zm-233 100c0-4.1-3.4-7.5-7.5-7.5h-21a7.5 7.5 0 0 0 0 15h21c4.1 0 7.5-3.4 7.5-7.5zm0-51c0-4.1-3.4-7.5-7.5-7.5h-21a7.5 7.5 0 0 0 0 15h21c4.1 0 7.5-3.4 7.5-7.5zm233 1c0-4.1-3.4-7.5-7.5-7.5h-21a7.5 7.5 0 0 0 0 15h21c4.1 0 7.5-3.4 7.5-7.5zm-231 100c0-4.1-3.4-7.5-7.5-7.5h-21a7.5 7.5 0 0 0 0 15h21c4.1 0 7.5-3.4 7.5-7.5zm-2-153c0-4.1-3.4-7.5-7.5-7.5h-21a7.5 7.5 0 0 0 0 15h21c4.1 0 7.5-3.4 7.5-7.5zm233 102c0-4.1-3.4-7.5-7.5-7.5h-21a7.5 7.5 0 0 0 0 15h21c4.1 0 7.5-3.4 7.5-7.5zm0 50c0-4.1-3.4-7.5-7.5-7.5h-21a7.5 7.5 0 0 0 0 15h21c4.1 0 7.5-3.4 7.5-7.5zm-500-99c0-4.1-3.4-7.5-7.5-7.5h-39a7.5 7.5 0 0 0 0 15h39c4.1 0 7.5-3.4 7.5-7.5zm-312 0c0-4.1-3.4-7.5-7.5-7.5h-13a7.5 7.5 0 0 0 0 15h13c4.1 0 7.5-3.4 7.5-7.5zm312 49c0-4.1-3.4-7.5-7.5-7.5h-39a7.5 7.5 0 0 0 0 15h39c4.1 0 7.5-3.4 7.5-7.5zm-312 0c0-4.1-3.4-7.5-7.5-7.5h-13a7.5 7.5 0 0 0 0 15h13c4.1 0 7.5-3.4 7.5-7.5zm312 50c0-4.1-3.4-7.5-7.5-7.5h-39a7.5 7.5 0 0 0 0 15h39c4.1 0 7.5-3.4 7.5-7.5zm-312 0c0-4.1-3.4-7.5-7.5-7.5h-13a7.5 7.5 0 0 0 0 15h13c4.1 0 7.5-3.4 7.5-7.5zM157 284a4 4 0 0 1-4 4h-46a4 4 0 0 1 0-8h46a4 4 0 0 1 4 4zm181 0a4 4 0 0 1-4 4h-48a4 4 0 0 1 0-8h48a4 4 0 0 1 4 4zm315 0a4 4 0 0 1-4 4h-48a4 4 0 0 1 0-8h48a4 4 0 0 1 4 4zm94 0a4 4 0 0 1-4 4h-48a4 4 0 0 1 0-8h48a4 4 0 0 1 4 4zm208 0a4 4 0 0 1-4 4h-48a4 4 0 0 1 0-8h48a4 4 0 0 1 4 4zm-82 0a4 4 0 0 1-4 4h-48a4 4 0 0 1 0-8h48a4 4 0 0 1 4 4zm-443 50a4 4 0 0 1-4 4h-48a4 4 0 0 1 0-8h48a4 4 0 0 1 4 4zm-288 14a4 4 0 0 0-4-4h-31a4 4 0 0 0 0 8h31a4 4 0 0 0 4-4zm180 0a4 4 0 0 0-4-4h-32a4 4 0 0 0 0 8h32a4 4 0 0 0 4-4zm315 0a4 4 0 0 0-4-4h-32a4 4 0 0 0 0 8h32a4 4 0 0 0 4-4zm110 0a4 4 0 0 0-4-4h-48a4 4 0 0 0 0 8h48a4 4 0 0 0 4-4zm208 0a4 4 0 0 0-4-4h-48a4 4 0 0 0 0 8h48a4 4 0 0 0 4-4zm-98 0a4 4 0 0 0-4-4h-32a4 4 0 0 0 0 8h32a4 4 0 0 0 4-4zm-444-50a4 4 0 0 0-4-4h-32a4 4 0 0 0 0 8h32a4 4 0 0 0 4-4zm-2-101a4 4 0 0 0-4-4h-32a4 4 0 0 0 0 8h32a4 4 0 0 0 4-4z" fill="#246EDE"/><path d="M15 216h1038M15 166h1038M15 266h1038M15 316h1038M15 366h1038M95 133v248m69-248v248m199-248v248M255 133v248m193-248v248m117-248v248m117-248v248m75-248v248m52-248v248m71-248v248m90-248v248" stroke="#246EDE" stroke-opacity=".3"/><path opacity=".3" d="M14 146.9h-1.8v4.1h-1.8v-9.8h1.8v4.1H14l2.9-4.1h1.9l-3.4 4.7L19 151h-2l-3-4.1zm9.2 4.2c-.8 0-1.4-.2-2-.5a3.6 3.6 0 0 1-2-3.3c0-.8.2-1.4.5-2 .4-.6.8-1 1.4-1.4a5 5 0 0 1 2-.5 4 4 0 0 1 3.6 1.9 4.2 4.2 0 0 1 0 4c-.4.5-.8 1-1.5 1.3-.6.3-1.2.5-2 .5zm0-1.5c.6 0 1.2-.2 1.6-.6.4-.5.6-1 .6-1.7s-.2-1.3-.6-1.7a2 2 0 0 0-1.6-.7c-.7 0-1.2.2-1.6.7-.4.4-.6 1-.6 1.7s.2 1.2.6 1.7c.4.4 1 .6 1.6.6zm5.7-6h1.8v3h3.7v-3h1.8v7.4h-1.8v-3h-3.7v3h-1.8v-7.5zm12.7 4.4h-1.3v3h-1.8v-7.5h1.8v3h1.4l2.2-3h1.9l-2.8 3.6 3 3.9h-2.1l-2.3-3zm12.2-4.5l-3.5 8.1c-.3.8-.7 1.4-1.2 1.7-.5.3-1 .5-1.7.5-.4 0-.7 0-1-.2-.4 0-.7-.3-1-.5l.7-1.3a2 2 0 0 0 1.3.6c.3 0 .6-.1.8-.3.2-.1.4-.4.5-.8l.1-.3-3.2-7.5h1.8l2.4 5.6 2.3-5.6h1.7zm5.4 0a4 4 0 0 1 2 .4 4 4 0 0 1 1.8 3.3 4 4 0 0 1-.5 2c-.4.7-.8 1.1-1.4 1.4a4 4 0 0 1-2 .5 3 3 0 0 1-2.3-1v3.6H55v-10.2h1.7v1c.3-.4.6-.6 1-.8l1.5-.3zm-.2 6.1a2 2 0 0 0 1.5-.6c.5-.5.7-1 .7-1.7s-.2-1.3-.7-1.7a2 2 0 0 0-1.5-.7c-.5 0-.8.1-1.2.3a2 2 0 0 0-.8.8c-.2.4-.3.8-.3 1.3l.3 1.2.8.8c.4.2.7.3 1.2.3zm12.7-2.3v.5h-5.9c.1.6.4 1 .8 1.3.4.4 1 .5 1.6.5.8 0 1.5-.3 2-.8l1 1c-.3.5-.8.8-1.3 1a5 5 0 0 1-3.9-.2 3.6 3.6 0 0 1-2-3.3c0-.8.2-1.4.5-2 .4-.6.8-1 1.4-1.4a4 4 0 0 1 2-.5c.7 0 1.4.2 2 .5a4 4 0 0 1 1.8 3.4zm-3.8-2.5c-.5 0-1 .2-1.4.5a2 2 0 0 0-.7 1.4H70c0-.6-.3-1-.7-1.4a2 2 0 0 0-1.4-.5zm5.7-1.3h1.8v3H79v-3h2v7.5h-2v-3h-3.7v3h-1.8v-7.5zm15.5 1.5h-2.6v6h-1.7v-6H82v-1.5h7v1.5zm27.8 6.1a5 5 0 0 1-5.2-5c0-1 .2-1.8.6-2.6.5-.8 1.1-1.4 2-1.8.7-.4 1.6-.6 2.6-.6.8 0 1.5.1 2.2.4.7.3 1.2.7 1.7 1.2l-1.2 1.1a3.4 3.4 0 0 0-2.6-1.1c-.7 0-1.3.1-1.8.4a3 3 0 0 0-1.3 1.2c-.3.5-.4 1.1-.4 1.8s.1 1.3.4 1.8c.3.5.7 1 1.3 1.2.5.3 1.1.4 1.8.4 1 0 1.9-.3 2.6-1.1l1.2 1.1c-.5.5-1 1-1.7 1.2-.7.3-1.4.4-2.2.4zm8-7.7c1.2 0 2 .3 2.6.8.6.6.9 1.4.9 2.4v4.4h-1.7v-1a2 2 0 0 1-.9.8c-.4.2-.9.3-1.4.3-.6 0-1 0-1.5-.3-.4-.2-.7-.4-1-.8a2 2 0 0 1-.3-1.1c0-.7.2-1.3.7-1.7.5-.4 1.3-.6 2.4-.6h2c0-.6-.2-1-.5-1.3-.3-.3-.8-.4-1.4-.4a4 4 0 0 0-1.3.2 3 3 0 0 0-1 .5l-.7-1.2c.4-.3.9-.6 1.4-.7l1.8-.3zm-.2 6.4c.5 0 .9 0 1.2-.3.4-.2.6-.5.7-.8v-1h-1.8c-1 0-1.5.4-1.5 1 0 .4.1.7.4.8.2.2.6.3 1 .3zm5.9-6.3h1.7v5l4.1-5h1.6v7.5h-1.7v-5l-4.1 5h-1.6v-7.5zm3.6-.9c-.8 0-1.4-.1-1.8-.5-.4-.3-.6-.8-.6-1.5h1.2c0 .3.1.6.3.8.2.2.5.3.9.3.3 0 .6-.1.8-.3.2-.2.3-.5.3-.8h1.2c0 .7-.2 1.2-.6 1.5-.4.4-1 .5-1.7.5zm12.1 2.4h-2.6v6h-1.8v-6h-2.6v-1.5h7v1.5zm30.6-.9a5 5 0 0 1-5.2-5c0-1 .2-1.8.6-2.6.5-.8 1.1-1.4 2-1.8.7-.4 1.6-.6 2.6-.6.8 0 1.5.1 2.2.4.7.3 1.2.7 1.7 1.2l-1.2 1.1a3.4 3.4 0 0 0-2.6-1.1c-.7 0-1.3.1-1.8.4a3 3 0 0 0-1.3 1.2c-.3.5-.4 1.1-.4 1.8s.1 1.3.4 1.8c.3.5.7 1 1.3 1.2.5.3 1.1.4 1.8.4 1 0 1.9-.3 2.6-1.1l1.2 1.1c-.5.5-1 1-1.7 1.2-.7.3-1.4.4-2.2.4zm8.5-3.1H184v3h-1.7v-7.5h1.7v3h1.4l2.2-3h1.9l-2.7 3.6 2.9 3.9h-2l-2.3-3zm8.6 3.1c-.8 0-1.4-.2-2-.5a3.6 3.6 0 0 1-2-3.3c0-.8.2-1.4.5-2 .4-.6.9-1 1.5-1.4.6-.3 1.3-.5 2-.5a4 4 0 0 1 3.5 1.9 4.2 4.2 0 0 1 0 4c-.4.5-.8 1-1.4 1.3-.6.3-1.3.5-2 .5zm0-1.5c.7 0 1.2-.2 1.6-.6.4-.5.6-1 .6-1.7s-.2-1.3-.6-1.7a2 2 0 0 0-1.6-.7 2 2 0 0 0-1.6.7c-.4.4-.6 1-.6 1.7s.2 1.2.6 1.7c.4.4 1 .6 1.6.6zm9.9-6.2a4 4 0 0 1 2 .5 4 4 0 0 1 1.8 3.3 4 4 0 0 1-.5 2c-.4.7-.8 1.1-1.4 1.4a4 4 0 0 1-2 .5 3 3 0 0 1-2.3-1v3.6h-1.8v-10.2h1.7v1c.3-.4.6-.6 1-.8l1.5-.3zm-.2 6.2a2 2 0 0 0 1.6-.6c.4-.5.6-1 .6-1.7s-.2-1.3-.6-1.7a2 2 0 0 0-1.6-.7l-1.2.3a2 2 0 0 0-.8.8c-.2.4-.3.8-.3 1.3l.3 1.2.8.8 1.2.3zm9 1.5c-.7 0-1.4-.2-2-.5a3.6 3.6 0 0 1-2-3.3c0-.8.2-1.4.6-2 .3-.6.8-1 1.4-1.4.6-.3 1.3-.5 2-.5a4 4 0 0 1 2 .5c.7.4 1.2.8 1.5 1.4.4.6.5 1.2.5 2a3.5 3.5 0 0 1-1.9 3.3c-.6.3-1.3.5-2 .5zm0-1.5c.7 0 1.2-.2 1.6-.6.5-.5.7-1 .7-1.7s-.2-1.3-.7-1.7a2 2 0 0 0-1.6-.7c-.6 0-1.1.2-1.6.7-.4.4-.6 1-.6 1.7s.2 1.2.6 1.7c.5.4 1 .6 1.6.6zm9.2 1.5c-.8 0-1.5-.2-2.1-.5a3.6 3.6 0 0 1-2-3.3c0-.8.2-1.4.5-2 .4-.6.9-1 1.5-1.4.6-.3 1.3-.5 2-.5a4 4 0 0 1 2 .5c.5.3 1 .7 1.2 1.3l-1.3.8a2 2 0 0 0-.8-.8 2 2 0 0 0-1-.3c-.7 0-1.3.2-1.7.7-.4.4-.6 1-.6 1.7s.2 1.2.6 1.7c.4.4 1 .6 1.6.6.4 0 .8 0 1-.3.4-.1.7-.4 1-.7l1.2.7a3 3 0 0 1-1.2 1.3 4 4 0 0 1-2 .5zm10.5-6h-2.6v5.9h-1.7v-6h-2.7v-1.5h7v1.5zm5 .9c1 0 1.7.2 2.2.6.6.5.8 1 .8 1.9 0 .8-.3 1.4-.8 1.9-.6.4-1.4.6-2.4.6h-3.5v-7.5h1.8v2.5h2zm-.3 3.7c.5 0 .9 0 1.1-.3.3-.2.4-.5.4-1 0-.4 0-.7-.4-.9a2 2 0 0 0-1.1-.3h-1.6v2.5h1.6zm-61.6 15.4c-.7 0-1.4-.2-2-.5a3.6 3.6 0 0 1-2-3.3c0-.8.2-1.4.5-2 .4-.6.9-1 1.5-1.4.6-.3 1.3-.5 2-.5a4 4 0 0 1 3.5 1.9 4.2 4.2 0 0 1 0 4c-.4.5-.8 1-1.4 1.3-.6.3-1.3.5-2 .5zm0-1.5c.7 0 1.2-.2 1.6-.6.4-.5.6-1 .6-1.7s-.2-1.3-.6-1.7a2 2 0 0 0-1.6-.7 2 2 0 0 0-1.6.7c-.4.4-.6 1-.6 1.7s.2 1.2.6 1.7c.4.4 1 .6 1.6.6zM187 152h-2.6v6h-1.8v-6H180v-1.5h7v1.5zm6.7 2.1c.9.3 1.3.9 1.3 1.8 0 .7-.2 1.2-.7 1.6-.5.3-1.3.5-2.2.5H188v-7.5h3.7c1 0 1.6.2 2.1.5.6.4.8.8.8 1.5 0 .3 0 .7-.3 1a2 2 0 0 1-.8.6zm-3.8-.5h1.8c1 0 1.4-.3 1.4-.9 0-.6-.4-.9-1.4-.9h-1.8v1.8zm2 3.1c1 0 1.5-.3 1.5-1 0-.2-.2-.5-.4-.6-.2-.2-.6-.3-1-.3h-2v2h2zm12-2.4v.5H198c.1.6.4 1 .8 1.3.5.4 1 .5 1.6.5.9 0 1.5-.3 2-.8l1 1c-.3.5-.8.8-1.3 1-.5.2-1 .3-1.7.3-.8 0-1.5-.2-2.2-.5a3.6 3.6 0 0 1-2-3.3c0-.8.2-1.4.6-2 .3-.6.8-1 1.3-1.4a4 4 0 0 1 2-.5c.8 0 1.4.2 2 .5.6.3 1 .8 1.3 1.4.3.6.5 1.2.5 2zm-3.8-2.5c-.5 0-1 .2-1.4.5a2 2 0 0 0-.7 1.4h4.2c0-.6-.3-1-.6-1.4a2 2 0 0 0-1.5-.5zm11.4.2h-2.6v6H207v-6h-2.6v-1.5h7v1.5zm4-1.6a4 4 0 0 1 2.6.8c.5.6.8 1.4.8 2.4v4.4h-1.6v-1a2 2 0 0 1-1 .8c-.3.2-.8.3-1.4.3-.5 0-1 0-1.4-.3-.5-.2-.8-.4-1-.8a2 2 0 0 1-.4-1.1c0-.7.3-1.3.8-1.7.5-.4 1.3-.6 2.4-.6h1.9c0-.6-.2-1-.5-1.3-.3-.3-.8-.4-1.4-.4a4 4 0 0 0-1.2.2 3 3 0 0 0-1 .5l-.7-1.2a3 3 0 0 1 1.4-.7c.5-.2 1.1-.3 1.7-.3zm-.2 6.4c.4 0 .8 0 1.2-.3l.7-.8v-1h-1.8c-1 0-1.5.4-1.5 1 0 .4 0 .7.3.8.3.2.6.3 1 .3zm160.7-5.7c-1 0-2-.2-2.8-.6a4.9 4.9 0 0 1-2.6-4.4 5 5 0 0 1 2.6-4.4 6 6 0 0 1 2.7-.6c1 0 2 .2 2.7.6a4.8 4.8 0 0 1 2.6 4.4 5 5 0 0 1-2.6 4.4 6 6 0 0 1-2.7.6zm0-1.6c.6 0 1.1-.1 1.7-.4.5-.3 1-.7 1.2-1.2.3-.6.5-1.1.5-1.8s-.2-1.2-.5-1.8c-.3-.5-.7-1-1.2-1.2-.6-.3-1.1-.4-1.8-.4a4 4 0 0 0-1.8.4c-.5.3-.9.7-1.2 1.2-.3.6-.4 1.1-.4 1.8s.1 1.2.4 1.8c.3.5.7 1 1.2 1.2a4 4 0 0 0 1.8.4zm11-5.6c.8 0 1.4.1 2 .4a3.7 3.7 0 0 1 1.7 3.1c0 .8-.2 1.4-.6 2-.3.5-.8 1-1.4 1.3-.6.3-1.3.4-2 .4-1.3 0-2.3-.4-3-1.2-.8-1-1.1-2.1-1.1-3.8a6 6 0 0 1 1-3.5c.6-1 1.6-1.5 2.9-1.8l3.5-.7.2 1.6-3.1.6a4 4 0 0 0-2 1 3 3 0 0 0-.8 1.8c.3-.4.7-.7 1.2-.9l1.5-.3zm-.3 5.8a2 2 0 0 0 1.6-.6c.4-.4.6-1 .6-1.6a2 2 0 0 0-.6-1.5c-.4-.4-1-.6-1.6-.6-.7 0-1.2.2-1.6.6a2 2 0 0 0-.6 1.5c0 .7.2 1.2.6 1.6.4.4 1 .6 1.6.6zm16.7-6.2v7.5h-11v-7.5h1.7v6h2.9v-6h1.7v6h3v-6h1.7zm1 6v3h-1.6V151h-1.2v-1.5h2.8zm8.3-2.2v.5h-5.9c.1.6.4 1 .8 1.3.5.4 1 .5 1.6.5.9 0 1.5-.3 2-.8l1 1c-.3.5-.8.8-1.3 1-.5.2-1 .3-1.7.3-.8 0-1.5-.2-2.2-.5a3.6 3.6 0 0 1-2-3.3c0-.8.2-1.4.6-2 .3-.6.8-1 1.3-1.4a4 4 0 0 1 2-.5c.8 0 1.4.2 2 .5.6.3 1 .8 1.3 1.4.3.6.5 1.2.5 2zm-3.8-2.5c-.5 0-1 .2-1.4.5a2 2 0 0 0-.7 1.4h4.2c0-.6-.3-1-.6-1.4a2 2 0 0 0-1.5-.5zm5.7-1.3h1.8v3h3.7v-3h1.8v7.5H420v-3h-3.7v3h-1.8v-7.5zm9.6 0h1.8v5l4.1-5h1.6v7.5H430v-5l-4.2 5h-1.6v-7.5zm16.9 3.8v.5h-6c.2.6.4 1 .9 1.3.4.4 1 .5 1.6.5.8 0 1.5-.3 2-.8l1 1a3 3 0 0 1-1.3 1c-.5.2-1.1.3-1.7.3-.9 0-1.6-.2-2.2-.5a3.6 3.6 0 0 1-2-3.3 3.8 3.8 0 0 1 1.9-3.4 4 4 0 0 1 2-.5c.7 0 1.4.2 2 .5.5.3 1 .8 1.3 1.4.3.6.5 1.2.5 2zm-3.8-2.5c-.6 0-1 .2-1.4.5a2 2 0 0 0-.7 1.4h4.2c0-.6-.3-1-.7-1.4a2 2 0 0 0-1.4-.5zm24.5-5.9c.7.2 1.1.5 1.5.9.3.4.4.9.4 1.5 0 .8-.3 1.5-1 2-.5.5-1.5.7-2.7.7h-4.6v-9.8h4.4c1 0 2 .2 2.5.7.7.4 1 1 1 1.8 0 .5-.2 1-.4 1.4l-1 .8zm-4.6-.5h2.4c.6 0 1-.1 1.4-.4.3-.2.4-.5.4-1s-.1-.8-.4-1c-.4-.3-.8-.4-1.4-.4h-2.4v2.8zm2.8 4.2c1.3 0 2-.5 2-1.5s-.7-1.4-2-1.4h-2.8v2.9h2.8zm9.3-3.6c1 0 1.6.2 2.1.6.5.5.8 1 .8 1.9 0 .8-.3 1.4-.8 1.9-.6.4-1.4.6-2.4.6h-3.4v-7.5h1.8v2.5h1.9zm3.9-2.5h1.7v7.5h-1.7v-7.5zm-4.3 6.2c.5 0 .9 0 1.1-.3.3-.2.4-.5.4-1 0-.4 0-.7-.4-.9a2 2 0 0 0-1.1-.3h-1.5v2.5h1.5zm14.7-6.2v7.5H482v-2.3h-2l-1.5 2.3h-1.9l1.8-2.5c-.5-.2-1-.5-1.2-.8-.3-.4-.5-1-.5-1.5 0-.8.3-1.5 1-2a4 4 0 0 1 2.5-.7h3.4zm-3.4 1.5c-1.1 0-1.7.4-1.7 1.3 0 .8.6 1.2 1.7 1.2h1.8V138h-1.8zm11.2 2.1c.9.3 1.3.9 1.3 1.8 0 .7-.2 1.2-.7 1.6-.5.3-1.3.5-2.3.5H486v-7.5h3.7c1 0 1.6.2 2.1.5.5.4.8.8.8 1.5 0 .3-.1.7-.3 1a2 2 0 0 1-.8.6zm-3.8-.5h1.8c1 0 1.4-.3 1.4-.9 0-.6-.5-.9-1.4-.9h-1.8v1.8zm2 3.1c1 0 1.4-.3 1.4-1 0-.2 0-.5-.3-.6-.2-.2-.6-.3-1-.3h-2.1v2h2zm11.8-6.2v7.5h-1.8v-6h-2.8v1.5c0 1-.2 1.8-.3 2.5-.1.6-.4 1.2-.7 1.6-.3.3-.8.5-1.3.5l-1-.1.1-1.5h.3c.4 0 .7 0 .8-.4l.4-1 .1-1.7.1-2.9h6zm9.3 3.8v.5h-5.9c.1.6.4 1 .8 1.3.5.4 1 .5 1.7.5.8 0 1.5-.3 2-.8l1 1a3 3 0 0 1-1.3 1c-.6.2-1.1.3-1.8.3-.8 0-1.5-.2-2.1-.5a3.6 3.6 0 0 1-2-3.3 3.8 3.8 0 0 1 1.9-3.4 4 4 0 0 1 2-.5c.7 0 1.3.2 1.9.5.6.3 1 .8 1.3 1.4.4.6.5 1.2.5 2zm-3.7-2.5c-.6 0-1 .2-1.5.5a2 2 0 0 0-.7 1.4h4.3c-.1-.6-.3-1-.7-1.4a2 2 0 0 0-1.4-.5zm5.7-1.3h1.7v3h3.8v-3h1.7v7.5h-1.7v-3h-3.8v3h-1.7v-7.5zm9.6 0h1.7v5l4.1-5h1.6v7.5H528v-5l-4.1 5h-1.6v-7.5zm16.8 3.8v.5h-5.9c.1.6.4 1 .8 1.3.4.4 1 .5 1.6.5.8 0 1.5-.3 2-.8l1 1c-.3.5-.8.8-1.3 1a5 5 0 0 1-3.9-.2 3.6 3.6 0 0 1-2-3.3c0-.8.2-1.4.5-2 .4-.6.8-1 1.4-1.4a4 4 0 0 1 2-.5c.7 0 1.4.2 2 .5a4 4 0 0 1 1.8 3.4zm-3.8-2.5c-.5 0-1 .2-1.4.5a2 2 0 0 0-.7 1.4h4.2c0-.6-.3-1-.7-1.4a2 2 0 0 0-1.4-.5zm-73 12.7v7.5h-1.7v-6H457v6h-1.7v-7.5h7.1zm5.7 7.6c-.7 0-1.4-.2-2-.5a3.6 3.6 0 0 1-2-3.3c0-.8.2-1.4.6-2 .3-.6.8-1 1.4-1.4.6-.3 1.3-.5 2-.5.8 0 1.5.2 2.1.5.6.4 1 .8 1.4 1.4.4.6.5 1.2.5 2a3.5 3.5 0 0 1-1.9 3.3c-.6.3-1.3.5-2 .5zm0-1.5c.7 0 1.2-.2 1.6-.6.5-.5.7-1 .7-1.7s-.2-1.3-.7-1.7a2 2 0 0 0-1.6-.7c-.6 0-1.1.2-1.6.7-.4.4-.6 1-.6 1.7s.2 1.2.6 1.7c.5.4 1 .6 1.6.6zm11.4-4.6h-2.6v6H475v-6h-2.6v-1.5h7v1.5zm5.4-1.6a4 4 0 0 1 2 .5 4 4 0 0 1 1.8 3.3 4 4 0 0 1-.5 2 3 3 0 0 1-1.3 1.4 4 4 0 0 1-2 .5 3 3 0 0 1-2.4-1v3.6h-1.7v-10.2h1.6v1c.3-.4.7-.6 1.1-.8.4-.2 1-.3 1.4-.3zm-.2 6.2a2 2 0 0 0 1.6-.6c.4-.5.6-1 .6-1.7s-.2-1.3-.6-1.7a2 2 0 0 0-1.6-.7 2 2 0 0 0-1.1.3 2 2 0 0 0-.8.8c-.2.4-.3.8-.3 1.3 0 .4 0 .8.3 1.2l.8.8c.3.2.7.3 1.1.3zm12.8-2.3v.5h-6c.2.6.4 1 .9 1.3.4.4 1 .5 1.6.5.8 0 1.5-.3 2-.8l1 1a3 3 0 0 1-1.3 1c-.5.2-1.1.3-1.8.3-.8 0-1.5-.2-2.1-.5a3.6 3.6 0 0 1-2-3.3 3.8 3.8 0 0 1 1.9-3.4 4 4 0 0 1 2-.5 5 5 0 0 1 2 .5c.5.3 1 .8 1.3 1.4.3.6.5 1.2.5 2zm-3.8-2.5c-.6 0-1 .2-1.5.5a2 2 0 0 0-.7 1.4h4.3c0-.6-.3-1-.7-1.4a2 2 0 0 0-1.4-.5zm9.7-1c.7 0 1.3.2 1.9.5.5.3 1 .8 1.3 1.3.3.6.4 1.2.4 1.9s-.2 1.3-.5 1.9c-.3.5-.8 1-1.4 1.3-.6.3-1.3.4-2 .4-1.4 0-2.4-.4-3-1.2-.8-1-1.2-2.1-1.2-3.8a6 6 0 0 1 1-3.5c.7-1 1.6-1.5 3-1.8l3.4-.7.3 1.6-3.2.6a4 4 0 0 0-2 1 3 3 0 0 0-.8 1.8l1.2-.9c.5-.2 1-.3 1.6-.3zm-.3 6a2 2 0 0 0 1.5-.7c.4-.4.6-1 .6-1.6a2 2 0 0 0-.6-1.5 2 2 0 0 0-1.5-.6c-.7 0-1.2.2-1.6.6a2 2 0 0 0-.6 1.5c0 .7.2 1.2.6 1.6.4.4 1 .6 1.6.6zm5.6-6.3h1.8v3h3.7v-3h1.8v7.5H514v-3h-3.7v3h-1.8v-7.5zm13 7.6c-.8 0-1.5-.2-2.1-.5a3.6 3.6 0 0 1-2-3.3c0-.8.2-1.4.6-2 .3-.6.8-1 1.4-1.4.6-.3 1.3-.5 2-.5.8 0 1.5.2 2.1.5a3.8 3.8 0 0 1 2 3.3c0 .8-.2 1.5-.6 2-.3.6-.8 1-1.4 1.4-.6.3-1.3.5-2 .5zm0-1.5a2 2 0 0 0 1.5-.6c.5-.5.7-1 .7-1.7s-.2-1.3-.7-1.7a2 2 0 0 0-1.6-.7c-.6 0-1.1.2-1.5.7-.5.4-.7 1-.7 1.7s.2 1.2.7 1.7c.4.4.9.6 1.5.6zm9 1.5c-.7 0-1.4-.2-2-.5a3.6 3.6 0 0 1-2-3.3c0-.8.2-1.4.5-2 .4-.6.9-1 1.5-1.4.6-.3 1.3-.5 2-.5a4 4 0 0 1 2 .5c.6.3 1 .7 1.3 1.3l-1.4.8a2 2 0 0 0-.8-.8 2 2 0 0 0-1-.3 2.2 2.2 0 0 0-2.3 2.4c0 .7.2 1.2.6 1.7.4.4 1 .6 1.7.6.3 0 .7 0 1-.3.3-.1.6-.4.8-.7l1.4.7a3 3 0 0 1-1.3 1.3 4 4 0 0 1-2 .5zm10.7-6h-2.7v5.9H537v-6h-2.6v-1.5h7v1.5zm7.9 2.2v.5h-5.9c.1.6.4 1 .8 1.3.4.4 1 .5 1.6.5.8 0 1.5-.3 2-.8l1 1c-.3.5-.8.8-1.3 1a5 5 0 0 1-3.9-.2 3.6 3.6 0 0 1-2-3.3c0-.8.2-1.4.5-2 .4-.6.8-1 1.4-1.4a4 4 0 0 1 2-.5c.7 0 1.4.2 2 .5a4 4 0 0 1 1.8 3.4zm-3.8-2.5c-.5 0-1 .2-1.4.5a2 2 0 0 0-.7 1.4h4.2c0-.6-.3-1-.7-1.4a2 2 0 0 0-1.4-.5zm5.7-1.3h1.8v5l4-5h1.7v7.5h-1.8v-5l-4 5H551v-7.5zm3.6-.9c-.7 0-1.3-.1-1.7-.5-.4-.3-.6-.8-.6-1.5h1.2c0 .3 0 .6.3.8.2.2.5.3.8.3.4 0 .7-.1.9-.3.2-.2.3-.5.3-.8h1.2c0 .7-.2 1.2-.6 1.5-.4.4-1 .5-1.8.5zM270 141.2v9.8h-1.7v-8.3h-5.1v8.3h-1.8v-9.8h8.7zm6.8 2.2a4 4 0 0 1 2 .5 4 4 0 0 1 1.8 3.3 4 4 0 0 1-.5 2c-.4.7-.8 1.1-1.4 1.4a4 4 0 0 1-2 .5 3 3 0 0 1-2.3-1v3.6h-1.8v-10.2h1.7v1c.3-.4.6-.6 1-.8l1.5-.3zm-.2 6.2a2 2 0 0 0 1.5-.6c.5-.5.7-1 .7-1.7s-.2-1.3-.7-1.7a2 2 0 0 0-1.5-.7c-.5 0-.8.1-1.2.3a2 2 0 0 0-.8.8c-.2.4-.3.8-.3 1.3l.3 1.2.8.8c.4.2.7.3 1.2.3zm5.7-6h1.7v4.9l4.2-5h1.6v7.5H288v-5l-4 5h-1.7v-7.5zm15.2 3.5c1 .3 1.4.9 1.4 1.8 0 .7-.2 1.2-.7 1.6-.5.3-1.3.5-2.3.5h-3.8v-7.5h3.7a4 4 0 0 1 2.1.5c.5.4.8.8.8 1.5 0 .3-.1.7-.3 1a2 2 0 0 1-.9.6zm-3.7-.5h1.8c1 0 1.4-.3 1.4-.9 0-.6-.5-.9-1.4-.9h-1.8v1.8zm2 3.1c1 0 1.4-.3 1.4-1 0-.2 0-.5-.3-.6-.2-.2-.6-.3-1-.3h-2.1v2h2zm12-2.4v.5h-5.9c.1.6.4 1 .8 1.3.4.4 1 .5 1.6.5.8 0 1.5-.3 2-.8l1 1c-.3.5-.8.8-1.3 1a5 5 0 0 1-3.9-.2 3.6 3.6 0 0 1-2-3.3c0-.8.2-1.4.5-2 .4-.6.8-1 1.4-1.4a4 4 0 0 1 2-.5c.7 0 1.4.2 2 .5a4 4 0 0 1 1.8 3.4zm-3.8-2.5c-.5 0-1 .2-1.4.5a2 2 0 0 0-.7 1.4h4.2c0-.6-.3-1-.7-1.4a2 2 0 0 0-1.4-.5zm11.4.2h-2.7v6H311v-6h-2.6v-1.5h7v1.5zm4.3 6.1a4 4 0 0 1-2-.5 3.6 3.6 0 0 1-2-3.3 3.6 3.6 0 0 1 2-3.3c.5-.4 1.2-.6 2-.6a4 4 0 0 1 2 .5c.5.3 1 .7 1.2 1.3l-1.3.8a2 2 0 0 0-.9-.8c-.3-.2-.6-.3-1-.3a2.2 2.2 0 0 0-2.3 2.4c0 .7.2 1.2.7 1.7.4.4 1 .6 1.6.6.4 0 .7 0 1-.3.4-.1.6-.4.9-.7l1.3.7a3 3 0 0 1-1.3 1.3 4 4 0 0 1-1.9.5zm10.6-6h-2.6v5.9h-1.8v-6h-2.6v-1.5h7v1.5zm6.7 2c.9.3 1.4.9 1.4 1.8a2 2 0 0 1-.8 1.6c-.5.3-1.2.5-2.2.5h-3.8v-7.5h3.6c1 0 1.6.2 2.2.5.5.4.7.8.7 1.5 0 .3 0 .7-.3 1a2 2 0 0 1-.8.6zm-3.8-.5h1.9c.9 0 1.3-.3 1.3-.9 0-.6-.4-.9-1.3-.9h-1.9v1.8zm2 3.1c1 0 1.5-.3 1.5-1 0-.2-.1-.5-.4-.6-.2-.2-.5-.3-1-.3h-2v2h2zm5-6.2h1.8v5l4.1-5h1.6v7.5H346v-5l-4.2 5h-1.6v-7.5zm16.9 3.8v.5h-6c.2.6.4 1 .9 1.3.4.4 1 .5 1.6.5.8 0 1.5-.3 2-.8l1 1a3 3 0 0 1-1.3 1c-.5.2-1.1.3-1.8.3-.8 0-1.5-.2-2.1-.5a3.6 3.6 0 0 1-2-3.3 3.8 3.8 0 0 1 1.9-3.4 4 4 0 0 1 2-.5c.7 0 1.4.2 2 .5a4 4 0 0 1 1.8 3.4zm-3.8-2.5c-.6 0-1 .2-1.5.5a2 2 0 0 0-.7 1.4h4.3c0-.6-.3-1-.7-1.4a2 2 0 0 0-1.4-.5zm225-2.8c1 0 1.8.3 2.5.7a4 4 0 0 1 1.8 1.8c.5.8.7 1.6.7 2.6s-.2 1.8-.7 2.6a4 4 0 0 1-1.8 1.8 6 6 0 0 1-4.8.2c-.7-.3-1.2-.7-1.7-1.2l1.2-1.1c.7.8 1.6 1.1 2.7 1.1a3 3 0 0 0 2.1-.7c.6-.5 1-1.2 1-2H577v-1.5h4.4c-.2-.8-.6-1.4-1.1-2a3 3 0 0 0-2.1-.6c-1.1 0-2 .3-2.7 1.1l-1.2-1.1c.5-.5 1-1 1.7-1.2a6 6 0 0 1 2.3-.4zm10 7h-1.4v3H585v-7.5h1.8v3h1.4l2.2-3h1.9l-2.8 3.6 3 3.9h-2.1l-2.3-3zm8.6 3.1c-.7 0-1.4-.2-2-.5a3.6 3.6 0 0 1-2-3.3 3.8 3.8 0 0 1 1.9-3.4c.6-.3 1.3-.5 2.1-.5a4 4 0 0 1 2 .5c.5.3 1 .7 1.2 1.3l-1.3.8a2 2 0 0 0-.8-.8l-1-.3a2.2 2.2 0 0 0-2.4 2.4c0 .7.3 1.2.7 1.7.4.4 1 .6 1.6.6.4 0 .7 0 1-.3.4-.1.7-.4.9-.7l1.3.7a3 3 0 0 1-1.3 1.3 4 4 0 0 1-1.9.5zm12-7.6v7.5H607v-6h-3.7v6h-1.7v-7.5h7.1zm9.3 3.8v.5h-6c.2.6.5 1 .9 1.3.4.4 1 .5 1.6.5.8 0 1.5-.3 2-.8l1 1a3 3 0 0 1-1.3 1 5 5 0 0 1-3.9-.2 3.6 3.6 0 0 1-2-3.3c0-.8.2-1.4.5-2 .4-.6.8-1 1.4-1.4a4 4 0 0 1 2-.5c.7 0 1.4.2 2 .5.5.3 1 .8 1.3 1.4.3.6.5 1.2.5 2zm-3.8-2.5c-.6 0-1 .2-1.4.5a2 2 0 0 0-.7 1.4h4.2c0-.6-.3-1-.7-1.4a2 2 0 0 0-1.4-.5zm9.8-1.4a4 4 0 0 1 2 .5c.6.3 1 .8 1.3 1.4.4.5.5 1.2.5 2a4 4 0 0 1-.5 2c-.3.6-.7 1-1.3 1.3a4 4 0 0 1-2 .5 3 3 0 0 1-2.3-1v3.6H620v-10.2h1.7v1c.3-.4.6-.6 1-.8l1.4-.3zm-.2 6.2a2 2 0 0 0 1.6-.6c.5-.5.7-1 .7-1.7s-.2-1.3-.7-1.7a2 2 0 0 0-1.6-.7c-.4 0-.7.1-1 .3a2 2 0 0 0-.9.8c-.2.4-.3.8-.3 1.3l.3 1.2.8.8c.4.2.7.3 1.1.3zm11.4-4.6h-2.6v6h-1.7v-6h-2.7v-1.5h7v1.5zm1.3-1.5h1.7v3h3.8v-3h1.8v7.5h-1.8v-3h-3.8v3h-1.7v-7.5zm13 7.6c-.8 0-1.5-.2-2.1-.5a3.6 3.6 0 0 1-2-3.3c0-.8.2-1.4.6-2 .3-.6.8-1 1.4-1.4.6-.3 1.3-.5 2-.5.8 0 1.5.2 2.1.5a3.8 3.8 0 0 1 2 3.3c0 .8-.2 1.5-.6 2-.3.6-.8 1-1.4 1.4-.6.3-1.3.5-2 .5zm0-1.5a2 2 0 0 0 1.5-.6c.5-.5.7-1 .7-1.7s-.2-1.3-.7-1.7a2 2 0 0 0-1.6-.7c-.6 0-1.1.2-1.6.7-.4.4-.6 1-.6 1.7s.2 1.2.6 1.7c.5.4 1 .6 1.6.6zm9 1.5c-.7 0-1.4-.2-2-.5a3.6 3.6 0 0 1-2-3.3c0-.8.2-1.4.5-2 .4-.6.9-1 1.5-1.4.6-.3 1.3-.5 2-.5a4 4 0 0 1 2 .5c.6.3 1 .7 1.3 1.3l-1.4.8a2 2 0 0 0-.8-.8 2 2 0 0 0-1-.3 2.2 2.2 0 0 0-2.3 2.4c0 .7.2 1.2.6 1.7.4.4 1 .6 1.6.6.4 0 .8 0 1.1-.3.3-.1.6-.4.8-.7l1.4.7a3 3 0 0 1-1.3 1.3 4 4 0 0 1-2 .5zm10.6-6h-2.6v5.9H665v-6h-2.6v-1.5h7v1.5zm5 .9c1 0 1.8.2 2.3.6.5.5.7 1 .7 1.9 0 .8-.3 1.4-.8 1.9-.6.4-1.4.6-2.4.6h-3.5v-7.5h1.8v2.5h2zm-.3 3.7c.5 0 .9 0 1.1-.3.3-.2.4-.5.4-1 0-.4 0-.7-.3-.9a2 2 0 0 0-1.2-.3h-1.6v2.5h1.6zm141.4-8.5h7.6v1.5h-5.8v2.4h2.9c1.2 0 2 .3 2.6.7.7.5 1 1.2 1 2.2 0 1-.4 1.7-1 2.2a5 5 0 0 1-2.9.8h-4.4v-9.8zm4.3 8.4c.7 0 1.2-.1 1.6-.4.4-.3.5-.7.5-1.2 0-1-.7-1.5-2.1-1.5h-2.5v3.1h2.5zm9.1 1.5c-.8 0-1.4-.2-2-.5a3.6 3.6 0 0 1-2-3.3c0-.8.2-1.4.5-2 .4-.6.9-1 1.5-1.4a4.2 4.2 0 0 1 5.5 1.4 4.2 4.2 0 0 1 0 4c-.4.5-.8 1-1.4 1.3-.6.3-1.3.5-2.1.5zm0-1.5c.6 0 1.2-.2 1.6-.6.4-.5.6-1 .6-1.7s-.2-1.3-.6-1.7a2 2 0 0 0-1.6-.7 2 2 0 0 0-1.6.7c-.4.4-.6 1-.6 1.7s.2 1.2.6 1.7c.4.4 1 .6 1.6.6zm5.7-6h1.8v3h3.7v-3h1.8v7.4H840v-3h-3.7v3h-1.8v-7.5zm16.7 0l-3.5 8c-.3.8-.7 1.4-1.2 1.7-.5.3-1 .5-1.7.5-.4 0-.7 0-1.1-.2-.4 0-.7-.3-.9-.5l.7-1.3a2 2 0 0 0 1.3.6c.3 0 .6-.1.7-.3.3-.1.4-.4.6-.8l.1-.3-3.2-7.5h1.8l2.3 5.6 2.4-5.6h1.7zm4.4 7.5a4 4 0 0 1-2-.5 3.6 3.6 0 0 1-2-3.3 3.6 3.6 0 0 1 2-3.3c.5-.4 1.2-.6 2-.6a4 4 0 0 1 2 .5c.5.3 1 .7 1.2 1.3l-1.4.8a2 2 0 0 0-.8-.8c-.3-.2-.6-.3-1-.3-.7 0-1.2.2-1.6.7-.5.4-.7 1-.7 1.7s.2 1.2.6 1.7c.5.4 1 .6 1.7.6.4 0 .7 0 1-.3.4-.1.6-.4.8-.7l1.4.7a3 3 0 0 1-1.3 1.3 4 4 0 0 1-1.9.5zm8.4-5.1c1 0 1.7.2 2.2.6.5.5.7 1 .7 1.9 0 .8-.3 1.4-.8 1.9-.6.4-1.4.6-2.4.6h-3.4v-7.5h1.8v2.5h1.9zm3.9-2.5h1.7v7.5H868v-7.5zm-4.3 6.2c.5 0 .9 0 1.1-.3.3-.2.4-.5.4-1 0-.4 0-.7-.3-.9a2 2 0 0 0-1.2-.3H862v2.5h1.5zm33.4-15.5v9.8h-1.7v-8.3h-5.1v8.3h-1.8v-9.8h8.7zm9.6 6.1v.5h-5.9c.1.6.4 1 .8 1.3.5.4 1 .5 1.6.5.9 0 1.5-.3 2-.8l1 1c-.3.5-.7.8-1.3 1-.5.2-1 .3-1.7.3-.8 0-1.5-.2-2.2-.5a3.6 3.6 0 0 1-2-3.3c0-.8.2-1.4.6-2 .3-.6.8-1 1.4-1.4a4 4 0 0 1 2-.5c.7 0 1.3.2 1.9.5.6.3 1 .8 1.3 1.4.4.6.5 1.2.5 2zm-3.8-2.5c-.5 0-1 .2-1.4.5a2 2 0 0 0-.7 1.4h4.3c-.1-.6-.4-1-.7-1.4a2 2 0 0 0-1.5-.5zm9.9-1.4a4 4 0 0 1 2 .5 4 4 0 0 1 1.8 3.3 4 4 0 0 1-.5 2c-.3.7-.8 1.1-1.4 1.4a4 4 0 0 1-2 .5 3 3 0 0 1-2.3-1v3.6h-1.8v-10.2h1.7v1c.3-.4.6-.6 1-.8l1.5-.3zm-.2 6.2a2 2 0 0 0 1.6-.6c.4-.5.6-1 .6-1.7s-.2-1.3-.6-1.7a2 2 0 0 0-1.6-.7l-1.2.3a2 2 0 0 0-.8.8l-.2 1.3c0 .4 0 .8.2 1.2l.8.8 1.2.3zm12.7-2.3v.5h-5.9c.1.6.4 1 .8 1.3.5.4 1 .5 1.6.5.9 0 1.5-.3 2-.8l1 1c-.3.5-.8.8-1.3 1-.5.2-1 .3-1.7.3-.8 0-1.5-.2-2.2-.5a3.6 3.6 0 0 1-2-3.3c0-.8.2-1.4.6-2 .3-.6.8-1 1.3-1.4a4 4 0 0 1 2-.5c.8 0 1.4.2 2 .5.6.3 1 .8 1.3 1.4.3.6.5 1.2.5 2zm-3.8-2.5c-.5 0-1 .2-1.4.5a2 2 0 0 0-.7 1.4h4.2c0-.6-.3-1-.6-1.4a2 2 0 0 0-1.5-.5zm10.2 6.2l-2-2.6-1.9 2.6h-1.9l3-3.8-2.9-3.7h2l1.8 2.5 1.9-2.5h1.8l-2.8 3.7 3 3.8h-2zm6.3.1c-.7 0-1.4-.2-2-.5a3.6 3.6 0 0 1-2-3.3c0-.8.2-1.4.5-2 .4-.6.9-1 1.5-1.4.6-.3 1.3-.5 2-.5a4 4 0 0 1 3.5 1.9 4.2 4.2 0 0 1 0 4c-.4.5-.8 1-1.4 1.3-.6.3-1.3.5-2 .5zm0-1.5c.7 0 1.2-.2 1.6-.6.4-.5.6-1 .6-1.7s-.2-1.3-.6-1.7a2 2 0 0 0-1.6-.7 2 2 0 0 0-1.6.7c-.4.4-.6 1-.6 1.7s.2 1.2.6 1.7c.4.4 1 .6 1.6.6zm13.6 0v3H950V145h-6v1.7h-1.6v-3.2h.3c.5 0 .8-.3 1-.9.2-.6.3-1.4.4-2.5v-2.6h6.2v6h1.1zm-5.7-3.4c0 .9-.1 1.6-.3 2.1 0 .6-.2 1-.5 1.2h3.7V139h-2.9v1.2zm-52.2 15c1 .2 1.4.8 1.4 1.7a2 2 0 0 1-.8 1.6c-.5.3-1.2.5-2.2.5h-3.8v-7.5h3.6c1 0 1.7.2 2.2.5.5.4.7.8.7 1.5 0 .3 0 .7-.3 1a2 2 0 0 1-.8.6zm-3.8-.6h1.9c.9 0 1.3-.3 1.3-.9 0-.6-.4-.9-1.3-.9h-1.9v1.8zm2 3.1c1 0 1.5-.3 1.5-1 0-.2-.1-.5-.3-.6-.3-.2-.6-.3-1.1-.3h-2v2h2zm16-6.2v7.5h-1.7v-6h-3.6v6h-1.8v-7.5h7.2zm6.6 0a4 4 0 0 1 2 .4 4 4 0 0 1 1.8 3.3 4 4 0 0 1-.5 2c-.3.7-.8 1.1-1.4 1.4a4 4 0 0 1-2 .5 3 3 0 0 1-2.3-1v3.6h-1.8v-10.2h1.7v1c.3-.4.7-.6 1-.8l1.5-.3zm-.2 6.1a2 2 0 0 0 1.6-.6c.4-.5.6-1 .6-1.7s-.2-1.3-.6-1.7a2 2 0 0 0-1.6-.7 2 2 0 0 0-1.1.3 2 2 0 0 0-.8.8c-.2.4-.3.8-.3 1.3 0 .4 0 .8.3 1.2.2.3.4.6.8.8.3.2.7.3 1 .3zm9 1.5c-.7 0-1.4-.2-2-.5a3.6 3.6 0 0 1-2-3.3c0-.8.2-1.4.6-2 .3-.6.8-1 1.4-1.4.6-.3 1.3-.5 2-.5.8 0 1.5.2 2.1.5a3.8 3.8 0 0 1 2 3.3c0 .8-.2 1.5-.6 2-.3.6-.8 1-1.4 1.4-.6.3-1.3.5-2 .5zm0-1.5c.7 0 1.2-.2 1.6-.6.5-.5.7-1 .7-1.7s-.2-1.3-.6-1.7c-.5-.5-1-.7-1.6-.7-.7 0-1.2.2-1.6.7-.5.4-.7 1-.7 1.7s.2 1.2.7 1.7c.4.4 1 .6 1.6.6zm13.7 0v3h-1.7V159h-5.7v1.7h-1.7v-3.2h.4c.5 0 .8-.3 1-.9.1-.6.3-1.4.3-2.5l.1-2.6h6.2v6h1zm-5.8-3.4l-.2 2.1c-.1.6-.3 1-.6 1.2h3.7V153h-2.9v1.2zm10.1-2.8c1.1 0 2 .3 2.5.8.6.6 1 1.4 1 2.4v4.4H943v-1a2 2 0 0 1-1 .8c-.3.2-.8.3-1.4.3-.5 0-1 0-1.5-.3-.4-.2-.7-.4-1-.8a2 2 0 0 1-.3-1.1c0-.7.3-1.3.8-1.7.5-.4 1.3-.6 2.3-.6h2c0-.6-.2-1-.5-1.3-.3-.3-.8-.4-1.4-.4a4 4 0 0 0-1.2.2 3 3 0 0 0-1 .5l-.7-1.2c.3-.3.8-.6 1.4-.7.5-.2 1.1-.3 1.7-.3zm-.2 6.4c.4 0 .8 0 1.1-.3.4-.2.6-.5.8-.8v-1H941c-1 0-1.5.4-1.5 1 0 .4 0 .7.3.8.3.2.6.3 1 .3zm12.9-1.8h-1.3v3H951v-3h-1.3l-1.8 3h-2l2.4-3.9-2.3-3.6h1.9l1.8 3h1.3v-3h1.7v3h1.3l1.8-3h1.9l-2.3 3.6 2.5 3.9h-2l-2-3zm11.8-4.5l-3.5 8.1c-.3.8-.7 1.4-1.2 1.7-.4.3-1 .5-1.7.5-.3 0-.7 0-1-.2-.4 0-.7-.3-1-.5l.7-1.3a2 2 0 0 0 1.3.6c.3 0 .6-.1.8-.3.2-.1.4-.4.5-.8l.2-.3-3.3-7.5h1.8l2.4 5.6 2.3-5.6h1.7zm-267.8-1.8h-5l-.9 2.3h-1.9l4.4-9.8h1.8l4.5 9.8h-2l-1-2.3zm-.6-1.4l-1.9-4.3-1.8 4.3h3.7zm7.9.7h-1.4v3h-1.7v-7.5h1.7v3h1.4l2.2-3h1.9l-2.7 3.6 2.9 3.9h-2l-2.3-3zm13.7 1.5v3.2h-1.6V152h-6.6v-7.5h1.8v6h3.5v-6h1.8v6h1.1zm8.6-2.2v.5h-6c.2.6.4 1 .9 1.3.4.4 1 .5 1.6.5.8 0 1.5-.3 2-.8l1 1a3 3 0 0 1-1.3 1c-.5.2-1.1.3-1.7.3-.9 0-1.6-.2-2.2-.5a3.6 3.6 0 0 1-2-3.3c0-.8.2-1.4.5-2 .4-.6.8-1 1.4-1.4a4 4 0 0 1 2-.5c.7 0 1.4.2 2 .5.5.3 1 .8 1.3 1.4.3.6.5 1.2.5 2zm-3.8-2.5c-.6 0-1 .2-1.4.5a2 2 0 0 0-.7 1.4h4.2c0-.6-.3-1-.7-1.4a2 2 0 0 0-1.4-.5zm5.7-1.3h1.7v3h3.8v-3h1.8v7.5h-1.8v-3h-3.8v3h-1.7v-7.5zm15.5 1.5h-2.6v6h-1.7v-6h-2.7v-1.5h7v1.5zm33.9-3.8l-4.3 8c-.3.6-.8 1.1-1.3 1.5a3 3 0 0 1-1.7.5c-.5 0-1 0-1.4-.3l.4-1.4 1 .2c.6 0 1-.3 1.4-1l.2-.2-4-7.3h2l3 5.8 2.9-5.8h1.8zm8.4 1.5H784v8.3h-1.8v-8.3h-3.3v-1.5h8.3v1.5zm10.3-1.5v9.8h-1.8v-8.3h-5v8.3h-1.9v-9.8h8.7zm183.5 5.7h-1.8v4.1h-1.8v-9.8h1.8v4.1h1.8l2.9-4.1h1.9l-3.4 4.7 3.5 5.1h-2l-3-4.1zm13-3.4l-3.6 8.1c-.3.8-.7 1.4-1.2 1.7-.4.3-1 .5-1.7.5-.3 0-.7 0-1-.2-.4 0-.7-.3-1-.5l.7-1.3a2 2 0 0 0 1.3.6c.3 0 .6-.1.8-.3.2-.1.4-.4.5-.8l.2-.3-3.3-7.5h1.8l2.4 5.6 2.3-5.6h1.7zm8.3 0v7.5h-1.7v-6h-3.7v6H995v-7.5h7.2zm2.4 0h1.7v5l4.1-5h1.6v7.5h-1.7v-5l-4.1 5h-1.6v-7.5zm16.6 0v7.5h-1.8v-6h-2.8v1.5l-.3 2.5c-.2.6-.4 1.2-.7 1.6-.3.3-.8.5-1.3.5a4 4 0 0 1-1-.1v-1.5h.4c.4 0 .6 0 .8-.4l.4-1v-1.7l.2-2.9h6zm10.2.4c.7 0 1.4.1 2 .4a3.7 3.7 0 0 1 1.7 3.1c0 .8-.2 1.4-.6 2-.3.5-.8 1-1.4 1.3-.6.3-1.3.4-2 .4-1.4 0-2.4-.4-3-1.2-.8-1-1.1-2.1-1.1-3.8a6 6 0 0 1 1-3.5c.6-1 1.6-1.5 2.9-1.8l3.5-.7.2 1.6-3.1.6a4 4 0 0 0-2 1 3 3 0 0 0-.8 1.8c.3-.4.7-.7 1.2-.9.4-.2 1-.3 1.5-.3zm-.3 5.8a2 2 0 0 0 1.5-.6c.4-.4.6-1 .6-1.6a2 2 0 0 0-.6-1.5 2 2 0 0 0-1.5-.6c-.7 0-1.2.2-1.6.6a2 2 0 0 0-.6 1.5c0 .7.2 1.2.6 1.6.4.4 1 .6 1.6.6zm9.3-3.7c1 0 1.7.2 2.2.6.5.5.7 1 .7 1.9 0 .8-.3 1.4-.8 1.9-.6.4-1.4.6-2.4.6h-3.4v-7.5h1.8v2.5h1.9zm3.9-2.5h1.7v7.5h-1.7v-7.5zm-4.3 6.2c.5 0 .9 0 1.1-.3.3-.2.4-.5.4-1 0-.4 0-.7-.3-.9a2 2 0 0 0-1.2-.3h-1.5v2.5h1.5zm10.6-2c0-.5 0-.9.3-1.2l1-1 .8-.9.2-.7c0-.4-.1-.7-.5-1a2 2 0 0 0-1.2-.3c-1 0-1.8.3-2.3 1l-1.4-.8c.4-.6 1-1 1.6-1.3a5 5 0 0 1 2.2-.4c1 0 1.9.2 2.5.6.6.5 1 1.1 1 2l-.2 1a3 3 0 0 1-.5.7l-.7.6-.8.9c-.2.2-.2.5-.2.9h-1.8zm.9 3.4c-.3 0-.6-.1-.8-.3-.2-.2-.3-.5-.3-.8 0-.3 0-.6.3-.8.2-.2.5-.3.8-.3a1 1 0 0 1 1 1.1c0 .3 0 .6-.2.8a1 1 0 0 1-.8.3z" fill="#246EDE"/></g><rect x="103" y="234" width="721" height="276" rx="20" fill="#fff"/><g opacity=".5"><rect opacity=".1" x="113" y="224" width="725" height="276" rx="20" fill="#246EDE"/><rect x="103" y="234" width="721" height="276" rx="20" fill="#fff"/><rect x="103.5" y="234.5" width="720" height="275" rx="19.5" stroke="#246EDE" stroke-opacity=".3"/><path opacity=".2" d="M207 296a4 4 0 0 0-4-4h-58a4 4 0 0 0 0 8h58a4 4 0 0 0 4-4zm0 53a4 4 0 0 0-4-4h-58a4 4 0 0 0 0 8h58a4 4 0 0 0 4-4zm-17 108a4 4 0 0 0-4-4h-41a4 4 0 0 0 0 8h41a4 4 0 0 0 4-4zm-32-50a4 4 0 0 0-4-4h-9a4 4 0 0 0 0 8h9a4 4 0 0 0 4-4zm79-111a4 4 0 0 0-4-4h-9a4 4 0 0 0 0 8h9a4 4 0 0 0 4-4zm180 0a4 4 0 0 0-4-4h-10a4 4 0 0 0 0 8h10a4 4 0 0 0 4-4zm345 0a4 4 0 0 0-4-4h-10a4 4 0 0 0 0 8h10a4 4 0 0 0 4-4zm-245 51a4 4 0 0 0-4-4h-10a4 4 0 0 0 0 8h10a4 4 0 0 0 4-4zm-266 0a4 4 0 0 0-4-4h-23a4 4 0 0 0 0 8h23a4 4 0 0 0 4-4zm180 0a4 4 0 0 0-4-4h-24a4 4 0 0 0 0 8h24a4 4 0 0 0 4-4zm345 0a4 4 0 0 0-4-4h-24a4 4 0 0 0 0 8h24a4 4 0 0 0 4-4zm-539 65a4 4 0 0 1-4 4h-9a4 4 0 0 1 0-8h9a4 4 0 0 1 4 4zm180 0a4 4 0 0 1-4 4h-10a4 4 0 0 1 0-8h10a4 4 0 0 1 4 4zm345 0a4 4 0 0 1-4 4h-10a4 4 0 0 1 0-8h10a4 4 0 0 1 4 4zm-243 50a4 4 0 0 1-4 4h-10a4 4 0 0 1 0-8h10a4 4 0 0 1 4 4zm-275-16a4 4 0 0 0-4-4h-16a4 4 0 0 0 0 8h16a4 4 0 0 0 4-4zm180 0a4 4 0 0 0-4-4h-17a4 4 0 0 0 0 8h17a4 4 0 0 0 4-4zm345 0a4 4 0 0 0-4-4h-17a4 4 0 0 0 0 8h17a4 4 0 0 0 4-4zm-244-50a4 4 0 0 0-4-4h-17a4 4 0 0 0 0 8h17a4 4 0 0 0 4-4zm-1-101a4 4 0 0 0-4-4h-17a4 4 0 0 0 0 8h17a4 4 0 0 0 4-4zM196 407a4 4 0 0 0-4-4h-23a4 4 0 0 0 0 8h23a4 4 0 0 0 4-4zm79-111a4 4 0 0 0-4-4h-23a4 4 0 0 0 0 8h23a4 4 0 0 0 4-4zm181 0a4 4 0 0 0-4-4h-24a4 4 0 0 0 0 8h24a4 4 0 0 0 4-4zm345 0a4 4 0 0 0-4-4h-24a4 4 0 0 0 0 8h24a4 4 0 0 0 4-4zm-245 51a4 4 0 0 0-4-4h-24a4 4 0 0 0 0 8h24a4 4 0 0 0 4-4zm-281 0a4 4 0 0 0-4-4h-11a4 4 0 0 0 0 8h11a4 4 0 0 0 4-4zm181 0a4 4 0 0 0-4-4h-12a4 4 0 0 0 0 8h12a4 4 0 0 0 4-4zm345 0a4 4 0 0 0-4-4h-12a4 4 0 0 0 0 8h12a4 4 0 0 0 4-4zm-526 65a4 4 0 0 1-4 4h-23a4 4 0 0 1 0-8h23a4 4 0 0 1 4 4zm181 0a4 4 0 0 1-4 4h-24a4 4 0 0 1 0-8h24a4 4 0 0 1 4 4zm345 0a4 4 0 0 1-4 4h-24a4 4 0 0 1 0-8h24a4 4 0 0 1 4 4zm-243 50a4 4 0 0 1-4 4h-24a4 4 0 0 1 0-8h24a4 4 0 0 1 4 4zm-283-16a4 4 0 0 0-4-4h-16a4 4 0 0 0 0 8h16a4 4 0 0 0 4-4zm181 0a4 4 0 0 0-4-4h-17a4 4 0 0 0 0 8h17a4 4 0 0 0 4-4zm345 0a4 4 0 0 0-4-4h-17a4 4 0 0 0 0 8h17a4 4 0 0 0 4-4zm-244-50a4 4 0 0 0-4-4h-17a4 4 0 0 0 0 8h17a4 4 0 0 0 4-4zm-1-101a4 4 0 0 0-4-4h-17a4 4 0 0 0 0 8h17a4 4 0 0 0 4-4zm-386 16a4 4 0 0 0-4-4h-21a4 4 0 0 0 0 8h21a4 4 0 0 0 4-4zm0 53a4 4 0 0 0-4-4h-21a4 4 0 0 0 0 8h21a4 4 0 0 0 4-4zm105-53a4 4 0 0 0-4-4h-46a4 4 0 0 0 0 8h46a4 4 0 0 0 4-4zm181 0a4 4 0 0 0-4-4h-48a4 4 0 0 0 0 8h48a4 4 0 0 0 4-4zm345 0a4 4 0 0 0-4-4h-48a4 4 0 0 0 0 8h48a4 4 0 0 0 4-4zm-245 51a4 4 0 0 0-4-4h-48a4 4 0 0 0 0 8h48a4 4 0 0 0 4-4zm-281 0a4 4 0 0 0-4-4h-46a4 4 0 0 0 0 8h46a4 4 0 0 0 4-4zm181 0a4 4 0 0 0-4-4h-48a4 4 0 0 0 0 8h48a4 4 0 0 0 4-4zm345 0a4 4 0 0 0-4-4h-48a4 4 0 0 0 0 8h48a4 4 0 0 0 4-4zm-109-57.5c0-4.1-3.4-7.5-7.5-7.5h-39a7.5 7.5 0 0 0 0 15h39c4.1 0 7.5-3.4 7.5-7.5zm-352-2c0-4.1-3.4-7.5-7.5-7.5h-13a7.5 7.5 0 0 0 0 15h13c4.1 0 7.5-3.4 7.5-7.5zm352 52c0-4.1-3.4-7.5-7.5-7.5h-39a7.5 7.5 0 0 0 0 15h39c4.1 0 7.5-3.4 7.5-7.5zm-352 0c0-4.1-3.4-7.5-7.5-7.5h-13a7.5 7.5 0 0 0 0 15h13c4.1 0 7.5-3.4 7.5-7.5zm352 49c0-4.1-3.4-7.5-7.5-7.5h-39a7.5 7.5 0 0 0 0 15h39c4.1 0 7.5-3.4 7.5-7.5zm-352 0c0-4.1-3.4-7.5-7.5-7.5h-13a7.5 7.5 0 0 0 0 15h13c4.1 0 7.5-3.4 7.5-7.5zm352 50c0-4.1-3.4-7.5-7.5-7.5h-39a7.5 7.5 0 0 0 0 15h39c4.1 0 7.5-3.4 7.5-7.5zm-352 0c0-4.1-3.4-7.5-7.5-7.5h-13a7.5 7.5 0 0 0 0 15h13c4.1 0 7.5-3.4 7.5-7.5zM275 397a4 4 0 0 1-4 4h-46a4 4 0 0 1 0-8h46a4 4 0 0 1 4 4zm181 0a4 4 0 0 1-4 4h-48a4 4 0 0 1 0-8h48a4 4 0 0 1 4 4zm345 0a4 4 0 0 1-4 4h-48a4 4 0 0 1 0-8h48a4 4 0 0 1 4 4zm-243 50a4 4 0 0 1-4 4h-48a4 4 0 0 1 0-8h48a4 4 0 0 1 4 4zm-298 14a4 4 0 0 0-4-4h-31a4 4 0 0 0 0 8h31a4 4 0 0 0 4-4zm180 0a4 4 0 0 0-4-4h-32a4 4 0 0 0 0 8h32a4 4 0 0 0 4-4zm345 0a4 4 0 0 0-4-4h-32a4 4 0 0 0 0 8h32a4 4 0 0 0 4-4zm-244-50a4 4 0 0 0-4-4h-32a4 4 0 0 0 0 8h32a4 4 0 0 0 4-4zm-2-101a4 4 0 0 0-4-4h-32a4 4 0 0 0 0 8h32a4 4 0 0 0 4-4z" fill="#246EDE"/><path d="M173 329h636m-636-50h636M173 379h636m-636 50h636m-636 50h636M213 246v248m69-248v248m209-248v248M373 246v248m233-248v248m117-248v248" stroke="#246EDE" stroke-opacity=".3"/><path opacity=".3" d="M132 259.9h-1.8v4.1h-1.8v-9.8h1.8v4.1h1.8l2.9-4.1h1.9l-3.4 4.7 3.5 5.1h-2l-3-4.1zm9.2 4.2c-.8 0-1.4-.2-2-.5a3.6 3.6 0 0 1-2-3.3c0-.8.2-1.4.5-2 .4-.6.8-1 1.4-1.4a5 5 0 0 1 2-.5 4 4 0 0 1 3.6 1.9 4.2 4.2 0 0 1 0 4c-.4.5-.8 1-1.5 1.3-.6.3-1.2.5-2 .5zm0-1.5c.6 0 1.2-.2 1.6-.6.4-.5.6-1 .6-1.7s-.2-1.3-.6-1.7a2 2 0 0 0-1.6-.7c-.7 0-1.2.2-1.6.7-.4.4-.6 1-.6 1.7s.2 1.2.6 1.7c.4.4 1 .6 1.6.6zm5.7-6h1.8v3h3.7v-3h1.8v7.4h-1.8v-3h-3.7v3h-1.8v-7.5zm12.7 4.4h-1.3v3h-1.8v-7.5h1.8v3h1.4l2.2-3h1.9l-2.8 3.6 3 3.9h-2.1l-2.3-3zm12.2-4.5l-3.5 8.1c-.3.8-.7 1.4-1.2 1.7-.5.3-1 .5-1.7.5-.4 0-.7 0-1-.2-.5 0-.7-.3-1-.5l.7-1.3a2 2 0 0 0 1.3.6c.3 0 .6-.1.8-.3.2-.1.4-.4.5-.8l.1-.3-3.2-7.5h1.8l2.4 5.6 2.3-5.6h1.7zm5.4 0a4 4 0 0 1 2 .4 4 4 0 0 1 1.8 3.3 4 4 0 0 1-.5 2c-.4.7-.8 1.1-1.4 1.4a4 4 0 0 1-2 .5 3 3 0 0 1-2.3-1v3.6H173v-10.2h1.7v1c.3-.4.6-.6 1-.8l1.5-.3zm-.2 6.1a2 2 0 0 0 1.6-.6c.4-.5.6-1 .6-1.7s-.2-1.3-.6-1.7a2 2 0 0 0-1.6-.7c-.5 0-.8.1-1.2.3a2 2 0 0 0-.8.8c-.2.4-.3.8-.3 1.3l.3 1.2.8.8c.4.2.7.3 1.2.3zm12.7-2.3v.5h-5.9c.1.6.4 1 .8 1.3.4.4 1 .5 1.6.5.8 0 1.5-.3 2-.8l1 1c-.3.5-.8.8-1.3 1a5 5 0 0 1-3.9-.2 3.6 3.6 0 0 1-2-3.3c0-.8.2-1.4.5-2 .4-.6.8-1 1.4-1.4a4 4 0 0 1 2-.5c.7 0 1.4.2 2 .5a4 4 0 0 1 1.8 3.4zm-3.8-2.5c-.5 0-1 .2-1.4.5a2 2 0 0 0-.7 1.4h4.2c0-.6-.3-1-.7-1.4a2 2 0 0 0-1.4-.5zm5.7-1.3h1.8v3h3.7v-3h1.8v7.5H197v-3h-3.7v3h-1.8v-7.5zm15.5 1.5h-2.6v6h-1.7v-6H200v-1.5h7v1.5zm27.8 6.1a5 5 0 0 1-5.2-5c0-1 .2-1.8.6-2.6.5-.8 1.1-1.4 2-1.8.7-.4 1.6-.6 2.6-.6.8 0 1.5.1 2.2.4.7.3 1.2.7 1.7 1.2l-1.2 1.1a3.4 3.4 0 0 0-2.6-1.1c-.7 0-1.3.1-1.8.4a3 3 0 0 0-1.3 1.2c-.3.5-.4 1.1-.4 1.8s.1 1.3.4 1.8c.3.5.7 1 1.3 1.2.5.3 1.1.4 1.8.4 1 0 1.9-.3 2.6-1.1l1.2 1.1c-.5.5-1 1-1.7 1.2-.7.3-1.4.4-2.2.4zm8-7.7c1.2 0 2 .3 2.6.8.6.6.9 1.4.9 2.4v4.4h-1.7v-1a2 2 0 0 1-.9.8 3.7 3.7 0 0 1-2.9 0c-.4-.2-.7-.4-1-.8a2 2 0 0 1-.3-1.1c0-.7.2-1.3.7-1.7.5-.4 1.3-.6 2.4-.6h2c0-.6-.2-1-.5-1.3-.3-.3-.8-.4-1.4-.4a4 4 0 0 0-1.3.2 3 3 0 0 0-1 .5l-.7-1.2c.4-.3.9-.6 1.4-.7l1.8-.3zm-.2 6.4c.5 0 .9 0 1.2-.3.4-.2.6-.5.7-.8v-1h-1.8c-1 0-1.5.4-1.5 1 0 .4.1.7.4.8.2.2.6.3 1 .3zm5.9-6.3h1.7v5l4.1-5h1.6v7.5h-1.7v-5l-4.1 5h-1.6v-7.5zm3.6-.9c-.8 0-1.4-.1-1.8-.5-.4-.3-.6-.8-.6-1.5h1.2c0 .3.1.6.3.8.2.2.5.3.9.3.3 0 .6-.1.8-.3.2-.2.3-.5.3-.8h1.2c0 .7-.2 1.2-.6 1.5-.4.4-1 .5-1.7.5zm12.1 2.4h-2.6v6h-1.8v-6h-2.6v-1.5h7v1.5zm30.6-.9a6 6 0 0 1-2.7-.6 5 5 0 0 1-2.6-4.4c0-1 .3-1.8.7-2.6.5-.8 1.1-1.4 2-1.8.7-.4 1.6-.6 2.6-.6.8 0 1.5.1 2.2.4.7.3 1.2.7 1.7 1.2l-1.2 1.1a3.4 3.4 0 0 0-2.6-1.1c-.7 0-1.3.1-1.8.4a3 3 0 0 0-1.3 1.2c-.3.5-.4 1.1-.4 1.8s.1 1.3.4 1.8c.3.5.7 1 1.3 1.2.5.3 1.1.4 1.8.4 1 0 1.9-.3 2.6-1.1l1.2 1.1c-.5.5-1 1-1.7 1.2-.7.3-1.4.4-2.2.4zm8.5-3.1H302v3h-1.7v-7.5h1.7v3h1.4l2.2-3h1.9l-2.7 3.6 2.9 3.9h-2l-2.3-3zm8.6 3.1c-.8 0-1.4-.2-2-.5a3.6 3.6 0 0 1-2-3.3c0-.8.2-1.4.5-2 .4-.6.9-1 1.5-1.4.6-.3 1.3-.5 2-.5a4 4 0 0 1 3.5 1.9 4.2 4.2 0 0 1 0 4c-.4.5-.8 1-1.4 1.3-.6.3-1.3.5-2 .5zm0-1.5c.6 0 1.2-.2 1.6-.6.4-.5.6-1 .6-1.7s-.2-1.3-.6-1.7a2 2 0 0 0-1.6-.7 2 2 0 0 0-1.6.7c-.4.4-.6 1-.6 1.7s.2 1.2.6 1.7c.4.4 1 .6 1.6.6zm9.9-6.2a4 4 0 0 1 2 .5 4 4 0 0 1 1.8 3.3 4 4 0 0 1-.5 2c-.4.7-.8 1.1-1.4 1.4a4 4 0 0 1-2 .5 3 3 0 0 1-2.3-1v3.6h-1.8v-10.2h1.7v1c.3-.4.6-.6 1-.8l1.5-.3zm-.2 6.2a2 2 0 0 0 1.6-.6c.4-.5.6-1 .6-1.7s-.2-1.3-.6-1.7a2 2 0 0 0-1.6-.7l-1.2.3a2 2 0 0 0-.8.8c-.2.4-.3.8-.3 1.3l.3 1.2.8.8 1.2.3zm9 1.5c-.7 0-1.4-.2-2-.5a3.6 3.6 0 0 1-2-3.3c0-.8.2-1.4.6-2 .3-.6.8-1 1.4-1.4.6-.3 1.3-.5 2-.5.8 0 1.5.2 2.1.5a3.8 3.8 0 0 1 2 3.3c0 .8-.2 1.5-.6 2-.3.6-.8 1-1.4 1.4-.6.3-1.3.5-2 .5zm0-1.5c.7 0 1.2-.2 1.6-.6.5-.5.7-1 .7-1.7s-.2-1.3-.7-1.7a2 2 0 0 0-1.6-.7c-.6 0-1.1.2-1.6.7-.4.4-.6 1-.6 1.7s.2 1.2.6 1.7c.5.4 1 .6 1.6.6zm9.2 1.5c-.8 0-1.5-.2-2.1-.5a3.6 3.6 0 0 1-2-3.3c0-.8.2-1.4.5-2 .4-.6.9-1 1.5-1.4.6-.3 1.3-.5 2-.5a4 4 0 0 1 2 .5c.5.3 1 .7 1.2 1.3l-1.3.8a2 2 0 0 0-.8-.8 2 2 0 0 0-1-.3c-.7 0-1.3.2-1.7.7-.4.4-.6 1-.6 1.7s.2 1.2.6 1.7c.4.4 1 .6 1.6.6.4 0 .8 0 1-.3.4-.1.7-.4.9-.7l1.3.7a3 3 0 0 1-1.2 1.3 4 4 0 0 1-2 .5zm10.5-6h-2.6v5.9h-1.7v-6h-2.7v-1.5h7v1.5zm5 .9c1 0 1.7.2 2.2.6.6.5.8 1 .8 1.9 0 .8-.3 1.4-.8 1.9-.6.4-1.4.6-2.4.6h-3.5v-7.5h1.8v2.5h2zm-.3 3.7c.5 0 .9 0 1.1-.3.3-.2.4-.5.4-1 0-.4 0-.7-.4-.9a2 2 0 0 0-1.1-.3h-1.6v2.5h1.6zm-61.6 15.4c-.7 0-1.4-.2-2-.5a3.6 3.6 0 0 1-2-3.3c0-.8.2-1.4.5-2 .4-.6.9-1 1.5-1.4.6-.3 1.3-.5 2-.5a4 4 0 0 1 3.5 1.9 4.2 4.2 0 0 1 0 4c-.4.5-.8 1-1.4 1.3-.6.3-1.3.5-2 .5zm0-1.5c.7 0 1.2-.2 1.6-.6.4-.5.6-1 .6-1.7s-.2-1.3-.6-1.7a2 2 0 0 0-1.6-.7 2 2 0 0 0-1.6.7c-.4.4-.6 1-.6 1.7s.2 1.2.6 1.7c.4.4 1 .6 1.6.6zM305 265h-2.6v6h-1.8v-6H298v-1.5h7v1.5zm6.7 2.1c.9.3 1.3.9 1.3 1.8 0 .7-.2 1.2-.7 1.6-.5.3-1.3.5-2.2.5H306v-7.5h3.7c1 0 1.6.2 2.1.5.6.4.8.8.8 1.5 0 .3 0 .7-.3 1a2 2 0 0 1-.8.6zm-3.8-.5h1.8c1 0 1.4-.3 1.4-.9 0-.6-.4-.9-1.4-.9h-1.8v1.8zm2 3.1c1 0 1.5-.3 1.5-1 0-.2-.2-.5-.4-.6-.2-.2-.6-.3-1-.3h-2v2h2zm12-2.4v.5H316c.1.6.4 1 .8 1.3.5.4 1 .5 1.6.5.9 0 1.5-.3 2-.8l1 1c-.3.5-.8.8-1.3 1-.5.2-1 .3-1.7.3-.8 0-1.5-.2-2.2-.5a3.6 3.6 0 0 1-2-3.3c0-.8.2-1.4.6-2 .3-.6.8-1 1.3-1.4a4 4 0 0 1 2-.5c.8 0 1.4.2 2 .5.6.3 1 .8 1.3 1.4.3.6.5 1.2.5 2zm-3.8-2.5c-.5 0-1 .2-1.4.5a2 2 0 0 0-.7 1.4h4.2c0-.6-.3-1-.6-1.4a2 2 0 0 0-1.5-.5zm11.4.2h-2.6v6H325v-6h-2.6v-1.5h7v1.5zm4-1.6a4 4 0 0 1 2.6.8c.5.6.8 1.4.8 2.4v4.4h-1.6v-1a2 2 0 0 1-1 .8c-.3.2-.8.3-1.4.3-.5 0-1-.1-1.4-.3-.5-.2-.8-.4-1-.8a2 2 0 0 1-.4-1.1c0-.7.3-1.3.8-1.7.5-.4 1.3-.6 2.4-.6h1.9c0-.6-.2-1-.5-1.3-.3-.3-.8-.4-1.4-.4a4 4 0 0 0-1.2.2 3 3 0 0 0-1 .5l-.7-1.2a3 3 0 0 1 1.4-.7c.5-.2 1.1-.3 1.7-.3zm-.2 6.4c.4 0 .8 0 1.2-.3l.7-.8v-1h-1.8c-1 0-1.5.4-1.5 1 0 .4 0 .7.3.8.3.2.6.3 1 .3zM508 254.2v9.8h-1.7v-8.3h-5.1v8.3h-1.8v-9.8h8.7zm6 9.9a4 4 0 0 1-2-.5 3.6 3.6 0 0 1-2-3.3 3.6 3.6 0 0 1 2-3.3c.5-.4 1.2-.6 2-.6.7 0 1.4.2 2 .5.6.4 1 .8 1.4 1.4.4.6.5 1.2.5 2a3.5 3.5 0 0 1-1.9 3.3c-.6.3-1.3.5-2 .5zm0-1.5a2 2 0 0 0 1.5-.6c.5-.5.7-1 .7-1.7s-.2-1.3-.7-1.7c-.4-.5-.9-.7-1.5-.7-.7 0-1.2.2-1.6.7-.5.4-.7 1-.7 1.7s.2 1.2.7 1.7c.4.4 1 .6 1.6.6zm11.3-4.6h-2.6v6H521v-6h-2.7v-1.5h7v1.5zm5.4-1.6a4 4 0 0 1 2 .5c.6.3 1 .8 1.3 1.4.4.5.5 1.2.5 2a4 4 0 0 1-.5 2c-.3.6-.7 1-1.3 1.3a4 4 0 0 1-2 .5 3 3 0 0 1-2.4-1v3.6h-1.7v-10.2h1.7v1c.2-.4.6-.6 1-.8.4-.2 1-.3 1.4-.3zm-.2 6.2a2 2 0 0 0 1.6-.6c.4-.5.6-1 .6-1.7s-.2-1.3-.6-1.7a2 2 0 0 0-1.6-.7 2 2 0 0 0-1.1.3 2 2 0 0 0-.8.8c-.2.4-.3.8-.3 1.3l.3 1.2.8.8c.3.2.7.3 1.1.3zm12.8-2.3v.5h-6c.2.6.4 1 .9 1.3.4.4 1 .5 1.6.5.8 0 1.5-.3 2-.8l1 1a3 3 0 0 1-1.3 1c-.5.2-1.1.3-1.7.3-.9 0-1.6-.2-2.2-.5a3.6 3.6 0 0 1-2-3.3c0-.8.2-1.4.5-2 .4-.6.8-1 1.4-1.4a4 4 0 0 1 2-.5c.7 0 1.4.2 2 .5.5.3 1 .8 1.3 1.4.3.6.5 1.2.5 2zm-3.8-2.5c-.6 0-1 .2-1.4.5a2 2 0 0 0-.7 1.4h4.2c0-.6-.3-1-.7-1.4a2 2 0 0 0-1.4-.5zm9.7-1a3 3 0 0 1 1.9.6c.5.2 1 .7 1.3 1.2.3.6.4 1.2.4 1.9s-.1 1.3-.5 1.9c-.3.5-.8 1-1.4 1.3-.6.3-1.3.4-2 .4-1.4 0-2.4-.4-3-1.2-.8-1-1.1-2.1-1.1-3.8a6 6 0 0 1 1-3.5c.6-1 1.6-1.5 2.9-1.8l3.5-.7.2 1.6-3.1.6a4 4 0 0 0-2 1 3 3 0 0 0-.9 1.8 3.8 3.8 0 0 1 2.8-1.2zm-.3 6a2 2 0 0 0 1.5-.7c.4-.4.6-1 .6-1.6a2 2 0 0 0-.6-1.5 2 2 0 0 0-1.5-.6c-.7 0-1.2.2-1.6.6a2 2 0 0 0-.6 1.5c0 .7.2 1.2.6 1.6.4.4 1 .6 1.6.6zm5.6-6.3h1.8v3h3.7v-3h1.8v7.5H560v-3h-3.7v3h-1.8v-7.5zm13 7.6a4 4 0 0 1-2-.5 3.6 3.6 0 0 1-2-3.3 3.8 3.8 0 0 1 1.9-3.4c.6-.3 1.3-.5 2-.5.8 0 1.5.2 2.1.5a3.8 3.8 0 0 1 2 3.3c0 .8-.2 1.5-.6 2-.3.6-.8 1-1.4 1.4-.6.3-1.3.5-2 .5zm0-1.5c.6 0 1.1-.2 1.6-.6.4-.5.6-1 .6-1.7s-.2-1.3-.6-1.7c-.5-.5-1-.7-1.6-.7-.7 0-1.2.2-1.6.7-.4.4-.6 1-.6 1.7s.2 1.2.6 1.7c.4.4 1 .6 1.6.6zm9 1.5c-.7 0-1.4-.2-2-.5a3.6 3.6 0 0 1-2-3.3c0-.8.2-1.4.6-2 .3-.6.8-1 1.4-1.4.6-.3 1.3-.5 2-.5a4 4 0 0 1 2 .5c.6.3 1 .7 1.3 1.3l-1.4.8a2 2 0 0 0-.8-.8c-.3-.2-.6-.3-1-.3a2.2 2.2 0 0 0-2.3 2.4c0 .7.2 1.2.6 1.7.5.4 1 .6 1.7.6.4 0 .7 0 1-.3.3-.1.6-.4.8-.7l1.4.7a3 3 0 0 1-1.3 1.3 4 4 0 0 1-2 .5zm10.7-6h-2.6v5.9h-1.8v-6h-2.6v-1.5h7v1.5zm1.2-1.6h1.8v5l4.1-5h1.6v7.5h-1.7v-5l-4.2 5h-1.6v-7.5zm46.6-3.6h-1.8v4.1h-1.8v-9.8h1.8v4.1h1.8l2.9-4.1h1.9l-3.4 4.7 3.5 5.1h-2l-3-4.1zm10.3-3.5a4 4 0 0 1 2 .5 4 4 0 0 1 1.8 3.3 4 4 0 0 1-.5 2c-.3.7-.8 1.1-1.4 1.4a4 4 0 0 1-2 .5 3 3 0 0 1-2.3-1v3.6H641v-10.2h1.7v1c.3-.4.7-.6 1-.8l1.5-.3zm-.2 6.2a2 2 0 0 0 1.6-.6c.4-.5.6-1 .6-1.7s-.2-1.3-.6-1.7a2 2 0 0 0-1.6-.7 2 2 0 0 0-1.1.3 2 2 0 0 0-.8.8c-.2.4-.3.8-.3 1.3 0 .4 0 .8.3 1.2.2.3.4.6.8.8.3.2.7.3 1 .3zm5.7-6h1.8v4.9l4.1-5h1.6v7.5h-1.8v-5l-4 5h-1.7v-7.5zm15.8 1.4H664v6h-1.8v-6h-2.6v-1.5h7v1.5zm8 2.3l-.1.5h-5.9c.1.6.4 1 .8 1.3.5.4 1 .5 1.6.5.9 0 1.5-.3 2-.8l1 1c-.3.5-.7.8-1.3 1-.5.2-1 .3-1.7.3-.8 0-1.5-.2-2.2-.5a3.6 3.6 0 0 1-2-3.3c0-.8.2-1.4.6-2 .3-.6.8-1 1.3-1.4a4 4 0 0 1 2-.5c.8 0 1.4.2 2 .5.6.3 1 .8 1.3 1.4.4.6.5 1.2.5 2zm-3.9-2.5c-.5 0-1 .2-1.4.5a2 2 0 0 0-.7 1.4h4.3c-.1-.6-.4-1-.7-1.4a2 2 0 0 0-1.5-.5zm9.9-1.4a4 4 0 0 1 2 .5 4 4 0 0 1 1.8 3.3 4 4 0 0 1-.5 2c-.3.7-.8 1.1-1.4 1.4a4 4 0 0 1-2 .5 3 3 0 0 1-2.3-1v3.6h-1.8v-10.2h1.7v1c.3-.4.6-.6 1-.8l1.5-.3zm-.2 6.2a2 2 0 0 0 1.6-.6c.4-.5.6-1 .6-1.7s-.2-1.3-.6-1.7a2 2 0 0 0-1.6-.7l-1.2.3a2 2 0 0 0-.8.8l-.2 1.3c0 .4 0 .8.2 1.2l.8.8 1.2.3zm5.7-6h1.8v4.9l4-5h1.7v7.5h-1.8v-5l-4 5H686v-7.5zm9.8 0h1.8v4.9l4.1-5h1.6v7.5h-1.7v-5l-4.2 5H696v-7.5zm-60.6 13.8a4 4 0 0 1 2 .5 4 4 0 0 1 1.8 3.3 4 4 0 0 1-.5 2 3 3 0 0 1-1.3 1.4 4 4 0 0 1-2 .5 3 3 0 0 1-2.4-1v3.6h-1.7v-10.2h1.6v1c.3-.4.7-.6 1.1-.8.4-.2 1-.3 1.4-.3zm-.2 6.2a2 2 0 0 0 1.6-.6c.4-.5.6-1 .6-1.7s-.2-1.3-.6-1.7a2 2 0 0 0-1.6-.7 2 2 0 0 0-1.1.3 2 2 0 0 0-.8.8c-.2.4-.3.8-.3 1.3l.3 1.2.8.8c.3.2.7.3 1.1.3zm12.8-2.3v.5h-6c.2.6.4 1 .9 1.3.4.4 1 .5 1.6.5.8 0 1.5-.3 2-.8l1 1a3 3 0 0 1-1.3 1c-.5.2-1.1.3-1.8.3-.8 0-1.5-.2-2.1-.5a3.6 3.6 0 0 1-2-3.3 3.8 3.8 0 0 1 1.9-3.4 4 4 0 0 1 2-.5c.7 0 1.4.2 2 .5.5.3 1 .8 1.3 1.4.3.6.5 1.2.5 2zm-3.8-2.5c-.6 0-1 .2-1.5.5a2 2 0 0 0-.7 1.4h4.3c0-.6-.3-1-.7-1.4a2 2 0 0 0-1.4-.5zm16.7-1.3v7.5h-11v-7.5h1.7v6h3v-6h1.7v6h2.8v-6h1.8zm9.3 3.8v.5h-5.9c.1.6.4 1 .8 1.3.5.4 1 .5 1.7.5.8 0 1.5-.3 2-.8l1 1a3 3 0 0 1-1.3 1c-.5.2-1.1.3-1.8.3-.8 0-1.5-.2-2.1-.5a3.6 3.6 0 0 1-2-3.3 3.8 3.8 0 0 1 1.9-3.4 4 4 0 0 1 2-.5 5 5 0 0 1 2 .5 4 4 0 0 1 1.8 3.4zm-3.7-2.5c-.6 0-1 .2-1.5.5a2 2 0 0 0-.7 1.4h4.3c-.1-.6-.3-1-.7-1.4a2 2 0 0 0-1.4-.5zm5.7-1.3h1.7v3h3.8v-3h1.7v7.5h-1.7v-3h-3.8v3h-1.7v-7.5zm9.6 0h1.7v5l4.1-5h1.6v7.5h-1.7v-5l-4.1 5h-1.6v-7.5zm9.8 0h1.7v5l4.2-5h1.6v7.5h-1.8v-5l-4 5h-1.7v-7.5zm3.6-.9c-.7 0-1.3-.1-1.7-.5-.4-.3-.6-.8-.6-1.5h1.1c0 .3.2.6.4.8.2.2.4.3.8.3s.6-.1.8-.3c.3-.2.4-.5.4-.8h1.2c0 .7-.2 1.2-.6 1.5-.4.4-1 .5-1.8.5zM388 254.2v9.8h-1.7v-8.3h-5.1v8.3h-1.8v-9.8h8.7zm6.8 2.2a4 4 0 0 1 2 .5 4 4 0 0 1 1.8 3.3 4 4 0 0 1-.5 2c-.4.7-.8 1.1-1.4 1.4a4 4 0 0 1-2 .5 3 3 0 0 1-2.3-1v3.6h-1.8v-10.2h1.7v1c.3-.4.6-.6 1-.8l1.5-.3zm-.2 6.2a2 2 0 0 0 1.5-.6c.5-.5.7-1 .7-1.7s-.2-1.3-.7-1.7a2 2 0 0 0-1.5-.7c-.5 0-.8.1-1.2.3a2 2 0 0 0-.8.8c-.2.4-.3.8-.3 1.3l.3 1.2.8.8c.4.2.7.3 1.2.3zm12.7-2.3v.5h-5.9c.1.6.4 1 .8 1.3.4.4 1 .5 1.6.5.8 0 1.5-.3 2-.8l1 1c-.3.5-.8.8-1.3 1a5 5 0 0 1-3.9-.2 3.6 3.6 0 0 1-2-3.3c0-.8.2-1.4.5-2 .4-.6.8-1 1.4-1.4a4 4 0 0 1 2-.5c.7 0 1.4.2 2 .5a4 4 0 0 1 1.8 3.4zm-3.8-2.5c-.5 0-1 .2-1.4.5a2 2 0 0 0-.7 1.4h4.2c0-.6-.3-1-.7-1.4a2 2 0 0 0-1.4-.5zm13.6 4.7v3.2h-1.6V264h-5.8v1.7H408v-3.2h.3c.5 0 .8-.3 1-.9a8 8 0 0 0 .3-2.5l.1-2.6h6.2v6h1.1zm-5.8-3.3c0 .9 0 1.6-.2 2.1 0 .6-.3 1-.5 1.2h3.6V258h-2.8v1.2zm14.1-2.7v7.5h-1.7v-6h-2.8v1.5l-.4 2.5c0 .6-.3 1.2-.6 1.6-.4.3-.8.5-1.4.5l-1-.1.2-1.5h.3c.3 0 .6 0 .8-.4.2-.3.3-.6.3-1l.2-1.7v-2.9h6.1zm5.7 7.6c-.7 0-1.4-.2-2-.5a3.6 3.6 0 0 1-2-3.3c0-.8.2-1.4.6-2 .3-.6.8-1 1.4-1.4.6-.3 1.3-.5 2-.5a4 4 0 0 1 2 .5c.7.4 1.2.8 1.5 1.4a4.2 4.2 0 0 1 0 4c-.3.5-.8 1-1.4 1.3-.6.3-1.3.5-2 .5zm0-1.5c.7 0 1.2-.2 1.6-.6.4-.5.7-1 .7-1.7s-.3-1.3-.7-1.7a2 2 0 0 0-1.6-.7 2 2 0 0 0-1.6.7c-.4.4-.6 1-.6 1.7s.2 1.2.6 1.7c.4.4 1 .6 1.6.6zm12.6-1.6h-1.3v3h-1.7v-3h-1.3l-1.8 3h-2l2.4-3.9-2.3-3.6h1.9l1.8 3h1.3v-3h1.7v3h1.3l1.8-3h2l-2.4 3.6 2.5 3.9h-2l-1.9-3zm12-.7v.5h-6c.2.6.4 1 .9 1.3.4.4 1 .5 1.6.5.8 0 1.5-.3 2-.8l1 1a3 3 0 0 1-1.3 1c-.5.2-1.1.3-1.8.3-.8 0-1.5-.2-2.1-.5a3.6 3.6 0 0 1-2-3.3 3.8 3.8 0 0 1 1.9-3.4 4 4 0 0 1 2-.5c.7 0 1.4.2 2 .5a4 4 0 0 1 1.8 3.4zm-3.8-2.5c-.6 0-1 .2-1.5.5a2 2 0 0 0-.7 1.4h4.3c0-.6-.3-1-.7-1.4a2 2 0 0 0-1.4-.5zm5.7-1.3h1.7v3h3.8v-3h1.7v7.5h-1.7v-3h-3.8v3h-1.7v-7.5zm9.6 0h1.7v5l4.2-5h1.6v7.5h-1.8v-5l-4.1 5h-1.6v-7.5zm16.8 3.8v.5h-6c.1.6.4 1 .8 1.3.5.4 1 .5 1.6.5.9 0 1.5-.3 2-.8l1 1c-.3.5-.8.8-1.3 1-.5.2-1 .3-1.7.3-.8 0-1.5-.2-2.2-.5a3.6 3.6 0 0 1-2-3.3c0-.8.2-1.4.6-2 .3-.6.8-1 1.3-1.4a4 4 0 0 1 2-.5c.8 0 1.4.2 2 .5.6.3 1 .8 1.3 1.4.3.6.5 1.2.5 2zm-3.8-2.5c-.5 0-1 .2-1.4.5a2 2 0 0 0-.7 1.4h4.2c0-.6-.3-1-.6-1.4a2 2 0 0 0-1.5-.5zm260.3-1.1h-3.3v8.3h-1.8v-8.3h-3.2v-1.5h8.3v1.5zm5.3.7a4 4 0 0 1 2 .5 4 4 0 0 1 1.8 3.3 4 4 0 0 1-.5 2 3 3 0 0 1-1.3 1.4 4 4 0 0 1-2 .5 3 3 0 0 1-2.4-1v3.6h-1.7v-10.2h1.6v1c.3-.4.7-.6 1.1-.8.4-.2 1-.3 1.4-.3zm-.2 6.2a2 2 0 0 0 1.6-.6c.4-.5.6-1 .6-1.7s-.2-1.3-.6-1.7a2 2 0 0 0-1.6-.7 2 2 0 0 0-1.1.3 2 2 0 0 0-.8.8c-.2.4-.3.8-.3 1.3l.3 1.2.8.8c.3.2.7.3 1.1.3zm5.8-6h1.7v4.9l4.1-5h1.6v7.5h-1.7v-5l-4.1 5h-1.6v-7.5zm15.5 1.4h-4v6h-1.7v-7.5h5.7v1.5zm7 0h-4v6h-1.7v-7.5h5.7v1.5zm8 2.3v.5H776c.1.6.4 1 .8 1.3.4.4 1 .5 1.6.5.8 0 1.5-.3 2-.8l1 1a3 3 0 0 1-1.3 1 5 5 0 0 1-3.9-.2 3.6 3.6 0 0 1-2-3.3c0-.8.2-1.4.5-2 .4-.6.8-1 1.4-1.4a4 4 0 0 1 2-.5c.7 0 1.4.2 2 .5a4 4 0 0 1 1.8 3.4zm-3.8-2.5c-.6 0-1 .2-1.4.5a2 2 0 0 0-.7 1.4h4.2c0-.6-.3-1-.7-1.4a2 2 0 0 0-1.4-.5zm9.8-1.4a4 4 0 0 1 2 .5c.6.3 1 .8 1.4 1.4.3.5.4 1.2.4 2a4 4 0 0 1-.4 2 4 4 0 0 1-3.3 1.8 3 3 0 0 1-2.4-1v3.6h-1.8v-10.2h1.7v1c.3-.4.6-.6 1-.8l1.4-.3zm-.1 6.2a2 2 0 0 0 1.5-.6c.5-.5.7-1 .7-1.7s-.2-1.3-.7-1.7a2 2 0 0 0-1.5-.7c-.5 0-.8.1-1.2.3a2 2 0 0 0-.8.8c-.2.4-.3.8-.3 1.3l.3 1.2.8.8c.4.2.7.3 1.2.3zm9.3-3.6c1 0 1.7.2 2.2.6.5.5.8 1 .8 1.9 0 .8-.3 1.4-.9 1.9-.5.4-1.3.6-2.3.6h-3.4v-7.5h1.7v2.5h2zm4-2.5h1.7v7.5H801v-7.5zm-4.4 6.2c.5 0 1 0 1.2-.3.3-.2.4-.5.4-1 0-.4-.1-.7-.4-.9a2 2 0 0 0-1.2-.3h-1.5v2.5h1.5z" fill="#246EDE"/></g></svg>