<svg width="56" height="37" fill="none" xmlns="http://www.w3.org/2000/svg"><path d="M20.1 36.7c-3.7 0-7-.8-10-2.4C7.2 32.9 5 30.7 3.2 28a17.8 17.8 0 0 1-2.5-9.4c0-3.5.8-6.6 2.5-9.3 1.7-2.8 4-5 7-6.5 3-1.6 6.3-2.4 10-2.4s7 .8 9.9 2.4a17.4 17.4 0 0 1 9.5 15.8 17.5 17.5 0 0 1-9.5 15.9c-3 1.5-6.3 2.3-10 2.3zm0-8.2a9 9 0 0 0 8.2-4.8c.9-1.5 1.3-3.2 1.3-5.2s-.4-3.7-1.3-5.2a9 9 0 0 0-8.2-4.8c-1.7 0-3.3.4-4.8 1.3a9 9 0 0 0-3.4 3.5c-.8 1.5-1.2 3.2-1.2 5.2s.4 3.7 1.2 5.3a9 9 0 0 0 8.2 4.7zm35.6 3.6V36H42v-3.1l6.6-6.1 1.3-1.6.3-1.2c0-.6-.2-1-.6-1.4-.4-.3-1-.5-1.7-.5a3.7 3.7 0 0 0-3 1.7l-3.8-2c.7-1.1 1.7-2 3-2.7 1.1-.6 2.6-1 4.3-1a9 9 0 0 1 3.5.7c1 .4 1.8 1 2.4 1.9.6.8.9 1.7.9 2.8a6 6 0 0 1-.6 2.7c-.4.8-1.2 1.8-2.4 2.8L49 32h6.8z" fill="#151515"/></svg>