<svg width="1048" height="1123" viewBox="0 0 1048 1123" fill="none" xmlns="http://www.w3.org/2000/svg">
<path d="M263.487 88.6397C226.474 104.811 222.738 140.141 225.497 155.785C290.654 153.735 314.197 104.517 317.824 80.1644C327.27 35.2589 295.544 8.15667 278.5 0.218754C246.895 32.3593 255.323 72.5579 263.487 88.6397Z" fill="#C0C0C0"/>
<path d="M359.318 118.256C380.754 152.491 363.905 183.768 352.8 195.128C300.161 156.673 308.493 102.754 319.238 80.6014C336.776 38.197 378.261 33.7206 396.812 36.7829C404.772 81.1511 375.133 109.585 359.318 118.256Z" fill="#C0C0C0"/>
<path d="M425.819 138.808C388.805 154.979 385.07 190.31 387.828 205.953C452.985 203.904 476.529 154.686 480.156 130.333C489.601 85.4275 457.875 58.3253 440.832 50.3874C409.226 82.5279 417.654 122.727 425.819 138.808Z" fill="#C0C0C0"/>
<path d="M521.65 168.425C543.085 202.66 526.236 233.937 515.132 245.297C462.492 206.842 470.824 152.923 481.569 130.77C499.107 88.3656 540.593 83.8892 559.143 86.9516C567.103 131.32 537.464 159.754 521.65 168.425Z" fill="#C0C0C0"/>
<path d="M588.15 188.977C551.137 205.148 547.401 240.478 550.159 256.122C615.317 254.072 638.86 204.854 642.487 180.502C651.932 135.596 620.206 108.494 603.163 100.556C571.558 132.697 579.985 172.895 588.15 188.977Z" fill="#C0C0C0"/>
<path d="M683.981 218.594C705.416 252.828 688.567 284.106 677.463 295.465C624.824 257.01 633.155 203.091 643.901 180.939C661.439 138.534 702.924 134.058 721.474 137.12C729.434 181.488 699.795 209.923 683.981 218.594Z" fill="#C0C0C0"/>
<path d="M750.481 239.146C713.468 255.317 709.732 290.647 712.491 306.291C777.648 304.241 801.191 255.023 804.818 230.67C814.263 185.765 782.538 158.663 765.494 150.725C733.889 182.865 742.317 223.064 750.481 239.146Z" fill="#C0C0C0"/>
<path d="M846.312 268.762C867.748 302.997 850.898 334.274 839.794 345.634C787.155 307.179 795.486 253.26 806.232 231.107C823.77 188.703 865.255 184.227 883.805 187.289C891.765 231.657 862.127 260.091 846.312 268.762Z" fill="#C0C0C0"/>
<path d="M912.812 289.314C875.799 305.485 872.063 340.815 874.822 356.459C939.979 354.409 963.522 305.192 967.149 280.839C976.594 235.933 944.869 208.831 927.825 200.893C896.22 233.034 904.648 273.232 912.812 289.314Z" fill="#C0C0C0"/>
<path d="M1008.64 318.931C1030.08 353.166 1013.23 384.443 1002.13 395.802C949.486 357.348 957.818 303.429 968.563 281.276C986.101 238.872 1027.59 234.395 1046.14 237.458C1054.1 281.826 1024.46 310.26 1008.64 318.931Z" fill="#C0C0C0"/>
<path d="M207.343 270.307C170.33 286.478 166.594 321.809 169.352 337.452C234.51 335.403 258.053 286.185 261.68 261.832C271.125 216.927 239.399 189.824 222.356 181.886C190.751 214.027 199.178 254.226 207.343 270.307Z" fill="#C0C0C0"/>
<path d="M303.174 299.924C324.609 334.159 307.76 365.436 296.656 376.796C244.017 338.341 252.348 284.422 263.094 262.269C280.632 219.865 322.117 215.388 340.667 218.451C348.627 262.819 318.988 291.253 303.174 299.924Z" fill="#C0C0C0"/>
<path d="M369.674 320.476C332.661 336.647 328.925 371.977 331.684 387.621C396.841 385.571 420.384 336.353 424.011 312.001C433.456 267.095 401.731 239.993 384.687 232.055C353.082 264.196 361.51 304.394 369.674 320.476Z" fill="#C0C0C0"/>
<path d="M465.505 350.093C486.94 384.327 470.091 415.605 458.987 426.964C406.348 388.509 414.679 334.59 425.425 312.438C442.963 270.033 484.448 265.557 502.998 268.619C510.958 312.987 481.32 341.422 465.505 350.093Z" fill="#C0C0C0"/>
<path d="M532.005 370.645C494.992 386.816 491.256 422.146 494.015 437.79C559.172 435.74 582.715 386.522 586.342 362.169C595.787 317.264 564.062 290.162 547.018 282.224C515.413 314.364 523.841 354.563 532.005 370.645Z" fill="#C0C0C0"/>
<path d="M627.836 400.261C649.272 434.496 632.422 465.773 621.318 477.133C568.679 438.678 577.01 384.759 587.756 362.606C605.294 320.202 646.779 315.725 665.329 318.788C673.29 363.156 643.651 391.59 627.836 400.261Z" fill="#C0C0C0"/>
<path d="M694.337 420.813C657.323 436.984 653.587 472.314 656.346 487.958C721.503 485.908 745.047 436.691 748.673 412.338C758.119 367.432 726.393 340.33 709.349 332.392C677.744 364.533 686.172 404.731 694.337 420.813Z" fill="#C0C0C0"/>
<path d="M790.168 450.43C811.603 484.665 794.754 515.942 783.65 527.301C731.01 488.847 739.342 434.928 750.087 412.775C767.625 370.371 809.11 365.894 827.661 368.957C835.621 413.325 805.982 441.759 790.168 450.43Z" fill="#C0C0C0"/>
<path d="M856.668 470.982C819.654 487.153 815.919 522.483 818.677 538.127C883.835 536.077 907.378 486.859 911.005 462.507C920.45 417.601 888.724 390.499 871.681 382.561C840.076 414.701 848.503 454.9 856.668 470.982Z" fill="#C0C0C0"/>
<path d="M952.499 500.599C973.934 534.833 957.085 566.111 945.981 577.47C893.342 539.015 901.673 485.096 912.419 462.944C929.957 420.539 971.442 416.063 989.992 419.125C997.952 463.493 968.313 491.928 952.499 500.599Z" fill="#C0C0C0"/>
<path d="M151.198 451.975C114.185 468.146 110.449 503.476 113.208 519.12C178.365 517.07 201.908 467.852 205.535 443.499C214.98 398.594 183.255 371.492 166.211 363.554C134.606 395.694 143.034 435.893 151.198 451.975Z" fill="#C0C0C0"/>
<path d="M247.029 481.591C268.465 515.826 251.615 547.104 240.511 558.463C187.872 520.008 196.203 466.089 206.949 443.936C224.487 401.532 265.972 397.056 284.522 400.118C292.483 444.486 262.844 472.92 247.029 481.591Z" fill="#C0C0C0"/>
<path d="M313.53 502.143C276.516 518.314 272.78 553.645 275.539 569.288C340.696 567.239 364.24 518.021 367.866 493.668C377.312 448.763 345.586 421.66 328.543 413.722C296.937 445.863 305.365 486.062 313.53 502.143Z" fill="#C0C0C0"/>
<path d="M409.361 531.76C430.796 565.995 413.947 597.272 402.843 608.632C350.203 570.177 358.535 516.258 369.28 494.105C386.818 451.701 428.303 447.224 446.854 450.287C454.814 494.655 425.175 523.089 409.361 531.76Z" fill="#C0C0C0"/>
<path d="M475.861 552.312C438.847 568.483 435.112 603.813 437.87 619.457C503.028 617.407 526.571 568.189 530.198 543.837C539.643 498.931 507.917 471.829 490.874 463.891C459.269 496.032 467.696 536.23 475.861 552.312Z" fill="#C0C0C0"/>
<path d="M571.692 581.929C593.127 616.163 576.278 647.441 565.174 658.8C512.535 620.345 520.866 566.426 531.612 544.274C549.15 501.869 590.635 497.393 609.185 500.455C617.145 544.823 587.506 573.258 571.692 581.929Z" fill="#C0C0C0"/>
<path d="M638.192 602.481C601.179 618.652 597.443 653.982 600.202 669.626C665.359 667.576 688.902 618.358 692.529 594.005C701.974 549.1 670.248 521.998 653.205 514.06C621.6 546.2 630.028 586.399 638.192 602.481Z" fill="#C0C0C0"/>
<path d="M734.023 632.097C755.458 666.332 738.609 697.609 727.505 708.969C674.866 670.514 683.197 616.595 693.943 594.442C711.481 552.038 752.966 547.562 771.516 550.624C779.476 594.992 749.837 623.426 734.023 632.097Z" fill="#C0C0C0"/>
<path d="M800.523 652.649C763.51 668.82 759.774 704.151 762.533 719.794C827.69 717.745 851.233 668.527 854.86 644.174C864.305 599.269 832.58 572.166 815.536 564.228C783.931 596.369 792.359 636.568 800.523 652.649Z" fill="#C0C0C0"/>
<path d="M896.354 682.266C917.79 716.501 900.94 747.778 889.836 759.138C837.197 720.683 845.528 666.764 856.274 644.611C873.812 602.207 915.297 597.73 933.847 600.793C941.807 645.161 912.169 673.595 896.354 682.266Z" fill="#C0C0C0"/>
<path d="M95.0538 633.642C58.0405 649.813 54.3046 685.144 57.0634 700.787C122.221 698.738 145.764 649.52 149.391 625.167C158.836 580.262 127.11 553.159 110.067 545.221C78.4616 577.362 86.8893 617.561 95.0538 633.642Z" fill="#C0C0C0"/>
<path d="M190.885 663.259C212.32 697.494 195.471 728.771 184.367 740.131C131.728 701.676 140.059 647.757 150.804 625.604C168.343 583.2 209.828 578.723 228.378 581.786C236.338 626.154 206.699 654.588 190.885 663.259Z" fill="#C0C0C0"/>
<path d="M257.385 683.811C220.372 699.982 216.636 735.312 219.395 750.956C284.552 748.906 308.095 699.688 311.722 675.336C321.167 630.43 289.441 603.328 272.398 595.39C240.793 627.531 249.22 667.729 257.385 683.811Z" fill="#C0C0C0"/>
<path d="M353.216 713.428C374.651 747.662 357.802 778.94 346.698 790.299C294.059 751.844 302.39 697.925 313.136 675.773C330.674 633.368 372.159 628.892 390.709 631.954C398.669 676.322 369.03 704.757 353.216 713.428Z" fill="#C0C0C0"/>
<path d="M419.716 733.98C382.703 750.151 378.967 785.481 381.726 801.125C446.883 799.075 470.426 749.857 474.053 725.504C483.498 680.599 451.773 653.497 434.729 645.559C403.124 677.699 411.552 717.898 419.716 733.98Z" fill="#C0C0C0"/>
<path d="M515.547 763.596C536.983 797.831 520.133 829.108 509.029 840.468C456.39 802.013 464.721 748.094 475.467 725.941C493.005 683.537 534.49 679.061 553.04 682.123C561 726.491 531.362 754.925 515.547 763.596Z" fill="#C0C0C0"/>
<path d="M582.047 784.148C545.034 800.319 541.298 835.65 544.057 851.293C609.214 849.243 632.757 800.026 636.384 775.673C645.83 730.767 614.104 703.665 597.06 695.727C565.455 727.868 573.883 768.067 582.047 784.148Z" fill="#C0C0C0"/>
<path d="M677.879 813.765C699.314 848 682.465 879.277 671.36 890.637C618.721 852.182 627.053 798.263 637.798 776.11C655.336 733.706 696.821 729.229 715.372 732.292C723.332 776.66 693.693 805.094 677.879 813.765Z" fill="#C0C0C0"/>
<path d="M744.379 834.317C707.365 850.488 703.63 885.818 706.388 901.462C771.545 899.412 795.089 850.194 798.716 825.842C808.161 780.936 776.435 753.834 759.392 745.896C727.786 778.037 736.214 818.235 744.379 834.317Z" fill="#C0C0C0"/>
<path d="M840.21 863.934C861.645 898.168 844.796 929.446 833.692 940.805C781.052 902.35 789.384 848.431 800.129 826.279C817.667 783.874 859.153 779.398 877.703 782.46C885.663 826.828 856.024 855.263 840.21 863.934Z" fill="#C0C0C0"/>
<path d="M38.9092 815.31C1.89594 831.481 -1.8399 866.811 0.918845 882.455C66.0761 880.405 89.6192 831.187 93.2462 806.835C102.691 761.929 70.9657 734.827 53.9222 726.889C22.317 759.029 30.7447 799.228 38.9092 815.31Z" fill="#C0C0C0"/>
<path d="M134.74 844.926C156.176 879.161 139.326 910.439 128.222 921.798C75.583 883.343 83.9144 829.424 94.66 807.271C112.198 764.867 153.683 760.391 172.233 763.453C180.193 807.821 150.555 836.255 134.74 844.926Z" fill="#C0C0C0"/>
<path d="M201.24 865.478C164.227 881.65 160.491 916.98 163.25 932.623C228.407 930.574 251.95 881.356 255.577 857.003C265.023 812.098 233.297 784.995 216.253 777.058C184.648 809.198 193.076 849.397 201.24 865.478Z" fill="#C0C0C0"/>
<path d="M297.072 895.095C318.507 929.33 301.658 960.607 290.553 971.967C237.914 933.512 246.246 879.593 256.991 857.44C274.529 815.036 316.014 810.559 334.565 813.622C342.525 857.99 312.886 886.424 297.072 895.095Z" fill="#C0C0C0"/>
<path d="M363.572 915.647C326.558 931.818 322.823 967.148 325.581 982.792C390.739 980.742 414.282 931.524 417.909 907.172C427.354 862.266 395.628 835.164 378.585 827.226C346.98 859.367 355.407 899.565 363.572 915.647Z" fill="#C0C0C0"/>
<path d="M459.403 945.264C480.838 979.498 463.989 1010.78 452.885 1022.14C400.246 983.68 408.577 929.761 419.322 907.609C436.861 865.204 478.346 860.728 496.896 863.79C504.856 908.159 475.217 936.593 459.403 945.264Z" fill="#C0C0C0"/>
<path d="M525.903 965.816C488.89 981.987 485.154 1017.32 487.913 1032.96C553.07 1030.91 576.613 981.693 580.24 957.34C589.685 912.435 557.959 885.333 540.916 877.395C509.311 909.535 517.738 949.734 525.903 965.816Z" fill="#C0C0C0"/>
<path d="M621.734 995.432C643.169 1029.67 626.32 1060.94 615.216 1072.3C562.577 1033.85 570.908 979.93 581.654 957.777C599.192 915.373 640.677 910.897 659.227 913.959C667.187 958.327 637.548 986.761 621.734 995.432Z" fill="#C0C0C0"/>
<path d="M688.234 1015.98C651.221 1032.16 647.485 1067.49 650.244 1083.13C715.401 1081.08 738.944 1031.86 742.571 1007.51C752.016 962.604 720.291 935.501 703.247 927.563C671.642 959.704 680.07 999.903 688.234 1015.98Z" fill="#C0C0C0"/>
<path d="M784.065 1045.6C805.501 1079.84 788.651 1111.11 777.547 1122.47C724.908 1084.02 733.239 1030.1 743.985 1007.95C761.523 965.542 803.008 961.065 821.558 964.128C829.518 1008.5 799.88 1036.93 784.065 1045.6Z" fill="#C0C0C0"/>
</svg>
