<svg xmlns="http://www.w3.org/2000/svg">

	<symbol id="i-search" viewBox="0 0 24 24">
		<path d="M11.5 21C16.7467 21 21 16.7467 21 11.5C21 6.25329 16.7467 2 11.5 2C6.25329 2 2 6.25329 2 11.5C2 16.7467 6.25329 21 11.5 21Z" stroke-width="1.5" stroke="black" fill="none" stroke-linecap="round" stroke-linejoin="round"/>
        <path d="M22 22L20 20" stroke-width="1.5" stroke="black" stroke-linecap="round" stroke-linejoin="round"/>
	</symbol>
		
	<symbol id="i-heart" viewBox="0 0 24 24">
		<path d="M12.62 20.8096C12.28 20.9296 11.72 20.9296 11.38 20.8096C8.48 19.8196 2 15.6896 2 8.68961C2 5.59961 4.49 3.09961 7.56 3.09961C9.38 3.09961 10.99 3.97961 12 5.33961C13.01 3.97961 14.63 3.09961 16.44 3.09961C19.51 3.09961 22 5.59961 22 8.68961C22 15.6896 15.52 19.8196 12.62 20.8096Z" stroke-width="1.5" stroke="black" fill="none" stroke-linecap="round" stroke-linejoin="round"/>
	</symbol>

	<symbol id="i-user" viewBox="0 0 24 24">
		<path d="M12 12C14.7614 12 17 9.76142 17 7C17 4.23858 14.7614 2 12 2C9.23858 2 7 4.23858 7 7C7 9.76142 9.23858 12 12 12Z" stroke-width="1.5" fill="none" stroke="black" stroke-linecap="round" stroke-linejoin="round"/>
        <path d="M20.59 22C20.59 18.13 16.74 15 12 15C7.26003 15 3.41003 18.13 3.41003 22" stroke-width="1.5" stroke-linecap="round" fill="none" stroke="black" stroke-linejoin="round"/>
	</symbol>

	<symbol id="i-bag" viewBox="0 0 24 24">
		<path d="M7.5 7.66952V6.69952C7.5 4.44952 9.31 2.23952 11.56 2.02952C14.24 1.76952 16.5 3.87952 16.5 6.50952V7.88952" stroke="black" stroke-width="1.5" fill="none" stroke-miterlimit="10" stroke-linecap="round" stroke-linejoin="round"/>
        <path d="M9.0008 22H15.0008C19.0208 22 19.7408 20.39 19.9508 18.43L20.7008 12.43C20.9708 9.99 20.2708 8 16.0008 8H8.0008C3.7308 8 3.0308 9.99 3.3008 12.43L4.0508 18.43C4.2608 20.39 4.9808 22 9.0008 22Z" stroke="black" fill="none" stroke-width="1.5" stroke-miterlimit="10" stroke-linecap="round" stroke-linejoin="round"/>
        <path d="M15.4945 12H15.5035" stroke="black" fill="none" stroke-width="2" stroke-linecap="round" stroke-linejoin="round"/>
        <path d="M8.49451 12H8.50349" stroke="black" fill="none" stroke-width="2" stroke-linecap="round" stroke-linejoin="round"/>
	</symbol>

	<symbol id="i-world" viewBox="0 0 55 54">
		<path d="M53 27C53 33.763 50.3134 40.249 45.5312 45.0312C40.749 49.8134 34.263 52.5 27.5 52.5C20.737 52.5 14.251 49.8134 9.46878 45.0312C4.6866 40.249 2 33.763 2 27M53 27C53 20.237 50.3134 13.751 45.5312 8.96878C40.749 4.1866 34.263 1.5 27.5 1.5C20.737 1.5 14.251 4.1866 9.46878 8.96878C4.6866 13.751 2 20.237 2 27M53 27H2" stroke-width="3" stroke-linecap="round" fill="none" stroke-linejoin="round"/>
		<path d="M37.3079 27C36.8261 36.3251 33.3914 45.2554 27.5002 52.5C21.609 45.2554 18.1742 36.3251 17.6925 27C18.1742 17.6749 21.609 8.74456 27.5002 1.5C33.3914 8.74456 36.8261 17.6749 37.3079 27Z" stroke-width="3" stroke-linecap="round" fill="none" stroke-linejoin="round"/>
	</symbol>

	<symbol id="i-education" viewBox="0 0 59 48">
		<path fill-rule="evenodd" clip-rule="evenodd" d="M2.11437 11.4096C1.48216 11.7077 0.94763 12.1802 0.573224 12.7716C0.198818 13.3631 0 14.0492 0 14.7497C0 15.4503 0.198818 16.1364 0.573224 16.7279C0.94763 17.3193 1.48216 17.7918 2.11437 18.0899L7.38361 20.584V35.0679C7.38361 37.8095 8.27164 40.8689 10.862 42.7533C14.1268 45.118 20.074 48 29.507 48C38.9401 48 44.8726 45.0995 48.152 42.7533C50.7424 40.8763 51.6304 37.8391 51.6304 35.0679V20.584L55.3152 18.8363V35.0568C55.3152 35.5468 55.5093 36.0167 55.8548 36.3632C56.2004 36.7096 56.669 36.9043 57.1576 36.9043C57.6462 36.9043 58.1149 36.7096 58.4604 36.3632C58.8059 36.0167 59 35.5468 59 35.0568V14.735C59.0002 14.0352 58.8021 13.3498 58.429 12.7585C58.0559 12.1672 57.523 11.6943 56.8923 11.3948L35.8154 1.41861C33.8454 0.484497 31.6935 0 29.5144 0C27.3353 0 25.1833 0.484497 23.2134 1.41861L2.13648 11.3948L2.11437 11.4096ZM11.0684 35.0568V22.3095L23.1913 28.0735C25.1612 29.0076 27.3132 29.4921 29.4923 29.4921C31.6714 29.4921 33.8233 29.0076 35.7933 28.0735L47.9162 22.3095V35.0568C47.9162 37.1112 47.2529 38.7887 45.9632 39.7124C43.2955 41.6448 38.1147 44.294 29.4923 44.294C20.8699 44.294 15.6744 41.6633 13.0213 39.7124C11.7353 38.7813 11.0684 37.0927 11.0684 35.0568ZM24.7758 4.75878C26.25 4.05852 27.861 3.69527 29.4923 3.69527C31.1236 3.69527 32.7345 4.05852 34.2088 4.75878L55.2857 14.735L34.2088 24.7111C32.7345 25.4114 31.1236 25.7747 29.4923 25.7747C27.861 25.7747 26.25 25.4114 24.7758 24.7111L3.69883 14.735L24.7758 4.75878Z" />
	</symbol>

	<symbol id="i-community" viewBox="0 0 53 52">
		<path d="M2 12.6362V21.5456M10.9094 17.0909H2M51.0016 12.6362V21.5456M42.0922 17.0909H51.0016M26.5008 12.1908C27.2028 12.1908 27.8979 12.0525 28.5465 11.7839C29.1951 11.5152 29.7844 11.1215 30.2807 10.6251C30.7771 10.1287 31.1709 9.53939 31.4395 8.89083C31.7082 8.24226 31.8464 7.54714 31.8464 6.84514C31.8464 6.14314 31.7082 5.44802 31.4395 4.79946C31.1709 4.1509 30.7771 3.5616 30.2807 3.06521C29.7844 2.56882 29.1951 2.17507 28.5465 1.90642C27.8979 1.63778 27.2028 1.49951 26.5008 1.49951C25.0831 1.49951 23.7234 2.06271 22.7209 3.06521C21.7184 4.06771 21.1552 5.42739 21.1552 6.84514C21.1552 8.26289 21.7184 9.62257 22.7209 10.6251C23.7234 11.6276 25.0831 12.1908 26.5008 12.1908ZM35.8557 24.2184C35.8557 21.7374 34.8701 19.3579 33.1157 17.6036C31.3613 15.8492 28.9819 14.8636 26.5008 14.8636C24.0197 14.8636 21.6403 15.8492 19.8859 17.6036C18.1315 19.3579 17.146 21.7374 17.146 24.2184V28.2277H21.1552L22.4916 41.5917H30.51L31.8464 28.2277H35.8557V24.2184Z" fill="none" stroke-width="3" stroke-linecap="round" stroke-linejoin="round"/>
		<path d="M10.9094 34.7175C5.46798 36.3523 2 38.8247 2 41.5911C2 46.5113 12.9697 50.5004 26.5008 50.5004C40.0319 50.5004 51.0016 46.5113 51.0016 41.5911C51.0016 38.8247 47.5336 36.3523 42.0922 34.7175" stroke-width="3" stroke-linecap="round" fill="none" stroke-linejoin="round"/>
	</symbol>

	<symbol id="i-delivery" viewBox="0 0 48 50">
		<path d="M13.482 33.4C13.5493 33.6431 13.6637 33.8706 13.8189 34.0694C13.974 34.2682 14.1668 34.4346 14.3862 34.5589C14.6056 34.6832 14.8474 34.7631 15.0977 34.794C15.348 34.8249 15.6019 34.8062 15.845 34.739C16.0881 34.6717 16.3155 34.5573 16.5143 34.4021C16.7132 34.247 16.8795 34.0542 17.0038 33.8348C17.1282 33.6154 17.208 33.3736 17.2389 33.1233C17.2698 32.873 17.2511 32.6191 17.1839 32.376L13.482 33.4ZM2.45838 6.41692C2.21436 6.34564 1.95861 6.32353 1.70597 6.35188C1.45334 6.38022 1.20885 6.45845 0.986687 6.58203C0.764526 6.70561 0.569117 6.87208 0.411799 7.07178C0.254481 7.27147 0.138386 7.50042 0.0702496 7.74534C0.0021131 7.99026 -0.0167081 8.24627 0.0148782 8.49852C0.0464645 8.75077 0.127829 8.99424 0.254252 9.21479C0.380674 9.43535 0.549637 9.6286 0.751337 9.78334C0.953037 9.93808 1.18346 10.0512 1.42923 10.1162L2.45838 6.41692ZM45.9488 34.5777C46.1989 34.5199 46.4347 34.4125 46.6426 34.262C46.8504 34.1115 47.0259 33.9208 47.1588 33.7013C47.2917 33.4818 47.3792 33.2379 47.4163 32.984C47.4533 32.73 47.439 32.4713 47.3743 32.2229C47.3096 31.9746 47.1958 31.7418 47.0396 31.5382C46.8834 31.3346 46.688 31.1644 46.4649 31.0376C46.2418 30.9109 45.9955 30.8301 45.7407 30.8001C45.4858 30.7701 45.2276 30.7915 44.9811 30.863L45.9488 34.5777ZM20.3712 39.2728C21.1648 42.1401 19.424 45.1687 16.3416 45.97L17.3068 49.6847C22.368 48.3713 25.4606 43.2794 24.073 38.2488L20.3712 39.2728ZM16.3416 45.97C13.2388 46.7764 10.1258 44.9741 9.32705 42.0812L5.62519 43.1053C7.00762 48.1102 12.266 50.9954 17.3068 49.6847L16.3416 45.97ZM9.32705 42.0812C8.53342 39.214 10.2743 36.1854 13.3566 35.3841L12.3914 31.672C7.33019 32.9853 4.23507 38.0747 5.62519 43.1053L9.32705 42.0812ZM13.3566 35.3841C16.4594 34.5777 19.5724 36.38 20.3712 39.2728L24.073 38.2488C22.6906 33.2439 17.4322 30.3587 12.3914 31.6694L13.3566 35.3841ZM17.1839 32.376L11.6746 12.4331L7.97277 13.4571L13.482 33.4L17.1839 32.376ZM6.82074 7.62527L2.45838 6.41692L1.42923 10.1162L5.79415 11.3271L6.82074 7.62527ZM11.6746 12.4331C11.3491 11.281 10.7311 10.2328 9.8805 9.39029C9.02995 8.54781 7.97586 7.93976 6.82074 7.62527L5.79927 11.3271C6.8873 11.6292 7.69628 12.4561 7.97277 13.4571L11.6746 12.4331ZM22.7085 40.6194L45.9488 34.5777L44.9837 30.863L21.7408 36.9048L22.7085 40.6194Z" />
		<path d="M18.7542 16.6685C17.5126 12.1756 16.893 9.92784 17.9478 8.15883C19 6.38727 21.3168 5.78565 25.9506 4.57986L30.8659 3.30494C35.4996 2.10171 37.8165 1.49753 39.6418 2.519C41.4671 3.54303 42.0892 5.78821 43.3283 10.2837L44.6467 15.0505C45.8884 19.5435 46.5105 21.7912 45.4557 23.5628C44.401 25.3318 42.0841 25.936 37.4504 27.1392L32.5351 28.4167C27.9013 29.6199 25.5845 30.2215 23.7591 29.2C21.9338 28.176 21.3143 25.9308 20.0726 21.4379L18.7542 16.6685Z" fill="none" stroke-width="4"/>
	</symbol>

</svg>