<svg width="820" height="420" fill="none" xmlns="http://www.w3.org/2000/svg"><g opacity=".4"><rect x="10" width="810" height="410" rx="30" fill="#246EDE" fill-opacity=".2"/><rect x=".5" y="10.5" width="809" height="409" rx="29.5" fill="#fff" stroke="#246EDE"/><rect x="45.5" y="120.5" width="169" height="64" rx="9.5" fill="#246EDE" fill-opacity=".1" stroke="#246EDE"/><path d="M45.5 44a9.5 9.5 0 0 1 9.5-9.5h125.6a9.5 9.5 0 0 1 7 3l20.8 22.6a9.5 9.5 0 0 1 0 12.8l-20.8 22.5a9.5 9.5 0 0 1-7 3.1H55a9.5 9.5 0 0 1-9.5-9.5V44zm190 0a9.5 9.5 0 0 1 9.5-9.5h125.6a9.5 9.5 0 0 1 7 3l20.8 22.6a9.5 9.5 0 0 1 0 12.8l-20.8 22.5a9.5 9.5 0 0 1-7 3.1H245a9.5 9.5 0 0 1-9.5-9.5V44zm190 0a9.5 9.5 0 0 1 9.5-9.5h125.6a9.5 9.5 0 0 1 7 3l20.8 22.6a9.5 9.5 0 0 1 0 12.8l-20.8 22.5a9.5 9.5 0 0 1-7 3.1H435a9.5 9.5 0 0 1-9.5-9.5V44z" fill="#246EDE" fill-opacity=".1" stroke="#246EDE"/><path opacity=".1" d="M82 145a4 4 0 0 0-4-4H68a4 4 0 0 0 0 8h10a4 4 0 0 0 4-4z" fill="#246EDE"/><rect x="45.5" y="206.5" width="169" height="64" rx="9.5" fill="#246EDE" fill-opacity=".1" stroke="#246EDE"/><path opacity=".1" d="M188 145a4 4 0 0 0-4-4h-10a4 4 0 0 0 0 8h10a4 4 0 0 0 4-4z" fill="#246EDE"/><rect x="45.5" y="291.5" width="169" height="64" rx="9.5" fill="#246EDE" fill-opacity=".1" stroke="#246EDE"/><rect x="235.5" y="120.5" width="169" height="64" rx="9.5" fill="#246EDE" fill-opacity=".1" stroke="#246EDE"/><path opacity=".1" d="M121 145a4 4 0 0 0-4-4H93a4 4 0 0 0 0 8h24a4 4 0 0 0 4-4zm-39 86a4 4 0 0 0-4-4H68a4 4 0 0 0 0 8h10a4 4 0 0 0 4-4zm39 0a4 4 0 0 0-4-4H93a4 4 0 0 0 0 8h24a4 4 0 0 0 4-4zm150 0a4 4 0 0 0-4-4h-10a4 4 0 0 0 0 8h10a4 4 0 0 0 4-4zm191 85a4 4 0 0 0-4-4h-10a4 4 0 0 0 0 8h10a4 4 0 0 0 4-4zm187-171a4 4 0 0 0-4-4h-10a4 4 0 0 0 0 8h10a4 4 0 0 0 4-4zm0 85a4 4 0 0 0-4-4h-10a4 4 0 0 0 0 8h10a4 4 0 0 0 4-4zm-488-85a4 4 0 0 0-4-4h-24a4 4 0 0 0 0 8h24a4 4 0 0 0 4-4zm216 86a4 4 0 0 0-4-4h-10a4 4 0 0 0 0 8h10a4 4 0 0 0 4-4zm191 85a4 4 0 0 0-4-4h-10a4 4 0 0 0 0 8h10a4 4 0 0 0 4-4zm187-171a4 4 0 0 0-4-4h-10a4 4 0 0 0 0 8h10a4 4 0 0 0 4-4zm0 85a4 4 0 0 0-4-4h-10a4 4 0 0 0 0 8h10a4 4 0 0 0 4-4zm-594 1a4 4 0 0 0-4-4h-24a4 4 0 0 0 0 8h24a4 4 0 0 0 4-4zm-65 15a4 4 0 0 0-4-4H68a4 4 0 0 0 0 8h24a4 4 0 0 0 4-4zm0-86a4 4 0 0 0-4-4H68a4 4 0 0 0 0 8h24a4 4 0 0 0 4-4zm214 71a4 4 0 0 0-4-4h-24a4 4 0 0 0 0 8h24a4 4 0 0 0 4-4zm191 85a4 4 0 0 0-4-4h-24a4 4 0 0 0 0 8h24a4 4 0 0 0 4-4zm187-171a4 4 0 0 0-4-4h-24a4 4 0 0 0 0 8h24a4 4 0 0 0 4-4zm0 85a4 4 0 0 0-4-4h-24a4 4 0 0 0 0 8h24a4 4 0 0 0 4-4zm-527 16a4 4 0 0 0-4-4h-50a4 4 0 0 0 0 8h50a4 4 0 0 0 4-4z" fill="#246EDE"/><rect x="235.5" y="206.5" width="169" height="64" rx="9.5" fill="#246EDE" fill-opacity=".1" stroke="#246EDE"/><path opacity=".1" d="M144 160a4 4 0 0 0-4-4h-33a4 4 0 0 0 0 8h33a4 4 0 0 0 4-4zm206 71a4 4 0 0 0-4-4h-24a4 4 0 0 0 0 8h24a4 4 0 0 0 4-4zm191 85a4 4 0 0 0-4-4h-24a4 4 0 0 0 0 8h24a4 4 0 0 0 4-4zm187-171a4 4 0 0 0-4-4h-24a4 4 0 0 0 0 8h24a4 4 0 0 0 4-4zm0 85a4 4 0 0 0-4-4h-24a4 4 0 0 0 0 8h24a4 4 0 0 0 4-4z" fill="#246EDE"/><rect x="235.5" y="291.5" width="169" height="64" rx="9.5" fill="#246EDE" fill-opacity=".1" stroke="#246EDE"/><path opacity=".1" d="M187 160a4 4 0 0 0-4-4h-27a4 4 0 0 0 0 8h27a4 4 0 0 0 4-4z" fill="#246EDE"/><rect x="425.5" y="120.5" width="169" height="64" rx="9.5" fill="#246EDE" fill-opacity=".1" stroke="#246EDE"/><path opacity=".1" d="M285 246a4 4 0 0 0-4-4h-24a4 4 0 0 0 0 8h24a4 4 0 0 0 4-4zm191 85a4 4 0 0 0-4-4h-24a4 4 0 0 0 0 8h24a4 4 0 0 0 4-4zm187-171a4 4 0 0 0-4-4h-24a4 4 0 0 0 0 8h24a4 4 0 0 0 4-4zm0 85a4 4 0 0 0-4-4h-24a4 4 0 0 0 0 8h24a4 4 0 0 0 4-4z" fill="#246EDE"/><rect x="425.5" y="206.5" width="169" height="64" rx="9.5" fill="#246EDE" fill-opacity=".1" stroke="#246EDE"/><rect x="425.5" y="291.5" width="169" height="64" rx="9.5" fill="#246EDE" fill-opacity=".1" stroke="#246EDE"/><path opacity=".1" d="M649 330a4 4 0 0 0-4-4h-10a4 4 0 0 0 0 8h10a4 4 0 0 0 4-4zm-189-82a4 4 0 0 0-4-4h-10a4 4 0 0 0 0 8h10a4 4 0 0 0 4-4z" fill="#246EDE"/><rect x="615.5" y="120.5" width="169" height="64" rx="9.5" fill="#246EDE" fill-opacity=".1" stroke="#246EDE"/><path opacity=".1" d="M333 246a4 4 0 0 0-4-4h-33a4 4 0 0 0 0 8h33a4 4 0 0 0 4-4zm191 85a4 4 0 0 0-4-4h-33a4 4 0 0 0 0 8h33a4 4 0 0 0 4-4zm164-1a4 4 0 0 0-4-4h-24a4 4 0 0 0 0 8h24a4 4 0 0 0 4-4zm-189-82a4 4 0 0 0-4-4h-24a4 4 0 0 0 0 8h24a4 4 0 0 0 4-4zm212-88a4 4 0 0 0-4-4h-33a4 4 0 0 0 0 8h33a4 4 0 0 0 4-4zm0 85a4 4 0 0 0-4-4h-33a4 4 0 0 0 0 8h33a4 4 0 0 0 4-4zM272 144a4 4 0 0 0-4-4h-10a4 4 0 0 0 0 8h10a4 4 0 0 0 4-4zm0 171a4 4 0 0 0-4-4h-10a4 4 0 0 0 0 8h10a4 4 0 0 0 4-4zm456 15a4 4 0 0 0-4-4h-24a4 4 0 0 0 0 8h24a4 4 0 0 0 4-4zm-189-82a4 4 0 0 0-4-4h-24a4 4 0 0 0 0 8h24a4 4 0 0 0 4-4z" fill="#246EDE"/><rect x="615.5" y="34.5" width="169" height="64" rx="9.5" fill="#246EDE" fill-opacity=".1" stroke="#246EDE"/><path opacity=".1" d="M376 246a4 4 0 0 0-4-4h-27a4 4 0 0 0 0 8h27a4 4 0 0 0 4-4zm-65-102a4 4 0 0 0-4-4h-24a4 4 0 0 0 0 8h24a4 4 0 0 0 4-4zm0 171a4 4 0 0 0-4-4h-24a4 4 0 0 0 0 8h24a4 4 0 0 0 4-4zm352 0a4 4 0 0 0-4-4h-24a4 4 0 0 0 0 8h24a4 4 0 0 0 4-4zm-189-84a4 4 0 0 0-4-4h-24a4 4 0 0 0 0 8h24a4 4 0 0 0 4-4zm-123-87a4 4 0 0 0-4-4h-24a4 4 0 0 0 0 8h24a4 4 0 0 0 4-4zm0 171a4 4 0 0 0-4-4h-24a4 4 0 0 0 0 8h24a4 4 0 0 0 4-4zm216 16a4 4 0 0 0-4-4h-27a4 4 0 0 0 0 8h27a4 4 0 0 0 4-4zm187-171a4 4 0 0 0-4-4h-27a4 4 0 0 0 0 8h27a4 4 0 0 0 4-4zm-468-1a4 4 0 0 0-4-4h-24a4 4 0 0 0 0 8h24a4 4 0 0 0 4-4zm0 171a4 4 0 0 0-4-4h-24a4 4 0 0 0 0 8h24a4 4 0 0 0 4-4zm442-15a4 4 0 0 0-4-4h-50a4 4 0 0 0 0 8h50a4 4 0 0 0 4-4zm-189-84a4 4 0 0 0-4-4h-50a4 4 0 0 0 0 8h50a4 4 0 0 0 4-4zm-188-72a4 4 0 0 0-4-4h-50a4 4 0 0 0 0 8h50a4 4 0 0 0 4-4zm0 171a4 4 0 0 0-4-4h-50a4 4 0 0 0 0 8h50a4 4 0 0 0 4-4zm403-85a4 4 0 0 0-4-4h-27a4 4 0 0 0 0 8h27a4 4 0 0 0 4-4z" fill="#246EDE"/><rect x="615.5" y="206.5" width="169" height="64" rx="9.5" fill="#246EDE" fill-opacity=".1" stroke="#246EDE"/><rect x="615.5" y="291.5" width="169" height="64" rx="9.5" fill="#246EDE" fill-opacity=".1" stroke="#246EDE"/><rect opacity=".2" x="27.8" y="130" width="102.5" height="103.2" rx="10" fill="#246EDE"/><rect x="20.5" y="138.3" width="101.5" height="102.2" rx="9.5" fill="#fff" stroke="#246EDE"/><path opacity=".2" d="M68.2 168.5l-.1.3.2.2.7.8-.7 1-.6 1-1-.4-.3-.2-.2.2a7 7 0 0 1-1.7 1.1l-.3.1V174l-1.2.2-1.1.3-.4-1-.2-.3H61a7 7 0 0 1-1.9-.5h-.3l-.2.1-.8.8-1-.7-1-.7.5-1v-.2l-.1-.3a7 7 0 0 1-1-1.6l-.2-.3H53.6l-.2-1.2-.2-1.2 1-.4.3-.1v-.3c0-.7.2-1.3.4-2v-.2l-.1-.2-.8-.8.7-1 .7-1 1 .4.3.2.2-.2a7 7 0 0 1 1.7-1.1l.2-.1v-1.4l1.2-.2 1.2-.3.4 1 .1.3h.3a7 7 0 0 1 2 .4l.2.2.3-.3.7-.7 1 .7h0l1 .7-.4 1-.1.2.2.3a7 7 0 0 1 1 1.6l.2.3h1.3l.3 1.2.2 1.2-1 .4h-.3v.4a7 7 0 0 1-.4 2zm-10.3-5a4.4 4.4 0 0 0 1.1 6.3 4.4 4.4 0 0 0 6.2-1.2 4.4 4.4 0 0 0-7.3-5z" fill="#fff" stroke="#246EDE"/><path opacity=".2" d="M79.6 161.6l-.2.2v.3l-.3 1v.2l.1.2.3.3-.3.3.5.3-.5-.3-.2.4-.3-.1-.3-.2-.3.2a3.4 3.4 0 0 1-.8.6h-.2v.8h-.5l-.4.1-.1-.3-.1-.3h-.4a3.4 3.4 0 0 1-.9-.2l-.3-.1-.2.2-.3.2-.3-.2-.4-.3.2-.3v-.3l-.1-.2a3.4 3.4 0 0 1-.5-.8l-.2-.3H72l-.1-.4-.1-.5h.3l.3-.2v-.3l.2-1 .2-.3-.3-.2-.2-.2.2-.4.3-.3.3.1.3.1.2-.2a3.4 3.4 0 0 1 .8-.5l.3-.1v-.7h.5l.4-.2.1.4.1.3h.3c.4 0 .7 0 1 .2h.3l.2-.1.3-.3.3.3h0l.4.2-.2.3-.1.3.2.3.5.8.1.3h.7l.1.4v.4l-.3.1z" stroke="#246EDE"/><path opacity=".2" d="M82.8 174.6l-.1.3.2.2.4.4-.4.5-.4.6-.5-.2-.3-.2-.2.2a4.4 4.4 0 0 1-1 .7l-.3.1V178.1l-.6.1-.7.1-.2-.5-.1-.3h-.3a4.4 4.4 0 0 1-1.2-.3h-.3l-.2.2-.4.3-.6-.3-.5-.4.2-.5.2-.3-.2-.2a4.4 4.4 0 0 1-.7-1l-.1-.3h-.9l-.1-.7-.1-.6.5-.2.3-.1v-.3a4.4 4.4 0 0 1 .2-1.2l.1-.3-.2-.3-.4-.4.4-.5.4-.5.5.2.3.1.2-.2a4.4 4.4 0 0 1 1-.6l.3-.2v-.8l.7-.2h.6l.2.4.1.3h.3l1.2.3.3.1.2-.2.4-.4.6.4h0l.5.3-.2.6-.1.2.2.3c.2.3.5.6.6 1l.2.3h.8l.1.6.2.7-.6.2h-.2v.4l-.3 1.2zm-6.7-3.3a3 3 0 0 0 .8 4.3l4.2-.8s0 0 0 0a3 3 0 0 0-5-3.5z" fill="#fff" stroke="#246EDE"/><rect opacity=".2" x="58" y="179.7" width="29.5" height="20.2" rx="5" fill="#246EDE"/><rect x="57" y="181.7" width="28.5" height="19.2" rx="4.5" fill="#fff" stroke="#246EDE"/><rect x="64" y="177.8" width="13" height="3.7" rx="1.8" fill="#fff" stroke="#246EDE"/><path d="M61.6 190.8v-.6a2.2 2.2 0 0 1 4.5 0v.6h-4.5zm14 0v-.6a2.2 2.2 0 0 1 4.4 0v.6h-4.4zm-1.8 4.1a3 3 0 0 1-6 0h6zm16.3-4c0 2.8-2 5-4.4 5.3v-10.6c2.5.3 4.4 2.5 4.4 5.3z" fill="#fff" stroke="#246EDE"/><path d="M87.5 185.9v-6.2" stroke="#246EDE"/><circle cx="87.5" cy="176.6" r="2.6" fill="#fff" stroke="#246EDE"/><circle cx="70.5" cy="173.5" r="1.1" fill="#fff" stroke="#246EDE"/><path d="M70.5 178.1v-3" stroke="#246EDE"/><g opacity=".5" stroke="#246EDE"><circle cx="98" cy="211.1" r="9.2" fill="#fff"/><path d="M101 207l-9.1 3.6c-.6.3-.6.6-.1.8l2.4.7 5.7-3.2-4.4 3.9-.1 2.4c.2 0 .3 0 .5-.2L97 214l2.5 1.8c.4.2.7 0 .8-.4l1.6-7.5c.3-1.2-.7-1-.9-.9z" stroke-linecap="square" stroke-linejoin="round"/></g><g clip-path="url(#clip0)" fill="#fff" stroke="#246EDE" opacity=".5"><path d="M60.4 232.5l1.3-4.1.1-.2-.1-.2a9 9 0 1 1 3.6 3.4l-.2-.1h-.2l-4.5 1.2z"/><path d="M75.1 226.8h0a.4.4 0 0 1 0 .5s0 0 0 0l-.7.5c-.8.9-1.6 1-2.4.9a6 6 0 0 1-2.7-1.8l-1.7-1.7-1.7-1.7a6 6 0 0 1-1.7-2.7c-.2-.8 0-1.6.8-2.4l.6-.6a.4.4 0 0 1 .5 0h0l.5.3.5.7a10.3 10.3 0 0 1 .5.8h0l.1.3s0 0 0 0h0a.1.1 0 0 1 0 0h0l.2.5-.3-.4h0v0h0a20.6 20.6 0 0 0-.6.5 1.6 1.6 0 0 0-.2.2h0c-.3.4-.4.8-.4 1.3 0 .4.3.8.6 1.1l1.4 1.4 1.3 1.3c.3.3.7.6 1.2.6.4 0 .8-.1 1.2-.4v0l.2-.2a18 18 0 0 0 .5-.5h0v0h0l-.3-.4.3.3h.1a.1.1 0 0 1 0 0h0a.5.5 0 0 1 .3 0h0a10.4 10.4 0 0 1 .8.5l.7.6.4.5z"/></g><path d="M42.9 202a9.2 9.2 0 1 1 0 18.3 9.2 9.2 0 1 1 0-18.4z" stroke="#246EDE" opacity=".5"/><path d="M60.5 156.7a4.5 4.5 0 0 0-4.5-4.5H36a4.5 4.5 0 0 0-4.5 4.5V169a4.5 4.5 0 0 0 4.5 4.5H56c.7 0 1.3.1 2 .3l4.4 1.7-1.6-4.5a5.5 5.5 0 0 1-.4-2v-12.2z" fill="#fff" stroke="#246EDE"/><path d="M35.1 164.7c0-.7.5-1.2 1.2-1.2H56a1.2 1.2 0 0 1 0 2.4H36.3c-.7 0-1.2-.6-1.2-1.2zm0-7.5c0-.7.5-1.2 1.2-1.2H56a1.2 1.2 0 1 1 0 2.3H36.3c-.7 0-1.2-.5-1.2-1.1zm10 11.3c0-.7.4-1.2 1-1.2h10a1.2 1.2 0 0 1 0 2.3H46c-.6 0-1-.5-1-1.1zm0-7.6c0-.6.4-1.2 1-1.2h10a1.2 1.2 0 1 1 0 2.4H46c-.6 0-1-.5-1-1.2zm-10 7.6c0-.7.5-1.2 1.2-1.2h5.6a1.2 1.2 0 0 1 0 2.3h-5.6c-.7 0-1.2-.5-1.2-1.1zm0-7.6c0-.6.5-1.2 1.2-1.2h5.6a1.2 1.2 0 1 1 0 2.4h-5.6c-.7 0-1.2-.5-1.2-1.2z" fill="#F1F1F1"/><g opacity=".5"><path d="M87.9 162l.1.5-.1-.5-2.6 1 1-2.6v-9.8a1.5 1.5 0 0 1 1.6-1.5h14.7a1.5 1.5 0 0 1 1.5 1.5v9.8a1.5 1.5 0 0 1-1.5 1.5H88.7l-.8.1z" fill="#fff" stroke="#246EDE"/><rect width="13.7" height="1.5" rx=".7" transform="matrix(-1 0 0 1 102 156)" fill="#F1F1F1"/><rect width="13.7" height="1.5" rx=".7" transform="matrix(-1 0 0 1 102 151.3)" fill="#F1F1F1"/><rect width="7.6" height="1.5" rx=".7" transform="matrix(-1 0 0 1 95.8 158.3)" fill="#F1F1F1"/><rect width="7.6" height="1.5" rx=".7" transform="matrix(-1 0 0 1 95.8 153.6)" fill="#F1F1F1"/><rect width="5" height="1.5" rx=".7" transform="matrix(-1 0 0 1 102 158.3)" fill="#F1F1F1"/><rect width="5" height="1.5" rx=".7" transform="matrix(-1 0 0 1 102 153.6)" fill="#F1F1F1"/></g><rect opacity=".2" x="449.4" y="138" width="108.3" height="101.6" rx="10" fill="#246EDE"/><rect x="442.5" y="145.9" width="107.3" height="100.6" rx="9.5" fill="#fff" stroke="#246EDE"/><rect opacity=".2" x="469.3" y="160.8" width="64.8" height="63.3" rx="5" fill="#246EDE"/><rect x="464.6" y="166.5" width="63.8" height="61.6" rx="4.5" fill="#fff" stroke="#246EDE"/><path d="M465.8 191.9a8.5 8.5 0 0 1-8.6-8.6 8.5 8.5 0 0 1 8.6-8.5 8.5 8.5 0 0 1 8.5 8.5 8.5 8.5 0 0 1-8.5 8.6z" fill="#246EDE" fill-opacity=".3" opacity=".3"/><path d="M463 193.2a8.5 8.5 0 0 1-8.5-8.5 8.5 8.5 0 0 1 8.5-8.5 8.5 8.5 0 0 1 8.6 8.5 8.5 8.5 0 0 1-8.6 8.5z" fill="#fff" stroke="#246EDE" stroke-miterlimit="10"/><path d="M468.5 187.8v-.1l-1.1-1.3-.5-.4a.4.4 0 0 1 0-.5l.5-.7c0-.3.2-.4.3-.5.7-1 1-1.5.9-1.7v-.1l-.3-.1a.5.5 0 0 0-.3 0h-2 0v.1l-.7 1.3-.4.6-.3.4-.3.2s0 .1 0 0h-.2l-.1-.1v-2.4l-.1-.2-.1-.1-.2-.1h-.8l-1.4.1-.2.2c-.1.1 0 .2 0 .2.2 0 .4 0 .5.2h0v.3l.1.4V184.7l-.1.3v.1h-.1l-.2.1a.3.3 0 0 1-.2 0c0-.1 0-.2-.2-.3a1.6 1.6 0 0 1-.2-.4l-.4-.6v-.2l-.3-.4a7.4 7.4 0 0 0-.2-.6.6.6 0 0 0-.2-.2h-2.1 0V182.9a16.9 16.9 0 0 0 1.5 2.8l.6.8.4.6.2.1.1.2.4.3.6.3a3 3 0 0 0 1.6.4h.6a.4.4 0 0 0 .3 0v-.1V187.9l.1-.5.1-.3.2-.1v-.1h.4l.4.4.4.4.4.4h.1l.3.2h1.8a.8.8 0 0 0 .4 0l.1-.3v-.1l-.1-.1z" stroke="#246EDE" stroke-miterlimit="10"/><path opacity=".3" d="M533.7 220.6a8.5 8.5 0 0 1-8.5-8.5 8.5 8.5 0 0 1 8.5-8.6 8.5 8.5 0 0 1 8.6 8.6 8.5 8.5 0 0 1-8.6 8.5z" fill="#246EDE" fill-opacity=".3"/><path d="M530.8 221.9a8.5 8.5 0 0 1-8.5-8.6 8.5 8.5 0 0 1 8.5-8.5 8.5 8.5 0 0 1 8.5 8.5 8.5 8.5 0 0 1-8.5 8.6z" fill="#fff" stroke="#246EDE" stroke-miterlimit="10"/><path d="M534.5 210.6h0a1.5 1.5 0 0 0-.4-.6 1.5 1.5 0 0 0-.5-.4l-1-.2h-1.8 0-1.9 0l-.7.2h-.2 0a1.5 1.5 0 0 0-.5.4l-.4.6-.2.8v3.8a3.7 3.7 0 0 0 .2.9h0a1.5 1.5 0 0 0 .4.6l.5.3 1 .2h3.7v0h0l.7-.1h.2v0h0l.5-.4.4-.6c.1-.2.2-.4.2-.9v-1.9-1.4a9.4 9.4 0 0 1 0-.5h0l-.2-.7a2.1 2.1 0 0 1 0-.1zm-6.7-1.6h0c.2-.2.6-.2 1-.3H532.8c.5 0 .8.1 1.1.3.3 0 .5.2.8.5h0c.3.2.4.4.5.8h0c.2.2.2.6.2 1v3.9c0 .5 0 .8-.2 1.1l-.5.8h0l-.8.5h0l-1 .2h-4c-.4 0-.7 0-1-.2l-.8-.5h0a2 2 0 0 1-.5-.8h0c-.2-.3-.2-.6-.2-1v-2-2c0-.4 0-.7.2-1 .1-.3.2-.6.5-.8h0c.2-.3.5-.4.8-.5z" fill="#246EDE" stroke="#fff" stroke-width=".1"/><path d="M528.5 213.3a2.3 2.3 0 0 1 2.3-2.3c1.3 0 2.3 1 2.3 2.3a2.3 2.3 0 0 1-2.3 2.4 2.3 2.3 0 0 1-2.3-2.4zm.7 0c0 1 .7 1.7 1.6 1.7.9 0 1.6-.8 1.6-1.7s-.7-1.6-1.6-1.6-1.6.7-1.6 1.6zm4.6-2.5a.5.5 0 0 1-.5.5.5.5 0 0 1-.5-.5.5.5 0 0 1 .5-.5c.3 0 .5.3.5.5z" fill="#246EDE" stroke="#fff" stroke-width=".1"/><path opacity=".3" d="M533 174.2a8.5 8.5 0 0 1-8.5-8.5 8.5 8.5 0 0 1 8.5-8.6 8.5 8.5 0 0 1 8.5 8.6 8.5 8.5 0 0 1-8.5 8.5z" fill="#246EDE" fill-opacity=".3"/><g clip-path="url(#clip1)" fill="#fff" stroke="#246EDE" stroke-miterlimit="10"><path d="M530.7 174.5a8.1 8.1 0 0 1-8-8.1 8.1 8.1 0 0 1 8-8.2 8.1 8.1 0 0 1 8.2 8.2 8.1 8.1 0 0 1-8.2 8z"/><path d="M529.5 171.3h2v-5h1.3l.2-1.7h-1.6v-.9c0-.4.1-.6.5-.6h1v-1.7h-1.3c-1.5 0-2.1.7-2.1 2v1.2h-1v1.7h1v5h0z" stroke-linecap="round" stroke-linejoin="round"/></g><path opacity=".3" d="M470.2 236a8.5 8.5 0 0 1-8.5-8.5 8.5 8.5 0 0 1 8.5-8.5 8.5 8.5 0 0 1 8.5 8.5 8.5 8.5 0 0 1-8.5 8.6z" fill="#246EDE" fill-opacity=".3"/><path d="M467.5 237.4a8.5 8.5 0 0 1-8.6-8.5 8.5 8.5 0 0 1 8.6-8.5 8.5 8.5 0 0 1 8.5 8.5 8.5 8.5 0 0 1-8.5 8.5z" fill="#fff" stroke="#246EDE" stroke-miterlimit="10"/><path d="M474 225.6c-.2-.6-.6-1.1-1.2-1.2-1-.3-5.3-.3-5.3-.3s-4.3 0-5.4.3a1.8 1.8 0 0 0-1.2 1.2c-.3 1-.3 3.3-.3 3.3s0 2.2.3 3.3c.2.6.6 1.1 1.2 1.2 1.1.3 5.4.3 5.4.3s4.2 0 5.3-.3a1.8 1.8 0 0 0 1.2-1.2c.3-1 .3-3.3.3-3.3s0-2.2-.3-3.3z" stroke="#246EDE" stroke-miterlimit="10"/><path d="M468.6 228.9l-2 1.2v-2.4l2 1.2z" fill="#246EDE" stroke="#246EDE"/><path d="M516.7 201.7v-5.5a3 3 0 0 0-1.6-2.6l-2.1-1a1.3 1.3 0 0 1-.6-.7m-4.2 0a1.3 1.3 0 0 1-.6.6l-2.1 1a3 3 0 0 0-1.6 2.7v5.5m-1-6.8v-5.5c0-1.1-.6-2.2-1.6-2.6l-2.3-1a1.4 1.4 0 0 1-.6-.7m-4.5 0c-.1.3-.3.5-.6.6l-2.3 1c-1 .5-1.6 1.6-1.6 2.7v5.5m-.9 6.8v-5.5a3 3 0 0 0-1.5-2.6l-2.2-1a1.3 1.3 0 0 1-.6-.7m-4.2 0c-.1.3-.3.5-.6.6l-2.1 1a3 3 0 0 0-1.5 2.7v5.5" stroke="#246EDE"/><rect x="491.8" y="175.9" width="7.7" height="9.7" rx="3.9" fill="#fff" stroke="#246EDE"/><rect x="478.2" y="182.7" width="7.7" height="9.7" rx="3.9" fill="#fff" stroke="#246EDE"/><rect x="506.4" y="182.7" width="7.7" height="9.7" rx="3.9" fill="#fff" stroke="#246EDE"/><path d="M513.7 196.8v4.8M492.3 190v4.8m7.8-4.8v4.8m-21.4 2v4.8" stroke="#246EDE"/><circle cx="496.2" cy="205.5" r="13.1" fill="#fff" stroke="#246EDE"/><circle cx="496.2" cy="205.5" r="10.2" fill="#fff" stroke="#246EDE"/><circle cx="496.2" cy="205.5" r="3.4" fill="#fff" stroke="#246EDE"/><circle r=".5" transform="matrix(-1 0 0 1 496.2 205.5)" fill="#fff" stroke="#246EDE" stroke-width=".9"/><path d="M496.2 192v5.8m0 2.9v2.9m0 9.7v5.8m0-11.6v2.9m-7.8-4.9h-5.8m11.6 0h-2.9m18.5 0h-5.9m-2.9 0h-2.9" stroke="#246EDE"/><rect opacity=".2" x="270.4" y="103" width="85.1" height="129.6" rx="10" fill="#246EDE"/><rect x="264.5" y="109.9" width="84.1" height="128.6" rx="9.5" fill="#fff" stroke="#246EDE"/><rect opacity=".3" x="287.4" y="121.7" width="50.7" height="95.5" rx="10" fill="#246EDE" fill-opacity=".3"/><rect x="281.9" y="128.2" width="49.7" height="94.5" rx="9.5" fill="#fff" stroke="#246EDE"/><rect x="284.6" y="132.4" width="44.8" height="83.6" rx="10" fill="#fff"/><rect x="285.1" y="132.9" width="43.8" height="82.6" rx="9.5" stroke="#246EDE" stroke-opacity=".3"/><rect opacity=".2" x="295.6" y="169.4" width="24.5" height="16.8" rx="5" fill="#246EDE"/><rect x="294.8" y="171.2" width="23.5" height="15.8" rx="4.5" fill="#fff" stroke="#246EDE"/><rect x="300.6" y="168" width="10.6" height="2.9" rx="1.4" fill="#fff" stroke="#246EDE"/><path d="M298.7 178.6v-.5a1.8 1.8 0 1 1 3.5 0v.5h-3.5zm11.6 0v-.5a1.8 1.8 0 1 1 3.5 0v.5h-3.5zm-1.7 3.5a2.4 2.4 0 0 1-4.8 0h4.8zm13.6-3.4c0 2.3-1.6 4-3.6 4.3v-8.6c2 .3 3.6 2.1 3.6 4.3z" fill="#fff" stroke="#246EDE"/><path d="M320 174.5v-5.1" stroke="#246EDE"/><circle cx="320.1" cy="166.8" r="2.1" fill="#fff" stroke="#246EDE"/><circle cx="305.9" cy="164.2" r=".8" fill="#fff" stroke="#246EDE"/><path d="M305.9 168.1v-2.6" stroke="#246EDE"/><circle opacity=".2" cx="326.8" cy="136.2" r="13.9" fill="#246EDE"/><circle cx="324.9" cy="138.1" r="13.4" fill="#fff" stroke="#246EDE"/><path d="M319.9 131.6a1.5 1.5 0 0 0-.3-.2 1 1 0 0 0-.6 0c-.2 0-.5.2-1 .7l-1 1c-.2.5-.2 1 .1 2a19.8 19.8 0 0 0 10 11.5c.4.2.5.2.9.2.3 0 .6-.1 1-.5.5-.4 1.1-1.3 1.3-1.8.2-.4.1-.8-.1-1.2l-1.6-1.4a13.3 13.3 0 0 0-1.1-.8 1 1 0 0 0-1-.1c-.2 0-.3.2-.7.7l-.4.5a1 1 0 0 1-.1.1c-.3.2-.7 0-1.4-.3a7.5 7.5 0 0 1-2.6-2.7c-.3-.6-.5-1.3-.5-1.7l.1-.6.5-.5c.5-.5.6-.6.7-.9 0-.3 0-.6-.3-1.1-.3-.9-1.5-2.6-2-3z" stroke="#246EDE"/><path d="M330.1 137.6h-5v-1.5h5.5v-1l2.2 1.7-2.2 1.9v-1h-.5z" stroke="#246EDE"/><rect x="292.9" y="156.4" width="28" height="3.5" rx="1.8" fill="#fff" stroke="#246EDE"/><circle cx="295.6" cy="201" r="5.9" fill="#fff" stroke="#246EDE"/><circle cx="295.6" cy="201" r="5.9" fill="#fff" stroke="#246EDE"/><path d="M294 197.4h0l.2.3a5.8 5.8 0 0 1 .8 1.1l-1-1.4zm0 0h0m0 0h0m0 0a1.1 1.1 0 0 0-.3 0m.2 0h-.2m0 0a1 1 0 0 0-.2-.1.9.9 0 0 0-.3 0 1 1 0 0 0-.4.1 4 4 0 0 0-.3.3h0a3.2 3.2 0 0 0-.3.2 1.7 1.7 0 0 0-.2.3h0a1.1 1.1 0 0 0-.1.6v.6h0a8.6 8.6 0 0 0 1.2 2.2l.6-4.3zm2.1 4.4l.2-.3a.8.8 0 0 1 .3-.2h0a1 1 0 0 1 .9 0h0a5.9 5.9 0 0 1 .5.4h0a8.2 8.2 0 0 1 .6.6l.2.1h0c.2.3.2.7 0 1h0a2.2 2.2 0 0 1-.2.5 2.6 2.6 0 0 1-.4.5h0c-.2.2-.4.3-.8.3m-1.3-3l1 2.4m-1-2.3h0a2.2 2.2 0 0 1-.2 0h0a2.1 2.1 0 0 1-.5-.5h0a2.6 2.6 0 0 1-.4-.5v0a1.8 1.8 0 0 1-.2-.4.3.3 0 0 1 0 0l.1-.1.3-.3a.9.9 0 0 0 .2-.4l-.1-.8.8 3zm1.3 2.9h0v-.5.5h0zm0 0a1 1 0 0 1-.3 0 1.5 1.5 0 0 1-.2-.1m0 0l.2-.5m-.2.5a8.2 8.2 0 0 1-3.5-3l3.7 2.5m-.2.5s0 0 0 0l.2-.5" stroke="#246EDE"/><path d="M294 197.4h0l.2.3a5.8 5.8 0 0 1 .8 1.1l-1-1.4zm0 0h0m0 0h0m0 0a1.1 1.1 0 0 0-.3 0m.2 0h-.2m0 0a1 1 0 0 0-.2-.1.9.9 0 0 0-.3 0 1 1 0 0 0-.4.1 4 4 0 0 0-.3.3h0a3.2 3.2 0 0 0-.3.2 1.7 1.7 0 0 0-.2.3h0a1.1 1.1 0 0 0-.1.6v.6h0a8.6 8.6 0 0 0 1.2 2.2l.6-4.3zm2.1 4.4l.2-.3a.8.8 0 0 1 .3-.2h0a1 1 0 0 1 .9 0h0a5.9 5.9 0 0 1 .5.4h0a8.2 8.2 0 0 1 .6.6l.2.1h0c.2.3.2.7 0 1h0a2.2 2.2 0 0 1-.2.5 2.6 2.6 0 0 1-.4.5h0c-.2.2-.4.3-.8.3m-1.3-3l1 2.4m-1-2.3h0a2.2 2.2 0 0 1-.2 0h0a2.1 2.1 0 0 1-.5-.5h0a2.6 2.6 0 0 1-.4-.5v0a1.8 1.8 0 0 1-.2-.4.3.3 0 0 1 0 0l.1-.1.3-.3a.9.9 0 0 0 .2-.4l-.1-.8.8 3zm1.3 2.9h0v-.5.5h0zm0 0a1 1 0 0 1-.3 0 1.5 1.5 0 0 1-.2-.1m0 0l.2-.5m-.2.5a8.2 8.2 0 0 1-3.5-3l3.7 2.5m-.2.5s0 0 0 0l.2-.5" stroke="#246EDE"/><circle cx="318.1" cy="201" r="5.9" fill="#fff" stroke="#246EDE"/><path d="M316.5 197.4h0l.3.3a5.8 5.8 0 0 1 .7 1.1l-1-1.4zm0 0h0m0 0h0m0 0a1.1 1.1 0 0 0-.2 0m.2 0h-.2m0 0a1 1 0 0 0-.3-.1.9.9 0 0 0-.3 0 1 1 0 0 0-.3.1 4 4 0 0 0-.3.3h0a3.2 3.2 0 0 0-.3.2 1.7 1.7 0 0 0-.2.3h0a1.1 1.1 0 0 0-.2.6c0 .2 0 .4.2.6h0a8.6 8.6 0 0 0 1 2.2l.7-4.3zm2 4.4l.3-.3a.8.8 0 0 1 .3-.2h0a1 1 0 0 1 .8 0h0a5.9 5.9 0 0 1 .6.4h0l.4.4.2.2.1.1h0c.3.3.3.7.2 1h0a2.2 2.2 0 0 1-.3.5 2.6 2.6 0 0 1-.4.5h0c-.3.2-.5.3-.8.3m-1.3-3l1 2.4m-1-2.3h0a2.2 2.2 0 0 1-.2 0h0a2.1 2.1 0 0 1-.5-.5h0a2.6 2.6 0 0 1-.4-.5v0a1.8 1.8 0 0 1-.2-.4.3.3 0 0 1 0 0v-.1l.4-.3a.9.9 0 0 0 .1-.4c.1-.2 0-.5 0-.8l.8 3zm1.3 2.9h0v-.5.5h0zm0 0a1 1 0 0 1-.3 0 1.5 1.5 0 0 1-.3-.1m0 0l.2-.5m-.2.5a8.2 8.2 0 0 1-3.5-3l3.7 2.5m-.2.5h0l.2-.5m-4.7 0l6.4-6.4" stroke="#246EDE"/><rect opacity=".2" x="270.5" y="311" width="101.1" height="74.5" rx="10" fill="#246EDE"/><rect x="264.5" y="318" width="100.1" height="73.5" rx="9.5" fill="#fff" stroke="#246EDE"/><rect opacity=".3" x="275.6" y="340.8" width="18" height="13.2" rx="3" fill="#246EDE"/><rect x="274.9" y="342.5" width="17.1" height="12.1" rx="2.5" fill="#fff" stroke="#246EDE"/><path d="M291.8 342.7l-8.4 7.7-8.4-7.7m16.8 12l-6.5-6m-10.3 6l6.5-6" stroke="#246EDE"/><rect opacity=".3" x="284.5" y="328.5" width="23.4" height="16.8" rx="2" fill="#246EDE"/><rect x="282.6" y="330.8" width="22.9" height="16.4" rx="2.5" fill="#fff" stroke="#246EDE"/><path d="M305.3 331.2L294 341.4 283 331.2m22.3 15.8l-8.7-8m-13.6 8l8.6-8" stroke="#246EDE"/><rect opacity=".3" x="300.1" y="340.2" width="30" height="21.6" rx="5" fill="#246EDE"/><rect x="298.2" y="343.1" width="28.9" height="20.8" rx="3.5" fill="#fff" stroke="#246EDE"/><path d="M326.6 343.6l-14 12.8-13.9-12.8m28 19.9l-11-10m-17 10l10.9-10" stroke="#246EDE"/><rect opacity=".3" x="313.7" y="347.9" width="42.1" height="30.6" rx="6" fill="#246EDE"/><rect x="311.2" y="351.4" width="41.1" height="29.6" rx="5.5" fill="#fff" stroke="#246EDE"/><path d="M351.3 352.5l-19.6 18-19.6-18m39.2 27.9l-15.2-14m-24 14l15.3-14" stroke="#246EDE"/><circle cx="188" cy="237" r="9.5" fill="#fff" stroke="#246EDE"/><circle cx="378" cy="154" r="9.5" fill="#fff" stroke="#246EDE"/><circle cx="378" cy="324" r="9.5" fill="#fff" stroke="#246EDE"/><circle cx="567" cy="238" r="9.5" fill="#fff" stroke="#246EDE"/><circle cx="758" cy="324" r="9.5" fill="#fff" stroke="#246EDE"/><rect opacity=".2" x="663.2" y="229" width="152.8" height="86.2" rx="5" fill="#246EDE"/><rect x="656.5" y="236.7" width="151.8" height="85.2" rx="4.5" fill="#fff" stroke="#246EDE"/><path opacity=".2" fill="#246EDE" d="M679.2 245.7h119.4v60H679.2z"/><path fill="#fff" stroke="#246EDE" d="M674.6 250.5h118.5v59H674.6z"/><rect opacity=".1" x="682.1" y="257.2" width="44.9" height="44.9" rx="5" fill="#246EDE"/><path d="M707.8 284.1a.4.4 0 0 0 0-.3l-2.6-2.6a2.6 2.6 0 0 0-3.7-3.6L699 275a.4.4 0 0 0-.6.1l-2.1 5.8a14 14 0 0 1-3.3 5.1 1.5 1.5 0 0 0 0 2l1.6 1.7a1.5 1.5 0 0 0 2.1 0l3.4 3.3a.4.4 0 0 0 .5 0 2.6 2.6 0 0 0 0-3.7l-1.5-1.5a13.8 13.8 0 0 1 2.7-1.3l5.8-2.1a.4.4 0 0 0 .2-.3zm-4.7-6.3a1.9 1.9 0 0 1 1.6 2.9l-2.7-2.6a1.9 1.9 0 0 1 1-.3zm-7.4 11.6a.8.8 0 0 1-.6-.2l-1.6-1.6a.8.8 0 0 1 0-1.1l.8-.9 2.8 2.8-.9.8a.8.8 0 0 1-.5.2zm4.4.4c.6.6.7 1.6.2 2.4l-3-3 1.2-1 1.6 1.6zm1.5-4a14.7 14.7 0 0 0-4 2.1l-2.8-2.8a14.7 14.7 0 0 0 2.1-4l2-5.2 8 8-5.3 1.9z" fill="#246EDE"/><path d="M706.9 276.6a3.8 3.8 0 0 0-4.1-.9.4.4 0 1 0 .2.7 3.1 3.1 0 0 1 4 4 .4.4 0 0 0 .7.3 3.8 3.8 0 0 0-.8-4.1z" fill="#246EDE"/><path d="M709 281.6a.4.4 0 0 0 .5-.2 5.7 5.7 0 0 0-7.4-7.4.4.4 0 0 0 .3.7 5 5 0 0 1 6.4 6.4.4.4 0 0 0 .2.5zm4-16.4a5.3 5.3 0 1 0 5.3 5.3 5.3 5.3 0 0 0-5.4-5.3zm0 10a4.6 4.6 0 1 1 4.6-4.7 4.6 4.6 0 0 1-4.7 4.6z" fill="#246EDE"/><path d="M714.9 269.9a1.3 1.3 0 1 0-1.4-1.3l-1.6 1a1.3 1.3 0 1 0 0 2l1.6 1a1.3 1.3 0 1 0 .2-.7l-1.4-1v-.8l1.4-.8c.3.4.7.6 1.2.6zm0-2a.6.6 0 1 1 0 1.3.6.6 0 0 1 0-1.2zm-3.9 3.2a.6.6 0 1 1 0-1.2.6.6 0 0 1 0 1.2zm3.9.7a.6.6 0 1 1 0 1.3.6.6 0 0 1 0-1.3zm-2 11.7a5.3 5.3 0 1 0 5.4 5.3 5.3 5.3 0 0 0-5.4-5.3zm0 10a4.6 4.6 0 1 1 0-9.3 4.6 4.6 0 0 1 0 9.3z" fill="#246EDE"/><path d="M715.1 288.5l-2.9-1.8a.4.4 0 0 0-.5.3v3.6a.4.4 0 0 0 .5.3l3-1.8a.4.4 0 0 0 0-.6zm-2.7 1.5v-2.3l1.9 1.1-1.9 1.2zm-17.8-14.2a5.3 5.3 0 1 0 0-10.6 5.3 5.3 0 0 0 0 10.6zm0-9.9a4.6 4.6 0 1 1-4.6 4.6 4.6 4.6 0 0 1 4.6-4.6z" fill="#246EDE"/><path d="M692.5 272.6h2.5a1 1 0 0 0 1-1l1.2.7a.3.3 0 0 0 .4 0 .4.4 0 0 0 .1-.3v-3a.4.4 0 0 0-.5-.3l-1.3.7a1 1 0 0 0-1-1h-2.4a1 1 0 0 0-1 1v2.3c0 .5.4 1 1 1zm4.5-3v1.8l-1-.6v-.6l1-.6zm-4.8-.3s.1-.2.3-.2h2.5l.2.2v2.4c0 .1 0 .2-.2.2h-2.5a.2.2 0 0 1-.3-.2v-2.4z" fill="#246EDE"/><rect opacity=".3" x="732" y="257.2" width="55.7" height="6.5" rx="3.3" fill="#246EDE"/><rect x="732" y="268.8" width="24.6" height="4.3" rx="2.2" fill="#F1F1F1"/><rect x="732" y="291.3" width="24.6" height="4.3" rx="2.2" fill="#F1F1F1"/><rect x="732" y="298.5" width="32.6" height="4.3" rx="2.2" fill="#F1F1F1"/><rect x="760.3" y="268.8" width="27.5" height="4.3" rx="2.2" fill="#F1F1F1"/><rect x="760.3" y="291.3" width="27.5" height="4.3" rx="2.2" fill="#F1F1F1"/><rect x="769.7" y="298.5" width="18.1" height="4.3" rx="2.2" fill="#F1F1F1"/><rect x="732" y="276.1" width="14.5" height="4.3" rx="2.2" fill="#F1F1F1"/><rect x="750.1" y="276.1" width="19.5" height="4.3" rx="2.2" fill="#F1F1F1"/><rect x="773.3" y="276.1" width="14.5" height="4.3" rx="2.2" fill="#F1F1F1"/><rect x="732" y="283.3" width="19.5" height="4.3" rx="2.2" fill="#F1F1F1"/><rect x="755.2" y="283.3" width="9.4" height="4.3" rx="2.2" fill="#F1F1F1"/><rect x="768.2" y="283.3" width="19.5" height="4.3" rx="2.2" fill="#F1F1F1"/><path opacity=".1" d="M82 315a4 4 0 0 0-4-4H68a4 4 0 0 0 0 8h10a4 4 0 0 0 4-4zm378-173a4 4 0 0 0-4-4h-10a4 4 0 0 0 0 8h10a4 4 0 0 0 4-4zM188 315a4 4 0 0 0-4-4h-10a4 4 0 0 0 0 8h10a4 4 0 0 0 4-4zm378-173a4 4 0 0 0-4-4h-10a4 4 0 0 0 0 8h10a4 4 0 0 0 4-4zM121 315a4 4 0 0 0-4-4H93a4 4 0 0 0 0 8h24a4 4 0 0 0 4-4zm378-173a4 4 0 0 0-4-4h-24a4 4 0 0 0 0 8h24a4 4 0 0 0 4-4zM161 315a4 4 0 0 0-4-4h-24a4 4 0 0 0 0 8h24a4 4 0 0 0 4-4zm378-173a4 4 0 0 0-4-4h-24a4 4 0 0 0 0 8h24a4 4 0 0 0 4-4zM96 330a4 4 0 0 0-4-4H68a4 4 0 0 0 0 8h24a4 4 0 0 0 4-4zm378-173a4 4 0 0 0-4-4h-24a4 4 0 0 0 0 8h24a4 4 0 0 0 4-4zM144 330a4 4 0 0 0-4-4h-33a4 4 0 0 0 0 8h33a4 4 0 0 0 4-4zm378-173a4 4 0 0 0-4-4h-33a4 4 0 0 0 0 8h33a4 4 0 0 0 4-4zM187 330a4 4 0 0 0-4-4h-27a4 4 0 0 0 0 8h27a4 4 0 0 0 4-4zm378-173a4 4 0 0 0-4-4h-27a4 4 0 0 0 0 8h27a4 4 0 0 0 4-4zM125 65.5a7.5 7.5 0 0 0-7.5-7.5h-39a7.5 7.5 0 0 0 0 15h39a7.5 7.5 0 0 0 7.5-7.5zm175 0a7.5 7.5 0 0 0-7.5-7.5h-28a7.5 7.5 0 0 0 0 15h28a7.5 7.5 0 0 0 7.5-7.5zm233 0a7.5 7.5 0 0 0-7.5-7.5h-73a7.5 7.5 0 0 0 0 15h73a7.5 7.5 0 0 0 7.5-7.5zm158 0a7.5 7.5 0 0 0-7.5-7.5h-39a7.5 7.5 0 0 0 0 15h39a7.5 7.5 0 0 0 7.5-7.5zm-525 0a7.5 7.5 0 0 0-7.5-7.5h-15a7.5 7.5 0 0 0 0 15h15a7.5 7.5 0 0 0 7.5-7.5zm202 0a7.5 7.5 0 0 0-7.5-7.5h-41a7.5 7.5 0 0 0 0 15h41a7.5 7.5 0 0 0 7.5-7.5zm364 0a7.5 7.5 0 0 0-7.5-7.5h-15a7.5 7.5 0 0 0 0 15h15a7.5 7.5 0 0 0 7.5-7.5z" fill="#246EDE"/></g><defs><clipPath id="clip0"><path fill="#fff" d="M59.6 213.8H79v19.4H59.6z"/></clipPath><clipPath id="clip1"><path fill="#fff" d="M522.3 157.9h17v17h-17z"/></clipPath></defs></svg>