<svg version="1.0" xmlns="http://www.w3.org/2000/svg" width="200" height="200" viewBox="0 0 150 150"><path d="M50 2.4C28.5 10 12.6 25.3 3.8 46.7.7 54.2.6 55.2.2 71.2-.3 90.4.5 95 5.9 106.4c7.7 16.4 19.5 28.3 35.6 36.1 5 2.4 12.2 5 16.2 5.9 8.8 2 24.6 2 33.4.2 24.9-5.3 45.8-23.6 55-48.4 2.9-7.9 3.3-10 3.7-22.4.5-16.9-1.1-25.2-7.4-37.6-7.2-14.3-18.6-26-32.2-33C97.8.7 94 0 74.1 0 58.3 0 55.8.3 50 2.4zm34.9 27.7c14.1 3.2 27.8 15.2 32.4 28.5 2.1 5.7 3.1 12.4 1.9 12.4-.5 0-1.3-2-1.6-4.5-1.9-12.2-12.7-25.8-25.3-31.8-6.4-3-7.5-3.2-17.8-3.2s-11.4.2-17.8 3.2c-13.4 6.4-24 20.4-25.4 33.6l-.6 5.7H51V50h19.5c20.4 0 24.4.7 25.9 4.5.9 2.3.8 16.5-.1 16.5-.5 0-.8-3.4-.8-7.6 0-11.4 0-11.4-23.6-11.4H53v24H29v-3.8c0-18.3 14.9-36.6 34-41.8 5.5-1.5 16-1.7 21.9-.3zM120 77.9c0 2.2-.9 6.7-1.9 10-9.8 31.6-49.5 42.6-74 20.5-5.4-4.9-10.3-11.9-12.4-18-2.1-5.7-3.1-12.4-1.9-12.4.5 0 1.3 2 1.6 4.5 1.1 7.2 6.9 17.6 13.1 23.4 14.6 13.8 36.6 16.2 52.9 5.7 10.6-6.8 19-19.4 20.3-30.5l.6-5.1h-10.2c-11.2 0-11.8.1-11.1 1.5 1.1 2.5 1.1 15-.1 17.1-1.9 3.7-6 4.4-26.5 4.4H51V88.5c0-6.3.4-10.5 1-10.5s1 3.8 1 9.5V97h19.5c23.7 0 23.5.1 23.5-10.9 0-6.2-.3-7.2-2.5-8.9-1.4-1.1-2.5-2.3-2.5-2.6 0-.3 6.5-.6 14.5-.6H120v3.9z"/></svg>