<svg width="22" height="22" viewBox="0 0 22 22" fill="none" xmlns="http://www.w3.org/2000/svg">
<path d="M11 22C17.0751 22 22 17.0751 22 11C22 4.92487 17.0751 0 11 0C4.92487 0 0 4.92487 0 11C0 17.0751 4.92487 22 11 22Z" fill="#EE2A23"/>
<path d="M5.5 16.3279C5.5 16.249 5.57538 16.1841 5.66976 16.1841H16.3282C16.4247 16.1841 16.5 16.249 16.5 16.3279V17.9288C16.5 18.0078 16.4247 18.0716 16.3282 18.0716H5.66976C5.57538 18.0716 5.5 18.0078 5.5 17.9288V16.3279Z" fill="white"/>
<path fill-rule="evenodd" clip-rule="evenodd" d="M11.0011 3.92871C12.1672 3.92871 12.5336 4.61903 12.8409 5.30826L16.0914 12.6556C16.1156 12.7129 16.0993 12.807 15.9924 12.8411C15.885 12.8747 14.3105 13.38 14.2233 13.407C14.1362 13.4347 14.0385 13.3946 14.007 13.3226C13.9743 13.2518 13.3208 11.7586 13.2474 11.592H8.75609C8.6853 11.7586 8.02396 13.2551 7.9945 13.3226C7.96433 13.3914 7.87059 13.4379 7.77748 13.407C7.68446 13.3768 6.10412 12.8715 6.00973 12.8411C5.91928 12.8119 5.87798 12.727 5.90944 12.6556C6.02087 12.3992 9.00516 5.65991 9.15728 5.30826C9.45357 4.62931 9.83236 3.92871 11.0011 3.92871ZM9.47258 9.92788L11.0102 6.16521L12.5336 9.92788H9.47258Z" fill="white"/>
</svg>
