<svg width="22" height="22" viewBox="0 0 22 22" fill="none" xmlns="http://www.w3.org/2000/svg">
<g clip-path="url(#clip0_80_821)">
<path d="M19.636 4.24658C20.1288 4.9229 20.5395 5.6647 20.8886 6.45011L11.4018 13.8897L7.41843 11.228V8.04273L11.3815 10.6826L19.636 4.24658Z" fill="#21A038"/>
<path d="M3.37304 11.0072C3.37304 10.8544 3.37304 10.7235 3.39357 10.5708L0.991119 10.4399C0.991119 10.6145 0.970581 10.8108 0.970581 10.9853C0.970581 14.0398 2.14101 16.8104 4.0301 18.8178L5.73439 17.007C4.27648 15.4798 3.37304 13.3634 3.37304 11.0072Z" fill="url(#paint0_linear_80_821)"/>
<path d="M11.3802 2.49939C11.5239 2.49939 11.6471 2.49939 11.7909 2.5212L11.9141 -0.0314051C11.7498 -0.0314051 11.565 -0.0532227 11.4007 -0.0532227C8.526 -0.0532227 5.91834 1.19035 4.02896 3.19752L5.73325 5.00832C7.17062 3.45929 9.18306 2.49939 11.3802 2.49939Z" fill="url(#paint1_linear_80_821)"/>
<path d="M11.3823 19.5192C11.2385 19.5192 11.1153 19.5192 10.9716 19.4974L10.8484 22.05C11.0126 22.05 11.1974 22.0718 11.3617 22.0718C14.2364 22.0718 16.8441 20.8283 18.7335 18.8211L17.0292 17.0103C15.5918 18.5811 13.5999 19.5192 11.3823 19.5192Z" fill="url(#paint2_linear_80_821)"/>
<path d="M15.8992 3.98573L17.932 2.39307C16.1456 0.865901 13.8664 -0.0722656 11.3817 -0.0722656V2.48034C13.0654 2.50216 14.6259 3.04761 15.8992 3.98573Z" fill="url(#paint3_linear_80_821)"/>
<path d="M21.8117 11.0073C21.8117 10.331 21.7501 9.67647 21.6474 9.02197L19.4092 10.7892V11.0073C19.4092 13.5163 18.3825 15.7634 16.7603 17.3126L18.3825 19.2107C20.477 17.2035 21.8117 14.2584 21.8117 11.0073Z" fill="#21A038"/>
<path d="M11.3807 19.519C9.01929 19.519 6.90438 18.4282 5.44633 16.7046L3.65991 18.4282C5.56954 20.6753 8.3209 22.0716 11.3808 22.0716L11.3807 19.519Z" fill="url(#paint4_linear_80_821)"/>
<path d="M6.0219 4.70475L4.39972 2.80664C2.28475 4.83562 0.970581 7.75894 0.970581 11.0097H3.37304C3.37304 8.52253 4.39972 6.25393 6.0219 4.70475Z" fill="url(#paint5_linear_80_821)"/>
</g>
<defs>
<linearGradient id="paint0_linear_80_821" x1="3.77318" y1="18.5219" x2="1.04235" y2="11.0925" gradientUnits="userSpaceOnUse">
<stop offset="0.1444" stop-color="#F2E913"/>
<stop offset="0.3037" stop-color="#E7E518"/>
<stop offset="0.5823" stop-color="#CADB26"/>
<stop offset="0.891" stop-color="#A3CD39"/>
</linearGradient>
<linearGradient id="paint1_linear_80_821" x1="4.70403" y1="2.89954" x2="11.0254" y2="0.632369" gradientUnits="userSpaceOnUse">
<stop offset="0.0592" stop-color="#0FA8E0"/>
<stop offset="0.5385" stop-color="#0099F9"/>
<stop offset="0.9234" stop-color="#0291EB"/>
</linearGradient>
<linearGradient id="paint2_linear_80_821" x1="10.7084" y1="19.9044" x2="18.1752" y2="18.3162" gradientUnits="userSpaceOnUse">
<stop offset="0.1226" stop-color="#A3CD39"/>
<stop offset="0.2846" stop-color="#86C339"/>
<stop offset="0.8693" stop-color="#21A038"/>
</linearGradient>
<linearGradient id="paint3_linear_80_821" x1="10.8836" y1="1.56033" x2="17.1205" y2="3.37163" gradientUnits="userSpaceOnUse">
<stop offset="0.0566" stop-color="#0291EB"/>
<stop offset="0.79" stop-color="#0C8ACB"/>
</linearGradient>
<linearGradient id="paint4_linear_80_821" x1="4.26194" y1="18.8484" x2="10.9868" y2="21.2142" gradientUnits="userSpaceOnUse">
<stop offset="0.1324" stop-color="#F2E913"/>
<stop offset="0.2977" stop-color="#EBE716"/>
<stop offset="0.5306" stop-color="#D9E01F"/>
<stop offset="0.8023" stop-color="#BBD62D"/>
<stop offset="0.9829" stop-color="#A3CD39"/>
</linearGradient>
<linearGradient id="paint5_linear_80_821" x1="2.79658" y1="11.3225" x2="5.74116" y2="4.11349" gradientUnits="userSpaceOnUse">
<stop offset="0.0698" stop-color="#A3CD39"/>
<stop offset="0.2599" stop-color="#81C55F"/>
<stop offset="0.9216" stop-color="#0FA8E0"/>
</linearGradient>
<clipPath id="clip0_80_821">
<rect width="22" height="22" fill="white"/>
</clipPath>
</defs>
</svg>
