<svg width="180" height="80" viewBox="0 0 180 80" fill="none" xmlns="http://www.w3.org/2000/svg">
<g clip-path="url(#clip0_1_457)">
<path d="M69.7114 0.130508H70.9611C70.9899 1.15828 70.7902 2.68727 70.9561 3.60894C71.2794 3.76334 71.6755 3.85422 71.8106 4.2148C72.1113 5.01723 72.1092 6.64384 71.7348 7.42309C71.5948 7.71467 71.3619 7.83374 71.0636 7.92612C71.0422 7.93282 71.0201 7.93851 70.9984 7.94474C71.1514 8.6532 71.0565 9.49136 71.0466 10.2158L70.9858 14.8838C70.9761 15.6911 70.9024 16.5939 71.0046 17.3942C71.6283 17.5604 72.1903 17.8178 72.7549 18.1289C72.1944 18.5733 71.5892 18.9372 70.9793 19.3087L70.9808 27.3102C70.9802 28.5445 71.0803 29.8699 70.9696 31.0899C70.9558 31.3257 70.9811 31.7086 70.851 31.903L70.8856 31.7524L70.8031 31.7808C70.8633 30.6774 70.8921 19.9432 70.7001 19.68C70.3862 19.6856 70.0823 19.7025 69.771 19.7435L69.746 28.3777C69.7363 29.4348 69.8673 30.5082 69.7281 31.5592L69.6759 31.6094L69.6036 31.2174L69.5006 31.6672C69.5004 27.566 69.5298 23.4649 69.5889 19.3642C69.2451 19.0457 68.7571 18.803 68.481 18.422C68.3471 18.2372 68.3392 18.1499 68.3789 17.932C68.6469 17.6155 69.0915 17.5092 69.4788 17.4084C69.5461 16.3982 69.502 15.3605 69.5041 14.3473C69.4888 12.2475 69.5102 10.148 69.5684 8.04895C69.2947 7.9307 69.0031 7.84012 68.7224 7.7391C68.6041 6.65311 68.4308 5.32523 68.7806 4.26775L68.7993 4.21237C68.9059 3.88969 69.1776 3.69985 69.4307 3.49072C69.677 2.53901 69.6221 1.14248 69.7114 0.130508Z" fill="#FC0502"/>
<path d="M138.179 48.8201C138.614 48.8671 139.066 48.8923 139.487 49.0165C139.992 50.0495 139.27 51.3771 139.667 52.3763C139.256 52.5164 138.494 52.3987 138.086 52.2618C138.256 51.9767 138.35 49.3228 138.238 48.9572C138.224 48.9091 138.202 48.8644 138.179 48.8201Z" fill="#FC0502"/>
<path d="M144.007 48.8336C144.421 48.8882 144.875 48.9123 145.27 49.0468C145.717 49.849 145.428 51.4217 145.464 52.3302L145.368 52.401C144.901 52.4905 144.399 52.3895 143.95 52.2577C144.132 51.8783 144.17 49.2514 144.027 48.8761C144.022 48.8615 144.014 48.848 144.007 48.8336Z" fill="#FC0502"/>
<path d="M140.806 52.3273C141.309 51.7353 140.89 49.7894 141.202 48.9505C141.301 48.9187 141.402 48.8905 141.507 48.8894C141.749 48.8867 141.983 48.9504 142.148 49.1375C142.673 49.7309 142.344 51.5168 142.288 52.263C141.92 52.4853 141.222 52.4154 140.806 52.3273Z" fill="#FC0502"/>
<path d="M146.687 52.2718C147.1 51.6613 146.668 49.0209 147.241 48.9108C147.467 48.8676 147.675 48.8761 147.869 49.0203C148.153 49.2329 148.217 49.6334 148.242 49.9638C148.291 50.5977 148.266 51.6337 148.105 52.25L148.019 52.324C147.562 52.4268 147.132 52.4206 146.687 52.2718Z" fill="#FC0502"/>
<path d="M123.111 51.5618C123.119 51.5427 123.127 51.5236 123.134 51.5045C123.348 50.9437 123.011 49.0811 123.636 48.8541C123.768 48.8066 123.867 48.8312 123.986 48.902C124.299 49.0885 124.462 49.595 124.508 49.9327C124.593 50.5549 124.689 51.7562 124.48 52.339C124.462 52.3566 124.445 52.3749 124.426 52.3916C124.286 52.517 124.023 52.5469 123.843 52.5273C123.581 52.4991 123.442 52.3246 123.292 52.1326C123.261 51.9382 123.221 51.7879 123.136 51.6102C123.128 51.5941 123.12 51.5779 123.111 51.5618Z" fill="#FC0502"/>
<path d="M69.771 19.7435C70.0822 19.7025 70.3862 19.6856 70.7001 19.68C70.8921 19.9432 70.8633 30.6774 70.8031 31.7809L70.8856 31.7524L70.851 31.903C70.9811 31.7086 70.9558 31.3257 70.9696 31.0899C71.0063 31.5518 71.0336 32.017 71.0912 32.4768C71.6606 32.512 72.2346 32.5326 72.8019 32.5857C72.9716 33.7353 72.895 34.8934 72.8339 36.0486C72.131 36.3088 71.5628 36.5807 70.9869 37.0655C71.0122 39.7429 70.8927 42.4963 71.218 45.1549C72.3703 46.5147 71.985 48.4155 72.2199 50.0634C72.6545 50.2463 73.0762 50.377 73.534 50.4883C73.5671 51.274 73.5034 52.6923 74.1013 53.2605C74.1629 53.3192 74.2275 53.3603 74.3042 53.3964C74.4011 53.3747 74.4877 53.3779 74.5491 53.2904C74.6994 53.0755 74.7373 52.7231 74.7484 52.4694C74.8034 51.2121 74.6548 49.891 74.6104 48.6298C74.5532 47.0042 74.577 45.3696 74.5746 43.7425C74.5731 42.9165 74.4108 41.5393 74.774 40.7862C74.8583 40.6112 75.1287 40.5433 75.2975 40.5013C76.0334 40.3184 76.8582 40.3299 77.6146 40.2931C77.8613 41.6724 77.8654 43.0842 77.896 44.4813C77.9065 44.9699 77.846 45.5487 77.9274 46.0235C77.9594 46.2105 78.0146 46.2798 78.1505 46.402C78.4997 46.459 78.9296 46.5327 79.2314 46.2898C79.4845 46.086 79.56 45.7669 79.5879 45.4565C79.6604 44.6454 79.5121 43.7886 79.5256 42.9676C79.5615 40.8082 79.6496 38.6497 79.6739 36.4902C79.6916 34.9169 79.6164 33.2922 79.7559 31.7254C79.8205 31.0027 80.2374 30.3473 80.3537 29.6338C80.5026 28.7238 80.7363 23.3629 80.423 22.7708C82.7805 22.6363 85.14 22.5667 87.5014 22.5622C87.6174 22.7685 87.6459 22.9541 87.6577 23.1867C87.7801 25.6499 87.6653 28.1685 87.6665 30.6389C87.667 35.0958 87.6932 39.5525 87.7449 44.0091C87.751 44.7931 87.9492 49.7935 87.8374 50.1782C87.8239 50.2243 87.8015 50.2669 87.7775 50.308C88.2907 50.3221 88.8161 50.357 89.3285 50.3247C89.7983 49.6758 89.5175 48.3934 89.6288 47.6115C89.7319 46.8853 90.1471 46.242 90.2707 45.5255C90.6034 43.6004 90.4654 41.5141 90.5394 39.5579C90.5626 38.9459 90.7135 38.2183 90.6633 37.6252C91.8954 37.1935 93.4429 37.0655 94.0669 35.7379C94.2407 35.368 94.3209 34.9639 94.3637 34.5596C94.4483 33.7585 94.6163 28.1482 94.47 27.7265C95.0106 27.6054 95.8014 27.518 96.2777 27.2484C96.2859 27.2338 96.295 27.2196 96.3026 27.2046C96.8221 26.2015 95.8678 20.7307 96.892 20.3809C97.1401 20.2961 97.4323 20.3224 97.6866 20.3611C97.9614 20.6469 97.8207 25.4099 97.8049 26.2539C97.7993 26.5607 97.8293 26.9193 97.7048 27.2054C98.2509 27.2728 98.7883 27.3558 99.3289 27.4606C99.4716 27.7592 99.7467 34.914 99.6246 35.2531C99.6028 35.3133 99.5764 35.3694 99.5444 35.4246C100.18 35.4922 100.874 35.5151 101.424 35.8751C101.434 35.8865 101.445 35.8977 101.454 35.9094C102.038 36.6098 101.806 37.1086 102.934 37.2311C104.039 37.3512 105.189 37.2378 106.3 37.2693C106.46 37.493 106.486 37.6921 106.502 37.9611C106.671 40.8167 106.454 43.7267 106.554 46.5934C106.566 46.9611 106.7 47.6329 106.62 47.9724C106.612 48.0041 106.59 48.0475 106.578 48.0748C106.874 48.2158 107.177 48.3614 107.436 48.5652C107.832 48.8771 108.364 49.6749 108.896 49.6752C108.935 49.6352 109.022 49.5689 109.046 49.5225C109.333 48.9763 109.283 41.7722 109.283 40.6534C109.284 39.8348 109.131 38.0107 109.458 37.2901C109.527 37.1374 109.866 37.0699 110.016 37.0708C110.202 37.0719 110.341 37.153 110.458 37.2916C110.639 37.5062 110.673 37.8606 110.686 38.1299C110.735 39.0696 110.632 40.0433 110.624 40.9873C110.607 42.7139 110.641 44.4461 110.643 46.1732C110.646 47.5138 110.657 48.8544 110.676 50.1949C110.683 50.7176 110.756 51.2981 110.716 51.8129C110.711 51.8825 110.691 51.933 110.667 51.9976C111.815 52.4007 113.388 52.803 114.377 53.5257C114.384 53.5092 114.392 53.4931 114.399 53.476C114.558 53.0585 114.249 52.4915 114.189 52.0639C114.102 51.437 113.965 49.3002 114.618 48.9534C114.699 48.9102 114.839 48.9182 114.926 48.9461C115.14 49.0151 115.327 49.1989 115.465 49.3689C115.736 50.0892 115.151 52.14 115.877 52.4653C116.195 52.608 116.781 52.5252 117.123 52.4594C117.132 52.4365 117.141 52.4139 117.149 52.391C117.478 51.4899 116.872 49.4937 117.692 48.9737C117.977 48.9678 118.206 48.9608 118.469 49.0809C118.764 49.506 118.842 51.6942 118.734 52.2389C118.721 52.3015 118.7 52.3373 118.668 52.3919C119.16 52.4195 119.656 52.4633 120.149 52.4501C120.436 51.9861 120.321 49.6085 120.196 49.0662C120.189 49.0362 120.181 49.0063 120.172 48.9763C120.64 49.0071 121.07 49.0359 121.518 49.1854C121.686 49.5471 121.724 52.0393 121.601 52.3702C121.596 52.3837 121.588 52.396 121.581 52.4089C122.023 52.423 122.605 52.5152 123.013 52.3297C123.16 52.1629 123.216 52.1059 123.189 51.8704C123.178 51.7673 123.141 51.6608 123.111 51.5618C123.12 51.5779 123.128 51.5941 123.136 51.6102C123.221 51.7879 123.261 51.9382 123.292 52.1326C123.442 52.3247 123.581 52.4991 123.843 52.5273C124.023 52.547 124.286 52.517 124.426 52.3916C124.445 52.3749 124.462 52.3567 124.48 52.3391C125.963 52.4609 127.457 52.4509 128.944 52.4594C128.981 52.4139 128.98 52.4169 129.017 52.3608C129.313 51.9065 129.576 38.9342 129.341 37.9015C131.154 36.7689 129.621 30.4105 130.383 28.8072C130.54 28.4783 131.128 28.3621 131.449 28.2535C131.452 28.2371 131.457 28.2044 131.457 28.2044C131.596 27.4494 131.024 26.6395 131.074 25.8695C131.086 25.6819 131.149 25.4982 131.3 25.3757C131.582 25.1455 132.033 25.2278 132.375 25.2493C132.714 25.9227 132.584 26.8694 132.668 27.6108C132.749 28.3294 132.827 28.1888 133.299 28.5735C133.308 28.5807 133.316 28.5882 133.325 28.5955C133.481 29.2021 133.585 37.116 133.439 37.4575C133.777 37.5324 134.06 37.6231 134.367 37.7852C134.396 37.8295 134.392 37.8204 134.417 37.8794C134.623 38.3563 134.441 40.2805 134.436 40.9013C134.422 43.3798 134.436 45.8581 134.479 48.3362C134.506 49.5495 134.653 50.8365 134.582 52.0428C134.576 52.1594 134.538 52.2698 134.493 52.3769C135.683 52.3954 136.902 52.3922 138.086 52.2618C138.494 52.3987 139.256 52.5164 139.667 52.3764C140.046 52.3714 140.431 52.3811 140.806 52.3273C141.222 52.4154 141.92 52.4853 142.288 52.263C142.825 52.2797 143.423 52.3473 143.95 52.2577C144.399 52.3896 144.901 52.4906 145.368 52.401L145.464 52.3302C145.869 52.3423 146.294 52.3857 146.687 52.2718C147.132 52.4207 147.562 52.4269 148.019 52.3241L148.105 52.2501C149.305 52.2354 150.524 52.4148 151.729 52.4404C151.782 52.3678 151.827 52.2897 151.86 52.206C152.078 51.6452 152.081 42.9817 151.867 42.4617C153.22 42.4109 154.717 42.247 156.057 42.4699C156.31 42.9306 156.318 46.8248 156.143 47.4459C156.753 47.5105 157.315 47.556 157.926 47.4717C158.361 46.5168 158.053 44.1668 158.036 43.0624C158.017 41.8309 157.883 38.7436 158.081 37.6762C158.12 37.4701 158.192 37.3077 158.339 37.1559C158.592 37.0373 158.853 37.0643 159.125 37.0719C159.256 37.1606 159.3 37.1718 159.343 37.3277C159.601 38.2459 159.445 39.5567 159.443 40.5222L159.36 47.7366C159.324 50.0487 159.427 52.4131 159.251 54.7181C159.237 54.8952 159.2 55.0235 159.114 55.1771C159.728 55.1979 160.345 55.1762 160.959 55.1644C161.003 55.0954 161.039 55.0244 161.061 54.9454C161.173 54.5463 161.121 51.6064 160.939 51.2737C162.553 51.2743 164.162 51.4182 165.777 51.3909C165.812 51.3375 165.843 51.2828 165.867 51.2238C166.033 50.828 166.094 43.8791 165.911 43.468C167.931 43.3995 169.985 43.3288 172.004 43.4145C172.025 43.4456 172.035 43.4603 172.054 43.4956C172.155 43.6861 172.298 52.2201 172.205 52.5188C173.021 52.5293 173.843 52.5605 174.657 52.4859C174.663 52.4765 174.669 52.4674 174.675 52.4583C174.855 52.1749 174.863 51.876 174.879 51.5521C174.942 50.2437 174.9 48.9152 174.905 47.6047L174.958 40.4394C174.967 39.5896 175.191 37.3253 175.034 36.65C176.001 36.2509 178.399 36.6168 179.557 36.5637C179.677 36.7575 179.695 36.9219 179.701 37.1451C179.851 42.7835 179.71 48.5103 179.709 54.1579C179.708 55.313 179.847 59.5934 179.67 60.2599C179.645 60.3519 179.603 60.4361 179.554 60.5169L58.1329 60.4946L21.7015 60.5107L10.5576 60.5101C8.5805 60.5092 6.49937 60.6334 4.53514 60.4326L1.31575 60.4038C1.26415 55.7262 1.15909 51.0048 1.34865 46.3318C2.62308 46.3212 3.9052 46.4622 5.17603 46.3198C5.24968 45.0242 5.20076 43.712 5.19726 42.4138C5.19013 39.7731 5.16026 37.126 5.23265 34.4865C7.23652 34.5129 9.23464 34.4906 11.2384 34.4641C11.41 40.0985 11.0702 45.778 11.3607 51.4071C12.189 51.469 13.0377 51.4567 13.8661 51.4118C14.039 50.4181 13.9691 49.3448 13.9688 48.3377L13.973 43.9196L14.0175 32.7464C14.0261 30.0587 13.9816 27.3573 14.1274 24.6731C15.9012 24.5487 18.6103 24.4654 20.334 24.7495C20.5174 27.826 20.38 30.9822 20.381 34.0663L20.3769 51.3792C20.9317 51.41 21.4688 51.4068 22.0233 51.3724C22.3222 49.3948 22.0608 46.8806 22.056 44.8466L22.09 32.4439C22.0946 29.8849 21.9652 27.2381 22.204 24.6921C24.1422 24.5735 26.2047 24.5343 28.1417 24.6805C28.3355 27.259 28.1727 29.9492 28.1612 32.5393C28.1405 36.6763 28.1545 40.8132 28.203 44.9499C28.2191 47.0873 28.1607 49.2374 28.2598 51.3721C29.0965 51.4079 29.9202 51.4311 30.7577 51.3947C31.2072 47.7809 30.5862 44.0359 31.0686 40.4341C32.015 40.3806 32.9494 40.4447 33.892 40.5195C34.7702 42.4461 35.7193 44.3498 36.3729 46.3665C37.9492 46.5353 42.4339 46.4775 43.8836 46.1686C43.9138 44.5177 43.5148 39.8677 44.0034 38.6244C44.2738 37.9358 45.2026 37.6736 45.8307 37.4049C46.1654 35.7917 45.7717 34.147 45.9969 32.5332C46.0865 31.8936 46.6999 31.3986 46.8346 30.7599C47.1019 29.497 46.918 28.1438 47.056 26.8598C47.138 26.0953 47.6292 25.4566 47.7746 24.7129C47.9023 24.0603 47.6865 23.3149 47.7343 22.6402C47.7528 22.3803 47.8019 22.2387 47.9966 22.0721C48.3833 22.0068 48.7823 22.1565 49.1541 22.2562C49.2469 23.1339 49.0654 24.1061 49.2877 24.9487C49.4154 25.4319 49.6929 25.5802 50.0937 25.8196C50.1983 27.6896 50.0253 29.5707 50.1046 31.4444C50.8114 31.4934 51.507 31.5513 52.2076 31.664C52.1971 33.5682 51.9102 35.6971 52.2402 37.5694C52.6892 37.858 53.196 38.0377 53.689 38.2359C54.3706 40.1501 53.9827 43.3602 53.9862 45.46C55.2503 45.5504 56.5297 45.482 57.7953 45.4579C59.0782 45.4336 60.3769 45.4494 61.6545 45.3232C61.8269 43.9199 62.0037 41.6568 63.2114 40.7251C63.9426 40.1607 64.8029 40.3486 65.6436 40.464C65.8169 41.1423 65.8034 41.8803 66.0124 42.5448C66.1974 43.1323 66.6247 43.6113 66.7459 44.2285C67.1068 46.0669 66.9973 48.3309 67.0757 50.2216C67.4791 50.2713 68.1592 50.4257 68.5025 50.1793C68.9142 49.3953 68.666 47.9618 68.7415 47.075C68.8161 46.1985 69.2662 45.371 69.364 44.4954C69.6392 42.0341 69.5167 39.4049 69.4994 36.9248C69.0187 36.6344 68.5359 36.4066 68.018 36.191C67.9837 36.0796 67.9541 35.967 67.929 35.853C67.7743 35.1419 67.485 33.8143 67.9014 33.1859C68.257 32.6495 68.8722 32.5989 69.4545 32.4733L69.5005 31.6672L69.6036 31.2174L69.6758 31.6094L69.7281 31.5592C69.8673 30.5082 69.7363 29.4348 69.746 28.3777L69.771 19.7435Z" fill="#D11717"/>
<path d="M28.8915 76.104L28.9208 72.6311C28.9448 70.159 29.1527 68.5648 30.9994 66.712C31.7992 65.9098 33.5966 66.078 34.6634 66.0933C35.5135 66.1053 36.3674 66.1529 37.2157 66.2063L37.3443 72.462C37.3637 73.4891 37.3023 74.553 37.4092 75.5728C37.4347 75.8171 37.4547 76.0999 37.6344 76.2858C37.7988 76.4555 38.1127 76.5697 38.3271 76.6663C38.1694 77.7736 38.1444 78.883 38.1312 80H36.9188H29.1659H27.9972C27.9889 78.9159 27.9576 77.8271 27.9745 76.7435C28.2713 76.5154 28.5613 76.2831 28.8915 76.104Z" fill="#FC0502"/>
<path d="M29.1659 80C29.1767 79.3681 29.0522 78.1058 29.4143 77.589C30.2981 77.1573 35.7422 77.2941 36.927 77.4413L36.9188 80H29.1659Z" fill="white"/>
<path d="M33.066 67.3883C33.9663 67.3492 34.858 67.4426 35.7478 67.5733C36.0755 70.031 35.8696 73.4786 35.835 76.0133L33.2627 76.1011C32.2915 76.1111 31.3209 76.0931 30.3507 76.0471C30.1939 73.9396 29.9945 70.2604 31.2666 68.5026C31.7605 67.8202 32.2538 67.5204 33.066 67.3883Z" fill="white"/>
<path d="M157.717 66.1764C159.166 66.1318 162.573 65.8948 163.652 66.8389C164.896 67.9286 164.077 69.8205 164.024 71.2012C163.996 71.9394 164.189 72.7281 164.229 73.471C164.284 74.5025 164.093 75.8603 163.365 76.6467C162.825 77.2301 162.31 77.2859 161.564 77.3127C159.941 77.5484 156.642 77.377 154.972 77.1823C155.196 76.7729 154.999 69.94 155.009 69.0139C155.017 68.2575 155.282 67.0177 155.092 66.3147C155.966 66.2633 156.841 66.2172 157.717 66.1764Z" fill="#FC0502"/>
<path d="M158.071 72.3202C159.48 72.292 161.536 72.1229 162.839 72.6872C163.074 72.9327 163.143 73.4254 163.182 73.759C163.246 74.3099 163.109 74.8358 162.758 75.2709C162.244 75.9093 161.691 75.9672 160.927 76.0429C159.346 76.2344 157.764 76.1134 156.188 75.9293C156.201 75.9055 156.228 75.8573 156.237 75.8277C156.264 75.7343 156.354 73.0434 156.337 72.7603C156.33 72.6523 156.285 72.5536 156.233 72.46C156.845 72.3904 157.457 72.3551 158.071 72.3202Z" fill="white"/>
<path d="M157.582 67.4931C158.788 67.43 161.777 67.2294 162.691 67.9926C162.97 68.2248 163.111 68.5528 163.136 68.9108C163.176 69.4984 162.951 70.4465 162.571 70.8981C162.251 70.9941 161.86 70.9689 161.525 70.9806C160.133 71.2205 157.68 71.0505 156.204 71.0267C156.228 70.985 156.251 70.9407 156.265 70.8943C156.347 70.6174 156.36 67.8942 156.265 67.6816L157.582 67.4931Z" fill="white"/>
<path d="M54.9573 66.2633C57.9776 66.1923 61.0635 66.1289 64.0797 66.2998C64.2274 68.5502 64.2374 70.9495 64.0874 73.1979C62.9469 73.3732 61.8058 73.3447 60.6553 73.3386C59.1801 73.328 57.7048 73.3292 56.2314 73.4143C56.1814 74.0404 56.296 75.9619 56.1224 76.4077C56.0643 76.5571 55.9777 76.6261 55.8335 76.6869C55.608 76.7818 55.2025 76.7909 54.972 76.7028C54.6328 76.1751 54.7103 67.4825 54.9573 66.2633Z" fill="#FC0502"/>
<path d="M57.9248 67.4884C59.1404 67.4837 60.3846 67.4226 61.5973 67.4869C61.9191 67.5039 62.3082 67.5888 62.5243 67.8501C63.052 68.4891 62.815 71.1353 62.7325 72.0007C62.2606 72.0685 61.7837 72.0724 61.3081 72.0864C59.5994 72.0856 57.8857 72.1108 56.1779 72.0486C56.106 70.5883 56.0555 69.0235 56.2681 67.575L57.9248 67.4884Z" fill="white"/>
<path d="M174.033 66.1764C174.998 66.1858 175.947 66.1693 176.885 66.4301C176.894 66.4401 176.904 66.4495 176.912 66.4597C177.449 67.0793 177.215 74.2717 177.117 75.5634C177.092 75.8961 177.08 76.4267 176.796 76.6419C176.619 76.7755 176.398 76.7811 176.188 76.7629C175.255 76.185 176.219 74.3862 175.695 73.5282C175.687 73.5144 175.677 73.5015 175.668 73.488C174.202 73.2114 172.507 73.3497 171.011 73.3638L169.167 73.4695C169.435 73.9352 169.215 75.665 169.084 76.2029C169.028 76.4332 168.904 76.6111 168.694 76.7224C168.5 76.8255 168.254 76.7993 168.055 76.7338C167.933 76.5486 167.931 76.3233 167.927 76.1063C167.912 75.3182 167.993 74.5213 167.997 73.7308C168.008 71.426 167.897 69.3503 169.606 67.5682C170.896 66.2242 172.286 66.2063 174.033 66.1764Z" fill="#FC0502"/>
<path d="M172.007 67.5806C173.056 67.4323 174.6 67.3892 175.592 67.8252C175.767 68.0114 175.829 68.2425 175.875 68.4868C176.025 69.2899 176.194 71.3172 175.722 71.9984C174.825 72.041 173.915 72.0225 173.015 72.0336C171.723 72.0706 170.411 72.0703 169.12 72.0016C169.405 71.4901 169.178 70.6609 169.423 70.0431C169.873 68.9102 170.917 68.0516 172.007 67.5806Z" fill="white"/>
<path d="M96.3711 66.1764L98.3655 66.2101C98.5244 66.4222 98.5414 66.7002 98.5687 66.9548C98.6938 68.1217 98.966 76.2631 98.4639 76.8272C98.382 76.9194 98.283 76.9006 98.1664 76.9121C97.24 76.4326 97.7665 74.2717 97.2606 73.4862C97.2517 73.4724 97.2415 73.4592 97.2318 73.4457L91.6741 73.4328L90.706 73.5191C90.7261 73.5688 90.744 73.6194 90.7597 73.6709C90.8813 74.0606 90.9356 76.1037 90.7535 76.4287C90.6754 76.5679 90.5433 76.6739 90.3865 76.7142C90.1862 76.7655 89.9613 76.7984 89.7743 76.693C89.3511 76.0511 89.4119 73.4786 89.3993 72.5977C89.3708 70.6106 89.6774 69.2499 91.1 67.7932C92.7045 66.1502 94.205 66.1958 96.3711 66.1764Z" fill="#FC0502"/>
<path d="M94.0114 67.5806C95.0209 67.4511 96.2057 67.4764 97.2079 67.6522C97.3706 67.8369 97.3991 68.0774 97.432 68.3129C97.5503 69.1677 97.7738 71.3671 97.2379 72.0718C96.157 72.196 94.961 72.095 93.8675 72.0938C92.7349 72.0944 91.6253 72.0668 90.5015 71.9162C90.7913 71.5338 90.7887 70.8015 91.0133 70.3282C91.6244 69.04 92.6721 68.0607 94.0114 67.5806Z" fill="white"/>
<path d="M23.3291 65.5903C23.3657 65.5891 23.4024 65.588 23.4389 65.5882C23.7253 65.5906 24.0491 65.612 24.2573 65.8273C24.4458 66.774 24.3078 67.9423 24.3231 68.9207C24.3592 71.2317 24.5612 74.2758 24.3649 76.4975C24.2479 76.6417 24.2099 76.6828 24.031 76.7383C23.7301 76.8313 23.3698 76.8393 23.0947 76.6927C22.634 75.9208 23.1242 68.951 23.282 67.6972C22.1552 69.2305 20.9173 70.6776 19.7735 72.1983C18.7298 73.5861 17.5036 75.7742 16.1759 76.8454C16.1356 76.8597 16.0952 76.8736 16.0547 76.8871C15.7598 76.9852 15.4552 77.0742 15.1617 76.9285C14.7686 76.3421 14.908 67.5829 15.0355 66.2774C15.0547 66.0813 15.0423 66.0581 15.1964 65.9312C15.6096 65.8402 16.0118 65.9227 16.4233 65.9835C16.4725 67.6425 16.0092 73.7467 16.4377 74.7403C16.5915 74.7192 16.6805 74.5742 16.7708 74.4508C17.4415 73.5361 18.0143 72.5269 18.6583 71.5896C19.5967 70.2239 20.6087 68.9257 21.6087 67.6058C22.0979 66.9604 22.6276 66.0698 23.3017 65.6088L23.3291 65.5903Z" fill="#FC0502"/>
<path d="M122.783 66.1764C123.188 66.1638 123.597 66.1975 124.002 66.2178C124.046 66.2982 124.081 66.3734 124.105 66.4621C124.205 66.833 124.105 67.129 123.923 67.4528C121.503 67.6584 119.073 67.323 116.657 67.7297C116.665 67.7474 116.674 67.7644 116.681 67.7823C116.763 67.9852 116.629 70.7401 116.554 70.923C119.045 71.0931 121.536 70.9524 124.026 71.0699C124.049 71.1119 124.052 71.113 124.068 71.1668C124.175 71.5185 124.099 71.9575 123.919 72.2703C121.501 72.4535 119.027 72.2427 116.593 72.3622C116.799 72.7518 116.699 75.2827 116.581 75.7437C117.008 75.8485 117.432 75.9243 117.866 75.9924C119.885 76.19 122.026 76.055 124.056 76.0491C124.099 76.1184 124.117 76.1671 124.134 76.2482C124.203 76.5732 124.192 76.8536 124.014 77.1335C122.929 77.5581 116.641 77.307 115.248 77.1593C115.281 77.0953 115.313 77.0281 115.334 76.9585C115.369 76.8463 115.421 67.1533 115.355 66.5305C115.344 66.4228 115.301 66.327 115.25 66.2325C117.761 66.2399 120.272 66.2212 122.783 66.1764Z" fill="#FC0502"/>
<path d="M44.2081 66.1764C46.2735 66.0519 48.4165 66.1018 50.4816 66.2357C50.5054 66.6647 50.4714 67.0961 50.4499 67.5248C48.1017 67.4446 45.7153 67.3368 43.3718 67.5456C43.2358 68.7149 43.2558 69.8742 43.3031 71.047C45.6566 71.1864 48.097 71.0478 50.4578 71.0443C50.4672 71.5033 50.4294 71.9581 50.3959 72.4156C48.0656 72.3216 45.6933 72.1845 43.3662 72.3968C43.2467 73.3517 43.0297 74.9644 43.3448 75.8656C43.9729 76.3686 49.3843 76.0182 50.4584 75.9874C50.4599 76.424 50.4112 76.8548 50.3671 77.2888C48.3246 77.4597 43.9088 77.4782 41.9588 77.1802C41.7788 75.7537 41.8663 74.237 41.8625 72.7964C41.8569 70.6541 41.6728 68.3399 42.0616 66.2328C42.7769 66.2216 43.4928 66.1955 44.2081 66.1764Z" fill="#FC0502"/>
<path d="M128.362 66.2642C129.637 66.1993 130.941 66.2554 132.219 66.2469C134.256 66.2337 136.301 66.1803 138.337 66.2449C138.594 66.7338 138.586 67.879 138.449 68.4178C138.39 68.6459 138.338 68.7258 138.138 68.8438C137.501 68.7217 137.666 68.1441 137.255 67.7997C137.244 67.7903 137.232 67.7818 137.22 67.7729C135.641 67.2788 131.297 67.5389 129.543 67.7712C129.549 67.7829 129.555 67.7941 129.561 67.8058C129.593 67.8745 129.615 75.5617 129.549 75.7446C130.039 75.8586 130.529 75.9355 131.028 76.0057C132.65 76.1202 135.022 76.2024 136.627 75.9287C137.45 75.7884 137.336 75.421 137.757 74.8211C138.022 74.699 138.094 74.7125 138.375 74.7372C138.459 74.8335 138.501 74.8664 138.527 74.9964C138.641 75.5679 138.612 76.6655 138.291 77.1579C137.265 77.3955 135.964 77.2915 134.908 77.2971C132.642 77.3097 130.385 77.352 128.126 77.1523C128.133 77.1376 128.139 77.1227 128.146 77.1077C128.473 76.425 128.272 68.002 128.362 66.2642Z" fill="#FC0502"/>
<path d="M84.5877 65.9879C84.9706 65.965 85.345 65.9868 85.727 66.0105C85.8662 66.4152 85.8445 66.8547 85.8222 67.2761C85.6885 69.7861 83.7652 70.3255 83.6131 71.516C83.5039 72.369 84.7668 73.1753 85.2208 73.8022C85.4472 74.1146 85.5799 74.3945 85.5229 74.7759C85.6034 74.9145 85.6548 75.0569 85.683 75.2143C85.7714 75.7062 85.7455 76.4414 85.4516 76.8531C85.3917 76.8742 85.3053 76.9253 85.2463 76.9004C84.7653 76.696 84.3954 75.4084 84.1916 74.9395C83.7232 73.8612 82.7971 72.4717 81.6595 72.0237C80.2586 71.8225 78.5752 71.9479 77.1545 71.9911C76.8415 73.5388 77.2385 75.2096 76.9167 76.7374C76.8037 76.7647 76.6853 76.7909 76.5684 76.7917C76.4055 76.7929 76.0331 76.7997 75.9216 76.679C75.4036 76.1187 75.5906 67.2661 75.6667 65.9779L77.0826 66.0452C77.0403 67.5862 76.875 69.1357 77.0682 70.6717C78.4912 70.7725 80.4119 70.8629 81.8178 70.6204C81.8413 70.6115 81.8648 70.603 81.888 70.5936C82.8394 70.206 83.8774 69.0338 84.282 68.0986C84.4978 67.5994 84.79 66.4997 84.5877 65.9879Z" fill="#FC0502"/>
<path d="M7.24494 65.1208C8.30589 65.1049 9.37306 65.1478 10.4342 65.1671C10.6862 67.9212 10.5142 70.8502 10.5003 73.6204C10.4965 74.3794 10.6388 75.2897 10.5327 76.0218C10.4985 76.2576 10.3943 76.4522 10.196 76.5923C9.97017 76.752 9.70948 76.8014 9.44288 76.7476C9.21663 76.56 9.12775 76.4267 9.083 76.1298C8.98604 75.4865 9.11462 74.7656 9.11985 74.1111C9.13947 71.6618 9.35356 69.0623 9.09492 66.6324C8.17995 66.4545 6.67978 66.0624 5.82841 66.5531C5.392 66.8048 5.32376 67.2843 5.1925 67.7341C4.46305 70.3378 3.46277 73.3611 2.10756 75.6897C1.61351 76.5389 1.17487 76.6431 0.272369 76.8848C0.510613 75.6709 1.27549 74.6804 1.78852 73.5705C3.0271 70.8907 3.87971 68.1443 4.22967 65.213C5.22154 65.1246 6.24798 65.1472 7.24494 65.1208Z" fill="#FC0502"/>
<path d="M110.389 66.9663C110.752 66.9219 111.143 66.8961 111.476 67.0661C111.515 67.1319 111.541 67.1783 111.561 67.2526C111.679 67.6801 111.661 74.9441 111.599 75.8388C111.579 76.1298 111.546 76.5054 111.393 76.7556C111.319 76.8777 111.269 76.8633 111.136 76.895C109.787 76.3973 110.86 73.5071 110.175 72.4911C110.165 72.4758 110.154 72.4611 110.143 72.4461C108.512 72.1522 105.707 72.3968 103.871 72.2861L102.848 72.156C102.857 72.0976 102.857 72.0582 102.838 72.0016C102.489 70.9735 102.085 68.4926 102.433 67.4537C102.494 67.2705 102.606 67.1143 102.784 67.0347C103.003 66.9369 103.446 66.9859 103.663 67.0808C103.719 67.4229 103.78 70.3011 103.736 70.6911C105.808 71.1888 108.04 71.049 110.155 70.9586C110.597 70.3563 110.332 67.8249 110.389 66.9663Z" fill="#FC0502"/>
<path d="M150.144 66.1764C150.586 66.1614 151.02 66.1902 151.461 66.221C151.512 66.2942 151.543 66.3558 151.572 66.441C151.689 66.7928 151.636 67.099 151.473 67.4229C150.134 67.5518 148.776 67.5207 147.432 67.5633C147.469 67.6317 147.508 67.7092 147.524 67.7858C147.665 68.4671 147.499 71.1078 147.493 72.001C147.482 73.6689 147.591 75.3723 147.512 77.0349C147.504 77.192 147.463 77.3062 147.378 77.4371C146.94 77.5205 146.477 77.4985 146.032 77.5029C146.061 77.4468 146.09 77.3852 146.102 77.3232C146.207 76.8261 146.215 75.108 145.954 74.6904C146.006 74.6085 146.051 74.521 146.074 74.4259C146.233 73.7664 146.17 68.9061 146.065 68.0874C146.043 67.9121 145.976 67.7624 145.883 67.6138C145.039 67.5439 142.576 67.7694 142.002 67.321C141.85 67.2012 141.791 67.0288 141.779 66.8368C141.764 66.6054 141.862 66.5009 141.996 66.332C142.227 66.2146 142.435 66.1603 142.695 66.1497C143.434 66.1194 144.2 66.2357 144.944 66.2428C146.676 66.2595 148.413 66.2075 150.144 66.1764Z" fill="#FC0502"/>
</g>
<defs>
<clipPath id="clip0_1_457">
<rect width="180" height="79.8695" fill="white" transform="translate(0 0.130508)"/>
</clipPath>
</defs>
</svg>
