<svg width="37" height="37" viewBox="0 0 37 37" fill="none" xmlns="http://www.w3.org/2000/svg">
<path d="M32.3295 7.11914C33.1822 8.23377 33.8948 9.45498 34.4978 10.7493L18.0679 23.0071L11.167 18.6217V13.3744L18.0313 17.7233L32.3295 7.11914Z" fill="#21A038"/>
<path d="M4.16002 18.2621C4.16002 18.0093 4.16002 17.7961 4.19656 17.5434L0.0365448 17.3271C0.0365448 17.6165 0 17.9393 0 18.2255C0 23.2596 2.02824 27.8247 5.299 31.1321L8.24999 28.1475C5.72536 25.632 4.16002 22.145 4.16002 18.2621Z" fill="url(#paint0_linear_1_956)"/>
<path d="M18.0317 4.24187C18.2814 4.24187 18.4946 4.24187 18.7443 4.27841L18.9575 0.0726772C18.6712 0.0726772 18.3514 0.0361328 18.0682 0.0361328C13.089 0.0361328 8.57264 2.0857 5.29883 5.39304L8.24982 8.37755C10.741 5.82549 14.2249 4.24187 18.0317 4.24187Z" fill="url(#paint1_linear_1_956)"/>
<path d="M18.0322 32.2841C17.7825 32.2841 17.5693 32.2841 17.3196 32.2476L17.1064 36.4533C17.3927 36.4533 17.7125 36.4899 17.9957 36.4899C22.9749 36.4899 27.4943 34.4403 30.7651 31.133L27.8141 28.1484C25.3229 30.737 21.8725 32.2841 18.0322 32.2841Z" fill="url(#paint2_linear_1_956)"/>
<path d="M25.8549 6.68776L29.3754 4.0626C26.2812 1.54708 22.3344 0 18.0312 0V4.20573C20.9487 4.24228 23.65 5.14068 25.8549 6.68776Z" fill="url(#paint3_linear_1_956)"/>
<path d="M36.1 18.264C36.1 17.1493 35.9934 16.0712 35.8138 14.9932L31.937 17.9046C31.937 18.0112 31.937 18.1574 31.937 18.264C31.937 22.3996 30.1584 26.1029 27.3506 28.6549L30.1584 31.7826C33.7886 28.4753 36.1 23.6209 36.1 18.264Z" fill="#21A038"/>
<path d="M18.0315 32.2837C13.9416 32.2837 10.2779 30.4869 7.75331 27.6455L4.65918 30.4869C7.96649 34.1901 12.7325 36.4894 18.0315 36.4894V32.2837Z" fill="url(#paint4_linear_1_956)"/>
<path d="M8.74944 7.87277L5.93853 4.74512C2.27492 8.08899 0 12.9069 0 18.2638H4.16002C4.16002 14.1646 5.93853 10.4279 8.74944 7.87277Z" fill="url(#paint5_linear_1_956)"/>
<defs>
<linearGradient id="paint0_linear_1_956" x1="4.85538" y1="30.6207" x2="0.582811" y2="18.2147" gradientUnits="userSpaceOnUse">
<stop offset="0.1444" stop-color="#F2E913"/>
<stop offset="0.3037" stop-color="#E7E518"/>
<stop offset="0.5823" stop-color="#CADB26"/>
<stop offset="0.891" stop-color="#A3CD39"/>
</linearGradient>
<linearGradient id="paint1_linear_1_956" x1="6.48541" y1="4.91826" x2="17.2806" y2="0.785795" gradientUnits="userSpaceOnUse">
<stop offset="0.0592" stop-color="#0FA8E0"/>
<stop offset="0.5385" stop-color="#0099F9"/>
<stop offset="0.9234" stop-color="#0291EB"/>
</linearGradient>
<linearGradient id="paint2_linear_1_956" x1="16.8634" y1="32.9128" x2="29.7265" y2="29.9926" gradientUnits="userSpaceOnUse">
<stop offset="0.1226" stop-color="#A3CD39"/>
<stop offset="0.2846" stop-color="#86C339"/>
<stop offset="0.8693" stop-color="#21A038"/>
</linearGradient>
<linearGradient id="paint3_linear_1_956" x1="17.1765" y1="2.67979" x2="27.8738" y2="5.99536" gradientUnits="userSpaceOnUse">
<stop offset="0.0566" stop-color="#0291EB"/>
<stop offset="0.79" stop-color="#0C8ACB"/>
</linearGradient>
<linearGradient id="paint4_linear_1_956" x1="5.71701" y1="31.1522" x2="17.2097" y2="35.4658" gradientUnits="userSpaceOnUse">
<stop offset="0.1324" stop-color="#F2E913"/>
<stop offset="0.2977" stop-color="#EBE716"/>
<stop offset="0.5306" stop-color="#D9E01F"/>
<stop offset="0.8023" stop-color="#BBD62D"/>
<stop offset="0.9829" stop-color="#A3CD39"/>
</linearGradient>
<linearGradient id="paint5_linear_1_956" x1="3.18851" y1="18.772" x2="7.80693" y2="6.70339" gradientUnits="userSpaceOnUse">
<stop offset="0.0698" stop-color="#A3CD39"/>
<stop offset="0.2599" stop-color="#81C55F"/>
<stop offset="0.9216" stop-color="#0FA8E0"/>
</linearGradient>
</defs>
</svg>
